<?xml version="1.0" encoding="utf-8"?>
<!-- Generator: Adobe Illustrator 24.2.0, SVG Export Plug-In . SVG Version: 6.00 Build 0)  -->
<svg version="1.1" id="图层_1" xmlns="http://www.w3.org/2000/svg" xmlns:xlink="http://www.w3.org/1999/xlink" x="0px" y="0px"
	 viewBox="0 0 85 85" style="enable-background:new 0 0 85 85;" xml:space="preserve">
<style type="text/css">
	.st0{fill-rule:evenodd;clip-rule:evenodd;fill:#FFFFFF;}
	.st1{fill-rule:evenodd;clip-rule:evenodd;}
	.st2{display:none;}
	.st3{display:inline;}
	.st4{fill-rule:evenodd;clip-rule:evenodd;fill:#040000;}
</style>
<g>
	<g>
		<g id="Whatever.svg" transform="matrix(0.453044,0,0,0.405761,970.048,1213.42)">
			<g transform="matrix(1,0,0,1,-409,-366.5)">
				<g id="body-mono-Whatever">
					<g id="_xD83C__xDFA8_-Background2" transform="matrix(0.615063,0,0,0.615063,88.5106,218.817)">
						<path class="st0" d="M-2698.7-4420.7c2.2-1.3,4.4-2.7,6.6-4.2c1.5-1,0.2-3.6-1.4-2.6c-0.8,0.5-1.6,0.9-2.4,1.4
							c0.6-0.6,1.2-1.3,1.7-2l0,0c2-2-0.6-5.8-2.8-4.1c-2,1.6-4,3.3-6.3,4.3c-4.8,2.3-10,2.6-15.1,2.7c-1.9-0.2-3.7,0.2-5.5,0.6
							c0.7-3.2,2.5-5.6,3.4-8.7c0.7-3.1-3.3-5.2-4.8-2.2c-0.4,0.7-0.7,1.5-1,2.2c-3.1,3.1-8.2,2.9-11.4,6.2c-1.8,1.8-2.6,4.1-3,6.5
							c-0.2,1.6,0.1,3.3-0.8,4.7c-2.3,3.6-5.2,8.2-8,12.9c-2.5,4.1-4.8,8.3-6.4,11.8c-2.4-17.6-8.9-39.3-15.5-55.3
							c-2.2-5.1-4.7-10.2-8-14.5c0.4-1.5-0.9-4-1.8-3.2c-2.6-3.5-7.2-4.5-10.9-6.2c-5-2.4-9.1-7.3-11.1-12.9
							c-2.6-10.7-9-12-17.9-11.6c-8.5,0-14.8,4.1-16.7,13.7c-3.8,7.3-12.7,6.1-19.1,8.1c-4.7,1.2-9.3,3.1-13.6,5.4
							c-4.8-5.1-22.1,16.3-23.7,21.8c0.9,0.2,1.8,0.4,2.8,0.7c0.8,0.3,0.5,1.6-0.3,1.4c-1-0.3-2-0.5-3.1-0.6c0,0.1-0.1,0.2-0.1,0.3
							c-0.1,0-0.2,0-0.3,0c0.3,0.1,0.5,0.3,0.7,0.5c0.6,0.5-0.2,1.6-0.8,1.1s-1.3-0.4-2-0.6c0,1.6-5.2-0.2-6-0.7
							c-3.5-0.5-7.2,0-10.5-1.9c-4.4-1-8.8-2.2-13.1-3.5c-1.1,0.5-2.2,2.3-1.3,3.6c0.5,0.6-0.1,1.6-0.8,1.1c-2.2-1.4-3.8-3.6-5.3-6
							c-0.7-0.8-1.9-0.6-2.8-0.9c-0.1,0.2-0.2,0.5-0.2,0.8c-3.8,0.7-1.1,5.3,0.8,6.8c-1,0.7-1.1,2.2-1,3.4c-0.2,0.4-0.3,1-0.1,1.4
							c0.7,1.8,2.3,3.4,3.4,4.9c1.3,1.6,2.5,3.3,4,4.6c6,5.1,13.3,8,20.8,9.1c2.7,0.5,6.5,1.2,8.1,3.7c-0.4,3-1.1,5.8-1.8,8.7
							c-0.9,3.8-0.9,7.9-0.9,11.8c-0.1-0.1-0.4-0.1-0.4,0.1c-0.2,1.6-0.4,3.3-1.3,4.7c-0.8,2.5-1.3,5.2-1.6,7.9
							c-1.2,12.6-1.4,25.7,1.2,38.1c1,4.6,2.7,9,4.9,13.1c0.7,1.2,1.7,1.6,2.7,1.3c3.2,1.9,7.3,2.5,10.8,2
							c11.9-3.7,7.7,5.3,24.4,2.5c28.7-4.1,57.7,3.9,86.3-0.8c0.7,6.1,9.9,4.3,13.1,1.8c9.6-8,14.4-33.3,19.2-46.1
							c3.3-10.1,8.9-28,16.1-34.8c2.2-1.9,4.8-2.9,7.5-3.7c9.8-2.8,19.7-5.5,29.6-8.3c1.7-0.5,1.4-3.6-0.4-3.4
							C-2694-4421.2-2696.4-4420.9-2698.7-4420.7z"/>
					</g>
					<g id="_xD83D__xDD8D_-Ink23" transform="matrix(0.615063,0,0,0.615063,88.5106,218.817)">
						<path class="st1" d="M-2917.9-4422.5c-0.7-0.1-1.3-0.4-2-0.6c-1-0.3-2-0.7-2.9-1.1c-2-0.9-3.9-1.9-5.7-3.2
							c-2.9-2.1-5.5-4.7-7.4-7.9l-0.1-0.2c-1.1-1.9-3.1-6-0.9-7.5c-1.5-1.4-2.9-3.8-2.8-5.7c0.1-2.7,3.1-2.7,4.6-1.5
							c1,0.7,1.7,1.8,2.5,2.8c0.8,1.1,1.7,2.2,2.6,3.3c0.2,0.3,0.5,0.5,0.7,0.8l0.3,0.3c0-0.1-0.1-0.2-0.1-0.3
							c-0.5-1.8,0.1-4.1,1.7-4.9c1-0.5,2-0.2,2.9,0.2l0.1,0.1c1.3,0.6,2.6,1.1,3.9,1.5c5.4,1.7,11,2,16.5,2.8
							c2.1,0.3,4.3,0.7,6.4,1.3c0.8-3.8,2.8-7.5,4.9-10.5c10.3-14.4,27.2-19.2,42.7-22.3c1.4-0.3,2.6,1.8,3.4,1.3
							c1.6-0.9,2.9-2.3,4.1-3.7c2.6-3.1,4.4-6.7,6.5-10.1c1.1-1.7,3.5-0.2,2.5,1.6l-0.5,0.9c-2,3.6-4.2,7.4-7,10.2
							c-1.5,1.5-3.2,2.7-5.1,3.4c-1.4,0.6-3.5,1-5.1,0.5l-0.2-0.3c0.1,0.1,0.1,0.2,0.2,0.3c4.1,6.7,9.3,12.4,14.8,17.7
							c5.5,5.4,11.5,10.2,17.5,15l0.5,0.4c9.8-8,18-18.3,23.8-30.2c-1.2-0.2-2.4-1-3.5-1.7c-1.2-0.8-2.4-1.7-3.3-3
							c-2-2.7-1.7-6.2-2.1-9.5c0-0.2,0.2-0.3,0.3-0.2c1.1,1,1.5,2.6,1.9,4.1c0.5,1.6,1.1,2.8,2.2,3.9c1.1,1,2.4,1.8,3.6,2.4
							c0.6,0.3,3.9,1.2,4.2,2c5.6-1.5,11,1.1,15.1,5.3c4,4.1,6.9,9.4,9.5,14.7c2.8,5.6,5,11.5,7,17.5c2,6.1,3.5,12.4,4.3,18.8
							c0.7,5.4,1.1,10.9,1.4,16.4v0.7c1.5-2.6,2.9-5.1,4.4-7.7c2.7-4.6,5.4-9.2,8.2-13.7c-1-2.9,0.1-5.9,1.9-8.1
							c2-2.5,4.8-3.7,7.5-5l0.4-0.2c1.3-0.7,2.6-1.4,3.7-2.4c1.1-1,1.9-2.3,3-3.1c1.6-1.3,4.6-1,4.7,1.8c0,1.5-0.6,3.2-1.1,4.6
							c-0.6,1.6-1.4,3-2.4,4.3c0,0.1-0.1,0.1-0.1,0.1l0,0c1.4,0.3,2.7,0.5,4.1,0.5c2.8,0.1,5.6-0.1,8.4-0.7c2.8-0.7,5.5-1.8,8.1-3.3
							c2.2-1.3,4.2-3,6.6-3.4c0.2,0,0.5-0.1,0.7-0.1c0.4,0,0.8,0.5,0.6,0.9c-0.1,0.2-0.2,0.5-0.3,0.7c-0.8,2.1-2.2,4.1-3.8,5.7
							l-0.1,0.1c0.6-0.2,1.1-0.5,1.7-0.7c3.3-1.6,6.2-4.1,9.7-5.1c0.2,0,0.3-0.1,0.5-0.1c1.1-0.3,1.7,1.1,1,2
							c-0.1,0.1-0.2,0.3-0.3,0.4c-1.6,2.2-3.3,4.2-5.2,6c-0.7,0.6-1.3,1.2-2,1.8c-0.3,0.2-0.6,0.5-0.9,0.7l-0.1,0.1
							c0.3-0.3,0.7-0.5,1-0.8c2.1-0.7,4.3-1.6,6.3-2.5c0.8-0.4,1.5,0.6,1.5,1.3c0.3,2.6-2.3,4.4-3.9,5.6c-1.7,1.2-3.5,2.2-5.4,2.9
							c-3.6,1.5-7.4,2.1-11.2,2.7l-1.8,0.3c-7.3,1.1-14.8,2.5-20,8.8c-2.9,3.5-4.9,7.9-6.7,12.2c-1.8,4.3-3.4,8.7-4.9,13.2
							c-1.6,4.6-2.9,9.3-4.4,14c-1.3,4.3-2.9,8.5-4.5,12.7l-0.2,0.7c-3.3,8.9-7.3,17.2-12.8,24.6c-0.9,1.2-2.4-0.5-1.5-1.7
							c5.8-8.3,9.8-18.2,13.2-28c1.5-4.5,2.8-9,4.2-13.5l0.9-2.7c1.2-3.6,2.3-7.1,3.5-10.6c1.5-4.5,3.2-8.9,5.2-13.1l0.2-0.4
							c1.9-4.1,4.1-8.2,7.3-11.3c5.6-5.6,13-7,20.2-8l2.3-0.3c3-0.5,6.1-0.9,9-1.9c1.7-0.5,3.4-1.2,4.9-2.1c0.6-0.4,1.2-0.8,1.8-1.2
							c-1.7,0.5-3.4,1-5.1,1.4c-0.8,0.2-1.7,0.3-2.5,0.4c-2.2,0.2-4.3,0.2-6.5,0.1c-0.2,0-0.2-0.3,0-0.4c1.5-0.3,3.1-0.7,4.6-1.1
							l0.5-0.1c0-0.3,0.1-0.6,0.3-0.9c0.8-1,2.2-1.6,3.2-2.3c1.1-0.8,2.1-1.6,3-2.5c0.9-0.8,1.7-1.7,2.6-2.6l0.2-0.3
							c-0.1,0.1-0.2,0.2-0.2,0.3c-2.2,1.1-4.3,2.6-6.6,3.5c-1.8,0.7-3.8,1.2-5.7,1.4h-0.1h-0.1c-2,0.2-4.1,0.1-6.1,0.6
							c-0.2,0.1-0.3-0.3-0.1-0.4c1.7-0.8,3.6-1.1,5.4-1.5c0-0.2,0.1-0.3,0.3-0.4l0.5-0.3c1.4-0.8,2.7-1.5,3.9-2.7
							c1-1.1,1.9-2.3,2.5-3.7c-2.6,0.6-4.8,2.8-7.2,4c-2.5,1.3-5.2,2.3-8,2.8l-0.3,0.1c-5.2,1-11.4,0.8-16-2.2
							c-0.1-0.1,0-0.3,0.1-0.3c1.3,0.2,2.6,0.5,3.9,0.8c-0.3-0.3-0.4-0.7-0.1-1.1c1.2-1.5,2.1-3.2,2.7-5.1l0.1-0.4
							c0.3-0.9,0.7-2.2,0.3-3c-0.4-0.7-1.5-0.6-2.1-0.3c-1.3,0.7-2.2,2.3-3.3,3.3c-1.2,1.1-2.6,1.9-4,2.6l-0.3,0.2
							c-2.4,1.2-5,2.2-6.9,4.4c-1,1.2-1.9,2.6-2.2,4.2c-0.1,0.7-0.1,1.5,0,2.2c0.1,0.6,0.4,0.9,0.3,1.5c-0.2,0.8-1,1.7-1.4,2.3
							c-0.5,0.8-0.9,1.6-1.4,2.3c-0.9,1.6-1.9,3.1-2.8,4.7c-1.9,3.1-3.7,6.3-5.5,9.4c-0.6,1-1.2,2.1-1.8,3.1l-0.9,1.5l-0.5,0.8
							l-0.8,1.4c0,0.1,0,0.3,0,0.4c-0.1,0.4-0.4,0.7-0.7,0.9h-0.1c-4.6,8.2-9.2,16.5-13.8,24.7c-0.2,2.5-0.5,5-0.7,7.5
							c-0.5,5.7-0.8,11.4-0.9,17.1c0,2.8,0.2,5.5,0.3,8.3c0.1,1.3,0.1,2.6,0.2,4l0.1,0.9c0.1,1.3,0.1,2.6-0.3,3.8
							c-0.4,1.1-1.5,1.3-2.1,0.5c-8.6-0.4-17.2-0.7-25.9-0.9c-15.4-0.3-30.9-0.3-46.3,0.1c-7.8,0.2-15.5,0.4-23.3,0.7
							c-3.8,0.1-7.6,0.3-11.5,0.4c-2.1,0-5.3-0.8-5.5-3.4v-0.1c-0.3,0.1-0.5,0.1-0.8,0.2c-0.1,0-0.2,0-0.3,0h-0.1
							c-3.1,1-6.9-0.4-9.9-1.3l-0.2-0.1c-2.8-0.8-5-2-6.8-4.5c-3.2-4.5-4.3-10.6-4.8-16.1c-0.5-5.2-0.6-10.6,0.1-15.8
							c-0.4-4.3,0-8.7,0.4-12.9c0.2-2.1,0.5-4.2,0.8-6.3c0.2-1.2,0.4-2.3,0.6-3.5c0.1-0.5,0.2-1,0.3-1.4l0.1-0.2
							c-0.3,0.1-0.7,0-1.1-0.3c-0.9-0.5-1.1-1.6-1.1-2.7c0-3.1,0.3-6.4,0.6-9.5s0.7-6.2,1.2-9.3l0.1-0.8c0.4-2.3,0.9-4.7,1.7-6.8
							c-3.1-0.6-6.1-1.2-9.1-2.3C-2915.1-4421.1-2916.5-4421.8-2917.9-4422.5z M-2757.5-4389.9h-0.1c-1.2,0.4-2.5,0.7-3.7,1.1
							c-2.1,0.6-4.2,1.3-6.2,2.3c-0.4,5.9-1,11.7-1.6,17.6l-0.1,1.2c0.9-1.9,1.8-3.7,2.8-5.6
							C-2763.5-4378.9-2760.5-4384.4-2757.5-4389.9z M-2905.2-4389.3c0,0.7-0.1,1.4-0.2,2.1c-0.1,1.1-0.2,2.2-0.3,3.3
							c-0.2,2.2-0.4,4.4-0.6,6.6c-0.1,1.4-0.2,2.8-0.2,4.2c1.2-5.2,2.9-10.2,4.4-15.2c-0.3,0-0.5-0.1-0.8-0.2l-0.5-0.1
							C-2903.6-4388.8-2904.5-4389-2905.2-4389.3z M-2753.6-4394.1v0.2c0,0.8-0.4,1.3-0.9,1.4
							C-2754.2-4393-2753.9-4393.6-2753.6-4394.1z M-2894.9-4433c1.3,0.1,2.6,0.4,3.8,1l0.1,0.1c0.9,0.4,2.2,0.9,2.5,1.9
							c0.1,0.3-0.1,0.6-0.4,0.6c-1,0.1-2.1-1.1-3-1.5c-1-0.4-2.1-0.8-3.1-0.9c-2.4-0.4-4.9-0.1-7.2,0.9c-0.1,0.1-0.2-0.2-0.1-0.2
							C-2900-4432.6-2897.5-4433.2-2894.9-4433z M-2922.5-4426c-0.2-0.1-0.3-0.3-0.4-0.5c-1.2-1.2-2.2-2.7-3-4.3l-0.2-0.4
							c-0.6-1.3-1.4-3.3,0.1-4.2c0.9-0.6,1.9-0.4,2.9-0.1c0.1,0,0.1,0,0.2,0.1c0.4,0.2,0.9,0.4,1.2,0.6c1.6,0.8,3.1,2,4.6,3.1
							c1.6,1.2,3.2,1.9,5.1,2.3h0.2c1.8,0.4,3.7,0.6,4.9,2.3c0.3,0.4,0,1.2-0.5,1c-3.4-1.3-7-1.6-10.1-3.7c-1.3-0.9-2.5-1.9-3.8-2.7
							c-0.7-0.4-1.4-0.8-2.2-1.1l-0.4-0.1c-0.2-0.1-0.5-0.2-0.7-0.1c-0.4,0.1-0.3,0.4-0.1,0.8l0,0c0.9,3.2,3.5,5.8,6,7.6
							c0.6,0.4,1.1,0.8,1.7,1.1c3.9,2.3,8.3,3.4,12.6,4.7c1.7,0.5,2.8,0.9,3.3,1.1c0.9-0.1,2,0.3,2.7,0.7c0.7,0.4,1.2,1,1.6,1.6
							c0,0,0.4,0.4,0.5,0.9c0.2,0.5,0.3,1.1,0.4,1.7c0,0.3,0,0.6-0.2,0.8c0.4,7.6-1.4,15.2-3.5,22.5l-0.2,0.7l-0.1,0.5
							c-2.2,7.7-4.8,15.3-6,23.4c-0.8,5.4-0.7,10.9-0.2,16.3v0.4c0.6,5.1,1.6,10.8,4.5,14.9c1.5,2.1,3.2,3,5.5,3.7h0.1
							c2,0.6,4.1,1.4,6.2,1.7c1.9,0.2,3.6-0.6,5.3-1.3l0,0c3.7-3.6,5.3-8.9,6.6-14.3c3.2-13.8,2.8-28.2,1-42.2
							c-0.9-7.3-2.2-14.6-3.5-21.8c-0.6-3.6-1.3-7.2-1.9-10.9l-0.3-2.1c-0.2-1.2-0.4-2.4-0.5-3.6c-0.2-1.6-0.3-3.2-0.3-4.8
							c-1.8-3.3-4.3-5.9-7.3-7.9c-2.1-1.4-4.4-2.3-6.7-3c-6.6-2-13.8-1.9-20.5-3.4c-2.2-0.5-4.4-1.3-6.5-2.2l-0.3-0.1
							c-1-0.4-2-0.7-2.5,0.6c-0.3,0.9-0.1,1.9,0.4,2.6c1.3,1.9,3.8,2.7,5.7,3.4c1.2,0.4,2.3,0.7,3.5,1s2.4,0.3,3.5,0.8
							c0.4,0.2,0.5,1,0,1.1c-1.4,0.4-2.9,0.1-4.3-0.3c-1.6-0.3-3.1-0.8-4.6-1.5c-0.3-0.1-0.6-0.2-0.9-0.4l-0.2-0.1
							c0.2,0.2,0.5,0.4,0.7,0.6c0.1,0,0,0.2-0.1,0.1c-3.6-1.5-6.8-4.2-9.3-7.3l-0.1-0.2c-0.9-1.1-2.9-4.5-4.6-3.6
							c-1.6,0.9,1.1,4.3,2.2,5.7l0.1,0.2c1.2,0,2.3,0.8,3.3,1.5c1.6,1.1,3.4,2.1,5.1,3c3.5,1.8,7.2,3.1,10.7,5v0.1
							c-2.2-0.4-4.4-1-6.5-1.8h-0.1h-0.1c-1.3-0.5-2.6-1-3.9-1.6c-1.4-0.7-2.8-1.4-4.2-2.2c-1.2-0.7-2.6-2.1-4-2.3
							c-0.2,0-0.3,0-0.4,0c-1.6,0.2-0.3,3.2,0.2,4.1c0.7,1.5,1.6,2.9,2.7,4.1c2.1,2.5,4.6,4.6,7.4,6.1
							C-2924.4-4426.9-2923.5-4426.4-2922.5-4426z"/>
					</g>
				</g>
			</g>
		</g>
		<g>
			<g transform="matrix(0.4441,0,0,0.39775,0,0)">
				<path class="st0" d="M142.5,21.7l-1.2,4.5l12.6-5l1.2-3.9L142.5,21.7z"/>
			</g>
			<g transform="matrix(0.4441,0,0,0.39775,0,0)">
				<path class="st0" d="M140.9,31.4c0,0-4.6,2-4.1,5.2c0.6,3.2,2.6,6.6,4.3,0.1C142.2,32.5,140.9,31.4,140.9,31.4z"/>
			</g>
			<g transform="matrix(0.4441,0,0,0.39775,0,0)">
				<path class="st0" d="M153,34.2c0,0-6.8-2.9-6.3,2c0.4,4.9,4.7,5.6,5.7,2.5C153.4,35.6,153,34.2,153,34.2z"/>
			</g>
			<g transform="matrix(0.4441,0,0,0.39775,0,0)">
				<path class="st0" d="M161.9,30.5l11.3-3.1l-0.6,3.6L162,34.2L161.9,30.5z"/>
			</g>
			<g transform="matrix(0.4441,0,0,0.39775,0,0)">
				<path class="st0" d="M160.6,44.2c0,0-4.2-0.3-4.6,3.4c-0.4,3.7,1.8,8,4,2.1C162.3,44,160.6,44.2,160.6,44.2z"/>
			</g>
			<g transform="matrix(0.4441,0,0,0.39775,0,0)">
				<path class="st0" d="M171.5,39c0,0-4.8,0.9-5.3,3.8c-0.5,2.8,1.6,7.4,4.2,1.8C173,38.9,171.5,39,171.5,39z"/>
			</g>
			<g transform="matrix(0.4441,0,0,0.39775,0,0)">
				<path class="st1" d="M139.7,23.3L139.7,23.3c0.2,0,0.4,0,0.6-0.1c0.5-0.2,1.1-0.4,1.2-0.5c1.2-0.4,2.2-1,3.4-1.4
					c0.3-0.1,0.5-0.2,0.8-0.3c2.3-0.7,4.7-1.6,7.1-2.3c1.1-0.3,2.2-0.5,3.3-0.8c0.5-0.1,0.9-0.3,1.4-0.4c0.4,0,0.7-0.4,0.6-0.8
					c0-0.4-0.4-0.7-0.7-0.7c-0.5,0-1-0.1-1.5,0c-0.8,0.1-1.5,0.3-2.3,0.5c-2.8,0.7-5.6,1.9-8.3,2.8c-0.5,0.2-0.9,0.4-1.3,0.6
					c-0.9,0.5-1.8,1.1-2.8,1.6c-0.2,0.1-0.8,0.3-1.2,0.7c-0.2,0.2-0.5,0.3-0.5,0.4c0,0.2,0,0.1,0,0.2s-0.1,0.2-0.1,0.2
					c0,0.2,0,0.4,0.3,0.4C139.5,23.4,139.6,23.4,139.7,23.3z M139.6,22.8L139.6,22.8L139.6,22.8L139.6,22.8z"/>
			</g>
			<g transform="matrix(0.4441,0,0,0.39775,0,0)">
				<path class="st1" d="M152.1,32.6c-0.2-0.1-0.4-0.2-0.6-0.3c-0.2-0.1-0.4-0.1-0.6-0.1c-0.7-0.1-1.5,0.2-1.9,0.2
					c-2.9,0.5-3.6,3.3-2.8,5.7c0.8,2.5,3,4.3,5.3,2.7c0.9-0.6,1.5-1.7,1.8-3c0.4-1.6,0.4-3.4,0.4-4.7c-0.1-2.7-0.2-6.2,0.2-9.4
					c0.2-1.7,0.6-3.3,1.2-4.6c0-0.1,0-0.1,0.1-0.2c0.1-0.3,0-0.5,0.1-0.7c0-0.1,0.1-0.2,0.2-0.3c0.1-0.1,0.1-0.3,0-0.5
					c-0.1-0.1-0.3-0.1-0.4,0c-0.1,0.1-0.1,0.2-0.2,0.3c-0.2,0.2-0.5,0.3-0.7,0.5c-0.1,0.1-0.1,0.2-0.1,0.3c-0.5,1-0.9,2.1-1.2,3.3
					C152,25.3,152.1,29.4,152.1,32.6z M152.1,34.7c-0.3,0-0.6-0.2-0.7-0.5c0,0,0,0-0.1,0c0,0-0.1,0-0.2,0c-0.2,0-0.4,0-0.7,0
					c-0.5,0.1-0.9,0.1-1.2,0.2c-1.6,0.3-1.9,1.9-1.5,3.2c0.4,1.4,1.5,2.6,2.8,1.7c0.6-0.4,0.9-1.1,1.1-1.9
					C152,36.5,152.1,35.5,152.1,34.7z"/>
			</g>
			<g transform="matrix(0.4441,0,0,0.39775,0,0)">
				<path class="st1" d="M140.4,31.1c-0.1,0-0.2,0-0.3,0c-1.6,0.5-2.7,1.4-3.4,2.6c-0.6,1.2-0.9,2.6-0.7,4.4
					c0.1,0.8,0.7,2.1,1.5,2.8c0.7,0.6,1.6,0.8,2.4,0.1c1-0.8,1.5-2.5,1.8-4.6c0.3-2.3,0.2-5,0.1-7.3c0-1.2,0-2.2,0.1-2.9
					c0-0.3,0.1-1,0.3-1.8c0.1-0.3,0.1-0.5,0.2-0.8c0-0.1,0.1-0.2,0.1-0.3v-0.1c0-0.1,0.1-0.2,0.1-0.3c0-0.1,0-0.3,0-0.2
					c0.1,0,0.1-0.3,0-0.3c0.1,0,0.3,0,0.3-0.2c0.1-0.2,0-0.4-0.2-0.4c-0.3-0.3-0.8-0.1-1.2,0.5c-0.7,0.9-1,3.1-1.1,3.8
					c-0.1,0.8-0.2,1.9-0.2,3.2C140.4,29.8,140.4,30.5,140.4,31.1z M140.4,32.8c-1.1,0.3-1.9,0.9-2.4,1.7c-0.5,0.9-0.6,2-0.4,3.4
					c0,0.4,0.4,1,0.7,1.4c0.2,0.2,0.5,0.5,0.7,0.3c0.7-0.6,1-1.9,1.2-3.4C140.3,35.2,140.4,34,140.4,32.8z"/>
			</g>
			<g transform="matrix(0.4441,0,0,0.39775,0,0)">
				<path class="st1" d="M141.8,26.3L141.8,26.3C141.8,26.3,141.8,26.4,141.8,26.3c0.2,0,0.4-0.1,0.6-0.2c1-0.4,2.5-1,2.6-1
					c1.7-0.6,3.4-1.4,5.1-2c0.4-0.2,0.9-0.3,1.3-0.4c0.7-0.2,1.3-0.4,2-0.5c0.4,0,0.8-0.5,0.7-1c0-0.5-0.4-0.9-0.9-0.8
					c-1,0.1-1.9,0.2-2.8,0.5c-2.1,0.6-4,1.7-6,2.6c-0.1,0.1-2,1-2.9,1.6c-0.1,0.1-0.3,0.1-0.3,0.2c-0.1,0.2,0,0.2,0,0.3
					c0,0.1-0.1,0.1-0.1,0.1c-0.1,0.3-0.1,0.4,0,0.6c0.1,0,0.2,0.1,0.3,0.1C141.6,26.5,141.7,26.4,141.8,26.3z"/>
			</g>
			<g transform="matrix(0.4441,0,0,0.39775,0,0)">
				<path class="st1" d="M161.6,31.2c1-0.2,2.9-0.8,3.2-0.9c1.9-0.5,3.7-1.1,5.6-1.5c0.6-0.1,1.2-0.2,1.9-0.4
					c0.6-0.1,1.2-0.3,1.8-0.3c0.4,0,0.7-0.4,0.7-0.8s-0.3-0.8-0.7-0.8c-0.7,0-1.4-0.1-2,0c-0.7,0.1-1.3,0.2-2,0.4
					c-1.9,0.5-3.8,1.2-5.7,1.9c-0.3,0.1-2.8,0.8-3.5,1.4c-0.4,0.3-0.4,0.6-0.4,0.7s0,0.3,0.2,0.4c0.1,0.1,0.3,0.1,0.7,0.1
					C161.5,31.4,161.6,31.3,161.6,31.2z"/>
			</g>
			<g transform="matrix(0.4441,0,0,0.39775,0,0)">
				<path class="st1" d="M170.7,38.9c-0.2-0.4-0.6-0.6-0.9-0.4c-1.1,0.5-2.3,0.8-3.1,1.6c-0.6,0.6-1.1,1.3-1.3,2.6
					c-0.2,1.1,0.2,3.8,1.3,4.8c0.6,0.6,1.5,0.8,2.5-0.1c1-0.9,1.8-2.5,2.3-4.5c1-3.7,1.3-8.7,1.5-11.1c0-0.6,0.2-2.2,0.3-3.2
					c0-0.3,0-0.5,0.1-0.7v-0.1c0,0,0,0-0.1,0c0.1,0,0.3,0,0.3-0.2c0.1-0.2,0-0.4-0.1-0.4c-0.4-0.3-0.9,0.1-1.3,1.2
					c-0.4,1-0.4,2.6-0.5,3.3C171.5,33.3,171.2,36.1,170.7,38.9z M170.6,39.8c-0.1,0.1-0.1,0.1-0.2,0.1c-1,0.5-2,0.7-2.7,1.4
					c-0.4,0.3-0.6,0.8-0.7,1.6c-0.1,0.5,0.1,1.6,0.4,2.5c0.1,0.3,0.2,0.7,0.5,0.7c0.1,0,0.2-0.1,0.4-0.2c1-0.9,1.7-2.9,2.2-5.1
					C170.4,40.5,170.5,40.2,170.6,39.8z"/>
			</g>
			<g transform="matrix(0.4441,0,0,0.39775,0,0)">
				<path class="st1" d="M161.6,31.6L161.6,31.6c0,0-0.2,0.3-0.3,0.7c0,0.1,0,0.2,0,0.3c-0.1,1.9-0.4,5.4-0.4,5.5
					c-0.1,1.1-0.2,3.1-0.5,5.1c-1.8-0.3-3.3,0.5-4.3,1.8c-0.9,1.3-1.3,3.1-1.1,5c0.1,0.8,0.5,2.1,1.2,2.8c0.6,0.6,1.4,0.9,2.3,0.2
					c0.9-0.7,1.7-2.3,2.3-4.3c1-3.6,1.4-8.4,1.5-10.5c0-0.2,0.3-3.6,0.3-5.5c0-0.1,0-0.2,0-0.3c-0.1-0.4-0.2-0.7-0.2-0.8
					c-0.1-0.1-0.1-0.2-0.1-0.3c-0.2-0.2-0.3-0.3-0.4-0.2c0,0-0.1,0-0.1,0.1c0,0-0.1,0.1-0.1,0.2C161.6,31.4,161.6,31.5,161.6,31.6
					L161.6,31.6z M160.1,45.1c-1.2-0.2-2.2,0.3-2.8,1.1c-0.7,0.9-1,2.3-0.8,3.7c0,0.4,0.2,1.1,0.6,1.5c0.2,0.2,0.4,0.5,0.6,0.3
					c1-0.7,1.6-2.6,2.1-4.8C159.9,46.3,160,45.7,160.1,45.1z"/>
			</g>
			<g transform="matrix(0.4441,0,0,0.39775,0,0)">
				<path class="st1" d="M162.7,34.8C162.7,34.8,162.7,34.7,162.7,34.8c0.2-0.1,0.3-0.1,0.5-0.2c0.1,0,0.1,0,0.2,0
					c0.1,0,0.2-0.1,0.3-0.2c0.4-0.1,0.8-0.3,1.3-0.4c1.9-0.6,4.3-1.1,6.2-1.7c1-0.3,1.7-0.6,2.3-0.9c0.4-0.2,0.5-0.7,0.4-1.1
					c-0.2-0.4-0.6-0.6-1-0.4c-0.4,0.1-0.9,0.2-1.5,0.4c-1.8,0.5-4.2,1.1-6.2,1.8c-1.3,0.5-2.4,0.9-3,1.5c-0.1,0.1-0.2,0.3-0.3,0.4
					c-0.1,0.2-0.2,0.3-0.2,0.4c0,0.2,0.1,0.7,0.6,0.6C162.3,34.9,162.5,34.8,162.7,34.8z"/>
			</g>
		</g>
		<g transform="matrix(0.4441,0,0,0.420687,0,-65.5604)">
			<path class="st1" d="M57.8,223.6c-0.2,0-0.5,0-0.9,0.2c-0.5,0.2-1,0.6-1.6,1c-1.3,1-2.8,2.5-4.5,4.3c-2.8,3.2-5.8,7.3-7.4,11.3
				c-3.6,8.7-4.4,18.7-7,27.9c-1.1,3.9-2.5,7.7-4.6,11.1c-2.5,4.2-5.6,4.5-7.8,2.6c-2.2-1.8-3.5-5.6-2.7-9.5c0-0.1,0-0.3-0.2-0.3
				c-0.1,0-0.2,0-0.3,0.2c-1,4.2,0.3,8.3,2.6,10.4c2.5,2.3,6.2,2.2,9.3-2.7c2.2-3.5,3.6-7.4,4.8-11.4c2.6-9.2,3.3-19.1,6.9-27.8
				c1.3-3.2,3.5-6.5,5.8-9.3c2.2-2.7,4.5-4.9,6.1-6.2c0.4-0.3,0.7-0.5,1-0.7s0.5-0.3,0.6-0.4c0.2,0,0.3-0.2,0.3-0.3
				C58.1,223.7,57.9,223.6,57.8,223.6z"/>
		</g>
		<g transform="matrix(0.4441,0,0,0.514338,2.69305,-358.746)">
			<path class="st1" d="M19.2,782.7c1.1-2,2-3,2.8-3.4c0.6-0.3,1.1-0.1,1.5,0.3c1.3,1.4,1.7,5.4,1.1,9c-1,7-1.9,14.5-3.3,21.7
				c-0.9,4.9-2.1,9.7-3.8,14.2c-0.3,0.8-1.2,2.7-2.4,4.5c-1,1.6-2.1,3.2-3.2,4.1c-0.5,0.4-0.9,0.7-1.4,0.7c-0.6,0-1.1-0.6-1.5-1.7
				c-0.1-0.1-0.2-0.2-0.4-0.2s-0.2,0.2-0.2,0.3c0.5,1.5,1.2,2.1,2,2.2c0.7,0.1,1.4-0.2,2.2-0.7c1.5-1.1,3-3.2,4.2-5.1
				c1-1.6,1.7-3.1,1.9-3.8c1.7-4.5,2.8-9.4,3.8-14.3c1.3-7.3,2.1-14.7,3-21.8c0.5-3.8-0.1-8-1.4-9.5c-0.6-0.7-1.4-0.9-2.4-0.4
				c-0.9,0.5-1.9,1.6-3,3.7c-0.1,0.1,0,0.3,0.1,0.3C19,782.9,19.2,782.9,19.2,782.7z"/>
		</g>
	</g>
	<g id="Gray-Short.svg10" transform="matrix(0.302528,0,0,0.270954,958.71,1103.56)" class="st2">
		<g transform="matrix(1,0,0,1,-236.5,-283.5)" class="st3">
			<g id="head-mono-Gray-Short10">
				<path class="st0" d="M-2835.5-3701.4c0,0-4.7,20.6,9.3,14.6c0,0,7.8,20.2,14.4,18.2c0,0,5.2,4.7,9.4,5.1c0,0,20.7,21.2,38-11.6
					c6.9-13,2.6-41.6-0.4-52.2c-1.3-4.6-1.5-9.4-1.7-10.7c0,0,8.9-6.2,2.4-9.2c0,0,4.7-7.2,3.8-7.9c-0.9-0.6-31-15.3-45.9-12.1
					c-15,3.3-22.1,5.3-27,12.6s-5,3.3-5.9,10.4C-2840-3737.1-2842.1-3705.6-2835.5-3701.4z"/>
				<path id="_xD83D__xDD8D_-Ink24" class="st1" d="M-2785.5-3656c-6.3,0.7-13.7-0.9-17.9-6.6c-0.1-0.2-0.2-0.4-0.2-0.6
					c0-0.2,0.1-0.4,0.2-0.6c0.1-0.2,0.3-0.3,0.5-0.3s0.3,0,0.5,0.1l0.4,0.2c2.9,1.8,5.8,3.3,9.1,3.9c3.3,0.7,6.7,0.6,10-0.3
					c6-1.5,10.9-5.4,14.5-10.6c4-5.8,6.4-13.1,7-20.4c0.7-8.8-1-17.6-2.8-26.2c-1.9-9-3.9-18-6.3-26.8c-0.1-0.3-0.1-0.5-0.1-0.7
					c-0.7-0.3-1.4-0.2-2.2,0.1c-1.4,0.5-2.7,1.7-3.8,2.6c-0.4,0.3-0.8,0.7-1.1,0.9c-1.4,1.1-2.9,1.8-4.6,2c-1.8,0.1-3.5-0.5-5.1-1.3
					c-0.8-0.4-1.6-0.8-2.4-1.2c-2.3-1.2-4.6-2.3-7-3c-3.3-1-6.7-1.5-10.2-1.5c-6.1,0.1-12.3,1.8-16,7.6c-1.5,2.3-2.5,5-1.7,7.9
					c0.4,1.6,1.2,3,2.1,4.3l0.3,0.4c0.5,0.7,0.9,1.4,1,2.2c0.1,0.6,0,1.3-0.4,2.1c-0.3,0.5-0.6,0.9-0.9,1.3
					c-0.2,0.3-0.5,0.6-0.7,0.9c-0.4,0.7-0.8,1.4-1.1,2.1c-0.6,1.4-0.8,3-0.9,4.5c-0.1,1.9,0.2,3.7,0.4,5.6c0.2,1.3,0.3,2.6,0.4,3.9
					c0,0.2-0.1,0.4-0.1,0.5c-0.1,0.2-0.3,0.3-0.4,0.3c-0.1,0-0.1,0-0.2,0c0,0.1,0.1,0.3,0.1,0.4c-0.1-0.2-0.2-0.3-0.4-0.5l0,0
					c-0.1-0.1-0.2-0.2-0.3-0.4c-0.2-0.2-0.4-0.4-0.6-0.5c-1-0.9-2.3-1.4-3.5-1.4s-2.4,0.4-3.3,1.4c-1.8,1.9-2.3,5-2.4,7.6
					c0,2.7,0.5,5.9,2.6,7.6c0.8,0.7,1.9,1.1,2.9,1.1c0.9,0,1.7-0.3,2.5-0.7c0.2-0.1,0.5-0.2,0.7-0.3c0.3-0.1,0.5-0.1,0.8,0
					s0.5,0.3,0.6,0.5c0.2,0.2,0.3,0.5,0.3,0.8s0,0.6-0.1,0.9c0,0.1-0.1,0.1-0.1,0.2l0.5,0.8c1.8,3.2,3.6,6.4,5.9,9.2
					c1.4,1.6,2.8,3.1,4.4,4.4l0.2,0.2c0.1,0.1,0.3,0.2,0.4,0.4c0.5,0.4,1,1,1.5,1c0.2,0,0.3,0,0.4,0c0.3,0,0.5-0.1,0.8,0.1
					c0.2,0.1,0.4,0.3,0.6,0.6c0.1,0.2,0.2,0.5,0.2,0.8s-0.1,0.6-0.2,0.8c-0.3,0.5-0.6,0.8-0.9,1c-0.4,0.2-0.8,0.2-1.3,0.1
					c-1.1-0.2-2.3-1.3-3.1-1.9l-0.2-0.1c-1.7-1.5-3.4-3.1-4.8-4.9c-2.5-3.1-4.7-6.8-5.8-10.8c-0.8,0.6-1.8,0.9-2.8,0.9
					c-1.5,0.1-3.1-0.4-4.3-1c-2.6-1.4-4.2-4-4.9-6.9c-0.9-3.5-0.6-7.4,0.5-10.5c0-0.1,0.1-0.2,0.1-0.3c-3.3-9.4-4.4-19.9-4.1-29.9
					c0.1-4.7,0.4-9.6,1.4-14.2c0.4-2.1,1.2-4,2.5-5.6c0.7-0.9,1.6-1.6,2.4-2.4c0.8-0.6,1.5-1.2,2.1-2l0.3-0.4
					c0.1-0.1,0.1-0.2,0.2-0.2c1.1-1.4,2.2-2.7,3.5-3.8c1.5-1.3,3.2-2.3,5-3.1c3.8-1.8,7.9-2.9,12-3.7c8.8-1.8,17.8-1.9,26.5,0.6
					c4,1.2,8,2.8,11.9,4.4c0.4,0.1,0.7,0.3,1.1,0.4c3,1.2,6.1,2.5,9.1,3.7c1.4,0.6,2.8,1.2,4.2,1.7c0.3,0.1,0.6,0.4,0.8,0.7
					s0.2,0.7,0.1,1.1c-0.9,2.5-2,4.8-3.3,6.9c0.5,0.4,0.9,0.8,1.2,1.4c0.4,0.7,0.6,1.5,0.6,2.4c0.1,2.9-2.3,4.9-4.3,6.3
					c-0.2,0.1-0.4,0.2-0.5,0.2c1.9,8.1,3.7,16.3,5.3,24.5l0.1,0.6c1.6,8.6,2.6,17.4,1.1,26.1c-1.3,7.5-4.3,14.8-9,20.4
					C-2772.6-3660.2-2778.8-3656.7-2785.5-3656z M-2826.8-3705.5c-0.8-2.9-1.3-6.1-0.9-9c0.2-1.9,0.7-3.6,1.5-5.3
					c0.5-0.9,1-1.8,1.7-2.6l0.2-0.3c0.1-0.1,0.2-0.3,0.2-0.4c0-0.1,0-0.2-0.1-0.3c-0.1-0.3-0.3-0.5-0.5-0.8
					c-0.1-0.2-0.2-0.3-0.4-0.5c-1.8-2.7-3.1-6-2.7-9.4c0.4-3.4,2.4-6.5,4.5-8.9c4.6-5.2,11.8-6.4,18.1-6.1c3.7,0.2,7.3,0.9,10.8,2.1
					c1.7,0.6,3.4,1.4,5,2.2l0.4,0.2c0.2,0.1,0.4,0.2,0.6,0.3c1.3,0.7,2.6,1.4,3.9,1.8c2.7,0.7,4.5-0.8,6.5-2.4
					c0.7-0.5,1.3-1.1,2-1.6l0.1-0.1c1.3-0.8,2.8-1.4,4.3-1.4c1.3,0,2.5,0.5,3.5,1.6c0.2,0.2,0.3,0.5,0.4,0.7
					c0.1,0.2,0.2,0.4,0.3,0.6c0.4,1.5,0.7,3,1.1,4.6l0.3-0.2c0.9-0.6,1.8-1.4,2.2-2.4c0.2-0.4,0.1-1.1-0.1-1.6
					c-0.1-0.2-0.2-0.3-0.3-0.4c-0.1-0.1-0.2-0.1-0.3-0.1c-0.3,0-0.6,0-0.9-0.1c-0.3-0.1-0.5-0.4-0.7-0.6c-0.2-0.3-0.2-0.6-0.2-1
					c0-0.3,0.1-0.6,0.4-0.9c1.5-1.9,2.7-4,3.7-6.3l-6.3-2.6c-2.2-0.9-4.5-1.8-6.7-2.8l-1.2-0.5c-4.1-1.7-8.2-3.3-12.4-4.4
					c-8.4-2.1-17.2-1.6-25.6,0.4l-0.5,0.1c-3.5,0.9-7.1,1.9-10.3,3.7c-1.6,0.9-3.1,2-4.4,3.3c-0.6,0.6-1.1,1.3-1.6,1.9
					c-0.7,0.9-1.5,1.8-2.3,2.6l-0.8,0.7c-1.2,1.1-2.3,2.1-2.9,3.8c-0.7,1.7-1,3.7-1.3,5.5c-0.7,4.7-1,9.5-0.9,14.3
					c0,8,1.1,15.9,2.5,23.7c1.1-1.8,2.7-3.1,4.7-3.4c1.3-0.2,2.6,0.1,3.7,0.7C-2827.9-3706.6-2827.3-3706.1-2826.8-3705.5z
					 M-2828.9-3696c-1.5-0.6-3-0.8-4.5-0.5c-0.2,0-0.3,0-0.4-0.1c-0.1-0.1-0.2-0.2-0.3-0.4s-0.1-0.4,0-0.5c0-0.1,0.1-0.3,0.3-0.4
					c1.7-0.9,3.5-1.3,5.4-1h0.2c0.9,0.2,2.3,0.5,3.3,1.1c0.8,0.5,1.3,1.2,1.5,2.1c0.1,0.5,0,1-0.3,1.3c-0.2,0.3-0.6,0.6-1.1,0.6
					c-0.8,0-1.3-0.4-1.9-0.9c-0.1-0.1-0.1-0.1-0.2-0.2C-2827.6-3695.3-2828.3-3695.7-2828.9-3696z"/>
			</g>
		</g>
	</g>
	<g id="Calm.svg9" transform="matrix(0.319302,0,0,0.285977,972.049,1118.96)" class="st2">
		<g transform="matrix(1,0,0,1,-144.5,-146.5)" class="st3">
			<g id="face-Calm9">
				<path id="_xD83D__xDD8D_-Ink25" class="st1" d="M-2758.8-3657.3c-1.6,0.5-3.3,0.6-5,0c-1.5-0.5-3-1.6-4.1-3
					c-1-1.3-1.6-2.8-1.6-4.4c0-0.2,0.1-0.3,0.2-0.5c0.1-0.1,0.2-0.2,0.4-0.3c0.2,0,0.3,0,0.4,0c0.1,0.1,0.2,0.2,0.3,0.3
					c0.2,0.2,0.3,0.5,0.5,0.7c1.3,1.9,2.7,3.3,4.7,3.8c1.1,0.3,2.2,0.2,3.2-0.3c1.1-0.4,2.1-1.2,2.8-2.2c0.3-0.4,0.8-0.6,1.2-0.6
					c0.5,0,0.9,0.2,1.2,0.6c0.3,0.4,0.6,0.9,0.6,1.4s-0.1,0.9-0.5,1.4C-2755.6-3658.9-2757.1-3657.9-2758.8-3657.3z M-2758.8-3680.6
					c1.6,1.1,4.2,3.7,2.4,6.5c-2.1,2.4-5.1-0.4-6.6-1.6c-1.4-1-2.9,1.5-1.6,2.7c10.7,8.8,15-7.3,6.7-8.9
					C-2758.9-3682.1-2759.3-3681-2758.8-3680.6z M-2774.2-3685.6c-0.5-0.4-1.2-0.5-1.8-0.2c-0.5,0.3-1.5,1.2-2.1,2.4
					c-0.4,0.8-0.8,1.8-0.7,2.8c0,0.2-0.1,0.4-0.2,0.5c-0.1,0.1-0.2,0.2-0.4,0.2c-0.1,0-0.3,0-0.4,0c-0.2-0.1-0.4-0.3-0.4-0.4
					c-0.5-1.4-0.3-2.9,0.3-4.3c0.7-1.9,2-3.4,2.8-3.9c1.4-0.9,3.1-0.9,4.5,0c1.2,0.7,2,1.9,2.7,3.2c0.2,0.3,0.3,0.5,0.5,0.8
					c0.3,0.5,0.4,1,0.2,1.4c-0.1,0.5-0.5,0.9-0.9,1.1c-0.4,0.2-0.9,0.2-1.3,0c-0.4-0.2-0.7-0.5-0.9-1.1
					C-2772.9-3684-2773.5-3685-2774.2-3685.6z M-2747.4-3683.4c-0.4,0.2-0.6,0.3-1,0.1c-0.2-0.1-0.4-0.2-0.6-0.4
					c-0.2-0.2-0.3-0.4-0.3-0.7c-0.1-0.6-0.4-1.3-0.9-1.6c-0.4-0.3-0.9-0.5-1.4-0.4c-0.6,0.1-1.1,0.5-1.5,1c-0.1,0.2-0.2,0.4-0.3,0.5
					c-0.2,0.3-0.4,0.7-0.6,0.9c-0.1,0.1-0.2,0.2-0.4,0.2c-0.1,0-0.1,0-0.2,0c-0.6-0.7-0.7-1.1-0.7-1.6s0.2-1,0.5-1.5
					c0.7-1.1,2-2.1,2.9-2.3c1.2-0.3,2.4,0.1,3.4,0.8c1,0.8,1.7,2,2,3.3c0.1,0.3,0,0.7-0.1,1
					C-2746.9-3683.9-2747.1-3683.6-2747.4-3683.4z M-2771.6-3697.7c-0.7,0.8-1.6,0.9-2.4,1c-0.5,0.1-0.9,0.1-1.2,0.2
					c-1,0.3-2.1,0.7-3,1.2c-1,0.6-2.1,1.3-2.8,2.2c-0.2,0.2-0.4,0.4-0.5,0.7c-0.2,0.2-0.3,0.4-0.5,0.6c-0.2,0.2-0.4,0.5-0.5,0.7
					s-0.1,0.2-0.2,0.3c0,0.1-0.1,0.2-0.1,0.3c-0.1,0.1-0.1,0.3-0.2,0.4c-0.1,0.2-0.2,0.3-0.2,0.3c-0.1,0-0.2,0.1-0.3,0.1
					s-0.2-0.1-0.2-0.1c-0.4-0.4-0.5-0.9-0.5-1.5c0-0.9,0.3-2,0.6-2.6c0.7-1.5,1.6-3,2.7-4.1c1.2-1.2,2.6-2.2,4.2-2.8
					c1-0.4,2.1-0.8,3.2-0.7c0.8,0,1.5,0.3,2.1,0.9c0.4,0.4,0.5,0.9,0.5,1.5C-2771-3698.7-2771.2-3698.1-2771.6-3697.7z
					 M-2745.9-3690.5c0,0.1-0.1,0.1-0.2,0.2c-0.1,0-0.2,0-0.2,0c-0.1,0-0.2-0.1-0.2-0.1c-0.1-0.1-0.1-0.1-0.1-0.2
					c-0.5-2.4-1.4-4.1-3.4-5.2c-1-0.6-2.1-0.9-3.2-1.2c-0.3-0.1-0.6-0.1-1-0.2c-1-0.2-2.1-0.4-2.8-1.3c-0.4-0.6-0.6-1.3-0.5-1.9
					c0.1-0.6,0.4-1.2,1-1.5c1.5-0.8,3.3,0,4.8,0.7c0.1,0.1,0.2,0.1,0.3,0.2c1.4,0.7,2.8,1.6,3.9,2.9c0.9,1,1.7,2.5,2,4.1
					C-2745.2-3692.9-2745.3-3691.6-2745.9-3690.5z"/>
			</g>
		</g>
	</g>
</g>
<g class="st2">
	<g transform="matrix(0.4441,0,0,0.39775,-345.369,-236.477)" class="st3">
		<g id="Gray-Short.svg" transform="matrix(0.681216,0,0,0.681216,1361.69,1133.76)">
			<g transform="matrix(1,0,0,1,-236.5,-283.5)">
				<g id="head-mono-Gray-Short">
					<path id="_xD83D__xDD8D_-Ink" class="st4" d="M-473.8-374.7c-6.3,0.7-13.7-0.9-17.9-6.6c-0.1-0.2-0.2-0.4-0.2-0.5
						c0-0.2,0.1-0.4,0.2-0.6s0.3-0.3,0.5-0.3s0.3,0,0.5,0.1l0.4,0.2c2.9,1.8,5.8,3.3,9.1,3.9c3.3,0.7,6.7,0.6,10-0.2
						c6-1.5,10.9-5.4,14.5-10.6c4-5.8,6.4-13,7-20.4c0.7-8.9-1-17.6-2.8-26.2c-1.9-9-3.9-18-6.3-26.8c-0.1-0.3-0.1-0.5-0.1-0.8
						c-0.7-0.3-1.5-0.2-2.2,0.1c-1.4,0.5-2.7,1.7-3.8,2.6c-0.4,0.3-0.8,0.7-1.1,0.9c-1.4,1.1-2.9,1.8-4.6,2
						c-1.8,0.1-3.5-0.5-5.1-1.3c-0.8-0.4-1.6-0.8-2.4-1.2c-2.3-1.1-4.5-2.3-7-3c-3.3-1-6.7-1.5-10.2-1.5c-6.1,0.1-12.3,1.8-16,7.6
						c-1.5,2.3-2.5,5-1.7,7.9c0.4,1.6,1.2,3,2.1,4.3l0.3,0.5c0.5,0.7,0.9,1.4,1,2.2c0.1,0.6,0,1.3-0.4,2.1c-0.3,0.5-0.6,0.9-0.9,1.3
						c-0.2,0.3-0.5,0.6-0.7,0.9c-0.4,0.6-0.8,1.4-1.1,2.1c-0.6,1.4-0.8,3-0.8,4.5c-0.1,1.9,0.2,3.7,0.4,5.6c0.2,1.3,0.3,2.6,0.4,3.9
						c0,0.2,0,0.4-0.1,0.5c-0.1,0.2-0.3,0.2-0.5,0.3c0,0-0.1,0-0.2,0c0,0.1,0,0.2,0.1,0.4c-0.1-0.2-0.2-0.3-0.4-0.5l0,0
						c-0.1-0.1-0.2-0.2-0.3-0.4c-0.2-0.2-0.4-0.4-0.6-0.5c-1-0.9-2.3-1.4-3.5-1.4s-2.4,0.4-3.3,1.4c-1.8,1.9-2.3,5-2.4,7.6
						c0,2.7,0.5,5.9,2.6,7.6c0.8,0.7,1.9,1.1,2.9,1.1c0.9,0,1.7-0.3,2.5-0.6c0.2-0.1,0.5-0.2,0.8-0.3c0.3-0.1,0.5-0.1,0.8,0
						c0.2,0.1,0.5,0.3,0.6,0.5c0.2,0.2,0.3,0.5,0.3,0.8s0,0.6-0.1,0.9c0,0.1-0.1,0.1-0.1,0.2l0.5,0.9c1.8,3.2,3.6,6.4,5.9,9.2
						c1.4,1.6,2.8,3.1,4.4,4.4l0.2,0.2c0.1,0.1,0.3,0.2,0.5,0.4c0.5,0.4,1,1,1.5,1c0.1,0,0.3,0,0.4,0c0.3,0,0.5-0.1,0.8,0
						c0.2,0.1,0.4,0.2,0.6,0.6c0.1,0.2,0.2,0.5,0.2,0.8s-0.1,0.6-0.2,0.8c-0.3,0.5-0.6,0.8-0.9,1c-0.4,0.2-0.8,0.2-1.3,0.1
						c-1.1-0.2-2.3-1.3-3.1-1.9l-0.1-0.1c-1.7-1.5-3.4-3.1-4.8-4.9c-2.5-3.1-4.7-6.8-5.8-10.8c-0.8,0.6-1.8,0.9-2.8,0.9
						c-1.5,0.1-3.1-0.4-4.3-1c-2.6-1.4-4.2-4-4.9-6.9c-0.8-3.5-0.6-7.4,0.5-10.5c0-0.1,0.1-0.2,0.1-0.3c-3.3-9.4-4.3-19.9-4.1-29.9
						c0.1-4.7,0.4-9.6,1.4-14.2c0.5-2.1,1.2-4,2.5-5.6c0.7-0.9,1.6-1.6,2.4-2.4c0.8-0.6,1.5-1.2,2.1-2l0.3-0.4
						c0.1-0.1,0.1-0.2,0.2-0.2c1.1-1.4,2.2-2.7,3.5-3.8c1.5-1.3,3.2-2.3,5-3.1c3.8-1.8,7.9-2.9,12-3.7c8.8-1.8,17.8-1.9,26.5,0.6
						c4,1.2,8,2.8,11.9,4.4c0.4,0.1,0.7,0.3,1.1,0.5c3,1.2,6.1,2.5,9.1,3.7c1.4,0.6,2.8,1.2,4.2,1.7c0.3,0.1,0.6,0.4,0.8,0.7
						c0.2,0.3,0.2,0.7,0.1,1.1c-0.9,2.5-2,4.8-3.3,6.9c0.5,0.4,0.9,0.8,1.1,1.4c0.4,0.7,0.6,1.5,0.6,2.4c0,2.9-2.3,4.9-4.3,6.3
						c-0.2,0.1-0.4,0.2-0.5,0.2c1.9,8.1,3.7,16.3,5.3,24.5l0.1,0.6c1.6,8.6,2.6,17.4,1.1,26.1c-1.3,7.5-4.3,14.8-9,20.4
						C-460.9-378.9-467.1-375.4-473.8-374.7z M-515.2-424.2c-0.8-2.9-1.3-6.1-0.9-9c0.2-1.9,0.7-3.6,1.5-5.3c0.5-0.9,1-1.8,1.7-2.6
						l0.2-0.3c0.1-0.1,0.2-0.3,0.2-0.4s0-0.2,0-0.3c-0.1-0.3-0.3-0.5-0.5-0.8c-0.1-0.2-0.2-0.3-0.3-0.5c-1.8-2.7-3.2-6-2.7-9.4
						c0.4-3.4,2.4-6.5,4.5-8.9c4.6-5.2,11.8-6.4,18.1-6.1c3.7,0.2,7.3,0.9,10.8,2.1c1.7,0.6,3.4,1.4,5,2.2l0.4,0.2
						c0.2,0.1,0.4,0.2,0.6,0.3c1.3,0.7,2.6,1.4,4,1.8c2.7,0.7,4.5-0.8,6.5-2.4c0.7-0.5,1.3-1.1,2-1.6l0.1-0.1
						c1.3-0.8,2.8-1.4,4.3-1.4c1.3,0,2.5,0.5,3.5,1.6c0.2,0.2,0.3,0.5,0.4,0.7s0.2,0.4,0.3,0.6c0.4,1.5,0.7,3,1.1,4.5l0.3-0.2
						c0.9-0.6,1.8-1.4,2.2-2.4c0.2-0.4,0.1-1.1-0.1-1.6c-0.1-0.2-0.2-0.3-0.3-0.4c-0.1-0.1-0.2-0.1-0.4-0.1c-0.3,0-0.6,0-0.9-0.1
						s-0.5-0.4-0.7-0.6c-0.2-0.3-0.2-0.6-0.2-1c0-0.3,0.1-0.6,0.4-0.9c1.5-1.9,2.7-4,3.7-6.3l-6.3-2.6c-2.2-0.9-4.5-1.9-6.7-2.8
						l-1.2-0.5c-4.1-1.7-8.2-3.3-12.4-4.4c-8.4-2.1-17.2-1.6-25.6,0.4l-0.5,0.1c-3.5,0.9-7.1,1.9-10.3,3.7c-1.6,0.9-3.1,2-4.4,3.3
						c-0.6,0.6-1.1,1.3-1.6,1.9c-0.7,0.9-1.5,1.8-2.3,2.6l-0.8,0.7c-1.2,1.1-2.3,2.1-2.9,3.8c-0.7,1.7-1,3.7-1.3,5.5
						c-0.7,4.7-1,9.5-0.9,14.3c0,8,1.1,15.9,2.5,23.7c1.1-1.8,2.7-3.1,4.7-3.4c1.3-0.2,2.6,0.1,3.7,0.7
						C-516.2-425.3-515.7-424.8-515.2-424.2z M-517.2-414.7c-1.5-0.6-3-0.8-4.5-0.5c-0.2,0-0.3,0-0.4-0.1c-0.1-0.1-0.2-0.2-0.3-0.4
						c-0.1-0.2-0.1-0.4,0-0.5c0-0.1,0.1-0.3,0.3-0.4c1.7-0.9,3.5-1.3,5.4-1h0.2c0.9,0.2,2.3,0.5,3.3,1.1c0.8,0.5,1.3,1.2,1.5,2.1
						c0.1,0.5,0,1-0.3,1.3c-0.2,0.4-0.6,0.6-1.1,0.6c-0.8,0-1.3-0.4-1.9-0.9c-0.1-0.1-0.2-0.1-0.2-0.2
						C-516-414-516.6-414.4-517.2-414.7z"/>
				</g>
			</g>
		</g>
		<g id="Eyes-Closed.svg" transform="matrix(0.734096,0,0,0.734096,1398.38,1156.31)">
			<g transform="matrix(1,0,0,1,-144.5,-146.5)">
				<g id="face-Eyes-Closed">
					<path id="_xD83D__xDD8D_-Ink1" class="st4" d="M-558.4-520.4h0.2c1.2-0.3,2.4-0.8,3.5,0.1c1.1,0.8,1.2,2.3,0.4,3.3
						c-0.9,1.1-2,1-3.2,1h-0.1c-1,0-2,0-3-0.1c-0.9-0.1-1.9-0.2-2.8-0.4l-0.5-0.1c-0.5-0.1-1.1-0.3-1.4-0.9c-0.5-1,3.2-1.9,3.6-2
						C-560.6-519.9-559.5-520.1-558.4-520.4z M-556.3-533c-0.6,0.7-1.4,1.2-2.2,1.4c-2.2,0.7-5,0.3-6.8-0.4
						c-0.4-0.2-0.7-0.5-0.9-0.9s-0.2-0.8-0.1-1.2c0-0.1,0.1-0.2,0.1-0.4c0.1-0.3,0.4-0.6,0.7-0.7c0.3-0.2,0.7-0.2,1-0.1h0.1
						c1.1,0.4,3,1.1,4.5,0.9c0.9-0.1,1.7-0.4,2.2-1.4c0.2-0.5,0.2-1,0-1.4c-0.3-0.7-0.9-1.3-1.4-1.7c-0.7-0.6-1.5-0.8-2.2-1
						c-0.3-0.1-0.6-0.2-0.9-0.3c-0.1,0-0.2-0.1-0.2-0.2s-0.1-0.2-0.1-0.3s0-0.2,0-0.3s0.1-0.2,0.2-0.2c1.5-0.8,3.5-0.3,5,0.9
						c0.7,0.6,1.4,1.4,1.7,2.2s0.5,1.7,0.4,2.6C-555.4-534.4-555.8-533.6-556.3-533z M-581.3-550c0.4-0.2,0.8,0.8,0.9,1l0.2,0.6
						c0.3,0.9,0.6,1.8,1.3,2.5c0.5,0.6,1.4,1,2,0.4s0.3-1.3,0.4-2.1c0.2-1.4,1.8-2.8,2.8-1.3c2.3,3.2-1.2,7.8-4.5,7
						c-1.7-0.4-3-1.9-3.5-3.6v-0.1C-582.2-546.8-582.5-549.4-581.3-550z M-551.9-547.7L-551.9-547.7c-1.1-2.8,2.8-4,3.1-1.5v0.2
						c0.3,2.8-0.3,6.5-3.4,6.7c-3.4,0.3-4.8-3.9-4.5-7c0-0.5,0.7-0.6,0.8-0.1v0.1c0.5,1.6,1.1,4.5,3,4.5
						C-551.4-544.8-551.5-546.7-551.9-547.7z M-549.4-555.7c2-0.1,1.9,3.3,0,3.4c-6.5,0.2-13,0.4-19.5,0.4h-1.2
						c-6.1,0-12.2,0.1-18.3-0.4c-0.5,0-0.4-0.9,0-0.8c6.4-1,12.8-1.3,19.3-1.7C-562.5-555.2-556-555.4-549.4-555.7z"/>
				</g>
			</g>
		</g>
	</g>
</g>
</svg>
