<?xml version="1.0" encoding="utf-8"?>
<!-- Generator: Adobe Illustrator 24.2.0, SVG Export Plug-In . SVG Version: 6.00 Build 0)  -->
<svg version="1.1" id="图层_1" xmlns="http://www.w3.org/2000/svg" xmlns:xlink="http://www.w3.org/1999/xlink" x="0px" y="0px"
	 viewBox="0 0 85 85" style="enable-background:new 0 0 85 85;" xml:space="preserve">
<style type="text/css">
	.st0{display:none;}
	.st1{display:inline;}
	.st2{fill-rule:evenodd;clip-rule:evenodd;fill:#FFFFFF;}
	.st3{fill-rule:evenodd;clip-rule:evenodd;}
	.st4{fill-rule:evenodd;clip-rule:evenodd;fill:#040000;}
</style>
<g>
	<g id="Gray-Short.svg10" transform="matrix(0.302528,0,0,0.270954,958.71,1103.56)" class="st0">
		<g transform="matrix(1,0,0,1,-236.5,-283.5)" class="st1">
			<g id="head-mono-Gray-Short10">
				<path class="st2" d="M-2835.5-3701.4c0,0-4.7,20.6,9.3,14.6c0,0,7.8,20.2,14.4,18.2c0,0,5.2,4.7,9.4,5.1c0,0,20.7,21.2,38-11.6
					c6.9-13,2.6-41.6-0.4-52.2c-1.3-4.6-1.5-9.4-1.7-10.7c0,0,8.9-6.2,2.4-9.2c0,0,4.7-7.2,3.8-7.9c-0.9-0.6-31-15.3-45.9-12.1
					c-15,3.3-22.1,5.3-27,12.6c-4.9,7.3-5,3.3-5.9,10.4C-2840-3737.1-2842.1-3705.6-2835.5-3701.4z"/>
				<path id="_xD83D__xDD8D_-Ink24" class="st3" d="M-2785.5-3656c-6.3,0.7-13.7-0.9-17.9-6.6c-0.1-0.2-0.2-0.4-0.2-0.6
					c0-0.2,0.1-0.4,0.2-0.6c0.1-0.2,0.3-0.3,0.5-0.3c0.2,0,0.3,0,0.5,0.1l0.4,0.2c2.9,1.8,5.8,3.3,9.1,3.9c3.3,0.7,6.7,0.6,10-0.3
					c6-1.5,10.9-5.4,14.5-10.6c4-5.8,6.4-13.1,7-20.4c0.7-8.8-1-17.6-2.8-26.2c-1.9-9-3.9-18-6.3-26.8c-0.1-0.3-0.1-0.5-0.1-0.7
					c-0.7-0.3-1.4-0.2-2.2,0.1c-1.4,0.5-2.7,1.7-3.8,2.6c-0.4,0.3-0.8,0.7-1.1,0.9c-1.4,1.1-2.9,1.8-4.6,2c-1.8,0.1-3.5-0.5-5.1-1.3
					c-0.8-0.4-1.6-0.8-2.4-1.2c-2.3-1.2-4.6-2.3-7-3c-3.3-1-6.7-1.5-10.2-1.5c-6.1,0.1-12.3,1.8-16,7.6c-1.5,2.3-2.5,5-1.7,7.9
					c0.4,1.6,1.2,3,2.1,4.3l0.3,0.4c0.5,0.7,0.9,1.4,1,2.2c0.1,0.6,0,1.3-0.4,2.1c-0.3,0.5-0.6,0.9-0.9,1.3
					c-0.2,0.3-0.5,0.6-0.7,0.9c-0.4,0.7-0.8,1.4-1.1,2.1c-0.6,1.4-0.8,3-0.9,4.5c-0.1,1.9,0.2,3.7,0.4,5.6c0.2,1.3,0.3,2.6,0.4,3.9
					c0,0.2-0.1,0.4-0.1,0.5c-0.1,0.2-0.3,0.3-0.4,0.3c-0.1,0-0.1,0-0.2,0c0,0.1,0.1,0.3,0.1,0.4c-0.1-0.2-0.2-0.3-0.4-0.5
					c0,0,0,0,0,0c-0.1-0.1-0.2-0.2-0.3-0.4c-0.2-0.2-0.4-0.4-0.6-0.5c-1-0.9-2.3-1.4-3.5-1.4c-1.2,0-2.4,0.4-3.3,1.4
					c-1.8,1.9-2.3,5-2.4,7.6c0,2.7,0.5,5.9,2.6,7.6c0.8,0.7,1.9,1.1,2.9,1.1c0.9,0,1.7-0.3,2.5-0.7c0.2-0.1,0.5-0.2,0.7-0.3
					c0.3-0.1,0.5-0.1,0.8,0c0.3,0.1,0.5,0.3,0.6,0.5c0.2,0.2,0.3,0.5,0.3,0.8c0,0.3,0,0.6-0.1,0.9c0,0.1-0.1,0.1-0.1,0.2l0.5,0.8
					c1.8,3.2,3.6,6.4,5.9,9.2c1.4,1.6,2.8,3.1,4.4,4.4l0.2,0.2c0.1,0.1,0.3,0.2,0.4,0.4c0.5,0.4,1,1,1.5,1c0.2,0,0.3,0,0.4,0
					c0.3,0,0.5-0.1,0.8,0.1c0.2,0.1,0.4,0.3,0.6,0.6c0.1,0.2,0.2,0.5,0.2,0.8c0,0.3-0.1,0.6-0.2,0.8c-0.3,0.5-0.6,0.8-0.9,1
					c-0.4,0.2-0.8,0.2-1.3,0.1c-1.1-0.2-2.3-1.3-3.1-1.9l-0.2-0.1c-1.7-1.5-3.4-3.1-4.8-4.9c-2.5-3.1-4.7-6.8-5.8-10.8
					c-0.8,0.6-1.8,0.9-2.8,0.9c-1.5,0.1-3.1-0.4-4.3-1c-2.6-1.4-4.2-4-4.9-6.9c-0.9-3.5-0.6-7.4,0.5-10.5c0-0.1,0.1-0.2,0.1-0.3
					c-3.3-9.4-4.4-19.9-4.1-29.9c0.1-4.7,0.4-9.6,1.4-14.2c0.4-2.1,1.2-4,2.5-5.6c0.7-0.9,1.6-1.6,2.4-2.4c0.8-0.6,1.5-1.2,2.1-2
					l0.3-0.4c0.1-0.1,0.1-0.2,0.2-0.2c1.1-1.4,2.2-2.7,3.5-3.8c1.5-1.3,3.2-2.3,5-3.1c3.8-1.8,7.9-2.9,12-3.7
					c8.8-1.8,17.8-1.9,26.5,0.6c4,1.2,8,2.8,11.9,4.4c0.4,0.1,0.7,0.3,1.1,0.4c3,1.2,6.1,2.5,9.1,3.7c1.4,0.6,2.8,1.2,4.2,1.7
					c0.3,0.1,0.6,0.4,0.8,0.7c0.2,0.3,0.2,0.7,0.1,1.1c-0.9,2.5-2,4.8-3.3,6.9c0.5,0.4,0.9,0.8,1.2,1.4c0.4,0.7,0.6,1.5,0.6,2.4
					c0.1,2.9-2.3,4.9-4.3,6.3c-0.2,0.1-0.4,0.2-0.5,0.2c1.9,8.1,3.7,16.3,5.3,24.5l0.1,0.6c1.6,8.6,2.6,17.4,1.1,26.1
					c-1.3,7.5-4.3,14.8-9,20.4C-2772.6-3660.2-2778.8-3656.7-2785.5-3656z M-2826.8-3705.5c-0.8-2.9-1.3-6.1-0.9-9
					c0.2-1.9,0.7-3.6,1.5-5.3c0.5-0.9,1-1.8,1.7-2.6l0.2-0.3c0.1-0.1,0.2-0.3,0.2-0.4c0-0.1,0-0.2-0.1-0.3c-0.1-0.3-0.3-0.5-0.5-0.8
					c-0.1-0.2-0.2-0.3-0.4-0.5c-1.8-2.7-3.1-6-2.7-9.4c0.4-3.4,2.4-6.5,4.5-8.9c4.6-5.2,11.8-6.4,18.1-6.1c3.7,0.2,7.3,0.9,10.8,2.1
					c1.7,0.6,3.4,1.4,5,2.2l0.4,0.2c0.2,0.1,0.4,0.2,0.6,0.3c1.3,0.7,2.6,1.4,3.9,1.8c2.7,0.7,4.5-0.8,6.5-2.4
					c0.7-0.5,1.3-1.1,2-1.6l0.1-0.1c1.3-0.8,2.8-1.4,4.3-1.4c1.3,0,2.5,0.5,3.5,1.6c0.2,0.2,0.3,0.5,0.4,0.7
					c0.1,0.2,0.2,0.4,0.3,0.6c0.4,1.5,0.7,3,1.1,4.6l0.3-0.2c0.9-0.6,1.8-1.4,2.2-2.4c0.2-0.4,0.1-1.1-0.1-1.6
					c-0.1-0.2-0.2-0.3-0.3-0.4c-0.1-0.1-0.2-0.1-0.3-0.1c-0.3,0-0.6,0-0.9-0.1c-0.3-0.1-0.5-0.4-0.7-0.6c-0.2-0.3-0.2-0.6-0.2-1
					c0-0.3,0.1-0.6,0.4-0.9c1.5-1.9,2.7-4,3.7-6.3l-6.3-2.6c-2.2-0.9-4.5-1.8-6.7-2.8l-1.2-0.5c-4.1-1.7-8.2-3.3-12.4-4.4
					c-8.4-2.1-17.2-1.6-25.6,0.4l-0.5,0.1c-3.5,0.9-7.1,1.9-10.3,3.7c-1.6,0.9-3.1,2-4.4,3.3c-0.6,0.6-1.1,1.3-1.6,1.9
					c-0.7,0.9-1.5,1.8-2.3,2.6l-0.8,0.7c-1.2,1.1-2.3,2.1-2.9,3.8c-0.7,1.7-1,3.7-1.3,5.5c-0.7,4.7-1,9.5-0.9,14.3
					c0,8,1.1,15.9,2.5,23.7c1.1-1.8,2.7-3.1,4.7-3.4c1.3-0.2,2.6,0.1,3.7,0.7C-2827.9-3706.6-2827.3-3706.1-2826.8-3705.5z
					 M-2828.9-3696c-1.5-0.6-3-0.8-4.5-0.5c-0.2,0-0.3,0-0.4-0.1c-0.1-0.1-0.2-0.2-0.3-0.4c-0.1-0.2-0.1-0.4,0-0.5
					c0-0.1,0.1-0.3,0.3-0.4c1.7-0.9,3.5-1.3,5.4-1l0.2,0c0.9,0.2,2.3,0.5,3.3,1.1c0.8,0.5,1.3,1.2,1.5,2.1c0.1,0.5,0,1-0.3,1.3
					c-0.2,0.3-0.6,0.6-1.1,0.6c-0.8,0-1.3-0.4-1.9-0.9c-0.1-0.1-0.1-0.1-0.2-0.2C-2827.6-3695.3-2828.3-3695.7-2828.9-3696z"/>
			</g>
		</g>
	</g>
	<g id="Calm.svg9" transform="matrix(0.319302,0,0,0.285977,972.049,1118.96)" class="st0">
		<g transform="matrix(1,0,0,1,-144.5,-146.5)" class="st1">
			<g id="face-Calm9">
				<path id="_xD83D__xDD8D_-Ink25" class="st3" d="M-2758.8-3657.3c-1.6,0.5-3.3,0.6-5,0c-1.5-0.5-3-1.6-4.1-3
					c-1-1.3-1.6-2.8-1.6-4.4c0-0.2,0.1-0.3,0.2-0.5c0.1-0.1,0.2-0.2,0.4-0.3c0.2,0,0.3,0,0.4,0c0.1,0.1,0.2,0.2,0.3,0.3
					c0.2,0.2,0.3,0.5,0.5,0.7c1.3,1.9,2.7,3.3,4.7,3.8c1.1,0.3,2.2,0.2,3.2-0.3c1.1-0.4,2.1-1.2,2.8-2.2c0.3-0.4,0.8-0.6,1.2-0.6
					c0.5,0,0.9,0.2,1.2,0.6c0.3,0.4,0.6,0.9,0.6,1.4c0,0.5-0.1,0.9-0.5,1.4C-2755.6-3658.9-2757.1-3657.9-2758.8-3657.3z
					 M-2758.8-3680.6c1.6,1.1,4.2,3.7,2.4,6.5c-2.1,2.4-5.1-0.4-6.6-1.6c-1.4-1-2.9,1.5-1.6,2.7c10.7,8.8,15-7.3,6.7-8.9
					C-2758.9-3682.1-2759.3-3681-2758.8-3680.6z M-2774.2-3685.6c-0.5-0.4-1.2-0.5-1.8-0.2c-0.5,0.3-1.5,1.2-2.1,2.4
					c-0.4,0.8-0.8,1.8-0.7,2.8c0,0.2-0.1,0.4-0.2,0.5c-0.1,0.1-0.2,0.2-0.4,0.2c-0.1,0-0.3,0-0.4,0c-0.2-0.1-0.4-0.3-0.4-0.4
					c-0.5-1.4-0.3-2.9,0.3-4.3c0.7-1.9,2-3.4,2.8-3.9c1.4-0.9,3.1-0.9,4.5,0c1.2,0.7,2,1.9,2.7,3.2c0.2,0.3,0.3,0.5,0.5,0.8
					c0.3,0.5,0.4,1,0.2,1.4c-0.1,0.5-0.5,0.9-0.9,1.1c-0.4,0.2-0.9,0.2-1.3,0c-0.4-0.2-0.7-0.5-0.9-1.1
					C-2772.9-3684-2773.5-3685-2774.2-3685.6z M-2747.4-3683.4c-0.4,0.2-0.6,0.3-1,0.1c-0.2-0.1-0.4-0.2-0.6-0.4
					c-0.2-0.2-0.3-0.4-0.3-0.7c-0.1-0.6-0.4-1.3-0.9-1.6c-0.4-0.3-0.9-0.5-1.4-0.4c-0.6,0.1-1.1,0.5-1.5,1c-0.1,0.2-0.2,0.4-0.3,0.5
					c-0.2,0.3-0.4,0.7-0.6,0.9c-0.1,0.1-0.2,0.2-0.4,0.2c-0.1,0-0.1,0-0.2,0c-0.6-0.7-0.7-1.1-0.7-1.6c0-0.5,0.2-1,0.5-1.5
					c0.7-1.1,2-2.1,2.9-2.3c1.2-0.3,2.4,0.1,3.4,0.8c1,0.8,1.7,2,2,3.3c0.1,0.3,0,0.7-0.1,1
					C-2746.9-3683.9-2747.1-3683.6-2747.4-3683.4z M-2771.6-3697.7c-0.7,0.8-1.6,0.9-2.4,1c-0.5,0.1-0.9,0.1-1.2,0.2
					c-1,0.3-2.1,0.7-3,1.2c-1,0.6-2.1,1.3-2.8,2.2c-0.2,0.2-0.4,0.4-0.5,0.7c-0.2,0.2-0.3,0.4-0.5,0.6c-0.2,0.2-0.4,0.5-0.5,0.7
					c-0.1,0.2-0.1,0.2-0.2,0.3c0,0.1-0.1,0.2-0.1,0.3c-0.1,0.1-0.1,0.3-0.2,0.4c-0.1,0.2-0.2,0.3-0.2,0.3c-0.1,0-0.2,0.1-0.3,0.1
					c-0.1,0-0.2-0.1-0.2-0.1c-0.4-0.4-0.5-0.9-0.5-1.5c0-0.9,0.3-2,0.6-2.6c0.7-1.5,1.6-3,2.7-4.1c1.2-1.2,2.6-2.2,4.2-2.8
					c1-0.4,2.1-0.8,3.2-0.7c0.8,0,1.5,0.3,2.1,0.9c0.4,0.4,0.5,0.9,0.5,1.5C-2771-3698.7-2771.2-3698.1-2771.6-3697.7z
					 M-2745.9-3690.5c0,0.1-0.1,0.1-0.2,0.2c-0.1,0-0.2,0-0.2,0c-0.1,0-0.2-0.1-0.2-0.1c-0.1-0.1-0.1-0.1-0.1-0.2
					c-0.5-2.4-1.4-4.1-3.4-5.2c-1-0.6-2.1-0.9-3.2-1.2c-0.3-0.1-0.6-0.1-1-0.2c-1-0.2-2.1-0.4-2.8-1.3c-0.4-0.6-0.6-1.3-0.5-1.9
					c0.1-0.6,0.4-1.2,1-1.5c1.5-0.8,3.3,0,4.8,0.7c0.1,0.1,0.2,0.1,0.3,0.2c1.4,0.7,2.8,1.6,3.9,2.9c0.9,1,1.7,2.5,2,4.1
					C-2745.2-3692.9-2745.3-3691.6-2745.9-3690.5z"/>
			</g>
		</g>
	</g>
	<g>
		<g transform="matrix(0.4441,0,0,0.39775,0,0)">
			<path class="st2" d="M54.9,44.9c0,0-4.2,0.8-2.9,10.2c1.3,9.4,3.8,8.2,4.1,8.3c0,0-2.1,4.6,2,8.1c0,0,19.1,17,21.6-13.8
				c1.2-14.7-6.9-21.9-7.2-22.8c0,0,1.3-18.7,20.9-18.5c19.6,0.2,24,20.3,21.8,24.7c0,0,6.7,24.9,1.3,33.8c0,0,7.4,9.4,15.1-5
				c0,0,5.4,2,6.5-9.6c1.1-11.7-2.3-13.3-7.4-14.9c0,0-2.9-9.8-10.7-7.6c0,0,1.4-30.3-27.6-30.1c-29,0.2-28.7,24-29.4,25.7
				C62.8,33.5,54.2,35.6,54.9,44.9z"/>
		</g>
		<g transform="matrix(0.4441,0,0,0.39775,0,0)">
			<path class="st3" d="M52.3,45.2L52.3,45.2c-0.6,0.6-1.1,1.5-1.3,2.4c-0.5,2.2-0.7,4.4-0.6,6.6c0.2,2.2,0.7,4.3,1.7,6.4
				c0.4,0.8,1.3,2.4,2.4,3.4c0.9,0.7,1.9,1.1,3,0.9c1.1-0.2,1.9-0.9,2.5-1.8c0.8-1.2,1.2-2.8,1.4-3.8c0.6-2.1,0.5-4.7,0.1-7
				c-0.5-3.1-1.5-5.8-2.3-6.7c-1-1.2-2.6-2.1-4-2.2c-0.6,0-1.2,0.1-1.7,0.4c-0.4,0.2-0.8,0.5-1,0.9C52.4,44.8,52.3,45,52.3,45.2z
				 M53.1,46.9L53.1,46.9c-0.2,0.4-0.3,0.8-0.4,1.2c-0.4,2-0.4,3.9-0.2,5.8c0.2,1.9,0.7,3.7,1.5,5.5c0.2,0.5,0.7,1.4,1.4,2.2
				c0.4,0.5,1,0.9,1.5,0.8c0.7-0.1,1.1-0.7,1.4-1.2c0.5-0.9,0.7-1.9,0.9-2.6c0.5-1.8,0.4-3.9,0.1-5.9c-0.4-2.5-1.2-4.7-1.8-5.4
				c-0.5-0.6-1.3-1.1-2-1.2c-0.4-0.1-0.8,0-1.1,0.1c-0.1,0.1-0.3,0.1-0.4,0.2c-0.1,0.1-0.2,0-0.2,0.1C53.7,46.7,53.4,46.9,53.1,46.9
				z"/>
		</g>
		<g transform="matrix(0.272608,0.130314,-0.178126,0.298905,830.559,10.7961)">
			<path class="st3" d="M-2292,1020.8C-2292.1,1020.8-2292.1,1020.9-2292,1020.8L-2292,1020.8c0,0,0.1,0,0.1,0c0-0.1,0.1,0,0.1,0
				c0.1-0.1,0.2,0.1,0.3,0c0.1-0.1,0.2,0.1,0.3,0.1c0.1,0,0.1,0.1,0.2,0.1c0.1,0,0.2,0.1,0.2,0.2c-0.1,0-0.3,0-0.4-0.1
				c-0.1-0.1-0.1,0-0.3,0c-0.2-0.1-0.3,0.1-0.6,0c-0.2,0-0.2,0.1-0.4,0.1c-0.1,0,0,0.1-0.1,0.1c-0.1,0,0,0.1,0,0.1
				c-0.2,0.1,0.1,0.2,0,0.3c-0.1,0.1,0.1,0.1,0,0.2c0,0.1,0.1,0.1,0.1,0.1c0,0.1,0.1,0.1,0.1,0.1c-0.1,0.3,0.4,0.1,0.5,0.4
				c0.1,0.1,0.2,0,0.4,0.1c0.1,0.1,0.2-0.1,0.4,0c0.1,0,0.1-0.1,0.3-0.1c0.2-0.1,0.5-0.2,0.7-0.3c0.6-0.3,1-1,1.5-1.3
				c0.4-0.2,0.7-0.5,1-0.7c0.6-0.6,0.9-1.2,1.5-1.5c0.5-0.4,0.5-1.2,0-1.7c-0.5-0.5-1.4-0.6-1.9-0.2c-0.6,0.5-0.9,1.1-1.6,1.8
				c-0.2,0.2-0.3,0.3-0.6,0.5L-2292,1020.8z M-2290.7,1021.2c0,0.1,0.2,0.1,0.1,0.2c0.1,0.2,0,0.5-0.2,0.6c-0.2,0.1-0.4,0-0.5-0.1
				c0,0.1,0.1,0.2,0.2,0.1c0.2-0.1,0.7,0.5,0.6,0.3c0-0.1,0.1-0.1,0.1-0.1c-0.1-0.1,0.1-0.2,0.1-0.2c-0.2-0.2,0.1-0.3-0.1-0.4
				c-0.1,0,0-0.1-0.1-0.2C-2290.7,1021.3-2290.7,1021.2-2290.7,1021.2z"/>
		</g>
		<g transform="matrix(0.415023,-0.141556,0.158052,0.371708,-386.099,357.302)">
			<path class="st3" d="M1162-450.3c0,0,0-0.1,0-0.1c0-0.2-0.2-0.4-0.4-0.3c-0.2,0.1-0.3,0.2-0.4,0.2c-0.1,0-0.1,0.1-0.2,0.1
				c-0.2,0,0,0.1-0.2,0.2c-0.1,0,0,0-0.1,0.1c-0.1,0.1,0,0.2,0,0.3c0,0.1,0.1,0.2,0.2,0.4c0.2,0.4,1,0.8,1.3,0.9
				c1.1,0.4,2.1,1.4,3.3,1.9c0.3,0.1,0.7,0.2,1,0.3c0.5,0.2,1-0.2,1.2-0.7c0.2-0.5-0.1-1.1-0.6-1.2c-0.2-0.1-0.3-0.2-0.5-0.3
				c-0.8-0.4-1.6-0.7-2.5-1c-0.5-0.2-1-0.4-1.5-0.5C1162.7-450.2,1162.3-450.2,1162-450.3z M1161.9-450.4c-0.1,0-0.1-0.1,0-0.1
				C1161.9-450.5,1161.9-450.4,1161.9-450.4C1161.9-450.4,1161.9-450.4,1161.9-450.4z"/>
		</g>
		<g transform="matrix(0.534574,0.039451,-0.0320636,0.348514,-96.4331,56.7797)">
			<path class="st3" d="M221-140.2c-0.1,0-0.2,0.1-0.3,0.2c-0.1,0-0.1,0.2-0.1,0.2c-0.1,0.1,0,0.2,0,0.2c-0.1,0.2,0.1,0.2,0.2,0.4
				c0,0.1,0.1,0,0.2,0.1c0.2,0.1,0.8-0.2,0.8,0.1c0,0.1-0.1,0-0.1,0c0.1,0,0.4,0.3,0.7,0.6c0.4,0.4,0.8,0.8,1.2,1.2
				c0.3,0.3,0.6,0.6,0.7,0.8c0.5,0.8,1,1.8,1.4,2.7c0.4,0.9,0.8,1.9,1,2.9c0.5,2.4,1,5.1,0.9,7.7c-0.1,1.7-0.4,3.3-1,4.7
				c-0.3,0.6-0.5,1.1-0.8,1.5c-0.3,0.3-0.6,0.6-1,0.9l-0.7,0.3c-0.4-0.3-0.9-0.1-1.1,0.5c-0.2,0.6,0,1.4,0.4,1.7
				c0.3,0.3,0.6,0.5,0.9,0.5c0.4,0,0.8-0.2,1.2-0.5c0.7-0.5,1.1-0.9,1.5-1.5c0.4-0.6,0.7-1.2,1-2.1c0.4-1.1,0.7-2.3,0.9-3.6
				c0.2-1.2,0.3-2.5,0.4-3.7c0.1-2.5-0.2-5-0.6-7.3c-0.2-1-0.5-2.1-1-3.1c-0.6-1.3-1.3-2.6-2-3.7c-0.3-0.4-1-1.2-1.8-1.7
				c-0.8-0.6-1.7-1-2.1-1c-0.1,0-0.3,0-0.5,0.2c-0.1,0.1-0.2,0.2-0.3,0.4c-0.1,0.1-0.1,0.1-0.1,0.2C221-140.4,221-140.3,221-140.2
				C221-140.3,221-140.3,221-140.2z M221.3-139.7C221.3-139.6,221.3-139.6,221.3-139.7C221.3-139.6,221.3-139.6,221.3-139.7
				C221.3-139.6,221.3-139.7,221.3-139.7z M221.3-140c0,0,0,0.1,0,0.1C221.3-139.9,221.3-139.9,221.3-140z M221.2-140.1
				c0-0.1-0.1-0.2-0.1-0.1C221.1-140.2,221.2-140.2,221.2-140.1z"/>
		</g>
		<g transform="matrix(0.4441,0,0,0.39775,0,0)">
			<path class="st3" d="M54.5,43.4c0-0.2,0-0.5,0.1-0.7c0.1-0.2,0.2-0.2,0.3-0.4c0.2-0.3,0.3-0.7,0.5-1c0.5-1,1.1-1.9,2-2.6
				c1.3-1,3-1.5,4.9-1.3c1.7,0.2,2.9,0.8,3.9,1.8c1.5,1.5,2.5,3.9,3.7,6.6c0.4,1.1,0.7,2.3,0.9,3.7c0.2,1.9,0.3,4.1,0.3,6.2
				c0,1.7-0.3,3.3-0.7,4.9c-0.5,1.7-1.1,3.4-1.7,4.8c-0.3,0.7-1.1,1.9-2,2.9c-0.8,1-1.7,2-2.3,2.2c-2.5,0.9-4.6,0.3-6.2-1.2
				c-1.6-1.5-2.8-4-3.4-6.9c-0.1-0.6-0.6-0.9-1.1-0.8c-0.5,0.1-0.8,0.6-0.7,1.2c0.5,3.5,1.8,6.5,3.7,8.4c2.2,2.2,5.1,3,8.4,1.7
				c0.7-0.3,1.7-1.2,2.7-2.3c1.2-1.4,2.4-3.1,2.9-4.1c0.8-1.8,1.7-4,2.2-6.3c0.3-1.5,0.6-3,0.5-4.6c0-2.3,0-4.5-0.3-6.5
				c-0.2-1.7-0.5-3.2-1-4.5c-1.3-3.1-2.5-5.7-4.3-7.4c-1.4-1.3-3-2-5.3-2.1c-2.3,0-4.4,0.8-5.9,2.1c-1,0.9-1.8,2-2.3,3.3
				c-0.2,0.4-0.3,0.8-0.4,1.3c0,0.2,0.1,0.4,0.1,0.6c0,0.3-0.1,0.5-0.1,0.8c0,0.2,0.1,0.4,0.3,0.5C54.3,43.8,54.5,43.7,54.5,43.4z"
				/>
		</g>
		<g transform="matrix(0.4441,0,0,0.391518,0,16.8072)">
			<path class="st3" d="M56.4-5.3L56.4-5.3c-0.2,0-0.4,0.2-0.3,0.4c0,0.2,0.2,0.6,0.7,0.3c0.2-0.1,0.4-0.3,0.7-0.5
				c0.2-0.1,0.5-0.1,0.8-0.2c0.2-0.1,0.5-0.3,0.7-0.4c0.9-0.6,1.9-1.4,2.6-1.6c1.1-0.3,2.7-0.4,4.3-0.4C67.4-7.6,69-7.3,70-6.9
				c2,0.9,3.5,2.8,4.6,5.1c1.8,3.5,2.7,7.9,3.2,11.3c0.7,4.7,0.3,9-0.8,12.6c-1.4,4.7-3.9,8.2-6.4,9.9c-1.5,1-4.3,1-6.9,0.2
				c-1.2-0.4-2.3-0.9-3.3-1.5c-0.4-0.3-0.8-0.6-1.2-0.9c-0.3-0.3-0.5-0.5-0.7-0.8c-0.2-0.3-0.5-0.5-0.7-0.9
				c-0.1-0.4-0.5-0.6-0.8-0.5c-0.3,0.1-0.5,0.5-0.4,0.9c0,0.6,0.2,1.1,0.4,1.7c0.4,0.9,1.1,1.7,2,2.4c0.7,0.6,1.6,1,2.4,1.4
				c3.5,1.6,7.9,1.7,10.2,0.2c2.9-1.9,5.8-5.9,7.5-11.2c1.2-4,1.7-8.7,1-13.9c-0.6-3.6-1.6-8.4-3.6-12.2c-1.4-2.7-3.4-5-5.9-5.9
				c-1.2-0.5-3-0.7-4.8-0.7c-1.8,0-3.6,0.2-4.8,0.6C60.3-8.9,59-8,57.9-7.1c-0.2,0.1-0.3,0.3-0.4,0.4c-0.2,0.3-0.3,0.6-0.5,0.8
				C56.8-5.6,56.6-5.5,56.4-5.3L56.4-5.3z M56.7-5.3c0.1,0,0.1,0.1,0.1,0.2C56.8-5.2,56.7-5.2,56.7-5.3z"/>
		</g>
		<g transform="matrix(0.493048,0,0,0.357531,-101.461,105.571)">
			<path class="st3" d="M270.9-257.8c0-0.2,0.2-0.4,0.3-0.7c0-0.1,0.1-0.2,0.1-0.3c0.2-0.8,0.4-1.9,0.7-2.8c0.2-0.7,0.4-1.2,0.6-1.6
				c1.5-3.3,3.6-5.9,6.2-8.1c2.3-1.9,5.1-3.4,8.1-4.2c3-0.8,6-0.8,8.7-0.2c3,0.6,5.8,1.9,8.2,3.8c2.6,2.1,4.8,4.9,6.4,8
				c0.8,1.7,1.6,3.4,2,5.3c0.3,1.1,0.4,2.3,0.6,3.5c0.1,0.8,0.2,1.6,0.2,2.4c0,0.3,0.2,0.5,0.3,0.5c0.2,0,0.3-0.2,0.3-0.5
				c0-0.9,0.1-1.7,0-2.6c-0.1-1.3-0.3-2.5-0.6-3.8c-0.4-2.1-1-4.1-1.8-6c-1.6-3.6-3.9-6.6-6.7-9c-2.6-2.1-5.5-3.7-8.8-4.4
				c-2.9-0.6-6.1-0.4-9.3,0.5c-3.2,0.9-6.2,2.4-8.7,4.4c-2.8,2.3-5.1,5.4-6.6,9c-0.3,0.8-1,2.8-1.3,4.5c-0.1,0.4-0.1,0.7-0.1,1.1
				c0,0.6,0.2,0.9,0.3,1.2c0,0.2,0.2,0.4,0.4,0.3C270.9-257.3,271-257.6,270.9-257.8z"/>
		</g>
		<g transform="matrix(0.585495,0,0,0.510438,-309.449,-311.216)">
			<path class="st3" d="M576.3,635.6c0.1-0.3,0.2-0.5,0.2-0.8c0.2-1,0.3-2.1,0.6-3.2c0.4-1.4,1-2.8,1.5-3.9c1.5-3.2,3.6-5.6,6.2-7.4
				c2.5-1.7,5.4-3,8.5-3.8c2.5-0.7,5-0.8,7.3-0.6c3.8,0.3,7.3,1.8,10.1,4.1c2.5,2,4.4,4.8,5.8,7.9c0.7,1.5,1.3,3.2,1.6,4.9
				c0.2,1,0.3,2.1,0.4,3.2c0.1,0.7,0.1,1.4,0.2,2.1c0,0.2,0.1,0.3,0.3,0.3s0.3-0.2,0.3-0.3c0-0.7,0.1-1.5,0-2.2
				c-0.1-1.1-0.2-2.2-0.4-3.3c-0.3-1.9-0.7-3.6-1.4-5.3c-1.3-3.5-3.4-6.4-6-8.6c-3-2.6-6.7-4.3-10.9-4.6c-2.4-0.2-5,0.1-7.7,0.9
				c-4,1.1-7.6,2.8-10.6,5.3c-2.1,1.8-3.8,4-5,6.8c-0.6,1.4-1.4,3.2-1.8,5c-0.2,0.9-0.4,1.8-0.3,2.6c0.1,0.4,0.2,0.7,0.4,1.1
				c0,0.2,0.2,0.3,0.3,0.3C576.2,635.9,576.3,635.7,576.3,635.6z"/>
		</g>
		<g transform="matrix(0.319817,0,0,0.39775,282.358,0)">
			<path class="st3" d="M-722.1,41.5c0,0,0.1,0,0.1-0.1c0.4-0.4,1.1-1.1,1.3-1.2c0,0,0,0,0,0c0,0,0,0,0,0c0,0,0,0,0,0
				c0,0,0.1,0,0.1,0c0.1,0,0.2,0,0.4,0c0.5,0,1,0.1,1.5,0.2c0.5,0.1,1,0.4,1.2,0.6c0.3,0.3,0.5,0.5,0.7,0.8c1,1,1.8,2.1,2.4,3.2
				c1.1,2,1.7,4.3,2.3,7.2c0.5,2.1,0.3,7.4-0.2,12.1c-0.4,3.3-1,6.3-1.8,7.7c-0.7,1-1.9,2.4-3.4,3.2c-0.8,0.4-1.5,0.7-2.2,0.2
				c-0.2-0.1-0.4-0.2-0.7-0.4c-0.4-0.6-1.2-0.8-1.9-0.5c-0.7,0.3-1,1-0.6,1.5c0.1,0.4,0.3,0.7,0.5,1c1.3,1.7,3.5,1.6,5.4,0.9
				c2.3-0.8,4.6-3.1,5.7-4.7c1.2-1.8,2.2-6.2,2.7-10.7c0.5-4.4,0.4-8.8-0.1-10.8c-0.8-3.1-1.5-5.6-2.8-7.7c-0.8-1.4-1.7-2.6-3.1-3.7
				c-0.3-0.3-0.7-0.5-1-0.7c-0.7-0.5-2.2-0.9-3.6-1c-1.2-0.1-2.4,0.1-2.9,0.5c-0.2,0.2-1.1,1.3-1.2,2c-0.1,0.8,0.2,1.2,0.7,1
				c0.3,0,0.5-0.2,0.5-0.4C-722.1,41.6-722.1,41.6-722.1,41.5z M-722.3,41.3c0.1,0,0.1,0.1,0.2,0.1
				C-722.2,41.4-722.2,41.3-722.3,41.3z"/>
		</g>
		<g transform="matrix(0.4441,0,0,0.4146,0,-45.7876)">
			<path class="st3" d="M117,148.6c0.1-0.1,0.1-0.1,0.2-0.2c0.1-0.1,0.3-0.1,0.5-0.2c0.2-0.1,0.4-0.2,0.7-0.3
				c0.8-0.3,1.7-0.5,2.9-0.4c1,0.1,2.1,0.4,3.3,1c1.7,0.9,2.8,2.1,3.6,3.6c0.8,1.4,1.4,3.2,1.8,5.2c0.8,3.4,1.3,7.5,1.1,11.6
				c-0.1,4-0.8,8-2.5,11.1c-0.3,0.5-0.6,1.1-1,1.6c-0.3,0.4-0.7,0.8-1.2,1.1c-1,0.6-2.1,0.9-3.2,1c-1.5,0.2-3.1,0.1-4.2-0.2
				c-0.3-0.1-0.5-0.1-0.7-0.2c-0.1,0-0.2,0-0.3,0c-0.5-0.2-1,0-1.2,0.5c-0.2,0.5,0,1.1,0.5,1.3c0.1,0.1,0.3,0.2,0.5,0.3
				c1.1,0.6,2.8,0.8,4.7,0.7c1.8,0,3.6-0.5,5.2-1.3c0.6-0.4,1.1-0.8,1.6-1.3c0.7-0.7,1.2-1.5,1.6-2.4c1.5-2.7,2.3-6.2,2.7-9.8
				c0.5-5.1,0-10.6-1.1-14.9c-0.6-2.3-1.3-4.3-2.3-5.9c-1.1-1.8-2.6-3.1-4.8-4.1c-2.5-1.1-4.6-1.1-6.3-0.6c-0.9,0.3-1.6,0.6-2.1,1
				c-0.3,0.3-0.5,0.6-0.6,0.8c-0.2,0.3-0.4,0.5-0.4,0.7c-0.1,0.2,0,0.4,0.1,0.5c0.1,0.1,0.3,0.2,0.6,0.1
				C117,149,117.1,148.8,117,148.6C117.1,148.6,117.1,148.6,117,148.6z"/>
		</g>
		<g transform="matrix(0.4441,0,0,0.39775,0,0)">
			<path class="st3" d="M131.4,45.9C131.4,45.9,131.5,45.9,131.4,45.9c0,0.1,0.1,0.2,0.1,0.2c-0.1,0,0,0.3,0,0.2
				c0-0.1,0.3,0.1,0.5,0.2c0.7,0.3,1.5,0.9,2.3,1.6c0.7,0.6,1.3,1.3,1.7,2c1.2,2.3,1.3,8.5,0.1,13.2c-0.6,2.4-1.5,4.5-3.1,5
				c-0.2,0.1-0.5,0.1-0.8,0.2c-0.1,0-0.2,0.1-0.4,0.1c-0.6-0.1-1.1,0.3-1.2,1c-0.1,0.6,0.3,1.3,0.9,1.4c0.3,0.1,0.6,0.2,0.9,0.2
				c0.5,0.1,0.9-0.1,1.4-0.2c2.2-0.7,3.8-3.5,4.7-7c1.3-5.4,0.9-12.6-0.6-15.2c-0.4-0.7-0.9-1.4-1.6-1.9c-0.9-0.8-2-1.4-2.9-1.8
				c-0.7-0.3-1.4-0.4-1.8-0.4c-0.1,0-0.2,0-0.2,0c-0.4,0.3-0.6,0.4-0.6,0.7c0,0.1-0.1,0.2,0,0.4c0,0.2,0.2,0.4,0.3,0.4
				C131.3,46.3,131.4,46.1,131.4,45.9z"/>
		</g>
		<g transform="matrix(0.429571,0,0,0.402725,31.9746,-13.0786)">
			<path class="st3" d="M29.1,49.7l1.2,0.4c0.7,0.2,1.4,0.5,2.1,1c0.3,0.2,0.6,0.4,0.9,0.6c0.7,0.5,1.4,1,1.9,1.5
				c1.5,1.5,2.8,3.3,4,5.2c1.2,1.9,2.3,3.9,3,6c0.2,0.5,0.3,1,0.5,1.4c0.6,2.1,0.8,4.3,1.6,6.4c0.1,0.4,0.5,0.6,0.9,0.5
				c0.4-0.1,0.6-0.5,0.5-0.9c-0.4-1.9-0.4-3.8-0.7-5.7c-0.1-0.9-0.3-1.7-0.6-2.6c-0.8-2.2-1.8-4.4-3.2-6.5c-1.4-2.1-3-3.9-4.7-5.3
				c-0.8-0.6-1.8-1.3-2.8-1.7c-0.8-0.3-1.7-0.4-2.5-0.6c-0.2,0-0.4-0.1-0.6-0.1c-0.3,0-1-0.4-1.4-0.3c-0.3,0-0.5,0.2-0.6,0.4
				c-0.1,0.2,0,0.4,0.2,0.5C28.8,50,29,49.9,29.1,49.7z"/>
		</g>
	</g>
</g>
<g class="st0">
	<g transform="matrix(0.4441,0,0,0.39775,-345.369,-236.477)" class="st1">
		<g id="Gray-Short.svg" transform="matrix(0.681216,0,0,0.681216,1361.69,1133.76)">
			<g transform="matrix(1,0,0,1,-236.5,-283.5)">
				<g id="head-mono-Gray-Short">
					<path id="_xD83D__xDD8D_-Ink" class="st4" d="M-473.8-374.7c-6.3,0.7-13.7-0.9-17.9-6.6c-0.1-0.2-0.2-0.4-0.2-0.5
						c0-0.2,0.1-0.4,0.2-0.6c0.1-0.2,0.3-0.3,0.5-0.3c0.2,0,0.3,0,0.5,0.1l0.4,0.2c2.9,1.8,5.8,3.3,9.1,3.9c3.3,0.7,6.7,0.6,10-0.2
						c6-1.5,10.9-5.4,14.5-10.6c4-5.8,6.4-13,7-20.4c0.7-8.9-1-17.6-2.8-26.2c-1.9-9-3.9-18-6.3-26.8c-0.1-0.3-0.1-0.5-0.1-0.8
						c-0.7-0.3-1.5-0.2-2.2,0.1c-1.4,0.5-2.7,1.7-3.8,2.6c-0.4,0.3-0.8,0.7-1.1,0.9c-1.4,1.1-2.9,1.8-4.6,2
						c-1.8,0.1-3.5-0.5-5.1-1.3c-0.8-0.4-1.6-0.8-2.4-1.2c-2.3-1.1-4.5-2.3-7-3c-3.3-1-6.7-1.5-10.2-1.5c-6.1,0.1-12.3,1.8-16,7.6
						c-1.5,2.3-2.5,5-1.7,7.9c0.4,1.6,1.2,3,2.1,4.3l0.3,0.5c0.5,0.7,0.9,1.4,1,2.2c0.1,0.6,0,1.3-0.4,2.1c-0.3,0.5-0.6,0.9-0.9,1.3
						c-0.2,0.3-0.5,0.6-0.7,0.9c-0.4,0.6-0.8,1.4-1.1,2.1c-0.6,1.4-0.8,3-0.8,4.5c-0.1,1.9,0.2,3.7,0.4,5.6c0.2,1.3,0.3,2.6,0.4,3.9
						c0,0.2,0,0.4-0.1,0.5c-0.1,0.2-0.3,0.2-0.5,0.3c0,0-0.1,0-0.2,0c0,0.1,0,0.2,0.1,0.4c-0.1-0.2-0.2-0.3-0.4-0.5c0,0,0,0,0,0
						c-0.1-0.1-0.2-0.2-0.3-0.4c-0.2-0.2-0.4-0.4-0.6-0.5c-1-0.9-2.3-1.4-3.5-1.4c-1.2,0-2.4,0.4-3.3,1.4c-1.8,1.9-2.3,5-2.4,7.6
						c0,2.7,0.5,5.9,2.6,7.6c0.8,0.7,1.9,1.1,2.9,1.1c0.9,0,1.7-0.3,2.5-0.6c0.2-0.1,0.5-0.2,0.8-0.3c0.3-0.1,0.5-0.1,0.8,0
						c0.2,0.1,0.5,0.3,0.6,0.5c0.2,0.2,0.3,0.5,0.3,0.8c0,0.3,0,0.6-0.1,0.9c0,0.1-0.1,0.1-0.1,0.2l0.5,0.9c1.8,3.2,3.6,6.4,5.9,9.2
						c1.4,1.6,2.8,3.1,4.4,4.4l0.2,0.2c0.1,0.1,0.3,0.2,0.5,0.4c0.5,0.4,1,1,1.5,1c0.1,0,0.3,0,0.4,0c0.3,0,0.5-0.1,0.8,0
						c0.2,0.1,0.4,0.2,0.6,0.6c0.1,0.2,0.2,0.5,0.2,0.8c0,0.3-0.1,0.6-0.2,0.8c-0.3,0.5-0.6,0.8-0.9,1c-0.4,0.2-0.8,0.2-1.3,0.1
						c-1.1-0.2-2.3-1.3-3.1-1.9l-0.1-0.1c-1.7-1.5-3.4-3.1-4.8-4.9c-2.5-3.1-4.7-6.8-5.8-10.8c-0.8,0.6-1.8,0.9-2.8,0.9
						c-1.5,0.1-3.1-0.4-4.3-1c-2.6-1.4-4.2-4-4.9-6.9c-0.8-3.5-0.6-7.4,0.5-10.5c0-0.1,0.1-0.2,0.1-0.3c-3.3-9.4-4.3-19.9-4.1-29.9
						c0.1-4.7,0.4-9.6,1.4-14.2c0.5-2.1,1.2-4,2.5-5.6c0.7-0.9,1.6-1.6,2.4-2.4c0.8-0.6,1.5-1.2,2.1-2l0.3-0.4
						c0.1-0.1,0.1-0.2,0.2-0.2c1.1-1.4,2.2-2.7,3.5-3.8c1.5-1.3,3.2-2.3,5-3.1c3.8-1.8,7.9-2.9,12-3.7c8.8-1.8,17.8-1.9,26.5,0.6
						c4,1.2,8,2.8,11.9,4.4c0.4,0.1,0.7,0.3,1.1,0.5c3,1.2,6.1,2.5,9.1,3.7c1.4,0.6,2.8,1.2,4.2,1.7c0.3,0.1,0.6,0.4,0.8,0.7
						c0.2,0.3,0.2,0.7,0.1,1.1c-0.9,2.5-2,4.8-3.3,6.9c0.5,0.4,0.9,0.8,1.1,1.4c0.4,0.7,0.6,1.5,0.6,2.4c0,2.9-2.3,4.9-4.3,6.3
						c-0.2,0.1-0.4,0.2-0.5,0.2c1.9,8.1,3.7,16.3,5.3,24.5l0.1,0.6c1.6,8.6,2.6,17.4,1.1,26.1c-1.3,7.5-4.3,14.8-9,20.4
						C-460.9-378.9-467.1-375.4-473.8-374.7z M-515.2-424.2c-0.8-2.9-1.3-6.1-0.9-9c0.2-1.9,0.7-3.6,1.5-5.3c0.5-0.9,1-1.8,1.7-2.6
						l0.2-0.3c0.1-0.1,0.2-0.3,0.2-0.4c0-0.1,0-0.2,0-0.3c-0.1-0.3-0.3-0.5-0.5-0.8c-0.1-0.2-0.2-0.3-0.3-0.5
						c-1.8-2.7-3.2-6-2.7-9.4c0.4-3.4,2.4-6.5,4.5-8.9c4.6-5.2,11.8-6.4,18.1-6.1c3.7,0.2,7.3,0.9,10.8,2.1c1.7,0.6,3.4,1.4,5,2.2
						l0.4,0.2c0.2,0.1,0.4,0.2,0.6,0.3c1.3,0.7,2.6,1.4,4,1.8c2.7,0.7,4.5-0.8,6.5-2.4c0.7-0.5,1.3-1.1,2-1.6l0.1-0.1
						c1.3-0.8,2.8-1.4,4.3-1.4c1.3,0,2.5,0.5,3.5,1.6c0.2,0.2,0.3,0.5,0.4,0.7c0.1,0.2,0.2,0.4,0.3,0.6c0.4,1.5,0.7,3,1.1,4.5
						l0.3-0.2c0.9-0.6,1.8-1.4,2.2-2.4c0.2-0.4,0.1-1.1-0.1-1.6c-0.1-0.2-0.2-0.3-0.3-0.4c-0.1-0.1-0.2-0.1-0.4-0.1
						c-0.3,0-0.6,0-0.9-0.1c-0.3-0.1-0.5-0.4-0.7-0.6c-0.2-0.3-0.2-0.6-0.2-1c0-0.3,0.1-0.6,0.4-0.9c1.5-1.9,2.7-4,3.7-6.3l-6.3-2.6
						c-2.2-0.9-4.5-1.9-6.7-2.8l-1.2-0.5c-4.1-1.7-8.2-3.3-12.4-4.4c-8.4-2.1-17.2-1.6-25.6,0.4l-0.5,0.1c-3.5,0.9-7.1,1.9-10.3,3.7
						c-1.6,0.9-3.1,2-4.4,3.3c-0.6,0.6-1.1,1.3-1.6,1.9c-0.7,0.9-1.5,1.8-2.3,2.6l-0.8,0.7c-1.2,1.1-2.3,2.1-2.9,3.8
						c-0.7,1.7-1,3.7-1.3,5.5c-0.7,4.7-1,9.5-0.9,14.3c0,8,1.1,15.9,2.5,23.7c1.1-1.8,2.7-3.1,4.7-3.4c1.3-0.2,2.6,0.1,3.7,0.7
						C-516.2-425.3-515.7-424.8-515.2-424.2z M-517.2-414.7c-1.5-0.6-3-0.8-4.5-0.5c-0.2,0-0.3,0-0.4-0.1c-0.1-0.1-0.2-0.2-0.3-0.4
						c-0.1-0.2-0.1-0.4,0-0.5c0-0.1,0.1-0.3,0.3-0.4c1.7-0.9,3.5-1.3,5.4-1l0.2,0c0.9,0.2,2.3,0.5,3.3,1.1c0.8,0.5,1.3,1.2,1.5,2.1
						c0.1,0.5,0,1-0.3,1.3c-0.2,0.4-0.6,0.6-1.1,0.6c-0.8,0-1.3-0.4-1.9-0.9c-0.1-0.1-0.2-0.1-0.2-0.2
						C-516-414-516.6-414.4-517.2-414.7z"/>
				</g>
			</g>
		</g>
		<g id="Eyes-Closed.svg" transform="matrix(0.734096,0,0,0.734096,1398.38,1156.31)">
			<g transform="matrix(1,0,0,1,-144.5,-146.5)">
				<g id="face-Eyes-Closed">
					<path id="_xD83D__xDD8D_-Ink1" class="st4" d="M-558.4-520.4l0.2,0c1.2-0.3,2.4-0.8,3.5,0.1c1.1,0.8,1.2,2.3,0.4,3.3
						c-0.9,1.1-2,1-3.2,1h-0.1c-1,0-2,0-3-0.1c-0.9-0.1-1.9-0.2-2.8-0.4l-0.5-0.1c-0.5-0.1-1.1-0.3-1.4-0.9c-0.5-1,3.2-1.9,3.6-2
						C-560.6-519.9-559.5-520.1-558.4-520.4z M-556.3-533c-0.6,0.7-1.4,1.2-2.2,1.4c-2.2,0.7-5,0.3-6.8-0.4
						c-0.4-0.2-0.7-0.5-0.9-0.9c-0.2-0.4-0.2-0.8-0.1-1.2c0-0.1,0.1-0.2,0.1-0.4c0.1-0.3,0.4-0.6,0.7-0.7c0.3-0.2,0.7-0.2,1-0.1
						c0,0,0.1,0,0.1,0c1.1,0.4,3,1.1,4.5,0.9c0.9-0.1,1.7-0.4,2.2-1.4c0.2-0.5,0.2-1,0-1.4c-0.3-0.7-0.9-1.3-1.4-1.7
						c-0.7-0.6-1.5-0.8-2.2-1c-0.3-0.1-0.6-0.2-0.9-0.3c-0.1,0-0.2-0.1-0.2-0.2s-0.1-0.2-0.1-0.3s0-0.2,0-0.3c0-0.1,0.1-0.2,0.2-0.2
						c1.5-0.8,3.5-0.3,5,0.9c0.7,0.6,1.4,1.4,1.7,2.2c0.3,0.8,0.5,1.7,0.4,2.6C-555.4-534.4-555.8-533.6-556.3-533z M-581.3-550
						c0.4-0.2,0.8,0.8,0.9,1l0.2,0.6c0.3,0.9,0.6,1.8,1.3,2.5c0.5,0.6,1.4,1,2,0.4c0.6-0.6,0.3-1.3,0.4-2.1c0.2-1.4,1.8-2.8,2.8-1.3
						c2.3,3.2-1.2,7.8-4.5,7c-1.7-0.4-3-1.9-3.5-3.6l0-0.1C-582.2-546.8-582.5-549.4-581.3-550z M-551.9-547.7L-551.9-547.7
						c-1.1-2.8,2.8-4,3.1-1.5l0,0.2c0.3,2.8-0.3,6.5-3.4,6.7c-3.4,0.3-4.8-3.9-4.5-7c0-0.5,0.7-0.6,0.8-0.1l0,0.1
						c0.5,1.6,1.1,4.5,3,4.5C-551.4-544.8-551.5-546.7-551.9-547.7z M-549.4-555.7c2-0.1,1.9,3.3,0,3.4c-6.5,0.2-13,0.4-19.5,0.4
						l-1.2,0c-6.1,0-12.2,0.1-18.3-0.4c-0.5,0-0.4-0.9,0-0.8c6.4-1,12.8-1.3,19.3-1.7C-562.5-555.2-556-555.4-549.4-555.7z"/>
				</g>
			</g>
		</g>
	</g>
</g>
</svg>
