<?xml version="1.0" encoding="utf-8"?>
<!-- Generator: Adobe Illustrator 24.2.0, SVG Export Plug-In . SVG Version: 6.00 Build 0)  -->
<svg version="1.1" id="图层_1" xmlns="http://www.w3.org/2000/svg" xmlns:xlink="http://www.w3.org/1999/xlink" x="0px" y="0px"
	 viewBox="0 0 85 85" style="enable-background:new 0 0 85 85;" xml:space="preserve">
<style type="text/css">
	.st0{fill-rule:evenodd;clip-rule:evenodd;fill:#FFFFFF;}
	.st1{fill-rule:evenodd;clip-rule:evenodd;}
	.st2{fill:none;}
	.st3{display:none;}
	.st4{display:inline;}
	.st5{fill-rule:evenodd;clip-rule:evenodd;fill:#040000;}
</style>
<g>
	<g transform="matrix(1.05215,0,0,1.05215,-77.341,-64.8802)">
		<g>
			<g transform="matrix(0.4441,0,0,0.39775,0,0)">
				<path class="st0" d="M237.8,225.2c0,0,4.4,14.7-7.3,19.4l-1.6-1.6l-2.1-0.1l-0.8,2.1c0,0-10.4-6.4-25.1,12.1
					c-14.6,18.5-13.1,23.8-13.4,24.2c-0.3,0.5,2.7,1.5,2.7,1.5s-6,26.2,6,27.5c12,1.3,9.7-7.1,9.7-7.1s-3.5,20.1-3.5,20.5
					c0,0.4,66.6,2.1,68.7,2c0,0-1.5-21.7-0.6-29.4l1.6,8.1l2,0c0,0,3.4,19.3,3.5,21.2l14.2,0.1c0,0-2.2-23.9-2.3-25.2l3.4-1.7
					c0,0-5.6-40.6-25.2-45.2l-0.8-0.2l0.4-1.3l-3.4-1.4l-4-0.5c0,0-5.2-3.5-2.1-15.5C257.8,234.6,251.8,218.1,237.8,225.2z"/>
			</g>
			<g>
				<g transform="matrix(0.4441,0,0,0.39775,0,0)">
					<path class="st1" d="M261.3,249.8C261.3,249.8,261.3,249.8,261.3,249.8c-0.1-0.1-0.8,0.3,0,1.2c0.2,0.3,0.9,0.4,1,0.5
						c0.4,0.2,0.8,0,1-0.4c0.2-0.4,0-0.9-0.4-1.1c-0.2-0.1-0.9-0.5-1.2-0.4C261.6,249.6,261.4,249.7,261.3,249.8z M261.3,250.5
						C261.3,250.6,261.3,250.6,261.3,250.5C261.3,250.6,261.3,250.6,261.3,250.5L261.3,250.5L261.3,250.5z"/>
				</g>
				<g transform="matrix(0.4441,0,0,0.39775,0,0)">
					<path class="st1" d="M230.5,243.5c-0.3,0.2-0.3,0.5-0.4,0.9c0,0.3,0.1,0.7,0.2,1c0,0.3,0.3,0.5,0.6,0.5
						c0.3-0.1,0.5-0.4,0.4-0.7l-0.3-1.3c0.1-0.2,0.1-0.4-0.1-0.5C230.8,243.3,230.6,243.4,230.5,243.5z"/>
				</g>
				<g transform="matrix(0.4441,0,0,0.39775,0,0)">
					<path class="st1" d="M200.6,257.2C200.6,257.2,200.6,257.2,200.6,257.2c0.8-1.5,0.2-1.8-0.8-0.2c-0.6,0.9-1.6,2.5-2.6,4.1
						c-1.2,2-2.3,3.9-2.4,4.1c-1.3,1.8-2.5,3.8-3.6,5.9c-1.6,3-2.9,6.3-4.2,9.5c-0.2,0.4,0,0.8,0.3,1c0.3,0.2,0.8,0,0.9-0.4
						c1.3-3.1,2.6-6.3,4.1-9.3c1-2,2.1-3.9,3.4-5.7c0.1-0.2,1.3-2.2,2.4-4.3c0.9-1.7,1.7-3.4,2.2-4.3L200.6,257.2z"/>
				</g>
				<g transform="matrix(0.4441,0,0,0.39775,-0.573154,1.74233)">
					<path class="st1" d="M189.7,276.4c0-0.1-0.1-0.2-0.2-0.2c-0.2-0.1-0.4-0.1-0.4-0.1c-0.3,0-0.4,0.2-0.4,0.4
						c0,0.1,0.1,0.2,0.3,0.5c0.1,0.1,0.1,0.3,0.3,0.4c0.3,0.4,0.8,0.7,1.3,1.1c0.9,0.7,2,1.3,2.2,1.4c1.7,0.7,3.5,1.6,5.3,2.2
						c0.8,0.3,1.6,0.5,2.4,0.7c0.4,0.1,0.8-0.2,0.9-0.6c0.1-0.5-0.2-0.9-0.6-1l-7.5-2.8c-0.2-0.1-1.1-0.7-2-1.2
						c-0.5-0.3-1-0.6-1.4-0.8C189.8,276.4,189.8,276.4,189.7,276.4z"/>
				</g>
				<g transform="matrix(0.4441,0,0,0.39775,0,0)">
					<path class="st1" d="M263.3,277.2c0.1,0,0.2-0.1,0.3-0.2c0.1-0.2,0.1-0.4-0.1-0.5c-0.2-0.2-0.4-0.2-0.6-0.2
						c-0.2,0.1-0.4,0.5-0.4,1.1c0,0.3,0,0.8,0.1,1.2c0.2,1.1,0.5,2.3,0.6,2.7c0.6,2.4,1.3,4.5,2.2,6.5c0.6,1.2,1.1,2.4,1.9,3.6
						c0.4,0.7,1,1.5,1.5,2.2c0.2,0.3,0.6,0.4,0.8,0.2c0.3-0.2,0.3-0.6,0.2-0.9c-0.4-0.7-0.7-1.4-1.1-2.1c-0.9-1.6-1.8-3.2-2.5-4.9
						c-0.7-1.5-1.2-3.1-1.7-4.9c-0.1-0.4-0.4-1.5-0.8-2.5C263.6,278,263.3,277.5,263.3,277.2z M263.1,277.1
						C263.1,277.1,263.1,277.1,263.1,277.1c-0.1,0-0.1-0.1-0.1-0.1C263,277.2,263.1,277.2,263.1,277.1z M263.2,277.1
						c0.1-0.1,0.1-0.1,0.1-0.1C263.3,277,263.2,277,263.2,277.1z"/>
				</g>
				<g transform="matrix(0.4441,0,0,0.39775,0,0)">
					<path class="st1" d="M270.7,299.5c0.1-0.1,0.1-0.2,0.1-0.3c-0.1-0.6-0.6-0.8-0.7,0.2c-0.1,0.6-0.2,2.3-0.2,2.7l-0.2,5.4
						c-0.1,3.6-0.3,7.5-0.2,11.2c0,1.3,0.1,2.5,0.3,3.8c0.2,1.3,0.5,2.5,0.8,3.7c0.1,0.4,0.4,0.6,0.8,0.5c0.3-0.1,0.5-0.5,0.4-0.9
						c-0.3-1.2-0.4-2.4-0.6-3.6c-0.2-1.2-0.3-2.4-0.4-3.6c-0.2-3.7-0.1-7.6-0.2-11.1l0-5.4C270.6,301.8,270.7,300.2,270.7,299.5z"/>
				</g>
				<g transform="matrix(0.4441,0,0,0.39775,0,0)">
					<path class="st1" d="M260.4,276.9c-0.7-0.2-2.2-0.4-3.7-0.4c-0.8,0-1.7-0.1-2.4-0.2c-0.5-0.1-1-0.1-1.3-0.3
						c-0.3-0.1-0.6,0-0.7,0.3c-0.1,0.3,0,0.7,0.3,0.8c0.5,0.3,1.4,0.4,2.4,0.5c0.7,0,1.4,0,2.2,0c1.3,0,2.5-0.1,3.1,0
						c0.2,0,0.4-0.1,0.4-0.3C260.7,277.2,260.6,277,260.4,276.9z"/>
				</g>
				<g transform="matrix(0.4441,0,0,0.39775,0,0)">
					<path class="st1" d="M247.2,276.8c0.1,0,0.2,0.1,0.2,0.1c0.2,0,0.3-0.1,0.3-0.2c0.1-0.1,0.1-0.5-0.3-0.6
						c-0.3-0.1-1.3-0.2-1.5-0.2l-4.9-0.8c-3.3-0.5-6.5-1.2-9.8-1.8c-1.4-0.2-2.8-0.5-4.2-0.7c-0.3,0-0.6,0.2-0.6,0.6
						c0,0.3,0.2,0.7,0.5,0.7c1.4,0.2,2.8,0.4,4.2,0.6c3.3,0.5,6.5,1.1,9.8,1.6l4.9,0.7C246,276.8,246.9,276.8,247.2,276.8z"/>
				</g>
				<g transform="matrix(0.4441,0,0,0.39775,0,0)">
					<path class="st1" d="M272.1,271.5C272,271.6,272,271.6,272.1,271.5l0,0.3l-0.9,5.2c-0.5,3.5-1.1,7.1-1.3,10.6
						c-0.2,2.4-0.2,4.8-0.2,7.2c0,0.4,0.3,0.7,0.6,0.7s0.6-0.3,0.6-0.7c0-2.4,0.2-4.7,0.4-7.1c0.3-3.5,0.6-7.1,1.1-10.6l0.5-5.3
						c0-0.1,0-0.2,0-0.3c0-0.1,0-0.2,0-0.2c0-0.1-0.1-0.2-0.1-0.2c-0.1-0.2-0.3-0.2-0.3-0.2c-0.1,0-0.2,0.1-0.3,0.2
						C272.1,271.2,272.1,271.3,272.1,271.5z M272.1,271.5L272.1,271.5L272.1,271.5c0,0.1,0.1,0.1,0.1,0.1
						C272.2,271.6,272.1,271.6,272.1,271.5C272.1,271.5,272.1,271.5,272.1,271.5L272.1,271.5z"/>
				</g>
				<g transform="matrix(0.4441,0,0,0.39775,0,0)">
					<path class="st1" d="M261.5,249.9C261.5,249.8,261.5,249.8,261.5,249.9c0.1-0.2,0.1-0.5-0.1-0.6c0-0.1-0.4-0.2-0.9,0.4
						c-0.2,0.2-0.3,0.6-0.4,0.8l-2,2.9c-0.9,1.2-2.6,3.3-4.4,4.6c-0.5,0.4-1.1,0.8-1.6,1c-0.6,0.2-1.1,0.4-1.6,0.3
						c-0.4-0.1-0.7,0.2-0.8,0.6c-0.1,0.4,0.1,0.8,0.5,0.9c0.9,0.3,1.9,0.2,2.9-0.2c0.5-0.2,1.1-0.6,1.6-1c1.9-1.4,3.7-3.7,4.6-5.1
						c0.4-0.6,0.8-1.2,1.2-1.8c0.3-0.4,0.5-0.9,0.7-1.3c0.2-0.3,0.4-0.7,0.4-1C261.7,250,261.6,249.9,261.5,249.9L261.5,249.9z
						 M261.4,249.9c-0.1,0-0.1,0-0.2,0C261.3,250,261.4,250,261.4,249.9L261.4,249.9z"/>
				</g>
				<g transform="matrix(0.4441,0,0,0.39775,-1.51169,-1.25695)">
					<path class="st1" d="M230.9,265.2c-0.1,0-0.1,0.1,0,0.1c0,0.1-0.1,0.2-0.1,0.3c-0.1,0.9-0.5,2.9-0.7,5.1
						c-0.1,0.9-0.3,1.9-0.3,2.8c-0.1,1-0.1,2,0,2.9c0,0.3,0.2,0.6,0.5,0.6c0.3,0,0.5-0.3,0.5-0.6c0-0.9,0.1-1.9,0.2-3
						c0.2-2.7,0.4-5.6,0.5-7.1c0-0.5,0.1-0.9,0.1-1.1c0-0.4-0.2-0.5-0.3-0.5c-0.2,0-0.4,0.1-0.4,0.3
						C230.9,265.2,230.9,265.2,230.9,265.2z M230.9,265.2C230.9,265.3,230.9,265.3,230.9,265.2l0,0.1l0,0l0.1,0
						C231,265.4,231,265.4,230.9,265.2C231,265.3,231,265.2,230.9,265.2L230.9,265.2z"/>
				</g>
				<g transform="matrix(0.547428,0,0,0.422737,-334.835,-75.2702)">
					<path class="st1" d="M805.3,392.9L805.3,392.9C805.3,392.9,805.3,392.9,805.3,392.9L805.3,392.9c0,0,0.1-0.1,0.1-0.1h0h0l0,0
						L805.3,392.9L805.3,392.9c0.1-0.1,0.1-0.1,0.1-0.1h0c0,0,0-0.1,0-0.1c0.1-0.2,0-0.4-0.2-0.5c-0.1-0.2-0.2-0.1-0.3-0.1
						c-0.2-0.1-0.3,0.2-0.5,0.5c-0.1,0.4,0.2,1.4,0.2,1.7c0.1,0.7,0.1,1.3,0.1,1.9c0,0.6-0.1,1.3-0.1,1.9c-0.2,2-0.8,3.8-1.8,5.4
						c-0.9,1.5-2.1,2.7-3.6,3.6c-0.3,0.2-0.5,0.6-0.3,1.1c0.1,0.4,0.5,0.6,0.8,0.4c1-0.5,2-1.2,2.7-2c0.6-0.6,1.1-1.3,1.5-2
						c1.1-1.8,1.7-4,1.9-6.3c0-0.7,0.1-1.4,0-2.1c0-0.7-0.1-1.4-0.2-2.1C805.7,393.9,805.3,393.2,805.3,392.9z M805.3,392.9
						C805.3,392.9,805.3,392.9,805.3,392.9c-0.1,0.1-0.2,0.1-0.2,0.1c0,0,0,0.1,0,0.1c0,0,0.1,0,0.1,0
						C805.2,393,805.3,393,805.3,392.9L805.3,392.9L805.3,392.9L805.3,392.9L805.3,392.9L805.3,392.9z"/>
				</g>
				<g transform="matrix(0.299481,0,0,0.376796,477.837,61.3429)">
					<path class="st1" d="M-1213.7,89.6C-1213.6,89.6-1213.6,89.5-1213.7,89.6c0.3-0.3,0.2-0.5,0-0.6c-0.1-0.1-0.3-0.1-0.5-0.1
						c-0.1,0-0.1,0-0.2,0c0,0-0.1,0-0.1,0c0,0-0.1,0-0.1,0c-0.3,0-0.2,0-0.6,0.3c-0.1,0-0.1,0.1-0.1,0.2c-0.6,1.1-0.3,4.6-0.3,5
						c0.2,2.5,0.8,4.3,2,5.7c1,1.1,2.3,1.9,4.1,2.5c0.5,0.2,1.1,0,1.4-0.4c0.2-0.4,0-0.9-0.5-1.1c-1.7-0.7-2.7-1.5-3.4-2.7
						c-0.6-1-1-2.4-1.2-4.1c-0.1-0.4-0.1-3.5-0.2-4.5C-1213.5,89.7-1213.7,89.6-1213.7,89.6C-1213.6,89.6-1213.6,89.6-1213.7,89.6z
						 M-1213.8,89.7c-0.1,0-0.1,0-0.2,0C-1214,89.7-1213.9,89.7-1213.8,89.7z"/>
				</g>
				<g transform="matrix(0.4441,0,0,0.39775,0,0)">
					<path class="st1" d="M227.6,263.3c0.1,0,0.1,0,0.2,0c0.2-0.1,0.3-0.3,0.2-0.5c0.1-0.1-0.1-0.2,0-0.2c0-0.1-0.1,0-0.1-0.1
						c0,0-0.1,0-0.1,0c-0.1-0.2-0.2,0.1-0.3,0c-0.1,0-0.1,0.1-0.2,0.1c-0.1,0-0.2,0.1-0.3,0.3c-0.2,0.2-0.2,0.7-0.3,0.9l-1.1,2.4
						c-0.7,1.6-1.5,3.2-2.1,4.8c-0.4,1.1-0.8,2.3-1.1,3.5c-0.1,0.4,0.1,0.8,0.5,1c0.4,0.1,0.7-0.1,0.9-0.5c0.2-0.8,0.6-1.6,0.9-2.4
						c0.7-1.9,1.6-3.8,2.3-5.7l1-2.4c0.1-0.2,0-1.1,0.2-1.1c0.1,0-0.1-0.1-0.1,0c0,0.1-0.2,0-0.2,0.1
						C227.8,263.5,227.7,263.4,227.6,263.3z M227.4,263.1C227.3,263.1,227.3,263.1,227.4,263.1c0,0.1,0,0.2,0,0.2
						c0.1,0,0,0.1,0.1,0.1c0,0,0,0,0.1,0C227.4,263.3,227.4,263.2,227.4,263.1z"/>
				</g>
				<g transform="matrix(0.4441,0,0,0.39775,0,0)">
					<path class="st1" d="M205.2,275.8c-0.9,1.4-1.8,2.9-2.6,4.5c-1.2,2.3-2.4,4.8-3.6,6.9c-0.4,0.7-1,1.7-1.3,2.7
						c-0.1,0.6-0.2,1.1,0,1.6c0.1,0.4,0.5,0.6,0.8,0.5c0.3-0.1,0.5-0.5,0.4-0.9c-0.1-0.4,0-0.7,0.1-1.1c0.3-0.8,0.7-1.5,1.1-2.1
						c0.5-0.9,0.9-1.9,1.4-2.8c1-2.2,2-4.6,3-6.7c0.4-0.8,0.8-1.6,1.2-2.3c0.1-0.2,0.1-0.4-0.1-0.5
						C205.5,275.6,205.3,275.6,205.2,275.8z"/>
				</g>
				<g transform="matrix(0.465883,0,0,0.401785,-68.6662,-11.9035)">
					<path class="st1" d="M361,271.4c-0.4-0.5-1.1-0.7-1.9-0.8c-1.1-0.1-2.3,0.1-2.8,0.2c-2.1,0.4-4.3,1.3-6.3,2.4
						c-2.1,1.1-4.1,2.5-5.6,4c-2.3,2.1-4.4,4.3-6.2,6.7c-1.8,2.4-3.4,5.1-4.9,8c-0.2,0.3-0.1,0.7,0.2,0.9c0.3,0.2,0.6,0.1,0.7-0.2
						c1.6-2.8,3.2-5.3,5-7.6c1.8-2.4,3.7-4.5,6-6.5c1.5-1.4,3.4-2.7,5.4-3.9c1.9-1.1,3.9-2,5.9-2.5c0.5-0.1,1.6-0.3,2.6-0.4
						c0.6,0,1.2,0,1.5,0.3c0.1,0.1,0.3,0.1,0.5,0C361.1,271.7,361.1,271.5,361,271.4z"/>
				</g>
				<g transform="matrix(0.465883,0,0,0.401785,-68.6662,-11.9035)">
					<path class="st1" d="M328.8,309.1c-0.2,0.3-0.4,0.8-0.6,1.3c-0.3,0.9-0.5,2-0.7,3.2c-0.4,2.3-0.7,5-0.8,7.5
						c-0.1,1.1-0.1,2.2-0.1,3.2c0,0.3,0.2,0.6,0.5,0.7c0.3,0,0.6-0.2,0.6-0.6c0.1-1.1,0.3-2.3,0.4-3.6c0.2-1.8,0.3-3.7,0.5-5.4
						c0.2-1.8,0.5-3.5,0.7-4.7c0.1-0.4,0.1-0.8,0.2-1.2c0.1-0.2,0-0.4-0.2-0.5C329.1,308.8,328.9,308.9,328.8,309.1z"/>
				</g>
				<g transform="matrix(0.760871,-0.166991,0.284235,1.03885,-1862.32,-1543.76)">
					<path class="st1" d="M1848.7,1897.5c-0.5,0.7-0.5,3.1,1,4.4c0.9,0.7,2.2,1.2,4,0.9c0.2,0,0.3-0.2,0.3-0.3
						c0-0.1-0.2-0.2-0.4-0.2c-2,0.3-3.2-0.3-3.9-1.2c-0.9-1.2-1.1-2.8-0.7-3.4c0-0.1,0-0.2-0.1-0.2S1848.7,1897.4,1848.7,1897.5z"/>
				</g>
				<g transform="matrix(0.4441,0,0,0.39775,0,0)">
					<path class="st1" d="M267.7,253.1c-0.2,0.1-0.3,0.4,0.1,0.7c0.1,0.1,0.3,0.2,0.7,0.3c1.3,0.6,4,2.1,6.3,3.7
						c1.3,1,2.5,2.2,3.5,3.7c1.6,2.1,2.9,4.6,4.1,6.9c2.5,4.7,4.4,9.6,6,14.6c1.6,5.1,2.8,10.3,3.7,15.6c0.1,0.4,0.4,0.6,0.7,0.5
						s0.5-0.4,0.5-0.8c-0.9-5.4-2-10.7-3.6-15.8c-1.6-5.1-3.6-10-6.2-14.8c-1.3-2.3-2.7-4.8-4.4-6.9c-1.2-1.5-2.4-2.8-3.9-3.8
						c-2.3-1.6-5.2-2.9-6.5-3.5c-0.3-0.1-0.5-0.3-0.7-0.3c0,0-0.1,0-0.1-0.1c0,0-0.1,0-0.1,0C267.8,253,267.7,253,267.7,253.1z"/>
				</g>
				<g transform="matrix(0.442984,0.0281762,-0.0681159,0.859038,213.526,-1586.85)">
					<path class="st1" d="M28.5,1990.8c-0.1,0.1-0.2,0.2-0.2,0.3c-0.1,0.2-0.1,0.5-0.2,0.7c-0.3,1.3-0.6,2.6-0.7,4
						c0,0.2,0.3,0.3,0.6,0.4c0.4,0,0.7-0.1,0.7-0.3c0.1-1.3,0.5-2.6,0.6-3.9c0-0.2,0.1-0.5,0-0.7c0-0.1-0.1-0.2-0.2-0.3
						c0-0.1-0.1-0.2-0.3-0.2C28.7,1990.7,28.5,1990.7,28.5,1990.8z"/>
				</g>
				<g transform="matrix(0.443683,0.0172213,-0.0192281,0.397377,64.5192,-55.8319)">
					<path class="st1" d="M56,462c0-0.2-0.1-0.3-0.3-0.3c-0.2,0-0.4,0.1-0.4,0.3c0,0.3,0.1,0.6,0.5,0.8c0.4,0.2,1,0.2,1.9,0.2
						c2.9-0.1,8.1-1,8.7-1c9.6-0.3,19.2-0.4,28.7-0.8c4.1-0.1,8.2-0.3,12.3-0.6c10.2-0.6,20.5,0.3,30.7,0.3c2.6,0,5.1-0.1,7.7-0.2
						c11-0.7,22-1.3,33-1.7c4.4-0.1,8.8-0.2,13.2-0.3c6.6-0.1,13.2,0,19.8,0.2c0.2,0,0.4-0.2,0.4-0.4c0-0.2-0.1-0.4-0.3-0.4
						c-8.9-0.4-17.7-0.5-26.4-0.3c-13.2,0.3-26.3,1.2-39.6,2c-10.2,0.6-20.5-0.3-30.7-0.3c-2.6,0-5.1,0.1-7.7,0.2
						c-4.1,0.3-8.2,0.4-12.3,0.6c-9.6,0.3-19.2,0.5-28.7,0.8c-0.4,0-3.7,0.6-6.5,0.9c-1.4,0.1-2.7,0.2-3.4,0.1
						C56.2,462.1,56.1,462,56,462z"/>
				</g>
				<g transform="matrix(0.4441,0,0,0.39775,0,0)">
					<path class="st1" d="M263.5,250.2l-1.2,7.4l-2.4,20.8c0,0.4,0.2,0.7,0.5,0.7c0.3,0,0.6-0.2,0.7-0.6c0.5-4.2,1.2-8.3,1.7-12.5
						c0.3-2.8,0.6-5.6,0.8-8.4c0.1-0.9,0.5-4,0.7-6c0-0.2,0-0.4,0-0.6c0-0.5-0.1-0.8-0.2-1c0-0.2-0.2-0.3-0.4-0.3
						C263.6,249.8,263.5,250,263.5,250.2z"/>
				</g>
				<g transform="matrix(0.4441,0,0,0.39775,0,0)">
					<path class="st1" d="M265.9,250.7c-0.1-0.1-0.2-0.2-0.4-0.2c-0.3,0-0.3,0.2-0.4,0.3c-0.1,0.1,0,0.5,0.3,0.8
						c0.2,0.2,0.6,0.4,1,0.5c-0.1,0.2-0.1,0.4-0.2,0.6c-0.1,0.3-0.2,0.6-0.2,0.9l-0.6,3.5c-0.6,3.5-1.2,7-1.6,10.5
						c-0.4,3.5-0.8,7-1,10.6c0,0.3,0.2,0.6,0.4,0.6c0.3,0,0.5-0.2,0.6-0.5c0.4-3.5,0.8-7,1.3-10.5c0.5-3.5,1-7,1.7-10.4l0.5-3.6
						l0.5-1.8c0.1-0.2,0.1-0.3,0-0.5c-0.1-0.2-0.2-0.3-0.3-0.3C267.3,251.3,266.3,250.9,265.9,250.7
						C265.9,250.7,265.9,250.7,265.9,250.7z M265.8,251.2L265.8,251.2L265.8,251.2L265.8,251.2L265.8,251.2z M265.8,250.7
						C265.8,250.7,265.8,250.7,265.8,250.7C265.8,250.7,265.8,250.7,265.8,250.7z"/>
				</g>
				<g transform="matrix(0.535772,0,0,0.287953,-290.168,323.341)">
					<path class="st1" d="M729.7-786.8L729.7-786.8c0.1,0,0.1-0.1,0.1-0.1c0,0,0-0.1,0-0.2c0.1-0.2,0-0.3,0-0.3
						c0-0.4-0.2-0.4-0.4-0.4c0,0-0.1,0.1-0.2,0.3c-0.1,0.2-0.3,0.8-0.4,1.1c-0.1,0.8-0.3,1.6-0.4,2.4c-0.1,0.6-0.1,1.2-0.1,1.8
						c0,0.4,0.2,0.7,0.4,0.7c0.2,0,0.4-0.3,0.4-0.7c0-0.5,0.1-1,0.1-1.5c0.1-0.8,0.3-1.5,0.4-2.3
						C729.6-786.1,729.6-786.5,729.7-786.8z M729.7-786.9L729.7-786.9c0,0,0,0-0.1,0.1l0,0C729.7-786.8,729.7-786.9,729.7-786.9z"/>
				</g>
				<g transform="matrix(0.4441,0,0,0.39775,0,0)">
					<path class="st1" d="M227.7,242.5c-0.1-0.1-0.2-0.2-0.3-0.1c-0.1,0-0.1,0-0.1,0c0,0,0,0.1-0.1,0.1c-0.1,0,0,0.2-0.1,0.2
						c-0.1,0.1,0.1,0.1,0,0.3c0,0.1,0.1,0,0.1,0.2c0,0.1,0.1,0.1,0.2,0.2c0.1,0.1,0.2,0.1,0.2,0.1l0.7,0.2c0,0.2-0.1,0.4-0.1,0.5
						c-0.1,0.6-0.2,1.2-0.1,1.8c0,0.3,0.1,0.5,0.1,0.8c0,0.3,0.2,0.6,0.5,0.6s0.5-0.3,0.5-0.6c0-0.3,0.1-0.5,0.2-0.7
						c0.1-0.6,0.1-1.2,0.2-1.8l0.2-1.1c0.1-0.2,0-0.5-0.1-0.6c-0.1-0.2-0.3-0.3-0.6-0.2l-0.3,0.1l-0.8-0.1c-0.1,0-0.2-0.1-0.3-0.1
						c-0.1,0-0.1,0.1-0.1,0.1c0,0,0,0.1,0,0.1C227.7,242.3,227.7,242.4,227.7,242.5z M227.7,242.9c0,0.1-0.1,0.1-0.1,0.1
						c0,0,0,0,0,0C227.7,243,227.8,243,227.7,242.9L227.7,242.9z M227.8,242.6L227.8,242.6c0,0.1,0,0.1,0,0.2
						C227.9,242.7,227.9,242.6,227.8,242.6L227.8,242.6z M227.8,242.5C227.8,242.5,227.8,242.5,227.8,242.5
						C227.8,242.5,227.8,242.5,227.8,242.5L227.8,242.5z"/>
				</g>
				<g transform="matrix(0.4441,0,0,0.39775,0,0)">
					<path class="st1" d="M271.4,298.7c0,0,0.1-0.1,0.1-0.1c0.1-0.2,0.1-0.4,0-0.5c-0.2-0.3-0.4-0.2-0.5-0.2c-0.1,0-0.3,0.2-0.4,0.6
						c-0.1,0.5,0.1,1.5,0.1,1.7c0.2,1,0.2,2.1,0.3,3.1c0.1,0.5,0.2,1,0.3,1.4c0.1,0.2,0.3,0.3,0.5,0.2c0.2-0.1,0.3-0.3,0.2-0.5
						c-0.1-0.4-0.1-0.8-0.2-1.2c-0.1-1.1-0.1-2.2-0.2-3.2C271.7,299.8,271.3,299,271.4,298.7z M271.4,298.5L271.4,298.5L271.4,298.5
						L271.4,298.5L271.4,298.5z M271.4,298.5C271.5,298.5,271.5,298.5,271.4,298.5C271.5,298.5,271.4,298.5,271.4,298.5z"/>
				</g>
				<g transform="matrix(0.4441,0,0,0.39775,0,0)">
					<path class="st1" d="M271.8,304c-3-0.3-3,0.1-1.6,0.5c-1.2,0.5-1.1,1,1.6,0.3l0.1,0c0.2,0,0.6,0.1,1.1,0.1c0.7,0,1.5,0,1.7-0.1
						l4.9-1.3c2.2-0.5,4.6-0.8,6.8-1.5c1.6-0.5,3.1-1.1,4.5-2c0.4-0.2,0.5-0.7,0.3-1.2c-0.2-0.4-0.7-0.5-1-0.3c-1,0.6-2,1-3.1,1.4
						c-2.6,0.9-5.3,1.3-7.8,2l-4.8,1.5c-0.1,0-0.8,0.1-1.5,0.2c-0.4,0.1-0.8,0.2-1,0.2L271.8,304z"/>
				</g>
				<g transform="matrix(0.306916,0,0,0.400909,473.556,-13.5362)">
					<path class="st1" d="M-1123.8,331.7c-0.2-1.5-1.2-0.8-1.3,0c0,0.2,0,0.7,0,1.2c0.1,1.5,0.6,3.9,0.7,4.6
						c0.4,3.7,0.6,7.5,0.9,11.2c0.2,1.6,0.3,3.2,0.6,4.8c0.1,0.4,0.6,0.8,1.2,0.7c0.6-0.1,1-0.5,0.9-0.9c-0.2-1.6-0.4-3.2-0.6-4.8
						c-0.4-3.7-0.6-7.5-1.1-11.2c-0.1-0.8-0.6-3.2-1-4.7C-1123.6,332.3-1123.8,332-1123.8,331.7z"/>
				</g>
				<g transform="matrix(0.501914,0,0,0.461165,-196.088,-205.016)">
					<path class="st1" d="M632.9,707.3c0,0.1,0.1,0.2,0.1,0.4c0,0.2,0,0.3,0,0.6c0.1,0.8,0.4,2.1,0.7,3.6c0.4,2,0.9,4.4,1.3,6.7
						c0.3,1.7,0.5,3.4,0.6,4.8c0,0.3,0.3,0.6,0.6,0.6c0.3,0,0.6-0.3,0.5-0.6c-0.1-2.3-0.6-5.4-1.1-8.2c-0.4-1.7-0.7-3.4-1.1-4.8
						c-0.2-0.9-0.4-1.6-0.6-2.2c-0.1-0.2-0.2-0.4-0.2-0.5c0-0.1-0.1-0.3-0.1-0.4c0-0.2-0.2-0.3-0.3-0.3
						C633,707,632.9,707.2,632.9,707.3z"/>
				</g>
			</g>
		</g>
		<g>
			<g transform="matrix(0.4441,0,0,0.39775,0,1.13047e-14)">
				<path class="st0" d="M196.8,305.2l10.1-34.7c0,0,9.5-27.9,33.3-17.2c22.9,10.2,11.9,37.2,12.4,37c0.2-0.1-5,18.5-5,18.5
					s6.8,3.6,11-3.2c4.3-6.7,11.5-14,15.5-12.5c0,0,3.4-8.3,6.4-7.1c3,1.2,0.8,19.2-3.8,20.4c-2.5,0.7-2.4-8.4-3.2-8.9
					c-0.3-0.2-6.9,1.5-11.2,11.9c-4.3,10.4-10.8,9-16.9,7.5l-1.4,7.6C244,324.4,207.3,320.4,196.8,305.2z M247.8,284.7
					c0.4,0.2,0.5,0.2,0.3,0.2C248,284.9,247.9,284.8,247.8,284.7c-3.9-1.7-35-12.5-35-12.5s7.2-19.7,24.2-12.9
					C253.1,265.8,246.5,282.6,247.8,284.7z"/>
			</g>
			<g>
				<g transform="matrix(0.452282,0,0,0.428773,-26.0376,-92.3981)">
					<path class="st1" d="M261.2,467.2C261.2,467.2,261.2,467.2,261.2,467.2c0.1-0.2,0.2-0.5,0.4-0.8c0.1-0.1,0.1-0.1,0.2-0.2
						c0.2-0.2,0.3-0.5,0.5-0.8c1.2-2.3,3-6.1,4.1-7.5c2.5-3.3,5-5.4,8-6.7c3-1.3,6.3-1.8,10.2-1.8c3.3,0,6.3,0.5,8.9,1.6
						c4.5,1.8,7.8,5,10.1,9.1c0.7,1.2,1.3,2.5,1.8,3.9c1.7,5.1,1.7,11.1,0.3,17.3c-0.2,0.8-0.4,1.6-0.6,2.4
						c-0.1,0.3,0.1,0.7,0.4,0.8c0.3,0.1,0.7-0.1,0.8-0.4c0.3-0.8,0.6-1.6,0.8-2.4c1.7-6.4,1.4-12.7-0.3-18.2c-0.5-1.5-1-2.9-1.7-4.3
						c-2.3-4.5-6.1-8.1-10.9-10.1c-2.8-1.2-6-1.7-9.6-1.7c-4.1,0.1-7.6,0.7-10.8,2.1c-3.1,1.5-5.9,3.8-8.5,7.4c-1.1,1.5-3,5.4-4,7.9
						c-0.1,0.3-0.3,0.6-0.3,0.9c0,0.2,0,0.3,0,0.4c-0.1,0.2-0.2,0.4-0.2,0.6c-0.2,0.6,0.5,0.7,0.5,0.5
						C261.2,467.3,261.2,467.3,261.2,467.2z"/>
				</g>
				<g transform="matrix(0.4441,0,0,0.39775,0,0)">
					<path class="st1" d="M213.1,272L213.1,272c0.1-0.1,0.1-0.2,0.2-0.3c0.1-0.1,0.1,0,0.3-0.1c0,0,0-0.1,0.1-0.1
						c0.8-1.4,2.7-4.7,3.5-5.7c1.9-2.3,4.7-4.9,7.7-6.5c2-1,4-1.6,6.1-1.4c7.1,0.8,11.4,3.7,13.8,8.3c1.9,3.8,2.5,8.6,2.4,14.3
						c0,1-0.1,2-0.1,3c0,0.3,0.1,0.5,0.1,0.8c0,0.4,0.2,0.7,0.5,0.7c0.3,0,0.6-0.2,0.6-0.6c0.1-0.3,0.2-0.5,0.2-0.8
						c0.2-1,0.2-2.1,0.2-3.1c0.3-6.1-0.5-11.3-2.6-15.3c-2.6-5-7.3-8.3-15-9.1c-2.3-0.2-4.6,0.4-6.8,1.6c-3.2,1.7-6,4.4-8.1,6.9
						c-0.8,1-2.8,4.5-3.5,6c0,0-0.1,0.1-0.1,0.1c0,0.1,0.1,0.2,0.1,0.3c0,0.2-0.1,0.2-0.2,0.3c0,0,0,0.1,0,0.1s0.5,0.6,0.5,0.6
						C212.9,272.2,213,272.1,213.1,272z"/>
				</g>
				<g transform="matrix(0.438299,0,0,0.397927,18.8845,-0.577679)">
					<path class="st1" d="M206.3,318.3c0.4,0.6,1.5,1.3,3,1.6c1.3,0.3,3,0.2,4.7-0.1c2.5-0.5,5.2-1.8,7-4.1c2.2-3,3.5-7,5.8-10.5
						c0.9-1.3,1.9-2.5,3.2-3.6c0.6-0.5,1.6-1.4,2.6-2c0.5-0.3,1.1-0.6,1.6-0.4c0.3,0.1,0.7,0,0.8-0.4c0.1-0.3,0-0.7-0.3-0.9
						c-0.6-0.4-1.4-0.4-2.1-0.2c-1.3,0.4-2.7,1.7-3.5,2.4c-1.4,1.2-2.6,2.5-3.5,3.9c-2.3,3.5-3.5,7.5-5.7,10.5
						c-1.5,2.1-3.8,3.2-6,3.7c-1.5,0.4-3,0.4-4.3,0.3c-1.2-0.1-2.2-0.3-2.6-0.7c-0.1-0.2-0.3-0.2-0.5-0.1
						C206.2,317.9,206.1,318.1,206.3,318.3z"/>
				</g>
				<g transform="matrix(0.4441,0,0,0.39775,0,0)">
					<path class="st1" d="M248.1,308.3C248.1,308.3,248,308.3,248.1,308.3c-1.7-0.5-1.8-0.2-0.3,0.7c0,0,0.1,0.1,0.3,0.1
						c0.3,0.1,0.8,0.4,1.3,0.6c0.6,0.2,1.1,0.4,1.4,0.4c1.2,0.3,2.5,0.2,3.7-0.2c1.2-0.4,2.3-1.1,3.2-1.9c2.9-2.6,5.4-7.7,8.8-11.1
						c1.7-1.6,3.6-2.6,5.9-3.1c0.5-0.1,1.1-0.3,1.7-0.3c0.3,0,0.5-0.2,0.5-0.5s-0.2-0.5-0.4-0.6c-0.7-0.2-1.4-0.3-2.1-0.3
						c-1.7,0.1-3.2,1-4.6,2c-4.4,3.2-7.2,9.6-10.6,12.7c-0.8,0.7-1.8,1.3-2.8,1.7c-1,0.4-2.1,0.5-3.1,0.3c-0.2,0-0.8-0.2-1.4-0.3
						c-0.5-0.1-1.1-0.2-1.4-0.3L248.1,308.3z"/>
				</g>
				<g transform="matrix(0.611306,0,0,0.423902,-566.151,-82.4124)">
					<path class="st1" d="M1125.9,469.4c0-0.4,0.2-0.8,0.3-1.2c0.3-0.9,0.8-1.8,1.4-2.7c0.9-1.4,2-2.6,2.6-2.5
						c0.2,0,0.4-0.2,0.4-0.5c0-0.3-0.1-0.6-0.3-0.6c-0.7-0.1-2.1,1.1-3.3,2.8c-0.6,1-1.2,2.1-1.5,3.1c-0.2,0.6-0.2,1.2-0.1,1.7
						c0,0.2,0.1,0.4,0.3,0.3C1125.8,469.8,1125.9,469.6,1125.9,469.4z"/>
				</g>
				<g transform="matrix(0.541733,0,0,0.337896,-330.08,189.687)">
					<path class="st1" d="M833.8-212c0,0.1-0.1,0.1-0.1,0.2c-0.1,0.1-0.1,0-0.2,0.1c-0.1,0.1-0.2,0.4-0.3,0.6
						c-0.1,0.3-0.2,0.7-0.2,1.2c-0.1,0.9,0.1,2,0.3,3.2c0.3,1.5,0.7,3,1.2,4.2c0.5,1.3,1.2,2.2,1.6,2.5c0.4,0.2,0.8-0.1,0.9-0.7
						c0.1-0.6,0-1.3-0.4-1.5c-0.3-0.2-0.5-0.9-0.9-1.7c-0.4-1-0.9-2.3-1.2-3.6c-0.3-1.1-0.4-2.1-0.4-2.9c0-0.3,0-0.5,0-0.7
						c0-0.1-0.1-0.1,0-0.2c0,0,0.1,0,0.1-0.1c0.1-0.2,0.2-0.5,0.1-0.7C834.1-212.1,833.9-212.2,833.8-212z"/>
				</g>
				<g transform="matrix(0.431309,0,0,0.393318,43.3743,14.2049)">
					<path class="st1" d="M187.8,253.2c-0.4,0.1-0.7,0.5-1.1,1c-0.7,1-1.1,2.8-1.3,3.3c-0.7,2-1.3,3.9-1.7,5.9c-0.4,2-0.7,4-0.8,6.1
						c-0.1,0.9,0,2.2,0.4,3.2c0.4,0.9,1,1.5,1.9,1.5c0.6,0,1.1-0.2,1.6-0.7c0.4-0.5,0.8-1.2,1.1-1.8l0.5-1.2c0.8-2.4,1.6-5,2-7.7
						c0.3-1.8,0.5-3.7,0.4-5.4c0-0.5-0.2-3.4-0.8-4.5c-0.3-0.5-0.6-0.8-0.9-0.8c-0.3,0-0.6,0-0.9,0.3
						C187.8,252.7,187.8,253,187.8,253.2z M188.7,253.8c-0.1,0-0.1,0-0.2,0c-0.1,0.1-0.2,0.2-0.3,0.1c0,0,0,0.1-0.1,0.1
						c-0.1,0.1-0.1,0.2-0.2,0.4c-0.2,0.3-0.4,0.8-0.5,1.2c-0.3,1-0.6,2-0.7,2.4c-0.6,1.9-1.1,3.8-1.5,5.7c-0.4,1.9-0.7,3.9-0.8,5.9
						c-0.1,0.6-0.1,1.4,0.1,2.1c0.1,0.5,0.3,1,0.8,1c0.3,0,0.5-0.2,0.7-0.5c0.3-0.3,0.5-0.8,0.7-1.2l0.4-1.1c0.8-2.3,1.5-4.9,2-7.5
						c0.3-1.7,0.5-3.4,0.4-5.1C189.4,257.2,189.2,254.8,188.7,253.8z"/>
				</g>
				<g transform="matrix(0.430986,0,0,0.374426,40.7179,71.4344)">
					<path class="st1" d="M125.9,97.6C125.9,97.6,125.9,97.5,125.9,97.6C125.8,97.5,125.8,97.5,125.9,97.6L125.9,97.6L125.9,97.6
						L125.9,97.6C125.8,97.6,125.8,97.5,125.9,97.6L125.9,97.6c-0.2-0.2-0.3-0.2-0.4-0.2c-0.1,0-0.2,0.1-0.2,0.2
						c-0.1,0.1-0.1,0.3,0.2,0.7c0.1,0.2,0.5,0.5,1,0.8c2.4,1.4,8.7,3.1,10.5,4c3.9,1.8,7.7,3.5,11.6,4.9c3.9,1.4,7.9,2.7,11.9,3.8
						c0.3,0.1,0.5-0.1,0.6-0.4c0.1-0.3-0.1-0.6-0.4-0.7c-4-1.2-7.9-2.5-11.8-4c-3.9-1.5-7.7-3.1-11.5-5c-1.9-0.9-8-3.3-10.7-4
						C126.5,97.5,126,97.6,125.9,97.6z M125.9,98C125.9,98,125.8,98.1,125.9,98C125.9,98.1,125.9,98,125.9,98z M125.9,97.7
						L125.9,97.7L125.9,97.7L125.9,97.7L125.9,97.7z"/>
				</g>
				<g transform="matrix(0.4441,0,0,0.39775,0,0)">
					<path class="st1" d="M207.3,271.5c0.1-0.1,0.2-0.2,0.2-0.3c0-0.3-0.2-0.5-0.2-0.5c-0.1-0.1-0.2-0.1-0.4,0c0,0-0.2,0.2-0.2,0.4
						c-0.2,0.7-0.7,2.7-0.9,3.4c-0.3,1-0.6,1.9-0.9,2.8c-0.5,1.4-1,2.8-1.4,4.2c-0.7,2.3-1.4,4.5-2.1,6.8
						c-1.6,5.3-3.1,10.6-4.7,15.9c-0.1,0.3,0,0.6,0.3,0.8s0.6-0.1,0.7-0.4c1-3,2-6,2.9-9c1.4-4.5,2.8-9,4.3-13.6
						c0.4-1.4,0.9-2.9,1.2-4.3c0.3-1,0.5-2,0.7-3C206.8,274.2,207.1,272.3,207.3,271.5z"/>
				</g>
				<g transform="matrix(0.4441,0,0,0.39775,0,0)">
					<path class="st1" d="M253,289c0.1,0,0.1-0.1,0.1-0.2c0.1-0.2,0-0.4-0.2-0.5c-0.1-0.1-0.5,0-0.7,0.5c-0.2,0.6-0.5,2.1-0.7,2.9
						c-0.1,0.4-0.2,0.6-0.2,0.6c-0.1,0.3-0.2,0.5-0.3,0.8c-0.4,1.1-0.7,2.2-1.1,3.3c-0.4,1.4-0.8,2.8-1.2,4.2
						c-0.8,3.7-0.8,4.4-1.3,6.5c-0.2,0.7-0.4,1.6-0.7,2.7c-0.1,0.4,0.1,0.9,0.5,1c0.4,0.1,0.8-0.1,0.9-0.5c0.6-1.8,0.9-2.8,1.1-3.7
						c0.4-1.5,0.4-2.5,1.2-5.6c0.2-1,0.5-2,0.7-3c0.4-1.5,0.8-3,1.1-4.5c0.1-0.3,0.1-0.6,0.1-0.9c0-0.1,0-0.4,0-0.8
						c0.1-0.9,0.4-2.2,0.6-2.8C253,289.1,253,289.1,253,289z"/>
				</g>
				<g transform="matrix(0.4441,0,0,0.39775,0,0)">
					<path class="st1" d="M245.9,314.6c-0.1,0.4-0.2,0.9-0.4,1.4c-0.1,0.2-0.3,0.3-0.4,0.6c-0.4,0.8-0.7,1.6-0.9,2.5
						c-0.5,1.6-0.7,3.3-1,4.8c-0.1,0.4,0.2,0.9,0.6,0.9c0.4,0.1,0.8-0.2,0.8-0.6c0.3-1.4,0.8-3,1.2-4.5c0.2-0.9,0.4-1.8,0.5-2.6
						c0-0.3-0.1-0.5,0-0.7c0.1-0.5,0.3-0.9,0.4-1.4c0.1-0.2,0-0.4-0.2-0.5C246.2,314.3,246,314.4,245.9,314.6z"/>
				</g>
				<g transform="matrix(0.457418,0,0,0.408931,-40.3334,-35.7701)">
					<path class="st1" d="M279.7,384.4c0,0,0.1,0,0.1,0c0.2,0,0.3-0.2,0.3-0.4c0-0.2-0.2-0.4-0.4-0.4c-0.3,0-0.5,0.1-0.6,0.3
						c-0.2,0.2-0.2,0.5-0.1,0.9c0.3,1,2.2,2.8,2.5,3.1c1.6,1.6,3.3,2.9,5.2,4.1c1.8,1.2,3.7,2.2,5.7,3.1c5.1,2.4,10.4,4.5,15.8,6
						c3.8,1.1,7.6,1.9,11.5,2.3c1.7,0.2,3.3,0.2,5,0.3c0.2,0,0.4-0.2,0.4-0.4c0-0.2-0.1-0.4-0.3-0.4c-1.7-0.2-3.3-0.4-4.9-0.7
						c-3.8-0.6-7.6-1.4-11.4-2.5c-5.4-1.5-10.6-3.5-15.7-5.9c-2-0.9-3.8-1.8-5.6-2.9c-1.8-1.1-3.5-2.3-5.1-3.9
						c-0.2-0.2-1.3-1.1-2-1.9c-0.1-0.1-0.2-0.2-0.2-0.3c-0.1-0.1-0.1-0.2-0.2-0.2C279.8,384.5,279.7,384.4,279.7,384.4z
						 M279.7,384.4C279.7,384.4,279.6,384.4,279.7,384.4C279.7,384.4,279.7,384.4,279.7,384.4z"/>
				</g>
			</g>
		</g>
		<g>
			<g transform="matrix(0.4441,0,0,0.39775,0,0)">
				<path class="st0" d="M217.6,254.3c0,0,3.4-7.2,5.2-7.4c1.7-0.3,3.7,0.1,4.9,0c1.2-0.1,1.8-0.4,2.9-0.4c1.1,0.1,6.3,1.2,6.8,5
					c0.3,2.2,0.1,5.5-0.7,7.3c-0.1,0.2,1.4,0.9,1.3,1.1c-0.4,1.7-2.7,1-4.3,0.6c0,0-1.9,5.2-4.2,0.7c0,0-0.9,1.5-2.3-0.4
					c0,0-0.7-0.9-1.2-2.1c-0.5-1.2-3.6-4.3-4-6.9C221.9,251.8,219.9,252,217.6,254.3z"/>
			</g>
			<g transform="matrix(0.487991,0,0,0.437246,-141.503,-117.735)">
				<path class="st1" d="M504.7,495.4c-0.1-0.2-0.3-0.3-0.4-0.2c-0.3,0-0.3,0.3-0.3,0.5c0,0.2,0.1,0.4,0.4,0.7
					c0.1,0.1,0.3,0.2,0.3,0.3c0.2,0.4,0.4,0.8,0.5,1.2c0.1,0.3,0.2,0.7,0.3,1.2c0.2,1.5,0.1,3.3-0.4,4.7c-0.4,0.9-0.9,1.6-1.9,1.9
					c-0.3,0.1-0.5,0.4-0.4,0.7c0.1,0.3,0.3,0.5,0.6,0.4c1.4-0.3,2.3-1.2,2.8-2.4c0.8-1.6,0.7-3.9,0.5-5.6c-0.1-0.6-0.2-1.1-0.4-1.5
					c-0.2-0.4-0.4-0.8-0.7-1.3c-0.1-0.2-0.4-0.5-0.7-0.6C504.9,495.4,504.8,495.4,504.7,495.4C504.7,495.4,504.7,495.4,504.7,495.4z
					 M504.7,495.5C504.7,495.6,504.7,495.6,504.7,495.5C504.7,495.6,504.7,495.6,504.7,495.5z"/>
			</g>
			<g transform="matrix(0.487991,0,0,0.437246,-141.503,-117.735)">
				<path class="st1" d="M501.8,495.9c0.2,0.2,0.3,0.4,0.4,0.7c0.2,0.7,0.2,1.6,0.3,2.3c0.2,0.9,0.2,4.1-0.4,6.5
					c-0.2,0.7-0.5,1.4-0.7,1.9c-0.3,0.5-0.5,0.9-0.9,0.8c-0.3-0.1-0.6,0.1-0.6,0.4c-0.1,0.3,0.1,0.6,0.4,0.7c0.9,0.3,1.7-0.1,2.2-1
					c0.2-0.4,0.4-0.9,0.5-1.4c0.1-0.5,0.2-1.1,0.3-1.6c0.3-2.6,0.3-5.6,0.1-6.5c-0.2-0.7-0.2-1.6-0.4-2.4c-0.1-0.4-0.3-0.8-0.6-1
					c-0.1-0.1-0.3-0.1-0.5,0C501.7,495.6,501.7,495.8,501.8,495.9z"/>
			</g>
			<g transform="matrix(0.487991,0,0,0.437246,-141.503,-117.735)">
				<path class="st1" d="M498,495.2c0.1,0.4,0.3,1,0.4,1.6c0.1,0.6,0.3,1.2,0.3,1.6c0.3,1.6,0.6,3.5,0.4,5.3
					c-0.1,0.9-0.3,1.7-0.7,2.4c-0.1,0.2-0.2,0.4-0.3,0.5c-0.2,0.2-0.2,0.6,0,0.9c0.2,0.3,0.6,0.3,0.8,0c0.2-0.2,0.4-0.4,0.6-0.6
					c0.7-0.8,0.9-2,1-3.1c0.1-1.9-0.4-4-0.8-5.6c-0.1-0.4-0.3-1-0.5-1.6c-0.2-0.6-0.4-1.2-0.6-1.6c-0.1-0.2-0.3-0.3-0.4-0.2
					C498,494.8,498,495,498,495.2z"/>
			</g>
			<g transform="matrix(0.487991,0,0,0.437246,-141.503,-117.735)">
				<path class="st1" d="M494.9,496L494.9,496C494.9,496,494.9,495.9,494.9,496C494.9,496,494.9,496,494.9,496L494.9,496L494.9,496
					C494.9,496,494.9,496,494.9,496L494.9,496c0-0.1-0.1-0.1-0.1-0.1c-0.1-0.2-0.3-0.1-0.3-0.1c0,0-0.4,0.2-0.2,0.5
					c0,0,0.1,0.1,0.2,0.3c0.4,0.7,1.5,2.3,1.6,2.9c0.4,1.1,0.5,2.1,0.5,3.2c0,1.1-0.1,2.2-0.5,3.2c-0.1,0.3,0,0.6,0.3,0.7
					c0.3,0.1,0.6,0,0.7-0.3c0.5-1.2,0.8-2.4,0.7-3.7c0-1.2-0.3-2.5-0.8-3.6c-0.3-0.6-1.5-2.2-2-2.9C495,496.1,495,496.1,494.9,496z"
					/>
			</g>
			<g transform="matrix(0.487991,0,0,0.437246,-141.503,-117.735)">
				<path class="st1" d="M491.6,496.8c-0.3,0.3-0.3,1-0.2,1.7c0.1,0.4,0.3,0.9,0.5,1.4c0.9,2.1,2.8,4.7,3.7,5.4
					c0.2,0.2,0.5,0.1,0.7-0.2c0.1-0.3,0.1-0.6-0.2-0.8c-0.8-0.5-2.1-2.4-3-4.1c-0.4-0.7-0.6-1.4-0.8-1.9c-0.2-0.5-0.3-0.9-0.2-1.1
					c0.1-0.2,0.1-0.4-0.1-0.5C491.9,496.6,491.7,496.6,491.6,496.8z"/>
			</g>
			<g transform="matrix(0.487991,0,0,0.437246,-141.503,-117.735)">
				<path class="st1" d="M504.5,495.2c-0.3-0.2-0.5-0.4-0.8-0.6c-0.6-0.5-1.3-0.9-2.1-1.3c-0.8-0.4-1.6-0.7-2.5-0.6
					c-0.7,0.1-1.3,0.4-2,0.5c-0.2,0-0.4,0.1-0.7,0c-1.2-0.1-2.9-0.5-4,0c-0.7,0.3-1.2,0.8-1.3,1.8c-0.1,0.3,0.1,0.5,0.3,0.6
					c0.2,0.1,0.5-0.1,0.5-0.4c0.2-0.6,0.7-0.8,1.2-0.9c1-0.1,2.2,0.2,3.1,0.2c0.4,0,0.7,0,1-0.1c0.6-0.1,1.2-0.5,1.8-0.5
					c0.5,0,0.9,0.1,1.4,0.3c0.8,0.3,1.6,0.9,2.4,1.3c0.4,0.2,0.9,0.3,1.3,0.3c0.2,0.1,0.3-0.1,0.4-0.2
					C504.8,495.5,504.7,495.3,504.5,495.2z"/>
			</g>
			<g transform="matrix(0.4441,0,0,0.39775,0,0)">
				<path class="st1" d="M238.2,259.4c-0.4,0.5-0.8,0.9-1.2,1c-0.4,0.1-0.8,0-1.3-0.4c-0.2-0.1-0.4-0.1-0.6,0.1
					c-0.1,0.2-0.1,0.5,0.1,0.6c0.8,0.7,1.5,0.8,2.1,0.6c0.3-0.1,0.5-0.3,0.8-0.6c0.2-0.3,0.4-0.7,0.6-1.1c0.1-0.1,0.1-0.3-0.1-0.4
					C238.4,259.2,238.3,259.3,238.2,259.4z"/>
			</g>
			<g transform="matrix(0.4441,0,0,0.39775,0,0)">
				<path class="st1" d="M221,248.1c-0.8,1-1.6,2-2.2,3.1c-0.4,0.6-0.7,1.2-1,1.8c-0.1,0.2-0.1,0.3-0.2,0.5c-0.1,0.2,0,0.5,0.2,0.6
					c0.2,0.1,0.4,0,0.5-0.2c0.1-0.2,0.2-0.3,0.2-0.4c0.3-0.6,0.5-1.2,0.8-1.8c0.6-1.1,1.3-2.1,2-3.2c0.1-0.1,0.1-0.3,0-0.4
					C221.2,247.9,221.1,248,221,248.1z"/>
			</g>
		</g>
		<g transform="matrix(1,0,0,1,-5.99913,-0.187748)">
			<g>
				<g transform="matrix(0.4441,0,0,0.39775,0,0)">
					<path class="st0" d="M311.2,333.6c0,0,6.9,4.5,18.9,0.2c0,0,4.8-5.6,7.2-28.3c0,0-8.3-13.1-30.4-1.3
						C306.8,304.2,305.3,325.8,311.2,333.6z"/>
				</g>
				<g transform="matrix(0.4441,0,0,0.39775,0,0)">
					<path class="st1" d="M336.8,304.9c0,0.1,0,0.1,0,0.2c0,0.3,0.3,0.5,0.5,0.4c0.3,0,0.4-0.2,0.5-0.4c0.1-0.2,0.1-0.5-0.2-1
						c-0.2-0.3-0.5-0.7-0.9-1c-0.5-0.4-1-0.6-1.3-0.6c-0.3,0-0.5,0.2-0.6,0.6c0,0.3,0.2,0.6,0.5,0.6c0.1,0,0.4,0.3,0.7,0.6
						C336.4,304.5,336.6,304.7,336.8,304.9C336.8,304.9,336.8,304.9,336.8,304.9z M336.8,304.9C336.8,305,336.9,305,336.8,304.9
						C336.9,305,336.9,304.9,336.8,304.9z"/>
				</g>
				<g transform="matrix(0.407046,0.159055,-0.177589,0.364564,696.115,-448.569)">
					<path class="st1" d="M-583.1,1815.9c-0.1,0-0.2,0.2-0.2,0.3c-0.1,0.1,0,0.2,0,0.2c0,0.1,0.1,0.1,0.1,0.1c0,0,0.1,0,0.1,0.1
						c0,0.2,0.2,0,0.4,0.1c0.1,0,0.1-0.1,0.2-0.1c0.1,0,0.2-0.1,0.3-0.3c0.1-0.2,0.2-0.5,0.2-0.6c0.2-0.3,0-0.7-0.2-0.9
						c-0.3-0.2-0.7-0.1-0.8,0.2c-0.1,0.1-0.2,0.3-0.2,0.5c0,0.1,0.1,0.3,0,0.3c0,0,0.1,0.1,0.1,0.1
						C-583.3,1815.9-583.2,1816-583.1,1815.9C-583.1,1815.9-583.1,1815.9-583.1,1815.9z M-582.8,1816c0.1,0.1,0.1,0.2,0.2,0.3
						c0,0,0,0,0,0c-0.1,0,0-0.1,0-0.1C-582.7,1816.1-582.7,1816-582.8,1816L-582.8,1816z M-582.9,1815.9
						C-583,1815.9-583,1815.9-582.9,1815.9c-0.1,0-0.1,0-0.2,0l0,0C-583,1815.8-583,1815.9-582.9,1815.9z"/>
				</g>
				<g transform="matrix(0.4441,0,0,0.39775,0,0)">
					<path class="st1" d="M319,300.2c-0.1-0.1-0.2-0.2-0.4-0.3c-0.2-0.1-0.5,0-0.7,0c-0.7,0-1.4,0-2.1,0.1c-0.5,0.1-1,0.2-1.5,0.4
						c-0.2,0.1-0.3,0.4-0.2,0.7c0.1,0.3,0.4,0.4,0.6,0.2c0.4-0.2,0.8-0.4,1.2-0.4c0.7-0.1,1.4-0.2,2-0.2l0.6,0
						c0.1,0.2,0.3,0.2,0.4,0C319.1,300.6,319.1,300.4,319,300.2z"/>
				</g>
				<g transform="matrix(0.465861,-0.0055129,0.00586729,0.397715,-94.8508,19.6804)">
					<path class="st1" d="M495.3,261.8c0-0.2-0.1-0.3-0.2-0.4c-0.2-0.1-0.3,0-0.4,0.2c-0.1,0.2,0,0.4,0.1,0.6c0.2,0.3,0.8,0.5,1,0.6
						c0.7,0.3,1.4,0.7,2.1,1c0.7,0.3,1.4,0.6,2.2,0.9c1.2,0.5,2.5,0.9,3.8,1.3c0.9,0.2,1.8,0.4,2.7,0.4c2.1,0,4.2-0.3,6.3-0.8
						c2.1-0.5,4.1-1.3,6-2.1c0.3-0.1,0.4-0.5,0.3-0.8c-0.1-0.3-0.4-0.5-0.7-0.4c-1.9,0.7-3.9,1.4-5.9,1.9c-2,0.5-4,0.8-6.1,0.9
						c-0.8,0-1.6-0.1-2.5-0.3c-1.3-0.3-2.6-0.7-3.7-1.1l-4.3-1.7C495.9,262,495.4,261.8,495.3,261.8z"/>
				</g>
				<g transform="matrix(0.4441,0,0,0.39775,0,0)">
					<path class="st1" d="M306.9,305.8C306.9,305.8,306.9,305.8,306.9,305.8c0.2-0.2,0.2-0.4,0.1-0.6c-0.1-0.3-0.4-0.3-0.5-0.3
						c-0.2,0-0.5,0.3-0.7,1c-0.4,1.9-0.1,7.5-0.1,8.2c0.3,3.8,0.7,7.8,1.6,11.5c0.6,2.6,1.5,5,2.5,7.3c0.2,0.4,0.7,0.6,1.1,0.4
						c0.4-0.2,0.6-0.8,0.4-1.2c-1.2-2.8-2.1-5.8-2.7-8.9c-0.6-3.1-1.1-6.3-1.4-9.3c-0.1-0.7-0.3-6-0.3-7.9
						C307,306,306.9,305.9,306.9,305.8z M306.9,305.7C306.9,305.7,307,305.7,306.9,305.7C306.9,305.7,306.9,305.7,306.9,305.7z"/>
				</g>
				<g transform="matrix(0.4441,0,0,0.414813,0,-54.562)">
					<path class="st1" d="M336.8,423.9c0,0,0,0.1,0,0.2h0L336.8,423.9L336.8,423.9L336.8,423.9c-1.6-0.3-0.9-0.1,0,0.2v0
						c0,0.1-0.1,0.2-0.1,0.3c-0.1,0.4-0.2,0.9-0.3,1.6c-0.4,2.1-0.8,5.2-1.1,6.4c-0.7,3.6-1.3,8.1-2.6,12.1c-0.8,2.6-1.9,5-3.7,6.7
						c-0.4,0.3-0.4,0.9-0.1,1.3c0.3,0.4,0.8,0.4,1.2,0.1c2.1-1.8,3.6-4.4,4.6-7.3c1.3-4.1,1.7-8.7,2.3-12.5c0.2-1.2,0.6-4.4,0.8-6.6
						c0.1-0.7,0.1-1.3,0.1-1.7l0-0.2l-0.2,0c0-0.2,0.1-0.3,0.1-0.2l0,0l0,0.2l0,0.1c0.8,0.2,1.2,0.2,0-0.3c0-0.1,0-0.2,0-0.2
						C337.8,423.4,336.9,422.7,336.8,423.9L336.8,423.9z"/>
				</g>
				<g transform="matrix(0.4441,0,0,0.39775,0,0)">
					<path class="st1" d="M312.7,334.1c-0.1-0.1-0.2-0.2-0.4-0.1c-0.2,0.1-0.3,0.3-0.3,0.5c0,0.2,0.4,0.5,0.9,0.7
						c1,0.4,2.8,0.8,3,0.9c1.9,0.4,3.9,0.8,5.9,0.9c1.3,0,2.7-0.1,4-0.5c0.8-0.2,1.8-0.5,2.6-1c0.6-0.4,1.1-0.9,1.5-1.5
						c0.2-0.3,0.1-0.7-0.1-0.9c-0.3-0.2-0.6-0.2-0.8,0.1c-0.3,0.4-0.8,0.6-1.2,0.8c-0.8,0.4-1.6,0.7-2.3,0.9
						c-1.2,0.4-2.4,0.5-3.7,0.6c-1.9,0.1-3.8-0.2-5.7-0.5c-0.2,0-2.5-0.3-3.4-0.6L312.7,334.1z"/>
				</g>
			</g>
			<g>
				<g transform="matrix(0.4441,0,0,0.39775,0,0)">
					<path class="st0" d="M325.1,304.3c-0.9,0.8-7.7-14.6-1.6-15.4c0,0-1.3-10.2,6.9-6.6c0,0-2.5-9.9,3.4-9.5
						c3.1,0.3,2.2,4.4,2.3,4.4c0,0,2.5-6.5,4.5-5.2c2.1,1.3,0,5,0,5s4.5-3.4,6.9-1.3c2.4,2.2-5.8,8.8-7,9.4c0,0,6.1-1.3,4.8,4.9
						c-1.2,5.3-9,5.8-8.9,6.3c0,0,6.7,2.7-0.9,5.9C331.3,304.1,326.9,300.1,325.1,304.3z"/>
				</g>
				<g transform="matrix(0.4441,0,0,0.39775,0,0)">
					<path class="st1" d="M325.3,306.6c-0.3-0.4-0.3-1-0.2-1.7c0.3-1.6,1.2-3.6,1.3-4.5c0.7-4,2.3-8,4.5-11.6c1.3-2.1,2.8-4.1,4.3-6
						c1.1-1.3,2.1-2.5,3.3-3.6c0.1-0.1,0.2-0.4,0.1-0.5c-0.1-0.2-0.3-0.2-0.5-0.1c-1.2,1-2.4,2.1-3.6,3.4c-1.6,1.8-3.1,3.9-4.3,6.2
						c-2.2,3.8-3.7,7.9-4.3,12.1c-0.1,0.9-1,2.9-1.2,4.6c-0.1,0.9-0.1,1.7,0.3,2.2c0.1,0.1,0.2,0.1,0.4,0
						C325.4,306.9,325.4,306.7,325.3,306.6z"/>
				</g>
				<g transform="matrix(0.4441,0,0,0.39775,0,0)">
					<path class="st1" d="M327.7,297.4C327.8,297.4,327.7,297.4,327.7,297.4c0-0.2,0.1-0.3,0.2-0.4c0.7-1.2,2.6-3.7,3.4-5.1
						c0.6-1,1.2-1.9,1.9-2.7c0.7-0.8,1.5-1.5,2.4-2c1.4-0.8,3.7-1.8,5.6-1.8c1.2,0,2.4,0.5,3,1.8c0.8,1.6,0.3,3.2-0.7,4.4
						c-1.6,2-4.5,3.5-6.1,3.7c-1.4,0.2-2.7,0.5-4,0.8c-1.3,0.3-2.6,0.7-4,1.2c-0.2,0.1-0.4,0.4-0.3,0.6c0.1,0.3,0.3,0.4,0.6,0.4
						c1.6-0.5,3.2-0.9,4.7-1.2c1-0.2,2.1-0.4,3.2-0.6c1.7-0.3,5-1.9,6.8-4.1c1.3-1.6,1.8-3.6,0.7-5.7c-0.9-1.6-2.3-2.2-3.9-2.2
						c-2.1,0-4.5,1.1-6,2c-1,0.6-1.9,1.4-2.6,2.2c-0.7,0.9-1.3,1.8-1.9,2.9c-0.8,1.4-2.6,3.9-3.3,5.1c-0.1,0.3-0.2,0.5-0.2,0.6
						c0,0.2,0,0.3,0.1,0.4c0.1,0.1,0.3,0.1,0.3,0C327.7,297.6,327.8,297.5,327.7,297.4z M327.7,297.3
						C327.7,297.3,327.7,297.3,327.7,297.3c0,0.1,0,0.1,0,0.1c0,0,0,0,0,0C327.7,297.4,327.7,297.3,327.7,297.3L327.7,297.3
						L327.7,297.3L327.7,297.3z"/>
				</g>
				<g transform="matrix(0.4441,0,0,0.39775,0,0)">
					<path class="st1" d="M327.4,301.3c-0.3-0.4-0.2-0.8,0-1.1c0.4-0.6,1.2-1.1,1.7-1.4c1.2-0.8,3.9-1.7,6.2-1.7
						c1.4,0,2.7,0.5,3.2,1.8c0.1,0.4-0.1,0.8-0.4,1.1c-0.6,0.7-1.5,1.2-2,1.4c-1.2,0.5-2.7,0.6-4.2,0.6c-1.6,0-3.2-0.1-4.6,0.2
						c-0.5,0.1-1,0.2-1.4,0.5c-0.3,0.2-0.6,0.4-0.8,0.7c-0.1,0.1-0.2,0.3,0,0.5c0.1,0.2,0.3,0.2,0.4,0.1c0.2-0.2,0.5-0.2,0.8-0.3
						c0.4-0.1,0.8-0.3,1.2-0.3c1.3-0.2,2.9-0.1,4.4,0c1.7,0,3.3,0,4.7-0.6c0.7-0.3,2.1-1.2,2.7-2.2c0.4-0.6,0.5-1.3,0.2-1.9
						c-0.7-1.8-2.3-2.5-4.2-2.5c-2.4,0-5.3,1.2-6.5,2.1c-0.7,0.5-1.7,1.3-2,2.1c-0.2,0.5-0.1,1,0.3,1.4c0.1,0.1,0.3,0.1,0.4,0
						C327.5,301.5,327.5,301.4,327.4,301.3z"/>
				</g>
				<g transform="matrix(0.4441,0,0,0.39775,0,0)">
					<path class="st1" d="M326.4,301.3c-0.1-0.5-0.1-0.9-0.1-1.4c0-1.9,0.5-3.9,0.2-5.9c-0.1-0.7-0.3-1.9-0.7-3
						c-0.3-0.7-0.6-1.4-1.1-1.8c-0.8-0.6-1.7-0.5-2.5,0.1c-0.7,0.6-1.3,1.5-1.4,2.4c-0.1,2.1,0.2,5.3,1.1,8c0.3,1.1,0.8,2.1,1.3,3
						c0.4,0.7,0.8,1.2,1.3,1.7c0.2,0.2,0.4,0.1,0.5,0c0.1-0.2,0.1-0.4,0-0.6c-0.4-0.4-0.7-0.9-1-1.5c-0.6-1.2-1.2-2.6-1.6-4.1
						c-0.6-2.3-0.9-4.7-0.8-6.4c0-0.7,0.4-1.4,1-1.8c0.5-0.4,1.2-0.6,1.8-0.2c0.4,0.3,0.7,0.9,0.9,1.5c0.4,1,0.6,2.2,0.7,2.9
						c0.4,1.9-0.1,3.9-0.1,5.8c0,0.5,0.1,1,0.2,1.5c0,0.1,0.2,0.2,0.3,0.2C326.3,301.6,326.4,301.5,326.4,301.3z"/>
				</g>
				<g transform="matrix(0.4441,0,0,0.39775,0,0)">
					<path class="st1" d="M327.2,294.5c0-0.2,0-0.3,0.1-0.5c0-0.3,0.1-0.7,0.3-1.1c0.7-1.8,2.5-3.9,3.4-6c0.3-0.8,0.6-1.6,0.6-2.3
						c0-2.5-1.8-3.7-3.8-3.7c-1.9,0-3.8,1.1-4.3,3.2c-0.2,0.9-0.5,1.8-0.6,2.7c-0.1,0.7,0,1.3,0.2,2c0.2,0.7,0.6,1.4,1.1,2
						c0.6,0.9,1.4,1.7,2,2.4c0.2,0.2,0.4,0.2,0.6,0c0.2-0.2,0.2-0.5,0-0.7c-0.6-0.7-1.4-1.5-2-2.3c-0.4-0.5-0.8-1.1-0.9-1.7
						c-0.2-0.5-0.2-1.1-0.1-1.6c0.1-0.9,0.4-1.8,0.6-2.6c0.4-1.7,2-2.6,3.6-2.6c1.5,0,3,0.9,3,2.9c0,2.4-2.6,5.2-3.6,7.6
						c-0.3,0.7-0.5,1.3-0.5,1.9c0,0.2,0.1,0.3,0.1,0.5c0,0.2,0.2,0.2,0.3,0.2C327.1,294.8,327.2,294.7,327.2,294.5z"/>
				</g>
				<g transform="matrix(0.4441,0,0,0.39775,0,0)">
					<path class="st1" d="M331.2,291.5c0.1,0,0.2,0,0.3-0.2h0.1c0.3-0.4,0.7-0.9,1.3-1.4c0.9-0.9,2.1-1.9,3.5-2.8
						c1.7-1.1,3.8-2,5.7-2c1.2,0,2-0.4,2.7-0.8c0.8-0.5,1.3-1.3,2-2.1c1.4-1.7,2.2-4.4,1.5-6c-0.5-1.1-1.6-1.9-3.6-1.4
						c-1.9,0.4-3.8,1.6-5.6,3.2c-2.5,2.2-4.8,5.1-6.4,7.5c-0.2,0.3-1.7,2.4-2.1,4c-0.3,1-0.1,1.8,0.7,1.9V291.5z M331.1,290.7
						c-0.3-0.3-0.1-1,0.2-1.7c0.6-1.4,1.7-2.9,1.9-3.2c1.7-2.3,3.9-5.1,6.4-7.2c1.7-1.4,3.5-2.5,5.3-2.9c1.4-0.3,2.2,0.1,2.6,0.8
						c0.5,1.3-0.2,3.4-1.4,4.8c-0.6,0.7-1.1,1.4-1.8,1.9c-0.6,0.4-1.2,0.6-2.2,0.7c-2.1,0.1-4.3,1-6.2,2.2c-1.4,0.9-2.7,2-3.6,3
						C331.7,289.7,331.3,290.2,331.1,290.7L331.1,290.7z"/>
				</g>
				<g transform="matrix(0.4441,0,0,0.39775,0,0)">
					<path class="st1" d="M331.9,286.4c0.3-0.6,0.7-1.2,1.1-1.8c0.4-0.6,0.8-1.2,1.2-1.8c0.3-0.6,0.6-1.2,0.7-1.9
						c0.3-1.2,0.9-3.1,1-4.7c0.1-0.8,0-1.6-0.2-2.2c-0.7-1.6-1.8-2.1-2.9-1.8c-1.5,0.4-3,2.1-3.3,3.9c-0.2,1-0.1,2.4,0.2,3.8
						c0.4,1.9,1.1,4,1.7,5.2c0.1,0.2,0.3,0.2,0.4,0.1c0.2-0.1,0.2-0.3,0.1-0.5c-0.6-1.2-1.2-3.2-1.5-5.1c-0.2-1.3-0.3-2.5-0.1-3.4
						c0.3-1.2,1.1-2.4,2.1-3c1-0.5,2.1-0.4,2.7,1c0.3,0.7,0.2,1.5,0.1,2.4c-0.2,1.4-0.7,2.9-0.9,3.9c-0.1,0.6-0.4,1.1-0.6,1.6
						c-0.7,1.3-1.7,2.5-2.2,3.8c-0.1,0.1,0,0.3,0.1,0.4C331.7,286.6,331.8,286.6,331.9,286.4z"/>
				</g>
				<g transform="matrix(0.4441,0,0,0.39775,0,0)">
					<path class="st1" d="M335.1,281.4c0,0,0-0.1,0-0.2c0-0.2,0.1-0.4,0.1-0.6c0.2-0.6,0.5-1.4,0.6-1.6c0.5-1.4,1-2.7,1.6-3.8
						c0.4-0.7,0.9-1.4,1.6-2.1c0.9-0.9,1.6-1.1,1.9-0.5c0.3,0.6,0.2,1.5-0.3,2.7c-0.2,0.4-0.2,0.6-0.4,0.8c-0.1,0.2-0.2,0.4-0.5,0.8
						c-0.3,0.5-0.7,1-1.1,1.4c-0.6,0.7-1.3,1.3-2,1.9c-0.1,0.1-0.2,0.4-0.1,0.5c0.1,0.2,0.3,0.2,0.5,0.1c0.7-0.6,1.4-1.2,2.1-1.8
						c0.5-0.5,0.9-0.9,1.2-1.5c0.3-0.4,0.4-0.6,0.5-0.8c0.1-0.2,0.2-0.4,0.4-0.9c0.7-1.6,0.7-2.9,0.3-3.7c-0.5-1-1.7-1.2-3.2,0.3
						c-0.7,0.7-1.3,1.5-1.7,2.3c-0.7,1.2-1.1,2.5-1.6,4c-0.1,0.3-0.5,1.3-0.6,2c-0.1,0.5,0,1,0.2,1.1c0.1,0.1,0.3,0.1,0.3-0.1
						C335.2,281.7,335.2,281.5,335.1,281.4z"/>
				</g>
			</g>
			<g transform="matrix(0.999067,-0.0386799,0.0482199,0.999067,-61.0133,63.1489)">
				<g transform="matrix(0.443685,0.0171778,-0.0191795,0.397379,64.0014,-60.73)">
					<path class="st0" d="M322.5,302.1c0,0,2.8,2.5,8-3.3c5.1-5.8,3.8-7.9-0.2-7.1c0,0,1.2-5.9,1.1-6.7c0,0-4.3,0-5.2,2.2
						c0,0,4.1-7.4,4-13.2c0,0-4.3-0.2-6.1,3c0,0,3.2-7.2,2.7-10.3c0,0-3.1-0.1-4.1,3.6c0,0-0.4-9.6,0.5-11.2c0,0-1.3-0.5-2.5-0.3
						c-1.2,0.2-2.4,1.2-2.5,1.3c-0.2,0.2,1.6-10.2,3.8-11.2c0,0-3.5-1-4.7,4c0,0-0.2-9.2-0.8-10.7c0,0-5.9,1.9-3,15.9l-2.7-3.3
						c0,0,2.1-5,0.9-9.1c-1.2-4.1-2.5-6.4-2.1-7.1c0,0-1.9,7-2.4,8.7c0,0-2.4-16.2-5.4-14.1c-3,2.1-0.9,6.6-1.9,6.3
						c-0.9-0.3-2.2-6.6-5-8.6c0,0-4.7,2.9,4.5,10.3c9.1,7.4,2.5,4.4,2.5,4.4s-8.6-8.1-10.6-2.8c0,0,2.3,4.3,7.1,3.9
						c0,0-2,3.8,4.3,7.2c0,0-3.9,0.8-3.2,3.2c0,0,8.4,2.8,11.3,3.3c0,0-4,0.2-4.4,2c0,0,2.2,4.1,5.5,6.5c0,0-2.5,0-2.6,0.7
						c0,0,2.1,3.8,3.7,5.1c0,0-3.9-0.1-3.8,1.7c0,0,4,5.6,6,6.8c0,0-2.1-0.3-2.5,0.5l2.7,6.2c0,0-2.5-0.8-2.1,3.5
						c0.4,4.3,6.7,7.8,8.6,7.6C322.7,300.9,322.5,302.1,322.5,302.1z"/>
				</g>
				<g transform="matrix(0.4441,0,0,0.39775,0,0)">
					<path class="st1" d="M452.2,168c2-3.4,2.1-11,1.1-19.3c-1.3-11.2-4.4-23.5-6.3-28.2c-1.1-2.6-2.4-4.8-3.9-7
						c-1.7-2.5-3.7-4.8-5.6-7.2c-1.9-2.3-3.7-4.6-5.2-7.3c-0.2-0.3-0.5-0.4-0.7-0.2c-0.3,0.2-0.3,0.6-0.2,0.8
						c1.5,2.7,3.3,5.2,5.1,7.6c1.8,2.4,3.7,4.7,5.5,7.1c1.4,2.1,2.7,4.2,3.8,6.7c2,4.5,5.1,16.7,6.5,27.7c1.1,8,1.3,15.3-0.6,18.7
						c-0.1,0.2-0.1,0.4,0.1,0.5C451.9,168.2,452.1,168.2,452.2,168z"/>
				</g>
				<g transform="matrix(0.4441,0,0,0.39775,0,0)">
					<path class="st1" d="M454.4,163.4c-0.7-0.4-0.8-1.1-0.7-1.9c0.2-1.2,1.1-2.5,1.8-3.3c1.3-1.3,3.6-3.3,5.9-4.2
						c0.7-0.3,1.4-0.4,2.1-0.5c0.7,0,1.3,0,1.9,0.4c0.3,0.2,0.7,0.1,0.9-0.2c0.2-0.3,0.1-0.7-0.2-0.9c-0.8-0.7-1.7-1-2.6-1
						c-0.8,0-1.7,0.3-2.6,0.7c-2.4,1.1-4.8,3.3-6.1,4.8c-0.8,0.9-1.7,2.5-1.9,4c-0.2,1.2,0.1,2.3,1.2,2.8c0.2,0.1,0.4,0,0.5-0.2
						C454.6,163.7,454.5,163.5,454.4,163.4z"/>
				</g>
				<g transform="matrix(0.4441,0,0,0.39775,0,0)">
					<path class="st1" d="M465.5,153.6c0.1,0,0.1,0.2,0,0.3c-0.1,0.3-0.3,0.7-0.6,1.1c-0.8,1.1-1.9,2.3-2.2,2.6
						c-0.7,1-3.4,3.5-5.8,4.8c-0.8,0.4-1.5,0.7-2.1,0.8c-0.7,0.1-1.2-0.1-1.6-0.8c-0.1-0.3-0.5-0.4-0.7-0.2
						c-0.3,0.2-0.4,0.5-0.2,0.8c0.7,1.6,2.3,1.9,4,1.3c2.9-1,6.5-4.6,7.4-5.9c0.3-0.5,2.1-2.7,2.5-4c0.2-0.8,0.1-1.3-0.5-1.5
						c-0.2-0.1-0.4,0.1-0.4,0.3C465.3,153.3,465.4,153.5,465.5,153.6z"/>
				</g>
				<g transform="matrix(0.4441,0,0,0.39775,0,0)">
					<path class="st1" d="M453.2,161.6C453.2,161.6,453.2,161.5,453.2,161.6c-0.6-1.1-1.2-4.6-1.6-5.6c-1-2.1-2.2-3.8-3.6-4.6
						c-1.3-0.8-2.9-1-4.6-0.1c-0.3,0.2-0.6,0.4-1,0.7c-0.3,0.2-0.4,0.6-0.2,0.9c0.2,0.3,0.5,0.4,0.8,0.3c0.3-0.1,0.6-0.2,0.9-0.3
						c1.3-0.5,2.4-0.5,3.4,0c1.2,0.7,2.2,2,3.1,3.8c0.5,0.9,1.4,4.3,2,5.3c0.4,0.6,0.8,0.6,1,0.2c0.1-0.2,0.1-0.4-0.1-0.5
						C453.4,161.6,453.3,161.5,453.2,161.6z M453.2,161.6C453.2,161.7,453.2,161.7,453.2,161.6C453.3,161.6,453.2,161.6,453.2,161.6
						z"/>
				</g>
				<g transform="matrix(0.4441,0,0,0.39775,0,0)">
					<path class="st1" d="M443.9,151.6c-0.6,0.2-0.7,0.9-0.6,1.8c0.2,1.2,1,2.7,1.3,3.2c0.7,1.6,2,3.1,3.5,4.3
						c0.7,0.5,1.5,1,2.4,1.3c0.9,0.3,1.8,0.4,2.7,0.4c0.3,0,0.6-0.3,0.5-0.7c0-0.4-0.3-0.6-0.6-0.6c-0.7,0-1.5-0.2-2.2-0.4
						c-0.7-0.3-1.5-0.6-2.1-1c-1.4-0.9-2.6-2.2-3.3-3.6c-0.2-0.4-0.9-1.5-1.2-2.6c-0.2-0.6-0.4-1.1,0-1.3c0.2-0.1,0.3-0.3,0.2-0.5
						C444.3,151.6,444.1,151.6,443.9,151.6z"/>
				</g>
				<g transform="matrix(0.4441,0,0,0.39775,0,0)">
					<path class="st1" d="M453.9,159.2c-0.1,0-0.1-0.1-0.1-0.3c-0.1-0.4,0-0.9,0.1-1.5c0.3-1.4,0.8-3,0.9-3.3
						c0.6-2.2,1.8-3.9,3.3-5.2c0.6-0.5,1.3-1,2-1.4c1-0.6,2.1-1.1,3.3-1.4c0.2,0,0.4-0.3,0.3-0.5c0-0.2-0.3-0.4-0.5-0.4
						c-1.3,0.2-2.5,0.5-3.7,1.1c-0.8,0.4-1.5,0.9-2.2,1.5c-1.6,1.5-2.9,3.5-3.5,6c-0.1,0.4-0.9,3.1-0.8,4.6c0,0.7,0.2,1.2,0.6,1.4
						c0.2,0.1,0.4,0,0.4-0.2C454.2,159.5,454.1,159.3,453.9,159.2z"/>
				</g>
				<g transform="matrix(0.4441,0,0,0.39775,0,0)">
					<path class="st1" d="M462.4,146.2c0.4,1.1,0.2,2.2-0.7,3.7c-0.5,0.9-1.3,1.8-2.4,2.9c-1.1,1.1-2.4,2.4-4.2,3.9
						c-0.2,0.2-0.3,0.6-0.1,0.9c0.2,0.3,0.5,0.3,0.8,0.1c1.8-1.5,3.3-2.8,4.4-3.9c1.1-1.2,1.9-2.3,2.4-3.3c1-1.9,1-3.3,0.4-4.6
						c-0.1-0.2-0.3-0.3-0.5-0.2C462.4,145.8,462.3,146,462.4,146.2z"/>
				</g>
				<g transform="matrix(0.4441,0,0,0.39775,0,0)">
					<path class="st1" d="M453.6,156.5c0.2-0.4,0.3-0.8,0.3-1.4c0-0.6-0.1-1.2-0.3-2c-0.5-2.1-1.7-4.7-3.1-6.6
						c-0.9-1.3-1.9-2.4-3-2.9c-1-0.5-2-0.5-2.8,0.1c-0.2,0.1-0.3,0.4-0.1,0.6c0.1,0.2,0.3,0.3,0.5,0.2c0.6-0.3,1.3-0.2,2,0.2
						c0.9,0.5,1.8,1.5,2.6,2.6c1.6,2.2,2.8,5.1,3.2,7.2c0.2,0.8,0.3,1.4,0.1,1.8c-0.1,0.2,0,0.4,0.2,0.5
						C453.3,156.8,453.5,156.7,453.6,156.5z"/>
				</g>
				<g transform="matrix(0.4441,0,0,0.39775,0,0)">
					<path class="st1" d="M443.8,144.1c-0.1,0.1,0.1,0.5,0.1,0.6l0.6,1.6l1.4,3.7c0.9,2.5,1.9,4.7,3.4,6.5c0.4,0.5,0.9,0.9,1.4,1.3
						c0.7,0.5,1.6,0.9,2.6,1.2c0.3,0.1,0.5-0.1,0.6-0.4c0.1-0.3-0.1-0.6-0.3-0.7c-0.9-0.3-1.6-0.8-2.3-1.3c-0.7-0.5-1.4-1.2-1.9-1.9
						c-1.1-1.4-1.9-3.2-2.7-5.1l-1.5-3.6l-0.6-1.5c0-0.1,0-0.5,0-0.5c-0.1-0.2-0.2-0.2-0.3-0.2c-0.1,0-0.2,0-0.4,0.2
						C443.8,143.9,443.8,144,443.8,144.1z M444.1,144.4c0.1,0,0.2,0,0.3-0.2C444.3,144.4,444.2,144.4,444.1,144.4z"/>
				</g>
				<g transform="matrix(0.4441,0,0,0.39775,0,0)">
					<path class="st1" d="M453.4,150.6c-0.2-0.2-0.3-0.6-0.3-1c-0.1-1.1,0.1-2.6,0-3.3c-0.4-2-0.1-3.5,0.7-4.8
						c0.8-1.3,2-2.3,3.5-3.4c0.9-0.6,1.8-1.4,2.8-1.8c0.6-0.2,1.1-0.4,1.7,0c0.3,0.2,0.6,0.1,0.7-0.2c0.2-0.3,0.1-0.7-0.2-0.8
						c-0.9-0.7-1.8-0.7-2.7-0.5c-1.1,0.4-2.2,1.4-3.1,2.1c-1.6,1.2-2.9,2.5-3.7,4c-0.8,1.6-1.2,3.4-0.6,5.7c0.2,0.8-0.1,2.6,0.1,3.7
						c0.1,0.5,0.3,0.8,0.5,1c0.2,0.1,0.4,0.1,0.5-0.1C453.5,151,453.5,150.7,453.4,150.6z"/>
				</g>
				<g transform="matrix(0.4441,0,0,0.39775,0,0)">
					<path class="st1" d="M461.4,136.9c-0.2,1.6-0.6,3.3-1.2,4.9c-0.9,2.4-2.2,4.7-3.4,6.7c-0.2,0.4-0.7,1.4-1.2,2.2
						c-0.3,0.4-0.5,0.8-0.8,0.9c-0.3,0.1-0.6,0.4-0.5,0.8c0.1,0.4,0.4,0.6,0.7,0.5c0.4-0.1,0.9-0.4,1.3-1c0.7-0.9,1.2-2.2,1.5-2.7
						c1.1-2.2,2.3-4.6,3.2-7.1c0.6-1.7,1-3.4,1.1-5.2c0-0.2-0.1-0.4-0.3-0.4C461.6,136.5,461.4,136.7,461.4,136.9z"/>
				</g>
				<g transform="matrix(0.4441,0,0,0.39775,0,0)">
					<path class="st1" d="M453.5,150.8c0.2-0.3,0.2-0.9,0.1-1.7c-0.2-1.3-0.6-2.9-0.7-3.3c-0.6-2.7-3.1-7.3-5.8-9.6
						c-1.6-1.3-3.4-1.9-4.9-1c-0.6,0.3-1.1,0.9-1.7,1.7c-0.1,0.2-0.1,0.4,0.1,0.5c0.2,0.1,0.4,0.1,0.5-0.1c0.5-0.6,1-1,1.5-1.3
						c1.3-0.7,2.7-0.2,4,0.9c2.7,2.2,5,6.5,5.6,9.1c0.1,0.3,0.4,1.6,0.7,2.7c0.1,0.7,0.2,1.3,0.1,1.6c-0.1,0.2-0.1,0.4,0.1,0.5
						C453.2,151,453.4,151,453.5,150.8z"/>
				</g>
				<g transform="matrix(0.4441,0,0,0.39775,0,0)">
					<path class="st1" d="M441.3,137.2C441.3,137.2,441.4,137.2,441.3,137.2L441.3,137.2L441.3,137.2L441.3,137.2L441.3,137.2
						L441.3,137.2C441.3,137.2,441.3,137.2,441.3,137.2C441.3,137.2,441.3,137.2,441.3,137.2L441.3,137.2
						C441.3,137.2,441.3,137.2,441.3,137.2L441.3,137.2c0.1-0.2,0.1-0.4,0-0.5c-0.1-0.2-0.3-0.2-0.5-0.1c-0.2,0.2-0.3,0.5-0.2,0.9
						c0.2,0.7,1,1.9,1,2c0.9,1,1.7,1.9,2.7,2.7c0.7,0.5,1.4,1,2.2,1.3c0.3,0.1,0.6,0,0.7-0.3c0.1-0.3,0-0.6-0.3-0.8
						c-0.7-0.3-1.3-0.7-1.9-1.2c-0.9-0.7-1.7-1.6-2.5-2.5c-0.1-0.1-0.5-0.5-0.8-1C441.6,137.6,441.3,137.3,441.3,137.2z"/>
				</g>
				<g transform="matrix(0.4441,0,0,0.39775,0,0)">
					<path class="st1" d="M452.7,141.8c-0.1,0-0.1-0.1-0.2-0.2c-0.1-0.2-0.1-0.4-0.1-0.7c0-0.9,0.1-1.9,0.2-2.3
						c0.2-1.4,1.6-4.7,3.1-7.1c0.7-1.1,1.4-2,2.2-2.5c0.2-0.1,0.4-0.2,0.6-0.3c0.2,0,0.3-0.2,0.4-0.2c0.2,0.1,0.4-0.1,0.5-0.3
						c0.1-0.2-0.1-0.5-0.3-0.6c-0.3-0.2-0.6-0.3-0.9-0.3c-0.9,0-1.9,0.9-2.8,2c-0.7,0.9-1.4,2.1-2,3.4c-1,2.2-1.7,4.5-1.8,5.6
						c0,0.5-0.2,2.1,0,3c0.2,0.8,0.6,1.2,1.2,1c0.2,0,0.3-0.3,0.3-0.5C453.1,141.9,452.9,141.8,452.7,141.8z"/>
				</g>
				<g transform="matrix(0.4441,0,0,0.39775,0,0)">
					<path class="st1" d="M458.4,129.4c0.1,0.2,0,0.5-0.1,0.9c-0.1,0.7-0.4,1.4-0.5,1.7c-0.3,1.1-1.5,3.8-2.7,5.9
						c-0.8,1.5-1.6,2.8-2.3,3.1c-0.3,0.1-0.4,0.4-0.3,0.7c0.1,0.3,0.4,0.5,0.6,0.4c0.9-0.3,2.1-1.7,3-3.5c1.2-2.3,2.1-5.2,2.4-6.4
						c0.1-0.4,0.4-1.3,0.5-2.1c0.1-0.5,0.1-0.9-0.1-1.2c-0.1-0.2-0.3-0.2-0.5-0.1C458.3,129,458.3,129.3,458.4,129.4z"/>
				</g>
				<g transform="matrix(0.4441,0,0,0.39775,0,0)">
					<path class="st1" d="M451.7,139.9c-0.2-0.2-0.4-0.6-0.6-0.9c-0.4-0.9-0.5-1.9-0.9-2.7c-0.8-1.6-2.3-3.9-4.1-5.4
						c-1.3-1.1-2.7-1.8-4.1-1.5c-0.2,0-0.3,0.3-0.3,0.5c0,0.2,0.2,0.4,0.4,0.3c1.2-0.3,2.4,0.4,3.5,1.3c1.7,1.4,3.1,3.6,3.9,5.1
						c0.4,0.8,0.6,1.8,0.9,2.7c0.2,0.4,0.4,0.8,0.7,1.1c0.1,0.1,0.4,0.1,0.5,0C451.8,140.3,451.8,140.1,451.7,139.9z"/>
				</g>
				<g transform="matrix(0.4441,0,0,0.39775,0,0)">
					<path class="st1" d="M441.9,131.8c1.5,1.9,3,4.2,4.7,6.2c0.7,0.9,1.5,1.7,2.3,2.4c0.2,0.1,0.4,0.1,0.5-0.1
						c0.1-0.2,0.1-0.4-0.1-0.5c-0.8-0.6-1.5-1.4-2.2-2.3c-1.6-2-3.2-4.3-4.7-6.2c-0.1-0.2-0.3-0.2-0.5,0
						C441.8,131.4,441.8,131.7,441.9,131.8z"/>
				</g>
				<g transform="matrix(0.4441,0,0,0.39775,0,0)">
					<path class="st1" d="M452.4,137.5c-0.8-0.2-1.2-0.8-1.5-1.5c-0.4-1.2-0.4-2.7-0.6-4c-0.4-2.7-0.6-7.1,0.7-9.7
						c0.6-1.2,1.5-1.9,3-2c0.5,0,1.1-0.1,1.7,0.1c0.2,0.1,0.4-0.1,0.4-0.3c0.1-0.2-0.1-0.4-0.2-0.5c-0.7-0.3-1.3-0.5-1.9-0.6
						c-2-0.2-3.3,1-4.1,2.6c-1.4,2.8-1,7.6-0.6,10.5c0.2,1.3,0.3,2.9,0.8,4.1c0.4,1,1,1.7,2.1,1.9c0.2,0,0.4-0.1,0.4-0.3
						C452.7,137.7,452.6,137.5,452.4,137.5z"/>
				</g>
				<g transform="matrix(0.4441,0,0,0.39775,0,0)">
					<path class="st1" d="M455.2,121.6c-0.2,0.6-0.3,1.3-0.4,2c-0.1,1.5,0,3-0.3,4.4c-0.2,0.9-0.4,1.7-0.6,2.6c-0.3,1-0.6,2-0.9,3
						c-0.3,1-0.5,2-0.8,3.1c-0.1,0.3,0.1,0.6,0.3,0.7c0.3,0.1,0.5-0.1,0.6-0.4c0.5-1.8,1-3.4,1.5-5.2c0.3-1.2,0.6-2.4,0.8-3.6
						c0.2-1.5,0.1-3.1,0.1-4.6c0-0.6,0.1-1.2,0.3-1.8c0.1-0.2,0-0.4-0.2-0.5C455.5,121.3,455.3,121.4,455.2,121.6z"/>
				</g>
				<g transform="matrix(0.4441,0,0,0.39775,0,0)">
					<path class="st1" d="M450.3,136c0.2-0.8,0.2-1.8,0-2.9c-0.2-1.4-0.6-2.9-0.9-4c-0.9-3.8-2.2-7-4.3-8.2
						c-1.5-0.8-3.3-0.8-5.7,0.7c-0.2,0.1-0.2,0.4-0.1,0.6c0.1,0.2,0.3,0.3,0.5,0.2c2.1-1.3,3.8-1.4,5.1-0.7c2,1.1,3.2,4.2,4,7.7
						c0.3,1.1,0.7,2.5,0.9,3.9c0.1,0.9,0.2,1.8,0,2.5c0,0.2,0.1,0.4,0.3,0.5C450,136.3,450.2,136.2,450.3,136z"/>
				</g>
				<g transform="matrix(0.4441,0,0,0.39775,0,0)">
					<path class="st1" d="M439,122.8L439,122.8C439,122.8,439,122.7,439,122.8c0-0.2-0.1-0.3-0.3-0.3c-0.3-0.1-0.4,0.1-0.4,0.3
						c0,0.1,0,0.3,0.2,0.6c0.4,0.6,1.4,2,1.6,2.2c1.3,1.6,2.6,3.3,4.1,4.8c1,1,2.1,1.9,3.3,2.6c0.3,0.2,0.7,0.1,0.8-0.2
						c0.2-0.3,0.1-0.7-0.2-0.9c-1.4-0.9-2.6-2-3.8-3.2c-1.2-1.2-2.4-2.5-3.5-3.7C440.5,124.7,439.4,123.4,439,122.8
						C439,122.8,439,122.8,439,122.8z M438.9,123.1c-0.1,0.1-0.1,0.1-0.2,0.1C438.7,123.2,438.8,123.2,438.9,123.1z M439,122.7
						C438.9,122.7,438.9,122.7,439,122.7C438.9,122.8,438.9,122.8,439,122.7L439,122.7L439,122.7C439,122.8,439,122.8,439,122.7
						L439,122.7z"/>
				</g>
				<g transform="matrix(0.4441,0,0,0.39775,0,0)">
					<path class="st1" d="M449,125.6c-0.4-0.3-0.4-1-0.5-1.8c0-1.3,0.2-2.8,0.2-3.4c0.1-2.1,1.3-5.5,3-7.7c0.8-1,1.7-1.8,2.7-2
						c0.5-0.1,0.9-0.2,1.4-0.1c0.2,0.1,0.4-0.1,0.4-0.3c0.1-0.2-0.1-0.4-0.2-0.5c-0.6-0.3-1.2-0.4-1.8-0.4c-1.3,0.1-2.6,1-3.6,2.3
						c-1.9,2.5-3,6.4-3,8.7c0,0.8-0.2,2.7,0,4.1c0.1,0.8,0.4,1.5,0.8,1.8c0.2,0.1,0.4,0.1,0.5-0.1
						C449.2,125.9,449.1,125.7,449,125.6z"/>
				</g>
				<g transform="matrix(0.4441,0,0,0.39775,0,0)">
					<path class="st1" d="M454.8,111L454.8,111L454.8,111L454.8,111L454.8,111C454.9,111,454.9,111,454.8,111L454.8,111
						c0.2,0,0.4-0.1,0.4-0.3c0-0.2-0.1-0.4-0.3-0.5c-0.3-0.1-0.7,0.2-1,0.8c-0.6,0.9-1.3,2.7-1.8,3.6c-0.6,1.4-1.2,2.9-1.6,4.5
						c-0.5,1.5-0.8,3-1.2,4.6c-0.1,0.3,0.1,0.7,0.4,0.8c0.3,0.1,0.6-0.1,0.7-0.4c0.5-1.8,0.9-3.6,1.5-5.4c0.3-1.2,0.7-2.4,1.2-3.5
						c0.3-0.7,0.7-1.9,1.1-2.8c0.2-0.5,0.4-0.9,0.6-1.1C454.7,111.1,454.8,111.1,454.8,111z M454.9,111L454.9,111
						C454.8,111,454.8,111,454.9,111L454.9,111L454.9,111z"/>
				</g>
				<g transform="matrix(0.4441,0,0,0.39775,0,0)">
					<path class="st1" d="M446.8,120.1c-1.4-1.9-5-4.7-8.4-5.8c-0.9-0.3-1.9-0.5-2.7-0.5c-1.6,0-2.9,0.7-3.7,2.1
						c-0.1,0.2-0.1,0.4,0.1,0.5c0.2,0.1,0.4,0.1,0.5-0.1c0.6-0.9,1.5-1.3,2.5-1.4c0.9-0.1,2,0.1,3,0.4c3.3,1,6.8,3.5,8.2,5.2
						c0.1,0.2,0.3,0.2,0.5,0C446.9,120.5,446.9,120.3,446.8,120.1z"/>
				</g>
				<g transform="matrix(0.4441,0,0,0.39775,0,0)">
					<path class="st1" d="M432.8,117.5c0.1,0,0.2,0,0.3,0c0.3,0,0.6,0.2,1,0.3c1.3,0.5,2.9,1.3,3.1,1.4l8.3,2.7
						c0.3,0.1,0.5-0.1,0.6-0.4c0.1-0.3-0.1-0.6-0.3-0.6l-8.3-2.5c-0.3-0.1-3-1.5-4.3-1.7c-0.5-0.1-0.8,0-1,0.2
						c-0.1,0.2-0.2,0.5,0,0.9c0.1,0.2,0.3,0.3,0.5,0.2C432.8,117.9,432.9,117.7,432.8,117.5L432.8,117.5z"/>
				</g>
				<g transform="matrix(0.4441,0,0,0.39775,0,0)">
					<path class="st1" d="M447,119.6c-0.2-0.1-0.3-0.3-0.3-0.6c-0.1-0.6,0-1.2-0.1-1.7c-0.1-2.1-0.4-4.6-0.2-7c0.1-1.5,0.3-3,1-4.2
						c0.1-0.1,0.4-0.5,0.8-1c0.3-0.4,0.6-0.8,0.8-1.1c0.1-0.1,0.2-0.3,0.3-0.4c0.1-0.1,0.2-0.3,0.2-0.2c0,0.1,0.1-0.1,0.1-0.2
						c0,0,0.1,0,0.1,0.1c0,0.1,0.1,0.2,0.3,0.2c0.1,0,0.2-0.2,0.2-0.3c0.1-0.7-0.3-0.8-0.8-0.8c-0.2,0-0.5,0.2-0.8,0.4
						c-0.4,0.3-0.9,0.7-1.3,1.2c-0.6,0.6-1,1.3-1.1,1.5c-0.7,1.4-1,3.1-1.1,4.9c-0.1,2.4,0.3,5,0.4,7.1c0.1,0.6,0.1,1.5,0.3,2.2
						c0.2,0.4,0.4,0.7,0.8,0.8c0.2,0.1,0.4-0.1,0.5-0.3C447.3,119.9,447.2,119.7,447,119.6z"/>
				</g>
				<g transform="matrix(0.4441,0,0,0.39775,0,0)">
					<path class="st1" d="M449.5,104.2c0.1,0.2,0,0.6,0,1c-0.1,1-0.3,2.1-0.3,2.7c0,2.5,0.2,5.8-0.2,8.8c-0.1,1.2-0.4,2.3-0.6,3.3
						c-0.2,0.7-0.4,1.4-0.7,2.1c-0.1,0.2-0.1,0.5,0.1,0.6c0.2,0.1,0.4,0.1,0.6-0.1c0.5-0.6,0.9-1.3,1.2-2.1c0.4-1.1,0.6-2.3,0.8-3.6
						c0.3-3.1,0-6.3,0-8.9c0-0.5,0.1-1.7,0.1-2.6c0-0.5,0-1-0.1-1.3c-0.1-0.2-0.3-0.3-0.4-0.2C449.6,103.8,449.5,104,449.5,104.2z"
						/>
				</g>
				<g transform="matrix(0.4441,0,0,0.39775,0,0)">
					<path class="st1" d="M442.8,114.3c-0.4-0.8-1.3-2.2-2.5-3.5c-0.9-1-2-2-3-2.9c-2-1.6-4-2.4-5.2-1.8c-0.3,0.2-0.6,0.5-0.7,0.8
						c-0.3,0.6-0.4,1.5-0.5,2c0,0.2,0,0.4,0.2,0.4c0.2,0.1,0.3-0.1,0.4-0.2c0.1-0.4,0.2-1,0.5-1.6c0.1-0.3,0.2-0.5,0.5-0.6
						c1.1-0.5,2.7,0.5,4.3,1.8c1,0.8,2,1.8,2.9,2.7c1.2,1.2,2.1,2.4,2.6,3.1c0.1,0.2,0.3,0.2,0.5,0.1
						C442.9,114.7,442.9,114.5,442.8,114.3z"/>
				</g>
				<g transform="matrix(0.4441,0,0,0.39775,0,0)">
					<path class="st1" d="M432.2,110.1C432.2,110,432.2,110,432.2,110.1C432.1,110,432.1,110,432.2,110.1L432.2,110.1L432.2,110.1
						C432.2,110.1,432.1,110.2,432.2,110.1C432.1,110.2,432.1,110.1,432.2,110.1C432.1,110,432.1,110,432.2,110.1L432.2,110.1
						c0-0.2-0.1-0.3-0.1-0.3c-0.1-0.1-0.4-0.1-0.5,0c-0.1,0.1-0.1,0.5,0.1,0.9c0.6,0.9,2.5,2.8,2.7,2.9c1.1,1.1,2.6,2.1,4.2,2.7
						c1.7,0.6,3.4,0.8,5,0.4c0.3-0.1,0.5-0.4,0.4-0.8c-0.1-0.4-0.4-0.6-0.7-0.5c-1.4,0.4-2.9,0.2-4.3-0.3c-1.5-0.5-2.9-1.3-4-2.3
						C434.8,112.7,432.9,111,432.2,110.1C432.2,110.2,432.2,110.1,432.2,110.1z"/>
				</g>
				<g transform="matrix(0.4441,0,0,0.39775,0,0)">
					<path class="st1" d="M443.7,115.2L443.7,115.2c-0.3-0.5-0.5-1-0.6-1.2l-0.8-3c-0.5-2-0.9-3.9-0.8-5.7c0.1-1.8,0.6-3.5,1.8-5.3
						c0.1-0.2,0.1-0.5-0.1-0.6c-0.2-0.1-0.4-0.1-0.5,0.1c-1.3,1.9-1.9,3.8-2,5.8c-0.1,1.9,0.3,3.9,0.9,6.1l0.9,3
						c0.1,0.3,0.5,1.1,0.8,1.6c0.2,0.2,0.4,0.3,0.5,0.4c0.2,0,0.6-0.1,0.6-0.7c0-0.2-0.1-0.4-0.3-0.4
						C443.9,115,443.8,115,443.7,115.2z M443.6,115.4C443.6,115.4,443.6,115.4,443.6,115.4C443.6,115.5,443.6,115.5,443.6,115.4z"/>
				</g>
				<g transform="matrix(0.4441,0,0,0.39775,0,0)">
					<path class="st1" d="M442.9,99.1c-0.1,0.6-0.1,1.4,0.1,2.2c0.3,1.5,1.1,3.2,1.2,4.4c0.2,1.5,0.2,3,0.1,4.5
						c-0.1,1.5-0.3,3-0.5,4.6c0,0.3,0.1,0.5,0.4,0.6c0.2,0,0.5-0.1,0.5-0.4c0.3-1.9,0.6-3.8,0.7-5.6c0-1.3,0-2.5-0.2-3.8
						c-0.2-1.2-1-2.9-1.4-4.4c-0.2-0.7-0.3-1.3-0.2-1.8c0-0.2-0.1-0.4-0.3-0.5C443.1,98.7,442.9,98.9,442.9,99.1z"/>
				</g>
				<g transform="matrix(0.4441,0,0,0.39775,0,0)">
					<path class="st1" d="M439.3,107.8c-1.1-1.5-3.6-5.1-4.6-8.5c-0.7-2.3-0.8-4.4,1-5.5c0.2-0.1,0.2-0.4,0.1-0.6
						c-0.1-0.2-0.3-0.3-0.5-0.2c-1.7,1-2.1,2.8-1.7,4.8c0.6,3.8,3.9,8.6,5.2,10.4c0.1,0.2,0.3,0.2,0.5,0
						C439.4,108.2,439.4,107.9,439.3,107.8z"/>
				</g>
				<g transform="matrix(0.4441,0,0,0.39775,0,0)">
					<path class="st1" d="M437.2,95.2c0.7,1.4,1.4,4,2,6.7c0.4,2,0.8,4,0.8,5.6c0,0.5,0,1-0.1,1.4c0,0.3,0.2,0.5,0.4,0.5
						c0.3,0,0.5-0.2,0.5-0.5c0-0.4-0.1-0.9-0.1-1.5c-0.2-1.6-0.4-3.7-0.9-5.7c-0.6-2.8-1.3-5.5-2-6.9c-0.1-0.2-0.3-0.3-0.5-0.1
						C437.2,94.7,437.1,95,437.2,95.2z"/>
				</g>
				<g transform="matrix(0.4441,0,0,0.39775,0,0)">
					<path class="st1" d="M435.8,106.5c-0.7-1.6-3.6-4.3-6.3-5.4c-2.3-1-4.4-0.8-4.9,1.5c-0.1,0.2,0.1,0.4,0.2,0.5
						c0.2,0.1,0.4-0.1,0.4-0.3c0.5-1.8,2.2-1.6,4-0.8c2.5,1.1,5.3,3.4,6,4.9c0.1,0.2,0.3,0.3,0.5,0.2
						C435.8,106.9,435.8,106.7,435.8,106.5z"/>
				</g>
				<g transform="matrix(0.4441,0,0,0.39775,0,0)">
					<path class="st1" d="M425.8,104.4c0,0.2,0,0.3,0.1,0.4c0.5,1,1.6,1.5,2.8,1.9c1.7,0.6,3.7,0.7,5.1,0.7c0.3,0,0.5-0.3,0.5-0.6
						c0-0.3-0.2-0.6-0.5-0.6c-1.3,0-3.3-0.1-4.9-0.6c-0.9-0.3-1.7-0.9-2.3-1.5c-0.1-0.1-0.2-0.1-0.3-0.2c-0.1-0.2-0.3-0.2-0.5-0.1
						C425.7,103.9,425.7,104.2,425.8,104.4z"/>
				</g>
				<g transform="matrix(0.4441,0,0,0.39775,0,0)">
					<path class="st1" d="M433.8,102c-0.2-0.2-0.4-0.4-0.6-0.6c-1.5-1.4-3.8-3.7-4.9-6c-0.6-1.3-0.8-2.5-0.2-3.5
						c0.2-0.4,0.6-0.8,1-1.2c0.2-0.1,0.2-0.3,0.1-0.5c-0.1-0.2-0.3-0.2-0.4-0.1c-0.7,0.3-1.2,0.7-1.5,1.2c-1,1.3-0.7,3,0.1,4.7
						c1.2,2.4,3.6,4.9,5.3,6.2c0.3,0.2,0.5,0.3,0.7,0.5c0.2,0.1,0.4,0.1,0.5-0.1C434,102.3,434,102.1,433.8,102z"/>
				</g>
				<g transform="matrix(0.4441,0,0,0.39775,0,0)">
					<path class="st1" d="M429.1,90.8c0-0.2-0.1-0.4-0.3-0.4c-0.3-0.1-0.4,0-0.5,0c-0.1,0.1-0.2,0.4,0,0.8c0.1,0.2,0.2,0.4,0.4,0.7
						c0.5,0.6,1.4,1.5,1.7,2c0.8,1.6,1.5,3.2,1.9,4.8c0.3,1,0.4,2.1,0.3,3.3c0,0.4,0.2,0.7,0.5,0.7c0.3,0,0.6-0.2,0.6-0.6
						c0.2-1.4,0.1-2.7-0.2-3.9c-0.4-1.8-1.3-3.3-2.1-5.1c-0.3-0.6-1.3-1.6-2-2.2C429.4,90.9,429.2,90.8,429.1,90.8z M429,90.7
						C429,90.6,429,90.6,429,90.7C429,90.6,429,90.6,429,90.7z"/>
				</g>
			</g>
			<g>
				<g transform="matrix(0.4441,0,0,0.39775,0,0)">
					<path class="st0" d="M314.8,301.3c0,0,5.2-10.3,1.1-10.9c-2.3-0.3-1.9-0.4-2.4,1.3c0,0-3.2-10.4-4.2-3.3c0,0-4.8-8.8-6.3-2.9
						c0,0-9.3-1.8-0.9,4.6c0,0-5.7,7.6,1,4.7c0,0-0.4,2.6,5.5,3.1c0,0-9,5.8,0.9,4.4C319.3,301,314.8,301.3,314.8,301.3z"/>
				</g>
				<g transform="matrix(0.4441,0,0,0.39775,0,0)">
					<path class="st1" d="M302.2,291.6c0,0,0.1-0.1,0.1-0.1c0.2-0.1,0.5-0.1,0.8-0.2c0.6-0.1,1.3-0.1,1.8-0.1c0.7,0,1.5,0,2.2,0.1
						c0.7,0.1,1.4,0.4,2,0.8c1.5,1,2.6,2.8,3.5,4.9c0.5,1.2,0.9,2.4,1.3,3.6c0.6,2,1,4,1.2,5.7c0,0.2,0.2,0.4,0.4,0.4
						c0.2,0,0.4-0.3,0.3-0.5c-0.2-1.7-0.6-3.8-1.2-5.9c-0.4-1.3-0.8-2.5-1.4-3.7c-1-2.2-2.3-4.1-3.9-5.1c-0.7-0.5-1.5-0.7-2.2-0.9
						c-0.8-0.1-1.5-0.1-2.3-0.1c-0.6,0-1.8,0.1-2.4,0.3c-0.4,0.1-0.6,0.3-0.6,0.5c0,0.1,0,0.3,0.2,0.3
						C302.1,291.9,302.2,291.8,302.2,291.6z"/>
				</g>
				<g transform="matrix(0.4441,0,0,0.39775,0,0)">
					<path class="st1" d="M313.9,301.3L313.9,301.3c-0.2-0.4-0.3-0.8-0.5-1.1c-0.1-0.2-0.2-0.4-0.3-0.5c-0.3-0.4-0.7-0.7-1.2-0.9
						c-0.6-0.3-1.3-0.5-1.9-0.7c-0.8-0.2-1.6-0.2-2.5,0c-0.8,0.2-1.6,0.6-2.2,1.3c-0.4,0.4-1,1.6-1,2.5c0,0.6,0.2,1.1,0.7,1.3
						c0.5,0.3,1.1,0.3,1.7,0.3c0.8,0,1.5-0.3,2.2-0.4c0.7-0.1,1.4-0.2,2.2-0.3c0.8-0.1,1.5-0.1,2.3-0.2c0.3,0,0.7-0.1,1-0.1
						c0.3,0,0.5-0.3,0.5-0.6c0-0.3-0.2-0.5-0.5-0.5C314.2,301.3,314.1,301.3,313.9,301.3z M313.1,301.3c-0.2-0.4-0.4-0.8-0.6-1
						c-0.3-0.3-0.6-0.5-1-0.7c-0.6-0.3-1.2-0.4-1.8-0.6c-0.6-0.2-1.4-0.1-2.1,0c-0.7,0.2-1.3,0.5-1.8,1.1c-0.2,0.2-0.4,0.7-0.6,1.2
						c-0.1,0.3-0.2,0.7,0.1,0.8c0.4,0.2,0.8,0.2,1.2,0.2c0.7-0.1,1.5-0.3,2.1-0.4c1.1-0.2,2.2-0.4,3.3-0.5
						C312.4,301.4,312.8,301.3,313.1,301.3z"/>
				</g>
				<g transform="matrix(0.4441,0,0,0.39775,0,0)">
					<path class="st1" d="M314.7,301c-0.1-0.2-0.1-0.5-0.1-0.6l-0.3-3c-0.2-1.1-0.5-2.6-0.6-4.1c-0.1-0.9,0-1.8,0.3-2.6
						c0.2-0.6,0.7-0.7,1.1-0.5c0.8,0.3,1.6,1.4,1.8,2c0.3,1,0.2,2.1-0.1,3.1c-0.3,1.1-0.8,2.2-1.3,3.2c-0.2,0.5-0.4,1-0.7,1.4
						c-0.1,0.2-0.1,0.6,0.2,0.7c0.2,0.1,0.5,0.1,0.6-0.2c0.2-0.4,0.5-0.9,0.8-1.3c0.6-1.1,1.1-2.3,1.4-3.5c0.3-1.2,0.4-2.5,0-3.7
						c-0.3-0.8-1.3-2.1-2.3-2.5c-0.8-0.3-1.6-0.1-2,1.1c-0.3,0.9-0.3,1.9-0.3,2.9c0.1,1.5,0.4,3,0.6,4.2l0.4,3
						c0,0.3,0.1,0.8,0.3,0.9c0.2,0.2,0.3,0.3,0.5,0c0.1-0.1,0.1-0.3,0-0.4C314.9,301,314.8,301,314.7,301z M314.7,301.1
						C314.7,301.1,314.8,301.1,314.7,301.1C314.8,301.1,314.8,301.1,314.7,301.1z"/>
				</g>
				<g transform="matrix(0.4441,0,0,0.39775,0,0)">
					<path class="st1" d="M313.3,296.9c0.1,0.1,0.3,0.1,0.4,0c0.2-0.1,0.3-0.4,0.2-0.6c-0.2-0.5-0.3-1.3-0.5-2.3
						c-0.4-2-0.7-4.5-0.9-5.5c-0.1-0.3-0.1-0.5-0.1-0.7c-0.1-0.2-0.1-0.4-0.2-0.6c-0.3-0.8-0.8-1.3-1.3-1.4
						c-0.6-0.1-1.2,0.1-1.7,0.8c-0.2,0.4-0.4,0.8-0.5,1.3c-0.1,0.7-0.1,1.4,0,1.9c0.1,0.8,0.5,1.7,1,2.7c0.5,0.9,1.1,1.8,1.7,2.6
						c0.7,0.9,1.3,1.7,1.8,2.5c0.1,0.1,0.2,0.1,0.3,0.1c0.1-0.1,0.1-0.2,0.1-0.3C313.5,297.2,313.4,297,313.3,296.9z M313.2,296.5
						c-0.2-0.6-0.5-1.8-0.7-3.1c-0.3-1.8-0.6-3.9-0.7-4.8c0-0.2-0.1-0.4-0.1-0.6c0-0.2-0.1-0.3-0.2-0.5c-0.2-0.5-0.4-0.8-0.7-0.9
						c-0.3-0.1-0.6,0.1-0.9,0.5c-0.2,0.3-0.3,0.7-0.4,1.2c0,0.5,0,1,0,1.4c0.1,0.8,0.4,1.6,0.9,2.4c0.5,0.9,1.1,1.7,1.6,2.6
						C312.4,295.4,312.8,296,313.2,296.5z"/>
				</g>
				<g transform="matrix(0.4441,0,0,0.39775,0,0)">
					<path class="st1" d="M313.1,297.6l-0.1,0.3c0,0.1,0.1,0.3,0.2,0.3c0.1,0,0.2-0.1,0.3-0.2l0-0.1c0.1-0.1,0-0.3-0.1-0.3
						C313.3,297.4,313.1,297.5,313.1,297.6z"/>
				</g>
				<g transform="matrix(0.4441,0,0,0.39775,0,0)">
					<path class="st1" d="M313.3,298.7c0-0.1,0.1-0.1,0-0.2c0,0,0-0.1,0-0.1c0-0.1,0-0.2,0-0.3c0-0.3-0.1-0.6-0.1-0.9
						c0-0.2-0.1-0.5-0.2-0.7c-0.5-1.2-1.4-2.4-2.6-3.3c-1.2-0.9-2.6-1.4-3.9-1.1c-0.6,0.1-2.6,1.2-3.4,2.4c-0.6,0.8-0.6,1.6,0.1,2.4
						c0.3,0.3,0.8,0.5,1.3,0.6c0.9,0.2,2,0,2.7,0.1c0.7,0,1.4,0.1,2.1,0.3c0.6,0.2,1.3,0.4,1.9,0.6c0.4,0.2,0.8,0.3,1.3,0.5
						C312.9,299,313.2,298.9,313.3,298.7z M312.6,297.7c0-0.3-0.1-0.6-0.2-0.9c-0.5-1-1.3-2.1-2.3-2.8c-1-0.7-2.1-1.1-3.1-0.8
						c-0.4,0.1-1.7,0.8-2.5,1.6c-0.4,0.4-0.7,0.8-0.3,1.1c0.3,0.3,0.7,0.3,1.1,0.4c0.8,0.1,1.6,0,2.2,0c1,0,2,0.2,2.9,0.5
						c0.6,0.2,1.1,0.4,1.7,0.6C312.2,297.5,312.4,297.6,312.6,297.7z"/>
				</g>
				<g transform="matrix(0.4441,0,0,0.39775,0,0)">
					<path class="st1" d="M308.7,290.7c-0.3,0.1-0.6,0.1-0.9-0.1c-0.5-0.2-0.9-0.7-1.3-1c-0.6-0.6-1.6-1.7-2.2-2.8
						c-0.3-0.7-0.6-1.4-0.3-2.1c0.2-0.6,0.6-0.7,1.1-0.6c0.9,0.3,1.8,1.4,2,2c0.4,0.9,0.6,1.9,1,2.8c0.2,0.4,0.4,0.8,0.7,1.1
						c0.1,0.2,0.4,0.3,0.6,0.1c0.2-0.2,0.2-0.5,0.1-0.7c-0.3-0.4-0.5-0.9-0.6-1.4c-0.3-0.8-0.5-1.6-0.8-2.4
						c-0.3-0.8-1.5-2.2-2.7-2.6c-0.9-0.3-1.8-0.1-2.3,1.3c-0.3,0.9-0.1,2,0.5,2.9c0.7,1.2,1.8,2.3,2.5,3c0.4,0.3,1,0.8,1.6,1
						c0.5,0.1,0.9,0.2,1.3-0.1c0.1-0.1,0.2-0.2,0.1-0.3S308.8,290.6,308.7,290.7z"/>
				</g>
				<g transform="matrix(0.4441,0,0,0.39775,0,0)">
					<path class="st1" d="M306.4,291.1C306.4,291.1,306.4,291,306.4,291.1c-0.2-0.1-0.4-0.2-0.6-0.3c-0.7-0.3-1.5-0.4-2.3-0.4
						c-0.7,0-1.4,0.1-2,0.4c-0.8,0.4-1.9,2.2-2.1,3.4c-0.1,0.7,0.1,1.2,0.5,1.5c0.3,0.2,0.9,0.3,1.7-0.1c0.3-0.1,0.5-0.2,0.8-0.4
						c0.4-0.2,0.8-0.5,1.1-0.7c0.8-0.5,1.6-1.4,2.4-2c0.3-0.3,0.6-0.5,1-0.6c0.2-0.1,0.3-0.3,0.2-0.6c-0.1-0.2-0.3-0.4-0.5-0.3
						C306.5,291,306.5,291,306.4,291.1z M305.5,291.5c-0.6-0.1-1.3-0.3-2-0.3c-0.6,0-1.1,0.1-1.6,0.4c-0.6,0.3-1.4,1.8-1.6,2.7
						c0,0.2-0.1,0.3,0,0.4c0.1,0.1,0.2,0,0.3,0c0.2,0,0.3-0.1,0.6-0.2c0.2-0.1,0.5-0.2,0.7-0.4c0.4-0.2,0.7-0.4,1.1-0.6
						c0.8-0.5,1.5-1.3,2.4-1.9C305.4,291.6,305.5,291.6,305.5,291.5z"/>
				</g>
				<g transform="matrix(0.4441,0,0,0.39775,0,0)">
					<path class="st1" d="M306.8,290.9c-0.2-0.1-0.4-0.2-0.6-0.2c-0.7,0-1.7,0.2-2.2,0c-0.8-0.3-1.6-0.7-2.3-1.2
						c-0.7-0.5-1.4-1.1-2-1.7c-0.4-0.4-0.5-1.1-0.5-1.7c0.1-0.5,0.4-0.9,1-1c0.4,0,0.9,0.1,1.3,0.4c0.5,0.3,0.9,0.6,1.2,0.9
						c0.7,0.8,1.3,1.9,2,2.8c0.4,0.4,0.7,0.8,1.1,1.1c0.2,0.1,0.4,0.1,0.6-0.2c0.1-0.2,0.1-0.5-0.1-0.6c-0.3-0.2-0.7-0.6-0.9-0.9
						c-0.7-0.9-1.3-2.1-2-2.9c-0.3-0.4-0.8-0.8-1.4-1.1c-0.6-0.3-1.2-0.5-1.8-0.5c-0.9,0.1-1.4,0.6-1.6,1.3c-0.3,0.9,0,2.2,0.6,2.9
						c0.6,0.7,1.4,1.3,2.2,1.8c0.8,0.5,1.6,0.8,2.5,1.1c0.6,0.2,1.6,0,2.3,0c0.2,0,0.3,0,0.5,0.1c0.1,0.1,0.2,0,0.3-0.1
						C306.9,291.1,306.9,291,306.8,290.9z"/>
				</g>
			</g>
			<g>
				<g transform="matrix(0.4441,0,0,0.39775,0,0)">
					<path class="st0" d="M333.7,251.2c0,0-2.2-14.7,8.4-12.4c5.2,1.1-3.3,13.4-3.6,13.8c-0.1-0.6,12.9-1.9,12.8,4.2
						c-0.1,4.7-10.7,3.7-10.6,3.7c0,0,6.5,7,0.4,9.7c-2.7,1.2-5.1-6.6-5-6.8c0,0-3.1,10.5-8.5,7.4c-4.1-2.4,3.4-11.9,3.7-11.5
						c0,0-10.9,5.4-11.9,0.8c-1-4.6,8.2-6.9,8.9-6.3c0,0-7.9-4.5-2.6-11.7C328.6,238,334.7,250.7,333.7,251.2z"/>
				</g>
				<g transform="matrix(0.4441,0,0,0.39775,0,0)">
					<path class="st1" d="M332.4,251.8c-0.1,0.1-0.2,0.2-0.3,0.3c-0.4,0.5-0.5,1.3-0.7,2.2c-0.4,1.9,0,4.1,1,5.5
						c1.1,1.5,2.8,2.2,5,1.1c1.5-0.8,2.4-2.7,2.5-4.7c0.1-2-0.5-4.1-1.7-5.1c-0.6-0.5-2-1-3.3-1c-0.6,0-1.3,0.1-1.7,0.4
						c-0.3,0.2-0.5,0.5-0.6,0.8C332.4,251.5,332.4,251.7,332.4,251.8z M332.9,252.4c-0.1,0.1-0.2,0.3-0.2,0.5
						c-0.2,0.5-0.3,1-0.4,1.6c-0.3,1.6,0.1,3.3,1,4.5c0.8,1,2,1.4,3.6,0.6c1.1-0.6,1.6-2,1.6-3.5c0.1-1.5-0.4-3-1.2-3.8
						c-0.3-0.3-1.2-0.5-1.9-0.5c-0.5,0-1,0-1.4,0.1c-0.1,0-0.3,0-0.3,0.1C333.4,252.4,333.2,252.5,332.9,252.4z"/>
				</g>
				<g transform="matrix(0.4441,0,0,0.39775,0,0)">
					<path class="st1" d="M333.9,250.5l0-1.1c-0.1-0.8-0.1-1.7-0.1-2.6c0-0.6,0.1-1.1,0.2-1.7c0.2-1.2,0.8-2.5,1.5-3.5
						c0.7-1.1,1.7-1.9,2.8-2.3c1.6-0.6,3-0.6,3.9,0c0.9,0.6,1.1,1.9,0.6,3.9c-0.1,0.5-0.2,0.8-0.4,1.2c-0.2,0.6-0.5,1.1-0.9,1.8
						c-0.4,0.7-0.8,1.5-1.2,2.2c-0.3,0.5-0.6,1.1-0.9,1.6c-0.3,0.5-0.6,1.1-1,1.6c-0.2,0.3-0.1,0.6,0.1,0.8c0.2,0.2,0.6,0.1,0.7-0.1
						c0.5-0.7,1-1.4,1.4-2.1c0.7-1.1,1.2-2.2,1.8-3.4c0.4-0.7,0.7-1.3,0.9-1.9c0.2-0.4,0.3-0.9,0.4-1.4c0.6-2.7,0-4.3-1.1-5.2
						c-1.1-0.8-2.8-0.8-4.7-0.1c-1.2,0.5-2.3,1.5-3.1,2.7c-0.8,1.2-1.4,2.7-1.6,4c-0.1,0.6-0.1,1.2-0.1,1.8c0,0.9,0.1,1.8,0.2,2.6
						c0,0.2,0,0.9,0.1,1.2c0.1,0.2,0.2,0.3,0.4,0.4c0.1,0,0.3-0.1,0.3-0.2C334.1,250.7,334,250.6,333.9,250.5z"/>
				</g>
				<g transform="matrix(0.4441,0,0,0.39775,0,0)">
					<path class="st1" d="M339.2,253c0.1-0.3,0.6-0.4,1.1-0.5c0.8-0.1,1.8,0,2.2,0c1.3,0,2.5,0.2,3.6,0.6c1.1,0.4,2.2,0.9,3.2,1.7
						c0.6,0.5,1.1,1,1.2,1.6c0.1,0.5-0.1,1.1-0.7,1.6l-1,0.7c-0.2,0.1-0.3,0.2-0.4,0.2c-0.2,0.1-0.4,0.1-0.8,0.2
						c-0.7,0.2-1.3,0.5-1.9,0.6c-0.4,0.1-0.8,0.2-1.2,0.2c-1,0-2-0.1-2.9-0.2c-0.9-0.1-1.9-0.3-2.9-0.6c-0.3-0.1-0.5,0.1-0.6,0.4
						c-0.1,0.3,0.1,0.6,0.3,0.7c1.2,0.4,2.4,0.8,3.5,1c0.8,0.1,1.6,0.2,2.5,0.2c0.5,0,1-0.1,1.5-0.2c0.7-0.2,1.3-0.4,2-0.7
						c0.4-0.2,0.6-0.2,0.8-0.3c0.2-0.1,0.3-0.2,0.6-0.4l1.1-0.8c1-0.9,1.3-2,1.1-2.9c-0.2-0.9-0.8-1.8-1.7-2.4
						c-1.2-0.8-2.3-1.4-3.6-1.8c-1.2-0.3-2.4-0.4-3.9-0.4c-0.5,0-1.8,0.1-2.7,0.4c-0.5,0.2-0.9,0.5-1.1,0.9c-0.1,0.1,0,0.3,0.1,0.4
						C339,253.2,339.2,253.1,339.2,253z"/>
				</g>
				<g transform="matrix(0.440601,0.0554969,-0.0590562,0.376098,187.746,-134.499)">
					<path class="st1" d="M-9.3,629.5c-0.8,2.1-0.4,2,0.5,0.2l0.3,0.1l0.2,0.1c-0.6,2.6-0.6,3,0.2,0.1l0.4,0.1
						c0.3,0.1,0.5-0.1,0.6-0.4c0.1-0.3-0.1-0.6-0.4-0.7l-0.3-0.1l0.1-0.4l0.9-3.1l0.1-0.2c0.1-0.3,0.3-1,0.3-1.5
						c0-0.6-0.1-1.1-0.3-1.6c-0.2-0.7-0.5-1.3-0.9-2.1c-0.7-1.6-2.4-3.7-4.1-4.7c-1.3-0.8-2.7-0.9-3.9,0.3c-0.4,0.4-0.7,1-1,1.6
						c-0.3,0.9-0.4,1.9-0.4,2.8c0.1,2.6,0.8,4.5,2,6c1.1,1.3,2.5,2.3,4.2,3C-10.3,629.2-9.8,629.4-9.3,629.5z M-7.8,627.8
						c-0.1,0.3-0.3,0.6-0.4,0.9l0.2,0.1L-7.8,627.8z M-7.3,625.1l0-0.2c0.1-0.3,0.1-0.8,0.1-1.2c-0.1-0.5-0.2-0.9-0.3-1.3
						c-0.2-0.6-0.6-1.2-0.9-1.9c-0.7-1.4-2.1-3.3-3.7-4.2c-1-0.6-2-0.7-2.9,0.2c-0.4,0.4-0.6,1-0.8,1.6c-0.2,0.7-0.2,1.4-0.2,2
						c0.1,2.2,0.7,3.9,1.7,5.1c1,1.2,2.3,1.9,3.8,2.6c0.5,0.2,1,0.5,1.6,0.7C-8.5,627.5-8,626.4-7.3,625.1z"/>
				</g>
				<g transform="matrix(0.4441,0,0,0.39775,0,0)">
					<path class="st1" d="M331.5,256.2c0-0.4-0.1-0.7-0.3-1c-0.1-0.2-0.2-0.4-0.4-0.5c-0.8-0.7-2.4-0.8-3.1-1
						c-1.2-0.2-2.5-0.1-3.8,0.4c-1.3,0.4-2.4,1.2-3.3,2.1c-0.5,0.5-1.7,2.2-1.9,3.5c-0.1,0.8,0.1,1.5,0.7,2c0.6,0.5,1.2,0.7,1.9,0.8
						c0.9,0.2,1.9,0,2.8-0.1c0.5-0.1,1-0.2,1.5-0.3c0.7-0.2,1.5-0.4,2.1-0.7c1-0.3,1.9-0.7,2.8-1.2c0.6-0.3,1.2-0.7,1.8-1.2
						c0.2-0.2,0.3-0.5,0.1-0.8c-0.2-0.3-0.5-0.3-0.7-0.2c-0.4,0.3-0.8,0.5-1.3,0.7c-1,0.5-2.1,0.9-3.2,1.3c-0.7,0.2-1.4,0.5-2.1,0.7
						c-0.5,0.1-0.9,0.3-1.4,0.3c-0.8,0.2-1.7,0.3-2.5,0.2c-0.5-0.1-1-0.2-1.4-0.6c-0.4-0.3-0.3-0.8-0.2-1.3c0.3-1,1-2.1,1.4-2.5
						c0.8-0.8,1.8-1.5,3-1.9c1.1-0.4,2.3-0.6,3.4-0.4c0.6,0.1,1.7,0.2,2.5,0.5c0.3,0.1,0.6,0.2,0.8,0.5c0.1,0.2,0.1,0.3,0.1,0.6
						c0,0.2,0.1,0.3,0.2,0.3C331.3,256.5,331.4,256.4,331.5,256.2z"/>
				</g>
				<g transform="matrix(0.456133,0.0624677,-0.0613535,0.359364,141.184,-108.781)">
					<path class="st1" d="M90.6,574c-0.6,0.6-1.2,1.3-1.7,2c-0.6,0.7-1.1,1.5-1.5,2.3c-0.7,1.4-1.4,5.1-0.8,7.5
						c0.4,1.9,1.5,3.1,3.7,2.3c0.5-0.2,0.9-0.5,1.3-0.9c0.5-0.5,0.9-1.2,1.4-1.7c1-1.3,1.8-3.1,2.3-5c0.4-1.5,0.6-3.2,0.4-4.6
						c-0.1-0.4-0.1-0.8-0.3-1.2c-0.1-0.3-0.3-0.4-0.5-0.4c-0.2,0.1-0.3,0.3-0.3,0.6c0,0.3,0,0.7,0,1c0,1.3-0.1,2.7-0.5,4.1
						c-0.5,1.7-1.2,3.3-2.1,4.4c-0.4,0.5-0.8,1.1-1.2,1.6c-0.3,0.3-0.5,0.5-0.9,0.6c-1.4,0.5-2.1-0.2-2.4-1.4
						c-0.6-2.1-0.1-5.4,0.5-6.6c0.4-0.8,0.8-1.6,1.3-2.3c0.5-0.7,1-1.4,1.6-2.1c0.1-0.1,0.1-0.3,0-0.4
						C90.9,573.9,90.7,573.9,90.6,574z"/>
				</g>
				<g transform="matrix(0.475468,0,0,0.340874,-113.533,173.211)">
					<path class="st1" d="M552.7-202.4c-0.2,0.6-0.2,1.2-0.2,1.9c0.1,0.9,0.3,1.9,0.4,2.6c0.1,0.4,0.2,0.9,0.4,1.3
						c0.2,0.6,0.5,1.1,0.7,1.7c0.9,1.8,1.9,2.8,2.8,3c1.1,0.2,2.1-0.7,2.9-3.2c0.6-2,0.4-4.8-0.6-6.9c-0.5-1-1.1-1.8-2-2.3
						c-0.7-0.4-1.6-0.6-2.5-0.3c-0.2,0-0.4,0.3-0.4,0.6c0,0.3,0.2,0.5,0.5,0.5c0.8-0.1,1.4,0.2,2,0.5c0.6,0.4,1.1,1.1,1.5,1.8
						c0.8,1.6,1,3.8,0.5,5.4c-0.4,1.6-1,2.4-1.7,2.4c-0.7-0.1-1.5-0.9-2.3-2.3c-0.3-0.5-0.5-1-0.8-1.5c-0.1-0.3-0.3-0.7-0.4-1.1
						c-0.2-0.7-0.4-1.6-0.5-2.5c-0.1-0.5-0.1-1.1,0.1-1.5c0.1-0.2,0-0.4-0.1-0.4C552.9-202.7,552.8-202.6,552.7-202.4z"/>
				</g>
			</g>
			<g transform="matrix(0.4441,0,0,0.39775,0,0)">
				<path class="st1" d="M334.5,267.4c0.1,0,0.2-0.1,0.2-0.3l0,0c0,0,0,0,0,0l0,0c0,0,0,0,0-0.1c0-0.5-0.3-0.6-0.3-0.6
					c-0.1,0-0.3,0.1-0.4,0.4c-0.1,0.3-0.3,1.2-0.3,1.3l-0.9,3.7c-0.1,0.3,0.1,0.6,0.3,0.6c0.2,0.1,0.5-0.1,0.6-0.3
					c0.2-0.6,0.4-1.2,0.5-1.9c0.2-0.6,0.3-1.2,0.4-1.9C334.6,268.4,334.5,267.8,334.5,267.4z M334.7,267.2
					C334.7,267.1,334.7,267.1,334.7,267.2c-0.1,0-0.1,0-0.2,0.1C334.7,267.2,334.7,267.2,334.7,267.2L334.7,267.2z M334.1,267.2
					C334.1,267.2,334.1,267.1,334.1,267.2c0-0.1,0-0.2,0-0.2C334,267.1,334,267.1,334.1,267.2z"/>
			</g>
			<g transform="matrix(0.4441,0,0,0.39775,0,0)">
				<path class="st1" d="M333,271.7l-0.1,0.3c-0.1,0.2,0,0.4,0.1,0.5c0.2,0.1,0.3,0,0.4-0.1l0.2-0.4c0.1-0.2,0-0.4-0.2-0.5
					C333.3,271.5,333.1,271.6,333,271.7z"/>
			</g>
			<g transform="matrix(0.49513,-0.0344926,0.0344388,0.396552,-293.388,126.866)">
				<path class="st1" d="M863.3,60.7c0.5,1.1,1.1,2.1,1.9,3c2.7,2.9,6.9,4.4,11.2,4.7c4.8,0.3,9.8-0.7,13.2-3.2
					c0.5-0.3,0.9-0.7,1.3-1.1c0.2-0.2,0.3-0.6,0.1-0.9c-0.2-0.3-0.5-0.4-0.7-0.1c-0.4,0.3-0.8,0.6-1.2,0.9c-3.3,2.1-8,3.2-12.5,2.9
					c-4.1-0.2-8-1.6-10.7-4.1c-0.8-0.7-1.5-1.5-2-2.4c-0.1-0.2-0.3-0.2-0.4-0.1C863.2,60.3,863.2,60.5,863.3,60.7z"/>
			</g>
		</g>
		<g transform="matrix(0.4441,0,0,0.39775,0,0)">
			<path class="st1" d="M264,250.8l-3.2,26.9l-5.8-0.5c0,0-6.4,30.7-6.8,31.5c0,0,6.7,4,12.3-4.6c5.5-8.6,8.4-10,9.3-10.4
				c0,0-6.4-9.4-6.3-16c0.1-6.6,3.8-25.6,3.8-25.6L264,250.8z"/>
		</g>
		<g transform="matrix(0.4441,0,0,0.39775,0,0)">
			<path class="st1" d="M226.8,242.3l-1,4.6l3.4-0.2l0.2-3.8L226.8,242.3z"/>
		</g>
		<g transform="matrix(0.4441,0,0,0.39775,0,0)">
			<path class="st1" d="M227.2,265.6l0,8.1l20.6,2.9l-0.1,8.4l-24.5-9.7L227.2,265.6z"/>
		</g>
		<g transform="matrix(0.4441,0,0,0.39775,0,0)">
			<path class="st1" d="M204.1,312.3l-1.4,11.7l32.5,0C235.2,323.9,212,318.5,204.1,312.3z"/>
		</g>
		<g transform="matrix(0.4441,0,0,0.39775,0,0)">
			<path class="st1" d="M246.1,316.9l-2.1,7.8l27.3,1.5c0,0-3-15.5-0.9-26.5c0,0-4.2,0.1-7.8,10.4
				C258.9,320.3,249.5,317.6,246.1,316.9z"/>
		</g>
		<g transform="matrix(0.4441,0,0,0.39775,0,0)">
			<path class="st2" d="M293.3,303.6c0,0-1.5,28.7,5.9,30.2c7.3,1.5,16.2,2.7,19.1-2.7c3-5.4,5.7-26.5,5.7-26.5
				S304.5,318.2,293.3,303.6z"/>
		</g>
		<g transform="matrix(0.4441,0,0,0.39775,0,0)">
			<path class="st1" d="M309,319.1c0.3-0.4,1-1,1.2-1.2c0.6-0.8,1.7-2,2.7-2.3c0.5-0.1,1,0.1,1.3,0.9c0.5,1.3-0.2,2.8-1.3,4.2
				c-1,1.5-2.5,2.8-3.6,3.9c-0.7,0.6-1.2,1.2-1.7,1.5c-0.3,0.2-0.4,0.6-0.2,0.9c0.2,0.3,0.6,0.4,0.8,0.2c0.5-0.3,1.2-0.7,2-1.3
				c1.3-1.1,2.8-2.6,3.9-4.2c1.4-2,2.1-4.2,1.2-6c-0.7-1.6-1.8-1.9-2.8-1.5c-1.2,0.4-2.5,1.8-3.2,2.8c-0.3,0.5-1.1,1.7-1.2,2
				c-0.1,0.4,0.1,0.6,0.3,0.6c0.1,0,0.2,0,0.4-0.1C309,319.5,309.1,319.3,309,319.1C309,319.1,309,319.1,309,319.1z M308.9,319.2
				c0,0.1-0.1,0.1,0,0.2C309,319.4,309,319.3,308.9,319.2z"/>
		</g>
		<g transform="matrix(0.4441,0,0,0.39775,0,0)">
			<path class="st1" d="M309.4,320c-0.4-0.3-0.5-1-0.8-1.8c-0.4-1.1-0.9-2.3-1.7-3.2c-0.6-0.6-1.4-1.1-2.4-1.2
				c-1-0.1-1.8,0.5-2.3,1.3c-0.6,1.1-0.8,2.7-0.5,3.8c0.3,1.4,1,2.7,1.9,4c0.5,0.7,1,1.3,1.5,2c0.8,0.9,1.7,1.8,2.5,2.6
				c0.2,0.3,0.6,0.3,0.9,0c0.2-0.3,0.2-0.7,0-1c-0.7-0.8-1.5-1.8-2.3-2.7c-0.5-0.6-1-1.2-1.5-1.8c-0.8-1.1-1.4-2.2-1.7-3.4
				c-0.2-0.6-0.1-1.5,0.1-2.2c0.2-0.6,0.6-1.1,1.2-1c0.7,0,1.2,0.3,1.6,0.8c0.7,0.7,1.1,1.8,1.5,2.7c0.5,1,1,1.7,1.6,1.9
				c0.2,0.1,0.4,0,0.4-0.2C309.6,320.3,309.5,320.1,309.4,320z"/>
		</g>
		<g transform="matrix(0.4441,0,0,0.39775,0,0)">
			<path class="st1" d="M226.5,296.7c-0.3-0.2-0.1-0.5,0.1-0.8c0.4-0.7,1.1-1.4,1.4-1.6c0.8-0.8,1.9-1.5,3.1-1.9
				c1.1-0.4,2.2-0.4,3.2,0.1c0.5,0.2,0.3,0.9,0.2,1.5c-0.2,0.9-0.6,1.8-0.9,2.2c-0.6,0.9-3,3.1-5.4,5.1c-1.5,1.2-3,2.4-4.1,3.2
				c-0.7,0.6-1.3,1-1.6,1.1c-0.4,0-0.7,0.4-0.7,0.9c0,0.5,0.4,0.8,0.8,0.8c0.4,0,1.4-0.4,2.5-1.1c0.9-0.6,1.9-1.4,3-2.3
				c2.9-2.4,6-5.5,6.8-6.6c0.5-0.8,1.4-2.8,1.3-4.3c-0.1-0.9-0.4-1.7-1.3-2.1c-1.1-0.5-2.3-0.6-3.5-0.3c-1.6,0.4-3.2,1.5-4.3,2.6
				c-0.3,0.3-1.3,1.6-1.5,2.6c-0.2,0.7,0,1.3,0.6,1.5c0.2,0.1,0.4,0,0.4-0.2C226.8,297,226.7,296.7,226.5,296.7z"/>
		</g>
		<g transform="matrix(0.4441,0,0,0.39775,0,0)">
			<path class="st1" d="M227,296.9L227,296.9c0,0,0.1-0.3,0-0.7c0-0.7-0.1-1.7-0.4-2.9c-0.3-1.4-0.7-2.9-1.3-4.3
				c-0.9-2.1-2.2-3.7-4-3.8c-0.8-0.1-1.6,0.4-2.2,1.3c-1.1,1.4-1.8,3.9-2,5c-0.4,1.9,0.4,5.7,1.7,9.2c0.4,1.2,0.9,2.3,1.4,3.4
				c1,2.2,2.2,3.8,3.2,4.5c0.3,0.2,0.7,0.1,0.8-0.2c0.2-0.3,0.1-0.7-0.2-0.9c-0.8-0.6-1.7-2.2-2.5-4.2c-0.5-1-0.9-2.1-1.3-3.2
				c-1.2-3.2-2-6.5-1.7-8.3c0.1-0.8,0.6-2.6,1.3-3.8c0.4-0.7,0.9-1.3,1.5-1.3c1.3,0.1,2.2,1.4,2.9,3c0.6,1.3,0.9,2.8,1.2,4.1
				c0.2,0.7,0.3,1.3,0.4,1.8c0.2,0.7,0.3,1.2,0.4,1.4c0.1,0.3,0.3,0.5,0.3,0.5c0.2,0.1,0.4,0,0.5-0.2C227,297.1,227,297,227,296.9z"
				/>
		</g>
	</g>
	<g id="Gray-Short.svg9" transform="matrix(0.302528,0,0,0.270954,1455.09,1101.99)" class="st3">
		<g transform="matrix(1,0,0,1,-236.5,-283.5)" class="st4">
			<g id="head-mono-Gray-Short9">
				<path class="st0" d="M-4476.5-3695.7c0,0-4.7,20.6,9.3,14.6c0,0,7.8,20.2,14.4,18.2c0,0,5.2,4.7,9.5,5.1c0,0,20.7,21.2,38-11.6
					c6.9-13,2.6-41.6-0.4-52.2c-1.3-4.6-1.5-9.4-1.7-10.7c0,0,8.9-6.2,2.4-9.2c0,0,4.7-7.2,3.8-7.9c-0.9-0.6-31-15.3-45.9-12.1
					c-15,3.3-22.1,5.3-27,12.6c-4.9,7.3-5,3.3-5.9,10.4C-4481-3731.3-4483-3699.9-4476.5-3695.7z"/>
				<path id="_xD83D__xDD8D_-Ink21" class="st1" d="M-4426.4-3650.2c-6.3,0.7-13.7-0.9-17.9-6.6c-0.1-0.2-0.2-0.4-0.2-0.6
					c0-0.2,0.1-0.4,0.2-0.6c0.1-0.2,0.3-0.3,0.5-0.3c0.2,0,0.3,0,0.5,0.1l0.4,0.2c2.9,1.8,5.8,3.3,9.1,3.9c3.3,0.7,6.7,0.6,10-0.3
					c6-1.5,10.9-5.4,14.5-10.6c4-5.8,6.4-13.1,7-20.4c0.7-8.8-1-17.6-2.8-26.2c-1.9-9-3.9-18-6.3-26.8c-0.1-0.3-0.1-0.5-0.1-0.7
					c-0.7-0.3-1.4-0.2-2.2,0.1c-1.4,0.5-2.7,1.7-3.8,2.6c-0.4,0.3-0.8,0.7-1.1,0.9c-1.4,1.1-2.9,1.8-4.6,2c-1.8,0.1-3.5-0.5-5.1-1.3
					c-0.8-0.4-1.6-0.8-2.4-1.2c-2.3-1.2-4.6-2.3-7-3c-3.3-1-6.7-1.5-10.2-1.5c-6.1,0.1-12.3,1.8-16,7.6c-1.5,2.3-2.5,5-1.7,7.9
					c0.4,1.6,1.2,3,2.1,4.3l0.3,0.4c0.5,0.7,0.9,1.4,1,2.2c0.1,0.6,0,1.3-0.4,2.1c-0.3,0.5-0.6,0.9-0.9,1.3
					c-0.2,0.3-0.5,0.6-0.7,0.9c-0.4,0.7-0.8,1.4-1.1,2.1c-0.6,1.4-0.8,3-0.9,4.5c-0.1,1.9,0.2,3.7,0.4,5.6c0.2,1.3,0.3,2.6,0.4,3.9
					c0,0.2-0.1,0.4-0.1,0.5c-0.1,0.2-0.3,0.3-0.4,0.3c-0.1,0-0.1,0-0.2,0c0,0.1,0.1,0.3,0.1,0.4c-0.1-0.2-0.2-0.3-0.4-0.5
					c0,0,0,0,0,0c-0.1-0.1-0.2-0.2-0.3-0.4c-0.2-0.2-0.4-0.4-0.6-0.5c-1-0.9-2.3-1.4-3.5-1.4c-1.2,0-2.4,0.4-3.3,1.4
					c-1.8,1.9-2.3,5-2.4,7.6c0,2.7,0.5,5.9,2.6,7.6c0.8,0.7,1.9,1.1,2.9,1.1c0.9,0,1.7-0.3,2.5-0.7c0.2-0.1,0.5-0.2,0.7-0.3
					c0.3-0.1,0.5-0.1,0.8,0c0.3,0.1,0.5,0.3,0.6,0.5c0.2,0.2,0.3,0.5,0.3,0.8c0,0.3,0,0.6-0.1,0.9c0,0.1-0.1,0.1-0.1,0.2l0.5,0.8
					c1.8,3.2,3.6,6.4,5.9,9.2c1.4,1.6,2.8,3.1,4.4,4.4l0.2,0.2c0.1,0.1,0.3,0.2,0.4,0.4c0.5,0.4,1,1,1.5,1c0.2,0,0.3,0,0.4,0
					c0.3,0,0.5-0.1,0.8,0.1c0.2,0.1,0.4,0.3,0.6,0.6c0.1,0.2,0.2,0.5,0.2,0.8c0,0.3-0.1,0.6-0.2,0.8c-0.3,0.5-0.6,0.8-0.9,1
					c-0.4,0.2-0.8,0.2-1.3,0.1c-1.1-0.2-2.3-1.3-3.1-1.9l-0.2-0.1c-1.7-1.5-3.4-3.1-4.8-4.9c-2.5-3.1-4.7-6.8-5.8-10.8
					c-0.8,0.6-1.8,0.9-2.8,0.9c-1.5,0.1-3.1-0.4-4.3-1c-2.6-1.4-4.2-4-4.9-6.9c-0.9-3.5-0.6-7.4,0.5-10.5c0-0.1,0.1-0.2,0.1-0.3
					c-3.3-9.4-4.4-19.9-4.1-29.9c0.1-4.7,0.4-9.6,1.4-14.2c0.4-2.1,1.2-4,2.5-5.6c0.7-0.9,1.6-1.6,2.4-2.4c0.8-0.6,1.5-1.2,2.1-2
					l0.3-0.4c0.1-0.1,0.1-0.2,0.2-0.2c1.1-1.4,2.2-2.7,3.5-3.8c1.5-1.3,3.2-2.3,5-3.1c3.8-1.8,7.9-2.9,12-3.7
					c8.8-1.8,17.8-1.9,26.5,0.6c4,1.2,8,2.8,11.9,4.4c0.4,0.1,0.7,0.3,1.1,0.4c3,1.2,6.1,2.5,9.1,3.7c1.4,0.6,2.8,1.2,4.2,1.7
					c0.3,0.1,0.6,0.4,0.8,0.7c0.2,0.3,0.2,0.7,0.1,1.1c-0.9,2.5-2,4.8-3.3,6.9c0.5,0.4,0.9,0.8,1.2,1.4c0.4,0.7,0.6,1.5,0.6,2.4
					c0.1,2.9-2.3,4.9-4.3,6.3c-0.2,0.1-0.4,0.2-0.5,0.2c1.9,8.1,3.7,16.3,5.3,24.5l0.1,0.6c1.6,8.6,2.6,17.4,1.1,26.1
					c-1.3,7.5-4.3,14.8-9,20.4C-4413.5-3654.5-4419.7-3651-4426.4-3650.2z M-4467.8-3699.8c-0.8-2.9-1.3-6.1-0.9-9
					c0.2-1.9,0.7-3.6,1.5-5.3c0.5-0.9,1-1.8,1.7-2.6l0.2-0.3c0.1-0.1,0.2-0.3,0.2-0.4c0-0.1,0-0.2-0.1-0.3c-0.1-0.3-0.3-0.5-0.5-0.8
					c-0.1-0.2-0.2-0.3-0.4-0.5c-1.8-2.7-3.1-6-2.7-9.4c0.4-3.4,2.4-6.5,4.5-8.9c4.6-5.2,11.8-6.4,18.1-6.1c3.7,0.2,7.3,0.9,10.8,2.1
					c1.7,0.6,3.4,1.4,5,2.2l0.4,0.2c0.2,0.1,0.4,0.2,0.6,0.3c1.3,0.7,2.6,1.4,3.9,1.8c2.7,0.7,4.5-0.8,6.5-2.4
					c0.7-0.5,1.3-1.1,2-1.6l0.1-0.1c1.3-0.8,2.8-1.4,4.3-1.4c1.3,0,2.5,0.5,3.5,1.6c0.2,0.2,0.3,0.5,0.4,0.7
					c0.1,0.2,0.2,0.4,0.3,0.6c0.4,1.5,0.7,3,1.1,4.6l0.3-0.2c0.9-0.6,1.8-1.4,2.2-2.4c0.2-0.4,0.1-1.1-0.1-1.6
					c-0.1-0.2-0.2-0.3-0.3-0.4c-0.1-0.1-0.2-0.1-0.3-0.1c-0.3,0-0.6,0-0.9-0.1c-0.3-0.1-0.5-0.4-0.7-0.6c-0.2-0.3-0.2-0.6-0.2-1
					c0-0.3,0.1-0.6,0.4-0.9c1.5-1.9,2.7-4,3.7-6.3l-6.3-2.6c-2.2-0.9-4.5-1.8-6.7-2.8l-1.2-0.5c-4.1-1.7-8.2-3.3-12.4-4.4
					c-8.4-2.1-17.2-1.6-25.6,0.4l-0.5,0.1c-3.5,0.9-7.1,1.9-10.3,3.7c-1.6,0.9-3.1,2-4.4,3.3c-0.6,0.6-1.1,1.3-1.6,1.9
					c-0.7,0.9-1.5,1.8-2.3,2.6l-0.8,0.7c-1.2,1.1-2.3,2.1-2.9,3.8c-0.7,1.7-1,3.7-1.3,5.5c-0.7,4.7-1,9.5-0.9,14.3
					c0,8,1.1,15.9,2.5,23.7c1.1-1.8,2.7-3.1,4.7-3.4c1.3-0.2,2.6,0.1,3.7,0.7C-4468.9-3700.9-4468.3-3700.4-4467.8-3699.8z
					 M-4469.9-3690.3c-1.5-0.6-3-0.8-4.5-0.5c-0.2,0-0.3,0-0.4-0.1c-0.1-0.1-0.2-0.2-0.3-0.4c-0.1-0.2-0.1-0.4,0-0.5
					c0-0.1,0.1-0.3,0.3-0.4c1.7-0.9,3.5-1.3,5.4-1l0.2,0c0.9,0.2,2.3,0.5,3.3,1.1c0.8,0.5,1.3,1.2,1.5,2.1c0.1,0.5,0,1-0.3,1.3
					c-0.2,0.3-0.6,0.6-1.1,0.6c-0.8,0-1.3-0.4-1.9-0.9c-0.1-0.1-0.1-0.1-0.2-0.2C-4468.6-3689.6-4469.2-3690-4469.9-3690.3z"/>
			</g>
		</g>
	</g>
	<g id="Calm.svg8" transform="matrix(0.319302,0,0,0.285977,1468.43,1117.39)" class="st3">
		<g transform="matrix(1,0,0,1,-144.5,-146.5)" class="st4">
			<g id="face-Calm8">
				<path id="_xD83D__xDD8D_-Ink22" class="st1" d="M-4313.5-3651.9c-1.6,0.5-3.3,0.6-5,0c-1.5-0.5-3-1.6-4.1-3
					c-1-1.3-1.6-2.8-1.6-4.4c0-0.2,0.1-0.3,0.2-0.5c0.1-0.1,0.2-0.2,0.4-0.3c0.2,0,0.3,0,0.4,0c0.1,0.1,0.2,0.2,0.3,0.3
					c0.2,0.2,0.3,0.5,0.5,0.7c1.3,1.9,2.7,3.3,4.7,3.8c1.1,0.3,2.2,0.2,3.2-0.3c1.1-0.4,2.1-1.2,2.8-2.2c0.3-0.4,0.8-0.6,1.2-0.6
					c0.5,0,0.9,0.2,1.2,0.6c0.3,0.4,0.6,0.9,0.6,1.4c0,0.5-0.1,0.9-0.5,1.4C-4310.4-3653.5-4311.9-3652.5-4313.5-3651.9z
					 M-4313.6-3675.2c1.6,1.1,4.2,3.7,2.4,6.5c-2.1,2.4-5.1-0.4-6.6-1.6c-1.4-1-2.9,1.5-1.6,2.7c10.7,8.8,15-7.3,6.7-8.9
					C-4313.7-3676.7-4314-3675.6-4313.6-3675.2z M-4329-3680.1c-0.5-0.4-1.2-0.5-1.8-0.2c-0.5,0.3-1.5,1.2-2.1,2.4
					c-0.5,0.8-0.8,1.8-0.7,2.8c0,0.2-0.1,0.4-0.2,0.5c-0.1,0.1-0.2,0.2-0.4,0.2c-0.1,0-0.3,0-0.4,0c-0.2-0.1-0.4-0.3-0.4-0.4
					c-0.5-1.4-0.3-2.9,0.3-4.3c0.7-1.9,2-3.4,2.8-3.9c1.4-0.9,3.1-0.9,4.5,0c1.2,0.7,2,1.9,2.7,3.2c0.2,0.3,0.3,0.5,0.5,0.8
					c0.3,0.5,0.4,1,0.2,1.4c-0.1,0.5-0.5,0.9-0.9,1.1c-0.4,0.2-0.9,0.2-1.3,0c-0.4-0.2-0.7-0.5-0.9-1.1
					C-4327.6-3678.5-4328.2-3679.6-4329-3680.1z M-4302.1-3678c-0.4,0.2-0.6,0.3-1,0.1c-0.2-0.1-0.4-0.2-0.6-0.4
					c-0.2-0.2-0.3-0.4-0.3-0.7c-0.1-0.6-0.4-1.3-0.9-1.6c-0.4-0.3-0.9-0.5-1.4-0.4c-0.6,0.1-1.1,0.5-1.5,1c-0.1,0.2-0.2,0.4-0.3,0.5
					c-0.2,0.3-0.4,0.7-0.6,0.9c-0.1,0.1-0.2,0.2-0.4,0.2c-0.1,0-0.1,0-0.2,0c-0.6-0.7-0.7-1.1-0.7-1.6c0-0.5,0.2-1,0.5-1.5
					c0.7-1.1,2-2.1,2.9-2.3c1.2-0.3,2.4,0.1,3.4,0.8c1,0.8,1.7,2,2,3.3c0.1,0.3,0,0.7-0.1,1
					C-4301.6-3678.5-4301.8-3678.2-4302.1-3678z M-4326.3-3692.3c-0.7,0.8-1.6,0.9-2.4,1c-0.5,0.1-0.9,0.1-1.2,0.2
					c-1,0.3-2.1,0.7-3,1.2c-1,0.6-2,1.3-2.8,2.2c-0.2,0.2-0.4,0.4-0.5,0.7c-0.2,0.2-0.3,0.4-0.5,0.6c-0.2,0.2-0.4,0.5-0.5,0.7
					c-0.1,0.2-0.1,0.2-0.1,0.3c0,0.1-0.1,0.2-0.1,0.3c-0.1,0.1-0.1,0.3-0.2,0.4c-0.1,0.2-0.2,0.3-0.2,0.3c-0.1,0-0.2,0.1-0.3,0.1
					c-0.1,0-0.2-0.1-0.2-0.1c-0.4-0.4-0.5-0.9-0.5-1.5c0-0.9,0.3-2,0.6-2.6c0.7-1.5,1.6-3,2.7-4.1c1.2-1.2,2.6-2.2,4.2-2.8
					c1-0.4,2.1-0.8,3.2-0.7c0.8,0,1.5,0.3,2.1,0.9c0.4,0.4,0.5,0.9,0.5,1.5C-4325.8-3693.2-4325.9-3692.7-4326.3-3692.3z
					 M-4300.6-3685.1c0,0.1-0.1,0.1-0.2,0.2c-0.1,0-0.2,0-0.2,0c-0.1,0-0.2-0.1-0.2-0.1c-0.1-0.1-0.1-0.1-0.1-0.2
					c-0.5-2.4-1.4-4.1-3.4-5.2c-1-0.6-2.1-0.9-3.2-1.2c-0.3-0.1-0.6-0.1-1-0.2c-1-0.2-2.1-0.4-2.8-1.3c-0.4-0.6-0.6-1.3-0.5-1.9
					c0.1-0.6,0.4-1.2,1-1.5c1.5-0.8,3.3,0,4.8,0.7c0.1,0.1,0.2,0.1,0.3,0.2c1.4,0.7,2.8,1.6,3.9,2.9c0.9,1,1.7,2.5,2,4.1
					C-4300-3687.5-4300-3686.2-4300.6-3685.1z"/>
			</g>
		</g>
	</g>
</g>
<g class="st3">
	<g transform="matrix(0.4441,0,0,0.39775,-345.369,-236.477)" class="st4">
		<g id="Gray-Short.svg" transform="matrix(0.681216,0,0,0.681216,1361.69,1133.76)">
			<g transform="matrix(1,0,0,1,-236.5,-283.5)">
				<g id="head-mono-Gray-Short">
					<path id="_xD83D__xDD8D_-Ink" class="st5" d="M-473.8-374.7c-6.3,0.7-13.7-0.9-17.9-6.6c-0.1-0.2-0.2-0.4-0.2-0.5
						c0-0.2,0.1-0.4,0.2-0.6c0.1-0.2,0.3-0.3,0.5-0.3c0.2,0,0.3,0,0.5,0.1l0.4,0.2c2.9,1.8,5.8,3.3,9.1,3.9c3.3,0.7,6.7,0.6,10-0.2
						c6-1.5,10.9-5.4,14.5-10.6c4-5.8,6.4-13,7-20.4c0.7-8.9-1-17.6-2.8-26.2c-1.9-9-3.9-18-6.3-26.8c-0.1-0.3-0.1-0.5-0.1-0.8
						c-0.7-0.3-1.5-0.2-2.2,0.1c-1.4,0.5-2.7,1.7-3.8,2.6c-0.4,0.3-0.8,0.7-1.1,0.9c-1.4,1.1-2.9,1.8-4.6,2
						c-1.8,0.1-3.5-0.5-5.1-1.3c-0.8-0.4-1.6-0.8-2.4-1.2c-2.3-1.1-4.5-2.3-7-3c-3.3-1-6.7-1.5-10.2-1.5c-6.1,0.1-12.3,1.8-16,7.6
						c-1.5,2.3-2.5,5-1.7,7.9c0.4,1.6,1.2,3,2.1,4.3l0.3,0.5c0.5,0.7,0.9,1.4,1,2.2c0.1,0.6,0,1.3-0.4,2.1c-0.3,0.5-0.6,0.9-0.9,1.3
						c-0.2,0.3-0.5,0.6-0.7,0.9c-0.4,0.6-0.8,1.4-1.1,2.1c-0.6,1.4-0.8,3-0.8,4.5c-0.1,1.9,0.2,3.7,0.4,5.6c0.2,1.3,0.3,2.6,0.4,3.9
						c0,0.2,0,0.4-0.1,0.5c-0.1,0.2-0.3,0.2-0.5,0.3c0,0-0.1,0-0.2,0c0,0.1,0,0.2,0.1,0.4c-0.1-0.2-0.2-0.3-0.4-0.5c0,0,0,0,0,0
						c-0.1-0.1-0.2-0.2-0.3-0.4c-0.2-0.2-0.4-0.4-0.6-0.5c-1-0.9-2.3-1.4-3.5-1.4c-1.2,0-2.4,0.4-3.3,1.4c-1.8,1.9-2.3,5-2.4,7.6
						c0,2.7,0.5,5.9,2.6,7.6c0.8,0.7,1.9,1.1,2.9,1.1c0.9,0,1.7-0.3,2.5-0.6c0.2-0.1,0.5-0.2,0.8-0.3c0.3-0.1,0.5-0.1,0.8,0
						c0.2,0.1,0.5,0.3,0.6,0.5c0.2,0.2,0.3,0.5,0.3,0.8c0,0.3,0,0.6-0.1,0.9c0,0.1-0.1,0.1-0.1,0.2l0.5,0.9c1.8,3.2,3.6,6.4,5.9,9.2
						c1.4,1.6,2.8,3.1,4.4,4.4l0.2,0.2c0.1,0.1,0.3,0.2,0.5,0.4c0.5,0.4,1,1,1.5,1c0.1,0,0.3,0,0.4,0c0.3,0,0.5-0.1,0.8,0
						c0.2,0.1,0.4,0.2,0.6,0.6c0.1,0.2,0.2,0.5,0.2,0.8c0,0.3-0.1,0.6-0.2,0.8c-0.3,0.5-0.6,0.8-0.9,1c-0.4,0.2-0.8,0.2-1.3,0.1
						c-1.1-0.2-2.3-1.3-3.1-1.9l-0.1-0.1c-1.7-1.5-3.4-3.1-4.8-4.9c-2.5-3.1-4.7-6.8-5.8-10.8c-0.8,0.6-1.8,0.9-2.8,0.9
						c-1.5,0.1-3.1-0.4-4.3-1c-2.6-1.4-4.2-4-4.9-6.9c-0.8-3.5-0.6-7.4,0.5-10.5c0-0.1,0.1-0.2,0.1-0.3c-3.3-9.4-4.3-19.9-4.1-29.9
						c0.1-4.7,0.4-9.6,1.4-14.2c0.5-2.1,1.2-4,2.5-5.6c0.7-0.9,1.6-1.6,2.4-2.4c0.8-0.6,1.5-1.2,2.1-2l0.3-0.4
						c0.1-0.1,0.1-0.2,0.2-0.2c1.1-1.4,2.2-2.7,3.5-3.8c1.5-1.3,3.2-2.3,5-3.1c3.8-1.8,7.9-2.9,12-3.7c8.8-1.8,17.8-1.9,26.5,0.6
						c4,1.2,8,2.8,11.9,4.4c0.4,0.1,0.7,0.3,1.1,0.5c3,1.2,6.1,2.5,9.1,3.7c1.4,0.6,2.8,1.2,4.2,1.7c0.3,0.1,0.6,0.4,0.8,0.7
						c0.2,0.3,0.2,0.7,0.1,1.1c-0.9,2.5-2,4.8-3.3,6.9c0.5,0.4,0.9,0.8,1.1,1.4c0.4,0.7,0.6,1.5,0.6,2.4c0,2.9-2.3,4.9-4.3,6.3
						c-0.2,0.1-0.4,0.2-0.5,0.2c1.9,8.1,3.7,16.3,5.3,24.5l0.1,0.6c1.6,8.6,2.6,17.4,1.1,26.1c-1.3,7.5-4.3,14.8-9,20.4
						C-460.9-378.9-467.1-375.4-473.8-374.7z M-515.2-424.2c-0.8-2.9-1.3-6.1-0.9-9c0.2-1.9,0.7-3.6,1.5-5.3c0.5-0.9,1-1.8,1.7-2.6
						l0.2-0.3c0.1-0.1,0.2-0.3,0.2-0.4c0-0.1,0-0.2,0-0.3c-0.1-0.3-0.3-0.5-0.5-0.8c-0.1-0.2-0.2-0.3-0.3-0.5
						c-1.8-2.7-3.2-6-2.7-9.4c0.4-3.4,2.4-6.5,4.5-8.9c4.6-5.2,11.8-6.4,18.1-6.1c3.7,0.2,7.3,0.9,10.8,2.1c1.7,0.6,3.4,1.4,5,2.2
						l0.4,0.2c0.2,0.1,0.4,0.2,0.6,0.3c1.3,0.7,2.6,1.4,4,1.8c2.7,0.7,4.5-0.8,6.5-2.4c0.7-0.5,1.3-1.1,2-1.6l0.1-0.1
						c1.3-0.8,2.8-1.4,4.3-1.4c1.3,0,2.5,0.5,3.5,1.6c0.2,0.2,0.3,0.5,0.4,0.7c0.1,0.2,0.2,0.4,0.3,0.6c0.4,1.5,0.7,3,1.1,4.5
						l0.3-0.2c0.9-0.6,1.8-1.4,2.2-2.4c0.2-0.4,0.1-1.1-0.1-1.6c-0.1-0.2-0.2-0.3-0.3-0.4c-0.1-0.1-0.2-0.1-0.4-0.1
						c-0.3,0-0.6,0-0.9-0.1c-0.3-0.1-0.5-0.4-0.7-0.6c-0.2-0.3-0.2-0.6-0.2-1c0-0.3,0.1-0.6,0.4-0.9c1.5-1.9,2.7-4,3.7-6.3l-6.3-2.6
						c-2.2-0.9-4.5-1.9-6.7-2.8l-1.2-0.5c-4.1-1.7-8.2-3.3-12.4-4.4c-8.4-2.1-17.2-1.6-25.6,0.4l-0.5,0.1c-3.5,0.9-7.1,1.9-10.3,3.7
						c-1.6,0.9-3.1,2-4.4,3.3c-0.6,0.6-1.1,1.3-1.6,1.9c-0.7,0.9-1.5,1.8-2.3,2.6l-0.8,0.7c-1.2,1.1-2.3,2.1-2.9,3.8
						c-0.7,1.7-1,3.7-1.3,5.5c-0.7,4.7-1,9.5-0.9,14.3c0,8,1.1,15.9,2.5,23.7c1.1-1.8,2.7-3.1,4.7-3.4c1.3-0.2,2.6,0.1,3.7,0.7
						C-516.2-425.3-515.7-424.8-515.2-424.2z M-517.2-414.7c-1.5-0.6-3-0.8-4.5-0.5c-0.2,0-0.3,0-0.4-0.1c-0.1-0.1-0.2-0.2-0.3-0.4
						c-0.1-0.2-0.1-0.4,0-0.5c0-0.1,0.1-0.3,0.3-0.4c1.7-0.9,3.5-1.3,5.4-1l0.2,0c0.9,0.2,2.3,0.5,3.3,1.1c0.8,0.5,1.3,1.2,1.5,2.1
						c0.1,0.5,0,1-0.3,1.3c-0.2,0.4-0.6,0.6-1.1,0.6c-0.8,0-1.3-0.4-1.9-0.9c-0.1-0.1-0.2-0.1-0.2-0.2
						C-516-414-516.6-414.4-517.2-414.7z"/>
				</g>
			</g>
		</g>
		<g id="Eyes-Closed.svg" transform="matrix(0.734096,0,0,0.734096,1398.38,1156.31)">
			<g transform="matrix(1,0,0,1,-144.5,-146.5)">
				<g id="face-Eyes-Closed">
					<path id="_xD83D__xDD8D_-Ink1" class="st5" d="M-558.4-520.4l0.2,0c1.2-0.3,2.4-0.8,3.5,0.1c1.1,0.8,1.2,2.3,0.4,3.3
						c-0.9,1.1-2,1-3.2,1h-0.1c-1,0-2,0-3-0.1c-0.9-0.1-1.9-0.2-2.8-0.4l-0.5-0.1c-0.5-0.1-1.1-0.3-1.4-0.9c-0.5-1,3.2-1.9,3.6-2
						C-560.6-519.9-559.5-520.1-558.4-520.4z M-556.3-533c-0.6,0.7-1.4,1.2-2.2,1.4c-2.2,0.7-5,0.3-6.8-0.4
						c-0.4-0.2-0.7-0.5-0.9-0.9c-0.2-0.4-0.2-0.8-0.1-1.2c0-0.1,0.1-0.2,0.1-0.4c0.1-0.3,0.4-0.6,0.7-0.7c0.3-0.2,0.7-0.2,1-0.1
						c0,0,0.1,0,0.1,0c1.1,0.4,3,1.1,4.5,0.9c0.9-0.1,1.7-0.4,2.2-1.4c0.2-0.5,0.2-1,0-1.4c-0.3-0.7-0.9-1.3-1.4-1.7
						c-0.7-0.6-1.5-0.8-2.2-1c-0.3-0.1-0.6-0.2-0.9-0.3c-0.1,0-0.2-0.1-0.2-0.2s-0.1-0.2-0.1-0.3s0-0.2,0-0.3c0-0.1,0.1-0.2,0.2-0.2
						c1.5-0.8,3.5-0.3,5,0.9c0.7,0.6,1.4,1.4,1.7,2.2c0.3,0.8,0.5,1.7,0.4,2.6C-555.4-534.4-555.8-533.6-556.3-533z M-581.3-550
						c0.4-0.2,0.8,0.8,0.9,1l0.2,0.6c0.3,0.9,0.6,1.8,1.3,2.5c0.5,0.6,1.4,1,2,0.4c0.6-0.6,0.3-1.3,0.4-2.1c0.2-1.4,1.8-2.8,2.8-1.3
						c2.3,3.2-1.2,7.8-4.5,7c-1.7-0.4-3-1.9-3.5-3.6l0-0.1C-582.2-546.8-582.5-549.4-581.3-550z M-551.9-547.7L-551.9-547.7
						c-1.1-2.8,2.8-4,3.1-1.5l0,0.2c0.3,2.8-0.3,6.5-3.4,6.7c-3.4,0.3-4.8-3.9-4.5-7c0-0.5,0.7-0.6,0.8-0.1l0,0.1
						c0.5,1.6,1.1,4.5,3,4.5C-551.4-544.8-551.5-546.7-551.9-547.7z M-549.4-555.7c2-0.1,1.9,3.3,0,3.4c-6.5,0.2-13,0.4-19.5,0.4
						l-1.2,0c-6.1,0-12.2,0.1-18.3-0.4c-0.5,0-0.4-0.9,0-0.8c6.4-1,12.8-1.3,19.3-1.7C-562.5-555.2-556-555.4-549.4-555.7z"/>
				</g>
			</g>
		</g>
	</g>
</g>
</svg>
