<?xml version="1.0" encoding="utf-8"?>
<!-- Generator: Adobe Illustrator 24.2.0, SVG Export Plug-In . SVG Version: 6.00 Build 0)  -->
<svg version="1.1" id="图层_1" xmlns="http://www.w3.org/2000/svg" xmlns:xlink="http://www.w3.org/1999/xlink" x="0px" y="0px"
	 viewBox="0 0 85 85" style="enable-background:new 0 0 85 85;" xml:space="preserve">
<style type="text/css">
	.st0{fill-rule:evenodd;clip-rule:evenodd;fill:#FFFFFF;}
	.st1{fill-rule:evenodd;clip-rule:evenodd;}
	.st2{display:none;}
	.st3{display:inline;}
	.st4{fill-rule:evenodd;clip-rule:evenodd;fill:#040000;}
</style>
<g transform="matrix(1,0,0,1,-261.086,-19.0106)">
	<g transform="matrix(1.03026,0,0,1.03026,-51.5799,-25.4494)">
		<g transform="matrix(0.4441,0,0,0.39775,0,0)">
			<path class="st0" d="M762.1,182.5c0,0,4.8,13.5-5.2,21.6l-0.5-3.8l-8.5-0.6l-0.3,2c0,0-9.8,0.5-15.1,3.9c0,0-7.1-4.5-21.1,3.2
				c0,0,1-39.5,1.2-40.1c0.2-0.6,3.5-3.5,6.5-5.1c2.9-1.6,5.8-4.8,6.4-9.1c0.6-4.3-0.1-4.1-0.1-4.1s4.8-7-0.7-5.3
				c0,0-0.1-6.1-3.2-3.6c0,0-0.1-3.4-4-1.2c0,0-1.4-2.6-6.5,1.1c-5.1,3.7-7.8,6.3-8.5,8.3c-0.7,2-0.4,12.1-0.4,14.6
				c0,2.5-5,18.8-5.6,27.8c-0.6,9-5.7,18.4-1.1,28.1c0,0,0.1,2.8,3.2,3.6c3.1,0.8,11.5,2.8,18.4,2.5c6.9-0.3,14.8-2.2,16.3-0.9
				c1.5,1.4,6.5,10.6,5.9,18.3c-0.6,7.7-4.9,48.2-4.6,55.4c0.2,4.7,7.2,7,36.8,6.6c26.7-0.4,40-0.7,40.4-1.4c0,0-3.3-50.2-0.4-62.1
				c0,0-2.3-0.6-2.2-1.4c0.1-0.9,2.7-10.5,5.6-12c3-1.5,28.6,2.3,37.3-3.1c5.3-3.3,0.1-28.2-0.4-33.4c-0.5-5.1-6.1-20.7-5.7-24.7
				c0.4-3.8,0.1-11.9,0.2-13.9c0.1-2-8.1-11.1-14.1-11.7l-1.2,1.4c0,0-2.4-1.8-3.4-0.8c-1.1,1.1-0.5,1.7-0.5,1.7s-2.3-1.8-3-0.2
				c-0.7,1.6-0.6,3.7-0.6,3.7s-1.3-0.8-2.3,0.3c-1,1.1,2,5.4,2,5.3c-0.1,0-1.2,5.5,0.7,8.8c1.9,3.3,11.7,7.9,12.1,9.3
				c0.4,1.3-0.4,34.7,2.2,39.5c2.6,4.9-11.2-8.7-21.6-2.5c0,0-12.9-4.5-17.5-4.1c0,0,1.1-2.3-2.1-2.4c-3.2-0.1-5.3-0.3-5.3-0.3
				l-0.3,2.8c0,0-6.8,2.6-8.5-1.4c-1.7-4-0.1-13.3-0.1-13.6C783.1,189.1,776.5,181,762.1,182.5z"/>
		</g>
		<g transform="matrix(0.4441,0,0,0.39775,0,0)">
			<path class="st1" d="M762.8,186.4c0-0.1,0-0.2,0-0.2c-0.1-0.5-0.4-0.5-0.5-0.5c-0.1,0-0.2,0.3-0.4,0.8c-0.1,0.2-0.2,0.2-0.3,0.5
				c0,0.1,0,0.1,0,0.2c0,1.4,0.1,3.9,0,4.7c-0.2,2-0.7,4.1-1.6,6c-0.4,0.9-1,1.7-1.6,2.5c-0.6,0.7-1.2,1.4-2,1.9
				c-0.4,0.2-0.6,0.8-0.4,1.3c0.2,0.5,0.7,0.7,1.2,0.4c1-0.5,1.9-1.1,2.7-1.9c0.5-0.5,0.9-1.2,1.3-1.9c1.4-2.4,2.1-5.4,2.3-8.2
				c0-0.8-0.3-3.5-0.4-4.9c0-0.1,0-0.1,0-0.2C763,186.6,762.8,186.6,762.8,186.4L762.8,186.4z"/>
		</g>
		<g transform="matrix(0.4441,0,0,0.39775,0,0)">
			<path class="st1" d="M782.7,193.6c-0.5-0.4-0.9-0.1-1.3,0.5c-0.3,0.4-0.4,1.3-0.4,2.3c-0.1,1.7,0.2,4,0.5,5.5
				c0.2,0.8,0.4,1.4,0.5,1.6c0.7,1.3,1.7,2,2.8,2.3c1.4,0.4,3.1,0.2,4.5,0.1c0.5,0,1-0.5,0.9-1.1c0-0.6-0.5-1.1-1-1
				c-1.2,0-2.7,0.1-3.9-0.2c-0.6-0.2-1.2-0.5-1.6-1.2c-0.2-0.4-0.6-2.3-0.9-4.1c-0.2-1.2-0.3-2.3-0.3-3.1c0-0.2-0.1-0.5,0-0.5
				c0.1,0-0.1-0.1-0.1-0.1s0-0.1,0-0.1c0.2,0.1,0.4-0.1,0.4-0.3C783,193.8,782.9,193.6,782.7,193.6z"/>
		</g>
		<g transform="matrix(0.4441,0,0,0.305859,0,166.98)">
			<path class="st1" d="M756.6-285.6c-0.4,0-0.6,0.3-0.8,0.8c-0.2,0.4-0.4,0.7-0.5,1.5c0,0.3,0,0.6,0,1c0.2,3.3,1.7,9,1.9,11.1
				c0.6,5.2,2.7,10.7,5.7,15.1c2.8,4,6.4,7.1,10.4,8.4c5.2,1.7,9.3-2.3,12.4-8.5c2.3-4.7,4-10.7,5.1-16.2c0.9-4.7,1.4-9,1.6-11.6
				c0-0.6-0.2-1.1-0.6-1.2c-0.4-0.1-0.8,0.4-0.8,0.9c-0.2,2.5-0.9,6.6-1.9,11c-1.1,5.1-2.8,10.8-5,15.2c-2.6,5.1-5.9,8.6-10.2,7.1
				c-3.6-1.2-6.9-4-9.4-7.5c-2.8-3.9-4.7-8.7-5.4-13.4c-0.3-2.2-1.7-7.8-2.1-11c0-0.3,0-0.5-0.1-0.7c-0.1-0.3-0.2-0.4-0.3-0.7
				c0-0.1-0.1-0.2-0.1-0.3c0,0,0-0.1,0.1-0.1c0.2,0,0.4-0.2,0.4-0.5C756.9-285.3,756.8-285.5,756.6-285.6z"/>
		</g>
		<g transform="matrix(0.4441,0,0,0.39775,0,0)">
			<path class="st1" d="M793.8,202C793.8,202,793.8,202,793.8,202c0.3,0,0.8,0.3,1.5,0.5c1,0.2,2.3,0.4,3.1,0.5
				c-0.1,1.4-0.7,3.9-0.7,4.3c-0.5,6.1-0.8,15.7,1.5,23.2c1.7,5.5,4.7,9.8,9.8,11.1c0.4,0.1,0.8-0.2,0.9-0.7
				c0.1-0.5-0.2-0.9-0.6-1.1c-4.4-1.2-6.9-5.2-8.3-10.1c-2.1-7.3-1.7-16.5-1.3-22.3c0-0.4,0.5-2.8,0.6-4.2c0.1-0.9-0.1-1.6-0.3-1.8
				c0,0-0.3-0.4-1-0.4c-0.7,0-2.3-0.2-3.5-0.1c-0.7,0.1-1.3,0.3-1.6,0.3c-0.1,0-0.2,0-0.2,0c-0.3,0-0.3,0.3-0.3,0.4
				c0,0.1,0,0.3,0.2,0.4C793.6,202.1,793.7,202.1,793.8,202z"/>
		</g>
		<g transform="matrix(0.4441,0,0,0.39775,0,0)">
			<path class="st1" d="M756.3,199.3c-0.1,0-0.4-0.1-0.7-0.1c-1.4,0-3.8-0.2-5.2-0.3c-0.2,0-0.4,0-0.6,0c-0.1,0-0.3,0-0.4,0
				c-0.2,0.1-0.3,0.2-0.4,0.2c0,0,0,0,0,0.1c-0.1,0-0.2,0-0.2,0c-0.1,0-0.1,0-0.1,0c-0.2,0-0.2,0.2-0.2,0.2c-0.1,0.1,0,0.3,0.1,0.5
				c0,0,0.1,0,0.3,0.2c0.1,0.1,0.1,0.3,0.4,0.5c0.1,0.1,0.3,0.1,0.4,0.2c1.1,0.3,3.1,0.6,4.7,0.7c0.5,0,1,0,1.5,0
				c0.5-0.1,0.8-0.2,1.1-0.3c0.7-0.3,1-0.8,1-1.3c0-0.5-0.3-1-0.8-1.1C756.8,198.8,756.5,199,756.3,199.3z M756.3,199.4
				c0,0.1,0,0.1,0,0.2C756.2,199.5,756.3,199.4,756.3,199.4z M756.4,199.3C756.4,199.3,756.4,199.2,756.4,199.3
				C756.4,199.1,756.4,199.2,756.4,199.3z"/>
		</g>
		<g transform="matrix(0.4441,0,0,0.39775,0,0)">
			<path class="st1" d="M748.3,201.6c0.2,0.2,0.3,0.2,0.5,0.2c0.2,0,0.4-0.2,0.4-0.4c0-0.2-0.2-0.4-0.4-0.4c-0.1,0-0.2-0.2-0.3-0.4
				c-0.2-0.5-0.4-1.1-0.5-1.3c-0.1-0.2-0.2-0.3-0.3-0.3c-0.1,0-0.4,0-0.5,0.5c0,0.1,0,0.3,0,0.4c-0.1,0.2-0.2,0.3-0.3,0.6
				c-0.2,0.7,0,1.5,0.1,2.2c0.5,3.8,2.3,7.9,2.3,11.6c0.1,6-0.5,11.1-2,15.7c-1,2.9-2.4,5.6-4.3,8.1c-0.7,1-1.5,1.9-2.3,2.8
				c-0.5,0.6-1,1.2-1.6,1.8c-0.3,0.2-0.3,0.7-0.1,1c0.2,0.3,0.6,0.3,0.9,0.1c0.7-0.5,1.3-1.1,1.9-1.6c0.9-0.9,1.8-1.9,2.5-2.9
				c2.1-2.7,3.6-5.6,4.6-8.7c1.6-4.8,2.2-10.2,2.1-16.4c0-1-0.2-2.1-0.4-3.2c-0.6-3.1-1.9-6.2-2.4-9.2
				C748.3,201.8,748.3,201.7,748.3,201.6z"/>
		</g>
		<g transform="matrix(0.4441,0,0,0.39775,0,0)">
			<path class="st1" d="M739.9,244.7c0-0.1,0-0.2,0-0.3c0-0.1,0-0.2,0-0.3c0-0.4-0.1-0.6-0.1-0.6h0l0-0.1c-0.1-0.3-0.3-0.5-0.6-0.5
				c-0.3,0-0.5,0.3-0.5,0.6c0,0-0.1,0.4-0.1,0.9c0,0.7,0,1.6,0.1,2.1c0.2,1.4,0.1,2.9,0,4.5c-0.3,3.7-1.1,7.8-1.4,11
				c-0.6,7.7-2.5,15.7-3.2,23.6c-0.3,3.5-0.3,7,0.1,10.4c0,0.5,0.4,0.8,0.9,0.8c0.4-0.1,0.8-0.5,0.7-1c-0.3-3.3-0.1-6.7,0.2-10
				c0.7-7.9,2.6-15.9,3.2-23.6c0.2-3.2,1-7.3,1.2-11c0.1-1.8,0.1-3.4-0.2-4.9C739.9,245.9,739.9,245.3,739.9,244.7z"/>
		</g>
		<g transform="matrix(0.308661,0,0,0.39775,552.928,-0.352732)">
			<path class="st1" d="M-623.5,242.6c0.3,0,0.5-0.2,0.5-0.4c0-0.2-0.2-0.4-0.6-0.4c-0.6-0.1-1.4,0.6-1.9,1.9
				c-0.1,0.4-0.2,0.8-0.3,1.3c-0.8,3.8-0.6,10.5-0.8,12.4c-0.4,4.2-0.9,8.8-1,13.4c-0.1,3.1,0,6.2,0.4,9c0.7,4.8,1.8,9.8,2.4,14.8
				c0.3,2.6,0.5,5.3,0.5,7.9c0,0.3,0,0.7,0,1c0,0.3,0.1,0.7,0.2,1c0,0.4,0.4,0.7,0.9,0.8c0.5,0,0.9-0.3,1-0.7c0.1-0.5,0.3-1,0.4-1.5
				c0.3-2,0-4-0.1-6.1c-0.5-5.8-1.7-11.7-2.5-17.4c-0.4-2.8-0.4-5.7-0.4-8.8c0.1-4.5,0.5-9.2,0.8-13.3c0.1-1.5,0-5.7,0.2-9.3
				c0.1-1.6,0.3-3.2,0.4-4.2c0-0.5-0.1-0.9,0.1-1.2C-623.6,242.6-623.5,242.6-623.5,242.6z"/>
		</g>
		<g transform="matrix(0.4441,0,0,0.39775,0,0)">
			<path class="st1" d="M809.8,305.4C809.8,305.4,809.8,305.4,809.8,305.4l0.7,0.1c0.7-0.1,0.9-0.4,0.9-0.5c0.1-0.2,0.1-0.6-0.4-0.8
				c-0.2-0.1-1.3-0.2-2.5-0.1c-1.4,0-3.1,0.2-3.5,0.2c-3.1,0.1-6.2,0-9.3-0.1c-1.3,0-2.7,0-4,0.1c-5.1,0.3-10.2,0.4-15.2,0.5
				c-8.3,0-16.2-0.2-22.9-0.2c-3.4,0-7.7-0.3-11.1-1c-2-0.4-3.6-1-4.6-1.7c-0.3-0.2-0.5-0.5-0.7-0.7c-0.1-0.2-0.2-0.3-0.2-0.5
				c0-0.4-0.2-0.8-0.6-0.8c-0.4,0-0.7,0.3-0.7,0.7c-0.1,0.6,0,1.1,0.2,1.6c0.1,0.3,0.3,0.5,0.6,0.8c0.8,0.9,2.2,1.6,3.9,2.1
				c3.7,1.1,9.2,1.6,13.3,1.6c6.7,0,14.7,0.3,23,0.2c5.1,0,10.3-0.2,15.3-0.6c1.3-0.1,2.6-0.1,3.9-0.2c3.1,0,6.2,0,9.3-0.1
				c0.5,0,2.5-0.2,4.1-0.4C809.4,305.5,809.6,305.4,809.8,305.4z M810.6,305.3c0.1,0.1,0.1,0.2,0.2,0.1
				C810.8,305.3,810.7,305.3,810.6,305.3z"/>
		</g>
		<g>
			<g transform="matrix(-0.514202,0,0,0.39775,3740.11,-4.44587)">
				<path class="st1" d="M6628.2,212.3c0.1,0,0.2,0.1,0.3,0c0.1,0,0.2-0.1,0.3-0.2c0.1,0,0.1,0,0.2,0c1.1,0.1,2.1,0.3,3.3,0.3
					c1.3,0.1,4.5,0.7,6.9,1.6c0.7,0.3,1.3,0.5,1.8,0.8c0.5,0.4,0.9,0.8,1.2,1.2c0.3,0.4,0.3,1.1,0,1.5c-0.3,0.4-0.8,0.4-1.1,0
					c-0.2-0.2-0.5-0.3-0.8-0.5c-0.7-0.4-1.5-0.8-2.4-1.1c-2.1-0.8-4.5-1.4-5.6-1.5c-1.1-0.2-2.2-0.5-3.3-0.7c-0.1,0-0.1,0-0.2,0
					c-0.1-0.1-0.2-0.2-0.3-0.3c-0.1,0-0.2,0-0.3,0c-0.2,0-0.4-0.3-0.4-0.6C6627.7,212.4,6627.9,212.2,6628.2,212.3z"/>
			</g>
			<g transform="matrix(-0.514202,0,0,0.39775,3740.11,-4.44587)">
				<path class="st1" d="M6636.6,221.2c-0.5,1-0.9,0.6-0.6-0.4c0,0,0-0.1,0-0.1l0,0c0.1-0.3,0.2-0.6,0.4-0.9
					c0.2-0.3,0.4-0.6,0.6-0.9c0.5-0.6,1-1.2,1.2-1.3c1-0.6,2-1.2,3-1.6c1-0.4,2-0.8,3.1-1.1c2.8-0.7,4.8-0.7,6.4-0.3
					c2.4,0.6,3.9,2.1,6.1,3.1c0.7,0.3,1.5,0.7,2.5,0.8c0.4,0,0.7,0.5,0.7,1c0,0.5-0.4,0.9-0.8,0.9c-1.1-0.1-2.1-0.3-2.9-0.6
					c-2.1-0.9-3.5-2.5-5.8-3.2c-1.4-0.4-3.2-0.5-5.8,0.1c-1,0.2-2,0.6-3,0.9c-1,0.4-1.9,0.9-2.9,1.4c-0.2,0.1-0.9,1-1.5,1.5
					c-0.2,0.2-0.4,0.2-0.5,0.3L6636.6,221.2z"/>
			</g>
			<g transform="matrix(-0.476039,0,0,0.39775,3577.87,-4.74795)">
				<path class="st1" d="M6851.5,180.7L6851.5,180.7C6851.5,180.7,6851.6,180.7,6851.5,180.7c0.1,0.2,0.2,0.4,0.2,0.7
					c0.1,0.7,0.2,1.7,0.3,2.8c0.3,2.4,0.6,5.3,0.6,6.9c-0.1,6-0.2,11.9,0.2,17.8c0.2,2.3,0.4,4.7,0.7,7c0.2,1.5,0.4,3.1,0.7,4.6
					c0.1,0.5-0.2,1-0.6,1.2c-0.4,0.1-0.9-0.2-1-0.7c-0.4-1.6-0.7-3.2-0.9-4.7c-0.4-2.4-0.5-4.8-0.7-7.2c-0.3-6-0.1-11.9,0-18
					c0.1-1.9-0.4-6-0.5-8.5c0-0.3,0-0.6,0-0.9c0.1-1,0.4-1.6,0.7-1.6c0.2-0.1,0.4,0,0.4,0.2C6851.7,180.4,6851.6,180.6,6851.5,180.7
					z"/>
			</g>
			<g transform="matrix(-0.476039,0,0,0.39775,3577.87,-4.74795)">
				<path class="st1" d="M6861.1,176.8L6861.1,176.8c0,0,0,0.1,0.1,0.1c0.1,0.3,0.5,0.8,0.8,1.6c0.9,2.4,2,6.8,2.2,7.5
					c0.4,1.5,0.7,3,0.9,4.4c0.4,2.2,0.7,4.4,1,6.7c1.1,8.4,3.3,14.9,3.7,22c0.1,2.5,0.1,5-0.3,7.7c-0.4,2.3-1,4.7-1.9,7.3
					c-0.1,0.4-0.5,0.6-0.9,0.5c-0.4-0.2-0.5-0.6-0.4-1.1c0.7-2.5,1.1-4.9,1.4-7.1c0.3-2.5,0.4-4.9,0.2-7.2
					c-0.4-7.1-2.5-13.5-3.6-21.8c-0.3-2.2-0.6-4.4-0.9-6.6c-0.2-1.4-0.5-2.9-0.8-4.3c-0.2-0.7-1.4-5-1.9-7.6
					c-0.1-0.9-0.1-1.5-0.2-1.8C6860.4,176.4,6861,176.5,6861.1,176.8L6861.1,176.8z"/>
			</g>
			<g transform="matrix(-0.514202,0,0,0.39775,3740.11,-4.44587)">
				<path class="st1" d="M6635.9,247.7c0,0.1,0,0.1,0,0.2c0,0.2-0.2,0.4-0.3,0.4c-0.2,0-0.4-0.3-0.3-1c0.1-0.3,0.1-0.8,0.3-1.3
					c0.3-1.1,0.9-2.3,1-2.7c0.2-0.4,0.6-1.8,1.1-3.2c0.3-0.7,0.6-1.4,0.9-2.1c0.5-1,1.1-1.8,1.6-1.9c0.4-0.1,0.8-0.1,1.1-0.3
					c0.3-0.1,0.5-0.3,0.8-0.4c0.6-0.2,1.2-0.2,1.9-0.2c1.7,0,3.5,0.3,5.2,0.6c1.2,0.2,2.3,0.3,3.3,0.3c3.6-0.1,8.1,0,12.1-0.7
					c2.5-0.5,4.7-1.5,6.7-2.7c0.2-0.1,0.5-0.2,0.7-0.4c0.3-0.3,0.7-0.2,1,0.2c0.2,0.4,0.1,1-0.2,1.2c-0.2,0.3-0.4,0.5-0.7,0.8
					c-1.9,1.8-4.6,2.5-7.3,3c-4.1,0.8-8.7,0.6-12.4,0.7c-1.1,0-2.3-0.2-3.6-0.4c-1.7-0.3-3.5-0.8-5.2-1c-0.5-0.1-1-0.1-1.5-0.2
					c-0.2,0-0.4-0.1-0.7-0.1c-0.1,0-0.2,0-0.2,0c-0.3,0-0.6,0.3-0.9,0.4c-0.1,0.1-0.2,0.2-0.3,0.4c-0.2,0.3-0.5,0.8-0.7,1.3
					c-0.3,0.6-0.5,1.3-0.8,2c-0.5,1.4-1,2.7-1.2,3.1c-0.1,0.3-0.6,1.6-1,2.6c-0.2,0.4-0.3,0.8-0.4,1.1L6635.9,247.7z"/>
			</g>
			<g transform="matrix(0.526316,0,0,0.30625,-298.769,154.641)">
				<path class="st1" d="M1179.5-304.9c0,0.2,0,0.4,0,0.6c-0.1,1-0.3,2.3-0.6,3.5c-0.3,1.2-0.6,2.3-0.7,2.5
					c-0.2,0.2-0.3,0.4-0.5,0.6c-0.7,1-1.2,1.8-1.8,2.3c-0.7,0.8-1.4,1.3-2.3,2.1c-0.5,0.4-1,1-1.6,1.6c-0.3,0.4-0.8,1.1-1.5,2.2
					c-0.6,0.9-1.3,2.1-2,3.7c-0.1,0.2-0.1,0.6,0.1,0.7c0.1,0.2,0.3,0.1,0.4-0.1c0.5-1.2,1-2.2,1.6-3c0.9-1.2,1.6-1.7,2-2
					c0.6-0.5,1.1-0.8,1.6-1.1c0.9-0.6,1.7-1.2,2.5-2c0.6-0.6,1.3-1.3,2-2.6c0.1-0.2,0.3-0.5,0.4-0.8c0.1-0.2,0.2-0.4,0.3-0.8
					c0.2-1,0.4-3,0.5-4.8c0-0.6,0.1-1.2,0.1-1.8c0-0.6,0-1,0-1.4c0-0.3,0-0.4,0-0.6c0-0.4-0.2-0.3-0.3-0.6c-0.3-0.1-0.5,0.2-0.5,0.6
					C1179.2-305.4,1179.3-305,1179.5-304.9z M1179.6-304.8C1179.6-304.8,1179.6-304.8,1179.6-304.8
					C1179.6-304.8,1179.6-304.8,1179.6-304.8z M1179.4-305.2c0,0.1,0,0.2,0,0.2c0,0,0.1,0.1,0.1,0.1
					C1179.5-305,1179.5-305,1179.4-305.2C1179.5-305.2,1179.5-305.2,1179.4-305.2z"/>
			</g>
			<g transform="matrix(0.4441,0,0,0.39775,0,0)">
				<path class="st1" d="M724.4,147.3c0.1,0.3,0.4,0.6,0.4,0.7l0,3.7c0,0.2-0.1,0.9,0,1.4c0,0.2,0.1,0.3,0.2,0.4
					c0.2,0.4,0.4,0.4,0.5,0.3c0,0,0.2-0.1,0.2-0.4c0-0.1,0-0.2,0-0.2l0,0c0,0,0-0.1,0.1-0.1c0.1-0.5,0-1.2,0-1.4
					c0-0.4,0-0.8-0.1-1.2c-0.1-0.9-0.4-1.8-0.5-2.6c0-0.2,0.1-1.1,0-1.5c-0.1-0.5-0.5-0.5-0.9-0.4c-0.4,0.2-1,0.2-1.5,0.4
					c-0.3,0.1-0.6,0.3-0.8,0.5c-0.5,0.5-1.1,1.4-1.4,2.3c-0.4,0.9-0.6,2-0.5,2.8c0.1,0.5,0.2,1.3,0.5,2c0.1,0.3,0.2,0.5,0.3,0.7
					c0,0.1,0.1,0.1,0.1,0.2c-0.1,0.3,0.1,0.7,0.3,0.8c0.3,0.1,0.6-0.1,0.7-0.4c0.2-0.4,0.3-1,0.2-1.7c-0.1-0.7-0.3-1.4-0.4-1.9
					c-0.1-0.6,0-1.3,0.3-1.9c0.2-0.7,0.6-1.4,0.9-1.8c0.1-0.1,0.2-0.2,0.3-0.3C723.7,147.5,724.1,147.4,724.4,147.3z M724.8,147.1
					C724.8,147.1,724.9,147.1,724.8,147.1L724.8,147.1z"/>
			</g>
			<g transform="matrix(0.4441,0,0,0.39775,0,0)">
				<path class="st1" d="M721.7,155.6c0.1-0.1,0.2-0.3,0.3-0.5c0.1-0.2,0-0.4-0.2-0.5c-0.2-0.1-0.4,0-0.5,0.2l-0.3,0.5
					c-0.1,0.2,0,0.5,0.2,0.6C721.4,155.9,721.6,155.8,721.7,155.6z"/>
			</g>
			<g transform="matrix(0.4441,0,0,0.39775,0,0)">
				<path class="st1" d="M721.3,154.6c-0.1,0-0.2,0.1-0.2,0.1c-0.1,0-0.2,0-0.3,0c-0.2-0.1-0.3,0-0.4,0.2c-0.1,0.2,0,0.4,0.2,0.4
					c0.2,0.1,0.4,0.1,0.6,0.1c0.2,0,0.5-0.1,0.7-0.3c0.2-0.1,0.3-0.5,0.3-0.8c-0.1-0.3-0.2-0.4-0.5-0.4c-0.2,0-0.3,0.2-0.3,0.4
					C721.3,154.5,721.3,154.6,721.3,154.6z M721.4,154.7c0,0.1,0.2,0.1,0.3,0.1C721.6,154.8,721.5,154.8,721.4,154.7z M721.5,154.5
					L721.5,154.5C721.5,154.5,721.5,154.5,721.5,154.5z"/>
			</g>
			<g transform="matrix(0.4441,0,0,0.39775,0,0)">
				<path class="st1" d="M720.8,154.6c-0.2,0.1-0.9,0-1,0c-0.9,0.1-2.3,0-3.4,0.4c-0.6,0.2-1.1,0.5-1.4,1c-0.1,0.2-0.2,0.4,0,0.6
					c0.1,0.2,0.4,0.2,0.5,0c0.2-0.2,0.5-0.2,0.7-0.3c0.3-0.1,0.5-0.2,0.8-0.2c1-0.2,2.1-0.3,2.8-0.4c0.2,0,1.1-0.1,1.4-0.5
					c0.2-0.2,0.3-0.5,0.1-0.8c-0.1-0.2-0.3-0.3-0.5-0.1C720.8,154.2,720.7,154.4,720.8,154.6z M720.8,154.6c0.1,0,0.1-0.1,0-0.1
					C720.8,154.4,720.8,154.5,720.8,154.6z"/>
			</g>
			<g transform="matrix(0.48679,0,0,0.431047,-155.861,-55.2668)">
				<path class="st1" d="M973.6,257.6c0,0,0.1,0.1,0.1,0.2c0.1,0.2,0.2,0.4,0.3,0.7c0.2,0.7,0.4,1.4,0.5,1.7
					c0.1,0.4,0.2,0.9,0.2,1.3c0,0.4-0.2,0.9-0.4,1.3c-0.5,1.2-1.4,2.1-2.5,3c-0.4,0.4-1,0.4-1.5,0.2c-0.3-0.1-0.5-0.3-0.7-0.5
					c-0.1-0.2-0.3-0.3-0.4-0.5c0-0.3-0.2-0.5-0.5-0.5c-0.3,0-0.5,0.3-0.4,0.5c-0.1,0.5,0,1,0.2,1.4c0.2,0.4,0.5,0.7,0.9,0.9
					c1,0.6,2.4,0.5,3.2-0.3c0.9-0.9,1.7-1.9,2.2-3c0.3-0.7,0.5-1.5,0.6-2.3c0.1-0.5,0.1-1.1,0.1-1.6c-0.1-0.5-0.3-1.8-0.7-2.7
					c-0.3-0.7-0.8-1-1.3-1c-0.5,0-1,0.1-1.6,0.3c-1.8,0.5-3.6,1.8-5.4,3.2c-1.2,1-2.4,2.2-3.4,3.4c-0.7,0.9-1.3,1.9-1.8,2.8
					c-0.3,0.5-0.5,1.2-0.6,2c-0.2,1.6-0.1,3.5-0.3,4.8c-0.2,1.1-0.6,2.7-0.6,4.6c0,0.4,0,0.8,0.1,1.2c0,0.3,0.1,0.5,0.2,0.8
					c0.1,0.3,0.2,0.5,0.4,0.7c0.1,0.1,0.1,0,0.2,0.1c0,0.1,0,0.2,0.1,0.2c0.1,0.2,0.3,0.3,0.4,0.2c0.2-0.1,0.3-0.3,0.2-0.5
					c0-0.1-0.1-0.2-0.1-0.3c0-0.1,0.1-0.1,0.1-0.2c0-0.2,0-0.3,0-0.4c0-0.3-0.1-0.6-0.1-0.8c-0.1-0.9-0.3-1.8-0.3-2.5
					c0-1.2,0.1-2.2,0.2-3c0.1-1.3-0.3-3.2-0.2-4.9c0.1-0.7,0.2-1.4,0.5-1.9c0.5-0.7,1.2-1.4,1.9-2.1c1.4-1.5,3.1-3.1,4.9-4.2
					c1.2-0.8,2.5-1.4,3.7-1.7C972.5,257.7,973,257.6,973.6,257.6z M973.6,257.6C973.5,257.5,973.5,257.5,973.6,257.6
					C973.5,257.6,973.5,257.6,973.6,257.6z"/>
			</g>
			<g transform="matrix(0.48679,0,0,0.431047,-155.861,-55.2668)">
				<path class="st1" d="M975.9,257.7L975.9,257.7L975.9,257.7c0-0.1,0-0.1,0-0.1C975.9,257.6,975.9,257.7,975.9,257.7
					C975.9,257.7,975.9,257.7,975.9,257.7L975.9,257.7C975.9,257.7,975.9,257.7,975.9,257.7C975.9,257.8,975.9,257.7,975.9,257.7
					c0.1,0,0.2,0,0.3,0c0.3,0,0.7-0.1,1,0c0.1,0.3,0.2,0.6,0.3,0.9c0.2,0.8,0.1,1.6,0,2.4c0,0.3-0.1,0.5-0.1,0.8c0,0.3,0,0.5,0,0.8
					c-0.2,1-1,1.8-1.6,2.5c-0.5,0.5-0.9,0.9-1.5,1.1c-0.1,0-0.2,0.2-0.2,0.3c0,0.1,0.1,0.2,0.3,0.2c0.7-0.1,1.4-0.3,1.9-0.8
					c0.8-0.7,1.2-1.8,1.8-2.8c0.2-0.4,0.5-0.8,0.6-1.3c0.3-0.8,0.3-1.6,0.3-2.4c-0.1-0.9-0.3-1.7-0.7-2.4c-0.1-0.1-0.2-0.3-0.3-0.3
					c-0.2-0.1-0.6-0.1-1.1,0c-0.4,0.1-0.9,0.2-1.2,0.4c-0.2,0.2-0.4,0.4-0.4,0.5c0,0.2,0.1,0.4,0.3,0.4
					C975.7,257.9,975.8,257.9,975.9,257.7z M977.1,257.7c0,0.1,0.2,0.3,0.2,0.2C977.4,257.7,977.3,257.7,977.1,257.7z"/>
			</g>
			<g transform="matrix(0.48679,0,0,0.431047,-156.263,-52.6862)">
				<path class="st1" d="M979.9,252.8c0.2-0.2,0.4,0,0.7,0c0.1,0,0.2,0.1,0.3,0.2c0.1,0.1,0.3,0.2,0.3,0.3c0.1,0.5,0.1,0.9,0.2,1.2
					c0.1,0.3,0.2,0.6,0.2,0.9c0,0.3,0,0.6,0,0.8c-0.1,0.5-0.3,0.7-0.5,1c-0.1,0.2-0.2,0.4-0.3,0.6c-0.1,0.2-0.1,0.5,0.1,0.6
					c0.2,0.1,0.4,0.1,0.5-0.1c0.2-0.2,0.4-0.3,0.5-0.5c0.3-0.3,0.6-0.7,0.7-1.4c0.1-0.3,0.1-0.6,0.1-1.1c0-0.3,0.1-0.6,0.1-1
					c0-0.4-0.1-0.8-0.2-1.3c-0.2-0.7-0.8-1.4-1.5-1.4c-0.7-0.1-1.4,0.2-1.6,0.8c-0.1,0.2-0.1,0.4,0.1,0.5
					C979.6,253,979.8,253,979.9,252.8z"/>
			</g>
			<g transform="matrix(0.48679,0,0,0.431047,-156.781,-48.4538)">
				<path class="st1" d="M984.3,246.5c0.2,0,0.3,0.1,0.5,0.2c0.2,0.1,0.2,0.2,0.2,0.3c0,0.2-0.1,0.5-0.2,0.9
					c-0.2,0.6-0.6,1.4-0.9,2.1c-0.4,0.9-0.8,1.7-1.1,2.1c-0.1,0.1-0.1,0.3,0.1,0.5c0.1,0.1,0.3,0.1,0.4-0.1c0.4-0.5,1.4-1.5,2.1-2.7
					c0.5-0.8,0.9-1.7,1-2.4c0.1-1-0.2-1.8-1.1-1.9c-0.3,0-0.6,0-1.1,0.2c-0.2,0-0.3,0.2-0.3,0.4
					C983.9,246.3,984.1,246.5,984.3,246.5z"/>
			</g>
			<g transform="matrix(0.48679,0,0,0.431047,-155.861,-55.2668)">
				<path class="st1" d="M970.8,260.8c-0.1,0-0.1,0-0.2,0c-0.1,0-0.1,0.1-0.1,0.2c-0.3,0.5-0.5,1-0.7,1.5c-0.1,0.1-0.1,0.2-0.2,0.3
					c-0.1,0.1-0.1,0.2-0.2,0.3c-0.2,0-0.3,0.2-0.3,0.5c0,0.2,0.2,0.4,0.4,0.3c0.5,0,0.8-0.1,1.1-0.5c0.4-0.4,0.5-1.2,0.7-1.8
					c0-0.1,0.1-0.2,0.1-0.2c0-0.1,0-0.1-0.1-0.2c0.1-0.2,0.1-0.4-0.1-0.5C971.1,260.6,970.9,260.7,970.8,260.8z"/>
			</g>
			<g transform="matrix(0.4441,0,0,0.39775,0,0)">
				<path class="st1" d="M719.9,149.6C719.8,149.6,719.8,149.6,719.9,149.6L719.9,149.6C719.9,149.6,719.9,149.6,719.9,149.6
					c0,0.1-0.1,0.1-0.2,0.1c0,0,0,0,0,0c0,0,0,0,0,0c0,0,0,0.1,0,0.1c0.1,0.1,0,0.1,0,0.2c0-0.1,0-0.3-0.1-0.4
					c-0.1-0.2-0.4-0.2-0.5,0c-0.1,0-0.1,0.1-0.1,0.2c-0.2,0.2,0,0.4,0,0.7c0.1,0.3,0.6,0.5,0.7,0.6c0.3,0.1,0.6,0.1,0.9,0
					c0.3-0.1,0.6-0.2,0.9-0.4c0.3-0.2,0.4-0.7,0.2-1c-0.2-0.3-0.6-0.4-0.9-0.2c-0.2,0.1-0.3,0.2-0.4,0.2
					C720.2,149.6,720,149.6,719.9,149.6z"/>
			</g>
		</g>
		<g transform="matrix(-1.01207,0,0,1,3479.29,4.34895)">
			<g transform="matrix(-0.514202,0,0,0.39775,3740.11,-4.44587)">
				<path class="st1" d="M1271.1,205.1c0.1,0,0.2,0,0.3,0c0.1,0.1,0.2,0.2,0.3,0.3c0.1,0,0.1,0,0.2,0c1.1,0.2,2.1,0.5,3.3,0.7
					c1.1,0.2,3.5,0.8,5.6,1.5c0.9,0.3,1.8,0.7,2.4,1.1c0.3,0.2,0.6,0.3,0.8,0.5c0.3,0.4,0.8,0.4,1.1,0c0.3-0.4,0.3-1,0-1.5
					c-0.2-0.4-0.6-0.8-1.2-1.2c-0.5-0.3-1.1-0.6-1.8-0.8c-2.4-0.9-5.6-1.5-6.9-1.6c-1.1-0.1-2.2-0.2-3.3-0.3c-0.1,0-0.1,0-0.2,0
					c-0.1,0-0.2,0.1-0.3,0.2c-0.1,0-0.2,0-0.3,0c-0.2,0-0.4,0.2-0.4,0.5C1270.7,204.8,1270.9,205.1,1271.1,205.1z"/>
			</g>
			<g transform="matrix(-0.514202,0,0,0.39775,3740.11,-4.44587)">
				<path class="st1" d="M1279,212.5L1279,212.5c0,0.1,0,0.1-0.1,0.2c-0.3,0.9,0.1,1.3,0.6,0.4l0.3-0.1c0.1-0.1,0.3-0.1,0.5-0.3
					c0.6-0.5,1.3-1.4,1.5-1.5c1-0.5,1.9-1,2.9-1.4c0.9-0.4,1.9-0.7,3-0.9c2.6-0.6,4.3-0.5,5.8-0.1c2.3,0.7,3.7,2.3,5.8,3.2
					c0.8,0.3,1.8,0.6,2.9,0.6c0.4,0,0.8-0.3,0.8-0.9c0-0.5-0.3-1-0.7-1c-1-0.2-1.8-0.5-2.5-0.8c-2.2-1-3.6-2.5-6.1-3.1
					c-1.6-0.4-3.6-0.5-6.4,0.3c-1.1,0.3-2.1,0.7-3.1,1.1c-1,0.5-2,1-3,1.6c-0.2,0.1-0.7,0.7-1.2,1.3c-0.2,0.3-0.5,0.6-0.6,0.9
					C1279.3,211.9,1279.1,212.2,1279,212.5z"/>
			</g>
			<g transform="matrix(-0.476039,0,0,0.39775,3577.87,-4.74795)">
				<path class="st1" d="M1065,172.5c0.1-0.1,0.2-0.3,0.2-0.5c-0.1-0.2-0.3-0.3-0.4-0.2c-0.2,0-0.6,0.6-0.7,1.6c0,0.3,0,0.6,0,0.9
					c0.1,2.5,0.6,6.6,0.5,8.5c-0.2,6.1-0.4,12,0,18c0.1,2.4,0.3,4.8,0.7,7.2c0.2,1.6,0.6,3.1,0.9,4.7c0.1,0.5,0.5,0.8,1,0.7
					c0.4-0.1,0.7-0.6,0.6-1.2c-0.3-1.6-0.5-3.1-0.7-4.6c-0.3-2.4-0.6-4.7-0.7-7c-0.4-5.9-0.3-11.8-0.2-17.8c0-1.5-0.3-4.4-0.6-6.9
					c-0.1-1.1-0.2-2.1-0.3-2.8C1065.2,172.9,1065.1,172.5,1065,172.5C1065.1,172.5,1065.1,172.5,1065,172.5z"/>
			</g>
			<g transform="matrix(-0.476039,0,0,0.39775,3577.87,-4.74795)">
				<path class="st1" d="M1074.7,168.6C1074.7,168.6,1074.7,168.6,1074.7,168.6c-0.1-0.4-0.7-0.5-0.6,0.4c0,0.3,0,1,0.2,1.8
					c0.4,2.6,1.7,6.8,1.9,7.6c0.3,1.4,0.6,2.9,0.8,4.3c0.3,2.2,0.6,4.4,0.9,6.6c1.1,8.3,3.2,14.8,3.6,21.8c0.1,2.3,0.1,4.6-0.2,7.2
					c-0.3,2.2-0.7,4.5-1.4,7.1c-0.1,0.4,0,0.9,0.4,1.1c0.3,0.2,0.7,0,0.9-0.5c0.9-2.6,1.6-5,1.9-7.3c0.4-2.7,0.5-5.2,0.3-7.7
					c-0.4-7.1-2.6-13.6-3.7-22c-0.3-2.3-0.6-4.5-1-6.7c-0.3-1.5-0.6-3-0.9-4.4c-0.2-0.7-1.3-5.1-2.2-7.5
					C1075.2,169.5,1074.8,169,1074.7,168.6C1074.7,168.7,1074.7,168.7,1074.7,168.6z"/>
			</g>
			<g transform="matrix(-0.514202,0,0,0.39775,3740.11,-4.44587)">
				<path class="st1" d="M1279,239.5l0-0.2c0.1-0.3,0.3-0.6,0.4-1.1c0.4-1,0.9-2.3,1-2.6c0.2-0.4,0.7-1.7,1.2-3.2
					c0.3-0.7,0.5-1.4,0.8-2c0.2-0.5,0.5-1,0.7-1.3c0.1-0.2,0.2-0.3,0.3-0.4c0.3-0.2,0.6-0.4,0.9-0.4c0.1,0,0.2,0,0.2,0
					c0.2,0,0.4,0.1,0.7,0.2c0.8,0.1,1.7,0.2,2.6,0.3c2.6,0.5,5.5,1.2,7.8,1.2c3.7-0.1,8.2,0,12.3-0.7c2.7-0.5,5.4-1.2,7.3-3
					c0.2-0.2,0.4-0.5,0.7-0.8c0.3-0.3,0.4-0.8,0.2-1.2c-0.2-0.4-0.6-0.5-0.9-0.2c-0.2,0.1-0.5,0.2-0.7,0.4c-1.9,1.2-4.2,2.2-6.7,2.7
					c-4.1,0.8-8.5,0.6-12.1,0.7c-1,0-2.1-0.1-3.3-0.3c-1.7-0.2-3.5-0.6-5.2-0.6c-0.7,0-1.3,0-1.9,0.2c-0.3,0.1-0.5,0.3-0.8,0.4
					c-0.4,0.1-0.8,0.1-1.1,0.2c-0.4,0.2-1,0.9-1.6,1.9c-0.3,0.6-0.7,1.3-0.9,2.1c-0.6,1.4-1,2.7-1.1,3.2c-0.1,0.3-0.7,1.6-1,2.7
					c-0.1,0.5-0.2,0.9-0.3,1.3c-0.1,0.6,0.1,1,0.3,1c0.2,0,0.3-0.1,0.3-0.4C1279,239.6,1279,239.6,1279,239.5z"/>
			</g>
			<g transform="matrix(0.526316,0,0,0.30625,-298.769,154.641)">
				<path class="st1" d="M6413.2-315.5c-0.2-0.1-0.3-0.5-0.3-0.9c0-0.4,0.3-0.7,0.5-0.6c0.1,0.2,0.3,0.2,0.3,0.6c0,0.2,0,0.3,0,0.6
					c0,0.3,0,0.8,0,1.4c0,0.5,0,1.1-0.1,1.8c-0.1,1.8-0.3,3.8-0.5,4.8c-0.1,0.4-0.2,0.7-0.3,0.8c-0.1,0.3-0.3,0.6-0.4,0.8
					c-0.7,1.2-1.4,2-2,2.6c-0.8,0.8-1.6,1.3-2.5,2c-0.5,0.3-1,0.7-1.6,1.1c-0.4,0.3-1.1,0.8-2,2c-0.5,0.7-1,1.7-1.6,3
					c-0.1,0.2-0.3,0.3-0.4,0.1c-0.1-0.2-0.2-0.5-0.1-0.7c0.7-1.6,1.4-2.8,2-3.7c0.7-1.1,1.2-1.8,1.5-2.2c0.6-0.7,1.1-1.2,1.6-1.6
					c0.8-0.8,1.5-1.3,2.3-2.1c0.5-0.6,1.1-1.3,1.8-2.3c0.1-0.2,0.3-0.4,0.5-0.6c0.2-0.2,0.4-1.3,0.7-2.5c0.3-1.2,0.5-2.5,0.6-3.5
					C6413.2-315.2,6413.2-315.4,6413.2-315.5z M6413.2-315.5C6413.2-315.5,6413.3-315.5,6413.2-315.5
					C6413.3-315.5,6413.2-315.5,6413.2-315.5z M6413.1-315.9C6413.1-315.9,6413.2-315.9,6413.1-315.9c0.1,0.1,0.1,0.2,0.1,0.3
					c0-0.1,0-0.2-0.1-0.2C6413.1-315.8,6413.1-315.8,6413.1-315.9z"/>
			</g>
			<g transform="matrix(0.4441,0,0,0.39775,0,0)">
				<path class="st1" d="M6928.3,145.1c0,0.1,0,0.2,0,0.2c-0.1,0.3-0.2,0.3-0.2,0.4c-0.1,0.1-0.4,0.1-0.5-0.3c0-0.1-0.1-0.2-0.2-0.4
					c-0.1-0.5,0-1.2,0-1.4l0-3.7c0-0.1-0.3-0.4-0.4-0.7c-0.3,0.1-0.7,0.3-1.1,0.4c-0.1,0.1-0.3,0.2-0.3,0.3
					c-0.4,0.4-0.7,1.1-0.9,1.8c-0.2,0.7-0.3,1.4-0.3,1.9c0,0.5,0.3,1.2,0.4,1.9c0.1,0.7,0,1.4-0.2,1.7c-0.1,0.3-0.4,0.5-0.7,0.4
					c-0.3-0.1-0.4-0.5-0.3-0.8c0-0.1-0.1-0.1-0.1-0.2c-0.1-0.2-0.2-0.4-0.3-0.7c-0.2-0.7-0.4-1.5-0.5-2c-0.1-0.9,0.1-1.9,0.5-2.9
					c0.4-0.9,0.9-1.7,1.4-2.3c0.2-0.2,0.5-0.4,0.8-0.5c0.5-0.2,1.1-0.2,1.5-0.4c0.4-0.1,0.8-0.1,0.9,0.4c0.1,0.4,0,1.4,0,1.5
					c0.2,0.9,0.4,1.7,0.5,2.6c0.1,0.4,0.1,0.8,0.1,1.2c0,0.2,0,0.9,0,1.4C6928.4,145,6928.4,145,6928.3,145.1L6928.3,145.1z
					 M6927.7,145L6927.7,145C6927.7,145,6927.7,145,6927.7,145z M6927.4,138.9L6927.4,138.9C6927.4,138.9,6927.4,138.9,6927.4,138.9
					z"/>
			</g>
			<g transform="matrix(0.4441,0,0,0.39775,0,0)">
				<path class="st1" d="M6924.3,147.4c-0.1,0.2-0.3,0.3-0.5,0.2c-0.2-0.1-0.3-0.3-0.2-0.6l0.3-0.5c0.1-0.2,0.3-0.3,0.5-0.2
					c0.2,0.1,0.3,0.3,0.2,0.5C6924.5,147.1,6924.3,147.3,6924.3,147.4z"/>
			</g>
			<g transform="matrix(0.4441,0,0,0.39775,0,0)">
				<path class="st1" d="M6923.9,146.4c0-0.1-0.1-0.1-0.1-0.2c0-0.2,0.1-0.4,0.3-0.4c0.2,0,0.4,0.1,0.5,0.4c0.1,0.3-0.1,0.7-0.3,0.8
					c-0.2,0.1-0.4,0.2-0.7,0.3c-0.2,0-0.4,0-0.5-0.1c-0.2-0.1-0.2-0.3-0.2-0.4c0.1-0.2,0.2-0.3,0.4-0.2c0.1,0,0.2,0,0.3,0
					C6923.8,146.5,6923.8,146.4,6923.9,146.4z M6924,146.5c0.1,0.1,0.2,0.1,0.2,0.1C6924.1,146.6,6924,146.5,6924,146.5z
					 M6924,146.3C6924.1,146.3,6924.1,146.3,6924,146.3L6924,146.3z"/>
			</g>
			<g transform="matrix(0.4441,0,0,0.39775,0,0)">
				<path class="st1" d="M6923.3,146.3c-0.1-0.2,0-0.4,0.1-0.5c0.2-0.1,0.4-0.1,0.5,0.1c0.2,0.3,0.1,0.6-0.1,0.9
					c-0.3,0.3-1.3,0.4-1.4,0.5c-0.7,0.1-1.8,0.2-2.8,0.4c-0.3,0.1-0.6,0.2-0.8,0.2c-0.3,0.1-0.5,0.2-0.7,0.3c-0.1,0.2-0.4,0.2-0.5,0
					c-0.1-0.2-0.1-0.4,0-0.6c0.3-0.4,0.8-0.8,1.4-1c1.1-0.4,2.5-0.3,3.4-0.4C6922.4,146.4,6923.1,146.4,6923.3,146.3z M6923.4,146.3
					c0-0.1,0-0.2,0-0.1C6923.4,146.3,6923.4,146.3,6923.4,146.3z"/>
			</g>
			<g transform="matrix(0.48679,0,0,0.431047,-155.861,-55.2668)">
				<path class="st1" d="M6619.3,272.7c0-0.1,0-0.2-0.1-0.2c-0.1-0.1-0.1-0.1-0.2-0.1c-0.2-0.2-0.3-0.5-0.4-0.7
					c-0.1-0.2-0.2-0.5-0.2-0.8c-0.1-0.4-0.1-0.8-0.1-1.2c0-1.9,0.4-3.6,0.6-4.7c0.2-1.3,0.1-3.2,0.3-4.8c0.1-0.8,0.2-1.5,0.6-2
					c0.5-0.9,1-1.8,1.8-2.8c1-1.2,2.2-2.3,3.4-3.4c1.8-1.5,3.6-2.7,5.4-3.2c0.5-0.2,1.1-0.2,1.6-0.3c0.5,0,0.9,0.3,1.3,1
					c0.4,0.9,0.6,2.2,0.7,2.7c0,0.6,0,1.1-0.1,1.6c-0.1,0.8-0.3,1.6-0.6,2.3c-0.5,1.1-1.3,2.1-2.2,3c-0.9,0.8-2.2,0.8-3.2,0.3
					c-0.4-0.2-0.7-0.5-0.9-0.9c-0.2-0.4-0.3-0.9-0.2-1.4c0-0.3,0.2-0.5,0.4-0.5c0.3,0,0.5,0.2,0.5,0.5c0.1,0.2,0.2,0.4,0.4,0.5
					c0.2,0.2,0.4,0.4,0.7,0.5c0.5,0.2,1.1,0.1,1.5-0.2c1.1-0.8,2-1.8,2.5-3c0.2-0.4,0.4-0.8,0.4-1.3c0-0.4-0.1-0.9-0.2-1.3
					c-0.1-0.3-0.2-1-0.5-1.7c-0.1-0.3-0.2-0.5-0.3-0.7c-0.1-0.1-0.1-0.3-0.2-0.2c0,0,0,0,0.1,0c-0.5,0-1.1,0.1-1.6,0.3
					c-1.2,0.3-2.5,0.9-3.7,1.7c-1.8,1.2-3.5,2.7-4.9,4.2c-0.7,0.7-1.4,1.4-1.9,2.1c-0.3,0.5-0.5,1.2-0.5,1.9
					c-0.1,1.6,0.3,3.5,0.2,4.9c-0.1,0.8-0.2,1.8-0.2,3c0,0.8,0.1,1.6,0.3,2.5c0,0.3,0.1,0.6,0.1,0.8c0,0.1,0,0.3,0,0.4
					c0,0.1-0.1,0.1-0.1,0.2c0,0.1,0,0.2,0.1,0.3c0.1,0.2,0,0.4-0.2,0.5C6619.6,273,6619.4,272.9,6619.3,272.7z"/>
			</g>
			<g transform="matrix(0.48679,0,0,0.431047,-155.861,-55.2668)">
				<path class="st1" d="M6635.8,250.1c-0.1,0-0.2,0-0.3,0c-0.3,0-0.8-0.1-1-0.1c0,0.1,0,0.1,0,0.1v0c0,0,0-0.1,0-0.1l0,0
					c0,0,0,0,0-0.1c0,0,0,0,0,0.1c0,0,0,0,0,0.1c-0.1,0.1-0.2,0.2-0.3,0.2c-0.2,0-0.3-0.2-0.3-0.4c0-0.2,0.1-0.4,0.4-0.5
					c0.3-0.2,0.7-0.3,1.2-0.4c0.4-0.1,0.9,0,1,0c0.2,0.1,0.3,0.2,0.3,0.3c0.4,0.7,0.6,1.5,0.7,2.4c0,0.8,0,1.7-0.3,2.5
					c-0.2,0.5-0.4,0.8-0.6,1.3c-0.5,1-1,2.1-1.8,2.8c-0.6,0.5-1.2,0.7-1.9,0.8c-0.1,0-0.2-0.1-0.3-0.2c0-0.1,0.1-0.3,0.2-0.3
					c0.6-0.2,1.1-0.6,1.5-1.1c0.7-0.7,1.4-1.5,1.6-2.5c0.1-0.3,0-0.5,0-0.8c0-0.3,0.1-0.5,0.1-0.8c0.1-0.8,0.1-1.7,0-2.4
					C6636,250.7,6635.9,250.4,6635.8,250.1z M6635.8,250.2c0.1,0,0.2,0,0.2,0.1C6636,250.3,6635.9,250.2,6635.8,250.2z"/>
			</g>
			<g transform="matrix(0.48679,0,0,0.431047,-156.263,-52.6862)">
				<path class="st1" d="M6638.1,244.7c0.2-0.6,0.9-0.8,1.6-0.8c0.7,0.1,1.3,0.7,1.5,1.4c0.1,0.5,0.2,0.9,0.2,1.3
					c0,0.4-0.1,0.7-0.1,1c0,0.4,0,0.8-0.1,1.1c-0.1,0.7-0.4,1.1-0.7,1.4c-0.2,0.2-0.4,0.3-0.5,0.5c-0.1,0.2-0.3,0.3-0.5,0.1
					s-0.2-0.4-0.1-0.6c0.1-0.3,0.2-0.5,0.3-0.6c0.2-0.3,0.4-0.5,0.5-1c0-0.3,0.1-0.6,0-1c0-0.1-0.1-0.1-0.1-0.2
					c0-0.1-0.1-0.3-0.1-0.5c-0.1-0.3-0.1-0.7-0.2-1.2c0-0.2-0.2-0.2-0.3-0.3c-0.1-0.1-0.2-0.1-0.3-0.2c-0.3-0.1-0.5-0.2-0.7,0
					c-0.1,0.2-0.3,0.2-0.5,0.1C6638,245.1,6637.9,244.9,6638.1,244.7z"/>
			</g>
			<g transform="matrix(0.48679,0,0,0.431047,-156.781,-48.4538)">
				<path class="st1" d="M6642.9,238.1c0.4-0.2,0.8-0.2,1.1-0.2c0.9,0.1,1.2,0.9,1.1,1.9c-0.1,0.7-0.4,1.6-0.9,2.4
					c-0.7,1.1-1.7,2.2-2.1,2.7c-0.1,0.1-0.3,0.2-0.4,0.1c-0.1-0.1-0.1-0.3,0-0.5c0.2-0.4,0.6-1.2,1.1-2.1c0.3-0.7,0.7-1.4,0.9-2.1
					c0.1-0.3,0.1-0.5,0.2-0.8c0-0.2,0-0.3-0.3-0.4c-0.1-0.1-0.3-0.1-0.5-0.2c-0.2,0-0.3-0.1-0.4-0.3
					C6642.5,238.3,6642.7,238.2,6642.9,238.1z"/>
			</g>
			<g transform="matrix(0.48679,0,0,0.431047,-155.861,-55.2668)">
				<path class="st1" d="M6630,253.7c0,0.1,0.1,0.1,0.1,0.2c0,0.1-0.1,0.2-0.1,0.2c-0.2,0.6-0.3,1.4-0.7,1.8
					c-0.3,0.3-0.6,0.5-1.1,0.5c-0.2,0-0.4-0.1-0.4-0.3c0-0.2,0.1-0.4,0.3-0.5c0.1-0.1,0.2-0.2,0.2-0.3c0.1-0.1,0.1-0.2,0.2-0.3
					c0.2-0.5,0.4-1,0.7-1.5c0-0.1,0.1-0.2,0.1-0.2c0.1-0.1,0.1,0,0.2,0c0.1-0.2,0.3-0.2,0.5-0.1C6630,253.3,6630.1,253.5,6630,253.7
					z"/>
			</g>
			<g transform="matrix(0.4441,0,0,0.39775,0,0)">
				<path class="st1" d="M6922.3,141.5C6922.3,141.5,6922.3,141.5,6922.3,141.5C6922.3,141.5,6922.3,141.5,6922.3,141.5
					C6922.3,141.4,6922.3,141.5,6922.3,141.5c0,0,0.2-0.1,0.2-0.2c0,0,0,0,0,0l0,0c0,0,0,0,0,0c0.2,0,0.3,0,0.5,0
					c0.1,0,0.3-0.1,0.4-0.2c0.3-0.2,0.7-0.1,0.9,0.2c0.2,0.3,0.1,0.8-0.2,1c-0.3,0.2-0.6,0.4-0.8,0.4c-0.3,0.1-0.6,0.1-0.9,0
					c-0.1-0.1-0.6-0.3-0.7-0.6c-0.1-0.3-0.2-0.5,0-0.7c0.1,0,0.1-0.1,0.1-0.2c0.1-0.2,0.4-0.1,0.5,0
					C6922.2,141.4,6922.3,141.5,6922.3,141.5z M6922.3,141.6L6922.3,141.6c0.1,0.1,0.1,0.1,0,0.2
					C6922.3,141.7,6922.3,141.6,6922.3,141.6z"/>
			</g>
		</g>
		<g transform="matrix(0.4441,0,0,0.39775,0,0)">
			<path class="st1" d="M773.6,241.2L773.6,241.2L773.6,241.2c-0.1,0.1-0.1,0.2-0.2,0.3c-0.1,0.1-0.2,0-0.3,0.2
				c0,0.1-0.1,0.1-0.1,0.2c-0.3,0.9-0.7,2.3-1.4,2.9c-0.9,0.9-2.6,1.9-4,3c-1.2,0.9-2.1,2-2.6,2.9c-0.5,1.1-0.5,2.3,0.6,3.3
				c0.6,0.6,1.7,1.2,3.3,1.6c0.3,0.1,0.7-0.1,0.8-0.4c0.1-0.4-0.1-0.7-0.4-0.8c-1-0.4-1.7-0.9-2.2-1.3c-0.6-0.5-0.7-0.9-0.5-1.4
				c0.3-0.8,1.1-1.5,2-2.2c1.4-1.2,3.1-2.4,4-3.3c0.7-0.8,1.2-2.1,1.5-3.3c0.1-0.3,0.2-0.6,0.1-0.8c0-0.1-0.1-0.1-0.1-0.2
				c0.1-0.1,0.1-0.1,0.1-0.2c0-0.3,0-0.5,0-0.6c0-0.2-0.1-0.3-0.2-0.3c-0.1-0.1-0.2-0.1-0.3,0C773.8,240.8,773.7,241,773.6,241.2z"
				/>
		</g>
		<g transform="matrix(0.4441,0,0,0.39775,0,0)">
			<path class="st1" d="M774.3,241c-0.5,0.5-0.8,1.5-0.9,2.7c-0.1,1.5,0.3,3.3,0.6,4.1c0.3,0.8,1,1.5,1.8,2.1
				c0.9,0.7,1.9,1.4,2.5,2.3c0.4,0.7,0.3,1.6-0.8,2.7c-0.4,0.5-0.8,0.7-1.2,0.8c-0.5,0.1-1,0-1.7-0.1c-0.4-0.1-0.7,0.2-0.8,0.6
				c-0.1,0.4,0.2,0.8,0.6,0.9c1,0.3,1.8,0.4,2.6,0.1c0.6-0.2,1.1-0.5,1.6-1.1c1.8-2.1,1.6-3.7,0.8-4.9c-0.6-1-1.9-1.8-2.9-2.6
				c-0.6-0.5-1.2-0.9-1.4-1.5c-0.3-0.7-0.6-2.2-0.7-3.6c-0.1-0.9-0.1-1.8,0.3-2.2c0.1-0.1,0.1-0.4,0-0.5
				C774.6,240.9,774.4,240.9,774.3,241z"/>
		</g>
		<g transform="matrix(0.4441,0,0,0.39775,0,0)">
			<path class="st1" d="M768.2,254.4c-0.1,0-0.2,0-0.3,0c-0.4-0.1-0.8-0.1-1.3,0.1c-0.7,0.3-1.3,1-1.8,1.7c-1,1.4-1.3,3.3-0.5,4.4
				c0.9,1.3,1.9,1.9,3.1,2.1c1,0.2,2,0.2,3.1,0.1c0.6-0.1,1.2-0.2,1.9-0.3c0.3,0,0.5-0.3,0.5-0.5c0-0.3-0.2-0.5-0.5-0.5
				c-0.7,0-1.3-0.1-2-0.1c-0.9,0-1.8,0-2.7-0.2c-0.8-0.2-1.6-0.7-2.3-1.6c-0.5-0.7-0.1-1.7,0.4-2.6c0.3-0.6,0.8-1,1.2-1.4
				c0.3-0.2,0.5-0.5,0.8-0.5c0.1,0,0.1,0,0.2,0c0.2,0,0.3-0.1,0.4-0.3C768.5,254.6,768.4,254.5,768.2,254.4z"/>
		</g>
		<g transform="matrix(0.4441,0,0,0.39775,0,0)">
			<path class="st1" d="M777.9,256.9c0.1,0.2,0.1,0.3,0.3,0.5c0,0,0.1,0.1,0.1,0.1c0.7,0.5,1,1,0.9,1.5c-0.1,0.3-0.3,0.6-0.7,0.9
				c-0.3,0.3-0.8,0.5-1.3,0.6c-0.3,0.1-0.5,0.4-0.5,0.7c0.1,0.3,0.4,0.6,0.7,0.5c0.7-0.1,1.3-0.3,1.8-0.5c0.8-0.5,1.2-1.1,1.4-1.8
				c0.2-1-0.2-2.3-1.7-3.1c-0.1,0-0.1-0.1-0.2-0.1c-0.2,0-0.3,0-0.6,0.1c-0.2-0.1-0.3,0-0.4,0.2
				C777.6,256.7,777.7,256.9,777.9,256.9z"/>
		</g>
		<g transform="matrix(0.4441,0,0,0.39775,0,0)">
			<path class="st1" d="M766.4,260.8c-0.7-0.5-1.8-0.4-2.8,0.2c-0.5,0.3-1,0.8-1.5,1.3c-1.4,1.6-2,3.8-0.9,5.2
				c0.8,1,1.8,1.7,3.1,2.2c2.5,1.1,5.8,1.4,7.8,1.8c5.3,1.1,10.3-1.6,12-4.6c0.5-1,0.7-2,0.6-2.9c-0.2-1.6-1.4-3.5-4.2-4.3
				c-0.3-0.1-0.6-0.1-0.9-0.2c-0.4-0.1-0.8,0.1-0.9,0.6c-0.1,0.4,0.1,0.8,0.5,1c0.3,0.1,0.5,0.2,0.7,0.3c2,0.9,3.2,1.7,3.3,2.9
				c0.1,0.6-0.1,1.2-0.4,1.9c-1.5,2.6-5.9,4.8-10.5,3.8c-1.7-0.4-4.3-0.6-6.6-1.3c-1.4-0.4-2.8-1.1-3.6-2.1
				c-0.7-0.9-0.1-2.2,0.8-3.3c0.3-0.4,0.7-0.8,1.2-1.2c0.7-0.5,1.4-0.9,2-0.6c0.2,0.1,0.3,0,0.4-0.1
				C766.6,261.1,766.6,260.9,766.4,260.8z"/>
		</g>
		<g transform="matrix(0.4441,0,0,0.39775,0,0)">
			<path class="st1" d="M834.7,170.4L834.7,170.4C834.6,170.5,834.7,170.5,834.7,170.4C834.7,170.5,834.7,170.4,834.7,170.4
				c0.2-0.1,0.4,0.6,0.5,0.8l0.6,0.5c0.3,0.3,1.1,0.9,1.7,1.2c0.4,0.1,0.8,0.2,1,0c0.1-0.1,0.2-0.1,0.2-0.3c0.2-0.2,0.3-0.6,0.1-0.8
				c-0.2-0.3-0.5-0.3-0.7-0.1c0,0,0-0.1,0-0.1c-0.2,0-0.4-0.1-0.6-0.1c-0.5-0.2-1-0.5-1.3-0.6l-0.6-0.3c-0.2-0.1-0.4-0.5-0.6-0.6
				c-0.1-0.1-0.2-0.1-0.2-0.1c-0.2,0-0.3,0.1-0.3,0.3C834.5,170.2,834.5,170.4,834.7,170.4z"/>
		</g>
		<g transform="matrix(0.4441,0,0,0.39775,0,0)">
			<path class="st1" d="M713.2,167.3c-0.2,0.1-0.4,0.3-0.7,0.4c-0.9,0.6-1.7,1.1-2.6,1.6c-0.3,0.2-0.7,0.3-1.1,0.5
				c-0.3,0.1-0.7,0.3-1.1,0.3c-0.3,0-0.5,0.3-0.5,0.6c0,0.3,0.3,0.5,0.5,0.5c0.8,0,1.4-0.1,2-0.4c1.1-0.5,1.9-1.6,3-2.4
				c0.2-0.2,0.5-0.3,0.7-0.5c0.1-0.1,0.2-0.3,0.1-0.5C713.6,167.2,713.4,167.2,713.2,167.3z"/>
		</g>
	</g>
	<g id="Gray-Short.svg4" transform="matrix(0.302528,0,0,0.270954,1725.78,649.977)" class="st2">
		<g transform="matrix(1,0,0,1,-236.5,-283.5)" class="st3">
			<g id="head-mono-Gray-Short4">
				<path class="st0" d="M-4508-1958.1c0,0-4.8,21,9.4,14.8c0,0,7.9,20.6,14.6,18.5c0,0,5.3,4.8,9.6,5.2c0,0,21.1,21.6,38.7-11.8
					c7-13.3,2.6-42.4-0.4-53.2c-1.3-4.7-1.5-9.5-1.7-10.9c0,0,9.1-6.3,2.4-9.3c0,0,4.7-7.4,3.8-8c-0.9-0.7-31.5-15.6-46.8-12.3
					c-15.3,3.3-22.5,5.4-27.5,12.8c-5,7.4-5.1,3.4-6,10.6C-4512.6-1994.4-4514.7-1962.3-4508-1958.1z"/>
				<path id="_xD83D__xDD8D_-Ink10" class="st1" d="M-4457.1-1911.8c-6.4,0.7-14-1-18.3-6.8c-0.1-0.2-0.2-0.4-0.2-0.6
					c0-0.2,0.1-0.4,0.2-0.6c0.1-0.2,0.3-0.3,0.5-0.3c0.2,0,0.3,0,0.5,0.1l0.4,0.2c2.9,1.8,5.9,3.3,9.2,4c3.4,0.7,6.9,0.6,10.2-0.3
					c6.1-1.6,11.1-5.5,14.7-10.8c4.1-5.9,6.5-13.3,7.1-20.7c0.8-9-1-18-2.8-26.7c-1.9-9.2-4-18.3-6.4-27.3c-0.1-0.3-0.1-0.5-0.1-0.8
					c-0.7-0.3-1.5-0.2-2.2,0.1c-1.4,0.5-2.8,1.7-3.9,2.7c-0.4,0.4-0.8,0.7-1.2,0.9c-1.4,1.1-3,1.9-4.7,2c-1.8,0.1-3.6-0.5-5.2-1.3
					c-0.8-0.4-1.7-0.8-2.5-1.2c-2.3-1.2-4.6-2.3-7.2-3.1c-3.4-1-6.9-1.5-10.3-1.5c-6.2,0.1-12.5,1.9-16.3,7.7
					c-1.5,2.4-2.6,5.1-1.8,8.1c0.4,1.6,1.2,3.1,2.1,4.4l0.3,0.5c0.5,0.7,0.9,1.5,1,2.2c0.1,0.7,0,1.3-0.4,2.1
					c-0.3,0.5-0.6,0.9-0.9,1.3c-0.2,0.3-0.5,0.6-0.7,0.9c-0.4,0.7-0.8,1.4-1.1,2.1c-0.6,1.5-0.8,3-0.9,4.6c-0.1,1.9,0.2,3.8,0.4,5.7
					c0.2,1.3,0.3,2.7,0.4,4c0,0.2-0.1,0.4-0.1,0.5c-0.1,0.2-0.3,0.3-0.5,0.3c-0.1,0-0.1,0-0.2,0c0,0.1,0.1,0.3,0.1,0.4
					c-0.1-0.2-0.2-0.3-0.4-0.5c0,0,0,0,0,0c-0.1-0.1-0.2-0.2-0.3-0.4c-0.2-0.2-0.4-0.4-0.6-0.5c-1.1-0.9-2.3-1.4-3.6-1.4
					c-1.2,0-2.4,0.4-3.3,1.4c-1.8,1.9-2.4,5-2.4,7.7c0,2.7,0.5,6,2.7,7.7c0.9,0.7,1.9,1.1,3,1.1c0.9,0,1.7-0.3,2.5-0.7
					c0.3-0.1,0.5-0.2,0.8-0.3c0.3-0.1,0.5-0.1,0.8,0c0.3,0.1,0.5,0.3,0.6,0.5c0.2,0.2,0.3,0.5,0.3,0.8c0,0.3,0,0.6-0.1,0.9
					c0,0.1-0.1,0.1-0.1,0.2l0.5,0.9c1.8,3.3,3.6,6.5,6,9.4c1.4,1.6,2.8,3.2,4.5,4.5l0.2,0.2c0.1,0.1,0.3,0.3,0.5,0.4
					c0.5,0.4,1,1,1.6,1c0.2,0,0.3,0,0.4,0c0.3,0,0.5-0.1,0.8,0.1c0.2,0.1,0.4,0.3,0.6,0.6c0.1,0.2,0.2,0.5,0.2,0.8
					c0,0.3-0.1,0.6-0.2,0.8c-0.3,0.5-0.6,0.8-1,1c-0.4,0.2-0.8,0.2-1.3,0.1c-1.1-0.2-2.4-1.3-3.2-2l-0.2-0.1c-1.8-1.5-3.4-3.2-4.9-5
					c-2.5-3.2-4.7-6.9-5.9-11c-0.8,0.6-1.8,0.9-2.9,0.9c-1.5,0.1-3.2-0.4-4.3-1c-2.6-1.4-4.2-4-5-7.1c-0.9-3.5-0.6-7.6,0.5-10.7
					c0-0.1,0.1-0.2,0.1-0.3c-3.4-9.6-4.4-20.2-4.1-30.5c0.1-4.8,0.4-9.8,1.4-14.5c0.5-2.1,1.2-4.1,2.5-5.7c0.7-0.9,1.6-1.7,2.5-2.4
					c0.8-0.6,1.5-1.3,2.2-2.1l0.3-0.4c0.1-0.1,0.1-0.2,0.2-0.2c1.1-1.4,2.2-2.7,3.6-3.8c1.6-1.3,3.3-2.3,5.1-3.2
					c3.9-1.8,8.1-2.9,12.2-3.8c8.9-1.8,18.1-1.9,27,0.7c4.1,1.2,8.1,2.8,12.1,4.5c0.4,0.2,0.7,0.3,1.1,0.5c3.1,1.3,6.2,2.5,9.3,3.8
					c1.4,0.6,2.9,1.2,4.3,1.8c0.3,0.1,0.6,0.4,0.8,0.7c0.2,0.3,0.2,0.7,0.1,1.1c-0.9,2.5-2,4.8-3.4,7c0.5,0.4,0.9,0.8,1.2,1.4
					c0.4,0.7,0.6,1.5,0.6,2.4c0.1,3-2.4,5-4.4,6.4c-0.2,0.1-0.4,0.2-0.6,0.3c1.9,8.3,3.8,16.6,5.4,25l0.1,0.6
					c1.6,8.8,2.7,17.7,1.1,26.6c-1.3,7.7-4.4,15-9.2,20.7C-4443.9-1916.1-4450.3-1912.6-4457.1-1911.8z M-4499.2-1962.2
					c-0.8-3-1.3-6.2-1-9.2c0.2-1.9,0.7-3.7,1.5-5.4c0.5-1,1.1-1.8,1.7-2.7l0.2-0.3c0.1-0.1,0.2-0.3,0.3-0.4c0-0.1,0-0.2-0.1-0.3
					c-0.1-0.3-0.3-0.5-0.5-0.8c-0.1-0.2-0.3-0.3-0.4-0.5c-1.8-2.8-3.2-6.1-2.8-9.6c0.4-3.4,2.4-6.6,4.6-9c4.7-5.3,12-6.5,18.5-6.2
					c3.7,0.2,7.5,0.9,11,2.2c1.8,0.6,3.5,1.4,5.1,2.3l0.4,0.2c0.2,0.1,0.4,0.2,0.6,0.3c1.3,0.7,2.6,1.4,4,1.8
					c2.8,0.8,4.6-0.8,6.6-2.4c0.7-0.6,1.4-1.1,2.1-1.6l0.1-0.1c1.3-0.8,2.9-1.4,4.4-1.4c1.3,0,2.6,0.5,3.6,1.6
					c0.2,0.2,0.3,0.5,0.4,0.7c0.1,0.2,0.2,0.4,0.3,0.6c0.4,1.5,0.7,3.1,1.1,4.6l0.3-0.2c0.9-0.6,1.8-1.4,2.3-2.5
					c0.2-0.4,0.1-1.1-0.1-1.6c-0.1-0.2-0.2-0.3-0.3-0.4c-0.1-0.1-0.2-0.1-0.4-0.1c-0.3,0-0.6,0-0.9-0.1c-0.3-0.1-0.5-0.4-0.7-0.7
					c-0.2-0.3-0.2-0.6-0.2-1c0-0.3,0.1-0.6,0.4-0.9c1.5-1.9,2.8-4.1,3.8-6.4l-6.4-2.6c-2.3-0.9-4.6-1.9-6.8-2.8l-1.2-0.5
					c-4.2-1.7-8.3-3.4-12.6-4.5c-8.6-2.2-17.5-1.7-26.1,0.4l-0.5,0.1c-3.6,0.9-7.2,1.9-10.5,3.8c-1.6,0.9-3.2,2-4.5,3.4
					c-0.6,0.6-1.1,1.3-1.6,2c-0.7,0.9-1.5,1.9-2.4,2.7l-0.8,0.7c-1.2,1.1-2.3,2.2-3,3.8c-0.7,1.8-1.1,3.7-1.3,5.6
					c-0.7,4.8-1,9.7-1,14.5c0,8.2,1.2,16.2,2.6,24.1c1.1-1.8,2.7-3.2,4.7-3.5c1.3-0.2,2.6,0.1,3.8,0.7
					C-4500.3-1963.4-4499.7-1962.9-4499.2-1962.2z M-4501.3-1952.6c-1.5-0.6-3-0.9-4.6-0.5c-0.2,0-0.3,0-0.5-0.1
					c-0.1-0.1-0.2-0.2-0.3-0.4c-0.1-0.2-0.1-0.4,0-0.5c0.1-0.1,0.1-0.3,0.3-0.4c1.7-0.9,3.6-1.3,5.5-1l0.2,0c1,0.2,2.3,0.5,3.3,1.1
					c0.8,0.5,1.4,1.2,1.5,2.2c0.1,0.5,0,1-0.3,1.4c-0.2,0.4-0.6,0.6-1.1,0.6c-0.8,0-1.3-0.4-1.9-0.9c-0.1-0.1-0.1-0.1-0.2-0.2
					C-4500-1951.8-4500.6-1952.3-4501.3-1952.6z"/>
			</g>
		</g>
	</g>
	<g id="Calm.svg3" transform="matrix(0.319302,0,0,0.285977,1739.12,665.375)" class="st2">
		<g transform="matrix(1,0,0,1,-144.5,-146.5)" class="st3">
			<g id="face-Calm3">
				<path id="_xD83D__xDD8D_-Ink11" class="st1" d="M-4342.5-2005.1c-1.6,0.5-3.4,0.6-5.1,0c-1.5-0.5-3.1-1.6-4.2-3
					c-1-1.3-1.6-2.8-1.6-4.5c0-0.2,0.1-0.3,0.2-0.5c0.1-0.1,0.2-0.2,0.4-0.3c0.2,0,0.3,0,0.5,0c0.1,0.1,0.2,0.2,0.3,0.3
					c0.2,0.3,0.3,0.5,0.5,0.7c1.4,1.9,2.7,3.3,4.8,3.8c1.1,0.3,2.2,0.2,3.3-0.3c1.1-0.5,2.1-1.2,2.9-2.3c0.4-0.5,0.8-0.6,1.2-0.6
					c0.5,0,0.9,0.2,1.3,0.6c0.3,0.4,0.6,0.9,0.6,1.4c0,0.5-0.1,1-0.5,1.4C-4339.3-2006.7-4340.9-2005.6-4342.5-2005.1z
					 M-4342.6-2028.8c1.7,1.1,4.2,3.8,2.4,6.6c-2.1,2.5-5.2-0.4-6.7-1.7c-1.4-1-3,1.6-1.7,2.7c10.9,9,15.3-7.4,6.8-9
					C-4342.7-2030.3-4343-2029.2-4342.6-2028.8z M-4358.3-2033.8c-0.5-0.4-1.2-0.5-1.9-0.2c-0.5,0.3-1.5,1.2-2.2,2.4
					c-0.5,0.8-0.8,1.8-0.7,2.8c0,0.2-0.1,0.4-0.2,0.5c-0.1,0.1-0.2,0.2-0.4,0.2c-0.1,0-0.3,0-0.4,0c-0.2-0.1-0.4-0.3-0.4-0.4
					c-0.5-1.4-0.3-2.9,0.3-4.3c0.7-1.9,2-3.5,2.8-4c1.4-0.9,3.1-0.9,4.6,0c1.2,0.8,2,2,2.8,3.2c0.2,0.3,0.3,0.5,0.5,0.8
					c0.3,0.5,0.4,1,0.2,1.5c-0.1,0.5-0.5,0.9-1,1.1c-0.4,0.2-0.9,0.2-1.3,0c-0.4-0.2-0.7-0.5-0.9-1.1
					C-4356.9-2032.2-4357.5-2033.3-4358.3-2033.8z M-4330.9-2031.7c-0.4,0.2-0.7,0.3-1.1,0.1c-0.2-0.1-0.4-0.2-0.6-0.4
					c-0.2-0.2-0.3-0.4-0.3-0.7c-0.1-0.7-0.4-1.3-0.9-1.7c-0.4-0.3-0.9-0.5-1.4-0.4c-0.6,0.1-1.2,0.5-1.6,1c-0.1,0.2-0.2,0.4-0.3,0.5
					c-0.2,0.4-0.4,0.7-0.6,0.9c-0.1,0.1-0.3,0.2-0.4,0.2c-0.1,0-0.1,0-0.2,0c-0.6-0.7-0.7-1.2-0.7-1.7c0-0.5,0.2-1.1,0.5-1.5
					c0.7-1.2,2-2.1,2.9-2.3c1.2-0.3,2.5,0.1,3.4,0.8c1,0.8,1.8,2,2,3.4c0.1,0.3,0,0.7-0.1,1
					C-4330.4-2032.1-4330.6-2031.9-4330.9-2031.7z M-4355.6-2046.2c-0.7,0.8-1.6,0.9-2.5,1c-0.5,0.1-0.9,0.1-1.3,0.2
					c-1.1,0.3-2.1,0.7-3.1,1.2c-1,0.6-2.1,1.3-2.9,2.3c-0.2,0.2-0.4,0.5-0.5,0.7c-0.2,0.2-0.3,0.4-0.5,0.6c-0.2,0.2-0.4,0.5-0.5,0.7
					c-0.1,0.2-0.1,0.3-0.2,0.3c0,0.1-0.1,0.2-0.1,0.3c-0.1,0.1-0.1,0.3-0.2,0.4c-0.1,0.2-0.2,0.3-0.2,0.3c-0.1,0-0.2,0.1-0.3,0.1
					c-0.1,0-0.2-0.1-0.2-0.1c-0.4-0.4-0.5-0.9-0.5-1.6c0-0.9,0.3-2,0.6-2.6c0.7-1.5,1.6-3,2.7-4.2c1.3-1.3,2.7-2.2,4.3-2.9
					c1-0.4,2.1-0.8,3.2-0.7c0.8,0,1.5,0.3,2.1,0.9c0.4,0.4,0.6,1,0.6,1.5C-4355-2047.2-4355.2-2046.6-4355.6-2046.2z
					 M-4329.4-2038.8c0,0.1-0.1,0.1-0.2,0.2c-0.1,0-0.2,0-0.2,0c-0.1,0-0.2-0.1-0.2-0.1c-0.1-0.1-0.1-0.1-0.1-0.2
					c-0.5-2.4-1.4-4.2-3.5-5.3c-1-0.6-2.1-0.9-3.2-1.2c-0.3-0.1-0.6-0.1-1-0.2c-1.1-0.2-2.1-0.4-2.8-1.3c-0.4-0.6-0.6-1.3-0.5-2
					c0.1-0.6,0.4-1.2,1-1.6c1.5-0.9,3.3,0,4.9,0.7c0.1,0.1,0.2,0.1,0.3,0.2c1.5,0.7,2.8,1.6,3.9,2.9c0.9,1,1.7,2.6,2,4.2
					C-4328.7-2041.3-4328.8-2040-4329.4-2038.8z"/>
			</g>
		</g>
	</g>
</g>
<g class="st2">
	<g transform="matrix(0.4441,0,0,0.39775,-345.369,-236.477)" class="st3">
		<g id="Gray-Short.svg" transform="matrix(0.681216,0,0,0.681216,1361.69,1133.76)">
			<g transform="matrix(1,0,0,1,-236.5,-283.5)">
				<g id="head-mono-Gray-Short">
					<path id="_xD83D__xDD8D_-Ink" class="st4" d="M-473.8-374.7c-6.3,0.7-13.7-0.9-17.9-6.6c-0.1-0.2-0.2-0.4-0.2-0.5
						c0-0.2,0.1-0.4,0.2-0.6c0.1-0.2,0.3-0.3,0.5-0.3c0.2,0,0.3,0,0.5,0.1l0.4,0.2c2.9,1.8,5.8,3.3,9.1,3.9c3.3,0.7,6.7,0.6,10-0.2
						c6-1.5,10.9-5.4,14.5-10.6c4-5.8,6.4-13,7-20.4c0.7-8.9-1-17.6-2.8-26.2c-1.9-9-3.9-18-6.3-26.8c-0.1-0.3-0.1-0.5-0.1-0.8
						c-0.7-0.3-1.5-0.2-2.2,0.1c-1.4,0.5-2.7,1.7-3.8,2.6c-0.4,0.3-0.8,0.7-1.1,0.9c-1.4,1.1-2.9,1.8-4.6,2
						c-1.8,0.1-3.5-0.5-5.1-1.3c-0.8-0.4-1.6-0.8-2.4-1.2c-2.3-1.1-4.5-2.3-7-3c-3.3-1-6.7-1.5-10.2-1.5c-6.1,0.1-12.3,1.8-16,7.6
						c-1.5,2.3-2.5,5-1.7,7.9c0.4,1.6,1.2,3,2.1,4.3l0.3,0.5c0.5,0.7,0.9,1.4,1,2.2c0.1,0.6,0,1.3-0.4,2.1c-0.3,0.5-0.6,0.9-0.9,1.3
						c-0.2,0.3-0.5,0.6-0.7,0.9c-0.4,0.6-0.8,1.4-1.1,2.1c-0.6,1.4-0.8,3-0.8,4.5c-0.1,1.9,0.2,3.7,0.4,5.6c0.2,1.3,0.3,2.6,0.4,3.9
						c0,0.2,0,0.4-0.1,0.5c-0.1,0.2-0.3,0.2-0.5,0.3c0,0-0.1,0-0.2,0c0,0.1,0,0.2,0.1,0.4c-0.1-0.2-0.2-0.3-0.4-0.5c0,0,0,0,0,0
						c-0.1-0.1-0.2-0.2-0.3-0.4c-0.2-0.2-0.4-0.4-0.6-0.5c-1-0.9-2.3-1.4-3.5-1.4c-1.2,0-2.4,0.4-3.3,1.4c-1.8,1.9-2.3,5-2.4,7.6
						c0,2.7,0.5,5.9,2.6,7.6c0.8,0.7,1.9,1.1,2.9,1.1c0.9,0,1.7-0.3,2.5-0.6c0.2-0.1,0.5-0.2,0.8-0.3c0.3-0.1,0.5-0.1,0.8,0
						c0.2,0.1,0.5,0.3,0.6,0.5c0.2,0.2,0.3,0.5,0.3,0.8c0,0.3,0,0.6-0.1,0.9c0,0.1-0.1,0.1-0.1,0.2l0.5,0.9c1.8,3.2,3.6,6.4,5.9,9.2
						c1.4,1.6,2.8,3.1,4.4,4.4l0.2,0.2c0.1,0.1,0.3,0.2,0.5,0.4c0.5,0.4,1,1,1.5,1c0.1,0,0.3,0,0.4,0c0.3,0,0.5-0.1,0.8,0
						c0.2,0.1,0.4,0.2,0.6,0.6c0.1,0.2,0.2,0.5,0.2,0.8c0,0.3-0.1,0.6-0.2,0.8c-0.3,0.5-0.6,0.8-0.9,1c-0.4,0.2-0.8,0.2-1.3,0.1
						c-1.1-0.2-2.3-1.3-3.1-1.9l-0.1-0.1c-1.7-1.5-3.4-3.1-4.8-4.9c-2.5-3.1-4.7-6.8-5.8-10.8c-0.8,0.6-1.8,0.9-2.8,0.9
						c-1.5,0.1-3.1-0.4-4.3-1c-2.6-1.4-4.2-4-4.9-6.9c-0.8-3.5-0.6-7.4,0.5-10.5c0-0.1,0.1-0.2,0.1-0.3c-3.3-9.4-4.3-19.9-4.1-29.9
						c0.1-4.7,0.4-9.6,1.4-14.2c0.5-2.1,1.2-4,2.5-5.6c0.7-0.9,1.6-1.6,2.4-2.4c0.8-0.6,1.5-1.2,2.1-2l0.3-0.4
						c0.1-0.1,0.1-0.2,0.2-0.2c1.1-1.4,2.2-2.7,3.5-3.8c1.5-1.3,3.2-2.3,5-3.1c3.8-1.8,7.9-2.9,12-3.7c8.8-1.8,17.8-1.9,26.5,0.6
						c4,1.2,8,2.8,11.9,4.4c0.4,0.1,0.7,0.3,1.1,0.5c3,1.2,6.1,2.5,9.1,3.7c1.4,0.6,2.8,1.2,4.2,1.7c0.3,0.1,0.6,0.4,0.8,0.7
						c0.2,0.3,0.2,0.7,0.1,1.1c-0.9,2.5-2,4.8-3.3,6.9c0.5,0.4,0.9,0.8,1.1,1.4c0.4,0.7,0.6,1.5,0.6,2.4c0,2.9-2.3,4.9-4.3,6.3
						c-0.2,0.1-0.4,0.2-0.5,0.2c1.9,8.1,3.7,16.3,5.3,24.5l0.1,0.6c1.6,8.6,2.6,17.4,1.1,26.1c-1.3,7.5-4.3,14.8-9,20.4
						C-460.9-378.9-467.1-375.4-473.8-374.7z M-515.2-424.2c-0.8-2.9-1.3-6.1-0.9-9c0.2-1.9,0.7-3.6,1.5-5.3c0.5-0.9,1-1.8,1.7-2.6
						l0.2-0.3c0.1-0.1,0.2-0.3,0.2-0.4c0-0.1,0-0.2,0-0.3c-0.1-0.3-0.3-0.5-0.5-0.8c-0.1-0.2-0.2-0.3-0.3-0.5
						c-1.8-2.7-3.2-6-2.7-9.4c0.4-3.4,2.4-6.5,4.5-8.9c4.6-5.2,11.8-6.4,18.1-6.1c3.7,0.2,7.3,0.9,10.8,2.1c1.7,0.6,3.4,1.4,5,2.2
						l0.4,0.2c0.2,0.1,0.4,0.2,0.6,0.3c1.3,0.7,2.6,1.4,4,1.8c2.7,0.7,4.5-0.8,6.5-2.4c0.7-0.5,1.3-1.1,2-1.6l0.1-0.1
						c1.3-0.8,2.8-1.4,4.3-1.4c1.3,0,2.5,0.5,3.5,1.6c0.2,0.2,0.3,0.5,0.4,0.7c0.1,0.2,0.2,0.4,0.3,0.6c0.4,1.5,0.7,3,1.1,4.5
						l0.3-0.2c0.9-0.6,1.8-1.4,2.2-2.4c0.2-0.4,0.1-1.1-0.1-1.6c-0.1-0.2-0.2-0.3-0.3-0.4c-0.1-0.1-0.2-0.1-0.4-0.1
						c-0.3,0-0.6,0-0.9-0.1c-0.3-0.1-0.5-0.4-0.7-0.6c-0.2-0.3-0.2-0.6-0.2-1c0-0.3,0.1-0.6,0.4-0.9c1.5-1.9,2.7-4,3.7-6.3l-6.3-2.6
						c-2.2-0.9-4.5-1.9-6.7-2.8l-1.2-0.5c-4.1-1.7-8.2-3.3-12.4-4.4c-8.4-2.1-17.2-1.6-25.6,0.4l-0.5,0.1c-3.5,0.9-7.1,1.9-10.3,3.7
						c-1.6,0.9-3.1,2-4.4,3.3c-0.6,0.6-1.1,1.3-1.6,1.9c-0.7,0.9-1.5,1.8-2.3,2.6l-0.8,0.7c-1.2,1.1-2.3,2.1-2.9,3.8
						c-0.7,1.7-1,3.7-1.3,5.5c-0.7,4.7-1,9.5-0.9,14.3c0,8,1.1,15.9,2.5,23.7c1.1-1.8,2.7-3.1,4.7-3.4c1.3-0.2,2.6,0.1,3.7,0.7
						C-516.2-425.3-515.7-424.8-515.2-424.2z M-517.2-414.7c-1.5-0.6-3-0.8-4.5-0.5c-0.2,0-0.3,0-0.4-0.1c-0.1-0.1-0.2-0.2-0.3-0.4
						c-0.1-0.2-0.1-0.4,0-0.5c0-0.1,0.1-0.3,0.3-0.4c1.7-0.9,3.5-1.3,5.4-1l0.2,0c0.9,0.2,2.3,0.5,3.3,1.1c0.8,0.5,1.3,1.2,1.5,2.1
						c0.1,0.5,0,1-0.3,1.3c-0.2,0.4-0.6,0.6-1.1,0.6c-0.8,0-1.3-0.4-1.9-0.9c-0.1-0.1-0.2-0.1-0.2-0.2
						C-516-414-516.6-414.4-517.2-414.7z"/>
				</g>
			</g>
		</g>
		<g id="Eyes-Closed.svg" transform="matrix(0.734096,0,0,0.734096,1398.38,1156.31)">
			<g transform="matrix(1,0,0,1,-144.5,-146.5)">
				<g id="face-Eyes-Closed">
					<path id="_xD83D__xDD8D_-Ink1" class="st4" d="M-558.4-520.4l0.2,0c1.2-0.3,2.4-0.8,3.5,0.1c1.1,0.8,1.2,2.3,0.4,3.3
						c-0.9,1.1-2,1-3.2,1h-0.1c-1,0-2,0-3-0.1c-0.9-0.1-1.9-0.2-2.8-0.4l-0.5-0.1c-0.5-0.1-1.1-0.3-1.4-0.9c-0.5-1,3.2-1.9,3.6-2
						C-560.6-519.9-559.5-520.1-558.4-520.4z M-556.3-533c-0.6,0.7-1.4,1.2-2.2,1.4c-2.2,0.7-5,0.3-6.8-0.4
						c-0.4-0.2-0.7-0.5-0.9-0.9c-0.2-0.4-0.2-0.8-0.1-1.2c0-0.1,0.1-0.2,0.1-0.4c0.1-0.3,0.4-0.6,0.7-0.7c0.3-0.2,0.7-0.2,1-0.1
						c0,0,0.1,0,0.1,0c1.1,0.4,3,1.1,4.5,0.9c0.9-0.1,1.7-0.4,2.2-1.4c0.2-0.5,0.2-1,0-1.4c-0.3-0.7-0.9-1.3-1.4-1.7
						c-0.7-0.6-1.5-0.8-2.2-1c-0.3-0.1-0.6-0.2-0.9-0.3c-0.1,0-0.2-0.1-0.2-0.2s-0.1-0.2-0.1-0.3s0-0.2,0-0.3c0-0.1,0.1-0.2,0.2-0.2
						c1.5-0.8,3.5-0.3,5,0.9c0.7,0.6,1.4,1.4,1.7,2.2c0.3,0.8,0.5,1.7,0.4,2.6C-555.4-534.4-555.8-533.6-556.3-533z M-581.3-550
						c0.4-0.2,0.8,0.8,0.9,1l0.2,0.6c0.3,0.9,0.6,1.8,1.3,2.5c0.5,0.6,1.4,1,2,0.4c0.6-0.6,0.3-1.3,0.4-2.1c0.2-1.4,1.8-2.8,2.8-1.3
						c2.3,3.2-1.2,7.8-4.5,7c-1.7-0.4-3-1.9-3.5-3.6l0-0.1C-582.2-546.8-582.5-549.4-581.3-550z M-551.9-547.7L-551.9-547.7
						c-1.1-2.8,2.8-4,3.1-1.5l0,0.2c0.3,2.8-0.3,6.5-3.4,6.7c-3.4,0.3-4.8-3.9-4.5-7c0-0.5,0.7-0.6,0.8-0.1l0,0.1
						c0.5,1.6,1.1,4.5,3,4.5C-551.4-544.8-551.5-546.7-551.9-547.7z M-549.4-555.7c2-0.1,1.9,3.3,0,3.4c-6.5,0.2-13,0.4-19.5,0.4
						l-1.2,0c-6.1,0-12.2,0.1-18.3-0.4c-0.5,0-0.4-0.9,0-0.8c6.4-1,12.8-1.3,19.3-1.7C-562.5-555.2-556-555.4-549.4-555.7z"/>
				</g>
			</g>
		</g>
	</g>
</g>
</svg>
