<?xml version="1.0" encoding="utf-8"?>
<!-- Generator: Adobe Illustrator 24.2.0, SVG Export Plug-In . SVG Version: 6.00 Build 0)  -->
<svg version="1.1" id="图层_1" xmlns="http://www.w3.org/2000/svg" xmlns:xlink="http://www.w3.org/1999/xlink" x="0px" y="0px"
	 viewBox="0 0 85 85" style="enable-background:new 0 0 85 85;" xml:space="preserve">
<style type="text/css">
	.st0{fill-rule:evenodd;clip-rule:evenodd;fill:#FFFFFF;}
	.st1{fill:none;}
	.st2{fill-rule:evenodd;clip-rule:evenodd;}
	.st3{fill:none;stroke:#000000;stroke-linecap:round;stroke-linejoin:round;stroke-miterlimit:1.5;}
	.st4{display:none;}
	.st5{display:inline;}
	.st6{fill-rule:evenodd;clip-rule:evenodd;fill:#040000;}
</style>
<g transform="matrix(1,0,0,1,671.437,-437.831)">
	<g>
		<g transform="matrix(0.4441,0,0,0.39775,0,0)">
			<path class="st0" d="M-1434.5,1179.1c0,0,5.8,10.2,1.2,22.7c0,0-44,11.3-44,39.2c0,27.9,28.5,40.3,44.5,43.5
				c15.9,3.2,54,3.4,73.9-25.1c11.3-16.1,0.2-39.4-16.6-48.8c-11-6.1-23.9-9.2-33.9-10c0,0-5.3-2.1-1.2-14.3
				C-1410.5,1186.3-1422.8,1172.4-1434.5,1179.1z"/>
		</g>
		<g transform="matrix(0.4441,0,0,0.39775,0,0)">
			<path class="st1" d="M-1446.7,1241.1c0,0,7.5-11.6,32.6-10.2c25,1.4,24.7,3.9,29,10.9c0,0-13.5,9.1-29.4,8.8
				C-1430.4,1250.3-1440.4,1246.1-1446.7,1241.1z"/>
		</g>
		<g>
			<g transform="matrix(0.590858,0,0,0.471567,-608.446,-211.9)">
				<path class="st2" d="M-57.9,1485c-0.9,0.7-2.2,1.5-3,2.8c-0.6,0.9-0.9,1.9-0.8,3.2c0.1,0.8,0.4,1.5,0.8,2.2
					c0.6,0.9,1.4,1.7,1.9,2.4c2.1,2.3,4.7,4.2,7.5,5.6c3.9,1.9,8.3,3,12.8,3.4c7.6,0.7,15.5-0.6,21.5-3.4c2.4-1.1,5.6-3,7.6-5.1
					c1.3-1.3,2.1-2.8,2.2-4.2c0.1-1.8-0.9-4.4-2.6-6.6c-1.3-1.6-3-3-4.9-3.7c-0.2-0.1-0.5,0.1-0.6,0.4c-0.1,0.3,0.1,0.6,0.3,0.7
					c1.7,0.7,3.2,2,4.3,3.6c1.4,1.8,2.3,4,2.2,5.5c-0.1,1.4-1.2,2.7-2.7,4c-1.9,1.6-4.3,3-6.3,3.9c-5.8,2.7-13.5,3.9-21,3.3
					c-4.4-0.4-8.7-1.4-12.4-3.2c-2.8-1.3-5.3-3-7.3-5.2c-0.5-0.6-1.3-1.3-1.9-2.1c-0.4-0.5-0.7-1-0.7-1.6c-0.1-1,0.1-1.8,0.5-2.5
					c0.7-1.2,1.8-2.1,2.7-2.9c0.1-0.1,0.1-0.2,0.1-0.3C-57.7,1485-57.8,1485-57.9,1485z"/>
			</g>
			<g transform="matrix(0.590858,0,0,0.508029,-622.083,-351.568)">
				<ellipse class="st3" cx="-11.3" cy="1665.2" rx="46.2" ry="33.6"/>
			</g>
			<g transform="matrix(0.535378,0,0,0.621174,-393.541,-650.999)">
				<path class="st2" d="M-464.5,1843.3c0-0.2-0.2-0.6,0.2-1c0.3-0.3,0.8-0.6,1.8-1.1c0.3-0.1,0.5-0.3,0.9-0.4
					c4.1-1.9,8.6-2.9,13.2-3.4c2.8-0.3,5.6-0.5,8.3-0.5c4.3-0.1,8.6,0.2,12.6,0.5c2,0.2,5.4,0.5,8.4,1.9c1.3,0.6,2.5,1.4,3.4,2.4
					c0.2,0.2,0.5,0.5,0.7,0.8c0.2,0.3,0.6,0.4,0.9,0.2c0.3-0.2,0.4-0.5,0.3-0.8c-0.2-0.4-0.4-0.7-0.6-1c-1-1.3-2.4-2.1-3.9-2.9
					c-3.1-1.5-6.9-1.9-9-2.1c-4-0.3-8.4-0.6-12.8-0.5c-2.9,0-5.7,0.2-8.6,0.6c-4.8,0.7-9.4,1.9-13.5,4c-0.4,0.2-0.7,0.4-1,0.6
					c-0.6,0.4-1.1,0.8-1.3,1.1c-0.3,0.3-0.4,0.6-0.5,0.8c-0.1,0.4-0.1,0.7,0,0.9c0,0.1,0.2,0.2,0.3,0.2
					C-464.6,1843.5-464.5,1843.4-464.5,1843.3z"/>
			</g>
			<g transform="matrix(0.590858,0,0,0.471567,-608.446,-211.9)">
				<path class="st2" d="M-77.9,1498.9c1.1,3.7,6.3,13.2,17.7,19.5c6,3.3,13.7,5.7,23.4,6c10.4,0.3,18.7-1.7,25.3-4.9
					c9.8-4.7,15.8-11.9,18.6-17c0.6-1,1-2,1.3-2.8c0-0.1,0-0.2-0.1-0.3c-0.1-0.1-0.2,0-0.2,0.1c-0.3,0.8-0.8,1.7-1.4,2.7
					c-2.8,4.9-8.7,11.9-18.4,16.5c-6.5,3.1-14.8,5.3-25.1,5c-9.6-0.3-17.2-2.7-23.1-6c-11.2-6.2-16.4-15.4-17.5-19
					c-0.1-0.2-0.2-0.3-0.3-0.2C-77.9,1498.5-77.9,1498.7-77.9,1498.9z"/>
			</g>
			<g transform="matrix(0.4441,0,0,0.39775,0,0)">
				<path class="st2" d="M-1442.9,1226.1c0.2,0,0.3-0.1,0.5-0.3c0.5-0.4,1.2-1,1.6-1.2c1.9-0.8,3.9-1.6,5.9-2.3
					c1.4-0.5,2.7-0.9,4-1.2c5.3-1.2,10.5-1.6,15.7-1.5c5.3,0.2,10.5,0.9,15.7,2c0.2,0,0.3-0.1,0.4-0.3c0-0.2-0.1-0.4-0.3-0.4
					c-5.3-1.1-10.5-1.9-15.8-2.1c-5.3-0.2-10.6,0.3-15.9,1.6c-1.3,0.3-2.7,0.7-4.1,1.2c-2,0.7-4.1,1.6-5.9,2.4
					c-0.5,0.2-1.2,0.9-1.7,1.3c-0.1,0.1-0.3,0.2-0.4,0.2c-0.1,0-0.2,0.2-0.2,0.3C-1443.2,1226.1-1443,1226.2-1442.9,1226.1z"/>
			</g>
		</g>
		<g>
			<g transform="matrix(0.4441,0,0,0.39775,0,0)">
				<path class="st0" d="M-1380.9,1204c0,0-10.7-1.3-14.1,0.6c-3.4,1.9,5.4,3.2,8,3.5c0,0-6,11.5-3.6,11.8c1.5,0.2,4.2-4.9,7-7.8
					c0.6-0.6,1.3-1.6,1.9-1.8c-0.4-0.1-8.2,12.9-6.2,17.7c0,0,1,0.3,1.8-1.2c2.4-4.1,6.8-13.3,8.6-14.6c0,0-7,12.7-4.6,14.5
					c1.4,1.1,7.7-13,8.5-12.8c0.1,0-3.3,10.1-1.5,11.4c0.8,0.6,4.2-8.4,6.6-9.2c1.5-0.5,2.1,1.3,2.1,1.3s0.6-3.5-0.5-5.2
					c-0.4-0.6-1.2-0.8-2-0.9c-0.9-0.1-0.9-1.5-1.2-1.9c-0.6-1-0.7-0.7-3.3-1.7c-2.3-0.8-2.7-2.9-3.9-3.8
					C-1377.9,1203.4-1379.8,1203.1-1380.9,1204z"/>
			</g>
			<g transform="matrix(0.4441,0,0,0.39775,0,0)">
				<path class="st2" d="M-1379.9,1202.9c-0.1,0-0.2,0.1-0.3,0.1c-0.2,0-0.3-0.1-0.4-0.1c-0.1,0-0.1,0-0.2,0
					c-0.6,0.2-1.2,0.4-1.5,0.5c-0.6,0.3-1.1,0.7-1.7,1.1c-0.6,0.4-1.1,0.9-1.6,1.3c-1.1,1-1.9,2.2-2.7,3.5c-0.7,1.3-1.3,2.8-1.8,4.2
					c-0.2,0.6-0.4,1.3-0.6,1.9c-0.2,0.6-0.8,2-0.9,3.1c0,0.2,0,0.4,0,0.6c0,0.4,0.1,0.7,0.3,1c0.2,0.3,0.5,0.3,0.9,0.2
					c0.7-0.3,1.6-1.5,1.9-1.8l3.5-4.6c0.4-0.5,1.1-1.4,1.8-2.2c0.5-0.5,1-1,1.3-1.3c0.1-0.1,0.1-0.2,0-0.3c-0.1-0.1-0.2-0.1-0.3,0
					l-3.2,3.5l-3.7,4.4c-0.2,0.2-0.6,0.7-1,1.1c-0.2,0.2-0.4,0.4-0.6,0.5c-0.1,0-0.1,0.1-0.2,0.1c-0.1-0.1-0.2-0.3-0.3-0.5
					c0-0.2,0-0.3,0.1-0.5c0.2-1,1-2.2,1.3-2.7c0.3-0.6,0.5-1.1,0.8-1.7c0.6-1.3,1.2-2.7,1.9-3.9c0.7-1.2,1.4-2.3,2.3-3.1
					c0.5-0.4,1-0.9,1.5-1.3c0.5-0.4,1-0.8,1.6-1.1c0.2-0.1,0.7-0.3,1.2-0.5c0.1,0,0.1,0,0.2-0.1c0.2-0.1,0.2-0.3,0.3-0.4
					c0.1-0.1,0.3-0.2,0.4-0.2c0.2-0.1,0.3-0.3,0.2-0.5C-1379.5,1202.9-1379.7,1202.8-1379.9,1202.9z"/>
			</g>
			<g transform="matrix(0.4441,0,0,0.39775,0,0)">
				<path class="st2" d="M-1381.9,1209.8c-0.1,0.1-0.3,0.3-0.5,0.5c-0.2,0.3-0.5,0.7-0.7,1.1c-0.3,0.4-0.6,0.8-0.8,1
					c-0.8,1.3-1.5,2.7-2.2,4.1c-0.9,2.2-1.6,4.4-2.2,6.7c-0.1,0.3-0.4,1.4-0.5,2.5c-0.1,0.7-0.1,1.5,0,1.9c0,0.2,0.1,0.4,0.2,0.5
					c0.3,0.5,0.8,0.8,1.4,0.4c0.3-0.2,0.5-0.4,0.7-0.7c0.2-0.2,0.4-0.4,0.5-0.6c0.7-1,1.1-2.4,1.6-3.3c0.9-1.4,1.8-3.3,2.8-5.1
					c0.4-0.7,0.8-1.4,1.2-2.2c0.6-1,1.2-1.9,1.7-2.8c0.4-0.7,0.8-1.3,1.1-1.8c0.1-0.1,0.1-0.3,0-0.4c-0.1-0.1-0.2-0.1-0.3,0
					c-0.6,0.6-1.2,1.3-1.8,2.1c-0.9,1.4-1.7,3.3-2.5,5c-0.9,1.8-1.8,3.5-2.6,4.9c-0.5,0.8-1.1,2.2-1.8,3.1c-0.2,0.2-0.4,0.4-0.6,0.5
					c-0.2,0.1-0.3,0.1-0.5,0.1c0,0,0-0.1,0-0.1s0.1,0,0.1,0c0,0,0.2,0,0.1,0c0,0,0.1,0,0.1-0.1c0-0.3,0-0.8,0.1-1.3
					c0.1-1,0.4-2.1,0.4-2.3c0.4-1.8,1-3.7,1.6-5.5c0.6-1.8,1.3-3.5,2.2-5.1c0.1-0.3,0.3-0.7,0.5-1.2c0.3-0.6,0.8-1.2,1-1.4
					c0.2-0.1,0.2-0.4,0.1-0.5C-1381.5,1209.8-1381.7,1209.7-1381.9,1209.8z"/>
			</g>
			<g transform="matrix(0.4441,0,0,0.39775,0,0)">
				<path class="st2" d="M-1381.8,1226c0-0.1,0-0.2,0-0.3c0-0.5,0.2-1.1,0.2-1.4c0.2-0.9,0.4-1.7,0.6-2.5c0.6-2,1.5-3.9,2.2-6
					c0.2-0.5,0.3-0.9,0.5-1.3c0.2-0.4,0.4-0.8,0.6-1.3c0-0.1,0.1-0.4,0.2-0.6c0.1-0.1,0.2-0.3,0.3-0.3c0,0,0,0,0,0
					c0.1-0.1,0.1-0.1,0.2-0.2c0-0.1-0.3-0.7-0.7-0.3c-0.1,0.1-0.2,0.2-0.3,0.3c-0.1,0.1-0.2,0.1-0.3,0.2c-0.2,0.1-0.2,0.2-0.3,0.3
					c-0.3,0.4-0.6,0.9-0.8,1.3c-0.2,0.4-0.5,0.9-0.7,1.4c-0.7,1.8-1.6,3.3-2.3,5c-0.5,1.2-0.8,2.4-1.1,3.7c-0.1,0.5-0.3,1.9,0,2.7
					c0.1,0.5,0.4,0.9,0.7,1.1c0.4,0.2,1,0.2,1.6-0.3c0.9-0.8,1.9-2.7,2.1-3.1c0.7-1.3,1.5-2.8,2.2-4.2c0.3-0.6,0.6-1.3,0.9-1.9
					c0.4-0.9,0.8-1.7,1.3-2.4c0.5-0.7,1-1.4,1.7-2c0.1-0.1,0.1-0.4,0-0.5c-0.1-0.1-0.3-0.1-0.5,0c-0.5,0.6-0.9,1.2-1.3,1.7
					c-0.6,0.9-1.2,1.8-1.7,2.9c-0.4,0.7-0.9,1.5-1.4,2.3c-0.7,1.2-1.5,2.3-2.2,3.4C-1380.2,1223.7-1381.2,1225.4-1381.8,1226z
					 M-1381.9,1226.1C-1382,1226-1382,1226-1381.9,1226.1c-0.1-0.1-0.4-0.2-0.3-0.1C-1382.2,1226.2-1382.1,1226.2-1381.9,1226.1z"/>
			</g>
			<g transform="matrix(0.4441,0,0,0.39775,0,0)">
				<path class="st2" d="M-1375,1224.4c0-0.1,0-0.2,0-0.3c0-0.3,0-0.5,0-0.6c0-0.8,0.1-1.5,0.2-2.3c0.2-1.2,0.4-2.4,0.8-3.5l0.5-2.1
					c0,0,0.1-0.9,0.3-1.3c0,0,0.1,0,0.1,0c0.1,0,0.1,0,0.1-0.1c0.1-0.1,0.1-0.2,0.1-0.3c0.1-0.3-0.2-0.4-0.3-0.5
					c-0.1,0-0.3,0-0.5,0.2c-0.3,0.3-0.9,1.4-0.9,1.5l-0.6,2.1c-0.3,1-0.6,2-0.8,3c-0.2,1.1-0.3,2.1-0.3,3.2c0,0.3,0,1,0.1,1.5
					c0.1,0.4,0.4,0.7,0.7,0.7c0.3,0.1,0.7-0.2,1.1-0.7c0.8-1,1.7-3.1,1.9-3.5c0.2-0.3,0.5-0.7,0.8-1.1c0.7-0.9,1.5-1.9,2.1-2.6
					c0.4-0.4,0.6-0.9,1-1.3c0.1-0.1,0.3-0.3,0.4-0.4c0.3-0.2,0.3-0.6,0.2-0.8c-0.2-0.3-0.5-0.4-0.8-0.2c-0.2,0.2-0.4,0.3-0.6,0.5
					c-0.4,0.4-0.6,0.9-1,1.3c-0.4,0.5-1,1.2-1.5,1.9c-0.6,0.8-1.1,1.6-1.4,2.1c-0.1,0.3-0.7,1.6-1.3,2.7
					C-1374.5,1223.9-1374.8,1224.2-1375,1224.4z M-1373,1214.2L-1373,1214.2c-0.1,0-0.1,0-0.2,0.1l0.1,0L-1373,1214.2L-1373,1214.2
					C-1373,1214.2-1373,1214.2-1373,1214.2L-1373,1214.2z"/>
			</g>
			<g transform="matrix(0.4441,0,0,0.39775,0,0)">
				<path class="st2" d="M-1379.6,1203.8c0.1,0,0.2,0,0.3,0l0.9,0.3c0.8,0.3,1.2,0.5,1.5,0.8c0.4,0.3,0.6,0.7,1.2,1.4
					c0.3,0.4,0.6,0.8,0.9,1.2c0.2,0.2,0.3,0.4,0.5,0.5c0.1,0.1,0.3,0.2,0.7,0.3c0.6,0.2,1.6,0.4,1.9,0.6c0.2,0.1,0.4,0.3,0.6,0.5
					c0.5,0.6,1,1.4,1.5,2c0.2,0.3,1.6,1.9,2,1.4c0.1,0.4,0.2,0.7,0.2,1c0.1,0.4,0.1,0.7,0.1,1c0.1,0.5,0.1,1,0.3,1.7
					c0.1,0.4,0.4,0.6,0.7,0.6c0.3-0.1,0.6-0.4,0.5-0.8c-0.1-1.1-0.1-1.7-0.1-2.4c-0.1-0.5-0.2-1-0.4-1.7c-0.1-0.2-0.3-0.5-0.6-0.8
					c-0.5-0.4-1.5-0.8-1.7-1c-0.5-0.6-0.9-1.4-1.4-2c-0.3-0.4-0.6-0.7-1-0.9c-0.2-0.1-0.5-0.2-0.9-0.3c-0.6-0.2-1.5-0.3-1.6-0.4
					l-1.4-1.3c-0.9-0.9-1.2-1.2-1.8-1.6c-0.3-0.2-0.7-0.4-1.4-0.7l-1.2-0.2c-0.2,0-0.5,0.1-0.6,0.1c-0.1,0.1-0.2,0.1-0.2,0.2
					c-0.1,0.2-0.1,0.3,0,0.5c0,0,0.1,0.2,0.3,0.2C-1379.6,1203.8-1379.6,1203.8-1379.6,1203.8z"/>
			</g>
			<g transform="matrix(0.4441,0,0,0.39775,0,0)">
				<path class="st2" d="M-1381.6,1204c0.1,0.1,0.2,0.2,0.3,0.2c0.1,0,0.2-0.1,0.2-0.1c0.1-0.1,0.3-0.6-0.2-0.7
					c-0.3-0.1-1.1-0.3-1.3-0.3c-0.5-0.1-1.1-0.2-1.7-0.2c-0.6,0-1.2-0.1-1.7-0.1c-0.7,0-1.4,0.1-2,0.2c-1.1,0.1-2.2,0.3-3.2,0.5
					c-0.4,0.1-0.9,0.1-1.3,0.2c-0.2,0-0.5,0-0.8,0.1c-0.3,0-0.6,0.1-0.9,0.2c-0.4,0.1-0.7,0.3-1,0.5c-0.3,0.1-0.5,0.2-0.7,0.3
					c-0.4,0.4-0.2,0.8,0.1,1.2c0.4,0.5,1.3,0.9,1.5,1c0.6,0.3,1.2,0.5,1.8,0.8c0.4,0.2,0.8,0.3,1.3,0.4c0.4,0.1,0.7,0.2,1.1,0.2
					c0.8,0.1,1.7,0.1,2.4,0.2c0.3,0,0.6-0.2,0.6-0.6c0-0.4-0.2-0.7-0.5-0.7c-0.8-0.1-1.6-0.1-2.5-0.2c-0.3,0-0.7-0.1-1-0.2l-3-1.1
					c-0.1,0-0.5-0.2-0.8-0.3c-0.1-0.1-0.2-0.1-0.3-0.2c-0.1,0-0.2-0.1-0.2-0.1c0-0.1-0.1-0.2-0.1-0.1c0.1-0.2,0.2-0.4,0.4-0.5
					c0.1,0,0.2,0,0.3,0c0.4,0,0.9,0.1,1.4,0.2c0.4,0,0.7,0.1,1,0.1c0.5,0,0.9,0,1.4-0.1c1.8-0.2,3.5-0.8,5.2-0.9c0.5,0,1,0,1.6,0
					c0.6,0,1.1,0,1.6,0.1C-1382.5,1203.9-1381.9,1203.9-1381.6,1204z M-1381.6,1204C-1381.6,1204-1381.6,1204.1-1381.6,1204
					c0.1,0.1,0.1,0.2,0.1,0.2C-1381.4,1204.1-1381.5,1204-1381.6,1204z"/>
			</g>
		</g>
		<g>
			<g transform="matrix(-0.452035,0,0,0.39775,3498.67,2.27808)">
				<path class="st0" d="M9166.8,1199.7c0,0-10.7-1.3-14.1,0.6c-3.4,1.9,5.4,3.2,8,3.5c0,0-6,11.5-3.6,11.8c1.5,0.2,4.2-4.9,7-7.8
					c0.6-0.6,1.3-1.6,1.9-1.8c-0.4-0.1-8.2,12.9-6.2,17.7c0,0,1,0.3,1.8-1.2c2.4-4.1,6.8-13.3,8.6-14.6c0,0-7,12.7-4.6,14.5
					c1.4,1.1,7.7-13,8.5-12.8c0.1,0-3.3,10.1-1.5,11.4c0.8,0.6,4.2-8.4,6.6-9.2c1.5-0.5,2.1,1.3,2.1,1.3s0.6-3.5-0.5-5.2
					c-0.4-0.6-1.2-0.8-2-0.9c-0.9-0.1-0.9-1.5-1.2-1.9c-0.6-1-0.7-0.7-3.3-1.7c-2.3-0.8-2.7-2.9-3.9-3.8
					C9169.7,1199,9167.9,1198.8,9166.8,1199.7z"/>
			</g>
			<g transform="matrix(-0.452035,0,0,0.39775,3498.67,2.27808)">
				<path class="st2" d="M9168.1,1199.3c-0.1,0.1-0.2,0.1-0.4,0.2c-0.1,0.1-0.2,0.3-0.3,0.4c0,0-0.1,0-0.2,0.1
					c-0.5,0.2-1,0.4-1.2,0.5c-0.5,0.3-1,0.7-1.6,1.1c-0.5,0.4-1,0.8-1.5,1.2c-0.9,0.9-1.7,2-2.3,3.1c-0.7,1.3-1.3,2.6-1.9,3.9
					c-0.3,0.6-0.5,1.2-0.8,1.7c-0.3,0.5-1,1.7-1.3,2.7c0,0.2-0.1,0.4-0.1,0.6c0,0.2,0.1,0.3,0.2,0.4c0.1,0.1,0.1,0,0.2-0.1
					c0.2-0.1,0.4-0.3,0.6-0.5c0.4-0.4,0.9-0.9,1-1.1l3.7-4.4l3.2-3.5c0.1-0.1,0.2-0.1,0.3,0c0.1,0.1,0.1,0.2,0,0.3
					c-0.4,0.3-0.8,0.8-1.3,1.3c-0.7,0.8-1.5,1.7-1.8,2.2l-3.5,4.6c-0.3,0.3-1.2,1.5-1.9,1.8c-0.4,0.1-0.7,0.1-0.9-0.2
					c-0.2-0.2-0.2-0.5-0.3-0.8c0-0.2,0-0.5,0-0.8c0.1-1.1,0.7-2.5,0.9-3.1c0.2-0.6,0.4-1.2,0.6-1.9c0.5-1.4,1.1-2.9,1.8-4.2
					c0.7-1.3,1.6-2.5,2.7-3.5c0.5-0.5,1-0.9,1.6-1.3c0.6-0.4,1.1-0.8,1.7-1.1c0.3-0.2,0.9-0.4,1.5-0.5c0.1,0,0.1,0,0.2,0
					c0.2,0,0.3,0.1,0.4,0.1c0.1,0,0.2-0.1,0.3-0.1c0.2-0.1,0.4,0,0.5,0.2C9168.4,1198.9,9168.3,1199.2,9168.1,1199.3z"/>
			</g>
			<g transform="matrix(-0.452035,0,0,0.39775,3498.67,2.27808)">
				<path class="st2" d="M9160.3,1223.1C9160.3,1223.1,9160.3,1223.1,9160.3,1223.1C9160.3,1223.1,9160.3,1223.1,9160.3,1223.1
					C9160.3,1223.1,9160.2,1223.1,9160.3,1223.1c-0.1-0.1-0.2,0-0.3,0c0,0,0,0.1,0,0.1c0.2,0,0.4,0,0.6-0.1c0.2-0.1,0.3-0.3,0.5-0.5
					c0.7-0.9,1.3-2.3,1.8-3.1c0.8-1.3,1.7-3.1,2.6-4.9c0.8-1.7,1.6-3.6,2.5-5c0.6-0.9,1.2-1.6,1.8-2.1c0.1-0.1,0.2-0.1,0.3,0
					c0.1,0.1,0.1,0.3,0,0.4c-0.4,0.5-0.7,1.2-1.1,1.8c-0.5,0.9-1.2,1.8-1.7,2.8c-0.4,0.7-0.8,1.4-1.2,2.2c-1,1.9-1.9,3.7-2.8,5.1
					c-0.5,0.9-1,2.3-1.6,3.3c-0.2,0.2-0.4,0.4-0.5,0.6c-0.2,0.3-0.4,0.5-0.7,0.7c-0.6,0.5-1,0.1-1.4-0.4c-0.1-0.1-0.1-0.3-0.2-0.5
					c-0.1-0.5-0.1-1.2,0-2c0.1-1.1,0.5-2.3,0.5-2.5c0.6-2.2,1.3-4.5,2.2-6.7c0.6-1.5,1.3-2.8,2.2-4.1c0.2-0.2,0.5-0.6,0.8-1
					c0.3-0.4,0.5-0.8,0.7-1.1c0.2-0.3,0.4-0.4,0.5-0.5c0.2-0.1,0.4,0,0.5,0.2c0.1,0.2,0,0.5-0.1,0.6c-0.3,0.2-0.7,0.8-1,1.4
					c-0.2,0.5-0.4,0.9-0.5,1.2c-0.9,1.6-1.6,3.3-2.2,5.1c-0.6,1.8-1.1,3.6-1.6,5.5c-0.1,0.2-0.3,1.3-0.4,2.3
					C9160.3,1222.2,9160.2,1222.7,9160.3,1223.1C9160.3,1223,9160.3,1223.1,9160.3,1223.1z"/>
			</g>
			<g transform="matrix(-0.452035,0,0,0.39775,3498.67,2.27808)">
				<path class="st2" d="M9170.5,1207.8L9170.5,1207.8c-0.1,0.1-0.2,0.2-0.3,0.4c-0.1,0.2-0.2,0.5-0.2,0.6c-0.2,0.4-0.4,0.8-0.6,1.3
					c-0.2,0.4-0.3,0.9-0.5,1.3c-0.7,2.1-1.5,4-2.2,6c-0.3,0.8-0.5,1.6-0.6,2.5c-0.1,0.2-0.5,1.3-0.4,1.7l0,0l0,0l0,0l0,0
					c0,0.1,0.1,0.1,0.2,0.1c0.1,0,0-0.1-0.1-0.1c0.6-0.4,1.7-2.3,1.9-2.6c0.7-1,1.5-2.2,2.2-3.4c0.5-0.8,1-1.5,1.4-2.3
					c0.5-1.1,1.1-2,1.7-2.9c0.4-0.6,0.8-1.2,1.3-1.8c0.1-0.1,0.3-0.1,0.5,0c0.1,0.1,0.1,0.4,0,0.5c-0.8,0.8-1.4,1.6-2,2.5
					c-0.4,0.6-0.7,1.2-1,1.9c-0.3,0.6-0.6,1.2-0.9,1.9c-0.7,1.4-1.5,2.9-2.2,4.2c-0.2,0.4-1.3,2.4-2.1,3.1c-0.6,0.5-1.2,0.5-1.6,0.3
					c-0.4-0.2-0.6-0.5-0.8-1.1c-0.2-0.8,0-2.3,0-2.8c0.2-1.4,0.6-2.6,1.1-3.8c0.7-1.7,1.5-3.2,2.3-5c0.2-0.5,0.4-1,0.7-1.4
					c0.2-0.4,0.5-0.9,0.8-1.3c0.1-0.1,0.1-0.2,0.3-0.3c0.1-0.1,0.2-0.1,0.3-0.2c0.1-0.1,0.2-0.3,0.3-0.3c0.1-0.1,0.1-0.1,0.1-0.1
					c0.1-0.1,0.3-0.1,0.3-0.1c0.2,0.1,0.4,0.2,0.3,0.5C9170.7,1207.7,9170.6,1207.8,9170.5,1207.8z M9165.7,1221.7
					c-0.1,0.1-0.3,0.1-0.3-0.1C9165.4,1221.5,9165.6,1221.6,9165.7,1221.7L9165.7,1221.7C9165.7,1221.7,9165.7,1221.7,9165.7,1221.7
					z M9170,1207.4c0,0.2,0.1,0.4,0.3,0.4C9170.1,1207.8,9169.9,1207.7,9170,1207.4z M9170,1207.4L9170,1207.4L9170,1207.4
					L9170,1207.4z"/>
			</g>
			<g transform="matrix(-0.452035,0,0,0.39775,3498.67,2.27808)">
				<path class="st2" d="M9174.7,1209.9C9174.8,1209.9,9174.7,1209.9,9174.7,1209.9c-0.1,0.1-0.2,0.1-0.2,0.1
					c-0.2,0.3-0.3,1.2-0.3,1.3l-0.5,2.1c-0.3,1.1-0.6,2.3-0.8,3.5c-0.1,0.8-0.2,1.5-0.2,2.3c0,0.2,0,0.5-0.1,0.8c0,0,0,0.1,0,0.1
					c0.2-0.2,0.5-0.5,0.7-0.8c0.6-1.1,1.1-2.4,1.3-2.7c0.3-0.5,0.8-1.3,1.4-2.1c0.5-0.7,1.1-1.4,1.5-1.9c0.4-0.4,0.7-0.9,1-1.3
					c0.2-0.2,0.4-0.4,0.6-0.5c0.3-0.2,0.6-0.1,0.8,0.2c0.2,0.3,0.1,0.7-0.2,0.9c-0.2,0.1-0.3,0.3-0.4,0.4c-0.4,0.4-0.6,0.9-1,1.3
					c-0.6,0.6-1.4,1.7-2.1,2.6c-0.3,0.4-0.6,0.8-0.8,1.1c-0.2,0.4-1.2,2.4-2,3.5c-0.4,0.6-0.8,0.8-1.1,0.8c-0.4,0-0.6-0.3-0.7-0.7
					c-0.2-0.5-0.1-1.2-0.1-1.5c0-1,0.1-2.1,0.3-3.2c0.2-1,0.5-2.1,0.8-3l0.6-2.1c0-0.1,0.6-1.2,0.9-1.5c0.2-0.3,0.4-0.3,0.5-0.2
					c0.1,0.1,0.3,0.1,0.3,0.5C9174.8,1209.7,9174.8,1209.8,9174.7,1209.9z M9174.5,1209.9c0-0.1,0.1-0.1,0.2-0.1l0,0l0,0
					c0,0,0,0,0,0L9174.5,1209.9L9174.5,1209.9L9174.5,1209.9z"/>
			</g>
			<g transform="matrix(-0.452035,0,0,0.39775,3498.67,2.27808)">
				<path class="st2" d="M9180.1,1208.5c-0.4,0.5-1.8-1.1-2-1.4c-0.5-0.5-1-1.4-1.5-2c-0.2-0.2-0.3-0.4-0.6-0.5
					c-0.4-0.2-1.3-0.4-1.9-0.6c-0.4-0.1-0.6-0.2-0.7-0.3c-0.2-0.2-0.4-0.3-0.5-0.5c-0.3-0.4-0.6-0.8-0.9-1.2
					c-0.6-0.7-0.9-1.1-1.2-1.4c-0.3-0.3-0.7-0.5-1.5-0.8l-0.9-0.3c-0.1,0-0.2,0-0.3,0c0,0-0.1,0-0.1,0c-0.2,0-0.3-0.2-0.3-0.2
					c-0.1-0.1-0.2-0.5,0.2-0.6c0.1,0,0.5-0.1,0.6-0.1l1.2,0.2c0.7,0.3,1.1,0.5,1.4,0.7c0.6,0.4,0.9,0.7,1.8,1.6l1.4,1.3
					c0.1,0.1,1,0.2,1.6,0.4c0.4,0.1,0.7,0.2,0.9,0.3c0.4,0.2,0.7,0.5,1,0.9c0.5,0.6,0.9,1.5,1.4,2c0.2,0.2,1.2,0.6,1.7,1
					c0.4,0.3,0.6,0.6,0.6,0.8c0.2,0.7,0.4,1.2,0.4,1.7c0.1,0.7,0,1.3,0.1,2.4c0.1,0.4-0.2,0.8-0.5,0.8c-0.4,0.1-0.7-0.2-0.7-0.6
					c-0.1-0.7-0.2-1.2-0.3-1.7c0-0.3-0.1-0.6-0.1-1C9180.3,1209.2,9180.3,1208.9,9180.1,1208.5z"/>
			</g>
			<g transform="matrix(-0.452035,0,0,0.39775,3498.67,2.27808)">
				<path class="st2" d="M9166.2,1199.9L9166.2,1199.9c0-0.1,0-0.1-0.1-0.2L9166.2,1199.9
					C9166.2,1199.8,9166.2,1199.9,9166.2,1199.9C9166.2,1200,9166.1,1199.9,9166.2,1199.9c-0.1-0.1-0.2-0.1-0.2-0.2
					c-0.3-0.1-0.9,0-1-0.1c-0.5,0-1.1-0.1-1.6-0.1c-0.6,0-1.1,0-1.6,0c-1.8,0.1-3.5,0.7-5.2,0.9c-0.5,0.1-0.9,0.1-1.4,0.1
					c-0.3,0-0.6,0-1-0.1c-0.5-0.1-0.9-0.2-1.4-0.2c-0.1,0-0.2,0-0.3,0c-0.2,0.1-0.3,0.3-0.4,0.5c0,0.1,0.1,0,0.1,0.1
					c0.1,0.1,0.3,0.2,0.5,0.3c0.3,0.2,0.7,0.3,0.8,0.3l3,1.1c0.3,0.1,0.6,0.1,1,0.2c0.8,0.1,1.7,0.1,2.5,0.2c0.3,0,0.5,0.4,0.5,0.7
					c0,0.4-0.3,0.6-0.6,0.6c-0.8-0.1-1.6-0.1-2.4-0.2c-0.4-0.1-0.7-0.1-1.1-0.2c-0.4-0.1-0.9-0.3-1.3-0.4c-0.6-0.2-1.2-0.5-1.8-0.8
					c-0.2-0.1-1.1-0.5-1.5-1c-0.4-0.4-0.5-0.9-0.1-1.2c0.3-0.2,0.5-0.3,0.9-0.4c0.4-0.1,0.8-0.4,1.2-0.5c0.5-0.1,1-0.1,1.3-0.2
					c0.5,0,0.9-0.1,1.3-0.2c1.1-0.2,2.2-0.3,3.2-0.5c0.7-0.1,1.4-0.2,2-0.2c0.5,0,1.1,0,1.7,0.1c0.6,0,1.1,0.1,1.7,0.2
					c0.1,0,1,0.2,1.3,0.3c0.1,0,0.2,0.1,0.2,0.1c0.2,0.3,0.2,0.5,0,0.6c0,0-0.1,0.1-0.3,0.1
					C9166.3,1199.9,9166.3,1199.9,9166.2,1199.9z"/>
			</g>
		</g>
		<g transform="matrix(0.4441,0,0,0.384187,0,37.9209)">
			<path class="st2" d="M-1433.9,1124.5C-1433.9,1124.5-1433.9,1124.5-1433.9,1124.5c0,0-0.1,0-0.1,0.2c0,0.5,0.5,1.5,0.6,1.6
				c0.2,0.9,0.4,1.8,0.6,2.7c0.2,0.9,0.3,1.8,0.5,2.7c0.3,1.8,0.2,3.6,0,5.4c-0.3,2.7-1,5.3-1.9,8c-0.1,0.4,0,0.9,0.4,1.1
				c0.4,0.2,0.8-0.1,0.9-0.5c0.8-2.3,1.5-4.6,1.9-6.9c0.4-2.4,0.5-4.9,0.1-7.4c-0.2-0.9-0.3-1.9-0.6-2.8c-0.2-0.9-0.5-1.9-0.8-2.8
				c-0.1-0.2-0.5-1.4-0.8-1.7c-0.1-0.1-0.2-0.1-0.2-0.1c-0.1,0,0-0.1-0.1-0.1c-0.1,0-0.1-0.1-0.1-0.1c-0.1,0-0.2-0.1-0.2-0.1
				c-0.1,0.1-0.3,0-0.3,0.1c0,0.2-0.2,0.3-0.1,0.5C-1433.9,1124.4-1433.9,1124.4-1433.9,1124.5L-1433.9,1124.5z M-1433.9,1124.5
				C-1433.9,1124.6-1433.9,1124.6-1433.9,1124.5L-1433.9,1124.5z M-1433.3,1124.3C-1433.3,1124.4-1433.3,1124.4-1433.3,1124.3
				l-0.1,0C-1433.3,1124.4-1433.3,1124.4-1433.3,1124.3C-1433.2,1124.4-1433.2,1124.4-1433.3,1124.3
				C-1433.2,1124.4-1433.2,1124.4-1433.3,1124.3L-1433.3,1124.3z"/>
		</g>
		<g transform="matrix(0.4441,0,0,0.39775,0,0)">
			<path class="st2" d="M-1411.4,1190.8c0.1,0,0.3-0.1,0.3-0.3c0-0.2-0.1-0.3-0.2-0.3c-0.1-0.1-0.1,0-0.2,0c-0.2-0.1-0.3,0-0.5,0.2
				c-0.1,0.1-0.1,0.2-0.1,0.3c-0.3,0.6-0.4,1.8-0.5,2.4c-0.1,0.8-0.2,1.6-0.2,2.3c0,0.9,0.1,1.7,0.4,2.5c0.4,0.9,1,1.7,2.1,2.4
				c0.3,0.3,0.8,0.2,1-0.2c0.2-0.4,0.1-0.9-0.2-1.2c-0.4-0.3-0.7-0.7-1-1.1c-0.3-0.4-0.5-0.8-0.6-1.3c-0.3-1-0.3-2.1-0.2-3.3
				c0-0.4,0-1.1,0.1-1.7c0-0.2-0.1-0.5,0.1-0.5C-1411.1,1191-1411.3,1190.8-1411.4,1190.8
				C-1411.4,1190.9-1411.4,1190.8-1411.4,1190.8z"/>
		</g>
		<g transform="matrix(0.4441,0,0,0.39775,0,0)">
			<path class="st2" d="M-1396.2,1196.7c0,0,0.1,0,0.1,0c0.2-0.1,0.5,0,0.9-0.1c0.1,0,0.2-0.1,0.4-0.1c1.3-0.4,3.2-1,5.1-1.4
				c2-0.4,3.9-0.8,4.9-0.9l0.3,0.1c2.1,0.2,3.2,1.1,4.4,2c1,0.7,2,1.4,3.5,1.8c1.5,0.3,3.4,0.3,6.2-0.4c0.3-0.1,1.2-0.2,1.6-0.5
				c0.4-0.3,0.7-0.7,0.6-1.2c0-0.6-0.3-1.1-0.9-1.2c-0.3,0-0.6,0.1-0.8,0.4l0,0c0,0.1,0,0.2-0.1,0.2l0,0.1c0,0.1,0,0,0,0.1l0,0
				c0-0.1,0-0.2,0.1-0.2l0,0h0l0-0.1h0c0,0,0,0,0-0.1l0-0.1l0,0c0,0,0,0-0.1,0.1l0,0l0,0l0,0c0,0,0,0,0,0l0,0
				c-0.3,0.1-0.8,0-0.9,0.1c-2.4,0.7-4.1,0.7-5.3,0.5c-1.5-0.3-2.5-1.2-3.6-2c-1.2-0.8-2.5-1.5-4.5-1.7l-0.7,0
				c-2,0.3-7.3,1.4-10.1,2.6c-0.3,0.1-0.5,0.2-0.7,0.4c-0.5,0.4-0.8,0.7-0.9,1c-0.2,0.3-0.3,0.5-0.2,0.8c0.1,0.2,0.2,0.4,0.5,0.5
				c0.1,0.1,0.3,0,0.4-0.2C-1396.1,1197-1396.1,1196.8-1396.2,1196.7z"/>
		</g>
		<g transform="matrix(0.4441,0,0,0.39775,0,0)">
			<path class="st2" d="M-1458.7,1199.9c-0.7,0.2-0.2,0.9,0.3,0.7c0,0,0,0,0.1,0c0.1,0.1,0.3,0,0.4-0.1c0,0,0-0.1,0-0.1
				c0.1,0,0.1-0.1,0.2-0.1c0.2-0.1,0.4-0.1,0.5-0.2c0.1-0.1,0.2-0.2,0.4-0.3c1.9-1.5,3.6-2.3,5.2-2.7c4-0.9,6.9,1.4,9.7,2.6
				c1.6,0.7,3.2,1.2,4.7,0.8c1-0.2,1.9-0.8,2.8-1.8c0.4-0.3,0.4-1,0.1-1.4c-0.3-0.4-0.9-0.5-1.2-0.1c-0.7,0.6-1.5,0.9-2.1,1.1
				c-1.2,0.3-2.4-0.1-3.6-0.6c-3.1-1.3-6.4-3.5-10.7-2.4c-1.7,0.4-3.6,1.4-5.7,3.2c-0.1,0.1-0.3,0.2-0.4,0.3
				c-0.2,0.2-0.2,0.4-0.4,0.7C-1458.4,1199.6-1458.5,1199.7-1458.7,1199.9C-1458.6,1199.9-1458.7,1199.9-1458.7,1199.9z
				 M-1458.3,1200.6C-1458.3,1200.6-1458.4,1200.7-1458.3,1200.6C-1458.4,1200.7-1458.3,1200.7-1458.3,1200.6L-1458.3,1200.6z
				 M-1458.5,1199.9L-1458.5,1199.9L-1458.5,1199.9C-1458.6,1199.9-1458.5,1199.9-1458.5,1199.9z"/>
		</g>
		<g transform="matrix(0.4441,0,0,0.39775,0,0)">
			<path class="st2" d="M-1499.5,1208.9L-1499.5,1208.9L-1499.5,1208.9c0,0.1,0,0.1,0,0.1
				C-1499.6,1209.2-1499.6,1209.1-1499.5,1208.9c0.1,0.1,0.3,0.2,0.5,0.1c0.1,0,0.2-0.1,0.3-0.1c0.5-0.3,1.3-0.6,2.2-1
				c1.8-0.9,3.9-1.9,5-2.1c0.7-0.1,1.2,0,1.6,0.1c0.7,0.3,1.1,0.8,1.6,1.3c0.6,0.6,1.3,1.2,2.3,1.5c1.1,0.3,2.1,0.3,3.1,0.2
				c1.8-0.3,3.4-1.1,5.1-1.4c0.2,0,0.4-0.1,0.7-0.1c0.2,0,0.3-0.1,0.4-0.2c0.4,0,0.8-0.3,0.8-0.8c0-0.5-0.3-0.9-0.7-0.9
				c-0.2-0.1-0.4-0.2-0.6-0.2c-0.3-0.1-0.6,0-0.9,0c-1.6,0.2-3.2,1.2-5,1.5c-0.8,0.1-1.6,0.2-2.4-0.1c-0.9-0.2-1.4-0.8-2-1.3
				c-0.5-0.5-1.1-1-1.8-1.2c-0.6-0.2-1.3-0.3-2.3-0.2c-1,0.2-3,1.1-4.8,2.1c-0.7,0.4-1.3,0.8-1.9,1.2c-0.4,0.3-0.7,0.5-1,0.7
				c-0.2,0.2-0.3,0.3-0.3,0.4c-0.1,0.1-0.1,0.2-0.2,0.2c-0.1,0.4-0.1,0.5,0.1,0.5c0,0,0.1,0.1,0.2,0
				C-1499.7,1209.1-1499.6,1209.1-1499.5,1208.9z M-1499.6,1208.6c0,0,0,0.1,0,0.1C-1499.5,1208.7-1499.5,1208.7-1499.6,1208.6z"/>
		</g>
		<g transform="matrix(0.4441,0,0,0.39775,0,0)">
			<path class="st2" d="M-1500.5,1234.7c0,0,0.1-0.2,0.2-0.3c0.1-0.1,0.3,0,0.5-0.1c0.2-0.1,0.3-0.3,0.5-0.4c0.8-0.6,1.7-1,2.6-1.5
				c1.4-0.6,2.8-1.1,4.3-1.5c1.1-0.3,1.8-0.2,2.4,0.2c1,0.7,1.5,1.9,2.3,2.9c0.9,1.1,2.1,1.9,4.2,1.6c0.7-0.1,1.6-0.7,2.6-1.4
				c0.9-0.7,2-1.6,2.9-1.9c0.2-0.1,0.4-0.1,0.7-0.1c0.3,0,0.5,0.1,0.8,0.4c0.3,0.4,0.8,0.4,1.2,0.1c0.4-0.3,0.4-0.9,0.1-1.3
				c-0.5-0.8-1.2-1.2-1.9-1.3c-0.5-0.1-0.9,0-1.4,0.2c-1.1,0.4-2.3,1.4-3.4,2.2c-0.7,0.5-1.2,1-1.8,1.1c-1.5,0.3-2.3-0.5-3-1.5
				c-0.7-0.9-1.4-2-2.3-2.6c-0.9-0.6-2.1-0.8-3.7-0.3c-1.5,0.5-3,1-4.4,1.7c-1,0.5-1.9,1.1-2.8,1.8c-0.2,0.2-0.5,0.4-0.6,0.6
				c-0.2,0.3-0.1,0.5-0.2,0.7c-0.1,0.3-0.3,0.5-0.3,0.7C-1501.2,1235.4-1500.5,1235.1-1500.5,1234.7
				C-1500.5,1234.8-1500.5,1234.7-1500.5,1234.7z"/>
		</g>
		<g transform="matrix(0.4441,0,0,0.39775,0,0)">
			<path class="st2" d="M-1362.4,1220.5C-1362.4,1220.5-1362.4,1220.5-1362.4,1220.5c0.1,0.1,0.2,0.1,0.2,0.2c0,0,0.1,0.1,0,0
				c-0.1-0.1,0.2,0,0.4-0.1c0.5-0.3,1.1-0.7,1.5-0.9c2.6-1.1,4.6-1.4,6.3-1.3c2.2,0.2,3.9,1.1,5.9,1.9c2.4,0.9,5.3,1.6,9.8,0.4
				c0.4-0.1,1-0.1,1.6-0.1c0.7,0,1.4,0,1.9-0.2c0.5-0.2,0.9-0.4,1.1-0.7c0.3-0.3,0.4-0.9,0.1-1.3c-0.3-0.4-0.8-0.4-1.1-0.1
				c-0.2,0.1-0.4,0.1-0.6,0.1c-0.7,0.1-1.6,0.1-2.4,0.1c-0.4,0-0.7,0.1-1,0.2c-5,1.4-7.7,0.3-10.3-0.7c-1.5-0.6-3-1.2-4.8-1.3
				c-1.8-0.1-4,0.3-6.9,1.6c-0.6,0.3-1.5,0.7-1.9,1.3c-0.4,0.6-0.5,1-0.3,1.3c0.1,0.1,0.1,0.3,0.3,0.3c0.1,0.1,0.3,0,0.4-0.1
				C-1362.2,1220.8-1362.3,1220.6-1362.4,1220.5z"/>
		</g>
		<g transform="matrix(0.4441,0,0,0.39775,0,0)">
			<path class="st2" d="M-1353.3,1244.3c0-0.1-0.1-0.1-0.1-0.1c-0.1-0.1-0.3-0.1-0.4,0.1c-0.3,0.5-0.1,0.7,0.1,0.8
				c0.2,0.1,0.8,0.2,1.7-0.1c0.9-0.3,2.1-0.9,3.3-1.4c1.2-0.5,2.4-1,3.1-1.1l0.6,0c0.3,0.1,0.4,0.6,0.6,1c0.3,0.6,0.5,1.3,0.9,1.8
				c0.3,0.4,0.6,0.7,1,0.9c1.2,0.6,4.4,0.5,7-0.3c1.3-0.4,2.4-0.9,3.1-1.6c0.6-0.6,1-1.3,1-2c0-0.6-0.3-1.1-0.8-1.1
				c-0.5,0-1,0.4-1,0.9c0,0.1-0.1,0.1-0.2,0.2c-0.1,0.1-0.2,0.3-0.4,0.4c-0.8,0.6-1.9,1-3.1,1.3c-1.9,0.5-3.9,0.7-4.7,0.3
				c-0.3-0.1-0.5-0.5-0.7-0.9c-0.3-0.6-0.5-1.2-0.9-1.7c-0.3-0.4-0.6-0.7-1-0.9c-0.2-0.1-0.4-0.2-0.6-0.2c-0.3,0-0.5,0-0.8,0
				c-1.3,0.2-3.9,1.6-5.9,2.6c-0.2,0.1-0.5,0.2-0.7,0.3C-1352.7,1243.9-1353,1244.1-1353.3,1244.3L-1353.3,1244.3z"/>
		</g>
		<g transform="matrix(0.4441,0,0,0.39775,0,0)">
			<path class="st2" d="M-1420.7,1240.1c-3.3,1.9-1.7,1.8,0.7,1.4c0.1,0,0.2,0,0.3,0c0.6-0.1,1.3-0.6,2-1c2.9-1.4,6.9-3.6,8.8-3.7
				c1.9-0.2,3,0.8,4.3,1.7c1.5,1.1,3.1,2.2,5.7,2.6c1,0.2,2.2,0.2,3.5,0c1.4-0.2,2.9-0.6,4.8-1.3c0.5-0.2,0.8-0.7,0.6-1.1
				c-0.2-0.4-0.8-0.7-1.3-0.5c-1.4,0.4-2.6,0.6-3.6,0.7c-1.4,0.2-2.5,0.2-3.5,0.1c-2.5-0.4-3.9-1.7-5.4-2.7s-3-1.7-5.2-1.5
				c-2.3,0.2-7.8,3.1-10.8,4.8C-1420.1,1239.8-1420.4,1239.9-1420.7,1240.1C-1420.6,1240.1-1420.7,1240.1-1420.7,1240.1z"/>
		</g>
	</g>
	<g id="Gray-Short.svg5" transform="matrix(0.302528,0,0,0.270954,1723.81,1066.21)" class="st4">
		<g transform="matrix(1,0,0,1,-236.5,-283.5)" class="st5">
			<g id="head-mono-Gray-Short5">
				<path class="st0" d="M-7584-1947.9c0,0-4.7,20.6,9.3,14.6c0,0,7.8,20.2,14.4,18.2c0,0,5.2,4.7,9.4,5.1c0,0,20.7,21.2,38-11.6
					c6.9-13,2.6-41.6-0.4-52.2c-1.3-4.6-1.5-9.4-1.7-10.7c0,0,8.9-6.2,2.4-9.2c0,0,4.7-7.2,3.8-7.9c-0.9-0.6-31-15.3-45.9-12.1
					c-15,3.3-22.1,5.3-27,12.6c-4.9,7.3-5,3.3-5.9,10.4C-7588.6-1983.5-7590.6-1952-7584-1947.9z"/>
				<path id="_xD83D__xDD8D_-Ink12" class="st2" d="M-7534-1902.4c-6.3,0.7-13.7-0.9-17.9-6.6c-0.1-0.2-0.2-0.4-0.2-0.6
					c0-0.2,0.1-0.4,0.2-0.6c0.1-0.2,0.3-0.3,0.5-0.3c0.2,0,0.3,0,0.5,0.1l0.4,0.2c2.9,1.8,5.8,3.3,9.1,3.9c3.3,0.7,6.7,0.6,10-0.3
					c6-1.5,10.9-5.4,14.5-10.6c4-5.8,6.4-13.1,7-20.4c0.7-8.8-1-17.6-2.8-26.2c-1.9-9-3.9-18-6.3-26.8c-0.1-0.3-0.1-0.5-0.1-0.7
					c-0.7-0.3-1.4-0.2-2.2,0.1c-1.4,0.5-2.7,1.7-3.8,2.6c-0.4,0.3-0.8,0.7-1.1,0.9c-1.4,1.1-2.9,1.8-4.6,2c-1.8,0.1-3.5-0.5-5.1-1.3
					c-0.8-0.4-1.6-0.8-2.4-1.2c-2.3-1.2-4.6-2.3-7-3c-3.3-1-6.7-1.5-10.2-1.5c-6.1,0.1-12.3,1.8-16,7.6c-1.5,2.3-2.5,5-1.7,7.9
					c0.4,1.6,1.2,3,2.1,4.3l0.3,0.4c0.5,0.7,0.9,1.4,1,2.2c0.1,0.6,0,1.3-0.4,2.1c-0.3,0.5-0.6,0.9-0.9,1.3
					c-0.2,0.3-0.5,0.6-0.7,0.9c-0.4,0.7-0.8,1.4-1.1,2.1c-0.6,1.4-0.8,3-0.9,4.5c-0.1,1.9,0.2,3.7,0.4,5.6c0.2,1.3,0.3,2.6,0.4,3.9
					c0,0.2-0.1,0.4-0.1,0.5c-0.1,0.2-0.3,0.3-0.4,0.3c-0.1,0-0.1,0-0.2,0c0,0.1,0.1,0.3,0.1,0.4c-0.1-0.2-0.2-0.3-0.4-0.5
					c0,0,0,0,0,0c-0.1-0.1-0.2-0.2-0.3-0.4c-0.2-0.2-0.4-0.4-0.6-0.5c-1-0.9-2.3-1.4-3.5-1.4c-1.2,0-2.4,0.4-3.3,1.4
					c-1.8,1.9-2.3,5-2.4,7.6c0,2.7,0.5,5.9,2.6,7.6c0.8,0.7,1.9,1.1,2.9,1.1c0.9,0,1.7-0.3,2.5-0.7c0.2-0.1,0.5-0.2,0.7-0.3
					c0.3-0.1,0.5-0.1,0.8,0c0.3,0.1,0.5,0.3,0.6,0.5c0.2,0.2,0.3,0.5,0.3,0.8c0,0.3,0,0.6-0.1,0.9c0,0.1-0.1,0.1-0.1,0.2l0.5,0.8
					c1.8,3.2,3.6,6.4,5.9,9.2c1.4,1.6,2.8,3.1,4.4,4.4l0.2,0.2c0.1,0.1,0.3,0.2,0.4,0.4c0.5,0.4,1,1,1.5,1c0.2,0,0.3,0,0.4,0
					c0.3,0,0.5-0.1,0.8,0.1c0.2,0.1,0.4,0.3,0.6,0.6c0.1,0.2,0.2,0.5,0.2,0.8c0,0.3-0.1,0.6-0.2,0.8c-0.3,0.5-0.6,0.8-0.9,1
					c-0.4,0.2-0.8,0.2-1.3,0.1c-1.1-0.2-2.3-1.3-3.1-1.9l-0.2-0.1c-1.7-1.5-3.4-3.1-4.8-4.9c-2.5-3.1-4.7-6.8-5.8-10.8
					c-0.8,0.6-1.8,0.9-2.8,0.9c-1.5,0.1-3.1-0.4-4.3-1c-2.6-1.4-4.2-4-4.9-6.9c-0.9-3.5-0.6-7.4,0.5-10.5c0-0.1,0.1-0.2,0.1-0.3
					c-3.3-9.4-4.4-19.9-4.1-29.9c0.1-4.7,0.4-9.6,1.4-14.2c0.4-2.1,1.2-4,2.5-5.6c0.7-0.9,1.6-1.6,2.4-2.4c0.8-0.6,1.5-1.2,2.1-2
					l0.3-0.4c0.1-0.1,0.1-0.2,0.2-0.2c1.1-1.4,2.2-2.7,3.5-3.8c1.5-1.3,3.2-2.3,5-3.1c3.8-1.8,7.9-2.9,12-3.7
					c8.8-1.8,17.8-1.9,26.5,0.6c4,1.2,8,2.8,11.9,4.4c0.4,0.1,0.7,0.3,1.1,0.4c3,1.2,6.1,2.5,9.1,3.7c1.4,0.6,2.8,1.2,4.2,1.7
					c0.3,0.1,0.6,0.4,0.8,0.7c0.2,0.3,0.2,0.7,0.1,1.1c-0.9,2.5-2,4.8-3.3,6.9c0.5,0.4,0.9,0.8,1.2,1.4c0.4,0.7,0.6,1.5,0.6,2.4
					c0.1,2.9-2.3,4.9-4.3,6.3c-0.2,0.1-0.4,0.2-0.5,0.2c1.9,8.1,3.7,16.3,5.3,24.5l0.1,0.6c1.6,8.6,2.6,17.4,1.1,26.1
					c-1.3,7.5-4.3,14.8-9,20.4C-7521.1-1906.6-7527.3-1903.2-7534-1902.4z M-7575.4-1952c-0.8-2.9-1.3-6.1-0.9-9
					c0.2-1.9,0.7-3.6,1.5-5.3c0.5-0.9,1-1.8,1.7-2.6l0.2-0.3c0.1-0.1,0.2-0.3,0.2-0.4c0-0.1,0-0.2-0.1-0.3c-0.1-0.3-0.3-0.5-0.5-0.8
					c-0.1-0.2-0.2-0.3-0.4-0.5c-1.8-2.7-3.1-6-2.7-9.4c0.4-3.4,2.4-6.5,4.5-8.9c4.6-5.2,11.8-6.4,18.1-6.1c3.7,0.2,7.3,0.9,10.8,2.1
					c1.7,0.6,3.4,1.4,5,2.2l0.4,0.2c0.2,0.1,0.4,0.2,0.6,0.3c1.3,0.7,2.6,1.4,4,1.8c2.7,0.7,4.5-0.8,6.5-2.4c0.7-0.5,1.3-1.1,2-1.6
					l0.1-0.1c1.3-0.8,2.8-1.4,4.3-1.4c1.3,0,2.5,0.5,3.5,1.6c0.2,0.2,0.3,0.5,0.4,0.7c0.1,0.2,0.2,0.4,0.3,0.6
					c0.4,1.5,0.7,3,1.1,4.6l0.3-0.2c0.9-0.6,1.8-1.4,2.2-2.4c0.2-0.4,0.1-1.1-0.1-1.6c-0.1-0.2-0.2-0.3-0.3-0.4
					c-0.1-0.1-0.2-0.1-0.3-0.1c-0.3,0-0.6,0-0.9-0.1c-0.3-0.1-0.5-0.4-0.7-0.6c-0.2-0.3-0.2-0.6-0.2-1c0-0.3,0.1-0.6,0.4-0.9
					c1.5-1.9,2.7-4,3.7-6.3l-6.3-2.6c-2.2-0.9-4.5-1.8-6.7-2.8l-1.2-0.5c-4.1-1.7-8.2-3.3-12.4-4.4c-8.4-2.1-17.2-1.6-25.6,0.4
					l-0.5,0.1c-3.5,0.9-7.1,1.9-10.3,3.7c-1.6,0.9-3.1,2-4.4,3.3c-0.6,0.6-1.1,1.3-1.6,1.9c-0.7,0.9-1.5,1.8-2.3,2.6l-0.8,0.7
					c-1.2,1.1-2.3,2.1-2.9,3.8c-0.7,1.7-1,3.7-1.3,5.5c-0.7,4.7-1,9.5-0.9,14.3c0,8,1.1,15.9,2.5,23.7c1.1-1.8,2.7-3.1,4.7-3.4
					c1.3-0.2,2.6,0.1,3.7,0.7C-7576.4-1953.1-7575.9-1952.6-7575.4-1952z M-7577.4-1942.5c-1.5-0.6-3-0.8-4.5-0.5
					c-0.2,0-0.3,0-0.4-0.1c-0.1-0.1-0.2-0.2-0.3-0.4c-0.1-0.2-0.1-0.4,0-0.5c0-0.1,0.1-0.3,0.3-0.4c1.7-0.9,3.5-1.3,5.4-1l0.2,0
					c0.9,0.2,2.3,0.5,3.3,1.1c0.8,0.5,1.3,1.2,1.5,2.1c0.1,0.5,0,1-0.3,1.3c-0.2,0.3-0.6,0.6-1.1,0.6c-0.8,0-1.3-0.4-1.9-0.9
					c-0.1-0.1-0.1-0.1-0.2-0.2C-7576.2-1941.8-7576.8-1942.2-7577.4-1942.5z"/>
			</g>
		</g>
	</g>
	<g id="Calm.svg4" transform="matrix(0.319302,0,0,0.285977,1737.15,1081.61)" class="st4">
		<g transform="matrix(1,0,0,1,-144.5,-146.5)" class="st5">
			<g id="face-Calm4">
				<path id="_xD83D__xDD8D_-Ink13" class="st2" d="M-7257.9-1995.9c-1.6,0.5-3.3,0.6-5,0c-1.5-0.5-3-1.6-4.1-3
					c-1-1.3-1.6-2.8-1.6-4.4c0-0.2,0.1-0.3,0.2-0.5c0.1-0.1,0.2-0.2,0.4-0.3c0.2,0,0.3,0,0.4,0c0.1,0.1,0.2,0.2,0.3,0.3
					c0.2,0.2,0.3,0.5,0.5,0.7c1.3,1.9,2.7,3.3,4.7,3.8c1.1,0.3,2.2,0.2,3.2-0.3c1.1-0.4,2.1-1.2,2.8-2.2c0.3-0.4,0.8-0.6,1.2-0.6
					c0.5,0,0.9,0.2,1.2,0.6c0.3,0.4,0.6,0.9,0.6,1.4c0,0.5-0.1,0.9-0.5,1.4C-7254.7-1997.5-7256.2-1996.4-7257.9-1995.9z
					 M-7257.9-2019.2c1.6,1.1,4.2,3.7,2.4,6.5c-2.1,2.4-5.1-0.4-6.6-1.6c-1.4-1-2.9,1.5-1.6,2.7c10.7,8.8,15-7.3,6.7-8.9
					C-7258-2020.7-7258.3-2019.6-7257.9-2019.2z M-7273.3-2024.1c-0.5-0.4-1.2-0.5-1.8-0.2c-0.5,0.3-1.5,1.2-2.1,2.4
					c-0.4,0.8-0.8,1.8-0.7,2.8c0,0.2-0.1,0.4-0.2,0.5c-0.1,0.1-0.2,0.2-0.4,0.2c-0.1,0-0.3,0-0.4,0c-0.2-0.1-0.4-0.3-0.4-0.4
					c-0.5-1.4-0.3-2.9,0.3-4.3c0.7-1.9,2-3.4,2.8-3.9c1.4-0.9,3.1-0.9,4.5,0c1.2,0.7,2,1.9,2.7,3.2c0.2,0.3,0.3,0.5,0.5,0.8
					c0.3,0.5,0.4,1,0.2,1.4c-0.1,0.5-0.5,0.9-0.9,1.1c-0.4,0.2-0.9,0.2-1.3,0c-0.4-0.2-0.7-0.5-0.9-1.1
					C-7271.9-2022.5-7272.5-2023.6-7273.3-2024.1z M-7246.4-2022c-0.4,0.2-0.6,0.3-1,0.1c-0.2-0.1-0.4-0.2-0.6-0.4
					c-0.2-0.2-0.3-0.4-0.3-0.7c-0.1-0.6-0.4-1.3-0.9-1.6c-0.4-0.3-0.9-0.5-1.4-0.4c-0.6,0.1-1.1,0.5-1.5,1c-0.1,0.2-0.2,0.4-0.3,0.5
					c-0.2,0.3-0.4,0.7-0.6,0.9c-0.1,0.1-0.2,0.2-0.4,0.2c-0.1,0-0.1,0-0.2,0c-0.6-0.7-0.7-1.1-0.7-1.6c0-0.5,0.2-1,0.5-1.5
					c0.7-1.1,2-2.1,2.9-2.3c1.2-0.3,2.4,0.1,3.4,0.8c1,0.8,1.7,2,2,3.3c0.1,0.3,0,0.7-0.1,1C-7246-2022.4-7246.2-2022.2-7246.4-2022
					z M-7270.6-2036.3c-0.7,0.8-1.6,0.9-2.4,1c-0.5,0.1-0.9,0.1-1.2,0.2c-1,0.3-2.1,0.7-3,1.2c-1,0.6-2.1,1.3-2.8,2.2
					c-0.2,0.2-0.4,0.4-0.5,0.7c-0.2,0.2-0.3,0.4-0.5,0.6c-0.2,0.2-0.4,0.5-0.5,0.7c-0.1,0.2-0.1,0.2-0.2,0.3c0,0.1-0.1,0.2-0.1,0.3
					c-0.1,0.1-0.1,0.3-0.2,0.4c-0.1,0.2-0.2,0.3-0.2,0.3c-0.1,0-0.2,0.1-0.3,0.1c-0.1,0-0.2-0.1-0.2-0.1c-0.4-0.4-0.5-0.9-0.5-1.5
					c0-0.9,0.3-2,0.6-2.6c0.7-1.5,1.6-3,2.7-4.1c1.2-1.2,2.6-2.2,4.2-2.8c1-0.4,2.1-0.8,3.2-0.7c0.8,0,1.5,0.3,2.1,0.9
					c0.4,0.4,0.5,0.9,0.5,1.5C-7270.1-2037.2-7270.3-2036.7-7270.6-2036.3z M-7245-2029.1c0,0.1-0.1,0.1-0.2,0.2c-0.1,0-0.2,0-0.2,0
					c-0.1,0-0.2-0.1-0.2-0.1c-0.1-0.1-0.1-0.1-0.1-0.2c-0.5-2.4-1.4-4.1-3.4-5.2c-1-0.6-2.1-0.9-3.2-1.2c-0.3-0.1-0.6-0.1-1-0.2
					c-1-0.2-2.1-0.4-2.8-1.3c-0.4-0.6-0.6-1.3-0.5-1.9c0.1-0.6,0.4-1.2,1-1.5c1.5-0.8,3.3,0,4.8,0.7c0.1,0.1,0.2,0.1,0.3,0.2
					c1.4,0.7,2.8,1.6,3.9,2.9c0.9,1,1.7,2.5,2,4.1C-7244.3-2031.5-7244.4-2030.2-7245-2029.1z"/>
			</g>
		</g>
	</g>
</g>
<g class="st4">
	<g transform="matrix(0.4441,0,0,0.39775,-345.369,-236.477)" class="st5">
		<g id="Gray-Short.svg" transform="matrix(0.681216,0,0,0.681216,1361.69,1133.76)">
			<g transform="matrix(1,0,0,1,-236.5,-283.5)">
				<g id="head-mono-Gray-Short">
					<path id="_xD83D__xDD8D_-Ink" class="st6" d="M-473.8-374.7c-6.3,0.7-13.7-0.9-17.9-6.6c-0.1-0.2-0.2-0.4-0.2-0.5
						c0-0.2,0.1-0.4,0.2-0.6c0.1-0.2,0.3-0.3,0.5-0.3c0.2,0,0.3,0,0.5,0.1l0.4,0.2c2.9,1.8,5.8,3.3,9.1,3.9c3.3,0.7,6.7,0.6,10-0.2
						c6-1.5,10.9-5.4,14.5-10.6c4-5.8,6.4-13,7-20.4c0.7-8.9-1-17.6-2.8-26.2c-1.9-9-3.9-18-6.3-26.8c-0.1-0.3-0.1-0.5-0.1-0.8
						c-0.7-0.3-1.5-0.2-2.2,0.1c-1.4,0.5-2.7,1.7-3.8,2.6c-0.4,0.3-0.8,0.7-1.1,0.9c-1.4,1.1-2.9,1.8-4.6,2
						c-1.8,0.1-3.5-0.5-5.1-1.3c-0.8-0.4-1.6-0.8-2.4-1.2c-2.3-1.1-4.5-2.3-7-3c-3.3-1-6.7-1.5-10.2-1.5c-6.1,0.1-12.3,1.8-16,7.6
						c-1.5,2.3-2.5,5-1.7,7.9c0.4,1.6,1.2,3,2.1,4.3l0.3,0.5c0.5,0.7,0.9,1.4,1,2.2c0.1,0.6,0,1.3-0.4,2.1c-0.3,0.5-0.6,0.9-0.9,1.3
						c-0.2,0.3-0.5,0.6-0.7,0.9c-0.4,0.6-0.8,1.4-1.1,2.1c-0.6,1.4-0.8,3-0.8,4.5c-0.1,1.9,0.2,3.7,0.4,5.6c0.2,1.3,0.3,2.6,0.4,3.9
						c0,0.2,0,0.4-0.1,0.5c-0.1,0.2-0.3,0.2-0.5,0.3c0,0-0.1,0-0.2,0c0,0.1,0,0.2,0.1,0.4c-0.1-0.2-0.2-0.3-0.4-0.5c0,0,0,0,0,0
						c-0.1-0.1-0.2-0.2-0.3-0.4c-0.2-0.2-0.4-0.4-0.6-0.5c-1-0.9-2.3-1.4-3.5-1.4c-1.2,0-2.4,0.4-3.3,1.4c-1.8,1.9-2.3,5-2.4,7.6
						c0,2.7,0.5,5.9,2.6,7.6c0.8,0.7,1.9,1.1,2.9,1.1c0.9,0,1.7-0.3,2.5-0.6c0.2-0.1,0.5-0.2,0.8-0.3c0.3-0.1,0.5-0.1,0.8,0
						c0.2,0.1,0.5,0.3,0.6,0.5c0.2,0.2,0.3,0.5,0.3,0.8c0,0.3,0,0.6-0.1,0.9c0,0.1-0.1,0.1-0.1,0.2l0.5,0.9c1.8,3.2,3.6,6.4,5.9,9.2
						c1.4,1.6,2.8,3.1,4.4,4.4l0.2,0.2c0.1,0.1,0.3,0.2,0.5,0.4c0.5,0.4,1,1,1.5,1c0.1,0,0.3,0,0.4,0c0.3,0,0.5-0.1,0.8,0
						c0.2,0.1,0.4,0.2,0.6,0.6c0.1,0.2,0.2,0.5,0.2,0.8c0,0.3-0.1,0.6-0.2,0.8c-0.3,0.5-0.6,0.8-0.9,1c-0.4,0.2-0.8,0.2-1.3,0.1
						c-1.1-0.2-2.3-1.3-3.1-1.9l-0.1-0.1c-1.7-1.5-3.4-3.1-4.8-4.9c-2.5-3.1-4.7-6.8-5.8-10.8c-0.8,0.6-1.8,0.9-2.8,0.9
						c-1.5,0.1-3.1-0.4-4.3-1c-2.6-1.4-4.2-4-4.9-6.9c-0.8-3.5-0.6-7.4,0.5-10.5c0-0.1,0.1-0.2,0.1-0.3c-3.3-9.4-4.3-19.9-4.1-29.9
						c0.1-4.7,0.4-9.6,1.4-14.2c0.5-2.1,1.2-4,2.5-5.6c0.7-0.9,1.6-1.6,2.4-2.4c0.8-0.6,1.5-1.2,2.1-2l0.3-0.4
						c0.1-0.1,0.1-0.2,0.2-0.2c1.1-1.4,2.2-2.7,3.5-3.8c1.5-1.3,3.2-2.3,5-3.1c3.8-1.8,7.9-2.9,12-3.7c8.8-1.8,17.8-1.9,26.5,0.6
						c4,1.2,8,2.8,11.9,4.4c0.4,0.1,0.7,0.3,1.1,0.5c3,1.2,6.1,2.5,9.1,3.7c1.4,0.6,2.8,1.2,4.2,1.7c0.3,0.1,0.6,0.4,0.8,0.7
						c0.2,0.3,0.2,0.7,0.1,1.1c-0.9,2.5-2,4.8-3.3,6.9c0.5,0.4,0.9,0.8,1.1,1.4c0.4,0.7,0.6,1.5,0.6,2.4c0,2.9-2.3,4.9-4.3,6.3
						c-0.2,0.1-0.4,0.2-0.5,0.2c1.9,8.1,3.7,16.3,5.3,24.5l0.1,0.6c1.6,8.6,2.6,17.4,1.1,26.1c-1.3,7.5-4.3,14.8-9,20.4
						C-460.9-378.9-467.1-375.4-473.8-374.7z M-515.2-424.2c-0.8-2.9-1.3-6.1-0.9-9c0.2-1.9,0.7-3.6,1.5-5.3c0.5-0.9,1-1.8,1.7-2.6
						l0.2-0.3c0.1-0.1,0.2-0.3,0.2-0.4c0-0.1,0-0.2,0-0.3c-0.1-0.3-0.3-0.5-0.5-0.8c-0.1-0.2-0.2-0.3-0.3-0.5
						c-1.8-2.7-3.2-6-2.7-9.4c0.4-3.4,2.4-6.5,4.5-8.9c4.6-5.2,11.8-6.4,18.1-6.1c3.7,0.2,7.3,0.9,10.8,2.1c1.7,0.6,3.4,1.4,5,2.2
						l0.4,0.2c0.2,0.1,0.4,0.2,0.6,0.3c1.3,0.7,2.6,1.4,4,1.8c2.7,0.7,4.5-0.8,6.5-2.4c0.7-0.5,1.3-1.1,2-1.6l0.1-0.1
						c1.3-0.8,2.8-1.4,4.3-1.4c1.3,0,2.5,0.5,3.5,1.6c0.2,0.2,0.3,0.5,0.4,0.7c0.1,0.2,0.2,0.4,0.3,0.6c0.4,1.5,0.7,3,1.1,4.5
						l0.3-0.2c0.9-0.6,1.8-1.4,2.2-2.4c0.2-0.4,0.1-1.1-0.1-1.6c-0.1-0.2-0.2-0.3-0.3-0.4c-0.1-0.1-0.2-0.1-0.4-0.1
						c-0.3,0-0.6,0-0.9-0.1c-0.3-0.1-0.5-0.4-0.7-0.6c-0.2-0.3-0.2-0.6-0.2-1c0-0.3,0.1-0.6,0.4-0.9c1.5-1.9,2.7-4,3.7-6.3l-6.3-2.6
						c-2.2-0.9-4.5-1.9-6.7-2.8l-1.2-0.5c-4.1-1.7-8.2-3.3-12.4-4.4c-8.4-2.1-17.2-1.6-25.6,0.4l-0.5,0.1c-3.5,0.9-7.1,1.9-10.3,3.7
						c-1.6,0.9-3.1,2-4.4,3.3c-0.6,0.6-1.1,1.3-1.6,1.9c-0.7,0.9-1.5,1.8-2.3,2.6l-0.8,0.7c-1.2,1.1-2.3,2.1-2.9,3.8
						c-0.7,1.7-1,3.7-1.3,5.5c-0.7,4.7-1,9.5-0.9,14.3c0,8,1.1,15.9,2.5,23.7c1.1-1.8,2.7-3.1,4.7-3.4c1.3-0.2,2.6,0.1,3.7,0.7
						C-516.2-425.3-515.7-424.8-515.2-424.2z M-517.2-414.7c-1.5-0.6-3-0.8-4.5-0.5c-0.2,0-0.3,0-0.4-0.1c-0.1-0.1-0.2-0.2-0.3-0.4
						c-0.1-0.2-0.1-0.4,0-0.5c0-0.1,0.1-0.3,0.3-0.4c1.7-0.9,3.5-1.3,5.4-1l0.2,0c0.9,0.2,2.3,0.5,3.3,1.1c0.8,0.5,1.3,1.2,1.5,2.1
						c0.1,0.5,0,1-0.3,1.3c-0.2,0.4-0.6,0.6-1.1,0.6c-0.8,0-1.3-0.4-1.9-0.9c-0.1-0.1-0.2-0.1-0.2-0.2
						C-516-414-516.6-414.4-517.2-414.7z"/>
				</g>
			</g>
		</g>
		<g id="Eyes-Closed.svg" transform="matrix(0.734096,0,0,0.734096,1398.38,1156.31)">
			<g transform="matrix(1,0,0,1,-144.5,-146.5)">
				<g id="face-Eyes-Closed">
					<path id="_xD83D__xDD8D_-Ink1" class="st6" d="M-558.4-520.4l0.2,0c1.2-0.3,2.4-0.8,3.5,0.1c1.1,0.8,1.2,2.3,0.4,3.3
						c-0.9,1.1-2,1-3.2,1h-0.1c-1,0-2,0-3-0.1c-0.9-0.1-1.9-0.2-2.8-0.4l-0.5-0.1c-0.5-0.1-1.1-0.3-1.4-0.9c-0.5-1,3.2-1.9,3.6-2
						C-560.6-519.9-559.5-520.1-558.4-520.4z M-556.3-533c-0.6,0.7-1.4,1.2-2.2,1.4c-2.2,0.7-5,0.3-6.8-0.4
						c-0.4-0.2-0.7-0.5-0.9-0.9c-0.2-0.4-0.2-0.8-0.1-1.2c0-0.1,0.1-0.2,0.1-0.4c0.1-0.3,0.4-0.6,0.7-0.7c0.3-0.2,0.7-0.2,1-0.1
						c0,0,0.1,0,0.1,0c1.1,0.4,3,1.1,4.5,0.9c0.9-0.1,1.7-0.4,2.2-1.4c0.2-0.5,0.2-1,0-1.4c-0.3-0.7-0.9-1.3-1.4-1.7
						c-0.7-0.6-1.5-0.8-2.2-1c-0.3-0.1-0.6-0.2-0.9-0.3c-0.1,0-0.2-0.1-0.2-0.2s-0.1-0.2-0.1-0.3s0-0.2,0-0.3c0-0.1,0.1-0.2,0.2-0.2
						c1.5-0.8,3.5-0.3,5,0.9c0.7,0.6,1.4,1.4,1.7,2.2c0.3,0.8,0.5,1.7,0.4,2.6C-555.4-534.4-555.8-533.6-556.3-533z M-581.3-550
						c0.4-0.2,0.8,0.8,0.9,1l0.2,0.6c0.3,0.9,0.6,1.8,1.3,2.5c0.5,0.6,1.4,1,2,0.4c0.6-0.6,0.3-1.3,0.4-2.1c0.2-1.4,1.8-2.8,2.8-1.3
						c2.3,3.2-1.2,7.8-4.5,7c-1.7-0.4-3-1.9-3.5-3.6l0-0.1C-582.2-546.8-582.5-549.4-581.3-550z M-551.9-547.7L-551.9-547.7
						c-1.1-2.8,2.8-4,3.1-1.5l0,0.2c0.3,2.8-0.3,6.5-3.4,6.7c-3.4,0.3-4.8-3.9-4.5-7c0-0.5,0.7-0.6,0.8-0.1l0,0.1
						c0.5,1.6,1.1,4.5,3,4.5C-551.4-544.8-551.5-546.7-551.9-547.7z M-549.4-555.7c2-0.1,1.9,3.3,0,3.4c-6.5,0.2-13,0.4-19.5,0.4
						l-1.2,0c-6.1,0-12.2,0.1-18.3-0.4c-0.5,0-0.4-0.9,0-0.8c6.4-1,12.8-1.3,19.3-1.7C-562.5-555.2-556-555.4-549.4-555.7z"/>
				</g>
			</g>
		</g>
	</g>
</g>
</svg>
