<?xml version="1.0" encoding="utf-8"?>
<!-- Generator: Adobe Illustrator 24.2.0, SVG Export Plug-In . SVG Version: 6.00 Build 0)  -->
<svg version="1.1" id="图层_1" xmlns="http://www.w3.org/2000/svg" xmlns:xlink="http://www.w3.org/1999/xlink" x="0px" y="0px"
	 viewBox="0 0 85 85" style="enable-background:new 0 0 85 85;" xml:space="preserve">
<style type="text/css">
	.st0{display:none;}
	.st1{display:inline;}
	.st2{fill-rule:evenodd;clip-rule:evenodd;fill:#FFFFFF;}
	.st3{fill-rule:evenodd;clip-rule:evenodd;}
	.st4{fill-rule:evenodd;clip-rule:evenodd;fill:#040000;}
</style>
<g>
	<g transform="matrix(1,0,0,1,711.257,374.628)" class="st0">
		<g class="st1">
			<g transform="matrix(0.4441,0,0,0.39775,122.255,342.337)">
				<g id="Gray-Short.svg5" transform="matrix(0.681216,0,0,0.681216,1361.69,1133.76)">
					<g transform="matrix(1,0,0,1,-236.5,-283.5)">
						<g id="head-mono-Gray-Short5">
							<path class="st2" d="M-4420.5-3938.9c0,0-4.7,20.6,9.3,14.6c0,0,7.8,20.2,14.4,18.2c0,0,5.2,4.7,9.4,5.1
								c0,0,20.7,21.2,38-11.6c6.9-13,2.6-41.6-0.4-52.2c-1.3-4.6-1.5-9.4-1.7-10.7c0,0,8.9-6.2,2.4-9.2c0,0,4.7-7.2,3.8-7.9
								c-0.9-0.6-31-15.3-45.9-12.1c-15,3.3-22.1,5.3-27,12.6s-5,3.3-5.9,10.4C-4425.1-3974.6-4427.1-3943.1-4420.5-3938.9z"/>
							<path id="_xD83D__xDD8D_-Ink14" class="st3" d="M-4370.5-3893.5c-6.3,0.7-13.7-0.9-17.9-6.6c-0.1-0.2-0.2-0.4-0.2-0.6
								c0-0.2,0.1-0.4,0.2-0.6c0.1-0.2,0.3-0.3,0.5-0.3s0.3,0,0.5,0.1l0.4,0.2c2.9,1.8,5.8,3.3,9.1,3.9c3.3,0.7,6.7,0.6,10-0.3
								c6-1.5,10.9-5.4,14.5-10.6c4-5.8,6.4-13.1,7-20.4c0.7-8.8-1-17.6-2.8-26.2c-1.9-9-3.9-18-6.3-26.8c-0.1-0.3-0.1-0.5-0.1-0.7
								c-0.7-0.3-1.4-0.2-2.2,0.1c-1.4,0.5-2.7,1.7-3.8,2.6c-0.4,0.3-0.8,0.7-1.1,0.9c-1.4,1.1-2.9,1.8-4.6,2
								c-1.8,0.1-3.5-0.5-5.1-1.3c-0.8-0.4-1.6-0.8-2.4-1.2c-2.3-1.2-4.6-2.3-7-3c-3.3-1-6.7-1.5-10.2-1.5c-6.1,0.1-12.3,1.8-16,7.6
								c-1.5,2.3-2.5,5-1.7,7.9c0.4,1.6,1.2,3,2.1,4.3l0.3,0.4c0.5,0.7,0.9,1.4,1,2.2c0.1,0.6,0,1.3-0.4,2.1
								c-0.3,0.5-0.6,0.9-0.9,1.3c-0.2,0.3-0.5,0.6-0.7,0.9c-0.4,0.7-0.8,1.4-1.1,2.1c-0.6,1.4-0.8,3-0.9,4.5
								c-0.1,1.9,0.2,3.7,0.4,5.6c0.2,1.3,0.3,2.6,0.4,3.9c0,0.2-0.1,0.4-0.1,0.5c-0.1,0.2-0.3,0.3-0.4,0.3s-0.1,0-0.2,0
								c0,0.1,0.1,0.3,0.1,0.4c-0.1-0.2-0.2-0.3-0.4-0.5l0,0c-0.1-0.1-0.2-0.2-0.3-0.4c-0.2-0.2-0.4-0.4-0.6-0.5
								c-1-0.9-2.3-1.4-3.5-1.4s-2.4,0.4-3.3,1.4c-1.8,1.9-2.3,5-2.4,7.6c0,2.7,0.5,5.9,2.6,7.6c0.8,0.7,1.9,1.1,2.9,1.1
								c0.9,0,1.7-0.3,2.5-0.7c0.2-0.1,0.5-0.2,0.7-0.3c0.3-0.1,0.5-0.1,0.8,0s0.5,0.3,0.6,0.5c0.2,0.2,0.3,0.5,0.3,0.8
								s0,0.6-0.1,0.9c0,0.1-0.1,0.1-0.1,0.2l0.5,0.8c1.8,3.2,3.6,6.4,5.9,9.2c1.4,1.6,2.8,3.1,4.4,4.4l0.2,0.2
								c0.1,0.1,0.3,0.2,0.4,0.4c0.5,0.4,1,1,1.5,1c0.2,0,0.3,0,0.4,0c0.3,0,0.5-0.1,0.8,0.1c0.2,0.1,0.4,0.3,0.6,0.6
								c0.1,0.2,0.2,0.5,0.2,0.8s-0.1,0.6-0.2,0.8c-0.3,0.5-0.6,0.8-0.9,1c-0.4,0.2-0.8,0.2-1.3,0.1c-1.1-0.2-2.3-1.3-3.1-1.9
								l-0.2-0.1c-1.7-1.5-3.4-3.1-4.8-4.9c-2.5-3.1-4.7-6.8-5.8-10.8c-0.8,0.6-1.8,0.9-2.8,0.9c-1.5,0.1-3.1-0.4-4.3-1
								c-2.6-1.4-4.2-4-4.9-6.9c-0.9-3.5-0.6-7.4,0.5-10.5c0-0.1,0.1-0.2,0.1-0.3c-3.3-9.4-4.4-19.9-4.1-29.9
								c0.1-4.7,0.4-9.6,1.4-14.2c0.4-2.1,1.2-4,2.5-5.6c0.7-0.9,1.6-1.6,2.4-2.4c0.8-0.6,1.5-1.2,2.1-2l0.3-0.4
								c0.1-0.1,0.1-0.2,0.2-0.2c1.1-1.4,2.2-2.7,3.5-3.8c1.5-1.3,3.2-2.3,5-3.1c3.8-1.8,7.9-2.9,12-3.7c8.8-1.8,17.8-1.9,26.5,0.6
								c4,1.2,8,2.8,11.9,4.4c0.4,0.1,0.7,0.3,1.1,0.4c3,1.2,6.1,2.5,9.1,3.7c1.4,0.6,2.8,1.2,4.2,1.7c0.3,0.1,0.6,0.4,0.8,0.7
								c0.2,0.3,0.2,0.7,0.1,1.1c-0.9,2.5-2,4.8-3.3,6.9c0.5,0.4,0.9,0.8,1.2,1.4c0.4,0.7,0.6,1.5,0.6,2.4c0.1,2.9-2.3,4.9-4.3,6.3
								c-0.2,0.1-0.4,0.2-0.5,0.2c1.9,8.1,3.7,16.3,5.3,24.5l0.1,0.6c1.6,8.6,2.6,17.4,1.1,26.1c-1.3,7.5-4.3,14.8-9,20.4
								C-4357.6-3897.7-4363.8-3894.3-4370.5-3893.5z M-4411.9-3943c-0.8-2.9-1.3-6.1-0.9-9c0.2-1.9,0.7-3.6,1.5-5.3
								c0.5-0.9,1-1.8,1.7-2.6l0.2-0.3c0.1-0.1,0.2-0.3,0.2-0.4c0-0.1,0-0.2-0.1-0.3c-0.1-0.3-0.3-0.5-0.5-0.8
								c-0.1-0.2-0.2-0.3-0.4-0.5c-1.8-2.7-3.1-6-2.7-9.4s2.4-6.5,4.5-8.9c4.6-5.2,11.8-6.4,18.1-6.1c3.7,0.2,7.3,0.9,10.8,2.1
								c1.7,0.6,3.4,1.4,5,2.2l0.4,0.2c0.2,0.1,0.4,0.2,0.6,0.3c1.3,0.7,2.6,1.4,4,1.8c2.7,0.7,4.5-0.8,6.5-2.4
								c0.7-0.5,1.3-1.1,2-1.6l0.1-0.1c1.3-0.8,2.8-1.4,4.3-1.4c1.3,0,2.5,0.5,3.5,1.6c0.2,0.2,0.3,0.5,0.4,0.7s0.2,0.4,0.3,0.6
								c0.4,1.5,0.7,3,1.1,4.6l0.3-0.2c0.9-0.6,1.8-1.4,2.2-2.4c0.2-0.4,0.1-1.1-0.1-1.6c-0.1-0.2-0.2-0.3-0.3-0.4
								c-0.1-0.1-0.2-0.1-0.3-0.1c-0.3,0-0.6,0-0.9-0.1s-0.5-0.4-0.7-0.6c-0.2-0.3-0.2-0.6-0.2-1c0-0.3,0.1-0.6,0.4-0.9
								c1.5-1.9,2.7-4,3.7-6.3l-6.3-2.6c-2.2-0.9-4.5-1.8-6.7-2.8l-1.2-0.5c-4.1-1.7-8.2-3.3-12.4-4.4c-8.4-2.1-17.2-1.6-25.6,0.4
								l-0.5,0.1c-3.5,0.9-7.1,1.9-10.3,3.7c-1.6,0.9-3.1,2-4.4,3.3c-0.6,0.6-1.1,1.3-1.6,1.9c-0.7,0.9-1.5,1.8-2.3,2.6l-0.8,0.7
								c-1.2,1.1-2.3,2.1-2.9,3.8c-0.7,1.7-1,3.7-1.3,5.5c-0.7,4.7-1,9.5-0.9,14.3c0,8,1.1,15.9,2.5,23.7c1.1-1.8,2.7-3.1,4.7-3.4
								c1.3-0.2,2.6,0.1,3.7,0.7C-4413-3944.1-4412.4-3943.6-4411.9-3943z M-4414-3933.5c-1.5-0.6-3-0.8-4.5-0.5
								c-0.2,0-0.3,0-0.4-0.1s-0.2-0.2-0.3-0.4c-0.1-0.2-0.1-0.4,0-0.5c0-0.1,0.1-0.3,0.3-0.4c1.7-0.9,3.5-1.3,5.4-1h0.2
								c0.9,0.2,2.3,0.5,3.3,1.1c0.8,0.5,1.3,1.2,1.5,2.1c0.1,0.5,0,1-0.3,1.3c-0.2,0.3-0.6,0.6-1.1,0.6c-0.8,0-1.3-0.4-1.9-0.9
								c-0.1-0.1-0.1-0.1-0.2-0.2C-4412.7-3932.8-4413.3-3933.2-4414-3933.5z"/>
						</g>
					</g>
				</g>
			</g>
			<g id="Smile-Teeth-Gap.svg4" transform="matrix(0.291546,0,0,0.261117,739.948,804.811)">
				<g transform="matrix(1,0,0,1,-144.5,-146.5)">
					<g id="face-Smile-Teeth-Gap4">
						<path id="_xD83D__xDD8D_-Ink15" class="st3" d="M-4679.5-4280.2c1.6,1.1,4.2,3.7,2.4,6.5c-2.1,2.4-5.1-0.4-6.6-1.6
							c-1.4-1-2.9,1.5-1.6,2.7c10.7,8.8,15-7.3,6.7-8.9C-4679.6-4281.7-4680-4280.5-4679.5-4280.2z M-4694.4-4301.5l0.4-0.1h0.2
							c1.2-0.2,2.7-0.4,3.5,0.7c0.5,0.6,0.6,1.7,0,2.3c-1.1,1-2.4,0.6-3.7,0.7c-1.1,0.1-2.2,0.3-3.2,0.6c-2.3,0.7-4.3,2.1-6.3,3.6
							c-0.3,0.2-0.5-0.2-0.4-0.5c1.2-2.5,3.4-4.6,5.6-5.9C-4697-4300.7-4695.7-4301.2-4694.4-4301.5z M-4683.6-4266.6
							c3.6,0.3,11.3-1.6,14.6,1.2c12.1,16.9-36,21.3-30.8,2.6C-4696.5-4268.8-4688.9-4266.4-4683.6-4266.6z M-4684.2-4256.4
							c-0.9-0.1-2,0.7-2.2,1.3c-0.3,0.6-0.2,1.9-0.2,2.1c1.5,0.2,3.1,0.2,4.7,0.1C-4682.3-4254.4-4682.3-4256.1-4684.2-4256.4z
							 M-4677-4253.9c-0.2-1.8-1.4-2.3-2.4-2s-1.6,1.5-1.5,2.7c0,0.1,0,0.1-0.1,0.2C-4679.6-4253.2-4678.3-4253.5-4677-4253.9z
							 M-4688-4256c-0.6-0.9-1.9-1.4-2.7-1.2c-1.4,0.3-1.6,2.3-1.6,2.7c1.3,0.5,2.7,0.9,4,1.2c0.3,0.1,0.5,0.1,0.8,0.2v-0.2
							C-4687.5-4254-4687.5-4255.2-4688-4256z M-4672.2-4256.2c-1.4-2.5-4.5-0.7-4.3,2c0.3-0.1,0.5-0.2,0.8-0.3
							C-4674.5-4254.9-4673.3-4255.4-4672.2-4256.2z M-4683.5-4264.7c-1.9-0.2-3.5-0.1-4.8,0.1v0.5c-0.1,1.6-0.3,3.2,0.4,3.9
							c0.6,0.5,2.7,0.5,4.1,0.1C-4683.4-4260.2-4683-4263.6-4683.5-4264.7z M-4680.5-4264.9c-0.3,1.6-0.5,3.5,0.2,4.1
							s2.8,0.5,3.3,0.1s0.5-2,0.3-3.8C-4677.8-4264.8-4679.7-4264.9-4680.5-4264.9z M-4689.1-4264.6h-0.6h-0.4
							c-0.9,0-1.9,0.1-2.8,0.3c-1.8,4.4,4.8,5.2,3.8-0.1V-4264.6z M-4675.9-4264.4v0.2c-0.1,1.2,0,2.9,0.6,3.3
							c0.9,0.6,2.6,0.5,3.5-2.5C-4672.1-4264.3-4675.3-4264.4-4675.9-4264.4z M-4693.6-4290.7c0.4,0,0.8,0.1,1.1,0.4
							c0.3,0.3,0.6,0.7,0.9,1.1c0.5,0.9,0.8,2.2,0.8,3.6s-0.3,2.7-0.8,3.6c-0.2,0.5-0.5,0.9-0.9,1.1c-0.3,0.3-0.7,0.4-1.1,0.4
							s-0.8-0.1-1.1-0.4c-0.3-0.3-0.6-0.7-0.9-1.1c-0.5-0.9-0.8-2.2-0.8-3.6s0.3-2.7,0.8-3.6c0.2-0.5,0.5-0.9,0.9-1.1
							C-4694.4-4290.6-4694-4290.7-4693.6-4290.7z M-4669.1-4290.7c0.4,0,0.8,0.1,1.1,0.4c0.3,0.3,0.6,0.7,0.9,1.1
							c0.5,0.9,0.8,2.2,0.8,3.6s-0.3,2.7-0.8,3.6c-0.2,0.5-0.5,0.9-0.9,1.1c-0.3,0.3-0.7,0.4-1.1,0.4s-0.8-0.1-1.1-0.4
							c-0.3-0.3-0.6-0.7-0.9-1.1c-0.5-0.9-0.8-2.2-0.8-3.6s0.3-2.7,0.8-3.6c0.2-0.5,0.5-0.9,0.9-1.1
							C-4669.9-4290.6-4669.5-4290.7-4669.1-4290.7z M-4672.5-4302.6l0.3,0.1h0.2c3.4,0.8,7.7,2.4,9.2,6.1c0.1,0.5,0,0.6-0.1,0.7
							l0,0c0,0.1-0.1,0.1-0.3,0.2c-0.1,0-0.1,0-0.2,0c-0.7-0.2-1.3-0.5-1.9-0.8l-0.6-0.3c-0.7-0.4-1.4-0.8-2.2-1
							c-1.6-0.6-3.3-1-5-1.2c-0.4,0-0.7-0.2-1-0.4c-0.3-0.2-0.5-0.5-0.6-1s-0.1-0.9,0.2-1.4c0.2-0.4,0.5-0.6,0.8-0.8
							C-4673.2-4302.7-4672.8-4302.7-4672.5-4302.6z"/>
					</g>
				</g>
			</g>
		</g>
	</g>
	<g>
		<g>
			<g transform="matrix(0.4441,0,0,0.39775,0,0)">
				<path class="st2" d="M128.8,91.3l1.5-3l14,11.2c0,0,5.6-6.3,9.6-0.8c2.2,3-5.5,6.7-5.4,6.6c0,0,7.3,2,3.6,7.9
					c-2.1,3.3-5.9-2.5-7-3.3c0,0,0,8.4-5.4,5.3c-3.6-2-1-9.9-0.2-9.8L128.8,91.3z"/>
			</g>
			<g transform="matrix(0.4441,0,0,0.39775,0,0)">
				<path class="st2" d="M134.3,77.9l14.6,2.5c0,0-0.2,12.1,6.7,6.2c4.4-3.7-2.2-4.7-0.6-5.4c0,0,7.7-0.1,0.1-6.2c0,0,1.3-8-1.7-7.9
					s-4.4,6.8-4.4,6.8l-16.5,1.2L134.3,77.9z"/>
			</g>
			<g transform="matrix(0.405624,-0.161943,0.180814,0.36329,-410.845,670.888)">
				<path class="st3" d="M1622.5-1041.9c-0.1-0.1-0.2-0.2-0.3-0.2c-0.3-0.1-0.4,0.2-0.4,0.3c-0.1,0.1-0.1,0.6,0.4,1
					c0.9,0.8,4.1,1.8,4.8,2c2.2,0.6,4.7,1.9,7.2,2.7c1.2,0.4,2.3,0.7,3.4,0.8c0.3,0,0.7-0.2,0.7-0.6c0.1-0.4-0.1-0.7-0.5-0.8
					c-0.7-0.1-1.3-0.3-2.1-0.5c-2.8-0.9-5.8-2.4-8.3-3.1c-0.6-0.2-3.5-1.3-4.6-1.7C1622.7-1041.9,1622.6-1041.9,1622.5-1041.9z
					 M1622.5-1041.9L1622.5-1041.9L1622.5-1041.9z"/>
			</g>
			<g transform="matrix(0.405624,-0.161943,0.180814,0.36329,-410.845,670.888)">
				<path class="st3" d="M1622.9-1038.3C1622.9-1038.4,1622.9-1038.4,1622.9-1038.3L1622.9-1038.3L1622.9-1038.3L1622.9-1038.3
					c0,0-0.1-0.1-0.1-0.2c-0.1-0.1-0.4-0.1-0.5,0.1c-0.1,0.1-0.1,0.3,0,0.6c0,0.1,0.1,0.3,0.4,0.6c0.3,0.4,1,0.9,1.8,1.5
					c2.8,2.1,7.7,5.1,9.8,6.3c0.4,0.2,0.8,0.1,1-0.3s0.1-0.9-0.2-1.1c-2.1-1.2-7-4.4-9.9-6.3c-0.4-0.3-0.8-0.5-1.1-0.7
					c-0.2-0.1-0.4-0.3-0.5-0.3C1623.3-1038.2,1623-1038.2,1622.9-1038.3z M1622.9-1038.2c0,0.1,0,0.1,0,0.2
					C1622.9-1038.1,1622.9-1038.1,1622.9-1038.2z"/>
			</g>
			<g transform="matrix(0.359239,-0.143424,0.160137,0.321746,-187.674,732.804)">
				<path class="st3" d="M1402.6-1561.9c-0.1,0.1-0.1,0.2-0.1,0.3c0,0.3,0.1,0.4,0.1,0.5c0.2,0.3,0.4,0.2,0.8-0.1
					c0.1-0.1,0.3-0.4,0.5-0.5c0.5-0.5,1.8-1.5,3.1-2.4c0.7-0.4,1.3-0.8,1.9-0.9c0.3-0.1,0.5-0.2,0.6,0c0.2,0.1,0.2,0.4,0.2,0.6
					c0,0.6-0.1,1.2-0.3,1.9c-0.4,1.3-1,2.7-1.4,3.2c-0.2,0.3-0.4,0.5-0.6,0.8c-0.7,0-1.4,0.3-2.1,1c-0.5,0.5-0.4,1-0.4,1.2
					c0.1,0.3,0.2,0.7,0.7,0.8c0.1,0.1,0.4,0.1,0.8,0s1-0.3,1.3-0.5h0.1c0.3,0.2,0.5,0.5,0.7,0.9c0.6,1,1,2.3,0.6,3.1
					c-0.4,0.8-1.2,1.2-2,1.3c-0.1,0-0.1,0-0.2,0c-0.2-0.5-0.4-1-0.7-1.3c-0.8-1-1.9-1.2-2.5-0.4c-0.2,0.2-0.3,0.4-0.3,0.8
					c0,0.3,0.2,0.8,0.2,0.9c0.3,0.8,0.9,1.4,1.7,1.7c0,0.3,0,0.6-0.1,0.9c-0.2,0.7-0.6,1.4-1.5,1.8c-1.6,0.9-3.3,0.4-4.3-0.7
					s-1.4-2.9-0.4-4.6c0.4-0.6,0.2-1.3-0.2-1.6c-0.5-0.3-1.2-0.2-1.5,0.4c-1.8,2.7-1.3,5.7,0.4,7.6c1.6,1.9,4.3,2.6,7,1.2
					c1.9-1.2,2.6-2.9,2.6-4.6c1.4-0.1,2.8-1,3.6-2.3c0.8-1.6,0.2-4.5-1.1-6.1c-0.1-0.1-0.2-0.2-0.2-0.3c0.1-0.1,0.2-0.3,0.3-0.4
					c0.6-0.8,1.7-3,2-5c0.3-1.7,0-3.2-1-4c-0.7-0.5-1.9-0.5-3.2,0.2c-1.9,1-4.1,3-4.7,3.8c-0.1,0.2-0.3,0.4-0.3,0.6
					C1402.6-1562.1,1402.6-1562,1402.6-1561.9z"/>
			</g>
			<g transform="matrix(0.4441,0,0,0.39775,0,0)">
				<path class="st3" d="M130.5,87.8c-0.1-0.2-0.2-0.3-0.4-0.3s-0.5,0.3-0.2,0.8c0.2,0.3,0.5,0.8,1.1,1.4c1.2,1.2,3.2,2.6,3.3,2.8
					c1.5,1.3,4.3,3.7,6.8,5.5c1.2,0.9,2.4,1.7,3.1,2.1c0.2,0.2,0.6,0.1,0.7-0.2c0.2-0.3,0.1-0.6-0.2-0.8l-9.5-7.8
					c-0.2-0.1-1.7-1.5-3.1-2.4c-0.5-0.4-1-0.6-1.4-0.9L130.5,87.8z M130.5,88.1c0,0,0,0.1-0.1,0.1C130.4,88.2,130.4,88.1,130.5,88.1
					z"/>
			</g>
			<g transform="matrix(0.449467,0,0,0.439298,-18.3181,-128.586)">
				<path class="st3" d="M167.6,375.4c0.2,0.5,0.3,1,0.6,1.5c0.5,1.1,1.3,2,2.1,3c1.4,1.9,3.1,3.8,4.7,5.5c1.1,1.2,2.3,2.4,3.3,3.5
					c0.3,0.3,0.7,0.3,1,0s0.3-0.8,0-1.1c-0.9-1-1.8-2-2.7-3.1c-1.4-1.5-2.8-3-4.1-4.5c-1-1.2-2-2.5-2.9-3.7c-0.4-0.6-0.9-1-1.3-1.6
					c-0.1-0.2-0.3-0.2-0.5-0.1C167.5,375,167.5,375.2,167.6,375.4z"/>
			</g>
			<g transform="matrix(0.4441,0,0,0.39775,0,0)">
				<path class="st3" d="M145.1,99.5c0.1-0.1,0.2-0.1,0.4-0.2c0.3-0.2,0.6-0.4,0.7-0.5c0.9-0.6,2.2-1.1,3.4-1.2c1.1-0.1,2.2,0,2.8,1
					c0.7,0.9,0.3,2-0.3,2.9c-0.9,1.3-2.4,2.4-3.4,3l-0.1,0.1c-0.4-0.1-0.7-0.1-0.9-0.1c-0.3,0.1-0.5,0.3-0.6,0.5s-0.2,0.7,0.2,1.2
					c0.2,0.2,0.6,0.4,1.3,0.2c0.6,0.2,1.7,0.2,1.7,0.2c0.7,0.4,1.3,1.5,1.6,2.6c0.3,1,0.4,2.1-0.1,2.8c-0.6,0.9-1.4,1-2.2,0.8
					c-1.5-0.4-3.1-1.8-4-2.7c-0.1-0.5-0.2-0.9-0.2-0.9c-0.1-0.3-0.4-0.5-0.8-0.5c-0.3,0.1-0.5,0.4-0.5,0.8c0,0,0.1,0.6,0.2,1
					c0,0.1,0,0.1,0.1,0.2c0,0.2,0.1,0.5,0,0.6c-0.1,0.6-0.5,1.4-1.1,2c-0.5,0.6-1.1,1.1-1.6,1.1c-0.7,0.1-1.2-0.2-1.6-0.7
					c-0.5-0.5-0.8-1.3-1-2.1c-0.2-0.8-0.2-1.7-0.1-2.5c0.1-0.8,0.3-1.7,0.7-2.4c0.3-0.4,0.2-1-0.2-1.3s-0.9-0.2-1.2,0.3
					c-0.6,0.9-1,1.9-1.2,3c-0.3,1.7,0,3.4,0.5,4.8c0.8,2,2.4,3.3,4.4,2.8c0.9-0.2,1.8-0.9,2.5-1.9c0.5-0.7,0.9-1.5,1.1-2.3
					c1,1,2.3,2,3.6,2.4c1.5,0.4,2.9,0.1,4-1.5c0.6-1,0.7-2.4,0.4-3.8c-0.4-1.8-1.6-3.6-2.7-4.3c0,0,0,0-0.1,0
					c0.9-0.7,1.9-1.6,2.6-2.6c1.1-1.6,1.5-3.5,0.3-5.3c-0.8-1.2-2.1-1.7-3.5-1.6c-1.8,0-3.7,0.9-4.9,1.8c-0.2,0.1-0.6,0.4-0.9,0.8
					c-0.3,0.3-0.5,0.7-0.5,0.9c0,0.3,0,0.5,0.1,0.7c0.1,0.1,0.2,0.2,0.5,0.2c0.2,0,0.4-0.1,0.4-0.4
					C145.2,99.6,145.1,99.5,145.1,99.5z M148.3,104.7c-0.1-0.1-0.2-0.1-0.2,0C148.1,104.8,148.2,104.7,148.3,104.7z"/>
			</g>
		</g>
		<g>
			<g transform="matrix(0.4441,0,0,0.39775,0,0)">
				<path class="st2" d="M78.5,35.3c0,0-6.9,9.9-2.3,11.2C80.8,47.8,78.3,35.1,78.5,35.3z"/>
			</g>
			<g transform="matrix(0.4441,0,0,0.39775,0,0)">
				<path class="st2" d="M79.2,72.4c0,0-5.6,10.7-2,11.5C80.9,84.7,80.8,75.3,79.2,72.4z"/>
			</g>
			<g transform="matrix(0.4441,0,0,0.39775,0,0)">
				<path class="st2" d="M113.1,57.9c0,0-4.9,11.4-0.9,10.9C116.2,68.4,113.6,57.5,113.1,57.9z"/>
			</g>
			<g transform="matrix(0.4441,0,0,0.39775,0,0)">
				<path class="st3" d="M78.9,35.2c0-0.1-0.1-0.2-0.1-0.2c0-0.1-0.1-0.1-0.2-0.2c-0.1,0-0.1,0-0.2,0c-0.2-0.1-0.3-0.1-0.7,0.1
					c-0.1,0-0.1,0.1-0.2,0.2c-0.8,0.8-2,2.8-2.1,2.9c-0.7,1.5-2.1,4.4-2,6.5c0.1,1.3,0.6,2.3,2,2.9c1,0.4,1.9,0.3,2.5,0
					c0.7-0.4,1.2-1.1,1.5-2.1c0.4-1.1,0.5-2.6,0.5-4.1c0-2.4-0.4-4.9-0.6-5.9L78.9,35.2z M77.9,36.8c0.2,1.7,0.3,4.4,0,6.5
					c-0.2,1.5-0.6,2.7-1.9,2.2c-0.8-0.3-0.9-1.1-0.8-1.9c0.2-1.7,1.2-3.7,1.7-4.9C76.9,38.6,77.4,37.6,77.9,36.8z"/>
			</g>
			<g transform="matrix(0.4441,0,0,0.39775,0,0)">
				<path class="st3" d="M112.7,58.1c-0.2,0.1-0.4,0.2-0.5,0.2c-0.4,0.3-0.8,0.9-1.2,1.8c-0.3,0.8-0.6,1.8-0.8,2.8
					c-0.4,2-0.5,4.1-0.1,5.1c0.6,1.6,1.5,1.8,2.3,1.5c0.6-0.2,1.2-0.7,1.7-1.4c0.7-1,1.2-2.2,1.3-2.8c0.3-1.2,0.2-2.3,0-3.5
					c-0.3-1.6-0.9-3.2-1.6-4.6c-0.2-0.4-0.6-0.6-1-0.4c-0.4,0.2-0.6,0.7-0.4,1.1L112.7,58.1z M113,59.2l-0.1,0.2
					c0,0.1,0,0.1-0.1,0.2c-0.2,0.3-0.3,0.7-0.4,1.1c-0.2,0.7-0.5,1.6-0.6,2.5c-0.3,1.6-0.4,3.2-0.1,4c0.1,0.2,0.2,0.4,0.3,0.4
					c0.1,0,0.1-0.1,0.2-0.1c0.1-0.1,0.2-0.2,0.4-0.4c0.6-0.7,1.1-1.8,1.2-2.3c0.2-0.9,0.2-1.8,0.1-2.6
					C113.6,61.2,113.4,60.2,113,59.2z"/>
			</g>
			<g transform="matrix(0.4441,0,0,0.39775,0,0)">
				<path class="st3" d="M78.8,72.7c-0.1-0.1-0.2,0-0.4,0c-0.2,0-0.3,0.3-0.5,0.5c-0.3,0.3-0.5,0.8-0.7,1.3
					c-0.2,0.6-0.4,1.1-0.5,1.3c-0.4,1-1,2.4-1.3,3.7c-0.3,1-0.4,2.1-0.2,2.9c0.2,1.3,0.8,1.9,1.3,2.2c0.5,0.2,1.1,0.2,1.7-0.2
					c1.3-0.7,2.7-2.9,2.9-4.2c0.1-0.7,0.2-1.3,0.3-2c0-0.5,0-0.9,0-1.5c-0.1-0.8-0.3-1.6-0.5-2.4s-0.4-1.6-0.7-2.4
					c-0.1-0.5-0.6-0.7-1-0.5s-0.6,0.7-0.5,1.1L78.8,72.7z M79,73.5L79,73.5c0,0,0.1,0.2,0,0.2c-0.3-0.1-0.3,0.8-0.4,1.2
					c-0.2,0.7-0.4,1.3-0.5,1.5c-0.4,0.9-0.9,2.2-1.1,3.5c-0.2,0.8-0.2,1.5-0.1,2.2c0.1,0.5,0.2,0.7,0.4,0.8c0.2,0.1,0.5-0.2,0.8-0.5
					c0.7-0.7,1.4-1.8,1.5-2.5s0.2-1.2,0.2-1.8c0-0.3,0-0.7,0-1.1c-0.1-0.8-0.2-1.5-0.3-2.3C79.2,74.4,79.1,73.9,79,73.5z"/>
			</g>
		</g>
	</g>
</g>
<g class="st0">
	<g transform="matrix(0.4441,0,0,0.39775,-345.369,-236.477)" class="st1">
		<g id="Gray-Short.svg" transform="matrix(0.681216,0,0,0.681216,1361.69,1133.76)">
			<g transform="matrix(1,0,0,1,-236.5,-283.5)">
				<g id="head-mono-Gray-Short">
					<path id="_xD83D__xDD8D_-Ink" class="st4" d="M-473.8-374.7c-6.3,0.7-13.7-0.9-17.9-6.6c-0.1-0.2-0.2-0.4-0.2-0.5
						c0-0.2,0.1-0.4,0.2-0.6s0.3-0.3,0.5-0.3s0.3,0,0.5,0.1l0.4,0.2c2.9,1.8,5.8,3.3,9.1,3.9c3.3,0.7,6.7,0.6,10-0.2
						c6-1.5,10.9-5.4,14.5-10.6c4-5.8,6.4-13,7-20.4c0.7-8.9-1-17.6-2.8-26.2c-1.9-9-3.9-18-6.3-26.8c-0.1-0.3-0.1-0.5-0.1-0.8
						c-0.7-0.3-1.5-0.2-2.2,0.1c-1.4,0.5-2.7,1.7-3.8,2.6c-0.4,0.3-0.8,0.7-1.1,0.9c-1.4,1.1-2.9,1.8-4.6,2
						c-1.8,0.1-3.5-0.5-5.1-1.3c-0.8-0.4-1.6-0.8-2.4-1.2c-2.3-1.1-4.5-2.3-7-3c-3.3-1-6.7-1.5-10.2-1.5c-6.1,0.1-12.3,1.8-16,7.6
						c-1.5,2.3-2.5,5-1.7,7.9c0.4,1.6,1.2,3,2.1,4.3l0.3,0.5c0.5,0.7,0.9,1.4,1,2.2c0.1,0.6,0,1.3-0.4,2.1c-0.3,0.5-0.6,0.9-0.9,1.3
						c-0.2,0.3-0.5,0.6-0.7,0.9c-0.4,0.6-0.8,1.4-1.1,2.1c-0.6,1.4-0.8,3-0.8,4.5c-0.1,1.9,0.2,3.7,0.4,5.6c0.2,1.3,0.3,2.6,0.4,3.9
						c0,0.2,0,0.4-0.1,0.5c-0.1,0.2-0.3,0.2-0.5,0.3c0,0-0.1,0-0.2,0c0,0.1,0,0.2,0.1,0.4c-0.1-0.2-0.2-0.3-0.4-0.5l0,0
						c-0.1-0.1-0.2-0.2-0.3-0.4c-0.2-0.2-0.4-0.4-0.6-0.5c-1-0.9-2.3-1.4-3.5-1.4s-2.4,0.4-3.3,1.4c-1.8,1.9-2.3,5-2.4,7.6
						c0,2.7,0.5,5.9,2.6,7.6c0.8,0.7,1.9,1.1,2.9,1.1c0.9,0,1.7-0.3,2.5-0.6c0.2-0.1,0.5-0.2,0.8-0.3c0.3-0.1,0.5-0.1,0.8,0
						c0.2,0.1,0.5,0.3,0.6,0.5c0.2,0.2,0.3,0.5,0.3,0.8s0,0.6-0.1,0.9c0,0.1-0.1,0.1-0.1,0.2l0.5,0.9c1.8,3.2,3.6,6.4,5.9,9.2
						c1.4,1.6,2.8,3.1,4.4,4.4l0.2,0.2c0.1,0.1,0.3,0.2,0.5,0.4c0.5,0.4,1,1,1.5,1c0.1,0,0.3,0,0.4,0c0.3,0,0.5-0.1,0.8,0
						c0.2,0.1,0.4,0.2,0.6,0.6c0.1,0.2,0.2,0.5,0.2,0.8s-0.1,0.6-0.2,0.8c-0.3,0.5-0.6,0.8-0.9,1c-0.4,0.2-0.8,0.2-1.3,0.1
						c-1.1-0.2-2.3-1.3-3.1-1.9l-0.1-0.1c-1.7-1.5-3.4-3.1-4.8-4.9c-2.5-3.1-4.7-6.8-5.8-10.8c-0.8,0.6-1.8,0.9-2.8,0.9
						c-1.5,0.1-3.1-0.4-4.3-1c-2.6-1.4-4.2-4-4.9-6.9c-0.8-3.5-0.6-7.4,0.5-10.5c0-0.1,0.1-0.2,0.1-0.3c-3.3-9.4-4.3-19.9-4.1-29.9
						c0.1-4.7,0.4-9.6,1.4-14.2c0.5-2.1,1.2-4,2.5-5.6c0.7-0.9,1.6-1.6,2.4-2.4c0.8-0.6,1.5-1.2,2.1-2l0.3-0.4
						c0.1-0.1,0.1-0.2,0.2-0.2c1.1-1.4,2.2-2.7,3.5-3.8c1.5-1.3,3.2-2.3,5-3.1c3.8-1.8,7.9-2.9,12-3.7c8.8-1.8,17.8-1.9,26.5,0.6
						c4,1.2,8,2.8,11.9,4.4c0.4,0.1,0.7,0.3,1.1,0.5c3,1.2,6.1,2.5,9.1,3.7c1.4,0.6,2.8,1.2,4.2,1.7c0.3,0.1,0.6,0.4,0.8,0.7
						c0.2,0.3,0.2,0.7,0.1,1.1c-0.9,2.5-2,4.8-3.3,6.9c0.5,0.4,0.9,0.8,1.1,1.4c0.4,0.7,0.6,1.5,0.6,2.4c0,2.9-2.3,4.9-4.3,6.3
						c-0.2,0.1-0.4,0.2-0.5,0.2c1.9,8.1,3.7,16.3,5.3,24.5l0.1,0.6c1.6,8.6,2.6,17.4,1.1,26.1c-1.3,7.5-4.3,14.8-9,20.4
						C-460.9-378.9-467.1-375.4-473.8-374.7z M-515.2-424.2c-0.8-2.9-1.3-6.1-0.9-9c0.2-1.9,0.7-3.6,1.5-5.3c0.5-0.9,1-1.8,1.7-2.6
						l0.2-0.3c0.1-0.1,0.2-0.3,0.2-0.4s0-0.2,0-0.3c-0.1-0.3-0.3-0.5-0.5-0.8c-0.1-0.2-0.2-0.3-0.3-0.5c-1.8-2.7-3.2-6-2.7-9.4
						c0.4-3.4,2.4-6.5,4.5-8.9c4.6-5.2,11.8-6.4,18.1-6.1c3.7,0.2,7.3,0.9,10.8,2.1c1.7,0.6,3.4,1.4,5,2.2l0.4,0.2
						c0.2,0.1,0.4,0.2,0.6,0.3c1.3,0.7,2.6,1.4,4,1.8c2.7,0.7,4.5-0.8,6.5-2.4c0.7-0.5,1.3-1.1,2-1.6l0.1-0.1
						c1.3-0.8,2.8-1.4,4.3-1.4c1.3,0,2.5,0.5,3.5,1.6c0.2,0.2,0.3,0.5,0.4,0.7s0.2,0.4,0.3,0.6c0.4,1.5,0.7,3,1.1,4.5l0.3-0.2
						c0.9-0.6,1.8-1.4,2.2-2.4c0.2-0.4,0.1-1.1-0.1-1.6c-0.1-0.2-0.2-0.3-0.3-0.4c-0.1-0.1-0.2-0.1-0.4-0.1c-0.3,0-0.6,0-0.9-0.1
						s-0.5-0.4-0.7-0.6c-0.2-0.3-0.2-0.6-0.2-1c0-0.3,0.1-0.6,0.4-0.9c1.5-1.9,2.7-4,3.7-6.3l-6.3-2.6c-2.2-0.9-4.5-1.9-6.7-2.8
						l-1.2-0.5c-4.1-1.7-8.2-3.3-12.4-4.4c-8.4-2.1-17.2-1.6-25.6,0.4l-0.5,0.1c-3.5,0.9-7.1,1.9-10.3,3.7c-1.6,0.9-3.1,2-4.4,3.3
						c-0.6,0.6-1.1,1.3-1.6,1.9c-0.7,0.9-1.5,1.8-2.3,2.6l-0.8,0.7c-1.2,1.1-2.3,2.1-2.9,3.8c-0.7,1.7-1,3.7-1.3,5.5
						c-0.7,4.7-1,9.5-0.9,14.3c0,8,1.1,15.9,2.5,23.7c1.1-1.8,2.7-3.1,4.7-3.4c1.3-0.2,2.6,0.1,3.7,0.7
						C-516.2-425.3-515.7-424.8-515.2-424.2z M-517.2-414.7c-1.5-0.6-3-0.8-4.5-0.5c-0.2,0-0.3,0-0.4-0.1c-0.1-0.1-0.2-0.2-0.3-0.4
						c-0.1-0.2-0.1-0.4,0-0.5c0-0.1,0.1-0.3,0.3-0.4c1.7-0.9,3.5-1.3,5.4-1h0.2c0.9,0.2,2.3,0.5,3.3,1.1c0.8,0.5,1.3,1.2,1.5,2.1
						c0.1,0.5,0,1-0.3,1.3c-0.2,0.4-0.6,0.6-1.1,0.6c-0.8,0-1.3-0.4-1.9-0.9c-0.1-0.1-0.2-0.1-0.2-0.2
						C-516-414-516.6-414.4-517.2-414.7z"/>
				</g>
			</g>
		</g>
		<g id="Eyes-Closed.svg" transform="matrix(0.734096,0,0,0.734096,1398.38,1156.31)">
			<g transform="matrix(1,0,0,1,-144.5,-146.5)">
				<g id="face-Eyes-Closed">
					<path id="_xD83D__xDD8D_-Ink1" class="st4" d="M-558.4-520.4h0.2c1.2-0.3,2.4-0.8,3.5,0.1c1.1,0.8,1.2,2.3,0.4,3.3
						c-0.9,1.1-2,1-3.2,1h-0.1c-1,0-2,0-3-0.1c-0.9-0.1-1.9-0.2-2.8-0.4l-0.5-0.1c-0.5-0.1-1.1-0.3-1.4-0.9c-0.5-1,3.2-1.9,3.6-2
						C-560.6-519.9-559.5-520.1-558.4-520.4z M-556.3-533c-0.6,0.7-1.4,1.2-2.2,1.4c-2.2,0.7-5,0.3-6.8-0.4
						c-0.4-0.2-0.7-0.5-0.9-0.9s-0.2-0.8-0.1-1.2c0-0.1,0.1-0.2,0.1-0.4c0.1-0.3,0.4-0.6,0.7-0.7c0.3-0.2,0.7-0.2,1-0.1h0.1
						c1.1,0.4,3,1.1,4.5,0.9c0.9-0.1,1.7-0.4,2.2-1.4c0.2-0.5,0.2-1,0-1.4c-0.3-0.7-0.9-1.3-1.4-1.7c-0.7-0.6-1.5-0.8-2.2-1
						c-0.3-0.1-0.6-0.2-0.9-0.3c-0.1,0-0.2-0.1-0.2-0.2s-0.1-0.2-0.1-0.3s0-0.2,0-0.3s0.1-0.2,0.2-0.2c1.5-0.8,3.5-0.3,5,0.9
						c0.7,0.6,1.4,1.4,1.7,2.2s0.5,1.7,0.4,2.6C-555.4-534.4-555.8-533.6-556.3-533z M-581.3-550c0.4-0.2,0.8,0.8,0.9,1l0.2,0.6
						c0.3,0.9,0.6,1.8,1.3,2.5c0.5,0.6,1.4,1,2,0.4s0.3-1.3,0.4-2.1c0.2-1.4,1.8-2.8,2.8-1.3c2.3,3.2-1.2,7.8-4.5,7
						c-1.7-0.4-3-1.9-3.5-3.6v-0.1C-582.2-546.8-582.5-549.4-581.3-550z M-551.9-547.7L-551.9-547.7c-1.1-2.8,2.8-4,3.1-1.5v0.2
						c0.3,2.8-0.3,6.5-3.4,6.7c-3.4,0.3-4.8-3.9-4.5-7c0-0.5,0.7-0.6,0.8-0.1v0.1c0.5,1.6,1.1,4.5,3,4.5
						C-551.4-544.8-551.5-546.7-551.9-547.7z M-549.4-555.7c2-0.1,1.9,3.3,0,3.4c-6.5,0.2-13,0.4-19.5,0.4h-1.2
						c-6.1,0-12.2,0.1-18.3-0.4c-0.5,0-0.4-0.9,0-0.8c6.4-1,12.8-1.3,19.3-1.7C-562.5-555.2-556-555.4-549.4-555.7z"/>
				</g>
			</g>
		</g>
	</g>
</g>
</svg>
