<?xml version="1.0" encoding="utf-8"?>
<!-- Generator: Adobe Illustrator 24.2.0, SVG Export Plug-In . SVG Version: 6.00 Build 0)  -->
<svg version="1.1" id="图层_1" xmlns="http://www.w3.org/2000/svg" xmlns:xlink="http://www.w3.org/1999/xlink" x="0px" y="0px"
	 viewBox="0 0 85 85" style="enable-background:new 0 0 85 85;" xml:space="preserve">
<style type="text/css">
	.st0{fill-rule:evenodd;clip-rule:evenodd;fill:#FFFFFF;}
	.st1{fill-rule:evenodd;clip-rule:evenodd;}
	.st2{display:none;}
	.st3{display:inline;}
	.st4{fill-rule:evenodd;clip-rule:evenodd;fill:#040000;}
</style>
<g>
	<g id="Striped-Pocket-Tee.svg" transform="matrix(0.393259,0,0,0.352216,1412.79,1284.24)">
		<g transform="matrix(1,0,0,1,-409,-366.5)">
			<g id="body-mono-Striped-Pocket-Tee" transform="matrix(0.654024,0,0,0.654024,161.87,177.858)">
				<path id="_xD83C__xDFA8_-Background2" class="st0" d="M-4973.2-5150.3c11.7-0.9,27.7,1.7,31.1,16.5c1,5.4,3.1,7.8,6.6,11.3
					c22,31.5-54.8,36.8-58.8,6.1c-8.3,3.4-17.4,4.1-25.7,7.5c-4.5,1.9-8.6,4.8-12.5,7.9c-16,12.7-31.8,25.8-47.7,38.5
					c6.2,3.2,17.9,15.3,13.1,23.4c-1.1,1.6-2.8,2.7-4.2,3.8l-0.8,0.6c-1.7,1.3-4.5,3.6-6,4.8l-0.3,0.2c-0.1,0.1-0.2,0.2-0.4,0.3
					c11.1,18.2,24.2,35,38.6,49.9c1.2,1.3,0.7,4.1-1.1,4.5l-2.1,0.3c-6.9,1.1-13.8,2.1-20.8,1.5c-6.7-0.8-10.8-7.5-15.4-12.3
					c-9.2-10.5-17.7-21.7-25.5-33.5l-0.2-0.2c-2.4-3.7-5.6-7.5-5.9-12.3c-0.4-1.4,0.7-3.5,1.8-4.5l0.4-0.6
					c5.8-9.4,12.4-18.4,20.7-25.1c0-1,0.4-2.1,1.2-2.7l34.5-27.9c8.9-6.8,17.2-14.9,26.8-20.4c9.9-5.3,21-5.5,31.1-9.9
					c0.2-3.2,6.2-4,6-3.5c6.3-4.3,9.6-9.4,10.6-14S-4978.1-5148.9-4973.2-5150.3z M-4887.8-5050.2c10.7-17.9,20.8,1.9,25.3,13.9
					c5.2,16.4-5.6,36.5-12.6,50.6c-2.6,3.9-6,12.2-10.5,12.8c-11.5-0.1-23-1-34.5-1.2c-7.4-2.1,3-14.5,10.2-10
					c2.2,0.9,3.3,3.7,5.4,4.6c0.8,0.2,0.8-0.2,1.1-1.1v-0.1c0.6-1.5,1.1-3,1.7-4.5c4.7-12.9,9.6-25.6,14.5-38.4
					c1.1-2.8-0.4-5-2.3-6.7c-1.5-1.3-7.8-4.6-1.8-3.2C-4893.7-5039.4-4891-5045.4-4887.8-5050.2z M-4914.3-5074.7
					c1-0.1,2.3,1,2.5,2.1c1.3,9.3-0.1,18.5-1.9,27.5l-0.3,1.7c-0.6,3.3-1.4,6.7-3,9.6c-1.6,3-4.1,5.2-7,6.6
					c-9.2,4.1-20.5,0-27.3-7.6c-4.3-6.6-0.5-14.9,0.2-22.1c-0.7-1.9-0.9-4.2-1.3-6.2v-0.2l-1.5-7.5c-0.3-1.7,0.7-3.9,2.5-3.7
					C-4939.2-5072.9-4926.7-5073-4914.3-5074.7z"/>
				<path id="_xD83D__xDD8D_-Ink13" class="st1" d="M-4871.2-5052.5c0-0.2,0.2-0.3,0.3-0.2c2.2,2.3,3.7,5.3,5.4,8.1
					c1.6,2.6,3.3,5.2,4.5,8.1c1.1,2.7,1.8,5.4,2,8.4s-0.1,5.9-0.5,8.8c-0.9,5.7-2.9,11.1-5,16.4c-2.1,5.1-4.5,10.1-7,15l-0.9,1.7
					c-1.1,2.1-2.2,4.2-3.4,6.3c-1.5,2.6-2.8,5.2-4.8,7.3c-1.4,1.5-4,0-3.3-2.2c0.3-0.9,0.5-1.8,0.9-2.7c0.3-0.7,0.7-1.3,1-2
					c0.7-1.3,1.4-2.6,2-4c1.4-2.8,2.9-5.5,4.3-8.3c2.5-4.8,4.8-9.7,6.8-14.8l0.2-0.6c1.9-4.7,3.7-9.5,4.5-14.6
					c0.9-5.3,0.1-10.4-1.6-15.4c-0.9-2.6-1.9-5.1-2.9-7.7l-0.2-0.5C-4869.7-5047.5-4870.7-5049.9-4871.2-5052.5z M-4976.7-5144.8
					c0-0.1,0.2-0.1,0.2,0c0.6,4.5-0.7,9.3-3,13.1c-1.2,2.1-2.7,3.9-4.4,5.4l-0.1,0.1c-1.8,1.5-4.2,2.9-6.4,2c-0.1,0-0.1-0.1-0.2-0.1
					c0.3,0.4,0.5,0.9,0.7,1.3c0.7,1.4,1.3,2.8,2,4.1c1.2,2.4,2.7,4.6,4.5,6.5c7.3,7.7,17.7,9.5,27.3,9.4h0.7c4.3,0,9.8,0.2,13.1-3.2
					c1.8-1.8,2.7-4.5,3.6-6.9s1.5-4.9,2.2-7.4c-1.5-1.1-2.9-2.5-3.9-4.2c-1.1-1.7-2-3.6-2.5-5.7l-0.1-0.3c-0.4-1.6-0.8-3.8-0.1-5.3
					c0.1-0.2,0.3-0.2,0.4,0c0.3,0.7,0.4,1.6,0.6,2.4c0.2,0.9,0.5,1.8,0.9,2.7c0.7,1.7,1.6,3.3,2.6,4.7c0.9,1.2,1.8,2.2,2.9,3.1
					c0.6-1.2,2.1-1.4,3.4-1c1.7,0.5,3.3,1.3,5,2l0.3,0.1c1.6,0.7,3.4,1.4,4.9,2.4c0.9,0.5,1.8,1,2.6,1.4c4.1,2.2,8.1,4.4,12.2,6.8
					l0.9,0.5c1.7,1,3.4,2,4.8,3.3c1.5,1.4,2.7,3.3,3.7,5.1c2.5,4.1,4.8,8.3,7.3,12.4c5,8.3,9.9,16.5,14.9,24.8c1.2,2,2.6,3.9,3.7,6
					c1,2,1,4,0.8,6.3v0.4c-0.4,4.1-1.1,8-3.1,11.5c-3.2,5.5-8.3,8.9-13.7,11.3c0.7,0.5,1.3,1.1,2.1,1.5c1.2,0.6,2.5,0.9,3.8,1
					c1.4,0.1,3-0.3,4.1,0.8c0.5,0.4,0.5,1.4,0,1.9c-1.1,1-2.5,0.7-3.8,0.5h-0.1c-1.2-0.2-2.4-0.4-3.6-0.9c-0.3-0.1-0.6-0.3-0.8-0.4
					v0.1c-0.2,1.7-0.6,3.3-1.1,4.9l-0.3,1c-0.6,2.1-1.2,4.1-1.8,6.2c-1.1,3.9-2.4,7.8-3.6,11.7l-1.1,3.4c-1.1,3.4-2.2,6.9-3.5,10.3
					c-0.8,2.1-1.5,4.2-2.3,6.3c-0.8,2-1.4,4.2-2.3,6.2c-0.8,1.6-2.9,0.5-2.5-1.2c0.4-2.2,1.3-4.3,1.9-6.4s1.3-4.3,1.9-6.4
					c1.1-3.7,2.4-7.3,3.7-11l1.3-3.6c1.2-3.5,2.5-7.1,3.8-10.6l0.1-0.4c1.4-3.7,2.8-7.8,5.3-10.6l0.1-0.1c-0.6-0.4-1.2-0.8-1.7-1.4
					l0,0c-0.2-0.2-1-1.4-1.3-2.1c-0.3,0.1-0.7,0.3-1,0.4c-0.6,0.2-1.1,0.1-1.5-0.3l-0.7,0.5c-0.7,0.5-1.5,1-2.3,1
					c-1,0-1.8-0.6-2.3-1.5c-0.5-0.8-0.8-1.7-1.4-2.4c-0.6-0.7-1.3-1.3-2-1.9l-0.8-0.7c-1.5-1.3-3-2.5-4.3-4.2
					c-0.6-0.8-1.5-1.8-1.8-2.8c-0.1-0.2-0.1-0.4-0.1-0.6c-0.1,0.6-0.2,1.3-0.3,1.9c-1.2,8.8-2.2,17.7-2.5,26.7
					c-0.2,4.4-0.2,8.8,0,13.2c0.1,2.2,0.2,4.4,0.4,6.6c0.1,1.1,0.2,2.2,0.3,3.3v0.3c0,0.3,0.1,0.7,0,1c1,0.5,1.5,1.9,1.9,2.9
					c0.3,0.8,0.1,1.6-0.4,2.1c0.6,0.6,1.1,1.2,1.5,2c0.1,0.2-0.1,0.3-0.2,0.2c-0.7-0.6-1.4-1.1-2.2-1.5c-0.4,0.2-0.9,0.2-1.3,0.1
					s-0.8-0.5-1.1-0.9c-2.2-0.4-4.5,0.1-6.5,1.6c-0.4,0.3-0.8,0.7-1.1,1.1c-0.1,0.1-0.1,0.2-0.2,0.2l0.4,0.2
					c0.2,0.1,0.3,0.1,0.4,0.1c0.4,0.1,0.8,0.1,1.1,0.2l0.6,0.1c2.2,0.2,4.4,0.3,6.5,1.3c0.4,0.2,0.3,1-0.1,1.1
					c-1.5,0.5-3,0.4-4.5,0.3h-0.3c-1.4-0.1-2.9-0.1-4.3-0.6c0.3,1-0.1,2.3-1.5,2.5c-4.2,0.6-8.3,0.3-12.5-0.1s-8.4-0.8-12.6-1.1
					c-13.6-0.8-27.3-0.6-40.9-0.4l-7.7,0.1c-6.1,0.1-12.3,0.2-18.4,0.1h-2.9c-1.2,0-2.4,0-3.6-0.1h-0.7c-1.4-0.1-3.4,0.2-4.6-0.8
					c-1-0.8-1.3-2.2-0.6-3.4c0.2-0.3,0.4-0.6,0.7-0.9c0.5-5.1,0.8-10.2,1.1-15.3c1.1-17.8,0.4-35.6-2-53.2c-6.6,2.2-13,5-19.3,8
					c-3.4,1.6-6.8,3.3-10.1,5.1c-3.1,1.6-6.1,3.6-9.4,4.7c-0.3,0.3-0.7,0.4-1.1,0.3l0,0l0,0c-0.3,0.1-0.7,0-1.1-0.2
					c-0.1,0-0.1-0.1-0.2-0.2l-0.1-0.1c-1.1-0.8-2.3-1.8-3.1-3c-1,1-2,2-3.1,2.9c-1.1,1-2.3,2.1-3.4,3.1c-0.4,0.4-0.9,0.8-1.3,1.3
					l-0.1,0.1l0,0c1.7,1.2,3.2,3.1,4.5,4.7c1.4,1.7,2.8,3.5,4.2,5.3l1.3,1.7c9.4,12.4,18.8,25.2,31,34.2c1.9,1.4,0.1,4.9-1.8,3.5
					c-3.6-2.8-7-5.8-10.3-9.1c-5.7-5.7-10.9-12-15.7-18.7c-2.4-3.4-4.8-6.8-7.1-10.3l-0.8-1.2c-1.1-1.6-2.1-3.1-3.1-4.7l-0.2-0.3
					c-0.9-1.4-1.8-3-2.4-4.6c-0.2,0.2-0.5,0.5-0.8,0.6c-0.6,0.3-1.4-0.3-1.5-1c-0.4-1.6,0.9-2.6,1.9-3.4c1.2-1,2.5-2,3.8-3l0.5-0.4
					c1.6-1.3,3.2-2.6,4.9-3.6c0.1-0.1,0.1-0.2,0.2-0.2c0.1-0.1,0.2-0.1,0.2-0.2c-2.1-3.8-4.3-7.4-6.9-10.8c-1.9-2.6-3.9-5-6.1-7.3
					l-1-1c-1.5-1.6-3-3.2-4.6-4.5l-0.5,0.6c-0.7,0.9-1.4,1.7-2.1,2.5c-1.4,1.6-2.8,3.2-4.2,4.8c-2.3,2.7-4.6,5.4-6.8,8.2l-1.1,1.4
					c-2.3,2.9-4.8,5.7-6.9,8.8l-0.1,0.2c-0.9,1.4-1.6,2.9-1.1,4.7c0.4,1.7,1.4,3.2,2.2,4.6l0.1,0.1c3.5,6,7.2,11.9,11.1,17.5
					c7.9,11.2,17,21.9,27.8,29.7c1.5,1.1,0.1,3.8-1.4,2.7c-6.3-4.6-12.1-10.1-17.5-16.1c-4.9-5.5-9.3-11.5-13.5-17.6
					c-2-3-4-6.1-5.8-9.2c-1.8-3-3.9-6.2-5.2-9.5c-0.7-1.8-0.9-3.7-0.4-5.5c0.5-1.7,1.5-3.1,2.6-4.5l0.1-0.1c2.4-3.1,4.9-6.1,7.4-9.1
					s5.1-5.9,7.8-8.7c2.1-2.2,4.3-4.2,6.7-6c-0.2-0.2-0.4-0.3-0.6-0.5c-0.7-0.5-0.8-1.5-0.2-2.1c1.6-1.8,3.4-3.3,5.1-4.9
					c1.6-1.5,3.2-3,4.8-4.6c3.3-3.1,6.5-6.2,9.8-9.3c5.9-5.5,11.7-11.1,17.5-16.7c2.4-2.3,4.9-4.6,7.3-6.9l4.4-4.1l2.1-2
					c1.1-1,2.2-2,3.4-2.8c2.9-1.8,6.4-2.6,9.6-3.6l0.2-0.1c3.6-1.1,7.2-2.1,10.9-3.1c3.6-0.9,7.3-1.8,11-2.5
					c3.3-0.7,6.7-1.3,10.1-1.4c0.8-0.4,1.9-0.5,2.7-0.1c0.3,0.2,0.7,0.4,1,0.7c1.6-0.6,3.3-1,4.8-2.1s2.9-2.5,4-4.1
					C-4978.8-5136.9-4977.5-5140.8-4976.7-5144.8z M-4938.8-5033.9c-1.3-0.1-2.5,0.5-3.7,1.1c0.7,0.3,1.3,0.6,2,0.9l4.4,2.1
					c1.4,0.7,3,1.3,4.4,2.1c0.1,0.1,0.2,0.1,0.2,0.2c1.4-1,2.9-1.9,4.4-2.9c0.3-0.2,0.7-0.4,1-0.7c-1.7,0.6-3.5,1-5.4,0.4
					C-4934-5031.4-4936.2-5033.7-4938.8-5033.9z M-4935.2-5038.8l-0.2-0.2c-1.3-1-2.8-2.2-4.3-1.3c-0.7,0.4-1.3,1.1-2,1.5
					s-1.5,0.8-2.3,1c-1.3,0.3-2.9,0.4-4.3,0.1v2.2c1.1,0.5,2.2,1,3.2,1.5c0.7-0.3,1.4-0.6,2.1-0.9l0.5-0.2c1.4-0.7,2.7-1.1,4.2-0.9
					c2.8,0.4,5,2.8,7.7,3.5c3.3,1,6.3-1.8,9.5-2.5c0.5-0.1,1.1-0.2,1.6-0.2h0.2l0.1-0.1c0.7-0.4,1.7-0.9,2.2-1.6
					c0.5-0.8,0.6-2.2,0.7-3.1c0-0.1,0-0.2,0-0.3c-0.3,0-0.6,0-0.9,0.1c-1,0.2-1.9,0.6-2.8,1c-1.7,0.8-3.3,1.7-5.1,2.2
					c-1.7,0.5-3.6,0.8-5.4,0.5C-4932.3-5036.9-4933.8-5037.7-4935.2-5038.8z M-4934.9-5046.4l-0.3-0.2c-0.7-0.5-1.5-1-2.3-0.8
					s-1.4,0.8-2.1,1.3c-1.4,0.9-3.1,1.4-4.7,1.5c-1.4,0.1-2.8-0.1-4.1-0.5v4.8c0.5,0.2,1,0.3,1.5,0.3c1.6,0.1,3.2-0.3,4.5-1.3
					l0.7-0.5c1.2-0.9,2.3-1.5,3.8-1.2s2.8,1.4,4.1,2.4l0.2,0.2c1.4,1.1,2.9,1.7,4.7,1.8c1.9,0,3.8-0.6,5.6-1.3
					c1.8-0.7,3.4-1.6,5.3-1.8c0.6-0.1,1.3-0.1,1.9,0c0.1-0.5,0.2-1.1,0.2-1.6c0.2-1.2,0.3-2.3,0.4-3.5c-3.3-1-6.4,2.2-9.5,3.2
					c-1.8,0.6-3.8,0.6-5.6,0C-4932.2-5044.3-4933.5-5045.4-4934.9-5046.4z M-4934.9-5054.5c-0.7-0.2-1.4,0.2-2,0.6
					c-1.5,1-2.9,2.3-4.6,2.8c-2.3,0.6-4.7,0.1-6.9-1c0,1.5,0,3,0,4.4c0.4,0.2,0.9,0.3,1.3,0.4c1.6,0.4,3.2,0.3,4.8-0.2
					c1.6-0.5,2.8-1.9,4.4-2.3s3.1,0.4,4.4,1.4l0.4,0.3c1.5,1.1,2.9,2.1,4.8,2.3c2,0.2,3.7-0.5,5.4-1.4l0.4-0.2
					c2.2-1.1,5.1-2.4,7.3-1.1c0.2-1.8,0.3-3.7,0.4-5.5c-0.3-0.1-0.6-0.2-1-0.2c-0.9,0-1.8,0.3-2.6,0.6c-1.8,0.7-3.4,1.7-5.2,2.5
					c-1.7,0.7-3.5,1.1-5.3,0.8c-1.6-0.3-2.9-1.3-4-2.6l-0.2-0.2C-4933.7-5053.7-4934.2-5054.3-4934.9-5054.5z M-4933.6-5061.3
					c-0.8-0.5-1.8-0.9-2.8-0.8c-0.9,0.1-1.5,0.8-2.1,1.6l-0.3,0.4c-1,1.3-2,2.4-3.5,3c-1.6,0.6-3.3,0.3-4.8-0.5
					c-0.5-0.3-1-0.7-1.5-1v3.9c1,0.5,2,1,3.1,1.3c2,0.6,3.8,0.1,5.5-1.1l0.2-0.1c1.3-1,2.6-2.1,4.3-2.2c1.6-0.1,2.8,0.9,3.8,2.1
					l0.1,0.1c1.3,1.5,2.6,2.3,4.6,2.1c1.9-0.2,3.7-1.1,5.4-1.9l0.2-0.1c1.6-0.7,3.4-1.5,5.1-1.2c0.4,0.1,1,0.2,1.4,0.5
					c0.1-1.8,0.1-3.6,0.1-5.5c-1-1-2.5-1.1-3.8-0.7c-1.9,0.6-3.5,2.2-5.4,3.1c-1.6,0.8-3.3,0.9-5,0.2
					C-4930.7-5058.9-4932-5060.4-4933.6-5061.3z M-4914.9-5069c-2.9,0.1-5.7,2.2-8.5,3c-3.1,0.9-5.6-0.3-8.3-1.7l-0.4-0.2
					c-1.4-0.7-2.9-1.3-4.5-1c-1.5,0.3-2.9,1.2-4.2,2.1l-0.3,0.2c-2.4,1.5-4.8,2.6-7.6,2.3c0,1,0,1.9,0,2.9c0.5,0.3,0.9,0.6,1.3,0.9
					l0.1,0.1c1.3,0.9,2.7,1.5,4.3,1c1.5-0.6,2.2-2,3.3-3.3c1-1.1,2.2-1.8,3.6-1.7c1.5,0.1,3,0.8,4.2,1.7c1.3,0.9,2.5,2.1,3.9,2.5
					c3.3,1,6.1-2.9,9.2-3.5c1.3-0.3,2.7,0.1,3.7,0.9C-4914.8-5064.8-4914.8-5066.9-4914.9-5069z M-4939.8-5069.8
					c-0.4,0-0.8,0-1.2,0.1c-1.5,0.1-3,0.2-4.5,0.3c-1,0.1-2.3,0.4-3.4,0.1c0,0.1-0.1,0.2-0.1,0.3c0.2,0.9,0.3,1.8,0.3,2.7
					c0.9,0.1,1.9,0.1,2.8-0.1C-4943.6-5067.1-4941.8-5068.7-4939.8-5069.8z M-4914.9-5070.6c-5.5,0.4-11.1,0.3-16.6,0.4h-0.7h-0.1
					c0.6,0.3,1.3,0.6,1.9,0.9l0.6,0.3c1.5,0.8,3,1.4,4.6,1.2c1.8-0.1,3.4-1,5.1-1.6c1.6-0.6,3.4-1,5.1-0.8
					C-4914.9-5070.2-4914.9-5070.4-4914.9-5070.6z"/>
			</g>
		</g>
	</g>
	<g transform="matrix(1,0,0,1,711.257,374.628)" class="st2">
		<g class="st3">
			<g transform="matrix(0.4441,0,0,0.39775,122.255,342.337)">
				<g id="Gray-Short.svg5" transform="matrix(0.681216,0,0,0.681216,1361.69,1133.76)">
					<g transform="matrix(1,0,0,1,-236.5,-283.5)">
						<g id="head-mono-Gray-Short5">
							<path class="st0" d="M-4420.5-3938.9c0,0-4.7,20.6,9.3,14.6c0,0,7.8,20.2,14.4,18.2c0,0,5.2,4.7,9.4,5.1
								c0,0,20.7,21.2,38-11.6c6.9-13,2.6-41.6-0.4-52.2c-1.3-4.6-1.5-9.4-1.7-10.7c0,0,8.9-6.2,2.4-9.2c0,0,4.7-7.2,3.8-7.9
								c-0.9-0.6-31-15.3-45.9-12.1c-15,3.3-22.1,5.3-27,12.6s-5,3.3-5.9,10.4C-4425.1-3974.6-4427.1-3943.1-4420.5-3938.9z"/>
							<path id="_xD83D__xDD8D_-Ink14" class="st1" d="M-4370.5-3893.5c-6.3,0.7-13.7-0.9-17.9-6.6c-0.1-0.2-0.2-0.4-0.2-0.6
								c0-0.2,0.1-0.4,0.2-0.6c0.1-0.2,0.3-0.3,0.5-0.3s0.3,0,0.5,0.1l0.4,0.2c2.9,1.8,5.8,3.3,9.1,3.9c3.3,0.7,6.7,0.6,10-0.3
								c6-1.5,10.9-5.4,14.5-10.6c4-5.8,6.4-13.1,7-20.4c0.7-8.8-1-17.6-2.8-26.2c-1.9-9-3.9-18-6.3-26.8c-0.1-0.3-0.1-0.5-0.1-0.7
								c-0.7-0.3-1.4-0.2-2.2,0.1c-1.4,0.5-2.7,1.7-3.8,2.6c-0.4,0.3-0.8,0.7-1.1,0.9c-1.4,1.1-2.9,1.8-4.6,2
								c-1.8,0.1-3.5-0.5-5.1-1.3c-0.8-0.4-1.6-0.8-2.4-1.2c-2.3-1.2-4.6-2.3-7-3c-3.3-1-6.7-1.5-10.2-1.5c-6.1,0.1-12.3,1.8-16,7.6
								c-1.5,2.3-2.5,5-1.7,7.9c0.4,1.6,1.2,3,2.1,4.3l0.3,0.4c0.5,0.7,0.9,1.4,1,2.2c0.1,0.6,0,1.3-0.4,2.1
								c-0.3,0.5-0.6,0.9-0.9,1.3c-0.2,0.3-0.5,0.6-0.7,0.9c-0.4,0.7-0.8,1.4-1.1,2.1c-0.6,1.4-0.8,3-0.9,4.5
								c-0.1,1.9,0.2,3.7,0.4,5.6c0.2,1.3,0.3,2.6,0.4,3.9c0,0.2-0.1,0.4-0.1,0.5c-0.1,0.2-0.3,0.3-0.4,0.3s-0.1,0-0.2,0
								c0,0.1,0.1,0.3,0.1,0.4c-0.1-0.2-0.2-0.3-0.4-0.5l0,0c-0.1-0.1-0.2-0.2-0.3-0.4c-0.2-0.2-0.4-0.4-0.6-0.5
								c-1-0.9-2.3-1.4-3.5-1.4s-2.4,0.4-3.3,1.4c-1.8,1.9-2.3,5-2.4,7.6c0,2.7,0.5,5.9,2.6,7.6c0.8,0.7,1.9,1.1,2.9,1.1
								c0.9,0,1.7-0.3,2.5-0.7c0.2-0.1,0.5-0.2,0.7-0.3c0.3-0.1,0.5-0.1,0.8,0s0.5,0.3,0.6,0.5c0.2,0.2,0.3,0.5,0.3,0.8
								s0,0.6-0.1,0.9c0,0.1-0.1,0.1-0.1,0.2l0.5,0.8c1.8,3.2,3.6,6.4,5.9,9.2c1.4,1.6,2.8,3.1,4.4,4.4l0.2,0.2
								c0.1,0.1,0.3,0.2,0.4,0.4c0.5,0.4,1,1,1.5,1c0.2,0,0.3,0,0.4,0c0.3,0,0.5-0.1,0.8,0.1c0.2,0.1,0.4,0.3,0.6,0.6
								c0.1,0.2,0.2,0.5,0.2,0.8s-0.1,0.6-0.2,0.8c-0.3,0.5-0.6,0.8-0.9,1c-0.4,0.2-0.8,0.2-1.3,0.1c-1.1-0.2-2.3-1.3-3.1-1.9
								l-0.2-0.1c-1.7-1.5-3.4-3.1-4.8-4.9c-2.5-3.1-4.7-6.8-5.8-10.8c-0.8,0.6-1.8,0.9-2.8,0.9c-1.5,0.1-3.1-0.4-4.3-1
								c-2.6-1.4-4.2-4-4.9-6.9c-0.9-3.5-0.6-7.4,0.5-10.5c0-0.1,0.1-0.2,0.1-0.3c-3.3-9.4-4.4-19.9-4.1-29.9
								c0.1-4.7,0.4-9.6,1.4-14.2c0.4-2.1,1.2-4,2.5-5.6c0.7-0.9,1.6-1.6,2.4-2.4c0.8-0.6,1.5-1.2,2.1-2l0.3-0.4
								c0.1-0.1,0.1-0.2,0.2-0.2c1.1-1.4,2.2-2.7,3.5-3.8c1.5-1.3,3.2-2.3,5-3.1c3.8-1.8,7.9-2.9,12-3.7c8.8-1.8,17.8-1.9,26.5,0.6
								c4,1.2,8,2.8,11.9,4.4c0.4,0.1,0.7,0.3,1.1,0.4c3,1.2,6.1,2.5,9.1,3.7c1.4,0.6,2.8,1.2,4.2,1.7c0.3,0.1,0.6,0.4,0.8,0.7
								c0.2,0.3,0.2,0.7,0.1,1.1c-0.9,2.5-2,4.8-3.3,6.9c0.5,0.4,0.9,0.8,1.2,1.4c0.4,0.7,0.6,1.5,0.6,2.4c0.1,2.9-2.3,4.9-4.3,6.3
								c-0.2,0.1-0.4,0.2-0.5,0.2c1.9,8.1,3.7,16.3,5.3,24.5l0.1,0.6c1.6,8.6,2.6,17.4,1.1,26.1c-1.3,7.5-4.3,14.8-9,20.4
								C-4357.6-3897.7-4363.8-3894.3-4370.5-3893.5z M-4411.9-3943c-0.8-2.9-1.3-6.1-0.9-9c0.2-1.9,0.7-3.6,1.5-5.3
								c0.5-0.9,1-1.8,1.7-2.6l0.2-0.3c0.1-0.1,0.2-0.3,0.2-0.4c0-0.1,0-0.2-0.1-0.3c-0.1-0.3-0.3-0.5-0.5-0.8
								c-0.1-0.2-0.2-0.3-0.4-0.5c-1.8-2.7-3.1-6-2.7-9.4s2.4-6.5,4.5-8.9c4.6-5.2,11.8-6.4,18.1-6.1c3.7,0.2,7.3,0.9,10.8,2.1
								c1.7,0.6,3.4,1.4,5,2.2l0.4,0.2c0.2,0.1,0.4,0.2,0.6,0.3c1.3,0.7,2.6,1.4,4,1.8c2.7,0.7,4.5-0.8,6.5-2.4
								c0.7-0.5,1.3-1.1,2-1.6l0.1-0.1c1.3-0.8,2.8-1.4,4.3-1.4c1.3,0,2.5,0.5,3.5,1.6c0.2,0.2,0.3,0.5,0.4,0.7s0.2,0.4,0.3,0.6
								c0.4,1.5,0.7,3,1.1,4.6l0.3-0.2c0.9-0.6,1.8-1.4,2.2-2.4c0.2-0.4,0.1-1.1-0.1-1.6c-0.1-0.2-0.2-0.3-0.3-0.4
								c-0.1-0.1-0.2-0.1-0.3-0.1c-0.3,0-0.6,0-0.9-0.1s-0.5-0.4-0.7-0.6c-0.2-0.3-0.2-0.6-0.2-1c0-0.3,0.1-0.6,0.4-0.9
								c1.5-1.9,2.7-4,3.7-6.3l-6.3-2.6c-2.2-0.9-4.5-1.8-6.7-2.8l-1.2-0.5c-4.1-1.7-8.2-3.3-12.4-4.4c-8.4-2.1-17.2-1.6-25.6,0.4
								l-0.5,0.1c-3.5,0.9-7.1,1.9-10.3,3.7c-1.6,0.9-3.1,2-4.4,3.3c-0.6,0.6-1.1,1.3-1.6,1.9c-0.7,0.9-1.5,1.8-2.3,2.6l-0.8,0.7
								c-1.2,1.1-2.3,2.1-2.9,3.8c-0.7,1.7-1,3.7-1.3,5.5c-0.7,4.7-1,9.5-0.9,14.3c0,8,1.1,15.9,2.5,23.7c1.1-1.8,2.7-3.1,4.7-3.4
								c1.3-0.2,2.6,0.1,3.7,0.7C-4413-3944.1-4412.4-3943.6-4411.9-3943z M-4414-3933.5c-1.5-0.6-3-0.8-4.5-0.5
								c-0.2,0-0.3,0-0.4-0.1s-0.2-0.2-0.3-0.4c-0.1-0.2-0.1-0.4,0-0.5c0-0.1,0.1-0.3,0.3-0.4c1.7-0.9,3.5-1.3,5.4-1h0.2
								c0.9,0.2,2.3,0.5,3.3,1.1c0.8,0.5,1.3,1.2,1.5,2.1c0.1,0.5,0,1-0.3,1.3c-0.2,0.3-0.6,0.6-1.1,0.6c-0.8,0-1.3-0.4-1.9-0.9
								c-0.1-0.1-0.1-0.1-0.2-0.2C-4412.7-3932.8-4413.3-3933.2-4414-3933.5z"/>
						</g>
					</g>
				</g>
			</g>
			<g id="Smile-Teeth-Gap.svg4" transform="matrix(0.291546,0,0,0.261117,739.948,804.811)">
				<g transform="matrix(1,0,0,1,-144.5,-146.5)">
					<g id="face-Smile-Teeth-Gap4">
						<path id="_xD83D__xDD8D_-Ink15" class="st1" d="M-4679.5-4280.2c1.6,1.1,4.2,3.7,2.4,6.5c-2.1,2.4-5.1-0.4-6.6-1.6
							c-1.4-1-2.9,1.5-1.6,2.7c10.7,8.8,15-7.3,6.7-8.9C-4679.6-4281.7-4680-4280.5-4679.5-4280.2z M-4694.4-4301.5l0.4-0.1h0.2
							c1.2-0.2,2.7-0.4,3.5,0.7c0.5,0.6,0.6,1.7,0,2.3c-1.1,1-2.4,0.6-3.7,0.7c-1.1,0.1-2.2,0.3-3.2,0.6c-2.3,0.7-4.3,2.1-6.3,3.6
							c-0.3,0.2-0.5-0.2-0.4-0.5c1.2-2.5,3.4-4.6,5.6-5.9C-4697-4300.7-4695.7-4301.2-4694.4-4301.5z M-4683.6-4266.6
							c3.6,0.3,11.3-1.6,14.6,1.2c12.1,16.9-36,21.3-30.8,2.6C-4696.5-4268.8-4688.9-4266.4-4683.6-4266.6z M-4684.2-4256.4
							c-0.9-0.1-2,0.7-2.2,1.3c-0.3,0.6-0.2,1.9-0.2,2.1c1.5,0.2,3.1,0.2,4.7,0.1C-4682.3-4254.4-4682.3-4256.1-4684.2-4256.4z
							 M-4677-4253.9c-0.2-1.8-1.4-2.3-2.4-2s-1.6,1.5-1.5,2.7c0,0.1,0,0.1-0.1,0.2C-4679.6-4253.2-4678.3-4253.5-4677-4253.9z
							 M-4688-4256c-0.6-0.9-1.9-1.4-2.7-1.2c-1.4,0.3-1.6,2.3-1.6,2.7c1.3,0.5,2.7,0.9,4,1.2c0.3,0.1,0.5,0.1,0.8,0.2v-0.2
							C-4687.5-4254-4687.5-4255.2-4688-4256z M-4672.2-4256.2c-1.4-2.5-4.5-0.7-4.3,2c0.3-0.1,0.5-0.2,0.8-0.3
							C-4674.5-4254.9-4673.3-4255.4-4672.2-4256.2z M-4683.5-4264.7c-1.9-0.2-3.5-0.1-4.8,0.1v0.5c-0.1,1.6-0.3,3.2,0.4,3.9
							c0.6,0.5,2.7,0.5,4.1,0.1C-4683.4-4260.2-4683-4263.6-4683.5-4264.7z M-4680.5-4264.9c-0.3,1.6-0.5,3.5,0.2,4.1
							s2.8,0.5,3.3,0.1s0.5-2,0.3-3.8C-4677.8-4264.8-4679.7-4264.9-4680.5-4264.9z M-4689.1-4264.6h-0.6h-0.4
							c-0.9,0-1.9,0.1-2.8,0.3c-1.8,4.4,4.8,5.2,3.8-0.1V-4264.6z M-4675.9-4264.4v0.2c-0.1,1.2,0,2.9,0.6,3.3
							c0.9,0.6,2.6,0.5,3.5-2.5C-4672.1-4264.3-4675.3-4264.4-4675.9-4264.4z M-4693.6-4290.7c0.4,0,0.8,0.1,1.1,0.4
							c0.3,0.3,0.6,0.7,0.9,1.1c0.5,0.9,0.8,2.2,0.8,3.6s-0.3,2.7-0.8,3.6c-0.2,0.5-0.5,0.9-0.9,1.1c-0.3,0.3-0.7,0.4-1.1,0.4
							s-0.8-0.1-1.1-0.4c-0.3-0.3-0.6-0.7-0.9-1.1c-0.5-0.9-0.8-2.2-0.8-3.6s0.3-2.7,0.8-3.6c0.2-0.5,0.5-0.9,0.9-1.1
							C-4694.4-4290.6-4694-4290.7-4693.6-4290.7z M-4669.1-4290.7c0.4,0,0.8,0.1,1.1,0.4c0.3,0.3,0.6,0.7,0.9,1.1
							c0.5,0.9,0.8,2.2,0.8,3.6s-0.3,2.7-0.8,3.6c-0.2,0.5-0.5,0.9-0.9,1.1c-0.3,0.3-0.7,0.4-1.1,0.4s-0.8-0.1-1.1-0.4
							c-0.3-0.3-0.6-0.7-0.9-1.1c-0.5-0.9-0.8-2.2-0.8-3.6s0.3-2.7,0.8-3.6c0.2-0.5,0.5-0.9,0.9-1.1
							C-4669.9-4290.6-4669.5-4290.7-4669.1-4290.7z M-4672.5-4302.6l0.3,0.1h0.2c3.4,0.8,7.7,2.4,9.2,6.1c0.1,0.5,0,0.6-0.1,0.7
							l0,0c0,0.1-0.1,0.1-0.3,0.2c-0.1,0-0.1,0-0.2,0c-0.7-0.2-1.3-0.5-1.9-0.8l-0.6-0.3c-0.7-0.4-1.4-0.8-2.2-1
							c-1.6-0.6-3.3-1-5-1.2c-0.4,0-0.7-0.2-1-0.4c-0.3-0.2-0.5-0.5-0.6-1s-0.1-0.9,0.2-1.4c0.2-0.4,0.5-0.6,0.8-0.8
							C-4673.2-4302.7-4672.8-4302.7-4672.5-4302.6z"/>
					</g>
				</g>
			</g>
		</g>
	</g>
</g>
<g class="st2">
	<g transform="matrix(0.4441,0,0,0.39775,-345.369,-236.477)" class="st3">
		<g id="Gray-Short.svg" transform="matrix(0.681216,0,0,0.681216,1361.69,1133.76)">
			<g transform="matrix(1,0,0,1,-236.5,-283.5)">
				<g id="head-mono-Gray-Short">
					<path id="_xD83D__xDD8D_-Ink" class="st4" d="M-473.8-374.7c-6.3,0.7-13.7-0.9-17.9-6.6c-0.1-0.2-0.2-0.4-0.2-0.5
						c0-0.2,0.1-0.4,0.2-0.6s0.3-0.3,0.5-0.3s0.3,0,0.5,0.1l0.4,0.2c2.9,1.8,5.8,3.3,9.1,3.9c3.3,0.7,6.7,0.6,10-0.2
						c6-1.5,10.9-5.4,14.5-10.6c4-5.8,6.4-13,7-20.4c0.7-8.9-1-17.6-2.8-26.2c-1.9-9-3.9-18-6.3-26.8c-0.1-0.3-0.1-0.5-0.1-0.8
						c-0.7-0.3-1.5-0.2-2.2,0.1c-1.4,0.5-2.7,1.7-3.8,2.6c-0.4,0.3-0.8,0.7-1.1,0.9c-1.4,1.1-2.9,1.8-4.6,2
						c-1.8,0.1-3.5-0.5-5.1-1.3c-0.8-0.4-1.6-0.8-2.4-1.2c-2.3-1.1-4.5-2.3-7-3c-3.3-1-6.7-1.5-10.2-1.5c-6.1,0.1-12.3,1.8-16,7.6
						c-1.5,2.3-2.5,5-1.7,7.9c0.4,1.6,1.2,3,2.1,4.3l0.3,0.5c0.5,0.7,0.9,1.4,1,2.2c0.1,0.6,0,1.3-0.4,2.1c-0.3,0.5-0.6,0.9-0.9,1.3
						c-0.2,0.3-0.5,0.6-0.7,0.9c-0.4,0.6-0.8,1.4-1.1,2.1c-0.6,1.4-0.8,3-0.8,4.5c-0.1,1.9,0.2,3.7,0.4,5.6c0.2,1.3,0.3,2.6,0.4,3.9
						c0,0.2,0,0.4-0.1,0.5c-0.1,0.2-0.3,0.2-0.5,0.3c0,0-0.1,0-0.2,0c0,0.1,0,0.2,0.1,0.4c-0.1-0.2-0.2-0.3-0.4-0.5l0,0
						c-0.1-0.1-0.2-0.2-0.3-0.4c-0.2-0.2-0.4-0.4-0.6-0.5c-1-0.9-2.3-1.4-3.5-1.4s-2.4,0.4-3.3,1.4c-1.8,1.9-2.3,5-2.4,7.6
						c0,2.7,0.5,5.9,2.6,7.6c0.8,0.7,1.9,1.1,2.9,1.1c0.9,0,1.7-0.3,2.5-0.6c0.2-0.1,0.5-0.2,0.8-0.3c0.3-0.1,0.5-0.1,0.8,0
						c0.2,0.1,0.5,0.3,0.6,0.5c0.2,0.2,0.3,0.5,0.3,0.8s0,0.6-0.1,0.9c0,0.1-0.1,0.1-0.1,0.2l0.5,0.9c1.8,3.2,3.6,6.4,5.9,9.2
						c1.4,1.6,2.8,3.1,4.4,4.4l0.2,0.2c0.1,0.1,0.3,0.2,0.5,0.4c0.5,0.4,1,1,1.5,1c0.1,0,0.3,0,0.4,0c0.3,0,0.5-0.1,0.8,0
						c0.2,0.1,0.4,0.2,0.6,0.6c0.1,0.2,0.2,0.5,0.2,0.8s-0.1,0.6-0.2,0.8c-0.3,0.5-0.6,0.8-0.9,1c-0.4,0.2-0.8,0.2-1.3,0.1
						c-1.1-0.2-2.3-1.3-3.1-1.9l-0.1-0.1c-1.7-1.5-3.4-3.1-4.8-4.9c-2.5-3.1-4.7-6.8-5.8-10.8c-0.8,0.6-1.8,0.9-2.8,0.9
						c-1.5,0.1-3.1-0.4-4.3-1c-2.6-1.4-4.2-4-4.9-6.9c-0.8-3.5-0.6-7.4,0.5-10.5c0-0.1,0.1-0.2,0.1-0.3c-3.3-9.4-4.3-19.9-4.1-29.9
						c0.1-4.7,0.4-9.6,1.4-14.2c0.5-2.1,1.2-4,2.5-5.6c0.7-0.9,1.6-1.6,2.4-2.4c0.8-0.6,1.5-1.2,2.1-2l0.3-0.4
						c0.1-0.1,0.1-0.2,0.2-0.2c1.1-1.4,2.2-2.7,3.5-3.8c1.5-1.3,3.2-2.3,5-3.1c3.8-1.8,7.9-2.9,12-3.7c8.8-1.8,17.8-1.9,26.5,0.6
						c4,1.2,8,2.8,11.9,4.4c0.4,0.1,0.7,0.3,1.1,0.5c3,1.2,6.1,2.5,9.1,3.7c1.4,0.6,2.8,1.2,4.2,1.7c0.3,0.1,0.6,0.4,0.8,0.7
						c0.2,0.3,0.2,0.7,0.1,1.1c-0.9,2.5-2,4.8-3.3,6.9c0.5,0.4,0.9,0.8,1.1,1.4c0.4,0.7,0.6,1.5,0.6,2.4c0,2.9-2.3,4.9-4.3,6.3
						c-0.2,0.1-0.4,0.2-0.5,0.2c1.9,8.1,3.7,16.3,5.3,24.5l0.1,0.6c1.6,8.6,2.6,17.4,1.1,26.1c-1.3,7.5-4.3,14.8-9,20.4
						C-460.9-378.9-467.1-375.4-473.8-374.7z M-515.2-424.2c-0.8-2.9-1.3-6.1-0.9-9c0.2-1.9,0.7-3.6,1.5-5.3c0.5-0.9,1-1.8,1.7-2.6
						l0.2-0.3c0.1-0.1,0.2-0.3,0.2-0.4s0-0.2,0-0.3c-0.1-0.3-0.3-0.5-0.5-0.8c-0.1-0.2-0.2-0.3-0.3-0.5c-1.8-2.7-3.2-6-2.7-9.4
						c0.4-3.4,2.4-6.5,4.5-8.9c4.6-5.2,11.8-6.4,18.1-6.1c3.7,0.2,7.3,0.9,10.8,2.1c1.7,0.6,3.4,1.4,5,2.2l0.4,0.2
						c0.2,0.1,0.4,0.2,0.6,0.3c1.3,0.7,2.6,1.4,4,1.8c2.7,0.7,4.5-0.8,6.5-2.4c0.7-0.5,1.3-1.1,2-1.6l0.1-0.1
						c1.3-0.8,2.8-1.4,4.3-1.4c1.3,0,2.5,0.5,3.5,1.6c0.2,0.2,0.3,0.5,0.4,0.7s0.2,0.4,0.3,0.6c0.4,1.5,0.7,3,1.1,4.5l0.3-0.2
						c0.9-0.6,1.8-1.4,2.2-2.4c0.2-0.4,0.1-1.1-0.1-1.6c-0.1-0.2-0.2-0.3-0.3-0.4c-0.1-0.1-0.2-0.1-0.4-0.1c-0.3,0-0.6,0-0.9-0.1
						s-0.5-0.4-0.7-0.6c-0.2-0.3-0.2-0.6-0.2-1c0-0.3,0.1-0.6,0.4-0.9c1.5-1.9,2.7-4,3.7-6.3l-6.3-2.6c-2.2-0.9-4.5-1.9-6.7-2.8
						l-1.2-0.5c-4.1-1.7-8.2-3.3-12.4-4.4c-8.4-2.1-17.2-1.6-25.6,0.4l-0.5,0.1c-3.5,0.9-7.1,1.9-10.3,3.7c-1.6,0.9-3.1,2-4.4,3.3
						c-0.6,0.6-1.1,1.3-1.6,1.9c-0.7,0.9-1.5,1.8-2.3,2.6l-0.8,0.7c-1.2,1.1-2.3,2.1-2.9,3.8c-0.7,1.7-1,3.7-1.3,5.5
						c-0.7,4.7-1,9.5-0.9,14.3c0,8,1.1,15.9,2.5,23.7c1.1-1.8,2.7-3.1,4.7-3.4c1.3-0.2,2.6,0.1,3.7,0.7
						C-516.2-425.3-515.7-424.8-515.2-424.2z M-517.2-414.7c-1.5-0.6-3-0.8-4.5-0.5c-0.2,0-0.3,0-0.4-0.1c-0.1-0.1-0.2-0.2-0.3-0.4
						c-0.1-0.2-0.1-0.4,0-0.5c0-0.1,0.1-0.3,0.3-0.4c1.7-0.9,3.5-1.3,5.4-1h0.2c0.9,0.2,2.3,0.5,3.3,1.1c0.8,0.5,1.3,1.2,1.5,2.1
						c0.1,0.5,0,1-0.3,1.3c-0.2,0.4-0.6,0.6-1.1,0.6c-0.8,0-1.3-0.4-1.9-0.9c-0.1-0.1-0.2-0.1-0.2-0.2
						C-516-414-516.6-414.4-517.2-414.7z"/>
				</g>
			</g>
		</g>
		<g id="Eyes-Closed.svg" transform="matrix(0.734096,0,0,0.734096,1398.38,1156.31)">
			<g transform="matrix(1,0,0,1,-144.5,-146.5)">
				<g id="face-Eyes-Closed">
					<path id="_xD83D__xDD8D_-Ink1" class="st4" d="M-558.4-520.4h0.2c1.2-0.3,2.4-0.8,3.5,0.1c1.1,0.8,1.2,2.3,0.4,3.3
						c-0.9,1.1-2,1-3.2,1h-0.1c-1,0-2,0-3-0.1c-0.9-0.1-1.9-0.2-2.8-0.4l-0.5-0.1c-0.5-0.1-1.1-0.3-1.4-0.9c-0.5-1,3.2-1.9,3.6-2
						C-560.6-519.9-559.5-520.1-558.4-520.4z M-556.3-533c-0.6,0.7-1.4,1.2-2.2,1.4c-2.2,0.7-5,0.3-6.8-0.4
						c-0.4-0.2-0.7-0.5-0.9-0.9s-0.2-0.8-0.1-1.2c0-0.1,0.1-0.2,0.1-0.4c0.1-0.3,0.4-0.6,0.7-0.7c0.3-0.2,0.7-0.2,1-0.1h0.1
						c1.1,0.4,3,1.1,4.5,0.9c0.9-0.1,1.7-0.4,2.2-1.4c0.2-0.5,0.2-1,0-1.4c-0.3-0.7-0.9-1.3-1.4-1.7c-0.7-0.6-1.5-0.8-2.2-1
						c-0.3-0.1-0.6-0.2-0.9-0.3c-0.1,0-0.2-0.1-0.2-0.2s-0.1-0.2-0.1-0.3s0-0.2,0-0.3s0.1-0.2,0.2-0.2c1.5-0.8,3.5-0.3,5,0.9
						c0.7,0.6,1.4,1.4,1.7,2.2s0.5,1.7,0.4,2.6C-555.4-534.4-555.8-533.6-556.3-533z M-581.3-550c0.4-0.2,0.8,0.8,0.9,1l0.2,0.6
						c0.3,0.9,0.6,1.8,1.3,2.5c0.5,0.6,1.4,1,2,0.4s0.3-1.3,0.4-2.1c0.2-1.4,1.8-2.8,2.8-1.3c2.3,3.2-1.2,7.8-4.5,7
						c-1.7-0.4-3-1.9-3.5-3.6v-0.1C-582.2-546.8-582.5-549.4-581.3-550z M-551.9-547.7L-551.9-547.7c-1.1-2.8,2.8-4,3.1-1.5v0.2
						c0.3,2.8-0.3,6.5-3.4,6.7c-3.4,0.3-4.8-3.9-4.5-7c0-0.5,0.7-0.6,0.8-0.1v0.1c0.5,1.6,1.1,4.5,3,4.5
						C-551.4-544.8-551.5-546.7-551.9-547.7z M-549.4-555.7c2-0.1,1.9,3.3,0,3.4c-6.5,0.2-13,0.4-19.5,0.4h-1.2
						c-6.1,0-12.2,0.1-18.3-0.4c-0.5,0-0.4-0.9,0-0.8c6.4-1,12.8-1.3,19.3-1.7C-562.5-555.2-556-555.4-549.4-555.7z"/>
				</g>
			</g>
		</g>
	</g>
</g>
</svg>
