<?xml version="1.0" encoding="utf-8"?>
<!-- Generator: Adobe Illustrator 24.2.0, SVG Export Plug-In . SVG Version: 6.00 Build 0)  -->
<svg version="1.1" id="图层_1" xmlns="http://www.w3.org/2000/svg" xmlns:xlink="http://www.w3.org/1999/xlink" x="0px" y="0px"
	 viewBox="0 0 85 85" style="enable-background:new 0 0 85 85;" xml:space="preserve">
<style type="text/css">
	.st0{fill-rule:evenodd;clip-rule:evenodd;fill:#FFFFFF;}
	.st1{fill-rule:evenodd;clip-rule:evenodd;}
	.st2{display:none;}
	.st3{display:inline;}
	.st4{fill-rule:evenodd;clip-rule:evenodd;fill:#040000;}
</style>
<g>
	<g>
		<g>
			<g>
				<g transform="matrix(0.4441,0,0,0.39775,0,0)">
					<path class="st0" d="M82.1,78.6c0,0-0.7,9.5-2.8,11.9c0,0-5.8-5-8.2-3.6c-2.4,1.3-3,5.1-5.4,5.8c-2.3,0.7-6.2-2.7-9.1,1.6
						c-2.9,4.2-0.2,7.4-0.3,7.4c0,0-15.1,3.7-23.3,45c-8.3,41.3,9.5,44.7,14,41.4l-0.2,5c0,0,61.8,5.1,80.5,1.9l11.6-57.7l-4.6-16
						l-7.1-2.2c0,0-2.9-9.8-10.5-16.1c0,0,3.4-4.9-2.6-6c-2.3-0.4-2-2.1-2.4-2.8c-0.7-1.1-1.2-1.4-1.6-2.8c-0.5-2.2-7.9-0.2-8.1,0
						c0,0,1.1-8.5,1.4-8.4C103.7,83,90.4,74.7,82.1,78.6z"/>
				</g>
				<g>
					<g transform="matrix(0.4441,0,0,0.39775,0,0)">
						<path class="st1" d="M56.5,110C56.5,110,56.5,110,56.5,110c0.1,0.2,0.2,0.6,0.3,0.9c0.1,0.3,0.3,0.6,0.4,0.7
							c0.2,0.4,0.3,0.7,0.4,1.1c0.1,0.3,0.2,0.7,0.3,1.1c0.5,1.7,0.8,3.4,1.2,5.2c0.5,2.6,1,5.3,1.4,7.9c0.1,0.3,0.3,0.6,0.6,0.5
							c0.3-0.1,0.5-0.4,0.5-0.7c-0.4-2.7-0.8-5.3-1.3-8c-0.3-1.8-0.7-3.5-1.2-5.3c-0.1-0.5-0.2-0.9-0.4-1.2
							c-0.1-0.3-0.3-0.7-0.5-1.1c-0.1-0.1-0.2-0.5-0.4-0.8c-0.2-0.3-0.4-0.5-0.6-0.7c-0.2-0.1-0.3-0.2-0.3-0.2c-0.2,0-0.4,0-0.4,0.2
							C56.3,109.6,56.3,109.8,56.5,110z M56.9,110c-0.1,0-0.2,0.1-0.3,0C56.7,110.1,56.8,110,56.9,110z"/>
					</g>
					<g transform="matrix(0.4441,0,0,0.39775,0,0)">
						<path class="st1" d="M53.1,120.8c0.2,1.6,0.4,3.1,0.8,4.7c0.8,3.5,1.9,6.9,2.4,10.5c0.1,0.4,0.4,0.7,0.8,0.6
							c0.4-0.1,0.6-0.4,0.6-0.9c-0.4-2.6-0.9-5.2-1.6-7.7c-0.3-1.3-0.7-2.5-1-3.7c-0.4-1.2-0.8-2.4-1.2-3.7c0-0.2-0.2-0.4-0.4-0.3
							C53.1,120.4,53,120.6,53.1,120.8z"/>
					</g>
					<g transform="matrix(0.4441,0,0,0.39775,0,0)">
						<path class="st1" d="M58.7,143.9c0.1,0.3-0.1,0.9-0.3,1.6c-0.3,1-0.7,2.1-0.9,2.6c-0.8,2.1-1.6,4.2-2.2,6.4
							c-0.1,0.2-0.1,0.5-0.1,0.7c-0.2,0.5,0,1.1,0.5,1.3c0.5,0.2,1,0,1.2-0.5c0.1-0.2,0.3-0.4,0.4-0.7c0.1-0.2,0.2-0.5,0.2-0.7
							c0.5-1.9,0.9-3.9,1.5-5.8c0.1-0.6,0.4-1.8,0.6-2.9c0.1-0.9,0.1-1.8-0.1-2.2c-0.1-0.2-0.3-0.3-0.5-0.3
							C58.7,143.5,58.6,143.7,58.7,143.9z"/>
					</g>
					<g transform="matrix(0.4441,0,0,0.39775,0,0)">
						<path class="st1" d="M80.6,83.6c0,0.2-0.1,0.4-0.1,0.6c-0.2,1-0.5,2.1-1,3.3c-0.6,1.3-1.3,2.5-1.9,3.4
							c-0.3,0.5-0.5,0.9-0.9,1.1c-0.4,0.2-0.6,0.7-0.4,1.2c0.2,0.5,0.7,0.7,1.1,0.5c0.4-0.1,0.9-0.4,1.4-0.8
							c0.2-0.2,0.5-0.5,0.7-0.7c1-1.3,1.9-3.2,2.5-5c0.4-1.2,0.6-2.4,0.5-3.4c0-1.1-0.3-1.9-0.8-2.5c-0.3-0.3-0.6-0.4-0.9-0.3
							c-0.1,0.1-0.3,0.1-0.4,0.4c-0.1,0.2-0.3,0.7-0.2,1.1c0.1,0.2,0.2,0.4,0.2,0.6C80.4,83.3,80.4,83.4,80.6,83.6
							C80.5,83.6,80.5,83.6,80.6,83.6z"/>
					</g>
					<g transform="matrix(0.4441,0,0,0.39775,0,0)">
						<path class="st1" d="M101.5,90.5c-0.3-0.1-0.2-0.2-0.4,0.2c-0.2,0.3-0.1,0.8-0.1,1c0,0.4-0.1,0.9-0.1,1.3c0,0.8,0,1.5,0.2,2.2
							c0.2,0.9,0.7,1.8,1.4,2.4c0.4,0.3,1,0.2,1.3-0.2c0.3-0.4,0.2-1.1-0.2-1.4c-0.4-0.3-0.5-0.8-0.6-1.3c-0.1-0.5-0.1-1.1-0.1-1.7
							c0-0.5,0-0.9,0-1.3c0-0.2,0.1-0.7-0.1-1c0-0.1,0-0.1-0.1-0.2c-0.7-0.4,0.1,0.4-0.4-0.1c-0.3-0.3-0.3-0.5-0.5-0.5
							c-0.2,0-0.4,0.2-0.3,0.4C101.5,90.4,101.5,90.5,101.5,90.5z"/>
					</g>
					<g transform="matrix(0.4441,0,0,0.39775,0,0)">
						<path class="st1" d="M105.4,95.3c0.2,0,0.3-0.1,0.4-0.2c0.1-0.2,0-0.4-0.2-0.5c-0.3-0.2-1,0.2-1.6,1.1
							c-0.8,1.1-1.6,2.8-1.8,3.2c-1.8,2.8-3.6,5.8-5.5,8.6c-1.3,1.9-2.6,3.7-4,5.4c-0.2,0.3-0.2,0.7,0,1c0.3,0.3,0.7,0.3,0.9,0
							c1.5-1.7,2.9-3.5,4.2-5.4c1.9-2.9,3.6-5.9,5.4-8.8c0.2-0.3,0.9-1.8,1.5-3c0.2-0.5,0.4-0.9,0.6-1.1
							C105.4,95.4,105.4,95.3,105.4,95.3L105.4,95.3z"/>
					</g>
					<g transform="matrix(0.516554,0,0,0.437608,-67.2129,-124.37)">
						<path class="st1" d="M193.7,368.3C193.7,368.4,193.7,368.4,193.7,368.3L193.7,368.3L193.7,368.3L193.7,368.3L193.7,368.3
							C193.7,368.3,193.8,368.3,193.7,368.3L193.7,368.3L193.7,368.3L193.7,368.3c0.1,0.1,0.1,0.2,0.2,0.2c0.5,0.6,2,1.9,2.1,2.1
							l3.9,4.3c1.4,1.6,2.8,3.3,4.1,5c1.4,1.8,2.8,3.6,4.2,5.4c0.6,0.8,1.2,1.5,1.8,2.3c0.1,0.2,0.3,0.2,0.4,0.1
							c0.1-0.1,0.2-0.4,0-0.5c-0.5-0.8-0.9-1.5-1.4-2.3c-0.7-1.1-1.5-2.2-2.3-3.2c-2-2.6-4.1-5.2-6.2-7.6l-3.9-4.3
							c-0.1-0.1-1.2-1.2-1.9-1.8c0,0,0,0,0,0c-0.1-0.2-0.5-0.4-0.6-0.4l0,0c-0.2-0.1-0.3-0.1-0.3-0.1c-0.1,0.1-0.2,0.1-0.2,0.3
							c0,0.1-0.1,0.2,0,0.2C193.6,368.2,193.7,368.3,193.7,368.3z"/>
					</g>
					<g transform="matrix(0.4441,0,0,0.39775,0,0)">
						<path class="st1" d="M111.9,98.4c0.1,0,0.1,0,0.1-0.1c0.2-0.1,0.2-0.4,0.1-0.6c-0.2-0.2-0.3,0-0.7,0c-0.3,0,0.1,0-0.3-0.1
							c-0.1,0-0.1,0-0.3,0c-0.5,0.2-1,1.3-1.3,1.6l-3.6,4c-2.5,2.9-5.3,5.5-7.7,8.5c-1,1.3-2,2.7-2.8,4.2c-0.2,0.3-0.1,0.6,0.1,0.8
							c0.2,0.2,0.6,0.1,0.7-0.1c0.8-1,1.7-2,2.5-2.9c0.6-0.6,1.2-1.3,1.8-1.9c2.2-2.4,4.6-4.6,6.9-7c1-1.1,2-2.1,3-3.2
							c0.2-0.3,0.5-0.6,0.7-0.9c0.3-0.4,1-1.2,1.1-1.8C112.1,98.5,112,98.5,111.9,98.4z"/>
					</g>
					<g transform="matrix(0.4441,0,0,0.39775,0,0)">
						<path class="st1" d="M71.7,100.4c-0.1-0.2-0.2-0.3-0.4-0.3c0,0,0.1,0,0.1,0s-0.3-0.2-0.4-0.2c-0.4-0.2-0.5,0.4-0.6,0.5
							c0,0.2,0.1,0.8,0.6,1.4c0.3,0.5,0.9,0.9,1,1l4.3,5.4c2,2.4,4,4.5,6.2,6.4c1.3,1.2,2.7,2.3,4.1,3.3c0.9,0.7,1.9,1.3,2.9,1.9
							c0.3,0.2,0.7,0.1,0.9-0.3c0.2-0.3,0.1-0.8-0.2-1c-1-0.7-1.9-1.4-2.7-2c-1.4-1.1-2.7-2.1-4-3.3c-2.1-1.9-4.1-4-6-6.3
							c-1-1.2-2-2.5-3-3.8c-0.4-0.6-0.9-1.1-1.4-1.6c-0.1-0.1-0.6-0.7-1-1C71.9,100.5,71.8,100.4,71.7,100.4z M71.4,100.3
							C71.4,100.2,71.4,100.2,71.4,100.3C71.4,100.3,71.4,100.3,71.4,100.3z"/>
					</g>
					<g transform="matrix(0.4441,0,0,0.39775,0,0)">
						<path class="st1" d="M70.1,95.7c-1.2-0.1-2.3-0.1-3.5,0.1c-1.1,0.2-2.2,0.6-3.3,1.1c-3.2,1.3-6.2,3.4-9.1,5
							c-2.5,1.4-4.6,3.4-6.4,5.8c-2.6,3.4-4.6,7.5-6.7,11.3c-3.5,6.5-6.3,13.9-8,21.7c-1.7,7.8-2.4,15.8-1.7,23.4
							c0.5,5.2,0.9,10.3,2.6,14.9c1.1,3.1,2.7,6,5.2,8.5c0.3,0.3,0.7,0.3,0.9,0c0.3-0.3,0.2-0.8,0-1.1c-2.2-2.4-3.6-5.2-4.6-8.1
							c-1.5-4.5-2.1-9.5-2.5-14.5c-0.7-7.4-0.1-15.3,1.6-22.8c1.6-7.6,4.3-14.9,7.8-21.3c2-3.7,4-7.8,6.5-11.2
							c1.7-2.2,3.6-4.2,5.9-5.5c2.8-1.6,5.8-3.6,8.9-5c1-0.5,2.1-0.8,3.1-1.1c1.1-0.3,2.1-0.5,3.2-0.5c0.2,0,0.4-0.2,0.4-0.4
							C70.4,95.9,70.3,95.7,70.1,95.7z"/>
					</g>
					<g transform="matrix(0.4441,0,0,0.39775,-2.51501,1.39914)">
						<path class="st1" d="M46.4,185.7c0.7,0.5,1.6,0.7,2.6,0.6c0.5-0.1,1.1-0.2,1.7-0.4c3.1-1.1,6.7-3.9,8.4-4.8
							c2.3-1.2,4.4-2.5,6.5-3.9c4.9-3.3,9.5-7.1,14.3-10.6c2.4-1.7,5.4-3.7,8.1-5.8c1.9-1.5,3.7-3,5.1-4.6c0.2-0.3,0.2-0.7,0-0.9
							c-0.2-0.3-0.6-0.3-0.8,0c-1.3,1.5-3.1,2.9-5,4.3c-2.8,2-5.8,3.9-8.2,5.6c-4.8,3.4-9.4,7.3-14.2,10.6c-2.1,1.4-4.2,2.8-6.3,3.9
							c-1.7,0.9-5.2,3.8-8.2,5c-0.5,0.2-1,0.3-1.5,0.4c-0.8,0.2-1.5,0.2-2.1-0.1c-0.2-0.1-0.4,0-0.5,0.2
							C46.2,185.3,46.2,185.6,46.4,185.7z"/>
					</g>
					<g transform="matrix(0.4441,0,0,0.39775,-2.51501,1.39914)">
						<path class="st1" d="M45.3,163C45.3,163,45.3,163,45.3,163c0-0.1,0-0.2-0.1-0.2c0.1-0.3,0.4-0.8,0.5-0.9
							c0.4-0.4,0.8-0.8,1.2-1.1c0.4-0.3,0.8-0.5,1.4-0.8c1-0.5,2.1-1,3.1-1.5c2.3-1.2,4.7-2.6,7-3.7c4.6-2.2,9.4-4.5,14.2-6.5
							c3.2-1.4,6.4-2.6,9.6-3.7c1.9-0.7,3.8-1.1,5.7-1.8c0.8-0.3,1.6-0.6,2.4-1c0.2-0.1,0.4-0.4,0.3-0.7c-0.1-0.3-0.4-0.4-0.6-0.3
							l-8.1,2.3c-3.2,1.1-6.5,2.4-9.7,3.7c-4.8,2-9.6,4.3-14.2,6.5c-1,0.5-2,1-3.1,1.6c-2.3,1.3-4.6,2.7-6.9,4c-0.6,0.3-1,0.6-1.5,1
							c-0.4,0.4-0.9,0.8-1.3,1.3c-0.3,0.3-0.6,1.3-0.6,1.6c0,0.2,0,0.4,0.1,0.4c0.1,0.2,0.4,0.4,0.7,0
							C45.3,163.2,45.3,163.1,45.3,163z M45.2,162.8c0,0.1,0,0.2,0,0.2c0,0,0,0,0,0l0,0l0,0C45.3,162.9,45.3,162.8,45.2,162.8z
							 M45,162.6c-0.1-0.1-0.2-0.1-0.4,0.1C44.8,162.6,44.9,162.5,45,162.6z"/>
					</g>
					<g transform="matrix(0.4441,0,0,0.39775,0,0)">
						<path class="st1" d="M47.7,186.9c-0.7,0-1.2,0.7-1.6,1.6c-0.2,0.5-0.3,1-0.4,1.6c0,0.3-0.1,0.6,0,0.9c0,0.2,0.1,0.4,0.1,0.6
							c0,0.4,0.2,0.7,0.6,0.8c0.3,0,0.7-0.3,0.7-0.6c0-0.2,0.1-0.3,0.1-0.5c0.1-0.3,0.1-0.7,0.1-1.1c0-0.5,0.1-1,0.2-1.5
							c0.1-0.4,0.1-0.7,0.4-0.9c0.2-0.1,0.3-0.3,0.3-0.5C48.1,186.9,47.9,186.8,47.7,186.9z"/>
					</g>
					<g transform="matrix(0.4441,0,0,0.39775,1.90496,0.331714)">
						<path class="st1" d="M114.5,115.2c0.2,0.1,0.4-0.1,0.4-0.3c0.1-0.2,0-0.4-0.2-0.5c-0.5-0.3-0.8-0.1-1.1,0.4
							c-0.1,0.2-0.2,0.5-0.2,0.7c0,0.3,0,0.6,0,0.9c-0.1,0.3,0.1,0.5,0.3,0.6c0.2,0.1,0.5-0.1,0.5-0.4c0.1-0.3-0.1-1.2,0.2-1.1
							C114.8,115.6,114.7,115.3,114.5,115.2z"/>
					</g>
					<g transform="matrix(0.4441,0,0,0.39775,1.90496,0.331714)">
						<path class="st1" d="M116.3,124.3L116.3,124.3C116.3,124.3,116.3,124.3,116.3,124.3c0.2-0.2,0.3-0.4,0.2-0.6
							c-0.1-0.3-0.3-0.3-0.7-0.1c-0.1,0.1-0.3,0.4-0.6,0.9c-0.1,0.2-0.3,0.5-0.4,0.8c-0.5,1.2-1,2.8-1.1,3.1
							c-0.7,1.9-1.4,3.8-2.1,5.8c-0.4,1.3-0.8,2.7-1.1,4.1c-0.1,0.4,0.1,0.7,0.4,0.8c0.3,0.1,0.7-0.1,0.7-0.5c0.2-1,0.5-1.9,0.8-2.9
							c0.7-2.3,1.6-4.5,2.4-6.8c0.1-0.4,0.6-1.9,1-3.1c0.1-0.5,0.2-1,0.3-1.3C116.2,124.4,116.2,124.4,116.3,124.3z M115.9,124.3
							c0,0,0.1,0,0.1,0C116,124.3,116,124.3,115.9,124.3z M116.3,124.3C116.3,124.3,116.3,124.2,116.3,124.3
							C116.3,124.2,116.3,124.3,116.3,124.3L116.3,124.3L116.3,124.3L116.3,124.3L116.3,124.3z"/>
					</g>
					<g transform="matrix(0.4441,0,0,0.39775,1.90496,0.331714)">
						<path class="st1" d="M113.7,136.4c-0.1,0.7-0.2,1.8-0.3,2.9c-0.2,2.2-0.3,4.5-0.2,5.1c0.1,0.3,0.4,0.5,0.7,0.5
							c0.3-0.1,0.5-0.4,0.4-0.7c-0.1-0.6,0.1-2.8,0.3-4.8c0.1-1.4,0.1-2.7,0.1-3.4c0-0.4-0.1-0.6-0.2-0.7c-0.2-0.2-0.3-0.2-0.5-0.1
							c-0.1,0.1-0.2,0.2-0.3,0.6C113.5,136.1,113.6,136.3,113.7,136.4z M114.3,136c0.1,0,0.1-0.1,0.1-0.1
							C114.4,135.9,114.3,135.9,114.3,136z"/>
					</g>
					<g transform="matrix(0.4441,0,0,0.39775,0,0)">
						<path class="st1" d="M129,124.4c0.1-0.1,0.1-0.2,0.1-0.3c0-0.2-0.1-0.4-0.3-0.4c-0.3-0.1-0.7,0.4-0.6,1.2
							c0.1,0.9,0.5,2.4,0.6,3.2c0.1,0.3,0.3,0.5,0.6,0.5c0.3-0.1,0.5-0.4,0.4-0.7c-0.1-0.7-0.4-1.7-0.6-2.5
							C129.1,125,129,124.6,129,124.4L129,124.4z"/>
					</g>
					<g transform="matrix(0.4441,0,0,0.39775,-2.51501,1.39914)">
						<path class="st1" d="M90,142.1c0,0,0.1,0,0.1,0c0.2,0,0.3-0.2,0.3-0.4c0-0.5-0.3-0.7-0.4-0.8c-0.1,0-0.3,0-0.5,0.3
							c-0.3,0.4-0.8,1.7-1.1,2.9c-0.3,1-0.4,1.8-0.4,2.1c-0.2,2,0.2,4.8,1.1,7c0.7,1.7,1.7,3,3,3.7c0.4,0.2,0.8,0,1-0.4
							c0.2-0.4,0-0.9-0.4-1.1c-1.3-0.6-2.1-2.2-2.6-3.8c-0.6-1.8-0.8-3.7-0.7-5.2c0-0.2,0.2-1.3,0.4-2.3
							C89.9,143.3,90,142.5,90,142.1z M90.1,141.8c0.1,0,0.2,0,0.1-0.1C90.2,141.7,90.2,141.7,90.1,141.8z M89.8,141.7
							c0-0.1,0-0.1,0-0.1C89.6,141.6,89.7,141.7,89.8,141.7z"/>
					</g>
					<g transform="matrix(0.4441,0,0,0.39775,0,0)">
						<path class="st1" d="M78.8,89.9c-1.2-0.8-2.3-2-3.5-2.9c-0.9-0.6-1.9-1-3-1.1c-1.3-0.1-2.2,0.4-2.9,1.1
							c-0.6,0.6-1.1,1.5-1.6,2.3c-0.6,0.9-1.2,1.9-2.4,2.3c-0.9,0.4-1.9,0.1-2.9-0.2c-1.2-0.3-2.4-0.5-3.7-0.1
							c-1.2,0.4-2.4,1.4-3.6,3.7c-0.6,1.1-0.9,1.9-1,2.8c-0.1,0.9,0.2,1.8,0.8,2.9c0.2,0.4,0.6,0.5,0.9,0.3c0.3-0.2,0.4-0.7,0.3-1.1
							c-0.4-0.8-0.5-1.4-0.5-2c0.1-0.6,0.4-1.2,0.8-2.1c0.9-1.8,1.8-2.6,2.7-2.9c1.2-0.4,2.4,0,3.6,0.3c1.1,0.2,2.1,0.3,3-0.1
							c1.3-0.5,2.1-1.4,2.7-2.4c0.6-0.9,1.1-1.9,1.7-2.7c0.5-0.5,1.1-0.8,2-0.8c0.9,0,1.7,0.3,2.5,0.7c1.3,0.8,2.5,1.9,3.7,2.5
							c0.2,0.1,0.4,0,0.5-0.2C79,90.3,79,90,78.8,89.9z"/>
					</g>
					<g transform="matrix(0.4441,0,0,0.39775,0,0)">
						<path class="st1" d="M112.7,100.9c0.7,0.5,1.7,1.3,2.5,2.1c0.9,0.8,1.7,1.5,1.9,1.6c1.8,1.6,3.6,3.6,5.1,5.8
							c1.1,1.5,2,3.2,2.8,4.8c0.4,0.7,0.7,1.4,1,2.2c0.2,0.5,0.6,0.7,1,0.5c0.4-0.2,0.6-0.7,0.4-1.2c-0.3-0.8-0.5-1.6-0.9-2.4
							c-0.8-1.8-1.8-3.5-2.9-5.1c-1.6-2.4-3.5-4.5-5.4-6.1c-0.3-0.2-2.9-2.3-4.5-3.3c-0.3-0.2-0.6-0.3-0.8-0.4
							c-0.5-0.2-0.8-0.2-0.9-0.1c-0.3,0.2-0.5,0.4-0.5,0.6c0,0.2,0,0.4,0.2,0.6C111.8,100.6,112.3,100.8,112.7,100.9z M112.1,100.4
							C112.1,100.4,112.1,100.4,112.1,100.4C112,100.4,112.1,100.4,112.1,100.4z"/>
					</g>
					<g transform="matrix(1.59228,0.118366,-0.044473,0.479895,-1212.35,-411.464)">
						<path class="st1" d="M818.2,762.5c0.1,0,0.1-0.2,0.1-0.3c0-0.4,0-0.7,0-0.8c0-0.1,0-0.2-0.1-0.2c0-0.2-0.1-0.1-0.2,0.1
							c0,0.1-0.1,0.3-0.1,0.6c-0.1,0.5-0.2,1.2-0.2,2.1c-0.1,1.4-0.2,3-0.2,3c-0.2,2-0.5,3.9-0.7,5.9c-0.1,0.9-0.2,1.8-0.2,2.7
							c0,0.4,0,0.8,0.2,0.9c0.1,0.1,0.2-0.1,0.3-0.5c0-0.6,0.1-1.1,0.2-1.7c0.2-2.2,0.5-4.5,0.8-6.7c0,0,0.1-1.7,0.2-3.2
							C818.2,763.5,818.2,763,818.2,762.5z M818.3,761.8C818.3,761.8,818.3,761.8,818.3,761.8C818.3,761.8,818.3,761.8,818.3,761.8z
							"/>
					</g>
					<g transform="matrix(0.431534,0.0992139,-0.127618,0.445261,429.975,-278.114)">
						<path class="st1" d="M-606.5,873.7c0.1,0.1,0.1,0.1,0.2,0.2c0.5,0.2,1.1,0.2,1.7,0.4c0.6,0.2,1.2,0.6,1.8,0.9
							c0.3,0.2,0.7,0.1,0.9-0.2c0.2-0.3,0.1-0.7-0.2-0.9c-0.7-0.4-1.6-0.9-2.5-1.1c-0.5-0.1-1-0.2-1.5-0.2c-0.1,0-0.1,0-0.2,0
							c-0.1,0-0.1,0.1-0.2,0.2c-0.2,0-0.3,0.2-0.3,0.4C-606.9,873.6-606.7,873.7-606.5,873.7z"/>
					</g>
					<g transform="matrix(0.455641,-0.0342014,0.0335304,0.358324,-116.582,161.102)">
						<path class="st1" d="M378.5-312c0,0.1,0.1,0.1,0.2,0.2c0.1,0,0.1,0.1,0.2,0.1c0.3,0.1,1,0.1,2,0c0.7,0,1.4,0,2.1,0.2
							c0.7,0.1,1.4,0.3,2,0.6c0.6,0.3,1,0.6,1.2,1c0.4,0.7,0.3,1.5,0.3,2.3c0.1,1.2,0.3,2.4,1.3,3.3c0.9,0.9,1.9,0.7,2.8,1.4
							c0.2,0.2,0.4,0.4,0.6,0.8c0.2,0.3,0.3,0.8,0.3,1.4c0,0.5,0.1,1-0.1,1.3c-0.3,0.5-0.2,1.1,0.2,1.4c0.4,0.3,0.9,0.2,1.1-0.3
							c0.4-0.6,0.6-1.6,0.5-2.7c0-1-0.3-1.9-0.5-2.5c-0.4-0.7-0.8-1.2-1.2-1.5c-0.4-0.3-0.9-0.5-1.4-0.6c-0.5-0.1-0.9-0.2-1.4-0.6
							c-0.7-0.6-0.6-1.5-0.7-2.3c-0.1-1-0.2-1.9-0.7-2.7c-0.4-0.7-1-1.3-2.1-1.6c-0.7-0.3-1.5-0.5-2.3-0.5c-0.8-0.1-1.6-0.1-2.3,0
							c-1,0.2-1.6,0.2-1.9,0.2c-0.1,0-0.1,0.1-0.2,0.1c-0.8,0.3-0.5,0.9-0.4,0.9C378.4-312,378.4-312,378.5-312z"/>
					</g>
					<g transform="matrix(0.4441,0,0,0.39775,0,0)">
						<path class="st1" d="M139.3,137.3c0.2,0,0.3-0.1,0.4-0.4c0-0.2-0.1-0.4-0.3-0.4c-0.2-0.2-0.5-0.1-0.8,0.3
							c-0.1,0.1-0.2,0.3-0.2,0.5c-0.4,1-0.7,3-0.9,3.4c-0.1,0.3,0,0.7,0.3,0.8c0.3,0.1,0.6,0,0.7-0.3c0.2-0.5,0.8-2.8,1.1-3.7
							c0,0-0.1-0.1,0-0.1c0,0,0-0.1,0,0C139.4,137.4,139.3,137.3,139.3,137.3z"/>
					</g>
				</g>
			</g>
			<g transform="matrix(1,0,0,1,-9.79159,1.24332)">
				<g transform="matrix(0.4441,0,0,0.39775,0,0)">
					<path class="st0" d="M107.5,163.4c0,0,0.9-11.5,11.9-19.4c0.1,0.7,6.8-34,30.2-30.3c21.5,3.4,17.6,33.3,19.5,31.9
						c0,0,9.6,5.6,12.4,11.3c0,0,1.4,4.5-11.6,13.6c0,0-3,20-3.6,20.6c-0.5,0.6-19.7,10.1-47.5,0.5c0,0-6.9-33-6.8-33.2
						C112.2,158.4,107.6,163.3,107.5,163.4z M126.1,140.6c0,0,5.8-22.1,20.2-21.6c14.5,0.5,17,20,17.1,20.1l-2.4-1.9
						C161.1,137.2,141,144.7,126.1,140.6z"/>
				</g>
				<g>
					<g transform="matrix(0.4441,0,0,0.39775,0,0)">
						<path class="st1" d="M108.2,163.7c0,0,0,0.1,0,0.1c0,0,0,0.1,0,0.1c0,0,0,0,0,0c0,0,0,0,0,0c0,0,0,0,0,0l3.2-4.1
							c1-1.3,2.9-2.9,4.9-3.9c0.8-0.4,1.5-0.7,2.3-0.9c1.3-0.4,2.5-0.6,3.6-0.2c0.4,0.2,0.8,0.7,1.2,1.3c0.3,0.4,0.6,0.8,0.9,1.3
							c1.3,1.9,2.6,4.3,3.3,5.3c2.8,4.4,5.1,9.2,7.8,13.6c1.2,1.9,2.5,3.7,4,5.4c0.2,0.2,0.5,0.2,0.7,0c0.2-0.2,0.2-0.6,0-0.8
							c-1.4-1.7-2.6-3.6-3.8-5.4c-2.8-4.4-5.3-9.1-8.2-13.4c-0.7-1.1-2.2-3.9-3.7-5.7c-0.8-1-1.6-1.7-2.2-2
							c-1.2-0.7-2.7-0.9-4.2-0.6c-0.3,0.1-0.7,0.2-1,0.3c-2.7,1-5.3,3.1-6.6,4.8c-0.6,0.8-1.3,1.7-1.9,2.5c-0.4,0.6-0.8,1.3-1.1,1.9
							c-0.1,0.2-0.1,0.3-0.1,0.4c0,0.2,0,0.2,0,0.3c0.2,0.1,0.1,0.4,0.3,0.3c0.1,0,0.1,0.1,0.2,0c0,0,0.3,0,0.3-0.3
							C108.1,164,108.2,163.9,108.2,163.7z M108.1,163.4C108.1,163.4,108.1,163.5,108.1,163.4C108.1,163.5,108.1,163.5,108.1,163.4
							C108.1,163.4,108.1,163.4,108.1,163.4z M107.8,163.3L107.8,163.3c-0.1-0.1-0.1,0-0.2,0c0,0-0.1,0.1-0.1,0c0,0,0,0.1,0,0.1
							s0,0,0.1,0C107.7,163.4,107.7,163.3,107.8,163.3z"/>
					</g>
					<g transform="matrix(0.4441,0,0,0.39775,0,0)">
						<path class="st1" d="M140.3,181.4L140.3,181.4L140.3,181.4L140.3,181.4c0-0.1,0-0.1,0-0.1l0,0c0-0.2-0.2-0.3-0.3-0.3
							c-0.2,0-0.4,0.2-0.4,0.4c0,0.2,0.1,0.5,0.4,0.7c0.3,0.1,0.8,0.2,1.4,0.3c2.1,0.2,5.8-0.2,6.4-0.2l2.9-0.3l1.6-0.5
							c2.6-1,6.3-2.7,10.2-4.9c3.2-1.8,6.5-4,9.5-6.4c4.8-3.7,8.9-7.9,10.6-11.7c0.2-0.4,0-0.8-0.3-1c-0.3-0.2-0.7,0-0.9,0.3
							c-1.7,3.7-5.6,7.5-10.2,11c-3,2.3-6.3,4.4-9.4,6.3c-3.8,2.3-7.3,4.1-9.9,5.1l-1.4,0.5l-2.8,0.4c-0.4,0-2.2,0.3-3.9,0.4
							c-0.7,0.1-1.4,0.1-2,0.1C141.2,181.4,140.5,181.5,140.3,181.4z M140.3,181.2C140.3,181.2,140.3,181.2,140.3,181.2
							c-0.1,0.1,0,0.1,0,0.1v0L140.3,181.2L140.3,181.2L140.3,181.2z"/>
					</g>
					<g transform="matrix(0.4441,0,0,0.39775,0,0)">
						<path class="st1" d="M160.9,137.7C160.9,137.7,161,137.8,160.9,137.7c1.3,0.9,3.6,4.4,3.9,4.9l1,1.6c0.4,0.6,1.1,1.1,1.9,1.7
							c1.9,1.3,4.8,2.7,7.4,4.8c0.8,0.6,1.4,1.2,2,1.8c1.5,1.5,2.7,3.2,4.7,4.9c0.2,0.2,0.6,0.2,0.8-0.1c0.2-0.3,0.2-0.6-0.1-0.9
							c-1.8-1.8-3-3.5-4.4-5.1c-0.6-0.7-1.3-1.4-2.1-2.1c-2.6-2.1-5.5-3.6-7.5-4.9c-0.6-0.4-1.2-0.9-1.5-1.3l-1.1-1.4
							c-0.3-0.4-2.4-3.2-3.7-4.4c-0.5-0.4-0.9-0.7-1.1-0.8c-0.3-0.1-0.6,0-0.7,0.2c-0.3,0.3-0.7,0.5-1.1,0.6
							c-1.1,0.4-2.5,0.5-3.4,0.8c-3.6,1.2-6.5,1.9-9.5,2.3c-3,0.4-6,0.5-9.7,0.6c-0.7,0-1.4,0-2.2,0.1c-1.7,0.1-3.6,0.2-5.1,0.3
							c-0.2,0-0.4,0.2-0.4,0.4c0,0.2,0.2,0.4,0.4,0.4l7.3,0.1c3.8,0,6.9-0.1,9.9-0.5c3-0.4,6-1.2,9.7-2.4c0.9-0.3,2.3-0.4,3.4-0.8
							C160.1,138.3,160.6,138.1,160.9,137.7z"/>
					</g>
					<g transform="matrix(0.4441,0,0,0.39775,0,0)">
						<path class="st1" d="M127.8,140.5c-0.7-0.3-1.5-0.3-2.4-0.1c-1.7,0.4-3.6,1.6-4.8,2.3c-2.5,1.3-4.8,3.5-6.9,6
							c-2,2.5-3.7,5.3-5,7.9c-0.5,1.1-1.2,2.3-1.6,3.6c-0.3,0.9-0.5,1.8-0.5,2.8c0,0.3,0.2,0.6,0.5,0.6c0.3,0,0.5-0.3,0.5-0.6
							c0-0.8,0.2-1.5,0.5-2.3c0.4-1.2,1.1-2.3,1.6-3.3c1.2-2.5,2.9-5.2,4.8-7.6c1.9-2.4,4.1-4.5,6.4-5.7c1-0.6,2.5-1.5,3.9-2.1
							c0.4-0.2,0.9-0.3,1.3-0.4c0.5-0.1,0.9-0.2,1.3-0.1c0.2,0.1,0.4,0,0.5-0.3C128.1,140.8,128,140.6,127.8,140.5z"/>
					</g>
				</g>
				<g>
					<g transform="matrix(0.4441,0,0,0.39775,0,0)">
						<path class="st1" d="M109.8,155.9c0,0-0.1,0-0.1,0c-0.2,0.1-0.2,0.3,0.2,0.3l0,0l0,0c0,0,0.1,0,0.1,0c0.1,0,0.1,0,0.2,0
							c0.2,0,0.5-0.1,0.8-0.2c0.3-0.1,0.7-0.3,0.8-0.3c0.8-0.5,1.6-1,2.5-1.4c0.3-0.2,0.7-0.3,1.1-0.4c2.3-0.7,5-1.5,7.6-1.5
							c1.7,0.1,3.3,0.5,4.7,1.6c0.5,0.4,1,1,1.5,1.6c1.1,1.5,1.9,3.2,2.8,4.6c0.9,1.3,1.7,2.7,2.5,4.1c1.8,3.3,3.4,6.9,5.4,10.1
							c0.2,0.3,0.4,0.7,0.6,1c0.9,1.2,1.8,2.4,2.6,3.7c0.1,0.2,0.6,1.2,0.9,1.6c0.1,0.1,0.1,0.1,0.2,0.2c0.2,0.1,0.3,0.2,0.5,0.2
							c0.2,0,0.3-0.2,0.3-0.4c0-0.2-0.1-0.3-0.3-0.4c0,0,0,0,0,0s0,0,0,0c-0.1-0.2-0.3-0.5-0.4-0.8c-0.2-0.4-0.4-0.8-0.5-1
							c-0.8-1.3-1.8-2.5-2.7-3.7c-0.2-0.3-0.4-0.6-0.6-0.9c-2-3.2-3.5-6.7-5.4-10.1c-0.8-1.5-1.6-2.9-2.5-4.2
							c-0.9-1.4-1.8-3.2-2.9-4.6c-0.5-0.7-1-1.3-1.6-1.8c-1.6-1.2-3.3-1.7-5.2-1.8c-2.6-0.1-5.4,0.7-7.8,1.5c-0.5,0.2-1,0.4-1.5,0.7
							c-0.7,0.4-1.4,0.9-2.1,1.3c-0.1,0.1-0.4,0.2-0.7,0.3c-0.3,0.1-0.5,0.3-0.7,0.4C109.9,155.8,109.9,155.8,109.8,155.9
							C109.8,155.9,109.8,155.9,109.8,155.9z M109.8,156.2L109.8,156.2L109.8,156.2L109.8,156.2z"/>
					</g>
					<g transform="matrix(0.4441,0,0,0.39775,0,0)">
						<path class="st1" d="M112.4,151.5C112.4,151.5,112.4,151.6,112.4,151.5C112.4,151.6,112.4,151.6,112.4,151.5
							C112.4,151.6,112.4,151.6,112.4,151.5c0,0,0.1,0,0.1,0c0.4-0.1,1.2-0.5,1.4-0.6c0.9-0.2,1.7-0.4,2.6-0.5
							c0.6-0.1,1.2-0.2,1.7-0.3c2.7-0.4,4.5-1.1,6.4-0.9c1.2,0.1,2.4,0.5,4,1.4c0.4,0.2,0.9,0.4,1.4,0.7c0.2,0.1,0.3,0.2,0.4,0.3
							c1.4,1.4,2.8,2.6,4.1,4c0.6,0.6,1.1,1.2,1.7,1.8c0.2,0.3,0.4,0.6,0.5,0.9c0.4,0.8,0.6,1.8,1.2,2.6c1.4,2.1,2.7,4.3,4,6.5
							c1.3,2.2,2.6,4.4,3.8,6.7c0.7,1.3,1.6,2.6,2.3,3.9c0.3,0.6,0.6,1.1,0.9,1.7c0.1,0.3,0.4,1.1,0.7,1.6c0.1,0.1,0.1,0.2,0.2,0.2
							c0.2,0.2,0.4,0.3,0.7,0.3c0.2,0,0.3-0.1,0.3-0.3c0-0.2-0.1-0.3-0.3-0.3c-0.1,0,0-0.1-0.1-0.2c-0.1-0.1-0.2-0.3-0.3-0.5
							c-0.2-0.4-0.3-0.9-0.4-1.1c-0.3-0.6-0.6-1.2-0.9-1.8c-0.7-1.3-1.6-2.6-2.3-4c-1.2-2.3-2.5-4.5-3.8-6.7c-1.3-2.2-2.7-4.4-4-6.5
							c-0.5-0.7-0.7-1.7-1.1-2.5c-0.2-0.4-0.4-0.8-0.7-1.1c-0.6-0.6-1.1-1.2-1.7-1.8c-1.4-1.4-2.8-2.6-4.2-4
							c-0.2-0.2-0.4-0.3-0.6-0.5c-0.4-0.3-1-0.4-1.4-0.7c-1.7-0.9-3-1.3-4.3-1.4c-2-0.1-3.7,0.6-6.5,1c-0.7,0.1-1.5,0.3-2.2,0.4
							c-0.7,0.2-1.5,0.3-2.2,0.5c-0.2,0.1-1.2,0.4-1.5,0.7c-0.1,0.1-0.2,0.2-0.2,0.2c0,0.2-0.1,0.3,0,0.3c0,0,0,0,0.1,0
							C112.3,151.6,112.4,151.6,112.4,151.5z M112.4,151.5L112.4,151.5C112.4,151.5,112.4,151.5,112.4,151.5L112.4,151.5
							C112.4,151.5,112.4,151.5,112.4,151.5z M112.4,151.4C112.4,151.4,112.5,151.4,112.4,151.4
							C112.5,151.4,112.5,151.4,112.4,151.4z"/>
					</g>
					<g transform="matrix(0.4441,0,0,0.39775,0,0)">
						<path class="st1" d="M117.4,147.1c0.1,0,0.2,0,0.2,0l1.1-0.3c0.5-0.1,1-0.2,1.4-0.2c0.7,0,1.5,0,2.2,0c2.6,0,4.9-0.5,7.1-0.2
							c1.4,0.2,2.7,0.8,4.1,2c0.7,0.7,1.7,1.3,2.5,1.9c0.3,0.3,0.7,0.6,0.9,0.9c1.1,1.4,2.2,2.7,3.3,4.1c0.7,0.9,1.4,1.9,2.1,2.8
							c1.5,2.1,2.6,4.5,3.9,6.7c0.4,0.6,0.7,1.1,1.1,1.6c1,1.4,2.4,2.7,3.5,4.1c0.5,0.6,0.9,1.2,1.3,1.8c0.7,1.1,1.3,2.2,2,3.3
							c0.5,0.7,1,1.4,1.6,2.1c0.1,0.2,0.4,0.2,0.5,0c0.1-0.2,0.1-0.4,0-0.6c-0.5-0.6-1-1.3-1.5-2c-0.7-1.1-1.4-2.2-2-3.3
							c-0.4-0.7-0.9-1.3-1.4-1.9c-1.1-1.4-2.5-2.7-3.5-4.1c-0.4-0.5-0.7-1-1.1-1.6c-1.4-2.2-2.5-4.7-4-6.7c-0.7-1-1.4-1.9-2.1-2.9
							c-1.1-1.4-2.2-2.8-3.3-4.2c-0.3-0.4-0.7-0.7-1-1c-0.8-0.7-1.8-1.2-2.5-1.9c-1.5-1.4-3-2-4.5-2.2c-2.3-0.3-4.6,0.3-7.2,0.3
							c-0.8,0-1.5,0-2.3,0.1c-0.5,0-1,0.1-1.5,0.3l-1.1,0.5c-0.1,0-0.5,0.1-0.6,0.1c-0.1,0-0.1,0.1-0.1,0.1c0,0-0.1,0.4,0.2,0.3
							L117.4,147.1C117.3,147.1,117.3,147.1,117.4,147.1z"/>
					</g>
					<g transform="matrix(0.4441,0,0,0.39775,0,0)">
						<path class="st1" d="M127.1,141.4c0,0-0.1-0.1-0.1-0.1c-0.1,0-0.2,0-0.3,0c-0.1,0-0.1,0.1-0.1,0.1c0,0.1,0,0.2,0.1,0.2
							c0.1,0,0.9,0.2,1,0.2c0.6,0.1,1.2,0.3,1.8,0.5c0.6,0.2,1.2,0.5,1.7,0.8c2,1,4.4,1.8,6.4,2.9c0.9,0.5,1.7,1,2.4,1.7
							c1.7,1.7,3.5,3.5,5.1,5.4c1.7,1.9,3.2,3.9,4.6,5.9c0.5,0.8,1.2,1.3,1.8,2c0.1,0.2,0.3,0.3,0.4,0.5c2.2,3.4,4,7.1,6,10.6
							c0.4,0.6,0.7,1.3,1.1,1.8c0.2,0.3,0.4,0.5,0.6,0.7c0.1,0.1,0.2,0.1,0.3,0.1c0.1-0.1,0.1-0.2,0.1-0.3c-0.1-0.2-0.2-0.5-0.3-0.7
							c-0.2-0.3-0.3-0.7-0.5-1c-1.1-2.1-2.3-4.3-3.5-6.5c-1-1.8-2-3.6-3.1-5.3c-0.1-0.2-0.3-0.4-0.4-0.6c-0.6-0.7-1.3-1.2-1.8-2
							c-1.4-2.1-3-4.1-4.7-6c-1.7-1.9-3.5-3.7-5.2-5.4c-0.8-0.7-1.7-1.3-2.6-1.8c-2.1-1.1-4.5-1.8-6.5-2.8c-0.7-0.3-1.4-0.7-2.2-0.9
							c-0.5-0.2-1-0.3-1.5-0.3C127.7,141.5,127.4,141.5,127.1,141.4z"/>
					</g>
					<g transform="matrix(0.4441,0,0,0.39775,0,0)">
						<path class="st1" d="M163.2,173.6C163.1,173.6,163.1,173.6,163.2,173.6C163.1,173.6,163.2,173.6,163.2,173.6
							C163.2,173.6,163.2,173.6,163.2,173.6C163.2,173.6,163.2,173.6,163.2,173.6c-0.2,0-0.3,0.2-0.3,0.4c0,0.2,0.1,0.3,0.3,0.3
							c0.5,0.1,0.7-0.3,0.7-0.8c0-0.3-0.1-0.8-0.3-1.2c-0.2-0.6-0.6-1.3-0.7-1.5c-0.5-1.1-0.9-2.2-1.4-3.1c-0.5-1-1.1-1.9-1.8-2.9
							c-0.5-0.6-1-1.1-1.6-1.6c-0.2-0.2-0.4-0.4-0.6-0.7c-0.5-0.8-0.9-1.7-1.3-2.5c-0.1-0.2-0.2-0.4-0.4-0.6
							c-1.3-1.9-2.8-3.7-4.1-5.6c-0.3-0.5-0.7-0.9-1-1.4c-0.7-1-1.4-2.2-2.2-3.2c-0.5-0.7-1.1-1.4-1.7-1.9c-0.8-0.7-1.7-1.5-2.7-2.1
							c-0.9-0.7-1.9-1.3-2.8-1.8c-0.7-0.4-1.5-0.6-2-0.9c-0.2-0.2-0.4-0.4-0.5-0.7c0-0.1-0.1-0.2-0.2-0.1c-0.1,0-0.1,0.1-0.1,0.2
							c0.1,0.4,0.3,0.7,0.6,1c0.5,0.4,1.4,0.7,2,1.1c0.9,0.6,1.9,1.2,2.8,1.9c0.9,0.7,1.8,1.4,2.6,2.1c0.6,0.5,1.1,1.2,1.6,1.8
							c0.8,1,1.5,2.2,2.1,3.2c0.3,0.5,0.6,1,1,1.5c1.3,1.9,2.8,3.6,4.1,5.6c0.1,0.2,0.2,0.4,0.3,0.6c0.5,0.8,0.8,1.7,1.3,2.5
							c0.2,0.3,0.4,0.6,0.6,0.8c0.5,0.5,1.1,1,1.5,1.6c0.7,1,1.3,1.9,1.8,2.8c0.5,1,0.9,2,1.4,3.1c0.1,0.3,0.6,1.1,0.8,1.8
							c0,0.1,0.1,0.2,0.1,0.4c0,0.1,0,0.1,0,0.1C163.1,173.5,163.2,173.5,163.2,173.6z"/>
					</g>
					<g transform="matrix(0.4441,0,0,0.39775,0,0)">
						<path class="st1" d="M143.8,141.3c0.1,0.3,0.5,0.6,0.8,0.8c0.7,0.3,1.6,0.5,2.2,0.8c1,0.5,2.1,1.2,3.1,2.1
							c1,0.8,2,1.7,2.8,2.6c0.9,0.9,2.4,2.5,3.8,4.1c1,1.1,1.8,2.2,2.2,2.9c0.6,1.3,1.4,2.4,2.1,3.6c0.2,0.3,0.3,0.6,0.5,0.9
							c0.4,0.9,0.7,1.7,1.1,2.5c0.3,0.6,0.6,1.1,0.9,1.6c0.2,0.3,0.3,0.5,0.5,0.8c0.6,1.1,1.1,2.3,1.9,3.4c0.3,0.5,0.9,1.2,1.3,1.9
							c0.1,0.1,0.2,0.3,0.2,0.4c0.1,0.1,0.1,0.3,0.2,0.4c0,0.1,0.1,0.2,0.2,0.2c0.1,0,0.2-0.1,0.2-0.2c0-0.2,0-0.4,0-0.6
							c0-0.2-0.1-0.4-0.2-0.5c-0.3-0.7-1-1.5-1.3-2c-0.6-0.9-1-2-1.6-3c-0.2-0.4-0.5-0.9-0.8-1.3c-0.3-0.5-0.6-1-0.9-1.5
							c-0.4-0.8-0.7-1.6-1.2-2.5c-0.2-0.3-0.3-0.6-0.5-1c-0.7-1.2-1.5-2.3-2.1-3.5c-0.3-0.6-0.9-1.5-1.7-2.4
							c-1.5-1.7-3.4-3.7-4.5-4.8c-0.9-0.9-1.9-1.8-2.9-2.6c-1.1-0.8-2.2-1.5-3.3-2.1c-0.7-0.3-1.6-0.5-2.3-0.7
							c-0.3-0.1-0.6-0.3-0.7-0.5c0-0.1-0.1-0.1-0.2-0.1C143.8,141.1,143.8,141.2,143.8,141.3z"/>
					</g>
					<g transform="matrix(0.4441,0,0,0.39775,0,0)">
						<path class="st1" d="M172.5,167.3C172.5,167.3,172.5,167.3,172.5,167.3C172.5,167.3,172.5,167.3,172.5,167.3
							c0.1,0,0.1-0.1,0-0.2c-0.1-0.2-0.3-0.6-0.6-0.9c-0.6-1-1.4-2.2-1.8-2.8c-0.2-0.3-0.4-0.6-0.6-0.9c-0.4-0.8-0.7-1.6-1.1-2.4
							c-0.7-1.2-1.3-2.4-1.9-3.6c-1.4-2.9-2.8-5.8-4.2-8.7c-0.7-1.4-1.5-2.6-2.5-3.6c-0.9-1-2-1.9-3.1-2.8c-0.3-0.2-1.5-0.8-2.4-1.4
							c-0.3-0.2-0.5-0.3-0.6-0.5c-0.1-0.1-0.1-0.1-0.1-0.1c0-0.1,0-0.2-0.1-0.2c-0.1,0-0.2,0-0.2,0.1c-0.1,0.1-0.1,0.2,0,0.3
							c0.1,0.2,0.2,0.4,0.5,0.6c0.8,0.7,2.4,1.5,2.6,1.7c1.3,1.1,2.5,2.2,3.5,3.5c0.7,0.8,1.3,1.8,1.8,2.8c1.4,2.9,2.7,5.9,4.1,8.8
							c0.6,1.2,1.3,2.5,1.9,3.7c0.4,0.8,0.7,1.6,1.1,2.4c0.2,0.4,0.4,0.7,0.7,1c0.4,0.5,1,1.5,1.6,2.4c0.3,0.4,0.5,0.8,0.7,1
							c0,0.1,0.1,0.1,0.1,0.2c0.2,0.2,0.4,0.3,0.4,0.2c0.1,0,0.2-0.1,0.2-0.2C172.6,167.4,172.6,167.3,172.5,167.3z"/>
					</g>
					<g transform="matrix(0.4441,0,0,0.39775,0,0)">
						<path class="st1" d="M176.4,164.7c0.4,0.4,0.7,0.4,0.7,0.1c0.1-0.1,0-0.4-0.3-0.6c0,0-0.1-0.1-0.1-0.1
							c-0.2-0.2-0.5-0.5-0.8-0.8c-0.4-0.4-0.9-0.9-1.1-1.3c-0.2-0.3-0.4-0.6-0.6-0.9c-0.4-0.6-1-1.1-1.4-1.8
							c-0.2-0.3-0.4-0.7-0.6-1.1c-0.5-0.9-0.9-1.9-1.3-2.7c-1.6-2.8-3-5.7-4.7-8.4c-1.1-1.8-2.3-3.6-3.7-5.1c-0.5-0.5-1-0.9-1.5-1.3
							c-1.2-0.8-2.6-1.3-3.7-2.3c-0.1-0.1-0.2-0.1-0.2,0c-0.1,0.1,0,0.2,0,0.3c1.1,1,2.4,1.6,3.6,2.5c0.5,0.3,0.9,0.7,1.4,1.2
							c1.3,1.6,2.5,3.3,3.6,5.1c1.6,2.7,3,5.6,4.6,8.4c0.5,0.8,0.9,1.8,1.3,2.7c0.2,0.4,0.4,0.8,0.7,1.2c0.4,0.6,0.9,1.2,1.4,1.8
							c0.2,0.2,0.4,0.5,0.5,0.8c0.2,0.3,0.5,0.7,0.8,1c0.5,0.5,1.1,1,1.4,1.2C176.3,164.7,176.3,164.7,176.4,164.7z"/>
					</g>
					<g transform="matrix(0.4441,0,0,0.39775,0,0)">
						<path class="st1" d="M178.8,160.2c-0.4-0.4-0.7-0.8-1-1.2c-0.6-0.8-1.2-1.7-1.8-2.5c-1.2-1.8-2.1-3.9-3.2-5.8
							c-0.5-0.9-1-1.7-1.6-2.4c-0.5-0.7-1.1-1.3-1.6-2c-0.6-0.7-1.1-1.3-1.7-1.9c-0.6-0.6-1.3-1-2-1.6c-0.2-0.2-0.5-0.5-0.7-0.8
							c0-0.1-0.1-0.1-0.2-0.1c-0.1,0.1-0.1,0.2,0,0.2c0.2,0.4,0.4,0.6,0.7,0.9c0.6,0.6,1.3,1,1.9,1.6c0.5,0.6,1.1,1.3,1.6,2
							c0.5,0.7,1.1,1.4,1.6,2.1c0.6,0.7,1,1.5,1.5,2.4c1.1,2,1.9,4.2,3.1,6c0.6,0.8,1.2,1.7,1.8,2.6c0.4,0.6,0.9,1.1,1.4,1.6
							c0.2,0.2,0.4,0.2,0.4,0.2c0.1,0,0.3-0.1,0.3-0.3c0-0.1,0-0.3,0-0.4c-0.1-0.2-0.2-0.3-0.3-0.3
							C179,160.2,178.9,160.2,178.8,160.2z"/>
					</g>
					<g transform="matrix(0.4441,0,0,0.39775,0,0)">
						<path class="st1" d="M179.1,154L179.1,154c0,0.1,0,0.1,0,0.1c0,0.2,0,0.4-0.1,0.5c-0.2,0.3-0.5,0.6-0.8,0.9
							c-0.7,0.7-1.5,1.2-2.1,1.9c-0.7,0.8-2.5,2.5-4.2,4c-1.2,1.1-2.3,2-2.9,2.3c-2.6,1.2-4.9,3.1-7.4,4.6c-0.6,0.3-1.2,0.7-1.9,0.9
							c-3.1,1.3-6.3,2.8-9.5,4.1c-1.4,0.6-2.7,1.1-4.1,1.6c-1.5,0.5-2.9,1-4.3,1.3c-0.9,0.2-1.9,0.3-2.9,0.3c-0.4,0-1,0.2-1.5,0.3
							c-0.1,0-0.3,0-0.4-0.1c-0.2-0.1-0.4-0.1-0.5,0.1c-0.1,0.2-0.1,0.5,0.1,0.6c0.2,0.2,0.5,0.2,0.8,0.2c0.5,0,1-0.3,1.4-0.2
							c1.1,0.1,2.1-0.1,3.1-0.3c1.5-0.3,2.9-0.8,4.4-1.3c1.4-0.5,2.8-1,4.1-1.6c3.2-1.3,6.3-2.9,9.5-4.2c0.7-0.3,1.3-0.6,2-1
							c2.5-1.4,4.7-3.4,7.3-4.6c0.6-0.3,1.8-1.3,3.1-2.4c1.7-1.5,3.4-3.3,4.2-4.1c0.6-0.7,1.4-1.2,2.1-1.9c0.3-0.3,0.6-0.7,0.8-1.1
							c0.1-0.2,0.1-0.8,0-1c-0.1-0.1-0.2-0.2-0.3-0.3c-0.1,0-0.3,0-0.4,0.2c-0.1,0.1-0.1,0.2,0,0.3C178.8,154.1,179,154.1,179.1,154
							C179,154,179.1,154,179.1,154z"/>
					</g>
					<g transform="matrix(0.4441,0,0,0.39775,0,0)">
						<path class="st1" d="M176.4,150.8c0.2,0.2,0.1,0.5-0.1,0.8c-0.5,0.8-1.6,1.7-1.9,2c-1.1,1.1-2.4,2.2-3.9,3.2
							c-2.1,1.5-4.4,2.9-6.3,4.1c-2.2,1.4-4.4,3.1-6.7,4.5c-1,0.6-2,1.2-3,1.6c-1.4,0.6-2.9,1.2-4.4,1.8c-2.2,0.8-4.4,1.6-6.6,2.4
							c-1.4,0.5-3.2,1.3-5,1.9c-1,0.3-2.1,0.5-3,0.5c-0.1,0-0.2,0-0.3,0c-0.2,0-0.4,0.1-0.4,0.3c0,0.2,0.1,0.4,0.3,0.4
							c0.2,0,0.4,0.1,0.6,0.1c0.7,0,1.4-0.1,2.2-0.3c2-0.5,4.2-1.5,5.9-2.1c2.2-0.8,4.4-1.6,6.6-2.4c1.5-0.6,2.9-1.2,4.4-1.8
							c1-0.5,2.1-1,3.1-1.7c2.3-1.4,4.5-3.2,6.7-4.6c1.9-1.2,4.2-2.7,6.3-4.2c1.4-1.1,2.8-2.2,3.9-3.4c0.3-0.3,1.4-1.3,1.9-2.2
							c0.3-0.6,0.4-1.1,0-1.4c-0.1-0.1-0.2,0-0.2,0.1C176.3,150.6,176.3,150.7,176.4,150.8z"/>
					</g>
					<g transform="matrix(0.4441,0,0,0.39775,0,0)">
						<path class="st1" d="M171.1,149.6c0,0.1,0,0.2,0,0.2c0,0.3,0.2,0.4,0.3,0.3c0,0,0.1-0.1,0.3-0.2c0.3-0.3,0.8-1,1.1-1.3
							c0,0,0,0,0,0c0.1,0,0.2,0,0.2-0.1c0-0.2,0-0.3-0.1-0.3c0,0-0.1,0-0.2,0c0.1-0.1,0.2-0.2,0.2-0.2c0.2-0.2,0.1-0.4,0-0.4
							c0,0-0.2-0.3-0.5,0c-1.2,1.1-2.5,2.1-3.9,3c-1.3,0.9-2.7,1.8-4.1,2.5c-5.4,2.8-10.6,5.9-15.9,8.8c-2.3,1.2-4.5,2.4-6.9,3.5
							c-1.4,0.6-2.7,1.1-4.1,1.3c-1.4,0.3-2.8,0.4-4.3,0.4c-0.4,0-1,0.1-1.5,0.1c-0.2,0-0.4,0-0.5,0c-0.1,0-0.2,0-0.3-0.1
							c-0.1-0.1-0.3-0.1-0.4,0.1c-0.1,0.2-0.1,0.4,0.1,0.5c0.1,0.1,0.3,0.2,0.4,0.3c0.1,0,0.3,0.1,0.4,0.1c0.6,0,1.3-0.1,1.8-0.1
							c1.5,0,2.9-0.1,4.4-0.4c1.4-0.3,2.8-0.7,4.2-1.4c2.4-1.1,4.6-2.3,6.9-3.5c5.3-2.9,10.5-6,15.9-8.8c1.5-0.8,2.8-1.7,4.2-2.6
							C169.7,150.7,170.4,150.2,171.1,149.6z"/>
					</g>
					<g transform="matrix(0.4441,0,0,0.39775,0,0)">
						<path class="st1" d="M169.3,146c-0.7,0.4-2.9,1.3-3.4,1.6c-2.1,1-4.3,1.8-6.4,2.7c-0.9,0.4-1.8,0.8-2.7,1.2
							c-2.8,1.3-5.7,2.4-8.5,3.6c-1.2,0.5-2.4,1.1-3.6,1.7c-3,1.6-5.9,3.8-9.1,5c-2,0.8-4.2,1.2-6.5,0.9c-0.2,0-0.4,0.1-0.4,0.3
							c0,0.2,0.1,0.4,0.3,0.4c2.5,0.3,4.7-0.1,6.8-1c3.2-1.3,6.1-3.4,9.2-5.1c1.2-0.6,2.3-1.2,3.5-1.7c2.8-1.2,5.7-2.3,8.5-3.7
							c2.4-1.2,4.8-2.1,7.3-3.2c0.6-0.3,1.2-0.5,1.8-0.8c0.5-0.2,2.7-1.3,3.4-1.7c0.1-0.1,0.2-0.2,0.2-0.2c0.1-0.1,0-0.2,0-0.2
							c0,0-0.1-0.1-0.3-0.1C169.3,145.8,169.2,145.9,169.3,146L169.3,146z M169.4,145.9C169.4,145.9,169.5,145.9,169.4,145.9
							C169.4,145.9,169.4,145.9,169.4,145.9z"/>
					</g>
					<g transform="matrix(0.4441,0,0,0.39775,0,0)">
						<path class="st1" d="M166.2,143c-0.1,0-0.1,0.1-0.2,0.1l-1.3,0.6l-3.3,1.3c-1.5,0.6-3.1,1.3-4.6,1.8c-1.6,0.6-3.1,1.1-4.7,1.6
							c-2.2,0.7-4.4,1.6-6.5,2.5c-5,2.1-9.8,4.6-14.8,6.5c-0.6,0.2-1.2,0.3-1.9,0.3c-1.5,0-2.9-0.3-4.3-0.1c-0.1,0-0.2,0-0.3,0.1
							c-0.1,0-0.1,0.1-0.2,0.1c-0.2,0-0.3,0.2-0.2,0.4c0,0.2,0.2,0.3,0.3,0.3c0.1,0,0.1,0,0.2,0c0.1,0,0.2,0,0.3,0
							c1.3-0.2,2.8,0.1,4.2,0.1c0.7,0,1.4-0.1,2.1-0.4c5-1.9,9.9-4.4,14.8-6.6c2.1-0.9,4.2-1.8,6.4-2.5c1.6-0.5,3.1-1.1,4.7-1.7
							c1.6-0.6,3.1-1.2,4.6-1.9l3.2-1.4l1.3-0.7c0.1-0.1,0.2-0.1,0.3-0.1c0.2-0.1,0.1-0.3,0.1-0.3c0,0-0.1-0.1-0.2-0.1
							C166.3,142.9,166.2,142.9,166.2,143z"/>
					</g>
					<g transform="matrix(0.4441,0,0,0.39775,0,0)">
						<path class="st1" d="M163.8,140.4c0.1,0,0.1,0,0.2,0c0.1-0.1,0.1-0.2,0.1-0.2c0-0.1,0-0.2-0.2-0.2c-0.1,0-0.2,0-0.4,0.1
							c-0.5,0.2-1.2,0.5-2,0.8c-0.9,0.4-1.8,0.8-2,0.9c-0.9,0.4-1.9,0.8-2.8,1.1c-2.2,0.8-4.5,1.4-6.7,2.2c-2.2,0.8-4.4,2-6.6,2.9
							c-0.9,0.4-1.9,0.8-2.9,1.1c-1.1,0.3-2.1,0.6-3.2,0.9c-1.6,0.4-3.3,0.8-4.9,1.2c-1.5,0.4-2.6,0.7-3.6,1
							c-1.1,0.4-2.1,0.9-3.4,1.5c-0.4,0.2-1.2,0.5-1.7,0.8c-0.1,0.1-0.2,0.1-0.3,0.2c-0.2,0.2-0.3,0.3-0.4,0.5
							c-0.1,0.1,0,0.3,0.1,0.4c0.1,0.1,0.3,0.1,0.4-0.1c0.1-0.1,0.2-0.1,0.3-0.2c0.2-0.1,0.3-0.2,0.5-0.3c0.5-0.3,1.2-0.5,1.5-0.7
							c1.3-0.6,2.3-1.1,3.4-1.5c1-0.4,2-0.7,3.5-1c1.6-0.4,3.2-0.8,4.9-1.2c1.1-0.3,2.2-0.6,3.2-0.9c1-0.3,2-0.7,2.9-1.1
							c2.2-1,4.4-2.1,6.6-3c2.2-0.8,4.5-1.5,6.7-2.3c1-0.4,1.9-0.7,2.8-1.2c0.2-0.1,1.1-0.5,1.9-0.9c0.7-0.4,1.5-0.8,1.9-1
							C163.7,140.4,163.7,140.4,163.8,140.4z"/>
					</g>
					<g transform="matrix(0.4441,0,0,0.39775,0,0)">
						<path class="st1" d="M161.5,137.6c-0.3,0.1-0.5,0.2-0.8,0.3c-2.2,1-4.5,1.9-6.9,2.7c-2.7,0.8-5.4,1.4-8,1.7
							c-1.2,0.1-2.4,0.3-3.7,0.5c-0.8,0.2-1.7,0.4-2.4,0.7c-1.7,0.6-3.5,1.1-5.2,1.7c-0.7,0.3-1.5,0.6-2.2,1
							c-1.1,0.6-2.2,1.3-3.2,1.9c-0.5,0.3-0.9,0.5-1.4,0.7c-1,0.5-2.3,1-3.4,1.6c-0.5,0.3-1,0.6-1.3,1c-0.1,0.1-0.1,0.3,0,0.4
							c0.1,0.1,0.3,0.2,0.4,0.1c0.3-0.2,0.5-0.4,0.9-0.6c0.3-0.2,0.6-0.4,0.9-0.5c1-0.5,2-1,2.9-1.4c0.5-0.2,1-0.5,1.4-0.8
							c1.1-0.6,2.1-1.3,3.2-1.9c0.7-0.4,1.4-0.7,2.1-0.9c1.7-0.6,3.5-1.1,5.2-1.8c0.7-0.3,1.5-0.5,2.3-0.7c1.2-0.3,2.5-0.4,3.6-0.6
							c2.6-0.3,5.4-1,8.1-1.8c2.4-0.8,4.9-1.6,7-2.8c0.3-0.1,0.5-0.3,0.7-0.4c0.1,0,0.1-0.1,0.1-0.2
							C161.7,137.6,161.6,137.6,161.5,137.6z"/>
					</g>
					<g transform="matrix(0.4441,0,0,0.39775,0,0)">
						<path class="st1" d="M137,141.3c-1.9,0.9-3.8,1.8-5.7,2.6c-0.8,0.4-1.6,0.7-2.5,1c-1,0.3-2.6,0.9-3.8,1.6
							c-0.3,0.2-0.7,0.4-0.9,0.7c-0.2,0.2-0.4,0.4-0.5,0.7c-0.1,0.1,0,0.3,0.1,0.4c0.1,0.1,0.3,0,0.3-0.1c0.1-0.2,0.3-0.3,0.5-0.5
							c0.4-0.3,0.8-0.6,1.3-0.9c1.1-0.6,2.4-1,3.2-1.3c0.8-0.3,1.7-0.7,2.5-1.1c1.9-0.9,3.7-1.9,5.6-2.8c0.1,0,0.1-0.1,0.1-0.2
							C137.1,141.3,137,141.2,137,141.3z"/>
					</g>
					<g transform="matrix(0.4441,0,0,0.39775,0,0)">
						<path class="st1" d="M129.9,141.8c-0.1-0.2-0.2-0.3-0.6-0.3c-0.4,0-1.1,0.2-1.8,0.5c-1.1,0.5-2.2,1.1-2.8,1.6
							c-0.1,0.1-0.1,0.1-0.1,0.1c-0.1,0.1-0.1,0.2-0.1,0.2c-0.1,0.1,0,0.2,0.1,0.3c0.1,0.1,0.2,0,0.3-0.1c0,0,0.1,0,0.1,0
							c0,0,0.1-0.1,0.1-0.1c0.5-0.4,1.6-1.1,2.6-1.6c0.7-0.3,1.3-0.6,1.6-0.6c0.1,0,0.2,0,0.2,0c0,0,0,0,0,0c0,0.1,0.1,0.1,0.2,0.1
							C129.9,142,130,141.9,129.9,141.8z"/>
					</g>
					<g transform="matrix(0.4441,0,0,0.39775,0,0)">
						<path class="st1" d="M118.3,148.7c-0.4,0-0.7,0.1-0.9,0.4c-0.5,0.4-0.9,1.2-1.4,1.8c-0.7,0.8-2.4,2.7-3.4,4.5
							c-0.4,0.7-0.7,1.4-0.7,2c0,0.2,0,0.4,0.1,0.6c0,0.2,0.2,0.3,0.3,0.2c0.1,0,0.2-0.2,0.2-0.4c0-0.1,0-0.3,0-0.4
							c0.1-0.5,0.3-1.1,0.7-1.7c0.9-1.7,2.6-3.7,3.2-4.5c0.5-0.6,0.8-1.4,1.3-1.9c0.2-0.2,0.4-0.4,0.7-0.4c0.1,0,0.2-0.1,0.2-0.2
							C118.5,148.7,118.4,148.7,118.3,148.7z"/>
					</g>
				</g>
				<g transform="matrix(0.4441,0,0,0.39775,0,0)">
					<path class="st0" d="M118.1,157c0,0,0.3-17.1,4.6-24l4.5,2.5c0,0-5,13.8-3.9,21.4C123.4,157,118.7,156.7,118.1,157z"/>
				</g>
				<g transform="matrix(0.4441,0,0,0.39775,0,0)">
					<path class="st1" d="M117.8,162.9c0,0.1,0,0.1,0,0.2c0.1,0.3,0.7,0.6,0.7-0.2c0-0.1,0-0.2,0-0.4c0-0.1,0.1-0.1,0.2-0.3
						c0-0.1,0-0.3,0-0.4c-0.1-2-0.2-6.4,0.2-11c0.2-1.9,0.4-3.7,0.7-5.4c0.3-1.7,0.7-3.5,1.3-5.3c1.9-5.5,4.6-11.2,8-15.7
						c2.4-3.2,5.2-5.7,8.4-7.1c1.1-0.5,3.3-1.3,5.5-1.9c1.4-0.4,2.7-0.7,3.7-0.8c6.4-0.5,10.7,2.2,13.7,6.4c2.8,3.9,4.6,9.1,6,14.5
						c0.9,3.6,1.7,7.2,2.5,10.6c0.1,0.3,0.4,0.6,0.7,0.5c0.3-0.1,0.5-0.4,0.4-0.8c-0.6-3.4-1.2-7.1-2.1-10.8
						c-1.3-5.7-3.1-11.2-6.1-15.3c-3.4-4.7-8.1-7.7-15.3-7.1c-1.1,0.1-2.5,0.4-4,0.9c-2.3,0.7-4.6,1.6-5.7,2.1
						c-3.3,1.6-6.3,4.3-8.9,7.8c-3.5,4.7-6.2,10.6-8,16.3c-0.6,1.9-1,3.7-1.3,5.5c-0.3,1.8-0.5,3.6-0.7,5.6
						c-0.4,4.7-0.3,9.1-0.2,11.2c0,0.2,0,0.3,0,0.4c0,0.1,0.1,0.1,0.2,0.3C117.8,162.7,117.8,162.9,117.8,162.9z"/>
				</g>
				<g transform="matrix(0.4441,0,0,0.39775,-0.504256,-2.562)">
					<path class="st1" d="M124.4,171c0.1-0.5,0.1-1.9,0.2-3.6c0-1.1,0-2.3,0.1-3.6c0-1,0.1-2,0.2-3c0.1-1.2,0.2-2.3,0.4-3.5
						c0.2-1.7,0.5-3.4,0.9-5.2c0.9-4.3,2.9-9.9,5.5-14.5c1.9-3.2,4-5.9,6.4-7.3c1.7-1,3.2-1.8,4.7-2.4c1.6-0.6,3.2-1.1,5-1.4
						c3.1-0.5,5.6,0.4,7.7,2.2c3.2,2.7,5.4,7.2,7,11.8l1.9,5.6c0.1,0.2,0.3,0.3,0.5,0.3c0.2-0.1,0.3-0.3,0.2-0.6
						c-0.2-0.8-0.1-1.4-0.5-3c-0.2-0.7-0.5-1.7-0.8-2.9c-1.6-4.9-4-9.8-7.3-12.7c-2.4-2.1-5.4-3.2-8.9-2.6c-1.9,0.3-3.6,0.8-5.3,1.5
						c-1.6,0.7-3.2,1.5-4.9,2.5c-2.6,1.6-5,4.5-6.9,8c-2.7,4.8-4.8,10.6-5.6,15.1c-0.3,1.5-0.5,3-0.7,4.4c-0.2,1.5-0.4,3-0.4,4.5
						c-0.1,1.8-0.1,3.6-0.1,5.2c0.1,2.5,0.3,4.4,0.2,5.1c0,0.2,0.1,0.4,0.3,0.4C124.3,171.4,124.4,171.2,124.4,171z"/>
				</g>
				<g transform="matrix(0.923043,0,0,1,37.8578,0)">
					<g transform="matrix(0.489018,0,0,0.509865,-48.4201,-393.518)">
						<path class="st1" d="M125.7,896.9c0,0.2,0,0.4,0,0.7c0,0.5,0.1,1,0.1,1.4l1.6,5.9c1.1,3.9,2,7.8,3,11.7c0.4,1.7,0.9,3.4,1.4,5
							c0.1,0.3,0.4,0.4,0.7,0.4c0.3-0.1,0.5-0.3,0.4-0.6c-0.8-3.4-1.5-6.8-2.3-10.1c-0.5-2.3-1.1-4.5-1.8-6.7l-1.7-5.8
							c-0.1-0.3-0.1-0.7-0.2-1.1c-0.1-0.7-0.4-1.3-0.6-1.4c-0.2-0.1-0.6-0.2-0.8,0.3C125.4,896.7,125.5,896.8,125.7,896.9z
							 M126.1,896.8c0.1,0,0.2,0,0.1-0.1C126.2,896.7,126.2,896.7,126.1,896.8C126.2,896.8,126.2,896.8,126.1,896.8z"/>
					</g>
					<g transform="matrix(0.382024,0,0,0.364422,79.7571,117.88)">
						<path class="st1" d="M-102-137.7L-102-137.7c0,0,0,0.1-0.1,0.1c-0.1,0.2-0.2,0.5-0.3,0.8c-0.2,0.5-0.2,1.1-0.2,1.2l-1.1,4.4
							c-0.9,3.2-1.7,6.5-2.5,9.7c-0.5,2.2-1,4.3-1.5,6.5c-0.1,0.5,0.2,1,0.7,1.1c0.5,0.1,1-0.2,1.1-0.6c0.6-2.2,1.2-4.3,1.7-6.5
							c0.8-3.2,1.5-6.5,2.3-9.7l1-4.5c0-0.1,0.1-0.7,0.1-1.4c0-0.4-0.1-0.7-0.1-0.9c0-0.2,0-0.3-0.1-0.3c-0.1-0.2-0.1-0.3-0.2-0.3
							c-0.2-0.1-0.4-0.3-0.6,0C-101.9-138-102-137.9-102-137.7z M-101.8-137.5c0.1,0.1,0.2,0.1,0.3,0.1
							C-101.6-137.4-101.7-137.4-101.8-137.5z"/>
					</g>
					<g transform="matrix(0.46221,0,0,0.391358,-21.6641,21.7768)">
						<path class="st1" d="M75.9,106.8c0.1-0.2,0-0.4-0.2-0.5c-0.1-0.1-0.6-0.2-0.8-0.2c-0.4,0-0.5,0.3-0.4,0.6
							c0,0.2,0.2,0.4,0.3,0.6c0.4,0.3,1,0.7,1.3,0.8c0.5,0.4,1.1,0.7,1.7,1c1.3,0.7,2.8,1.2,4,1.8c1.3,0.6,2.2,0.9,3.3,1.2
							c1.6,0.4,3.6,0.6,7.8,1.5c0.3,0.1,0.6-0.1,0.6-0.5c0.1-0.3-0.1-0.6-0.4-0.7c-4.1-1-6.2-1.3-7.7-1.7c-1.1-0.3-1.9-0.5-3.1-1.1
							c-1.2-0.6-2.7-1.1-4.1-1.7c-0.6-0.3-1.1-0.5-1.6-0.8L75.9,106.8z M75.2,106.9c-0.1,0-0.1,0-0.1,0
							C75.1,107.1,75.1,107,75.2,106.9z"/>
					</g>
					<g transform="matrix(0.481126,0,0,0.39775,-41.0141,0)">
						<path class="st1" d="M115,156.5c0.1,0.1,0.2,0.1,0.3,0.3c0.1,0.1,0,0.2,0.1,0.4c0,0.1,0.1,0.1,0.2,0.1
							c0.8,0.5,2.2,0.9,2.9,1.1c0.4,0.1,0.7-0.2,0.8-0.6c0.1-0.4-0.2-0.8-0.5-0.9c-0.6-0.1-1.8-0.6-2.6-0.9c-0.1,0-0.1-0.1-0.2-0.1
							c-0.2,0-0.1,0.2-0.3,0.1c-0.1,0-0.1-0.1-0.2-0.1c-0.1-0.2-0.4-0.2-0.5,0C114.8,156.1,114.8,156.4,115,156.5z"/>
					</g>
					<g transform="matrix(0.481126,0,0,0.39775,-41.6851,-0.0484405)">
						<path class="st1" d="M125.4,159.6c0.1,0.1,0,0.2,0.1,0.2c0.4,0.3,1.2,0.5,1.7,0.6c0.3,0.1,0.6-0.2,0.7-0.5
							c0.1-0.4-0.2-0.7-0.5-0.8c-0.4-0.1-1-0.4-1.5-0.5c-0.1,0-0.2-0.1-0.3,0c-0.2,0.1-0.2,0.1-0.3,0.2c-0.2,0-0.3,0.2-0.3,0.4
							C125,159.5,125.2,159.6,125.4,159.6z"/>
					</g>
					<g transform="matrix(0.458958,-0.0279885,0.0301684,0.396831,-122.452,35.7612)">
						<path class="st1" d="M294,122.7c0,0.1,0.1,0.2,0,0.3c0,0.1,0,0.2,0,0.3c0,0.3,0.4,0.5,0.7,0.7c0.7,0.6,1.9,1,2.3,1.2
							c1.3,0.5,2.5,0.8,3.8,1.1c1.9,0.5,3.8,0.9,5.7,1.3c4.5,1,9.1,1.7,13.7,2.1c4.6,0.3,9.3,0.3,13.9-0.3c1.9-0.2,4.2-0.5,6.3-1.2
							c0.6-0.2,1.1-0.4,1.7-0.7c0.8-0.4,1.6-1,2.2-1.6c0.3-0.2,0.3-0.6,0.1-0.9c-0.2-0.3-0.6-0.3-0.8-0.1c-0.6,0.5-1.3,0.8-2,1.2
							c-0.5,0.2-1,0.4-1.5,0.6c-2,0.7-4.2,0.9-6,1.1c-4.5,0.6-9.1,0.6-13.6,0.3c-4.6-0.3-9.1-1-13.5-2c-1.9-0.4-3.8-0.8-5.7-1.2
							c-1.3-0.3-2.5-0.6-3.7-1c-0.3-0.1-0.9-0.3-1.5-0.6c-0.3-0.2-0.6-0.4-0.9-0.5c-0.1-0.1-0.2,0-0.2-0.1c0-0.2-0.2-0.4-0.4-0.4
							C294.2,122.3,294,122.5,294,122.7z"/>
					</g>
					<g transform="matrix(0.481126,0,0,0.39775,-41.0141,0)">
						<path class="st0" d="M118,157.5c1.2-1,2.6-0.8,3.2-0.7c2.7,0.4,4,5.3,2.1,7.4C119.2,168.8,115.3,160.5,118,157.5z"/>
						<path class="st1" d="M117.8,157C117.8,157.1,117.8,157.1,117.8,157l-0.1,0.1c-0.6,0.5-1.1,1.2-1.3,2c-0.5,1.7,0.1,3.8,1,5.3
							c1.4,2.4,4,3.5,6.6,0.6c1.1-1.3,1.4-3.5,0.8-5.4c-0.6-1.9-1.9-3.4-3.5-3.5c-0.4,0-1.1-0.1-1.8,0.2c-0.5,0.2-1.1,0.4-1.6,0.9
							V157z M118.3,157.8C118.3,157.8,118.3,157.8,118.3,157.8l-0.1,0c0.5-0.3,1-0.4,1.4-0.4c0.6-0.1,1.2,0.1,1.5,0.2
							c1,0.2,1.7,1.4,1.9,2.6c0.3,1.2,0.3,2.5-0.4,3.3c-1.4,1.6-2.9,1.1-3.7-0.3c-0.7-1.1-1-2.5-0.9-3.7
							C118,158.9,118.1,158.3,118.3,157.8L118.3,157.8z"/>
					</g>
				</g>
			</g>
			<g>
				<g transform="matrix(0.4441,0,0,0.39775,0,0)">
					<path class="st0" d="M84.5,146c0,0,7-4.6,9.8-9.3c2.8-4.7,7-8,11.1-7.8c4.1,0.2,14.4,0.5,8.6,3.4c-4.2,2.1-5.7,0.4-6.3,1.3
						c0,0,10.4,0,10.4,1.5c0.1,1.5-12.1,3.3-12.4,3.2c0,0,8.7,0.7,8.9,2c0.2,1.3-12.8,3.8-12.8,3.8c0,0,7.7-0.8,8.2,1
						c0.5,1.8-10,2.7-12.6,4.3c-3,1.8-5.6,2.6-8.2,7.6c-0.7,1.4-1.7,0.8-2.2,1.1c-0.5,0.3-0.4,0.3-0.4,0.3
						C86.5,158.4,81.7,154.2,84.5,146z"/>
				</g>
				<g transform="matrix(0.4441,0,0,0.39775,0,0)">
					<path class="st0" d="M135,116.8c0,0-9.8,7.5-4.5,10.1l0.9,0.1c0,0-0.9,4.6,3.4,1.5c0,0-3.8,9.1,4.1,1.7c0,0-3.7,9.9,1.9,4.5
						c5.6-5.4,1.2-10.3,1.5-11.2c0.2-0.9-2.6-3.1-3.2-4.3C138.5,118.1,135,116.9,135,116.8z"/>
				</g>
				<g transform="matrix(0.4441,0,0,0.39775,0,0)">
					<path class="st0" d="M123.6,122.2c0,0,4.3-0.5,5,0.5C128.7,122.7,121.5,127.9,123.6,122.2z"/>
				</g>
				<g transform="matrix(0.4441,0,0,0.400479,0,-8.9282)">
					<path class="st1" d="M84.6,167.5C84.6,167.5,84.6,167.5,84.6,167.5c0-0.1,0-0.1,0-0.1c0.1-0.1,0.3-0.1,0.4-0.1l1.8-1.2
						c0.9-0.7,1.9-1.5,2.7-2.3c0.9-0.8,1.7-1.7,2.6-2.6c2.1-2.2,4.2-5.2,6.5-7.4c1-1,2.1-1.8,3.2-2.3c0.8-0.4,5.2-0.8,8.8-0.6
						c1.7,0.1,3.1,0.3,3.9,0.7c0.2,0.1,0.3,0.1,0.3,0.3c0,0.1-0.1,0.2-0.2,0.4c-0.2,0.3-0.4,0.4-0.7,0.6c-0.5,0.2-1,0.3-1.5,0.5
						l-3.4,0.5l-5.9,0.8c-0.3,0-0.5,0.3-0.5,0.6c0,0.3,0.3,0.5,0.5,0.5l6-0.7l3.5-0.5c0.6-0.2,1.2-0.3,1.7-0.5
						c0.4-0.2,0.8-0.5,1.1-0.9c0.4-0.5,0.5-1,0.4-1.4c-0.1-0.7-0.9-1.3-2.2-1.6c-3.6-0.8-11.2-0.1-12.3,0.4
						c-1.2,0.6-2.4,1.5-3.5,2.5c-2.3,2.2-4.4,5.3-6.4,7.5c-0.8,0.9-1.6,1.7-2.5,2.6c-0.9,0.8-1.7,1.6-2.7,2.3l-1.8,1.2
						c-0.1,0.1-0.5,0.2-0.6,0.4c-0.2,0.2-0.2,0.5,0,0.7c0.1,0.2,0.4,0.2,0.5,0C84.6,167.6,84.6,167.6,84.6,167.5z M84.6,167.4
						c-0.1,0-0.1,0.1-0.1,0.1c0,0,0,0,0.1,0l0,0C84.6,167.5,84.6,167.5,84.6,167.4L84.6,167.4C84.6,167.4,84.6,167.4,84.6,167.4z"/>
				</g>
				<g transform="matrix(0.4441,0,0,0.382641,0,49.7092)">
					<path class="st1" d="M117.5,10.6c0,0-0.1,0.1-0.1,0.1c-0.3,0.2-0.7,0.4-1.1,0.5c-1.3,0.4-3,0.6-3.3,0.7
						c-3.2,0.6-4.6,0.2-7.4,0.7c-1.3,0.2-2.8,0.6-4.9,1.4c-0.3,0.1-0.5,0.4-0.4,0.8c0.1,0.3,0.4,0.5,0.7,0.4c2.1-0.6,3.6-0.8,4.8-1
						c2.8-0.4,4.3-0.1,7.5-0.7c0.4-0.1,2.6-0.5,4-1.2c1-0.5,1.6-1.2,1.5-1.9c0-0.2-0.2-0.6-0.6-0.8c-0.6-0.2-2-0.5-3.7-0.6
						c-3.4-0.3-8.1-0.4-9.5-0.1c-0.2,0-0.3,0.3-0.3,0.5c0,0.2,0.2,0.4,0.4,0.3c0.9-0.2,3-0.2,5.3-0.1c2.8,0.2,5.8,0.5,7.1,0.9
						C117.3,10.5,117.4,10.6,117.5,10.6z"/>
				</g>
				<g transform="matrix(0.4441,0,0,0.332067,0,217.702)">
					<path class="st1" d="M114-487.6c-0.8,0.3-2.1,0.7-4,1.1c-0.6,0.1-0.9,0-1.4,0c-0.2,0-0.5,0.1-0.7,0.2c-1.9,0.7-3.5,0.8-5.7,1.4
						c-0.7,0.2-1.5,0.5-2.4,0.9c-0.2,0.1-0.4,0.4-0.3,0.7c0.1,0.3,0.3,0.5,0.5,0.4c0.8-0.2,1.6-0.3,2.3-0.4c1.3-0.2,2.4-0.4,3.5-0.7
						c0.8-0.2,1.6-0.4,2.5-0.7l2-0.1c3.1-0.7,4.6-1.3,5.1-1.8c0.3-0.3,0.4-0.6,0.5-0.9c0-0.3,0-0.6-0.3-0.9
						c-0.3-0.3-0.9-0.7-1.9-0.9c-2-0.5-5.2-0.7-6.8-0.6l-6.2,0.7c-0.2,0-0.4,0.3-0.3,0.5c0,0.3,0.2,0.5,0.4,0.5l6.1-0.4
						c1.5,0,4.6,0.3,6.6,0.8C113.6-487.7,113.8-487.6,114-487.6z"/>
				</g>
				<g transform="matrix(0.4441,0,0,0.39775,0,0)">
					<path class="st1" d="M109.8,145.1c-0.3,0.1-0.6,0.2-1,0.3c-1.3,0.3-3.1,0.5-4.7,0.8c-1.8,0.4-3.4,0.9-4.8,1.4
						c-2.7,1.1-4.7,2.3-6.7,3.3c-0.3,0.1-0.4,0.5-0.3,0.8c0.1,0.3,0.5,0.5,0.8,0.3c2-0.9,4-2.1,6.6-3.2c1.3-0.5,2.8-1,4.6-1.4
						c1.8-0.4,4.1-0.6,5.4-1.1c0.9-0.3,1.3-0.8,1.4-1.4c0-0.3,0-0.6-0.5-0.9c-0.4-0.3-1.5-0.5-2.9-0.7c-2.4-0.3-5.7-0.5-7.4,0
						c-0.2,0-0.3,0.3-0.3,0.5c0,0.2,0.2,0.4,0.4,0.3c1-0.2,2.5-0.2,4-0.1c0.6,0.1,1.2,0.1,1.8,0.2
						C107.8,144.6,109.1,144.8,109.8,145.1z M110.1,145.2C110.1,145.3,110.1,145.4,110.1,145.2C110.2,145.3,110.1,145.3,110.1,145.2
						z"/>
				</g>
				<g transform="matrix(0.4441,0,0,0.39775,0,0)">
					<path class="st1" d="M93.6,151.5c-0.2,0-0.3,0-0.5,0c-0.1,0-0.2,0-0.4,0.1c-0.1,0-0.1,0.1-0.2,0.1c-0.3,0.3-0.7,0.8-1.1,1.1
						c-0.8,0.7-1.8,1.9-2.9,2.9c-0.3,0.3-0.6,0.5-0.9,0.7c-0.3,0.2-0.6,0.3-0.9,0.3c-0.4,0-0.7,0.3-0.7,0.7c0,0.4,0.2,0.8,0.6,0.8
						c0.8,0.1,1.6-0.1,2.3-0.6c1.3-0.9,2.4-2.7,3.3-3.6c0.2-0.2,0.3-0.4,0.5-0.7c0.2-0.3,0.3-0.6,0.5-0.8c0.1-0.1,0-0.3,0.1-0.3
						c0.2,0.1,0.4-0.1,0.4-0.3C93.9,151.8,93.8,151.5,93.6,151.5z"/>
				</g>
				<g transform="matrix(0.4441,0,0,0.39775,0,0)">
					<path class="st1" d="M135.4,116.8C135.4,116.8,135.4,116.8,135.4,116.8c0,0,0-0.1,0-0.1c-0.1-0.1-0.2-0.2-0.3-0.2
						c-0.1-0.1-0.3-0.1-0.5,0c-0.4,0.1-0.7,0.2-1.1,0.4c-0.4,0.3-0.8,0.6-1.2,1c-0.6,0.5-1,1-1.5,1.6c-0.7,0.9-1.2,1.8-1.8,2.7
						c-0.6,1-1,2.2-0.8,3.3c0.1,0.8,0.6,1.5,1.6,1.9c0.4,0.2,0.8,0,0.9-0.5c0.1-0.4,0-0.9-0.4-1c-0.6-0.2-0.8-0.6-0.8-1.1
						c0-0.6,0.3-1.3,0.6-1.9c0.5-0.9,1-1.8,1.7-2.6c0.4-0.5,0.8-1,1.3-1.4c0.3-0.3,0.7-0.6,1.1-0.9c0.2-0.1,0.4-0.3,0.7-0.3l0.8,0
						c0.2,0,0.3-0.2,0.3-0.5C135.8,116.9,135.6,116.8,135.4,116.8z"/>
				</g>
				<g transform="matrix(0.4441,0,0,0.39775,0,0)">
					<path class="st1" d="M136.2,119.5c-0.3-0.1-0.7,0-1.1,0.3c-0.5,0.4-0.9,1.1-1.2,1.4c-0.7,0.7-1.4,1.7-2,2.7
						c-0.6,1-1,2.2-1.2,3.2c-0.3,1.3,0,2.2,0.6,2.7c0.5,0.4,1.4,0.5,2.5-0.2l0.9-0.6l1.1-1l2.1-2.5c0.2-0.2,0.2-0.6,0-0.9
						c-0.2-0.2-0.5-0.2-0.8,0l-2.3,2.4l-0.9,0.7l-0.9,0.6c-0.4,0.3-0.8,0.4-1,0.3c-0.2-0.2-0.2-0.6-0.1-1.1c0.2-0.9,0.5-1.9,1-2.8
						c0.5-0.9,1.1-1.8,1.7-2.5l1.3-1.8c0.2,0,0.4-0.1,0.4-0.3C136.5,119.8,136.3,119.6,136.2,119.5z"/>
				</g>
				<g transform="matrix(0.4441,0,0,0.39775,0,0)">
					<path class="st1" d="M134.6,132.2c0-0.3,0-0.6,0.1-0.9c0.2-0.8,0.6-1.6,1-2.3c0.6-1.2,1.4-2.3,2.1-3.3c0.2-0.2,0.4-0.6,0.6-1
						c0.1-0.2,0.2-0.4,0.2-0.5l0,0l0,0l0,0l0,0c0,0,0.1,0,0.1,0c0,0,0,0-0.1,0c0,0,0,0,0.1,0l0,0c0.1,0,0.2-0.1,0.3-0.2
						c0.1-0.2,0.1-0.4-0.1-0.6c-0.2-0.2-0.5-0.2-0.8,0.1c-0.3,0.3-0.8,1-1.1,1.4c-0.8,1-1.7,2.1-2.4,3.3c-0.5,0.8-0.9,1.7-1.2,2.6
						c-0.3,0.9-0.4,2.2,0,2.7c0.3,0.4,0.9,0.7,2,0l1.1-0.8l1.9-1.3c0.6-0.5,1.2-1.1,1.7-1.7c0.2-0.3,0.4-0.5,0.6-0.8
						c0.1-0.2,0.2-0.4,0.3-0.6c0.2-0.3,0.1-0.8-0.2-1c-0.3-0.2-0.7-0.1-0.9,0.2c-0.1,0.2-0.3,0.3-0.4,0.5c-0.3,0.4-0.6,0.8-0.9,1.1
						c-0.3,0.3-0.7,0.6-1,0.9l-1.8,1.3L134.6,132.2L134.6,132.2z"/>
				</g>
				<g transform="matrix(0.4441,0,0,0.39775,0,0)">
					<path class="st1" d="M138.4,130.7c-0.2,0.1-0.3,0.3-0.4,0.5c-0.2,0.3-0.2,0.8-0.3,1c-0.4,0.9-0.9,2.7-0.5,3.7
						c0.2,0.6,0.7,1.1,1.6,1.2c0.3,0,0.6-0.1,0.9-0.3c0.5-0.3,0.9-0.8,1.2-1.1c0.6-0.7,1.1-1.4,1.6-2.3c0.6-1.2,1.2-2.4,1.7-3.7
						c0.1-0.3,0-0.7-0.3-0.9c-0.3-0.2-0.6,0-0.8,0.3c-0.5,1.2-1.1,2.3-1.7,3.4c-0.4,0.7-0.9,1.4-1.4,1.9c-0.2,0.2-0.4,0.5-0.7,0.7
						c-0.1,0.1-0.3,0.3-0.4,0.3c-0.5,0-0.7-0.4-0.7-0.9c0-0.8,0.2-1.7,0.3-2.3c0.1-0.2,0.1-0.5,0.2-0.8c0-0.1,0.1-0.2,0.2-0.3
						c0.2-0.1,0.2-0.4,0.1-0.6C138.8,130.6,138.5,130.5,138.4,130.7z"/>
				</g>
				<g transform="matrix(0.4441,0,0,0.39775,0,0)">
					<path class="st1" d="M136,117.7l1.1,0.4c0.2,0.1,0.5,0.3,0.7,0.5c0.3,0.2,0.5,0.4,0.7,0.7c0.2,0.2,0.2,0.4,0.3,0.7
						c0.1,0.4,0.2,0.8,0.4,1.1c0.1,0.2,0.3,0.4,0.5,0.6l1.4,1.3c0.3,0.4,0.3,1,0.5,1.5c0.1,0.2,0.2,0.4,0.3,0.6c0.4,0.6,0.7,1,1,1.5
						c0.1,0.3,0.3,0.6,0.3,1l0.1,0.9c-0.2,0.2-0.1,0.6,0.1,0.8c0.2,0.2,0.5,0.1,0.7-0.1c0.2-0.2,0.3-0.5,0.4-0.7
						c0.1-0.3,0.1-0.6,0.1-1c0-0.6-0.2-1.1-0.4-1.6c-0.3-0.6-0.6-1.1-1-1.7c-0.3-0.5-0.3-1.2-0.5-1.7c-0.1-0.2-0.2-0.4-0.3-0.6
						c-0.2-0.2-0.4-0.4-0.6-0.6c-0.4-0.3-0.8-0.5-1.2-0.8c-0.5-0.3-0.6-1.1-0.9-1.5c-0.1-0.2-0.3-0.4-0.5-0.5
						c-0.3-0.2-0.7-0.5-1.1-0.7c-0.3-0.1-0.5-0.3-0.8-0.3l-1.1-0.3c-0.2-0.1-0.4,0-0.5,0.2C135.7,117.4,135.8,117.6,136,117.7z"/>
				</g>
				<g transform="matrix(0.4441,0,0,0.39775,0,0)">
					<path class="st1" d="M123.8,123.8C123.8,123.9,123.8,123.9,123.8,123.8C123.9,123.9,123.8,123.8,123.8,123.8c0-0.1,0-0.1,0-0.2
						c0-0.2,0.1-0.4,0.2-0.7c0.2-0.3,0.1-0.8-0.2-1c-0.3-0.2-0.7-0.1-0.9,0.2c-0.4,0.5-0.6,0.9-0.7,1.3c-0.1,0.4-0.1,0.7,0.1,1
						c0.2,0.6,0.9,1.2,2.1,1.1c0.3,0,0.7-0.1,1-0.3c0.2-0.1,0.4-0.2,0.6-0.3c0.5-0.2,1-0.5,1.4-0.8l1.2-1.1c0.2,0,0.4-0.2,0.4-0.4
						c0-0.2-0.1-0.4-0.3-0.4c-0.1,0-0.3,0.1-0.6,0.2c-0.3,0.2-0.8,0.7-1.1,0.9c-0.4,0.2-0.8,0.5-1.3,0.6c-0.4,0.1-0.9,0.1-1.3,0
						C124.1,124,123.7,124,123.8,123.8C123.8,123.8,123.8,123.8,123.8,123.8z"/>
				</g>
			</g>
		</g>
		<g>
			<g transform="matrix(0.4441,0,0,0.39775,0,0)">
				<path class="st0" d="M149.9,70c0,0-1.7-3.1-1.9-3.1c-0.1,0-0.2,2.3-0.2,2.3l-2.6-1.1c0,0-0.6,2.4,1,3.1l-3,2.2
					c0,0,1.8,0.4,3.1,0.5l0,4.1c0,0,3.1-2.1,3.4-2.8l1.7,1.9l-0.1-3.1l2.8,0.6l-1.2-1.8l-1.7-0.9l2.1-0.7l-1.4-1.2L149.9,70z"/>
			</g>
			<g transform="matrix(1,0,0,1,-0.0676666,-0.0487239)">
				<g transform="matrix(0.4441,0,0,0.39775,0,0)">
					<path class="st1" d="M153,65.8l-0.8,0.9l-1.6,2l-1.1,1.3c-0.2,0.2-0.1,0.5,0,0.7c0.2,0.2,0.4,0.2,0.6,0
						c0.3-0.3,0.6-0.4,0.9-0.6c0.1-0.1,0.3-0.3,0.4-0.4l1.6-2.1l0.7-1.3c0.1-0.3,0.1-0.5,0.1-0.6c-0.1-0.2-0.2-0.3-0.4-0.3
						c-0.1,0-0.2,0-0.3,0.2C153,65.6,153,65.7,153,65.8z"/>
				</g>
				<g transform="matrix(0.4441,0,0,0.39775,0,0)">
					<path class="st1" d="M150.1,69.4c0-0.1,0-0.3,0-0.5c0-0.1,0-0.2-0.1-0.4c-0.2-0.3-0.3-0.6-0.5-0.9c-0.3-0.4-0.6-0.7-1-1
						c-0.1-0.1-0.3-0.2-0.5,0c-0.1,0.1-0.1,0.4,0,0.5l1.1,1.9l0.3,0.7c0.1,0.2,0.3,0.2,0.4,0.2C150.1,69.8,150.1,69.6,150.1,69.4z"
						/>
				</g>
				<g transform="matrix(0.4441,0,0,0.39775,0,0)">
					<path class="st1" d="M148.2,67.1C148.3,67.1,148.3,67.1,148.2,67.1L148.2,67.1c0.2-0.2,0.2-0.4,0.1-0.5
						c-0.1-0.2-0.3-0.2-0.5-0.1c-0.1,0.1-0.2,0.2-0.2,0.4c-0.1,0.2-0.1,0.6-0.1,0.8c-0.1,0.5-0.1,1.1-0.1,1.6
						c0.1,0.4,0.2,0.7,0.5,1.1c0.2,0.2,0.5,0.3,0.7,0.1c0.2-0.2,0.3-0.5,0.1-0.8c-0.1-0.2-0.2-0.4-0.2-0.7c-0.1-0.4-0.1-0.8-0.1-1.3
						C148.4,67.7,148.2,67.3,148.2,67.1z M148.3,67.1C148.3,67.1,148.2,67.1,148.3,67.1L148.3,67.1L148.3,67.1L148.3,67.1
						L148.3,67.1C148.3,67.1,148.3,67.1,148.3,67.1L148.3,67.1z"/>
				</g>
				<g transform="matrix(0.4441,0,0,0.39775,0,0)">
					<path class="st1" d="M148.5,69.7c0-0.2-0.2-0.4-0.3-0.6c-0.2-0.2-0.4-0.4-0.5-0.6c-0.4-0.3-0.8-0.7-1.2-0.8
						c-0.5-0.2-1-0.2-1.5,0.1c-0.1,0-0.2,0.2-0.2,0.3c0,0.1,0.2,0.2,0.3,0.2c0.3,0,0.6,0.1,0.9,0.2c0.4,0.2,0.9,0.5,1.2,0.8
						c0.1,0.1,0.3,0.2,0.4,0.3c0.1,0.1,0.2,0.2,0.3,0.3c0.1,0.2,0.2,0.3,0.4,0.2C148.4,70.1,148.5,69.9,148.5,69.7z"/>
				</g>
				<g transform="matrix(0.4441,0,0,0.39775,0,0)">
					<path class="st1" d="M145.7,68.6C145.7,68.6,145.7,68.5,145.7,68.6c0.1-0.1,0.1-0.2,0.1-0.2c0-0.2-0.1-0.4-0.3-0.4
						c-0.2-0.1-0.3,0-0.4,0.2c-0.1,0.1-0.1,0.3-0.1,0.4c-0.1,0.2-0.1,0.4-0.1,0.6c0,0.2,0,0.4,0,0.6c0.1,0.6,0.3,1.1,0.7,1.5
						c0.3,0.4,0.8,0.7,1.2,0.9c0.2,0.1,0.5,0,0.6-0.2c0.1-0.2,0-0.5-0.2-0.6c-0.4-0.2-0.7-0.6-1-1c-0.2-0.2-0.3-0.5-0.4-0.8
						l-0.1-0.9C145.7,68.7,145.7,68.6,145.7,68.6z M145.7,68.5C145.7,68.5,145.7,68.5,145.7,68.5C145.6,68.5,145.6,68.5,145.7,68.5
						L145.7,68.5l-0.1,0.1L145.7,68.5L145.7,68.5L145.7,68.5C145.7,68.6,145.7,68.5,145.7,68.5z"/>
				</g>
				<g transform="matrix(0.4441,0,0,0.39775,0,0)">
					<path class="st1" d="M146.5,71.9L146.5,71.9C146.5,71.9,146.5,72,146.5,71.9L146.5,71.9C146.5,71.9,146.5,71.9,146.5,71.9
						L146.5,71.9L146.5,71.9L146.5,71.9L146.5,71.9C146.5,71.9,146.6,71.9,146.5,71.9L146.5,71.9c0.2,0.2,0.3,0.2,0.4,0.1
						c0.2-0.1,0.2-0.3,0.1-0.5c-0.1-0.1-0.2-0.3-0.4-0.3c-0.3-0.1-0.8,0.1-1,0.1c-0.6,0.1-1.4,0.4-2,0.8c-0.2,0.1-0.3,0.3-0.5,0.5
						c-0.2,0.3-0.3,0.6-0.4,1c-0.1,0.2,0,0.4,0.2,0.4c0.2,0.1,0.3,0,0.4-0.2c0.1-0.2,0.3-0.4,0.5-0.6c0.2-0.2,0.3-0.3,0.5-0.5
						c0.4-0.3,1-0.5,1.4-0.6C145.9,72.1,146.3,71.9,146.5,71.9z"/>
				</g>
				<g transform="matrix(0.4441,0,0,0.39775,0,0)">
					<path class="st1" d="M143.1,74c0.1,0.1,0.3,0.1,0.5,0.1c0.3,0,0.6,0,0.9,0c0.5,0.1,1,0.2,1.5,0.2c0.4,0,0.7,0,1.1,0
						c0.2,0,0.3-0.2,0.3-0.4c0-0.2-0.2-0.4-0.4-0.4c-0.3,0-0.6,0-0.9,0c-0.5,0-1-0.1-1.5-0.2l-1.2-0.1c-0.2-0.1-0.4,0-0.4,0.2
						C142.8,73.7,142.9,73.9,143.1,74z"/>
				</g>
				<g transform="matrix(0.4441,0,0,0.39775,0,0)">
					<path class="st1" d="M147.1,74.6C147.1,74.6,147.1,74.6,147.1,74.6C147.1,74.6,147.2,74.6,147.1,74.6c0.2-0.1,0.3-0.4,0.2-0.6
						c-0.1-0.3-0.4-0.4-0.6-0.3c-0.1,0-0.2,0.1-0.3,0.2c-0.1,0.1-0.2,0.4-0.3,0.5c-0.4,0.7-0.5,1.3-0.6,1.9c0,0.5-0.1,1,0,1.5
						c0,0.1,0.1,0.2,0.1,0.3c0,0.2,0.2,0.4,0.4,0.4c0.2,0,0.4-0.2,0.4-0.5c0-0.2,0.1-0.3,0.1-0.4c0-0.6-0.1-1.1,0-1.6
						c0.1-0.4,0.2-0.7,0.4-1.1C147,74.9,147.1,74.5,147.1,74.6L147.1,74.6z"/>
				</g>
				<g transform="matrix(0.4441,0,0,0.39775,0,0)">
					<path class="st1" d="M146.2,78.7c0.2,0,0.4,0,0.6-0.1c0.3-0.1,0.5-0.2,0.7-0.3c0.3-0.2,0.7-0.5,1-0.8c0.5-0.5,0.9-1,1.2-1.5
						c0.1-0.2,0.1-0.4-0.1-0.6c-0.2-0.1-0.4-0.1-0.5,0.1c-0.3,0.4-0.6,0.7-1,1.1c-0.4,0.3-0.7,0.6-1.1,0.9l-1,0.6
						c-0.2,0-0.3,0.2-0.3,0.4C145.8,78.5,146,78.7,146.2,78.7z"/>
				</g>
				<g transform="matrix(0.4441,0,0,0.39775,0,0)">
					<path class="st1" d="M150.4,70.5c0.2,0,0.8,0,0.8,0c0.3,0.1,0.5,0.2,0.8,0.4c0.3,0.2,0.5,0.4,0.7,0.6c0.1,0.1,0.2,0.2,0.3,0.2
						c0.2,0.3,0.5,0.3,0.8,0.1c0.2-0.2,0.3-0.6,0.1-0.8c-0.1-0.2-0.2-0.4-0.4-0.6c-0.1-0.2-0.3-0.3-0.5-0.4
						c-0.5-0.3-1.1-0.5-1.7-0.6c-0.1,0-1,0.1-1.3,0.3c-0.2,0.1-0.3,0.3-0.3,0.5c0,0.1,0,0.3,0.1,0.4c0.1,0.1,0.3,0.2,0.5,0
						C150.4,70.6,150.4,70.6,150.4,70.5z"/>
				</g>
				<g transform="matrix(0.4441,0,0,0.39775,0,0)">
					<path class="st1" d="M153.2,71.8L153.2,71.8L153.2,71.8L153.2,71.8L153.2,71.8c0.1,0.1,0.1,0.1,0.1,0
						C153.3,71.9,153.2,71.9,153.2,71.8c0.1,0,0.1,0,0.1,0v0c0.1,0,0.1,0,0.2,0c0.2-0.1,0.3-0.3,0.2-0.5c0-0.1-0.2-0.3-0.4-0.3
						c-0.2,0-0.6,0.2-0.7,0.2c-0.3,0.1-0.6,0.1-0.8,0.2c-0.2,0-0.4,0.1-0.6,0.2c-0.2,0-0.3,0.2-0.3,0.4c0,0.2,0.2,0.3,0.3,0.3
						c0.2,0,0.4,0.1,0.6,0.1c0.3,0,0.6-0.1,0.9-0.2C152.8,72.1,153,71.9,153.2,71.8z"/>
				</g>
				<g transform="matrix(0.4441,0,0,0.39775,0,0)">
					<path class="st1" d="M151.3,72.4c0.4,0,0.8,0.2,1.1,0.5c0.6,0.4,1,1.1,1.3,1.7l0.3,0.4c0,0.2,0.2,0.3,0.4,0.2
						c0.2,0,0.3-0.2,0.2-0.4l-0.4-0.6c-0.3-0.7-0.9-1.4-1.5-1.9c-0.5-0.4-1-0.6-1.5-0.6c-0.2,0-0.3,0.2-0.3,0.4
						C151,72.2,151.1,72.4,151.3,72.4z"/>
				</g>
				<g transform="matrix(0.4441,0,0,0.39775,0,0)">
					<path class="st1" d="M154.2,74.3c-0.2,0.1-0.4,0-0.6,0c-0.4-0.1-0.7-0.3-1.1-0.5c-0.3-0.1-0.7-0.2-1.1-0.3c-0.1,0-0.2,0-0.2,0
						c-0.2-0.1-0.4,0-0.5,0.1c-0.1,0.2,0,0.4,0.1,0.5c0.1,0.1,0.3,0.3,0.4,0.3c0.3,0.2,0.7,0.2,1,0.2c0.5,0.1,0.9,0.4,1.4,0.4
						c0.2,0,0.5,0,0.7-0.1c0.2-0.1,0.3-0.3,0.2-0.5C154.6,74.4,154.4,74.3,154.2,74.3z"/>
				</g>
				<g transform="matrix(0.4441,0,0,0.39775,0,0)">
					<path class="st1" d="M150.9,74.4c0,0,0.1,0.1,0.1,0.2c0,0.1,0,0.1,0,0.2c0,0.2,0.1,0.3,0.1,0.5c0.1,0.2,0.1,0.5,0.1,0.7
						c0,0.2,0,0.5,0,0.7c0,0.2-0.1,0.5,0,0.7c0,0.1,0.1,0.1,0.1,0.2c0,0.2,0.2,0.3,0.4,0.3c0.2-0.1,0.3-0.3,0.2-0.5
						c0,0,0.1,0,0.1-0.1c0-0.2,0.1-0.4,0.1-0.5c0-0.3,0-0.6,0-0.9c0-0.3-0.1-0.6-0.2-0.9c0-0.1,0-0.4-0.1-0.5
						c-0.1-0.1-0.1-0.2-0.2-0.3c-0.1-0.1-0.3-0.3-0.4-0.4c-0.1,0-0.1-0.1-0.1-0.1c-0.4-0.1-0.5,0.1-0.4,0.3
						C150.7,74.1,150.7,74.2,150.9,74.4C150.8,74.3,150.9,74.4,150.9,74.4z"/>
				</g>
				<g transform="matrix(0.4441,0,0,0.39775,0,0)">
					<path class="st1" d="M151.6,77c-0.3-0.2-0.6-0.5-0.8-0.8c-0.2-0.3-0.4-0.7-0.6-1.1c-0.1-0.2-0.3-0.3-0.5-0.2
						c-0.2,0.1-0.3,0.4-0.2,0.6c0.3,0.6,0.5,1.1,0.9,1.5c0.3,0.3,0.5,0.5,0.9,0.7c0.2,0.1,0.4,0,0.4-0.2
						C151.8,77.3,151.8,77.1,151.6,77z"/>
				</g>
			</g>
		</g>
		<g>
			<g transform="matrix(0.4441,0,0,0.39775,0,0)">
				<path class="st0" d="M148.8,33.2c0,0,0.7-2-2.1-3.3c-2.8-1.3-2.7-3.8-3-3.6c0,0-0.9,2.6-0.2,3.9c0,0-1.7-2.5-5.4-1.1
					c0,0-3.7-0.2-4.4-1.7c0,0,1.6,5.4,3.8,6.2c0,0-3.6,0.1-5.4,2.3s-3.5,2.6-4.1,3.1c0,0,4.4,5.9,8.5,3c0,0-2,3-2.9,7.7
					c-0.9,4.7-4.3,6.7-4.4,6.7c0,0,7.5-1,11-3.9c3.5-2.9,4.3-4.5,4.3-4.5s-1.1,2.8-0.3,4.5c0.8,1.8,0.8,5.2,0.4,5.7
					c0,0,4.9-2.3,5.7-6.3c0.8-4,1-8.5,1-8.5s3.9,4.9,5.8,3.6c0,0-2.2-7.9-3.9-9.1c0,0,1.4-0.2,2.4,0.5
					C155.6,38.4,152.9,31.3,148.8,33.2z"/>
			</g>
			<g>
				<g transform="matrix(0.4441,0,0,0.39775,0,0)">
					<path class="st1" d="M137.5,41.3c-1,0.2-1.8,1.1-2.5,2.4c-1.1,2.3-1.8,5.7-2.7,7.4c-0.2,0.4-0.4,0.8-0.7,1.1
						c-0.4,0.6-0.8,1.2-1.3,1.7c-0.7,0.9-1.4,1.8-2,2.7c-0.2,0.3-0.1,0.6,0.1,0.8c0.2,0.2,0.6,0.2,0.7-0.1c1-1.3,2.1-2.4,3.1-3.7
						c0.4-0.6,0.8-1.2,1.1-1.9c0.8-1.7,1.3-5.3,2.3-7.6c0.5-1.1,1-1.9,1.8-2.1c0.2,0,0.3-0.2,0.3-0.4
						C137.8,41.3,137.6,41.2,137.5,41.3z"/>
				</g>
				<g transform="matrix(0.4441,0,0,0.39775,0,0)">
					<path class="st1" d="M129.5,56.7L129.5,56.7C129.5,56.7,129.5,56.7,129.5,56.7c0.1-0.1,0.1-0.1,0.1-0.1
						C129.6,56.6,129.6,56.6,129.5,56.7L129.5,56.7L129.5,56.7C129.5,56.7,129.5,56.7,129.5,56.7C129.5,56.8,129.6,56.7,129.5,56.7
						c0.2-0.1,0.3-0.1,0.4-0.1c1.3-0.3,4.5-0.8,4.8-0.9c2-0.6,4-1.6,5.8-2.9c1.8-1.3,3.3-3,4.5-4.9c0.2-0.2,0.1-0.6-0.1-0.7
						c-0.2-0.2-0.5-0.1-0.7,0.1c-1.2,1.8-2.7,3.3-4.4,4.5c-1.7,1.2-3.5,2.2-5.4,2.9c-0.3,0.1-3.5,0.8-4.7,1.1
						c-0.5,0.1-0.7,0.3-0.7,0.4c-0.1,0.2,0,0.4,0.2,0.5C129.3,56.8,129.4,56.8,129.5,56.7z"/>
				</g>
				<g transform="matrix(0.4441,0,0,0.39775,0,0)">
					<path class="st1" d="M145.2,48C145.2,48,145.2,47.9,145.2,48c0.4-1.1,0.1-1.6-0.6-0.4c0,0-0.1,0.2-0.2,0.3
						c-0.1,0.2-0.3,0.5-0.4,0.9c-0.3,0.8-0.5,1.7-0.6,2.3c0,0.5,0,1,0.1,1.5c0.2,1,0.6,2,0.6,3.1c0,0.2,0,0.4,0,0.6
						c0,0.3-0.2,0.5-0.2,0.8c-0.1,0.3-0.1,0.7-0.1,1c-0.1,0.2,0,0.4,0.2,0.5c0.2,0.1,0.4,0,0.4-0.2c0.2-0.3,0.4-0.5,0.5-0.8
						c0.1-0.2,0.2-0.4,0.2-0.7c0.1-0.4,0.2-0.8,0.1-1.3c-0.1-1.1-0.5-2.1-0.8-3.2c-0.1-0.4-0.2-0.8-0.1-1.2c0-0.8,0.5-2.3,0.7-3
						C145.1,48.1,145.2,48,145.2,48z M144.6,47.8c0,0.2,0.1,0.3,0.2,0.3c0.1,0,0.2,0,0.2,0C144.9,48.2,144.6,48.2,144.6,47.8z"/>
				</g>
				<g transform="matrix(0.4441,0,0,0.39775,0,0)">
					<path class="st1" d="M145.1,58.8c0-0.1,0-0.1,0.1-0.2c0.1-0.2,0.4-0.5,0.7-0.7c1-0.8,2.5-1.6,2.9-2.2c1.5-2,2.8-5.4,3-8.7
						c0.1-0.9,0.1-1.7,0-2.6c-0.2-1.4-0.6-2.6-1.3-3.6c-0.1-0.2-0.3-0.2-0.5-0.1c-0.2,0.1-0.2,0.4-0.1,0.6c0.5,1,0.7,2.2,0.8,3.4
						c0.1,1.2,0,2.4-0.2,3.6c-0.4,2.6-1.2,5.1-2.3,6.8c-0.5,0.7-2.2,1.7-3,2.6c-0.5,0.4-0.7,0.9-0.6,1.2c0,0.2,0.2,0.3,0.4,0.3
						C145,59.2,145.2,59,145.1,58.8z"/>
				</g>
				<g transform="matrix(0.4441,0,0,0.39775,0,0)">
					<path class="st1" d="M150.2,41.1c-0.1,0.3-0.1,0.6,0.1,1c0.2,0.6,0.7,1.2,0.9,1.5c0.8,1.2,1.8,2.5,3.1,3.3
						c0.9,0.5,1.8,0.7,2.9,0.6c0.2,0,0.4-0.2,0.4-0.5c0-0.2-0.2-0.4-0.4-0.4c-0.9,0.1-1.7-0.2-2.4-0.6c-1.1-0.7-2.1-1.8-2.9-2.9
						c-0.2-0.2-0.5-0.7-0.8-1.1c-0.1-0.2-0.3-0.4-0.2-0.6c0.1-0.2,0-0.4-0.2-0.5C150.4,40.8,150.2,40.9,150.2,41.1z"/>
				</g>
				<g transform="matrix(0.4441,0,0,0.39775,0,0)">
					<path class="st1" d="M157.3,46.4c-0.1-0.1-0.2-0.5-0.2-0.7c-0.2-0.7-0.4-1.4-0.5-1.7c-0.7-1.6-1.1-3.1-1.8-4.6
						c-0.3-0.6-0.7-1.2-1.2-1.8c-0.2-0.3-0.5-0.6-0.7-0.9c-0.2-0.2-0.5-0.4-0.8-0.5c-0.3-0.1-0.5,0.1-0.6,0.4
						c-0.1,0.3,0.1,0.6,0.4,0.7c0.1,0,0.3,0.1,0.4,0.2c0.2,0.2,0.4,0.5,0.6,0.8c0.6,0.7,1,1.4,1.3,2.2c0.5,1.2,0.9,2.5,1.5,3.9
						c0.2,0.3,0.6,1.8,1,2.4c0.3,0.5,0.7,0.6,1,0.2c0.1-0.2,0.1-0.4,0-0.5C157.6,46.3,157.4,46.3,157.3,46.4z M157.3,46.4
						C157.3,46.5,157.3,46.5,157.3,46.4C157.4,46.4,157.3,46.4,157.3,46.4z"/>
				</g>
				<g transform="matrix(0.4441,0,0,0.39775,0,0)">
					<path class="st1" d="M152.4,37.1c0-0.1,0-0.3-0.1-0.4c-0.2-0.1-0.4-0.1-0.5,0.1c-0.2,0.3-0.1,0.6,0.2,0.8
						c0.3,0.2,1,0.3,1.1,0.4c0.3,0.1,1.2,0.4,2,0.7c0.2,0.1,0.5,0.3,0.6,0.4c0.1,0.1,0.2,0.1,0.2,0.2c0,0.2,0.2,0.4,0.4,0.3
						c0.2,0,0.3-0.2,0.3-0.4c0-0.2-0.1-0.5-0.2-0.7c-0.1-0.2-0.4-0.4-0.6-0.5c-0.8-0.5-2.1-0.7-2.5-0.8
						C153.2,37.2,152.6,37.2,152.4,37.1z M152.4,37.1c0-0.1,0-0.2-0.1-0.1C152.3,37.1,152.3,37.1,152.4,37.1z"/>
				</g>
				<g transform="matrix(0.4441,0,0,0.39775,0,0)">
					<path class="st1" d="M156.3,38.5l-0.6-1.3c-0.6-1.2-1.4-2.7-2.5-3.7c-0.8-0.8-1.7-1.2-2.7-1.3c-0.3,0-0.6,0-0.8,0.1
						c-0.6,0.2-1.2,0.4-1.7,0.6c-0.2,0.1-0.3,0.3-0.3,0.5c0.1,0.2,0.3,0.4,0.5,0.3c0.4-0.1,0.9-0.3,1.4-0.4c0.3-0.1,0.6-0.1,0.8-0.1
						c0.8,0,1.5,0.5,2.1,1.1c1,1,1.8,2.3,2.5,3.3c0.2,0.3,0.3,0.6,0.5,0.9c0.1,0.2,0.2,0.3,0.3,0.4c0.1,0.1,0.3,0.1,0.5,0
						C156.5,38.9,156.5,38.6,156.3,38.5z"/>
				</g>
				<g transform="matrix(0.4441,0,0,0.39775,0,0)">
					<path class="st1" d="M137.2,41.7C137.1,41.7,137.1,41.8,137.2,41.7c-0.1-0.1-0.1-0.2-0.1-0.3c0,0,0,0,0-0.1c0-0.1,0,0,0,0.1
						c0,0-0.2,0.1-0.2,0.1c-0.8,0.1-1.6,0.5-2.4,0.6c-0.3,0-0.6,0.1-0.8,0c-0.5-0.1-1-0.4-1.5-0.6c-0.7-0.4-1.5-0.9-2.1-1.4
						c-0.6-0.4-1.2-1.2-1.9-1.6c-0.4-0.2-0.7-0.3-1.1-0.3c-0.2,0-0.4,0.1-0.4,0.4c0,0.2,0.1,0.4,0.3,0.4c0.4,0.1,0.7,0.3,1,0.6
						c0.5,0.5,1,1,1.5,1.4c0.7,0.5,1.4,1.1,2.2,1.5c0.6,0.3,1.1,0.5,1.7,0.7c0.4,0.1,0.8,0.1,1.2,0c0.8-0.2,1.5-0.6,2.3-0.7
						c0.2,0,0.8-0.4,0.9-0.7c0-0.1,0.1-0.1,0.1-0.2c0-0.2,0.1-0.4-0.2-0.4c-0.1,0,0-0.1-0.1-0.1c-0.1-0.1-0.3-0.1-0.5,0
						C137,41.4,137,41.6,137.2,41.7z"/>
				</g>
				<g transform="matrix(0.4441,0,0,0.39775,0,0)">
					<path class="st1" d="M127.6,38.8L127.6,38.8L127.6,38.8L127.6,38.8C127.5,38.7,127.5,38.7,127.6,38.8c-0.2-0.2-0.3-0.2-0.4-0.1
						c-0.2,0.1-0.2,0.3-0.1,0.5c0.1,0.2,0.3,0.3,0.5,0.3c0.4,0,1-0.3,1.2-0.3c0.5-0.2,0.9-0.5,1.3-0.8c0.6-0.5,1.1-1,1.6-1.4
						c1.2-1,2.3-1.8,3.4-2.2c0.8-0.3,1.6-0.3,2.6-0.2c0.4,0,0.7,0.1,1.2,0.1c0.2,0.1,0.5-0.1,0.6-0.4c0.1-0.3-0.1-0.5-0.3-0.6
						c-0.5-0.2-0.9-0.4-1.3-0.4c-0.8-0.1-1.5-0.1-2.1,0.1c-1.6,0.4-2.9,1.4-4.5,2.8c-0.5,0.5-1,1-1.6,1.5c-0.3,0.3-0.7,0.6-1.1,0.8
						C128.3,38.4,127.8,38.8,127.6,38.8z M127.5,38.7C127.5,38.7,127.5,38.7,127.5,38.7C127.5,38.8,127.5,38.8,127.5,38.7
						L127.5,38.7C127.5,38.7,127.5,38.7,127.5,38.7L127.5,38.7z"/>
				</g>
				<g transform="matrix(0.4441,0,0,0.39775,0,0)">
					<path class="st1" d="M138.6,34.6c0,0,0.1,0,0.1,0c0.5-0.1,1-0.7,0-0.7l0,0c0,0,0,0,0,0c0,0-0.1,0-0.1,0c0,0,0,0,0.1,0l0,0
						c0,0,0,0,0,0l0,0l0,0l0,0l0,0l0,0c-0.1-0.1-0.4-0.2-0.4-0.3c-0.4-0.3-0.7-0.6-1.1-0.9c-0.2-0.2-0.4-0.4-0.6-0.7
						c-0.6-0.6-0.9-1.5-1.3-2.3c-0.3-0.6-0.6-1.2-0.9-1.7c-0.2-0.4-0.5-0.7-0.7-1c-0.1-0.2-0.3-0.2-0.5,0c-0.1,0.1-0.2,0.4,0,0.5
						c0.3,0.6,0.6,1.2,0.8,1.8c0.3,0.7,0.6,1.3,0.9,1.9c0.3,0.6,0.7,1.1,1.1,1.5c0.2,0.2,0.5,0.5,0.7,0.7c0.4,0.3,0.8,0.6,1.2,0.9
						C138,34.4,138.5,34.6,138.6,34.6L138.6,34.6z"/>
				</g>
				<g transform="matrix(0.4441,0,0,0.39775,0,0)">
					<path class="st1" d="M133,27.6c0.2,0.6,0.8,1.1,1.5,1.4c0.9,0.5,2,0.7,2.6,0.7c1.1,0.1,2.3-0.4,3.5-0.4c0.4,0,0.8,0,1.2,0.3
						c0.2,0.1,0.4,0.3,0.6,0.5c0.3,0.3,0.6,0.7,0.9,1.1c0.2,0.2,0.5,0.3,0.7,0.1c0.2-0.2,0.2-0.5,0.1-0.8c-0.3-0.4-0.6-0.9-0.9-1.3
						c-0.3-0.3-0.6-0.6-0.9-0.7c-0.6-0.3-1.1-0.5-1.7-0.5c-1.1,0-2.3,0.6-3.4,0.6c-0.5,0-1.5-0.1-2.4-0.5c-0.5-0.2-1-0.5-1.2-0.9
						c-0.1-0.2-0.3-0.3-0.4-0.2C133,27.2,133,27.4,133,27.6z"/>
				</g>
				<g transform="matrix(0.4441,0,0,0.39775,0,0)">
					<path class="st1" d="M144.7,31.6c-0.1,0.1-0.2-0.1-0.3-0.3c-0.2-0.3-0.3-0.6-0.3-0.7c-0.2-0.6-0.3-1.4-0.3-2.1
						c0-0.7,0.1-1.5,0.3-2.1c0.1-0.2,0-0.5-0.2-0.7s-0.5,0-0.6,0.2c-0.3,0.7-0.5,1.6-0.5,2.5c0,0.9,0.2,1.8,0.5,2.5
						c0.1,0.3,0.5,0.9,0.9,1.2c0.3,0.2,0.6,0.3,0.8,0.1c0.2-0.1,0.2-0.3,0.2-0.5C145,31.6,144.8,31.5,144.7,31.6z"/>
				</g>
				<g transform="matrix(0.4441,0,0,0.39775,0,0)">
					<path class="st1" d="M143.5,26.3L143.5,26.3c-0.1,0,0,0.1,0.1,0.1c0.1,0.2,0.1,0.6,0.1,0.6c0.2,0.4,0.3,0.7,0.5,1
						c0.2,0.3,0.4,0.6,0.6,0.9c0.5,0.7,1.3,1.1,2,1.4c0.4,0.2,0.8,0.4,1.1,0.7c0.3,0.3,0.4,0.6,0.5,1.2c0,0.2,0,0.4,0,0.6
						c0,0.2,0,0.3-0.1,0.4c-0.1,0.2-0.1,0.5,0.1,0.6c0.2,0.2,0.4,0.1,0.6-0.1c0.1-0.2,0.2-0.4,0.3-0.7c0.1-0.3,0.1-0.6,0.1-0.9
						c0-0.9-0.2-1.5-0.7-2c-0.4-0.4-0.9-0.7-1.4-1c-0.6-0.3-1.3-0.5-1.8-1.1c-0.2-0.2-0.4-0.5-0.6-0.7c-0.2-0.2-0.3-0.5-0.5-0.8
						c0-0.1-0.2-0.5-0.2-0.7c-0.1-0.2-0.2-0.3-0.2-0.3c-0.2-0.1-0.4,0-0.4,0.2C143.5,26.1,143.5,26.2,143.5,26.3z M143.5,26.3
						c0,0,0.1,0.1,0.1,0.1l0,0l0,0c0,0,0,0,0,0C143.6,26.4,143.6,26.3,143.5,26.3z"/>
				</g>
				<g transform="matrix(0.4441,0,0,0.39775,0,0)">
					<path class="st1" d="M157.8,24.9c0,0,0-0.1,0-0.1c0,0-0.1,0,0,0c0.1,0.1-0.3,0.1-0.4,0.4c-0.2,0.3-0.3,0.7-0.4,0.9
						c-0.4,0.5-1,1.2-1.6,1.8c-0.4,0.3-0.7,0.7-1.1,0.8c-0.9,0.5-1.7,1-2.6,1.5c-1.3,0.8-2.5,1.8-3.6,2.8c-1.9,1.7-3.5,3.7-4.9,6
						c-0.1,0.2-0.1,0.5,0.1,0.7c0.2,0.2,0.5,0.1,0.6-0.1c1.5-2.1,3.2-3.8,5.1-5.2c1.1-0.9,2.3-1.6,3.6-2.3c0.8-0.5,1.6-0.9,2.5-1.4
						c0.5-0.3,1.1-0.7,1.5-1.3c0.7-0.7,1.3-1.6,1.7-2.2c0.1-0.2,0.3-0.6,0.4-1c0-0.2,0.1-0.4,0.1-0.6c0-0.4-0.1-0.6-0.1-0.7
						c-0.1-0.1,0-0.2-0.1-0.2c-0.2-0.1-0.3-0.4-0.4-0.2c0,0-0.1,0-0.1,0c0,0-0.2,0-0.2,0.3C157.8,24.8,157.8,24.8,157.8,24.9z
						 M157.9,25.2C157.9,25.2,158,25.2,157.9,25.2L157.9,25.2C158,25.2,157.9,25.2,157.9,25.2z M158.4,25.1c0,0-0.1,0.1-0.1,0.1l0,0
						C158.4,25.2,158.4,25.1,158.4,25.1C158.5,25.1,158.4,25.1,158.4,25.1z"/>
				</g>
				<g transform="matrix(0.4441,0,0,0.39775,0,0)">
					<path class="st1" d="M148.3,33.2c-0.9,0.4-1.7,0.6-2.6,0.8c-0.9,0.2-1.8,0.2-2.7,0.2c-0.2,0-0.4,0.2-0.4,0.4
						c0,0.2,0.2,0.4,0.3,0.4c1,0,1.9-0.1,2.8-0.3c0.9-0.2,1.9-0.5,2.8-0.8c0.2-0.1,0.3-0.3,0.2-0.5
						C148.7,33.2,148.5,33.1,148.3,33.2z"/>
				</g>
				<g transform="matrix(0.4441,0,0,0.39775,0,0)">
					<path class="st1" d="M149.1,32.6c-0.4,0.3-0.8,0.7-1.1,1.2c-0.3,0.5-0.5,1-0.6,1.5c-0.5,1.6-0.5,3.5-0.3,4.9
						c0,0.3,0.3,0.4,0.5,0.4c0.2,0,0.4-0.3,0.3-0.5c-0.2-1.1-0.1-2.4,0.1-3.7c0.2-0.7,0.4-1.4,0.7-2c0.2-0.4,0.4-0.8,0.8-1.1
						c0.1-0.1,0.2-0.3,0.1-0.5C149.4,32.6,149.2,32.5,149.1,32.6z"/>
				</g>
			</g>
		</g>
		<g>
			<g transform="matrix(0.4441,0,0,0.39775,0,0)">
				<path class="st0" d="M41.2,71.9c0,0-1.7-6-8.1-7.2c0,0,1.9,2.8,2.1,4.2c0,0-3.1-1.2-5.3,0.5c-2.2,1.7-3.9,2.3-4.3,2.4
					c0,0,1.5,2.9,3.7,3.1c0,0-5.3,6-4,9.8c0,0,3.1-2.6,4.9-2.3c0,0-2.5,2.8-3.5,12.3c0,0,7-0.8,11-7.4c0,0,1.6,6.9,5,6.1
					c0,0-0.9-4.7,0.6-7.5c0,0,2,3.4,3.9,3c0,0-0.7-4.1-0.5-6.4c0.1-2.3-2.3-4.9-2.5-4.9c0,0,3.5-0.3,4.3,1.4
					C48.4,78.9,45.9,71.1,41.2,71.9z"/>
			</g>
			<g transform="matrix(1.09861,0.747675,-0.932081,1.09861,908.514,-540.244)">
				<g transform="matrix(0.4441,0,0,0.39775,0,0)">
					<path class="st1" d="M-530.1,1703.7c-1.4-0.9-3-1.2-4.4-1.1c-1.5,0.1-2.9,0.6-4.1,1.2c-0.1,0.1-0.2,0.2-0.1,0.3
						c0.1,0.1,0.2,0.2,0.3,0.1c1.2-0.6,2.6-1.1,4-1.2c1.4-0.1,2.8,0.2,4.1,1c0.1,0.1,0.3,0,0.3-0.1
						C-529.9,1703.9-530,1703.8-530.1,1703.7z"/>
				</g>
				<g transform="matrix(0.4441,0,0,0.39775,0,0)">
					<path class="st1" d="M-537.4,1703.5c-0.1,0-0.1-0.1-0.2,0c-0.1,0-0.2,0.4,0.2,0.6c0.3,0.1,0.9,0.3,1.2,0.4l2.4,1.4
						c0.2,0.1,0.4,0,0.5-0.1c0.1-0.2,0-0.4-0.2-0.5c-0.5-0.3-0.9-0.6-1.4-0.9c-0.3-0.2-0.7-0.4-1-0.5
						C-536.4,1703.6-537.1,1703.5-537.4,1703.5C-537.4,1703.5-537.4,1703.5-537.4,1703.5z"/>
				</g>
				<g transform="matrix(0.4441,0,0,0.39775,0,0)">
					<path class="st1" d="M-533.8,1705.2c-0.3-0.2-0.7-0.3-1.1-0.2c-0.5,0.1-1,0.4-1.3,0.6c-0.5,0.4-0.9,0.8-1.1,1.3
						c-0.4,0.8-0.6,1.7-1,2.6c-0.1,0.3-0.3,0.7-0.5,1c-0.1,0.1-0.1,0.3,0,0.4c0.1,0.1,0.3,0.1,0.4,0c0.3-0.3,0.6-0.6,0.7-1
						c0.4-0.8,0.5-1.7,0.9-2.6c0.2-0.4,0.5-0.9,0.9-1.2c0.3-0.2,0.7-0.5,1.1-0.6c0.2-0.1,0.5-0.1,0.7,0.1c0.1,0.1,0.3,0.1,0.3-0.1
						C-533.6,1705.5-533.7,1705.3-533.8,1705.2z"/>
				</g>
				<g transform="matrix(0.4441,0,0,0.39775,0,0)">
					<path class="st1" d="M-538.7,1711.3c-0.1-0.2,0.7,0.2,0.8,0.2c0.7,0.1,1.3,0.2,1.8,0.2c0.6,0,1.1-0.1,1.8-0.4
						c0.2-0.1,0.3-0.3,0.2-0.5c-0.1-0.2-0.3-0.3-0.5-0.3c-0.5,0.1-0.9,0.2-1.3,0.2c-0.6,0.1-1.3,0.1-2,0c-0.2,0-0.7-0.1-1,0
						c-0.2,0-0.3,0.1-0.3,0.3c0,0.1,0,0.3,0.1,0.3C-538.9,1711.4-538.8,1711.4-538.7,1711.3z M-538.7,1711.3L-538.7,1711.3
						C-538.7,1711.3-538.7,1711.3-538.7,1711.3C-538.7,1711.3-538.7,1711.3-538.7,1711.3z"/>
				</g>
				<g transform="matrix(0.4441,0,0,0.39775,0,0)">
					<path class="st1" d="M-535.2,1711.2c-0.5,0.7-0.5,2.4-0.2,4c0.3,1.6,1,3.1,1.8,3.8c0.1,0.1,0.3,0.1,0.4,0
						c0.1-0.1,0.1-0.3-0.1-0.5c-0.7-0.6-1.2-2-1.5-3.4c-0.3-1.4-0.4-2.9-0.1-3.6c0.1-0.1,0-0.3-0.1-0.4
						C-535,1711.1-535.2,1711.1-535.2,1711.2z"/>
				</g>
				<g transform="matrix(0.4441,0,0,0.39775,0,0)">
					<path class="st1" d="M-532.8,1718.8c-0.1-0.1-0.1-0.3,0-0.6c0-0.3,0.2-0.5,0.2-0.7c0.2-0.4,0.4-0.7,0.6-1
						c0.6-0.8,1.2-1.6,1.8-2.2c0.1-0.1,0.1-0.3,0-0.5c-0.1-0.1-0.4-0.1-0.5,0c-0.5,0.6-1.2,1.2-1.7,1.9c-0.4,0.5-0.7,1-0.9,1.6
						c-0.1,0.2-0.2,0.7-0.2,1c0,0.3,0.1,0.6,0.3,0.8c0.1,0.1,0.3,0.1,0.4,0C-532.7,1719.1-532.7,1718.9-532.8,1718.8z"/>
				</g>
				<g transform="matrix(0.4441,0,0,0.39775,0,0)">
					<path class="st1" d="M-531,1714.2c-0.4,0.3-0.5,0.8-0.6,1.4c-0.1,0.8,0.1,1.8,0.2,2.3c0.4,1.1,0.9,2.1,1.5,3.1
						c0.4,0.6,0.8,1.2,1.1,1.9c0.3,0.7,0.6,1.3,0.7,2.1c0,0.1,0.1,0.2,0.3,0.2c0.1,0,0.2-0.1,0.2-0.2c0-0.9-0.2-1.7-0.5-2.4
						c-0.3-0.7-0.7-1.4-1.1-2c-0.5-0.9-1.1-1.8-1.5-2.9c-0.2-0.4-0.4-1.1-0.4-1.7c0-0.6,0.1-1.2,0.4-1.5c0.1-0.1,0.1-0.2,0-0.4
						C-530.7,1714.1-530.9,1714.1-531,1714.2z"/>
				</g>
				<g transform="matrix(0.4441,0,0,0.39775,0,0)">
					<path class="st1" d="M-527.8,1724.6c0.3-0.6,0.6-1.1,1-1.6c0.8-1.3,1.6-2.6,2-4.1c0.2-0.7,0.3-1.5,0.2-2.3
						c-0.1-0.7-0.2-1.5-0.5-2.3c0-0.1-0.2-0.2-0.3-0.2c-0.1,0-0.2,0.2-0.2,0.3c0.2,0.6,0.2,1.2,0.3,1.7c0.1,0.9,0,1.7-0.2,2.5
						c-0.4,1.4-1.1,2.6-1.8,4c-0.3,0.6-0.5,1.2-0.8,1.8c-0.1,0.1,0,0.3,0.1,0.3C-528,1724.7-527.8,1724.7-527.8,1724.6z"/>
				</g>
				<g transform="matrix(0.4441,0,0,0.39775,0,0)">
					<path class="st1" d="M-525.2,1713.3c-0.2,0.2-0.2,0.4-0.2,0.6c0,0.1,0,0.2,0,0.3c0,0.1,0.1,0.1,0.1,0.2c0.3,0.5,1,1.1,1.4,1.4
						c0.7,0.6,1.5,1,2.2,1.2c0.8,0.2,1.6,0.1,2.4-0.3c0.2-0.1,0.2-0.3,0.1-0.5c-0.1-0.2-0.3-0.3-0.5-0.2c-0.6,0.3-1.3,0.3-1.9,0.2
						c-0.6-0.2-1.3-0.5-1.9-1c-0.3-0.2-0.8-0.6-1.1-1c-0.1-0.1-0.1-0.2-0.2-0.3c0,0-0.1,0-0.1-0.1c0-0.1,0-0.1,0.1-0.2
						c0.1-0.1,0.1-0.2,0-0.4C-524.9,1713.2-525.1,1713.2-525.2,1713.3z"/>
				</g>
				<g transform="matrix(0.4441,0,0,0.39775,0,0)">
					<path class="st1" d="M-523.2,1710.6c0.2-0.1,0.3,0.7,0.4,0.8c0.7,1.2,0.9,2.4,1.6,3.4c0.4,0.7,1.1,1.2,2,1.7
						c0.2,0.1,0.4,0,0.4-0.1c0.1-0.2,0-0.4-0.2-0.5c-0.8-0.5-1.3-1-1.7-1.5c-0.7-1-1-2.2-1.8-3.3c-0.1-0.1-0.3-0.5-0.4-0.7
						c-0.1-0.1-0.2-0.2-0.3-0.3c-0.1-0.1-0.3,0-0.3,0.1C-523.4,1710.3-523.3,1710.5-523.2,1710.6z M-523.2,1710.6L-523.2,1710.6
						C-523.3,1710.6-523.2,1710.6-523.2,1710.6C-523.2,1710.6-523.2,1710.6-523.2,1710.6z"/>
				</g>
				<g transform="matrix(0.4441,0,0,0.39775,0,0)">
					<path class="st1" d="M-527,1697.4c-0.3-0.1-0.7,0.1-1,0.4c-0.5,0.4-0.8,1.3-1,1.6c-0.5,0.8-0.9,1.9-1.1,3
						c-0.2,1.1-0.2,2.3,0.1,3.3l1,3.3c0.1,0.2,0.2,0.3,0.4,0.3c0.2,0,0.3-0.2,0.2-0.4l-0.9-3.3c-0.2-0.9-0.2-2,0-3
						c0.2-1,0.5-2,1-2.7c0.2-0.3,0.4-0.9,0.7-1.4c0.1-0.1,0.2-0.2,0.3-0.3c0.1-0.1,0.1-0.2,0.2-0.2c0.2,0,0.3-0.1,0.3-0.2
						C-526.7,1697.5-526.9,1697.4-527,1697.4z"/>
				</g>
				<g transform="matrix(0.4441,0,0,0.39775,0,0)">
					<path class="st1" d="M-530.2,1703.8c-0.7,0.9-1.2,2-1.5,3.2c-0.3,1.2-0.5,2.4-0.6,3.6c0,0.2,0.1,0.3,0.3,0.4
						c0.2,0,0.3-0.1,0.3-0.2c0.1-0.7,0.2-1.4,0.4-2.1c0.1-0.7,0.3-1.4,0.5-2c0.3-0.9,0.6-1.7,1.1-2.5c0.1-0.1,0-0.3-0.1-0.4
						C-530,1703.7-530.1,1703.7-530.2,1703.8z"/>
				</g>
				<g transform="matrix(0.4441,0,0,0.39775,0,0)">
					<path class="st1" d="M-529.6,1704.8c0.2,0.5,0.6,1,1,1.4c0.6,0.6,1.3,1.1,1.9,1.5c0.1,0.1,0.3,0.1,0.4-0.1
						c0.1-0.1,0-0.3-0.1-0.4c-0.6-0.4-1.2-0.9-1.8-1.4c-0.3-0.4-0.6-0.8-0.8-1.2c-0.1-0.1-0.2-0.2-0.3-0.2
						C-529.6,1704.6-529.7,1704.7-529.6,1704.8z"/>
				</g>
				<g transform="matrix(0.4441,0,0,0.39775,0,0)">
					<path class="st1" d="M-523,1710.9c0.4,0.6,1.1,1,1.8,1.1c1,0.2,2.2,0,2.9-0.4c0.2-0.1,0.2-0.3,0.1-0.5
						c-0.1-0.2-0.3-0.2-0.5-0.2c-0.5,0.3-1.6,0.5-2.5,0.4c-0.6-0.1-1.1-0.3-1.4-0.8c-0.1-0.1-0.2-0.2-0.3-0.1
						C-523.1,1710.6-523.1,1710.8-523,1710.9z"/>
				</g>
				<g transform="matrix(0.4441,0,0,0.39775,0,0)">
					<path class="st1" d="M-529.3,1704.1c0-0.3,0.3-0.3,0.6-0.3c0.7-0.1,1.5,0.1,1.7,0.1c0.8,0,2.1,0.2,3.2,0.6
						c0.7,0.2,1.3,0.6,1.7,1.1c0.1,0.1,0.3,0.2,0.4,0.1c0.1-0.1,0.2-0.2,0.1-0.4c-0.4-0.8-1.1-1.3-1.9-1.6c-1.1-0.5-2.5-0.5-3.4-0.5
						c-0.2,0-1.4-0.1-2.1,0.1c-0.5,0.1-0.8,0.4-0.7,0.8c0,0.1,0.1,0.3,0.3,0.3C-529.3,1704.4-529.2,1704.3-529.3,1704.1z"/>
				</g>
				<g transform="matrix(0.4441,0,0,0.39775,0,0)">
					<path class="st1" d="M-522.1,1705.1c-0.1,0-0.2,0-0.3-0.1c-0.1,0-0.2-0.1-0.3-0.2c-0.4-0.1-0.9,0-1.4,0.1
						c-0.7,0.2-1.4,0.6-1.7,1.1c-0.1,0.1,0,0.3,0.1,0.5c0.2,0.1,0.3,0.1,0.4-0.1c0.2-0.3,0.6-0.5,1.1-0.6c0.4-0.1,0.8-0.1,1.2-0.2
						c0.1,0,0.2,0,0.3,0c0.1,0,0.2-0.1,0.3-0.1c0.1,0,0.2,0,0.3,0c0.1,0,0.3-0.1,0.3-0.2C-521.9,1705.3-522,1705.1-522.1,1705.1z"/>
				</g>
				<g transform="matrix(0.4441,0,0,0.39775,0,0)">
					<path class="st1" d="M-525.1,1706.1C-525.1,1706.1-525.1,1706-525.1,1706.1C-525.2,1706-525.2,1706-525.1,1706.1L-525.1,1706.1
						L-525.1,1706.1L-525.1,1706.1C-525.1,1706-525.1,1706.1-525.1,1706.1C-525.1,1706.1-525.2,1706-525.1,1706.1
						c-0.1-0.1-0.2-0.1-0.2-0.1c-0.2,0-0.4,0.4,0.1,0.5c0.2,0.1,0.6,0.2,0.8,0.3c0.3,0.1,0.6,0.3,0.8,0.4c0.3,0.2,0.5,0.3,0.8,0.5
						c0.3,0.2,0.6,0.6,1,0.9c0.3,0.3,0.6,0.7,0.8,1c0.2,0.3,0.4,0.6,0.6,0.8c0.2,0.2,0.3,0.4,0.5,0.5c0.3,0.2,0.6,0.5,0.9,0.6
						c0.2,0.1,0.4,0.1,0.7,0c0.2,0,0.3-0.2,0.2-0.4c-0.1-0.2-0.3-0.3-0.4-0.2l-0.9-0.7c-0.1-0.1-0.3-0.2-0.4-0.3
						c-0.2-0.2-0.3-0.5-0.5-0.7c-0.3-0.4-0.6-0.8-0.9-1.1c-0.3-0.4-0.7-0.7-1.1-1c-0.3-0.2-0.6-0.4-1-0.6c-0.3-0.2-0.7-0.3-1.1-0.3
						C-524.5,1706.1-524.9,1706.1-525.1,1706.1z"/>
				</g>
			</g>
		</g>
		<g>
			<g transform="matrix(0.243562,-0.178461,0.194949,0.213425,-250.847,721.059)">
				<path class="st0" d="M2304.7-1291.5c0,0-1.4-5.6-8.1-6.4c0,0,1.9,2.5,2,3.9c0,0-3.2-1-5.6,0.8c-2.4,1.8-4.2,2.5-4.6,2.5
					c0,0,1.5,2.7,3.7,2.8c0,0-5.9,6-4.7,9.6c0,0,3.4-2.7,5.2-2.5c0,0-2.7,2.8-4.3,12c0,0,7.3-1.2,11.9-7.8c0,0,1.4,6.5,4.9,5.6
					c0,0-0.7-4.5,1-7.3c0,0,2,3.1,3.9,2.7c0,0-0.5-3.9-0.2-6.1c0.2-2.2-2.2-4.6-2.3-4.6c0,0,3.7-0.5,4.5,1.1
					C2311.9-1285.2,2309.7-1292.5,2304.7-1291.5z"/>
			</g>
			<g>
				<g transform="matrix(0.4441,0,0,0.39775,0,0)">
					<path class="st1" d="M132,84.9c-1.4-0.9-2.8-1.1-4.3-0.9c-1.4,0.2-2.8,0.8-4.1,1.5c-0.2,0.1-0.2,0.3-0.1,0.5
						c0.1,0.2,0.3,0.2,0.4,0.1c1.2-0.7,2.5-1.3,3.8-1.5c1.3-0.2,2.6,0,3.9,0.8c0.2,0.1,0.4,0,0.5-0.1C132.2,85.2,132.1,85,132,84.9z
						"/>
				</g>
				<g transform="matrix(0.4441,0,0,0.39775,0,0)">
					<path class="st1" d="M124.9,85c-0.1,0-0.2,0-0.3,0c-0.1,0-0.3,0.6,0.2,0.8c0.2,0.1,0.8,0.3,1.1,0.4l2.2,1.3
						c0.2,0.1,0.5,0,0.6-0.2c0.1-0.3,0-0.6-0.2-0.7c-0.4-0.3-0.9-0.6-1.3-0.9c-0.3-0.2-0.7-0.3-1-0.5C126,85.1,125.3,85.1,124.9,85
						C125,85,124.9,85,124.9,85z"/>
				</g>
				<g transform="matrix(0.4441,0,0,0.39775,0,0)">
					<path class="st1" d="M128.3,86.7c-0.3-0.2-0.7-0.3-1.1-0.2c-0.5,0.1-1,0.4-1.3,0.7c-0.5,0.4-0.9,0.9-1.2,1.5
						c-0.5,0.9-0.7,1.8-1.1,2.7c-0.1,0.4-0.2,0.7-0.4,1c-0.1,0.2-0.1,0.4,0,0.6c0.1,0.1,0.4,0.1,0.5,0c0.3-0.3,0.6-0.6,0.8-1
						c0.7-1.3,0.7-3,1.9-4c0.3-0.2,0.6-0.5,1-0.6c0.2-0.1,0.4-0.1,0.6,0c0.2,0.1,0.4,0.1,0.5-0.1C128.5,87,128.5,86.8,128.3,86.7z"
						/>
				</g>
				<g transform="matrix(0.4441,0,0,0.39775,0,0)">
					<path class="st1" d="M123.3,93.5C123.3,93.4,123.3,93.4,123.3,93.5L123.3,93.5L123.3,93.5L123.3,93.5
						C123.4,93.4,123.4,93.4,123.3,93.5L123.3,93.5C123.3,93.5,123.4,93.5,123.3,93.5c0.2-0.1,0.6,0.2,0.7,0.2
						c0.7,0.1,1.2,0.2,1.8,0.1c0.6,0,1.1-0.2,1.8-0.5c0.3-0.1,0.4-0.4,0.3-0.7c-0.1-0.3-0.4-0.5-0.7-0.3c-0.5,0.2-0.8,0.2-1.2,0.3
						c-0.6,0.1-1.2,0.2-1.9,0.2c-0.2,0-0.7-0.1-1,0c-0.2,0.1-0.3,0.2-0.4,0.4c-0.1,0.2,0,0.4,0.2,0.5
						C123.1,93.6,123.2,93.6,123.3,93.5z"/>
				</g>
				<g transform="matrix(0.4441,0,0,0.39775,0,0)">
					<path class="st1" d="M126.5,93.1c-0.5,0.8-0.7,2.5-0.4,4.2c0.2,1.7,0.9,3.3,1.6,3.9c0.2,0.2,0.4,0.1,0.6-0.1
						c0.1-0.2,0.1-0.5-0.1-0.6c-0.6-0.5-1-1.9-1.2-3.4c-0.2-1.4-0.3-2.9,0.1-3.6c0.1-0.2,0.1-0.4-0.1-0.5
						C126.8,92.8,126.6,92.9,126.5,93.1z"/>
				</g>
				<g transform="matrix(0.4441,0,0,0.39775,0,0)">
					<path class="st1" d="M128.6,100.8c-0.1-0.1,0-0.3,0-0.5c0.1-0.3,0.2-0.5,0.3-0.7c0.2-0.4,0.4-0.7,0.7-1.1
						c0.6-0.9,1.3-1.7,1.8-2.4c0.2-0.2,0.2-0.5,0-0.7c-0.2-0.2-0.5-0.2-0.6,0c-0.6,0.6-1.2,1.3-1.8,2c-0.4,0.5-0.7,1.1-0.9,1.7
						c-0.1,0.3-0.3,0.9-0.2,1.4c0,0.3,0.1,0.6,0.3,0.7c0.1,0.2,0.3,0.2,0.5,0C128.7,101.2,128.7,101,128.6,100.8z"/>
				</g>
				<g transform="matrix(0.4441,0,0,0.39775,0,0)">
					<path class="st1" d="M130.5,95.9c-0.4,0.3-0.6,0.9-0.7,1.6c-0.1,0.9,0,1.9,0.1,2.5c0.3,1.3,0.9,2.5,1.5,3.6
						c0.4,0.7,0.8,1.4,1,2.1c0.2,0.5,0.3,0.9,0.3,1.4c0,0.2,0.2,0.3,0.3,0.3c0.2,0,0.3-0.2,0.3-0.4c0-0.9-0.1-1.7-0.4-2.5
						c-0.2-0.7-0.6-1.4-0.9-2.1c-0.5-0.9-1-1.8-1.3-2.9c-0.1-0.4-0.3-1.1-0.3-1.7c0-0.6,0.1-1.2,0.4-1.5c0.1-0.1,0.2-0.4,0.1-0.5
						C130.8,95.8,130.6,95.7,130.5,95.9z"/>
				</g>
				<g transform="matrix(0.4441,0,0,0.39775,0,0)">
					<path class="st1" d="M133.2,106.6c0.3-0.6,0.7-1.1,1-1.7c0.9-1.4,1.7-2.8,2.1-4.4c0.2-0.8,0.4-1.6,0.3-2.5
						c0-0.8-0.2-1.5-0.5-2.4c-0.1-0.2-0.2-0.3-0.4-0.3c-0.2,0.1-0.3,0.3-0.3,0.5c0.1,0.6,0.1,1.2,0.1,1.7c0,0.9-0.1,1.7-0.4,2.5
						c-0.4,1.5-1.2,2.8-1.9,4.2c-0.3,0.6-0.5,1.3-0.8,1.9c-0.1,0.2,0,0.4,0.1,0.5C132.9,106.9,133.1,106.8,133.2,106.6z"/>
				</g>
				<g transform="matrix(0.4441,0,0,0.39775,0,0)">
					<path class="st1" d="M136.1,94.6c-0.2,0.2-0.2,0.5-0.3,0.8c0,0.1-0.1,0.2,0,0.3c0,0.1,0,0.1,0.1,0.2c0.3,0.5,1,1.1,1.3,1.5
						c0.7,0.6,1.4,1,2.1,1.1c0.8,0.2,1.6,0,2.4-0.5c0.2-0.1,0.3-0.5,0.2-0.7c-0.1-0.3-0.4-0.4-0.6-0.2c-0.6,0.3-1.2,0.4-1.8,0.3
						c-0.6-0.1-1.2-0.4-1.7-0.9c-0.2-0.2-0.6-0.5-0.9-0.8c-0.1-0.1-0.2-0.3-0.3-0.4c0,0-0.1,0-0.1,0c0,0,0-0.1,0-0.1
						c0.1-0.1,0.1-0.4,0-0.5C136.4,94.5,136.2,94.5,136.1,94.6z"/>
				</g>
				<g transform="matrix(0.4441,0,0,0.39775,0,0)">
					<path class="st1" d="M138.1,91.8L138.1,91.8C138.1,91.8,138.2,91.8,138.1,91.8C138.2,91.8,138.1,91.8,138.1,91.8
						c0.2-0.1,0.3,0.7,0.4,0.8c0.6,1.2,0.7,2.4,1.4,3.5c0.4,0.7,1,1.3,1.9,1.7c0.2,0.1,0.5,0,0.6-0.2c0.1-0.2,0-0.5-0.2-0.7
						c-0.7-0.4-1.1-0.9-1.5-1.5c-0.6-1-0.9-2.2-1.6-3.3c-0.1-0.1-0.2-0.5-0.4-0.7c-0.1-0.2-0.2-0.3-0.3-0.3c-0.2-0.1-0.4,0-0.4,0.2
						C137.9,91.5,138,91.7,138.1,91.8z"/>
				</g>
				<g transform="matrix(0.4441,0,0,0.39775,0,0)">
					<path class="st1" d="M135.2,78.1c-0.2-0.1-0.5,0-0.7,0.1c-0.1,0.1-0.2,0.2-0.3,0.3c-0.5,0.5-0.8,1.4-1.1,1.7
						c-0.5,0.9-1,2-1.2,3.2c-0.3,1.2-0.3,2.4-0.1,3.5l0.8,3.4c0.1,0.3,0.3,0.4,0.5,0.3c0.2-0.1,0.4-0.3,0.3-0.6l-0.6-3.4
						c-0.1-0.9,0-2,0.2-3c0.2-1,0.6-2.1,1-2.9c0.1-0.3,0.4-0.8,0.6-1.2c0.1-0.2,0.3-0.4,0.4-0.5c0.1-0.1,0.1-0.2,0.1-0.2
						c0.2,0,0.4-0.2,0.4-0.4C135.6,78.3,135.4,78.1,135.2,78.1z"/>
				</g>
				<g transform="matrix(0.4441,0,0,0.39775,0,0)">
					<path class="st1" d="M131.8,85c-0.7,1-1.2,2.2-1.6,3.5c-0.4,1.2-0.6,2.5-0.8,3.8c0,0.2,0.1,0.5,0.3,0.5c0.2,0,0.4-0.1,0.5-0.4
						c0.1-0.7,0.3-1.4,0.5-2.2c0.2-0.7,0.3-1.4,0.5-2.1c0.3-0.9,0.7-1.8,1.1-2.6c0.1-0.2,0.1-0.4-0.1-0.6
						C132.1,84.8,131.9,84.9,131.8,85z"/>
				</g>
				<g transform="matrix(0.4441,0,0,0.39775,0,0)">
					<path class="st1" d="M132.3,86.2c0.2,0.5,0.5,1,0.9,1.4c0.5,0.6,1.2,1.1,1.7,1.5c0.2,0.1,0.4,0.1,0.5-0.1
						c0.1-0.2,0.1-0.4-0.1-0.5c-0.5-0.4-1.1-0.8-1.6-1.4c-0.3-0.3-0.6-0.7-0.7-1.2c-0.1-0.2-0.3-0.3-0.4-0.2
						C132.3,85.8,132.2,86,132.3,86.2z"/>
				</g>
				<g transform="matrix(0.4441,0,0,0.39775,0,0)">
					<path class="st1" d="M138.3,92.1c0.3,0.7,1,1,1.8,1.1c1,0.1,2.2-0.2,2.8-0.5c0.2-0.1,0.3-0.4,0.2-0.7c-0.1-0.2-0.4-0.3-0.6-0.2
						c-0.5,0.3-1.5,0.6-2.3,0.6c-0.5,0-1-0.2-1.3-0.6c-0.1-0.2-0.3-0.2-0.5-0.1C138.2,91.8,138.2,92,138.3,92.1z"/>
				</g>
				<g transform="matrix(0.4441,0,0,0.39775,0,0)">
					<path class="st1" d="M132.8,85.4c0-0.1,0.1-0.1,0.1-0.1c0.2-0.1,0.4-0.1,0.7-0.1c0.6,0,1.2,0,1.4,0c0.8,0,2,0.1,3,0.4
						c0.6,0.2,1.2,0.5,1.5,1c0.1,0.2,0.3,0.3,0.5,0.2c0.2-0.1,0.2-0.4,0.1-0.6c-0.3-0.8-1-1.4-1.8-1.7c-1.1-0.4-2.4-0.4-3.3-0.4
						c-0.2,0-1.3,0-2,0.3c-0.5,0.2-0.8,0.5-0.8,1c0,0.2,0.2,0.4,0.3,0.3C132.7,85.8,132.8,85.6,132.8,85.4z"/>
				</g>
				<g transform="matrix(0.4441,0,0,0.39775,0,0)">
					<path class="st1" d="M139.6,85.9c-0.1,0-0.2,0-0.3-0.1c-0.1-0.1-0.2-0.2-0.3-0.2c-0.4-0.1-0.9,0-1.4,0.2
						c-0.7,0.2-1.4,0.7-1.7,1.4c-0.1,0.2-0.1,0.5,0.1,0.6c0.2,0.1,0.4,0.1,0.6-0.1c0.2-0.2,0.4-0.4,0.7-0.5c0.4-0.2,0.9-0.2,1.3-0.3
						c0.2,0,0.3,0,0.5-0.1c0.1,0,0.1-0.1,0.2-0.2c0.1,0,0.2,0,0.2,0c0.2,0,0.3-0.1,0.4-0.3C139.9,86.1,139.7,85.9,139.6,85.9z"/>
				</g>
				<g transform="matrix(0.4441,0,0,0.39775,0,0)">
					<path class="st1" d="M136.7,87.1C136.7,87.1,136.7,87,136.7,87.1c-0.1-0.1-0.1-0.1-0.1-0.1v0L136.7,87.1L136.7,87.1
						C136.6,87,136.6,87,136.7,87.1C136.7,87,136.7,87.1,136.7,87.1c-0.1,0-0.1,0-0.1-0.1c-0.1,0-0.1,0-0.2,0c-0.3,0-0.6,0.5,0,0.8
						c0.2,0.1,0.6,0.2,0.7,0.3c0.3,0.1,0.6,0.3,0.9,0.5c0.2,0.1,0.4,0.3,0.6,0.4c0.3,0.2,0.6,0.5,0.8,0.9c0.3,0.3,0.5,0.7,0.7,1
						c0.2,0.3,0.3,0.6,0.5,0.8c0.2,0.2,0.3,0.4,0.5,0.5c0.3,0.2,0.6,0.5,0.9,0.6c0.3,0.1,0.5,0.1,0.7,0c0.2-0.1,0.4-0.4,0.3-0.6
						c-0.1-0.3-0.3-0.4-0.5-0.3l-0.7-0.7c-0.1-0.1-0.2-0.2-0.3-0.3c-0.2-0.2-0.3-0.5-0.4-0.7c-0.2-0.4-0.5-0.8-0.9-1.2
						c-0.3-0.4-0.7-0.7-1-1c-0.3-0.2-0.6-0.4-0.9-0.6c-0.3-0.1-0.7-0.2-1-0.3C137.3,87,136.9,87.1,136.7,87.1z M136.6,87.7
						L136.6,87.7C136.6,87.7,136.6,87.7,136.6,87.7L136.6,87.7L136.6,87.7z M136.8,87.3c0,0.1,0,0.1,0,0.1
						C136.8,87.4,136.8,87.4,136.8,87.3z"/>
				</g>
			</g>
		</g>
	</g>
	<g transform="matrix(1,0,0,1,-281.444,383.036)" class="st2">
		<g class="st3">
			<g transform="matrix(0.4441,0,0,0.39775,122.255,342.337)">
				<g id="Gray-Short.svg3" transform="matrix(0.681216,0,0,0.681216,1361.69,1133.76)">
					<g transform="matrix(1,0,0,1,-236.5,-283.5)">
						<g id="head-mono-Gray-Short3">
							<path class="st0" d="M-1139.3-3969.9c0,0-4.7,20.6,9.3,14.6c0,0,7.8,20.2,14.4,18.2c0,0,5.2,4.7,9.4,5.1
								c0,0,20.7,21.2,38-11.6c6.9-13,2.6-41.6-0.4-52.2c-1.3-4.6-1.5-9.4-1.7-10.7c0,0,8.9-6.2,2.4-9.2c0,0,4.7-7.2,3.8-7.9
								c-0.9-0.6-31-15.3-45.9-12.1c-15,3.3-22.1,5.3-27,12.6c-4.9,7.3-5,3.3-5.9,10.4C-1143.8-4005.6-1145.9-3974.1-1139.3-3969.9z
								"/>
							<path id="_xD83D__xDD8D_-Ink8" class="st1" d="M-1089.3-3924.5c-6.3,0.7-13.7-0.9-17.9-6.6c-0.1-0.2-0.2-0.4-0.2-0.6
								c0-0.2,0.1-0.4,0.2-0.6c0.1-0.2,0.3-0.3,0.5-0.3c0.2,0,0.3,0,0.5,0.1l0.4,0.2c2.9,1.8,5.8,3.3,9.1,3.9
								c3.3,0.7,6.7,0.6,10-0.3c6-1.5,10.9-5.4,14.5-10.6c4-5.8,6.4-13.1,7-20.4c0.7-8.8-1-17.6-2.8-26.2c-1.9-9-3.9-18-6.3-26.8
								c-0.1-0.3-0.1-0.5-0.1-0.7c-0.7-0.3-1.4-0.2-2.2,0.1c-1.4,0.5-2.7,1.7-3.8,2.6c-0.4,0.3-0.8,0.7-1.1,0.9
								c-1.4,1.1-2.9,1.8-4.6,2c-1.8,0.1-3.5-0.5-5.1-1.3c-0.8-0.4-1.6-0.8-2.4-1.2c-2.3-1.2-4.6-2.3-7-3c-3.3-1-6.7-1.5-10.2-1.4
								c-6.1,0.1-12.3,1.8-16,7.6c-1.5,2.3-2.5,5-1.7,7.9c0.4,1.6,1.2,3,2.1,4.3l0.3,0.4c0.5,0.7,0.9,1.4,1,2.2
								c0.1,0.6,0,1.3-0.4,2.1c-0.3,0.5-0.6,0.9-0.9,1.3c-0.2,0.3-0.5,0.6-0.7,0.9c-0.4,0.7-0.8,1.4-1.1,2.1c-0.6,1.4-0.8,3-0.9,4.5
								c-0.1,1.9,0.2,3.7,0.4,5.6c0.2,1.3,0.3,2.6,0.4,3.9c0,0.2-0.1,0.4-0.1,0.5c-0.1,0.2-0.3,0.3-0.4,0.3c-0.1,0-0.1,0-0.2,0
								c0,0.1,0.1,0.3,0.1,0.4c-0.1-0.2-0.2-0.3-0.4-0.5c0,0,0,0,0,0c-0.1-0.1-0.2-0.2-0.3-0.4c-0.2-0.2-0.4-0.4-0.6-0.5
								c-1-0.9-2.3-1.4-3.5-1.4c-1.2,0-2.4,0.4-3.3,1.4c-1.8,1.9-2.3,5-2.4,7.6c0,2.7,0.5,5.9,2.6,7.6c0.8,0.7,1.9,1.1,2.9,1.1
								c0.9,0,1.7-0.3,2.5-0.7c0.2-0.1,0.5-0.2,0.7-0.3c0.3-0.1,0.5-0.1,0.8,0c0.3,0.1,0.5,0.3,0.6,0.5c0.2,0.2,0.3,0.5,0.3,0.8
								c0,0.3,0,0.6-0.1,0.9c0,0.1-0.1,0.1-0.1,0.2l0.5,0.8c1.8,3.2,3.6,6.4,5.9,9.2c1.4,1.6,2.8,3.1,4.4,4.4l0.2,0.2
								c0.1,0.1,0.3,0.2,0.4,0.4c0.5,0.4,1,1,1.5,1c0.2,0,0.3,0,0.4,0c0.3,0,0.5-0.1,0.8,0.1c0.2,0.1,0.4,0.3,0.6,0.6
								c0.1,0.2,0.2,0.5,0.2,0.8c0,0.3-0.1,0.6-0.2,0.8c-0.3,0.5-0.6,0.8-0.9,1c-0.4,0.2-0.8,0.2-1.3,0.1c-1.1-0.2-2.3-1.3-3.1-1.9
								l-0.2-0.1c-1.7-1.5-3.4-3.1-4.8-4.9c-2.5-3.1-4.7-6.8-5.8-10.8c-0.8,0.6-1.8,0.9-2.8,0.9c-1.5,0.1-3.1-0.4-4.3-1
								c-2.6-1.4-4.2-4-4.9-6.9c-0.9-3.5-0.6-7.4,0.5-10.5c0-0.1,0.1-0.2,0.1-0.3c-3.3-9.4-4.4-19.9-4.1-29.9
								c0.1-4.7,0.4-9.6,1.4-14.2c0.4-2.1,1.2-4,2.5-5.6c0.7-0.9,1.6-1.6,2.4-2.4c0.8-0.6,1.5-1.2,2.1-2l0.3-0.4
								c0.1-0.1,0.1-0.2,0.2-0.2c1.1-1.4,2.2-2.7,3.5-3.8c1.5-1.3,3.2-2.3,5-3.1c3.8-1.8,7.9-2.9,12-3.7c8.8-1.8,17.8-1.9,26.5,0.6
								c4,1.2,8,2.8,11.9,4.4c0.4,0.1,0.7,0.3,1.1,0.4c3,1.2,6.1,2.5,9.1,3.7c1.4,0.6,2.8,1.2,4.2,1.7c0.3,0.1,0.6,0.4,0.8,0.7
								c0.2,0.3,0.2,0.7,0.1,1.1c-0.9,2.5-2,4.8-3.3,6.9c0.5,0.4,0.9,0.8,1.2,1.4c0.4,0.7,0.6,1.5,0.6,2.4c0.1,2.9-2.3,4.9-4.3,6.3
								c-0.2,0.1-0.4,0.2-0.5,0.2c1.9,8.1,3.7,16.3,5.3,24.5l0.1,0.6c1.6,8.6,2.6,17.4,1.1,26.1c-1.3,7.5-4.3,14.8-9,20.4
								C-1076.3-3928.7-1082.6-3925.3-1089.3-3924.5z M-1130.6-3974c-0.8-2.9-1.3-6.1-0.9-9c0.2-1.9,0.7-3.6,1.5-5.3
								c0.5-0.9,1-1.8,1.7-2.6l0.2-0.3c0.1-0.1,0.2-0.3,0.2-0.4c0-0.1,0-0.2-0.1-0.3c-0.1-0.3-0.3-0.5-0.5-0.8
								c-0.1-0.2-0.2-0.3-0.3-0.5c-1.8-2.7-3.1-6-2.7-9.4c0.4-3.4,2.4-6.5,4.5-8.9c4.6-5.2,11.8-6.4,18.1-6.1
								c3.7,0.2,7.3,0.9,10.8,2.1c1.7,0.6,3.4,1.4,5,2.2l0.4,0.2c0.2,0.1,0.4,0.2,0.6,0.3c1.3,0.7,2.6,1.4,3.9,1.8
								c2.7,0.7,4.5-0.8,6.5-2.4c0.7-0.5,1.3-1.1,2-1.6l0.1-0.1c1.3-0.8,2.8-1.4,4.3-1.4c1.3,0,2.5,0.5,3.5,1.6
								c0.2,0.2,0.3,0.5,0.4,0.7c0.1,0.2,0.2,0.4,0.3,0.6c0.4,1.5,0.7,3,1.1,4.6l0.3-0.2c0.9-0.6,1.8-1.4,2.2-2.4
								c0.2-0.4,0.1-1.1-0.1-1.6c-0.1-0.2-0.2-0.3-0.3-0.4c-0.1-0.1-0.2-0.1-0.3-0.1c-0.3,0-0.6,0-0.9-0.1c-0.3-0.1-0.5-0.4-0.7-0.6
								c-0.2-0.3-0.2-0.6-0.2-1c0-0.3,0.1-0.6,0.4-0.9c1.5-1.9,2.7-4,3.7-6.3l-6.3-2.6c-2.2-0.9-4.5-1.8-6.7-2.8l-1.2-0.5
								c-4.1-1.7-8.2-3.3-12.4-4.4c-8.4-2.1-17.2-1.6-25.6,0.4l-0.5,0.1c-3.5,0.9-7.1,1.9-10.3,3.7c-1.6,0.9-3.1,2-4.4,3.3
								c-0.6,0.6-1.1,1.3-1.6,1.9c-0.7,0.9-1.5,1.8-2.3,2.6l-0.8,0.7c-1.2,1.1-2.3,2.1-2.9,3.8c-0.7,1.7-1,3.7-1.3,5.5
								c-0.7,4.7-1,9.5-0.9,14.3c0,8,1.1,15.9,2.5,23.7c1.1-1.8,2.7-3.1,4.7-3.4c1.3-0.2,2.6,0.1,3.7,0.7
								C-1131.7-3975.1-1131.1-3974.7-1130.6-3974z M-1132.7-3964.5c-1.5-0.6-3-0.8-4.5-0.5c-0.2,0-0.3,0-0.4-0.1
								c-0.1-0.1-0.2-0.2-0.3-0.4c-0.1-0.2-0.1-0.4,0-0.5c0-0.1,0.1-0.3,0.3-0.4c1.7-0.9,3.5-1.3,5.4-1l0.2,0
								c0.9,0.2,2.3,0.5,3.3,1.1c0.8,0.5,1.3,1.2,1.5,2.1c0.1,0.5,0,1-0.3,1.3c-0.2,0.3-0.6,0.6-1.1,0.6c-0.8,0-1.3-0.4-1.9-0.9
								c-0.1-0.1-0.1-0.1-0.2-0.2C-1131.4-3963.8-1132-3964.2-1132.7-3964.5z"/>
						</g>
					</g>
				</g>
			</g>
			<g id="Smile-Teeth-Gap.svg2" transform="matrix(0.291546,0,0,0.261117,739.948,804.811)">
				<g transform="matrix(1,0,0,1,-144.5,-146.5)">
					<g id="face-Smile-Teeth-Gap2">
						<path id="_xD83D__xDD8D_-Ink9" class="st1" d="M-1274.7-4312.4c1.6,1.1,4.2,3.7,2.4,6.5c-2.1,2.4-5.1-0.4-6.6-1.6
							c-1.4-1-2.9,1.5-1.6,2.7c10.7,8.8,15-7.3,6.7-8.9C-1274.8-4313.8-1275.1-4312.7-1274.7-4312.4z M-1289.5-4333.7l0.4-0.1l0.2,0
							c1.2-0.2,2.7-0.4,3.5,0.7c0.5,0.6,0.6,1.7,0,2.3c-1.1,1-2.4,0.6-3.7,0.7c-1.1,0.1-2.2,0.3-3.2,0.6c-2.3,0.7-4.3,2.1-6.3,3.6
							c-0.3,0.2-0.5-0.2-0.4-0.5c1.2-2.5,3.4-4.6,5.6-5.9C-1292.2-4332.8-1290.9-4333.4-1289.5-4333.7z M-1278.7-4298.8
							c3.6,0.3,11.3-1.6,14.6,1.2c12.1,16.9-36,21.3-30.8,2.6C-1291.6-4301-1284-4298.6-1278.7-4298.8z M-1279.3-4288.5
							c-0.9-0.1-2,0.7-2.2,1.3c-0.3,0.6-0.2,1.9-0.2,2.1c1.5,0.2,3.1,0.2,4.7,0.1C-1277.4-4286.5-1277.4-4288.3-1279.3-4288.5z
							 M-1272.2-4286c-0.2-1.8-1.4-2.3-2.4-2c-1,0.3-1.6,1.5-1.5,2.7c0,0.1,0,0.1-0.1,0.2C-1274.8-4285.4-1273.5-4285.6-1272.2-4286
							z M-1283.2-4288.2c-0.6-0.9-1.9-1.4-2.7-1.2c-1.4,0.3-1.6,2.3-1.6,2.7c1.3,0.5,2.7,0.9,4,1.2c0.3,0.1,0.5,0.1,0.8,0.2l0-0.2
							C-1282.7-4286.1-1282.6-4287.3-1283.2-4288.2z M-1267.4-4288.4c-1.4-2.5-4.5-0.7-4.3,2c0.3-0.1,0.5-0.2,0.8-0.3
							C-1269.7-4287.1-1268.4-4287.6-1267.4-4288.4z M-1278.6-4296.9c-1.9-0.2-3.5-0.1-4.8,0.1l0,0.5c-0.1,1.6-0.3,3.2,0.4,3.9
							c0.6,0.5,2.7,0.5,4.1,0.1C-1278.6-4292.4-1278.1-4295.8-1278.6-4296.9z M-1275.7-4297.1c-0.3,1.6-0.5,3.5,0.2,4.1
							c0.7,0.6,2.8,0.5,3.3,0.1c0.5-0.4,0.5-2,0.3-3.8C-1273-4296.9-1274.8-4297.1-1275.7-4297.1z M-1284.2-4296.7l-0.6,0l-0.4,0
							c-0.9,0-1.9,0.1-2.8,0.3c-1.8,4.4,4.8,5.2,3.8-0.1L-1284.2-4296.7z M-1271-4296.6l0,0.2c-0.1,1.2,0,2.9,0.6,3.3
							c0.9,0.6,2.6,0.5,3.5-2.5C-1267.2-4296.4-1270.5-4296.6-1271-4296.6z M-1288.8-4322.9c0.4,0,0.8,0.1,1.1,0.4
							c0.3,0.3,0.6,0.7,0.9,1.1c0.5,0.9,0.8,2.2,0.8,3.6s-0.3,2.7-0.8,3.6c-0.2,0.5-0.5,0.9-0.9,1.1c-0.3,0.3-0.7,0.4-1.1,0.4
							c-0.4,0-0.8-0.1-1.1-0.4c-0.3-0.3-0.6-0.7-0.9-1.1c-0.5-0.9-0.8-2.2-0.8-3.6s0.3-2.7,0.8-3.6c0.2-0.5,0.5-0.9,0.9-1.1
							C-1289.5-4322.8-1289.1-4322.9-1288.8-4322.9z M-1264.3-4322.9c0.4,0,0.8,0.1,1.1,0.4c0.3,0.3,0.6,0.7,0.9,1.1
							c0.5,0.9,0.8,2.2,0.8,3.6s-0.3,2.7-0.8,3.6c-0.2,0.5-0.5,0.9-0.9,1.1c-0.3,0.3-0.7,0.4-1.1,0.4c-0.4,0-0.8-0.1-1.1-0.4
							c-0.3-0.3-0.6-0.7-0.9-1.1c-0.5-0.9-0.8-2.2-0.8-3.6s0.3-2.7,0.8-3.6c0.2-0.5,0.5-0.9,0.9-1.1
							C-1265.1-4322.8-1264.7-4322.9-1264.3-4322.9z M-1267.6-4334.8l0.3,0.1l0.2,0c3.4,0.8,7.7,2.4,9.2,6.1c0.1,0.5,0,0.6-0.1,0.7
							l0,0c0,0.1-0.1,0.1-0.3,0.2c-0.1,0-0.1,0-0.2,0c-0.7-0.2-1.3-0.5-1.9-0.8l-0.6-0.3c-0.7-0.4-1.4-0.8-2.2-1
							c-1.6-0.6-3.3-1-5-1.2c-0.4,0-0.7-0.2-1-0.4c-0.3-0.2-0.5-0.5-0.6-1c-0.1-0.5-0.1-0.9,0.2-1.4c0.2-0.4,0.5-0.6,0.8-0.8
							C-1268.4-4334.8-1268-4334.9-1267.6-4334.8z"/>
					</g>
				</g>
			</g>
		</g>
	</g>
</g>
<g class="st2">
	<g transform="matrix(0.4441,0,0,0.39775,-345.369,-236.477)" class="st3">
		<g id="Gray-Short.svg" transform="matrix(0.681216,0,0,0.681216,1361.69,1133.76)">
			<g transform="matrix(1,0,0,1,-236.5,-283.5)">
				<g id="head-mono-Gray-Short">
					<path id="_xD83D__xDD8D_-Ink" class="st4" d="M-473.8-374.7c-6.3,0.7-13.7-0.9-17.9-6.6c-0.1-0.2-0.2-0.4-0.2-0.5
						c0-0.2,0.1-0.4,0.2-0.6c0.1-0.2,0.3-0.3,0.5-0.3c0.2,0,0.3,0,0.5,0.1l0.4,0.2c2.9,1.8,5.8,3.3,9.1,3.9c3.3,0.7,6.7,0.6,10-0.2
						c6-1.5,10.9-5.4,14.5-10.6c4-5.8,6.4-13,7-20.4c0.7-8.9-1-17.6-2.8-26.2c-1.9-9-3.9-18-6.3-26.8c-0.1-0.3-0.1-0.5-0.1-0.8
						c-0.7-0.3-1.5-0.2-2.2,0.1c-1.4,0.5-2.7,1.7-3.8,2.6c-0.4,0.3-0.8,0.7-1.1,0.9c-1.4,1.1-2.9,1.8-4.6,2
						c-1.8,0.1-3.5-0.5-5.1-1.3c-0.8-0.4-1.6-0.8-2.4-1.2c-2.3-1.1-4.5-2.3-7-3c-3.3-1-6.7-1.5-10.2-1.5c-6.1,0.1-12.3,1.8-16,7.6
						c-1.5,2.3-2.5,5-1.7,7.9c0.4,1.6,1.2,3,2.1,4.3l0.3,0.5c0.5,0.7,0.9,1.4,1,2.2c0.1,0.6,0,1.3-0.4,2.1c-0.3,0.5-0.6,0.9-0.9,1.3
						c-0.2,0.3-0.5,0.6-0.7,0.9c-0.4,0.6-0.8,1.4-1.1,2.1c-0.6,1.4-0.8,3-0.8,4.5c-0.1,1.9,0.2,3.7,0.4,5.6c0.2,1.3,0.3,2.6,0.4,3.9
						c0,0.2,0,0.4-0.1,0.5c-0.1,0.2-0.3,0.2-0.5,0.3c0,0-0.1,0-0.2,0c0,0.1,0,0.2,0.1,0.4c-0.1-0.2-0.2-0.3-0.4-0.5c0,0,0,0,0,0
						c-0.1-0.1-0.2-0.2-0.3-0.4c-0.2-0.2-0.4-0.4-0.6-0.5c-1-0.9-2.3-1.4-3.5-1.4c-1.2,0-2.4,0.4-3.3,1.4c-1.8,1.9-2.3,5-2.4,7.6
						c0,2.7,0.5,5.9,2.6,7.6c0.8,0.7,1.9,1.1,2.9,1.1c0.9,0,1.7-0.3,2.5-0.6c0.2-0.1,0.5-0.2,0.8-0.3c0.3-0.1,0.5-0.1,0.8,0
						c0.2,0.1,0.5,0.3,0.6,0.5c0.2,0.2,0.3,0.5,0.3,0.8c0,0.3,0,0.6-0.1,0.9c0,0.1-0.1,0.1-0.1,0.2l0.5,0.9c1.8,3.2,3.6,6.4,5.9,9.2
						c1.4,1.6,2.8,3.1,4.4,4.4l0.2,0.2c0.1,0.1,0.3,0.2,0.5,0.4c0.5,0.4,1,1,1.5,1c0.1,0,0.3,0,0.4,0c0.3,0,0.5-0.1,0.8,0
						c0.2,0.1,0.4,0.2,0.6,0.6c0.1,0.2,0.2,0.5,0.2,0.8c0,0.3-0.1,0.6-0.2,0.8c-0.3,0.5-0.6,0.8-0.9,1c-0.4,0.2-0.8,0.2-1.3,0.1
						c-1.1-0.2-2.3-1.3-3.1-1.9l-0.1-0.1c-1.7-1.5-3.4-3.1-4.8-4.9c-2.5-3.1-4.7-6.8-5.8-10.8c-0.8,0.6-1.8,0.9-2.8,0.9
						c-1.5,0.1-3.1-0.4-4.3-1c-2.6-1.4-4.2-4-4.9-6.9c-0.8-3.5-0.6-7.4,0.5-10.5c0-0.1,0.1-0.2,0.1-0.3c-3.3-9.4-4.3-19.9-4.1-29.9
						c0.1-4.7,0.4-9.6,1.4-14.2c0.5-2.1,1.2-4,2.5-5.6c0.7-0.9,1.6-1.6,2.4-2.4c0.8-0.6,1.5-1.2,2.1-2l0.3-0.4
						c0.1-0.1,0.1-0.2,0.2-0.2c1.1-1.4,2.2-2.7,3.5-3.8c1.5-1.3,3.2-2.3,5-3.1c3.8-1.8,7.9-2.9,12-3.7c8.8-1.8,17.8-1.9,26.5,0.6
						c4,1.2,8,2.8,11.9,4.4c0.4,0.1,0.7,0.3,1.1,0.5c3,1.2,6.1,2.5,9.1,3.7c1.4,0.6,2.8,1.2,4.2,1.7c0.3,0.1,0.6,0.4,0.8,0.7
						c0.2,0.3,0.2,0.7,0.1,1.1c-0.9,2.5-2,4.8-3.3,6.9c0.5,0.4,0.9,0.8,1.1,1.4c0.4,0.7,0.6,1.5,0.6,2.4c0,2.9-2.3,4.9-4.3,6.3
						c-0.2,0.1-0.4,0.2-0.5,0.2c1.9,8.1,3.7,16.3,5.3,24.5l0.1,0.6c1.6,8.6,2.6,17.4,1.1,26.1c-1.3,7.5-4.3,14.8-9,20.4
						C-460.9-378.9-467.1-375.4-473.8-374.7z M-515.2-424.2c-0.8-2.9-1.3-6.1-0.9-9c0.2-1.9,0.7-3.6,1.5-5.3c0.5-0.9,1-1.8,1.7-2.6
						l0.2-0.3c0.1-0.1,0.2-0.3,0.2-0.4c0-0.1,0-0.2,0-0.3c-0.1-0.3-0.3-0.5-0.5-0.8c-0.1-0.2-0.2-0.3-0.3-0.5
						c-1.8-2.7-3.2-6-2.7-9.4c0.4-3.4,2.4-6.5,4.5-8.9c4.6-5.2,11.8-6.4,18.1-6.1c3.7,0.2,7.3,0.9,10.8,2.1c1.7,0.6,3.4,1.4,5,2.2
						l0.4,0.2c0.2,0.1,0.4,0.2,0.6,0.3c1.3,0.7,2.6,1.4,4,1.8c2.7,0.7,4.5-0.8,6.5-2.4c0.7-0.5,1.3-1.1,2-1.6l0.1-0.1
						c1.3-0.8,2.8-1.4,4.3-1.4c1.3,0,2.5,0.5,3.5,1.6c0.2,0.2,0.3,0.5,0.4,0.7c0.1,0.2,0.2,0.4,0.3,0.6c0.4,1.5,0.7,3,1.1,4.5
						l0.3-0.2c0.9-0.6,1.8-1.4,2.2-2.4c0.2-0.4,0.1-1.1-0.1-1.6c-0.1-0.2-0.2-0.3-0.3-0.4c-0.1-0.1-0.2-0.1-0.4-0.1
						c-0.3,0-0.6,0-0.9-0.1c-0.3-0.1-0.5-0.4-0.7-0.6c-0.2-0.3-0.2-0.6-0.2-1c0-0.3,0.1-0.6,0.4-0.9c1.5-1.9,2.7-4,3.7-6.3l-6.3-2.6
						c-2.2-0.9-4.5-1.9-6.7-2.8l-1.2-0.5c-4.1-1.7-8.2-3.3-12.4-4.4c-8.4-2.1-17.2-1.6-25.6,0.4l-0.5,0.1c-3.5,0.9-7.1,1.9-10.3,3.7
						c-1.6,0.9-3.1,2-4.4,3.3c-0.6,0.6-1.1,1.3-1.6,1.9c-0.7,0.9-1.5,1.8-2.3,2.6l-0.8,0.7c-1.2,1.1-2.3,2.1-2.9,3.8
						c-0.7,1.7-1,3.7-1.3,5.5c-0.7,4.7-1,9.5-0.9,14.3c0,8,1.1,15.9,2.5,23.7c1.1-1.8,2.7-3.1,4.7-3.4c1.3-0.2,2.6,0.1,3.7,0.7
						C-516.2-425.3-515.7-424.8-515.2-424.2z M-517.2-414.7c-1.5-0.6-3-0.8-4.5-0.5c-0.2,0-0.3,0-0.4-0.1c-0.1-0.1-0.2-0.2-0.3-0.4
						c-0.1-0.2-0.1-0.4,0-0.5c0-0.1,0.1-0.3,0.3-0.4c1.7-0.9,3.5-1.3,5.4-1l0.2,0c0.9,0.2,2.3,0.5,3.3,1.1c0.8,0.5,1.3,1.2,1.5,2.1
						c0.1,0.5,0,1-0.3,1.3c-0.2,0.4-0.6,0.6-1.1,0.6c-0.8,0-1.3-0.4-1.9-0.9c-0.1-0.1-0.2-0.1-0.2-0.2
						C-516-414-516.6-414.4-517.2-414.7z"/>
				</g>
			</g>
		</g>
		<g id="Eyes-Closed.svg" transform="matrix(0.734096,0,0,0.734096,1398.38,1156.31)">
			<g transform="matrix(1,0,0,1,-144.5,-146.5)">
				<g id="face-Eyes-Closed">
					<path id="_xD83D__xDD8D_-Ink1" class="st4" d="M-558.4-520.4l0.2,0c1.2-0.3,2.4-0.8,3.5,0.1c1.1,0.8,1.2,2.3,0.4,3.3
						c-0.9,1.1-2,1-3.2,1h-0.1c-1,0-2,0-3-0.1c-0.9-0.1-1.9-0.2-2.8-0.4l-0.5-0.1c-0.5-0.1-1.1-0.3-1.4-0.9c-0.5-1,3.2-1.9,3.6-2
						C-560.6-519.9-559.5-520.1-558.4-520.4z M-556.3-533c-0.6,0.7-1.4,1.2-2.2,1.4c-2.2,0.7-5,0.3-6.8-0.4
						c-0.4-0.2-0.7-0.5-0.9-0.9c-0.2-0.4-0.2-0.8-0.1-1.2c0-0.1,0.1-0.2,0.1-0.4c0.1-0.3,0.4-0.6,0.7-0.7c0.3-0.2,0.7-0.2,1-0.1
						c0,0,0.1,0,0.1,0c1.1,0.4,3,1.1,4.5,0.9c0.9-0.1,1.7-0.4,2.2-1.4c0.2-0.5,0.2-1,0-1.4c-0.3-0.7-0.9-1.3-1.4-1.7
						c-0.7-0.6-1.5-0.8-2.2-1c-0.3-0.1-0.6-0.2-0.9-0.3c-0.1,0-0.2-0.1-0.2-0.2s-0.1-0.2-0.1-0.3s0-0.2,0-0.3c0-0.1,0.1-0.2,0.2-0.2
						c1.5-0.8,3.5-0.3,5,0.9c0.7,0.6,1.4,1.4,1.7,2.2c0.3,0.8,0.5,1.7,0.4,2.6C-555.4-534.4-555.8-533.6-556.3-533z M-581.3-550
						c0.4-0.2,0.8,0.8,0.9,1l0.2,0.6c0.3,0.9,0.6,1.8,1.3,2.5c0.5,0.6,1.4,1,2,0.4c0.6-0.6,0.3-1.3,0.4-2.1c0.2-1.4,1.8-2.8,2.8-1.3
						c2.3,3.2-1.2,7.8-4.5,7c-1.7-0.4-3-1.9-3.5-3.6l0-0.1C-582.2-546.8-582.5-549.4-581.3-550z M-551.9-547.7L-551.9-547.7
						c-1.1-2.8,2.8-4,3.1-1.5l0,0.2c0.3,2.8-0.3,6.5-3.4,6.7c-3.4,0.3-4.8-3.9-4.5-7c0-0.5,0.7-0.6,0.8-0.1l0,0.1
						c0.5,1.6,1.1,4.5,3,4.5C-551.4-544.8-551.5-546.7-551.9-547.7z M-549.4-555.7c2-0.1,1.9,3.3,0,3.4c-6.5,0.2-13,0.4-19.5,0.4
						l-1.2,0c-6.1,0-12.2,0.1-18.3-0.4c-0.5,0-0.4-0.9,0-0.8c6.4-1,12.8-1.3,19.3-1.7C-562.5-555.2-556-555.4-549.4-555.7z"/>
				</g>
			</g>
		</g>
	</g>
</g>
</svg>
