<?xml version="1.0" encoding="utf-8"?>
<!-- Generator: Adobe Illustrator 24.2.0, SVG Export Plug-In . SVG Version: 6.00 Build 0)  -->
<svg version="1.1" id="图层_1" xmlns="http://www.w3.org/2000/svg" xmlns:xlink="http://www.w3.org/1999/xlink" x="0px" y="0px"
	 viewBox="0 0 85 85" style="enable-background:new 0 0 85 85;" xml:space="preserve">
<style type="text/css">
	.st0{fill-rule:evenodd;clip-rule:evenodd;}
	.st1{fill-rule:evenodd;clip-rule:evenodd;fill:#FFFFFF;}
	.st2{display:none;}
	.st3{display:inline;}
	.st4{fill-rule:evenodd;clip-rule:evenodd;fill:#040000;}
</style>
<g>
	<g>
		<g transform="matrix(0.4441,0,0,0.39775,-1.03733,10.8913)">
			<path class="st0" d="M128.6,90.5c0.7-0.8,1.8-1.6,3-2.3c1.9-1.2,4-2.2,5.2-2.8c4.2-2.3,8.6-4.2,13.1-5.8c4.5-1.6,9-2.9,13.6-3.8
				l8.2-1.4c0.3-0.1,1.7-0.3,2.5-0.7c0.2-0.1,0.3-0.4,0.3-0.3v-0.1c0.1,0,0.2,0,0.2-0.1c0.1,0,0.1-0.1,0.1-0.1c0.2-0.1,0-0.3,0-0.4
				s-0.2-0.3-0.8-0.4c-0.1,0-0.1,0-0.2,0c-0.8,0.1-2.1,0.4-2.4,0.5c-1.4,0.2-2.8,0.3-4.2,0.6c-1.4,0.2-2.8,0.5-4.1,0.8
				c-4.7,1-9.2,2.4-13.7,4.1s-8.9,3.8-13.1,6.2c-1.2,0.7-3.4,1.8-5.2,3c-1.3,0.8-2.5,1.8-3.2,2.7c-0.2,0.2-0.2,0.4-0.1,0.6
				s0.4,0.4,0.4,0.5c0.1,0.1,0.4,0.1,0.5-0.1s0.1-0.4,0-0.5C128.8,90.6,128.7,90.5,128.6,90.5z M128.5,90.5
				C128.6,90.4,128.5,90.3,128.5,90.5C128.5,90.4,128.5,90.4,128.5,90.5z M174.4,73.2L174.4,73.2L174.4,73.2L174.4,73.2L174.4,73.2
				L174.4,73.2z M174.3,73.2L174.3,73.2L174.3,73.2L174.3,73.2z M174.2,73L174.2,73L174.2,73z M174.2,72.7L174.2,72.7L174.2,72.7
				L174.2,72.7L174.2,72.7z"/>
		</g>
		<g transform="matrix(0.4441,0,0,0.39775,-1.03733,10.8913)">
			<path class="st0" d="M174,74.3c0.1,0.5,0.1,1.1,0.2,1.6c0.2,1,0.4,2,0.6,2.2c0.2,0.2,0.4,0.3,0.6,0.1c0.2-0.2,0.2-0.5,0.1-0.7
				c-0.1-0.2-0.2-1-0.3-1.8s-0.3-1.6-0.4-2.1c-0.1-0.4-0.2-0.6-0.3-0.6c-0.2-0.1-0.3-0.1-0.4-0.1c-0.1,0-0.2,0.1-0.2,0.3
				c0,0.1,0,0.3,0,0.7C173.9,74.2,173.9,74.3,174,74.3z M174.6,73.8c0.2,0,0.2-0.1,0-0.2C174.6,73.6,174.6,73.7,174.6,73.8z"/>
		</g>
		<g transform="matrix(0.495421,0,0,0.539681,-187.043,-259.296)">
			<path class="st0" d="M532.1,557.9c-1.7,0.1-3.5-0.1-5.3-0.1c-0.8,0-1.5,0-2.3,0.1c-4.9,0.4-9.8,1.2-14.6,2.4
				c-4.7,1.2-9.4,2.8-13.9,4.8c-1,0.5-2.9,1-4.4,1.6c-0.7,0.3-1.4,0.7-1.8,1c-0.2,0.1-0.2,0.4,0,0.5c0.1,0.1,0.4,0.2,0.6,0
				c0.4-0.3,1-0.6,1.7-0.9c1.5-0.6,3.4-1.1,4.5-1.6c4.5-1.9,9.1-3.5,13.8-4.7c4.7-1.2,9.6-2,14.5-2.5c2-0.2,4-0.1,6-0.1
				c0.5,0,1,0,1.5-0.1c0.2,0,0.3-0.1,0.3-0.3C532.4,558,532.2,557.8,532.1,557.9z"/>
		</g>
		<g transform="matrix(0.461961,0,0,0.406273,-52.1903,-3.73262)">
			<path class="st0" d="M165,116.8c-0.8-0.8-1.3-1.8-1.8-2.8c-1.1-2.5-1.5-5.3-2.6-7.9c-0.6-1.5-1.4-3-2.3-4.6
				c-1.3-2.3-2.7-4.5-3.9-6.4c-2.1-3.3-4.6-6.4-7.3-9.2c-4.1-4.2-8.6-7.9-12.9-11.3c-2.1-1.6-5.1-4.5-8.2-6.3
				c-2.2-1.3-4.5-2.1-6.5-1.6c-0.2,0-0.3,0.2-0.2,0.4c0,0.2,0.2,0.3,0.3,0.3c1.9-0.3,4,0.5,6.1,1.8c3.1,1.9,6,4.9,8,6.5
				c4.2,3.4,8.7,7.1,12.8,11.3c2.7,2.8,5.2,5.8,7.2,9c1.2,1.8,2.6,4.1,4,6.3c0.9,1.5,1.7,3,2.3,4.4c1.1,2.6,1.6,5.4,2.7,7.9
				c0.5,1.1,1.1,2.1,2,3c0.1,0.1,0.3,0.1,0.5,0C165.1,117.2,165.1,117,165,116.8z"/>
		</g>
		<g transform="matrix(0.4441,0,0,0.39775,-1.03733,10.8913)">
			<path class="st0" d="M9,31.2c-0.5,1.3-0.5,4.5-1.1,6.9c-0.2,1-0.6,1.8-1.2,2.3c-0.2,0.1-0.2,0.4-0.1,0.6c0.2,0.1,0.4,0.2,0.6,0
				c0.7-0.6,1.1-1.6,1.4-2.7c0.6-2.4,0.5-5.5,1.1-6.8c0.1-0.2,0-0.4-0.2-0.5S9.1,31,9,31.2z"/>
		</g>
		<g transform="matrix(0.4441,0,0,0.39775,-1.03733,10.8913)">
			<path class="st0" d="M7.6,40.9C7.6,40.8,7.5,40.8,7.6,40.9L7.6,40.9C7.5,40.8,7.5,40.8,7.6,40.9L7.6,40.9L7.6,40.9L7.6,40.9
				C7.6,40.9,7.6,40.9,7.6,40.9C7.5,40.8,7.5,40.8,7.6,40.9L7.6,40.9c-0.1-0.2-0.2-0.3-0.4-0.2c-0.2,0-0.3,0.2-0.3,0.4
				s0.3,0.5,0.9,0.7c1.4,0.5,4.7,1.2,6.4,1.9c2,0.7,4,1.7,5.9,2.7c4.5,2.5,8.8,5.6,13.1,8.3c3.6,2.2,6.2,4.4,8.4,7
				c4.3,5.2,7.3,11.8,14.5,22.5c0.1,0.2,0.3,0.2,0.5,0.1s0.2-0.4,0.1-0.5C49.4,72.9,46.4,66.2,42.1,61c-2.2-2.7-4.8-5-8.6-7.3
				c-3.7-2.3-7.4-4.9-11.2-7.2c-2.6-1.5-5.2-2.9-8-3.8c-1.7-0.6-5-1.3-6.4-1.7C7.8,40.9,7.7,40.9,7.6,40.9z"/>
		</g>
		<g transform="matrix(0.4441,0,0,0.39775,-1.03733,10.8913)">
			<path class="st0" d="M124.5,51.7c-0.1-0.4,0.5-2.1,1.2-4.1c1.5-3.9,3.7-9,4-9.9c3.3-8.6,7.2-16.4,12-23.4c2-2.9,4.1-5.6,6.3-8.2
				c3.3-3.8,6.9-7.5,10.8-10.8c0.2-0.1,0.2-0.4,0.1-0.6c-0.1-0.2-0.4-0.2-0.5-0.1c-4.1,3.3-7.8,6.9-11.1,10.7
				c-2.3,2.6-4.4,5.4-6.3,8.3c-4.8,7.1-8.7,15-12,23.7c-0.3,0.8-2.5,6-4,9.9c-0.8,2.3-1.4,4.2-1.2,4.7c0.1,0.2,0.3,0.3,0.4,0.2
				C124.4,52.1,124.5,51.9,124.5,51.7z"/>
		</g>
		<g transform="matrix(0.4441,0,0,0.39775,-1.03733,10.8913)">
			<path class="st0" d="M159.5-4.4c0.1,0.9,0.4,2.4,0.9,3.5c0.4,0.8,1,1.4,1.7,1.4c0.2,0,0.3-0.1,0.4-0.3c0-0.2-0.1-0.4-0.3-0.4
				c-0.4-0.1-0.6-0.5-0.9-1c-0.7-1.3-1-3.3-1.2-3.9c-0.1-0.3-0.3-0.4-0.4-0.5c-0.1,0-0.3,0-0.4,0.2c0,0.1-0.1,0.3-0.1,0.6
				C159.2-4.6,159.3-4.4,159.5-4.4L159.5-4.4z M160-4.9C160.1-4.9,160.1-5,160-4.9L160-4.9z"/>
		</g>
		<g transform="matrix(0.4441,0,0,0.39775,-1.03733,10.8913)">
			<path class="st0" d="M161.2-0.6c-1.5-0.4-3.6,0.7-5.7,2.5c-4.1,3.4-8.6,9.3-10,11c-3.3,4-6.5,9.1-9.5,14.6
				c-1.7,3-3.3,6.2-4.9,9.4c-2.5,5-4.7,9.9-6.9,14.3c-0.1,0.2,0,0.4,0.1,0.5s0.3,0,0.4-0.1c2.6-5,5.4-10.7,8.3-16.5
				c1.9-3.7,3.8-7.4,5.8-10.8c2.3-4,4.7-7.8,7.1-10.8c1.3-1.6,5.8-7.5,9.9-10.8c1.9-1.6,3.8-2.6,5.1-2.3c0.2,0.1,0.4-0.1,0.4-0.3
				C161.5-0.3,161.4-0.5,161.2-0.6z"/>
		</g>
		<g transform="matrix(0.4441,0,0,0.39775,-1.03733,10.8913)">
			<path class="st0" d="M62.9,29.9c-0.7-2.7-1-6.1-1.4-9.6c-0.2-2.2-0.4-4.4-0.9-6.5c-0.5-2.4-1.2-4.6-2.3-6.7
				c-1.1-2-2.4-3.7-3.8-5.4c-3.2-3.8-7-7.2-9.9-11.4c-0.1-0.1-0.2-0.2-0.4-0.1s-0.1,0.3-0.1,0.4c2.8,4.3,6.5,7.8,9.6,11.7
				C55,4,56.3,5.7,57.3,7.6c1.1,1.9,1.8,4.1,2.3,6.3c0.5,2.1,0.8,4.3,1.1,6.4c0.4,3.6,0.6,7,1.4,9.7c0.1,0.2,0.3,0.3,0.4,0.3
				C62.8,30.3,62.9,30.1,62.9,29.9z"/>
		</g>
		<g transform="matrix(0.4441,0,0,0.39775,-1.03733,10.8913)">
			<path class="st0" d="M44.4-9.7c-0.8-0.1-1.4,0.2-1.9,0.9C42-8.3,41.6-7.5,41-6.5c-0.3,0.5-0.6,1-0.9,1.5c-0.1,0.1-0.1,0.4,0,0.5
				s0.3,0.1,0.4,0c0.4-0.5,0.8-1,1.1-1.5c0.6-0.9,1-1.8,1.4-2.3C43.3-8.7,43.7-9,44.3-9c0.2,0,0.4-0.1,0.4-0.4
				C44.7-9.5,44.6-9.7,44.4-9.7z"/>
		</g>
		<g transform="matrix(0.4441,0,0,0.39775,-1.03733,10.8913)">
			<path class="st0" d="M40-4.6c1.8,2.2,3.8,4,5.8,6c2.6,2.6,5.3,5.3,8,9.5c2.9,4.5,5.8,10.5,8.5,19.6c0.1,0.2,0.3,0.3,0.4,0.2
				c0.2-0.1,0.3-0.3,0.2-0.5c-2.6-9.2-5.4-15.4-8.3-20c-2.7-4.2-5.5-7.1-8.2-9.6c-2-1.9-4-3.7-5.9-5.8c-0.1-0.2-0.4-0.2-0.5,0
				C39.8-5,39.8-4.8,40-4.6z"/>
		</g>
		<g transform="matrix(0.4441,0,0,0.39775,-1.03733,10.8913)">
			<path class="st0" d="M31.9,23.6c-0.1-0.1-0.3-0.4-0.4-0.6c-0.4-0.8-0.8-2-1.1-2.6c-0.3-0.5-0.6-0.6-0.8-0.6
				c-0.2,0-0.6,0.5-0.8,1.2c-0.3,0.9-0.6,2.3-0.6,3.2c0,0.1,0,0.2,0,0.4l0,0h-0.1c-0.6,0-1.4,0.1-2,0.1c-0.4,0.1-0.7,0.2-0.9,0.3
				c-0.6,0.6-0.5,1.1,0.1,1.6c0.5,0.5,1.7,0.9,2.4,1.5L27,32.3c0,0.3,0.1,0.5,0.3,0.6c0.2,0.1,0.5,0,0.6-0.2c0,0,0.9-1.3,1.8-2.2
				c0.4-0.4,0.9-0.8,1.2-0.7c0.7,0.3,1.5,1.7,2.2,2.3c0.4,0.3,0.8,0.4,1.1,0.4h-0.1c0,0,0.4-0.1,0.5-0.3c0.2-0.4,0.3-0.9,0.2-1.5
				c-0.1-0.7-0.6-1.6-0.9-2.4c-0.2-0.5-0.3-0.9-0.3-1.2c0.1-0.4,0.4-0.9,0.7-1.3c0.7-1,1.5-1.9,1.5-1.9c0.1-0.1,0.2-0.3,0.1-0.5
				c0-0.2-0.2-0.3-0.4-0.4l-0.4-0.1c-0.8-0.1-1.7,0.3-2.5,0.4C32.4,23.6,32.1,23.6,31.9,23.6z M29.7,21.4c0.2,0.6,0.5,1.3,0.8,1.9
				c0.3,0.7,0.7,1.3,1,1.4s0.6,0.1,0.9,0.1c0.6,0,1.3-0.3,1.9-0.5c-0.3,0.3-0.5,0.6-0.8,1c-0.4,0.6-0.8,1.2-0.9,1.7
				c-0.1,0.4-0.1,0.9,0,1.4c0.2,0.7,0.6,1.6,0.9,2.3c0.1,0.3,0.2,0.6,0.2,0.8c-0.2-0.1-0.3-0.2-0.5-0.4c-0.5-0.5-0.9-1.1-1.4-1.6
				c-0.3-0.3-0.6-0.5-0.9-0.6c-0.5-0.2-1.1,0.1-1.7,0.5c-0.4,0.3-0.8,0.7-1.1,1.1l0.4-2.5c0-0.2,0-0.4-0.2-0.5
				c-0.6-0.6-1.8-1.1-2.4-1.6c0,0,0.1,0,0.2,0c0.5-0.1,1.2,0,1.7-0.1c0.3-0.1,0.6-0.1,0.7-0.2v-0.1c0.2-0.1,0.3-0.2,0.3-0.4h-0.1
				c0-0.1,0.1-0.4,0.2-0.8C29.3,23.4,29.5,22.2,29.7,21.4z"/>
		</g>
		<g transform="matrix(0.4441,0,0,0.39775,72.6644,-38.3433)">
			<path class="st0" d="M-97.9,117.2c-0.1-0.1-0.3-0.4-0.4-0.6c-0.4-0.8-0.8-2-1.1-2.6c-0.3-0.5-0.6-0.6-0.8-0.6
				c-0.2,0-0.6,0.5-0.8,1.2c-0.3,0.9-0.6,2.3-0.6,3.2c0,0.1,0,0.2,0,0.4l0,0h-0.1c-0.6,0-1.4,0.1-2,0.1c-0.4,0.1-0.7,0.2-0.9,0.3
				c-0.6,0.6-0.5,1.1,0.1,1.6c0.5,0.5,1.7,0.9,2.4,1.5l-0.7,4.2c0,0.3,0.1,0.5,0.3,0.6c0.2,0.1,0.5,0,0.6-0.2c0,0,0.9-1.3,1.8-2.2
				c0.4-0.4,0.9-0.8,1.2-0.7c0.7,0.3,1.5,1.7,2.2,2.3c0.4,0.3,0.8,0.4,1.1,0.4h-0.1c0,0,0.4-0.1,0.5-0.3c0.2-0.4,0.3-0.9,0.2-1.5
				c-0.1-0.7-0.6-1.6-0.9-2.4c-0.2-0.5-0.3-0.9-0.3-1.2c0.1-0.4,0.4-0.9,0.7-1.3c0.7-1,1.5-1.9,1.5-1.9c0.1-0.1,0.2-0.3,0.1-0.5
				c0-0.2-0.2-0.3-0.4-0.4l-0.4-0.1c-0.8-0.1-1.7,0.3-2.5,0.4C-97.4,117.3-97.7,117.3-97.9,117.2z M-100.1,115.1
				c0.2,0.6,0.5,1.3,0.8,1.9c0.3,0.7,0.7,1.3,1,1.4s0.6,0.1,0.9,0.1c0.6,0,1.3-0.3,1.9-0.5c-0.3,0.3-0.5,0.6-0.8,1
				c-0.4,0.6-0.8,1.2-0.9,1.7c-0.1,0.4-0.1,0.9,0,1.4c0.2,0.7,0.6,1.6,0.9,2.3c0.1,0.3,0.2,0.6,0.2,0.8c-0.2-0.1-0.3-0.2-0.5-0.4
				c-0.5-0.5-0.9-1.1-1.4-1.6c-0.3-0.3-0.6-0.5-0.9-0.6c-0.5-0.2-1.1,0.1-1.7,0.5c-0.4,0.3-0.8,0.7-1.1,1.1l0.4-2.5
				c0-0.2,0-0.4-0.2-0.5c-0.6-0.6-1.8-1.1-2.4-1.6c0,0,0.1,0,0.2,0c0.5-0.1,1.2,0,1.7-0.1c0.3-0.1,0.6-0.1,0.7-0.2v-0.1
				c0.2-0.1,0.3-0.2,0.3-0.4h-0.1c0-0.1,0.1-0.4,0.2-0.8C-100.5,117.1-100.3,115.9-100.1,115.1z"/>
		</g>
		<g transform="matrix(0.4441,0,0,0.39775,233.503,25.3507)">
			<path class="st0" d="M-381.2-3.9c-0.1-0.1-0.3-0.4-0.4-0.6c-0.4-0.8-0.8-2-1.1-2.6c-0.3-0.5-0.6-0.6-0.8-0.6
				c-0.2,0-0.6,0.5-0.8,1.2c-0.3,0.9-0.6,2.3-0.6,3.2c0,0.1,0,0.2,0,0.4l0,0h-0.1c-0.6,0-1.4,0.1-2,0.1c-0.4,0.1-0.7,0.2-0.9,0.3
				c-0.6,0.6-0.5,1.1,0.1,1.6c0.5,0.5,1.7,0.9,2.4,1.5l-0.7,4.2c0,0.3,0.1,0.5,0.3,0.6c0.2,0.1,0.5,0,0.6-0.2c0,0,0.9-1.3,1.8-2.2
				c0.4-0.4,0.9-0.8,1.2-0.7c0.7,0.3,1.5,1.7,2.2,2.3c0.4,0.3,0.8,0.4,1.1,0.4h-0.1c0,0,0.4-0.1,0.5-0.3c0.2-0.4,0.3-0.9,0.2-1.5
				c-0.1-0.7-0.6-1.6-0.9-2.4c-0.2-0.5-0.3-0.9-0.3-1.2c0.1-0.4,0.4-0.9,0.7-1.3c0.7-1,1.5-1.9,1.5-1.9c0.1-0.1,0.2-0.3,0.1-0.5
				c0-0.2-0.2-0.3-0.4-0.4l-0.4-0.1c-0.8-0.1-1.7,0.3-2.5,0.4C-380.7-3.9-380.9-3.9-381.2-3.9z M-383.4-6.1c0.2,0.6,0.5,1.3,0.8,1.9
				c0.3,0.7,0.7,1.3,1,1.4c0.3,0.1,0.6,0.1,0.9,0.1c0.6,0,1.3-0.3,1.9-0.5c-0.3,0.3-0.5,0.6-0.8,1c-0.4,0.6-0.8,1.2-0.9,1.7
				c-0.1,0.4-0.1,0.9,0,1.4c0.2,0.7,0.6,1.6,0.9,2.3c0.1,0.3,0.2,0.6,0.2,0.8c-0.2-0.1-0.3-0.2-0.5-0.4c-0.5-0.5-0.9-1.1-1.4-1.6
				c-0.3-0.3-0.6-0.5-0.9-0.6c-0.5-0.2-1.1,0.1-1.7,0.5c-0.4,0.3-0.8,0.7-1.1,1.1l0.4-2.5c0-0.2,0-0.4-0.2-0.5
				c-0.6-0.6-1.8-1.1-2.4-1.6c0,0,0.1,0,0.2,0c0.5-0.1,1.2,0,1.7-0.1c0.3-0.1,0.6-0.1,0.7-0.2V-2c0.2-0.1,0.3-0.2,0.3-0.4h-0.1
				c0-0.1,0.1-0.4,0.2-0.8C-383.8-4.1-383.6-5.3-383.4-6.1z"/>
		</g>
		<g transform="matrix(0.4441,0,0,0.39775,196.136,85.3172)">
			<path class="st0" d="M-315.4-118c-0.1-0.1-0.3-0.4-0.4-0.6c-0.4-0.8-0.8-2-1.1-2.6c-0.3-0.5-0.6-0.6-0.8-0.6
				c-0.2,0-0.6,0.5-0.8,1.2c-0.3,0.9-0.6,2.3-0.6,3.2c0,0.1,0,0.2,0,0.4l0,0h-0.1c-0.6,0-1.4,0.1-2,0.1c-0.4,0.1-0.7,0.2-0.9,0.3
				c-0.6,0.6-0.5,1.1,0.1,1.6c0.5,0.5,1.7,0.9,2.4,1.5l-0.7,4.2c0,0.3,0.1,0.5,0.3,0.6c0.2,0.1,0.5,0,0.6-0.2c0,0,0.9-1.3,1.8-2.2
				c0.4-0.4,0.9-0.8,1.2-0.7c0.7,0.3,1.5,1.7,2.2,2.3c0.4,0.3,0.8,0.4,1.1,0.4h-0.1c0,0,0.4-0.1,0.5-0.3c0.2-0.4,0.3-0.9,0.2-1.5
				c-0.1-0.7-0.6-1.6-0.9-2.4c-0.2-0.5-0.3-0.9-0.3-1.2c0.1-0.4,0.4-0.9,0.7-1.3c0.7-1,1.5-1.9,1.5-1.9c0.1-0.1,0.2-0.3,0.1-0.5
				c0-0.2-0.2-0.3-0.4-0.4l-0.4-0.1c-0.8-0.1-1.7,0.3-2.5,0.4C-314.9-118-315.1-118-315.4-118z M-317.6-120.2
				c0.2,0.6,0.5,1.3,0.8,1.9c0.3,0.7,0.7,1.3,1,1.4s0.6,0.1,0.9,0.1c0.6,0,1.3-0.3,1.9-0.5c-0.3,0.3-0.5,0.6-0.8,1
				c-0.4,0.6-0.8,1.2-0.9,1.7c-0.1,0.4-0.1,0.9,0,1.4c0.2,0.7,0.6,1.6,0.9,2.3c0.1,0.3,0.2,0.6,0.2,0.8c-0.2-0.1-0.3-0.2-0.5-0.4
				c-0.5-0.5-0.9-1.1-1.4-1.6c-0.3-0.3-0.6-0.5-0.9-0.6c-0.5-0.2-1.1,0.1-1.7,0.5c-0.4,0.3-0.8,0.7-1.1,1.1l0.4-2.5
				c0-0.2,0-0.4-0.2-0.5c-0.6-0.6-1.8-1.1-2.4-1.6c0,0,0.1,0,0.2,0c0.5-0.1,1.2,0,1.7-0.1c0.3-0.1,0.6-0.1,0.7-0.2v-0.1
				c0.2-0.1,0.3-0.2,0.3-0.4h-0.1c0-0.1,0.1-0.4,0.2-0.8C-318-118.1-317.8-119.4-317.6-120.2z"/>
		</g>
		<g transform="matrix(0.4441,0,0,0.39775,280.29,62.9748)">
			<path class="st0" d="M-463.6-75.5c-0.1-0.1-0.3-0.4-0.4-0.6c-0.4-0.8-0.8-2-1.1-2.6c-0.3-0.5-0.6-0.6-0.8-0.6
				c-0.2,0-0.6,0.5-0.8,1.2c-0.3,0.9-0.6,2.3-0.6,3.2c0,0.1,0,0.2,0,0.4l0,0h-0.1c-0.6,0-1.4,0.1-2,0.1c-0.4,0.1-0.7,0.2-0.9,0.3
				c-0.6,0.6-0.5,1.1,0.1,1.6c0.5,0.5,1.7,0.9,2.4,1.5l-0.7,4.2c0,0.3,0.1,0.5,0.3,0.6c0.2,0.1,0.5,0,0.6-0.2c0,0,0.9-1.3,1.8-2.2
				c0.4-0.4,0.9-0.8,1.2-0.7c0.7,0.3,1.5,1.7,2.2,2.3c0.4,0.3,0.8,0.4,1.1,0.4h-0.1c0,0,0.4-0.1,0.5-0.3c0.2-0.4,0.3-0.9,0.2-1.5
				c-0.1-0.7-0.6-1.6-0.9-2.4c-0.2-0.5-0.3-0.9-0.3-1.2c0.1-0.4,0.4-0.9,0.7-1.3c0.7-1,1.5-1.9,1.5-1.9c0.1-0.1,0.2-0.3,0.1-0.5
				c0-0.2-0.2-0.3-0.4-0.4l-0.4-0.1c-0.8-0.1-1.7,0.3-2.5,0.4C-463.1-75.5-463.3-75.5-463.6-75.5z M-465.8-77.7
				c0.2,0.6,0.5,1.3,0.8,1.9c0.3,0.7,0.7,1.3,1,1.4s0.6,0.1,0.9,0.1c0.6,0,1.3-0.3,1.9-0.5c-0.3,0.3-0.5,0.6-0.8,1
				c-0.4,0.6-0.8,1.2-0.9,1.7c-0.1,0.4-0.1,0.9,0,1.4c0.2,0.7,0.6,1.6,0.9,2.3c0.1,0.3,0.2,0.6,0.2,0.8c-0.2-0.1-0.3-0.2-0.5-0.4
				c-0.5-0.5-0.9-1.1-1.4-1.6c-0.3-0.3-0.6-0.5-0.9-0.6c-0.5-0.2-1.1,0.1-1.7,0.5c-0.4,0.3-0.8,0.7-1.1,1.1l0.4-2.5
				c0-0.2,0-0.4-0.2-0.5c-0.6-0.6-1.8-1.1-2.4-1.6c0,0,0.1,0,0.2,0c0.5-0.1,1.2,0,1.7-0.1c0.3-0.1,0.6-0.1,0.7-0.2v-0.1
				c0.2-0.1,0.3-0.2,0.3-0.4h-0.1c0-0.1,0.1-0.4,0.2-0.8C-466.2-75.6-466-76.9-465.8-77.7z"/>
		</g>
		<g transform="matrix(0.4441,0,0,0.39775,212.655,-41.456)">
			<path class="st0" d="M-344.5,123.2c-0.1-0.1-0.3-0.4-0.4-0.6c-0.4-0.8-0.8-2-1.1-2.6c-0.3-0.5-0.6-0.6-0.8-0.6
				c-0.2,0-0.6,0.5-0.8,1.2c-0.3,0.9-0.6,2.3-0.6,3.2c0,0.1,0,0.2,0,0.4l0,0h-0.1c-0.6,0-1.4,0.1-2,0.1c-0.4,0.1-0.7,0.2-0.9,0.3
				c-0.6,0.6-0.5,1.1,0.1,1.6c0.5,0.5,1.7,0.9,2.4,1.5l-0.7,4.2c0,0.3,0.1,0.5,0.3,0.6c0.2,0.1,0.5,0,0.6-0.2c0,0,0.9-1.3,1.8-2.2
				c0.4-0.4,0.9-0.8,1.2-0.7c0.7,0.3,1.5,1.7,2.2,2.3c0.4,0.3,0.8,0.4,1.1,0.4h-0.1c0,0,0.4-0.1,0.5-0.3c0.2-0.4,0.3-0.9,0.2-1.5
				c-0.1-0.7-0.6-1.6-0.9-2.4c-0.2-0.5-0.3-0.9-0.3-1.2c0.1-0.4,0.4-0.9,0.7-1.3c0.7-1,1.5-1.9,1.5-1.9c0.1-0.1,0.2-0.3,0.1-0.5
				c0-0.2-0.2-0.3-0.4-0.4l-0.4-0.1c-0.8-0.1-1.7,0.3-2.5,0.4C-344,123.2-344.2,123.2-344.5,123.2z M-346.6,121
				c0.2,0.6,0.5,1.3,0.8,1.9c0.3,0.7,0.7,1.3,1,1.4s0.6,0.1,0.9,0.1c0.6,0,1.3-0.3,1.9-0.5c-0.3,0.3-0.5,0.6-0.8,1
				c-0.4,0.6-0.8,1.2-0.9,1.7c-0.1,0.4-0.1,0.9,0,1.4c0.2,0.7,0.6,1.6,0.9,2.3c0.1,0.3,0.2,0.6,0.2,0.8c-0.2-0.1-0.3-0.2-0.5-0.4
				c-0.5-0.5-0.9-1.1-1.4-1.6c-0.3-0.3-0.6-0.5-0.9-0.6c-0.5-0.2-1.1,0.1-1.7,0.5c-0.4,0.3-0.8,0.7-1.1,1.1l0.4-2.5
				c0-0.2,0-0.4-0.2-0.5c-0.6-0.6-1.8-1.1-2.4-1.6c0,0,0.1,0,0.2,0c0.5-0.1,1.2,0,1.7-0.1c0.3-0.1,0.6-0.1,0.7-0.2V125
				c0.2-0.1,0.3-0.2,0.3-0.4h-0.1c0-0.1,0.1-0.4,0.2-0.8C-347.1,123-346.9,121.8-346.6,121z"/>
		</g>
		<g transform="matrix(0.4441,0,0,0.39775,63.6612,67.6543)">
			<path class="st0" d="M-82.1-84.4c-0.1-0.1-0.3-0.4-0.4-0.6c-0.4-0.8-0.8-2-1.1-2.6c-0.3-0.5-0.6-0.6-0.8-0.6
				c-0.2,0-0.6,0.5-0.8,1.2c-0.3,0.9-0.6,2.3-0.6,3.2c0,0.1,0,0.2,0,0.4l0,0h-0.1c-0.6,0-1.4,0.1-2,0.1c-0.4,0.1-0.7,0.2-0.9,0.3
				c-0.6,0.6-0.5,1.1,0.1,1.6c0.5,0.5,1.7,0.9,2.4,1.5l-0.7,4.2c0,0.3,0.1,0.5,0.3,0.6c0.2,0.1,0.5,0,0.6-0.2c0,0,0.9-1.3,1.8-2.2
				c0.4-0.4,0.9-0.8,1.2-0.7c0.7,0.3,1.5,1.7,2.2,2.3c0.4,0.3,0.8,0.4,1.1,0.4h-0.1c0,0,0.4-0.1,0.5-0.3c0.2-0.4,0.3-0.9,0.2-1.5
				c-0.1-0.7-0.6-1.6-0.9-2.4c-0.2-0.5-0.3-0.9-0.3-1.2c0.1-0.4,0.4-0.9,0.7-1.3c0.7-1,1.5-1.9,1.5-1.9C-78-84-78-84.2-78-84.4
				c0-0.2-0.2-0.3-0.4-0.4l-0.4-0.1c-0.8-0.1-1.7,0.3-2.5,0.4C-81.6-84.4-81.8-84.4-82.1-84.4z M-84.2-86.6c0.2,0.6,0.5,1.3,0.8,1.9
				c0.3,0.7,0.7,1.3,1,1.4s0.6,0.1,0.9,0.1c0.6,0,1.3-0.3,1.9-0.5c-0.3,0.3-0.5,0.6-0.8,1c-0.4,0.6-0.8,1.2-0.9,1.7
				c-0.1,0.4-0.1,0.9,0,1.4c0.2,0.7,0.6,1.6,0.9,2.3c0.1,0.3,0.2,0.6,0.2,0.8c-0.2-0.1-0.3-0.2-0.5-0.4c-0.5-0.5-0.9-1.1-1.4-1.6
				c-0.3-0.3-0.6-0.5-0.9-0.6c-0.5-0.2-1.1,0.1-1.7,0.5c-0.4,0.3-0.8,0.7-1.1,1.1l0.4-2.5c0-0.2,0-0.4-0.2-0.5
				c-0.6-0.6-1.8-1.1-2.4-1.6c0,0,0.1,0,0.2,0c0.5-0.1,1.2,0,1.7-0.1c0.3-0.1,0.6-0.1,0.7-0.2v-0.1c0.2-0.1,0.3-0.2,0.3-0.4h-0.1
				c0-0.1,0.1-0.4,0.2-0.8C-84.7-84.5-84.5-85.8-84.2-86.6z"/>
		</g>
		<g transform="matrix(0.4441,0,0,0.39775,-1.03733,10.8913)">
			<path class="st0" d="M48.8,18.2c-0.1,0.1-0.2,0.2-0.2,0.2L47.3,20c-0.1,0.1-0.4,0.5-0.5,0.8s-0.1,0.6,0.1,0.8
				c0.1,0.1,0.2,0.2,0.3,0.3c0.2,0.1,0.5,0.3,0.6,0.4c0.4,0.3,1.2,1,2,1.3c0.5,0.2,0.9,0.3,1.2,0.2c0.1,0,0.2-0.1,0.4-0.3
				c0.1-0.2,0.3-0.6,0.3-0.7c0.1-0.4,0.3-0.8,0.5-1.2c0.1-0.3,0.3-0.5,0.4-0.7c0.1-0.1,0.4-0.5,0.5-0.9c0.1-0.3,0-0.5-0.1-0.7
				c-0.2-0.3-0.5-0.6-0.9-0.9c-0.5-0.4-1.1-0.7-1.4-0.8c-0.2-0.1-0.6-0.2-0.9-0.2c-0.3,0-0.5,0.1-0.6,0.1v0.3
				c-0.2,0-0.3,0.1-0.4,0.2c-0.1,0.1-0.1,0.2-0.1,0.3L48.8,18.2L48.8,18.2z M49.4,18.8C49.5,18.8,49.5,18.8,49.4,18.8
				c0.3,0.1,0.6,0,0.8,0.1c0.3,0.1,0.7,0.3,1.1,0.5c0.3,0.1,0.5,0.3,0.7,0.4c-0.1,0.1-0.2,0.3-0.2,0.4c-0.2,0.3-0.4,0.6-0.6,1
				c-0.2,0.3-0.4,0.7-0.6,1l-0.2,0.3c-0.2,0-0.4-0.2-0.6-0.3c-0.6-0.3-1.2-0.8-1.5-1L47.9,21c0-0.1,0.1-0.1,0.1-0.1l1.3-1.9
				C49.3,18.9,49.4,18.9,49.4,18.8z M48.9,18.1L48.9,18.1C48.9,18,48.9,18,48.9,18.1L48.9,18.1z"/>
		</g>
		<g transform="matrix(0.251816,0.327627,-0.365805,0.225534,1201.17,-663.998)">
			<path class="st0" d="M-73.4,3171.2L-73.4,3171.2L-73.4,3171.2L-73.4,3171.2L-73.4,3171.2L-73.4,3171.2c0,0.1-0.3,0.2-0.3,0.3
				l-1.4,1.4c-0.1,0.1-0.4,0.4-0.5,0.7s0,0.6,0.1,0.8c0.1,0.1,0.2,0.2,0.3,0.3c0.2,0.1,0.5,0.3,0.7,0.4c0.5,0.3,1.4,1,2.2,1.3
				c0.5,0.2,1,0.3,1.4,0.2c0.1,0,0.3-0.1,0.4-0.2c0.1-0.1,0.3-0.6,0.3-0.7c0.1-0.3,0.3-0.7,0.5-1.1c0.1-0.2,0.3-0.5,0.4-0.6
				s0.4-0.5,0.5-0.8c0.1-0.2,0-0.4-0.1-0.6c-0.2-0.3-0.6-0.6-1-0.9c-0.6-0.4-1.2-0.7-1.6-0.9c-0.2-0.1-0.6-0.2-1-0.2
				c-0.3,0-0.5,0-0.6,0.1l0.2,0.1c-0.1,0.1-0.2,0.2-0.3,0.3C-73.3,3171.1-73.4,3171.2-73.4,3171.2z M-74.3,3173.9
				c0-0.1,0.1-0.1,0.1-0.1l1.3-1.7c0,0,0.1-0.1,0.1-0.2h0.1c0.2,0,0.6,0,0.8,0.1c0.3,0.1,0.7,0.3,1.2,0.5c0.3,0.1,0.6,0.3,0.8,0.4
				c-0.1,0.1-0.1,0.3-0.2,0.3c-0.2,0.2-0.4,0.5-0.7,0.9c-0.2,0.3-0.4,0.6-0.6,0.9l-0.2,0.3c-0.2,0-0.4-0.2-0.7-0.3
				c-0.6-0.3-1.3-0.8-1.7-1L-74.3,3173.9z"/>
		</g>
		<g transform="matrix(-0.0607305,-0.394013,0.439928,-0.0543922,1023.21,1967.52)">
			<path class="st0" d="M5146.1-1461.1C5146-1461.2,5146-1461.2,5146.1-1461.1L5146.1-1461.1c-0.1-0.1-0.1-0.1-0.1-0.1
				L5146.1-1461.1c0,0-0.3,0.2-0.4,0.2l-1.5,1.4c-0.1,0.1-0.4,0.4-0.6,0.7c-0.2,0.3,0,0.6,0.1,0.7s0.2,0.2,0.3,0.2
				c0.2,0.1,0.5,0.2,0.7,0.3c0.5,0.3,1.4,0.9,2.2,1.2c0.5,0.2,1,0.2,1.4,0.2c0.1,0,0.3-0.1,0.4-0.2s0.3-0.6,0.4-0.7
				c0.2-0.3,0.4-0.7,0.6-1c0.1-0.2,0.3-0.5,0.5-0.6c0.1-0.1,0.5-0.5,0.6-0.8c0.1-0.2,0-0.4-0.1-0.6c-0.2-0.2-0.6-0.5-1-0.8
				c-0.6-0.3-1.2-0.6-1.6-0.8c-0.2-0.1-0.6-0.2-1-0.2c-0.3,0-0.5,0.1-0.6,0.1h0.1c-0.1,0-0.2,0.1-0.3,0.3
				C5146.1-1461.4,5146.1-1461.3,5146.1-1461.1z M5149.5-1459.6c-0.1,0.1-0.2,0.3-0.2,0.3c-0.2,0.2-0.5,0.5-0.7,0.9
				c-0.2,0.3-0.4,0.6-0.6,0.9l-0.2,0.3c-0.2,0-0.5-0.1-0.7-0.3c-0.7-0.3-1.3-0.7-1.7-1l-0.4-0.2c0-0.1,0.1-0.1,0.1-0.1l1.4-1.6
				c0,0,0.1-0.1,0.2-0.2h0.1c0.2,0,0.6,0,0.8,0c0.3,0.1,0.7,0.3,1.2,0.5C5149-1459.9,5149.3-1459.8,5149.5-1459.6z"/>
		</g>
		<g transform="matrix(-0.0529168,0.394916,-0.440936,-0.047394,2455.96,-384.435)">
			<path class="st0" d="M1687.7,5216.5C1687.7,5216.4,1687.7,5216.4,1687.7,5216.5l-0.1-0.1l0,0L1687.7,5216.5c0,0-0.3,0.2-0.4,0.2
				l-1.5,1.5c-0.1,0.1-0.5,0.5-0.6,0.7c-0.2,0.3-0.1,0.6,0.1,0.7c0.1,0.1,0.2,0.2,0.3,0.2c0.2,0.1,0.5,0.2,0.7,0.3
				c0.5,0.3,1.4,0.9,2.2,1.1c0.5,0.2,1,0.2,1.4,0.1c0.1,0,0.3-0.1,0.4-0.2c0.1-0.2,0.3-0.6,0.4-0.7c0.2-0.3,0.4-0.7,0.6-1.1
				c0.2-0.2,0.3-0.5,0.5-0.6c0.1-0.1,0.5-0.5,0.6-0.8c0.1-0.2,0-0.4-0.1-0.6c-0.2-0.2-0.5-0.5-1-0.8s-1.2-0.6-1.6-0.7
				c-0.2-0.1-0.6-0.2-1-0.1c-0.3,0-0.5,0.1-0.6,0.1l0,0c-0.1,0-0.2,0.1-0.2,0.2C1687.7,5216.2,1687.7,5216.3,1687.7,5216.5z
				 M1686.5,5219c0-0.1,0.1-0.1,0.1-0.1l1.4-1.7c0,0,0.1-0.1,0.2-0.2h0.1c0.2,0,0.6,0,0.8,0c0.3,0.1,0.7,0.2,1.2,0.4
				c0.3,0.1,0.6,0.2,0.8,0.4c-0.1,0.1-0.2,0.3-0.2,0.3c-0.2,0.2-0.5,0.6-0.7,0.9s-0.5,0.6-0.6,0.9l-0.2,0.3c-0.2,0-0.5-0.1-0.7-0.2
				c-0.6-0.3-1.3-0.7-1.7-0.9L1686.5,5219z"/>
		</g>
		<g transform="matrix(0.359018,0.234119,-0.261401,0.321548,937.117,-545.327)">
			<path class="st0" d="M-726.4,2304.1L-726.4,2304.1L-726.4,2304.1L-726.4,2304.1L-726.4,2304.1L-726.4,2304.1L-726.4,2304.1
				c0,0.1-0.1,0.1-0.1,0.2c-0.1,0.1-0.1,0.1-0.2,0.1l-1.3,1.5c-0.1,0.1-0.4,0.5-0.5,0.7c-0.1,0.3,0,0.6,0.1,0.8
				c0.1,0.1,0.2,0.2,0.3,0.3c0.2,0.1,0.5,0.3,0.6,0.4c0.5,0.3,1.3,1,2.1,1.3c0.5,0.2,0.9,0.3,1.3,0.2c0.1,0,0.2-0.1,0.4-0.2
				c0.1-0.2,0.3-0.6,0.3-0.7c0.1-0.3,0.3-0.7,0.5-1.1c0.1-0.2,0.3-0.5,0.4-0.7c0.1-0.1,0.4-0.5,0.5-0.8c0.1-0.2,0-0.5-0.1-0.7
				c-0.2-0.3-0.5-0.6-1-0.9c-0.5-0.4-1.2-0.7-1.5-0.9c-0.2-0.1-0.6-0.2-0.9-0.2c-0.3,0-0.5,0-0.6,0.1l0.2,0.2
				C-726.1,2303.8-726.2,2303.9-726.4,2304.1C-726.3,2304.1-726.3,2304.1-726.4,2304.1z M-725.8,2304.9
				C-725.7,2304.9-725.7,2304.9-725.8,2304.9c0.3,0.1,0.6,0,0.8,0.1c0.3,0.1,0.7,0.3,1.1,0.5c0.3,0.1,0.5,0.3,0.8,0.4
				c-0.1,0.1-0.1,0.3-0.2,0.4c-0.2,0.2-0.4,0.6-0.6,0.9c-0.2,0.3-0.4,0.7-0.5,0.9l-0.2,0.3c-0.2,0-0.4-0.2-0.7-0.3
				c-0.6-0.3-1.3-0.8-1.6-1.1l-0.4-0.2c0-0.1,0.1-0.1,0.1-0.1l1.2-1.7C-725.9,2305-725.8,2304.9-725.8,2304.9z"/>
		</g>
		<g transform="matrix(-0.0379564,-0.396294,0.442475,-0.033995,889.743,1932.89)">
			<path class="st0" d="M4958.6-1461.5C4958.6-1461.5,4958.6-1461.6,4958.6-1461.5L4958.6-1461.5c-0.1-0.1-0.1-0.1-0.1-0.1
				L4958.6-1461.5c0,0-0.3,0.2-0.4,0.2l-1.5,1.4c-0.1,0.1-0.5,0.4-0.6,0.7c-0.2,0.3-0.1,0.6,0.1,0.7c0.1,0.1,0.2,0.2,0.3,0.2
				c0.2,0.1,0.5,0.2,0.7,0.3c0.5,0.3,1.4,0.9,2.2,1.2c0.5,0.2,1,0.2,1.4,0.1c0.1,0,0.3-0.1,0.4-0.2s0.3-0.6,0.4-0.7
				c0.2-0.3,0.4-0.7,0.6-1c0.2-0.2,0.3-0.5,0.5-0.6c0.1-0.1,0.5-0.5,0.6-0.8c0.1-0.2,0-0.4-0.1-0.6c-0.2-0.2-0.6-0.5-1-0.8
				c-0.6-0.3-1.2-0.6-1.6-0.8c-0.2-0.1-0.6-0.2-1-0.2c-0.3,0-0.5,0.1-0.6,0.1h0.1c-0.1,0-0.2,0.1-0.2,0.3
				C4958.6-1461.7,4958.6-1461.6,4958.6-1461.5z M4962-1460c-0.1,0.1-0.2,0.3-0.2,0.3c-0.2,0.2-0.5,0.5-0.7,0.9
				c-0.2,0.3-0.4,0.6-0.6,0.9l-0.2,0.3c-0.2,0-0.5-0.1-0.7-0.3c-0.7-0.3-1.3-0.7-1.7-0.9l-0.4-0.2c0-0.1,0.1-0.1,0.1-0.1l1.4-1.7
				c0,0,0.1-0.1,0.2-0.2h0.1c0.2,0,0.6,0,0.8,0c0.3,0.1,0.7,0.3,1.2,0.5C4961.5-1460.3,4961.8-1460.1,4962-1460z"/>
		</g>
		<g transform="matrix(0.4441,0,0,0.39775,82.6267,-36.9465)">
			<path class="st0" d="M-98.5,109.2c-0.1,0.1-0.2,0.2-0.2,0.2l-1.3,1.6c-0.1,0.1-0.4,0.5-0.5,0.8s-0.1,0.6,0.1,0.8
				c0.1,0.1,0.2,0.2,0.3,0.3c0.2,0.1,0.5,0.3,0.6,0.4c0.4,0.3,1.2,1,2,1.3c0.5,0.2,0.9,0.3,1.2,0.2c0.1,0,0.2-0.1,0.4-0.3
				c0.1-0.2,0.3-0.6,0.3-0.7c0.1-0.4,0.3-0.8,0.5-1.2c0.1-0.3,0.3-0.5,0.4-0.7c0.1-0.1,0.4-0.5,0.5-0.9c0.1-0.3,0-0.5-0.1-0.7
				c-0.2-0.3-0.5-0.6-0.9-0.9c-0.5-0.4-1.1-0.7-1.4-0.8c-0.2-0.1-0.6-0.2-0.9-0.2s-0.5,0.1-0.6,0.1v0.3c-0.2,0-0.3,0.1-0.4,0.2
				s-0.1,0.2-0.1,0.3h0.1V109.2z M-97.9,109.8L-97.9,109.8c0.3,0.1,0.6,0,0.8,0.1c0.3,0.1,0.7,0.3,1.1,0.5c0.3,0.1,0.5,0.3,0.7,0.4
				c-0.1,0.1-0.2,0.3-0.2,0.4c-0.2,0.3-0.4,0.6-0.6,1c-0.2,0.3-0.4,0.7-0.6,1l-0.2,0.3c-0.2,0-0.4-0.2-0.6-0.3
				c-0.6-0.3-1.2-0.8-1.5-1l-0.3-0.2c0-0.1,0.1-0.1,0.1-0.1l1.3-1.9C-98,110-98,109.9-97.9,109.8z M-98.4,109.1L-98.4,109.1
				C-98.5,109-98.5,109-98.4,109.1L-98.4,109.1z"/>
		</g>
	</g>
	<g id="Sweater.svg" transform="matrix(0.28445,0,0,0.254763,1428.49,826.382)">
		<g transform="matrix(1,0,0,1,-409,-366.5)">
			<g id="body-mono-Sweater" transform="matrix(0.947955,0,0,0.947955,1.61341,38.1051)">
				<path id="_xD83C__xDFA8_-Background3" class="st1" d="M-4751-2760c-13.1-0.3-25.1,0.6-37.7-2.3v-0.5c-2.7-0.1-1.8-2.9-1.3-4.9
					c-51-2.5-17.7-141.2,17.6-150.5c1.7-0.3,3.6-0.5,5.5-0.5c2.5-0.8,4.9-1,7.5-1.8c0.2-1,0.3-1.6,1.4-1.3c3.9-4.2,11-8,13.3,0.1
					c3.1-4.9,4.9-10.5,6.2-16.3h0.2c0.6-1.5,1.5-3.5,2.6-3.8c1.7-0.6,5-0.5,6.8-0.7c4.1-0.3,8.8-1.1,12.7,0
					c9.7,2.7,5.5,15.5,13.4,23.8c3.6-1.7,9.3-1.2,12.8,0.8c2.2,2,1.1,4.2,0.7,6.4c24.9-2.5,31.5,29.8,36.7,51
					c2.1,7.1,4.1,11.9,7.6,17.3c4.6,6.4,7.1,14.8,2.5,21.5c6.7,14.9-0.6,28.9-8.2,40.1c-1.5,1.8-3.9,6.8-6.1,7.1
					c-0.6,0.6-1.6,1.4-2.2,1.9l0.8,1.2c0.1,1.1,0.1,2.3,0.8,3.3c0.6,0.7,1.3,1.4,1.4,2.5c-1,1.3-2.4-0.2-3.3-0.8
					c-0.4,0.8-0.3,2.8-1.5,2.7C-4690.8-2761.4-4721.3-2759.9-4751-2760"/>
				<path id="_xD83D__xDD8D_-Ink16" class="st0" d="M-4739-2937.9c2.4,3.4-1.5,14-3.3,17.6c12.1,5.7,25.7,8.1,38.6,4.9
					c-3.4-3.6-7.1-15.1-4.3-19.1l0.1,0.7c0.9,5.3,2.1,10.9,5.5,15c4.9-1.4,16.8-1.3,14.8,7.3c30.2,0.1,30.4,40.8,40.5,63.6
					c4.8,8.7,12.3,17.6,6,28c1.2,3.3,2.1,6.8,2.4,10.3c1,11.6-5.4,21.5-11.1,30.5c-2,2.5-3.7,6.6-6.6,7.7c-0.3,0.3-0.6,0.6-0.9,0.8
					c0.6,0.9,0.1,2.4,0.8,3.3l0.3,0.3c0.4,0.5,1.1,1.2,1.2,1.9l0.1,0.6c0,0.2,0,0.2,0,0v-0.1c0-0.1,0-0.1,0,0v0.1
					c0.3,1-0.3,2.1-1.2,2.4c-2.6,1.6-5.4-3-4.5-6.1c-14.6,7-44.8-5.7-59.5-12c-2.8-1.3-5.4-2.9-8.3-4l-0.2-0.1
					c-3.3-1.8-6.5-4.4-10.3-3.4c-16.1,7.7-31.1,20.5-48.9,23.1c2.8,6-5.4,6.8-3.8,0.1c-48.6-7-18.3-123.6,7.5-146.2
					c8.2-8.7,13.7-6.7,23.7-9.3c0.2-0.9,1.1-1.7,2-1.6c3.5-3.8,10.9-7.4,13.9-1.3c1.9-3.2,3.1-6.8,4-10.5
					C-4740-2935-4739.9-2936.7-4739-2937.9z M-4758-2763.2c-2.6-2.3,1.3-5.9,3.6-4.4c0.7,0.9-1.7,0-1.4,2.1
					C-4755.4-2764.1-4756.7-2762.3-4758-2763.2z M-4705.2-2766c-1.8-3.9-0.2-5.6,2.5-2.6C-4700.1-2766.5-4703.5-2763-4705.2-2766z
					 M-4730.8-2766.4c-2.6-1.6-3.2-8.7,1-5.3C-4726.1-2770.1-4727.1-2764.8-4730.8-2766.4z M-4760-2918.1c-5.2,1.6-11,0.9-15.8,4.2
					c-11.7,8.2-18.4,22.3-23.4,36.2l-0.2,0.4c-10.2,28.1-18.4,60.9-9.8,90.8c4.4,13.6,15.1,19.4,27.3,14.7
					c30.6-11.1,56.2-37.7,88.7-42.2c0.5-4.2-0.6-8.4-1.9-12.3c-20,0.9-39.1,8.1-58.2,14c-1.1,5.4-6.7,11.8-10,16
					c-3,4.5-10.5,5.9-11.4-1.1l-0.1,0.2c-2.5,3.1-7.9,8.4-9.5,1.8c-0.4-3.5,1.6-6.5,2.6-9.7l-0.1,0.1c-1.8,1.5-9.3,8.7-9.9,3.9
					c0-4.5,1.3-8.9,3.6-12.6c2.3-3.4,5.2-6.6,8.3-9.1c0.2-1.1,0.5-2.1,0.7-3.1c-0.3-4,1.1-7.7,1.4-11.6c0.8-3.6,1-10.5,3.4-13
					c1.8,2.2,0,10.4-0.1,13.5c-0.6,3.8-0.4,7.7-1.6,11.4c3.5-2.1,7.3-3.2,11.1-3.4c0.4-8.3,11-5.4,15.9-4.8c7.5-3,38.9-1.9,44.1,4.3
					c2.6-0.3,5.1-0.6,7.7-0.8c3.1-2.2,11.5-1.3,12.8,3c3.4,1.1,6.4,3,9.3,5.2c0.9-17-3.1-33.8-2.1-50.8c0.1-1,0.5-1.8,0.5-2.9
					c0-0.1,0.2-0.1,0.2,0c1.5,5,1.7,10.3,2.6,15.4c1.1,9,3,17.9,3.6,26.9c0.3,7.6-0.8,15.7,1.9,22.9c0.4,1-0.3,2.7-1.1,3.1
					c-7.4,3.5-16.1,1-22.9-3.3c-14.5,5.2-28.7,11.3-42,19.5c2.6,0.8,4.9,2.4,7.2,3.8c3.3,1.3,6.6,2.6,9.9,3.9
					c16.4,5.5,33.5,12.9,50.8,11.8c5.3-1,7.7-3.6,10.9-8.1l0.5-0.8c5.6-8.1,12.1-16.8,13-27.3c0.2-3.4-0.1-6.8-0.3-10.3
					c-0.8,0.9-1.6,1.7-2.4,2.5c-1.1,1.2-2.5-0.3-2-1.7c1.2-3.9,3.2-7.6,3.6-11.8c0.1-3.9-2.2-7.4-4.3-10.4
					c-15.8-21.7-8.9-67.2-40.1-71.6c-13.3,31.3-58.8,18.3-71.9-6.6L-4760-2918.1z M-4795-2786.1c0.1-4.3,6.2,1.3,5.7,3.6
					c-0.3,3.2-3.8,1.7-4.6-0.5C-4794.5-2784-4794.9-2785-4795-2786.1z M-4674.6-2790.5c0.9-1.8,6.1,3.3,3.4,5
					c-1.8,1.1-2.5-1.4-2.9-3C-4674.3-2789.1-4674.7-2789.8-4674.6-2790.5z M-4763.9-2788.2c-3.3-2.2,3.9-5.1,4.2-1.6
					C-4759.6-2787.3-4762.5-2787.4-4763.9-2788.2z M-4702.8-2797.6c1.7-2.5,1.7,6.3,0.7,6.8c-0.5,0.8-1.5,0.6-1.7-0.3
					C-4704.5-2793.2-4703.4-2795.5-4702.8-2797.6z M-4780.9-2796v0.1C-4781.2-2795.1-4780.7-2796.1-4780.9-2796L-4780.9-2796z
					 M-4745.2-2816.9c-7.5-9.6-21.1-11.9-31.3-6.3c-1.5,0.5-2.8,1.9-4.2,2.8c0.3-0.1,0.7-0.3,1-0.3c-4.5,4.2-8.3,10-8.9,16.6
					c4.1-2.8,7.6-6.3,10.4-10.7c0.9-1.8,3.6-0.6,3,1.4c-1.8,5.6-4.6,11-5.8,16.8c4.4-3.5,7.6-8.7,9.4-14.4c0.8-2.4,4.2-1.4,3.5,1.1
					c-0.9,3.3-1.9,6.6-2.7,10l-0.2,0.9c-0.3,1.2-0.5,2.2,0.8,2.5c3.9,0.3,9.2-9.4,11.6-12.8c1.2-1.6,2.2-5,4.3-4.5
					C-4751.5-2815.7-4748.2-2815.9-4745.2-2816.9z M-4658.4-2801.6c0.4-0.4,1-0.7,1.6-0.5h0.1c1.8,0.7,0.4,3.5-1.1,2.5
					c-0.5-0.4-1.1-0.8-1.7-1.1C-4660-2801-4658.7-2801.2-4658.4-2801.6z M-4742.4-2809.6c0.5-2.8,5.5,1,3.7,3
					C-4740.4-2805.2-4742.3-2807.8-4742.4-2809.6z M-4801.7-2809.2c4.6-3.4,5.2,4.8-1.7,2.4
					C-4803.9-2807.8-4802.2-2808.7-4801.7-2809.2z M-4683.5-2826c2.5,3.4,3.5,7.8,4,12.1c0.1,0.8,0.3,1.8,0.2,2.6
					c1.7,0.3,3.5,0.4,5.2,0c-0.4-1.7-0.7-3.4-0.8-5.1C-4677.2-2820.2-4679.8-2823.8-4683.5-2826z M-4690.2-2815.2c0,0.5,0,0.9,0,1.4
					c2.2,0.3,4.4,0.9,6.6,1.5v-0.7c0-0.2,0-0.5,0-0.7C-4685.8-2813.1-4688.5-2813.8-4690.2-2815.2z M-4684.4-2820.9
					c-2.5-1.1-4.8-1.8-7.5-1.6c0.8,1.9,1.4,3.9,1.6,5.9c1.1,0.3,2.3,0.4,3.4,0.4c1.1-0.1,2.1-0.6,3.1-0.7
					C-4683.9-2818.3-4684.1-2819.6-4684.4-2820.9z M-4708.1-2820c1.6-0.7,3.9,1.2,2.2,2.8c-1.3,1-3-0.3-4-1.2
					C-4710.5-2819.2-4708.6-2819.9-4708.1-2820z M-4739.4-2826.5c-0.7,2.3-5.2,1.3-7.2,2.6l0.2,0.1c2,1.3,4.1,3.1,4.5,5.4
					c2.6-1.1,5.3-2.2,7.9-3.2C-4735.6-2823.5-4737.4-2825.2-4739.4-2826.5z M-4708.8-2828.8c-11.8-4.7-24.7-4.6-37.1-4.2l0.3,0.1
					c5.3,1.8,11.6,4.6,14.4,10.2C-4723.9-2825.3-4716.4-2827.5-4708.8-2828.8z M-4685.8-2825c-1.8-3.6-5.4-5.2-8.8-4.9l-0.5,0.1
					c0.4,0.1,0.7,0.4,1.1,0.7c0.6,0.5,0.6,1.7,0.1,2.3c0.6,1.1,1.2,2.2,1.8,3.3C-4690.4-2825.1-4688.1-2825.3-4685.8-2825z
					 M-4653.9-2825c-4.1,2.7-7.1-10-1.9-7.3l0.4,0.4C-4653.9-2829.9-4651.6-2826.9-4653.9-2825z M-4750.9-2830.9
					c-1.3,1.2-2.9,2.1-4.2,3.3c2.2,0.6,4.4,1.4,6.4,2.5c1.7-1.6,3.7-2.6,5.8-3.3C-4745.5-2829.6-4748.2-2830.4-4750.9-2830.9z
					 M-4805.1-2830.6L-4805.1-2830.6c0.7-2.1,4.5-5,6.4-4.3c0.1,0,0.2,0.1,0.2,0.2v0.2c0.1,0.9,0.2,1.7-0.4,2.5
					c-0.9,1.7-1.8,3.8-3.6,4.4C-4804.2-2826.9-4805.7-2828.7-4805.1-2830.6z M-4755.3-2831.5h-0.6c-2.7-0.2-6.6-0.4-7.9,2.6
					c2.3,0,4.6,0.3,6.9,0.8C-4756.6-2829.3-4756-2830.4-4755.3-2831.5z M-4740.5-2844.3c-0.4-0.9,1.1,0.1,1.5-0.1
					c0.7,0,1.3,0.2,1.6,0.9c0.6,1.1-0.6,2.2-1.5,1.7C-4739.8-2842.4-4739.6-2843.8-4740.5-2844.3z M-4688.5-2849.2L-4688.5-2849.2
					c1-0.1,4.9-1.1,4.9,0l-0.1,0.1c-1.2,2-2.8,5.8-5.3,4.4C-4690.7-2845.7-4690.4-2848.8-4688.5-2849.2z M-4715.8-2849.4
					c0.7-1.5,2.3,2,2.7,2.6c0.7,1.6-1.2,2.9-2.2,1.4C-4715.8-2846.6-4716.1-2848.1-4715.8-2849.4z M-4783.7-2852.8
					c1-0.6,3.7-0.6,2.9,1.3c-1.4,2.1-4,1.1-5.5-0.3C-4787.1-2852.7-4784.2-2852.3-4783.7-2852.8z M-4758.4-2860.5
					c-0.1-1.5,1.4-2,2.4-1.5c1.8,0.9,3.2,4.1,2.6,6.1c-0.5,2-3.2,2.5-4.1,0.6C-4758-2857.1-4758.1-2858.7-4758.4-2860.5z
					 M-4666.4-2857.7c2.1-0.5,4.2-2,6.3-1.6c0.7,0.3,0.9,1.1,0.4,1.7C-4660-2856.2-4667.6-2856.5-4666.4-2857.7z M-4725.7-2863.1
					c0.9-1.8,2.9-3.6,4.8-3.5c1.2,0,1.6,1.9,0.6,2.5l0,0C-4721-2863.8-4726-2862.3-4725.7-2863.1z M-4698.5-2865.9
					c-3-0.5-2.9-8.4-1.2-6.9c0.6,1.9,2.1,3.1,3,4.8C-4696.2-2866.7-4697.5-2865.6-4698.5-2865.9z M-4788.2-2867.7
					c1.3,0.2,7.8-4.2,6.6-0.7c-0.8,1-1.8,1-2.9,1.1l0,0C-4785-2867.3-4789.2-2866.7-4788.2-2867.7z M-4743.1-2874.9
					c-1.3-0.2-6-11.2-3.7-10.5l0.4,0.3c2.6,1.9,5.4,4.3,6.6,7.6C-4739.5-2875.7-4741.5-2873.6-4743.1-2874.9z M-4713.9-2879.4
					c0.2-0.1,0.4,0.2,0.2,0.3c-0.8,0.5-1.7,1.5-2.2,2.3c-1.7,2.4-3.8-1.9-1.1-2.2C-4716.1-2878.9-4714.8-2879-4713.9-2879.4z
					 M-4769.2-2892.8c2.4-0.7,3.6,2.9,1.6,4.3c-1,0.9-10.1,3.8-10.6,2.7C-4777.1-2887.9-4771.4-2892.1-4769.2-2892.8z
					 M-4678.9-2892.3c6.7-0.6,6.8-2,2.1,4.1C-4679.5-2885.5-4682.3-2891.1-4678.9-2892.3z M-4710-2910.4c-2.3,0.2-4.6,0.3-6.9,0.2
					c0.4,0.9,0,2.1-1,1.9c-0.5,3.5-0.7,7-1.3,10.4c-0.2,0.8-0.4,1.6-0.6,2.4c4.4,0.4,8.9,0.2,13.2-1.1
					C-4708.3-2901.1-4709-2905.8-4710-2910.4z M-4728.7-2911.9c0,0.4-0.1,0.7-0.3,1c-2,3.9-3.7,7.9-5.9,11.7
					c4.6,1.9,9.3,3.1,14.2,3.6c-0.7-4.9-0.1-9.9-0.2-14.9C-4723.5-2910.8-4726.1-2911.3-4728.7-2911.9z M-4699.5-2912.5
					c-2.3,0.7-4.7,1.2-7,1.6c0,0.4-0.2,0.8-0.5,1c0.5,4.3,1.5,8.6,1.6,13c4.9-1.3,8.8-5.1,12.1-9.3l-0.7-0.6
					C-4696.1-2908.5-4698.1-2910.2-4699.5-2912.5z M-4744.9-2922.2c-2.9-2-6.8-1.1-9.1,1.4c-1,1-1.9,2.4-3.1,3.2
					c-0.1,0.1-0.3,0.2-0.4,0.2c0.8,1.7,2,3.3,3.1,4.7c5.6,5.4,11.9,10,18.8,13c0.3-4.6,1.7-9.1,3.4-13.4c-1.5-0.5-3-1.1-4.5-1.8
					c-0.2,1.1-1.1,2-1.7,2.8c-1.3,1.8-2.2,3.9-3.5,5.7c-1.4,1.7-3.8-0.5-2.8-2.4c1.6-2.7,3.8-5.1,6.2-6.9c-1.6-0.8-3.2-1.8-4.7-2.9
					c-0.1,0.1-0.1,0.1-0.2,0.2c-0.1-0.7-1-0.5-1.4-0.4c-0.3-0.3-0.8,0.1-1.1,0.2c-0.1-0.1-0.1-0.2-0.1-0.3c-1.8,2-3.2,5.3-5.6,6.5
					c-1,0.3-2.1-0.8-1.7-2c0.6-1.8,5.8-5.6,7.4-6.6c-0.4-0.6-0.1-0.9,0.5-0.8c0.1-0.1,0.3-0.2,0.4-0.1
					C-4745.1-2921.9-4745-2922.1-4744.9-2922.2z M-4782-2904.3c1.2,0,2.5-0.5,3.6,0.2c1.5,2-2.3,2.6-3.8,0.3
					C-4782.3-2904-4782.2-2904.3-4782-2904.3z M-4696.4-2916.3c0.3,0.4,0.4,1.1,0.3,1.6c1.5,2.5,2.2,5.3,3,8.1l0.2-0.3
					c3.3-4.6,5.2-8.8-2.1-9.3C-4695.5-2916.2-4696-2916.3-4696.4-2916.3z M-4765.7-2909.8c-6-4.9,6.9-2.2,3.2,0.8
					C-4763.6-2908.6-4764.7-2909.1-4765.7-2909.8z"/>
			</g>
		</g>
	</g>
	<g transform="matrix(1,0,0,1,716.699,-100.785)" class="st2">
		<g transform="matrix(0.4441,0,0,0.39775,122.255,342.337)" class="st3">
			<g id="Gray-Short.svg6" transform="matrix(0.681216,0,0,0.681216,1361.69,1133.76)">
				<g transform="matrix(1,0,0,1,-236.5,-283.5)">
					<g id="head-mono-Gray-Short6">
						<path class="st1" d="M-4438.3-2184.2c0,0-4.7,20.6,9.3,14.6c0,0,7.8,20.2,14.4,18.2c0,0,5.2,4.7,9.4,5.1
							c0,0,20.7,21.2,38-11.6c6.9-13,2.6-41.6-0.4-52.2c-1.3-4.6-1.5-9.4-1.7-10.7c0,0,8.9-6.2,2.4-9.2c0,0,4.7-7.2,3.8-7.9
							c-0.9-0.6-31-15.3-45.9-12.1c-15,3.3-22.1,5.3-27,12.6s-5,3.3-5.9,10.4C-4442.8-2219.8-4444.9-2188.3-4438.3-2184.2z"/>
						<path id="_xD83D__xDD8D_-Ink17" class="st0" d="M-4388.3-2138.7c-6.3,0.7-13.7-0.9-17.9-6.6c-0.1-0.2-0.2-0.4-0.2-0.6
							c0-0.2,0.1-0.4,0.2-0.6c0.1-0.2,0.3-0.3,0.5-0.3s0.3,0,0.5,0.1l0.4,0.2c2.9,1.8,5.8,3.3,9.1,3.9c3.3,0.7,6.7,0.6,10-0.3
							c6-1.5,10.9-5.4,14.5-10.6c4-5.8,6.4-13.1,7-20.4c0.7-8.8-1-17.6-2.8-26.2c-1.9-9-3.9-18-6.3-26.8c-0.1-0.3-0.1-0.5-0.1-0.7
							c-0.7-0.3-1.4-0.2-2.2,0.1c-1.4,0.5-2.7,1.7-3.8,2.6c-0.4,0.3-0.8,0.7-1.1,0.9c-1.4,1.1-2.9,1.8-4.6,2
							c-1.8,0.1-3.5-0.5-5.1-1.3c-0.8-0.4-1.6-0.8-2.4-1.2c-2.3-1.2-4.6-2.3-7-3c-3.3-1-6.7-1.5-10.2-1.5c-6.1,0.1-12.3,1.8-16,7.6
							c-1.5,2.3-2.5,5-1.7,7.9c0.4,1.6,1.2,3,2.1,4.3l0.3,0.4c0.5,0.7,0.9,1.4,1,2.2c0.1,0.6,0,1.3-0.4,2.1
							c-0.3,0.5-0.6,0.9-0.9,1.3c-0.2,0.3-0.5,0.6-0.7,0.9c-0.4,0.7-0.8,1.4-1.1,2.1c-0.6,1.4-0.8,3-0.9,4.5
							c-0.1,1.9,0.2,3.7,0.4,5.6c0.2,1.3,0.3,2.6,0.4,3.9c0,0.2-0.1,0.4-0.1,0.5c-0.1,0.2-0.3,0.3-0.4,0.3s-0.1,0-0.2,0
							c0,0.1,0.1,0.3,0.1,0.4c-0.1-0.2-0.2-0.3-0.4-0.5l0,0c-0.1-0.1-0.2-0.2-0.3-0.4c-0.2-0.2-0.4-0.4-0.6-0.5
							c-1-0.9-2.3-1.4-3.5-1.4s-2.4,0.4-3.3,1.4c-1.8,1.9-2.3,5-2.4,7.6c0,2.7,0.5,5.9,2.6,7.6c0.8,0.7,1.9,1.1,2.9,1.1
							c0.9,0,1.7-0.3,2.5-0.7c0.2-0.1,0.5-0.2,0.7-0.3c0.3-0.1,0.5-0.1,0.8,0s0.5,0.3,0.6,0.5c0.2,0.2,0.3,0.5,0.3,0.8
							s0,0.6-0.1,0.9c0,0.1-0.1,0.1-0.1,0.2l0.5,0.8c1.8,3.2,3.6,6.4,5.9,9.2c1.4,1.6,2.8,3.1,4.4,4.4l0.2,0.2
							c0.1,0.1,0.3,0.2,0.4,0.4c0.5,0.4,1,1,1.5,1c0.2,0,0.3,0,0.4,0c0.3,0,0.5-0.1,0.8,0.1c0.2,0.1,0.4,0.3,0.6,0.6
							c0.1,0.2,0.2,0.5,0.2,0.8s-0.1,0.6-0.2,0.8c-0.3,0.5-0.6,0.8-0.9,1c-0.4,0.2-0.8,0.2-1.3,0.1c-1.1-0.2-2.3-1.3-3.1-1.9
							l-0.2-0.1c-1.7-1.5-3.4-3.1-4.8-4.9c-2.5-3.1-4.7-6.8-5.8-10.8c-0.8,0.6-1.8,0.9-2.8,0.9c-1.5,0.1-3.1-0.4-4.3-1
							c-2.6-1.4-4.2-4-4.9-6.9c-0.9-3.5-0.6-7.4,0.5-10.5c0-0.1,0.1-0.2,0.1-0.3c-3.3-9.4-4.4-19.9-4.1-29.9
							c0.1-4.7,0.4-9.6,1.4-14.2c0.4-2.1,1.2-4,2.5-5.6c0.7-0.9,1.6-1.6,2.4-2.4c0.8-0.6,1.5-1.2,2.1-2l0.3-0.4
							c0.1-0.1,0.1-0.2,0.2-0.2c1.1-1.4,2.2-2.7,3.5-3.8c1.5-1.3,3.2-2.3,5-3.1c3.8-1.8,7.9-2.9,12-3.7c8.8-1.8,17.8-1.9,26.5,0.6
							c4,1.2,8,2.8,11.9,4.4c0.4,0.1,0.7,0.3,1.1,0.4c3,1.2,6.1,2.5,9.1,3.7c1.4,0.6,2.8,1.2,4.2,1.7c0.3,0.1,0.6,0.4,0.8,0.7
							c0.2,0.3,0.2,0.7,0.1,1.1c-0.9,2.5-2,4.8-3.3,6.9c0.5,0.4,0.9,0.8,1.2,1.4c0.4,0.7,0.6,1.5,0.6,2.4c0.1,2.9-2.3,4.9-4.3,6.3
							c-0.2,0.1-0.4,0.2-0.5,0.2c1.9,8.1,3.7,16.3,5.3,24.5l0.1,0.6c1.6,8.6,2.6,17.4,1.1,26.1c-1.3,7.5-4.3,14.8-9,20.4
							C-4375.3-2143-4381.5-2139.5-4388.3-2138.7z M-4429.6-2188.3c-0.8-2.9-1.3-6.1-0.9-9c0.2-1.9,0.7-3.6,1.5-5.3
							c0.5-0.9,1-1.8,1.7-2.6l0.2-0.3c0.1-0.1,0.2-0.3,0.2-0.4c0-0.1,0-0.2-0.1-0.3c-0.1-0.3-0.3-0.5-0.5-0.8
							c-0.1-0.2-0.2-0.3-0.4-0.5c-1.8-2.7-3.1-6-2.7-9.4s2.4-6.5,4.5-8.9c4.6-5.2,11.8-6.4,18.1-6.1c3.7,0.2,7.3,0.9,10.8,2.1
							c1.7,0.6,3.4,1.4,5,2.2l0.4,0.2c0.2,0.1,0.4,0.2,0.6,0.3c1.3,0.7,2.6,1.4,4,1.8c2.7,0.7,4.5-0.8,6.5-2.4
							c0.7-0.5,1.3-1.1,2-1.6l0.1-0.1c1.3-0.8,2.8-1.4,4.3-1.4c1.3,0,2.5,0.5,3.5,1.6c0.2,0.2,0.3,0.5,0.4,0.7s0.2,0.4,0.3,0.6
							c0.4,1.5,0.7,3,1.1,4.6l0.3-0.2c0.9-0.6,1.8-1.4,2.2-2.4c0.2-0.4,0.1-1.1-0.1-1.6c-0.1-0.2-0.2-0.3-0.3-0.4
							c-0.1-0.1-0.2-0.1-0.3-0.1c-0.3,0-0.6,0-0.9-0.1s-0.5-0.4-0.7-0.6c-0.2-0.3-0.2-0.6-0.2-1c0-0.3,0.1-0.6,0.4-0.9
							c1.5-1.9,2.7-4,3.7-6.3l-6.3-2.6c-2.2-0.9-4.5-1.8-6.7-2.8l-1.2-0.5c-4.1-1.7-8.2-3.3-12.4-4.4c-8.4-2.1-17.2-1.6-25.6,0.4
							l-0.5,0.1c-3.5,0.9-7.1,1.9-10.3,3.7c-1.6,0.9-3.1,2-4.4,3.3c-0.6,0.6-1.1,1.3-1.6,1.9c-0.7,0.9-1.5,1.8-2.3,2.6l-0.8,0.7
							c-1.2,1.1-2.3,2.1-2.9,3.8c-0.7,1.7-1,3.7-1.3,5.5c-0.7,4.7-1,9.5-0.9,14.3c0,8,1.1,15.9,2.5,23.7c1.1-1.8,2.7-3.1,4.7-3.4
							c1.3-0.2,2.6,0.1,3.7,0.7C-4430.7-2189.4-4430.1-2188.9-4429.6-2188.3z M-4431.7-2178.8c-1.5-0.6-3-0.8-4.5-0.5
							c-0.2,0-0.3,0-0.4-0.1s-0.2-0.2-0.3-0.4c-0.1-0.2-0.1-0.4,0-0.5c0-0.1,0.1-0.3,0.3-0.4c1.7-0.9,3.5-1.3,5.4-1h0.2
							c0.9,0.2,2.3,0.5,3.3,1.1c0.8,0.5,1.3,1.2,1.5,2.1c0.1,0.5,0,1-0.3,1.3c-0.2,0.3-0.6,0.6-1.1,0.6c-0.8,0-1.3-0.4-1.9-0.9
							c-0.1-0.1-0.1-0.1-0.2-0.2C-4430.4-2178.1-4431-2178.5-4431.7-2178.8z"/>
					</g>
				</g>
			</g>
		</g>
		<g id="Smile-Teeth-Gap.svg5" transform="matrix(0.291546,0,0,0.261117,739.948,804.811)" class="st3">
			<g transform="matrix(1,0,0,1,-144.5,-146.5)">
				<g id="face-Smile-Teeth-Gap5">
					<path id="_xD83D__xDD8D_-Ink18" class="st0" d="M-4697.9-2459.3c1.6,1.1,4.2,3.7,2.4,6.5c-2.1,2.4-5.1-0.4-6.6-1.6
						c-1.4-1-2.9,1.5-1.6,2.7c10.7,8.8,15-7.3,6.7-8.9C-4698-2460.8-4698.4-2459.7-4697.9-2459.3z M-4712.8-2480.6l0.4-0.1h0.2
						c1.2-0.2,2.7-0.4,3.5,0.7c0.5,0.6,0.6,1.7,0,2.3c-1.1,1-2.4,0.6-3.7,0.7c-1.1,0.1-2.2,0.3-3.2,0.6c-2.3,0.7-4.3,2.1-6.3,3.6
						c-0.3,0.2-0.5-0.2-0.4-0.5c1.2-2.5,3.4-4.6,5.6-5.9C-4715.4-2479.8-4714.1-2480.4-4712.8-2480.6z M-4702-2445.7
						c3.6,0.3,11.3-1.6,14.6,1.2c12.1,16.9-36,21.3-30.8,2.6C-4714.9-2448-4707.3-2445.6-4702-2445.7z M-4702.6-2435.5
						c-0.9-0.1-2,0.7-2.2,1.3c-0.3,0.6-0.2,1.9-0.2,2.1c1.5,0.2,3.1,0.2,4.7,0.1C-4700.7-2433.5-4700.7-2435.3-4702.6-2435.5z
						 M-4695.4-2433c-0.2-1.8-1.4-2.3-2.4-2s-1.6,1.5-1.5,2.7c0,0.1,0,0.1-0.1,0.2C-4698-2432.3-4696.7-2432.6-4695.4-2433z
						 M-4706.4-2435.2c-0.6-0.9-1.9-1.4-2.7-1.2c-1.4,0.3-1.6,2.3-1.6,2.7c1.3,0.5,2.7,0.9,4,1.2c0.3,0.1,0.5,0.1,0.8,0.2v-0.2
						C-4705.9-2433.1-4705.9-2434.3-4706.4-2435.2z M-4690.6-2435.3c-1.4-2.5-4.5-0.7-4.3,2c0.3-0.1,0.5-0.2,0.8-0.3
						C-4692.9-2434.1-4691.7-2434.6-4690.6-2435.3z M-4701.9-2443.8c-1.9-0.2-3.5-0.1-4.8,0.1v0.5c-0.1,1.6-0.3,3.2,0.4,3.9
						c0.6,0.5,2.7,0.5,4.1,0.1C-4701.8-2439.4-4701.4-2442.7-4701.9-2443.8z M-4698.9-2444c-0.3,1.6-0.5,3.5,0.2,4.1
						s2.8,0.5,3.3,0.1s0.5-2,0.3-3.8C-4696.2-2443.9-4698.1-2444-4698.9-2444z M-4707.5-2443.7h-0.6h-0.4c-0.9,0-1.9,0.1-2.8,0.3
						c-1.8,4.4,4.8,5.2,3.8-0.1V-2443.7z M-4694.3-2443.6v0.2c-0.1,1.2,0,2.9,0.6,3.3c0.9,0.6,2.6,0.5,3.5-2.5
						C-4690.5-2443.4-4693.7-2443.5-4694.3-2443.6z M-4712-2469.9c0.4,0,0.8,0.1,1.1,0.4c0.3,0.3,0.6,0.7,0.9,1.1
						c0.5,0.9,0.8,2.2,0.8,3.6c0,1.4-0.3,2.7-0.8,3.6c-0.2,0.5-0.5,0.9-0.9,1.1c-0.3,0.3-0.7,0.4-1.1,0.4s-0.8-0.1-1.1-0.4
						c-0.3-0.3-0.6-0.7-0.9-1.1c-0.5-0.9-0.8-2.2-0.8-3.6c0-1.4,0.3-2.7,0.8-3.6c0.2-0.5,0.5-0.9,0.9-1.1
						C-4712.8-2469.7-4712.4-2469.9-4712-2469.9z M-4687.5-2469.9c0.4,0,0.8,0.1,1.1,0.4c0.3,0.3,0.6,0.7,0.9,1.1
						c0.5,0.9,0.8,2.2,0.8,3.6c0,1.4-0.3,2.7-0.8,3.6c-0.2,0.5-0.5,0.9-0.9,1.1c-0.3,0.3-0.7,0.4-1.1,0.4s-0.8-0.1-1.1-0.4
						c-0.3-0.3-0.6-0.7-0.9-1.1c-0.5-0.9-0.8-2.2-0.8-3.6c0-1.4,0.3-2.7,0.8-3.6c0.2-0.5,0.5-0.9,0.9-1.1
						C-4688.3-2469.7-4687.9-2469.9-4687.5-2469.9z M-4690.9-2481.8l0.3,0.1h0.2c3.4,0.8,7.7,2.4,9.2,6.1c0.1,0.5,0,0.6-0.1,0.7l0,0
						c0,0.1-0.1,0.2-0.3,0.2c-0.1,0-0.1,0-0.2,0c-0.7-0.2-1.3-0.5-1.9-0.8l-0.6-0.3c-0.7-0.4-1.4-0.8-2.2-1c-1.6-0.6-3.3-1-5-1.2
						c-0.4,0-0.7-0.2-1-0.4s-0.5-0.5-0.6-1s-0.1-0.9,0.2-1.4c0.2-0.4,0.5-0.6,0.8-0.8C-4691.6-2481.8-4691.2-2481.8-4690.9-2481.8z"
						/>
				</g>
			</g>
		</g>
	</g>
</g>
<g class="st2">
	<g transform="matrix(0.4441,0,0,0.39775,-345.369,-236.477)" class="st3">
		<g id="Gray-Short.svg" transform="matrix(0.681216,0,0,0.681216,1361.69,1133.76)">
			<g transform="matrix(1,0,0,1,-236.5,-283.5)">
				<g id="head-mono-Gray-Short">
					<path id="_xD83D__xDD8D_-Ink" class="st4" d="M-473.8-374.7c-6.3,0.7-13.7-0.9-17.9-6.6c-0.1-0.2-0.2-0.4-0.2-0.5
						c0-0.2,0.1-0.4,0.2-0.6s0.3-0.3,0.5-0.3s0.3,0,0.5,0.1l0.4,0.2c2.9,1.8,5.8,3.3,9.1,3.9c3.3,0.7,6.7,0.6,10-0.2
						c6-1.5,10.9-5.4,14.5-10.6c4-5.8,6.4-13,7-20.4c0.7-8.9-1-17.6-2.8-26.2c-1.9-9-3.9-18-6.3-26.8c-0.1-0.3-0.1-0.5-0.1-0.8
						c-0.7-0.3-1.5-0.2-2.2,0.1c-1.4,0.5-2.7,1.7-3.8,2.6c-0.4,0.3-0.8,0.7-1.1,0.9c-1.4,1.1-2.9,1.8-4.6,2
						c-1.8,0.1-3.5-0.5-5.1-1.3c-0.8-0.4-1.6-0.8-2.4-1.2c-2.3-1.1-4.5-2.3-7-3c-3.3-1-6.7-1.5-10.2-1.5c-6.1,0.1-12.3,1.8-16,7.6
						c-1.5,2.3-2.5,5-1.7,7.9c0.4,1.6,1.2,3,2.1,4.3l0.3,0.5c0.5,0.7,0.9,1.4,1,2.2c0.1,0.6,0,1.3-0.4,2.1c-0.3,0.5-0.6,0.9-0.9,1.3
						c-0.2,0.3-0.5,0.6-0.7,0.9c-0.4,0.6-0.8,1.4-1.1,2.1c-0.6,1.4-0.8,3-0.8,4.5c-0.1,1.9,0.2,3.7,0.4,5.6c0.2,1.3,0.3,2.6,0.4,3.9
						c0,0.2,0,0.4-0.1,0.5c-0.1,0.2-0.3,0.2-0.5,0.3c0,0-0.1,0-0.2,0c0,0.1,0,0.2,0.1,0.4c-0.1-0.2-0.2-0.3-0.4-0.5l0,0
						c-0.1-0.1-0.2-0.2-0.3-0.4c-0.2-0.2-0.4-0.4-0.6-0.5c-1-0.9-2.3-1.4-3.5-1.4s-2.4,0.4-3.3,1.4c-1.8,1.9-2.3,5-2.4,7.6
						c0,2.7,0.5,5.9,2.6,7.6c0.8,0.7,1.9,1.1,2.9,1.1c0.9,0,1.7-0.3,2.5-0.6c0.2-0.1,0.5-0.2,0.8-0.3c0.3-0.1,0.5-0.1,0.8,0
						c0.2,0.1,0.5,0.3,0.6,0.5c0.2,0.2,0.3,0.5,0.3,0.8s0,0.6-0.1,0.9c0,0.1-0.1,0.1-0.1,0.2l0.5,0.9c1.8,3.2,3.6,6.4,5.9,9.2
						c1.4,1.6,2.8,3.1,4.4,4.4l0.2,0.2c0.1,0.1,0.3,0.2,0.5,0.4c0.5,0.4,1,1,1.5,1c0.1,0,0.3,0,0.4,0c0.3,0,0.5-0.1,0.8,0
						c0.2,0.1,0.4,0.2,0.6,0.6c0.1,0.2,0.2,0.5,0.2,0.8s-0.1,0.6-0.2,0.8c-0.3,0.5-0.6,0.8-0.9,1c-0.4,0.2-0.8,0.2-1.3,0.1
						c-1.1-0.2-2.3-1.3-3.1-1.9l-0.1-0.1c-1.7-1.5-3.4-3.1-4.8-4.9c-2.5-3.1-4.7-6.8-5.8-10.8c-0.8,0.6-1.8,0.9-2.8,0.9
						c-1.5,0.1-3.1-0.4-4.3-1c-2.6-1.4-4.2-4-4.9-6.9c-0.8-3.5-0.6-7.4,0.5-10.5c0-0.1,0.1-0.2,0.1-0.3c-3.3-9.4-4.3-19.9-4.1-29.9
						c0.1-4.7,0.4-9.6,1.4-14.2c0.5-2.1,1.2-4,2.5-5.6c0.7-0.9,1.6-1.6,2.4-2.4c0.8-0.6,1.5-1.2,2.1-2l0.3-0.4
						c0.1-0.1,0.1-0.2,0.2-0.2c1.1-1.4,2.2-2.7,3.5-3.8c1.5-1.3,3.2-2.3,5-3.1c3.8-1.8,7.9-2.9,12-3.7c8.8-1.8,17.8-1.9,26.5,0.6
						c4,1.2,8,2.8,11.9,4.4c0.4,0.1,0.7,0.3,1.1,0.5c3,1.2,6.1,2.5,9.1,3.7c1.4,0.6,2.8,1.2,4.2,1.7c0.3,0.1,0.6,0.4,0.8,0.7
						c0.2,0.3,0.2,0.7,0.1,1.1c-0.9,2.5-2,4.8-3.3,6.9c0.5,0.4,0.9,0.8,1.1,1.4c0.4,0.7,0.6,1.5,0.6,2.4c0,2.9-2.3,4.9-4.3,6.3
						c-0.2,0.1-0.4,0.2-0.5,0.2c1.9,8.1,3.7,16.3,5.3,24.5l0.1,0.6c1.6,8.6,2.6,17.4,1.1,26.1c-1.3,7.5-4.3,14.8-9,20.4
						C-460.9-378.9-467.1-375.4-473.8-374.7z M-515.2-424.2c-0.8-2.9-1.3-6.1-0.9-9c0.2-1.9,0.7-3.6,1.5-5.3c0.5-0.9,1-1.8,1.7-2.6
						l0.2-0.3c0.1-0.1,0.2-0.3,0.2-0.4s0-0.2,0-0.3c-0.1-0.3-0.3-0.5-0.5-0.8c-0.1-0.2-0.2-0.3-0.3-0.5c-1.8-2.7-3.2-6-2.7-9.4
						c0.4-3.4,2.4-6.5,4.5-8.9c4.6-5.2,11.8-6.4,18.1-6.1c3.7,0.2,7.3,0.9,10.8,2.1c1.7,0.6,3.4,1.4,5,2.2l0.4,0.2
						c0.2,0.1,0.4,0.2,0.6,0.3c1.3,0.7,2.6,1.4,4,1.8c2.7,0.7,4.5-0.8,6.5-2.4c0.7-0.5,1.3-1.1,2-1.6l0.1-0.1
						c1.3-0.8,2.8-1.4,4.3-1.4c1.3,0,2.5,0.5,3.5,1.6c0.2,0.2,0.3,0.5,0.4,0.7s0.2,0.4,0.3,0.6c0.4,1.5,0.7,3,1.1,4.5l0.3-0.2
						c0.9-0.6,1.8-1.4,2.2-2.4c0.2-0.4,0.1-1.1-0.1-1.6c-0.1-0.2-0.2-0.3-0.3-0.4c-0.1-0.1-0.2-0.1-0.4-0.1c-0.3,0-0.6,0-0.9-0.1
						s-0.5-0.4-0.7-0.6c-0.2-0.3-0.2-0.6-0.2-1c0-0.3,0.1-0.6,0.4-0.9c1.5-1.9,2.7-4,3.7-6.3l-6.3-2.6c-2.2-0.9-4.5-1.9-6.7-2.8
						l-1.2-0.5c-4.1-1.7-8.2-3.3-12.4-4.4c-8.4-2.1-17.2-1.6-25.6,0.4l-0.5,0.1c-3.5,0.9-7.1,1.9-10.3,3.7c-1.6,0.9-3.1,2-4.4,3.3
						c-0.6,0.6-1.1,1.3-1.6,1.9c-0.7,0.9-1.5,1.8-2.3,2.6l-0.8,0.7c-1.2,1.1-2.3,2.1-2.9,3.8c-0.7,1.7-1,3.7-1.3,5.5
						c-0.7,4.7-1,9.5-0.9,14.3c0,8,1.1,15.9,2.5,23.7c1.1-1.8,2.7-3.1,4.7-3.4c1.3-0.2,2.6,0.1,3.7,0.7
						C-516.2-425.3-515.7-424.8-515.2-424.2z M-517.2-414.7c-1.5-0.6-3-0.8-4.5-0.5c-0.2,0-0.3,0-0.4-0.1c-0.1-0.1-0.2-0.2-0.3-0.4
						c-0.1-0.2-0.1-0.4,0-0.5c0-0.1,0.1-0.3,0.3-0.4c1.7-0.9,3.5-1.3,5.4-1h0.2c0.9,0.2,2.3,0.5,3.3,1.1c0.8,0.5,1.3,1.2,1.5,2.1
						c0.1,0.5,0,1-0.3,1.3c-0.2,0.4-0.6,0.6-1.1,0.6c-0.8,0-1.3-0.4-1.9-0.9c-0.1-0.1-0.2-0.1-0.2-0.2
						C-516-414-516.6-414.4-517.2-414.7z"/>
				</g>
			</g>
		</g>
		<g id="Eyes-Closed.svg" transform="matrix(0.734096,0,0,0.734096,1398.38,1156.31)">
			<g transform="matrix(1,0,0,1,-144.5,-146.5)">
				<g id="face-Eyes-Closed">
					<path id="_xD83D__xDD8D_-Ink1" class="st4" d="M-558.4-520.4h0.2c1.2-0.3,2.4-0.8,3.5,0.1c1.1,0.8,1.2,2.3,0.4,3.3
						c-0.9,1.1-2,1-3.2,1h-0.1c-1,0-2,0-3-0.1c-0.9-0.1-1.9-0.2-2.8-0.4l-0.5-0.1c-0.5-0.1-1.1-0.3-1.4-0.9c-0.5-1,3.2-1.9,3.6-2
						C-560.6-519.9-559.5-520.1-558.4-520.4z M-556.3-533c-0.6,0.7-1.4,1.2-2.2,1.4c-2.2,0.7-5,0.3-6.8-0.4
						c-0.4-0.2-0.7-0.5-0.9-0.9s-0.2-0.8-0.1-1.2c0-0.1,0.1-0.2,0.1-0.4c0.1-0.3,0.4-0.6,0.7-0.7c0.3-0.2,0.7-0.2,1-0.1h0.1
						c1.1,0.4,3,1.1,4.5,0.9c0.9-0.1,1.7-0.4,2.2-1.4c0.2-0.5,0.2-1,0-1.4c-0.3-0.7-0.9-1.3-1.4-1.7c-0.7-0.6-1.5-0.8-2.2-1
						c-0.3-0.1-0.6-0.2-0.9-0.3c-0.1,0-0.2-0.1-0.2-0.2s-0.1-0.2-0.1-0.3s0-0.2,0-0.3s0.1-0.2,0.2-0.2c1.5-0.8,3.5-0.3,5,0.9
						c0.7,0.6,1.4,1.4,1.7,2.2s0.5,1.7,0.4,2.6C-555.4-534.4-555.8-533.6-556.3-533z M-581.3-550c0.4-0.2,0.8,0.8,0.9,1l0.2,0.6
						c0.3,0.9,0.6,1.8,1.3,2.5c0.5,0.6,1.4,1,2,0.4s0.3-1.3,0.4-2.1c0.2-1.4,1.8-2.8,2.8-1.3c2.3,3.2-1.2,7.8-4.5,7
						c-1.7-0.4-3-1.9-3.5-3.6v-0.1C-582.2-546.8-582.5-549.4-581.3-550z M-551.9-547.7L-551.9-547.7c-1.1-2.8,2.8-4,3.1-1.5v0.2
						c0.3,2.8-0.3,6.5-3.4,6.7c-3.4,0.3-4.8-3.9-4.5-7c0-0.5,0.7-0.6,0.8-0.1v0.1c0.5,1.6,1.1,4.5,3,4.5
						C-551.4-544.8-551.5-546.7-551.9-547.7z M-549.4-555.7c2-0.1,1.9,3.3,0,3.4c-6.5,0.2-13,0.4-19.5,0.4h-1.2
						c-6.1,0-12.2,0.1-18.3-0.4c-0.5,0-0.4-0.9,0-0.8c6.4-1,12.8-1.3,19.3-1.7C-562.5-555.2-556-555.4-549.4-555.7z"/>
				</g>
			</g>
		</g>
	</g>
</g>
</svg>
