<?xml version="1.0" encoding="utf-8"?>
<!-- Generator: Adobe Illustrator 24.2.0, SVG Export Plug-In . SVG Version: 6.00 Build 0)  -->
<svg version="1.1" id="图层_1" xmlns="http://www.w3.org/2000/svg" xmlns:xlink="http://www.w3.org/1999/xlink" x="0px" y="0px"
	 viewBox="0 0 85 85" style="enable-background:new 0 0 85 85;" xml:space="preserve">
<style type="text/css">
	.st0{fill-rule:evenodd;clip-rule:evenodd;fill:#FFFFFF;}
	.st1{fill-rule:evenodd;clip-rule:evenodd;}
	.st2{fill:none;stroke:#000000;stroke-width:0.75;stroke-linecap:round;stroke-linejoin:round;stroke-miterlimit:1.5;}
	
		.st3{fill-rule:evenodd;clip-rule:evenodd;fill:#FFFFFF;stroke:#000000;stroke-width:0.75;stroke-linecap:round;stroke-linejoin:round;stroke-miterlimit:1.5;}
	.st4{display:none;}
	.st5{display:inline;}
	.st6{fill-rule:evenodd;clip-rule:evenodd;fill:#040000;}
</style>
<g>
	<g transform="matrix(1.0294,0,0,1.0294,-59.2639,-23.9359)">
		<g id="Sweater-Dots.svg" transform="matrix(0.275071,0,0,0.22065,1901.52,830.143)">
			<g transform="matrix(1,0,0,1,-409,-366.5)">
				<g>
					<g>
						<g id="body-mono-Sweater-Dots" transform="matrix(0.97818,0,0,0.97818,0.174542,15.997)">
							<path id="_xD83C__xDFA8_-Background1" class="st0" d="M-6370-3044.2c7.3,0,14.3,0.3,21.6,0.3c29.6,0.1,59.5-0.1,89.3-1.4
								c8.4-0.4,10.5-0.4,18.9-1c4.9,0,19.8-0.5,19-8c-0.3-14-3.4-27.9-4.4-41.9c-1.9-26.2-3.5-53.3-12.9-77.9
								c-2.2-5.9-6.9-9.7-11.5-13.1c-4.6-3.7-5.8-7.8-10.1-12c-0.9-0.9-6.1-1.2-8.8-3.5c-4-3.3-7.2-7.7-7.5-9.6
								c-0.7-4.3-0.5-15.2-5-14.8c-3.6,0.3-11.3,2.3-14.7,1.9c-3.3-0.3-10.8-0.8-13.9,0.6c-2.7,1.2-0.3,6.5-1.8,8.7
								c-1.4,2-4.4,3.7-5.5,6.3c-30.2,10.4-57.8,28.1-66.3,63.6c-7.4,29.8-7.7,61.8-4.8,92.4c0.6,2.2,0.2,5.7,1.9,7.2
								C-6392.7-3045.8-6370.8-3044.5-6370-3044.2z"/>
							<path id="_xD83D__xDD8D_-Ink10" class="st1" d="M-6232.7-3073.7c-0.6-0.3-1.2-0.7-1.8-0.7c-1.1,0-1.1-2,0-1.9
								c1,0,1.8,0.5,2.7,1C-6230.8-3074.8-6231.7-3073.1-6232.7-3073.7 M-6234.5-3128.4c0.8,0,1.5,0.1,2.1,0.7c0.3,0.4,0.3,1,0,1.4
								c-0.3,0.4-0.9,0.4-1.2,0c0.1,0.1,0,0,0,0c0,0,0,0,0,0c0,0,0,0,0,0c-0.1,0-0.2-0.1-0.3-0.1c0,0-0.2,0-0.2,0
								c-0.1,0-0.2,0-0.3,0c-0.5,0-0.9-0.4-0.9-1C-6235.4-3128-6235-3128.4-6234.5-3128.4 M-6242.7-3106.6c-0.2,1.2-1.9,0.7-1.7-0.5
								c0.4-1.8,0.3-3.6,0-5.4c-0.2-1.2,1.5-1.7,1.7-0.5C-6242.4-3110.9-6242.3-3108.7-6242.7-3106.6 M-6244.9-3176.6
								c-1.3-0.3-2.6-0.4-3.9-0.4c-1.1,0-1.1-1.9,0-1.9c1.5,0,2.9,0.1,4.4,0.5C-6243.4-3178.1-6243.8-3176.3-6244.9-3176.6
								 M-6249.3-3129.2c-0.8-0.4-1.5-0.8-2.3-1.3c-1-0.6-0.1-2.2,0.9-1.7l2.3,1.3C-6247.4-3130.3-6248.3-3128.6-6249.3-3129.2
								 M-6249.6-3090.8c-1,1.5-2.3,2.5-3.9,3c-1.1,0.3-1.5-1.6-0.5-1.9c1.2-0.3,2.2-1,2.9-2.1
								C-6250.5-3092.8-6249-3091.9-6249.6-3090.8 M-6255.6-3159.4c-0.3-0.5-0.6-0.8-1.1-0.8c-1.1,0-1.1-2,0-1.9
								c1.1,0,2.1,0.6,2.6,1.7C-6253.6-3159.2-6255.1-3158.2-6255.6-3159.4 M-6266.7-3146.1c-0.3,0.4-0.9,0.4-1.2,0
								c-0.2-0.2-0.4-0.5-0.5-0.8c0-0.1-0.1-0.2-0.1-0.3c0,0-0.1-0.1-0.1-0.1c0,0,0,0,0-0.1c-0.3-0.4-0.3-1,0-1.4
								c0.3-0.4,0.9-0.4,1.2,0c0.2,0.2,0.4,0.5,0.5,0.8c0,0.1,0.1,0.2,0.1,0.3c0,0,0.1,0.1,0.1,0.1c0,0,0,0,0,0.1
								C-6266.3-3147.1-6266.4-3146.5-6266.7-3146.1 M-6267.6-3117.4c-1.1,0.6-2.4,0.6-3.5,0c-0.4-0.2-0.5-0.9-0.3-1.3
								c0.3-0.5,0.8-0.6,1.2-0.3c0.5,0.3,1.2,0.3,1.8,0c0.4-0.2,0.9-0.1,1.2,0.3C-6267.1-3118.3-6267.2-3117.6-6267.6-3117.4
								 M-6270.7-3097c-0.2,0.5-0.6,0.8-1.1,0.8c-0.5,0-0.9-0.5-0.9-1c0-0.3,0.1-0.6,0.4-0.8c0,0,0,0,0-0.1c0-0.5,0.4-0.9,0.9-1
								c0.5,0,0.9,0.5,0.9,1C-6270.6-3097.7-6270.6-3097.4-6270.7-3097 M-6275.2-3064.7c-1.4,0-2.8,0.4-4.1,0.4
								c-1.1,0-1.1-1.9,0-1.9c1.4,0,2.8-0.4,4.1-0.4C-6274.1-3066.7-6274.1-3064.7-6275.2-3064.7 M-6281-3189.4
								c-0.8,0.9-1.8,1.3-2.8,1.8c-1,0.5-1.9-1.1-0.9-1.7c0.8-0.5,1.8-0.8,2.5-1.5C-6281.4-3191.7-6280.2-3190.3-6281-3189.4
								 M-6283.2-3167c-0.6-0.3-1.2-0.7-1.8-0.7c-1.1,0-1.1-2,0-1.9c1,0,1.8,0.5,2.7,1C-6281.3-3168.1-6282.2-3166.4-6283.2-3167
								 M-6293.7-3077c-0.3-0.5-0.6-0.8-1.1-0.8c-1.1,0-1.1-2,0-1.9c1.1,0,2.1,0.6,2.6,1.7
								C-6291.6-3076.8-6293.1-3075.9-6293.7-3077 M-6297.3-3119.2c-0.3-0.4-0.3-1,0-1.4c0.4-0.4,0.8-0.8,1.1-1.3
								c0.3-0.4,0.9-0.4,1.2,0c0.3,0.4,0.3,1,0,1.4c-0.4,0.4-0.8,0.8-1.1,1.3C-6296.4-3118.8-6296.9-3118.9-6297.3-3119.2
								 M-6301.6-3053.4c-1.3,0-2.4-0.4-3.6-0.9c-1.1-0.4-0.6-2.3,0.5-1.9c1,0.4,2.1,0.8,3.2,0.8
								C-6300.4-3055.3-6300.4-3053.3-6301.6-3053.4 M-6307.2-3095c-1.1,0-2.1-0.7-2.9-1.5c-0.8-0.9,0.4-2.2,1.2-1.4
								c0.5,0.5,1,1,1.6,1C-6306.1-3096.9-6306.1-3094.9-6307.2-3095 M-6303.7-3148.5c0,0.5,0.2,1.1,0.5,1.4
								c0.8,0.9-0.5,2.3-1.2,1.4c-0.6-0.8-1-1.8-1-2.8C-6305.5-3149.7-6303.7-3149.7-6303.7-3148.5 M-6317-3190.9
								c-0.4-0.8-0.8-1.7-1.6-2.2c-1-0.6-0.1-2.3,0.9-1.7c1,0.6,1.7,1.8,2.2,2.9C-6315-3190.7-6316.5-3189.8-6317-3190.9
								 M-6319.3-3170.6c-0.4,0-0.8-0.1-1.2-0.2c-0.2-0.1-0.3-0.1-0.5-0.2c-0.1,0-0.4-0.1-0.2-0.1c-0.5,0-0.9-0.4-0.9-1
								c0-0.5,0.4-1,0.9-1c0.6,0,1.2,0.4,1.9,0.4C-6318.1-3172.6-6318.1-3170.6-6319.3-3170.6 M-6324.9-3139.5h-1.9
								c-1.1,0-1.1-1.9,0-1.9h1.9C-6323.8-3141.5-6323.8-3139.5-6324.9-3139.5 M-6327.1-3053.5c-0.6,0.3-1.2,0.6-1.7,1.1
								c-0.8,0.9-2-0.5-1.2-1.4c0.6-0.6,1.3-1,2.1-1.4c0.4-0.2,0.9-0.1,1.2,0.3C-6326.6-3054.4-6326.7-3053.7-6327.1-3053.5
								 M-6331.3-3078.1c-0.1,0-0.2,0-0.2,0c-0.3,0-0.6,0-0.9,0c-1.1,0-1.1-1.9,0-1.9c0.9,0,1.8,0,2.5,0.7c0.4,0.4,0.3,1,0,1.4
								c-0.3,0.4-0.9,0.3-1.2,0C-6331.1-3078-6331.3-3078.1-6331.3-3078.1 M-6332.4-3111.2c0.3-0.6,0.3-1,0.3-1.6
								c0-1.3,1.7-1.3,1.7,0c0,0.9-0.1,1.7-0.5,2.6c-0.2,0.5-0.8,0.6-1.2,0.3C-6332.5-3110.1-6332.6-3110.7-6332.4-3111.2
								 M-6337.5-3156.8c-1,0.4-1.9,0.9-2.8,1.6c-0.9,0.7-1.8-1-0.9-1.7c1-0.7,2.1-1.3,3.2-1.8
								C-6336.9-3159.1-6336.4-3157.2-6337.5-3156.8 M-6343.4-3189.6c-0.8,0-1.5,0.3-2.2,0.7c-1,0.5-1.9-1.1-0.9-1.7
								c1-0.5,2-0.9,3.1-1C-6342.2-3191.5-6342.2-3189.6-6343.4-3189.6 M-6346-3102.1c-0.3,0-0.5-0.2-0.7-0.4c0,0,0,0,0,0
								c-0.5,0-0.9-0.4-0.9-1c0-0.5,0.4-1,0.9-1c0.3,0,0.6,0,0.9,0.2c0.5,0.2,0.7,0.7,0.7,1.2
								C-6345.1-3102.5-6345.5-3102.1-6346-3102.1 M-6350.3-3169.4c-1.1,0.4-1.5-1.5-0.5-1.9c1.2-0.5,2.5-0.8,3.8-1.3
								c1.1-0.4,1.5,1.5,0.5,1.9C-6347.8-3170.2-6349-3169.9-6350.3-3169.4 M-6354.2-3132.7c-0.3,1.2-2,0.7-1.7-0.5
								c0.3-1.2,0.3-2.3,0.3-3.5c0-1.3,1.7-1.3,1.7,0C-6353.8-3135.4-6353.8-3134-6354.2-3132.7 M-6365.8-3088.7
								c-0.1,0.5-0.4,0.8-0.9,0.9c-0.5,0-0.9-0.5-0.9-1c0-1,0.7-1.8,1.6-1.8c0.5,0,0.9,0.5,0.9,1
								C-6365-3089.1-6365.4-3088.8-6365.8-3088.7 M-6371.7-3144.6c-0.9,0.3-1.9,0.7-2.6,1.4c-0.8,0.9-2.1-0.5-1.2-1.4
								c1-1,2.2-1.5,3.4-1.9C-6371.1-3146.9-6370.7-3145-6371.7-3144.6 M-6375.7-3106.8c-0.3,0.5-0.8,0.6-1.2,0.3
								c-0.6-0.3-1.2-0.3-1.8-0.3c-1.1,0-1.1-1.9,0-1.9c1,0,1.8,0.1,2.7,0.6C-6375.6-3107.9-6375.5-3107.2-6375.7-3106.8
								 M-6378-3060.9c-0.5,0-0.9-0.5-0.9-1c0-0.5,0.4-0.9,0.8-1c0.1-0.5,0.4-0.8,0.9-0.9c0.5,0,0.9,0.5,0.9,1
								C-6376.4-3061.8-6377.1-3061-6378-3060.9 M-6219.2-3053.6c-0.3-1.2-1-2.2-1.5-3.2c-0.2-0.4-0.2-0.6-0.3-0.8
								c-0.1,0.3-0.4,0.5-0.7,0.5c-0.7,0-1.5-0.1-2.2,0.3c-0.4,0.2-0.9,0.1-1.2-0.3c-0.2-0.4-0.1-1.1,0.3-1.3c1-0.5,2-0.6,3.1-0.6
								c0.3,0,0.5,0.1,0.6,0.3c0.4-6.2,0.4-12.3,0-18.5c-0.4-6.6-1.3-13.1-2.3-19.6c-0.5-3.2-1.1-6.3-1-9.6c0.1-3.2,1.3-6.2,0.5-9.4
								c-0.3-1.3-0.9-2.5-1.3-3.7c-0.4-1.4-0.4-2.7-0.2-4.1c0.4-2.9,1-5.7,0-8.5c-0.5-1.2-1.2-2.4-1.6-3.7c-0.4-1.6-0.4-3.4-0.5-5
								c-0.1-3.4-0.2-6.7-0.4-10.1c-0.1-1.5-0.4-2.9-0.9-4.3c-0.5-1.3-1.3-2.5-1.7-3.9c-0.3-1.4-0.4-2.8-0.6-4.3
								c-0.2-1.5-0.5-3-0.9-4.4c-1.6-5.6-4.5-10.5-8-14.9c-3.7-4.6-8.1-8.1-12.7-11.3c-2.5-1.7-4.9-3.4-7.4-5.1
								c-0.1,0.3-0.2,0.6-0.6,0.7c-0.9,0.3-1.9,0.7-2.6,1.4c-0.8,0.9-2.1-0.5-1.2-1.4c0.9-0.9,1.9-1.4,3-1.8
								c-1.1-0.8-2.2-1.6-3.5-2.1c-1.1-0.4-2.7-0.1-3.6-1c-0.7-0.7-0.9-2-1.2-3c-0.3-1.2-0.6-2.5-1.1-3.6c-0.3-0.8-0.7-1.6-1.3-2.2
								c-0.2-1-0.7-1.9-1.4-2.5c-2-1.5-4.4,0-5.3,2.1c-0.7,0-1.5,0.2-2.2,0.2c-1.5,0.1-2.9,0.1-4.4,0.1c-2.8,0-5.7-0.2-8.5-0.6
								c-5-0.8-9.9-2.3-14.9-3.5c0-0.1-0.1-0.1-0.1-0.2c-1.1-2-3.7-1.7-5.4-0.9c-0.7,0.3-1.5,0.7-1.9,1.5c-0.4,0.3-0.8,0.7-1.1,1.1
								c-0.5,0.9-0.9,2.6-2,2.8c-0.7,0.1-1.4-0.1-2.1,0.1c-0.9,0.1-1.7,0.5-2.5,0.9c-6.2,3-12.6,6.3-19.3,7.5
								c-1.6,0.3-3.2,0.6-4.5,1.5c-1.1,0.8-2,1.9-2.9,2.9c-0.9,1-1.6,1.5-2.9,1.6c-1.5,0.2-2.9,0.7-4,2c-0.9,1-1.6,2.4-2.3,3.6
								c-0.7,1.2-1.8,1.9-3,2.6c-2.7,1.7-5.2,3.7-7.4,6.2c-4.6,5.2-7.4,11.9-10.2,18.3c-3,7-5.9,14.1-7.9,21.6
								c-1.9,7.4-3.1,14.9-3.6,22.6c-0.6,8-0.6,16.1-1.1,24.1c-0.2,4-0.4,8-0.6,12c-0.2,4-0.4,7.9-0.4,11.9
								c0.1,7.7,1.5,15.4,3.9,22.6c0.6,1.8,1.3,3.6,2,5.3c0.6,1.5,2.7,1.4,3.4,0c0.2-0.3,0.3-0.6,0.4-1c1.7,0,3.5-0.1,5.2,0
								c3.1,0.3,6.1,0.5,9.2,0.7c6.1,0.4,12.2,0.7,18.2,1.1c0.6,0,1.2,0.1,1.8,0.1c-4.3-15-3.8-31.1-4.5-46.7
								c-0.1-1.3,1.7-1.2,1.7,0c0.7,15.6,0.1,31.8,4.6,46.8c1.7,0.1,3.5,0.3,5.2,0.5c1.4,0.2,2.8,0.4,4.2,0.3
								c1.6-0.1,3.2-0.5,4.7-0.8c2.8-0.6,5.6-0.4,8.4,0c3,0.4,6.1,0.7,9.2,0.8c12.3,0.6,24.7,1.1,36.9,0.2c3-0.2,5.9-0.5,8.9-1
								c3-0.4,6.1-1.2,9.1-1.6c3-0.4,5.8,0.7,8.7,0.9c3,0.2,6.1-0.5,9.1-0.9c1-0.1,2-0.3,2.9-0.4c-1.3-9.6-2-19.3-2.7-29
								c-0.1-1.3,1.7-1.2,1.7,0c0.7,9.6,1.4,19.2,2.6,28.8c5.2-0.7,10.4-1.4,15.5-2.4c1.5-0.3,2.9-0.8,3.8-2.2
								C-6219-3051-6218.9-3052.3-6219.2-3053.6"/>
							<g transform="matrix(1.02231,0,0,1.02231,-6.98232,-17.5685)">
								<path class="st2" d="M-6167-3137.3c0-0.2,0.2,0.3,0.3,0.5c0.2,0.8,0.3,2,0.3,2.8c0,1.9-0.7,7.4-2.6,8.2"/>
							</g>
							<g transform="matrix(1.02231,0,0,1.02231,-0.178436,-16.3539)">
								<path class="st2" d="M-6139.2-3133.6c-1.3,0.2,0.3,7.1,1,8.6"/>
							</g>
						</g>
					</g>
				</g>
			</g>
		</g>
		<g transform="matrix(1,0,0,1,-0.596085,5.85627)">
			<g>
				<g transform="matrix(0.440085,0,0,0.353088,12.9093,114.068)">
					<ellipse class="st3" cx="184.1" cy="-78.3" rx="49.8" ry="14.1"/>
				</g>
				<g>
					<g transform="matrix(0.4441,0,0,0.39775,0,0)">
						<path class="st0" d="M170.1,189.8l-0.6,28.1c0,0,54.7,12.9,84.4-0.2c0,0-0.7-27.6-0.7-27.8s1.9-6.8-43.8-6.9
							C167.5,182.9,170.2,189,170.1,189.8z"/>
					</g>
					<g transform="matrix(0.416453,0,0,0.39775,114.359,1.21981)">
						<path class="st1" d="M-94.4,213.6c-0.3,0.9,0.1,1.5,1,2c1.1,0.6,2.9,0.8,3.8,1c2.3,0.6,4.7,1.1,7,1.5c3.5,0.6,7.1,1,10.6,1.4
							c12.1,1.3,26.8,2.3,40.8,1.4c4.6-0.3,9.2-0.8,13.6-1.6c4.7-0.9,9.1-2.1,13.2-3.7c0.4-0.1,0.5-0.5,0.4-0.9
							c-0.1-0.4-0.5-0.6-0.9-0.4c-4.1,1.4-8.5,2.5-13.1,3.3c-4.3,0.7-8.8,1.3-13.4,1.6c-13.9,0.9-28.4-0.1-40.5-1.3
							c-3.6-0.3-7.1-0.7-10.6-1.2c-2.3-0.3-4.6-0.7-7-1.3c-0.8-0.2-2.2-0.2-3.3-0.5c-0.6-0.2-1.2-0.3-1-0.8c0.1-0.2,0-0.5-0.3-0.6
							C-94,213.3-94.3,213.4-94.4,213.6z"/>
					</g>
					<g transform="matrix(0.579512,0,0,0.413377,-554.105,-35.9305)">
						<path class="st1" d="M1086,269.4l-0.2,6c-0.2,4.2-0.4,8.4-0.5,12.6c0,1.1,0,2.2,0,3.4c0,1.7,0.1,3.4,0.2,5
							c0,0.2,0.1,0.4,0.3,0.4c0.2,0,0.3-0.2,0.3-0.4c0.1-2.1,0.2-4.2,0.3-6.3c0.2-4.9,0.3-9.8,0.4-14.6c0-0.6,0-1.8,0-3
							c0-1.1-0.1-2.2-0.2-3c0-0.3-0.2-0.4-0.3-0.4C1086.2,268.9,1086,269.1,1086,269.4z"/>
					</g>
					<g transform="matrix(0.377572,-0.000301184,0.000431465,0.433882,297.417,-77.4514)">
						<path class="st1" d="M-490.8,353.8c0,1.7,0,6.8,0,7.3c0,2.8,0,5.7,0.1,8.5c0.1,2,0.1,4,0.2,5.9c0.1,0.9,0.2,1.7,0.2,2.5
							c0,0.3,0.2,0.5,0.5,0.5c0.3,0,0.5-0.2,0.5-0.5c0.1-0.9,0.2-1.7,0.2-2.6c0-0.9,0-1.7,0-2.6c-0.1-4-0.4-7.9-0.5-11.9
							c0-0.5-0.2-5.8-0.3-7.4l-0.1-0.8c0-1.5-0.1-2.4-0.3-2.6c-0.3-1.4-0.6-0.5-0.7,3.3C-490.9,353.7-490.9,353.7-490.8,353.8z"/>
					</g>
					<g transform="matrix(0.449369,0,0,0.39775,-22.2518,3.87948)">
						<path class="st1" d="M217.3,181.1c0.8,0.9,1.8,1.8,4.9,2.8c2.4,0.7,6.2,1.5,12.3,2.2c8.9,1,17.7,1.7,26,1.9
							c6.1,0.1,11.9,0,17.4-0.6c3.2-0.3,5.9-0.6,8.8-1.1c2.5-0.5,5.2-1.1,8.6-2.2c0.6-0.2,3.1-1.6,4.2-2.7c0.8-0.7,0.9-1.5,0.5-1.9
							c-1.9-2.1-4.2-3.2-6.5-3.9c-3.4-1-7.2-1-10.8-1.5c-4.5-0.6-8.9-0.9-13.3-1.1c-6.5-0.3-13-0.4-20-0.4c-2.3,0-5.7,0.1-9.2,0.3
							c-3.4,0.2-6.8,0.5-9.2,0.9c-3.9,0.6-8.1,1.6-10.8,2.8c-2.6,1.2-3.8,2.9-3,4.5L217.3,181.1z M299.1,180.2
							c-0.7,1-3.6,2.4-4.2,2.6c-3.3,1.1-6,1.7-8.5,2.2c-2.8,0.5-5.5,0.8-8.7,1.1c-5.4,0.5-11.2,0.7-17.3,0.6
							c-8.3-0.2-17.1-0.9-25.9-1.8c-6-0.6-9.7-1.3-12.1-1.9c-2.8-0.8-3.8-1.6-4.5-2.4l0.2,0c-0.2-0.4-0.1-0.8,0.2-1.1
							c0.5-0.5,1.2-1,2.2-1.5c2.7-1.2,6.8-2.2,10.6-2.8c2.3-0.4,5.7-0.7,9.1-0.9c3.4-0.2,6.9-0.3,9.1-0.3c7-0.1,13.5-0.2,20,0.1
							c4.4,0.2,8.7,0.5,13.3,1.1c3.6,0.5,7.3,0.4,10.7,1.5C295.4,177.2,297.4,178.3,299.1,180.2z"/>
					</g>
				</g>
				<g transform="matrix(0.4441,0,0,0.39775,0,0)">
					<path class="st0" d="M167.6,190.3c-0.6,0.2,0.5,2,0.8,2.3c0.8,0.8,1.7,0,2.4,0.5c1,0.7,1.8,2.2,3.4,1.7
						c1.1-0.3,1.3,0.8,2.1,1.4c0.7,0.5,1.5,0.8,2.3,0.8c0.3,0,1.6-0.8,1.7-0.7c0.6,0.8,1.3,1.5,2.3,1.5c0.7,0,1.2-1,1.9-0.8
						c1.3,0.4,1.3,1.4,3.1,1.4c1.4,0,2.8-0.8,4.2-0.5c2.1,0.5,4.1,0.4,6.2,0.6c0.4,0,1.1-0.8,1.5-0.5c0.8,0.6,1,1.8,2.3,1.6
						c0.3-0.1,1.2-1,1.3-0.9c0.5,0.2,0.8,0.8,1.3,1.1c0.9,0.4,1.9,0.5,2.8,0.9c0.8,0.4,1.4,1,2.4,1.1c1,0,2.3-0.1,3.2-0.6
						c0.3-0.1,0.6-0.4,0.7-0.7c0-0.1,0-0.2,0-0.3c0,0,0-0.1,0-0.1c0-0.1,0,0,0,0.1c0,0.8,1.3,0.9,1.9,0.9c0.3,0,0.8-0.2,1-0.5
						c0-0.1,0.1-0.2,0.1-0.4c0,0,0-0.1,0-0.1c0-0.1,0,0,0,0.1c0.2,0.6,1.9,0.7,2.2,0.7c0.8,0,1.3-0.8,2-0.9c0.8-0.2,1.5,0.3,2.4,0
						c0.5-0.2,0.9-1,1.4-1.1c0.9-0.1,1.7,0.5,2.6,0.5c0.7,0,1.4-0.5,2.1-0.5c0.9,0,1.7,0.5,2.5,0.4c0.8,0,1.2-0.9,1.9-0.9
						c1.3-0.1,2,1.4,3.3,1.3c0.8-0.1,1.5-0.6,2.4-0.6c0.9,0,1.7,0.5,2.6,0.4c0.5-0.1,1.2-0.3,1.6-0.7c0.3-0.3,0.4-1.3,0.7-1.4
						c0.6-0.1,0.9,0.6,1.4,0.8c0.6,0.4,1.4-0.3,1.6-1c0.1-0.2,0-0.8,0.2-0.8c0.5,0.1,0.8,1,1.6,0.8c1-0.2,1.2-1.3,1.7-2
						c0.6-0.8,1.4-0.4,2-0.7c0.4-0.2,0.7-0.9,1-1.3c0.6-0.8,2.4-1.8,2.3-3c-0.1-0.7-0.6-0.6-0.8-1c-0.5-1.1-0.3-2.5-1.2-3.5
						c-0.4-0.5-0.9-0.3-1.4-0.7c-0.4-0.3,0.1-1.2-0.4-1.3c-0.6-0.2-2.7,1.1-3.7,0.4c-1.1-0.7-2.4-0.9-3.6-1.4
						c-0.3-0.1-0.5-0.6-0.8-0.8c-1-0.6-2-0.3-3-0.1c-0.7,0.1-3.3-0.9-3.6-0.6c-0.3,0.2-0.1,1.5-0.6,1.6c-0.5,0.1-1-0.4-1.4-0.5
						c-1.7-0.4-3.2-1-4.8-1.6c-0.6-0.2-1.4-0.3-2.1-0.2c-0.4,0.1-1.2,0.4-1.2,0.4s-0.1-0.1-0.2-0.2c-0.3-0.1-2-0.7-2.3-0.4
						c-0.2,0.2,0,0.6-0.1,0.7c-0.6,0.5-2.5-0.1-3.2-0.2c-0.8-0.1-1.7,0.3-2.5,0.1c-1.8-0.4-3.5-1.1-5.4-0.9
						c-1.1,0.2-2.1,0.7-3.2,0.5c-0.6-0.1-1.4-1.2-1.9-1.1c-0.6,0.1-1.1,0.5-1.7,0.5c-0.3,0-0.8-0.2-1.1-0.1
						c-0.3,0.1-0.4,0.5-0.7,0.6c-0.5,0.2-1.1-0.9-1.8-0.9c-1.3,0-1.8,1.9-3.1,1.9c-1.5,0.1-2.8-0.9-4.2-0.9c-0.4,0-0.9,0.3-1.2,0.7
						c-0.2,0.2-0.1,0.8-0.3,0.8c-1.3-0.2-2.4-1.3-3.9-1.3c-0.5,0-1.3,0.2-1.7,0.5c-0.3,0.2-0.3,1-0.7,0.9c-0.7-0.1-1.3-1.5-2.1-1.3
						c-0.4,0.1-0.6,0.9-1.1,1c-0.9,0.2-2-0.3-3-0.1c-1.2,0.2-2.2,1.3-3.4,1.4c-1.5,0.1-2.6-2.1-4.2-1.5c-1.2,0.5-0.3,2.4-1,3
						c-0.5,0.4-1.5-0.5-2.1,0c-0.5,0.4-1.2,0.8-1.5,1.4c-0.2,0.3-0.1,0.9-0.4,1.1C168.9,188,165.7,189.2,167.6,190.3z M172.9,190.6
						C172.9,190.6,172.9,190.6,172.9,190.6c0.6,0.1,1.2,0.1,1.7,0c1.5-0.4,2.1,1.9,3.8,1.6c0.8-0.1,2.5-0.9,3.3-0.5
						c0.9,0.5,1.8,1.5,2.9,1.4c0.7-0.1,1.3-0.6,2.1-0.6c0.9-0.1,1.7,0.5,2.5,0.5c0.8,0,1.4-0.6,2.2-0.3c0.7,0.3,1,1,1.8,1.2
						c1,0.3,1.8-0.5,2.7-0.4c0.8,0.1,1.4,0.4,2.1,0.6c0.7,0.2,1.6-0.4,2.3-0.4c2.1,0,3.4,0.6,5.6,0.1c0.5-0.1,1.8,1.1,2.8,1.1
						c0.8,0,1.3-0.9,2.2-0.9c0.9,0,1.7,0.5,2.7,0.5c0.8,0,1.4-0.7,2.3-0.7c0.9,0,1.5,1,2.4,0.8c0.6-0.1,1.1-0.8,1.7-0.9
						c0.9-0.1,1.5,0.8,2.4,0.7c1-0.1,1.6-0.7,2.6-0.6c1,0.1,1.7,1.1,2.7,1c1.1,0,2.2-1,3.3-1c1.3,0,2.3,1,3.7,0.8
						c1.9-0.2,4.4-0.7,6.3-1.2c1.5-0.4,2.3-1.9,4-2c0.5,0,0.9,0.5,1.4,0.5c0.9,0,0.8-1.3,1.4-1.7c0.5-0.3,1.7,0.6,1.6-0.4
						c0-0.4-0.2-2.1-0.6-2.2c-0.6-0.2-1.1,0.4-1.5,0.2c-0.4-0.2-0.7-0.6-1.2-0.7c-0.2-0.1-0.8,0.1-0.8,0.1c-0.7-0.5-1.9-1.8-2.8-1.4
						c-0.3,0.1-0.5,0.7-0.5,0.7s0-0.1,0-0.1c-0.1-0.4-1.1-0.5-1.4-0.4c-0.5,0.3-0.7,1.1-1.1,1.4c-0.2,0.2-1-0.7-1.1-0.8
						c-0.6-0.3-1.3-0.4-2-0.5c-0.7,0-1.7,0-2.4,0.1c-0.3,0.1-0.9,0.6-1.2,0.6c-0.1,0,0-0.4-0.1-0.4c-0.6-0.3-1.4,0-2-0.3
						c-0.5-0.3-0.8-0.8-1.4-0.7c-0.6,0.1-0.3,1.1-0.7,1.3c-0.3,0.1-0.6-0.7-0.8-0.9c-0.4-0.4-1.1-0.6-1.6-0.6c-1,0-1.7,1.2-2.6,1.3
						c-1.3,0.3-2.6-1-3.9-0.8c-0.8,0.1-1.4,1.1-2.2,1.2c-0.8,0.1-2.6-1.8-3.6-2c-1.4-0.3-2.2,0.8-3.6,1c0,0-0.5-0.7-0.6-0.7
						c-0.5-0.5-1.3-1-2-1c-0.9,0-1.6,1.2-2.6,1.2c-1.1,0-1.9-1.2-3-1.5c-0.4-0.1-0.9,0.2-1.3,0.3c-1.2,0.2-2.8-0.1-3.9,0.5
						c-0.5,0.3-1,0.8-1.5,1c-1.1,0.4-1.9-0.4-2.9-0.4c-1,0-1.9,0.6-2.9,0.7c-1.5,0.1-3.7-1-5.3,0.4c-0.4,0.3-0.9-0.4-1.4-0.5
						c-0.8-0.1-1.5,0.3-2.2,0.5c-1.2,0.4-1.9,0.9-2.9,1.5c-0.3,0.2-1.2-0.9-1.4-0.5c-0.1,0.4-1.5,1.7-1.8,1.7
						c-0.6,0.1-1.4-0.6-1.9-0.4C171.8,188.7,172.4,190,172.9,190.6z M172.5,190.4l-0.1-0.1C172.3,190.3,172.4,190.4,172.5,190.4
						l0.6,0.4c-0.1-0.1-0.2-0.1-0.3-0.3C172.7,190.5,172.6,190.5,172.5,190.4z M167.6,190.3c0.1,0,0.1,0.1,0.2,0.1L167.6,190.3
						C167.6,190.3,167.6,190.3,167.6,190.3z"/>
					<path class="st1" d="M204.9,180c-0.1,0-0.2-0.1-0.2-0.1c-0.2-0.2-0.5-0.4-0.7-0.5c-0.2-0.1-0.4-0.2-0.6-0.2
						c-0.3,0-0.6,0.1-0.9,0.3c-0.4,0.3-0.8,0.7-1.2,1.1c-0.3,0.3-0.6,0.5-0.9,0.6c-1.1,0.1-2.2-0.5-3.3-0.8c-0.3-0.1-0.6-0.1-1-0.1
						c-0.2,0-0.5,0.1-0.7,0.2c-0.3,0.2-0.6,0.4-0.8,0.6c-0.1,0.1-0.2,0.3-0.2,0.5c-0.8-0.2-1.5-0.7-2.3-1c-0.4-0.2-0.9-0.3-1.4-0.2
						c-0.3,0-0.8,0.1-1.2,0.2c-0.3,0.1-0.6,0.2-0.8,0.4c-0.2,0.1-0.4,0.6-0.5,0.8c-0.1-0.1-0.3-0.2-0.4-0.4
						c-0.3-0.3-0.6-0.6-0.9-0.8c-0.3-0.1-0.5-0.2-0.8-0.1c-0.2,0-0.4,0.1-0.5,0.3c-0.1,0.1-0.2,0.3-0.4,0.5
						c-0.1,0.1-0.1,0.2-0.2,0.2c-0.7,0.2-1.5-0.2-2.3-0.2c-0.2,0-0.5,0-0.7,0c-0.3,0-0.5,0.1-0.8,0.2c-0.9,0.4-1.7,1.1-2.5,1.1
						c-0.5,0-0.9-0.3-1.3-0.6c-0.6-0.4-1.2-0.9-1.8-1c-0.4-0.1-0.8-0.1-1.2,0.1c-0.5,0.2-0.8,0.6-0.9,1.1c-0.1,0.4-0.1,0.9-0.1,1.4
						c0,0.3,0,0.5-0.1,0.6c-0.1,0.1-0.2,0-0.4-0.1c-0.3-0.1-0.7-0.2-1-0.2c-0.2,0-0.5,0.1-0.7,0.2c-0.3,0.2-0.7,0.5-1,0.8
						c-0.3,0.2-0.5,0.5-0.6,0.8c-0.1,0.1-0.1,0.2-0.1,0.4c0,0.1-0.1,0.3-0.1,0.4c0,0.1,0,0.1,0,0.2c-0.5,0.4-2.1,1.2-2.5,2
						c-0.3,0.5-0.3,1.1,0.3,1.6c0,0.1,0,0.2,0,0.3c0,0,0.1,0,0.2,0.1c-0.1,0.1-0.1,0.1-0.2,0.1c0-0.1,0-0.1,0-0.2v0
						c-0.2-0.1-0.1,0.2,0,0.2c0.2,0.7,0.8,1.8,1,2c0.3,0.3,0.6,0.4,0.9,0.5c0.5,0.1,1.1-0.2,1.5,0.1c0.6,0.5,1.2,1.2,1.9,1.6
						c0.5,0.3,1.2,0.4,1.9,0.2c0.2-0.1,0.4,0,0.5,0.1c0.4,0.3,0.6,0.9,1.1,1.3c0.4,0.3,0.8,0.5,1.2,0.7c0.4,0.1,0.9,0.2,1.4,0.2
						c0.2,0,1.1-0.4,1.5-0.6c0.4,0.5,0.7,0.8,1.2,1.1c0.4,0.2,0.8,0.4,1.4,0.4c0.2,0,0.4-0.1,0.7-0.2c0.2-0.1,0.4-0.3,0.7-0.4
						c0.1-0.1,0.2-0.3,0.4-0.2c0.8,0.3,1.1,0.8,1.7,1.1c0.4,0.2,0.9,0.3,1.6,0.3c1,0,2-0.4,3-0.6c0.4-0.1,0.7-0.1,1.1,0
						c0.6,0.2,1.3,0.2,1.9,0.3c1.5,0.1,2.9,0.1,4.4,0.3c0.2,0,0.4,0,0.6-0.1c0.2-0.1,0.4-0.2,0.6-0.4c0.1,0,0.1-0.1,0.2-0.1
						c0.6,0.4,0.9,1.2,1.5,1.5c0.3,0.1,0.7,0.2,1.1,0.1c0.2,0,1-0.6,1.2-0.9c0.3,0.2,0.5,0.5,0.7,0.7c0.1,0.1,0.2,0.2,0.4,0.2
						c0.2,0.1,0.4,0.2,0.6,0.2c0.7,0.2,1.5,0.3,2.2,0.7c0.5,0.3,0.9,0.6,1.4,0.8c0.3,0.2,0.7,0.3,1.2,0.3c0.6,0,1.4,0,2.1-0.2
						c0.5-0.1,1-0.3,1.4-0.5c0.2-0.1,0.5-0.3,0.6-0.5l0,0c0.5,0.3,1.3,0.4,1.8,0.4c0.2,0,0.6-0.1,0.8-0.3c0.2-0.1,0.3-0.2,0.4-0.3
						c0.1,0,0.2,0.1,0.2,0.1c0.6,0.2,1.6,0.3,1.8,0.3c0.3,0,0.5-0.1,0.8-0.2c0.4-0.2,0.8-0.6,1.3-0.7c0.5-0.1,1,0.1,1.5,0.1
						c0.3,0,0.6,0,0.9-0.1c0.1-0.1,0.3-0.1,0.4-0.3c0.3-0.2,0.6-0.7,0.9-0.8c0.1,0,0.3,0,0.4,0c0.7,0.1,1.4,0.5,2.1,0.5
						c0.2,0,0.4,0,0.5-0.1c0.5-0.1,1-0.5,1.5-0.5c0.7,0,1.3,0.3,1.9,0.4c0.2,0,0.4,0,0.6,0c0.2,0,0.4-0.1,0.6-0.1
						c0.5-0.2,0.9-0.7,1.4-0.8c0.5,0,0.9,0.2,1.3,0.5c0.4,0.2,0.7,0.5,1.1,0.6c0.3,0.1,0.6,0.1,0.9,0.1l2.3-0.6c0.7,0,1.3,0.3,2,0.4
						c0.2,0,0.4,0,0.6,0c0.3,0,0.8-0.2,1.1-0.3c0.3-0.1,0.6-0.3,0.7-0.5c0.1-0.1,0.3-0.4,0.4-0.7c0-0.1,0.1-0.4,0.2-0.5
						c0,0,0.1,0,0.1,0.1c0.3,0.2,0.5,0.5,0.8,0.7c0.4,0.2,0.8,0.2,1.2,0c0.5-0.2,0.9-0.8,1.1-1.3c0,0,0,0,0-0.1
						c0.2,0.1,0.3,0.3,0.5,0.4c0.2,0.1,0.5,0.2,0.8,0.1c0.4-0.1,0.7-0.3,0.9-0.5c0.5-0.5,0.7-1.2,1.1-1.7c0.1-0.1,0.2-0.2,0.3-0.2
						c0.5-0.2,1.1,0,1.5-0.3c0.2-0.1,0.4-0.3,0.5-0.5c0.2-0.3,0.4-0.7,0.6-1c0.4-0.6,1.4-1.2,1.9-1.9c0.3-0.5,0.5-1,0.5-1.5
						c0-0.3-0.1-0.5-0.2-0.7c-0.1-0.1-0.2-0.2-0.3-0.3c-0.1-0.1-0.2-0.1-0.3-0.2c-0.3-0.7-0.3-1.7-0.6-2.5c-0.1-0.4-0.3-0.8-0.6-1.2
						c-0.1-0.1-0.2-0.2-0.4-0.3c-0.3-0.2-0.7-0.1-1-0.4c0-0.1,0-0.2,0-0.2c0-0.3,0-0.5-0.1-0.7c-0.1-0.2-0.2-0.4-0.5-0.5
						c-0.2-0.1-0.5-0.1-0.8,0c-0.5,0.1-1.3,0.5-2,0.6c-0.3,0-0.6,0.1-0.8-0.1c-0.4-0.2-0.7-0.4-1.1-0.6c-0.8-0.3-1.7-0.5-2.6-0.8
						c-0.2-0.1-0.3-0.4-0.5-0.6c-0.1-0.1-0.2-0.2-0.3-0.2c-0.5-0.3-0.9-0.4-1.4-0.4c-0.6,0-1.3,0.1-1.9,0.3
						c-0.5,0.1-2.3-0.6-3.1-0.7c-0.3,0-0.6,0.1-0.7,0.2c-0.1,0.1-0.2,0.2-0.2,0.4c-0.1,0.2-0.1,0.6-0.2,0.9c0,0.1,0,0.2-0.1,0.2
						c-0.1,0-0.2,0-0.3-0.1c-0.3-0.1-0.6-0.3-0.9-0.4c-0.7-0.2-1.3-0.4-1.9-0.6c-0.9-0.3-1.9-0.7-2.9-1c-0.4-0.1-0.7-0.2-1.1-0.2
						c-0.4,0-0.8,0-1.2,0l-1.1,0.4l-0.1-0.1c-0.3-0.1-1.3-0.4-1.9-0.5c-0.4,0-0.7,0.1-0.8,0.2c-0.2,0.1-0.2,0.5-0.3,0.8
						c-0.2,0.1-0.5,0-0.8,0c-0.7-0.1-1.5-0.3-1.9-0.4c-0.6-0.1-1.2,0.1-1.9,0.2c-0.2,0-0.4,0-0.6,0c-1.1-0.3-2.2-0.6-3.3-0.8
						c-0.8-0.1-1.6-0.2-2.4-0.1c-0.7,0.1-1.5,0.4-2.2,0.5c-0.3,0-0.5,0-0.8,0c-0.4-0.1-0.9-0.7-1.4-0.9c-0.3-0.1-0.5-0.2-0.7-0.2
						l-1.6,0.5c-0.3,0-0.5-0.1-0.8-0.1c-0.1,0-0.3,0-0.4,0c-0.1,0-0.3,0.1-0.4,0.2C205.2,179.6,205,179.9,204.9,180z M225.3,181.2
						c0,0.2-0.1,0.3-0.2,0.4c-0.3,0.2-0.7,0.4-1.3,0.3c-0.8,0-1.8-0.3-2.3-0.4c-0.7-0.1-1.3,0.2-1.9,0.2c-0.2,0-0.4,0-0.6-0.1
						c-1.1-0.3-2.1-0.6-3.2-0.8c-0.7-0.1-1.3-0.2-2,0c-0.7,0.1-1.5,0.4-2.2,0.5c-0.4,0-0.8,0-1.2-0.1c-0.2,0-0.4-0.1-0.6-0.3
						c-0.3-0.2-0.6-0.5-0.9-0.7c-0.1-0.1-0.2-0.2-0.3-0.2c-0.4,0.1-0.9,0.3-1.3,0.4c-0.1,0-0.3,0.1-0.4,0.1l-1-0.1
						c0,0-0.1,0.1-0.1,0.1c-0.1,0.1-0.1,0.2-0.2,0.3c-0.1,0.1-0.2,0.2-0.4,0.3c-0.2,0.1-0.5,0.1-0.8-0.1c-0.2-0.1-0.5-0.3-0.7-0.5
						c-0.1-0.1-0.3-0.2-0.4-0.2c-0.4,0-0.7,0.3-0.9,0.5c-0.4,0.4-0.8,0.8-1.2,1.1c-0.3,0.2-0.6,0.3-0.9,0.3c-0.3,0-0.7,0-1-0.1
						c-1.1-0.2-2.2-0.9-3.3-0.8c-0.1,0-0.3,0.1-0.4,0.1c-0.1,0.1-0.3,0.2-0.4,0.3c0,0.1-0.1,0.5-0.2,0.6c-0.1,0.3-0.3,0.4-0.6,0.4
						c-1-0.1-1.8-0.7-2.8-1.1c-0.3-0.1-0.7-0.2-1-0.2c-0.2,0-0.5,0.1-0.8,0.1c-0.2,0.1-0.5,0.2-0.7,0.3c-0.1,0.1-0.1,0.2-0.1,0.3
						c-0.1,0.2-0.2,0.4-0.3,0.5c-0.2,0.2-0.4,0.3-0.6,0.2c-0.2,0-0.5-0.1-0.7-0.3c-0.3-0.2-0.5-0.5-0.8-0.7
						c-0.2-0.1-0.3-0.3-0.5-0.3c-0.1,0-0.1,0.2-0.2,0.3c-0.1,0.2-0.3,0.4-0.4,0.5c-0.1,0.1-0.3,0.2-0.5,0.2
						c-0.2,0.1-0.5,0.1-0.7,0.1c-0.7,0-1.6-0.3-2.3-0.2c-0.9,0.2-1.7,0.9-2.6,1.2c-0.3,0.1-0.6,0.2-0.8,0.2c-1.1,0.1-2.1-1-3.1-1.5
						c-0.3-0.1-0.6-0.2-0.9-0.1c-0.4,0.2-0.3,0.6-0.3,1c0,0.5,0,1.1-0.2,1.5c-0.1,0.2-0.2,0.4-0.4,0.5c-0.2,0.2-0.5,0.3-0.8,0.2
						c-0.3,0-0.6-0.2-0.9-0.2c-0.2,0-0.3-0.1-0.4,0c-0.3,0.2-0.6,0.4-0.9,0.7c-0.2,0.2-0.3,0.3-0.5,0.5c-0.1,0.2-0.1,0.6-0.2,0.9
						c-0.1,0.1-0.2,0.3-0.3,0.4c-0.4,0.3-1.5,0.8-2.2,1.4c-0.1,0.1-0.3,0.2-0.3,0.4c0,0,0,0.1,0.1,0.1c0.1,0,0.2,0,0.3,0l0,0l0,0
						l0,0c0.1,0,0,0,0,0.1l0,0l0.1,0.1c0.2,0.2,0.3,0.5,0.2,0.8c-0.1,0.2-0.2,0.3-0.4,0.3l0,0.1c0.1,0.2,0.2,0.4,0.3,0.5
						c0.2,0.4,0.4,0.7,0.5,0.8c0.1,0.1,0.3,0.2,0.5,0.2c0.3,0,0.7-0.1,1-0.1c0.3,0,0.7,0,0.9,0.2c0.6,0.4,1.2,1.1,1.9,1.5
						c0.3,0.2,0.7,0.2,1.2,0.1c0.5-0.2,0.8-0.1,1.1,0.1c0.5,0.3,0.8,0.9,1.4,1.4c0.3,0.2,0.6,0.4,0.9,0.5c0.3,0.1,0.7,0.2,1,0.2
						c0.2,0,1-0.6,1.4-0.7c0.4-0.1,0.7,0.1,0.8,0.2c0.3,0.4,0.5,0.7,0.9,0.9c0.3,0.2,0.6,0.3,1,0.3c0.2,0,0.4-0.2,0.6-0.3
						c0.3-0.2,0.5-0.4,0.8-0.4c0.2-0.1,0.5-0.1,0.7,0c0.9,0.3,1.2,0.8,1.8,1.2c0.3,0.1,0.6,0.2,1.1,0.2c0.9,0,1.9-0.4,2.8-0.5
						c0.5-0.1,1-0.1,1.5,0.1c0.6,0.2,1.2,0.3,1.8,0.3c1.5,0.2,2.9,0.1,4.4,0.3c0.1,0,0.2-0.1,0.3-0.2c0.2-0.1,0.5-0.3,0.7-0.4
						c0.3-0.1,0.5-0.1,0.7,0.1c0.5,0.4,0.8,1,1.3,1.4c0.2,0.1,0.4,0.2,0.7,0.2c0.2,0,0.8-0.6,1-0.8c0.3-0.2,0.5-0.1,0.6-0.1
						c0.1,0.1,0.3,0.2,0.4,0.3c0.3,0.3,0.5,0.7,0.9,0.8c0.7,0.3,1.5,0.4,2.2,0.7c0.2,0.1,0.4,0.1,0.6,0.2c0.5,0.3,0.9,0.6,1.4,0.8
						c0.3,0.1,0.5,0.2,0.9,0.2c0.5,0,1,0,1.6-0.1c0.5-0.1,1-0.2,1.4-0.5l0.5-0.4l0-0.2v0l0,0l0-0.1l0,0c0.3-0.3,0.9,0.2,0.9,0.1
						l0,0.1c0,0.2,0.2,0.2,0.4,0.3c0.3,0.1,0.7,0.1,0.9,0.1c0.1,0,0.3-0.1,0.4-0.1c0.1,0,0.2-0.1,0.2-0.2v0l0-0.1v0c0,0,0-0.1,0-0.1
						l0,0l0-0.1c0-0.3,0.2-0.4,0.2-0.4c0.1-0.1,0.6-0.2,0.7,0.3c0,0,0,0,0,0.1c0,0,0.1,0,0.1,0.1c0.2,0.1,0.4,0.1,0.6,0.2
						c0.4,0.1,0.9,0.1,1,0.1c0.2,0,0.3-0.1,0.5-0.1c0.5-0.3,1-0.6,1.5-0.8c0.6-0.1,1.2,0.1,1.8,0.1c0.2,0,0.3,0,0.5-0.1
						c0.3-0.1,0.7-0.6,1-0.9c0.2-0.1,0.4-0.2,0.5-0.2c0.2,0,0.4,0,0.6,0c0.7,0.1,1.3,0.5,2,0.5c0.5,0,1-0.4,1.6-0.5
						c0.2,0,0.4-0.1,0.5-0.1c0.7,0,1.4,0.3,2.1,0.4c0.1,0,0.3,0,0.4,0c0.5,0,0.9-0.5,1.3-0.7c0.2-0.1,0.4-0.2,0.6-0.2
						c0.3,0,0.6,0,0.9,0.1c0.4,0.1,0.8,0.4,1.1,0.6c0.4,0.3,0.8,0.6,1.3,0.5c0.6-0.1,1.2-0.4,1.8-0.5c0.2,0,0.4-0.1,0.6-0.1
						c0.7,0,1.4,0.3,2.1,0.4c0.1,0,0.3,0,0.4,0c0.2,0,0.5-0.1,0.7-0.2c0.2-0.1,0.4-0.2,0.6-0.3c0.2-0.2,0.2-0.8,0.4-1.1
						c0.2-0.2,0.3-0.4,0.5-0.4c0.3-0.1,0.6,0,0.8,0.1c0.3,0.2,0.6,0.6,0.9,0.8c0.1,0.1,0.3,0,0.4-0.1c0.2-0.1,0.4-0.4,0.4-0.6
						c0.1-0.2,0-0.5,0.1-0.7c0.1-0.3,0.3-0.5,0.7-0.4c0.2,0,0.4,0.1,0.6,0.3c0.2,0.2,0.3,0.4,0.6,0.5c0.1,0,0.1,0,0.2,0
						c0.2,0,0.4-0.2,0.6-0.4c0.3-0.4,0.5-1,0.8-1.4c0.2-0.3,0.5-0.5,0.7-0.6c0.5-0.2,1,0,1.4-0.3c0.1-0.1,0.2-0.2,0.3-0.3
						c0.2-0.3,0.4-0.6,0.6-0.9c0.4-0.5,1.1-1,1.7-1.6c0.3-0.3,0.5-0.6,0.5-1c0-0.1-0.1-0.1-0.1-0.2c-0.1-0.1-0.2-0.1-0.3-0.2
						c-0.1-0.1-0.2-0.2-0.3-0.4c-0.4-0.8-0.4-1.8-0.7-2.6c-0.1-0.3-0.2-0.5-0.4-0.8c-0.3-0.3-0.6-0.2-0.9-0.4
						c-0.1-0.1-0.3-0.1-0.4-0.2c-0.2-0.1-0.3-0.3-0.3-0.6c0-0.2,0-0.3,0-0.5c0-0.1,0-0.1,0-0.2c-0.1,0-0.2,0.1-0.4,0.1
						c-0.5,0.2-1.2,0.4-1.9,0.5c-0.6,0.1-1.1,0-1.4-0.3c-0.3-0.2-0.6-0.4-0.9-0.5c-0.8-0.3-1.7-0.5-2.6-0.8c-0.1,0-0.2-0.1-0.3-0.2
						c-0.2-0.2-0.3-0.5-0.6-0.6c-0.3-0.2-0.6-0.3-1-0.3c-0.6,0-1.1,0.1-1.7,0.3c-0.2,0-0.5,0-0.9-0.1c-0.7-0.2-1.7-0.5-2.3-0.6
						c-0.1,0-0.1,0-0.2,0c0,0.1,0,0.2,0,0.2c0,0.3-0.1,0.7-0.2,0.9c-0.1,0.2-0.3,0.4-0.6,0.5c-0.2,0.1-0.4,0-0.7,0
						c-0.3-0.1-0.7-0.3-0.9-0.4c-0.7-0.2-1.3-0.4-2-0.6c-1-0.3-1.9-0.7-2.9-1c-0.3-0.1-0.6-0.2-0.9-0.2c-0.3,0-0.6,0-0.9,0l-1.1,0.4
						c-0.1,0-0.1,0-0.2,0l-0.3-0.2C226.8,181.3,225.7,181.4,225.3,181.2z M184,185.6c-0.1-0.1-0.3-0.2-0.4-0.2
						c-0.2-0.1-0.4-0.2-0.7-0.3c-0.3,0-0.6,0-0.8,0c-0.5,0.1-1.1,0.3-1.6,0.5c-0.5,0.1-0.9,0.3-1.3,0.5c-0.6,0.3-1.1,0.6-1.7,1
						c-0.1-0.1-0.2-0.2-0.3-0.3c-0.3-0.2-0.5-0.3-0.7-0.3c-0.3,0-0.6,0.1-0.7,0.4c-0.1,0.1-0.4,0.5-0.7,0.8
						c-0.3,0.3-0.6,0.6-0.7,0.6c-0.5,0.1-0.9-0.3-1.4-0.4c-0.2,0-0.4-0.1-0.6,0c-0.5,0.1-0.7,0.5-0.8,1c0,0.3,0.1,0.6,0.2,0.9v0
						c0,0.2-0.3,0.2-0.2,0.4c0,0,0,0.1,0,0.1c0,0,0,0.1,0,0.1c0.1,0.1-0.1,0.2,0.1,0.2c0,0,0,0.1,0,0.1c0,0,0,0.1,0.1,0.1
						c0,0,0,0.1,0.2,0.1c0,0,0,0,0.1,0c0,0,0,0,0,0c0.1,0.3,0.3,0.1,0.3,0.1h0h0v0l0,0c0,0,0,0,0,0l0,0c0,0,0,0-0.1-0.1
						c-0.1,0-0.1,0-0.2,0c0,0,0,0,0.1,0c0.1-0.1,0.2-0.1,0.2-0.2l0,0.1c0,0,0,0,0,0h0c0,0.1,0,0.1,0,0.1l0,0l0,0v0l0,0h0l0,0h0l0,0
						c0,0,0.1,0,0.1,0l0,0c0.1,0.1,0.3,0.1,0.3,0.1c0.2,0.1,0.5,0.1,0.6-0.2c0,0,0-0.1,0-0.1c0.1,0,0.2,0,0.4,0c0.2,0,0.5,0,0.7-0.1
						c0.4-0.1,0.7,0.1,1,0.4c0.4,0.3,0.8,0.8,1.2,1c0.4,0.3,0.9,0.4,1.5,0.3c0.5-0.1,1.3-0.4,2-0.5c0.4-0.1,0.7-0.1,1,0
						c0.7,0.4,1.3,1,2,1.3c0.4,0.2,0.8,0.2,1.2,0.2l2.1-0.6c0.6,0,1.3,0.3,1.9,0.4c0.2,0,0.4,0.1,0.6,0c0.6,0,1.1-0.3,1.6-0.4
						c0.1,0,0.3,0,0.4,0c0.5,0.2,0.8,0.7,1.3,1c0.2,0.1,0.3,0.2,0.5,0.2c0.4,0.1,0.7,0.1,1.1,0c0.6-0.1,1.1-0.5,1.7-0.4
						c0.3,0,0.5,0.1,0.8,0.2c0.4,0.1,0.8,0.3,1.3,0.4c0.3,0.1,0.6,0.1,0.9,0c0.5-0.1,1-0.4,1.5-0.4c1.5,0,2.6,0.3,3.9,0.3
						c0.5,0,1.1-0.1,1.8-0.2c0.1,0,0.2,0.1,0.3,0.1c0.4,0.2,0.9,0.5,1.3,0.7c0.4,0.2,0.7,0.3,1,0.2c0.2,0,0.4-0.1,0.6-0.1
						c0.5-0.2,0.9-0.7,1.6-0.7c0.7,0,1.4,0.3,2.1,0.4c0.2,0,0.4,0,0.6,0c0.2,0,0.4,0,0.6-0.1c0.5-0.2,1.1-0.6,1.7-0.6
						c0.7,0,1.2,0.6,1.8,0.8c0.2,0.1,0.4,0.1,0.7,0c0.2,0,0.3-0.1,0.5-0.2c0.4-0.2,0.7-0.6,1.2-0.7c0.6-0.1,1.1,0.5,1.7,0.7
						c0.2,0.1,0.4,0.1,0.6,0.1c0.7,0,1.3-0.4,1.9-0.6c0.2-0.1,0.4-0.1,0.7,0c0.7,0.1,1.3,0.7,2,0.9c0.2,0.1,0.5,0.1,0.7,0.1
						c0.3,0,0.5-0.1,0.8-0.1c0.8-0.3,1.6-0.9,2.5-0.9c1,0,1.9,0.6,2.8,0.8c0.3,0,0.6,0.1,0.9,0c1-0.1,2.1-0.3,3.2-0.5
						c1.1-0.2,2.2-0.4,3.2-0.7c1.1-0.3,1.9-1.1,2.8-1.6c0.3-0.2,0.7-0.3,1.1-0.3c0.4,0,0.6,0.3,1,0.4c0.1,0,0.3,0.1,0.5,0.1
						c0.4,0,0.7-0.2,0.9-0.5c0.2-0.2,0.3-0.5,0.4-0.7c0.1-0.2,0.1-0.4,0.3-0.5c0.1,0,0.1,0,0.2,0c0.2,0,0.4,0.1,0.6,0.1
						c0.4,0.1,0.7,0,0.9-0.2c0.2-0.2,0.3-0.4,0.3-0.9c0-0.3-0.2-1.4-0.4-2c-0.1-0.4-0.4-0.7-0.5-0.7c-0.3-0.1-0.5-0.1-0.7-0.1
						c-0.2,0-0.3,0.1-0.5,0.2c-0.1,0-0.2,0.1-0.2,0.1c-0.3-0.2-0.5-0.4-0.8-0.5c-0.1-0.1-0.3-0.2-0.5-0.2c-0.1,0-0.5,0.1-0.7,0.2
						l0,0l0,0h0l0,0l0,0c-0.5-0.4-1.2-1-1.8-1.3c-0.4-0.2-0.9-0.2-1.3-0.1c-0.1,0.1-0.3,0.2-0.4,0.3l-0.1,0c-0.5-0.2-1.2-0.2-1.4,0
						c-0.2,0.1-0.4,0.3-0.6,0.5c-0.2,0.2-0.3,0.6-0.5,0.8c-0.2-0.2-0.7-0.6-0.8-0.6c-0.3-0.2-0.6-0.3-0.9-0.3
						c-0.4-0.1-0.9-0.2-1.3-0.2c-0.4,0-1,0-1.5,0c-0.4,0-0.7,0.1-1,0.1l-0.8,0.4c-0.1-0.1-0.2-0.2-0.3-0.3c-0.2-0.1-0.3-0.1-0.5-0.1
						c-0.5-0.1-1.1,0-1.5-0.2c-0.4-0.2-0.6-0.5-1-0.7c-0.2-0.1-0.4-0.1-0.7-0.1c-0.2,0-0.4,0.2-0.5,0.3c-0.1,0.2-0.2,0.4-0.3,0.6
						c-0.1-0.2-0.3-0.4-0.3-0.4c-0.2-0.2-0.6-0.4-0.9-0.5c-0.3-0.1-0.7-0.2-1-0.2c-0.3,0-0.5,0.1-0.8,0.2c-0.7,0.3-1.3,1-2,1.2
						c-1,0.2-2-0.6-2.9-0.8c-0.3-0.1-0.6-0.1-1,0c-0.2,0-0.4,0.1-0.6,0.2c-0.5,0.3-1,0.9-1.5,0.9c-0.2,0-0.4-0.1-0.6-0.3
						c-0.6-0.4-1.3-1-1.9-1.3c-0.3-0.2-0.6-0.4-0.9-0.4c-0.5-0.1-0.9-0.1-1.4,0c-0.7,0.2-1.3,0.7-2.1,0.9c-0.2-0.2-0.4-0.5-0.4-0.5
						c-0.3-0.3-0.8-0.7-1.2-0.9c-0.4-0.2-0.7-0.3-1.1-0.3c-0.3,0-0.5,0.1-0.8,0.2c-0.6,0.3-1.2,1-1.9,1c-0.2,0-0.5-0.1-0.7-0.2
						c-0.7-0.4-1.4-1.1-2.2-1.3c-0.2-0.1-0.4-0.1-0.6,0c-0.3,0.1-0.6,0.2-0.9,0.3c-0.8,0.1-1.8,0-2.7,0.2c-0.5,0.1-0.9,0.2-1.3,0.3
						l-1.5,1c-0.2,0.1-0.4,0.1-0.6,0.1c-0.7-0.1-1.3-0.5-2.1-0.5c-0.2,0-0.5,0-0.7,0.1c-0.7,0.2-1.5,0.5-2.2,0.6
						c-1.1,0-2.5-0.5-3.8-0.3C185.1,185,184.5,185.2,184,185.6z M241.6,186.3C241.6,186.3,241.6,186.3,241.6,186.3
						c0,0.1,0,0.2,0,0.2c0,0,0,0.1,0,0.1s-0.6-0.2-0.7-0.1c-0.1,0-0.2,0.1-0.2,0.2c-0.3,0.4-0.5,0.9-0.8,1.2
						c-0.1,0.1-0.3,0.2-0.6,0.1c-0.3-0.1-1-0.8-1.1-0.8c-0.3-0.1-0.5-0.2-0.8-0.3c-0.3-0.1-0.6-0.1-0.9-0.1c-0.4,0-0.9,0-1.4,0
						c-0.3,0-0.6,0.1-0.9,0.1c-0.2,0.1-0.6,0.4-0.9,0.5c-0.2,0.1-0.4,0.1-0.5,0.1c-0.2,0-0.4-0.2-0.4-0.4c0,0,0-0.1,0-0.2
						c-0.4-0.1-0.9,0-1.3-0.1c-0.2,0-0.4-0.1-0.5-0.2c-0.3-0.2-0.5-0.4-0.8-0.6c-0.1-0.1-0.2-0.1-0.3-0.1c0,0,0,0.1,0,0.2
						c0,0.2-0.1,0.4-0.1,0.6c-0.1,0.3-0.3,0.5-0.5,0.6c-0.2,0.1-0.5,0.1-0.7-0.1c-0.2-0.2-0.4-0.7-0.6-0.8c-0.2-0.1-0.4-0.3-0.6-0.4
						c-0.2-0.1-0.5-0.1-0.7-0.1c-0.2,0-0.4,0.1-0.6,0.2c-0.6,0.4-1.2,1-2,1.1c-0.3,0.1-0.6,0.1-1,0c-1-0.2-2-0.9-3-0.7
						c-0.6,0.1-1,0.7-1.6,1c-0.2,0.1-0.4,0.2-0.6,0.2c-0.3,0-0.6-0.1-1.1-0.3c-0.9-0.5-2-1.5-2.7-1.7c-0.3-0.1-0.6,0-0.9,0
						c-0.8,0.2-1.5,0.8-2.5,1c0,0-0.3,0-0.6-0.3c-0.1-0.2-0.4-0.5-0.5-0.6c-0.2-0.2-0.5-0.5-0.8-0.6c-0.3-0.2-0.5-0.3-0.8-0.3
						c-0.7,0-1.2,0.7-1.9,1c-0.2,0.1-0.5,0.2-0.7,0.2c-0.3,0-0.6-0.1-0.9-0.2c-0.8-0.3-1.5-1.2-2.3-1.4c-0.1,0-0.2,0-0.3,0
						c-0.3,0.1-0.6,0.2-0.8,0.3c-0.8,0.1-1.8,0-2.8,0.2c-0.4,0-0.7,0.1-1,0.3c-0.4,0.2-0.8,0.6-1.1,0.8c-0.1,0.1-0.3,0.2-0.4,0.2
						c-0.4,0.2-0.8,0.2-1.1,0.1c-0.6-0.1-1.2-0.5-1.9-0.5c-0.8,0-1.5,0.4-2.2,0.6c-0.2,0.1-0.4,0.1-0.7,0.1c-0.9,0-2.1-0.3-3.2-0.3
						c-0.6,0-1.2,0.1-1.7,0.6c-0.2,0.2-0.4,0.2-0.7,0.2c-0.2,0-0.4-0.1-0.6-0.3c-0.1-0.1-0.3-0.2-0.4-0.2c-0.3,0-0.5,0-0.7,0.1
						c-0.4,0.1-0.9,0.3-1.3,0.4c-0.4,0.1-0.8,0.3-1.1,0.5c-0.6,0.3-1.1,0.7-1.7,1c-0.2,0.1-0.4,0.1-0.7,0c-0.2-0.1-0.5-0.4-0.7-0.6
						c-0.2,0.3-0.6,0.7-1,1c-0.5,0.4-0.9,0.7-1.1,0.7c-0.2,0-0.4,0-0.5-0.1c-0.5-0.1-0.9-0.5-1.3-0.4c-0.2,0-0.1,0.3,0,0.5
						c0.1,0.2,0.1,0.3,0.2,0.5c0.1,0,0.2,0.1,0.3,0.2c0,0,0.1,0,0.1,0c0,0,0,0,0,0.1c0.2,0,0.4,0,0.6,0c0.2,0,0.4-0.1,0.6-0.1
						c0.4-0.1,0.7-0.1,1.1,0c0.5,0.2,1,0.6,1.5,1c0.3,0.2,0.7,0.5,1.2,0.4c0.6-0.1,1.5-0.5,2.3-0.6c0.5-0.1,0.9,0,1.3,0.1
						c0.6,0.3,1.1,0.8,1.7,1.1c0.3,0.2,0.6,0.3,0.9,0.2c0.5-0.1,1-0.4,1.6-0.5c0.2,0,0.3-0.1,0.5-0.1c0.2,0,0.4,0,0.6,0
						c0.6,0.1,1.3,0.5,1.9,0.4c0.5,0,1-0.3,1.5-0.4c0.3,0,0.6,0,0.9,0.1c0.2,0.1,0.3,0.2,0.5,0.3c0.4,0.3,0.7,0.8,1.2,0.9
						c0.2,0.1,0.4,0.1,0.6,0c0.7-0.1,1.3-0.5,2-0.4c0.3,0,0.6,0.1,0.9,0.2c0.4,0.1,0.8,0.3,1.3,0.4c0.1,0,0.3,0,0.5,0
						c0.6-0.1,1.2-0.4,1.7-0.4c1.5,0,2.6,0.4,3.9,0.4c0.5,0,1,0,1.6-0.2c0.1,0,0.3,0,0.5,0c0.6,0.2,1.6,1,2.4,1c0.6,0,1-0.6,1.6-0.8
						c0.2-0.1,0.4-0.1,0.6-0.1c0.7,0,1.5,0.3,2.2,0.4c0.2,0,0.3,0,0.5,0c0.6,0,1.1-0.4,1.7-0.6c0.2,0,0.4-0.1,0.6-0.1
						c0.2,0,0.4,0,0.6,0.1c0.6,0.2,1,0.8,1.7,0.7c0.4-0.1,0.8-0.5,1.2-0.7c0.2-0.1,0.3-0.1,0.5-0.1c0.2,0,0.4,0,0.7,0.1
						c0.6,0.2,1.1,0.7,1.7,0.7c0.7,0,1.2-0.4,1.7-0.6c0.3-0.1,0.6-0.1,1-0.1c0.7,0.1,1.3,0.6,2,0.9c0.2,0.1,0.4,0.2,0.6,0.2
						c0.9,0,1.7-0.7,2.5-0.9c0.3-0.1,0.5-0.1,0.8-0.1c1.1,0,2,0.6,3,0.8c0.2,0,0.4,0,0.6,0c1-0.1,2.1-0.3,3.1-0.5
						c1.1-0.2,2.2-0.4,3.1-0.7c1-0.2,1.7-1.1,2.6-1.5c0.4-0.2,0.9-0.4,1.5-0.4c0.2,0,0.3,0,0.5,0.1c0.3,0.1,0.6,0.4,1,0.4
						c0.1,0,0.2,0,0.2-0.1c0.2-0.2,0.2-0.5,0.4-0.8c0.1-0.3,0.3-0.6,0.6-0.8c0.2-0.1,0.4-0.1,0.7-0.1c0.2,0,0.5,0.1,0.6,0.1
						c-0.1-0.4-0.3-1.3-0.3-1.6c-0.1,0-0.2,0-0.3,0.1c-0.2,0.1-0.4,0.2-0.6,0.2c-0.2,0-0.4,0-0.6-0.1l-1.1-0.7
						c-0.1,0-0.4,0.1-0.5,0.1c-0.3,0.1-0.4,0-0.5-0.1c-0.4-0.3-0.9-0.8-1.5-1.2c-0.3-0.2-0.5-0.3-0.8-0.2l-0.2,0.4
						c-0.1,0.2-0.3,0.4-0.5,0.4L241.6,186.3L241.6,186.3z M172.4,191c-0.1,0-0.1,0-0.2,0C172.3,191,172.4,191,172.4,191L172.4,191z
						 M167.5,190.8L167.5,190.8L167.5,190.8L167.5,190.8L167.5,190.8z M176.6,187.7L176.6,187.7c-0.1,0-0.2,0.1-0.2,0
						C176.4,187.7,176.5,187.7,176.6,187.7z M176.8,187.6C176.8,187.6,176.8,187.5,176.8,187.6C176.8,187.5,176.8,187.6,176.8,187.6
						z M177.5,187.2C177.5,187.2,177.5,187.2,177.5,187.2L177.5,187.2z M177.5,187.2c0.1,0,0.1,0.1,0.1,0
						C177.7,187.1,177.6,187.1,177.5,187.2z M245.4,186.7c-0.1-0.1-0.2-0.1-0.2,0C245.3,186.7,245.4,186.7,245.4,186.7L245.4,186.7
						L245.4,186.7z M227,181.4C227,181.3,226.9,181.3,227,181.4L227,181.4z"/>
				</g>
				<g>
					<g transform="matrix(0.317911,0,0,0.287896,540.707,197.639)">
						<path class="st0" d="M-1447.2-454.2l-0.6,28.1c0,0,54.7,12.9,84.4-0.2c0,0-0.7-27.6-0.7-27.8c0-0.1,1.9-6.8-43.8-6.9
							C-1449.8-461.1-1447-455-1447.2-454.2z"/>
					</g>
					<g transform="matrix(0.296807,0,0,0.288779,628.237,196.58)">
						<path class="st1" d="M-1846-422.3c-0.4,0.9,0.1,1.6,1,2.1c1.1,0.6,3,0.8,3.9,1.1c2.3,0.6,4.7,1.1,7.1,1.5
							c3.5,0.6,7.1,1,10.6,1.4c12.2,1.3,26.8,2.3,40.8,1.4c4.6-0.3,9.2-0.8,13.6-1.6c4.7-0.9,9.1-2.1,13.2-3.7
							c0.4-0.2,0.7-0.7,0.5-1.1c-0.2-0.5-0.6-0.7-1.1-0.5c-4,1.4-8.4,2.4-13,3.2c-4.3,0.7-8.8,1.3-13.4,1.6
							c-13.9,0.9-28.4-0.1-40.5-1.3c-3.6-0.3-7.1-0.7-10.6-1.2c-2.3-0.3-4.6-0.7-6.9-1.3c-0.8-0.2-2.2-0.2-3.3-0.5
							c-0.6-0.2-1.1-0.2-1-0.7c0.1-0.3-0.1-0.6-0.4-0.7C-1845.6-422.8-1845.9-422.6-1846-422.3z"/>
					</g>
					<g transform="matrix(0.413019,0,0,0.300125,151.823,169.608)">
						<path class="st1" d="M-172.8-342.5l-0.2,6c-0.2,4.2-0.4,8.4-0.5,12.6c0,1.1,0,2.2,0,3.4c0,1.7,0.1,3.4,0.2,5
							c0,0.3,0.2,0.5,0.4,0.5c0.2,0,0.4-0.2,0.4-0.5c0.1-2.1,0.3-4.2,0.3-6.3c0.2-4.9,0.2-9.8,0.4-14.6c0-0.6,0-1.8,0-3.1
							c0-1.1-0.1-2.2-0.2-3c0-0.3-0.2-0.5-0.4-0.5C-172.6-343.1-172.8-342.8-172.8-342.5z"/>
					</g>
					<g transform="matrix(0.269096,-0.000218669,0.000307506,0.315012,758.703,139.462)">
						<path class="st1" d="M-2422.3-230.5c0,1.7,0,6.8,0,7.3c-0.1,3.4,0,6.8,0.1,10.2c0,1.4,0.1,2.7,0.2,4.1
							c0.1,0.9,0.2,1.8,0.3,2.7c0,0.3,0.3,0.6,0.7,0.6c0.4,0,0.7-0.3,0.7-0.6c0.1-0.9,0.2-1.7,0.2-2.6c0-0.9,0-1.7,0-2.6
							c-0.1-4-0.5-7.9-0.5-11.9c0-0.5-0.2-5.8-0.3-7.4l-0.1-0.7c0.1-2.3-0.1-3.4-0.4-3.5c-0.4-1.5-0.7-0.3-0.8,4.1
							C-2422.3-230.6-2422.3-230.5-2422.3-230.5z"/>
					</g>
					<g transform="matrix(0.320266,0,0,0.288779,530.875,198.511)">
						<path class="st1" d="M-1406-454.8c0.7,0.8,1.2,1.3,3,1.8c1.9,0.5,5.4,0.9,12.7,1.5c8.5,0.6,17.4,1.3,26.2,1.5
							c5.9,0.1,11.8,0,17.5-0.5c3.7-0.3,7.4-0.4,11.1-0.8c2.5-0.3,5-0.7,7.4-1.4c0.6-0.2,3.1-1.1,4.2-1.9c1-0.7,1.1-1.6,0.7-2.1
							c-2-2.1-4.2-3.2-6.6-3.9c-3.5-1-7.2-1-10.9-1.5c-4.5-0.6-8.9-0.9-13.3-1.1c-6.5-0.3-13-0.4-20-0.5c-2.3,0-5.7,0.1-9.2,0.3
							c-3.4,0.2-6.8,0.5-9.2,0.9c-3.9,0.6-8.2,1.6-10.9,2.9c-2.7,1.3-3.9,3-3,4.7L-1406-454.8z M-1324.2-455.6
							c-0.6,0.7-3.7,1.2-4.2,1.4c-2.4,0.7-4.8,1-7.2,1.3c-3.7,0.4-7.4,0.5-11.1,0.8c-5.7,0.5-11.5,0.6-17.4,0.5
							c-8.8-0.1-17.7-0.8-26.2-1.4c-5.6-0.3-8.9-0.6-11-0.9c-2.8-0.4-3.3-0.9-4-1.7l0.2,0c-0.3-0.5,0-0.9,0.5-1.3
							c0.7-0.6,1.8-1.2,3.2-1.7c2.6-0.9,6-1.7,9.1-2.2c2.3-0.4,5.7-0.7,9.1-0.9c3.4-0.2,6.9-0.3,9.1-0.3c7-0.1,13.5-0.2,20,0.1
							c4.4,0.2,8.7,0.5,13.3,1.1c3.6,0.5,7.3,0.4,10.7,1.5C-1327.9-458.6-1325.9-457.5-1324.2-455.6z M-1324.2-455.6
							c-0.1-0.2-0.1-0.5,0-0.4C-1324.1-455.9-1324.1-455.7-1324.2-455.6z"/>
					</g>
				</g>
				<g transform="matrix(-0.321112,0,0,0.246772,3282.76,283.319)">
					<path class="st0" d="M9886.6-878.1c-0.6,0.2,0.5,2,0.8,2.3c0.8,0.8,1.7,0,2.4,0.5c1,0.7,1.8,2.2,3.4,1.7
						c1.1-0.3,1.2,0.8,2.1,1.4c0.7,0.5,1.5,0.8,2.3,0.8c0.3,0,1.6-0.8,1.7-0.7c0.6,0.8,1.3,1.5,2.3,1.5c0.7,0,1.2-1,1.9-0.8
						c1.3,0.4,1.3,1.4,3.1,1.4c1.4,0,2.8-0.8,4.2-0.5c2.1,0.5,4.1,0.4,6.2,0.6c0.4,0,1.1-0.8,1.5-0.5c0.8,0.6,1,1.8,2.3,1.6
						c0.3-0.1,1.2-1,1.3-0.9c0.5,0.2,0.8,0.8,1.3,1.1c0.9,0.4,1.9,0.5,2.8,0.9c0.8,0.4,1.4,1,2.4,1.1c1,0,2.3-0.1,3.2-0.6
						c0.3-0.1,0.6-0.4,0.7-0.7c0-0.1,0-0.2,0-0.3c0,0,0-0.1,0-0.1c0-0.1,0,0,0,0.1c0,0.8,1.3,0.9,1.9,0.9c0.3,0,0.8-0.2,1-0.5
						c0-0.1,0.1-0.2,0.1-0.4c0,0,0-0.1,0-0.1c0-0.1,0,0,0,0.1c0.2,0.6,1.9,0.7,2.2,0.7c0.8,0,1.3-0.8,2-0.9c0.8-0.2,1.5,0.3,2.4,0
						c0.5-0.2,0.9-1,1.4-1.1c0.9-0.1,1.7,0.5,2.6,0.5c0.7,0,1.4-0.5,2.1-0.5c0.9,0,1.7,0.5,2.5,0.4c0.8,0,1.2-0.9,1.9-0.9
						c1.3-0.1,2,1.4,3.3,1.3c0.8-0.1,1.5-0.6,2.4-0.6c0.9,0,1.7,0.5,2.6,0.4c0.5-0.1,1.2-0.3,1.6-0.7c0.2-0.3,0.4-1.3,0.7-1.4
						c0.6-0.1,0.9,0.6,1.4,0.8c0.6,0.4,1.4-0.3,1.6-1c0.1-0.2,0-0.8,0.2-0.8c0.5,0.1,0.8,1,1.6,0.8c1-0.2,1.2-1.3,1.7-2
						c0.6-0.8,1.4-0.4,2-0.7c0.4-0.2,0.7-0.9,1-1.3c0.6-0.8,2.4-1.8,2.3-3c-0.1-0.7-0.6-0.6-0.8-1c-0.5-1.1-0.3-2.5-1.2-3.5
						c-0.4-0.5-0.9-0.3-1.4-0.7c-0.4-0.3,0.1-1.2-0.4-1.3c-0.6-0.2-2.7,1.1-3.7,0.4c-1.1-0.7-2.4-0.9-3.6-1.4
						c-0.3-0.1-0.5-0.6-0.8-0.8c-1-0.6-2-0.3-3-0.1c-0.7,0.1-3.3-0.9-3.6-0.6c-0.3,0.2-0.1,1.5-0.6,1.6c-0.5,0.1-1-0.4-1.4-0.5
						c-1.7-0.4-3.2-1-4.8-1.6c-0.6-0.2-1.4-0.3-2.1-0.2c-0.4,0.1-1.2,0.4-1.2,0.4s-0.1-0.1-0.2-0.2c-0.3-0.1-2-0.7-2.3-0.4
						c-0.2,0.2,0,0.6-0.1,0.7c-0.6,0.5-2.5-0.1-3.2-0.2c-0.8-0.1-1.7,0.3-2.5,0.1c-1.8-0.4-3.5-1.1-5.4-0.9c-1,0.2-2.1,0.7-3.2,0.5
						c-0.6-0.1-1.4-1.2-1.9-1.1c-0.6,0.1-1.1,0.5-1.7,0.5c-0.3,0-0.8-0.2-1.1-0.1c-0.3,0.1-0.4,0.5-0.7,0.6
						c-0.5,0.2-1.1-0.9-1.8-0.9c-1.3,0-1.8,1.9-3.1,1.9c-1.5,0.1-2.8-0.9-4.2-0.9c-0.4,0-0.9,0.3-1.2,0.7c-0.2,0.2-0.1,0.8-0.3,0.8
						c-1.3-0.2-2.4-1.3-3.9-1.3c-0.5,0-1.3,0.2-1.7,0.5c-0.3,0.2-0.3,1-0.7,0.9c-0.7-0.1-1.3-1.5-2.1-1.3c-0.4,0.1-0.6,0.9-1.1,1
						c-0.9,0.2-2-0.3-3-0.1c-1.2,0.2-2.2,1.3-3.4,1.4c-1.5,0.1-2.6-2.1-4.2-1.5c-1.2,0.5-0.3,2.4-1,3c-0.5,0.4-1.5-0.5-2.1,0
						c-0.5,0.4-1.2,0.8-1.5,1.4c-0.2,0.3-0.1,0.9-0.4,1.1C9887.9-880.4,9884.7-879.2,9886.6-878.1z M9891.9-877.8
						C9891.9-877.8,9891.9-877.8,9891.9-877.8c0.6,0.1,1.2,0.1,1.7,0c1.5-0.4,2.1,1.9,3.8,1.6c0.8-0.1,2.5-0.9,3.3-0.5
						c0.9,0.5,1.8,1.5,2.9,1.4c0.7-0.1,1.3-0.6,2.1-0.6c0.9-0.1,1.7,0.5,2.5,0.5c0.8,0,1.4-0.6,2.2-0.3c0.7,0.3,1,1,1.8,1.2
						c1,0.3,1.8-0.5,2.7-0.4c0.8,0.1,1.4,0.4,2.1,0.6c0.7,0.2,1.6-0.4,2.3-0.4c2.1,0,3.4,0.6,5.6,0.1c0.5-0.1,1.8,1.1,2.8,1.1
						c0.8,0,1.3-0.9,2.2-0.9c0.9,0,1.7,0.5,2.7,0.5c0.8,0,1.4-0.7,2.3-0.7c0.9,0,1.5,1,2.4,0.8c0.6-0.1,1.1-0.8,1.7-0.9
						c0.9-0.1,1.5,0.8,2.4,0.7c1-0.1,1.6-0.7,2.6-0.6c1,0.1,1.7,1.1,2.7,1c1.1,0,2.2-1,3.3-1c1.3,0,2.3,1,3.7,0.8
						c1.9-0.2,4.4-0.7,6.3-1.2c1.5-0.4,2.3-1.9,4-2c0.5,0,0.9,0.5,1.4,0.5c0.9,0,0.8-1.3,1.4-1.7c0.5-0.3,1.7,0.6,1.6-0.4
						c0-0.4-0.2-2.1-0.6-2.2c-0.6-0.2-1.1,0.4-1.5,0.2c-0.4-0.2-0.7-0.6-1.2-0.7c-0.2-0.1-0.8,0.1-0.8,0.1c-0.7-0.5-1.9-1.8-2.8-1.4
						c-0.3,0.1-0.5,0.7-0.5,0.7s0-0.1,0-0.1c-0.1-0.4-1.1-0.5-1.4-0.4c-0.5,0.3-0.7,1.1-1.1,1.4c-0.2,0.2-1-0.7-1.1-0.8
						c-0.6-0.3-1.3-0.4-2-0.5c-0.7,0-1.7,0-2.4,0.1c-0.3,0.1-0.9,0.6-1.2,0.6c-0.1,0,0-0.4-0.1-0.4c-0.6-0.3-1.4,0-2-0.3
						c-0.5-0.3-0.8-0.8-1.4-0.7c-0.6,0.1-0.3,1.1-0.7,1.3c-0.3,0.1-0.6-0.7-0.8-0.9c-0.4-0.4-1.1-0.6-1.6-0.6c-1,0-1.7,1.2-2.6,1.3
						c-1.3,0.3-2.6-1-3.9-0.8c-0.8,0.1-1.4,1.1-2.2,1.2c-0.8,0.1-2.6-1.8-3.6-2c-1.4-0.3-2.2,0.8-3.6,1c0,0-0.5-0.7-0.6-0.7
						c-0.5-0.5-1.3-1-2-1c-0.9,0-1.6,1.2-2.6,1.2c-1.1,0-1.9-1.2-3-1.5c-0.4-0.1-0.9,0.2-1.3,0.3c-1.2,0.2-2.8-0.1-3.9,0.5
						c-0.5,0.3-1,0.8-1.5,1c-1.1,0.4-1.9-0.4-2.9-0.4c-1,0-1.9,0.6-2.9,0.7c-1.5,0.1-3.7-1-5.3,0.4c-0.4,0.3-0.9-0.4-1.4-0.5
						c-0.8-0.1-1.5,0.3-2.2,0.5c-1.2,0.4-1.9,0.9-2.9,1.5c-0.3,0.2-1.2-0.9-1.4-0.5c-0.1,0.4-1.5,1.7-1.8,1.7
						c-0.6,0.1-1.4-0.6-1.9-0.4C9890.8-879.7,9891.4-878.4,9891.9-877.8z M9891.5-878l-0.1-0.1C9891.3-878.1,9891.4-878,9891.5-878
						l0.6,0.4c-0.1-0.1-0.2-0.1-0.3-0.3C9891.7-877.9,9891.6-877.9,9891.5-878z M9886.6-878.1c0.1,0,0.1,0.1,0.2,0.1L9886.6-878.1
						C9886.6-878.1,9886.6-878.1,9886.6-878.1z"/>
					<path class="st1" d="M9933-867.5c-0.1,0.2,0.1,0.3,0,0.5c0,0-0.1,0.1-0.1,0.1l0,0c0.1,0.1,0.2,0.1,0.3,0.2
						c0.1-0.8-0.9-0.9-0.9,0.2c0.2-0.1,0.4-0.2,0.6-0.4c-0.4-0.2-0.3,0.6-0.4,0.2c0,0.4-0.2-0.3-0.2,0.2l0,0
						c-0.4,0.2-0.9,0.4-1.4,0.5c-0.7,0.2-1.4,0.2-2.1,0.2c-0.5,0-0.9-0.1-1.2-0.3c-0.5-0.2-0.9-0.6-1.4-0.8l-2.8-0.9l-1.1-0.9
						c-0.3,0.3-1,0.8-1.2,0.8c-0.7,0.1-1.1,0-1.5-0.3c-0.4-0.3-0.7-0.9-1.1-1.2c-0.2,0.1-1,0.6-1.4,0.6c-1.5-0.2-2.9-0.1-4.4-0.2
						c-0.6-0.1-1.3-0.1-1.9-0.3c-0.3-0.1-0.7-0.1-1,0c-1,0.2-2,0.6-3,0.6c-0.7,0-1.2-0.1-1.6-0.3c-0.6-0.3-0.9-0.8-1.8-1.1
						c-0.1,0-0.2,0.1-0.3,0.2c-0.2,0.2-0.5,0.3-0.7,0.5c-0.2,0.1-0.5,0.2-0.7,0.2c-0.7,0-1.2-0.2-1.7-0.6c-0.3-0.2-0.6-0.6-0.9-0.9
						c-0.4,0.2-1.2,0.6-1.4,0.5c-0.5,0-0.9-0.1-1.4-0.2c-0.5-0.2-0.9-0.4-1.3-0.7c-0.5-0.4-0.8-1-1.1-1.3c-0.1-0.1-0.2-0.1-0.4,0
						c-0.8,0.2-1.4,0.1-1.9-0.2c-0.8-0.4-1.3-1.2-2-1.7c-0.4-0.3-0.9,0-1.4-0.2c-0.3-0.1-0.6-0.2-0.9-0.6c-0.2-0.2-0.7-1-0.9-1.7
						l0.1-0.1l0-0.1l-0.1,0l-0.1,0c0-0.1-0.1-0.2-0.1-0.3l0-0.2c-0.3-0.2-0.4-0.5-0.5-0.7c-0.1-0.4-0.1-0.9,0.2-1.3
						c0.5-0.7,1.9-1.5,2.4-1.9c0-0.2,0.1-0.7,0.3-1c0.2-0.3,0.4-0.6,0.7-0.9c0.3-0.3,0.7-0.6,1-0.8c0.2-0.2,0.5-0.2,0.8-0.2
						c0.3,0,0.7,0.1,1,0.2c0.1,0,0.2,0,0.2,0c0-0.2,0-0.4,0-0.5c0-0.5,0-0.9,0.2-1.3c0.2-0.5,0.5-1,1.1-1.3c0.6-0.3,1.2-0.2,1.8,0.1
						c0.9,0.4,1.6,1.5,2.6,1.4c0.9-0.1,1.6-0.8,2.5-1.1c0.3-0.1,0.5-0.2,0.8-0.2c0.2,0,0.5-0.1,0.7,0c0.8,0,1.6,0.4,2.2,0.2
						c0.1,0,0.1-0.2,0.2-0.3c0.1-0.2,0.2-0.3,0.3-0.4c0.2-0.2,0.3-0.3,0.6-0.3c0.3-0.1,0.6,0,0.9,0.1c0.3,0.2,0.7,0.5,1,0.8
						c0.1,0.1,0.2,0.2,0.3,0.3c0.1-0.2,0.3-0.6,0.5-0.7c0.2-0.2,0.5-0.3,0.8-0.4c0.4-0.1,0.8-0.2,1.2-0.2c0.5,0,1,0.1,1.4,0.2
						c0.7,0.3,1.4,0.7,2.2,0.9c0.1-0.2,0.1-0.4,0.2-0.5c0.2-0.2,0.5-0.5,0.9-0.7c0.2-0.1,0.5-0.2,0.7-0.2c0.3,0,0.7,0,1,0.1
						c1.1,0.2,2.1,0.8,3.2,0.8c0.4,0,0.7-0.4,1.1-0.7c0.3-0.4,0.7-0.7,1.1-0.9c0.3-0.2,0.6-0.3,1-0.3c0.2,0,0.4,0.1,0.7,0.2
						c0.3,0.1,0.7,0.5,0.9,0.6c0.2-0.2,0.4-0.5,0.7-0.6l1.2,0.1l1.6-0.5c0.2,0,0.5,0,0.8,0.2c0.4,0.2,1,0.8,1.4,0.9
						c0.3,0.1,0.7,0,1,0c0.6-0.1,1.3-0.4,1.9-0.5c0.8-0.1,1.6-0.1,2.4,0.1c1.1,0.2,2.2,0.6,3.3,0.8l2.4-0.1c0.4,0,1.2,0.3,1.9,0.4
						c0.2,0,0.4,0.1,0.6,0c0.1-0.3,0.2-0.6,0.3-0.8c0.2-0.1,0.5-0.3,0.9-0.2c0.6,0.1,1.7,0.4,1.9,0.5l0.1,0.1l1-0.4
						c0.4-0.1,0.8-0.1,1.2,0c0.4,0,0.8,0.1,1.2,0.3l4.8,1.6l1,0.4c0-0.2,0.1-0.6,0.1-0.7c0.1-0.3,0.2-0.5,0.4-0.6
						c0.1-0.1,0.4-0.2,0.8-0.2c0.8,0.1,2.6,0.8,3.1,0.7c0.7-0.1,1.3-0.3,1.9-0.3c0.5,0,1,0.1,1.4,0.4l0.8,0.8
						c0.8,0.3,1.7,0.5,2.5,0.8c0.4,0.2,0.8,0.4,1.2,0.6c0.2,0.1,0.4,0.1,0.7,0.1c1.1-0.2,2.4-0.7,2.9-0.6c0.3,0.1,0.5,0.3,0.6,0.6
						c0.1,0.2,0.1,0.7,0.1,1c0.3,0.2,0.6,0.1,0.9,0.3c0.2,0.1,0.3,0.2,0.4,0.3c0.3,0.4,0.5,0.8,0.7,1.3c0.3,0.8,0.3,1.7,0.6,2.5
						c0,0.1,0.1,0.1,0.2,0.1c0.1,0.1,0.3,0.2,0.4,0.3c0.2,0.2,0.3,0.5,0.3,1c0.1,0.7-0.2,1.3-0.6,1.9c-0.5,0.7-1.5,1.3-1.9,1.9
						c-0.2,0.3-0.4,0.7-0.6,1c-0.2,0.2-0.4,0.4-0.6,0.5c-0.4,0.2-0.9,0.2-1.4,0.3c-0.1,0-0.2,0.1-0.3,0.2c-0.4,0.5-0.7,1.3-1.2,1.8
						c-0.3,0.3-0.6,0.4-1,0.5c-0.3,0.1-0.6,0-0.9-0.1c-0.2-0.1-0.3-0.2-0.4-0.3c-0.2,0.5-0.7,1-1.2,1.3c-0.4,0.2-0.9,0.2-1.3,0
						l-0.8-0.6c-0.1,0.3-0.4,0.9-0.5,1.1c-0.2,0.2-0.5,0.4-0.8,0.5c-0.4,0.2-0.8,0.3-1.2,0.3c-0.2,0-0.4,0-0.7,0
						c-0.7-0.1-1.3-0.4-2-0.4l-2.3,0.6c-0.3,0-0.6,0-0.9-0.1c-0.8-0.3-1.4-1.2-2.4-1.2c-0.5,0-0.9,0.6-1.4,0.8
						c-0.2,0.1-0.4,0.1-0.6,0.1l-2.5-0.5l-2.1,0.5l-2.5-0.5l-1.3,1c-0.3,0.1-0.6,0.2-0.9,0.2c-0.5,0-1-0.2-1.5-0.1
						c-0.4,0.1-0.8,0.5-1.3,0.7c-0.3,0.1-0.5,0.2-0.8,0.2c-0.2,0-1.4-0.1-2-0.4c-0.1,0.1-0.2,0.2-0.4,0.3c-0.3,0.2-0.6,0.3-0.9,0.3
						c-0.4,0-1,0-1.4-0.2l0-0.3c0-0.2,0-0.4,0.1-0.6 M9925-887.4l0.9,0.1l1.7-0.5c0.1,0,0.2,0.1,0.3,0.2c0.3,0.2,0.5,0.4,0.8,0.6
						c0.2,0.1,0.4,0.2,0.6,0.3c0.4,0.1,0.8,0.1,1.2,0.1c0.8-0.1,1.5-0.4,2.2-0.5c0.7-0.1,1.3-0.1,2,0c1.1,0.2,2.1,0.5,3.2,0.8
						c0.2,0.1,0.4,0.1,0.6,0.1c0.6,0,1.3-0.3,1.9-0.2c0.5,0.1,1.5,0.3,2.3,0.4c0.6,0,1.1-0.1,1.4-0.4c0.1-0.1,0.1-0.2,0.2-0.3
						c0.4,0.2,1.2,0.1,1.5,0.1c0.2,0.2,0.4,0.3,0.7,0.2l1.1-0.4c0.3-0.1,0.6-0.1,0.9,0c0.3,0,0.6,0.1,0.9,0.2l4.9,1.6
						c0.3,0.1,0.6,0.3,0.9,0.4c0.2,0.1,0.5,0.1,0.7,0c0.3-0.1,0.5-0.2,0.6-0.5c0.1-0.2,0.4-0.7,0.5-1.1c0.6,0.1,1.5,0.4,2.2,0.6
						c0.4,0.1,0.7,0.1,0.9,0.1c0.6-0.1,1.1-0.3,1.7-0.3c0.3,0,0.6,0.1,0.9,0.3c0.2,0.1,0.4,0.4,0.5,0.6c0.1,0.1,0.3,0.2,0.4,0.3
						c0.8,0.3,1.7,0.5,2.6,0.8c0.3,0.1,0.6,0.3,0.9,0.5c0.4,0.3,0.9,0.4,1.5,0.3c0.6-0.1,1.3-0.4,1.9-0.5c0.1,0,0.1,0,0.2-0.1
						c0,0.1,0,0.3,0,0.4c0.1,0.3,0.2,0.6,0.4,0.8l1.3,0.6c0.2,0.2,0.3,0.4,0.3,0.6c0.3,0.9,0.3,1.9,0.7,2.7c0.1,0.3,0.5,0.6,0.7,0.8
						c0,0.2-0.2,0.4-0.4,0.6c-0.6,0.6-1.3,1.1-1.7,1.6l-0.8,1.1c-0.4,0.2-0.9,0.1-1.4,0.2c-0.3,0.1-0.6,0.3-0.9,0.7
						c-0.3,0.4-0.5,1-0.8,1.4c-0.1,0.1-0.3,0.3-0.4,0.3c-0.2,0-0.3-0.1-0.5-0.3c-0.2-0.2-0.4-0.3-0.5-0.5c-0.1-0.1-0.3-0.1-0.4-0.1
						c-0.4,0-0.6,0.2-0.8,0.5c-0.1,0.2-0.1,0.7-0.2,0.9c-0.1,0.2-0.2,0.3-0.3,0.4c-0.1,0.1-0.2,0.1-0.3,0.1
						c-0.3-0.2-0.6-0.6-0.9-0.8c-0.3-0.1-0.5-0.2-0.9-0.1c-0.2,0.1-0.5,0.2-0.6,0.5c-0.2,0.3-0.4,0.9-0.5,1.1
						c-0.1,0.1-0.3,0.2-0.5,0.3c-0.2,0.1-0.5,0.2-0.7,0.2l-2.5-0.4l-2.4,0.6c-1,0.1-1.6-0.9-2.4-1.1c-0.3-0.1-0.6-0.1-0.9-0.1
						c-0.2,0-0.4,0.1-0.6,0.2c-0.4,0.2-0.8,0.7-1.3,0.7l-2.5-0.4c-0.2,0-0.4,0-0.6,0.1c-0.5,0.1-1,0.5-1.5,0.5c-0.7,0-1.3-0.4-2-0.5
						c-0.2,0-0.4,0-0.7,0c-0.2,0-0.4,0.1-0.6,0.2c-0.3,0.2-0.7,0.7-1,0.9c-0.2,0.1-0.3,0.1-0.5,0.1c-0.6,0-1.2-0.2-1.8-0.1l-1.9,0.9
						c-0.2,0-1.2-0.3-1.6-0.3c-0.2-0.8-0.7-0.6-1-0.4c0,0-0.2,0.2-0.3,0.6l0,0.1l-0.5,0.2c-0.3,0-1-0.2-1.2-0.3c0-2.1-1-1.4-1.3-0.2
						c0,0,0,0.1,0,0.2l0,0.1l0,0.1l0,0l0,0c-0.1,0.1-0.3,0.2-0.4,0.3c-0.4,0.2-0.9,0.4-1.4,0.5c-0.5,0.1-1.1,0.1-1.5,0.1
						c-0.3,0-0.6-0.1-0.8-0.2c-0.5-0.2-0.9-0.6-1.4-0.8l-2.8-0.9l-1.3-1.1c-0.1-0.1-0.4-0.1-0.6,0.1c-0.3,0.2-0.8,0.7-1,0.8
						c-0.3,0.1-0.5,0-0.6-0.1c-0.5-0.4-0.7-1-1.3-1.4c-0.2-0.2-0.5-0.2-0.8-0.1c-0.2,0.1-0.5,0.2-0.7,0.4c-0.1,0.1-0.2,0.1-0.3,0.1
						c-1.5-0.2-2.9-0.2-4.3-0.4c-0.6-0.1-1.2-0.2-1.8-0.3c-0.5-0.1-1-0.1-1.5-0.1c-0.9,0.1-1.9,0.5-2.8,0.5c-0.5,0-0.8-0.1-1-0.2
						c-0.7-0.3-1-0.9-1.9-1.2c-0.3-0.1-0.5-0.1-0.8,0c-0.3,0.1-0.6,0.3-0.9,0.5c-0.2,0.1-0.3,0.3-0.5,0.3c-0.3,0-0.6-0.1-0.9-0.3
						c-0.3-0.2-0.6-0.5-0.8-0.9c-0.1-0.2-0.5-0.5-0.9-0.3c-0.3,0.1-1.4,0.7-1.4,0.7s0.1,0,0.1,0c-0.3,0-0.7,0-1-0.1
						c-0.3-0.1-0.6-0.3-0.9-0.5c-0.7-0.5-1-1.2-1.5-1.5c-0.3-0.1-0.7-0.2-1.2,0c-0.4,0.1-0.8,0.1-1.1-0.1c-0.7-0.3-1.3-1.1-1.9-1.5
						c-0.2-0.1-0.5-0.2-0.8-0.2c-0.5,0-1.1,0.4-1.6,0c-0.1-0.1-0.4-0.5-0.6-0.9c0.1-0.1,0.2-0.2,0.3-0.4c0.2-0.4,0-1-0.3-1.2
						l-0.1-0.2c0,0,0,0-0.1,0c0.1,0,0.3,0,0.1-0.1c0.7-0.5,1.6-0.9,2-1.2c0.1-0.1,0.2-0.3,0.3-0.4c0.1-0.2,0.1-0.6,0.2-0.8
						c0.1-0.2,0.3-0.3,0.4-0.5c0.3-0.3,0.6-0.5,0.9-0.7c0.1-0.1,0.2,0,0.4,0.1c0.3,0.1,0.7,0.2,0.9,0.3c0.3,0,0.6-0.1,0.9-0.3
						c0.2-0.2,0.3-0.4,0.4-0.6c0.2-0.4,0.2-0.9,0.2-1.4c0-0.3-0.2-0.8,0.2-0.9c0.3-0.1,0.6-0.1,0.8,0.1c1.1,0.5,2,1.6,3.2,1.5
						c0.3,0,0.6-0.1,0.9-0.2c0.8-0.3,1.6-1,2.5-1.2c0.7-0.1,1.6,0.2,2.3,0.2c0.3,0,0.5,0,0.8-0.1c0.2,0,0.4-0.1,0.5-0.3
						c0.2-0.2,0.3-0.4,0.5-0.6c0-0.1,0.1-0.2,0.1-0.2c0.1,0,0.2,0.1,0.3,0.2c0.3,0.3,0.5,0.6,0.8,0.8c0.2,0.2,0.5,0.3,0.7,0.3
						c0.3,0,0.5-0.1,0.7-0.3c0.1-0.1,0.2-0.3,0.3-0.5l0.1-0.3c0.2-0.1,0.4-0.2,0.6-0.2c0.3-0.1,0.5-0.1,0.7-0.1c0.3,0,0.7,0.1,1,0.2
						c1,0.3,1.8,1,2.8,1.1c0.3,0,0.6-0.1,0.7-0.4c0.1-0.1,0.2-0.5,0.2-0.6c0.1-0.1,0.2-0.2,0.3-0.2c0.1-0.1,0.2-0.1,0.4-0.1
						c1.1,0,2.1,0.6,3.3,0.8c0.3,0.1,0.7,0.1,1,0.1c0.3,0,0.7-0.1,0.9-0.3c0.4-0.2,0.7-0.6,1.1-0.9c0.3-0.3,0.6-0.7,1.1-0.7
						c0.1,0,0.3,0.2,0.4,0.3c0.2,0.2,0.4,0.4,0.6,0.5c0.3,0.2,0.6,0.2,0.9,0.1C9924.5-886.9,9924.8-887.3,9925-887.4z M9929.5-883.6
						c0.8-0.2,1.4-0.7,2.1-0.9c0.4-0.1,0.9-0.1,1.4,0c0.3,0.1,0.6,0.2,0.9,0.4c0.6,0.4,1.4,1,2,1.4c0.2,0.1,0.4,0.3,0.5,0.3
						c0.5-0.1,1-0.7,1.5-0.9c0.2-0.1,0.4-0.2,0.7-0.2c0.3,0,0.7,0,1,0c1,0.2,1.9,0.9,2.9,0.8c0.7-0.1,1.3-0.9,2-1.2
						c0.2-0.1,0.5-0.2,0.8-0.2c0.3,0,0.7,0.1,1,0.2c0.4,0.1,0.7,0.3,1,0.6c0.1,0.1,0.2,0.2,0.2,0.3c0.2-0.4,0.4-0.8,0.8-0.8
						c0.3,0,0.5,0,0.8,0.1c0.4,0.2,0.6,0.5,1,0.7l2,0.3c0.1,0,0.1,0.1,0.2,0.2c0.3-0.1,0.6-0.3,0.8-0.4c0.3-0.1,0.7-0.1,1-0.1
						c0.5,0,1.1,0,1.5,0c0.4,0,0.9,0.1,1.3,0.2c0.3,0.1,0.6,0.2,0.9,0.4c0.1,0,0.5,0.4,0.7,0.6c0.1-0.2,0.2-0.5,0.4-0.7
						c0.2-0.2,0.4-0.4,0.6-0.6c0.3-0.1,1-0.2,1.5,0l0,0c0.1-0.1,0.2-0.2,0.4-0.3c0.4-0.2,0.9-0.1,1.3,0.1c0.6,0.3,1.3,0.9,1.8,1.2
						c0.1,0,0.1,0.1,0.2,0.1h0l0.1,0l0,0c0.2-0.1,0.5-0.2,0.7-0.2l1.3,0.8c0.1,0,0.1-0.1,0.2-0.1c0.2-0.1,0.3-0.1,0.5-0.2
						c0.3-0.1,0.5,0,0.8,0.1c0.2,0.1,0.5,0.4,0.7,0.9c0.2,0.6,0.4,1.8,0.4,2.1c0.1,0.8-0.2,1.1-0.5,1.4c-0.2,0.1-0.5,0.2-0.9,0.1
						l-0.7-0.1c-0.1,0.1-0.1,0.2-0.1,0.4c-0.1,0.3-0.3,0.6-0.5,0.9c-0.2,0.3-0.6,0.5-1,0.5c-0.2,0-0.3,0-0.5-0.1
						c-0.3-0.1-0.6-0.4-0.9-0.4c-0.4,0-0.7,0.1-1,0.3c-1,0.5-1.8,1.4-2.9,1.7c-1,0.2-2.1,0.5-3.2,0.7c-1.1,0.2-2.2,0.4-3.2,0.5
						c-0.3,0-0.6,0-0.9,0c-1-0.2-1.8-0.8-2.8-0.8c-0.9,0-1.7,0.6-2.5,0.9c-0.3,0.1-0.5,0.1-0.8,0.1c-0.3,0-0.5,0-0.7-0.1
						c-0.7-0.2-1.3-0.9-2-0.9c-0.2,0-0.4,0-0.6,0c-0.7,0.2-1.2,0.5-1.9,0.6c-0.2,0-0.5,0-0.7-0.1c-0.6-0.2-1.1-0.7-1.7-0.7
						c-0.4,0-0.8,0.5-1.1,0.7c-0.2,0.1-0.3,0.2-0.5,0.2c-0.3,0-0.5,0-0.7,0c-0.6-0.2-1.1-0.8-1.8-0.8l-2.2,0.6l-2.7-0.5
						c-0.7,0-1.1,0.5-1.6,0.7c-0.2,0.1-0.4,0.1-0.6,0.1c-0.3,0-0.7-0.1-1.1-0.2c-0.5-0.2-1-0.5-1.4-0.7c-0.1-0.1-0.2-0.1-0.3-0.1
						c-0.7,0.2-1.2,0.2-1.8,0.3c-1.3,0-2.4-0.3-3.9-0.3c-0.6,0-1.2,0.4-1.8,0.4c-0.2,0-0.5,0-0.7-0.1l-2-0.6
						c-0.6-0.1-1.1,0.3-1.7,0.5c-0.3,0.1-0.7,0.1-1.1,0c-0.2-0.1-0.4-0.1-0.5-0.2c-0.5-0.3-0.8-0.8-1.3-1c-0.1,0-0.2,0-0.4,0
						c-0.5,0.1-1,0.4-1.6,0.4c-0.2,0-0.4,0-0.7,0c-0.6-0.1-1.2-0.5-1.9-0.4l-2.1,0.6c-0.4,0-0.8,0-1.2-0.2c-0.7-0.3-1.3-0.9-2-1.3
						c-0.2-0.1-0.6-0.1-0.9,0c-0.7,0.1-1.5,0.4-2,0.5c-0.6,0.1-1.1-0.1-1.6-0.3c-0.4-0.2-0.7-0.6-1.1-0.9c-0.3-0.3-0.7-0.7-1.1-0.6
						c-0.2,0-0.5,0-0.7,0l-0.2,0c-0.2,0.4-0.5,0.5-0.9,0.3c0,0-0.2,0-0.3-0.1l0,0c0,0,0,0,0,0l0,0l0,0l0,0l0,0h0h0l0,0v0l0,0l0,0
						l0,0l0,0v0v0l0,0c0,0,0,0,0,0l0,0h0l0,0l0-0.1c0,0,0,0,0-0.1l0,0c0,0,0,0,0-0.1l0.1-0.1l-0.1-0.1l0,0c-0.2,0-0.5,0-0.3,0.4l0,0
						c-0.1,0-0.1-0.1-0.1,0c-0.1,0.1-0.1-0.1-0.1-0.1c-0.1,0,0-0.1-0.1-0.1c-0.1,0,0-0.2-0.1-0.2c-0.1,0,0-0.2-0.1-0.2
						c-0.1,0,0-0.1,0-0.2c0,0,0-0.1,0-0.1c-0.2-0.2,0.2-0.2,0.1-0.5c0-0.1,0-0.1,0.1-0.2c-0.1-0.3-0.1-0.6-0.1-0.8
						c0-0.5,0.3-1,0.9-1.2c0.2-0.1,0.4,0,0.6,0c0.4,0.1,0.9,0.4,1.3,0.4l1.2-1.3c0.2-0.4,0.4-0.6,0.9-0.6c0.3,0,1,1.1,1.1,0.6
						c0-0.1-0.1-0.1-0.2,0l-0.1,0.1c0,0,0.1,0,0.1-0.1c0.6-0.3,1.1-0.7,1.7-1c0.4-0.2,0.8-0.4,1.3-0.5c0.5-0.1,1.1-0.4,1.6-0.5
						c0.3-0.1,0.6-0.1,0.9,0c0.3,0,0.8,0.4,1,0.5c0.5-0.4,1.1-0.6,1.7-0.7c1.3-0.2,2.7,0.4,3.8,0.3l2.9-0.6c0.7,0,1.4,0.4,2.1,0.5
						c0.2,0,0.4,0,0.6-0.1l1.5-1c0.4-0.2,0.9-0.3,1.3-0.4c0.9-0.1,1.9,0,2.7-0.2c0.3,0,0.6-0.2,0.9-0.3c0.2,0,0.4,0,0.7,0
						c0.8,0.2,1.5,0.9,2.2,1.3c0.2,0.1,0.4,0.2,0.6,0.2c0.7,0,1.3-0.7,1.8-1c0.3-0.1,0.5-0.2,0.8-0.2c0.4,0,0.7,0.1,1.1,0.3
						c0.5,0.2,0.9,0.6,1.3,0.9C9929.1-884,9929.3-883.8,9929.5-883.6z M9895.6-880.1c-0.2,0.2-0.4,0.5-0.7,0.7
						c-0.5,0.4-0.9,0.7-1.2,0.8c0.3-0.1,0.6,0,0.8,0.1c0.5,0.1,0.9,0.5,1.3,0.8c0.4,0.3,0.8,0.6,1.4,0.5c0.6-0.1,1.5-0.5,2.3-0.6
						c0.5-0.1,1,0,1.4,0.1c0.6,0.3,1.1,0.8,1.7,1.1c0.3,0.1,0.5,0.2,0.9,0.2l2.1-0.6c0.2,0,0.4,0,0.7,0c0.6,0.1,1.2,0.5,1.9,0.4
						c0.5,0,1-0.3,1.5-0.4c0.3,0,0.6,0,1,0.1l1.7,1.2c0.2,0.1,0.4,0.1,0.5,0c0.7-0.1,1.3-0.5,2-0.4l2.2,0.7c0.1,0,0.3,0,0.4,0
						c0.6-0.1,1.2-0.4,1.7-0.4c1.5,0,2.6,0.4,3.9,0.4c0.5,0,1,0,1.6-0.2c0.1,0,0.3,0,0.6,0c0.6,0.2,1.6,1,2.3,1
						c0.5,0,0.9-0.5,1.3-0.7c0.3-0.1,0.6-0.2,0.9-0.2l2.6,0.5c0.6,0,1.1-0.4,1.7-0.6c0.2-0.1,0.4-0.1,0.6-0.1c0.2,0,0.5,0,0.7,0.1
						c0.6,0.2,1,0.8,1.6,0.7c0.4-0.1,0.8-0.5,1.2-0.7c0.2-0.1,0.3-0.1,0.5-0.2c0.2,0,0.5,0,0.7,0.1c0.6,0.2,1.1,0.7,1.7,0.7
						c0.6,0,1.1-0.4,1.7-0.6c0.3-0.1,0.6-0.1,1-0.1c0.7,0.1,1.3,0.6,2,0.9c0.2,0.1,0.4,0.1,0.6,0.1c0.9,0,1.7-0.7,2.5-0.9
						c0.3-0.1,0.5-0.1,0.8-0.1c1,0,1.8,0.5,2.7,0.7c0.3,0.1,0.6,0.1,0.9,0.1c1-0.1,2-0.3,3.1-0.5c1.1-0.2,2.2-0.4,3.1-0.7
						c1-0.2,1.7-1.1,2.6-1.5c0.4-0.2,0.9-0.4,1.5-0.4c0.2,0,0.3,0,0.5,0.1c0.3,0.1,0.6,0.4,1,0.4c0.2,0,0.2-0.2,0.2-0.3
						c0.1-0.2,0.2-0.5,0.3-0.7c0.2-0.3,0.3-0.5,0.6-0.6c0.2-0.1,0.7-0.1,1.1,0l-0.1-0.3l-0.1-0.6c-0.3,0-0.5,0.3-0.7,0.3
						c-0.2,0-0.4,0-0.6-0.1l-1.1-0.7c0,0,0.1,0,0.1,0c0-0.2-0.4,0.1-0.5,0.1c-0.3,0.1-0.5-0.1-0.5-0.1c-0.4-0.3-1-0.9-1.5-1.2
						c-0.2-0.1-0.4-0.2-0.6-0.2l-0.1,0.3c0,0,0,0.1,0,0.1l0,0l0,0c-0.1,0.3-0.3,0.5-0.6,0.5l-0.7-1.1c0,0,0,0.2,0,0.3
						c0,0.1,0.2,0.3,0.2,0.3s-0.5-0.2-0.6-0.1l-1,1.4c-0.2,0.1-0.4,0.2-0.7,0.1c-0.3-0.1-1-0.8-1.1-0.9c-0.2-0.1-0.5-0.2-0.8-0.3
						c-0.3-0.1-0.6-0.1-0.9-0.1l-2.3,0.1c-0.2,0.1-0.6,0.4-0.9,0.5c-0.2,0.1-0.4,0.1-0.5,0.1c-0.2,0-0.3-0.3-0.5-0.5
						c-0.4-0.1-0.9,0-1.3-0.1c-0.2,0-0.4-0.1-0.6-0.2c-0.3-0.2-0.6-0.5-0.9-0.6c0,0-0.1,0-0.1,0c0,0.2-0.1,0.4-0.1,0.5
						c-0.1,0.4-0.3,0.6-0.6,0.7c-0.3,0.1-0.5,0.1-0.8-0.1c-0.2-0.2-0.5-0.7-0.6-0.9c-0.2-0.1-0.4-0.2-0.6-0.3
						c-0.2-0.1-0.4-0.1-0.6-0.1s-0.4,0.1-0.5,0.2c-0.7,0.4-1.3,1-2,1.2c-0.3,0.1-0.7,0.1-1,0c-1-0.2-2-0.9-2.9-0.7
						c-0.6,0.1-1,0.7-1.5,1c-0.2,0.1-0.4,0.2-0.7,0.2c-0.3,0-0.7-0.1-1.1-0.3c-0.8-0.5-2-1.5-2.7-1.7c-0.3-0.1-0.6,0-0.8,0
						c-0.8,0.2-1.6,0.8-2.5,1c0,0-0.4,0.1-0.7-0.3c-0.1-0.1-0.4-0.5-0.4-0.6c-0.2-0.2-0.5-0.4-0.8-0.6c-0.2-0.1-0.5-0.2-0.7-0.2
						c-0.6,0-1.2,0.7-1.9,1c-0.2,0.1-0.5,0.2-0.8,0.2c-0.3,0-0.6-0.1-0.9-0.2c-0.8-0.3-1.5-1.2-2.3-1.4l-1.1,0.3
						c-0.8,0.1-1.8,0-2.8,0.1c-0.4,0-0.7,0.1-1,0.2l-1.6,1c-0.4,0.2-0.8,0.2-1.2,0.1c-0.6-0.1-1.2-0.5-1.9-0.5l-2.9,0.7
						c-0.9,0-2.1-0.3-3.2-0.3c-0.6,0-1.2,0.1-1.6,0.5c-0.2,0.2-0.5,0.3-0.8,0.2c-0.3,0-0.7-0.5-1.1-0.5c-0.2,0-0.5,0-0.7,0.1
						c-0.4,0.1-0.9,0.3-1.3,0.4c-0.4,0.1-0.8,0.3-1.1,0.4c-0.6,0.3-1.1,0.7-1.7,1c-0.2,0.1-0.5,0.2-0.8,0
						C9896.1-879.7,9895.8-879.9,9895.6-880.1z M9886-877.2c-1-0.5-0.4,0.9,0.1,0.2l0-0.1L9886-877.2z M9891.3-877.1
						c0,0,0,0,0.1,0.1l0,0c-0.1,0-0.1,0-0.2,0l0.3,0.1c0,0-0.1,0.2-0.3-0.1l0,0C9891.1-877.1,9891.2-877.1,9891.3-877.1
						L9891.3-877.1z M9891.5-877.3L9891.5-877.3l0.1,0c0,0,0,0.1,0.1,0.1l-0.1,0.2l-0.1,0L9891.5-877.3z M9886.4-877.3
						C9886.5-877.3,9886.5-877.2,9886.4-877.3L9886.4-877.3L9886.4-877.3z M9886.3-877.2L9886.3-877.2L9886.3-877.2L9886.3-877.2z
						 M9891.9-877.2L9891.9-877.2L9891.9-877.2C9892-877.3,9892-877.2,9891.9-877.2L9891.9-877.2z M9886.3-877.3L9886.3-877.3
						L9886.3-877.3C9886.3-877.3,9886.3-877.3,9886.3-877.3L9886.3-877.3z M9891.5-877.4C9891.5-877.4,9891.5-877.4,9891.5-877.4
						L9891.5-877.4L9891.5-877.4z M9893.3-878.6L9893.3-878.6L9893.3-878.6L9893.3-878.6l0.2,0l0.1,0l-0.1,0
						C9893.4-878.6,9893.3-878.6,9893.3-878.6z M9891.9-879.1c0.1,0,0.2,0,0.3,0.1c0.1,0,0.1,0,0.1,0.1c0.2,0.1,0.3,0.2,0.5,0.3
						c-0.1,0-0.3-0.1-0.5-0.1c0-0.1,0-0.1-0.1-0.2l-0.1-0.1l0,0l0,0c0,0-0.1,0-0.1,0L9891.9-879.1l0.1,0.2l0.1,0.1l0.1,0l0.2,0
						l0,0.1c0,0,0,0.1,0,0.1l0,0c-0.1-0.1-0.2-0.2-0.3-0.2l0,0l0,0l-0.1,0v0c0-0.1-0.1,0-0.1-0.1c0,0,0,0,0,0l0,0
						C9891.8-879,9891.9-879,9891.9-879.1L9891.9-879.1z M9891.8-879c0,0,0,0.1,0,0.1c-0.1,0,0,0,0,0.1l0,0
						C9891.7-878.9,9891.8-879,9891.8-879L9891.8-879L9891.8-879z M9891.8-878.8L9891.8-878.8c0.1,0,0.1,0,0.2,0h0l0,0h0
						L9891.8-878.8C9891.8-878.8,9891.8-878.8,9891.8-878.8z M9886.9-878.9L9886.9-878.9L9886.9-878.9L9886.9-878.9L9886.9-878.9
						L9886.9-878.9L9886.9-878.9C9886.8-878.9,9886.8-878.9,9886.9-878.9L9886.9-878.9L9886.9-878.9z M9886.9-879L9886.9-879
						L9886.9-879L9886.9-879z M9964.6-882c-0.2,0.1-0.3,0.1-0.3-0.1c0-0.1,0.1-0.1,0.2-0.1l0,0L9964.6-882z M9892.1-884.3
						C9892.1-884.3,9892.1-884.2,9892.1-884.3C9892-884.3,9892.1-884.3,9892.1-884.3L9892.1-884.3z"/>
				</g>
				<path class="st1" d="M93,69.5l0.3-0.1c0,0,0.2,0.1,0.2,0.1c0,0,0.1-0.1,0.1-0.1s-0.2-0.2-0.3-0.2s-0.3,0-0.3,0
					C92.9,69.2,93,69.5,93,69.5z"/>
				<g>
					<g transform="matrix(0.4441,0,0,0.39775,0,0)">
						<path class="st0" d="M199,151.1l-0.3,16.6c0,0,1.1,1,3.6,0.4l0.2-17.1C202.6,151.1,203,151.8,199,151.1z"/>
					</g>
					<g transform="matrix(0.4441,0,0,0.488953,22.5215,-186.077)">
						<path class="st0" d="M159.3,500l-0.3,16.6c0,0,1.1,1,3.6,0.4l0.2-17.1C162.9,499.9,163.4,500.7,159.3,500z"/>
					</g>
					<g transform="matrix(0.4441,0,0,0.382916,43.749,29.3324)">
						<path class="st0" d="M121.9,80.5l-0.3,16.6c0,0,1.1,1,3.6,0.4l0.2-17.1C125.5,80.5,126,81.2,121.9,80.5z"/>
					</g>
					<g transform="matrix(0.4441,0,0,0.39775,0,0)">
						<path class="st0" d="M200.9,149.7c-2.9-0.7-3.9-4.3-0.3-6.6c3.6-2.4,4.3-1.3,4.8-2.2c0,0-0.3,2.9-0.7,5.2
							C204.3,148.5,203.6,150.3,200.9,149.7z"/>
					</g>
					<g transform="matrix(0.4441,0,0,0.39775,21.5909,-7.30897)">
						<path class="st0" d="M162.8,163.6c-2.9-0.7-3.9-4.3-0.3-6.6c3.6-2.4,4.3-1.3,4.8-2.2c0,0-0.3,2.9-0.7,5.2
							C166.3,162.4,165.6,164.3,162.8,163.6z"/>
					</g>
					<g transform="matrix(0.4441,0,0,0.39775,42.8709,0.446849)">
						<path class="st0" d="M125.4,148.9c-2.9-0.7-3.9-4.3-0.3-6.6c3.6-2.4,4.3-1.3,4.8-2.2c0,0-0.3,2.9-0.7,5.2
							C128.8,147.6,128.1,149.5,125.4,148.9z"/>
					</g>
					<g transform="matrix(0.431279,0,0,0.39775,52.5998,-2.31676)">
						<path class="st1" d="M82.6,157.7c0,0.2,0,0.5,0,0.7c0,1.4-0.3,3.2-0.3,4c0,1.1,0,2.2,0,3.3c-0.1,2.6-0.2,5.3-0.2,7.9
							c0,0.3,0.2,0.5,0.5,0.5c0.3,0,0.5-0.2,0.5-0.5c0.1-2.6,0.3-5.2,0.4-7.8c0-1.1,0.1-2.3,0-3.4c0-0.7,0.2-2.6,0.1-4
							c-0.1-0.8-0.2-1.5-0.6-1.9c-0.1-0.1-0.6-0.3-0.7,0.2c0,0.2,0,0.8,0.2,1C82.5,157.7,82.5,157.7,82.6,157.7z M82.4,157.1
							L82.4,157.1C82.4,157.1,82.4,157.1,82.4,157.1z M83,157C83,157,83,157,83,157L83,157z"/>
					</g>
					<g transform="matrix(0.431279,0,0,0.49936,75.0892,-209.784)">
						<path class="st1" d="M41.8,537.5c0,0.2,0,0.5,0,0.8c0,1.4-0.3,3.2-0.3,4c0,1.1,0,2.2,0,3.3c-0.1,2.6-0.2,5.2-0.2,7.9
							c0,0.2,0.2,0.4,0.5,0.4c0.3,0,0.5-0.2,0.5-0.4c0.1-2.6,0.3-5.2,0.4-7.9c0-1.1,0.1-2.3,0-3.4c0-0.7,0.2-2.6,0.1-4
							c-0.1-0.8-0.2-1.4-0.5-1.8c-0.1-0.1-0.7-0.3-0.8,0.2c0,0.2,0,0.7,0.2,0.8C41.7,537.5,41.7,537.5,41.8,537.5z M42.2,536.9
							L42.2,536.9C42.2,536.9,42.2,536.8,42.2,536.9C42.2,536.8,42.2,536.8,42.2,536.9z M41.6,536.9L41.6,536.9
							C41.6,536.9,41.6,536.9,41.6,536.9z"/>
					</g>
					<g transform="matrix(0.431279,0,0,0.387697,96.449,17.8997)">
						<path class="st1" d="M3,109.9c0,0.2,0,0.4,0,0.7c0,1.4-0.3,3.2-0.3,4c0,1.1,0,2.2,0,3.3c-0.1,2.6-0.2,5.3-0.2,7.9
							c0,0.3,0.2,0.5,0.5,0.6c0.3,0,0.5-0.2,0.5-0.5c0.1-2.6,0.3-5.2,0.4-7.8c0-1.1,0.1-2.3,0-3.4c0-0.7,0.2-2.6,0.1-4
							c-0.1-0.8-0.2-1.5-0.6-1.9c-0.1-0.1-0.6-0.3-0.7,0.2c0,0.2,0,0.8,0.2,1C3,109.9,3,109.9,3,109.9z M2.9,109.3L2.9,109.3
							C2.8,109.3,2.9,109.3,2.9,109.3z M3.5,109.2C3.5,109.2,3.5,109.2,3.5,109.2C3.5,109.2,3.5,109.2,3.5,109.2z"/>
					</g>
					<g transform="matrix(0.261788,0,0,0.441913,774.187,-88.6542)">
						<path class="st1" d="M-2613.3,337.3C-2613.2,337.2-2613.2,337.2-2613.3,337.3c0.2-0.2,0.2-0.4-0.1-0.5
							c-0.4-0.2-0.7-0.1-0.9,0.2c-0.2,0.2-0.2,0.9-0.2,1.1l-0.2,4.2c0,2.2-0.2,4.5-0.2,6.7c0,1,0.1,1.9,0.2,2.9
							c0,0.2,0.3,0.3,0.6,0.3c0.3,0,0.6-0.2,0.6-0.3c0.1-0.6,0.1-1.3,0.2-1.9c0.1-1,0.1-1.9,0.2-2.9c0.1-1.6,0.1-3.2,0.1-4.8
							l-0.1-4.2C-2613.2,338-2613.2,337.4-2613.3,337.3z"/>
					</g>
					<g transform="matrix(0.261788,0,0,0.554805,796.676,-318.177)">
						<path class="st1" d="M-2680.4,679.1L-2680.4,679.1c0.2-0.1,0.2-0.3,0-0.3c-0.3-0.2-0.8-0.2-1,0.2c-0.1,0.2-0.1,0.9-0.2,1.1
							l-0.2,4.2c0,2.2-0.2,4.5-0.2,6.7c0,1,0.1,1.9,0.2,2.9c0,0.2,0.3,0.3,0.6,0.3s0.6-0.1,0.6-0.3c0.1-0.6,0.1-1.3,0.2-1.9
							c0.1-1,0.1-1.9,0.2-2.9c0.1-1.6,0.1-3.2,0.1-4.8l-0.1-4.2C-2680.4,679.9-2680.4,679.3-2680.4,679.1z"/>
					</g>
					<g transform="matrix(0.261788,0,0,0.430744,818.036,-66.2557)">
						<path class="st1" d="M-2744.3,294.2C-2744.3,294.2-2744.2,294.2-2744.3,294.2c0.2-0.2,0.2-0.4-0.1-0.5
							c-0.4-0.2-0.7-0.1-0.9,0.2c-0.2,0.2-0.2,1-0.2,1.1l-0.2,4.2c0,2.2-0.2,4.5-0.2,6.7c0,1,0.1,1.9,0.2,2.9c0,0.2,0.3,0.4,0.6,0.4
							c0.3,0,0.6-0.2,0.6-0.4c0.1-0.6,0.1-1.3,0.2-1.9c0.1-1,0.1-1.9,0.2-2.9c0.1-1.6,0.1-3.2,0.1-4.8l-0.1-4.2
							C-2744.2,295-2744.3,294.4-2744.3,294.2z"/>
					</g>
					<g transform="matrix(0.4441,0,0,0.39775,0,0)">
						<path class="st1" d="M199.1,167.6c0-0.2-0.1-0.3-0.3-0.4c-0.1,0-0.2,0-0.3,0.1v0c0,0.1,0,0.1-0.1,0.1l0,0l0-0.1c0,0,0,0,0-0.1
							c0,0,0,0,0,0.1l0,0c0,0,0,0,0,0l0,0c-0.1,0.1-0.2,0.1-0.3,0.2c0,0.1,0,0.4,0.4,0.6c0.3,0.1,1.2,0.3,1.3,0.3
							c0.4,0,1.3,0.2,1.9,0c0.4-0.1,0.7-0.4,0.9-0.7c0.1-0.2,0.1-0.5-0.1-0.7c-0.2-0.2-0.5-0.1-0.6,0.1c-0.1,0.1-0.2,0-0.3,0.1
							c-0.2,0-0.3,0.1-0.5,0.1c-0.4,0.1-0.9,0-1.2,0C200,167.5,199.5,167.6,199.1,167.6z M199,167.8c-0.1,0.1-0.2,0.1-0.1,0.2
							C198.9,168.1,199,168,199,167.8L199,167.8z M198.9,167.5c-0.1,0-0.1-0.1-0.1-0.1C198.8,167.3,198.9,167.5,198.9,167.5
							C198.9,167.5,198.9,167.5,198.9,167.5z"/>
					</g>
					<g transform="matrix(0.4441,0,0,0.49936,22.4894,-206.875)">
						<path class="st1" d="M159.5,547.5C159.5,547.5,159.5,547.5,159.5,547.5c0-0.2-0.1-0.3-0.3-0.3c-0.1,0-0.2,0-0.3,0.1l0,0
							c0,0,0,0.1,0,0.1l0-0.1c0,0,0,0,0,0c0,0,0,0,0,0c0,0,0,0,0,0.1c-0.1,0-0.2,0.1-0.3,0.2c0,0.1,0,0.3,0.3,0.5
							c0.3,0.1,1.3,0.3,1.3,0.3c0.5,0,1.4,0.2,2-0.1c0.4-0.1,0.7-0.4,0.8-0.7c0.1-0.2,0-0.4-0.2-0.5c-0.2-0.1-0.5,0-0.6,0.2
							c-0.1,0.1-0.2,0.1-0.3,0.1c-0.1,0-0.3,0.1-0.5,0.1c-0.4,0.1-0.9,0-1.2,0C160.4,547.5,159.9,547.5,159.5,547.5z M159.4,547.7
							c-0.1,0.1-0.2,0.1-0.1,0.2C159.3,547.9,159.4,547.8,159.4,547.7L159.4,547.7z M159.3,547.5c0,0-0.1-0.2-0.1-0.1
							C159.2,547.4,159.3,547.4,159.3,547.5z"/>
					</g>
					<g transform="matrix(0.4441,0,0,0.387697,43.8492,20.1579)">
						<path class="st1" d="M121.9,119.8c0-0.2-0.1-0.3-0.3-0.4c-0.1,0-0.2,0-0.3,0.1v0c0,0.1,0,0.1-0.1,0.1l0,0l0-0.1l0,0
							c0,0,0,0,0,0l0,0c0,0,0,0,0,0.1c0,0,0,0,0,0.1c-0.1,0.1-0.2,0.1-0.3,0.2c0,0.1,0,0.5,0.4,0.6c0.3,0.2,1.2,0.3,1.3,0.3
							c0.4,0,1.3,0.2,1.9,0c0.4-0.1,0.7-0.4,0.9-0.8c0.1-0.2,0.1-0.6-0.1-0.7c-0.2-0.2-0.5-0.1-0.6,0.1c-0.1,0.1-0.2,0-0.3,0.1
							c-0.2,0-0.3,0.1-0.5,0.1c-0.4,0.1-0.9,0-1.2,0C122.7,119.6,122.2,119.8,121.9,119.8z M121.7,120c-0.1,0.1-0.2,0.1-0.2,0.2
							C121.6,120.3,121.7,120.2,121.7,120L121.7,120z M121.7,119.7c-0.1,0-0.1-0.1-0.1-0.1C121.6,119.5,121.7,119.7,121.7,119.7
							C121.7,119.7,121.7,119.7,121.7,119.7z"/>
					</g>
					<g transform="matrix(0.4441,0,0,0.39775,0,0)">
						<path class="st1" d="M201.9,150.7c-0.2,0-0.5,0-0.5,0c-0.3,0-1,0-1.6,0c-0.2,0-0.7,0.1-0.6-0.1c0,0-0.1,0,0,0.1
							c0-0.2-0.1-0.3-0.3-0.3c-0.2,0-0.3,0.1-0.3,0.3c-0.1,0.3,0.3,0.7,0.9,1c0.7,0.3,1.8,0.3,2.1,0.3c0.1,0,0.8-0.1,1.1-0.3
							c0.2-0.2,0.4-0.5,0.3-0.7c0-0.1,0-0.3-0.2-0.4c-0.2-0.2-0.5-0.2-0.7,0C202,150.6,202,150.6,201.9,150.7z M201.9,150.9
							L201.9,150.9L201.9,150.9L201.9,150.9L201.9,150.9z M202,150.7C202,150.6,202,150.6,202,150.7c0.1-0.1,0.1-0.1,0.1-0.1
							C202.1,150.6,202,150.6,202,150.7z"/>
					</g>
					<g transform="matrix(0.4441,0,0,0.49936,22.4894,-206.875)">
						<path class="st1" d="M162.3,530.6c-0.2,0-0.5,0-0.5,0c-0.2,0-0.8,0-1.3,0c-0.3,0-0.5-0.1-0.7-0.1c-0.1,0-0.2,0-0.2-0.1
							c0,0,0,0,0,0c0-0.1-0.1-0.3-0.3-0.3c-0.2,0-0.3,0.1-0.3,0.3c-0.1,0.3,0.3,0.6,0.8,0.8c0.7,0.3,1.9,0.3,2.2,0.3
							c0.1,0,0.4,0,0.7-0.1c0.2-0.1,0.4-0.1,0.5-0.2c0.1-0.2,0.3-0.4,0.2-0.5c0-0.1,0-0.2-0.2-0.2c-0.2-0.2-0.4-0.2-0.6-0.1
							C162.4,530.5,162.3,530.6,162.3,530.6z M162.3,530.7C162.3,530.8,162.3,530.8,162.3,530.7L162.3,530.7z M162.4,530.6
							C162.4,530.6,162.4,530.6,162.4,530.6C162.4,530.5,162.4,530.6,162.4,530.6z"/>
					</g>
					<g transform="matrix(0.4441,0,0,0.387697,43.8492,20.1579)">
						<path class="st1" d="M124.7,102.8c-0.2,0-0.5,0-0.5,0c-0.3,0-1,0-1.6,0c-0.2,0-0.7,0.1-0.6-0.1c0,0,0,0.1,0,0.1
							c0-0.2-0.1-0.3-0.3-0.4c-0.2,0-0.3,0.2-0.3,0.3c-0.1,0.3,0.3,0.7,0.9,1c0.7,0.3,1.8,0.3,2.1,0.3c0.1,0,0.8-0.1,1.1-0.3
							c0.3-0.2,0.4-0.5,0.3-0.7c0-0.1,0-0.3-0.2-0.4c-0.2-0.2-0.5-0.2-0.7,0C124.8,102.7,124.7,102.8,124.7,102.8z M124.7,103.1
							L124.7,103.1L124.7,103.1L124.7,103.1z M124.8,102.8C124.8,102.8,124.8,102.8,124.8,102.8c0.1-0.1,0.1-0.1,0.1-0.1
							C124.8,102.8,124.8,102.8,124.8,102.8z"/>
					</g>
					<g transform="matrix(0.4441,0,0,0.39775,0,0)">
						<path class="st1" d="M201,149.5l-0.7-0.1c-0.4-0.3-0.7-0.6-1-0.9c-0.4-0.6-0.6-1.2-0.5-1.8c0.1-1,0.8-2.1,1.7-2.9
							c0.1-0.1,0.2-0.1,0.3-0.2c0.4-0.1,0.8-0.2,1.2-0.3c0.9-0.3,2.1-0.7,2.9-1.4c0.4-0.4,0.7-0.8,0.9-1.3c0.1-0.2,0.1-0.4-0.1-0.6
							c-0.2-0.1-0.4-0.1-0.5,0.1c-0.2,0.3-0.5,0.4-0.8,0.6c-0.3,0.2-0.6,0.4-0.8,0.5c-0.7,0.3-1.4,0.6-1.9,0.8
							c-0.4,0.1-0.8,0.2-1.2,0.3c-0.2,0.1-0.4,0.2-0.6,0.3c-1.3,1-2,2.4-2.1,3.8c-0.1,1.4,0.5,2.8,2.2,3.6c0.1,0.1,0.3,0.1,0.4,0.1
							c0.2,0,0.3-0.1,0.5-0.1c0.2,0.1,0.3,0,0.4-0.2C201.2,149.7,201.1,149.5,201,149.5z"/>
					</g>
					<g transform="matrix(0.4441,0,0,0.39775,21.9435,-8.03989)">
						<path class="st1" d="M162.3,164.8l-0.7-0.1c-0.4-0.3-0.7-0.6-1-0.9c-0.4-0.6-0.6-1.2-0.5-1.8c0.1-1,0.8-2.1,1.7-2.9
							c0.1-0.1,0.2-0.1,0.3-0.2c0.4-0.1,0.8-0.2,1.2-0.3c0.9-0.3,2.1-0.7,2.9-1.4c0.4-0.4,0.7-0.8,0.9-1.3c0.1-0.2,0.1-0.4-0.1-0.6
							c-0.2-0.1-0.4-0.1-0.5,0.1c-0.2,0.3-0.5,0.4-0.8,0.6c-0.3,0.2-0.6,0.4-0.8,0.5c-0.7,0.3-1.4,0.6-1.9,0.8
							c-0.4,0.1-0.8,0.2-1.2,0.3c-0.2,0.1-0.4,0.2-0.6,0.3c-1.3,1-2,2.4-2.1,3.8c-0.1,1.4,0.5,2.8,2.2,3.6c0.1,0.1,0.3,0.1,0.4,0.1
							c0.2,0,0.3-0.1,0.5-0.1c0.2,0.1,0.3,0,0.4-0.2C162.6,165,162.5,164.8,162.3,164.8z"/>
					</g>
					<g transform="matrix(0.4441,0,0,0.39775,42.9847,0.475769)">
						<path class="st1" d="M125.2,148.6l-0.7-0.1c-0.4-0.3-0.7-0.6-1-0.9c-0.4-0.6-0.6-1.2-0.5-1.8c0.1-1,0.8-2.1,1.7-2.9
							c0.1-0.1,0.2-0.1,0.3-0.2c0.4-0.1,0.8-0.2,1.2-0.3c0.9-0.3,2.1-0.7,2.9-1.4c0.4-0.4,0.7-0.8,0.9-1.3c0.1-0.2,0.1-0.4-0.1-0.6
							c-0.2-0.1-0.4-0.1-0.5,0.1c-0.2,0.3-0.5,0.4-0.8,0.6c-0.3,0.2-0.6,0.4-0.8,0.5c-0.7,0.3-1.4,0.6-1.9,0.8
							c-0.4,0.1-0.8,0.2-1.2,0.3c-0.2,0.1-0.4,0.2-0.6,0.3c-1.3,1-2,2.4-2.1,3.8c-0.1,1.4,0.5,2.8,2.2,3.6c0.1,0.1,0.3,0.1,0.4,0.1
							c0.2,0,0.3-0.1,0.5-0.1c0.2,0.1,0.3,0,0.4-0.2C125.5,148.8,125.4,148.6,125.2,148.6z"/>
					</g>
					<g transform="matrix(0.4441,0,0,0.39775,0,0)">
						<path class="st1" d="M204.9,140.9L204.9,140.9C204.9,140.9,204.9,140.9,204.9,140.9c-0.1,0.2-0.3,0.7-0.4,0.9
							c-0.1,0.3-0.2,0.7-0.2,1c-0.1,0.3-0.1,0.7-0.1,1.1c0,1.3-0.1,3.3-0.8,4.6c-0.2,0.4-0.6,0.8-1,0.9c-0.3,0.1-0.6,0.2-1,0.2
							c-0.2-0.1-0.4,0.1-0.5,0.4c0,0.3,0.1,0.5,0.3,0.5c0.5,0.2,1,0.2,1.4,0.2c0.8-0.2,1.3-0.8,1.7-1.5c0.8-1.5,0.8-3.7,0.8-5.2
							c0-0.3,0-0.6,0-0.9c0-0.3,0.1-0.6,0.1-0.9c0-0.2,0.1-0.7,0.1-0.9c0-0.1,0-0.1,0-0.1c0-0.1,0-0.1,0-0.2
							c-0.1-0.2-0.2-0.3-0.4-0.2C205,140.6,204.9,140.7,204.9,140.9z"/>
					</g>
					<g transform="matrix(0.4441,0,0,0.39775,21.9435,-8.03989)">
						<path class="st1" d="M166.3,156.2L166.3,156.2C166.3,156.1,166.3,156.2,166.3,156.2c-0.1,0.2-0.3,0.7-0.4,0.9
							c-0.1,0.3-0.2,0.7-0.2,1c-0.1,0.3-0.1,0.7-0.1,1.1c0,1.3-0.1,3.3-0.8,4.6c-0.2,0.4-0.6,0.8-1,0.9c-0.3,0.1-0.6,0.2-1,0.2
							c-0.2-0.1-0.4,0.1-0.5,0.4c0,0.3,0.1,0.5,0.3,0.5c0.5,0.2,1,0.2,1.4,0.2c0.8-0.2,1.3-0.8,1.7-1.5c0.8-1.5,0.8-3.7,0.8-5.2
							c0-0.3,0-0.6,0-0.9c0-0.3,0.1-0.6,0.1-0.9c0-0.2,0.1-0.7,0.1-0.9c0-0.1,0-0.1,0-0.1c0-0.1,0-0.1,0-0.2
							c-0.1-0.2-0.2-0.3-0.4-0.2C166.4,155.9,166.3,156,166.3,156.2z"/>
					</g>
					<g transform="matrix(0.4441,0,0,0.39775,42.9847,0.475769)">
						<path class="st1" d="M129.2,139.9L129.2,139.9C129.2,139.9,129.2,140,129.2,139.9c-0.1,0.2-0.3,0.7-0.4,0.9
							c-0.1,0.3-0.2,0.7-0.2,1c-0.1,0.3-0.1,0.7-0.1,1.1c0,1.3-0.1,3.3-0.8,4.6c-0.2,0.4-0.6,0.8-1,0.9c-0.3,0.1-0.6,0.2-1,0.2
							c-0.2-0.1-0.4,0.1-0.5,0.4c0,0.3,0.1,0.5,0.3,0.5c0.5,0.2,1,0.2,1.4,0.2c0.8-0.2,1.3-0.8,1.7-1.5c0.8-1.5,0.8-3.7,0.8-5.2
							c0-0.3,0-0.6,0-0.9c0-0.3,0.1-0.6,0.1-0.9c0-0.2,0.1-0.7,0.1-0.9c0-0.1,0-0.1,0-0.1c0-0.1,0-0.1,0-0.2
							c-0.1-0.2-0.2-0.3-0.4-0.2C129.3,139.7,129.2,139.8,129.2,139.9z"/>
					</g>
					<g transform="matrix(0.390758,0,0,0.402664,226.632,-9.66326)">
						<path class="st1" d="M-349.5,174.5c0.2-0.6-0.5-0.6-0.6-0.5c0,0-0.1,0.1-0.1,0.2c-0.2,0.3-0.6,1.1-0.7,1.3
							c-0.2,0.4-0.7,0.9-1.2,1.3c-0.2,0.2-0.5,0.3-0.7,0.5c-0.2,0.1-0.4,0.2-0.6,0.2c-0.4,0-0.7,0.2-0.8,0.6c0,0.4,0.2,0.7,0.6,0.7
							c0.4,0.1,0.9,0,1.4-0.2c0.2-0.1,0.4-0.3,0.7-0.4c0.8-0.6,1.5-1.5,1.7-2.1C-349.7,175.9-349.6,174.9-349.5,174.5L-349.5,174.5z
							 M-350.2,174.3C-350.2,174.3-350.2,174.3-350.2,174.3C-350.2,174.3-350.2,174.3-350.2,174.3L-350.2,174.3z"/>
					</g>
					<g transform="matrix(0.376971,0,0,0.417879,285.139,-40.0261)">
						<path class="st1" d="M-519.3,246.2c-0.4,0.3-0.8,0.6-1.2,0.9c-0.2,0.1-0.4,0.3-0.6,0.4c-0.1,0.1-0.2,0.1-0.3,0.2
							c-0.1,0,0,0.2-0.1,0.2c-0.4,0-0.7,0.2-0.8,0.5c0,0.3,0.2,0.6,0.6,0.7c0.2,0.1,0.4,0.2,0.7,0.2c0.3,0,0.6-0.1,0.9-0.3
							c0.3-0.2,0.7-0.4,0.9-0.7c0.4-0.4,0.7-0.8,1-1.1c0-0.1,0.3-0.3,0.4-0.7c0-0.1,0.1-0.3,0.1-0.4c0-0.1,0-0.2-0.1-0.2
							c0,0,0,0,0,0c0.1-0.1,0.2-0.3,0-0.5c0-0.2-0.3-0.2-0.9,0.1c-0.1,0.1-0.2,0.1-0.4,0.2C-519.2,245.9-519.3,246.1-519.3,246.2z
							 M-519.4,246.2C-519.4,246.2-519.4,246.2-519.4,246.2L-519.4,246.2z M-518.3,245.9c0.1,0,0.1,0.1,0.2,0.1
							C-518.2,246-518.2,246-518.3,245.9z"/>
					</g>
					<g transform="matrix(0.4441,0,0,0.39775,0,0)">
						<path class="st1" d="M198.9,164.3C198.8,164.3,198.8,164.3,198.9,164.3C198.8,164.3,198.8,164.3,198.9,164.3
							C198.9,164.4,198.9,164.4,198.9,164.3c0.1,0.1,0.1,0.1,0.1,0.2c-0.2-0.3-0.5-0.3-0.8-0.1c-0.2,0.2-0.3,0.6-0.1,0.9
							c0.1,0.4,0.4,0.4,0.6,0.5c0.3,0.1,0.7-0.1,1-0.3c0.5-0.2,0.8-0.4,1.2-0.7c0.4-0.3,0.7-0.6,1-1.1c0-0.1,0.4-0.8,0.6-1.1l0,0
							l0,0c0.2-0.1,0.2-0.3,0.2-0.4c0-0.1-0.3-0.3-0.6,0c0,0.1-0.1,0.1-0.2,0.2c-0.3,0.3-0.7,0.6-0.7,0.6c-0.3,0.3-0.6,0.5-1,0.7
							c-0.3,0.2-0.6,0.3-1,0.5C199.1,164.2,198.9,164.3,198.9,164.3z M202.1,162.6c0,0.1,0.1,0.2,0.2,0.2
							C202.3,162.7,202.2,162.7,202.1,162.6z"/>
					</g>
					<g transform="matrix(0.4441,0,0,0.39775,0,0)">
						<path class="st1" d="M202.2,165.9c-0.1,0-0.2,0-0.3,0.1c-0.4,0.2-0.7,0.6-1,0.9c-0.1,0.1-0.3,0.2-0.4,0.3
							c-0.1,0.1-0.2,0.2-0.4,0.2c-0.3,0-0.5,0.3-0.4,0.6c0,0.3,0.3,0.5,0.5,0.5c0.4,0,0.7-0.1,1-0.4c0.3-0.3,0.6-0.7,0.8-1
							c0.1-0.1,0.2-0.2,0.3-0.3c0.1-0.1,0.1-0.2,0.1-0.2c0.2-0.1,0.2-0.3,0.1-0.4C202.5,165.9,202.4,165.8,202.2,165.9z"/>
					</g>
					<g transform="matrix(0.4441,0,0,0.39775,0,0)">
						<path class="st1" d="M213.5,147.5c0,0,0.1-0.1,0.1-0.1c0.1-0.1-0.3-0.6-0.8-0.2c-0.2,0.2-0.5,0.6-0.7,0.7
							c-0.5,0.5-1,0.8-1.5,1.2c-0.2,0.2-0.5,0.4-0.7,0.7c-0.2,0.2-0.3,0.6-0.1,0.8c0.2,0.3,0.5,0.3,0.8,0.1c0.2-0.1,0.4-0.2,0.6-0.4
							c0.3-0.2,0.6-0.5,0.8-0.7c0.3-0.3,0.6-0.6,0.9-1c0.1-0.2,0.4-0.6,0.5-0.9C213.5,147.7,213.5,147.6,213.5,147.5z"/>
					</g>
					<g transform="matrix(0.4441,0,0,0.39775,0,0)">
						<path class="st1" d="M213.8,152.3c0-0.1,0.1-0.2,0.1-0.2c0-0.1,0-0.1,0-0.1c0.1-0.2-0.1-0.2-0.1-0.3c0-0.2-0.2-0.1-0.4-0.1
							c0,0,0,0.1-0.1,0.1c-0.1,0-0.1,0-0.2,0.1c-0.1,0-0.1,0.1-0.1,0.1c-0.4,0.4-0.8,0.7-1.3,1.1c-0.4,0.3-0.8,0.5-1.2,0.7
							c-0.2,0.1-0.3,0.2-0.5,0.3c-0.3,0.1-0.5,0.4-0.4,0.7c0,0.3,0.3,0.5,0.6,0.5c0.2,0,0.5,0,0.8-0.1c0.5-0.1,1-0.5,1.5-0.9
							c0.6-0.5,1.2-1,1.5-1.7C213.8,152.4,213.8,152.3,213.8,152.3C213.8,152.3,213.8,152.3,213.8,152.3z"/>
					</g>
					<g transform="matrix(0.4441,0,0,0.39775,0,0)">
						<path class="st1" d="M210.1,158.4c-0.2-0.1-0.5-0.1-0.7,0.2c-0.2,0.3-0.1,0.6,0.1,0.8c0.1,0.2,0.3,0.2,0.6,0.2
							c0.2,0,0.5-0.1,0.7-0.1c0.5-0.2,0.9-0.3,1.3-0.6c0.4-0.3,0.7-0.6,1.1-1c0.1-0.1,0.2-0.2,0.3-0.4c0.1-0.1,0.1-0.4,0.1-0.4
							c0.1,0,0.2,0,0.2-0.1c0.1-0.1,0.2-0.3,0.1-0.5c-0.1-0.3-0.3-0.3-0.6-0.1c-0.2,0.1-0.6,0.5-0.8,0.6c-0.3,0.3-0.7,0.4-1,0.6
							c-0.3,0.2-0.7,0.4-1,0.5c-0.1,0-0.2,0.1-0.3,0.2C210.1,158.3,210.1,158.4,210.1,158.4C210.1,158.4,210.1,158.4,210.1,158.4z
							 M213.6,157C213.6,157.1,213.6,157.1,213.6,157C213.6,157,213.6,157,213.6,157z M213.5,157C213.5,157,213.5,157,213.5,157
							C213.5,157,213.5,157,213.5,157z"/>
					</g>
					<g transform="matrix(0.4441,0,0,0.39775,0,0)">
						<path class="st1" d="M212.8,160.1c-0.3,0.3-0.6,0.6-1,0.8c-0.3,0.2-0.6,0.5-1,0.6l-0.6,0.3c-0.3-0.1-0.6,0.1-0.7,0.4
							c-0.1,0.3,0.1,0.7,0.4,0.8c0.2,0.1,0.5,0.1,0.7,0.1c0.3,0,0.6-0.2,0.8-0.3c0.3-0.2,0.6-0.5,0.9-0.7c0.4-0.4,0.7-0.9,1.1-1.4
							c0.2-0.2,0.1-0.5,0-0.6C213.2,159.9,213,159.9,212.8,160.1z"/>
					</g>
					<g transform="matrix(0.4441,0,0,0.39775,0,0)">
						<path class="st1" d="M212.6,164.1l-0.4,0.2c-0.4,0.4-0.8,0.6-1.2,0.7c-0.3,0.1-0.6,0.2-0.9,0.3c-0.3,0-0.5,0.2-0.5,0.5
							c0,0.3,0.2,0.5,0.4,0.5c0.6,0.1,1.1,0.1,1.6-0.1c0.5-0.2,0.9-0.5,1.3-1c0.1-0.1,0.2-0.3,0.3-0.5c0.1-0.2,0.2-0.4,0.2-0.5
							c0,0-0.1-0.6-0.5-0.4C212.8,163.8,212.7,164,212.6,164.1z"/>
					</g>
					<g transform="matrix(0.4441,0,0,0.39775,0,0)">
						<path class="st1" d="M222.7,151.8c-0.1,0-0.2,0.1-0.2,0.1c-0.3,0.2-0.8,0.6-1.2,0.9c-0.2,0.1-0.4,0.3-0.6,0.3
							c-0.3-0.1-0.5,0.1-0.6,0.4c-0.1,0.3,0.1,0.6,0.3,0.7c0.4,0.2,0.9,0.1,1.4-0.2c0.6-0.3,1.1-0.9,1.3-1.2
							c0.1-0.1,0.4-0.5,0.6-0.7c0.1-0.2,0.1-0.4,0.1-0.5c-0.1-0.3-0.3-0.5-0.6-0.3C222.9,151.2,222.7,151.5,222.7,151.8z
							 M223.3,151.9C223.3,151.9,223.3,151.9,223.3,151.9C223.3,151.9,223.3,151.9,223.3,151.9z M223.3,151.8L223.3,151.8
							L223.3,151.8L223.3,151.8z M223,151.5C223,151.5,223,151.5,223,151.5C223,151.4,223,151.5,223,151.5z"/>
					</g>
					<g transform="matrix(0.4441,0,0,0.39775,0,0)">
						<path class="st1" d="M220.7,156.7C220.7,156.7,220.7,156.8,220.7,156.7c0.2,0.1,0.2,0.2,0.2,0.2c-0.2-0.2-0.5-0.3-0.7-0.2
							c-0.3,0.2-0.4,0.5-0.2,0.8c0,0.3,0.3,0.4,0.6,0.5c0.3,0.1,0.8-0.1,0.9-0.1c0.4-0.1,0.8-0.3,1.1-0.6c0.3-0.3,0.6-0.5,0.9-0.9
							c0,0,0.2-0.3,0.4-0.5c0.1-0.1,0.2-0.3,0.2-0.3l0,0c0,0,0,0,0.1,0c0.2-0.1,0.2-0.3,0.2-0.4c0-0.2-0.2-0.3-0.5-0.2
							c-0.3,0.1-0.8,0.6-0.9,0.6c-0.2,0.2-0.4,0.3-0.7,0.4c-0.3,0.2-0.7,0.4-1,0.5C221.1,156.6,220.9,156.6,220.7,156.7
							C220.7,156.7,220.7,156.7,220.7,156.7z M220.7,156.7C220.7,156.7,220.7,156.7,220.7,156.7
							C220.7,156.7,220.7,156.7,220.7,156.7z M223.8,155.6c0,0,0.1,0.1,0.1,0.1C223.8,155.7,223.8,155.7,223.8,155.6z"/>
					</g>
					<g transform="matrix(0.4441,0,0,0.39775,0,0)">
						<path class="st1" d="M220.8,160.6c-0.3-0.2-0.6-0.1-0.8,0.2c-0.2,0.3-0.1,0.7,0.1,0.9c0.1,0.2,0.4,0.2,0.6,0.3
							c0.2,0,0.4,0,0.6-0.1c0.4-0.1,0.8-0.3,1.1-0.6c0.3-0.2,0.6-0.5,0.9-0.8c0,0,0.1-0.1,0.2-0.3c0.1-0.1,0.1-0.4,0.2-0.5l0,0l0,0
							c0,0,0,0,0,0l0,0h0l0,0c0.1,0,0.1-0.1,0.1-0.2c0.2-0.3,0.1-0.7-0.6-0.4c-0.2,0.1-0.6,0.4-0.7,0.4c-0.3,0.2-0.6,0.4-0.9,0.5
							c-0.3,0.1-0.5,0.3-0.8,0.3c-0.1,0-0.2,0.2-0.2,0.1c0,0,0,0.1,0,0C220.8,160.5,220.8,160.6,220.8,160.6z M223.3,159.6
							c0,0,0.1,0.1,0.1,0.1c0,0,0.1,0,0.1,0C223.5,159.7,223.4,159.7,223.3,159.6z M223.7,159.7L223.7,159.7L223.7,159.7
							L223.7,159.7C223.7,159.7,223.8,159.7,223.7,159.7C223.7,159.7,223.7,159.7,223.7,159.7z"/>
					</g>
					<g transform="matrix(0.4441,0,0,0.39775,0,0)">
						<path class="st1" d="M223.4,162.7l-0.7,0.5c-0.2,0.1-0.4,0.2-0.6,0.3c-0.3,0.1-0.5,0.3-0.8,0.4c-0.3,0.1-0.6,0.2-0.9,0.2
							c-0.4,0-0.7,0.3-0.7,0.7c0,0.4,0.2,0.7,0.6,0.8c0.5,0,1.1-0.1,1.7-0.4c0.2-0.1,0.5-0.3,0.7-0.4c0.2-0.2,0.4-0.4,0.6-0.6
							c0.1-0.2,0.2-0.4,0.3-0.6c0-0.1-0.1-0.2,0-0.2c0,0-0.1-0.1-0.1,0c0.2-0.1,0.2-0.3,0.2-0.4
							C223.7,162.7,223.5,162.6,223.4,162.7z"/>
					</g>
					<g transform="matrix(0.4441,0,0,0.39775,0,0)">
						<path class="st1" d="M223.5,166.3L223.5,166.3L223.5,166.3L223.5,166.3c0,0-0.1,0.1-0.1,0.1l0,0l0,0l0,0l0,0l0,0l0,0
							c0,0,0,0,0-0.1l0,0L223.5,166.3c-0.1,0-0.1,0-0.1,0l-0.3,0.2l-0.9,0.6c-0.2,0.1-0.4,0.4-0.3,0.7c0.1,0.3,0.4,0.4,0.6,0.3
							c0.3-0.1,0.5-0.2,0.8-0.3c0.2-0.1,0.3-0.2,0.4-0.4l0.3-0.5c0.1,0,0.1,0,0.1-0.1c0,0,0,0-0.1,0c0,0,0,0,0,0.1l-0.2,0.1
							l-0.1-0.1c-0.1-0.1-0.2-0.2-0.2-0.3C223.5,166.4,223.5,166.4,223.5,166.3L223.5,166.3z M223.9,166.9
							C223.9,166.9,223.9,167,223.9,166.9L223.9,166.9L223.9,166.9L223.9,166.9L223.9,166.9z"/>
					</g>
				</g>
			</g>
		</g>
		<g transform="matrix(0.917302,0,0,1,153.14,8.60363)">
			<g transform="matrix(0.390461,0,0,0.39775,242.113,0)">
				<path class="st0" d="M-763.4,224.2c0,0,1.1-5.8,3.9-6.2c1.1-0.2,1.9,4.4,1.7,5.8c0,0,1.2-6.6,3.7-6.4c2.5,0.2,1.6,6.7,1.6,6.7
					c0,0,1-7.1,3.9-6.9c2.9,0.2,1.3,5.3,1.3,5.3s2.5-6.5,4.4-6.6c1.9,0,1.6,3.3,1.6,3.3s5.3-1.1,5.1-1.4c0-0.1,4.6,0.6,0.9,2.4
					c-3.6,1.8-6,0.6-6,0.6c0,0,0.5,2.6-6.5,2.6c0,0-2.5,1-5.4,1.1c0,0-2.3,0.5-4.4,0.1C-757.6,224.5-762.7,226.4-763.4,224.2z"/>
			</g>
			<g transform="matrix(0.390461,0,0,0.39775,242.113,0)">
				<path class="st1" d="M-763.5,225c0.1,0.1,0.2,0.3,0.4,0.3c0.6,0.2,1.8,0.6,2.9,0.7c1,0.1,1.8-0.2,2.3-0.7c0.4-0.4,0.7-1.2,0.7-2
					c0-1.4-0.5-3.3-0.8-4.1c-0.1-0.3-0.3-0.7-0.5-1c-0.1-0.2-0.3-0.3-0.4-0.4c-0.3-0.2-0.7-0.1-1.1,0.1c-0.4,0.2-0.9,0.5-1.1,0.8
					c-0.6,0.6-1.1,1.2-1.5,1.9c-0.4,0.7-0.7,1.4-1,2.2c-0.1,0.3-0.4,0.9-0.3,1.3c0,0.3,0.1,0.4,0.3,0.5
					C-763.7,224.9-763.6,225-763.5,225z M-762.4,224.5c0.6,0.1,1.4,0.2,2.2,0.2c0.5,0,0.9,0,1.2-0.2c0.3-0.3,0.4-1,0.4-1.7
					c0-1.2-0.3-2.6-0.5-3.2c0-0.2-0.1-0.6-0.1-0.9c0-0.2-0.1-0.3-0.2-0.4c-0.1-0.1-0.3,0-0.5,0.1c-0.4,0.2-0.7,0.5-0.8,0.7
					c-0.5,0.6-0.9,1.3-1.2,2c-0.3,0.6-0.5,1.3-0.6,2.1c0,0.2-0.1,0.6-0.1,0.9C-762.5,224.1-762.4,224.3-762.4,224.5L-762.4,224.5z"
					/>
			</g>
			<g transform="matrix(0.390461,0,0,0.39775,242.113,0)">
				<path class="st1" d="M-757.2,224.6c0,0,0.1,0.1,0.1,0.1c0.6,0.4,1.5,0.6,2.4,0.7c0.9,0,1.8-0.3,2.5-0.7c0.1-0.1,0.3-0.3,0.4-0.6
					c0.1-0.5,0.1-1.8,0.2-2c0.1-0.9,0.3-2,0.1-2.9c-0.2-0.8-0.5-1.4-1.3-1.9c-1-0.6-1.9-0.3-2.7,0.5c-1.1,1.1-1.8,3.4-2.1,4.4
					c-0.1,0.3-0.4,1.3-0.4,1.9c0,0.3,0,0.6,0.2,0.7c0.1,0.2,0.4,0.2,0.6,0.1C-757.3,224.7-757.2,224.6-757.2,224.6z M-753.4,223.7
					C-753.4,223.7-753.4,223.7-753.4,223.7c0.5,0.2,0.1-1.6,0.1-1.8c0.1-0.8,0.4-1.8,0.3-2.6c-0.1-0.5-0.2-0.9-0.7-1.2
					c-0.6-0.4-1.1,0.1-1.6,0.7c-0.8,1.1-1.3,2.8-1.5,3.5l-0.5,1.8c0.1-0.2,0.4-0.2,0.6-0.1c0.6,0.3,1.4,0.2,2.2,0.1
					C-754,223.9-753.6,223.8-753.4,223.7c0.1,0,0.2-0.1,0.2-0.1C-753.2,223.6-753.3,223.6-753.4,223.7z"/>
			</g>
			<g transform="matrix(0.390461,0,0,0.39775,242.113,0)">
				<path class="st1" d="M-752.3,223.8c-0.2,0.1-0.4,0.3-0.3,0.5c0,0.3,0.3,0.5,0.6,0.5c0.5,0,1.1,0,1.8-0.1
					c0.6-0.1,1.2-0.3,1.8-0.5c0.9-0.4,1.6-0.9,2-1.7c0.1-0.2,0.1-0.4,0.2-0.6c0-0.3,0-0.7,0-0.9c0-0.6,0-2.6-0.5-3.6
					c-0.3-0.6-0.8-0.9-1.3-0.9c-1.1,0.1-2,0.6-2.6,1.4c-0.7,0.9-1.1,2.2-1.4,3.3c-0.1,0.2-0.4,1.2-0.4,1.7c0,0.4,0.1,0.6,0.3,0.8
					C-752.4,223.7-752.4,223.8-752.3,223.8z M-748.3,217.7c-0.7,0-1.2,0.4-1.6,0.8c-0.7,0.8-1.1,1.9-1.5,2.9c-0.1,0.2-1,1.7-0.5,1.7
					l0,0c0,0-0.1-0.1-0.1-0.1c0,0,0.1,0.1,0.1,0.1c0.1,0.1,0.1,0.3,0,0.5c0,0,0,0.1-0.1,0.1c0.4-0.1,0.8-0.2,1.3-0.3
					c0.5-0.1,0.9-0.3,1.4-0.5c0.5-0.3,1-0.6,1.2-1.1l0-0.9c0-0.4,0.1-1.2,0-2c0-0.4-0.1-0.8-0.2-1
					C-748.3,217.8-748.3,217.7-748.3,217.7z"/>
			</g>
			<g transform="matrix(0.390461,0,0,0.39775,242.113,0)">
				<path class="st1" d="M-746.1,221.2c0.4-0.9,0.8-1.9,1.2-2.8c0.3-0.6,0.7-1.1,1.2-1.6c0.2-0.2,0.4-0.3,0.6-0.4
					c0.2-0.1,0.3-0.1,0.4-0.1c0.2,0.1,0.2,0.4,0.3,0.8c0.1,0.7,0.2,1.4,0.2,1.9c0.2,0.9,0.3,1.6,0.1,2.1c-0.2,0.5-0.7,0.8-1.5,1
					l-1.5,0.3c-0.5,0-1,0.1-1.5,0.1c-0.3,0-0.6,0-0.9,0c-0.3-0.1-0.7,0.1-0.8,0.4s0.1,0.6,0.4,0.7c0.4,0.1,0.8,0.2,1.2,0.2
					c0.6,0,1.1,0,1.7,0l1.8-0.3c1.4-0.4,2.3-1,2.6-2c0.2-0.7,0.2-1.6-0.2-2.8c-0.2-0.5-0.3-1.4-0.5-2.1c-0.2-0.5-0.5-0.9-0.8-1.1
					c-0.4-0.2-0.8-0.2-1.3,0c-0.5,0.2-0.9,0.5-1.2,0.8c-0.5,0.6-0.9,1.2-1.2,1.8c-0.5,0.9-0.8,1.9-1.2,2.9c-0.1,0.2,0,0.4,0.3,0.5
					C-746.5,221.5-746.2,221.4-746.1,221.2z"/>
			</g>
			<g transform="matrix(0.4441,0,0,0.368976,0,65.7495)">
				<path class="st1" d="M-106.6,60.1c-0.1,0.1-0.1,0.1-0.2,0.1c0,1.3,0.8,0.6,0.8-0.1C-106.3,60.1-106.5,60.1-106.6,60.1z
					 M-100.9,57.5L-100.9,57.5L-100.9,57.5c-0.3,0.4-1.4,1-1.7,1.2c-0.3,0.2-0.6,0.3-1,0.3c-0.7,0.1-1.4,0.1-2,0.2
					c-0.2,0-1.1,0.1-1.4,0.1c-0.1,0-0.2,0.1-0.2,0.1c-0.2,0.1-0.2,0.3-0.2,0.4c0,0.1,0,0.2,0.2,0.3c0,0,0.1,0.1,0.2,0.1
					c0,0,0.1,0,0.1,0v0c0-0.1,0.1-0.1,0.2-0.1c0-0.1,0.1-0.1,0.1-0.2c0-0.2-0.1-0.4-0.2-0.5c0.5,0.1,0.7,0.4,0.7,0.7
					c0.3,0.1,0.5,0.1,0.6,0.1c0.7,0,1.6,0.2,2.5,0.2c0.5,0,0.9-0.1,1.2-0.3c0.3-0.2,1.2-0.6,1.8-1.1c0.4-0.3,0.6-0.7,0.8-1
					c0.3-0.8,0.2-1.6-1-2.1l-0.8-0.3l-1.2,0c-0.3,0-0.6,0.3-0.6,0.7c0,0.4,0.3,0.7,0.6,0.7l0.9,0.2L-100.9,57.5L-100.9,57.5z
					 M-100.8,57.6c0.1-0.1,0.1-0.2,0-0.3C-100.9,57.2-100.9,57.4-100.8,57.6L-100.8,57.6L-100.8,57.6L-100.8,57.6L-100.8,57.6
					C-100.8,57.7-100.8,57.7-100.8,57.6C-100.7,57.6-100.8,57.6-100.8,57.6z"/>
			</g>
		</g>
		<g transform="matrix(-0.917302,0,0,1,3649.28,7.36411)">
			<g transform="matrix(0.390461,0,0,0.39775,242.113,0)">
				<path class="st0" d="M9335.7,226.6c0,0,1.1-5.8,3.9-6.2c1.1-0.2,1.9,4.4,1.7,5.8c0,0,1.2-6.6,3.7-6.4c2.5,0.2,1.6,6.7,1.6,6.7
					c0,0,1-7.1,3.9-6.9c2.9,0.2,1.3,5.3,1.3,5.3s2.5-6.5,4.4-6.6c2,0,1.6,3.3,1.6,3.3s5.3-1.1,5.1-1.4c0-0.1,4.6,0.6,0.9,2.4
					c-3.6,1.8-6,0.6-6,0.6c0,0,0.5,2.6-6.5,2.6c0,0-2.5,1-5.4,1.1c0,0-2.3,0.5-4.4,0.1C9341.5,226.9,9336.4,228.7,9335.7,226.6z"/>
			</g>
			<g transform="matrix(0.390461,0,0,0.39775,242.113,0)">
				<path class="st1" d="M9335.6,227.4c-0.1-0.1-0.2-0.2-0.3-0.3c-0.1-0.1-0.2-0.3-0.3-0.5c-0.1-0.4,0.3-1.1,0.3-1.3
					c0.3-0.9,0.6-1.6,1-2.2c0.4-0.7,0.9-1.3,1.5-1.9c0.2-0.2,0.7-0.6,1.1-0.8c0.4-0.2,0.8-0.3,1.1-0.1c0.2,0.1,0.3,0.2,0.4,0.4
					c0.2,0.3,0.4,0.7,0.5,1c0.3,0.8,0.8,2.6,0.8,4.1c0,0.9-0.2,1.6-0.7,2c-0.5,0.5-1.4,0.7-2.3,0.7c-1.1-0.1-2.2-0.5-2.9-0.7
					C9335.8,227.7,9335.6,227.6,9335.6,227.4z M9336.3,226.4c0-0.3,0.3-0.7,0.3-0.9c0.1-0.8,0.3-1.5,0.6-2.1c0.3-0.7,0.7-1.3,1.2-2
					c0.2-0.2,0.5-0.5,0.8-0.7c0.2-0.1,0.4-0.2,0.5-0.1c0.1,0.1,0.1,0.2,0.2,0.4c0.1,0.3,0.1,0.6,0.1,0.9c0.2,0.6,0.5,2,0.5,3.2
					c0,0.7,0,1.4-0.4,1.7c-0.3,0.2-0.7,0.2-1.2,0.2c-0.8,0-1.6-0.1-2.2-0.2l0,0C9336.7,226.6,9336.6,226.4,9336.3,226.4
					L9336.3,226.4z"/>
			</g>
			<g transform="matrix(0.390461,0,0,0.39775,242.113,0)">
				<path class="st1" d="M9341.9,226.9c0,0.1-0.1,0.1-0.1,0.2c-0.2,0.1-0.5,0.1-0.6-0.1c-0.1-0.1-0.2-0.4-0.2-0.7
					c0-0.6,0.3-1.6,0.4-1.9c0.3-1,1-3.3,2.1-4.4c0.7-0.8,1.6-1.1,2.7-0.5c0.8,0.5,1.2,1.1,1.3,1.9c0.2,0.9,0,2-0.1,2.9
					c0,0.2,0,1.5-0.2,2c-0.1,0.3-0.3,0.5-0.4,0.6c-0.6,0.4-1.5,0.7-2.5,0.7c-0.9,0-1.8-0.3-2.4-0.7
					C9342,227,9341.9,227,9341.9,226.9z M9341.9,226.4l0.5-1.8c0.2-0.8,0.7-2.5,1.5-3.5c0.4-0.6,0.9-1.1,1.6-0.7
					c0.5,0.3,0.6,0.7,0.7,1.2c0.1,0.8-0.2,1.8-0.3,2.6c0,0.2,0.4,2-0.1,1.9c-0.1,0,0-0.1,0-0.1c0.1,0,0.1-0.1,0.2-0.1
					c0,0-0.1,0.1-0.2,0.1c-0.3,0.2-0.7,0.3-1,0.3c-0.8,0.1-1.6,0.2-2.2-0.1C9342.3,226.2,9342,226.2,9341.9,226.4z"/>
			</g>
			<g transform="matrix(0.390461,0,0,0.39775,242.113,0)">
				<path class="st1" d="M9346.8,226.1c0,0-0.1,0-0.1-0.1c-0.2-0.1-0.3-0.4-0.3-0.8c0-0.6,0.4-1.5,0.4-1.7c0.3-1.2,0.8-2.4,1.4-3.3
					c0.6-0.8,1.5-1.3,2.6-1.4c0.6,0,1,0.3,1.3,0.9c0.5,1,0.5,2.9,0.5,3.6c0,0.3,0.1,0.6,0,0.9c0,0.2-0.1,0.4-0.2,0.6
					c-0.4,0.7-1.1,1.3-2,1.7c-0.6,0.3-1.2,0.5-1.8,0.5c-0.7,0.1-1.3,0.1-1.8,0.1c-0.3,0-0.6-0.2-0.6-0.5
					C9346.4,226.4,9346.5,226.2,9346.8,226.1z M9350.8,220c0,0,0.1,0.1,0.1,0.2c0.1,0.3,0.2,0.7,0.2,1c0.1,0.8,0,1.6,0,2l0,0.9
					c-0.2,0.5-0.7,0.8-1.2,1.1c-0.4,0.2-0.9,0.4-1.4,0.5c-0.5,0.1-0.9,0.3-1.3,0.3c0,0,0.1,0,0.1-0.1c0.1-0.1,0.1-0.3,0-0.5
					c0.1,0-0.1-0.1-0.1-0.1c0,0,0.1,0.1,0.1,0.1l0,0c-0.5,0,0.5-1.5,0.5-1.7c0.4-1,0.8-2.2,1.5-2.9
					C9349.6,220.4,9350.1,220.1,9350.8,220z"/>
			</g>
			<g transform="matrix(0.390461,0,0,0.39775,242.113,0)">
				<path class="st1" d="M9352.2,223.3c0.4-1,0.7-2,1.2-2.9c0.3-0.6,0.7-1.3,1.2-1.8c0.3-0.3,0.7-0.6,1.2-0.8c0.4-0.2,0.9-0.2,1.3,0
					c0.4,0.2,0.6,0.6,0.8,1.1c0.3,0.7,0.4,1.6,0.5,2.1c0.4,1.2,0.4,2.1,0.2,2.8c-0.3,1-1.1,1.6-2.6,2l-1.8,0.3c-0.6,0-1.1,0.1-1.7,0
					c-0.4,0-0.8-0.1-1.2-0.2c-0.3-0.1-0.5-0.4-0.4-0.7s0.4-0.5,0.8-0.4c0.3,0.1,0.6,0,0.9,0c0.5,0,1-0.1,1.5-0.1l1.5-0.3
					c0.8-0.2,1.3-0.5,1.5-1c0.2-0.5,0.1-1.2-0.1-2.1c-0.1-0.4-0.1-1.2-0.2-1.9c-0.1-0.3-0.1-0.6-0.3-0.8c-0.1-0.1-0.3,0-0.4,0.1
					c-0.3,0.1-0.5,0.3-0.6,0.4c-0.5,0.5-0.8,1-1.2,1.6c-0.5,0.9-0.9,1.8-1.2,2.8c-0.1,0.2-0.3,0.3-0.5,0.2
					C9352.2,223.7,9352.1,223.5,9352.2,223.3z"/>
			</g>
			<g transform="matrix(0.4441,0,0,0.368976,0,65.7495)">
				<path class="st1" d="M8772.5,62.8c-0.1,0-0.1,0-0.2,0c-2-0.2-1.8-0.5,0-0.9c0.3,0,1.2-0.1,1.4-0.1c0.6-0.1,1.3-0.1,2-0.2
					c0.4-0.1,0.7-0.2,1-0.3c0.2-0.2,1.3-0.7,1.7-1.1l0,0l0,0l0,0l-0.6-0.3l-0.9-0.2c-0.3,0-0.6-0.3-0.6-0.7c0-0.4,0.3-0.7,0.6-0.7
					l1.2,0l0.8,0.3c1.3,0.5,1.3,1.3,1,2.1c-0.1,0.3-0.4,0.7-0.8,1c-0.6,0.5-1.4,0.9-1.8,1.1c-0.4,0.2-0.8,0.3-1.2,0.3
					c-0.8,0.1-1.8-0.1-2.5-0.2L8772.5,62.8z M8778.5,60.1c0-0.1,0-0.3,0-0.3C8778.6,59.9,8778.6,60,8778.5,60.1
					c0.1,0.1,0.2,0.1,0.1,0.1C8778.5,60.2,8778.5,60.2,8778.5,60.1L8778.5,60.1L8778.5,60.1L8778.5,60.1L8778.5,60.1z"/>
			</g>
		</g>
	</g>
	<g transform="matrix(1,0,0,1,1190.26,-102.314)" class="st4">
		<g transform="matrix(0.4441,0,0,0.39775,122.255,342.337)" class="st5">
			<g id="Gray-Short.svg4" transform="matrix(0.681216,0,0,0.681216,1361.69,1133.76)">
				<g transform="matrix(1,0,0,1,-236.5,-283.5)">
					<g id="head-mono-Gray-Short4">
						<path class="st0" d="M-6003.8-2178.4c0,0-4.7,20.6,9.3,14.6c0,0,7.8,20.2,14.4,18.2c0,0,5.2,4.7,9.5,5.1
							c0,0,20.7,21.2,38-11.6c6.9-13,2.6-41.6-0.4-52.2c-1.3-4.6-1.5-9.4-1.7-10.7c0,0,8.9-6.2,2.4-9.2c0,0,4.7-7.2,3.8-7.9
							s-31-15.3-45.9-12.1c-15,3.3-22.1,5.3-27,12.6c-4.9,7.3-5,3.3-5.9,10.4C-6008.4-2214.1-6010.4-2182.6-6003.8-2178.4z"/>
						<path id="_xD83D__xDD8D_-Ink11" class="st1" d="M-5953.8-2133c-6.3,0.7-13.7-0.9-17.9-6.6c-0.1-0.2-0.2-0.4-0.2-0.6
							c0-0.2,0.1-0.4,0.2-0.6c0.1-0.2,0.3-0.3,0.5-0.3c0.2,0,0.3,0,0.5,0.1l0.4,0.2c2.9,1.8,5.8,3.3,9.1,3.9c3.3,0.7,6.7,0.6,10-0.3
							c6-1.5,10.9-5.4,14.5-10.6c4-5.8,6.4-13.1,7-20.4c0.7-8.8-1-17.6-2.8-26.2c-1.9-9-3.9-18-6.3-26.8c-0.1-0.3-0.1-0.5-0.1-0.7
							c-0.7-0.3-1.4-0.2-2.2,0.1c-1.4,0.5-2.7,1.7-3.8,2.6c-0.4,0.3-0.8,0.7-1.1,0.9c-1.4,1.1-2.9,1.8-4.6,2
							c-1.8,0.1-3.5-0.5-5.1-1.3c-0.8-0.4-1.6-0.8-2.4-1.2c-2.3-1.2-4.6-2.3-7-3c-3.3-1-6.7-1.5-10.2-1.5c-6.1,0.1-12.3,1.8-16,7.6
							c-1.5,2.3-2.5,5-1.7,7.9c0.4,1.6,1.2,3,2.1,4.3l0.3,0.4c0.5,0.7,0.9,1.4,1,2.2c0.1,0.6,0,1.3-0.4,2.1
							c-0.3,0.5-0.6,0.9-0.9,1.3c-0.2,0.3-0.5,0.6-0.7,0.9c-0.4,0.7-0.8,1.4-1.1,2.1c-0.6,1.4-0.8,3-0.9,4.5
							c-0.1,1.9,0.2,3.7,0.4,5.6c0.2,1.3,0.3,2.6,0.4,3.9c0,0.2-0.1,0.4-0.1,0.5c-0.1,0.2-0.3,0.3-0.4,0.3c-0.1,0-0.1,0-0.2,0
							c0,0.1,0.1,0.3,0.1,0.4c-0.1-0.2-0.2-0.3-0.4-0.5c0,0,0,0,0,0c-0.1-0.1-0.2-0.2-0.3-0.4c-0.2-0.2-0.4-0.4-0.6-0.5
							c-1-0.9-2.3-1.4-3.5-1.4c-1.2,0-2.4,0.4-3.3,1.4c-1.8,1.9-2.3,5-2.4,7.6c0,2.7,0.5,5.9,2.6,7.6c0.8,0.7,1.9,1.1,2.9,1.1
							c0.9,0,1.7-0.3,2.5-0.7c0.2-0.1,0.5-0.2,0.7-0.3c0.3-0.1,0.5-0.1,0.8,0c0.3,0.1,0.5,0.3,0.6,0.5c0.2,0.2,0.3,0.5,0.3,0.8
							c0,0.3,0,0.6-0.1,0.9c0,0.1-0.1,0.1-0.1,0.2l0.5,0.8c1.8,3.2,3.6,6.4,5.9,9.2c1.4,1.6,2.8,3.1,4.4,4.4l0.2,0.2
							c0.1,0.1,0.3,0.2,0.4,0.4c0.5,0.4,1,1,1.5,1c0.2,0,0.3,0,0.4,0c0.3,0,0.5-0.1,0.8,0.1c0.2,0.1,0.4,0.3,0.6,0.6
							c0.1,0.2,0.2,0.5,0.2,0.8c0,0.3-0.1,0.6-0.2,0.8c-0.3,0.5-0.6,0.8-0.9,1c-0.4,0.2-0.8,0.2-1.3,0.1c-1.1-0.2-2.3-1.3-3.1-1.9
							l-0.2-0.1c-1.7-1.5-3.4-3.1-4.8-4.9c-2.5-3.1-4.7-6.8-5.8-10.8c-0.8,0.6-1.8,0.9-2.8,0.9c-1.5,0.1-3.1-0.4-4.3-1
							c-2.6-1.4-4.2-4-4.9-6.9c-0.9-3.5-0.6-7.4,0.5-10.5c0-0.1,0.1-0.2,0.1-0.3c-3.3-9.4-4.4-19.9-4.1-29.9
							c0.1-4.7,0.4-9.6,1.4-14.2c0.4-2.1,1.2-4,2.5-5.6c0.7-0.9,1.6-1.6,2.4-2.4c0.8-0.6,1.5-1.2,2.1-2l0.3-0.4
							c0.1-0.1,0.1-0.2,0.2-0.2c1.1-1.4,2.2-2.7,3.5-3.8c1.5-1.3,3.2-2.3,5-3.1c3.8-1.8,7.9-2.9,12-3.7c8.8-1.8,17.8-1.9,26.5,0.6
							c4,1.2,8,2.8,11.9,4.4c0.4,0.1,0.7,0.3,1.1,0.4c3,1.2,6.1,2.5,9.1,3.7c1.4,0.6,2.8,1.2,4.2,1.7c0.3,0.1,0.6,0.4,0.8,0.7
							c0.2,0.3,0.2,0.7,0.1,1.1c-0.9,2.5-2,4.8-3.3,6.9c0.5,0.4,0.9,0.8,1.2,1.4c0.4,0.7,0.6,1.5,0.6,2.4c0.1,2.9-2.3,4.9-4.3,6.3
							c-0.2,0.1-0.4,0.2-0.5,0.2c1.9,8.1,3.7,16.3,5.3,24.5l0.1,0.6c1.6,8.6,2.6,17.4,1.1,26.1c-1.3,7.5-4.3,14.8-9,20.4
							C-5940.9-2137.2-5947.1-2133.7-5953.8-2133z M-5995.2-2182.5c-0.8-2.9-1.3-6.1-0.9-9c0.2-1.9,0.7-3.6,1.5-5.3
							c0.5-0.9,1-1.8,1.7-2.6l0.2-0.3c0.1-0.1,0.2-0.3,0.2-0.4c0-0.1,0-0.2-0.1-0.3c-0.1-0.3-0.3-0.5-0.5-0.8
							c-0.1-0.2-0.2-0.3-0.4-0.5c-1.8-2.7-3.1-6-2.7-9.4c0.4-3.4,2.4-6.5,4.5-8.9c4.6-5.2,11.8-6.4,18.1-6.1
							c3.7,0.2,7.3,0.9,10.8,2.1c1.7,0.6,3.4,1.4,5,2.2l0.4,0.2c0.2,0.1,0.4,0.2,0.6,0.3c1.3,0.7,2.6,1.4,4,1.8
							c2.7,0.7,4.5-0.8,6.5-2.4c0.7-0.5,1.3-1.1,2-1.6l0.1-0.1c1.3-0.8,2.8-1.4,4.3-1.4c1.3,0,2.5,0.5,3.5,1.6
							c0.2,0.2,0.3,0.5,0.4,0.7c0.1,0.2,0.2,0.4,0.3,0.6c0.4,1.5,0.7,3,1.1,4.6l0.3-0.2c0.9-0.6,1.8-1.4,2.2-2.4
							c0.2-0.4,0.1-1.1-0.1-1.6c-0.1-0.2-0.2-0.3-0.3-0.4c-0.1-0.1-0.2-0.1-0.3-0.1c-0.3,0-0.6,0-0.9-0.1c-0.3-0.1-0.5-0.4-0.7-0.6
							c-0.2-0.3-0.2-0.6-0.2-1c0-0.3,0.1-0.6,0.4-0.9c1.5-1.9,2.7-4,3.7-6.3l-6.3-2.6c-2.2-0.9-4.5-1.8-6.7-2.8l-1.2-0.5
							c-4.1-1.7-8.2-3.3-12.4-4.4c-8.4-2.1-17.2-1.6-25.6,0.4l-0.5,0.1c-3.5,0.9-7.1,1.9-10.3,3.7c-1.6,0.9-3.1,2-4.4,3.3
							c-0.6,0.6-1.1,1.3-1.6,1.9c-0.7,0.9-1.5,1.8-2.3,2.6l-0.8,0.7c-1.2,1.1-2.3,2.1-2.9,3.8c-0.7,1.7-1,3.7-1.3,5.5
							c-0.7,4.7-1,9.5-0.9,14.3c0,8,1.1,15.9,2.5,23.7c1.1-1.8,2.7-3.1,4.7-3.4c1.3-0.2,2.6,0.1,3.7,0.7
							C-5996.2-2183.6-5995.7-2183.1-5995.2-2182.5z M-5997.2-2173c-1.5-0.6-3-0.8-4.5-0.5c-0.2,0-0.3,0-0.4-0.1
							c-0.1-0.1-0.2-0.2-0.3-0.4c-0.1-0.2-0.1-0.4,0-0.5c0-0.1,0.1-0.3,0.3-0.4c1.7-0.9,3.5-1.3,5.4-1l0.2,0
							c0.9,0.2,2.3,0.5,3.3,1.1c0.8,0.5,1.3,1.2,1.5,2.1c0.1,0.5,0,1-0.3,1.3c-0.2,0.3-0.6,0.6-1.1,0.6c-0.8,0-1.3-0.4-1.9-0.9
							c-0.1-0.1-0.1-0.1-0.2-0.2C-5996-2172.3-5996.6-2172.7-5997.2-2173z"/>
					</g>
				</g>
			</g>
		</g>
		<g id="Smile-Teeth-Gap.svg3" transform="matrix(0.291546,0,0,0.261117,739.948,804.811)" class="st5">
			<g transform="matrix(1,0,0,1,-144.5,-146.5)">
				<g id="face-Smile-Teeth-Gap3">
					<path id="_xD83D__xDD8D_-Ink12" class="st1" d="M-6322.5-2453.3c1.6,1.1,4.2,3.7,2.4,6.5c-2.1,2.4-5.1-0.4-6.6-1.6
						c-1.4-1-2.9,1.5-1.6,2.7c10.7,8.8,15-7.3,6.7-8.9C-6322.5-2454.8-6322.9-2453.7-6322.5-2453.3z M-6337.3-2474.6l0.4-0.1l0.2,0
						c1.2-0.2,2.7-0.4,3.5,0.7c0.5,0.6,0.6,1.7,0,2.3c-1.1,1-2.4,0.6-3.7,0.7c-1.1,0.1-2.2,0.3-3.2,0.6c-2.3,0.7-4.3,2.1-6.3,3.6
						c-0.3,0.2-0.5-0.2-0.4-0.5c1.2-2.5,3.4-4.6,5.6-5.9C-6340-2473.8-6338.6-2474.4-6337.3-2474.6z M-6326.5-2439.7
						c3.6,0.3,11.3-1.6,14.6,1.2c12.1,16.9-36,21.3-30.8,2.6C-6339.4-2442-6331.8-2439.6-6326.5-2439.7z M-6327.1-2429.5
						c-0.9-0.1-2,0.7-2.2,1.3c-0.3,0.6-0.2,1.9-0.2,2.1c1.5,0.2,3.1,0.2,4.7,0.1C-6325.2-2427.5-6325.2-2429.3-6327.1-2429.5z
						 M-6320-2427c-0.2-1.8-1.4-2.3-2.4-2c-1,0.3-1.6,1.5-1.5,2.7c0,0.1,0,0.1-0.1,0.2C-6322.6-2426.3-6321.2-2426.6-6320-2427z
						 M-6330.9-2429.2c-0.6-0.9-1.9-1.4-2.7-1.2c-1.4,0.3-1.6,2.3-1.6,2.7c1.3,0.5,2.7,0.9,4,1.2c0.3,0.1,0.5,0.1,0.8,0.2l0-0.2
						C-6330.4-2427.1-6330.4-2428.3-6330.9-2429.2z M-6315.2-2429.3c-1.4-2.5-4.5-0.7-4.3,2c0.3-0.1,0.5-0.2,0.8-0.3
						C-6317.5-2428.1-6316.2-2428.6-6315.2-2429.3z M-6326.4-2437.8c-1.9-0.2-3.5-0.1-4.8,0.1l0,0.5c-0.1,1.6-0.3,3.2,0.4,3.9
						c0.6,0.5,2.7,0.5,4.1,0.1C-6326.4-2433.4-6325.9-2436.7-6326.4-2437.8z M-6323.4-2438c-0.3,1.6-0.5,3.5,0.2,4.1
						c0.7,0.6,2.8,0.5,3.3,0.1c0.5-0.4,0.5-2,0.3-3.8C-6320.7-2437.9-6322.6-2438-6323.4-2438z M-6332-2437.7l-0.6,0l-0.4,0
						c-0.9,0-1.9,0.1-2.8,0.3c-1.8,4.4,4.8,5.2,3.8-0.1L-6332-2437.7z M-6318.8-2437.6l0,0.2c-0.1,1.2,0,2.9,0.6,3.3
						c0.9,0.6,2.6,0.5,3.5-2.5C-6315-2437.4-6318.2-2437.5-6318.8-2437.6z M-6336.5-2463.9c0.4,0,0.8,0.1,1.1,0.4
						c0.3,0.3,0.6,0.7,0.9,1.1c0.5,0.9,0.8,2.2,0.8,3.6s-0.3,2.7-0.8,3.6c-0.2,0.5-0.5,0.9-0.9,1.1c-0.3,0.3-0.7,0.4-1.1,0.4
						c-0.4,0-0.8-0.1-1.1-0.4c-0.3-0.3-0.6-0.7-0.9-1.1c-0.5-0.9-0.8-2.2-0.8-3.6s0.3-2.7,0.8-3.6c0.2-0.5,0.5-0.9,0.9-1.1
						C-6337.3-2463.7-6336.9-2463.9-6336.5-2463.9z M-6312.1-2463.9c0.4,0,0.8,0.1,1.1,0.4c0.3,0.3,0.6,0.7,0.9,1.1
						c0.5,0.9,0.8,2.2,0.8,3.6s-0.3,2.7-0.8,3.6c-0.2,0.5-0.5,0.9-0.9,1.1c-0.3,0.3-0.7,0.4-1.1,0.4c-0.4,0-0.8-0.1-1.1-0.4
						c-0.3-0.3-0.6-0.7-0.9-1.1c-0.5-0.9-0.8-2.2-0.8-3.6s0.3-2.7,0.8-3.6c0.2-0.5,0.5-0.9,0.9-1.1
						C-6312.8-2463.7-6312.5-2463.9-6312.1-2463.9z M-6315.4-2475.8l0.3,0.1l0.2,0c3.4,0.8,7.7,2.4,9.2,6.1c0.1,0.5,0,0.6-0.1,0.7
						l0,0c0,0.1-0.1,0.2-0.3,0.2c-0.1,0-0.1,0-0.2,0c-0.7-0.2-1.3-0.5-1.9-0.8l-0.6-0.3c-0.7-0.4-1.4-0.8-2.2-1
						c-1.6-0.6-3.3-1-5-1.2c-0.4,0-0.7-0.2-1-0.4c-0.3-0.2-0.5-0.5-0.6-1c-0.1-0.5-0.1-0.9,0.2-1.4c0.2-0.4,0.5-0.6,0.8-0.8
						C-6316.1-2475.8-6315.8-2475.8-6315.4-2475.8z"/>
				</g>
			</g>
		</g>
	</g>
</g>
<g class="st4">
	<g transform="matrix(0.4441,0,0,0.39775,-345.369,-236.477)" class="st5">
		<g id="Gray-Short.svg" transform="matrix(0.681216,0,0,0.681216,1361.69,1133.76)">
			<g transform="matrix(1,0,0,1,-236.5,-283.5)">
				<g id="head-mono-Gray-Short">
					<path id="_xD83D__xDD8D_-Ink" class="st6" d="M-473.8-374.7c-6.3,0.7-13.7-0.9-17.9-6.6c-0.1-0.2-0.2-0.4-0.2-0.5
						c0-0.2,0.1-0.4,0.2-0.6c0.1-0.2,0.3-0.3,0.5-0.3c0.2,0,0.3,0,0.5,0.1l0.4,0.2c2.9,1.8,5.8,3.3,9.1,3.9c3.3,0.7,6.7,0.6,10-0.2
						c6-1.5,10.9-5.4,14.5-10.6c4-5.8,6.4-13,7-20.4c0.7-8.9-1-17.6-2.8-26.2c-1.9-9-3.9-18-6.3-26.8c-0.1-0.3-0.1-0.5-0.1-0.8
						c-0.7-0.3-1.5-0.2-2.2,0.1c-1.4,0.5-2.7,1.7-3.8,2.6c-0.4,0.3-0.8,0.7-1.1,0.9c-1.4,1.1-2.9,1.8-4.6,2
						c-1.8,0.1-3.5-0.5-5.1-1.3c-0.8-0.4-1.6-0.8-2.4-1.2c-2.3-1.1-4.5-2.3-7-3c-3.3-1-6.7-1.5-10.2-1.5c-6.1,0.1-12.3,1.8-16,7.6
						c-1.5,2.3-2.5,5-1.7,7.9c0.4,1.6,1.2,3,2.1,4.3l0.3,0.5c0.5,0.7,0.9,1.4,1,2.2c0.1,0.6,0,1.3-0.4,2.1c-0.3,0.5-0.6,0.9-0.9,1.3
						c-0.2,0.3-0.5,0.6-0.7,0.9c-0.4,0.6-0.8,1.4-1.1,2.1c-0.6,1.4-0.8,3-0.8,4.5c-0.1,1.9,0.2,3.7,0.4,5.6c0.2,1.3,0.3,2.6,0.4,3.9
						c0,0.2,0,0.4-0.1,0.5c-0.1,0.2-0.3,0.2-0.5,0.3c0,0-0.1,0-0.2,0c0,0.1,0,0.2,0.1,0.4c-0.1-0.2-0.2-0.3-0.4-0.5c0,0,0,0,0,0
						c-0.1-0.1-0.2-0.2-0.3-0.4c-0.2-0.2-0.4-0.4-0.6-0.5c-1-0.9-2.3-1.4-3.5-1.4c-1.2,0-2.4,0.4-3.3,1.4c-1.8,1.9-2.3,5-2.4,7.6
						c0,2.7,0.5,5.9,2.6,7.6c0.8,0.7,1.9,1.1,2.9,1.1c0.9,0,1.7-0.3,2.5-0.6c0.2-0.1,0.5-0.2,0.8-0.3c0.3-0.1,0.5-0.1,0.8,0
						c0.2,0.1,0.5,0.3,0.6,0.5c0.2,0.2,0.3,0.5,0.3,0.8c0,0.3,0,0.6-0.1,0.9c0,0.1-0.1,0.1-0.1,0.2l0.5,0.9c1.8,3.2,3.6,6.4,5.9,9.2
						c1.4,1.6,2.8,3.1,4.4,4.4l0.2,0.2c0.1,0.1,0.3,0.2,0.5,0.4c0.5,0.4,1,1,1.5,1c0.1,0,0.3,0,0.4,0c0.3,0,0.5-0.1,0.8,0
						c0.2,0.1,0.4,0.2,0.6,0.6c0.1,0.2,0.2,0.5,0.2,0.8c0,0.3-0.1,0.6-0.2,0.8c-0.3,0.5-0.6,0.8-0.9,1c-0.4,0.2-0.8,0.2-1.3,0.1
						c-1.1-0.2-2.3-1.3-3.1-1.9l-0.1-0.1c-1.7-1.5-3.4-3.1-4.8-4.9c-2.5-3.1-4.7-6.8-5.8-10.8c-0.8,0.6-1.8,0.9-2.8,0.9
						c-1.5,0.1-3.1-0.4-4.3-1c-2.6-1.4-4.2-4-4.9-6.9c-0.8-3.5-0.6-7.4,0.5-10.5c0-0.1,0.1-0.2,0.1-0.3c-3.3-9.4-4.3-19.9-4.1-29.9
						c0.1-4.7,0.4-9.6,1.4-14.2c0.5-2.1,1.2-4,2.5-5.6c0.7-0.9,1.6-1.6,2.4-2.4c0.8-0.6,1.5-1.2,2.1-2l0.3-0.4
						c0.1-0.1,0.1-0.2,0.2-0.2c1.1-1.4,2.2-2.7,3.5-3.8c1.5-1.3,3.2-2.3,5-3.1c3.8-1.8,7.9-2.9,12-3.7c8.8-1.8,17.8-1.9,26.5,0.6
						c4,1.2,8,2.8,11.9,4.4c0.4,0.1,0.7,0.3,1.1,0.5c3,1.2,6.1,2.5,9.1,3.7c1.4,0.6,2.8,1.2,4.2,1.7c0.3,0.1,0.6,0.4,0.8,0.7
						c0.2,0.3,0.2,0.7,0.1,1.1c-0.9,2.5-2,4.8-3.3,6.9c0.5,0.4,0.9,0.8,1.1,1.4c0.4,0.7,0.6,1.5,0.6,2.4c0,2.9-2.3,4.9-4.3,6.3
						c-0.2,0.1-0.4,0.2-0.5,0.2c1.9,8.1,3.7,16.3,5.3,24.5l0.1,0.6c1.6,8.6,2.6,17.4,1.1,26.1c-1.3,7.5-4.3,14.8-9,20.4
						C-460.9-378.9-467.1-375.4-473.8-374.7z M-515.2-424.2c-0.8-2.9-1.3-6.1-0.9-9c0.2-1.9,0.7-3.6,1.5-5.3c0.5-0.9,1-1.8,1.7-2.6
						l0.2-0.3c0.1-0.1,0.2-0.3,0.2-0.4c0-0.1,0-0.2,0-0.3c-0.1-0.3-0.3-0.5-0.5-0.8c-0.1-0.2-0.2-0.3-0.3-0.5
						c-1.8-2.7-3.2-6-2.7-9.4c0.4-3.4,2.4-6.5,4.5-8.9c4.6-5.2,11.8-6.4,18.1-6.1c3.7,0.2,7.3,0.9,10.8,2.1c1.7,0.6,3.4,1.4,5,2.2
						l0.4,0.2c0.2,0.1,0.4,0.2,0.6,0.3c1.3,0.7,2.6,1.4,4,1.8c2.7,0.7,4.5-0.8,6.5-2.4c0.7-0.5,1.3-1.1,2-1.6l0.1-0.1
						c1.3-0.8,2.8-1.4,4.3-1.4c1.3,0,2.5,0.5,3.5,1.6c0.2,0.2,0.3,0.5,0.4,0.7c0.1,0.2,0.2,0.4,0.3,0.6c0.4,1.5,0.7,3,1.1,4.5
						l0.3-0.2c0.9-0.6,1.8-1.4,2.2-2.4c0.2-0.4,0.1-1.1-0.1-1.6c-0.1-0.2-0.2-0.3-0.3-0.4c-0.1-0.1-0.2-0.1-0.4-0.1
						c-0.3,0-0.6,0-0.9-0.1c-0.3-0.1-0.5-0.4-0.7-0.6c-0.2-0.3-0.2-0.6-0.2-1c0-0.3,0.1-0.6,0.4-0.9c1.5-1.9,2.7-4,3.7-6.3l-6.3-2.6
						c-2.2-0.9-4.5-1.9-6.7-2.8l-1.2-0.5c-4.1-1.7-8.2-3.3-12.4-4.4c-8.4-2.1-17.2-1.6-25.6,0.4l-0.5,0.1c-3.5,0.9-7.1,1.9-10.3,3.7
						c-1.6,0.9-3.1,2-4.4,3.3c-0.6,0.6-1.1,1.3-1.6,1.9c-0.7,0.9-1.5,1.8-2.3,2.6l-0.8,0.7c-1.2,1.1-2.3,2.1-2.9,3.8
						c-0.7,1.7-1,3.7-1.3,5.5c-0.7,4.7-1,9.5-0.9,14.3c0,8,1.1,15.9,2.5,23.7c1.1-1.8,2.7-3.1,4.7-3.4c1.3-0.2,2.6,0.1,3.7,0.7
						C-516.2-425.3-515.7-424.8-515.2-424.2z M-517.2-414.7c-1.5-0.6-3-0.8-4.5-0.5c-0.2,0-0.3,0-0.4-0.1c-0.1-0.1-0.2-0.2-0.3-0.4
						c-0.1-0.2-0.1-0.4,0-0.5c0-0.1,0.1-0.3,0.3-0.4c1.7-0.9,3.5-1.3,5.4-1l0.2,0c0.9,0.2,2.3,0.5,3.3,1.1c0.8,0.5,1.3,1.2,1.5,2.1
						c0.1,0.5,0,1-0.3,1.3c-0.2,0.4-0.6,0.6-1.1,0.6c-0.8,0-1.3-0.4-1.9-0.9c-0.1-0.1-0.2-0.1-0.2-0.2
						C-516-414-516.6-414.4-517.2-414.7z"/>
				</g>
			</g>
		</g>
		<g id="Eyes-Closed.svg" transform="matrix(0.734096,0,0,0.734096,1398.38,1156.31)">
			<g transform="matrix(1,0,0,1,-144.5,-146.5)">
				<g id="face-Eyes-Closed">
					<path id="_xD83D__xDD8D_-Ink1" class="st6" d="M-558.4-520.4l0.2,0c1.2-0.3,2.4-0.8,3.5,0.1c1.1,0.8,1.2,2.3,0.4,3.3
						c-0.9,1.1-2,1-3.2,1h-0.1c-1,0-2,0-3-0.1c-0.9-0.1-1.9-0.2-2.8-0.4l-0.5-0.1c-0.5-0.1-1.1-0.3-1.4-0.9c-0.5-1,3.2-1.9,3.6-2
						C-560.6-519.9-559.5-520.1-558.4-520.4z M-556.3-533c-0.6,0.7-1.4,1.2-2.2,1.4c-2.2,0.7-5,0.3-6.8-0.4
						c-0.4-0.2-0.7-0.5-0.9-0.9c-0.2-0.4-0.2-0.8-0.1-1.2c0-0.1,0.1-0.2,0.1-0.4c0.1-0.3,0.4-0.6,0.7-0.7c0.3-0.2,0.7-0.2,1-0.1
						c0,0,0.1,0,0.1,0c1.1,0.4,3,1.1,4.5,0.9c0.9-0.1,1.7-0.4,2.2-1.4c0.2-0.5,0.2-1,0-1.4c-0.3-0.7-0.9-1.3-1.4-1.7
						c-0.7-0.6-1.5-0.8-2.2-1c-0.3-0.1-0.6-0.2-0.9-0.3c-0.1,0-0.2-0.1-0.2-0.2s-0.1-0.2-0.1-0.3s0-0.2,0-0.3c0-0.1,0.1-0.2,0.2-0.2
						c1.5-0.8,3.5-0.3,5,0.9c0.7,0.6,1.4,1.4,1.7,2.2c0.3,0.8,0.5,1.7,0.4,2.6C-555.4-534.4-555.8-533.6-556.3-533z M-581.3-550
						c0.4-0.2,0.8,0.8,0.9,1l0.2,0.6c0.3,0.9,0.6,1.8,1.3,2.5c0.5,0.6,1.4,1,2,0.4c0.6-0.6,0.3-1.3,0.4-2.1c0.2-1.4,1.8-2.8,2.8-1.3
						c2.3,3.2-1.2,7.8-4.5,7c-1.7-0.4-3-1.9-3.5-3.6l0-0.1C-582.2-546.8-582.5-549.4-581.3-550z M-551.9-547.7L-551.9-547.7
						c-1.1-2.8,2.8-4,3.1-1.5l0,0.2c0.3,2.8-0.3,6.5-3.4,6.7c-3.4,0.3-4.8-3.9-4.5-7c0-0.5,0.7-0.6,0.8-0.1l0,0.1
						c0.5,1.6,1.1,4.5,3,4.5C-551.4-544.8-551.5-546.7-551.9-547.7z M-549.4-555.7c2-0.1,1.9,3.3,0,3.4c-6.5,0.2-13,0.4-19.5,0.4
						l-1.2,0c-6.1,0-12.2,0.1-18.3-0.4c-0.5,0-0.4-0.9,0-0.8c6.4-1,12.8-1.3,19.3-1.7C-562.5-555.2-556-555.4-549.4-555.7z"/>
				</g>
			</g>
		</g>
	</g>
</g>
<path class="st1" d="M35.9,53.6c0,0,0.2,0.1,0.4,0.1c0.2,0-0.2-0.3-0.2-0.3s-0.4,0.1-0.5,0.1C35.7,53.4,35.9,53.6,35.9,53.6z"/>
</svg>
