<?xml version="1.0" encoding="utf-8"?>
<!-- Generator: Adobe Illustrator 24.2.0, SVG Export Plug-In . SVG Version: 6.00 Build 0)  -->
<svg version="1.1" id="图层_1" xmlns="http://www.w3.org/2000/svg" xmlns:xlink="http://www.w3.org/1999/xlink" x="0px" y="0px"
	 viewBox="0 0 85 85" style="enable-background:new 0 0 85 85;" xml:space="preserve">
<style type="text/css">
	.st0{fill-rule:evenodd;clip-rule:evenodd;fill:#FFFFFF;}
	.st1{fill-rule:evenodd;clip-rule:evenodd;}
	.st2{display:none;}
	.st3{display:inline;}
	.st4{fill-rule:evenodd;clip-rule:evenodd;fill:#040000;}
</style>
<g>
	<g transform="matrix(1.04666,0,0,1.04666,-22.0193,-35.3741)">
		<g transform="matrix(0.4441,0,0,0.39775,0,0)">
			<path class="st0" d="M122.2,160.1c0,0,0.9,15.9-8.7,17.8l-0.3-2.3c0,0-22.8,3.7-30.2,23.1c-7.4,19.4-7.3,22.2-7.3,22.2
				s16.9,9,21.6,8.3l-2.5,33.2c0,0,14.6,9.2,72,6.9l-0.1-11.8l-1-31.1c0,0,9.5-2.9,10.4-3.3c0,0-4.3-20.3-8.1-27.6
				c-3.8-7.3-10.7-16-20.7-15l-0.3,2.1c0,0-7.3-2.4-5.1-14.8C141.8,167.9,131.4,157.7,122.2,160.1z"/>
		</g>
		<g>
			<g transform="matrix(0.4441,0,0,0.39775,0,0)">
				<path class="st1" d="M122.4,163.6c0,0,0.1-0.1,0.1-0.2c0.1-0.2,0-0.4-0.2-0.5c-0.1-0.1-0.2,0-0.3,0c-0.2,0-0.3,0.2-0.4,0.6
					c-0.1,0.2-0.2,0.3-0.3,0.6c0,0.1,0,0.2,0,0.3c0,1.2,0.1,3.1-0.2,4.5c-0.3,2-1,3.6-2,4.8c-1,1.2-2.4,2-4.2,2.4
					c-0.5,0.1-0.8,0.6-0.7,1.2c0.1,0.5,0.6,0.9,1.1,0.8c2.3-0.5,4-1.4,5.2-2.9c1.3-1.5,2-3.5,2.3-5.9c0.2-1.5-0.1-3.6-0.2-4.8
					c0-0.1,0-0.2,0-0.3C122.6,163.8,122.5,163.6,122.4,163.6z"/>
			</g>
			<g transform="matrix(0.4441,0,0,0.39775,0,0)">
				<path class="st1" d="M142.1,171.7L142.1,171.7C142.1,171.7,142.1,171.7,142.1,171.7L142.1,171.7L142.1,171.7L142.1,171.7
					L142.1,171.7L142.1,171.7L142.1,171.7L142.1,171.7C142.1,171.7,142.1,171.7,142.1,171.7C142.1,171.7,142.1,171.7,142.1,171.7
					c0.2-0.2,0.2-0.5,0-0.6c0-0.1-0.1-0.1-0.2-0.1c-0.2-0.2-0.6,0.1-0.9,0.8c-0.1,0.2-0.1,0.4-0.2,0.6c-0.2,0.9-0.1,2-0.1,2.2
					c0.1,1.8,0.4,3.6,1.2,5.1c0.6,1,1.4,1.8,2.5,2.4c0.4,0.2,0.9,0,1.1-0.4c0.2-0.4,0-1-0.4-1.2c-1-0.6-1.6-1.5-2-2.5
					c-0.5-1.1-0.8-2.3-0.9-3.5c0-0.2-0.1-1.2-0.1-2c0-0.2,0-0.3-0.1-0.5C142.1,171.9,142.1,171.8,142.1,171.7z M141.8,171.8
					c0,0,0.1,0,0.1,0C141.9,171.8,141.8,171.8,141.8,171.8z"/>
			</g>
			<g transform="matrix(0.4441,0,0,0.39775,0,0)">
				<path class="st1" d="M112.8,176.3c-0.1,0.1-0.2,0.2-0.2,0.3c-0.3,0.7-0.1,1.9,0.1,3c0.3,1.8,1.1,3.7,1.6,4.6
					c0.9,1.4,2.1,2.7,3.5,3.8c1.3,1.1,2.8,2,4.3,2.7c4.9,2.2,12.6,2.4,18.3-0.1c3.1-1.3,5.6-3.4,6.9-6.2c0.5-1.3,0.8-2.7,0.8-4.3
					c0-0.5-0.3-0.8-0.7-0.8c-0.4,0-0.7,0.4-0.8,0.8c-0.1,1.3-0.4,2.4-0.9,3.4c-1.1,2.4-3.3,4.1-5.9,5.2c-5.3,2.3-12.5,2.2-17,0.2
					c-1.4-0.6-2.7-1.4-4-2.4c-1.3-1-2.4-2.1-3.3-3.4c-0.4-0.6-1-1.9-1.4-3.2c-0.3-1.1-0.5-2.3-0.5-3.1c0-0.1-0.1-0.2-0.1-0.3
					c0.1-0.2,0-0.4-0.2-0.5C113.1,176,112.9,176.1,112.8,176.3z"/>
			</g>
			<g transform="matrix(0.4441,0,0,0.39775,0,0)">
				<path class="st1" d="M111.5,175.4c0,0.1-0.1,0.1-0.1,0.2c-0.1,0,0-0.1-0.1-0.2c-0.1,0-0.1-0.1-0.2-0.1c-0.6-0.2-1.7-0.2-3.1,0.2
					c-1.1,0.3-2.5,1-3.9,1.7c-5.4,2.7-12.2,7.2-14.1,9c-3.7,3.6-6.4,7.8-8.5,12.4c-2.5,5.4-4.3,11.3-5.7,17.5
					c-0.3,1.5-0.6,3-0.9,4.5c-0.1,0.4,0.1,0.8,0.5,1c0.4,0.1,0.8-0.1,0.9-0.6c0.4-1.5,0.8-2.9,1.2-4.4c1.6-5.9,3.2-11.7,5.7-17
					c2-4.3,4.6-8.4,8.1-11.8c1.6-1.6,6.7-5.2,11.5-7.9c2.1-1.2,4.2-2.2,5.8-2.8c0.8-0.3,1.4-0.5,1.9-0.6c0.1,0,0.3-0.1,0.4,0
					c0.1,0,0.1,0,0.2,0c0.2,0,0.3-0.1,0.4-0.1c0.1,0,0.2,0,0.4-0.1c0.1-0.1,0.3-0.3,0.4-0.6c0.1-0.2,0-0.4-0.2-0.5
					C111.7,175.2,111.5,175.2,111.5,175.4z"/>
			</g>
			<g transform="matrix(0.490486,0,0,0.387777,-34.1851,21.128)">
				<path class="st1" d="M138.4,172.1c0-0.2-0.1-0.4-0.2-0.4c-0.2-0.1-0.4,0-0.4,0.2c-0.1,0.1,0.1,0.2,0.1,0.8c0,0.3-0.1,0-0.1,0.3
					c0.1,0.5,0.8,0.8,0.9,0.9c0.6,0.4,1.2,0.8,1.8,1.2c0.6,0.4,1.2,0.7,1.8,1c2.6,1.3,3.8,2,5.3,2.6c0.8,0.3,1.7,0.7,3,0.8
					c0.3,0,0.5,0,0.8,0c0.3,0.1,0.6-0.2,0.6-0.6c0-0.4-0.2-0.8-0.5-0.8c-0.2-0.1-0.3-0.2-0.4-0.3c-0.2-0.1-0.3-0.1-0.5-0.1
					c-1.5-0.4-2.5-0.6-3.5-1.1c-1.1-0.5-2.3-1.2-4.3-2.2c-0.6-0.3-1.2-0.6-1.8-0.9c-0.6-0.3-1.2-0.7-1.7-1.1c-0.1,0-0.5-0.5-0.8-0.6
					c-0.2,0-0.3,0-0.3,0.2c0,0.1,0,0.1,0,0.1C138.4,172,138.4,172,138.4,172.1z"/>
			</g>
			<g transform="matrix(0.4441,0,0,0.39775,0,0)">
				<path class="st1" d="M97.6,213.9C97.6,213.9,97.7,213.8,97.6,213.9C97.6,213.9,97.6,213.9,97.6,213.9L97.6,213.9L97.6,213.9
					c0.1-0.1,0-0.3-0.1-0.4c0-0.1-0.1-0.1-0.1-0.1c-0.1-0.2-0.2,0-0.4,0.1c-0.1,0,0,0.1-0.1,0.2c-0.1,0.1-0.3,0.3-0.4,0.7
					c-0.2,0.6-0.1,1.4-0.1,1.7l-0.1,3.6c0,0.5,0.4,0.9,0.9,0.9c0.5,0,0.8-0.5,0.8-1l0-3.5c0-0.3,0.1-1.1-0.1-1.7
					C97.9,214.1,97.6,214,97.6,213.9z M97.4,214.1c0,0-0.1,0-0.1,0C97.3,214.1,97.3,214.1,97.4,214.1L97.4,214.1z M97.6,213.9
					L97.6,213.9c0,0.1-0.1,0.1-0.1,0.1C97.5,214,97.5,214,97.6,213.9C97.5,214,97.6,213.9,97.6,213.9z"/>
			</g>
			<g transform="matrix(0.4441,0,0,0.39775,0,0)">
				<path class="st1" d="M95.4,247.5C95.4,247.5,95.4,247.4,95.4,247.5c0,0-0.1,0.1-0.1,0.2c-0.2,0.2,0-0.1-0.3,0.1
					c-0.1,0.1-0.2,0.1-0.2,0.2c-0.1,0.2-0.1,0.5-0.1,0.8c-0.1,0.9-0.2,1.8-0.2,1.9l-0.3,3.7c0,2-0.2,3.4-0.3,5.1c0,0.7,0,1.5,0,2.3
					c0,0.6,0.4,1,0.9,1c0.5,0,0.9-0.4,0.9-1c0.1-2.4,0.5-3.9,0.6-5.9c0-0.5,0.1-1,0.1-1.6l0.2-3.6c0-0.1,0.1-1,0.1-1.9
					c0-0.3,0-0.6,0-0.8c-0.1-0.2-0.1-0.2-0.2-0.3c-0.2-0.2-0.1,0.1-0.3-0.1c-0.1-0.1-0.1-0.2-0.1-0.3c-0.1-0.2-0.1-0.3-0.2-0.3
					c-0.2,0-0.3-0.2-0.4-0.1c0,0-0.1,0-0.1,0.1C95.4,247.2,95.3,247.3,95.4,247.5z M95.5,247.6c0,0.1,0.1,0.1,0.2,0.1
					C95.6,247.7,95.5,247.7,95.5,247.6z M95.4,247.5C95.4,247.5,95.4,247.6,95.4,247.5C95.4,247.6,95.4,247.5,95.4,247.5z"/>
			</g>
			<g transform="matrix(0.4441,0,0,0.39775,0,0)">
				<path class="st1" d="M150.9,181.1c0.5,0.2,1.2,0.5,1.9,0.9c1.3,0.6,3,1.3,4.5,2.2c1.5,0.9,2.9,1.8,3.8,2.7
					c1.2,1.3,2.4,3,3.5,4.9c1.4,2.5,2.7,5.5,3.9,8.6c1.4,3.7,2.7,7.7,3.8,11.4c1.3,4.4,2.4,8.5,3.2,11.7c0.1,0.5,0.5,0.7,0.9,0.6
					c0.4-0.1,0.7-0.6,0.5-1c-0.7-3.2-1.6-7.4-2.8-11.9c-1-3.8-2.3-7.9-3.8-11.6c-1.2-3.2-2.6-6.3-4.1-8.9c-1.2-2.1-2.5-3.8-3.9-5.2
					c-1.2-1.1-3.3-2.3-5.4-3.3c-1.2-0.5-2.3-1-3.4-1.3c-0.9-0.3-1.7-0.4-2.4-0.5c-0.2,0-0.4,0.1-0.4,0.3
					C150.6,180.8,150.7,181,150.9,181.1z"/>
			</g>
			<g transform="matrix(0.4441,0,0,0.39775,0,0)">
				<path class="st1" d="M176,222.9L176,222.9c0,0-0.1-0.1-0.2,0c-0.1,0-0.2,0.1-0.2,0.1l-1.1,0.4c-0.7,0.3-1.4,0.6-2.1,0.8
					c-0.4,0.1-0.8,0.2-1.2,0.3c-0.3,0.1-0.5,0.2-0.8,0.2c-0.5,0-0.9,0.4-0.9,0.9c0,0.5,0.4,1,0.8,1c0.4,0.1,0.7,0.1,1.1,0.1
					c0.3,0,0.7-0.1,1-0.3c0.9-0.3,1.9-0.9,2.7-1.4l1.2-0.9c0.1-0.1,0.2-0.3,0.3-0.4c0-0.1-0.1-0.1,0-0.2c0-0.1,0.1-0.2,0.1-0.2
					C176.7,223.1,176.4,222.3,176,222.9z"/>
			</g>
			<g transform="matrix(0.4441,0,0,0.39775,0,0)">
				<path class="st1" d="M167.2,260c0.1-0.1,0.1-0.4,0-0.5c-0.2-0.2-0.3-0.2-0.5-0.1c-0.1,0-0.2,0.3-0.3,0.6
					c-0.1,0.2-0.2,0.3-0.3,0.5c-0.5,1.5-0.3,4.8-0.2,7c0,0.7,0.1,1.3,0.1,1.7c0,0.5,0.3,0.8,0.7,0.8c0.4,0,0.7-0.4,0.7-0.8
					c0-0.4,0.1-1,0.1-1.7c0-2.1,0-5.3-0.2-6.8C167.4,260.3,167.3,260.1,167.2,260z"/>
			</g>
		</g>
		<g transform="matrix(0.4441,0,0,0.39775,0,0)">
			<path class="st0" d="M175.1,224.3c0,0,9.6,33.8-1.6,38.9c-3.9,1.8-6.3-2.5-8.6-7.4c-4.2-9.1-6.5-23-6.9-23.8
				c-0.7-1.3-3.1-18.2-7.7-20.5c-4.7-2.2-9.4-1.6-11.9-0.2c-2.5,1.3-5.9,0.3-3.7-1.9c2.2-2.2,9.8-4.5,9.2-10.3
				c-0.6-5.7-2.7-8.5-5-8.2c-2.3,0.3-3.8,2.6-4.6,2.3c-0.8-0.2-1.1-4.9,2.4-5.8c3.5-0.9,9.4,2.9,9.3,2.9c0,0.1-5.4-14.1-4.2-14.5
				c1.2-0.4,3.1,0.6,6.9,13.1c0,0,0.3-3.6-0.2-6.5c-0.6-2.9-1.6-5.4-0.6-5.7c0.9-0.3,4.5,3.3,5,14.4c0,0,1.8-2.4,1.9-4
				c0.1-1.6-0.9-5.6,0.5-5.7c1.4-0.1,1.8,6.5,1.5,13.2c-0.3,6.7,4.9,14.9,6.4,18.4c1.5,3.6,7.3,13,7.3,13
				C170.3,226.1,175.1,224.3,175.1,224.3z"/>
		</g>
		<g transform="matrix(0.4441,0,0,0.39775,0,0)">
			<path class="st0" d="M78.2,223.6c0,0-2,8.6-3.4,18c-1.3,8.7-2.1,17.3,3.1,17.9c10.7,1.3,17.3-9.9,22.1-18.5
				c4.8-8.6,14-26.6,16.7-28.7c2.7-2.1,4.7-2.7,9.8-1.8c5.1,0.9,6.4,1.5,3.8-2.4c-2.6-3.9-6.8-3.1-6.2-8.4c0.7-5.3,2.2-8.7,4.7-8.2
				c2.4,0.6,4.5,3.8,4.5,0.2c0-3.5-7.6-7.1-10.6-0.9c0,0,5.5-16.3,4-16.6c-1.6-0.3-7.6,11.3-7.7,14.6c0,0-0.2-5.7,0.5-8.1
				c0.7-2.4,0.4-3.7-0.3-3.8c-0.8-0.1-5,6.2-4.7,14.3c0,0-1.2-3.3-1.3-4.8c-0.1-1.4-0.2-5.4-1.1-5.2c-1,0.3-2.4,3.4-1.7,10.1
				c0.8,6.7-1.1,12.3-2.3,14.1c-1.2,1.9-1.4,3.1-1.4,3.1s-11.8,15.5-17.2,19.5C89.4,228.1,80.5,225.3,78.2,223.6z"/>
		</g>
		<g>
			<g transform="matrix(0.4441,0,0,0.39775,0,0)">
				<path class="st1" d="M107.9,205.8c0,0-0.8,0.8-1.8,2.1c-1.3,1.6-2.9,4-3.9,5c-1.5,1.8-3.6,4.5-6.2,7.5c-1.3,1.5-2.8,3.1-4.5,4.6
					c-3.5,3.2-6.1,5.7-8.3,8.4c-2.4,2.9-4.3,6-6.5,10.3c-0.1,0.3-0.1,0.6,0.2,0.8c0.2,0.2,0.5,0.1,0.7-0.2c2.2-4.2,4.3-7.1,6.6-9.8
					c2.3-2.6,4.9-5.1,8.3-8.2c1.7-1.5,3.2-3.1,4.6-4.7c2.7-3,4.8-5.7,6.3-7.5c0.9-1.1,2.7-3.4,3.8-5.3c0.8-1.4,1.3-2.5,1.3-2.5
					c0.1-0.2,0.1-0.4-0.1-0.5C108.2,205.6,108,205.7,107.9,205.8z"/>
			</g>
			<g transform="matrix(0.4441,0,0,0.39775,0,0)">
				<path class="st1" d="M115.1,213.3c-0.1,0.1-0.2,0.3-0.5,0.5c-0.1,0.1-0.1,0-0.2,0c-0.1,0-0.1,0.1-0.1,0.2
					c-0.3,0.5-0.8,1.2-1.3,2c-1,1.6-2.4,3.8-3.6,5.8c-1.5,2.5-2.9,4.9-3.5,5.9c-4.7,7.5-8.2,16.9-13.4,23.5
					c-1.8,2.3-3.9,4.2-6.2,5.6c-2.2,1.3-4.7,2.2-7.7,2.3c-0.4,0-0.7,0.4-0.7,0.8c0,0.4,0.3,0.7,0.7,0.7c3.2,0,6-0.7,8.4-2.1
					c2.6-1.4,4.8-3.6,6.7-6.1c5.2-6.6,8.7-16.2,13.4-23.8c0.7-1.1,2.3-3.8,3.9-6.7c1.4-2.5,2.9-5.1,3.8-6.7c0.2-0.3,0.4-0.5,0.4-0.7
					c0-0.1,0-0.2,0-0.3c0.1-0.3,0.2-0.4,0.3-0.5c0.1-0.1,0.1-0.4,0-0.5C115.4,213.1,115.2,213.1,115.1,213.3z"/>
			</g>
			<g transform="matrix(0.4441,0,0,0.39775,0,0)">
				<path class="st1" d="M78.6,224.1L78.6,224.1c0.2-0.1,0.2-0.3,0.1-0.5c-0.1-0.3-0.3-0.3-0.4-0.2c-0.1,0-0.3,0.4-0.7,1
					c0,0-0.1,0-0.1,0.1c-1.2,1.9-1.7,8.1-2,9.5c-0.7,4.1-3.1,13-2.4,19.3c0.1,1.3,0.4,2.4,0.8,3.5c0.7,1.8,1.9,3.1,3.7,3.7
					c0.4,0.1,0.8-0.1,0.9-0.5c0.1-0.4-0.1-0.9-0.5-1c-1.4-0.6-2.2-1.8-2.7-3.4c-0.5-1.5-0.6-3.2-0.6-5.1c0-5.8,1.6-12.7,2.2-16.2
					c0.2-1.4,1.2-7.2,1.6-9.5C78.5,224.4,78.6,224.2,78.6,224.1z"/>
			</g>
			<g transform="matrix(0.4441,0,0,0.39775,0,0)">
				<path class="st1" d="M111.9,182.3c0,0.1,0.1,0.2,0.1,0.3c0.1,0.5,0.2,1.1,0.3,1.3c0.2,1.1,0,2.2,0.1,3.3c0,0.3,0.1,0.6,0.1,0.9
					c0.2,0.9,0.5,1.6,0.8,2.4c0.1,0.4,0.3,0.9,0.3,1.4c0,0.3,0.2,0.6,0.5,0.6c0.3,0,0.5-0.3,0.5-0.6c0.1-0.5,0-1,0-1.4
					c-0.2-1-0.6-1.7-0.8-2.8c-0.1-0.2-0.1-0.5-0.1-0.7c-0.1-1.1,0-2.3-0.2-3.4c-0.1-0.5-0.3-1.7-0.7-2.3c-0.2-0.3-0.5-0.5-0.7-0.5
					c-0.2,0-0.5,0-0.8,0.4c-0.4,0.5-0.7,1.2-0.9,2c-0.3,1-0.4,2.1-0.4,3c-0.1,0.6,0,1.3,0,1.9c-0.1,1-0.2,1.9-0.2,2.9
					c0,1.4,0,2.8,0,4.2c0,0.9,0,1.8-0.1,2.7c-0.1,1-0.3,2-0.6,3c-0.3,1-0.6,2-0.9,3c-0.2,0.5-0.6,0.9-0.7,1.4
					c-0.1,0.3-0.2,0.6-0.1,0.9c0,0.2,0.2,0.4,0.4,0.3c0.2,0,0.3-0.2,0.3-0.4c0-0.2,0-0.3,0.1-0.5c0.2-0.5,0.6-0.9,0.8-1.4
					c0.4-1,0.8-2,1.1-3c0.3-1,0.6-2.1,0.8-3.2c0.2-1.2,0.2-2.4,0.2-3.7c-0.1-1.3-0.2-2.7-0.4-4c-0.1-0.9-0.3-1.7-0.3-2.6
					c0-0.5,0.1-1.1,0.2-1.6c0.2-0.8,0.4-1.9,0.7-2.8C111.3,183.1,111.5,182.6,111.9,182.3z M112,182.2
					C112,182.2,112,182.2,112,182.2C112,182.1,112,182.1,112,182.2L112,182.2z"/>
			</g>
			<g transform="matrix(0.4441,0,0,0.39775,0,0)">
				<path class="st1" d="M114.9,190.7C114.9,190.7,114.9,190.7,114.9,190.7c0-0.2,0.1-0.5,0.1-0.7c0.1-0.7,0.1-1.5,0.1-1.7
					c0-1.4,0.2-2.9,0.6-4.4c0.4-1.5,1-2.9,1.7-4.1c0.1-0.2,1-1.8,1.5-2.4c0.4,0.6,0.4,1,0.4,1.6c-0.1,0.8-0.4,1.7-0.8,3
					c-0.3,1.3-0.5,2.7-0.5,4.1c-0.1,1.4,0,2.8,0.1,4c0,0.3,0.2,0.5,0.4,0.5c0.2,0,0.4-0.2,0.4-0.5c0.1-1.5,0.2-3.1,0.4-4.7
					c0.1-1,0.2-2.1,0.4-3c0.3-1.4,0.6-2.4,0.6-3.3c0-0.4,0-0.7-0.2-1.1c-0.2-0.4-0.5-0.8-0.9-1.1c-0.1,0-0.2-0.2-0.3-0.1
					c0,0.1-0.1,0.1-0.1,0.2c-0.1,0.1-0.2,0.2-0.4,0.4c-0.6,0.7-1.4,2-1.5,2.2c-0.8,1.3-1.5,2.7-2,4.2c-0.5,1.5-0.9,3.1-0.9,4.7
					c0,0.2-0.1,1.1,0,1.7c0,0.2,0.1,0.3,0.1,0.5c0.1,0.4,0.2,0.6,0.2,0.7c0.1,0.1,0.3,0.2,0.4,0.1c0.2,0,0.3-0.2,0.2-0.5
					C114.9,190.8,114.9,190.8,114.9,190.7z M119,177.3C119,177.2,119,177.2,119,177.3c-0.1,0-0.1,0-0.1,0
					C118.9,177.3,118.9,177.3,119,177.3C119,177.3,119,177.3,119,177.3z M118.8,177.3L118.8,177.3
					C118.8,177.3,118.8,177.3,118.8,177.3z"/>
			</g>
			<g transform="matrix(0.4441,0,0,0.39775,0,0)">
				<path class="st1" d="M118.7,190c0,0,0,0.1,0,0.1c0.1,1.3,0.3,1.5,0.7-0.1c0-0.1,0.2-0.3,0.3-0.7c0.1-0.6,0.2-1.7,0.6-3.1
					c0.4-1.5,1.1-3.3,1.9-5c0.8-1.7,1.6-3.4,2.4-4.8c0.1-0.2,1.2-1.3,1.7-1.5c0.1,0.2,0.1,0.5,0.1,0.9c-0.1,1.1-0.6,2.4-0.8,3
					c-1,2.7-1.6,4.5-2.2,6.5c-0.5,1.9-1,3.8-1.6,6.7c-0.1,0.3,0.1,0.6,0.3,0.6c0.3,0.1,0.5-0.1,0.6-0.4c0.7-2.8,1.2-4.7,1.7-6.5
					c0.6-1.9,1.1-3.8,2.1-6.4c0.2-0.6,0.6-1.8,0.7-2.8c0.1-0.9,0-1.7-0.4-2.2c-0.1-0.2-0.5-0.2-1,0.1c-0.7,0.4-1.7,1.4-1.9,1.7
					c-0.8,1.4-1.8,3.1-2.6,4.8c-0.8,1.8-1.6,3.6-2.1,5.1c-0.5,1.5-0.7,2.6-0.7,3.3C118.6,189.6,118.6,190,118.7,190z"/>
			</g>
			<g transform="matrix(0.4441,0,0,0.39775,0,0)">
				<path class="st1" d="M122.5,192L122.5,192c-0.1,0-0.1-0.1,0-0.2l0,0C122.5,191.9,122.5,191.9,122.5,192c0.1,0,0,0,0-0.1l0,0l0,0
					c0.1-0.3,0.8-0.9,0.9-1c0.5-0.7,1-1.3,1.6-1.9c0.6-0.5,1.2-1,1.9-1.3c0.1-0.1,0.3,0,0.4,0c0.4,0,0.7,0.1,1,0.2
					c0.3,0,0.5,0.1,0.7,0.2c0.2,0.1,0.5,0.3,0.7,0.5c0.8,0.7,1.8,1.3,2.5,2.2c0.3,0.4,0.5,0.7,0.7,1.2c0.1,0.2,0.1,0.5,0,0.7
					c-0.1,0.3-0.4,0.5-0.7,0.4c-0.3-0.1-0.6-0.6-0.9-1c-0.1-0.1-0.3-0.2-0.4-0.3c-0.9-0.5-1.7-0.9-2.6-1c-0.6,0-1.2,0.2-1.9,0.6
					c-0.4,0.2-0.7,0.6-0.9,0.9c-0.3,0.5-0.6,1-0.9,1.5c-0.8,1.4-1.2,2.8-1.3,4.2c-0.1,1.4,0.1,2.8,0.7,4.3c0.1,0.3,0.4,0.4,0.6,0.3
					c0.2-0.1,0.4-0.4,0.3-0.7c-0.4-1.4-0.5-2.7-0.4-3.9c0.1-1.2,0.5-2.4,1.2-3.6c0.3-0.5,0.5-0.9,0.8-1.3c0.2-0.2,0.4-0.4,0.6-0.6
					c0.6-0.4,1.1-0.5,1.6-0.5c0.6,0.1,1.2,0.3,1.9,0.6c0.4,0.1,0.7,0.6,1.1,0.8c0.2,0.1,0.3,0.2,0.4,0.2c0.4,0,0.7-0.1,0.9-0.4
					c0.1-0.2,0.2-0.3,0.2-0.5c0.1-0.3,0.2-0.6,0.2-0.9c-0.1-0.8-0.4-1.5-0.8-2.1c-0.6-0.8-1.5-1.4-2.2-2.1c-0.4-0.3-0.7-0.6-1.1-0.8
					c-0.3-0.1-0.6-0.2-0.9-0.2c-0.3,0-0.8-0.2-1.2-0.2c-0.3,0-0.5,0-0.7,0.1c-0.8,0.4-1.6,0.9-2.2,1.5c-0.6,0.6-1.2,1.3-1.7,2.1
					c-0.1,0.2-0.7,1.1-0.8,1.5c-0.1,0.4,0,0.6,0.2,0.7c0.2,0.1,0.4,0,0.4-0.2C122.5,192.1,122.5,192,122.5,192z"/>
			</g>
			<g transform="matrix(0.4441,0,0,0.39775,0,0)">
				<path class="st1" d="M116.3,212.9c0.1,0,0.2-0.2,0.4-0.3c0.3-0.2,0.7-0.5,0.9-0.7c0.6-0.5,1.3-0.8,2-1c1.2-0.3,2.5-0.4,3.5-0.3
					c0.8,0,1.5,0.1,2.1,0.3c1.7,0.3,3.1,0.8,5.1,1c0.8,0.1,1.5-0.4,1.7-1.1c0.2-0.6,0.2-1.2-0.2-1.7c-0.5-0.7-1-1.2-1.6-1.8
					c-0.5-0.5-1.1-0.9-1.9-1.3c-0.4-0.2-0.7-0.5-1-0.7c-0.8-0.8-1.5-1.7-2.4-2.4c-0.3-0.2-0.7-0.2-0.9,0.1c-0.2,0.3-0.2,0.8,0.1,1
					c0.9,0.8,1.5,1.7,2.3,2.5c0.4,0.4,0.8,0.7,1.3,1c0.7,0.4,1.3,0.7,1.7,1c0.6,0.4,1,0.9,1.5,1.4c0.1,0.2,0.1,0.4,0,0.5
					c-0.1,0.2-0.4,0.3-0.7,0.3c-1.9-0.2-3.4-0.7-5-1c-0.7-0.1-1.4-0.2-2.2-0.3c-1.2-0.1-2.6,0-3.8,0.3c-0.9,0.3-1.8,0.7-2.4,1.3
					c-0.2,0.2-0.6,0.5-0.9,0.8c-0.2,0.2-0.2,0.4-0.3,0.5c-0.2,0.4-0.2,0.6,0,0.9c0.1,0.2,0.3,0.2,0.5,0
					C116.3,213.2,116.4,213,116.3,212.9z"/>
			</g>
			<g transform="matrix(0.4441,0,0,0.39775,0,0)">
				<path class="st1" d="M155.3,182.2c0.3,0.3,0.5,1,0.6,1.7c0.3,1.3,0.4,2.8,0.4,3.5c0.1,2.8-0.3,5.4-0.3,8
					c0.1,1.8,0.3,3.6,1.1,5.4c0.8,1.8,0.9,2.5,1.3,3.4c0.2,0.4,0.3,0.9,0.7,1.3c0.1,0.1,0.2,0.1,0.3,0.3c0.1,0.1,0.2,0.3,0.3,0.5
					c0.1,0.2,0.3,0.2,0.5,0.1c0.2-0.1,0.2-0.3,0.1-0.5c-0.1-0.2-0.2-0.3-0.3-0.5c-0.1-0.2,0-0.3-0.1-0.4c-0.2-0.6-0.4-0.9-0.6-1.3
					c-0.4-1-0.5-1.7-1.2-3.5c-0.7-1.7-0.9-3.3-1-4.9c-0.1-2.6,0.3-5.2,0.3-8c0-0.8-0.1-2.5-0.4-3.8c-0.3-1.1-0.7-2.1-1.3-2.5
					c-0.4-0.2-0.7-0.2-1,0c-0.3,0.3-0.6,1-0.7,1.3c-0.1,0.5-0.2,1.1-0.2,1.7c0,1.1,0.2,2.4,0,3.4c-0.1,1.1-0.8,1.7-1.2,2.6
					c-0.2,0.4-0.3,0.9-0.3,1.5c0,0.3,0.2,0.6,0.5,0.6s0.5-0.2,0.5-0.5c0-0.4,0.2-0.8,0.3-1.1c0.5-1,1.2-1.8,1.4-2.9
					c0.2-1,0.1-2.2,0-3.3c0-0.4-0.1-0.9-0.1-1.3c0-0.1,0-0.3,0.1-0.4C155.1,182.6,155.2,182.4,155.3,182.2z"/>
			</g>
			<g transform="matrix(0.473371,0.0128012,-0.013872,0.411481,-4.98193,-47.5089)">
				<path class="st1" d="M162.7,317.1c0,0.2,0.1,0.5,0.2,0.8c0.2,0.4,0.5,0.9,0.6,1.3c0.3,0.9,0.7,2.2,1.1,3.8
					c0.8,2.7,1.8,5.9,2.7,8.8c0.6,2.2,1.1,4.2,1.4,5.4c2.1,9.3,3.8,16.7,6.5,21.6c1.8,3.3,4,5.4,6.9,6.5c0.5,0.2,1-0.1,1.1-0.7
					c0.1-0.5-0.1-1.1-0.6-1.3c-2-0.8-3.5-2.2-4.8-4.2c-0.8-1.2-1.6-2.6-2.3-4.2c-2-4.6-3.7-10.7-5.6-18c-0.6-2.6-2.2-8.2-3.6-12.7
					c-0.7-2.2-1.4-4.2-1.8-5.4l-0.8-1.8c0-0.3-0.3-0.5-0.5-0.5C162.8,316.5,162.6,316.8,162.7,317.1z"/>
			</g>
			<g transform="matrix(0.501333,0,0,0.443515,-68.9409,-101.332)">
				<path class="st1" d="M279.6,413.7c0-0.1,0-0.3-0.1-0.4c-0.2-0.1-0.3-0.1-0.4,0c-0.1,0-0.2,0.1-0.1,0.3c0,0.1,0.1,0.4,0.2,0.8
					c0.1,0.2,0.2,0.4,0.3,0.6c0.3,0.7,0.5,1.7,0.9,2.7c0.5,1.3,1,2.5,1.3,3.2c0.4,0.9,1.1,2.3,1.9,3.8c1.6,3.1,3.8,6.8,4.7,8.5
					c1.8,3.1,2.9,5.4,3.5,7.2c0.9,2.4,1.1,3.9,1.5,5.3c0.1,0.4,0.4,0.6,0.7,0.5c0.3-0.1,0.5-0.5,0.4-0.8c-0.4-1.7-0.5-3.5-1.8-6.8
					c-0.7-1.7-1.7-3.7-3.1-6.2c-0.9-1.5-2.6-4.4-4.2-7.2c-1.1-1.9-2.1-3.7-2.6-4.8c-0.3-0.7-0.9-1.9-1.5-3.1c-0.5-0.9-1-1.7-1.3-2.4
					c-0.1-0.2-0.2-0.5-0.3-0.6C279.7,414,279.6,413.8,279.6,413.7z M279.3,414c0,0-0.1,0-0.1-0.1C279.2,413.9,279.2,414,279.3,414z"
					/>
			</g>
			<g transform="matrix(0.4441,0,0,0.39775,0,0)">
				<path class="st1" d="M175.4,225.6c-0.1,0.1-0.1,0.2-0.1,0.3c0,0.1,0,0.3,0,0.4c0.1,0.8,0.4,1.6,0.5,2.4l1.1,6.6
					c0.7,4,1.2,7.8,1.3,11.7c0,2.5-0.1,5.1-0.6,7.7c-0.2,1.2-0.6,4.1-2.1,6.1c-0.7,1-1.6,1.7-3,1.8c-0.4,0-0.8,0.4-0.7,0.9
					c0,0.5,0.4,0.8,0.8,0.8c1.9,0,3.3-1,4.3-2.3c1.7-2.2,2.2-5.5,2.5-6.9c0.7-3.5,0.8-6.8,0.6-10.2c-0.2-3.3-0.8-6.5-1.5-9.9
					l-1.4-6.5c-0.2-0.8-0.5-1.7-0.8-2.5c0-0.1-0.1-0.2-0.1-0.2c0-0.2-0.1-0.4-0.3-0.4C175.6,225.2,175.5,225.4,175.4,225.6z"/>
			</g>
			<g transform="matrix(0.4441,0,0,0.39775,0,0)">
				<path class="st1" d="M148,177.2c0.3,0,0.5,0.2,0.8,0.4c0.4,0.5,0.7,1.2,0.9,1.6c0.4,1,0.8,2.1,1.1,3.2c0.5,1.6,0.8,3.2,1.2,4.9
					c0.1,0.3,0.1,0.5,0.1,0.8c0.1,0.7,0.1,1.4,0.1,2.1c0,0.2,0.1,1,0.2,1.3c0,0,0,0.1,0,0.1c0.1,0.3,0.8,0.7,0.7-0.1
					c0-0.2-0.2-0.4-0.3-0.4c-0.2,0-0.3,0.1-0.3,0.3c0.3-3.7,0.7,0,0.7,0s0-1,0.1-1.3c0-0.6,0.1-1.3,0-1.9c0-0.5-0.1-0.9-0.2-1.3
					c-0.4-1.7-0.8-3.4-1.3-5c-0.3-1.1-0.7-2.2-1.2-3.2c-0.3-0.5-0.7-1.3-1.3-1.8c-0.4-0.4-0.9-0.7-1.4-0.6c-0.3,0-0.6,0.3-0.7,0.8
					c-0.1,0.6-0.1,1.5-0.1,1.7l0.1,0.7c0.3,1.6,0.7,3.3,1.1,4.9c0.1,0.7,0.2,1.4,0.3,2.1l0,2.6c0,0.3,0.2,0.5,0.4,0.5
					c0.2,0,0.4-0.2,0.4-0.5l0.1-2.7c-0.1-1-0.2-2-0.4-2.9c-0.3-1.4-0.6-2.9-0.9-4.3l-0.1-0.7c0-0.1-0.1-0.6-0.1-1
					C147.9,177.5,148,177.3,148,177.2z"/>
			</g>
			<g transform="matrix(0.4441,0,0,0.39775,0,0)">
				<path class="st1" d="M149.1,189.7L149.1,189.7C149.1,189.7,149.1,189.6,149.1,189.7c-0.1-0.4-0.1-1.2-0.1-1.4
					c-0.1-0.5-0.2-1.1-0.4-1.6c-0.2-0.5-0.4-1-0.6-1.5c-0.6-1.5-1.1-3.1-1.7-4.6c-0.3-0.7-0.5-1.3-0.9-2c-0.4-0.8-0.8-1.6-1.4-2.3
					c-0.3-0.3-0.6-0.6-1-0.8c-0.2-0.1-0.3-0.1-0.5-0.1c-0.1,0-0.1,0-0.1,0.1c0,0.1,0,0.1,0.1,0.2c0.2,0.1,0.3,0.3,0.4,0.4
					c0.3,0.3,0.6,0.7,0.9,1.1c0.4,0.6,0.7,1.2,0.9,1.8c0.3,0.6,0.5,1.3,0.7,1.9c0.5,1.5,1,3.1,1.5,4.7l1,2.9c0,0.1,0.3,0.9,0.4,1.2
					c0.2,0.4,0.5,0.4,0.5,0.4C149.1,190.1,149.2,189.9,149.1,189.7C149.1,189.7,149.1,189.7,149.1,189.7z"/>
			</g>
			<g transform="matrix(0.4441,0,0,0.39775,0,0)">
				<path class="st1" d="M141.1,175.5c-0.2,0.5-0.2,1.1-0.1,1.6c0.2,1.1,0.8,2.1,1.2,3.2c0.5,1.3,0.9,2.7,1.3,4
					c0.4,1.4,0.8,2.8,1.3,4.1c0.2,0.7,0.5,1.3,0.8,2c0.1,0.2,0.3,0.4,0.6,0.3c0.2-0.1,0.3-0.4,0.2-0.6c-0.1-0.4-0.2-0.8-0.3-1.3
					c-0.5-1.7-0.9-3.3-1.5-5c-0.4-1.4-1-2.7-1.6-4c-0.4-0.8-0.9-1.6-1.2-2.4c-0.2-0.5-0.3-1-0.1-1.6c0.1-0.2,0-0.4-0.2-0.5
					C141.4,175.3,141.2,175.3,141.1,175.5z"/>
			</g>
			<g transform="matrix(0.4441,0,0,0.39775,0,0)">
				<path class="st1" d="M146.4,190.8c0-0.1-0.1-0.2-0.1-0.3c0-0.2,0-0.4-0.1-0.6c-0.1-0.2-0.3-0.3-0.5-0.5
					c-0.6-0.4-1.6-1.3-2.4-1.8c-0.3-0.2-0.5-0.3-0.7-0.4c-1.7-0.8-3.7-1.1-5.3-0.5c-1.7,0.5-3.2,1.9-3.9,4c-0.1,0.2-0.1,1,0.2,1.7
					c0.2,0.5,0.4,0.9,0.7,0.9c0.2,0,0.3-0.1,0.5-0.1c0.2-0.1,0.3,0,0.5-0.1c0.3-0.1,0.5-0.4,0.7-0.5c0.5-0.3,1-0.6,1.6-0.8
					c0.3-0.1,0.7-0.2,1-0.2c0.9,0,1.7,0.6,2.4,1.5c0.4,0.5,0.8,1.2,1.2,1.9c0.7,1.4,1,3.1,1,4.5c0,0.4,0,0.8,0,1.1
					c-0.1,0.3,0.1,0.5,0.3,0.6c0.2,0.1,0.5-0.1,0.5-0.3c0.2-0.5,0.3-1,0.3-1.6c0.1-1.9-0.5-4.3-1.6-6.1c-1-1.7-2.6-2.9-4.2-2.8
					c-0.5,0-1,0.1-1.4,0.4c-0.6,0.3-1.2,0.7-1.7,1.2c-0.2,0.2-0.4,0.4-0.5,0.7c-0.1,0.2-0.1,0.3-0.2,0.4c-0.1,0.1-0.2,0.1-0.4,0
					c0,0,0-0.1,0-0.1c-0.1-0.1-0.1-0.3-0.1-0.5c-0.1-0.5-0.1-1,0-1.1c0.7-1.8,2-2.7,3.4-3.1c1.4-0.4,3.1-0.2,4.6,0.5l3,2.1
					c0.1,0.1,0.2,0.2,0.3,0.2c0.1,0.1,0.2,0,0.3,0.1c0.1,0.1,0.1,0.3,0.2,0.3c0.3,0.7,0.6,1.1,0.7-0.1
					C146.5,191,146.4,190.9,146.4,190.8z"/>
			</g>
			<g transform="matrix(0.4441,0,0,0.39775,0,0)">
				<path class="st1" d="M143,201.5c0,0.4-0.3,0.9-0.6,1.3c-0.5,0.7-1.1,1.4-1.5,1.8c-1,1-2.1,1.4-3.2,1.8c-0.9,0.4-1.7,0.7-2.5,1.3
					c-0.5,0.4-1,0.9-1.3,1.6c-0.2,0.4-0.3,0.8-0.4,1.3c-0.1,0.3,0.1,0.6,0.3,0.7c0.3,0.1,0.5-0.1,0.6-0.4c0.1-0.4,0.3-0.6,0.5-0.9
					c0.3-0.5,0.6-0.8,1-1.1c0.6-0.5,1.4-0.8,2.2-1.2c1.2-0.6,2.4-1.2,3.4-2.4c0.4-0.5,1-1.3,1.5-2.1c0.3-0.6,0.6-1.2,0.6-1.8
					c0-0.2-0.1-0.4-0.3-0.4C143.2,201.1,143,201.2,143,201.5z"/>
			</g>
			<g transform="matrix(0.4441,0,0,0.39775,0,0)">
				<path class="st1" d="M134,211.7c0.4,0.4,0.9,0.6,1.5,0.6c0.7,0.1,1.5-0.1,2.1-0.2c1.2-0.3,1.9-0.7,2.9-1.1
					c0.3-0.1,0.7-0.2,1.1-0.3c1.3-0.2,2.4-0.4,3.6-0.3c0.7,0.1,1.5,0.2,2.2,0.6c1.1,0.5,2.1,0.9,3,1.5c0.6,0.4,1.2,0.8,1.8,1.4
					c0.2,0.2,0.5,0.2,0.7,0c0.2-0.2,0.2-0.6,0-0.8c-0.7-0.9-1.5-1.5-2.4-2.1c-0.8-0.5-1.7-0.9-2.7-1.4c-0.9-0.4-1.8-0.6-2.6-0.6
					c-1.3-0.1-2.5,0.2-3.9,0.4c-0.5,0.1-0.9,0.2-1.3,0.4c-0.9,0.4-1.6,0.9-2.7,1.2c-0.5,0.2-1.2,0.4-1.9,0.4c-0.4,0-0.8-0.1-1.1-0.3
					c-0.1-0.1-0.4-0.1-0.5,0C133.9,211.3,133.9,211.6,134,211.7z"/>
			</g>
		</g>
		<g transform="matrix(0.4441,0,0,0.39775,0,0)">
			<path class="st1" d="M133.8,193.5c-0.3-0.3-0.6-0.5-0.9-0.6c-0.8-0.6-1.6-1.1-2.6-1.4c-1.3-0.4-2.7-0.3-4.1,0.5
				c-1.6,0.9-2.8,3.5-3.2,6.3c-0.4,2.7,0.1,5.6,1.4,7c0.6,0.7,1.5,1.5,2.3,2.2c0.9,0.8,1.9,1.4,2.6,1.8c0.6,0.3,1.4,0.7,2.1,1.2
				c0.3,0.2,0.6,0.5,0.8,0.8c0.1,0.3,0.6,0.9,1,1.1c0.5,0.2,0.9,0.1,1.3-0.3c0.5-0.5,0.6-1.2,0.9-1.9c0.1-0.1,0.1-0.2,0.3-0.3
				c2.8-1.6,6.3-4.3,7.8-7.8c1-2.4,1.2-5.2-0.2-8.3c-0.8-1.7-2-2.8-3.3-3.3c-1.3-0.4-2.8-0.2-4.3,0.7
				C135.5,191.5,134.4,192.5,133.8,193.5z M133.6,209.1c0,0-0.1,0-0.1,0L133.6,209.1L133.6,209.1L133.6,209.1L133.6,209.1z"/>
		</g>
	</g>
	<g transform="matrix(1,0,0,1,-281.601,-93.3592)" class="st2">
		<g transform="matrix(0.4441,0,0,0.39775,122.255,342.337)" class="st3">
			<g id="Gray-Short.svg2" transform="matrix(0.681216,0,0,0.681216,1361.69,1133.76)">
				<g transform="matrix(1,0,0,1,-236.5,-283.5)">
					<g id="head-mono-Gray-Short2">
						<path class="st0" d="M-1138.7-2211.7c0,0-4.7,20.6,9.3,14.6c0,0,7.8,20.2,14.4,18.2c0,0,5.2,4.7,9.4,5.1
							c0,0,20.7,21.2,38-11.6c6.9-13,2.6-41.6-0.4-52.2c-1.3-4.6-1.5-9.4-1.7-10.7c0,0,8.9-6.2,2.4-9.2c0,0,4.7-7.2,3.8-7.9
							c-0.9-0.6-31-15.3-45.9-12.1c-15,3.3-22.1,5.3-27,12.6s-5,3.3-5.9,10.4C-1143.3-2247.4-1145.3-2215.9-1138.7-2211.7z"/>
						<path id="_xD83D__xDD8D_-Ink6" class="st1" d="M-1088.7-2166.3c-6.3,0.7-13.7-0.9-17.9-6.6c-0.1-0.2-0.2-0.4-0.2-0.6
							c0-0.2,0.1-0.4,0.2-0.6c0.1-0.2,0.3-0.3,0.5-0.3c0.2,0,0.3,0,0.5,0.1l0.4,0.2c2.9,1.8,5.8,3.3,9.1,3.9c3.3,0.7,6.7,0.6,10-0.3
							c6-1.5,10.9-5.4,14.5-10.6c4-5.8,6.4-13.1,7-20.4c0.7-8.8-1-17.6-2.8-26.2c-1.9-9-3.9-18-6.3-26.8c-0.1-0.3-0.1-0.5-0.1-0.7
							c-0.7-0.3-1.4-0.2-2.2,0.1c-1.4,0.5-2.7,1.7-3.8,2.6c-0.4,0.3-0.8,0.7-1.1,0.9c-1.4,1.1-2.9,1.8-4.6,2
							c-1.8,0.1-3.5-0.5-5.1-1.3c-0.8-0.4-1.6-0.8-2.4-1.2c-2.3-1.2-4.6-2.3-7-3c-3.3-1-6.7-1.5-10.2-1.4c-6.1,0.1-12.3,1.8-16,7.6
							c-1.5,2.3-2.5,5-1.7,7.9c0.4,1.6,1.2,3,2.1,4.3l0.3,0.4c0.5,0.7,0.9,1.4,1,2.2c0.1,0.6,0,1.3-0.4,2.1
							c-0.3,0.5-0.6,0.9-0.9,1.3c-0.2,0.3-0.5,0.6-0.7,0.9c-0.4,0.7-0.8,1.4-1.1,2.1c-0.6,1.4-0.8,3-0.9,4.5
							c-0.1,1.9,0.2,3.7,0.4,5.6c0.2,1.3,0.3,2.6,0.4,3.9c0,0.2-0.1,0.4-0.1,0.5c-0.1,0.2-0.3,0.3-0.4,0.3c-0.1,0-0.1,0-0.2,0
							c0,0.1,0.1,0.3,0.1,0.4c-0.1-0.2-0.2-0.3-0.4-0.5c0,0,0,0,0,0c-0.1-0.1-0.2-0.2-0.3-0.4c-0.2-0.2-0.4-0.4-0.6-0.5
							c-1-0.9-2.3-1.4-3.5-1.4c-1.2,0-2.4,0.4-3.3,1.4c-1.8,1.9-2.3,5-2.4,7.6c0,2.7,0.5,5.9,2.6,7.6c0.8,0.7,1.9,1.1,2.9,1.1
							c0.9,0,1.7-0.3,2.5-0.7c0.2-0.1,0.5-0.2,0.7-0.3c0.3-0.1,0.5-0.1,0.8,0c0.3,0.1,0.5,0.3,0.6,0.5c0.2,0.2,0.3,0.5,0.3,0.8
							c0,0.3,0,0.6-0.1,0.9c0,0.1-0.1,0.1-0.1,0.2l0.5,0.8c1.8,3.2,3.6,6.4,5.9,9.2c1.4,1.6,2.8,3.1,4.4,4.4l0.2,0.2
							c0.1,0.1,0.3,0.2,0.4,0.4c0.5,0.4,1,1,1.5,1c0.2,0,0.3,0,0.4,0c0.3,0,0.5-0.1,0.8,0.1c0.2,0.1,0.4,0.3,0.6,0.6
							c0.1,0.2,0.2,0.5,0.2,0.8c0,0.3-0.1,0.6-0.2,0.8c-0.3,0.5-0.6,0.8-0.9,1c-0.4,0.2-0.8,0.2-1.3,0.1c-1.1-0.2-2.3-1.3-3.1-1.9
							l-0.2-0.1c-1.7-1.5-3.4-3.1-4.8-4.9c-2.5-3.1-4.7-6.8-5.8-10.8c-0.8,0.6-1.8,0.9-2.8,0.9c-1.5,0.1-3.1-0.4-4.3-1
							c-2.6-1.4-4.2-4-4.9-6.9c-0.9-3.5-0.6-7.4,0.5-10.5c0-0.1,0.1-0.2,0.1-0.3c-3.3-9.4-4.4-19.9-4.1-29.9
							c0.1-4.7,0.4-9.6,1.4-14.2c0.4-2.1,1.2-4,2.5-5.6c0.7-0.9,1.6-1.6,2.4-2.4c0.8-0.6,1.5-1.2,2.1-2l0.3-0.4
							c0.1-0.1,0.1-0.2,0.2-0.2c1.1-1.4,2.2-2.7,3.5-3.8c1.5-1.3,3.2-2.3,5-3.1c3.8-1.8,7.9-2.9,12-3.7c8.8-1.8,17.8-1.9,26.5,0.6
							c4,1.2,8,2.8,11.9,4.4c0.4,0.1,0.7,0.3,1.1,0.4c3,1.2,6.1,2.5,9.1,3.7c1.4,0.6,2.8,1.2,4.2,1.7c0.3,0.1,0.6,0.4,0.8,0.7
							c0.2,0.3,0.2,0.7,0.1,1.1c-0.9,2.5-2,4.8-3.3,6.9c0.5,0.4,0.9,0.8,1.2,1.4c0.4,0.7,0.6,1.5,0.6,2.4c0.1,2.9-2.3,4.9-4.3,6.3
							c-0.2,0.1-0.4,0.2-0.5,0.2c1.9,8.1,3.7,16.3,5.3,24.5l0.1,0.6c1.6,8.6,2.6,17.4,1.1,26.1c-1.3,7.5-4.3,14.8-9,20.4
							C-1075.8-2170.5-1082-2167-1088.7-2166.3z M-1130.1-2215.8c-0.8-2.9-1.3-6.1-0.9-9c0.2-1.9,0.7-3.6,1.5-5.3
							c0.5-0.9,1-1.8,1.7-2.6l0.2-0.3c0.1-0.1,0.2-0.3,0.2-0.4c0-0.1,0-0.2-0.1-0.3c-0.1-0.3-0.3-0.5-0.5-0.8
							c-0.1-0.2-0.2-0.3-0.3-0.5c-1.8-2.7-3.1-6-2.7-9.4c0.4-3.4,2.4-6.5,4.5-8.9c4.6-5.2,11.8-6.4,18.1-6.1
							c3.7,0.2,7.3,0.9,10.8,2.1c1.7,0.6,3.4,1.4,5,2.2l0.4,0.2c0.2,0.1,0.4,0.2,0.6,0.3c1.3,0.7,2.6,1.4,4,1.8
							c2.7,0.7,4.5-0.8,6.5-2.4c0.7-0.5,1.3-1.1,2-1.6l0.1-0.1c1.3-0.8,2.8-1.4,4.3-1.4c1.3,0,2.5,0.5,3.5,1.6
							c0.2,0.2,0.3,0.5,0.4,0.7c0.1,0.2,0.2,0.4,0.3,0.6c0.4,1.5,0.7,3,1.1,4.6l0.3-0.2c0.9-0.6,1.8-1.4,2.2-2.4
							c0.2-0.4,0.1-1.1-0.1-1.6c-0.1-0.2-0.2-0.3-0.3-0.4c-0.1-0.1-0.2-0.1-0.3-0.1c-0.3,0-0.6,0-0.9-0.1c-0.3-0.1-0.5-0.4-0.7-0.6
							c-0.2-0.3-0.2-0.6-0.2-1c0-0.3,0.1-0.6,0.4-0.9c1.5-1.9,2.7-4,3.7-6.3l-6.3-2.6c-2.2-0.9-4.5-1.8-6.7-2.8l-1.2-0.5
							c-4.1-1.7-8.2-3.3-12.4-4.4c-8.4-2.1-17.2-1.6-25.6,0.4l-0.5,0.1c-3.5,0.9-7.1,1.9-10.3,3.7c-1.6,0.9-3.1,2-4.4,3.3
							c-0.6,0.6-1.1,1.3-1.6,1.9c-0.7,0.9-1.5,1.8-2.3,2.6l-0.8,0.7c-1.2,1.1-2.3,2.1-2.9,3.8c-0.7,1.7-1,3.7-1.3,5.5
							c-0.7,4.7-1,9.5-0.9,14.3c0,8,1.1,15.9,2.5,23.7c1.1-1.8,2.7-3.1,4.7-3.4c1.3-0.2,2.6,0.1,3.7,0.7
							C-1131.1-2216.9-1130.6-2216.4-1130.1-2215.8z M-1132.1-2206.3c-1.5-0.6-3-0.8-4.5-0.5c-0.2,0-0.3,0-0.4-0.1
							c-0.1-0.1-0.2-0.2-0.3-0.4c-0.1-0.2-0.1-0.4,0-0.5c0-0.1,0.1-0.3,0.3-0.4c1.7-0.9,3.5-1.3,5.4-1l0.2,0
							c0.9,0.2,2.3,0.5,3.3,1.1c0.8,0.5,1.3,1.2,1.5,2.1c0.1,0.5,0,1-0.3,1.3c-0.2,0.3-0.6,0.6-1.1,0.6c-0.8,0-1.3-0.4-1.9-0.9
							c-0.1-0.1-0.1-0.1-0.2-0.2C-1130.9-2205.6-1131.5-2206-1132.1-2206.3z"/>
					</g>
				</g>
			</g>
		</g>
		<g id="Smile-Teeth-Gap.svg1" transform="matrix(0.291546,0,0,0.261117,739.948,804.811)" class="st3">
			<g transform="matrix(1,0,0,1,-144.5,-146.5)">
				<g id="face-Smile-Teeth-Gap1">
					<path id="_xD83D__xDD8D_-Ink7" class="st1" d="M-1274.1-2487.9c1.6,1.1,4.2,3.7,2.4,6.5c-2.1,2.4-5.1-0.4-6.6-1.6
						c-1.4-1-2.9,1.5-1.6,2.7c10.7,8.8,15-7.3,6.7-8.9C-1274.2-2489.4-1274.5-2488.2-1274.1-2487.9z M-1289-2509.2l0.4-0.1l0.2,0
						c1.2-0.2,2.7-0.4,3.5,0.7c0.5,0.6,0.6,1.7,0,2.3c-1.1,1-2.4,0.6-3.7,0.7c-1.1,0.1-2.2,0.3-3.2,0.6c-2.3,0.7-4.3,2.1-6.3,3.6
						c-0.3,0.2-0.5-0.2-0.4-0.5c1.2-2.5,3.4-4.6,5.6-5.9C-1291.6-2508.4-1290.3-2508.9-1289-2509.2z M-1278.1-2474.3
						c3.6,0.3,11.3-1.6,14.6,1.2c12.1,16.9-36,21.3-30.8,2.6C-1291.1-2476.6-1283.4-2474.1-1278.1-2474.3z M-1278.7-2464.1
						c-0.9-0.1-2,0.7-2.2,1.3c-0.3,0.6-0.2,1.9-0.2,2.1c1.5,0.2,3.1,0.2,4.7,0.1C-1276.9-2462.1-1276.9-2463.9-1278.7-2464.1z
						 M-1271.6-2461.6c-0.2-1.8-1.4-2.3-2.4-2c-1,0.3-1.6,1.5-1.5,2.7c0,0.1,0,0.1-0.1,0.2
						C-1274.2-2460.9-1272.9-2461.2-1271.6-2461.6z M-1282.6-2463.7c-0.6-0.9-1.9-1.4-2.7-1.2c-1.4,0.3-1.6,2.3-1.6,2.7
						c1.3,0.5,2.7,0.9,4,1.2c0.3,0.1,0.5,0.1,0.8,0.2l0-0.2C-1282.1-2461.7-1282.1-2462.9-1282.6-2463.7z M-1266.8-2463.9
						c-1.4-2.5-4.5-0.7-4.3,2c0.3-0.1,0.5-0.2,0.8-0.3C-1269.1-2462.6-1267.9-2463.2-1266.8-2463.9z M-1278.1-2472.4
						c-1.9-0.2-3.5-0.1-4.8,0.1l0,0.5c-0.1,1.6-0.3,3.2,0.4,3.9c0.6,0.5,2.7,0.5,4.1,0.1C-1278-2467.9-1277.6-2471.3-1278.1-2472.4z
						 M-1275.1-2472.6c-0.3,1.6-0.5,3.5,0.2,4.1c0.7,0.6,2.8,0.5,3.3,0.1c0.5-0.4,0.5-2,0.3-3.8
						C-1272.4-2472.5-1274.2-2472.6-1275.1-2472.6z M-1283.7-2472.3l-0.6,0l-0.4,0c-0.9,0-1.9,0.1-2.8,0.3c-1.8,4.4,4.8,5.2,3.8-0.1
						L-1283.7-2472.3z M-1270.5-2472.2l0,0.2c-0.1,1.2,0,2.9,0.6,3.3c0.9,0.6,2.6,0.5,3.5-2.5
						C-1266.7-2472-1269.9-2472.1-1270.5-2472.2z M-1288.2-2498.5c0.4,0,0.8,0.1,1.1,0.4c0.3,0.3,0.6,0.7,0.9,1.1
						c0.5,0.9,0.8,2.2,0.8,3.6s-0.3,2.7-0.8,3.6c-0.2,0.5-0.5,0.9-0.9,1.1c-0.3,0.3-0.7,0.4-1.1,0.4c-0.4,0-0.8-0.1-1.1-0.4
						c-0.3-0.3-0.6-0.7-0.9-1.1c-0.5-0.9-0.8-2.2-0.8-3.6s0.3-2.7,0.8-3.6c0.2-0.5,0.5-0.9,0.9-1.1
						C-1288.9-2498.3-1288.6-2498.5-1288.2-2498.5z M-1263.7-2498.5c0.4,0,0.8,0.1,1.1,0.4c0.3,0.3,0.6,0.7,0.9,1.1
						c0.5,0.9,0.8,2.2,0.8,3.6s-0.3,2.7-0.8,3.6c-0.2,0.5-0.5,0.9-0.9,1.1c-0.3,0.3-0.7,0.4-1.1,0.4c-0.4,0-0.8-0.1-1.1-0.4
						c-0.3-0.3-0.6-0.7-0.9-1.1c-0.5-0.9-0.8-2.2-0.8-3.6s0.3-2.7,0.8-3.6c0.2-0.5,0.5-0.9,0.9-1.1
						C-1264.5-2498.3-1264.1-2498.5-1263.7-2498.5z M-1267-2510.3l0.3,0.1l0.2,0c3.4,0.8,7.7,2.4,9.2,6.1c0.1,0.5,0,0.6-0.1,0.7l0,0
						c0,0.1-0.1,0.1-0.3,0.2c-0.1,0-0.1,0-0.2,0c-0.7-0.2-1.3-0.5-1.9-0.8l-0.6-0.3c-0.7-0.4-1.4-0.8-2.2-1c-1.6-0.6-3.3-1-5-1.2
						c-0.4,0-0.7-0.2-1-0.4c-0.3-0.2-0.5-0.5-0.6-1c-0.1-0.5-0.1-0.9,0.2-1.4c0.2-0.4,0.5-0.6,0.8-0.8
						C-1267.8-2510.4-1267.4-2510.4-1267-2510.3z"/>
				</g>
			</g>
		</g>
	</g>
	<g>
		<g transform="matrix(0.4441,0,0,0.39775,0,0)">
			<path class="st0" d="M48.4,76.2c0,0-16.8-4.9-14.2-13.4c1.1-3.5,4.9-0.5,6.8,1c2.7,2.1,3.5,3.8,3.8,3.9
				c0.5,0.2-2.3-13.1,2.9-13.4C52.8,53.9,49.3,70.9,48.4,76.2z"/>
		</g>
		<g transform="matrix(0.4441,0,0,0.39775,0,0)">
			<path class="st1" d="M45.3,66.4c0-0.1,0-0.3,0-0.4c-0.1-2.2-0.5-6.5,0.4-9.2c0.4-1.3,1.1-2.1,2.4-1.6c0.6,0.2,0.9,0.7,1.1,1.4
				c0.3,1,0.4,2.4,0.4,3.9c-0.1,3-0.7,6.6-1.3,9.8c-0.5,2.9-0.8,5.5-0.8,6.8c0,0.5,0.4,0.9,0.8,0.9c0.4,0,0.8-0.4,0.8-0.9
				c0-1.3,0.6-3.6,1.1-6.4c0.6-3.3,1.1-7,1.2-10.1c0.1-3.7-0.8-6.5-2.8-7.3c-2.5-0.9-3.9,0.5-4.7,2.9c-0.9,3-0.7,7.8-0.2,10.1
				c0.2,0.7,0.4,1.2,0.5,1.4c0.3,0.6,0.7,0.5,0.9,0.3c0.1-0.1,0.2-0.2,0.2-0.4C45.5,67.4,45.5,67,45.3,66.4
				C45.4,66.5,45.4,66.5,45.3,66.4z"/>
		</g>
		<g transform="matrix(0.4441,0,0,0.39775,0,0)">
			<path class="st1" d="M44.9,67.7c-0.1-0.1-0.1-0.2-0.1-0.3c-0.1-0.2-0.2-0.4-0.4-0.6c-0.4-0.7-0.7-1.7-1.2-2.5
				c-0.3-0.6-0.7-1.1-1.2-1.5c-1.1-0.9-2.7-1.6-4.2-1.8c-1.2-0.2-2.4-0.1-3.2,0.4c-1.4,0.8-2.3,2.5-1.2,5.8c0.8,2.5,2.4,4.5,4.3,6
				c2.8,2.1,6.3,3.3,9.4,3.8l0.6,0.1c0,0.5,0.3,0.9,0.8,0.9c0.4,0,0.8-0.4,0.8-0.9c0-0.6-0.2-1-0.5-1.4c-0.4-0.4-0.9-0.6-1.4-0.7
				c-2.8-0.4-6.1-1.5-8.7-3.4c-1.6-1.2-3-2.9-3.7-5c-0.6-1.9-0.5-3,0.3-3.4c0.6-0.3,1.4-0.3,2.3-0.2c1.3,0.2,2.6,0.7,3.6,1.4
				c0.6,0.4,1,1.1,1.4,1.8c0.3,0.6,0.6,1.1,1,1.6c0.2,0.2,0.3,0.4,0.5,0.6c0.2,0.1,0.3,0.2,0.5,0.2c0.2,0.1,0.4,0,0.5-0.2
				C45.1,68,45,67.8,44.9,67.7z"/>
		</g>
	</g>
	<g>
		<g transform="matrix(0.4441,0,0,0.39775,0,0)">
			<path class="st0" d="M140.6,90.9c0,0-9.3-14.2-1.8-19.1c2-1.3,2,1.8,2.8,2.6c2.2,2.1,2.1,6.6,2,6.6c0,0,8.6-9.9,10.4-4.2
				C155.9,82.7,150.9,85.6,140.6,90.9z"/>
		</g>
		<g transform="matrix(0.430299,0.0983854,-0.10985,0.38539,224.026,-99.5667)">
			<path class="st1" d="M-266.9,410.1c0.1-0.1,0.2-0.2,0.3-0.3c0.1-0.2,0.2-0.4,0.3-0.6c0.8-1.5,2.6-3.8,4.3-4.9
				c0.7-0.4,1.4-0.7,2-0.5c0.5,0.2,1,0.7,1.4,1.7c0.7,1.8,0.2,3.5-0.8,5c-1.1,1.7-2.9,3.3-4.5,4.7c-2.1,1.8-4,3.5-4.9,5.1
				c-0.3,0.4-0.1,1,0.3,1.3c0.4,0.3,0.9,0.2,1.2-0.2c0.9-1.4,2.8-2.8,4.7-4.5c1.8-1.6,3.6-3.4,4.8-5.2c1.3-2.1,1.8-4.4,0.8-6.9
				c-0.7-1.6-1.6-2.4-2.5-2.7c-1-0.3-2.2,0-3.3,0.7c-2.3,1.5-4.6,4.9-5,6.5c-0.1,0.5-0.1,0.8,0,1c0.2,0.3,0.4,0.7,0.8,0.3
				C-266.9,410.6-266.8,410.4-266.9,410.1C-266.9,410.2-266.9,410.2-266.9,410.1z"/>
		</g>
		<g transform="matrix(0.486978,0.111345,-0.118956,0.417335,169.267,-174.812)">
			<path class="st1" d="M-95.7,513c0.1,0,0.2,0.1,0.3,0.1c0.7,0.1,1.3,0.7,2,1.4c1,1.2,1.9,2.7,2.4,3.7c0.1,0.3,0.3,0.7,0.5,1.1
				c0.1,0.3,0.3,0.5,0.4,0.7c0.1,0.3,0.1,0.5,0.1,0.6c-0.1,0.2,0,0.4,0.2,0.5c0.2,0.1,0.4,0,0.4-0.2c0.1-0.2,0.1-0.6,0-1.1
				c0-0.2,0-0.4,0-0.7c-0.1-0.6-0.3-1.2-0.5-1.5c-0.5-1.1-1.4-2.8-2.5-4.1c-0.8-1-1.8-1.7-2.7-1.9c-0.2,0-0.5-0.2-0.7-0.2
				c-0.2,0-0.4,0.1-0.6,0.4c-1.9,3-1.6,7-0.1,10.5c1.4,3.5,4,6.5,6.5,8c0.3,0.2,0.8,0,0.9-0.3c0.2-0.4,0-0.9-0.3-1.1
				c-2.3-1.3-4.6-4.1-5.9-7.2C-96.7,518.8-97.1,515.6-95.7,513z"/>
		</g>
	</g>
</g>
<g class="st2">
	<g transform="matrix(0.4441,0,0,0.39775,-345.369,-236.477)" class="st3">
		<g id="Gray-Short.svg" transform="matrix(0.681216,0,0,0.681216,1361.69,1133.76)">
			<g transform="matrix(1,0,0,1,-236.5,-283.5)">
				<g id="head-mono-Gray-Short">
					<path id="_xD83D__xDD8D_-Ink" class="st4" d="M-473.8-374.7c-6.3,0.7-13.7-0.9-17.9-6.6c-0.1-0.2-0.2-0.4-0.2-0.5
						c0-0.2,0.1-0.4,0.2-0.6c0.1-0.2,0.3-0.3,0.5-0.3c0.2,0,0.3,0,0.5,0.1l0.4,0.2c2.9,1.8,5.8,3.3,9.1,3.9c3.3,0.7,6.7,0.6,10-0.2
						c6-1.5,10.9-5.4,14.5-10.6c4-5.8,6.4-13,7-20.4c0.7-8.9-1-17.6-2.8-26.2c-1.9-9-3.9-18-6.3-26.8c-0.1-0.3-0.1-0.5-0.1-0.8
						c-0.7-0.3-1.5-0.2-2.2,0.1c-1.4,0.5-2.7,1.7-3.8,2.6c-0.4,0.3-0.8,0.7-1.1,0.9c-1.4,1.1-2.9,1.8-4.6,2
						c-1.8,0.1-3.5-0.5-5.1-1.3c-0.8-0.4-1.6-0.8-2.4-1.2c-2.3-1.1-4.5-2.3-7-3c-3.3-1-6.7-1.5-10.2-1.5c-6.1,0.1-12.3,1.8-16,7.6
						c-1.5,2.3-2.5,5-1.7,7.9c0.4,1.6,1.2,3,2.1,4.3l0.3,0.5c0.5,0.7,0.9,1.4,1,2.2c0.1,0.6,0,1.3-0.4,2.1c-0.3,0.5-0.6,0.9-0.9,1.3
						c-0.2,0.3-0.5,0.6-0.7,0.9c-0.4,0.6-0.8,1.4-1.1,2.1c-0.6,1.4-0.8,3-0.8,4.5c-0.1,1.9,0.2,3.7,0.4,5.6c0.2,1.3,0.3,2.6,0.4,3.9
						c0,0.2,0,0.4-0.1,0.5c-0.1,0.2-0.3,0.2-0.5,0.3c0,0-0.1,0-0.2,0c0,0.1,0,0.2,0.1,0.4c-0.1-0.2-0.2-0.3-0.4-0.5c0,0,0,0,0,0
						c-0.1-0.1-0.2-0.2-0.3-0.4c-0.2-0.2-0.4-0.4-0.6-0.5c-1-0.9-2.3-1.4-3.5-1.4c-1.2,0-2.4,0.4-3.3,1.4c-1.8,1.9-2.3,5-2.4,7.6
						c0,2.7,0.5,5.9,2.6,7.6c0.8,0.7,1.9,1.1,2.9,1.1c0.9,0,1.7-0.3,2.5-0.6c0.2-0.1,0.5-0.2,0.8-0.3c0.3-0.1,0.5-0.1,0.8,0
						c0.2,0.1,0.5,0.3,0.6,0.5c0.2,0.2,0.3,0.5,0.3,0.8c0,0.3,0,0.6-0.1,0.9c0,0.1-0.1,0.1-0.1,0.2l0.5,0.9c1.8,3.2,3.6,6.4,5.9,9.2
						c1.4,1.6,2.8,3.1,4.4,4.4l0.2,0.2c0.1,0.1,0.3,0.2,0.5,0.4c0.5,0.4,1,1,1.5,1c0.1,0,0.3,0,0.4,0c0.3,0,0.5-0.1,0.8,0
						c0.2,0.1,0.4,0.2,0.6,0.6c0.1,0.2,0.2,0.5,0.2,0.8c0,0.3-0.1,0.6-0.2,0.8c-0.3,0.5-0.6,0.8-0.9,1c-0.4,0.2-0.8,0.2-1.3,0.1
						c-1.1-0.2-2.3-1.3-3.1-1.9l-0.1-0.1c-1.7-1.5-3.4-3.1-4.8-4.9c-2.5-3.1-4.7-6.8-5.8-10.8c-0.8,0.6-1.8,0.9-2.8,0.9
						c-1.5,0.1-3.1-0.4-4.3-1c-2.6-1.4-4.2-4-4.9-6.9c-0.8-3.5-0.6-7.4,0.5-10.5c0-0.1,0.1-0.2,0.1-0.3c-3.3-9.4-4.3-19.9-4.1-29.9
						c0.1-4.7,0.4-9.6,1.4-14.2c0.5-2.1,1.2-4,2.5-5.6c0.7-0.9,1.6-1.6,2.4-2.4c0.8-0.6,1.5-1.2,2.1-2l0.3-0.4
						c0.1-0.1,0.1-0.2,0.2-0.2c1.1-1.4,2.2-2.7,3.5-3.8c1.5-1.3,3.2-2.3,5-3.1c3.8-1.8,7.9-2.9,12-3.7c8.8-1.8,17.8-1.9,26.5,0.6
						c4,1.2,8,2.8,11.9,4.4c0.4,0.1,0.7,0.3,1.1,0.5c3,1.2,6.1,2.5,9.1,3.7c1.4,0.6,2.8,1.2,4.2,1.7c0.3,0.1,0.6,0.4,0.8,0.7
						c0.2,0.3,0.2,0.7,0.1,1.1c-0.9,2.5-2,4.8-3.3,6.9c0.5,0.4,0.9,0.8,1.1,1.4c0.4,0.7,0.6,1.5,0.6,2.4c0,2.9-2.3,4.9-4.3,6.3
						c-0.2,0.1-0.4,0.2-0.5,0.2c1.9,8.1,3.7,16.3,5.3,24.5l0.1,0.6c1.6,8.6,2.6,17.4,1.1,26.1c-1.3,7.5-4.3,14.8-9,20.4
						C-460.9-378.9-467.1-375.4-473.8-374.7z M-515.2-424.2c-0.8-2.9-1.3-6.1-0.9-9c0.2-1.9,0.7-3.6,1.5-5.3c0.5-0.9,1-1.8,1.7-2.6
						l0.2-0.3c0.1-0.1,0.2-0.3,0.2-0.4c0-0.1,0-0.2,0-0.3c-0.1-0.3-0.3-0.5-0.5-0.8c-0.1-0.2-0.2-0.3-0.3-0.5
						c-1.8-2.7-3.2-6-2.7-9.4c0.4-3.4,2.4-6.5,4.5-8.9c4.6-5.2,11.8-6.4,18.1-6.1c3.7,0.2,7.3,0.9,10.8,2.1c1.7,0.6,3.4,1.4,5,2.2
						l0.4,0.2c0.2,0.1,0.4,0.2,0.6,0.3c1.3,0.7,2.6,1.4,4,1.8c2.7,0.7,4.5-0.8,6.5-2.4c0.7-0.5,1.3-1.1,2-1.6l0.1-0.1
						c1.3-0.8,2.8-1.4,4.3-1.4c1.3,0,2.5,0.5,3.5,1.6c0.2,0.2,0.3,0.5,0.4,0.7c0.1,0.2,0.2,0.4,0.3,0.6c0.4,1.5,0.7,3,1.1,4.5
						l0.3-0.2c0.9-0.6,1.8-1.4,2.2-2.4c0.2-0.4,0.1-1.1-0.1-1.6c-0.1-0.2-0.2-0.3-0.3-0.4c-0.1-0.1-0.2-0.1-0.4-0.1
						c-0.3,0-0.6,0-0.9-0.1c-0.3-0.1-0.5-0.4-0.7-0.6c-0.2-0.3-0.2-0.6-0.2-1c0-0.3,0.1-0.6,0.4-0.9c1.5-1.9,2.7-4,3.7-6.3l-6.3-2.6
						c-2.2-0.9-4.5-1.9-6.7-2.8l-1.2-0.5c-4.1-1.7-8.2-3.3-12.4-4.4c-8.4-2.1-17.2-1.6-25.6,0.4l-0.5,0.1c-3.5,0.9-7.1,1.9-10.3,3.7
						c-1.6,0.9-3.1,2-4.4,3.3c-0.6,0.6-1.1,1.3-1.6,1.9c-0.7,0.9-1.5,1.8-2.3,2.6l-0.8,0.7c-1.2,1.1-2.3,2.1-2.9,3.8
						c-0.7,1.7-1,3.7-1.3,5.5c-0.7,4.7-1,9.5-0.9,14.3c0,8,1.1,15.9,2.5,23.7c1.1-1.8,2.7-3.1,4.7-3.4c1.3-0.2,2.6,0.1,3.7,0.7
						C-516.2-425.3-515.7-424.8-515.2-424.2z M-517.2-414.7c-1.5-0.6-3-0.8-4.5-0.5c-0.2,0-0.3,0-0.4-0.1c-0.1-0.1-0.2-0.2-0.3-0.4
						c-0.1-0.2-0.1-0.4,0-0.5c0-0.1,0.1-0.3,0.3-0.4c1.7-0.9,3.5-1.3,5.4-1l0.2,0c0.9,0.2,2.3,0.5,3.3,1.1c0.8,0.5,1.3,1.2,1.5,2.1
						c0.1,0.5,0,1-0.3,1.3c-0.2,0.4-0.6,0.6-1.1,0.6c-0.8,0-1.3-0.4-1.9-0.9c-0.1-0.1-0.2-0.1-0.2-0.2
						C-516-414-516.6-414.4-517.2-414.7z"/>
				</g>
			</g>
		</g>
		<g id="Eyes-Closed.svg" transform="matrix(0.734096,0,0,0.734096,1398.38,1156.31)">
			<g transform="matrix(1,0,0,1,-144.5,-146.5)">
				<g id="face-Eyes-Closed">
					<path id="_xD83D__xDD8D_-Ink1" class="st4" d="M-558.4-520.4l0.2,0c1.2-0.3,2.4-0.8,3.5,0.1c1.1,0.8,1.2,2.3,0.4,3.3
						c-0.9,1.1-2,1-3.2,1h-0.1c-1,0-2,0-3-0.1c-0.9-0.1-1.9-0.2-2.8-0.4l-0.5-0.1c-0.5-0.1-1.1-0.3-1.4-0.9c-0.5-1,3.2-1.9,3.6-2
						C-560.6-519.9-559.5-520.1-558.4-520.4z M-556.3-533c-0.6,0.7-1.4,1.2-2.2,1.4c-2.2,0.7-5,0.3-6.8-0.4
						c-0.4-0.2-0.7-0.5-0.9-0.9c-0.2-0.4-0.2-0.8-0.1-1.2c0-0.1,0.1-0.2,0.1-0.4c0.1-0.3,0.4-0.6,0.7-0.7c0.3-0.2,0.7-0.2,1-0.1
						c0,0,0.1,0,0.1,0c1.1,0.4,3,1.1,4.5,0.9c0.9-0.1,1.7-0.4,2.2-1.4c0.2-0.5,0.2-1,0-1.4c-0.3-0.7-0.9-1.3-1.4-1.7
						c-0.7-0.6-1.5-0.8-2.2-1c-0.3-0.1-0.6-0.2-0.9-0.3c-0.1,0-0.2-0.1-0.2-0.2s-0.1-0.2-0.1-0.3s0-0.2,0-0.3c0-0.1,0.1-0.2,0.2-0.2
						c1.5-0.8,3.5-0.3,5,0.9c0.7,0.6,1.4,1.4,1.7,2.2c0.3,0.8,0.5,1.7,0.4,2.6C-555.4-534.4-555.8-533.6-556.3-533z M-581.3-550
						c0.4-0.2,0.8,0.8,0.9,1l0.2,0.6c0.3,0.9,0.6,1.8,1.3,2.5c0.5,0.6,1.4,1,2,0.4c0.6-0.6,0.3-1.3,0.4-2.1c0.2-1.4,1.8-2.8,2.8-1.3
						c2.3,3.2-1.2,7.8-4.5,7c-1.7-0.4-3-1.9-3.5-3.6l0-0.1C-582.2-546.8-582.5-549.4-581.3-550z M-551.9-547.7L-551.9-547.7
						c-1.1-2.8,2.8-4,3.1-1.5l0,0.2c0.3,2.8-0.3,6.5-3.4,6.7c-3.4,0.3-4.8-3.9-4.5-7c0-0.5,0.7-0.6,0.8-0.1l0,0.1
						c0.5,1.6,1.1,4.5,3,4.5C-551.4-544.8-551.5-546.7-551.9-547.7z M-549.4-555.7c2-0.1,1.9,3.3,0,3.4c-6.5,0.2-13,0.4-19.5,0.4
						l-1.2,0c-6.1,0-12.2,0.1-18.3-0.4c-0.5,0-0.4-0.9,0-0.8c6.4-1,12.8-1.3,19.3-1.7C-562.5-555.2-556-555.4-549.4-555.7z"/>
				</g>
			</g>
		</g>
	</g>
</g>
</svg>
