<?xml version="1.0" encoding="utf-8"?>
<!-- Generator: Adobe Illustrator 24.2.0, SVG Export Plug-In . SVG Version: 6.00 Build 0)  -->
<svg version="1.1" id="图层_1" xmlns="http://www.w3.org/2000/svg" xmlns:xlink="http://www.w3.org/1999/xlink" x="0px" y="0px"
	 viewBox="0 0 85 85" style="enable-background:new 0 0 85 85;" xml:space="preserve">
<style type="text/css">
	.st0{fill-rule:evenodd;clip-rule:evenodd;fill:#FFFFFF;}
	.st1{fill-rule:evenodd;clip-rule:evenodd;}
	.st2{display:none;}
	.st3{display:inline;}
	.st4{fill-rule:evenodd;clip-rule:evenodd;fill:#040000;}
</style>
<g>
	<g>
		<g transform="matrix(0.4441,0,0,0.39775,0,0)">
			<path class="st0" d="M49,103.6c0,0-6.6,7.5-6.7,7.6c0,0,3,2.7,3,2.7c0,0-6.1,10.3-7,11.5l6.7,16.6l-0.7,17.7
				c0,0,8.5,20.2,24.6,31.5c0,0,22,1.3,57.2-12.5l1.2-18.8c0,0,12.5-4.6,12.4-4.5c-0.1,0.1-10.7-22.9-10.7-22.9l13.6,14.8
				c0,0-1.2-11.7-15.2-35.8c0,0-14.1-9.6-16.2-12.8C111.3,98.8,48.6,104.1,49,103.6z"/>
		</g>
		<g transform="matrix(1,0,0,1,9.74329,11.9714)">
			<g transform="matrix(0.40331,0,0,0.360991,80.3807,70.9945)">
				<path class="st1" d="M-169.3-115.2L-169.3-115.2c-0.2-0.3-0.5-0.5-0.8-0.3c-0.3,0.2-0.4,0.6-0.2,0.9l1.7,4.9
					c0.9,2.5,1.7,5,2.6,7.4c0.6,1.6,1.3,3.2,2,4.8c2.8,6.2,6.2,13.2,10.3,19.3c1.6,2.5,3.3,4.9,5.2,7c1.3,1.5,2.7,2.8,4.1,4
					c0.5,0.4,1.1,0.3,1.5-0.2c0.4-0.5,0.3-1.3-0.2-1.7c-1.3-1.2-2.5-2.6-3.7-4c-1.7-2.1-3.4-4.3-5-6.7c-4-6-7.3-12.8-10.2-18.9
					c-0.7-1.6-1.4-3.1-2-4.7c-1-2.4-1.9-4.8-2.8-7.2c-0.2-0.5-0.5-1.3-0.9-2C-168.5-113.9-169.3-115.2-169.3-115.2L-169.3-115.2z"/>
			</g>
			<g transform="matrix(0.478983,0,0,0.411394,-83.6263,-26.4829)">
				<path class="st1" d="M273.2,163.1c-0.1,0-0.2,0.1-0.3,0.2l-0.1,0.1c-0.2,0.2-0.8,0.6-1.6,1c-0.3,0.2-0.7,0.4-1,0.6
					c-1.9,0.9-4.4,1.8-7,2.7c-3.8,1.4-7.8,2.7-10.6,3.6c-5.9,1.7-10.9,2.9-15.8,3.7c-3.7,0.6-7.3,0.9-11.3,1.1
					c-1.6,0.1-3.2,0.2-4.9,0.3c-0.3,0-0.6,0.3-0.6,0.7c0,0.4,0.3,0.7,0.6,0.7c1.7,0,3.3,0.1,4.9,0.1c4-0.1,7.7-0.5,11.4-1
					c5-0.7,10-1.9,16-3.7c2.4-0.7,5.7-1.8,9-3c3.2-1.2,6.4-2.6,8.8-3.7c0.4-0.2,0.8-0.4,1.2-0.7c0.5-0.4,0.9-0.9,1.1-1.2l0.4-0.5
					C273.8,163.5,273.7,162.9,273.2,163.1z"/>
			</g>
			<g transform="matrix(0.425336,0,0,0.310006,36.9594,169.419)">
				<path class="st1" d="M-59-453L-59-453c-0.1,0-0.1,0.1-0.2,0.2c-0.3,0.5,0,1.2,0.2,1.3c-0.1,0-0.2-0.1-0.2-0.1s0.2,0.2,0.2,0.3
					c0,0.3,0.2,0.6,0.5,0.5c0.2,0,0.4-0.3,0.4-0.6c0.1,0,0.2,0,0.3,0c0.5,0,1.1-0.1,1.9-0.1c6.9-0.5,23.5-1.8,27.2-2
					c4.4-0.2,8.9-0.4,13.3-0.8c3-0.2,6-0.5,8.9-0.9c1.4-0.2,6.8-0.7,10.2-1.3c0.6-0.1,1.1-0.1,1.5-0.3c0.5-0.2,0.8-0.4,1-0.6
					c0.4-0.1,0.7-0.7,0.6-1.3c-0.1-0.6-0.5-0.9-0.9-0.8c-0.3,0-0.7-0.1-1.2-0.1c-3.2,0.2-9.8,1.3-11.4,1.5c-2.9,0.4-5.8,0.7-8.8,0.9
					c-4.4,0.4-8.9,0.7-13.3,0.9c-3.7,0.2-20.4,1.8-27.3,2.6c-0.8,0.1-1.4,0.1-1.9,0.2c-0.4,0.1-0.6,0.2-0.8,0.2
					C-58.9-453.1-58.9-453.1-59-453z"/>
			</g>
			<g transform="matrix(0.427177,0,0,0.416617,38.0492,-38.0467)">
				<path class="st1" d="M22.1,188.3c-0.1-0.1-0.2-0.3-0.3-0.5c-1.4-2.4-5.2-8.9-5.6-9.6c-2.8-4.2-5.6-8.1-7.8-12.3
					c-0.6-1.1-1.1-2.3-1.7-3.5c-0.8-1.7-1.5-3.5-2-5.4c-0.1-0.4-0.5-0.6-0.9-0.5c-0.4,0.1-0.6,0.5-0.5,0.9c0.4,2.1,1,4,1.7,5.8
					c0.5,1.3,1.1,2.5,1.7,3.6c2.3,4.3,5.2,8.2,8,12.4c0.4,0.6,4.2,7.2,6,9.3c0.5,0.5,0.9,0.8,1,0.8c0.3,0,0.5,0,0.6-0.2
					c0-0.1,0.2-0.3,0.1-0.5C22.5,188.5,22.3,188.3,22.1,188.3z"/>
			</g>
			<g transform="matrix(0.4441,0,0,0.39775,0,0)">
				<path class="st1" d="M51.4,118.3c0-0.1,0-0.2,0-0.3c0-0.1-0.4-0.7-0.6-0.8c-0.2-0.1-0.6-0.1-0.6,1c0.2,0.8,0.4,1.6,0.6,2.3
					c0.5,1.8,1.2,3.5,1.7,5.2c1.1,3.5,2.3,6.9,3.5,10.4c0.8,2.3,1.5,4.6,2,6.9c0.1,0.5,0.5,0.8,1,0.6c0.4-0.1,0.7-0.6,0.6-1.1
					c-0.4-1.8-0.8-3.6-1.4-5.4c-1.3-4.1-2.9-8-4.3-12.1L51.4,118.3z"/>
			</g>
			<g transform="matrix(0.4441,0,0,0.39775,0,0)">
				<path class="st1" d="M106.6,103.5L106.6,103.5C106.6,103.5,106.6,103.5,106.6,103.5L106.6,103.5L106.6,103.5L106.6,103.5
					L106.6,103.5C106.7,103.5,106.7,103.5,106.6,103.5C106.7,103.5,106.7,103.5,106.6,103.5l0.2,0.1l0.1,0c0.3,0.5,0.6,1.9,0.7,2
					l2.7,6c1.6,3.3,2.9,6.8,4.5,10.1c0.7,1.4,1.5,2.8,2.2,4.2c0.2,0.4,0.6,0.5,0.9,0.3s0.4-0.6,0.3-1c-0.6-1.4-1.2-2.9-1.8-4.4
					c-0.6-1.5-1.3-2.9-1.9-4.4c-0.9-2-1.8-3.9-2.7-5.8l-2.9-5.9c-0.1-0.2-0.8-1.4-1.3-1.9c-0.3-0.3-0.6-0.5-0.8-0.5
					c-0.1,0-0.8,0.7-0.2,1L106.6,103.5z"/>
			</g>
			<g transform="matrix(0.490871,0,0,0.437694,-111.708,-85.603)">
				<path class="st1" d="M332.8,309.8c-0.2,0.1-0.5,0.1-0.8,0.2c-1.4,0.4-3.1,1-3.4,1.1l-13,4c-7,2.2-13.9,4.6-20.9,6.6
					c-2.3,0.7-4.7,1.2-7,1.8c-2.3,0.6-4.7,1.1-7.1,1.5c-0.3,0-0.5,0.4-0.5,0.7c0,0.3,0.3,0.6,0.6,0.5c2.4-0.3,4.8-0.7,7.2-1.3
					c2.4-0.5,4.7-1.1,7.1-1.8c7-1.9,13.9-4.3,20.9-6.5l13-4c0.3-0.1,2.1-0.6,3.5-1.2c0.3-0.1,0.6-0.3,0.8-0.5c0.5-0.3,0.9-0.6,1-0.7
					c0.3-0.3,0.2-0.6,0-0.8c-0.1-0.1-0.3-0.2-0.5-0.1C333.6,309.4,333.1,309.7,332.8,309.8z"/>
			</g>
			<g transform="matrix(0.4441,0,0,0.39775,0,0)">
				<path class="st1" d="M27.3,74.7c0.1-0.1,0.1-0.2,0.2-0.3c0.1-0.5-0.1-0.7-0.2-0.7c-0.1-0.1-0.3-0.1-0.6,0.1
					c-0.1,0.1-0.2,0.3-0.4,0.6c-0.4,0.7-0.9,2.2-1.4,3.6c-0.6,1.7-1.1,3.4-1.2,3.6c-0.4,1-1.2,2.4-2.1,4.1c-1.4,2.3-3.2,4.9-4.8,7.5
					c-0.4,0.7-0.8,1.3-1.1,2c-0.3,0.4-0.2,1,0.2,1.3c0.4,0.3,0.9,0.2,1.2-0.2c0.4-0.6,0.9-1.2,1.3-1.8c1.7-2.5,3.4-5.3,4.7-7.6
					c1.1-1.8,1.9-3.4,2.2-4.5c0.1-0.3,0.6-2,1.1-3.8c0.4-1.4,0.8-2.9,1-3.7C27.3,74.9,27.3,74.8,27.3,74.7z"/>
			</g>
			<g transform="matrix(0.4441,0,0,0.39775,0,0)">
				<path class="st1" d="M38.6,141.6c0-0.1,0.1-0.1,0-0.2c0-0.1,0-0.1,0-0.2c-0.1-0.6,0.1-1.6,0.3-2.6c0.5-2,1.3-4.3,1.5-5
					c1-2.9,2.2-5.2,3.5-7.3c1.8-2.8,3.9-5,6.1-7.4c0.5-0.6,1.1-1.2,1.6-1.8c0.2-0.2,0.3-0.6,0.1-0.9c-0.2-0.3-0.6-0.3-0.8-0.1
					c-0.8,0.7-1.5,1.3-2.2,2c-1.7,1.7-3.3,3.5-4.7,5.5c-1.9,2.6-3.5,5.6-4.8,9.5c-0.3,0.8-1.3,3.8-1.6,6.1c-0.2,1-0.3,1.9-0.1,2.4
					c0.1,0.3,0.3,0.5,0.5,0.6c0.2,0.2,0.4,0.2,0.6,0C38.8,142.1,38.8,141.8,38.6,141.6z"/>
			</g>
			<g transform="matrix(0.457626,0,0,0.41885,-25.9991,-42.5504)">
				<path class="st1" d="M73.6,192.7c0.1-0.2,0.1-0.5-0.1-0.6c-0.2-0.2-0.4-0.7-0.6-0.8c-0.1-0.1-0.3-0.2-0.4-0.2
					c-0.2,0-0.4,0.1-0.5,0.5c0,0,0.1,0.8,0.5,2c1.4,3.7,5.2,12.6,5.8,14c2.2,5,4.5,10,6.9,14.9c2.5,4.9,5.1,9.7,7.9,14.3
					c0.2,0.4,0.7,0.5,1,0.2c0.3-0.2,0.4-0.7,0.2-1.1c-2.7-4.6-5.3-9.4-7.7-14.3c-2.4-4.9-4.8-9.8-6.9-14.7c-0.6-1.4-4.3-10.4-6-13.9
					C73.7,193,73.6,192.8,73.6,192.7z"/>
			</g>
			<g transform="matrix(0.476138,0,0,0.400586,-72.894,-4.67848)">
				<path class="st1" d="M237.6,81.7L237.6,81.7l2.4,2.7c1.3,1.3,2.5,2.7,3.9,4c0.9,0.9,1.9,1.7,2.9,2.4c0.7,0.5,1.5,1.1,2.2,1.5
					c0.5,0.3,1.1,0.6,1.6,0.8c0.4,0.2,0.9-0.1,1.1-0.6c0.1-0.5-0.1-1.1-0.5-1.3c-0.5-0.2-1-0.4-1.4-0.7c-0.7-0.4-1.4-0.9-2.1-1.4
					c-0.9-0.7-1.8-1.4-2.7-2.2c-1.3-1.2-2.6-2.6-3.9-3.9l-2.5-2.5c0,0-1.1-1.1-1.5-1c-0.4,0.1-0.7,0.1-0.7,0.6c0,0.4,0,0.7,0.4,1
					C237,81.3,237.4,81.6,237.6,81.7z M237.1,80.9C237,80.9,237,80.9,237.1,80.9c-0.1,0-0.2,0.1-0.2,0
					C236.9,80.8,237,80.8,237.1,80.9z M237.3,80.3L237.3,80.3C237.3,80.3,237.2,80.3,237.3,80.3C237.3,80.3,237.3,80.3,237.3,80.3z"
					/>
			</g>
			<g transform="matrix(0.4441,0,0,0.39775,0,0)">
				<path class="st1" d="M107.9,102.5c0-0.1,0-0.3-0.1-0.4c0-0.1,0-0.2-0.1-0.1l0,0l0,0c0,0,0,0,0.1,0l0,0l0,0.2
					c-0.1-0.1-0.1-0.2,0-0.3c-1.3-1.7-1.4-0.3-0.8,0.8c0.2,0.4,1.3,1.5,1.3,1.5c0.8,1,1.3,1.7,1.7,2.2c0.7,0.9,1.3,1.5,2.7,3.1
					c1.7,1.9,3.5,3.8,5.3,5.7c0.7,0.8,1.4,1.6,2.1,2.5c0.3,0.4,0.9,0.4,1.2,0.1c0.4-0.4,0.4-1,0.1-1.4c-0.7-0.9-1.5-1.7-2.2-2.6
					c-1.7-1.9-3.6-3.7-5.3-5.6l-4.6-5.1C109.1,103.3,108.3,102.9,107.9,102.5z"/>
			</g>
			<g transform="matrix(0.439492,0,0,0.352705,10.7443,88.1794)">
				<path class="st1" d="M82.6-159.1c0-0.3-0.1-0.5-0.3-0.6c-0.3-0.2-0.7,0.1-0.6,1.1c0.1,0.4,0.2,1,0.4,1.7
					c0.3,0.9,0.8,1.9,0.9,2.2l4.1,9.8c2.3,5.3,5,10.7,7.1,16.4c0.7,1.9,1.3,3.8,1.8,5.7c0.5,1.9,1,3.9,1.3,5.9
					c0,0.4,0.4,0.7,0.7,0.6c0.3-0.1,0.6-0.4,0.5-0.8c-0.2-2.1-0.5-4.2-1-6.2c-0.5-2-1.1-4-1.8-5.9c-2.1-5.7-4.8-11.2-7.1-16.5
					l-4.3-9.7c-0.1-0.3-0.5-1.2-0.9-2.1C83-158.2,82.7-158.6,82.6-159.1C82.6-159,82.6-159,82.6-159.1z M82.2-158.6L82.2-158.6
					L82.2-158.6L82.2-158.6z"/>
			</g>
			<g transform="matrix(0.4441,0,0,0.39775,0,0)">
				<path class="st1" d="M23.2,112.1c0.1-0.1,0.1-0.2,0.1-0.4c0-0.2-0.3-0.4-0.5-0.4c-0.2-0.1-0.3,0-0.5,0.4c0,0.1,0,0.2-0.1,0.3
					c-0.2,0.8-0.2,3-0.2,3.3c-0.2,2.9-0.5,5.9-0.7,8.8c-0.1,1.2-0.2,2.4-0.2,3.6c0,0.8,0,1.6,0,2.4c0,0.5,0.4,1,0.9,1
					c0.5,0,0.9-0.4,0.9-1c0-1,0.1-1.9,0.2-2.9c0.1-3.9,0.2-7.9,0.3-11.8c0-0.3,0-2.4-0.1-3.2C23.3,112.1,23.2,112.1,23.2,112.1z"/>
			</g>
			<g transform="matrix(0.621286,0,0,0.472447,-368.283,-157.721)">
				<path class="st1" d="M628.8,433.5C628.8,433.5,628.8,433.5,628.8,433.5L628.8,433.5c0.1-0.1,0.1-0.1,0.1-0.1L628.8,433.5
					c0.1-0.1,0.1-0.2,0.1-0.2c0.1-0.2,0-0.4-0.2-0.5c-0.1-0.1-0.3,0-0.4,0.3c-0.1,0.3-0.3,1.1-0.3,1.2l-0.5,3.4
					c-0.2,1.5-0.4,3-0.6,4.4c-0.2,1.5-0.3,3-0.4,4.5c-0.2,3.8-0.5,7.7-0.6,11.6c-0.2,3.9-0.3,7.7-0.3,11.6c0,0.4,0.2,0.7,0.5,0.7
					c0.3,0,0.5-0.3,0.5-0.7c0.1-3.8,0.2-7.7,0.4-11.5c0.2-3.8,0.4-7.7,0.7-11.5c0.1-1.5,0.2-3,0.3-4.4c0.1-1.5,0.2-2.9,0.4-4.4
					l0.4-3.4C628.9,434.5,628.8,433.8,628.8,433.5z M628.8,433.5c0,0-0.1,0-0.1,0C628.7,433.6,628.8,433.6,628.8,433.5z
					 M628.9,433.4L628.9,433.4C628.9,433.4,628.8,433.4,628.9,433.4L628.9,433.4C628.8,433.5,628.8,433.5,628.9,433.4L628.9,433.4
					C628.9,433.5,628.9,433.5,628.9,433.4L628.9,433.4z"/>
			</g>
			<g transform="matrix(0.429891,0,0,0.38758,27.7355,22.0118)">
				<path class="st1" d="M-40.7,77.7C-40.7,77.7-40.7,77.7-40.7,77.7L-40.7,77.7L-40.7,77.7L-40.7,77.7L-40.7,77.7L-40.7,77.7
					C-40.7,77.7-40.7,77.7-40.7,77.7C-40.7,77.7-40.7,77.7-40.7,77.7c0.1-0.3,0-0.5-0.2-0.6c-0.2-0.1-0.5-0.1-0.6,0.2
					c-0.1,0.2-0.1,0.6,0,1.1c0.2,0.6,0.6,1.5,1.1,2.5c0.3,0.7,0.7,1.4,1.1,2.1c1.3,2.1,2.7,4.1,2.9,4.5c2.8,4.2,5.8,8.3,9.1,12.1
					c2.6,3.1,5.3,6.1,8.3,8.7c0.7,0.7,1.5,1.2,2.3,1.9c0.3,0.3,0.8,0.2,1-0.1c0.2-0.3,0.2-0.9-0.1-1.1c-0.7-0.7-1.4-1.4-2.1-2.1
					c-2.8-2.8-5.5-5.5-8.1-8.5c-3.2-3.8-6.3-7.7-9.1-11.9c-0.3-0.4-1.6-2.4-3-4.4c-0.4-0.6-0.9-1.3-1.3-1.9
					c-0.6-0.9-1.1-1.6-1.3-2.2C-40.6,77.9-40.7,77.8-40.7,77.7z"/>
			</g>
			<g transform="matrix(0.433198,0,0,0.35011,23.639,107.116)">
				<path class="st1" d="M51.1-137.1c-1.4,0.5-3.8,1.5-4,1.5c-2.4,0.9-4.8,1.7-7.2,2.5c-1.6,0.5-3.2,1.1-4.8,1.5
					c-8.1,2.4-16.1,4.9-24.3,6.6c-5.4,1.1-10.9,1.8-16.4,1.9c-0.5,0-0.8,0.5-0.8,1c0,0.6,0.4,1,0.8,1c5.7,0,11.2-0.6,16.7-1.7
					c8.2-1.6,16.3-4.3,24.4-6.8c1.6-0.5,3.2-1.1,4.8-1.7c2.4-0.9,4.8-1.8,7.2-2.8c0.2-0.1,3.7-1.3,4.7-2.1c0.3-0.2,0.4-0.4,0.5-0.5
					c0.1-0.3,0.1-0.5,0-0.7c-0.1-0.1-0.1-0.3-0.4-0.3c-0.1,0-0.4,0-0.9,0.1C51.3-137.4,51.2-137.3,51.1-137.1z"/>
			</g>
			<g transform="matrix(0.33119,0,0,0.3632,262.047,74.1896)">
				<path class="st1" d="M-649.2-61.3c0.1-0.1,0.1-0.2,0.1-0.3c-0.1-0.7-0.4-0.8-1.2,0.3c-0.1,0.1-0.2,0-0.3,0.2
					c-0.2,0.2-0.2,0.6-0.3,1.1c-0.3,1.5-0.3,3.7-0.4,4.2c-0.2,3.4-0.7,6.8-0.8,10.2c0,0.6,0,1.2,0,1.8c0,0.9,0.1,1.8,0.3,2.7
					c0,0.5,0.4,0.9,1,0.9c0.5,0,1-0.4,1-0.9c0.1-1,0.3-1.9,0.4-2.9c0.4-3.9,0.6-7.8,0.8-11.7c0-0.5,0.1-2.7,0-4.3c0-0.4,0-0.8-0.1-1
					C-649.1-61.2-649.2-61.1-649.2-61.3C-649.2-61.3-649.2-61.3-649.2-61.3z"/>
			</g>
			<g transform="matrix(0.4441,0,0,0.39775,0,0)">
				<path class="st1" d="M26.5,74.8c0.1,0,0.2-0.1,0.2-0.2c0.1-0.2,0.1-0.4,0.1-0.4c0-0.2-0.3-0.5-0.7-0.2c-0.1,0-0.1,0.1-0.2,0.2
					c-0.1,0-0.2,0-0.3,0.1c-0.3,0.1-0.6,0.4-0.9,0.8c-1.1,1-2.5,2.7-3.6,4c-0.7,0.9-1.2,1.6-1.4,1.9c-0.3,0.4-0.2,0.9,0.1,1.2
					c0.3,0.3,0.8,0.3,1.1-0.1c0.2-0.2,0.6-0.6,1.1-1.2c0.5-0.6,1-1.3,1.6-2c0.7-0.8,1.4-1.6,1.9-2.3c0.3-0.4,0.6-0.8,0.7-1.1
					C26.3,75.1,26.5,74.9,26.5,74.8z"/>
			</g>
			<g transform="matrix(0.4441,0,0,0.39775,0,0)">
				<path class="st1" d="M21,81c0.1-0.2,0.1-0.5-0.1-0.6c-0.2-0.1-0.4-0.1-0.6,0.1c-0.2,0-0.1,0.1-0.2,0.2c-0.3,0.1-0.1,0.3-0.2,0.6
					c0,0.1,0,0.1,0,0.2c0,0.3,0.2,0.5,0.4,0.7c0.2,0.3,0.6,0.5,0.8,0.7c0.4,0.4,0.9,0.3,1.2-0.1c0.3-0.4,0.3-1-0.1-1.4
					c-0.2-0.2-1.1-0.4-0.9-0.8c0.1-0.1-0.3,0.2-0.2,0.3C21.2,81.1,21,81,21,81C21,81.1,21,81,21,81z"/>
			</g>
			<g transform="matrix(0.4441,0,0,0.39775,0,0)">
				<path class="st1" d="M77.7,138.9c0.1,0,0.1-0.1,0-0.1c0.1-0.2,0-0.4-0.1-0.5c-0.1-0.1-0.2-0.1-0.3-0.2c-0.1,0-0.3,0.1-0.4,0.3
					c-0.1,0.1-0.1,0.3-0.2,0.7c-0.1,0.4-0.2,0.9-0.2,1.4c-0.1,1.3,0,3,0,3.3c-0.1,2.8-0.6,5.9-0.6,8.8c0,1.3,0,2.6,0.2,3.9
					c0,0.5,0.4,0.8,0.8,0.8c0.4,0,0.7-0.5,0.7-0.9c0-0.8,0-1.6,0-2.4c0.1-3.3,0.5-6.8,0.5-10.1c0-0.3,0-1.9-0.1-3.3
					c0-0.5-0.1-1-0.2-1.4C77.8,139.1,77.7,139,77.7,138.9z M77.2,139.1C77.3,139.1,77.3,139.1,77.2,139.1
					C77.3,139.1,77.3,139.1,77.2,139.1z M77.7,138.8L77.7,138.8C77.7,138.8,77.7,138.8,77.7,138.8L77.7,138.8
					c-0.1,0.1-0.1,0.1-0.1,0.1l0,0l0,0l0.1,0L77.7,138.8L77.7,138.8C77.7,138.9,77.7,138.8,77.7,138.8z"/>
			</g>
			<g transform="matrix(0.4441,0,0,0.39775,0,0)">
				<path class="st1" d="M84.8,137.1c0-0.1,0-0.2,0-0.3c0-0.2-0.7-0.4-0.8,0.3c-0.1,0.5-0.2,1.7-0.2,1.8l-0.3,5.2
					c-0.1,2.3-0.1,4.8-0.2,7.3c0,0.8-0.1,1.6-0.1,2.4c-0.1,0.8-0.1,1.6-0.2,2.3c-0.1,0.4,0.1,0.8,0.5,0.9c0.4,0.1,0.7-0.2,0.8-0.6
					c0.3-1.2,0.5-2.4,0.6-3.7c0.2-2.9,0-5.9,0.2-8.5l0-5.2C85,138.9,84.8,137.7,84.8,137.1C84.8,137.2,84.8,137.2,84.8,137.1z"/>
			</g>
			<g transform="matrix(0.4441,0,0,0.39775,0,0)">
				<path class="st1" d="M30.4,128.3c0,0.1,0,0.1-0.1,0.2c-0.1,0.9-0.5,3.3-0.5,3.5c-0.1,2.1-0.5,4.1-0.8,6.2
					c-0.1,0.9-0.2,1.8-0.3,2.8c0,0.5,0.3,0.9,0.7,0.9c0.4,0,0.8-0.3,0.8-0.8c0.2-2.1,0.6-4.2,0.8-6.2c0.1-0.9,0.2-1.9,0.2-2.8
					c0-0.3,0-2.6,0-3.5c0-0.2,0-0.4,0-0.4c0-0.2-0.9-0.9-0.9,0C30.4,128.2,30.4,128.2,30.4,128.3z"/>
			</g>
			<g transform="matrix(0.4441,0,0,0.437143,0,-86.3121)">
				<path class="st1" d="M34.8,323l-0.5,2.5c-0.1,1.1-0.2,2.2-0.3,3.3c-0.1,1.1-0.2,2.2-0.2,3.4c0,0.4,0.3,0.8,0.7,0.8
					c0.4,0,0.8-0.3,0.8-0.7c0-0.9,0.1-1.7,0.2-2.6c0.1-1.3,0.2-2.6,0.4-3.9c0-0.3,0.3-1.4,0.3-2.3c0-0.6-0.2-1.1-0.5-1.3
					c-0.3-0.2-0.5-0.3-0.7-0.1c-0.1,0.1-0.2,0.1-0.2,0.2C34.6,322.4,34.5,322.8,34.8,323z"/>
			</g>
			<g transform="matrix(0.4441,0,0,0.39775,-9.74329,-11.9714)">
				<path class="st1" d="M110.8,100.2c0-0.2-0.1-0.4-0.3-0.4c0,0-0.4-0.1-0.6,0.5c0,0.1-0.1,0.2-0.2,0.5c-0.2,1-0.2,3.1-0.4,4.9
					l-1,10.3c-0.5,5.7-1,11.4-1.5,17.2c-0.2,2.5-0.3,4.9-0.5,7.4c0,0.5,0.3,0.9,0.7,0.9c0.4,0,0.8-0.3,0.8-0.8l2-24.5l0.8-10.2
					c0.1-1.8,0.3-4,0.1-5C110.9,100.5,110.8,100.3,110.8,100.2C110.8,100.2,110.8,100.2,110.8,100.2z"/>
			</g>
		</g>
		<g transform="matrix(0.4441,0,0,0.480185,0,-162.03)">
			<path class="st1" d="M72.8,419.1c-0.4,0.8-0.7,1.7-0.9,2.7c-0.5,2.4-0.1,4.5,0.8,6.4c-1.4,0.8-2.4,1.9-2.7,3
				c-1.2,4.2,0.9,8.2,4.7,11.2c-1.1,4.3,0.4,7.1,3.1,9c-0.5,1.3-0.6,2.8-0.1,4.6c0.2,0.7,0.5,1.5,0.9,2.2c0.2,0.5,0.8,0.7,1.3,0.5
				c0.5-0.2,0.7-0.7,0.5-1.2c-0.3-0.7-0.4-1.4-0.5-2c-0.2-1.1-0.2-2.1,0.1-3l0,0c5.4,2.4,13.7,1.8,17.2,0.9c0.8-0.2,1.4-0.4,1.7-0.7
				c0.4-0.2,0.5-0.5,0.6-0.8c0.4-1.4-0.4-2.8-2.2-3.9c-0.3-0.2-0.6-0.3-0.9-0.4c2-0.7,3.6-1.9,4.4-3.6c0.7-1.3,0.3-2.5-1-3.5
				c-0.9-0.7-2.4-1.4-4.1-1.9c1.4,0,2.6-0.1,3.7-0.3c2.4-0.5,3.8-1.6,3.9-2.8c0.3-3-1.3-5.4-4.1-7c0.7-0.5,1.3-1.1,1.7-1.8
				c1-2,0.6-4-0.9-5.9c-2.2-2.8-6.9-5.3-11.8-6.3c-5.5-1.2-11.3-0.5-14.3,3c-2.3-2.1-3.9-4.3-4.2-6.2c-0.8-4.6,2.8-5.9,7.3-5.9
				c5.2,0,11.5,1.9,14.7,3.6c0.5,0.3,0.9,0.5,1.2,0.8c0.6,0.5,1,0.8,0.5,1.1c-0.2,0.1-0.2,0.4-0.1,0.5c0.1,0.2,0.4,0.2,0.6,0.1
				c0.6-0.4,0.7-0.9,0.5-1.4c-0.3-0.6-1-1.3-2.1-1.9c-3.3-2-9.9-4.1-15.3-4.3c-5.7-0.2-10.1,1.8-9.3,7.7
				C68,413.9,70,416.5,72.8,419.1z M97.1,451.1c-0.1-0.2-0.2-0.3-0.3-0.5c-0.5-0.5-1.3-0.9-2.3-1.3c-3.2-1.1-8.1-1.3-11.5,0.1
				c-0.8,0.3-1.5,0.8-2,1.3c4.2,1.8,10.1,1.8,13.8,1.2C95.8,451.8,96.7,451.1,97.1,451.1z M76.7,443.9c-0.4,2.5,0.6,4.3,2.2,5.6
				c0.8-0.9,1.9-1.5,3.2-2.1c0.4-0.2,0.8-0.3,1.3-0.4c-0.7-0.2-1.4-0.5-2.1-0.8C79.6,445.6,78,444.8,76.7,443.9z M77.4,441.7
				c1.4,1,3,1.8,4.7,2.5c3.6,1.5,7.7,2.3,11,2c2.5-0.2,4.6-1.1,5.6-3c0.2-0.4-0.1-0.7-0.4-1.1c-0.7-0.6-1.9-1.1-3.3-1.5
				c-1.9-0.5-4.2-0.9-6.6-1.1c-3.3-0.2-6.8,0-9.1,0.9C78.5,440.9,77.8,441.2,77.4,441.7z M73.8,430.1c-0.8,0.5-1.3,1-1.5,1.7
				c-1,3.2,0.6,6.1,3.3,8.5c0.7-0.7,1.6-1.3,2.8-1.8c2.1-0.8,5-1.2,8.1-1.1c-1.1-0.3-2.2-0.6-3.2-1C79.4,435,75.9,432.9,73.8,430.1z
				 M86.9,427.8c-3.7-0.1-7.4,0.3-10.2,1.1c-0.3,0.1-0.5,0.2-0.8,0.2c1.2,1.5,2.9,2.7,4.8,3.8c5.5,3,13,4.1,17.5,3.6
				c1-0.1,1.7-0.3,2.3-0.6c0.3-0.1,0.5-0.3,0.6-0.5c0.3-2.8-1.7-4.7-4.7-5.9l-0.2,0C93.6,429.8,90.3,429.1,86.9,427.8z M96.7,427.4
				c1-0.2,1.7-0.7,2.1-1.5c0.7-1.3,0.3-2.6-0.7-3.8c-2-2.5-6.1-4.5-10.5-5.4c-4.7-1-9.6-0.6-12.1,2.4c2.1,1.6,4.5,3.2,6.9,4.5
				c1.4,0.8,2.9,1.5,4.3,2.1c1.8,0.1,3.6,0.2,5.4,0.6C93.8,426.4,95.3,426.9,96.7,427.4z M74.5,420.6c-0.2,0.5-0.3,1-0.4,1.5
				c-0.4,1.9-0.1,3.5,0.6,5c0.4-0.2,0.8-0.3,1.2-0.4c1.8-0.5,4-0.9,6.3-1.1C79.5,424.2,76.8,422.5,74.5,420.6z"/>
		</g>
	</g>
	<g transform="matrix(1,0,0,1,243.224,-97.9635)" class="st2">
		<g transform="matrix(0.4441,0,0,0.39775,122.255,342.337)" class="st3">
			<g id="Gray-Short.svg3" transform="matrix(0.681216,0,0,0.681216,1361.69,1133.76)">
				<g transform="matrix(1,0,0,1,-236.5,-283.5)">
					<g id="head-mono-Gray-Short3">
						<path class="st0" d="M-2873.8-2194.9c0,0-4.7,20.6,9.3,14.6c0,0,7.8,20.2,14.4,18.2c0,0,5.2,4.7,9.4,5.1
							c0,0,20.7,21.2,38-11.6c6.9-13,2.6-41.6-0.4-52.2c-1.3-4.6-1.5-9.4-1.7-10.7c0,0,8.9-6.2,2.4-9.2c0,0,4.7-7.2,3.8-7.9
							c-0.9-0.6-31-15.3-45.9-12.1c-15,3.3-22.1,5.3-27,12.6c-4.9,7.3-5,3.3-5.9,10.4C-2878.3-2230.6-2880.3-2199.1-2873.8-2194.9z"
							/>
						<path id="_xD83D__xDD8D_-Ink8" class="st1" d="M-2823.7-2149.5c-6.3,0.7-13.7-0.9-17.9-6.6c-0.1-0.2-0.2-0.4-0.2-0.6
							c0-0.2,0.1-0.4,0.2-0.6c0.1-0.2,0.3-0.3,0.5-0.3c0.2,0,0.3,0,0.5,0.1l0.4,0.2c2.9,1.8,5.8,3.3,9.1,3.9c3.3,0.7,6.7,0.6,10-0.3
							c6-1.5,10.9-5.4,14.5-10.6c4-5.8,6.4-13.1,7-20.4c0.7-8.8-1-17.6-2.8-26.2c-1.9-9-3.9-18-6.3-26.8c-0.1-0.3-0.1-0.5-0.1-0.7
							c-0.7-0.3-1.4-0.2-2.2,0.1c-1.4,0.5-2.7,1.7-3.8,2.6c-0.4,0.3-0.8,0.7-1.1,0.9c-1.4,1.1-2.9,1.8-4.6,2
							c-1.8,0.1-3.5-0.5-5.1-1.3c-0.8-0.4-1.6-0.8-2.4-1.2c-2.3-1.2-4.6-2.3-7-3c-3.3-1-6.7-1.5-10.2-1.5c-6.1,0.1-12.3,1.8-16,7.6
							c-1.5,2.3-2.5,5-1.7,7.9c0.4,1.6,1.2,3,2.1,4.3l0.3,0.4c0.5,0.7,0.9,1.4,1,2.2c0.1,0.6,0,1.3-0.4,2.1
							c-0.3,0.5-0.6,0.9-0.9,1.3c-0.2,0.3-0.5,0.6-0.7,0.9c-0.4,0.7-0.8,1.4-1.1,2.1c-0.6,1.4-0.8,3-0.9,4.5
							c-0.1,1.9,0.2,3.7,0.4,5.6c0.2,1.3,0.3,2.6,0.4,3.9c0,0.2-0.1,0.4-0.1,0.5c-0.1,0.2-0.3,0.3-0.4,0.3c-0.1,0-0.1,0-0.2,0
							c0,0.1,0.1,0.3,0.1,0.4c-0.1-0.2-0.2-0.3-0.4-0.5c0,0,0,0,0,0c-0.1-0.1-0.2-0.2-0.3-0.4c-0.2-0.2-0.4-0.4-0.6-0.5
							c-1-0.9-2.3-1.4-3.5-1.4c-1.2,0-2.4,0.4-3.3,1.4c-1.8,1.9-2.3,5-2.4,7.6c0,2.7,0.5,5.9,2.6,7.6c0.8,0.7,1.9,1.1,2.9,1.1
							c0.9,0,1.7-0.3,2.5-0.7c0.2-0.1,0.5-0.2,0.7-0.3c0.3-0.1,0.5-0.1,0.8,0c0.3,0.1,0.5,0.3,0.6,0.5c0.2,0.2,0.3,0.5,0.3,0.8
							c0,0.3,0,0.6-0.1,0.9c0,0.1-0.1,0.1-0.1,0.2l0.5,0.8c1.8,3.2,3.6,6.4,5.9,9.2c1.4,1.6,2.8,3.1,4.4,4.4l0.2,0.2
							c0.1,0.1,0.3,0.2,0.4,0.4c0.5,0.4,1,1,1.5,1c0.2,0,0.3,0,0.4,0c0.3,0,0.5-0.1,0.8,0.1c0.2,0.1,0.4,0.3,0.6,0.6
							c0.1,0.2,0.2,0.5,0.2,0.8c0,0.3-0.1,0.6-0.2,0.8c-0.3,0.5-0.6,0.8-0.9,1c-0.4,0.2-0.8,0.2-1.3,0.1c-1.1-0.2-2.3-1.3-3.1-1.9
							l-0.2-0.1c-1.7-1.5-3.4-3.1-4.8-4.9c-2.5-3.1-4.7-6.8-5.8-10.8c-0.8,0.6-1.8,0.9-2.8,0.9c-1.5,0.1-3.1-0.4-4.3-1
							c-2.6-1.4-4.2-4-4.9-6.9c-0.9-3.5-0.6-7.4,0.5-10.5c0-0.1,0.1-0.2,0.1-0.3c-3.3-9.4-4.4-19.9-4.1-29.9
							c0.1-4.7,0.4-9.6,1.4-14.2c0.4-2.1,1.2-4,2.5-5.6c0.7-0.9,1.6-1.6,2.4-2.4c0.8-0.6,1.5-1.2,2.1-2l0.3-0.4
							c0.1-0.1,0.1-0.2,0.2-0.2c1.1-1.4,2.2-2.7,3.5-3.8c1.5-1.3,3.2-2.3,5-3.1c3.8-1.8,7.9-2.9,12-3.7c8.8-1.8,17.8-1.9,26.5,0.6
							c4,1.2,8,2.8,11.9,4.4c0.4,0.1,0.7,0.3,1.1,0.4c3,1.2,6.1,2.5,9.1,3.7c1.4,0.6,2.8,1.2,4.2,1.7c0.3,0.1,0.6,0.4,0.8,0.7
							c0.2,0.3,0.2,0.7,0.1,1.1c-0.9,2.5-2,4.8-3.3,6.9c0.5,0.4,0.9,0.8,1.2,1.4c0.4,0.7,0.6,1.5,0.6,2.4c0.1,2.9-2.3,4.9-4.3,6.3
							c-0.2,0.1-0.4,0.2-0.5,0.2c1.9,8.1,3.7,16.3,5.3,24.5l0.1,0.6c1.6,8.6,2.6,17.4,1.1,26.1c-1.3,7.5-4.3,14.8-9,20.4
							C-2810.8-2153.7-2817-2150.3-2823.7-2149.5z M-2865.1-2199c-0.8-2.9-1.3-6.1-0.9-9c0.2-1.9,0.7-3.6,1.5-5.3
							c0.5-0.9,1-1.8,1.7-2.6l0.2-0.3c0.1-0.1,0.2-0.3,0.2-0.4c0-0.1,0-0.2-0.1-0.3c-0.1-0.3-0.3-0.5-0.5-0.8
							c-0.1-0.2-0.2-0.3-0.4-0.5c-1.8-2.7-3.1-6-2.7-9.4c0.4-3.4,2.4-6.5,4.5-8.9c4.6-5.2,11.8-6.4,18.1-6.1
							c3.7,0.2,7.3,0.9,10.8,2.1c1.7,0.6,3.4,1.4,5,2.2l0.4,0.2c0.2,0.1,0.4,0.2,0.6,0.3c1.3,0.7,2.6,1.4,3.9,1.8
							c2.7,0.7,4.5-0.8,6.5-2.4c0.7-0.5,1.3-1.1,2-1.6l0.1-0.1c1.3-0.8,2.8-1.4,4.3-1.4c1.3,0,2.5,0.5,3.5,1.6
							c0.2,0.2,0.3,0.5,0.4,0.7c0.1,0.2,0.2,0.4,0.3,0.6c0.4,1.5,0.7,3,1.1,4.6l0.3-0.2c0.9-0.6,1.8-1.4,2.2-2.4
							c0.2-0.4,0.1-1.1-0.1-1.6c-0.1-0.2-0.2-0.3-0.3-0.4c-0.1-0.1-0.2-0.1-0.3-0.1c-0.3,0-0.6,0-0.9-0.1c-0.3-0.1-0.5-0.4-0.7-0.6
							c-0.2-0.3-0.2-0.6-0.2-1c0-0.3,0.1-0.6,0.4-0.9c1.5-1.9,2.7-4,3.7-6.3l-6.3-2.6c-2.2-0.9-4.5-1.8-6.7-2.8l-1.2-0.5
							c-4.1-1.7-8.2-3.3-12.4-4.4c-8.4-2.1-17.2-1.6-25.6,0.4l-0.5,0.1c-3.5,0.9-7.1,1.9-10.3,3.7c-1.6,0.9-3.1,2-4.4,3.3
							c-0.6,0.6-1.1,1.3-1.6,1.9c-0.7,0.9-1.5,1.8-2.3,2.6l-0.8,0.7c-1.2,1.1-2.3,2.1-2.9,3.8c-0.7,1.7-1,3.7-1.3,5.5
							c-0.7,4.7-1,9.5-0.9,14.3c0,8,1.1,15.9,2.5,23.7c1.1-1.8,2.7-3.1,4.7-3.4c1.3-0.2,2.6,0.1,3.7,0.7
							C-2866.2-2200.1-2865.6-2199.7-2865.1-2199z M-2867.2-2189.5c-1.5-0.6-3-0.8-4.5-0.5c-0.2,0-0.3,0-0.4-0.1
							c-0.1-0.1-0.2-0.2-0.3-0.4c-0.1-0.2-0.1-0.4,0-0.5c0-0.1,0.1-0.3,0.3-0.4c1.7-0.9,3.5-1.3,5.4-1l0.2,0
							c0.9,0.2,2.3,0.5,3.3,1.1c0.8,0.5,1.3,1.2,1.5,2.1c0.1,0.5,0,1-0.3,1.3c-0.2,0.3-0.6,0.6-1.1,0.6c-0.8,0-1.3-0.4-1.9-0.9
							c-0.1-0.1-0.1-0.1-0.2-0.2C-2865.9-2188.8-2866.5-2189.2-2867.2-2189.5z"/>
					</g>
				</g>
			</g>
		</g>
		<g id="Smile-Teeth-Gap.svg2" transform="matrix(0.291546,0,0,0.261117,739.948,804.811)" class="st3">
			<g transform="matrix(1,0,0,1,-144.5,-146.5)">
				<g id="face-Smile-Teeth-Gap2">
					<path id="_xD83D__xDD8D_-Ink9" class="st1" d="M-3074.5-2470.5c1.6,1.1,4.2,3.7,2.4,6.5c-2.1,2.4-5.1-0.4-6.6-1.6
						c-1.4-1-2.9,1.5-1.6,2.7c10.7,8.8,15-7.3,6.7-8.9C-3074.6-2472-3074.9-2470.8-3074.5-2470.5z M-3089.3-2491.8l0.4-0.1l0.2,0
						c1.2-0.2,2.7-0.4,3.5,0.7c0.5,0.6,0.6,1.7,0,2.3c-1.1,1-2.4,0.6-3.7,0.7c-1.1,0.1-2.2,0.3-3.2,0.6c-2.3,0.7-4.3,2.1-6.3,3.6
						c-0.3,0.2-0.5-0.2-0.4-0.5c1.2-2.5,3.4-4.6,5.6-5.9C-3092-2491-3090.7-2491.5-3089.3-2491.8z M-3078.5-2456.9
						c3.6,0.3,11.3-1.6,14.6,1.2c12.1,16.9-36,21.3-30.8,2.6C-3091.4-2459.2-3083.8-2456.7-3078.5-2456.9z M-3079.1-2446.7
						c-0.9-0.1-2,0.7-2.2,1.3c-0.3,0.6-0.2,1.9-0.2,2.1c1.5,0.2,3.1,0.2,4.7,0.1C-3077.2-2444.7-3077.2-2446.4-3079.1-2446.7z
						 M-3072-2444.2c-0.2-1.8-1.4-2.3-2.4-2c-1,0.3-1.6,1.5-1.5,2.7c0,0.1,0,0.1-0.1,0.2C-3074.6-2443.5-3073.3-2443.8-3072-2444.2z
						 M-3082.9-2446.3c-0.6-0.9-1.9-1.4-2.7-1.2c-1.4,0.3-1.6,2.3-1.6,2.7c1.3,0.5,2.7,0.9,4,1.2c0.3,0.1,0.5,0.1,0.8,0.2l0-0.2
						C-3082.5-2444.3-3082.4-2445.5-3082.9-2446.3z M-3067.2-2446.5c-1.4-2.5-4.5-0.7-4.3,2c0.3-0.1,0.5-0.2,0.8-0.3
						C-3069.5-2445.2-3068.2-2445.8-3067.2-2446.5z M-3078.4-2455c-1.9-0.2-3.5-0.1-4.8,0.1l0,0.5c-0.1,1.6-0.3,3.2,0.4,3.9
						c0.6,0.5,2.7,0.5,4.1,0.1C-3078.4-2450.5-3077.9-2453.9-3078.4-2455z M-3075.5-2455.2c-0.3,1.6-0.5,3.5,0.2,4.1
						c0.7,0.6,2.8,0.5,3.3,0.1c0.5-0.4,0.5-2,0.3-3.8C-3072.8-2455.1-3074.6-2455.2-3075.5-2455.2z M-3084-2454.9l-0.6,0l-0.4,0
						c-0.9,0-1.9,0.1-2.8,0.3c-1.8,4.4,4.8,5.2,3.8-0.1L-3084-2454.9z M-3070.8-2454.8l0,0.2c-0.1,1.2,0,2.9,0.6,3.3
						c0.9,0.6,2.6,0.5,3.5-2.5C-3067-2454.6-3070.3-2454.7-3070.8-2454.8z M-3088.5-2481c0.4,0,0.8,0.1,1.1,0.4
						c0.3,0.3,0.6,0.7,0.9,1.1c0.5,0.9,0.8,2.2,0.8,3.6s-0.3,2.7-0.8,3.6c-0.2,0.5-0.5,0.9-0.9,1.1c-0.3,0.3-0.7,0.4-1.1,0.4
						c-0.4,0-0.8-0.1-1.1-0.4c-0.3-0.3-0.6-0.7-0.9-1.1c-0.5-0.9-0.8-2.2-0.8-3.6s0.3-2.7,0.8-3.6c0.2-0.5,0.5-0.9,0.9-1.1
						C-3089.3-2480.9-3088.9-2481-3088.5-2481z M-3064.1-2481c0.4,0,0.8,0.1,1.1,0.4c0.3,0.3,0.6,0.7,0.9,1.1
						c0.5,0.9,0.8,2.2,0.8,3.6s-0.3,2.7-0.8,3.6c-0.2,0.5-0.5,0.9-0.9,1.1c-0.3,0.3-0.7,0.4-1.1,0.4s-0.8-0.1-1.1-0.4
						c-0.3-0.3-0.6-0.7-0.9-1.1c-0.5-0.9-0.8-2.2-0.8-3.6s0.3-2.7,0.8-3.6c0.2-0.5,0.5-0.9,0.9-1.1
						C-3064.8-2480.9-3064.5-2481-3064.1-2481z M-3067.4-2492.9l0.3,0.1l0.2,0c3.4,0.8,7.7,2.4,9.2,6.1c0.1,0.5,0,0.6-0.1,0.7l0,0
						c0,0.1-0.1,0.2-0.3,0.2c-0.1,0-0.1,0-0.2,0c-0.7-0.2-1.3-0.5-1.9-0.8l-0.6-0.3c-0.7-0.4-1.4-0.8-2.2-1c-1.6-0.6-3.3-1-5-1.2
						c-0.4,0-0.7-0.2-1-0.4c-0.3-0.2-0.5-0.5-0.6-1c-0.1-0.5-0.1-0.9,0.2-1.4c0.2-0.4,0.5-0.6,0.8-0.8
						C-3068.2-2493-3067.8-2493-3067.4-2492.9z"/>
				</g>
			</g>
		</g>
	</g>
</g>
<g class="st2">
	<g transform="matrix(0.4441,0,0,0.39775,-345.369,-236.477)" class="st3">
		<g id="Gray-Short.svg" transform="matrix(0.681216,0,0,0.681216,1361.69,1133.76)">
			<g transform="matrix(1,0,0,1,-236.5,-283.5)">
				<g id="head-mono-Gray-Short">
					<path id="_xD83D__xDD8D_-Ink" class="st4" d="M-473.8-374.7c-6.3,0.7-13.7-0.9-17.9-6.6c-0.1-0.2-0.2-0.4-0.2-0.5
						c0-0.2,0.1-0.4,0.2-0.6c0.1-0.2,0.3-0.3,0.5-0.3c0.2,0,0.3,0,0.5,0.1l0.4,0.2c2.9,1.8,5.8,3.3,9.1,3.9c3.3,0.7,6.7,0.6,10-0.2
						c6-1.5,10.9-5.4,14.5-10.6c4-5.8,6.4-13,7-20.4c0.7-8.9-1-17.6-2.8-26.2c-1.9-9-3.9-18-6.3-26.8c-0.1-0.3-0.1-0.5-0.1-0.8
						c-0.7-0.3-1.5-0.2-2.2,0.1c-1.4,0.5-2.7,1.7-3.8,2.6c-0.4,0.3-0.8,0.7-1.1,0.9c-1.4,1.1-2.9,1.8-4.6,2
						c-1.8,0.1-3.5-0.5-5.1-1.3c-0.8-0.4-1.6-0.8-2.4-1.2c-2.3-1.1-4.5-2.3-7-3c-3.3-1-6.7-1.5-10.2-1.5c-6.1,0.1-12.3,1.8-16,7.6
						c-1.5,2.3-2.5,5-1.7,7.9c0.4,1.6,1.2,3,2.1,4.3l0.3,0.5c0.5,0.7,0.9,1.4,1,2.2c0.1,0.6,0,1.3-0.4,2.1c-0.3,0.5-0.6,0.9-0.9,1.3
						c-0.2,0.3-0.5,0.6-0.7,0.9c-0.4,0.6-0.8,1.4-1.1,2.1c-0.6,1.4-0.8,3-0.8,4.5c-0.1,1.9,0.2,3.7,0.4,5.6c0.2,1.3,0.3,2.6,0.4,3.9
						c0,0.2,0,0.4-0.1,0.5c-0.1,0.2-0.3,0.2-0.5,0.3c0,0-0.1,0-0.2,0c0,0.1,0,0.2,0.1,0.4c-0.1-0.2-0.2-0.3-0.4-0.5c0,0,0,0,0,0
						c-0.1-0.1-0.2-0.2-0.3-0.4c-0.2-0.2-0.4-0.4-0.6-0.5c-1-0.9-2.3-1.4-3.5-1.4c-1.2,0-2.4,0.4-3.3,1.4c-1.8,1.9-2.3,5-2.4,7.6
						c0,2.7,0.5,5.9,2.6,7.6c0.8,0.7,1.9,1.1,2.9,1.1c0.9,0,1.7-0.3,2.5-0.6c0.2-0.1,0.5-0.2,0.8-0.3c0.3-0.1,0.5-0.1,0.8,0
						c0.2,0.1,0.5,0.3,0.6,0.5c0.2,0.2,0.3,0.5,0.3,0.8c0,0.3,0,0.6-0.1,0.9c0,0.1-0.1,0.1-0.1,0.2l0.5,0.9c1.8,3.2,3.6,6.4,5.9,9.2
						c1.4,1.6,2.8,3.1,4.4,4.4l0.2,0.2c0.1,0.1,0.3,0.2,0.5,0.4c0.5,0.4,1,1,1.5,1c0.1,0,0.3,0,0.4,0c0.3,0,0.5-0.1,0.8,0
						c0.2,0.1,0.4,0.2,0.6,0.6c0.1,0.2,0.2,0.5,0.2,0.8c0,0.3-0.1,0.6-0.2,0.8c-0.3,0.5-0.6,0.8-0.9,1c-0.4,0.2-0.8,0.2-1.3,0.1
						c-1.1-0.2-2.3-1.3-3.1-1.9l-0.1-0.1c-1.7-1.5-3.4-3.1-4.8-4.9c-2.5-3.1-4.7-6.8-5.8-10.8c-0.8,0.6-1.8,0.9-2.8,0.9
						c-1.5,0.1-3.1-0.4-4.3-1c-2.6-1.4-4.2-4-4.9-6.9c-0.8-3.5-0.6-7.4,0.5-10.5c0-0.1,0.1-0.2,0.1-0.3c-3.3-9.4-4.3-19.9-4.1-29.9
						c0.1-4.7,0.4-9.6,1.4-14.2c0.5-2.1,1.2-4,2.5-5.6c0.7-0.9,1.6-1.6,2.4-2.4c0.8-0.6,1.5-1.2,2.1-2l0.3-0.4
						c0.1-0.1,0.1-0.2,0.2-0.2c1.1-1.4,2.2-2.7,3.5-3.8c1.5-1.3,3.2-2.3,5-3.1c3.8-1.8,7.9-2.9,12-3.7c8.8-1.8,17.8-1.9,26.5,0.6
						c4,1.2,8,2.8,11.9,4.4c0.4,0.1,0.7,0.3,1.1,0.5c3,1.2,6.1,2.5,9.1,3.7c1.4,0.6,2.8,1.2,4.2,1.7c0.3,0.1,0.6,0.4,0.8,0.7
						c0.2,0.3,0.2,0.7,0.1,1.1c-0.9,2.5-2,4.8-3.3,6.9c0.5,0.4,0.9,0.8,1.1,1.4c0.4,0.7,0.6,1.5,0.6,2.4c0,2.9-2.3,4.9-4.3,6.3
						c-0.2,0.1-0.4,0.2-0.5,0.2c1.9,8.1,3.7,16.3,5.3,24.5l0.1,0.6c1.6,8.6,2.6,17.4,1.1,26.1c-1.3,7.5-4.3,14.8-9,20.4
						C-460.9-378.9-467.1-375.4-473.8-374.7z M-515.2-424.2c-0.8-2.9-1.3-6.1-0.9-9c0.2-1.9,0.7-3.6,1.5-5.3c0.5-0.9,1-1.8,1.7-2.6
						l0.2-0.3c0.1-0.1,0.2-0.3,0.2-0.4c0-0.1,0-0.2,0-0.3c-0.1-0.3-0.3-0.5-0.5-0.8c-0.1-0.2-0.2-0.3-0.3-0.5
						c-1.8-2.7-3.2-6-2.7-9.4c0.4-3.4,2.4-6.5,4.5-8.9c4.6-5.2,11.8-6.4,18.1-6.1c3.7,0.2,7.3,0.9,10.8,2.1c1.7,0.6,3.4,1.4,5,2.2
						l0.4,0.2c0.2,0.1,0.4,0.2,0.6,0.3c1.3,0.7,2.6,1.4,4,1.8c2.7,0.7,4.5-0.8,6.5-2.4c0.7-0.5,1.3-1.1,2-1.6l0.1-0.1
						c1.3-0.8,2.8-1.4,4.3-1.4c1.3,0,2.5,0.5,3.5,1.6c0.2,0.2,0.3,0.5,0.4,0.7c0.1,0.2,0.2,0.4,0.3,0.6c0.4,1.5,0.7,3,1.1,4.5
						l0.3-0.2c0.9-0.6,1.8-1.4,2.2-2.4c0.2-0.4,0.1-1.1-0.1-1.6c-0.1-0.2-0.2-0.3-0.3-0.4c-0.1-0.1-0.2-0.1-0.4-0.1
						c-0.3,0-0.6,0-0.9-0.1c-0.3-0.1-0.5-0.4-0.7-0.6c-0.2-0.3-0.2-0.6-0.2-1c0-0.3,0.1-0.6,0.4-0.9c1.5-1.9,2.7-4,3.7-6.3l-6.3-2.6
						c-2.2-0.9-4.5-1.9-6.7-2.8l-1.2-0.5c-4.1-1.7-8.2-3.3-12.4-4.4c-8.4-2.1-17.2-1.6-25.6,0.4l-0.5,0.1c-3.5,0.9-7.1,1.9-10.3,3.7
						c-1.6,0.9-3.1,2-4.4,3.3c-0.6,0.6-1.1,1.3-1.6,1.9c-0.7,0.9-1.5,1.8-2.3,2.6l-0.8,0.7c-1.2,1.1-2.3,2.1-2.9,3.8
						c-0.7,1.7-1,3.7-1.3,5.5c-0.7,4.7-1,9.5-0.9,14.3c0,8,1.1,15.9,2.5,23.7c1.1-1.8,2.7-3.1,4.7-3.4c1.3-0.2,2.6,0.1,3.7,0.7
						C-516.2-425.3-515.7-424.8-515.2-424.2z M-517.2-414.7c-1.5-0.6-3-0.8-4.5-0.5c-0.2,0-0.3,0-0.4-0.1c-0.1-0.1-0.2-0.2-0.3-0.4
						c-0.1-0.2-0.1-0.4,0-0.5c0-0.1,0.1-0.3,0.3-0.4c1.7-0.9,3.5-1.3,5.4-1l0.2,0c0.9,0.2,2.3,0.5,3.3,1.1c0.8,0.5,1.3,1.2,1.5,2.1
						c0.1,0.5,0,1-0.3,1.3c-0.2,0.4-0.6,0.6-1.1,0.6c-0.8,0-1.3-0.4-1.9-0.9c-0.1-0.1-0.2-0.1-0.2-0.2
						C-516-414-516.6-414.4-517.2-414.7z"/>
				</g>
			</g>
		</g>
		<g id="Eyes-Closed.svg" transform="matrix(0.734096,0,0,0.734096,1398.38,1156.31)">
			<g transform="matrix(1,0,0,1,-144.5,-146.5)">
				<g id="face-Eyes-Closed">
					<path id="_xD83D__xDD8D_-Ink1" class="st4" d="M-558.4-520.4l0.2,0c1.2-0.3,2.4-0.8,3.5,0.1c1.1,0.8,1.2,2.3,0.4,3.3
						c-0.9,1.1-2,1-3.2,1h-0.1c-1,0-2,0-3-0.1c-0.9-0.1-1.9-0.2-2.8-0.4l-0.5-0.1c-0.5-0.1-1.1-0.3-1.4-0.9c-0.5-1,3.2-1.9,3.6-2
						C-560.6-519.9-559.5-520.1-558.4-520.4z M-556.3-533c-0.6,0.7-1.4,1.2-2.2,1.4c-2.2,0.7-5,0.3-6.8-0.4
						c-0.4-0.2-0.7-0.5-0.9-0.9c-0.2-0.4-0.2-0.8-0.1-1.2c0-0.1,0.1-0.2,0.1-0.4c0.1-0.3,0.4-0.6,0.7-0.7c0.3-0.2,0.7-0.2,1-0.1
						c0,0,0.1,0,0.1,0c1.1,0.4,3,1.1,4.5,0.9c0.9-0.1,1.7-0.4,2.2-1.4c0.2-0.5,0.2-1,0-1.4c-0.3-0.7-0.9-1.3-1.4-1.7
						c-0.7-0.6-1.5-0.8-2.2-1c-0.3-0.1-0.6-0.2-0.9-0.3c-0.1,0-0.2-0.1-0.2-0.2s-0.1-0.2-0.1-0.3s0-0.2,0-0.3c0-0.1,0.1-0.2,0.2-0.2
						c1.5-0.8,3.5-0.3,5,0.9c0.7,0.6,1.4,1.4,1.7,2.2c0.3,0.8,0.5,1.7,0.4,2.6C-555.4-534.4-555.8-533.6-556.3-533z M-581.3-550
						c0.4-0.2,0.8,0.8,0.9,1l0.2,0.6c0.3,0.9,0.6,1.8,1.3,2.5c0.5,0.6,1.4,1,2,0.4c0.6-0.6,0.3-1.3,0.4-2.1c0.2-1.4,1.8-2.8,2.8-1.3
						c2.3,3.2-1.2,7.8-4.5,7c-1.7-0.4-3-1.9-3.5-3.6l0-0.1C-582.2-546.8-582.5-549.4-581.3-550z M-551.9-547.7L-551.9-547.7
						c-1.1-2.8,2.8-4,3.1-1.5l0,0.2c0.3,2.8-0.3,6.5-3.4,6.7c-3.4,0.3-4.8-3.9-4.5-7c0-0.5,0.7-0.6,0.8-0.1l0,0.1
						c0.5,1.6,1.1,4.5,3,4.5C-551.4-544.8-551.5-546.7-551.9-547.7z M-549.4-555.7c2-0.1,1.9,3.3,0,3.4c-6.5,0.2-13,0.4-19.5,0.4
						l-1.2,0c-6.1,0-12.2,0.1-18.3-0.4c-0.5,0-0.4-0.9,0-0.8c6.4-1,12.8-1.3,19.3-1.7C-562.5-555.2-556-555.4-549.4-555.7z"/>
				</g>
			</g>
		</g>
	</g>
</g>
</svg>
