<?xml version="1.0" encoding="utf-8"?>
<!-- Generator: Adobe Illustrator 24.2.0, SVG Export Plug-In . SVG Version: 6.00 Build 0)  -->
<svg version="1.1" id="图层_1" xmlns="http://www.w3.org/2000/svg" xmlns:xlink="http://www.w3.org/1999/xlink" x="0px" y="0px"
	 viewBox="0 0 85 85" style="enable-background:new 0 0 85 85;" xml:space="preserve">
<style type="text/css">
	.st0{display:none;}
	.st1{display:inline;}
	.st2{fill-rule:evenodd;clip-rule:evenodd;fill:#040000;}
	.st3{fill-rule:evenodd;clip-rule:evenodd;fill:#FFFFFF;}
	.st4{fill-rule:evenodd;clip-rule:evenodd;}
</style>
<g class="st0">
	<g transform="matrix(0.4441,0,0,0.39775,-345.369,-236.477)" class="st1">
		<g id="Gray-Short.svg" transform="matrix(0.681216,0,0,0.681216,1361.69,1133.76)">
			<g transform="matrix(1,0,0,1,-236.5,-283.5)">
				<g id="head-mono-Gray-Short">
					<path id="_xD83D__xDD8D_-Ink" class="st2" d="M-473.8-374.7c-6.3,0.7-13.7-0.9-17.9-6.6c-0.1-0.2-0.2-0.4-0.2-0.5
						c0-0.2,0.1-0.4,0.2-0.6s0.3-0.3,0.5-0.3s0.3,0,0.5,0.1l0.4,0.2c2.9,1.8,5.8,3.3,9.1,3.9c3.3,0.7,6.7,0.6,10-0.2
						c6-1.5,10.9-5.4,14.5-10.6c4-5.8,6.4-13,7-20.4c0.7-8.9-1-17.6-2.8-26.2c-1.9-9-3.9-18-6.3-26.8c-0.1-0.3-0.1-0.5-0.1-0.8
						c-0.7-0.3-1.5-0.2-2.2,0.1c-1.4,0.5-2.7,1.7-3.8,2.6c-0.4,0.3-0.8,0.7-1.1,0.9c-1.4,1.1-2.9,1.8-4.6,2
						c-1.8,0.1-3.5-0.5-5.1-1.3c-0.8-0.4-1.6-0.8-2.4-1.2c-2.3-1.1-4.5-2.3-7-3c-3.3-1-6.7-1.5-10.2-1.5c-6.1,0.1-12.3,1.8-16,7.6
						c-1.5,2.3-2.5,5-1.7,7.9c0.4,1.6,1.2,3,2.1,4.3l0.3,0.5c0.5,0.7,0.9,1.4,1,2.2c0.1,0.6,0,1.3-0.4,2.1c-0.3,0.5-0.6,0.9-0.9,1.3
						c-0.2,0.3-0.5,0.6-0.7,0.9c-0.4,0.6-0.8,1.4-1.1,2.1c-0.6,1.4-0.8,3-0.8,4.5c-0.1,1.9,0.2,3.7,0.4,5.6c0.2,1.3,0.3,2.6,0.4,3.9
						c0,0.2,0,0.4-0.1,0.5c-0.1,0.2-0.3,0.2-0.5,0.3c0,0-0.1,0-0.2,0c0,0.1,0,0.2,0.1,0.4c-0.1-0.2-0.2-0.3-0.4-0.5l0,0
						c-0.1-0.1-0.2-0.2-0.3-0.4c-0.2-0.2-0.4-0.4-0.6-0.5c-1-0.9-2.3-1.4-3.5-1.4s-2.4,0.4-3.3,1.4c-1.8,1.9-2.3,5-2.4,7.6
						c0,2.7,0.5,5.9,2.6,7.6c0.8,0.7,1.9,1.1,2.9,1.1c0.9,0,1.7-0.3,2.5-0.6c0.2-0.1,0.5-0.2,0.8-0.3c0.3-0.1,0.5-0.1,0.8,0
						c0.2,0.1,0.5,0.3,0.6,0.5c0.2,0.2,0.3,0.5,0.3,0.8s0,0.6-0.1,0.9c0,0.1-0.1,0.1-0.1,0.2l0.5,0.9c1.8,3.2,3.6,6.4,5.9,9.2
						c1.4,1.6,2.8,3.1,4.4,4.4l0.2,0.2c0.1,0.1,0.3,0.2,0.5,0.4c0.5,0.4,1,1,1.5,1c0.1,0,0.3,0,0.4,0c0.3,0,0.5-0.1,0.8,0
						c0.2,0.1,0.4,0.2,0.6,0.6c0.1,0.2,0.2,0.5,0.2,0.8s-0.1,0.6-0.2,0.8c-0.3,0.5-0.6,0.8-0.9,1c-0.4,0.2-0.8,0.2-1.3,0.1
						c-1.1-0.2-2.3-1.3-3.1-1.9l-0.1-0.1c-1.7-1.5-3.4-3.1-4.8-4.9c-2.5-3.1-4.7-6.8-5.8-10.8c-0.8,0.6-1.8,0.9-2.8,0.9
						c-1.5,0.1-3.1-0.4-4.3-1c-2.6-1.4-4.2-4-4.9-6.9c-0.8-3.5-0.6-7.4,0.5-10.5c0-0.1,0.1-0.2,0.1-0.3c-3.3-9.4-4.3-19.9-4.1-29.9
						c0.1-4.7,0.4-9.6,1.4-14.2c0.5-2.1,1.2-4,2.5-5.6c0.7-0.9,1.6-1.6,2.4-2.4c0.8-0.6,1.5-1.2,2.1-2l0.3-0.4
						c0.1-0.1,0.1-0.2,0.2-0.2c1.1-1.4,2.2-2.7,3.5-3.8c1.5-1.3,3.2-2.3,5-3.1c3.8-1.8,7.9-2.9,12-3.7c8.8-1.8,17.8-1.9,26.5,0.6
						c4,1.2,8,2.8,11.9,4.4c0.4,0.1,0.7,0.3,1.1,0.5c3,1.2,6.1,2.5,9.1,3.7c1.4,0.6,2.8,1.2,4.2,1.7c0.3,0.1,0.6,0.4,0.8,0.7
						c0.2,0.3,0.2,0.7,0.1,1.1c-0.9,2.5-2,4.8-3.3,6.9c0.5,0.4,0.9,0.8,1.1,1.4c0.4,0.7,0.6,1.5,0.6,2.4c0,2.9-2.3,4.9-4.3,6.3
						c-0.2,0.1-0.4,0.2-0.5,0.2c1.9,8.1,3.7,16.3,5.3,24.5l0.1,0.6c1.6,8.6,2.6,17.4,1.1,26.1c-1.3,7.5-4.3,14.8-9,20.4
						C-460.9-378.9-467.1-375.4-473.8-374.7z M-515.2-424.2c-0.8-2.9-1.3-6.1-0.9-9c0.2-1.9,0.7-3.6,1.5-5.3c0.5-0.9,1-1.8,1.7-2.6
						l0.2-0.3c0.1-0.1,0.2-0.3,0.2-0.4s0-0.2,0-0.3c-0.1-0.3-0.3-0.5-0.5-0.8c-0.1-0.2-0.2-0.3-0.3-0.5c-1.8-2.7-3.2-6-2.7-9.4
						c0.4-3.4,2.4-6.5,4.5-8.9c4.6-5.2,11.8-6.4,18.1-6.1c3.7,0.2,7.3,0.9,10.8,2.1c1.7,0.6,3.4,1.4,5,2.2l0.4,0.2
						c0.2,0.1,0.4,0.2,0.6,0.3c1.3,0.7,2.6,1.4,4,1.8c2.7,0.7,4.5-0.8,6.5-2.4c0.7-0.5,1.3-1.1,2-1.6l0.1-0.1
						c1.3-0.8,2.8-1.4,4.3-1.4c1.3,0,2.5,0.5,3.5,1.6c0.2,0.2,0.3,0.5,0.4,0.7s0.2,0.4,0.3,0.6c0.4,1.5,0.7,3,1.1,4.5l0.3-0.2
						c0.9-0.6,1.8-1.4,2.2-2.4c0.2-0.4,0.1-1.1-0.1-1.6c-0.1-0.2-0.2-0.3-0.3-0.4c-0.1-0.1-0.2-0.1-0.4-0.1c-0.3,0-0.6,0-0.9-0.1
						s-0.5-0.4-0.7-0.6c-0.2-0.3-0.2-0.6-0.2-1c0-0.3,0.1-0.6,0.4-0.9c1.5-1.9,2.7-4,3.7-6.3l-6.3-2.6c-2.2-0.9-4.5-1.9-6.7-2.8
						l-1.2-0.5c-4.1-1.7-8.2-3.3-12.4-4.4c-8.4-2.1-17.2-1.6-25.6,0.4l-0.5,0.1c-3.5,0.9-7.1,1.9-10.3,3.7c-1.6,0.9-3.1,2-4.4,3.3
						c-0.6,0.6-1.1,1.3-1.6,1.9c-0.7,0.9-1.5,1.8-2.3,2.6l-0.8,0.7c-1.2,1.1-2.3,2.1-2.9,3.8c-0.7,1.7-1,3.7-1.3,5.5
						c-0.7,4.7-1,9.5-0.9,14.3c0,8,1.1,15.9,2.5,23.7c1.1-1.8,2.7-3.1,4.7-3.4c1.3-0.2,2.6,0.1,3.7,0.7
						C-516.2-425.3-515.7-424.8-515.2-424.2z M-517.2-414.7c-1.5-0.6-3-0.8-4.5-0.5c-0.2,0-0.3,0-0.4-0.1c-0.1-0.1-0.2-0.2-0.3-0.4
						c-0.1-0.2-0.1-0.4,0-0.5c0-0.1,0.1-0.3,0.3-0.4c1.7-0.9,3.5-1.3,5.4-1h0.2c0.9,0.2,2.3,0.5,3.3,1.1c0.8,0.5,1.3,1.2,1.5,2.1
						c0.1,0.5,0,1-0.3,1.3c-0.2,0.4-0.6,0.6-1.1,0.6c-0.8,0-1.3-0.4-1.9-0.9c-0.1-0.1-0.2-0.1-0.2-0.2
						C-516-414-516.6-414.4-517.2-414.7z"/>
				</g>
			</g>
		</g>
		<g id="Eyes-Closed.svg" transform="matrix(0.734096,0,0,0.734096,1398.38,1156.31)">
			<g transform="matrix(1,0,0,1,-144.5,-146.5)">
				<g id="face-Eyes-Closed">
					<path id="_xD83D__xDD8D_-Ink1" class="st2" d="M-558.4-520.4h0.2c1.2-0.3,2.4-0.8,3.5,0.1c1.1,0.8,1.2,2.3,0.4,3.3
						c-0.9,1.1-2,1-3.2,1h-0.1c-1,0-2,0-3-0.1c-0.9-0.1-1.9-0.2-2.8-0.4l-0.5-0.1c-0.5-0.1-1.1-0.3-1.4-0.9c-0.5-1,3.2-1.9,3.6-2
						C-560.6-519.9-559.5-520.1-558.4-520.4z M-556.3-533c-0.6,0.7-1.4,1.2-2.2,1.4c-2.2,0.7-5,0.3-6.8-0.4
						c-0.4-0.2-0.7-0.5-0.9-0.9s-0.2-0.8-0.1-1.2c0-0.1,0.1-0.2,0.1-0.4c0.1-0.3,0.4-0.6,0.7-0.7c0.3-0.2,0.7-0.2,1-0.1h0.1
						c1.1,0.4,3,1.1,4.5,0.9c0.9-0.1,1.7-0.4,2.2-1.4c0.2-0.5,0.2-1,0-1.4c-0.3-0.7-0.9-1.3-1.4-1.7c-0.7-0.6-1.5-0.8-2.2-1
						c-0.3-0.1-0.6-0.2-0.9-0.3c-0.1,0-0.2-0.1-0.2-0.2s-0.1-0.2-0.1-0.3s0-0.2,0-0.3s0.1-0.2,0.2-0.2c1.5-0.8,3.5-0.3,5,0.9
						c0.7,0.6,1.4,1.4,1.7,2.2s0.5,1.7,0.4,2.6C-555.4-534.4-555.8-533.6-556.3-533z M-581.3-550c0.4-0.2,0.8,0.8,0.9,1l0.2,0.6
						c0.3,0.9,0.6,1.8,1.3,2.5c0.5,0.6,1.4,1,2,0.4s0.3-1.3,0.4-2.1c0.2-1.4,1.8-2.8,2.8-1.3c2.3,3.2-1.2,7.8-4.5,7
						c-1.7-0.4-3-1.9-3.5-3.6v-0.1C-582.2-546.8-582.5-549.4-581.3-550z M-551.9-547.7L-551.9-547.7c-1.1-2.8,2.8-4,3.1-1.5v0.2
						c0.3,2.8-0.3,6.5-3.4,6.7c-3.4,0.3-4.8-3.9-4.5-7c0-0.5,0.7-0.6,0.8-0.1v0.1c0.5,1.6,1.1,4.5,3,4.5
						C-551.4-544.8-551.5-546.7-551.9-547.7z M-549.4-555.7c2-0.1,1.9,3.3,0,3.4c-6.5,0.2-13,0.4-19.5,0.4h-1.2
						c-6.1,0-12.2,0.1-18.3-0.4c-0.5,0-0.4-0.9,0-0.8c6.4-1,12.8-1.3,19.3-1.7C-562.5-555.2-556-555.4-549.4-555.7z"/>
				</g>
			</g>
		</g>
	</g>
</g>
<g>
	<g transform="matrix(1.04497,0,0,1.04497,-103.886,-36.0254)">
		<g transform="matrix(0.4441,0,0,0.39775,0,0)">
			<path class="st3" d="M346.3,187.7c0,0,11.6,7.5,14.5,10.5c0,0,0.3-1.8,1.2-2.6c0,0-4.9-26.4-5.3-29.3c0,0-11.2-9.8-3.9-11.4
				l0.6-1c0,0-7.7-13.7-5.5-15.2c2.2-1.6,9.1,11.2,9.2,11.2c0,0-4-14.4-1.9-15.9c2-1.5,5.7,13.6,5.7,13.6s1.4-1.2,3,0
				c0,0,3.3-3.6,5,2.2S370,163,370,163l1.7,1.2c0,0-0.2,4.7,3,11.1c3.3,6.4,17.5,40,7.8,46.8c-9.6,6.8-29.9-2-31.4-3.1
				c0,0-2.7,3.6-3.1,10.2c-0.5,6.6-16.2-17.6-16.2-17.6L346.3,187.7z"/>
		</g>
		<g id="Hoodie.svg" transform="matrix(-0.258321,0,0,0.231361,2370.14,828.071)">
			<g transform="matrix(1,0,0,1,-409,-366.5)">
				<g>
					<g>
						<g>
							<g id="body-mono-Hoodie" transform="matrix(0.950822,0,0,0.950822,0.0983718,36.1765)">
								<path id="_xD83C__xDFA8_-Background2" class="st3" d="M9590.7-2933.2c4.2-0.2,2.5-8.5,2.2-11.5c-3.3-11-2.5-23.1-3.9-34.6
									c-0.8-10.8-1.9-21.6-2.7-32.3c-1.7-21.9-14.2-66.5-28.4-73.6c-1.8-8.8-9.2-17-18.5-17c-6.4-8.4-14.1-14.4-23.9-13.2
									c-4.1,0.2-8,5-11.9,6c-2.2,0.3-18.2-2.5-22,0.1c-2.7,1.6-9.6,3-12.2,7.2c-4.2,5.3-3.5-1.4-11.7,3.3
									c-16.8,11.2-6.7,26.3-6.3,26.8c-1.6,5-9.5,30.8-3.9,57.8c2.7,13.3,6.2,24.6,3.8,39.1c-3.7,22.6-3.4,45.1-1.3,45.1
									c28.9,1.2,72.6,1.8,104.1-3.3C9566.3-2933.7,9578.5-2933.8,9590.7-2933.2z"/>
								<path id="_xD83D__xDD8D_-Ink13" class="st4" d="M9525.5-3066.8c0-0.2,0.3-0.2,0.3,0l0.3,3.3c0.4,4,0.7,8,1,12
									c0.3,5,0.5,10,0.6,15.1c0.4,17.5,0.4,35,0.5,52.5c2.1-0.2,4.2-0.3,6.4-0.5c1.4-0.1,2.9-0.2,4.3-0.3l3.7-0.2l1.5-0.1
									c1-0.1,2.2-0.4,2.9,0.7c0.3,0.4,0.4,0.9,0.2,1.4c-0.6,1.1-1.6,1.1-2.6,1.1s-2,0.1-3,0.1c-2.2,0.1-4.3,0.2-6.5,0.2
									c-2.3,0.1-4.5,0.1-6.8,0.2c0,7.4-0.3,14.8-0.6,22.2l-0.1,3.3c-0.4,9-0.8,18-1.3,26.9c0,0.7-1,0.7-1,0
									c-0.6-10.1-1-20.2-1.4-30.3c-0.3-7.3-0.5-14.7-0.5-22c-0.3,0-0.6,0-0.9,0c-8.5,0-17,0.1-25.5,0c0,0,0,0,0,0.1
									c0.6,1.6,0.7,3.7,0.7,5.4c0,2-0.3,4-0.7,5.9c-1.5,7-5.3,13.2-9.6,18.3l-0.1,0.2c-1,1.2-2.2,2.4-2.8,4s-0.9,3.4-1.2,5.1v0.2
									l-1.2,6.4c-0.4,2-0.5,5-1.9,6.4c-1.3,1.4-3.1,0.7-3.7-1.1c-0.5-1.4,0-2.9,0.3-4.2l2.3-10.7c0.4-1.7,0.8-3.5,1.6-5.1
									s2-2.8,3.3-4c2.4-2.3,4.5-4.8,6.3-7.7c1.8-2.8,3.4-5.9,4.5-9.1c0.5-1.6,1-3.3,1.3-5c0.3-1.6,0.3-3.3,0.6-4.9
									c0-0.1,0.1-0.2,0.2-0.2c0-0.1,0-0.2,0.1-0.2l7-0.5c6.2-0.4,12.4-0.9,18.5-1.4l1.1-0.1c-0.1-9.8,0-19.6,0.1-29.4
									c0.1-9,0.1-18,0.4-26.9c0.1-4.5,0.4-8.9,0.7-13.4C9524.6-3057.7,9525-3062.3,9525.5-3066.8z M9448-3012.9
									c-0.1-0.5,0.5-0.8,0.7-0.4c3,5.2,4.4,10.9,5,17c0.5,5.4,0.4,10.8,0.1,16.2c-0.3,5.8-0.6,11.5-0.9,17.3l-0.5,8.8l-1.3,22.1
									c-0.1,1.6-0.4,3-1.6,3.8c-0.2,0.1-0.3,0.3-0.5,0.4c-0.7,0.4-1.5,0.2-1.9-0.6l0.2,0.1c0.1,0.1,0,0-0.4-0.4l-0.4-0.5
									c-0.3-0.4-0.4-0.9-0.5-1.4c-0.1-0.8,0-1.7,0.1-2.6l0.8-14.5c0.7-11.3,1.4-22.5,2-33.8c0.3-5.3,0.5-10.5,0.3-15.8
									C9449-3002.4,9448.8-3007.7,9448-3012.9z M9485.8-3111.8h0.2c5.9-1.1,12.3-0.9,17.7,2.3v0.1l-1.7-0.1
									c-5.5-0.2-10.9-0.4-16.3,1.1l-4.1,1.3c-1.9,0.5-4,1.2-5.5,2.6c-1.5,1.4-3.1-0.1-3.8,1.9l-0.1,0.3c-0.7,1.9-2.4,2.4-4,3.6
									c-2.1,1.6-4.5,1.4-6.9,1.6c-4.1,0.4-7.5,3.7-9.2,7.8c-1,2.5-1.5,5.3-1.5,8c0,1.4-0.1,2.8,0.1,4.2c0.1,0.4,0.5,2,0.8,2
									c0.6-0.1,1.1,0.2,1.2,0.7c1.4-1.5,2.8-2.9,4.2-4.3c3.6-3.4,7.5-6.5,11.6-9.2c3.1-2,6.3-3.4,9.7-4.9c-0.3,0-0.5,0.1-0.8,0.2
									c-0.1,0.1-0.2-0.1-0.1-0.2c1.1-1.3,7.6,1.7,8.9,2c0.3-0.1,0.6-0.2,0.8-0.3c0.1,0,0.2,0.2,0.1,0.2l-0.3,0.2
									c1.4,0.5,2.8,1.6,3.9,2.4c3.2,2.4,5.9,5.2,8.8,8.1l0.5,0.5c2.5,2.5,5,4.9,7.8,6.9c1.5,1,3,2,4.7,2.7c1.4,0.6,3.7,1,4.3,2.6
									c0.6,0.8,0.3,1.8-0.3,2.3c-1.1,1.4-3.4,0.5-4.8-0.1c-1.6-0.7-3.2-1.6-4.8-2.6c-3-1.9-5.7-4.3-8.2-6.9
									c-2.7-2.7-5.1-5.5-7.7-8.3c-1.1-1.2-2.2-2.4-3.3-3.6l-0.6-0.6c-0.6-0.6-6.7-4.7-7.5-5.2c-0.4,0.3-0.8,0.5-1.2,0.8
									c-1.3,0.8-2.4,1-3.7,1.8c-2.3,1.6-4.5,3.2-6.6,5c-4.2,3.3-8,7.2-11.8,11.1c-2.4,2.4-5.5,1.4-5.5,1.4c-0.4,0-0.9-0.2-1.2-0.4
									c-1.2-0.8-1.8-2.5-2-4c-0.4-3.5-0.3-7.2,0.5-10.7c1.3-5.6,4.7-10.5,9.7-12.5c1.3-0.5,2.6-0.7,4-0.7c1.3,0,2.7,0.2,3.9-0.3
									c2-0.7,3.6-2,4.3-3.9v-0.1c0.9-2.5,6.5-2.2,8.5-3.7C9480.5-3110.6,9483.2-3111.3,9485.8-3111.8z M9541.7-3101.9
									c1.8-0.7,4-0.1,5.7,0.5c1.9,0.7,3.7,1.9,5.2,3.4c1.6,1.5,2.9,3.4,3.9,5.6l0.1,0.2c0.9,2,1.8,4.7,1.4,6.8c0,0.1,0,0.1,0,0.2
									c3.5,1.9,6.7,4.3,9.6,7.4c3.3,3.6,6.1,7.6,8.4,12c9.3,17.4,11,38.3,12.1,58.1l0.3,5c0.6,10.9,1.3,21.7,3.1,32.4l0.1,0.8
									c1.9,11.2,4.7,22.5,4.5,34c-0.1,3.4-4.6,3.4-4.8,0c-0.5-12.9-3.2-25.3-5-38c-3.2-22.3-1.6-45.3-6.1-67.4
									c-1.8-8.7-4.5-17.1-8.5-24.8c-2-3.8-4.2-7.5-6.8-10.8c-2.2-2.8-4.6-5.6-7.2-8c-0.8,0.9-2.5,0.5-3-0.9c-0.3-0.9-0.2-2-0.4-3
									c-0.2-0.9-0.4-1.8-0.8-2.7c-0.7-1.7-1.6-3.4-2.7-4.8c-1.2-1.5-2.6-2.7-4.1-3.8C9545.1-3100.7,9543.4-3101,9541.7-3101.9
									C9541.6-3101.8,9541.6-3101.9,9541.7-3101.9z M9548.5-2982.7c0-0.1,0.1-0.1,0.2-0.1c0.6,0.6,1,1.6,1.5,2.3
									c0.5,0.9,1.1,1.8,1.7,2.6c1.2,1.7,2.5,3.4,3.8,4.9c1.2,1.5,2.5,2.9,3.8,4.2c1.5,1.5,3.1,2.7,4.4,4.4c2.8,3.4,3.2,8,3.8,12.3
									l0.1,0.5c0.4,2.6,0.7,5.1,1,7.7c0.1,1.3,0.3,2.5,0.4,3.8v0.4c0.1,1.2,0.1,2.5-0.5,3.5c-0.7,1.1-2.2,1.6-3.1,0.4
									c-1.6-1.9-1.3-5.3-1.5-7.7c-0.2-2-0.4-4-0.6-6l-0.1-1c-0.3-2.3-0.5-4.6-0.9-6.9c-0.4-2-1.2-3.5-2.5-4.9s-2.6-2.8-3.8-4.3
									c-1.3-1.6-2.4-3.4-3.5-5.3c-0.9-1.6-1.6-3.3-2.2-5l-0.1-0.3C9549.5-2978.6,9548.5-2980.8,9548.5-2982.7z M9571.2-3054.4
									c0-0.2,0.3-0.2,0.3,0c0,2,0.1,4,0.1,6c0.3,16.2,0.1,32.3,1.6,48.4c0.7,7.6,1.9,15.1,3.4,22.5c0.7,3.8,1.5,7.6,2.3,11.4
									c0.7,3.7,1.5,7.4,2.1,11.2c0.6,3.7,1.1,7.4,1.3,11.1v0.5c0.1,1.8,0.6,4.5-0.3,6.1c-1,1.7-2.8,1.8-3.9,0.1
									c-1-1.6-0.7-4.3-0.9-6.2s-0.4-3.8-0.6-5.7c-0.4-3.7-0.9-7.4-1.5-11c-1.2-7.6-2.9-15.1-4.1-22.7c-1.3-7.8-2.2-15.6-2.2-23.6
									s0.7-16,1.1-24C9570.3-3038.2,9570.7-3046.3,9571.2-3054.4z M9502.9-3104.7c0.4-1.5,1.8-2.4,3.1-2c1.2,0.4,2.2,2,1.8,3.5
									c-0.5,1.6-1.4,2.9-2.2,4.3c-0.7,1.3-1.8,2.3-2.5,3.6l0.8,1c0.4,0.5,0.8,1,1.2,1.4l1.4,1.6c1.1,1.3,2.2,2.5,3.3,3.7
									c3.3,3.6,6.7,7,10.4,10c0.8,0.7,1.7,1.4,2.6,2l0.3,0.2c0.6,0.4,1.3,0.9,2,0.8c1.8-0.2,3.3-2.3,4.5-3.6l0.1-0.1
									c3-3.2,5.8-6.7,8.2-10.4c0.5-0.8,1.1-1.7,1.6-2.5c-1.2-1.5-0.9-4.5-1-6.4c0-1.3,0-2.6-0.1-3.9v-0.3c0-0.8,0-1.7,0.4-2.3h0.1
									c0.7,0.4,0.9,1.1,1.2,1.8v0.1c0.3,0.9,0.7,1.8,1,2.7c0.4,0.9,0.7,1.9,1,2.8c0.2,0.4,0.3,0.9,0.4,1.3
									c0.1,0.3,0.2,0.6,0.3,0.8l0,0c0.1,0.1,0.2,0.2,0.3,0.4c0.4,0.2,0.7,0.6,0.8,1.2c0.3,1.2-0.3,2.2-0.9,3.2
									c-2.3,3.9-4.9,7.7-7.8,11.1c-1.4,1.7-2.9,3.3-4.5,4.8l-0.3,0.3c-1.4,1.4-2.9,2.6-4.8,3c-2.2,0.4-4-0.9-5.7-2.3l-0.2-0.1
									c-1.6-1.4-3.2-2.8-4.7-4.2c-3.1-3-6-6.2-8.7-9.7c-2.5-3.4-5.1-7.2-6.6-11.4c-0.1-0.3,0.2-0.5,0.4-0.3
									c0.8,0.8,1.5,1.7,2.2,2.5c0-1.3-0.2-2.6-0.1-3.9C9502.5-3101.4,9502.5-3103.2,9502.9-3104.7z"/>
							</g>
						</g>
					</g>
				</g>
			</g>
		</g>
		<g transform="matrix(0.32917,0,0,0.281436,633.037,229.848)">
			<path class="st4" d="M-1453.2-549.9c0-0.1-0.1-0.1-0.1-0.2c-0.2-0.2-0.5-0.2-0.7,0c-0.1,0.1-0.2,0.3-0.2,0.4
				c-0.1,0.3,0.1,0.5,0.3,0.8c0.1,0.2,0.1,0.2,0.2,0.5c0,0.1,0.1,0.1,0.1,0.2c0.3,0.3,1,0.4,1.1,0.6l4.8,4c1.4,1,2.8,2.2,4.3,3.5
				c1.1,0.9,2.1,1.9,3.1,2.8c1.1,1,2.1,1.9,3.1,2.9c0.4,0.5,1.1,0.5,1.6,0c0.4-0.5,0.4-1.3,0-1.8c-0.9-1.2-1.8-2.4-2.8-3.5
				c-0.7-0.7-1.4-1.4-2.1-2.1c-1.9-1.7-3.8-3.3-5.7-4.5c-1-0.6-2-1.4-3-2.1c-0.7-0.5-1.5-0.9-2.3-1.3c-0.2-0.1-0.9-0.4-1.4-0.4
				C-1453-550-1453.1-550-1453.2-549.9z"/>
		</g>
		<g transform="matrix(0.4441,0,0,0.39775,0,0)">
			<path class="st4" d="M382.2,221.3L382.2,221.3c-0.5,0.3-1.1,0.6-1.9,0.8c-1.9,0.6-4.4,1-5.1,1.1c-4,0.4-8,0.1-11.9-0.7
				c-4-0.8-7.9-2.1-11.6-3.7c-0.4-0.2-2.7-1.4-4.5-2.6c-0.8-0.5-1.5-1.1-1.8-1.6c-0.1-0.2-0.2-0.3-0.1-0.4c0.2-0.1,0.2-0.4,0.1-0.5
				c-0.1-0.2-0.3-0.2-0.5-0.1c-0.6,0.5-0.5,1.3,0.4,2.2c1.6,1.7,5.4,3.8,6,4.1c3.7,1.7,7.7,3.2,11.7,4.2c4.1,1,8.2,1.5,12.4,1.1
				c0.9-0.1,4.9-0.7,6.9-1.7c1.3-0.7,1.7-1.7,1.4-2.5c-0.2-0.5-0.6-0.7-1-0.5C382.4,220.6,382.2,220.9,382.2,221.3z"/>
		</g>
		<g transform="matrix(0.4441,0,0,0.39775,-7.5078,-3.58633)">
			<path class="st4" d="M374.2,178.1L374.2,178.1c0-0.2-0.1-0.4-0.3-0.4c-0.1,0-0.2,0.2-0.4,0.6c0,0.1-0.1,0.1-0.1,0.2v0.1
				c0.2,1,1,3.6,1,3.7c0.3,1.1,0.6,2.2,0.9,3.3c0.2,1.1,0.4,2.3,0.6,3.4c0.6,5.1,0.7,9.9,2.1,14.3c0.6,1.8,1.3,3.6,2.5,5.3
				c0.7,1,1.5,2,2.5,2.9c0.3,0.3,0.8,0.3,1,0c0.3-0.3,0.3-0.8,0-1.2c-0.8-0.9-1.5-1.9-2.1-2.8c-1-1.6-1.7-3.2-2.2-4.8
				c-1.4-4.3-1.5-9-2.1-13.9c-0.2-1.2-0.4-2.4-0.7-3.6c-0.3-1.2-0.6-2.3-1-3.4c0-0.1-0.8-2.6-1.3-3.5
				C374.3,178.2,374.2,178.1,374.2,178.1z"/>
		</g>
		<g transform="matrix(0.4441,0,0,0.39775,-7.5078,-3.58633)">
			<path class="st4" d="M378.7,204.3c-0.3,0.3-0.5,0.6-0.8,1c-0.5,0.8-0.9,1.8-1.1,2.9c-0.1,0.6-0.1,1.3-0.1,2
				c0.2,3.2,1.4,6.7,2.7,8.8c0.2,0.4,0.7,0.5,1.1,0.2c0.3-0.3,0.4-0.8,0.2-1.2c-1.2-1.9-2.4-5.1-2.7-8c-0.1-0.6-0.1-1.2-0.1-1.8
				c0-0.9,0.1-1.8,0.5-2.6c0.2-0.3,0.4-0.6,0.6-0.8c0.1-0.1,0.2-0.4,0-0.5C379,204.2,378.8,204.2,378.7,204.3z"/>
		</g>
		<g transform="matrix(0.4441,0,0,0.39775,-7.5078,-3.58633)">
			<path class="st4" d="M388.5,177.8c0.1,0.4,0.3,0.9,0.5,1.5c0.3,1,0.7,2.3,1.1,3.5c1.1,3.1,2.5,6.4,2.9,7.4
				c1.1,2.7,2.5,6.2,3.9,9.8c1.2,3.2,2.4,6.7,3.3,10c1.3,5,2.1,9.8,1.4,13.6c-0.1,0.8-0.4,1.5-0.6,2.3c-0.5,1.2-1.1,2.4-1.6,3.5
				c-0.2,0.5-0.1,1,0.3,1.3c0.4,0.2,0.9,0.1,1.1-0.4c0.6-1.1,1.3-2.3,1.8-3.5c0.4-0.9,0.7-1.8,0.9-2.7c0.7-4.1,0-9.4-1.5-14.7
				c-1-3.4-2.2-6.9-3.5-10.2c-1.5-3.7-3-7-4.2-9.8c-0.4-0.9-1.7-3.9-3-6.7c-0.5-1-0.9-2-1.3-2.8c-0.4-1-0.8-1.8-0.9-2.4
				c-0.1-0.2-0.3-0.3-0.4-0.2C388.5,177.4,388.4,177.6,388.5,177.8z"/>
		</g>
		<g transform="matrix(0.524932,0,0,0.39775,-447.193,0)">
			<path class="st4" d="M1165.3,164.7c0.1,0.2,0.1,0.5,0.1,0.8c0.1,0.7,0.1,1.5,0.3,2.2c0.1,0.5,0.2,0.9,0.4,1.3
				c0.2,0.4,0.6,0.6,1,0.3c0.3-0.3,0.4-0.8,0.2-1.3c-0.2-0.5-0.1-1.1-0.1-1.7c0-0.8-0.1-1.7-0.2-2.4c-0.1-0.6-0.4-1.1-0.7-1.4
				c-0.1-0.1-0.6-0.4-1.2-0.1c-1,0.4-3.4,1.9-3.7,2c-0.8,0.4-1.6,0.9-2.4,1.1c-0.5,0.1-1,0.2-1.5,0.1c-0.7-0.1-1.5-0.4-2.1-0.5
				c-0.8-0.1-1.4-0.1-1.7,0.1c-0.4,0.3-0.7,1.1,0,2.5c0.1,0.2,0.3,0.3,0.4,0.2s0.2-0.3,0.1-0.5c-0.1-0.4-0.2-0.6-0.2-0.9
				c0-0.1,0-0.2,0-0.2c0.2-0.1,0.6,0.1,1.1,0.3c0.6,0.2,1.4,0.5,2.1,0.7s1.3,0.2,2,0c0.9-0.2,1.7-0.6,2.6-1
				C1162.1,166.3,1164.2,165.2,1165.3,164.7z"/>
		</g>
		<g transform="matrix(0.545848,0,0,0.466292,-564.723,-130.476)">
			<path class="st4" d="M1328.2,429.3c0.6,0.8,2.1,0.9,3.7,0.4c2.1-0.5,4.3-1.8,5.1-2.3c0.2-0.1,0.3-0.5,0.1-0.7
				c-0.1-0.2-0.4-0.3-0.6-0.2c-0.7,0.5-2.9,1.6-4.8,2.2c-1.4,0.4-2.6,0.7-3.1,0.1c-0.1-0.1-0.3-0.2-0.4,0
				C1328.1,428.9,1328.1,429.1,1328.2,429.3z"/>
		</g>
		<g transform="matrix(0.4441,0,0,0.39775,0,0)">
			<path class="st4" d="M355.9,164.8c0-0.1-0.1-0.2-0.2-0.3c-0.4-0.5-1-1.1-1.1-1.2c-0.7-0.6-1.2-1.2-1.7-1.8c-0.7-1-1.3-2-2-3.3
				c-0.1-0.2-0.3-0.6-0.3-1.1c0-0.3-0.1-0.7,0.1-0.9c0.9-0.7,1.9-1.2,3.1-1.5c1.1-0.3,2.2-0.4,3.3-0.2c0.7,0.1,1.4,0.3,1.7,0.8
				c0.1,0.1,0.1,0.2,0,0.4s-0.4,0.4-0.7,0.6l-1.4,0.9l-2.9,1.3c-0.3,0.1-0.4,0.5-0.3,0.7s0.4,0.4,0.7,0.3l3-1.2l1.5-0.9
				c1.2-0.7,1.5-1.5,1.5-2.2c0-0.5-0.3-0.9-0.7-1.2c-0.5-0.4-1.3-0.7-2.1-0.8c-1.2-0.1-2.4,0.1-3.6,0.6c-1.2,0.4-2.3,1.1-3.2,1.9
				c-0.3,0.2-0.4,0.7-0.4,1.2c0,0.6,0.1,1.3,0.3,1.7c0.4,1.2,0.8,2.2,1.4,3.1c0.6,0.9,1.3,1.7,2.2,2.6c0.1,0.1,0.6,0.8,1.1,1.1
				c0.2,0.1,0.3,0.1,0.4,0.2c0.4,0.1,0.6,0.2,0.8,0c0.2-0.1,0.3-0.3,0.4-0.6c0-0.2-0.1-0.4-0.3-0.5
				C356.2,164.6,356,164.7,355.9,164.8z"/>
		</g>
		<g transform="matrix(0.4441,0,0,0.39775,0,0)">
			<path class="st4" d="M363.8,147.3c-0.9-0.7-1.8-0.8-2.5-0.4c-0.6,0.4-1.1,1.1-1.4,2.4c-0.3,1.6-0.6,3.1-0.7,4.6
				c-0.1,1,0,2.1,0.1,3.2c0,0.2,0.2,0.4,0.4,0.4c0.2,0,0.4-0.2,0.4-0.5c0-0.8,0.1-1.5,0.2-2.3s0.1-1.5,0.2-2.3c0.1-1,0.2-2,0.4-3
				c0.1-0.9,0.4-1.5,0.9-1.8s1.1-0.2,1.7,0.3c0.2,0.1,0.4,0.1,0.5-0.1C364,147.7,364,147.4,363.8,147.3z"/>
		</g>
		<g transform="matrix(0.4441,0,0,0.39775,0,0)">
			<path class="st4" d="M366.6,157.4c0.2-0.3,0.1-0.7-0.2-0.9c-0.3-0.2-0.7-0.1-0.8,0.2c-0.1,0.2-0.1,0.9-0.6,1.5
				c-0.1,0.2-0.4,0.3-0.6,0.4c-0.2-1.1-0.1-3.5-0.2-3.9c-0.1-1-0.4-3.1-0.2-4.8c0.1-1.1,0.3-2.1,0.9-2.6c0.2-0.2,0.6-0.3,1-0.3
				s0.8-0.1,1,0.1c0.2,0.1,0.4,0.1,0.5-0.1c0.1-0.2,0.1-0.4-0.1-0.5c-0.2-0.2-0.7-0.3-1.2-0.4c-0.6,0-1.3,0.2-1.7,0.4
				c-0.7,0.4-1.1,1.3-1.3,2.4c-0.4,2-0.2,4.7-0.1,5.9c0,0.5,0,3.4,0.2,4.4c0.2,0.7,0.6,0.9,0.9,0.9c0.9-0.1,1.4-0.5,1.8-1
				C366.4,158.5,367,157.5,366.6,157.4C366.7,157.4,366.6,157.4,366.6,157.4z"/>
		</g>
		<g transform="matrix(0.4441,0,0,0.39775,0,0)">
			<path class="st4" d="M365.4,158.2c-0.1,0.1-0.2,0.1-0.2,0.3c-0.1,0.4,0.2,0.5,0.3,0.6c0.1,0,0.2,0,0.4-0.1
				c0.1-0.1,0.4-0.6,0.4-0.7l0.6-1.7c0.2-0.6,0.3-1.3,0.4-2c0.1-1,0.1-2,0.2-3c0-0.3-0.2-0.5-0.4-0.6c-0.3,0-0.5,0.2-0.5,0.5
				c-0.1,1.1-0.2,2.3-0.3,3.4c-0.1,0.5-0.1,0.9-0.2,1.4l-0.4,1.7C365.5,157.9,365.5,158,365.4,158.2z"/>
		</g>
		<g transform="matrix(0.4441,0,0,0.39775,0,0)">
			<path class="st4" d="M359.7,158.2c0.1,0.2,0.7,0.4,1.3,0.4c0.4,0,0.8-0.1,1-0.3c0.5-0.5,1.2-1.4,1.6-2.3c0.3-0.7,0.4-1.5,0.3-2.1
				c0-0.3-0.3-0.5-0.5-0.4c-0.2,0-0.4,0.3-0.4,0.6s-0.1,0.7-0.2,1.1c-0.1,0.3-0.2,0.5-0.3,0.8c-0.3,0.7-0.8,1.4-1.1,1.8
				c-0.1,0.1-0.3,0.1-0.5,0c-0.3,0-0.5,0-0.6-0.1c-0.1-0.2-0.3-0.2-0.5,0C359.6,157.8,359.5,158.1,359.7,158.2z"/>
		</g>
		<g transform="matrix(0.4441,0,0,0.39775,0,0)">
			<path class="st4" d="M367.6,147.5c0.9,2,1.5,4.4,1.8,6.7s0.4,4.7,0,7c0,0.3,0.2,0.6,0.5,0.7c0.3,0,0.6-0.2,0.6-0.5
				c0.3-2.4,0.3-4.9-0.1-7.4s-1.2-4.8-2.2-6.9c-0.1-0.2-0.3-0.3-0.5-0.2C367.5,147.1,367.5,147.3,367.6,147.5z"/>
		</g>
		<g transform="matrix(0.4441,0,0,0.39775,-3.53093,-2.55648)">
			<path class="st4" d="M361.2,159.9C361.2,159.8,361.2,159.8,361.2,159.9c0-0.2,0.1-0.2,0-0.4c0-0.1-0.1-0.2-0.2-0.3
				c-0.7-1.4-1.7-3.9-1.8-4.2c-0.3-0.7-2.2-4.1-3-6.7c-0.4-1.2-0.7-2.3-0.3-2.7c0.3-0.2,0.6,0,0.9,0.2c0.6,0.4,1.3,1.2,1.5,1.5
				c0.9,1.1,1.6,2.4,2.3,3.7c0.7,1.3,1.4,2.7,2.2,4c0.4,0.7,0.9,1.3,1.3,1.9c0.2,0.2,0.5,0.3,0.7,0.1s0.3-0.5,0.1-0.8
				c-0.3-0.6-0.6-1.2-0.9-1.8c-0.7-1.4-1.5-2.8-2.3-4.2s-1.7-2.6-2.7-3.7c-0.4-0.4-1.3-1.4-2.2-1.7c-0.5-0.2-1-0.2-1.4,0.2
				c-0.5,0.5-0.5,1.9,0,3.5c0.8,2.7,2.5,6.2,2.8,7c0.2,0.4,1.1,2.9,1.8,4.3c0.1,0.1,0.1,0.3,0.2,0.4c0.1,0.1,0.2,0.1,0.4,0.2
				c0.2,0.2,0.3,0.3,0.4,0.4c0.2,0.1,0.4,0,0.5-0.3C361.6,160.2,361.5,159.9,361.2,159.9C361.3,159.9,361.3,159.9,361.2,159.9z
				 M360.9,160.1L360.9,160.1L360.9,160.1z"/>
		</g>
		<g transform="matrix(0.4441,0,0,0.39775,-3.53093,-2.55648)">
			<path class="st4" d="M365.6,156.7c0-0.4,0-0.8-0.1-1.3c-0.2-0.9-0.6-1.8-0.8-2.5c-0.5-2-0.9-4.2-1.3-6.4
				c-0.3-1.5-0.5-2.9-0.6-4.3c0-0.3,0-0.4,0.1-0.6c0.1-0.3,0.3-0.4,0.4-0.6c0.1-0.1,0.2-0.2,0.3-0.3v0.1c0.1,0.1,0.1,0.1,0.2,0.2
				c0.4,0.6,0.8,1.7,1.1,2.4c0.2,0.5,0.4,1,0.5,1.5c0.3,0.8,0.5,1.5,0.7,2.3l2,6.7c0.1,0.3,0.4,0.4,0.6,0.3c0.3-0.1,0.4-0.4,0.3-0.7
				l-1.8-6.8c-0.2-0.8-0.5-1.6-0.8-2.4c-0.2-0.5-0.4-1.1-0.6-1.6c-0.4-0.9-1-2.5-1.7-3c-0.6-0.4-1.2-0.5-1.7,0.6
				c-0.2,0.3-0.4,0.6-0.4,1c-0.1,0.2-0.1,0.5,0,0.9c0.1,1.4,0.4,2.9,0.6,4.4c0.4,2.2,0.9,4.4,1.4,6.4c0.2,0.7,0.6,1.7,0.8,2.5
				c0.1,0.4,0.2,0.7,0.1,1c0,0.2,0.1,0.4,0.3,0.4C365.4,157.1,365.5,156.9,365.6,156.7z"/>
		</g>
	</g>
	<g transform="matrix(1,0,0,1,1638.03,-101.846)" class="st0">
		<g class="st1">
			<g transform="matrix(0.4441,0,0,0.39775,122.255,342.337)">
				<g id="Gray-Short.svg5" transform="matrix(0.681216,0,0,0.681216,1361.69,1133.76)">
					<g transform="matrix(1,0,0,1,-236.5,-283.5)">
						<g id="head-mono-Gray-Short5">
							<path class="st3" d="M-7484.6-2179.9c0,0-4.7,20.6,9.3,14.6c0,0,7.8,20.2,14.4,18.2c0,0,5.2,4.7,9.4,5.1
								c0,0,20.7,21.2,38-11.6c6.9-13,2.6-41.6-0.4-52.2c-1.3-4.6-1.5-9.4-1.7-10.7c0,0,8.9-6.2,2.4-9.2c0,0,4.7-7.2,3.8-7.9
								c-0.9-0.6-31-15.3-45.9-12.1c-15,3.3-22.1,5.3-27,12.6s-5,3.3-5.9,10.4C-7489.1-2215.6-7491.1-2184.1-7484.6-2179.9z"/>
							<path id="_xD83D__xDD8D_-Ink14" class="st4" d="M-7434.5-2134.5c-6.3,0.7-13.7-0.9-17.9-6.6c-0.1-0.2-0.2-0.4-0.2-0.6
								c0-0.2,0.1-0.4,0.2-0.6c0.1-0.2,0.3-0.3,0.5-0.3s0.3,0,0.5,0.1l0.4,0.2c2.9,1.8,5.8,3.3,9.1,3.9c3.3,0.7,6.7,0.6,10-0.3
								c6-1.5,10.9-5.4,14.5-10.6c4-5.8,6.4-13.1,7-20.4c0.7-8.8-1-17.6-2.8-26.2c-1.9-9-3.9-18-6.3-26.8c-0.1-0.3-0.1-0.5-0.1-0.7
								c-0.7-0.3-1.4-0.2-2.2,0.1c-1.4,0.5-2.7,1.7-3.8,2.6c-0.4,0.3-0.8,0.7-1.1,0.9c-1.4,1.1-2.9,1.8-4.6,2
								c-1.8,0.1-3.5-0.5-5.1-1.3c-0.8-0.4-1.6-0.8-2.4-1.2c-2.3-1.2-4.6-2.3-7-3c-3.3-1-6.7-1.5-10.2-1.5c-6.1,0.1-12.3,1.8-16,7.6
								c-1.5,2.3-2.5,5-1.7,7.9c0.4,1.6,1.2,3,2.1,4.3l0.3,0.4c0.5,0.7,0.9,1.4,1,2.2c0.1,0.6,0,1.3-0.4,2.1
								c-0.3,0.5-0.6,0.9-0.9,1.3c-0.2,0.3-0.5,0.6-0.7,0.9c-0.4,0.7-0.8,1.4-1.1,2.1c-0.6,1.4-0.8,3-0.9,4.5
								c-0.1,1.9,0.2,3.7,0.4,5.6c0.2,1.3,0.3,2.6,0.4,3.9c0,0.2-0.1,0.4-0.1,0.5c-0.1,0.2-0.3,0.3-0.4,0.3s-0.1,0-0.2,0
								c0,0.1,0.1,0.3,0.1,0.4c-0.1-0.2-0.2-0.3-0.4-0.5l0,0c-0.1-0.1-0.2-0.2-0.3-0.4c-0.2-0.2-0.4-0.4-0.6-0.5
								c-1-0.9-2.3-1.4-3.5-1.4s-2.4,0.4-3.3,1.4c-1.8,1.9-2.3,5-2.4,7.6c0,2.7,0.5,5.9,2.6,7.6c0.8,0.7,1.9,1.1,2.9,1.1
								c0.9,0,1.7-0.3,2.5-0.7c0.2-0.1,0.5-0.2,0.7-0.3c0.3-0.1,0.5-0.1,0.8,0s0.5,0.3,0.6,0.5c0.2,0.2,0.3,0.5,0.3,0.8
								s0,0.6-0.1,0.9c0,0.1-0.1,0.1-0.1,0.2l0.5,0.8c1.8,3.2,3.6,6.4,5.9,9.2c1.4,1.6,2.8,3.1,4.4,4.4l0.2,0.2
								c0.1,0.1,0.3,0.2,0.4,0.4c0.5,0.4,1,1,1.5,1c0.2,0,0.3,0,0.4,0c0.3,0,0.5-0.1,0.8,0.1c0.2,0.1,0.4,0.3,0.6,0.6
								c0.1,0.2,0.2,0.5,0.2,0.8s-0.1,0.6-0.2,0.8c-0.3,0.5-0.6,0.8-0.9,1c-0.4,0.2-0.8,0.2-1.3,0.1c-1.1-0.2-2.3-1.3-3.1-1.9
								l-0.2-0.1c-1.7-1.5-3.4-3.1-4.8-4.9c-2.5-3.1-4.7-6.8-5.8-10.8c-0.8,0.6-1.8,0.9-2.8,0.9c-1.5,0.1-3.1-0.4-4.3-1
								c-2.6-1.4-4.2-4-4.9-6.9c-0.9-3.5-0.6-7.4,0.5-10.5c0-0.1,0.1-0.2,0.1-0.3c-3.3-9.4-4.4-19.9-4.1-29.9
								c0.1-4.7,0.4-9.6,1.4-14.2c0.4-2.1,1.2-4,2.5-5.6c0.7-0.9,1.6-1.6,2.4-2.4c0.8-0.6,1.5-1.2,2.1-2l0.3-0.4
								c0.1-0.1,0.1-0.2,0.2-0.2c1.1-1.4,2.2-2.7,3.5-3.8c1.5-1.3,3.2-2.3,5-3.1c3.8-1.8,7.9-2.9,12-3.7c8.8-1.8,17.8-1.9,26.5,0.6
								c4,1.2,8,2.8,11.9,4.4c0.4,0.1,0.7,0.3,1.1,0.4c3,1.2,6.1,2.5,9.1,3.7c1.4,0.6,2.8,1.2,4.2,1.7c0.3,0.1,0.6,0.4,0.8,0.7
								c0.2,0.3,0.2,0.7,0.1,1.1c-0.9,2.5-2,4.8-3.3,6.9c0.5,0.4,0.9,0.8,1.2,1.4c0.4,0.7,0.6,1.5,0.6,2.4c0.1,2.9-2.3,4.9-4.3,6.3
								c-0.2,0.1-0.4,0.2-0.5,0.2c1.9,8.1,3.7,16.3,5.3,24.5l0.1,0.6c1.6,8.6,2.6,17.4,1.1,26.1c-1.3,7.5-4.3,14.8-9,20.4
								C-7421.6-2138.7-7427.8-2135.3-7434.5-2134.5z M-7475.9-2184c-0.8-2.9-1.3-6.1-0.9-9c0.2-1.9,0.7-3.6,1.5-5.3
								c0.5-0.9,1-1.8,1.7-2.6l0.2-0.3c0.1-0.1,0.2-0.3,0.2-0.4c0-0.1,0-0.2-0.1-0.3c-0.1-0.3-0.3-0.5-0.5-0.8
								c-0.1-0.2-0.2-0.3-0.4-0.5c-1.8-2.7-3.1-6-2.7-9.4s2.4-6.5,4.5-8.9c4.6-5.2,11.8-6.4,18.1-6.1c3.7,0.2,7.3,0.9,10.8,2.1
								c1.7,0.6,3.4,1.4,5,2.2l0.4,0.2c0.2,0.1,0.4,0.2,0.6,0.3c1.3,0.7,2.6,1.4,3.9,1.8c2.7,0.7,4.5-0.8,6.5-2.4
								c0.7-0.5,1.3-1.1,2-1.6l0.1-0.1c1.3-0.8,2.8-1.4,4.3-1.4c1.3,0,2.5,0.5,3.5,1.6c0.2,0.2,0.3,0.5,0.4,0.7s0.2,0.4,0.3,0.6
								c0.4,1.5,0.7,3,1.1,4.6l0.3-0.2c0.9-0.6,1.8-1.4,2.2-2.4c0.2-0.4,0.1-1.1-0.1-1.6c-0.1-0.2-0.2-0.3-0.3-0.4
								c-0.1-0.1-0.2-0.1-0.3-0.1c-0.3,0-0.6,0-0.9-0.1s-0.5-0.4-0.7-0.6c-0.2-0.3-0.2-0.6-0.2-1c0-0.3,0.1-0.6,0.4-0.9
								c1.5-1.9,2.7-4,3.7-6.3l-6.3-2.6c-2.2-0.9-4.5-1.8-6.7-2.8l-1.2-0.5c-4.1-1.7-8.2-3.3-12.4-4.4c-8.4-2.1-17.2-1.6-25.6,0.4
								l-0.5,0.1c-3.5,0.9-7.1,1.9-10.3,3.7c-1.6,0.9-3.1,2-4.4,3.3c-0.6,0.6-1.1,1.3-1.6,1.9c-0.7,0.9-1.5,1.8-2.3,2.6l-0.8,0.7
								c-1.2,1.1-2.3,2.1-2.9,3.8c-0.7,1.7-1,3.7-1.3,5.5c-0.7,4.7-1,9.5-0.9,14.3c0,8,1.1,15.9,2.5,23.7c1.1-1.8,2.7-3.1,4.7-3.4
								c1.3-0.2,2.6,0.1,3.7,0.7C-7477-2185.1-7476.4-2184.6-7475.9-2184z M-7478-2174.5c-1.5-0.6-3-0.8-4.5-0.5
								c-0.2,0-0.3,0-0.4-0.1s-0.2-0.2-0.3-0.4c-0.1-0.2-0.1-0.4,0-0.5c0-0.1,0.1-0.3,0.3-0.4c1.7-0.9,3.5-1.3,5.4-1h0.2
								c0.9,0.2,2.3,0.5,3.3,1.1c0.8,0.5,1.3,1.2,1.5,2.1c0.1,0.5,0,1-0.3,1.3c-0.2,0.3-0.6,0.6-1.1,0.6c-0.8,0-1.3-0.4-1.9-0.9
								c-0.1-0.1-0.1-0.1-0.2-0.2C-7476.7-2173.8-7477.3-2174.2-7478-2174.5z"/>
						</g>
					</g>
				</g>
			</g>
			<g id="Smile-Teeth-Gap.svg4" transform="matrix(0.291546,0,0,0.261117,739.948,804.811)">
				<g transform="matrix(1,0,0,1,-144.5,-146.5)">
					<g id="face-Smile-Teeth-Gap4">
						<path id="_xD83D__xDD8D_-Ink15" class="st4" d="M-7859-2454.9c1.6,1.1,4.2,3.7,2.4,6.5c-2.1,2.4-5.1-0.4-6.6-1.6
							c-1.4-1-2.9,1.5-1.6,2.7c10.7,8.8,15-7.3,6.6-8.9C-7859.1-2456.4-7859.4-2455.3-7859-2454.9z M-7873.8-2476.2l0.4-0.1h0.2
							c1.2-0.2,2.7-0.4,3.5,0.7c0.5,0.6,0.6,1.7,0,2.3c-1.1,1-2.4,0.6-3.7,0.7c-1.1,0.1-2.2,0.3-3.2,0.6c-2.3,0.7-4.3,2.1-6.3,3.6
							c-0.3,0.2-0.5-0.2-0.4-0.5c1.2-2.5,3.4-4.6,5.6-5.9C-7876.5-2475.4-7875.2-2476-7873.8-2476.2z M-7863-2441.3
							c3.6,0.3,11.3-1.6,14.6,1.2c12.1,16.9-36,21.3-30.8,2.6C-7875.9-2443.6-7868.3-2441.1-7863-2441.3z M-7863.6-2431.1
							c-0.9-0.1-2,0.7-2.2,1.3c-0.3,0.6-0.2,1.9-0.2,2.1c1.5,0.2,3.1,0.2,4.7,0.1C-7861.7-2429.1-7861.7-2430.9-7863.6-2431.1z
							 M-7856.5-2428.6c-0.2-1.8-1.4-2.3-2.4-2s-1.6,1.5-1.5,2.7c0,0.1,0,0.1-0.1,0.2C-7859.1-2427.9-7857.8-2428.2-7856.5-2428.6z
							 M-7867.4-2430.8c-0.6-0.9-1.9-1.4-2.7-1.2c-1.4,0.3-1.6,2.3-1.6,2.7c1.3,0.5,2.7,0.9,4,1.2c0.3,0.1,0.5,0.1,0.8,0.2v-0.2
							C-7867-2428.7-7866.9-2429.9-7867.4-2430.8z M-7851.7-2430.9c-1.4-2.5-4.5-0.7-4.3,2c0.3-0.1,0.5-0.2,0.8-0.3
							C-7854-2429.7-7852.7-2430.2-7851.7-2430.9z M-7862.9-2439.4c-1.9-0.2-3.5-0.1-4.8,0.1v0.5c-0.1,1.6-0.3,3.2,0.4,3.9
							c0.6,0.5,2.7,0.5,4.1,0.1C-7862.9-2435-7862.4-2438.3-7862.9-2439.4z M-7860-2439.6c-0.3,1.6-0.5,3.5,0.2,4.1s2.8,0.5,3.3,0.1
							s0.5-2,0.3-3.8C-7857.3-2439.5-7859.1-2439.6-7860-2439.6z M-7868.5-2439.3h-0.6h-0.4c-0.9,0-1.9,0.1-2.8,0.3
							c-1.8,4.4,4.8,5.2,3.8-0.1V-2439.3z M-7855.3-2439.2v0.2c-0.1,1.2,0,2.9,0.6,3.3c0.9,0.6,2.6,0.5,3.5-2.5
							C-7851.5-2439-7854.8-2439.1-7855.3-2439.2z M-7873-2465.5c0.4,0,0.8,0.1,1.1,0.4c0.3,0.3,0.6,0.7,0.9,1.1
							c0.5,0.9,0.8,2.2,0.8,3.6c0,1.4-0.3,2.7-0.8,3.6c-0.2,0.5-0.5,0.9-0.9,1.1c-0.3,0.3-0.7,0.4-1.1,0.4s-0.8-0.1-1.1-0.4
							c-0.3-0.3-0.6-0.7-0.9-1.1c-0.5-0.9-0.8-2.2-0.8-3.6c0-1.4,0.3-2.7,0.8-3.6c0.2-0.5,0.5-0.9,0.9-1.1
							C-7873.8-2465.3-7873.4-2465.5-7873-2465.5z M-7848.6-2465.5c0.4,0,0.8,0.1,1.1,0.4c0.3,0.3,0.6,0.7,0.9,1.1
							c0.5,0.9,0.8,2.2,0.8,3.6c0,1.4-0.3,2.7-0.8,3.6c-0.2,0.5-0.5,0.9-0.9,1.1c-0.3,0.3-0.7,0.4-1.1,0.4s-0.8-0.1-1.1-0.4
							c-0.3-0.3-0.6-0.7-0.9-1.1c-0.5-0.9-0.8-2.2-0.8-3.6c0-1.4,0.3-2.7,0.8-3.6c0.2-0.5,0.5-0.9,0.9-1.1
							C-7849.3-2465.3-7849-2465.5-7848.6-2465.5z M-7851.9-2477.4l0.3,0.1h0.2c3.4,0.8,7.7,2.4,9.2,6.1c0.1,0.5,0,0.6-0.1,0.7l0,0
							c0,0.1-0.1,0.2-0.3,0.2c-0.1,0-0.1,0-0.2,0c-0.7-0.2-1.3-0.5-1.9-0.8l-0.6-0.3c-0.7-0.4-1.4-0.8-2.2-1c-1.6-0.6-3.3-1-5-1.2
							c-0.4,0-0.7-0.2-1-0.4s-0.5-0.5-0.6-1s-0.1-0.9,0.2-1.4c0.2-0.4,0.5-0.6,0.8-0.8C-7852.7-2477.4-7852.3-2477.4-7851.9-2477.4z
							"/>
					</g>
				</g>
			</g>
		</g>
	</g>
</g>
</svg>
