<?xml version='1.0' encoding='ASCII' standalone='yes'?>
<svg xmlns:xlink="http://www.w3.org/1999/xlink" xmlns="http://www.w3.org/2000/svg" version="1.1" width="793.8px" viewBox="0 0 793.8 793.8" height="793.8px">
  <g>
    <g transform="translate(170.1, 56.7) scale(1 1) translate(0, 0) scale(1 1) ">
      <g><title>hat-beanie-svg</title>
	<style>
		.s0 { fill: #ffffff } 
		.s1 { fill: #000000 } 
	</style>
	<g id="Layer">
		<path id="Layer" fill-rule="evenodd" class="s0" d="m161 138.5c-43.3 25-48.5 152.3-66.3 165.4-29.8 22.1-35.8 57.1-35.8 57.1 0 0-1.5 20.9-9.7 14.6-8.2-6.3-27.8-87.6-27.8-87.6 0 0-28.6-22.5-27.8-60.5 0.8-38 45.1-96.5 64.6-117.5 19.5-21 113.5-48 189.8-52.1 76.3-4.1 129 44.4 129 44.4-26.1-9.8-136.8-9.5-216 36.2z"/>
		<path id="Layer" class="s1" d="m87.1 213.3c-1.2 2.9-5.1 4.5-7.9 2.9l-3.6-2.4c-6.3-4.2-12-7.9-18.7-11.6-3.7-1.8-5.3-5.7-1.4-7.4 8.5-3.1 33.6 6.2 31.6 18.5z"/>
		<path id="Layer" class="s1" d="m116.7 171.7c4.3 8.8-7.1 9.4-12.9 4.8l-3.3-2.1c-17.6-11.6-42.6-29.1 1.7-11 5 2.2 11.8 3.5 14.5 8.3z"/>
		<path id="Layer" class="s1" d="m142.5 294.8c-0.3 0.2-0.6 0.3-0.9 0.4"/>
		<path id="Layer" class="s1" d="m388.4 113.1c-5.2 2.9-12.8 2.7-18 2.6-11.6-0.4-23.1-2.6-34.4-5-10.1-2.1-20.1-4.7-30.2-6.3-8.7-1.3-17-1.9-25.9-1.4-2.8 0-2.5 0.1-4.1 0.3-38.3 4.3-78.1 14.2-107.6 40.3-28.3 25.1-39.2 63.1-47.3 98.7-2.2 9.5-4.4 19-6.3 28.6-3.3 8.5-7.3 16.7-11.9 24.4-4.2 7.1-9.4 13.4-14.7 19.6-5.3 3.9-10.6 7.9-14.8 13-6.1 7.5-8.9 16.1-9.7 25.1-2.3 7-3.5 14.2-2.9 21.5 0 0.8 0.1 1.6 0.2 2.4-10.4-29.1 0.8-67.9 33.8-72.8 0.9-45.1 22.4-121.2 58-164.2 32.2-39.5 120.1-56.6 181.2-50.6q1.4 0.4 2.7 0.9c9.5 0.8 18.5 5 27.9 7-6.8-5-14.5-8.4-22.4-11.3-15.7-9.7-33.8-14.9-51.3-18.6-3.6-0.9-7.3-1.4-11-1.5-46.9-4-93 6.3-137.8 18.8l-3.1 0.9c-25.5 7.2-52.4 13.8-73.9 29.3-30 23-45.6 59.6-59.1 93.4-11.9 25.1-5.8 53.5 12 71 1.9-17.4 5.1-34.3 10-51.1 1.1-2.6 0.3-3.5 2.5-3.8 3.3 45.2-13.2 78.6 19.5 132.2 5.3 9.4 6.3 17.9 7.6 25.5-8-0.8-14.9-4.2-20.8-9.2-5.8-18.8-21.1-30.4-19.9-77h-0.1c-0.7-0.3-1.3-0.5-2-0.9-0.7-0.4-1.3-0.7-1.9-1.2l-0.7-1c-0.4-0.3-0.7-0.5-1-0.7l-0.1 0.2c-0.4 0.5-0.1-0.2-0.1-0.4l-1.3-1.7c-3-4.1-6.3-8.7-9-12.4l-0.1 0.1c-0.1 0.1-0.1 0.2-0.1 0.2-6.4-9.2-12.4-20.3-14.1-31-2-8.3-1.2-16.8 0.5-24.5 7.4-26.8 31.6-87.6 63.3-113.6 24.1-25.5 160.8-65.1 230-56.7l2.1 0.3c5.5 0.7 10.9 1.8 16.3 3.2 17.3 4 35.3 10.1 49.6 20.4 10.6 7.4 41.6 19 40.4 37z"/>
		<path id="Layer" class="s1" d="m208.2 86.1c-7.2-4.5-28-9.9-12.2 1.5 12 10.2 17.1 2.9 12.2-1.5z"/>
		<path id="Layer" class="s1" d="m141.7 135.4c3.5 6-3.6 7.2-8 4.5-9-5.9-18.9-10.3-27.9-15.3-1.4-5.4 16.3 0.9 21.4 2.6l0.8 0.3c5 1.9 10.7 3.6 13.7 7.9z"/>
		<path id="Layer" class="s1" d="m171.1 109.9c-7.9 0.2-13.8-6.4-20.3-10.4-10-10.9 16.6-0.5 20.6 2.4l0.1 0.1c2.9 2.1 2.3 6.6-0.4 7.9z"/>
	</g>
</g>
    </g>
  </g>
</svg>
