<?xml version='1.0' encoding='ASCII' standalone='yes'?>
<svg xmlns:xlink="http://www.w3.org/1999/xlink" xmlns="http://www.w3.org/2000/svg" version="1.1" width="793.8px" viewBox="0 0 793.8 793.8" height="793.8px">
  <g>
    <g transform="translate(170.1, 56.7) scale(1 1) translate(0, 0) scale(1 1) ">
      <g><title>hat-hip-svg</title>
	<style>
		.s0 { fill: #000000 } 
	</style>
	<path id="Layer" fill-rule="evenodd" class="s0" d="m429.3 276.6c-0.7 0.1-1.5 0.2-2.2 0.3-6.1 0.8-11.8-0.3-17.6-1.2-3.9-33.5-11.7-65.4-21.8-91.5-95.1-10.4-197 18.4-262.7 90l4.4 26.7c0.8 4.6 1.6 9.1 2.3 13.7 0.4 2.9 0.4 5.8-1.6 8.2-6.7 7.8-18-3.9-27.3-8.6-2.8-0.3-5.5-0.5-8.2-0.3-44.7 5.8-35.9 92.4 13.2 77.2 4.2-2.6 7.7-1.8 9.3 1.9 6.4 5.8 11.5 14 18 23.3-2.9 2.4-6 4.7-9.3 6.8-0.1-0.1-0.1-0.2-0.2-0.3-26.8 10.6-56.5 7-84.2 4.4-146.4-7.6-126.9-161.9-6.9-259.3 22.6-16.6 47.5-30.2 73.4-40.6 3.5-1.4 2-7.2-1.6-5.8-17.2 6.9-33.9 15.1-49.8 24.6v-5.7c0-9.6 0.1-19.5 1.8-28.3 0.8-6 2.2-12.5 4.4-17.4 2.6-15 44.4-66.3 115.2-76 31.2-4.3 74.3 9.7 89.8 37.8 74.2-17.5 167.8-18 229 40.2 63 68.3-14.4 158-67.4 179.9zm-321.8 28.9c0-0.4 0-1.4 0-1.8l-0.6 0.3c-0.4 0.3-0.9 0.5-1.4 0.6 0.7 0.3 1.4 0.6 2 0.9z"/>
</g>
    </g>
  </g>
</svg>
