<?xml version='1.0' encoding='ASCII' standalone='yes'?>
<svg xmlns:xlink="http://www.w3.org/1999/xlink" xmlns="http://www.w3.org/2000/svg" version="1.1" width="793.8px" viewBox="0 0 793.8 793.8" height="793.8px">
  <g>
    <g transform="translate(170.1, 56.7) scale(1 1) translate(0, 0) scale(1 1) ">
      <g><title>Turban-svg</title>
	<style>
		.s0 { fill: #ffffff } 
		.s1 { fill: #000000 } 
	</style>
	<g id="Layer">
		<path id="Layer" class="s0" d="m47.2 380.8c-49.7-44.5-22.6-181.9 7.9-245.3 30.5-63.4 103.3-128.3 165.9-130.6 62.6-2.3 111.2 34.5 179.6 115.4 68.4 80.9 59.6 164.3 58.8 206.3-0.8 42-46.9 94-47.4 68 3.8-101.6-13.8-139.1-27.5-160.5-13.7-21.4-108.1-95.7-108.1-95.7 0 0-73.4 52.2-139.2 162.6-65.8 110.4-27.7 123.5-27.7 123.5 0 0-37.2-10.1-62.3-43.7z"/>
		<path id="Layer" class="s1" d="m93.4 180c-18.2 23.4-32.8 49-45.2 75.9-0.3 0.5-1 0.1-0.9-0.4 6.5-29.1 21.9-55.5 39.3-79.4l0.7-0.9c17.6-24 37.9-48.1 61.9-65.9 2.5-1.8 4.6 1.9 3 3.9-9.4 11.9-20.2 22.5-30.5 33.6-9.9 10.6-19.4 21.6-28.3 33.2z"/>
		<path id="Layer" class="s1" d="m458.9 357.2c-7.1 20.9-19.8 41.9-40.9 49.2-6.2-1.9-11.9-4.3-15.6-10v-7.1c0.8-2.9 1.6-5.8 2.3-8.7 1.9-8.1 3-16.3 3.6-24.6 0.5-6.8 0.2-13.9 0.9-20.8-0.3-5.6-0.6-11.1-1.1-16.6-1.7-17.7-4.9-35.5-11.2-52.2-6.4-17-16.4-31.9-29.1-44.8-27.2-27.6-61-47.7-87.5-76.1l-1.4-1.5h-0.1c-3.3 3.4-6.6 6.7-9.9 10.1l-15 15.3c-30.7 31.3-61.1 63-87.8 97.8-15.4 20.1-29.2 41.1-41.1 63.4-5.7 10.5-10.8 21.4-15.4 32.4l-1.8 4.4c-1.9 4.6-3.9 9.6-5.2 14.7 0 0.2-0.1 0.3-0.2 0.5-0.7 2.1-1 4.2-1 6.4 0 1.1 0.3 2.6 0.3 4-0.5 0.3-0.9 0.6-1.4 0.9-0.4 0.3-1.2 0.5-1.5 0.8 0 0.1-0.1 0.1-0.1 0.1-0.2-0.1-0.3-0.2-0.5-0.3-2-9.2 0.2-19 3.1-28.2 4.3-13.7 9.8-27.1 16.1-40.1 23-47.3 57-88.5 92.4-127 18-19.7 36.7-38.8 55.3-57.9 9.3-9.5 18.6-19.1 27.7-28.8 4.6-4.9 9.1-9.7 13.6-14.6 4.4-4.9 8.4-10 13.9-13.6 4.4-2.9 8.8 2.6 6.7 6.7-3.1 6.3-8.6 11.3-13.4 16.4l-0.5 0.5c-4.7 5.1-9.4 10.1-14.2 15.1-5.4 5.7-11 11.4-16.5 17.1 4.7-0.6 9.5-0.9 14.2-1.6 6.4-0.9 12.6-2.3 18.9-3.9 6.6-1.6 13.1-3.7 19.4-6.3 5.9-2.4 11.5-6.3 18-6.7 5.5-0.3 7.2 6.5 4.2 10.1-4.2 4.9-11.8 6.9-17.9 8.7l-0.9 0.3c-6.8 2.1-13.8 3.7-20.8 4.7-9.2 1.4-19.9 2-29.8 0.6 19.7 11.6 37.9 25.9 56 39.9l3.2 2.5c17.7 13.6 35 28.3 47.6 46.9 11.8 17.4 18.9 37.7 22.9 58.2 1.9 10.1 3.2 20.3 4.1 30.6 3.2 9.1 2.7 19.9 1.9 29.9l-0.3 3.5v1c0.1 6.2 2.6 20.2-3.3 24.9q-0.2 0.7-0.3 1.5c0.7-0.4 1.5-0.9 2.2-1.4q0.4-0.3 0.9-0.6l0.8-0.7c0.1-0.1 0.1-0.1 0.1-0.1 1.8-1.6 3.6-3.3 5.2-5.1 3-3.4 5.9-7.7 8.6-12.6 6-10.8 9.8-22.6 12.8-34.8 5.4-22.2 7.7-46.2 5.2-69-0.3-3.2-1-7.2-2.1-11.3-2.6-9.8-5.6-19.4-8.9-28.9-6.7-19-14.9-37.5-24.5-55.2-19.4-36-44.4-69.3-74.4-97.3-30.4-28.3-69.8-50.9-112-53.2-41.8-2.2-79.8 19.4-110.4 46.2-55.6 48.8-89.9 120.3-96.8 193.7-3.7 39-0.9 81 19.4 115.5 7.8 13.3 18 25 30 34.8 11.3 9.2 24.1 14.6 37.8 18.2 0.2 0.5 0.5 0.9 0.8 1.4 0.4 0.7 0.8 1.3 1.2 1.9 0 0.3-0.1 0.7-0.2 1-2.1 0.3-4.2 0.3-6.3 0.1-4-0.5-8-1.2-11.9-2.2-32.5-8.5-56.5-35.5-69.5-65.5-17.4-40.4-17-86.9-9.8-129.5 13.2-77.9 56.1-150.7 120.7-196.7 18.1-12.9 38.2-24.1 60-29.2 22.2-5.2 45.4-4.1 67.4 1.6 43.6 11.3 79.4 40.7 109.1 73.4 29 31.9 52.9 68.5 70.3 107.9l0.9 2c12.3 28.1 23 57.3 23.5 88.2 0.4 26.6-2.3 54.3-10.7 79.7z"/>
		<path id="Layer" class="s1" d="m176.9 132.1c-3.7 7-9.7 12.9-14.8 18.9-5.2 6.2-10.4 12.5-15.6 18.7-10.5 12.7-20.8 25.6-30.7 38.8l-2.6 3.5c-8.7 11.6-17.3 23.5-24.9 35.9-4 6.5-7.5 13.2-10.7 20.1-3.1 6.6-4.5 14.5-8.1 20.7-0.2 0.4-0.9 0.4-1-0.1-1.2-6.7 1.7-14.7 3.8-20.9 2.5-7.4 6-14.5 9.8-21.3 8-14.2 17.5-27.5 27-40.7 9.7-13.4 19.8-26.5 30.3-39.2 4.9-5.9 10-11.8 15.2-17.5l2-2.1c5.5-5.9 11-12.8 17.9-17 1.5-0.9 3.1 0.9 2.4 2.2z"/>
	</g>
</g>
    </g>
  </g>
</svg>
