<?xml version="1.0" encoding="utf-8"?>
<!-- Generator: Adobe Illustrator 24.2.0, SVG Export Plug-In . SVG Version: 6.00 Build 0)  -->
<svg version="1.1" id="图层_1" xmlns="http://www.w3.org/2000/svg" xmlns:xlink="http://www.w3.org/1999/xlink" x="0px" y="0px"
	 viewBox="0 0 85.04 85.04" style="enable-background:new 0 0 85.04 85.04;" xml:space="preserve">
<style type="text/css">
	.st0{clip-path:url(#SVGID_1_);}
	.st1{fill-rule:evenodd;clip-rule:evenodd;}
	.st2{fill-rule:evenodd;clip-rule:evenodd;fill:#FFFFFF;}
	.st3{fill:none;stroke:#000000;stroke-width:0.5048;stroke-linecap:round;stroke-linejoin:round;stroke-miterlimit:10;}
</style>
<g>
	<g id="Explaining.svg1" transform="matrix(0.28961,0,0,0.259384,1607.34,360.141)">
		<g transform="matrix(1,0,0,1,-409,-366.5)">
			<g>
				<defs>
					<rect id="SVGID_3_" x="-5044.66" y="-820.57" width="51.62" height="46.25"/>
				</defs>
				<clipPath id="SVGID_1_">
					<use xlink:href="#SVGID_3_"  style="overflow:visible;"/>
				</clipPath>
				<g class="st0">
					<g id="body-mono-Explaining">
						<path id="_xD83D__xDD8D_-Ink20" class="st1" d="M-4949.83-819.04c-1.57,2.55-3.01,5.17-4.31,7.9
							c-0.67,1.41-1.3,2.84-1.86,4.31c-0.12-3.17-0.14-6.37-0.47-9.5c-0.02-0.23-0.36-0.34-0.4-0.06c-0.37,2.84-0.43,5.76-0.56,8.63
							c-0.16-0.05-0.34-0.09-0.53-0.09c-1.88,0-3.74,0.17-5.61,0.34c-0.84,0.08-1.72,0.13-2.58,0.28c0.69-0.85,1.33-1.75,1.93-2.69
							c0.6-0.96,1.3-2.45,0.24-3.37c-1.16-1.01-3.45,0.31-4.58,0.83c-0.57,0.26-1.13,0.55-1.68,0.85c-0.69-2.17-2.83-2.46-4.65-2.16
							c-1.3,0.21-2.57,0.71-3.84,1.09c-1.61,0.48-3.23,0.93-4.85,1.36c-2.93,0.76-5.87,1.43-8.83,2.01
							c-0.08-0.1-0.19-0.18-0.33-0.22c-1.01-0.28-2.13-0.07-3.17-0.04c-1.07,0.02-2.14,0.02-3.21,0c-1.91-0.04-3.82-0.06-5.72-0.1
							c-0.54-0.37-1.23-0.89-1.4-1.59c-0.21-0.86,0.45-1.82,0.75-2.55c1.17-2.82,1.58-5.97,1.12-9.04
							c-0.08-0.55-0.25-1.15-0.49-1.71c2.09,0.25,4.15,0.42,6.26,0.5c4.2,0.15,8.4,0.31,12.6,0.35c8.4,0.07,16.79,0.07,25.19,0
							c4.75-0.04,9.49-0.09,14.23-0.36c-0.39,0.55-0.76,1.11-1.13,1.67c-0.08-0.03-0.17,0.02-0.16,0.13c0,0.04,0.01,0.07,0.01,0.11
							C-4948.55-821.13-4949.2-820.07-4949.83-819.04 M-4959.17-722.11c-1.95-0.07-3.9-0.14-5.85-0.21
							c-3.83-0.14-7.66-0.27-11.49-0.41c-7.59-0.27-15.18-0.53-22.77-0.76c-7.57-0.23-15.15-0.48-22.72-0.22
							c-7.59,0.26-15.16,0.95-22.74,1.5c-4.21,0.3-8.43,0.57-12.65,0.7c-4.02,0.12-8.07-0.06-12.09,0.26
							c-0.13-1.11-0.04-2.21-0.05-3.32c1.32-0.85,2.61-1.75,3.88-2.64c4.65-3.23,9.05-6.89,13.21-10.89
							c0.64-0.61,1.26-1.24,1.88-1.88c-0.43,1.05-0.09,2.41,1.15,2.85c1.51,0.54,3.05,0.35,4.61,0.31c1.59-0.04,3.18-0.08,4.77-0.12
							c3.1-0.07,6.21-0.14,9.32-0.2c6.07-0.11,12.13-0.2,18.2-0.25c12.21-0.11,24.4,0.08,36.61,0.32c3.43,0.07,6.86,0.16,10.29,0.07
							c1.72-0.04,3.44-0.06,5.16-0.16c1.37-0.08,2.76-0.3,4.13-0.5c0.17,2.67,0.35,5.34,0.56,8.01c0.13,1.76,0.27,3.52,0.41,5.29
							c0.06,0.73,0.06,1.47,0.15,2.16C-4956.53-722.1-4957.84-722.06-4959.17-722.11 M-4957.83-797.54
							c-0.05,2.04-0.07,4.09-0.09,6.14c-0.16-0.1-0.34-0.18-0.54-0.21c-2.13-0.36-4.42-0.09-6.58-0.05
							c-2.09,0.04-4.18,0.03-6.27,0.14c-2.09,0.11-4.18,0.24-6.27,0.36c-0.98,0.06-1.95,0.11-2.92,0.25
							c-0.67,0.1-1.52,0.09-2.23,0.31c2.99-3.23,5.96-6.48,8.93-9.71c0.09-0.1,0.15-0.2,0.2-0.3c1.99-1.35,3.89-2.87,5.62-4.61
							c1.37,0.59,2.93,0.66,4.38,0.8c1.88,0.17,3.73,0.34,5.61,0.34c0.13,0,0.25-0.01,0.36-0.04
							C-4957.71-801.94-4957.78-799.74-4957.83-797.54 M-5035.36-757.82c4.56,1.63,9.5,1.61,14.24,1.93
							c5.06,0.35,10.1,0.64,15.17,0.86c10.11,0.44,20.21,1.03,30.32,1.51c5.77,0.27,11.55,0.57,17.32,0.89
							c0.41,0.02,0.8-0.09,1.14-0.31c0.19,4.24,0.42,8.49,0.69,12.72c0.03,0.53,0.07,1.06,0.1,1.59c-2.72-0.38-5.41-0.74-8.15-1
							c-3.07-0.29-6.14-0.53-9.22-0.76c-6-0.44-12-1.04-18.01-1.25c-12.25-0.44-24.52-0.29-36.77-0.19
							c-3.47,0.03-6.93,0.06-10.4,0.11c-1.73,0.02-3.47,0.05-5.2,0.08c-1.74,0.03-3.61-0.17-5.26,0.51
							c-0.02,0.01-0.03,0.02-0.04,0.02C-5044.47-746.38-5040.01-752.2-5035.36-757.82 M-5019.34-774.64
							c7.62,1.55,15.36,1.44,23.08,1.6c7.9,0.16,15.81,0.05,23.72,0.07c4.49,0.01,9.02,0.23,13.49-0.22
							c0.53-0.05,0.94-0.28,1.23-0.59c0.08,5.31,0.23,10.62,0.44,15.93c-0.29-0.14-0.61-0.22-0.94-0.24
							c-10.1-0.66-20.2-1.27-30.31-1.63c-10.1-0.37-20.22-0.8-30.33-0.67c-4.93,0.07-10.15-0.29-15.02,0.91
							c1.85-2.19,3.74-4.35,5.71-6.41C-5025.38-768.9-5022.3-771.71-5019.34-774.64 M-5013.52-780.9c0.01-0.01,0.02-0.03,0.02-0.04
							c0.03,0.02,0.06,0.04,0.1,0.04c7.13-0.18,15.13,2.33,21.8-1.52c2.98-1.72,5.44-4.44,7.84-7.06c0,0.02,0,0.04,0,0.06
							c0.02,0.21,0.1,0.47,0.29,0.56c0.79,0.39,1.71,0.41,2.55,0.55c0.97,0.16,1.93,0.25,2.91,0.32c2.16,0.14,4.32,0.3,6.48,0.43
							c2.16,0.14,4.32,0.15,6.48,0.21c2.17,0.06,4.43,0.35,6.58,0.01c0.2-0.03,0.37-0.1,0.53-0.2c0,3.1,0.03,6.19,0.05,9.28
							c0,0.5,0.01,1.01,0.02,1.51c-0.29-0.3-0.69-0.5-1.19-0.55c-3.97-0.39-7.98-0.22-11.97-0.2c-3.92,0.01-7.83,0.03-11.75,0.04
							c-7.91,0.03-15.81,0.12-23.72,0.28c-3.85,0.08-7.67,0.44-11.46,1.14C-5016.41-777.59-5014.92-779.2-5013.52-780.9
							 M-5075.48-724.61c-1.46,0.5-2.91,0.28-4.37,0.62c-0.09,0.02-0.17,0.06-0.25,0.11c-4.38-2.09-7.3-6.28-9.3-10.98
							c-2.11-4.95-3.56-10.25-4.53-15.62c-2.01-11.07-2.01-22.54-0.97-33.73c1.02-11,3.04-21.94,5.92-32.51
							c1.98-7.26,4.5-14.6,8-21.22c4.04,3.02,7.18,7.38,10.13,11.64c3.53,5.09,6.71,10.47,9.56,16.06
							c-0.29,0.96-0.34,2.16-0.48,3.02c-0.27,1.65-0.52,3.32-0.71,4.99c-0.41,3.56-0.81,7.12-1.23,10.68
							c-0.83,7.04-1.83,14.05-2.93,21.04c-0.09,0.57,0.05,1.05,0.32,1.4c-2.18,1.28-4.34,2.63-6.44,4.08
							c-4.62,3.2-8.93,6.92-12.32,11.7c-0.09,0.12,0.05,0.29,0.16,0.18c7.26-7.49,16.29-12.2,25.15-16.85
							c4.53-2.38,9.03-4.79,13.38-7.57c4.54-2.9,8.88-6.19,13.03-9.74c4.74-4.06,9.21-8.5,13.39-13.27c0.49-0.56,0.37-1.26,0-1.71
							c0.13-0.04,0.23-0.16,0.23-0.37c0.1-3.11,0.94-5.76,2.58-8.28c1.52-2.34,3.46-4.26,5.2-6.38c0.78-0.94,1.52-1.92,2.18-2.96
							c0.68-1.07,1.1-2.26,1.69-3.38c0.69-1.31,1.28-0.64,1.6,0.55c0.36,1.35,0.34,2.92,0.2,4.31c-0.16,1.46-0.55,2.89-1.13,4.22
							c-0.54,1.24-1.16,2.51-0.8,3.93c0.6,2.34,3.16,3.7,5.1,4.23c2.16,0.59,4.42,0.47,6.61,0.17c2.74-0.38,5.47-0.94,8.18-1.53
							c3.14-0.69,6.26-1.48,9.35-2.38c1.46-0.42,2.9-0.98,4.37-1.33c0.52-0.12,1.49-0.31,2.11-0.01
							c-7.91,5.27-16.54,8.77-25.3,11.83c-1.09,0.38-0.64,2.22,0.47,1.91c9.41-2.57,18.27-7.34,26.69-12.56
							c0.13-0.08,0.24-0.2,0.32-0.35c0.85-0.33,1.71-0.62,2.59-0.86c0.39-0.11,2.41-0.85,2.67-0.56c0.36,0.41-0.88,1.72-1.19,2.1
							c-2.2,2.72-4.82,4.95-7.66,6.79c-2.88,1.86-5.94,3.35-9.01,4.75c-3.44,1.57-7.08,2.81-10.43,4.61c-1.33,0.72-0.4,3.15,1,2.66
							c1.81-0.64,3.56-1.57,5.31-2.37c1.49-0.68,2.98-1.35,4.46-2.05c1.03-0.49,2.06-0.99,3.08-1.52c-1.52,1.6-3.05,3.2-4.57,4.8
							c-2.64,2.77-5.14,5.93-8.36,7.87c-3.18,1.92-6.82,2.14-10.36,2.1c-1.78-0.02-3.55-0.08-5.33,0c-1.87,0.08-3.54,0.41-5.31,1.06
							c-0.03,0.01-0.06,0.03-0.08,0.06c-0.06-0.08-0.17-0.13-0.28-0.05c-4.82,3.18-9.22,7.31-13.45,11.39
							c-4.36,4.21-8.46,8.68-12.36,13.41c-3.74,4.52-7.45,9.06-11.52,13.22c-3.97,4.06-8.22,7.75-12.65,11.17
							c-2.42,1.86-4.89,3.65-7.45,5.25C-5072.59-725.99-5073.98-725.13-5075.48-724.61 M-5075.08-847.07
							c1.73-2.17,3.59-4.17,5.55-6.03c0.87,0.29,1.78,0.37,2.7,0.38c1.4,0.02,2.8,0.08,4.21,0.06c2.7-0.03,5.39-0.13,8.09-0.14
							c5.52-0.03,11.03-0.04,16.55,0.02c0.72,0.01,1.24-0.34,1.57-0.84c1.12,1.41,2.27,2.79,3.43,4.15c1.89,2.21,3.9,4.31,6.04,6.23
							c-0.42,0-0.83,0.01-1.25,0c-1.91-0.01-3.82-0.03-5.72-0.04c-3.83-0.02-7.66-0.04-11.49-0.05c-7.61-0.02-15.25,0.05-22.85,0.48
							c-2.11,0.12-4.24,0.17-6.34,0.4c-1.14,0.12-2.28,0.27-3.42,0.41c-0.23,0.03-0.46,0.06-0.68,0.1
							C-5077.58-843.73-5076.38-845.44-5075.08-847.07 M-5044.59-866.38c-0.05,0.04-0.11,0.07-0.16,0.12
							c-0.11,0.09-0.09,0.26,0.04,0.32c0.18,0.08,0.36,0.13,0.55,0.18c0.58,0.93,1.03,2.09,1.34,2.67c0.9,1.68,1.94,3.28,3,4.85
							c0.21,0.31,0.43,0.62,0.65,0.93c-5.12-0.01-10.24,0.02-15.37,0.23c-2.7,0.11-5.4,0.21-8.09,0.44
							c-1.11,0.09-2.21,0.25-3.31,0.4c5.74-4.63,12.19-8.17,18.88-10.79c-0.01,0.01-0.02,0.02-0.03,0.03
							c-0.15,0.18,0.07,0.42,0.24,0.27C-5045.98-867.53-5045.22-867.16-5044.59-866.38 M-5018.7-811.94
							c-0.15,0.25-0.29,0.5-0.43,0.76c-0.34-0.37-0.81-0.62-1.41-0.65c-6.71-0.23-13.42-0.44-20.14-0.44
							c-3.31,0-6.65-0.13-9.96,0.06c-1.66,0.09-3.32,0.2-4.98,0.31c-1.16,0.07-2.39,0.16-3.53,0.54c-2.61-5.1-5.51-10.01-8.68-14.7
							c7.19,0.98,14.49,0.88,21.72,1.15c8.19,0.31,16.38,0.38,24.57,0.59c2.25,0.06,4.49,0.12,6.74,0.19
							c1.16,0.04,2.32,0.07,3.48,0.11c0.36,0.01,0.74,0.02,1.11,0.01c-0.03,0.07-0.06,0.13-0.09,0.2c-0.63,1.46-1.43,2.8-2.35,4.04
							C-5014.62-817.1-5017-814.82-5018.7-811.94 M-5027.51-796.22c-0.25-0.77-0.85-1.37-1.82-1.32c-5.5,0.28-11.01,0.47-16.5,0.88
							c-2.68,0.2-5.36,0.33-8.03,0.59c-1.38,0.14-2.75,0.39-4.12,0.59c-0.94,0.14-1.93,0.3-2.83,0.67c0.18-2.16,0.33-4.31,0.46-6.48
							c0.11-1.74,0.14-3.49,0.13-5.23c0-0.88-0.03-1.77-0.07-2.65c0.08,0.02,0.16,0.03,0.24,0.02c0.14-0.02,0.27-0.04,0.39-0.07
							c1.26,0.55,2.7,0.67,4.03,0.78c1.59,0.13,3.18,0.26,4.76,0.39c3.38,0.27,6.79,0.25,10.18,0.38c6.67,0.24,13.34,0.38,20,0.58
							c-0.31,1.48-0.32,3,0.17,4.44c-0.34-0.13-0.74-0.07-1.08,0.31C-5023.5-800.24-5025.48-798.19-5027.51-796.22 M-5046.91-780.46
							c-0.14-0.42-0.39-0.8-0.7-1.07c-1.17-1-3.29-0.43-4.69-0.35c-1.66,0.09-3.31,0.18-4.97,0.27c-0.5,0.03-3.07,0.17-4.95,0.62
							c0.39-3.28,0.74-6.57,1.06-9.87c0.07-0.69,0.13-1.38,0.19-2.08c0.89,0.32,1.85,0.44,2.77,0.48c1.37,0.07,2.75,0.2,4.13,0.22
							c2.75,0.05,5.51-0.1,8.25-0.15c4.94-0.09,9.89-0.36,14.83-0.57c-4.96,4.5-10.2,8.6-15.67,12.33
							C-5046.75-780.56-5046.83-780.51-5046.91-780.46 M-5062.52-778.51c0.42,0.06,0.83,0.08,1.15,0.12
							c1.59,0.18,3.16,0.34,4.75,0.37c1.58,0.03,3.17,0.05,4.75,0.08c0.34,0.01,0.67,0.01,1.01,0.02
							c-4.17,2.55-8.48,4.83-12.72,7.23C-5063.2-773.3-5062.85-775.91-5062.52-778.51 M-5017.04-836.47
							c9.51,4.51,21.71,4.92,29.89-2.57c0.81,0.25,1.71,0.33,2.43,0.41c1.61,0.18,3.21,0.35,4.83,0.4c3.16,0.11,6.31,0.27,9.47,0.32
							c6.39,0.09,12.77,0.13,19.16,0.19c0.54,0.01,0.98-0.18,1.31-0.48c0.65,1.22,1.25,2.48,1.8,3.77c0.8,1.88,1.48,3.82,2.04,5.8
							c-0.12-0.02-0.24-0.04-0.38-0.04c-8.39-0.16-16.79,0.11-25.19,0.15c-8.4,0.04-16.79,0-25.19,0.07
							c-2.32,0.02-4.63,0.02-6.95,0.21c-1.21,0.1-2.43,0.14-3.62,0.36c-0.13,0.02-0.27,0.05-0.41,0.07
							c-1.6-1.04-3.59-0.83-5.42-0.87c-2.1-0.04-4.2-0.08-6.3-0.12c-4.13-0.07-8.26-0.12-12.39-0.15
							c-8.2-0.06-16.38,0.17-24.57,0.49c-4.08,0.16-8.14,0.43-12.16,1.13c-0.27-0.39-0.54-0.78-0.81-1.17
							c-2.85-4.03-6.23-9.2-10.92-10.45c0.18-0.33,0.36-0.65,0.55-0.98c3.25,0.96,6.84,0.91,10.16,1.11
							c3.83,0.23,7.65,0.39,11.48,0.5c7.62,0.21,15.23,0.34,22.85,0.47c2.11,0.04,4.23,0.07,6.34,0.11
							c1.14,0.02,2.28,0.05,3.42,0.07c0.64,0.01,1.21,0.01,1.81-0.23c0.56-0.22,1.11-0.55,1.65-0.82c0.19-0.09,0.34-0.24,0.47-0.4
							C-5020.2-838.13-5018.65-837.24-5017.04-836.47 M-4979.88-851.48c1.2,0.37,2.43,0.43,3.7,0.54c1.66,0.14,3.32,0.16,4.98,0.18
							c2.65,0.02,5.31,0,7.96-0.08c1.14-0.04,1.81-0.89,2-1.86c0.03,0.02,0.06,0.05,0.08,0.07c3.23,2.97,6.16,6.37,8.63,10.13
							c-5.97,0.02-11.94,0.03-17.91,0.07c-3.16,0.02-6.32,0.17-9.47,0.26c-1.55,0.04-3.07,0.19-4.62,0.35
							c-0.03,0-0.06,0.01-0.09,0.01c0.16-0.21,0.33-0.42,0.48-0.64C-4982.28-845.01-4980.77-848.15-4979.88-851.48 M-4941.05-717.64
							c0.53-1.62,0.32-3.35,0.29-5.06c-0.03-1.75-0.05-3.49-0.05-5.24c-0.01-3.41-0.03-6.83-0.06-10.24
							c-0.07-6.91-0.14-13.82-0.38-20.72c-0.48-13.64-1.41-27.25-2.92-40.81c-0.74-6.59-1.65-13.16-2.89-19.66
							c0.02-0.03,0.03-0.05,0.05-0.08c1.23-1.84,2.64-3.54,3.85-5.39c0.11-0.16-0.6,0.3-0.61,0.08c0.04-0.02,0.52-0.5,0.48-0.53
							c-0.89-0.44-0.54-1.93-0.49-1.96c0.12-0.07-1.55-4.86-1.73-5.34c-0.64-1.73-1.35-3.42-2.15-5.06
							c-0.49-0.99-1.01-1.96-1.55-2.91c-0.1-0.71-0.44-1.37-1.03-1.72c-1.03-1.65-2.15-3.25-3.34-4.76
							c-4.88-6.2-10.97-11.21-17.62-14.78c-0.96-0.52-1.95-0.94-2.94-1.39c-1.05-0.48-2.02-1.11-3.06-1.61
							c-1.68-0.82-3.35-0.77-5,0.1c-0.14,0.07-0.04,0.32,0.1,0.28c1.06-0.31,2.16-0.36,3.22-0.03c1.05,0.33,1.84,1.06,2.76,1.67
							c1.63,1.08,3.45,1.79,5.12,2.8c2.21,1.34,4.36,2.81,6.42,4.42c-2.14,0.13-4.27,0.22-6.41,0.28c-1.59,0.05-3.18,0.06-4.76,0.16
							c-1.13,0.07-2.3,0.05-3.43,0.26c0.27-2.09,0.27-4.2-0.07-6.23c0,0,0,0,0,0c-0.08-0.49-0.18-0.98-0.3-1.46
							c-0.26-1.02-1.1-1.18-1.7-0.79c-0.06-0.05-0.12-0.1-0.18-0.15c-0.73-0.66-1.38-1.45-1.95-2.28c-1.18-1.72-2.14-3.71-2.86-5.72
							c-0.73-2.03-1.25-4.16-1.76-6.28c-0.25-1.06-0.53-2.11-0.79-3.17c-0.23-0.92-0.39-1.94-0.8-2.78
							c-0.08-0.16-0.31-0.13-0.35,0.05c-0.22,1.05-0.1,2.25-0.06,3.32c0.04,1.19,0.11,2.37,0.25,3.55c0.29,2.45,0.77,4.86,1.53,7.18
							c0.73,2.23,1.69,4.31,3,6.19c0.87,1.25,2.1,2.9,3.53,3.57c0.19,2.34,0.17,4.69-0.33,7.01c-0.65,3.04-1.89,5.92-3.6,8.4
							c-3.58,5.19-9.11,8.11-14.89,8.72c-5.97,0.62-12.09-0.87-17.45-3.8c-5.97-3.26-10.92-8.3-15.37-13.73
							c-2.56-3.13-5.22-6.21-7.6-9.53c-0.42-0.59-1.1-1.78-1.9-2.85c0.81-0.01,1.65-0.14,2.37-0.25c1.49-0.21,2.95-0.54,4.4-0.96
							c2.72-0.77,5.59-1.85,7.97-3.55c5.03-3.6,7-8.17,7.67-14.46c0.21-1.99-2.87-2.47-3.16-0.48c-0.44,3.07-1.11,4.56-1.98,7.51
							c-0.84,2.83-2.07,3.89-4.4,5.45c-2.19,1.47-4.68,2.32-7.1,3.2c-1.34,0.49-2.69,0.93-4.04,1.38c-0.86,0.29-1.88,0.53-2.75,0.97
							c-0.46-0.45-0.93-0.78-1.41-0.91c0.04-0.07-0.01-0.17-0.1-0.15c-0.14,0.03-0.28,0.07-0.42,0.1c-0.14,0.01-0.28,0.04-0.42,0.1
							c-8.41,2.03-16.49,6.36-23.34,12.26c-0.35,0.16-0.68,0.36-1,0.61c-0.16,0.13-0.27,0.33-0.3,0.54
							c-1.03,0.94-2.03,1.91-2.99,2.92c-7.78,8.12-12.7,18.92-16.15,30.03c-3.4,10.95-5.7,22.42-6.96,33.91
							c-1.29,11.71-1.44,23.67,0.43,35.32c1,6.25,2.63,12.4,5.03,18.17c2.15,5.18,5.66,11.08,11.17,11.71
							c0.02,0.02,0.03,0.04,0.05,0.06c2.16,1.99,5.38,0.61,7.64-0.57c0.36-0.19,0.71-0.39,1.07-0.59c-0.19,0.8-0.27,1.64-0.31,2.43
							c-0.08,1.64,1.99,1.73,2.38,0.37c3.35,0.66,6.81,0.67,10.2,0.65c3.79-0.02,7.58-0.17,11.36-0.37c7.51-0.4,15.01-1,22.52-1.27
							c15.21-0.56,30.47,0.63,45.67,1.23c4.26,0.17,8.53,0.34,12.79,0.5c4.36,0.17,8.71,0.2,13.03,0.86c1.59,0.24,2.2-1.5,1.75-2.58
							c0.11-0.73,0-1.53-0.06-2.38c-0.11-1.6-0.22-3.2-0.32-4.81c-0.2-3.12-0.39-6.25-0.57-9.38c-0.37-6.33-0.68-12.67-0.99-19.01
							c-0.61-12.6-1.08-25.21-1.42-37.83c-0.08-3.07-0.19-6.15-0.33-9.22c0.16-0.29,0.33-0.58,0.49-0.88
							c0.53-0.98,1.05-1.97,1.58-2.95c1.07-1.96,2.15-3.91,3.28-5.84c0.97-1.66,1.98-3.3,3.03-4.9c1.3,12.29,2.46,24.6,3,36.97
							c0.59,13.63,0.9,27.27,1.07,40.91c0.05,3.81,0.08,7.62,0.12,11.43c0.02,1.98,0.04,3.97,0.02,5.95
							c-0.01,1.9-0.27,3.97,0.33,5.77C-4942.63-716.59-4941.4-716.57-4941.05-717.64z"/>
						<path class="st2" d="M-5029.73-874.21c-0.03,0.62,3.07,4.16,3.07,4.16s-9.8,7.68-10.04,8.05s-2.8-5.33-2.8-5.33
							s0.2-4.65-0.22-4.47C-5040.14-871.62-5029.71-874.82-5029.73-874.21z"/>
						<path class="st2" d="M-4986.41-873.53l-2.27,4.63l6.38,17.17l5.04-8.66l1.88-5.77L-4986.41-873.53z"/>
						<path class="st2" d="M-5095.67-802.27c0,0,8.09-6.7,22.23-2.75s11.27,3.79,11.23,3.52c-0.34-2.35,1.45-6.28,1.45-6.28
							s12.18-20.61,4.56-54.56C-5057.83-869.59-5097.5-828.18-5095.67-802.27z"/>
						<path class="st2" d="M-4964.91-856.64c0,0-4.88,33.61,8.28,52.29c1.37,1.95,0.53,2.41,0.53,2.41s10.03-6.6,14.46-3.78
							C-4939.83-804.58-4943.3-840.68-4964.91-856.64z"/>
						<path class="st3" d="M-5031.83-877.27c-2.45-0.66,6.26,7.86,7.3,8.88c5.88,5.73,12.74,9.96,19.86,13.43"/>
						<path class="st3" d="M-5024.6-883.09c0.59-1.13-3.08-0.79-3.15-0.79c-3.38,0.45-6.87,2.04-9.83,3.89
							c-4.45,2.77-2.82,11.67-1.13,15.61c3.8,8.85,11.76,16.73,19.96,20.09c7.8,3.2,12.63,1.87,14.07-7.77"/>
						<path class="st3" d="M-4986.27-876.59c0.85,1.15-1.49,5.62-1.89,6.5c-3.03,6.61-7.75,12.52-13.32,16.6"/>
						<path class="st3" d="M-4987.9-881.27c0.05,0.61,0.83-0.87,1.36-1.01c1.01-0.27,2.11,0.59,2.88,1.2
							c3.07,2.4,9.69,8.4,8.7,13.42c-1.63,8.31-6.08,17.15-12.89,21.39c-5.09,3.17-11.81,2.94-14.5-3.48"/>
						<path class="st3" d="M-5006.76-845.02c-0.32-0.85,0.04,2.58,0.05,2.86c0.04,2.2,0.06,4.43,0.31,6.61"/>
						<path class="st3" d="M-5002.82-839.24c0.07-0.41,0.59,0.95,0.9,0.73c1.05-0.74-0.44-2.38-1.26-1.74
							c-1.07,0.84,0.26,2.8,1.23,1.48"/>
						<path class="st3" d="M-5056.38-862.6c-0.35,1.02,0.62,2.61,0.88,4.04c0.94,5.12,1.25,10.44,1.55,15.65
							c0.67,12.03-1.1,23.91-5.67,34.84"/>
						<path class="st3" d="M-4965.51-856.43c-1.51-2.38-0.97,15.59-0.88,16.95c0.42,6.72,4.91,30.89,10.08,35.22"/>
						<path class="st3" d="M-5057.75-862.11c0.02-0.65-1.14,0.31-1.66,0.58c-1.52,0.79-2.91,1.85-4.28,2.91
							c-0.2,0.16-0.4,0.31-0.6,0.47c-4.02,3.1-7.63,6.27-10.89,10.36c-9.59,12.03-17.86,25.85-20.9,41.77"/>
						<path class="st3" d="M-5095.76-802.13c-1-0.57,1.37-2.23,1.64-2.35c2.5-1.12,5.47-1.32,8.13-1.55
							c6.64-0.56,13.41,0.81,19.71,3.03c1.35,0.48,4.9,1.2,5.62,2.76"/>
						<path class="st3" d="M-4948.07-836.94c-0.08-0.02-0.32-0.23-0.37-0.31c-0.2-0.36,0.45,0.69,0.63,1.07
							c0.33,0.71,0.65,1.44,0.94,2.16c0.79,1.94,1.48,3.97,2.08,6c1.98,6.69,2.54,14.07,3.28,21.03"/>
						<path class="st3" d="M-4941.05-804.82c-0.02,0.03-0.06-0.07-0.08-0.1c-0.27-0.52-0.69-0.79-1.2-1.01
							c-1.12-0.48-2.36-0.5-3.54-0.4c-3.64,0.31-8.35,2.2-10.77,5.42"/>
					</g>
				</g>
			</g>
		</g>
	</g>
	<g transform="matrix(0.376866,0,0,0.334435,-5.62707,3.5542)">
		<path class="st1" d="M151.01,33.4c0.02,0.03,0.09,0.03,0.07,0.06c-0.05,0.09,0.09,0.44,0.05,0.29c-0.02-0.1,0.18,0.09,0.35,0.09
			c0.16,0,0.32,0.07,0.54,0.05c0.37-0.03,0.8-0.16,1.31-0.23c1.89-0.26,4.65-0.38,7.69-0.49c7.05-0.24,15.57-0.25,18.15-0.17
			c3.44,0.11,20.74-0.88,33.6-1.1c4.7-0.08,8.8-0.06,11.39,0.17c0.97,0.08,2.05,0.33,2.18,0.36c0.11,0.12,0.19,0.34,0.29,0.61
			c0.29,0.73,0.54,1.76,0.78,3.04c0.82,4.35,1.39,11.38,1.8,19.48c0.9,17.55,1.02,40.13,1.09,51.94c0.01,1.81-0.05,3.38,0.04,4.62
			c0.03,0.43,0.11,0.8,0.15,1.16c0,0.64,0.46,1.15,1.03,1.15c0.56,0,1.02-0.52,1.02-1.15c0.05-0.35,0.12-0.73,0.15-1.16
			c0.09-1.25,0.03-2.81,0.04-4.63c0.05-11.85-0.05-34.5-0.95-52.11c-0.42-8.29-1.04-15.47-1.88-19.92c-0.56-2.91-1.36-4.77-2.1-5.39
			c-0.25-0.21-0.72-0.45-1.42-0.6c-1.57-0.34-4.79-0.48-8.85-0.48c-12.85,0.02-34.43,1.39-38.31,1.28
			c-2.63-0.08-11.43-0.15-18.6,0.26c-1.68,0.1-3.26,0.23-4.66,0.38c-1.78,0.19-3.3,0.33-4.26,0.69c-0.19,0.07-0.34,0.15-0.48,0.24
			c-0.36,0.25-0.62,0.4-0.75,0.64c-0.29,0.5-0.48,0.72-0.3,1c0.06,0.09,0.03,0.2,0.13,0.26c0.1,0.21,0.33,0.29,0.52,0.18
			C151.02,33.85,151.09,33.61,151.01,33.4z"/>
	</g>
	<g transform="matrix(0.446843,0,0,0.401926,-345.213,-70.2838)">
		<path class="st1" d="M886.17,279.24c-0.02-0.03-0.04-0.06-0.07-0.08c-0.14-0.13-0.34-0.1-0.46,0.05
			c-0.11,0.05-0.09,0.16-0.14,0.23c-0.17,0.24,0.02,0.7,0.84,1.07c0.18,0.08,0.42,0.09,0.69,0.11c1.77,0.15,4.98-0.2,5.69-0.18
			l15.47,0.08c4.64,0,9.28-0.08,13.92-0.22c6.95-0.21,13.9-0.54,20.85-0.89c2.69-0.14,5.58-0.81,8.39-1.03
			c0.82-0.07,1.63-0.04,2.42-0.06c0.35-0.01,0.69-0.07,1.03-0.07c0.4,0.06,0.76-0.26,0.81-0.7c0.05-0.44-0.23-0.85-0.63-0.9
			c-0.37-0.11-0.74-0.23-1.12-0.28c-0.86-0.12-1.74-0.04-2.63,0.02c-2.8,0.19-5.68,0.85-8.35,0.97c-6.94,0.34-13.88,0.66-20.82,0.87
			c-4.62,0.14-9.25,0.22-13.87,0.22l-15.47,0.08c-0.71,0.01-3.9,0.32-5.67,0.41c-0.22,0.01-0.41,0.01-0.58,0.04
			c-0.18,0.04-0.32,0.3-0.33,0.19C886.16,279.13,886.16,279.2,886.17,279.24z M886.19,279.28c0.05,0.11,0.05,0.24-0.02,0.35
			c0.03-0.02,0.06-0.03,0.05-0.05C886.19,279.47,886.31,279.32,886.19,279.28L886.19,279.28z"/>
	</g>
	<g transform="matrix(0.152794,0,0,0.197638,1461.89,20.518)">
		<g transform="matrix(1.44349,0,0,0.862685,-4986.93,408.649)">
			<path class="st1" d="M-2930.92-479.68c0.06-0.03,0.12-0.08,0.17-0.14c0.22,0.13,0.83,0.71,0.05-0.9c-0.02-0.19-0.1-0.32-0.2-0.4
				c-0.17-0.34-0.4-0.76-0.68-1.27c-0.1-0.18-0.11-0.23-0.3-0.33c-0.61-0.31-1.71,0.11-2.81,0.39c-1.64,0.42-3.43,1.21-4.36,2.63
				c-0.25,0.39-0.59,0.76-0.59,1.25c0,0.38-0.05,0.41,0.08,0.75c-0.27,0.92,0.08,1.95,0.79,2.31c0.71,0.35,1.51-0.1,1.78-1.02
				c0.14-0.13,0.29,0.16,0.43,0.03c0.19-0.18,0.37-0.4,0.61-0.56c1.27-0.88,3.15-0.86,4.07-1.28c0.18-0.08,0.24-0.2,0.33-0.34
				C-2931.26-478.99-2931.05-479.36-2930.92-479.68z"/>
		</g>
		<g transform="matrix(1.44349,0,0,0.862685,-4986.93,408.649)">
			<path class="st1" d="M-2937.8-464.79c-0.01-0.45-0.28-0.81-0.63-0.83c-0.36-0.02-0.67,0.35-0.68,0.82
				c-0.1,0.18,0.01,0.36-0.08,0.5c-0.35,0.54,0.07-0.02-0.22,0.51c-0.05,0.09,0.05,0.11,0.03,0.21c-0.03,0.15,0.1,0.14,0.08,0.3
				c-0.02,0.22,0.14,0.17,0.17,0.4c0.03,0.23,0.19,0.22,0.31,0.41c0.18,0.28,0.53,0.29,0.88,0.41c0.61,0.21,1.5,0.22,2.42,0.17
				c0.48-0.03,0.95-0.15,1.28-0.02c0.59,0.21,0.92,0.73,1.15,1.3c0.41,0.98,0.57,2.15,0.73,3.18c0.06,0.39-0.11,0.79-0.3,1.2
				c-0.42,0.92-1.12,1.78-1.93,2.43c-0.97,0.79-2.08,1.23-3.09,1.01c-0.16-0.04-0.32-0.03-0.48-0.04c-0.14,0-0.1,0.16-0.24,0.21
				c-0.75-0.63-1.75-0.35-2.23,0.62c-0.48,0.97-0.27,2.26,0.48,2.88c0.08,0.34,0.15,0.43,0.32,0.7c0.29,0.45,0.77,0.55,1.19,0.71
				c1.95,0.78,4.29-0.13,6.21-1.73c2.73-2.27,4.43-6.15,3.92-9.08c-0.32-1.83-0.74-3.91-1.66-5.47c-0.72-1.23-1.7-2.21-3.11-2.66
				c-0.57-0.18-1.31-0.26-2.08-0.08c-0.7,0.16-1.41,0.53-2.01,0.69c-0.11,0.03-0.26,0.25-0.28,0.14c-0.06-0.42,0.02,0.75,0.26,0.82
				c0.26,0.07-0.47,0.16-0.2,0.25C-2937.51-464.81-2937.75-464.84-2937.8-464.79z"/>
		</g>
		<g transform="matrix(1.44349,0,0,0.862685,-4986.93,408.649)">
			<path class="st1" d="M-2927.63-481.55c-0.25-0.14-0.76-0.07-0.42,0.94c-0.54,1.43,0.25,1.12,0.37,0.88l0.02,0
				c0.08,0.16,0.18,0.34,0.3,0.53c0.13,0.22,0.13,0.38,0.47,0.57c0.54,0.31,1.47,0.24,2.42,0.31c1.39,0.1,2.88,0.06,3.5,0.13
				c0.14,0.01,1.59-0.26,1.75,0.14c0.05,0.13,0.06-0.24,0.02-0.14c-0.11,0.24-0.05-0.29-0.11-0.18c-0.23,0.4-0.13-0.35-0.28-0.18
				c-0.08,0.09-0.02-0.14-0.09-0.07c-0.28,0.27-0.02-0.4-0.26-0.27c-0.15,0.09,0.03-0.22-0.11-0.16c-0.14,0.06,0.04-0.2-0.09-0.17
				c-0.32,0.09,0.14-0.38-0.15-0.39c-0.1,0,0.07-0.12-0.03-0.13c-0.14-0.01,0.1-0.16-0.03-0.19c-0.39-0.09,0.32-0.32-0.02-0.53
				c-0.24-0.15,0.26-0.16,0.05-0.36c-0.09-0.09,0.13-0.06,0.04-0.15c-0.1-0.11,0.15-0.05,0.06-0.18c-0.22-0.3,0.37,0.01,0.19-0.4
				c-0.08-0.17,0.18,0.03,0.12-0.17c-0.1-0.29,0.3,0.15,0.23-0.24c-0.02-0.13,0.12,0.07,0.1-0.08c-0.03-0.25,0.22,0.22,0.23-0.13
				c0-0.16,0.13,0.16,0.15-0.05c0.02-0.17,0.14,0.38,0.22,0.02c0.02-0.1-0.01,0.15-0.02,0.28c-0.67,0.03-1.21,0.74-1.21,1.61
				c0,0.89,0.56,1.61,1.25,1.61c0.17,0.57,0.18,0.1,0.26,0.3c0.1,0.26,0.12-0.15,0.19-0.01c0.07,0.13,0.05-0.13,0.11-0.03
				c0.19,0.3,0.1-0.3,0.25-0.13c0.16,0.18,0.03-0.26,0.18-0.14c0.12,0.1,0-0.19,0.12-0.12c0.11,0.08-0.01-0.18,0.1-0.12
				c0.34,0.19-0.09-0.44,0.22-0.38c0.12,0.02-0.05-0.15,0.06-0.14c0.44,0.04-0.27-0.45,0.13-0.56c0.2-0.06-0.17-0.19,0.02-0.28
				c0.27-0.14-0.29-0.2-0.03-0.42c0.09-0.08-0.12-0.06-0.03-0.15c0.21-0.2-0.29-0.08-0.11-0.35c0.06-0.09-0.11-0.02-0.05-0.11
				c0.1-0.17-0.19,0-0.1-0.2c0.12-0.26-0.29,0.08-0.19-0.27c0.03-0.12-0.12,0.04-0.09-0.1c0.05-0.24-0.24,0.16-0.2-0.17
				c0.02-0.21-0.19,0.18-0.19-0.12c0-0.13-0.1,0.1-0.11-0.07c-0.02-0.24,0.1,0.09-0.26-0.35c-0.29-0.35-1.82-0.29-1.98-0.32
				c-0.68-0.05-2.29-0.13-3.8-0.01c-0.96,0.08-1.91,0.03-2.45,0.37c-0.34,0.21-0.35,0.36-0.47,0.6L-2927.63-481.55z"/>
		</g>
		<g transform="matrix(1.44349,0,0,0.862685,-4986.93,408.649)">
			<path class="st1" d="M-2924.91-479.19c0.24-0.11,0.41-0.4,0.43-0.75c0.02-0.47-0.26-0.87-0.62-0.89
				c-0.19-0.4-0.23,0.23-0.61,0.09c-0.15-0.06-0.07,0.2-0.26,0.19c-0.29,0-0.17,0.12-0.52,0.51c-0.16,0.18-0.17,0.57-0.26,0.99
				c-0.16,0.85-0.22,2.11-0.22,3.51c0.01,3.05,0.41,6.73,0.45,7.63c0.16,3.48-0.07,7.15,0.04,10.72c0.05,1.66,0.17,3.31,0.43,4.91
				c0.38,2.64,1.55,3.49,3.08,3.84c0.65,0.15,1.42,0.22,2.28,0.08c1.18-0.2,2.51-0.85,3.91-0.94c0.9,0,1.63-0.94,1.63-2.1
				c0-1.16-0.73-2.1-1.63-2.1c-1.37-0.1-2.73,0.07-3.93,0.36c-0.73,0.18-1.36,0.54-1.9,0.5c-0.19-0.01-0.3-0.16-0.36-0.47
				c-0.23-1.38-0.34-2.8-0.39-4.24c-0.12-3.59,0.12-7.28-0.04-10.79c-0.04-0.89-0.26-4.57-0.49-7.59c-0.09-1.2-0.23-2.27-0.25-3.03
				c-0.01-0.17-0.12-0.39-0.04-0.42c0.11-0.05-0.23-0.17-0.17-0.07c0.07,0.13-0.22-0.1-0.18,0.01
				C-2924.4-478.9-2924.73-479.22-2924.91-479.19z M-2924.97-479.16c-0.02,0.01-0.04,0.01-0.06,0.02l-0.06,0.01
				c0.04,0.04,0.08,0.11,0.1,0.04c0.01-0.04,0.03-0.06,0.05-0.07L-2924.97-479.16z"/>
		</g>
		<g transform="matrix(1.44349,0,0,0.862685,-4986.93,408.649)">
			<path class="st1" d="M-2923.3-465.51c-0.14-0.05-0.29-0.05-0.43,0.02c-0.23,0.06-0.28,0.3-0.36,0.34c-0.3,0.17-0.82,0.38,1,2.28
				c0.2,0.21,0.47,0.31,0.85,0.4c0.74,0.19,1.75,0.19,2.68,0.07c1.13-0.14,2.12-0.57,2.6-0.7c0.8-0.05,1.42-0.94,1.38-1.97
				c-0.04-1.04-0.73-1.84-1.53-1.78c-0.54-0.06-1.73-0.32-2.99-0.29c-0.72,0.02-1.44,0.13-2.03,0.3c-0.35,0.1-0.63,0.17-0.83,0.37
				c-0.5,0.48-0.59,0.6-0.39,0.89L-2923.3-465.51z M-2922.84-464.58l-0.01,0.05l0-0.02L-2922.84-464.58z M-2922.84-464.64v0.03
				V-464.64L-2922.84-464.64z"/>
		</g>
		<g transform="matrix(1.44349,0,0,0.862685,-4986.93,408.649)">
			<path class="st1" d="M-2912.53-451.52l0.02,0.03l0.22,0.42c-0.03-0.01-0.05-0.04-0.07-0.07l-0.17-0.37L-2912.53-451.52
				c-0.02-0.03-0.02-0.02,0,0.02l0.07,0.91c0.01,0.74,0.42,1.37,0.99,1.49c0.06,0.01,0.12,0.02,0.19,0.02v0v0
				c0.5,0,0.95-0.41,1.12-1.03c0,0-0.07-0.06-0.14-0.24l0.2-0.27c0,0,0.11-0.59,0.15-1.35c0.03-0.7-0.03-1.52-0.06-2.07l-1.3-16.52
				l-0.1-2.9c0.24,0.51,0.47,1.03,0.69,1.56c1.8,4.28,3.32,9.05,4.96,12.52c0.69,1.44,1.22,3,1.87,4.48
				c0.32,0.73,0.67,1.44,1.05,2.12c0.4,0.69,0.83,2.39,1.22,3.01c0.4,0.66,0.86,0.97,1.23,1.08c0.72,0.22,1.61,0.17,2.27-1.32
				c0.62-1.42,0.85-3.5,0.71-5.84c-0.22-3.79-1.28-8.38-1.55-10.75l-1.46-10.94c-0.1-1.11-0.87-1.9-1.73-1.77
				c-0.86,0.13-1.47,1.13-1.37,2.24l1.23,11.05c0.15,1.63,0.66,4.32,1.01,7.06l-1.28-2.97c-1.92-3.97-3.65-9.71-5.91-14.35
				c-0.75-1.56-1.55-3.02-2.45-4.23c-0.26-0.35-0.5-0.71-0.8-0.97c-0.22-0.19-0.44-0.31-0.68-0.45c-1.14-0.78-1.73-0.54-2.04-0.2
				c-0.24,0.28-0.52,0.61-0.62,1.21c-0.05,0.29-0.05,0.9,0.12,1.66c0.17,0.78,0.56,1.97,0.58,2.59l0.26,6.36l1.39,16.54
				L-2912.53-451.52z"/>
		</g>
		<g transform="matrix(1.44349,0,0,0.862685,-4986.93,408.649)">
			<path class="st1" d="M-2897.09-477.92c0,0.13,0.06,0.35-0.08,0.23c-0.06-0.05,0.04,0.21-0.03,0.14
				c-0.08-0.09-0.07,0.35,0.04,0.23c0.21-0.25-0.12,0.31,0.24,0.63c0.1,0.09,0.22,0.15,0.38,0.18c0.88,0.18,2.33,0.24,3.91,0.28
				c0.69,0.02,1.42,0.04,2.14,0.06c0.03,0.72,0.1,1.51,0.14,2.39c0.45,5.63,0.25,11.55,0.63,17.31c0.13,2.09,0.27,4.17,0.67,6.17
				c0.06,0.31,0.09,0.64,0.22,0.91c0.13,0.26,0.24,0.32,0.42,0.52c0.17,0.98,0.93,1.59,1.69,1.36c0.75-0.23,1.23-1.2,1.05-2.18
				c0.07-0.31,0.19-0.46,0.21-0.78c0.04-0.55-0.09-1.09-0.15-1.63c-0.74-7.28-0.42-14.95-0.97-22.18c-0.08-0.77-0.19-1.46-0.27-2.07
				l-0.01-0.07c0.46-0.11,0.87-0.26,1.2-0.47c0.43-0.27,0.63-0.51,0.86-0.86c0.43-0.44,0.69-0.56,0.75-0.72
				c0.39-1.16,0.6-1.85,0.11-2.34c-0.15-0.15-0.58-1.16-1.44-0.75c-0.2,0.1-0.47,0.32-0.77,0.48c0.03-0.06,0.07-0.14,0.15-0.17
				c0.04-0.02,0.04-0.2,0.15-0.21c-0.19-0.05-0.25-0.35-0.51-0.38c-0.62-0.06-1.44,0.22-2.36,0.28c-1.19,0.08-2.53,0.05-3.78,0.14
				c-1.54,0.1-2.97,0.2-3.92,0.47c-0.35,0.1-0.66,0.12-0.83,0.33c-1.22,1.52-1,1.15-0.83,1.62c-0.21,0.38-0.14,0.91,0.15,1.19
				C-2897.67-477.56-2897.31-477.61-2897.09-477.92z M-2886-478.3c0.12,0.08,0.25,0.18,0.4,0.31c0.05,0.04,0.3-0.01,0.3-0.01
				S-2885.67-478.23-2886-478.3z"/>
		</g>
		<g transform="matrix(1.44349,0,0,0.862685,-4986.93,408.649)">
			<path class="st1" d="M-2880.97-448.01c0.03-0.04,0.08-0.1,0.1-0.17c0.33-0.87,0.86-3.23,0.89-3.33l2.18-9.14l0.37-1.66l0.38-1.65
				l0.32-1.62l0.29-1.45c0.07-0.35,0.34-3.73,1-6.86c0.22-1.02,0.75-1.89,1.11-2.62c0.1,0.54,0.21,1.14,0.35,1.64
				c1.4,5.26,3.04,14.13,4.59,20.53c0.59,2.45,0.95,4.76,1.78,6c0.1,0.15,0.17,0.28,0.31,0.33c0.39,0.14,0.12,0.04,0.51,0
				c0.29,0.66,0.94,0.88,1.45,0.5c0.51-0.38,0.68-1.22,0.39-1.88c0.13-0.41,0.31-0.25,0.32-0.73c0.01-0.56-0.33-1.12-0.51-1.8
				c-1.55-5.83-3.08-16.71-4.78-23.31c-0.66-2.58-1.41-4.57-2.1-5.59c-0.76-1.14-1.57-1.59-2.29-1.53c-1.13,0.1-2.25,1.04-3.01,3.01
				c-1.36,3.53-2.06,10.76-2.16,11.3l-0.29,1.44l-0.31,1.56l-0.36,1.59l-0.37,1.64l-2.15,9.08c-0.02,0.1-0.63,2.52-0.7,3.51
				c-0.02,0.24-0.01,0.39,0,0.48c0.02,0.21-0.04,0.33-0.03,0.39c0.1,0.43,0.05,0.72,0.15,0.85c0.47,0.59,0.74,1.15,1.2,0.94
				c0.42-0.18,1.09-0.22,1.31-1.15C-2881.01-447.8-2880.99-447.9-2880.97-448.01z M-2882.52-450.05c-0.11,0.06-0.22,0.18-0.37,0.22
				c-0.07,0.02-0.12,0.28-0.12,0.28S-2882.74-449.79-2882.52-450.05z M-2874.64-477.76c-0.09-0.23-0.2-0.31-0.32-0.18
				C-2875.1-477.78-2874.87-477.76-2874.64-477.76z"/>
		</g>
		<g transform="matrix(1.44349,0,0,0.862685,-4986.93,408.649)">
			<path class="st1" d="M-2877.48-460.62c-0.05,0.17-0.04,0.43-0.26,0.33c-0.05-0.02-0.13,0.09-0.18,0.15c0,0.07,0,0.26,0.14,0.41
				c0.44,0.12,0.87,0.32,1.36,0.42c1.88,0.38,4.04,0.44,5.97,0.18c1.02-0.14,2.09-0.21,2.86-0.91c0.25-0.23,0.41-0.45,0.59-0.77
				c0.74-0.55,1-1.78,0.57-2.74c-0.43-0.96-1.38-1.29-2.12-0.74c-0.14,0-0.22-0.14-0.36-0.11c-0.09,0.02-0.18,0.08-0.27,0.13
				c-0.79,0.39-1.67,0.61-2.61,0.71c-1.57,0.17-3.24-0.05-4.71,0.12c-0.46,0.05-0.86,0.19-1.28,0.31c-0.39,0.43-0.53,0.33-0.6,0.48
				c-0.14,0.27-0.31,0.07-0.33,0.23c-0.04,0.32-0.33,0.19-0.29,0.4c0.03,0.14-0.14,0.14-0.09,0.26c0.14,0.33-0.27,0.58,0,0.75
				c0.07,0.04-0.02,0.16,0.06,0.19c0.1,0.04,0.01,0.23,0.13,0.24c0.14,0.01,0.09,0.38,0.36,0.3
				C-2878.29-460.36-2877.8-460.51-2877.48-460.62z M-2877.92-460.14c-0.03,0.03-0.04,0.05-0.01-0.01
				C-2877.92-460.18-2877.92-460.17-2877.92-460.14z M-2877.34-461.92c0-0.12-0.21-0.08-0.2-0.31c0-0.13-0.25-0.17-0.25-0.17
				s-0.13,0.12-0.05,0.21c0.05,0.06,0.18,0.06,0.17,0.12C-2877.56-462.06-2877.44-462.01-2877.34-461.92L-2877.34-461.92z"/>
		</g>
		<g transform="matrix(1.44349,0,0,0.862685,-4986.93,408.649)">
			<path class="st1" d="M-2858.4-482.18l0.38,0.02l0.09,0.01c0.02,0.06,0.03,0.13,0.05,0.2c0.01,0.05-0.1,0.03-0.16,0.04
				c-0.15,0.03-0.33,0.06-0.53,0.09l0.1-0.24c0.02-0.04,0.04-0.08,0.06-0.11L-2858.4-482.18l-0.03,0c-0.82-0.02-1.46,0.2-1.96,0.58
				c-1.13,0.13-2.32,0.3-2.97,0.62c-0.11,0.06-0.17,0.11-0.23,0.22c-0.73,1.24-0.18,0.85-0.27,1.1c-0.36,0-0.66,0.38-0.66,0.85
				c0,0.47,0.29,0.85,0.66,0.85c0.09,0.26-0.43-0.11,0.46,1.05c0.07,0.09,0.14,0.14,0.26,0.17c0.31,0.09,0.72,0.13,1.18,0.14
				c0.06,1.42,0.27,2.87,0.27,3.76c0.11,4.85,1.06,10.94,1.32,16.53c0.08,1.71,0.12,3.36,0,4.91c-0.9,0.12-1.61,1.08-1.64,2.27
				c-0.03,1.23,0.67,2.29,1.61,2.44c0,0,0.12,0.01,0.31,0.01l0,0c0,0,3.18,0.43,5.55-0.05c0.37-0.07,0.67-0.2,0.95-0.41
				c0.22-0.16,0.23-0.28,0.41-0.48c0.73,0,1.33-0.77,1.33-1.72c0-0.95-0.6-1.72-1.33-1.72c-0.18-0.21-0.2-0.31-0.44-0.48
				c-0.3-0.21-0.62-0.31-1.01-0.37c-0.61-0.09-1.26-0.1-1.9-0.07c0.13-1.47,0.17-3,0.13-4.57c-0.13-5.57-1.17-11.61-1.26-16.43
				c-0.02-0.74-0.22-1.9-0.36-3.07c-0.03-0.25-0.11-0.6-0.16-0.92l0.66-0.1c0.51-0.07,0.83-0.23,0.95-0.3
				c1.15-0.66,1.14-1.91,1.09-2.54c-0.04-0.57-0.24-1.42-1.12-1.96c-0.1-0.06-0.51-0.21-1.34-0.28
				C-2858.05-482.59-2858.22-482.51-2858.4-482.18z M-2858.12-477.39c0.08-0.09,0.12-0.2,0.04-0.23c-0.1-0.05-0.14,0.03-0.14,0.17
				l0.08,0.05L-2858.12-477.39z"/>
		</g>
		<g transform="matrix(1.44349,0,0,0.862685,-4986.93,408.649)">
			<path class="st1" d="M-2846.19-449.15c0.04,0.24,0.13,0.46,0.25,0.67c-0.01,0.61,0.24,0.8,0.51,1.42
				c0.05,0.13,0.17,0.17,0.26,0.26c0.55,0.56,1.3,0.57,2.02,0.43c6.23-1.91,8.79-10.47,8.43-19.29c-0.23-5.67-1.61-11.33-3.64-14.93
				c-1.43-2.54-3.2-4.11-5.07-4.42c-3.96-0.63-6.12,1.61-7.2,5.15c-1.92,6.31,0.47,17.97,1.1,20.95c0.07,0.32,1.24,5.95,1.98,8.06
				c0.14,0.4,0.29,0.64,0.36,0.76c0.04,0.07,0.05,0.12,0.06,0.14C-2846.78-449.42-2846.44-449.21-2846.19-449.15z M-2843.76-450.72
				c0.02-0.12,0.53-0.42,0.35-0.45c-0.22-0.04-0.41-0.24-0.63-0.15c4.43-1.34,5.67-7.82,5.45-14.1c-0.16-4.66-1.19-9.35-2.82-12.34
				c-0.73-1.35-1.53-2.39-2.51-2.58c-2.61-0.52-3.64,1.62-4,4.41c-0.76,5.75,0.77,13.81,1.18,16.12c0.05,0.32,1.33,5.82,1.56,8.08
				c0.02,0.14,0.01,0.29-0.01,0.42C-2844.68-451.5-2844.12-451.28-2843.76-450.72z M-2846.93-450.91c-0.02,0.1-0.03,0.17-0.03,0.17
				L-2846.93-450.91z M-2845.21-451.15c-0.02,0.15-0.02,0.25,0.03,0.25C-2844.76-450.89-2844.89-451.01-2845.21-451.15z
				 M-2845.42-451.23l-0.01,0.02l0,0l0.02-0.02L-2845.42-451.23L-2845.42-451.23z"/>
		</g>
		<g transform="matrix(1.44349,0,0,0.862685,-4986.93,408.649)">
			<path class="st1" d="M-2820.42-459.43c-0.3-0.68-0.62-1.35-0.93-2.01c-1.65-3.48-3.44-6.88-5.06-10.37l-2.06-4.62
				c-0.1-0.21-0.37-0.47-0.66-0.75c-0.02-0.42-0.08-0.79-0.16-1.1c-0.3-1.16-0.96-1.87-2.22-1.99c-1.2-0.24-1.65,0.83-2,1.43
				c-0.33,0.57-0.34,1.46-0.06,2.59c0.06,0.24,0.22,0.57,0.41,0.91c-0.02,0.24-0.04,0.45-0.05,0.6l0,17.7
				c0.02,0.53,0.01,4.47,0.26,6.34c0.04,0.31,0.22,0.6,0.22,0.6s0.16-0.2,0.18-0.29c0.03-0.23,0.18-0.29,0.31-0.35
				c-0.22,0.2-0.34,0.57-0.26,0.93c-0.1,0.06-0.16,0.08-0.19,0.08l-0.03,0.07c-0.38,0.69,0.36,1.06,0.44,1.23
				c0.32,0.61,0.74,0.12,1.25-0.04c0.18-0.06,0.27-0.44,0.55-1.03c0.15-0.32,0.34-0.87,0.47-1.7c0.31-2.03,0.05-5.36,0.05-5.84
				l0.29-10.49c1.45,3.06,2.99,6.07,4.44,9.13c0.69,1.46,1.36,2.92,1.97,4.42c0.52,1.22,1.01,2.44,1.55,3.63
				c0.39,0.86,0.8,1.7,1.27,2.52c0.32,0.57,0.78,2.18,0.97,2.53c1.19,2.13,2.63,1.29,3.25,0.58c0.22-0.25,0.8-0.86,0.78-2.31
				c-0.02-2.33-0.15-4.66-0.32-6.98c-0.58-8.03-1.73-16.03-2.07-24.03c-0.03-0.69,0.05-1.41-0.09-2.07
				c-0.05-0.22-0.15-0.32-0.23-0.52c0-1.3-0.81-2.35-1.82-2.35c-1,0-1.82,1.05-1.82,2.35c-0.09,0.17-0.17,0.23-0.22,0.42
				c-0.08,0.31-0.05,0.66-0.05,0.99c-0.02,1.86,0.14,3.71,0.27,5.57C-2821.44-468.91-2820.87-464.17-2820.42-459.43z
				 M-2832.09-450.83l0.06-0.03c0.35-0.13,0.71,0.13,0.81,0.59c0.24,0.12,0.29,0.2,0.36,0.03c0.06-0.14-0.05-0.27-0.11-0.3
				c-0.55-0.3-0.84-0.67-1.11-0.31L-2832.09-450.83z M-2829.76-477.86c-0.2-0.27-0.29-0.52-0.12-0.71c0.1-0.12,0.03,0.32,0.07,0.42
				C-2829.78-478.06-2829.76-477.96-2829.76-477.86z"/>
		</g>
	</g>
	<g transform="matrix(0.4441,0,0,0.39775,0,0)">
		<path class="st1" d="M72.22,77.34c0.11,0.07,0.24,0.06,0.35-0.02c0.15-0.12,0.18-0.35,0.07-0.51c-0.22-0.34-0.43-0.46-0.59-0.47
			c-0.19-0.02-0.33,0.12-0.52,0.35c-0.16,0.18-0.37,0.34-0.54,0.76c-0.12,0.29-0.13,0.68-0.16,1.11c-0.2,2.5,0.12,6.87,0.23,9.48
			c0.01,0.3-0.04,0.59,0.04,0.82c0.03,0.11,0.09,0.12,0.15,0.2c0,0.29,0.21,0.52,0.46,0.52c0.26,0,0.47-0.23,0.47-0.52
			c0.07-0.07,0.1-0.04,0.14-0.13c0.13-0.31,0.02-0.75,0.01-1.2c-0.03-2.69-0.21-6.99-0.09-9.33c0.01-0.24,0.05-0.46,0.04-0.65
			C72.25,77.59,72.24,77.45,72.22,77.34z"/>
	</g>
</g>
</svg>
