<?xml version="1.0" encoding="utf-8"?>
<!-- Generator: Adobe Illustrator 24.2.0, SVG Export Plug-In . SVG Version: 6.00 Build 0)  -->
<svg version="1.1" id="图层_1" xmlns="http://www.w3.org/2000/svg" xmlns:xlink="http://www.w3.org/1999/xlink" x="0px" y="0px"
	 viewBox="0 0 85.04 85.04" style="enable-background:new 0 0 85.04 85.04;" xml:space="preserve">
<style type="text/css">
	.st0{fill-rule:evenodd;clip-rule:evenodd;fill:#FFFFFF;}
	.st1{fill-rule:evenodd;clip-rule:evenodd;}
</style>
<g>
	<g transform="matrix(0.4441,0,0,0.39775,0,0)">
		<path class="st0" d="M26.48,58.18c0,0,7.05-9.3,17.87-13.01c14.8-5.07,39.79,6.19,46.16,31.83c0.27,1.08-1.47,0.44,2.04,0.49
			c2.07,0.03,1.93-0.51,2.29-1.62c1.67-5.15,10.87-16.64,23.71-21.27c12.85-4.64,29.44-6.32,35.66,4.97
			c4.72,8.56,0.26,104,0.46,104.11c0.14,0.08-9.96-8.61-27.97-6.12c-7.68,1.06-21.85,6.44-26.63,15
			c-0.41,0.73-11.86-0.02-11.61,0.21c0,0-4.95-6.31-15.01-8.12c-11-1.99-27.66,1.04-39.83,15.01
			C27.45,186.75,27.05,57.95,26.48,58.18z"/>
	</g>
	<g transform="matrix(0.4441,0,0,0.39775,-1.84439,4.4067)">
		<path class="st1" d="M111.64,91.18c0.13-0.11,0.26-0.27,0.41-0.5c0.02-0.03,0.02-0.07,0.02-0.11c0.05-0.26,0.12-0.61,0.15-1.01
			c0.09-0.93,0.08-2.05,0.09-2.4c0.03-3.1,0.19-5.44,0.2-6.57c0-0.18,0.03-0.34-0.02-0.44c-0.13-0.28-0.16-0.29-0.28-0.2l-0.01,0.01
			l0,0c-0.03-0.05,0.07-0.04,0.03-0.09c-0.1-0.1,0.14-0.19-0.01-0.22c-0.03,0,0.02-0.05-0.02-0.05c-0.08-0.18-0.28-0.24-0.44-0.15
			c-0.05,0.03-0.09,0.08-0.12,0.13c-0.01-0.07-0.04-0.14,0.06-0.09c0.03,0.01,0.01-0.07,0.05-0.04c0.04,0.03,0.02-0.11,0.07-0.05
			c0.03,0.04,0.12-0.17,0.05-0.1c-0.07,0.08-0.17-0.17-0.2-0.19c-0.04-0.07-0.2-0.46-1.04,0.83c-0.07,0.1-0.05,0.27-0.08,0.46
			c-0.15,1.13-0.29,3.53-0.43,6.69c-0.01,0.35-0.11,1.45-0.09,2.36c0.01,0.41,0.03,0.77,0.08,1.03c0.01,0.06,0.02,0.1,0.04,0.14
			c0.16,0.25,0.17,0.15,0.27,0.23c0.06,0.05,0.02,0.06,0.04,0.08c0.07,0.05-0.01,0.09,0.02,0.1c0.09,0.05-0.02,0.13,0.04,0.14
			c0.09,0.02,0,0.12,0.06,0.12c0.15,0,0.05,0.21,0.15,0.17c0.07-0.03,0.04,0.11,0.1,0.07c0.13-0.09,0.15,0.19,0.23,0.07
			c0.09-0.14,0.23,0.14,0.26-0.05c0.01-0.05,0.06,0.02,0.07-0.04c0.01-0.05,0.07,0.01,0.07-0.05c0-0.07,0.1,0,0.09-0.09
			c-0.02-0.08,0.14-0.03,0.09-0.14C111.59,91.21,111.65,91.22,111.64,91.18z M112.15,80.02c-0.04,0-0.08,0.02-0.08,0.11
			c0,0.09-0.06-0.05-0.15,0.09c-0.07,0.11-0.32,0.18-0.37,0.21c0.12-0.07,0.29,0.07,0.37-0.1c0.02-0.04,0.08-0.03,0.1-0.09
			c0.01-0.06,0.13-0.07,0.12-0.19C112.14,80.05,112.14,80.04,112.15,80.02z M111.57,79.78L111.57,79.78c-0.05,0.03-0.03,0.04,0,0.06
			C111.57,79.82,111.57,79.8,111.57,79.78z M111.58,79.7L111.58,79.7c-0.03,0.01-0.02,0.03-0.01,0.05
			C111.58,79.73,111.58,79.72,111.58,79.7z"/>
	</g>
	<g transform="matrix(0.4441,0,0,0.39775,-0.993889,1.1969)">
		<path class="st1" d="M114.41,93.87c-0.3-0.45-0.59-0.93-0.88-1.43c-0.82-1.4-1.61-2.9-2.28-4.19c-0.07-0.11-0.49-1.06-0.81-1.2
			c-0.32-0.14-0.59-0.25-0.81-0.05c-0.2,0.25-0.48,0.29-0.45,0.58c0.01,0.09-0.06,0.15-0.03,0.24c0.03,0.1-0.01,0.21,0.06,0.31
			c0.07,0.1,0.15,0.26,0.24,0.41c-0.01,0.03,0,0.05,0.04,0.06c0.08,0.13,0.16,0.24,0.24,0.29c0.03,0.15,0.04,0.28,0.05,0.31
			c0.68,1.33,1.46,2.87,2.31,4.31c0.59,1,1.21,1.96,1.82,2.76c0.01,0.02,0.37,0.35,0.54,0.4c0.39,0.14,0.68-0.02,0.84-0.18
			c0.23-0.23,0.49-0.71,0.65-1.44c0.34-1.51,0.51-4.4,0.9-6.57l0.02-0.09c0.52,2.11,1.25,5.02,1.76,6.48
			c0.09,0.25,0.16,0.46,0.25,0.61c0.17,0.28,0.28,0.44,0.36,0.5c0.29,0.2,0.43,0.38,0.58,0.34c0.42,0.04,0.78-0.31,0.82-0.78
			c0.03-0.41-0.2-0.77-0.54-0.88c0.1,0.01,0.22,0.03,0.29,0.17c0.01,0.02,0.08,0.06,0.12,0.09c-0.01,0.03-0.01,0.05,0.01,0.05
			c0.04,0,0.02-0.02-0.01-0.05c0.02-0.06,0.05-0.15,0.04-0.23c-0.02-0.14-0.07-0.31-0.13-0.5c-0.53-1.92-1.64-6.17-2.21-8
			c-0.13-0.42-0.25-0.72-0.31-0.86c-0.15-0.35-0.33-0.49-0.39-0.53c-0.31-0.21-0.71-0.18-0.99,0.09l-0.09,0.09
			c-0.43,0.41-0.8,1.25-1.06,2.35C114.91,89.26,114.71,92.06,114.41,93.87z M109.67,88.63c-0.04-0.12-0.09-0.2-0.16-0.15
			c-0.03,0.02-0.05,0.05-0.06,0.06l0.04,0.06C109.52,88.62,109.59,88.63,109.67,88.63z M110.42,88.39c0.03-0.1,0.06-0.24,0.13-0.33
			c0.04-0.05-0.05-0.2-0.05-0.2s-0.11,0.29-0.09,0.47L110.42,88.39z"/>
	</g>
	<g transform="matrix(0.4441,0,0,0.39775,0,0)">
		<path class="st1" d="M121.06,98.05l0.06-0.07c0.12-0.15,0.21-0.88,0.24-1.16l0.42-1.98c0.26-1.17,0.51-2.33,0.79-3.49
			c0.19-0.75,0.39-1.5,0.62-2.24c0.01-0.03,0.34-0.92,0.56-1.78c0.13-0.5,0.24-0.99,0.27-1.31c0.01-0.13,0.04-0.24,0.01-0.31
			c-0.1-0.29-0.04-0.42-0.16-0.47c-0.07-0.03-0.03-0.13-0.1-0.14c-0.17-0.02-0.17-0.28-0.31-0.19c-0.12,0.07-0.18-0.06-0.24,0.02
			c-0.04,0.05-0.09-0.01-0.12,0.04c-0.08,0.16-0.28,0.07-0.26,0.25c0.02,0.16-0.21,0.26-0.04,0.44c0.06,0.07,0.06,0.11,0.14,0.21
			c0.04,0.06,0.08,0.13,0.11,0.21c-0.08-0.01-0.16,0-0.16-0.11c0-0.05-0.07-0.03-0.06-0.09c0.01-0.04-0.07-0.04-0.05-0.09
			c0.02-0.06-0.15-0.09-0.08-0.18c0.01-0.02-0.08-0.03-0.05-0.02c0.02,0.01-0.02,0.06-0.03,0.09c-0.07,0.27-0.23,0.66-0.38,1.08
			c-0.29,0.82-0.57,1.71-0.58,1.73c-0.26,0.78-0.49,1.56-0.69,2.36c-0.3,1.17-0.56,2.35-0.84,3.53c-0.11,0.49-0.28,1-0.38,1.52
			c-0.05,0.27-0.09,0.54-0.11,0.8c0,0.22-0.14,0.74-0.11,0.89l0.01,0.06 M123.7,85.55c-0.02,0.01-0.08,0-0.08,0.04
			c0,0.08,0.03,0.17,0.08,0.25c0.05-0.03-0.03-0.14,0.04-0.21C123.75,85.62,123.71,85.57,123.7,85.55z"/>
	</g>
	<g transform="matrix(0.4441,0,0,0.39775,0,0)">
		<path class="st1" d="M127.67,96.71c0.07-0.02,0.14-0.06,0.13,0.06c0,0.05,0.09-0.02,0.07,0.05c-0.01,0.05,0.18,0.03,0.1,0.01
			c-0.05-0.01,0.09-0.07,0.08-0.16c-0.07-0.73-0.75-2.46-0.77-2.51c-0.39-1-0.8-2.23-1.26-3.43c-0.31-0.8-0.63-1.58-0.97-2.29
			c-0.29-0.63-0.57-1.22-0.88-1.68c-0.1-0.15-0.17-0.33-0.31-0.39c-0.16-0.07-0.08,0.08-0.24,0.02c-0.06-0.02-0.09-0.1-0.14-0.15
			c-0.1-0.16-0.31-0.19-0.45-0.08c-0.14,0.12-0.18,0.35-0.07,0.51c0.02,0.05,0.06,0.09,0.06,0.15c0.01,0.17-0.1,0.1-0.1,0.27
			c0,0.16,0.09,0.31,0.15,0.48c0.38,1,0.85,2.29,1.3,3.62c0.45,1.32,0.95,2.64,1.37,3.72c0.02,0.04,0.46,1.87,0.82,2.49
			c0.04,0.07,0.07,0.14,0.12,0.16c0.34,0.18,0.24,0.27,0.38,0.22c0.06-0.02,0.04,0.08,0.09,0.05c0.1-0.06,0.09,0.13,0.15,0.06
			c0.3,0.09,0.61-0.12,0.69-0.46C128.06,97.14,127.92,96.83,127.67,96.71z"/>
	</g>
	<g transform="matrix(0.4441,0,0,0.39775,0,0)">
		<path class="st1" d="M121.63,94.47c0-0.01,0-0.03,0.03-0.08c0.13,0.05,0.27,0,0.36-0.12l0,0l0,0l0.01-0.02l0,0v0.01l-0.01,0.01
			l0,0c-0.01,0.01-0.01,0.02,0,0.04c0,0.02,0.01-0.01,0.02-0.04c0.07-0.04,0.32,0.07,0.52,0.04c0.33-0.04,0.73-0.14,1.17-0.22
			c1.16-0.23,2.47-0.52,2.86-0.63c0.47-0.14,0.75-0.68,0.62-1.2s-0.61-0.83-1.08-0.69c-0.38,0.12-1.66,0.36-2.77,0.7
			c-0.46,0.14-0.9,0.27-1.22,0.45c-0.42,0.24-0.68,0.45-0.78,0.63c-0.2,0.33-0.31,0.54-0.2,0.73c0.04,0.07,0.04,0.17,0.12,0.23
			c0.08,0.05,0.16,0.27,0.32,0.18C121.67,94.44,121.63,94.49,121.63,94.47z M122.06,94.2c0.06-0.06,0.03-0.17,0.05-0.25
			c0.04-0.1-0.05-0.18-0.08-0.3c-0.01-0.05-0.06-0.13-0.12-0.1c-0.06,0.03-0.07,0.04-0.04,0.15c0.17,0.06,0.26,0.27,0.21,0.46
			C122.07,94.18,122.06,94.19,122.06,94.2z"/>
	</g>
	<g transform="matrix(0.4441,0,0,0.39775,0,0)">
		<path class="st1" d="M129.57,86.85l0.02,0.03c0.01,0-0.01-0.02-0.01-0.03v-0.01l0.03-0.05c0.08-0.07,0.33-0.1,0.47-0.17
			c0.59-0.29,1.34-0.55,1.59-0.63c0.7-0.23,1.41-0.28,2.12-0.25c0.56,0.03,1.11,0.13,1.67,0.24c0.58,0.11,1.16,0.22,1.73,0.35
			c0.46,0.13,0.92-0.18,1.03-0.68c0.11-0.51-0.16-1.02-0.61-1.15c-0.6-0.2-1.2-0.41-1.82-0.54c-0.64-0.14-1.3-0.21-1.95-0.22
			c-0.9-0.01-1.8,0.11-2.68,0.44c-0.32,0.12-1.37,0.46-2.03,0.98c-0.51,0.4-0.82,0.87-0.85,1.26c0.1,0.12-0.09,0.16,0.01,0.24
			c0.18,0.15,0.01,0.41,0.21,0.45c0.06,0.01,0.07,0.1,0.13,0.1c0.09,0,0.15,0.13,0.27,0.08C129.1,87.19,129.42,87.04,129.57,86.85z
			 M129.29,86.12c-0.04-0.04-0.14-0.01-0.21-0.08c-0.02-0.02-0.1,0.02-0.1,0.02s0,0.32,0.06,0.27
			C129.09,86.21,129.19,86.13,129.29,86.12z"/>
	</g>
	<g transform="matrix(0.4441,0,0,0.39775,0,0)">
		<path class="st1" d="M133.32,85.42c-0.03,0.06-0.03,0.14-0.08,0.19c-0.15,0.17-0.21,0.03-0.36,0.23
			c-0.32,0.45-0.25,1.22-0.27,1.97c-0.07,2.43,0.44,5.68,0.25,8.06c-0.02,0.22-0.1,0.44-0.05,0.64c0.03,0.14,0.09,0.09,0.17,0.2
			c-0.09,0.38,0.12,0.77,0.46,0.87c0.34,0.1,0.69-0.13,0.78-0.52c0.14-0.06,0.14-0.01,0.24-0.14c0.04-0.05,0.03-0.12,0.05-0.19
			c0.21-0.95,0.23-2.1,0.19-3.3c-0.08-2.17-0.38-4.55-0.46-6.32c-0.01-0.37,0.05-0.72-0.04-1.01c-0.07-0.25-0.25-0.13-0.29-0.37
			c-0.01-0.04,0.02-0.08,0.03-0.12c0.05-0.19-0.05-0.39-0.22-0.45C133.55,85.12,133.37,85.23,133.32,85.42z"/>
	</g>
	<g transform="matrix(0.4441,0,0,0.39775,0,0)">
		<path class="st1" d="M140.2,95.87c0.01,0.01,0.02,0.03,0.01,0.05c-0.01,0.01,0.02,0.04,0.03,0.07l0,0c0,0,0.01,0.02,0.01,0.01
			l-0.01-0.01c0.01-0.01,0.07-0.02,0.09-0.07c0.03-0.07,0.08-0.13,0.1-0.24c0.17-0.74,0.2-2.19,0.2-2.52l0.09-5.53
			c-0.01-0.4-0.03-1.13-0.21-1.59c-0.08-0.21-0.18-0.3-0.29-0.28c0.03-0.04,0.05-0.09,0.07-0.14c0.04-0.19-0.06-0.39-0.24-0.44
			c-0.09-0.06-0.18-0.01-0.26,0c-0.14,0.01-0.18,0.2-0.34,0.41c-0.12,0.16-0.22,0.22-0.32,0.54c-0.13,0.42,0.03,1.08-0.01,1.43
			c-0.08,1.14-0.17,2.25-0.23,3.37c-0.03,0.76-0.05,1.53-0.04,2.3c0.01,0.3-0.24,1.61-0.18,2.3c0.01,0.13,0.03,0.22,0.07,0.3
			c0.08,0.21,0.07,0.31,0.11,0.36c0.05,0.06,0,0.12,0.04,0.15c0.1,0.06,0.03,0.18,0.1,0.2c0.1,0.03,0.07,0.17,0.15,0.16
			c0.21-0.02,0.28,0.27,0.42,0.13c0.03-0.03,0.08,0.02,0.1-0.02c0.04-0.06,0.13,0.02,0.16-0.06c0.04-0.1,0.21-0.03,0.22-0.19
			c0-0.04,0.05-0.03,0.05-0.09c0-0.05,0.1-0.13,0.08-0.32C140.21,96.05,140.21,95.96,140.2,95.87z M140.17,95.71
			c0.01,0.03,0.02,0.05,0.02,0.08C140.2,95.76,140.19,95.74,140.17,95.71z M139.05,95.54L139.05,95.54
			c-0.05,0.01-0.02,0.08-0.07,0.11c-0.01,0,0,0.03,0,0.06l0.02-0.06c0.01-0.02,0.02-0.04,0.03-0.06L139.05,95.54z"/>
	</g>
	<g transform="matrix(0.4441,0,0,0.39775,0,0)">
		<path class="st1" d="M140.44,90.37c-0.07-0.01-0.14-0.01-0.2,0.03c-0.27,0.12-0.31,0.26-0.04,0.45c-0.03,0.22,0.12,0.32,0.32,0.21
			l0.02-0.01l0.07,0.03c0.16,0.07-0.02,0.09,0.14,0.21c0.04,0.03,0.08,0.05,0.14,0.06c0.27,0.04,0.66-0.02,0.96,0.09
			c0.33,0.09,0.73,0.29,1.15,0.45c0.51,0.18,1.04,0.31,1.49,0.3c0.14,0,0.27,0,0.39-0.04c0.17-0.06,0.34-0.07,0.43-0.22
			c0.08-0.12,0.11-0.1,0.13-0.24c0.3-0.2,0.4-0.63,0.22-0.96c-0.18-0.33-0.56-0.44-0.86-0.24c-0.08,0-0.05-0.17-0.14-0.18
			c-0.3-0.03-0.66-0.09-1.04-0.19c-0.53-0.15-1.06-0.29-1.48-0.35c-0.48-0.04-1.09-0.01-1.46,0.21c-0.06,0.03-0.1,0.06-0.13,0.11
			c-0.11,0.19,0.06,0.12-0.06,0.26L140.44,90.37z"/>
	</g>
	<g transform="matrix(0.4441,0,0,0.39775,0,0)">
		<path class="st1" d="M145.18,86.82c-0.13-0.06-0.32-0.08-0.39-0.31c-0.01-0.04-0.08-0.15-0.08-0.15s-0.03,0.05-0.03,0.09
			c-0.02,0.31-0.05,0.82-0.07,1.33c-0.03,0.71-0.04,1.38-0.03,1.49c0.05,0.85,0.02,1.75,0.02,2.67c0,1.39,0.01,2.82,0.1,4.19
			c0.07,1.08,0.19,2.13,0.41,3.09c0.09,0.46,0.5,0.76,0.92,0.65c0.42-0.1,0.68-0.56,0.59-1.02c-0.09-0.59-0.14-1.21-0.16-1.84
			c-0.05-1.5,0.08-3.09,0.12-4.65c0.03-1.12,0.01-2.23-0.07-3.26c-0.02-0.18-0.05-2.13-0.23-2.87c-0.08-0.32-0.15-0.53-0.23-0.61
			c-0.19-0.2-0.31-0.37-0.46-0.37c-0.07,0.03-0.12-0.07-0.18-0.02c-0.19,0.15-0.45-0.04-0.49,0.22c-0.01,0.06-0.09,0.05-0.09,0.12
			c0,0.1-0.14,0.12-0.11,0.25c0.03,0.09-0.1,0.19,0,0.34c0.12,0.16,0.3,0.31,0.45,0.58C145.16,86.76,145.17,86.79,145.18,86.82z
			 M145.79,86.68c0.02-0.01,0.03-0.01,0.05-0.01c0.08-0.01,0.05-0.15,0.15-0.19c0.07-0.03,0-0.16,0.08-0.24
			c0.03-0.03-0.02-0.16-0.02-0.16s-0.25,0.25-0.27,0.48C145.77,86.61,145.78,86.65,145.79,86.68z"/>
	</g>
	<g transform="matrix(0.4441,0,0,0.39775,0,0)">
		<path class="st1" d="M87.81,82.88c0.09-0.73-0.72-0.32-0.79-0.15c-0.03,0.06,0,0.37-0.2,0.8c-0.07,0.14-0.15,0.14-0.22,0.31
			c-0.08,0.19-0.1,0.43-0.13,0.68c-0.09,0.85-0.08,1.93-0.1,3.02c-0.03,1.89-0.02,3.79-0.06,4.45c-0.15,2.62-0.24,5.24-0.29,7.88
			c-0.08,3.93-0.07,7.87-0.07,11.78c0,10.03,0.11,20.05,0.25,30.07c0.05,4.01,0.1,8.01,0.17,12.02c0.12,6.01,0.29,12.01,0.38,18.02
			c0,0.5,0.36,0.9,0.81,0.9c0.44,0,0.81-0.4,0.81-0.9c0.09-6.02,0.18-12.03,0.17-18.05c-0.03-14.03-0.35-28.04-0.34-42.06
			c0-3.89-0.01-7.82,0.05-11.73c0.04-2.6,0.1-5.2,0.23-7.78c0.03-0.69,0.04-2.65-0.02-4.61c-0.03-1.08-0.03-2.17-0.13-3.02
			c-0.03-0.25-0.05-0.48-0.13-0.67c-0.07-0.16-0.16-0.17-0.22-0.3c-0.15-0.34-0.17-0.58-0.17-0.63
			C87.82,82.9,87.81,82.89,87.81,82.88z"/>
	</g>
	<g transform="matrix(0.4441,0,0,0.39775,0,0)">
		<path class="st1" d="M87.95,80.22c0.11-0.08,0.2-0.18,0.32-0.23c0.22-0.09,0.41-0.01,0.63-0.07c0.32-0.09,0.59-0.27,0.86-0.42
			c3.25-1.69,4.96-1.91,5.93-0.42c0.9,1.38,1.09,3.77,1.06,6.64c-0.06,5.26-0.99,12.01-1,17.48c-0.01,7.03,0.1,14.1,0.28,21.17
			c0.37,14.81,0.98,29.66,1.14,44.35c0.02,1.31-0.01,2.63,0.04,3.94c0.01,0.2-0.01,0.4,0.04,0.59c0.04,0.16,0.11,0.25,0.18,0.39
			c0,0.46,0.34,0.84,0.75,0.84c0.41,0,0.75-0.37,0.75-0.84c0.07-0.16,0.14-0.26,0.18-0.43c0.07-0.32,0.04-0.66,0.05-0.99
			c0.1-4.22-0.03-8.46-0.11-12.7c-0.35-18.72-1.32-37.64-1.33-56.33c-0.01-5.46,0.9-12.21,0.92-17.46c0.01-3.42-0.39-6.26-1.5-7.86
			c-1.37-1.99-3.97-2.72-8.09,0.19c-0.27,0.19-0.57,0.37-0.81,0.65c-0.16,0.19-0.19,0.41-0.36,0.6c-0.09,0.1-0.22,0.15-0.33,0.23
			c-0.17,0.12-0.22,0.37-0.11,0.55C87.55,80.28,87.78,80.34,87.95,80.22z"/>
	</g>
	<g transform="matrix(0.4441,0,0,0.39775,0,0)">
		<path class="st1" d="M87.82,174.13c0.17-0.04,0.35-0.08,0.53-0.13c0.98-0.28,2-0.54,3.06-0.68c1.62-0.21,3.29-0.15,4.82-0.24
			c0.42-0.02,0.83-0.1,1.23-0.14c0.45,0,0.82-0.41,0.82-0.91c0-0.5-0.37-0.91-0.82-0.91c-0.4-0.05-0.81-0.12-1.24-0.14
			c-1.6-0.07-3.35,0.09-5.04,0.37c-1.17,0.19-2.34,0.42-3.36,0.92c-0.28,0.13-0.53,0.3-0.78,0.47c-0.77,0.55-0.96,1.01-0.93,1.35
			c0.02,0.23,0.08,0.45,0.25,0.63c0.3,0.33,1.06,0.7,1.7,0.52c0.16-0.04,0.28-0.11,0.4-0.2c0.19-0.06,0.31-0.27,0.26-0.49
			c-0.05-0.21-0.25-0.34-0.44-0.29c-0.1-0.01-0.17-0.08-0.27-0.09C87.94,174.17,87.88,174.15,87.82,174.13z"/>
	</g>
	<g transform="matrix(0.4441,0,0,0.39775,0,0)">
		<path class="st1" d="M96.01,79.26l0.18-0.16c0.24-0.21,0.63-0.43,1.12-0.76c0.77-0.53,1.78-1.26,3.02-2.05
			c3.28-2.08,7.99-4.78,12.83-7.09c4.41-2.1,8.9-3.91,12.46-4.7c3.84-0.86,7.67-0.83,11.45-0.27c3.82,0.57,7.59,1.7,11.28,3.05
			c1.12,0.41,4.41,3.8,6.68,4.88c0.71,0.34,1.37,0.54,1.87,0.4c0.43-0.12,0.79-0.3,1-0.7c0.32-0.36,0.32-0.93,0-1.29
			c-0.32-0.36-0.83-0.36-1.15,0c-0.04,0.03-0.01-0.13-0.06-0.13c-0.09,0.01-0.19-0.03-0.3-0.06c-0.62-0.17-1.4-0.64-2.22-1.22
			c-2.08-1.48-4.35-3.56-5.26-3.88c-3.8-1.35-7.69-2.46-11.62-3.01c-3.97-0.56-7.99-0.54-12.01,0.41
			c-5.33,1.25-12.7,4.72-18.81,8.13c-2.87,1.6-5.48,3.16-7.43,4.52c-1.32,0.93-2.39,1.73-2.99,2.4c-0.44,0.48-0.66,0.89-0.73,1.15
			c-0.1,0.37-0.07,0.62,0.14,0.75c0.14,0.13,0.35,0.1,0.47-0.05C96.01,79.48,96.03,79.36,96.01,79.26z"/>
	</g>
	<g transform="matrix(0.4441,0,0,0.39775,0,0)">
		<path class="st1" d="M156.06,73.59l0.03-0.03c0.17-0.2,0.15-0.52-0.03-0.71c-0.19-0.19-0.37-0.21-0.51-0.18
			c-0.15,0.03-0.32,0.14-0.41,0.41c-0.03,0.09-0.03,0.23-0.08,0.39c-0.05,0.17-0.15,0.3-0.22,0.54c-0.14,0.51-0.14,1.21-0.2,2.03
			c-0.02,0.24-0.05,0.47-0.05,0.72c0.03,2.44,0.61,5.38,0.65,6.15c0.08,1.26,0.12,2.53,0.14,3.79c0.11,5.15-0.12,10.33,0.09,15.49
			c0.25,5.85,0.16,11.71-0.09,17.59c-0.46,11-1.55,22.03-1.83,33.04c-0.07,2.78-0.05,5.55,0.01,8.33c0,0.68,0.49,1.23,1.1,1.23
			c0.61,0,1.1-0.55,1.1-1.23c0.05-2.74,0.19-5.48,0.32-8.22c0.5-11,1.43-22.03,1.89-33.02c0.25-5.97,0.34-11.92,0.08-17.86
			c-0.2-4.48-0.05-8.98-0.13-13.47c-0.03-1.97-0.12-3.93-0.28-5.88c-0.07-0.75-0.35-3.57-0.83-5.93c-0.22-1.09-0.51-2.03-0.68-2.7
			C156.1,73.89,156.09,73.7,156.06,73.59z"/>
	</g>
	<g transform="matrix(0.4441,0,0,0.39775,0,0)">
		<path class="st1" d="M99.11,171.55c-0.07-0.17-0.24-0.27-0.41-0.22c-0.31,0.09-0.46,0.32-0.59,0.57c-0.21,0.38-0.21,0.85-0.1,1.26
			c0.22,0.77,0.88,0.98,1.7,0.2l3.18-3.58c1.34-1.37,2.86-2.52,4.47-3.52c2.44-1.53,5.09-2.72,7.67-3.77
			c6.42-2.61,12.82-4,19.13-3.91c5.75,0.09,11.4,1.45,16.93,4.2c0.35,0.18,0.69,0.39,1.06,0.54c0.25,0.1,0.51,0.14,0.77,0.22
			c0.51,0.28,1.12,0.05,1.38-0.51c0.25-0.56,0.05-1.25-0.46-1.54c-0.22-0.19-0.42-0.4-0.66-0.56c-0.35-0.24-0.74-0.4-1.11-0.58
			c-5.83-2.91-11.83-4.22-17.89-4.25c-6.56-0.02-13.21,1.5-19.85,4.29c-2.67,1.12-5.41,2.38-7.92,4.02
			c-1.71,1.12-3.32,2.43-4.73,3.95c-0.67,0.74-1.32,1.51-1.93,2.32C99.53,170.96,99.32,171.25,99.11,171.55z M98.81,172.29
			l0.01,0.04c0.02,0.09,0.14,0.21,0.19,0.15c0.02-0.02,0.04-0.06,0.02-0.07C98.95,172.36,98.88,172.3,98.81,172.29z"/>
	</g>
	<g transform="matrix(0.4441,0,0,0.39775,0,0)">
		<path class="st1" d="M88.94,81.07c-0.01-0.15-0.03-0.34-0.08-0.5c-0.55-1.71-1.94-4.96-2.19-5.45c-1.27-2.5-3.12-6.05-5.32-8.86
			c-1.63-2.1-3.47-3.78-5.36-4.44c-8.95-3.06-21.09-5.95-31.64-4.16c-5.96,1.01-11.45,3.47-15.55,8.2c-0.61,0.7-1.2,1.42-1.71,2.25
			c-0.33,0.54-0.6,1.11-0.87,1.71c-0.21,0.36-0.13,0.84,0.19,1.08c0.32,0.24,0.75,0.14,0.97-0.22c0.36-0.48,0.75-0.9,1.1-1.35
			c0.55-0.69,1.07-1.38,1.64-2c3.9-4.33,8.97-6.61,14.52-7.55c10.27-1.74,22.09,1.03,30.83,3.98c1.63,0.54,3.18,2,4.61,3.77
			c2.17,2.68,4.03,6.06,5.31,8.44c0.26,0.47,1.41,3.8,2.3,5.28c1.07,1.77,2.06,1.63,1.38,0.07C89.06,81.2,89.01,81.12,88.94,81.07z
			 M89,81.36c0.01,0.01,0.03,0.01,0.05,0.01C89.07,81.36,89.03,81.36,89,81.36z"/>
	</g>
	<g transform="matrix(0.4441,0,0,0.39775,0,0)">
		<path class="st1" d="M27.63,71.25c0.16,0.01,0.33-0.09,0.41-0.26c0.2-0.29,0.1-0.56,0.03-0.75c-0.1-0.28-0.4-0.4-0.81-0.28
			c-0.32,0.09-0.86,0.65-1.05,2.24l-0.16,9.43c-0.02,2.39,0.02,4.78,0.12,7.15c0.22,5.51,0.67,10.99,0.84,16.53
			c0.49,14.15-0.24,35.13,1.1,53.24c0.42,5.71,0.99,11.15,1.97,15.98c0.49,2.4,1.1,4.63,1.77,6.7c0.19,0.65,0.83,1,1.41,0.79
			c0.58-0.22,0.9-0.92,0.71-1.58c-0.55-2.01-0.99-4.2-1.41-6.51c-0.87-4.75-1.56-10.03-2-15.61c-1.43-18.05-0.84-38.98-1.41-53.1
			c-0.24-5.54-0.73-11.03-1.04-16.54c-0.13-2.34-0.23-4.68-0.26-7.04l-0.16-9.43C27.66,71.85,27.62,71.48,27.63,71.25z M27.68,71.04
			c0.04,0.01,0.08,0.03,0.05,0.01C27.71,71.04,27.7,71.04,27.68,71.04z"/>
	</g>
	<g transform="matrix(0.4441,0,0,0.39775,0,0)">
		<path class="st1" d="M32.31,180.23c0.09-0.03,0.24-0.2,0.41-0.35c1.34-1.16,4.56-4.3,5.34-4.95c2.14-1.89,4.19-3.37,6.39-4.57
			c2.16-1.18,4.46-2.08,7.13-2.79c5.92-1.59,12.69-2.84,19.2-2.4c4.26,0.29,8.42,1.31,12.15,3.51c1.59,0.93,2.98,2.63,4.58,3.78
			c0.32,0.23,0.63,0.45,0.97,0.61c0.55,0.26,1.1,0.42,1.69,0.49c0.49,0.14,0.98-0.19,1.1-0.74c0.12-0.54-0.17-1.1-0.66-1.23
			c-0.4-0.18-0.73-0.46-1.09-0.72c-0.25-0.17-0.49-0.35-0.74-0.54c-1.63-1.26-3.12-2.96-4.77-3.93c-4.02-2.35-8.5-3.45-13.1-3.7
			c-6.72-0.37-13.69,1.08-19.77,2.84c-2.79,0.82-5.19,1.82-7.44,3.13c-2.26,1.32-4.37,2.93-6.56,4.96
			c-0.75,0.72-4.04,3.95-5.13,5.45c-0.06,0.08-0.13,0.15-0.15,0.24c-0.02,0.08,0.02,0.1,0,0.17c-0.1,0.32-0.28,0.47-0.29,0.55
			c-0.01,0.18,0.05,0.3,0.14,0.38c0.07,0.06,0.18,0.14,0.37,0.08C32.18,180.45,32.27,180.35,32.31,180.23z"/>
	</g>
	<g transform="matrix(0.4441,0,0,0.39775,0,0)">
		<path class="st0" d="M152.81,103.63c0,0,4.66-2.18,5.31-1.21c0.65,0.97,0.88,15.71,0.88,15.71s-3.61,6.09-3.76,6.07
			C155.09,124.18,152.81,103.63,152.81,103.63z"/>
	</g>
	<g transform="matrix(0.4441,0,0,0.39775,0,0)">
		<path class="st1" d="M94.04,78.08c-0.34-0.12-0.3-0.48-0.14-0.95c0.29-0.84,1.03-1.96,1.98-3.2c2.85-3.71,7.63-8.36,8.63-9.22
			c5.52-4.74,11.57-8.6,17.96-10.89c6.39-2.29,13.15-3.03,20.16-1.34c0.28,0.07,0.56-0.13,0.62-0.45c0.06-0.31-0.12-0.63-0.4-0.69
			c-7.21-1.78-14.18-1.14-20.74,1.25c-6.5,2.36-12.6,6.42-18.17,11.32c-1.15,1.01-7.21,7.1-9.71,11.03
			c-0.66,1.03-1.07,1.93-1.13,2.57c-0.06,0.65,0.16,1.1,0.73,1.29c0.18,0.06,0.36-0.05,0.42-0.24
			C94.31,78.35,94.21,78.14,94.04,78.08z"/>
	</g>
	<g transform="matrix(0.4441,0,0,0.39775,0,0)">
		<path class="st1" d="M92.02,77.73c1.03-0.47,4.06-4.54,6.46-6.99c0.63-0.64,1.2-1.16,1.69-1.46c7.29-4.54,21.67-10.75,34.87-12.57
			c9.33-1.28,18.06-0.39,23.22,4.92c0.13,0.14,0.34,0.13,0.47-0.02c0.12-0.15,0.12-0.38-0.02-0.52c-5.28-5.44-14.21-6.43-23.75-5.13
			c-13.29,1.82-27.78,8.07-35.12,12.64c-0.53,0.33-1.15,0.88-1.82,1.57c-2.34,2.39-5.26,6.38-6.26,6.84
			c-0.18,0.08-0.26,0.31-0.19,0.51C91.63,77.72,91.84,77.82,92.02,77.73z"/>
	</g>
	<g transform="matrix(0.4441,0,0,0.39775,0,0)">
		<path class="st1" d="M99.93,72.29c0.58-0.84,1.55-2.09,2.29-2.6c1.99-1.4,4.04-2.65,6.14-3.75c2.1-1.1,4.27-2.05,6.51-2.81
			c4.34-1.49,16.54-2.95,27.27-2.64c5.66,0.16,10.88,0.88,14.35,2.25c1.29,0.51,2.34,1.08,3.06,1.82c0.15,0.17,0.4,0.17,0.55,0
			c0.15-0.17,0.15-0.44,0-0.62c-0.73-0.9-1.83-1.69-3.24-2.32c-3.5-1.56-8.9-2.2-14.69-2.36c-10.85-0.3-23.2,1.27-27.59,2.79
			c-2.29,0.8-4.5,1.77-6.63,2.92c-2.13,1.15-4.18,2.47-6.18,3.93c-0.97,0.72-2.32,2.67-2.77,3.47c-0.62,1.11-0.47,2.06,0.87,0.27
			C99.94,72.55,99.96,72.41,99.93,72.29z"/>
	</g>
	<g transform="matrix(0.4441,0,0,0.39775,0,0)">
		<path class="st1" d="M95.34,77.14c-0.15-0.05-0.25-0.09-0.3-0.17c-0.07-0.14,0.06-0.29,0.22-0.5c0.47-0.65,1.47-1.46,2.71-2.33
			c3.8-2.67,9.82-5.8,10.41-6.08c5.4-2.58,11.05-4.07,16.78-4.69c5.75-0.61,11.58-0.33,17.33,0.66c1.38,0.23,6.97,0.56,10.56,1.98
			c1.7,0.67,2.98,1.52,2.89,2.86c-0.02,0.23,0.14,0.43,0.34,0.45c0.21,0.02,0.39-0.15,0.41-0.38c0.14-1.66-1.27-2.92-3.36-3.78
			c-3.63-1.48-9.29-1.89-10.69-2.14c-5.82-0.99-11.73-1.26-17.55-0.61c-5.81,0.64-11.53,2.2-17,4.85c-0.67,0.33-8.4,4.42-11.89,7.28
			c-0.96,0.79-1.6,1.51-1.76,2.04c-0.18,0.57-0.01,1.04,0.74,1.27c0.18,0.06,0.36-0.06,0.41-0.26
			C95.63,77.41,95.52,77.2,95.34,77.14z"/>
	</g>
	<g transform="matrix(0.4441,0,0,0.39775,0,0)">
		<path class="st1" d="M94.98,73.7c0.24-0.12,3.48-4.31,6.11-7.36c1.12-1.3,2.12-2.39,2.71-2.82c5.12-3.72,10.65-6.15,16.4-7.68
			c3.47-0.92,7.02-1.5,10.6-1.87c5.35-0.55,10.78-0.63,16.15-0.36c0.19,0.01,0.34-0.15,0.36-0.35c0.01-0.21-0.13-0.38-0.32-0.4
			c-4.5-0.36-9.05-0.54-13.56-0.28c-3.03,0.17-6.05,0.54-9.02,1.11c-7.43,1.44-14.59,4.24-21.06,9.06
			c-0.62,0.46-1.66,1.61-2.82,2.99c-2.52,3.01-5.6,7.16-5.83,7.29c-0.17,0.09-0.24,0.31-0.16,0.5
			C94.62,73.71,94.82,73.79,94.98,73.7z"/>
	</g>
	<g transform="matrix(0.4441,0,0,0.39775,0,0)">
		<path class="st1" d="M89.04,77.36c0.81-1.65,0.15-4.04-1.27-6.55c-0.92-1.63-2.14-3.32-3.43-4.88c-2.37-2.88-4.94-5.32-6.05-6.32
			c-5.39-4.84-10.72-7.1-16.33-7.74c-5.52-0.63-11.3,0.31-17.67,1.83c-3.1,0.79-5.95,1.59-8.63,2.91c-1.8,0.89-3.52,2.01-5.2,3.52
			c-0.25,0.22-0.29,0.62-0.1,0.89c0.19,0.28,0.55,0.33,0.8,0.11c1.63-1.36,3.3-2.35,5.03-3.13c2.64-1.19,5.42-1.87,8.45-2.54
			c6.19-1.46,11.8-2.36,17.16-1.77c5.34,0.58,10.44,2.64,15.61,7.17c1.1,0.95,3.62,3.32,6.02,6.05c1.29,1.46,2.54,3.01,3.5,4.53
			c1.33,2.11,2.14,4.1,1.51,5.58c-0.08,0.18-0.02,0.41,0.15,0.5C88.76,77.62,88.96,77.54,89.04,77.36z"/>
	</g>
	<g transform="matrix(0.4441,0,0,0.39775,0,0)">
		<path class="st1" d="M91.12,80.34c0.23-1.89-0.12-3.89-0.75-5.86c-0.91-2.83-2.39-5.59-3.39-7.84
			c-4.9-10.95-14.87-18.67-25.79-21.47c-4.34-1.11-8.84-1.46-13.21-0.9c-6.58,0.84-12.87,3.71-17.99,8.81
			c-0.19,0.18-0.21,0.51-0.04,0.72c0.17,0.21,0.46,0.24,0.64,0.05c5.04-4.81,11.18-7.35,17.54-8.09c4.23-0.49,8.56-0.17,12.77,0.88
			c10.6,2.65,20.34,9.95,25.19,20.51c1.02,2.21,2.53,4.9,3.5,7.67c0.63,1.82,1.04,3.67,0.87,5.44c-0.02,0.2,0.11,0.39,0.29,0.42
			C90.93,80.69,91.1,80.55,91.12,80.34z"/>
	</g>
	<g transform="matrix(0.4441,0,0,0.39775,0,0)">
		<path class="st1" d="M89.22,74.99c-0.16-0.4,0.14-1.1,0.07-1.88c-0.03-0.32-0.1-0.64-0.25-0.97
			C83.52,60.1,73.09,51.55,61.63,48.25c-5.84-1.68-11.96-2.03-17.82-0.72c-5.74,1.29-11.22,4.2-15.96,8.79
			c-0.2,0.18-0.22,0.51-0.05,0.73c0.17,0.22,0.46,0.25,0.66,0.06c4.68-4.34,10.05-6.94,15.62-8.16c5.69-1.24,11.61-1.03,17.29,0.54
			C72.59,52.59,82.89,60.8,88.42,72.5c0.11,0.23,0.16,0.46,0.18,0.68c0.08,0.87-0.18,1.67,0,2.11c0.08,0.19,0.27,0.27,0.44,0.18
			C89.22,75.4,89.3,75.18,89.22,74.99z"/>
	</g>
	<g transform="matrix(0.4441,0,0,0.39775,0,0)">
		<path class="st1" d="M90.26,80.37c-0.51-1.1-0.62-2.3-1.02-3.48c-0.17-0.5-0.39-1-0.7-1.5c-5.46-8.7-14.99-15.46-25.38-19.06
			c-10.47-3.63-21.79-4.03-30.64-0.1c-1.55,0.72-2.94,1.76-4.21,2.98c-1.86,1.77-3.48,3.91-5.09,5.85c-0.17,0.19-0.16,0.5,0.02,0.69
			c0.17,0.18,0.45,0.18,0.61-0.02c1.62-1.87,3.27-3.92,5.13-5.61c1.21-1.1,2.51-2.05,3.97-2.68c8.62-3.89,19.67-3.49,29.92-0.03
			c10.22,3.45,19.66,9.96,25.09,18.45c0.27,0.43,0.47,0.87,0.62,1.31c0.42,1.2,0.55,2.43,1.08,3.55c0.09,0.18,0.29,0.25,0.45,0.16
			C90.28,80.78,90.34,80.55,90.26,80.37z"/>
	</g>
	<g transform="matrix(0.4441,0,0,0.39775,0,0)">
		<path class="st1" d="M25.38,104.46c0.09-0.04,0.27-0.07,0.39-0.11c0.63-0.18,1.5-0.22,1.59-0.24c1.13-0.18,2.26-0.26,3.39-0.27
			c1.13-0.02,2.27,0.03,3.41,0.12c2,0.13,7.9,0.46,12.22,1.51c2.04,0.49,3.74,1.05,4.25,1.99l0,0c-0.05,0.03-0.11,0.07-0.17,0.09
			c-0.25,0.11-0.56,0.18-0.86,0.24c-0.74,0.13-1.49,0.15-1.72,0.17l-11.25,1.29c-0.33,0.03-0.58,0.36-0.55,0.73
			c0.03,0.37,0.32,0.64,0.65,0.62L48,109.72c0.43-0.04,2.44-0.1,3.39-0.7c0.44-0.27,0.71-0.65,0.81-1.08
			c0.09-0.39,0.06-0.86-0.24-1.4c-0.66-1.18-2.7-2.14-5.29-2.71c-4.41-0.96-10.43-1.1-12.47-1.18c-1.17-0.03-2.34-0.02-3.5,0.07
			c-1.17,0.09-2.33,0.24-3.48,0.49c-0.13,0.03-1.56,0.21-2.14,0.58c-0.44,0.27-0.56,0.63-0.31,1.01c0.1,0.17,0.32,0.21,0.47,0.1
			C25.38,104.8,25.43,104.62,25.38,104.46z M25.36,104.47c-0.04,0.02-0.06,0.04-0.03,0.06C25.36,104.55,25.37,104.52,25.36,104.47z"
			/>
	</g>
	<g transform="matrix(0.4441,0,0,0.39775,0,0)">
		<path class="st1" d="M35.56,110.17l-0.03,0.02l-0.01,0.01c-0.07,0.03-0.13,0.07-0.09,0.1c-0.03,0.05-0.05,0.1-0.05,0.17
			c-0.01,0.1,0.02,0.17,0.03,0.2c0.04,0.13,0.39,0.43,0.63,0c0.04-0.08,0.14-0.34,0.18-0.39c0.04-0.04,0.1,0.02,0.19,0.03
			c0.19,0.02,0.41,0.09,0.64,0.17c0.7,0.25,1.49,0.65,1.76,0.74c1.43,0.39,4.8,0.54,7.28,1.25c0.83,0.24,1.56,0.51,2.04,0.93
			c-0.69,0.32-1.51,0.51-2.36,0.65c-1.53,0.24-3.16,0.28-4.39,0.28c-1.49,0.02-2.97,0.07-4.43,0.28c-0.63,0.09-1.24,0.24-1.87,0.35
			c-0.13,0-0.22,0.12-0.22,0.27c0,0.14,0.11,0.25,0.24,0.25c0.64,0.06,1.27,0.13,1.9,0.14c1.46,0.01,2.9-0.14,4.37-0.1
			c1.27,0.02,2.97,0.02,4.56-0.21c1.13-0.17,2.2-0.47,3.04-0.94c0.08-0.04,0.42-0.29,0.51-0.51c0.1-0.23,0.09-0.47-0.04-0.69
			c-0.51-0.87-1.65-1.5-3.07-1.89c-2.5-0.69-5.89-0.75-7.33-1.11c-0.37-0.08-1.65-0.62-2.44-0.68c-0.42-0.03-0.75,0.07-0.9,0.27
			C35.66,109.78,35.61,110.01,35.56,110.17z M35.53,110.19L35.53,110.19c-0.04,0.03-0.07,0.07-0.09,0.11l0.01,0.01
			c0.04,0.02,0.07-0.04,0.1-0.12L35.53,110.19z"/>
	</g>
	<g transform="matrix(0.4441,0,0,0.39775,0,0)">
		<path class="st0" d="M26.65,103.99l3.37-0.23l0.76,18.66l-4.2-3.31L26.65,103.99z"/>
	</g>
	<g transform="matrix(0.4441,0,0,0.39775,0,0)">
		<path class="st1" d="M37.36,119.98c1.43,0.22,3.37,0.42,4.88,0.31c0.94-0.07,1.73-0.29,2.19-0.66c0.43-0.33,0.65-0.78,0.64-1.34
			c-0.01-0.38-0.19-0.77-0.55-1.09c-0.36-0.32-0.93-0.61-1.61-0.85c-1.97-0.69-4.88-1.01-5.32-1.04c-0.4-0.02-1.85-0.21-2.44-0.3
			l-0.22-0.03c-0.01,0-0.03-0.01-0.04-0.01l-0.05,0c-0.5-0.09-0.91-0.13-1.24-0.14c-0.8-0.06-1.14,0.01-0.97,0.17
			c-0.14,0.22,0.6,0.58,2.15,0.72l0.01,0c0.03,0.01,0.12,0.03,0.25,0.05c0.6,0.12,2.08,0.4,2.48,0.45c0.37,0.04,2.56,0.4,4.35,1
			c0.72,0.24,1.37,0.53,1.78,0.84c0.13,0.1,0.27,0.16,0.27,0.27c0.01,0.18-0.14,0.27-0.31,0.36c-0.36,0.19-0.88,0.28-1.47,0.34
			c-1.93,0.19-4.59-0.16-5.9-0.17c-0.33,0-0.57,0.03-0.71,0.06c-0.06,0.01-0.71,0.24-1.06,0.44c-0.21,0.12-0.32,0.28-0.3,0.36
			c0.01,0.09,0.13,0.12,0.28,0.23c0.06,0.05,0,0.08,0.07,0.13c0.18,0.15,0.54,0.07,0.58,0.08c0.73,0.16,2.96,0.72,4.58,1.67
			c0.83,0.49,1.55,1.02,1.54,1.75h-0.01c-1.13,0.02-3.98-0.49-4.38-0.52c-3.83-0.24-6.11-0.95-7.88-2.42
			c-1.39-1.15-2.43-2.78-3.76-4.95c-0.45-0.74-0.96-1.51-1.49-2.37c-0.08-0.15-0.25-0.2-0.39-0.11c-0.14,0.09-0.18,0.28-0.1,0.43
			c0.41,0.95,0.78,1.82,1.16,2.61c1.21,2.47,2.37,4.22,3.84,5.48c1.9,1.63,4.38,2.41,8.55,2.66c0.41,0.02,3.33,0.5,4.48,0.44
			c0.62-0.03,0.92-0.39,0.97-0.58c0.27-1.15-0.29-2.14-1.36-2.87C39.9,120.74,38.53,120.28,37.36,119.98z"/>
	</g>
	<g transform="matrix(0.4441,0,0,0.39775,0,0)">
		<path class="st1" d="M151.23,109.51c-0.13,0.08-0.27,0.17-0.42,0.27c-1.46,0.97-3.59,2.77-4.75,4.12
			c-0.59,0.68-0.91,1.31-0.93,1.73c-0.02,0.37,0.1,0.66,0.39,0.87c0.92,0.69,2.17,0.78,3.49,0.53c-0.24,0.18-0.46,0.35-0.66,0.53
			c-0.64,0.55-1.07,1.09-1.22,1.52c-0.12,0.35-0.11,0.68,0.02,0.96c0.38,0.76,1.36,1.05,2.59,0.78c1.53-0.33,3.46-1.29,4.36-1.63
			l0.03-0.01c-0.02,0.03-0.03,0.06-0.05,0.09c-0.59,1.03-1.93,3.35-2.18,4.82c-0.09,0.54-0.02,0.99,0.17,1.29
			c0.25,0.38,0.76,0.6,1.67,0.38c1.06-0.26,2.5-1.86,3.81-3.87c0.43-0.67,0.86-1.37,1.24-2.1c1.12-2.11,1.93-4.27,2.15-5.43
			c0.07-0.52,0.01-1.09-0.17-1.69c-0.31-1.05-0.94-2.17-1.14-3.02c-0.04-0.23-0.24-0.38-0.45-0.33c-0.2,0.05-0.34,0.27-0.29,0.5
			c0.12,0.88,0.64,2.08,0.85,3.17c0.08,0.39,0.11,0.77,0.03,1.09c-0.22,1.08-1.06,3.03-2.07,5.01c-0.36,0.7-0.72,1.41-1.1,2.08
			c-1.05,1.83-2.15,3.4-3.06,3.7c-0.46,0.15-0.73,0.2-0.87,0.01c-0.11-0.15-0.11-0.38-0.08-0.66c0.15-1.42,1.33-3.7,1.85-4.7
			c0.22-0.41,0.28-0.71,0.27-0.73c-0.03-0.09-0.3-0.2-0.73-0.09c-0.9,0.22-2.85,0.91-4.36,1.04c-0.35,0.03-0.67,0.01-0.94-0.04
			c-0.15-0.03-0.27-0.07-0.35-0.16c0.05-0.09,0.17-0.26,0.28-0.38c0.46-0.49,1.2-1.04,2.03-1.61c2.03-1.39,4.53-2.79,4.97-3.2
			c0.1-0.09,0.63-0.53,0.74-0.78c0.12-0.26,0.1-0.5,0.02-0.69c-0.06-0.14-0.44-0.55-0.99-0.24c-0.45,0.25-1.51,1.07-1.62,1.13
			c-1.12,0.61-2.95,1.61-4.7,2.02c-1.06,0.25-2.08,0.3-2.85-0.18c0.04-0.09,0.1-0.23,0.17-0.35c0.36-0.55,1-1.24,1.74-1.95
			c0.98-0.96,2.14-1.92,3-2.68c0.64-0.56,1.1-1.02,1.27-1.14c0.06-0.05,0.2-0.22,0.41-0.39c0.44-0.11,0.81-0.21,1.06-0.29
			c0.51-0.17,0.54-0.45,0.27-0.53c-0.06-0.02-0.15-0.02-0.27,0.02c-0.12,0.04-0.27,0.12-0.43,0.22c-0.86,0.14-2.38,0.31-3.75,0.62
			c-0.49,0.11-1.65,0.46-3.03,0.86c-1.42,0.41-3.07,0.88-4.48,1.04c-0.69,0.08-1.32,0.09-1.81-0.03c-0.18-0.04-0.34-0.09-0.46-0.18
			c0.03-0.04,0.05-0.08,0.09-0.12c0.51-0.67,1.81-1.82,4.93-3.43c2.18-1.12,5.22-2.47,9.48-3.95c0.56-0.2,1.28-0.52,1.99-0.67
			c0.39-0.08,0.78-0.12,1.11,0c0.13,0.03,0.2,0.18,0.26,0.27c0.03,0.04,0.06,0.01,0.09,0.02c-0.06,0.16-0.01,0.36,0.13,0.45
			c0.15,0.11,0.28,0.1,0.37,0.06c0.12-0.05,0.14-0.24,0.27-0.46c0.09-0.15,0.08,0.01,0.17-0.19c0.02-0.05-0.01-0.11-0.02-0.17
			c-0.05-0.47-0.38-1.05-0.86-1.31c-0.52-0.21-1.12-0.21-1.75-0.1c-0.77,0.14-1.56,0.46-2.17,0.66c-2.2,0.74-4.09,1.42-5.7,2.1
			c-2.39,1-4.18,1.95-5.52,2.75c-2.51,1.51-3.5,2.62-3.89,3.23c-0.47,0.72-0.31,1.21-0.3,1.22c0.45,1.02,1.89,1.4,3.71,1.14
			c1.46-0.21,3.18-0.71,4.63-1.23c1.35-0.49,2.45-0.99,2.93-1.16C150.31,109.78,150.78,109.63,151.23,109.51z M158.27,102.73
			c0.03,0.01,0.06,0.02,0.08,0.04C158.32,102.75,158.29,102.74,158.27,102.73z"/>
	</g>
</g>
</svg>
