<?xml version="1.0" encoding="utf-8"?>
<!-- Generator: Adobe Illustrator 24.2.0, SVG Export Plug-In . SVG Version: 6.00 Build 0)  -->
<svg version="1.1" id="图层_1" xmlns="http://www.w3.org/2000/svg" xmlns:xlink="http://www.w3.org/1999/xlink" x="0px" y="0px"
	 viewBox="0 0 85.04 85.04" style="enable-background:new 0 0 85.04 85.04;" xml:space="preserve">
<style type="text/css">
	.st0{fill-rule:evenodd;clip-rule:evenodd;fill:#040000;}
</style>
<g>
	<g transform="matrix(0.4441,0,0,0.39775,-345.369,-236.477)">
		<g id="Gray-Short.svg" transform="matrix(0.681216,0,0,0.681216,1361.69,1133.76)">
			<g transform="matrix(1,0,0,1,-236.5,-283.5)">
				<g id="head-mono-Gray-Short">
					<path id="_xD83D__xDD8D_-Ink" class="st0" d="M-473.8-374.65c-6.28,0.72-13.74-0.94-17.93-6.63c-0.13-0.17-0.18-0.36-0.18-0.55
						c0-0.21,0.06-0.41,0.17-0.56c0.11-0.16,0.27-0.28,0.46-0.32c0.16-0.03,0.33-0.01,0.52,0.1l0.38,0.24
						c2.86,1.76,5.83,3.27,9.07,3.91c3.34,0.66,6.73,0.59,10.04-0.25c6.02-1.53,10.9-5.44,14.48-10.59c4-5.75,6.41-13.05,7.02-20.35
						c0.74-8.85-0.98-17.64-2.76-26.21c-1.87-9-3.92-17.96-6.3-26.81c-0.07-0.27-0.09-0.52-0.07-0.75c-0.7-0.31-1.45-0.22-2.19,0.06
						c-1.36,0.51-2.71,1.67-3.84,2.62c-0.41,0.34-0.79,0.67-1.13,0.93c-1.4,1.07-2.93,1.84-4.64,1.96
						c-1.78,0.13-3.52-0.49-5.14-1.26c-0.82-0.39-1.63-0.8-2.43-1.2c-2.29-1.15-4.55-2.3-7.02-3.04c-3.31-1-6.73-1.49-10.16-1.45
						c-6.12,0.06-12.26,1.82-16.01,7.6c-1.52,2.34-2.51,5.03-1.74,7.92c0.42,1.57,1.21,3,2.08,4.31l0.3,0.45
						c0.47,0.72,0.89,1.44,1.01,2.2c0.1,0.64,0.02,1.32-0.39,2.06c-0.26,0.47-0.59,0.89-0.92,1.3c-0.24,0.3-0.48,0.6-0.68,0.93
						c-0.41,0.65-0.78,1.36-1.07,2.09c-0.56,1.44-0.8,2.98-0.85,4.54c-0.06,1.88,0.18,3.72,0.41,5.56c0.17,1.3,0.33,2.61,0.4,3.93
						c0.01,0.23-0.05,0.4-0.14,0.53c-0.11,0.16-0.27,0.25-0.45,0.28c-0.05,0.01-0.11,0.01-0.17,0c0.03,0.13,0.05,0.25,0.07,0.38
						c-0.11-0.16-0.23-0.32-0.36-0.47c-0.01,0-0.02-0.01-0.02-0.01c-0.13-0.08-0.24-0.2-0.31-0.36c-0.18-0.19-0.37-0.37-0.57-0.53
						c-1.04-0.87-2.26-1.39-3.49-1.4c-1.18-0.02-2.36,0.43-3.27,1.38c-1.81,1.88-2.34,4.95-2.36,7.59c-0.02,2.69,0.54,5.93,2.64,7.6
						c0.84,0.67,1.87,1.07,2.91,1.09c0.86,0.01,1.68-0.33,2.49-0.65c0.25-0.1,0.5-0.2,0.75-0.29c0.28-0.1,0.54-0.1,0.76-0.02
						c0.25,0.08,0.47,0.26,0.63,0.49c0.16,0.23,0.26,0.52,0.3,0.83c0.03,0.29,0,0.6-0.12,0.87c-0.03,0.07-0.06,0.14-0.09,0.2
						l0.46,0.85c1.77,3.24,3.57,6.43,5.94,9.21c1.36,1.6,2.79,3.11,4.37,4.43l0.23,0.19c0.14,0.11,0.29,0.25,0.45,0.4
						c0.46,0.42,1.01,0.98,1.53,1.01c0.15,0.01,0.29-0.01,0.41-0.03c0.29-0.04,0.54-0.06,0.78,0.05c0.19,0.09,0.4,0.25,0.6,0.6
						c0.14,0.23,0.21,0.52,0.21,0.81c0,0.3-0.07,0.59-0.2,0.82c-0.27,0.48-0.59,0.78-0.94,0.95c-0.39,0.19-0.83,0.22-1.28,0.12
						c-1.11-0.23-2.34-1.26-3.12-1.93l-0.15-0.13c-1.73-1.47-3.37-3.11-4.82-4.93c-2.46-3.11-4.66-6.77-5.8-10.77
						c-0.8,0.59-1.79,0.86-2.82,0.91c-1.5,0.06-3.1-0.37-4.27-0.99c-2.58-1.37-4.15-3.96-4.89-6.93c-0.85-3.46-0.58-7.43,0.5-10.54
						c0.03-0.09,0.06-0.18,0.1-0.27c-3.33-9.42-4.35-19.88-4.07-29.93c0.13-4.7,0.42-9.64,1.41-14.23c0.45-2.06,1.22-4.02,2.46-5.63
						c0.7-0.92,1.57-1.64,2.44-2.36c0.75-0.62,1.51-1.24,2.14-2.02l0.3-0.37c0.07-0.08,0.13-0.16,0.2-0.24
						c1.1-1.35,2.17-2.66,3.5-3.77c1.54-1.28,3.25-2.29,5.02-3.12c3.82-1.8,7.92-2.88,11.98-3.71c8.79-1.8,17.81-1.89,26.49,0.64
						c4.04,1.18,7.95,2.79,11.86,4.4c0.36,0.15,0.73,0.3,1.09,0.45c3.04,1.25,6.08,2.49,9.12,3.74c1.41,0.58,2.83,1.16,4.24,1.73
						c0.31,0.13,0.61,0.4,0.78,0.73c0.17,0.33,0.22,0.71,0.08,1.09c-0.87,2.45-1.96,4.75-3.29,6.9c0.46,0.35,0.86,0.82,1.15,1.37
						c0.38,0.69,0.6,1.51,0.62,2.38c0.05,2.91-2.32,4.88-4.29,6.31c-0.18,0.13-0.36,0.21-0.54,0.25c1.91,8.14,3.73,16.31,5.28,24.54
						l0.11,0.57c1.6,8.61,2.63,17.41,1.12,26.14c-1.3,7.52-4.32,14.77-9.05,20.37C-460.87-378.87-467.08-375.42-473.8-374.65z
						 M-515.15-424.21c-0.82-2.91-1.26-6.08-0.94-9.04c0.2-1.86,0.7-3.64,1.51-5.28c0.47-0.94,1.03-1.8,1.65-2.62l0.21-0.27
						c0.11-0.14,0.22-0.27,0.25-0.43c0.02-0.09,0-0.2-0.05-0.32c-0.11-0.27-0.32-0.53-0.52-0.79c-0.13-0.16-0.25-0.32-0.35-0.48
						c-1.8-2.72-3.15-5.97-2.71-9.42c0.43-3.37,2.4-6.51,4.51-8.88c4.64-5.21,11.83-6.41,18.12-6.12c3.67,0.17,7.33,0.89,10.82,2.15
						c1.72,0.62,3.4,1.38,5.04,2.25l0.36,0.19c0.2,0.11,0.39,0.21,0.59,0.32c1.28,0.7,2.56,1.41,3.95,1.79
						c2.71,0.74,4.55-0.82,6.48-2.4c0.66-0.54,1.33-1.09,2.05-1.57l0.15-0.1c1.29-0.83,2.83-1.4,4.31-1.37
						c1.29,0.02,2.53,0.48,3.54,1.56c0.21,0.22,0.33,0.47,0.38,0.71c0.11,0.18,0.2,0.38,0.26,0.63c0.36,1.52,0.72,3.04,1.08,4.55
						l0.29-0.21c0.87-0.63,1.82-1.35,2.24-2.41c0.16-0.41,0.14-1.08-0.07-1.58c-0.07-0.17-0.17-0.33-0.3-0.43
						c-0.1-0.07-0.21-0.1-0.35-0.09c-0.33,0.05-0.63-0.01-0.88-0.13c-0.29-0.14-0.53-0.37-0.68-0.64c-0.16-0.28-0.23-0.61-0.19-0.96
						c0.03-0.3,0.15-0.6,0.37-0.9c1.48-1.91,2.73-4.02,3.69-6.31l-6.29-2.6c-2.24-0.93-4.48-1.85-6.72-2.77l-1.23-0.5
						c-4.08-1.67-8.18-3.3-12.42-4.38c-8.43-2.14-17.21-1.63-25.62,0.38l-0.51,0.12c-3.53,0.86-7.1,1.9-10.34,3.7
						c-1.59,0.89-3.1,1.96-4.4,3.33c-0.57,0.6-1.09,1.26-1.61,1.92c-0.73,0.92-1.45,1.84-2.32,2.62l-0.8,0.72
						c-1.19,1.07-2.27,2.12-2.94,3.78c-0.7,1.74-1.04,3.66-1.31,5.53c-0.69,4.71-0.96,9.5-0.94,14.28
						c0.04,8.02,1.13,15.87,2.51,23.7c1.11-1.77,2.66-3.14,4.65-3.43c1.3-0.19,2.59,0.08,3.71,0.72
						C-516.24-425.3-515.65-424.81-515.15-424.21z M-517.24-414.69c-1.46-0.63-2.98-0.84-4.52-0.53c-0.16,0.03-0.32-0.01-0.44-0.09
						c-0.13-0.09-0.23-0.22-0.29-0.37c-0.06-0.17-0.07-0.36-0.01-0.52c0.05-0.14,0.14-0.28,0.32-0.38c1.67-0.89,3.52-1.28,5.36-1
						l0.18,0.03c0.94,0.16,2.26,0.48,3.26,1.13c0.78,0.51,1.35,1.21,1.49,2.12c0.07,0.48-0.03,0.97-0.28,1.33
						c-0.24,0.35-0.6,0.58-1.07,0.57c-0.83-0.03-1.32-0.42-1.91-0.92c-0.07-0.06-0.15-0.12-0.22-0.19
						C-515.95-413.99-516.57-414.4-517.24-414.69z"/>
				</g>
			</g>
		</g>
		<g id="Eyes-Closed.svg" transform="matrix(0.734096,0,0,0.734096,1398.38,1156.31)">
			<g transform="matrix(1,0,0,1,-144.5,-146.5)">
				<g id="face-Eyes-Closed">
					<path id="_xD83D__xDD8D_-Ink1" class="st0" d="M-558.39-520.41l0.15-0.04c1.2-0.32,2.36-0.75,3.48,0.08
						c1.07,0.79,1.22,2.26,0.38,3.33c-0.86,1.1-1.99,1.04-3.19,1.05l-0.07,0c-1,0.02-2.01,0-3-0.1c-0.92-0.09-1.86-0.24-2.77-0.43
						l-0.54-0.12c-0.55-0.12-1.1-0.29-1.38-0.88c-0.5-1.04,3.19-1.86,3.64-2C-560.6-519.86-559.5-520.13-558.39-520.41z
						 M-556.35-532.96c-0.59,0.68-1.36,1.15-2.24,1.44c-2.19,0.73-4.99,0.34-6.78-0.4c-0.37-0.15-0.72-0.47-0.92-0.86
						c-0.18-0.36-0.24-0.78-0.11-1.21c0.04-0.12,0.09-0.24,0.14-0.36c0.13-0.32,0.4-0.57,0.71-0.71c0.33-0.15,0.7-0.18,1-0.07
						c0.04,0.01,0.08,0.03,0.12,0.04c1.13,0.4,2.99,1.06,4.54,0.93c0.92-0.08,1.74-0.44,2.16-1.39c0.22-0.5,0.16-0.99-0.04-1.44
						c-0.3-0.68-0.89-1.27-1.39-1.68c-0.71-0.58-1.46-0.8-2.24-1.05c-0.29-0.09-0.59-0.18-0.89-0.29c-0.1-0.04-0.19-0.11-0.25-0.2
						c-0.06-0.09-0.11-0.2-0.12-0.32c-0.01-0.12,0-0.23,0.05-0.33c0.04-0.09,0.12-0.17,0.22-0.23c1.52-0.76,3.49-0.26,4.98,0.94
						c0.74,0.6,1.36,1.37,1.74,2.23c0.35,0.8,0.5,1.67,0.37,2.56C-555.44-534.36-555.82-533.57-556.35-532.96z M-581.29-549.95
						c0.43-0.21,0.78,0.77,0.87,1.04l0.18,0.56c0.3,0.9,0.64,1.81,1.26,2.48c0.52,0.56,1.36,1.03,1.97,0.38
						c0.58-0.62,0.29-1.32,0.38-2.08c0.15-1.38,1.83-2.75,2.84-1.31c2.28,3.24-1.25,7.75-4.5,6.96c-1.65-0.4-2.98-1.88-3.53-3.64
						l-0.03-0.09C-582.18-546.77-582.51-549.35-581.29-549.95z M-551.86-547.69l-0.02-0.04c-1.09-2.76,2.79-3.94,3.12-1.47
						l0.02,0.17c0.32,2.75-0.35,6.45-3.37,6.72c-3.39,0.31-4.8-3.91-4.49-7.01c0.05-0.55,0.66-0.63,0.84-0.13l0.04,0.11
						c0.55,1.56,1.07,4.55,2.99,4.54C-551.44-544.79-551.5-546.73-551.86-547.69z M-549.4-555.68c1.95-0.08,1.94,3.32,0,3.38
						c-6.49,0.17-12.99,0.4-19.49,0.44l-1.18,0.01c-6.1,0.05-12.22,0.14-18.31-0.43c-0.52-0.05-0.42-0.86,0.01-0.83
						c6.38-1.01,12.83-1.31,19.26-1.69C-562.55-555.21-555.97-555.42-549.4-555.68z"/>
				</g>
			</g>
		</g>
	</g>
</g>
</svg>
