<?xml version="1.0" encoding="utf-8"?>
<!-- Generator: Adobe Illustrator 24.2.0, SVG Export Plug-In . SVG Version: 6.00 Build 0)  -->
<svg version="1.1" id="图层_1" xmlns="http://www.w3.org/2000/svg" xmlns:xlink="http://www.w3.org/1999/xlink" x="0px" y="0px"
	 viewBox="0 0 85.04 85.04" style="enable-background:new 0 0 85.04 85.04;" xml:space="preserve">
<style type="text/css">
	.st0{fill-rule:evenodd;clip-rule:evenodd;}
</style>
<g>
	<g id="Pointing-Up.svg" transform="matrix(0.345604,0,0,0.309534,735.432,915.774)">
		<g transform="matrix(1,0,0,1,-409,-366.5)">
			<g transform="matrix(0.784594,0,0,0.784594,6.67757,150.264)">
				<g id="body-mono-Pointing-Up">
					<path id="_xD83D__xDD8D_-Ink5" class="st0" d="M-1984.54-3367.83c1.14-1.25,2.96-0.94,4.07,0.17c1.13,1.13,1.81,2.91,2.4,4.44
						c2.61,6.89,2,14.44,3.32,21.65c2.42,1.46,4.6,3.36,6.14,5.92c2.35,3.89,3.46,8.41,2.28,13.02c-0.61,2.38-1.64,4.59-2.38,6.93
						c-0.79,2.48-1.27,5.06-1.5,7.69c-0.23,2.57-0.26,5.16-0.19,7.75c0.03,1.34,0.1,2.67,0.16,4.01c0.06,1.2,0.25,2.45-0.01,3.62
						l-0.03,0.14c0.1-0.02,0.2-0.04,0.3-0.06c0.84-0.21,1.58-0.54,2.46-0.41c0.68,0.1,1.04,0.74,0.75,1.46
						c-0.13,0.31-0.29,0.58-0.5,0.8c1.77,14.57,4.85,28.91,6.88,43.44c0.92,6.59,1.48,13.2,1.16,19.87l-0.03,0.66
						c-0.32,6.13-1.11,12.88-3.9,18.24c-1.3,2.51-3.09,4.73-5.26,6.34c-0.99,0.73-2.06,1.31-3.22,1.6c-6,2.67-12.34,2.01-17.99-1.51
						c-2.54-1.58-5.08-3.43-7.16-5.72c-1.01-1.11-1.98-2.53-2.58-4.08c0,0.35-0.05,0.7,0.01,1.05l0.13,0.68
						c0.94,5.04,4.53,23.65,4.58,25.21c0.03,0.84-6.33,0.82-7.02,0.85l-0.02,0c-10.29,0.48-20.59,0.22-30.88-0.25l-0.81-0.04
						c-9.98-0.47-20.83-1.11-30.82-1.43l0.02-0.19c0.12-1,0.7-5.46,0.77-5.8l0-0.01c0.28-1.27,0.83-5.23,0.54-6.55
						c-0.74-3.39-4.08-2.61-6.42-2.25l-0.49,0.07c-0.38,0.06-1.3,0.21-1.3,0.22c-0.25-0.29,0.34-1.11,0.49-1.33l0.12-0.18
						c0.63-0.99,1.2-2.01,1.14-3.28c-0.15-3.1-4.12-2.93-6.07-2.71c-0.14,0.02-0.19,0.25-0.04,0.29l0.38,0.09
						c1.24,0.3,3.99,1.05,3.92,2.2c-0.04,0.65-0.65,1.13-1.03,1.54c-0.42,0.45-0.83,0.94-1.14,1.49c-0.59,1.07-0.73,2.5-0.14,3.61
						c0.68,1.28,1.88,1.43,3.08,1.31l0.07-0.01c0.26-0.03,0.53-0.06,0.79-0.08l1.59-0.17c0.39-0.04,1.66-0.41,2.02-0.16
						c0.52,0.36-0.11,1.96-0.22,2.49l-0.01,0.04c-0.1,0.76-0.16,8.76-0.17,9.29c-7.78-0.2-15.57-2.13-23.35-1.68
						c-6.18,0.36-12.35,0.98-18.52,1.53l-0.16-1.48c-1.71-16.11-4.39-37.36-3.1-53.29c0.1-1.25-1.64-1.24-1.74,0
						c-1.33,16.47,1.58,38.6,3.28,54.92c-2.63,0.22-5.25,0.43-7.89,0.58l-0.67,0.04c-8.95,0.5-18.19,0.53-26.96-1.76
						c-0.27-0.07-0.36-0.37-0.3-0.62c-0.09,0.06-0.22,0.02-0.25-0.11c-1.02-3.76-1.54-13.32-2-17.46l-0.03-0.27
						c-0.48-4.02-0.75-8.09-0.94-12.13c-0.4-8.09-0.35-16.2,0.19-24.28c1.71-25.78,8.5-51.83,22.76-72.56
						c3.45-5.01,7.37-9.59,12.08-13.14c4.62-3.48,9.8-5.93,15.06-7.92c3.48-1.32,7.01-2.44,10.53-3.57c0.13-0.07,0.27-0.15,0.4-0.22
						l0.2-0.11c1.26-0.66,2.49-1.39,3.78-1.98l0.28-0.13c1.86-0.83,4.03-1.57,6.05-1.55c3.27-1.84,6.01-4.61,5.74-9.06
						c-0.11-1.83,2.46-1.83,2.55,0c0.24,4.86-2.44,8.31-5.86,10.62l0.02,0.02l0.02,0.02c0.53,0.68,1.1,1.3,1.72,1.89
						c3.69,3.51,8.36,6.42,13.03,8.34c5.48,2.25,10.95,2.92,16.61,1.1c2.96-0.95,5.76-2.42,8.33-4.32c0.78-0.58,1.54-1.2,2.26-1.86
						c-0.68-1.04-1.23-2.16-1.68-3.35c-0.92-2.39-1.68-5.64-0.74-8.16c0.23-0.62,1.15-1.01,1.47-0.21c0.88,2.17,1.25,4.52,2.28,6.64
						c0.39,0.81,0.84,1.57,1.35,2.3c0,0.04,3.86,0.78,3.86,0.78c4.67,0,9.06,2,13.19,4.5c2.44,1.48,4.84,3.05,7.23,4.63l4.67,3.08
						c0.34,0.23,0.73,0.45,1.12,0.68c-0.45-2.49-0.67-5.02-0.52-7.53c0.22-3.79,1.54-7.94,5.04-9.29c1.65-0.64,3.57-0.44,5.17,0.27
						c0.74,0.33,1.55,0.76,2.24,1.35c0.33-1.67,1.74-2.93,3.15-3.48c0.46-0.18,0.93-0.29,1.4-0.35c-0.01-0.27-0.02-0.54-0.01-0.82
						l0-0.21c0.02-1.24,0.01-2.48-0.01-3.72c-0.04-2.35-0.14-4.65-0.36-6.99c-0.18-1.94-0.49-3.85-0.72-5.78l-0.1-0.83
						C-1985.37-3364.53-1985.7-3366.57-1984.54-3367.83z M-2124.94-3209.42l-0.39-0.26c-1.28-0.84-2.59-1.62-4.14-1.23
						c-1.47,0.37-2.52,1.71-3.07,3.21c-0.26,0.71-0.39,1.43-0.49,2.18c-0.06,0.42-0.09,0.85-0.16,1.27l-0.02,0.13
						c-0.03,0.17-0.08,0.4-0.12,0.61c-0.4-0.2-0.81-0.51-1.14-0.7l-0.27-0.15c-0.62-0.35-1.27-0.68-1.95-0.84
						c-1.47-0.35-3.1,0.15-3.94,1.62c-0.72,1.26-0.7,2.74-0.43,4.15l0.02,0.1c0.12,0.58,0.74,2.92,1.63,2.58
						c0.87-0.33,0.99-1.63,1.05-2.49l0-0.08c0.03-0.65-0.09-2.01,0.57-2.26c0.82-0.31,2.41,1.1,3.12,1.47
						c1.28,0.66,2.69,0.85,3.73-0.43c0.94-1.15,1.01-2.83,1.26-4.28l0.06-0.37c0.13-0.74,0.38-1.92,1.11-1.89
						c0.6,0.02,1.26,0.72,1.75,1.05c0.54,0.36,1.11,0.67,1.7,0.92c1.38,0.6,2.91,0.79,4.38,0.62c0.85-0.1,1.4-0.56,1.7-1.45
						c0.1-0.26,0.18-0.53,0.23-0.81c0.48-2-2.13-3.42-3.09-1.64C-2122.89-3208.41-2123.93-3208.74-2124.94-3209.42z
						 M-1964.77-3222.78c-0.79-0.63-1.87-0.5-2.58,0.22l-0.04,0.04c-0.2,0.21-0.64,0.76-0.93,1.25l-0.09-0.08
						c-0.01-0.01-0.03-0.03-0.04-0.04l-0.04-0.04c-0.59-0.55-1.2-1.06-1.95-1.29c-1.97-0.59-3.75,0.88-4.61,2.76
						c-0.41,0.89-0.58,1.82-0.78,2.78l-0.02,0.09c-0.08,0.45-0.19,1.36-0.54,1.58c-0.13,0.08-0.42-0.08-0.71-0.27
						c-0.66-0.43-1.26-0.97-1.91-1.42c-1.53-1.06-3.26-1.49-4.98-0.73c-1.7,0.75-2.91,2.53-2.94,4.61c-0.02,1.53,0.9,4.2,2.62,4.01
						c0.35-0.04,0.79-0.28,0.85-0.72c0.15-1.18-0.69-2.63,0.27-3.61c0.92-0.94,1.88-0.15,2.72,0.5l0.6,0.47
						c0.97,0.76,1.98,1.45,3.21,1.53c1.56,0.1,3-0.86,3.79-2.34c0.71-1.34,0.72-2.86,1.28-4.23c0.12-0.3,0.43-0.58,0.33-0.72
						c0.42,0.24,0.96,0.95,1.23,1.15c1.31,0.98,3.05,0.98,4.19-0.33c0.46-0.52,0.75-1.16,1.08-1.77c0.12-0.22,0.27-0.43,0.39-0.65
						c0.04-0.08,0.11-0.39,0.16-0.67l0.08-0.44l0.01-0.07C-1964.06-3221.85-1964.27-3222.38-1964.77-3222.78z M-2015.04-3228.58
						c-1.5-0.88-3.35-0.54-4.7,0.52c-1.51,1.19-2.26,3.03-2.76,4.97c-0.37,1.41-0.54,3.36-1.6,4.38c-1.23,1.19-3.29-0.07-4.59-0.54
						c-1.57-0.57-3.46-0.8-4.99,0.04c-1.5,0.82-2.23,2.5-2.38,4.3c-0.14,1.68,0.07,3.89,0.93,5.29c0.08,0.14,0.25,0.1,0.3-0.04
						c0.56-1.55,0.45-3.32,0.91-4.92c0.49-1.71,1.63-2.07,3.09-1.61c1.52,0.48,2.9,1.38,4.46,1.7c1.66,0.34,3.31-0.01,4.62-1.24
						c1.1-1.03,1.77-2.53,2.22-4.03c0.44-1.46,0.51-3.41,1.45-4.62c0.24-0.31,0.65-0.68,1.03-0.71c0.57-0.06,0.77,0.41,1.23,0.77
						c1.21,0.95,3.14,0.97,3.88-0.7c0.24-0.55,0.36-1.33,0-1.87c-0.64-0.94-1.16-0.93-2-0.73c-0.03-0.03-0.06-0.06-0.09-0.1
						l-0.03-0.03C-2014.29-3228.09-2014.72-3228.4-2015.04-3228.58z M-2074.42-3238.48c-0.05-1.26-1.41-2.47-2.48-1.59
						c-0.17,0.14-0.34,0.28-0.51,0.43l-0.07,0.08c-0.2,0-0.39-0.06-0.58-0.13l-0.34-0.12c-0.9-0.32-1.77-0.58-2.74-0.34
						c-1.66,0.41-2.72,2.01-3.26,3.71c-0.5,1.58-0.34,3.2-0.58,4.82c-0.22,1.54-0.93,2.14-2.26,1.81l-0.07-0.02
						c-2.65-0.71-5.66-2.69-7.98,0.03c-2.51,2.93-0.87,7.58,1.88,9.46c0.12,0.08,0.25-0.05,0.23-0.19c-0.36-1.89-1.43-3.7-1.07-5.71
						c0.25-1.39,1.11-2.05,2.35-1.83c2.6,0.47,5.03,2.78,7.7,1.1c1.33-0.84,2.07-2.42,2.4-4.03c0.3-1.45,0.21-3.09,0.79-4.46
						c0.63-1.5,1.68-0.41,2.82-0.21C-2076.6-3235.37-2074.34-3236.31-2074.42-3238.48z M-1987.19-3283.3c0.01-1.25-1.74-1.25-1.74,0
						c-0.06,15.87-6.71,30.53-7.91,46.24c-0.09,1.25,1.65,1.24,1.74,0C-1993.9-3252.77-1987.25-3267.41-1987.19-3283.3z
						 M-2131.12-3257.33c-0.92-1.16-2.26-0.8-3.35-0.22c-1.64,0.87-3.21,1.85-4.71,2.99c-0.37,0.28-0.14,0.89,0.3,0.79
						c1.1-0.24,2.18-0.5,3.25-0.89c0.8-0.29,1.64-0.71,2.48-0.86c-0.05,0.22-0.12,0.43-0.19,0.63c-0.14,0.43-0.3,0.84-0.43,1.27
						c-0.27,0.85-0.51,1.71-0.75,2.57l-0.12,0.43c-0.49,1.81-0.97,4.44,1.3,5c0.84,0.21,1.67-0.2,2.45-0.52l0.16-0.06l2.85-1.13
						c0.34-0.13,0.97-0.23,1.25-0.46l-0.05,0.24c-0.06,0.32-0.12,0.64-0.24,0.95l-0.07,0.18c-0.71,1.79-1.6,3.58-0.77,5.56
						c0.71,1.7,2.38,2.5,3.99,2.02c1.53-0.46,2.64-2.38,1.85-4.06c-0.3-0.62-1.16-0.93-1.71-0.54l-0.15,0.11
						c-0.17,0.13-0.47,0.34-0.48,0.38c-0.04,0.01-0.08,0.02-0.13,0.04c0.09-0.3,0.15-0.77,0.24-0.98l0.3-0.76
						c0.55-1.42,1.04-2.87,0.61-4.46c-1.21-4.56-5.32-1.97-8.35-0.67c0.04-0.19,0.09-0.38,0.12-0.57c0.13-0.66,0.27-1.32,0.42-1.98
						l0.29-1.36C-2130.51-3254.91-2130.31-3256.3-2131.12-3257.33z M-1975.99-3262.42c0-0.11-0.12-0.19-0.2-0.13
						c-1.94,1.45-3.24,4.49-2.51,7.08c0.35,1.26,1.11,2.36,2.16,2.97c1.31,0.76,2.76,0.47,4.14,0.15l0.59-0.14
						c0.41-0.1,0.82-0.17,1.24-0.04c0.14,0.04,0.31,0.18,0.45,0.22c-0.06,0.11-0.12,0.29-0.15,0.36l-0.1,0.22
						c-0.1,0.23-0.2,0.46-0.26,0.7c-0.21,0.8-0.16,1.66,0.18,2.41c0.62,1.39,1.93,2.18,3.28,2.31c0.81,0.08,2.85-0.71,3.33,0.25
						c0.96,1.9,3.68,0.62,3.15-1.48c-0.36-1.42-1.37-2.34-2.63-2.73c-0.67-0.21-1.36-0.18-2.05-0.09c-0.27,0.03-0.53,0.08-0.8,0.11
						l-0.2,0.02c0.05,0-0.55-0.02-0.8-0.04l0.05-0.16c0.01-0.02,0.01-0.04,0.02-0.06c0.27-0.65,0.47-1.29,0.46-2.02
						c-0.03-1.3-0.79-2.44-1.78-3.07c-0.92-0.58-2.01-0.81-3.05-0.68c-1.14,0.14-2.77,1.15-3.9,0.62c-0.85-0.4-1.14-1.8-1.15-2.72
						C-1976.52-3259.73-1976.02-3261.04-1975.99-3262.42z M-2054.95-3271.49c-3.12-1.56-5.8,1.11-7.63,3.66
						c-0.09,0.13,0.02,0.35,0.17,0.25l0.24-0.17c1.49-1.05,3.15-2.28,5-1.93c1.68,0.32,2.09,1.55,1.76,3.22l-0.1,0.47
						c-0.35,1.72-0.63,3.5,0.26,5.1c0.83,1.51,2.46,2.17,3.98,2.21c1.76,0.05,3.27-0.87,4.88-1.5l0.13-0.05
						c0.68-0.26,3.17-0.95,3.21,0.62c0.02,0.72-0.67,1.56-0.93,2.2c-0.35,0.84-0.58,1.73-0.57,2.66c0.01,2.33,1.75,4.22,3.81,3.09
						c0.8-0.44,1.01-1.7,0.59-2.51c-0.59-1.14-0.83-1.08-0.41-2.28l0.12-0.34c0.51-1.45,0.91-2.93,0.34-4.45
						c-1.14-3.03-4.55-3.4-6.99-2.39l-0.09,0.04c-1.52,0.66-6.07,3.29-5.75-0.43c0.12-1.47,0.52-2.87,0.24-4.35
						C-2052.94-3269.77-2053.8-3270.92-2054.95-3271.49z M-2069.97-3283.94c-0.57-1.12-2.48-0.72-2.32,0.7l0.05,0.44
						c0.06,0.61,0.08,1.17-0.3,1.71c-0.45,0.65-1.23,0.85-1.94,0.75c-1.5-0.21-2.45-1.76-4.09-1.4c-1.34,0.29-2.26,1.51-2.79,2.84
						c-0.57,1.41-0.55,2.94-0.97,4.39c-0.48,1.67-1.52,1.59-2.81,1.01l-0.28-0.13c-1.24-0.57-2.48-1.21-3.85-0.94
						c-2.29,0.46-4.26,4.38-2.11,6.28c0.39,0.34,1.06,0.16,1.05-0.48l0-0.12c-0.01-1.18,0.26-2.7,1.46-2.97
						c1.28-0.29,2.73,1.01,3.92,1.39c3.08,0.97,4.84-1.62,5.36-4.68l0.02-0.12c0.17-1.07,0.3-3.06,1.3-3.56
						c0.54-0.27,1.11,0.39,1.56,0.66c0.7,0.41,1.44,0.67,2.23,0.74C-2071.58-3277.18-2068.28-3280.6-2069.97-3283.94z
						 M-1997.12-3288.17c-0.96-0.46-2.39-0.21-2.62,1.19l-0.14,0.88c-0.28,1.7-0.72,3.82-2.22,4.44c-0.94,0.38-2.01-0.29-2.85-0.7
						c-1.01-0.49-1.99-0.91-3.09-1.03c-2.24-0.24-3.91,1.21-4.7,3.47l-0.07,0.2c-0.64,1.9-1.5,5.53-0.1,7.07
						c0.2,0.22,0.62,0.33,0.87,0.12c0.83-0.69,1.04-1.83,1.32-2.9l0.02-0.09c0.3-1.11,0.55-2.33,1.09-3.33
						c1.01-1.86,3.65,0.26,4.92,0.75c2.08,0.8,4.24,0.33,5.83-1.38c1.01-1.09,1.6-2.46,2.01-3.91c0.26,0.15,0.53,0.28,0.82,0.37
						c1.11,0.34,2.43,0.16,3.28-0.78c1.59-1.76,0.73-4.93-1.69-4.42c-0.48,0.1-0.79,0.61-0.85,1.13l-0.03,0.08
						C-1995.94-3287.22-1996.61-3287.92-1997.12-3288.17z M-2109.31-3303.93c-2.26-2.6-6.19-1.19-7.73,1.57
						c-0.32,0.57,0.21,1.3,0.77,1.12c1.35-0.41,3.25-2.05,4.67-1.01c1.05,0.77,0.48,2.78,0.38,3.91l-0.01,0.17
						c-0.12,1.53-0.15,3.63,0.92,4.77c0.61,0.66,1.56,0.57,2.37,0.48l0.26-0.03c0.96-0.11,1.91-0.3,2.82-0.62
						c0.84-0.3,1.64-0.71,2.43-1.15l0.2-0.11c0.35-0.19,1.52-0.96,1.87-0.48c0.18,0.25-0.27,1.36-0.36,1.6
						c-0.35,0.93-0.81,1.8-1.13,2.74c-0.57,1.66-0.62,3.53,0.18,5.12c0.78,1.54,2.47,2.78,3.97,1.6c0.86-0.68,0.86-1.9,0-2.58
						c-0.45-0.36-0.91-0.59-1.1-1.19c-0.24-0.78,0.07-1.61,0.37-2.34l0.36-0.86c0.81-1.92,1.61-4.14,0.49-6.1
						c-1.16-2.03-3.53-2.06-5.31-1.22c-1.02,0.48-1.95,1.13-3.02,1.5c-0.74,0.26-1.47,0.43-2.23,0.53
						c-0.17-1.01,0.07-2.15,0.07-3.15C-2108.07-3301.19-2108.32-3302.79-2109.31-3303.93z M-1992.66-3340.07
						c-3.82-0.63-5.66,3.19-5.93,6.86c-0.24,3.33,0.25,6.68,1,9.92c0.28,1.2,0.6,2.39,0.93,3.56c0.54,1.88,1.12,3.75,1.83,5.55
						c0.22,0.55,0.43,1.09,0.68,1.62c0.84,0.77,1.55,1.8,2.2,2.79l0.43,0.65l0.11,0.18c1.1,1.69,2.05,3.44,2.82,5.34
						c0.73,1.81,1.28,3.71,1.71,5.64l0.1,0.48c0.33,1.49,0.81,3.26,0.23,4.64c1.14,0.39,2.28,0.75,3.5,0.94
						c1.68,0.26,3.42,0.28,5.12,0.21c1.64-0.07,3.27-0.21,4.9-0.4l1.17-0.14c0.12-0.02,0.24-0.03,0.36-0.05
						c-0.05-0.06-0.09-0.13-0.11-0.21c-0.42-1.12-0.36-2.42-0.41-3.62l-0.01-0.13c-0.06-1.34-0.1-2.67-0.11-4.01
						c-0.03-2.51,0.03-5.03,0.28-7.53c0.21-2.19,0.55-4.37,1.07-6.5c0.53-2.15,1.33-4.17,2.07-6.24c0.73-2.04,1.34-4.14,1.27-6.37
						c-0.04-1.42-0.32-2.79-0.79-4.09c-0.02,0.02-0.05,0.03-0.08,0.03c-1.48-0.06-2.89-0.54-4.32-0.94
						c-1.52-0.43-3.08-0.78-4.63-0.99l-0.33-0.04c-1.3-0.16-2.71-0.24-3.91,0.38c-1.3,0.67-2.11,2.17-2.61,3.61l-0.05,0.17
						c-0.88,2.73-0.67,6.36,2.03,7.65c0.84,0.4,2.75,0.65,3.19-0.62c0.19-0.58-0.2-1.44-0.36-1.98c-0.18-0.65-0.29-1.29-0.28-1.98
						c0.01-0.6,0.42-1.05,0.94-1.1l0.05,0c0.95-0.05,2.9-1.26,3.09,0.49c0.04,0.34-0.2,0.7-0.44,0.86c-0.5,0.33-1.02,0.55-1.56,0.68
						c0.07,0.36,0.18,0.72,0.28,1.08c0.06-0.03,0.13-0.06,0.2-0.06c0.8-0.07,1.59,0.07,2.39,0.08l0.44,0
						c0.62,0.01,1.16,0.04,1.76,0.4c0.56,0.33,0.46,1.16,0,1.52c-1.2,0.93-3.23,0.38-4.48-0.56c0.05,0.48,0.03,0.97-0.15,1.48
						c-0.54,1.52-2.09,2.28-3.47,2.35c-1.23,0.06-2.41-0.37-3.39-1.13c-0.2,0.8-0.52,1.57-0.66,2.4c-0.18,1.09,0.03,2.36-0.3,3.39
						c-0.34,1.03-1.65,1.72-2.41,0.71c-1.11-1.48-0.77-3.82,0.21-5.32c0.52-0.79,1.47-1.7,2.43-1.85c-0.67-0.7-1.2-1.57-1.54-2.53
						c-0.02,0.01-0.05,0.01-0.08,0c-3.13-0.96-4.83-4.12-4.94-7.45c-0.23,0.18-0.47,0.35-0.72,0.5c-0.6,0.36-1.37,0.04-1.55-0.7
						c-0.17-0.7,0.32-1.55,1.02-1.5c0.4,0.04,0.8,0.04,1.19-0.03c0.05-0.01,0.11-0.02,0.16-0.03c0.03-0.26,0.08-0.51,0.14-0.76
						c-1.18,0.15-2.42-0.07-3.56-0.35c-0.98-0.24-0.76-1.99,0.24-1.95l0.16,0.01c1.3,0.07,3.22,0.3,4.34-0.62
						c0.2-0.32,0.41-0.62,0.65-0.9c0.03-0.07,0.06-0.15,0.08-0.22C-1988.55-3338.76-1991.39-3339.86-1992.66-3340.07z
						 M-2026.93-3312.97c-1.49-0.44-3.05,0.16-4.07,1.41c-0.86,1.05-1.3,2.35-1.7,3.67l-0.23,0.76c-0.33,1.08-0.71,1.93-1.89,1.52
						c-1.51-0.53-2.83-1.44-4.47-1.37c-1.5,0.07-2.96,0.78-4,1.99c-1.07,1.23-1.57,2.95-1.35,4.64l0.01,0.1
						c0.12,0.78,1.14,3.56,2.22,2.28c0.48-0.57,0.39-1.2,0.5-1.93c0.11-0.69,0.34-1.37,0.72-1.93c0.68-0.99,1.77-1.38,2.83-1.03
						c1.4,0.46,2.64,1.42,4.16,1.44c1.59,0.02,2.94-0.9,3.82-2.34c0.71-1.17,0.96-2.53,1.46-3.8l0.05-0.12
						c0.42-1.04,0.7-1.42,1.66-0.92l0.34,0.18c1.44,0.76,3.05,1.46,4.54,0.39c1.38-1,1.97-3,0.81-4.46
						c-0.64-0.81-2.12-0.67-2.54,0.36c-0.07,0.18-0.14,0.36-0.21,0.54c-0.13-0.04-0.25-0.1-0.37-0.17
						C-2025.41-3312.16-2026.09-3312.72-2026.93-3312.97z M-2070.32-3324.77c-1.7-1.02-3.11,0.99-2.84,2.8l0.01,0.08
						c0.01,0.05,0.03,0.17,0.06,0.31c-0.09-0.01-0.17-0.03-0.26-0.05l-0.39-0.05c-0.62-0.08-1.22-0.12-1.84,0.1
						c-1.46,0.52-2.18,2.11-2.22,3.74c-0.04,1.62,0.72,2.93,0.94,4.48c0.23,1.58-1.24,1.13-2.2,1.02l-0.04,0
						c-1.33-0.15-2.74-0.15-3.84,0.82c-1.14,1-1.65,2.73-1.49,4.32c0.15,1.43,0.95,3.64,2.4,3.86c0.14,0.02,0.31-0.01,0.38-0.17
						c0.59-1.28-0.23-2.69-0.14-4.03c0.1-1.48,0.95-1.73,2.11-1.63c1.13,0.09,2.26,0.36,3.38-0.02c1.21-0.41,2.09-1.57,2.34-2.94
						c0.27-1.51-0.23-2.92-0.56-4.35c-0.11-0.48-0.16-0.96-0.09-1.44c0.02-0.11,0.1-0.2,0.13-0.24c0.19-0.04,0.46,0.06,0.62,0.08
						l0.23,0.02c1.23,0.12,2.41,0.04,3.29-1.09c0.45-0.58,0.62-1.29,0.57-2.04l-0.02-0.3c-0.02-0.29-0.07-0.67-0.21-0.83l0-0.01
						c0.05-0.07,0.09-0.14,0.13-0.21l0.04-0.07C-2069.44-3323.35-2069.66-3324.38-2070.32-3324.77z M-1983.47-3342.53
						c-1.69,0-3.28,0.62-4.56,2.29c0.46,0.48,0.82,1.05,1.02,1.71c0.63-0.38,1.29-0.68,1.97-0.89c2.07-0.64,4.9-0.64,6.63,0.95
						c0.91,0.83-0.09,2.31-1.07,2.06c-0.88-0.23-1.64-0.65-2.56-0.7c-0.8-0.04-1.58,0.07-2.35,0.33c-1.17,0.39-2.23,1.14-3.02,2.17
						c-0.26,0.35-0.49,0.72-0.68,1.12c-1.46,3.09-0.36,7.53,1.66,10.08c-0.79-2.93,0-6.39,1.57-8.82c1.9-2.93,4.73-3.26,7.72-2.8
						l0.1,0.02c2.89,0.46,6.47,1.25,8.63,3.62c-0.22-0.55-0.46-1.08-0.74-1.59c-1.64-3.01-4.36-5.36-7.17-7.04
						c-0.47-0.28-0.95-0.55-1.43-0.79C-1979.55-3341.75-1981.57-3342.53-1983.47-3342.53z M-1982.54-3365.51l-0.01,0.03
						c0,0.01,0,0.01,0,0.02c-0.1,0.99,0.14,2.12,0.26,3.12l0.02,0.14c0.25,2.27,0.59,4.55,0.7,6.84c0.11,2.2,0.07,4.48-0.17,6.68
						l-0.04,0.31c-0.14,1.19-0.22,2.6-0.58,3.82c1.39,0.15,2.78,0.65,4.04,1.18c0.45,0.19,0.9,0.39,1.35,0.61
						c-0.56-3.34-0.86-6.72-1.47-10.04l-0.12-0.66c-0.66-3.68-1.29-7.38-3-10.67c-0.23-0.44-0.47-0.81-0.75-1.2
						C-1982.39-3365.43-1982.46-3365.49-1982.54-3365.51z"/>
				</g>
			</g>
		</g>
	</g>
	<g id="Smile-Teeth-Gap.svg" transform="matrix(0.291546,0,0,0.261117,739.948,804.811)">
	</g>
	<g transform="matrix(0.4441,0,0,0.39775,0,0)">
		<path class="st0" d="M137.11,59.19c0.06-0.23,0.36-0.66,0.52-0.96c0.47-0.85,1.08-1.72,1.2-1.99c0.05-0.12,0.36-1.25,0.53-1.86
			c0.01-0.02,0.02-0.04,0.01-0.06c-0.01-0.09-0.05-0.04-0.07-0.11c-0.03-0.08-0.04-0.17-0.04-0.17l-0.02,0
			c0.06-0.04,0.09-0.13,0.07-0.21c0.03-0.1-0.05-0.12-0.07-0.17c-0.05-0.13-0.16,0.05-0.58,0.22c-0.07,0.03-0.05-0.02-0.12,0.02
			c-0.02,0.02-0.03,0.05-0.05,0.08c-0.26,0.53-0.53,1.62-0.58,1.72c-0.19,0.39-1.42,1.91-1.8,2.94c-0.26,0.7-0.14,1.26,0.18,1.58
			c0.89,0.86,3.92,3.08,6.43,4.1c1.48,0.6,2.81,0.73,3.56,0.24c0.54-0.36,1.11-1.09,1.61-1.96c0.48-0.83,0.92-1.77,1.25-2.53
			c0.04-0.09,0.08-0.17,0.11-0.26c0.05-0.15,0.06-0.29,0.09-0.42c0.13-0.28,0.03-0.63-0.23-0.78c-0.25-0.15-0.57-0.03-0.7,0.25
			c-0.08,0.11-0.17,0.2-0.25,0.33c-0.05,0.08-0.08,0.16-0.12,0.25c-0.34,0.71-0.77,1.59-1.24,2.36c-0.39,0.64-0.8,1.21-1.21,1.47
			c-0.27,0.18-0.68,0.13-1.15,0.03c-0.66-0.13-1.41-0.44-2.19-0.81C140.15,61.47,137.88,59.9,137.11,59.19z M137.11,59.2
			c-0.02,0.09-0.01,0.15,0.07,0.15C137.24,59.35,137.17,59.25,137.11,59.2z M139.11,54.06c0.02,0.02,0.05,0.03,0.07,0.01
			C139.15,54.07,139.13,54.07,139.11,54.06z M139.01,53.97c0,0.02,0,0.04,0.01,0.04c0.01,0,0.02,0,0.02,0
			C139.03,54.01,139.01,53.99,139.01,53.97z"/>
	</g>
	<g transform="matrix(0.4441,0,0,0.39775,0,0)">
		<path class="st0" d="M139.75,53.57l-0.01-0.01c0.01-0.05-0.03-0.06-0.05-0.1c-0.03-0.14-0.17-0.15-0.22-0.2
			c-0.09-0.08-0.14,0.03-0.17,0.03c-0.04-0.01-0.04,0.05-0.07,0.06c-0.04,0.01-0.02,0.06-0.05,0.08c-0.1,0.06,0.01,0.15-0.01,0.28
			c-0.01,0.05,0.07,0.04,0.1,0.14c0.01,0.02,0.06-0.01,0.14,0.08c0.03,0.09-0.03,0.07,0.02,0.15c0.02,0.03,0.05,0.06,0.08,0.09
			c0.45,0.3,0.96,0.87,1.49,1.34c0.33,0.3,0.68,0.53,1.02,0.66c1.62,0.61,3.25,1.77,4.9,2.53c0.71,0.33,1.42,0.69,2.15,0.72
			c0.07,0,0.15,0.02,0.21-0.02c0.07-0.05,0.02-0.02,0.07-0.1c0.29,0.05,0.56-0.18,0.61-0.5c0.04-0.33-0.16-0.63-0.45-0.68
			c-0.02-0.09,0.03-0.05-0.03-0.12c-0.04-0.05-0.1-0.07-0.16-0.09c-0.6-0.22-1.24-0.38-1.86-0.67c-1.68-0.77-3.38-1.87-5.04-2.44
			c-0.31-0.1-0.62-0.35-0.94-0.6c-0.39-0.3-0.78-0.63-1.15-0.84c-0.18-0.1-0.35-0.21-0.53-0.23c-0.06-0.01-0.12-0.04-0.17-0.01
			c-0.09,0.06,0,0.02-0.07,0.1c-0.02,0.02-0.03,0.01-0.05,0.02c0.02-0.01,0.01,0.03,0.02,0.03c0.04-0.01,0.05,0.04,0.07,0.04
			c0.1,0,0.07,0.12,0.11,0.15c0.02,0.01,0,0.04,0.02,0.05C139.75,53.53,139.76,53.55,139.75,53.57z M139.46,53.76
			c0.01,0.05-0.04,0.14-0.02,0.12c0.03-0.02,0.05,0.01,0.06,0c0.03-0.04,0.07,0,0.09-0.03c0-0.01,0.01-0.01,0.01-0.02
			C139.54,53.84,139.49,53.81,139.46,53.76z"/>
	</g>
	<g transform="matrix(0.4441,0,0,0.39775,0,0)">
		<path class="st0" d="M138.43,55.51c-0.1,0-0.21,0.09-0.06,0.15c0.02,0.01-0.03,0-0.03,0.03c0,0.03-0.01,0.05,0,0.08
			c0.05,0.15,0.18,0.26,0.26,0.32l0.65,0.56c0.21,0.2,0.42,0.38,0.63,0.55c0.49,0.38,1,0.69,1.5,1.06c0.8,0.58,1.64,1.01,2.51,1.38
			c1.01,0.42,2.03,0.79,3.05,1.17c0.17,0.07,0.34,0.17,0.53,0.18c0.11,0.01,0.17-0.04,0.28-0.06c0.18,0.09,0.4-0.01,0.47-0.22
			c0.08-0.2-0.01-0.44-0.2-0.53c-0.07-0.11-0.1-0.19-0.2-0.28c-0.11-0.1-0.25-0.13-0.38-0.19c-0.19-0.09-0.38-0.18-0.57-0.26
			c-1.66-0.68-3.39-1.14-4.9-2.22l-2.11-1.46l-0.75-0.51c-0.01-0.01-0.03-0.02-0.05-0.03l0.05,0.03c0,0,0,0.01,0,0.01
			c-0.05,0.07-0.12-0.14-0.19-0.16c-0.04-0.01-0.03-0.02-0.06-0.01c-0.36,0.14-0.17-0.17-0.29,0.02c-0.05,0.07-0.15,0-0.16,0.09
			c0,0.03-0.04,0.04-0.03,0.09C138.36,55.37,138.38,55.46,138.43,55.51z M138.7,55.48c-0.03,0.07-0.1,0.1-0.17,0.09l0,0.01
			c0,0.01,0.02-0.01,0.03,0c0.01,0.01,0.03-0.02,0.05-0.01c0.03,0.02,0.04-0.06,0.08-0.06C138.71,55.51,138.7,55.49,138.7,55.48z"/>
	</g>
	<g transform="matrix(0.4441,0,0,0.39775,0,0)">
		<path class="st0" d="M137.63,57.59c0.01,0.02,0.04,0.07,0.02,0.05c-0.05-0.04-0.01,0.12-0.04,0.07c-0.02-0.03-0.02,0.06-0.03,0.03
			c-0.02-0.03-0.03,0.06-0.04,0.02c-0.01-0.04-0.05,0.01-0.08,0.04c0.08,0.07,0.15,0.33,0.23,0.41l1.75,1.45
			c0.55,0.43,1.14,0.75,1.75,1.01c1.33,0.57,2.76,0.86,4.04,1.56c0.31,0.16,1.01,0.59,1.58,0.72c0.21,0.04,0.41,0.07,0.58,0.03
			c0.03-0.01,0.07-0.01,0.09-0.02c0.15-0.09,0.27-0.14,0.34-0.29c0.17-0.14,0.21-0.42,0.08-0.61c-0.13-0.19-0.37-0.23-0.55-0.09
			c-0.04,0.01-0.01-0.11-0.06-0.11c-0.2-0.02-0.44-0.12-0.69-0.24c-0.36-0.18-0.7-0.37-0.89-0.47c-1.31-0.7-2.78-0.99-4.14-1.56
			c-0.54-0.22-1.06-0.49-1.55-0.86c-0.42-0.32-0.83-0.66-1.26-0.97c-0.19-0.13-0.38-0.25-0.58-0.37c-0.03-0.05-0.12-0.15-0.17-0.19
			c-0.07-0.06-0.12-0.13-0.18-0.12c-0.03,0-0.03-0.03-0.06-0.01c-0.09,0.07-0.08-0.07-0.14,0.02c-0.02,0.03-0.02-0.01-0.04,0.01
			c-0.02,0.05-0.05-0.02-0.06,0.03c-0.02,0.06-0.05-0.01-0.06,0.05c-0.01,0.09-0.08,0.01-0.05,0.12c-0.07,0.07-0.08,0.19-0.02,0.27
			C137.45,57.64,137.56,57.65,137.63,57.59z M137.45,57.8c-0.02,0.01-0.03,0.02-0.04-0.01c0-0.01-0.04,0.01-0.03,0
			C137.41,57.77,137.43,57.78,137.45,57.8z M138.17,57.37l0.02,0.02C138.19,57.39,138.18,57.38,138.17,57.37z"/>
	</g>
	<g transform="matrix(0.4441,0,0,0.39775,0,0)">
		<path class="st0" d="M137.25,60.68l-0.06,0c-0.04,0-0.06,0.06-0.1,0.09c-0.22,0.25-0.32,0.79-0.39,1.36
			c-0.07,0.57-0.06,1.22,0.03,1.73c0.06,0.34,0.17,0.63,0.29,0.84c1.03,1.74,2.55,2.7,4.02,2.76c1.42,0.06,2.85-0.69,3.71-2.4
			c0.05-0.09,0.11-0.18,0.13-0.28c0.02-0.08,0.01-0.15,0.02-0.23c0.1-0.24,0.02-0.53-0.19-0.64c-0.21-0.12-0.47-0.02-0.58,0.22
			c-0.05,0.04-0.1,0.06-0.14,0.11c-0.05,0.06-0.09,0.15-0.13,0.22c-0.71,1.21-1.71,1.76-2.76,1.71c-1.14-0.06-2.3-0.81-3.11-2.16
			c-0.14-0.23-0.21-0.66-0.24-1.1c-0.04-0.56-0.01-1.15,0.09-1.51c0.01-0.04,0.02-0.08,0.02-0.11c-0.01-0.2-0.1,0.04-0.12-0.14
			c0-0.04-0.02-0.07,0-0.09c0.1-0.04,0.15-0.15,0.11-0.26c-0.03-0.11-0.14-0.17-0.23-0.13c-0.04,0.01-0.07,0.06-0.12,0.07
			c-0.05,0.01-0.05,0.02-0.11,0.01c-0.04,0-0.03,0.02-0.07,0.01C137.2,60.7,137.22,60.69,137.25,60.68z"/>
	</g>
	<g transform="matrix(0.4441,0,0,0.39775,0,0)">
		<path class="st0" d="M140.58,54.45c-0.01,0.07,0.02,0.15,0.08,0.19c0.05,0.09,0.12,0.07,0.16,0.09c0.12,0.05,0.14-0.08,0.22-0.23
			c0.04-0.07-0.02-0.21,0.05-0.41c0.02-0.06,0.04-0.03,0.06-0.09c0.03-0.12-0.07-0.35,0.01-0.34c0.01,0,0.01,0,0.01,0.01l-0.02,0.07
			c0.01-0.02,0.03-0.06,0.02-0.07c0.12-0.38,0.17-0.82,0.17-1.29c0-0.91-0.18-1.94-0.2-2.74c-0.1-3.24-1.35-5.91-1.73-8.99
			c-0.14-1.15-0.15-2.35,0.08-3.67c0.71-3.93,3.14-6.35,6.1-7.49c3.02-1.15,6.59-1,9.55,0.22c0.79,0.33,1.5,0.82,2.13,1.42
			c0.65,0.62,1.23,1.34,1.74,2.11c0.39,0.59,0.64,1.2,0.81,1.83c0.3,1.06,0.42,2.17,0.67,3.34c0.67,3.14,0.34,5.44-0.61,7.29
			c-0.9,1.78-2.35,3.14-3.93,4.43c-1.58,1.29-3.3,2.51-4.82,3.95c-0.96,0.91-1.86,1.88-2.55,3.04c-0.15,0.25-0.3,0.5-0.41,0.78
			c-0.12,0.28-0.19,0.57-0.27,0.87c-0.14,0.3-0.03,0.67,0.24,0.82c0.27,0.15,0.6,0.03,0.74-0.27c0.14-0.2,0.28-0.36,0.42-0.55
			c0.13-0.19,0.26-0.37,0.39-0.56c1.03-1.54,2.3-2.84,3.7-4c2.9-2.42,6.11-4.47,7.75-7.7c1.08-2.15,1.51-4.82,0.72-8.45
			c-0.26-1.2-0.39-2.34-0.71-3.43c-0.22-0.79-0.54-1.54-1.03-2.29c-0.58-0.86-1.23-1.67-1.96-2.35c-0.76-0.71-1.6-1.28-2.54-1.67
			c-3.24-1.32-7.15-1.45-10.44-0.17c-3.38,1.32-6.11,4.1-6.9,8.59c-0.26,1.49-0.24,2.85-0.07,4.14c0.4,3.03,1.67,5.66,1.8,8.85
			c0.04,0.79,0.25,1.81,0.28,2.71c0.01,0.35,0,0.67-0.09,0.95c-0.04,0.12-0.07,0.28-0.04,0.45c0.04,0.17,0.07,0.39,0.2,0.51
			c0.05,0.04,0.04-0.01,0.09,0.02C140.51,54.36,140.56,54.43,140.58,54.45z M140.83,54.3c-0.01-0.01-0.01-0.03-0.02-0.02l-0.02,0.01
			l0.01,0c0.01,0,0.01,0,0.02,0L140.83,54.3z"/>
	</g>
	<g transform="matrix(0.4441,0,0,0.39775,0,0)">
		<path class="st0" d="M147.27,41.75c-0.51,0.6-0.85,1.47-1.02,2.2c-0.11,0.49-0.12,1.1,0.07,1.52c0.18,0.4,0.49,0.69,1.05,0.7
			c0.47,0,0.82-0.26,1.07-0.71c0.33-0.59,0.42-1.6,0.43-2.08c0.01-0.33-0.03-0.68-0.12-1.03c0.12,0,0.24,0.02,0.37,0.09
			c0.38,0.18,0.74,0.49,1.02,0.87c-0.11,0.09-0.22,0.19-0.32,0.3c-0.33,0.36-0.75,0.92-0.96,1.51c-0.18,0.51-0.21,1.05-0.01,1.56
			c0.23,0.57,0.62,0.76,1.06,0.72c0.59-0.04,1.36-0.72,1.57-1.1c0.41-0.74,0.49-1.54,0.32-2.28c0.24-0.05,0.48-0.07,0.71-0.04
			c0.59,0.07,1.15,0.4,1.4,1.09c0.12,0.32-0.05,0.68-0.22,1.04c-0.39,0.78-1.03,1.53-1.38,1.96c-0.19,0.24-0.39,0.47-0.6,0.68
			c-0.91,0.95-1.94,1.75-2.8,2.78c-0.76,0.92-1.41,1.95-2,3.03c-0.35,0.63-0.71,1.25-0.99,1.9c-0.03,0.06-0.08,0.12-0.07,0.18
			c0.05,0.24,0,0.13,0.02,0.09c0.01-0.02,0.05-0.03,0.14,0.06c-0.12,0.23-0.04,0.53,0.17,0.66c0.21,0.13,0.47,0.05,0.59-0.19
			c0.27,0.08-0.05,0.18,0.21,0.06c0.15-0.07,0.17-0.3,0.25-0.46c0.8-1.5,1.61-3.04,2.68-4.31c0.83-1,1.85-1.76,2.74-2.68
			c0.24-0.25,0.48-0.51,0.7-0.79c0.46-0.59,1.38-1.68,1.76-2.73c0.23-0.66,0.28-1.31,0.06-1.88c-0.48-1.23-1.47-1.86-2.53-1.96
			c-0.46-0.04-0.94,0.02-1.39,0.17c-0.43-0.66-1.03-1.2-1.66-1.5c-0.5-0.24-0.95-0.26-1.35-0.12c-0.26-0.49-0.6-0.95-0.99-1.3
			c-0.73-0.66-1.62-0.97-2.52-0.65c-0.57,0.2-1.04,0.59-1.39,1.1c-0.49,0.69-0.78,1.6-0.89,2.43c-0.16,1.17-0.23,2.39-0.25,3.62
			c-0.03,1.79,0.03,3.6,0.01,5.33c0,0.7-0.31,1.72-0.39,2.5c-0.01,0.1-0.04,0.21-0.02,0.3c0.07,0.25,0.15,0.32,0.3,0.46
			c0.02,0.1,0.11,0.17,0.2,0.15c0.1-0.02,0.16-0.12,0.14-0.23c0.07-0.15,0.19-0.14,0.26-0.32c0.03-0.07,0.02-0.14,0.03-0.22
			c0.13-0.81,0.48-1.88,0.51-2.62c0.03-1.73,0-3.53,0.05-5.32c0.03-1.17,0.1-2.33,0.26-3.46c0.07-0.53,0.24-1.1,0.51-1.58
			c0.24-0.42,0.56-0.78,1-0.93c0.67-0.23,1.3,0.19,1.78,0.78C147.01,41.31,147.15,41.52,147.27,41.75z M150.65,44.68
			c-0.19,0.21-0.4,0.48-0.54,0.78c-0.07,0.15-0.14,0.3-0.14,0.45c0.16-0.1,0.41-0.27,0.46-0.36
			C150.59,45.27,150.66,44.98,150.65,44.68z M147.7,43.41c-0.13,0.29-0.22,0.59-0.28,0.87c-0.03,0.14-0.05,0.3-0.05,0.45
			c0,0.03,0.01,0.09,0.02,0.12h0.01c0.06,0,0.06-0.09,0.09-0.15c0.06-0.13,0.1-0.28,0.13-0.44
			C147.67,43.94,147.69,43.62,147.7,43.41z"/>
	</g>
	<g transform="matrix(0.4441,0,0,0.39775,0,0)">
		<path class="st0" d="M135.36,43.33c-0.03-0.17-0.16-0.33-0.53-0.59c-0.14-0.1-0.32-0.16-0.53-0.21c-0.53-0.15-1.19-0.19-1.69-0.24
			c-0.1-0.01-0.2-0.01-0.28-0.01c-0.17,0.01-0.3,0.05-0.38,0.05c-0.36-0.06-0.7,0.23-0.75,0.63c-0.05,0.41,0.2,0.78,0.56,0.84
			c0.11,0.04,0.3,0.1,0.55,0.14c0.07,0.01,0.14,0.01,0.22,0.01c0.49,0.01,1.12,0.03,1.65,0c0.19-0.01,0.34-0.03,0.49-0.08
			c0.21-0.06,0.27-0.18,0.39-0.21c0.04-0.01,0.03-0.06,0.06-0.06c0.07,0.08,0.18,0.07,0.25,0
			C135.43,43.53,135.43,43.41,135.36,43.33z"/>
	</g>
	<g transform="matrix(0.4441,0,0,0.39775,0,0)">
		<path class="st0" d="M138.58,31.49c-0.01-0.01-0.02-0.02-0.02-0.02c-0.02,0-0.03-0.01-0.04-0.03c0.02,0.01,0.05,0.02,0.08,0.01
			c0.19,0.1,0.25-0.08,0.27-0.09c0.09-0.06,0-0.14-0.02-0.28c0-0.03-0.05-0.02-0.07-0.07c-0.01-0.02-0.05-0.02-0.12-0.07
			c-0.08-0.07-0.19-0.17-0.39-0.28c-0.27-0.15-0.62-0.25-0.8-0.35c-0.1-0.04-0.22-0.14-0.38-0.23c-0.3-0.17-0.66-0.4-1.01-0.64
			c-0.25-0.17-0.47-0.37-0.66-0.53c-0.05-0.04-0.1-0.05-0.15-0.08c-0.04-0.03-0.1,0.01-0.13-0.03c-0.01-0.01-0.03,0.02-0.03,0.01
			c-0.1-0.34-0.43-0.52-0.73-0.41c-0.31,0.11-0.47,0.48-0.37,0.82c0,0.26,0.11,0.53,0.31,0.85c0.11,0.17,0.28,0.31,0.46,0.46
			c0.39,0.33,0.88,0.65,1.34,0.86c0.42,0.2,0.81,0.33,1.03,0.37c0.19,0.01,0.5,0.01,0.81-0.03c0.07-0.01,0.13-0.02,0.19-0.03
			c0.12-0.04,0.2-0.08,0.29-0.12C138.5,31.56,138.55,31.5,138.58,31.49z M138.58,31.49c0.01,0,0.01,0,0.01,0.01
			C138.6,31.51,138.59,31.51,138.58,31.49z M138.49,31.1c0.02-0.01,0.05-0.02,0.08-0.03c0.03-0.02,0.05-0.04,0.04-0.05
			c-0.03-0.04-0.07,0.01-0.07,0.03C138.52,31.08,138.5,31.1,138.49,31.1z"/>
	</g>
	<g transform="matrix(0.4441,0,0,0.39775,0,0)">
		<path class="st0" d="M146.16,25c-0.12-0.18,0.04-0.28-0.02-0.49c-0.03-0.09-0.02-0.19-0.05-0.29c-0.06-0.22-0.11-0.46-0.15-0.73
			c-0.07-0.44-0.1-0.92-0.15-1.34c-0.02-0.12-0.03-0.24-0.06-0.35c-0.07-0.22-0.15-0.4-0.25-0.55c-0.1-0.35-0.44-0.53-0.75-0.42
			c-0.31,0.11-0.48,0.49-0.37,0.84c0.01,0.14-0.05,0.3-0.04,0.49c0.03,0.74,0.2,1.69,0.46,2.39c0.03,0.09,0.06,0.18,0.11,0.26
			c0.14,0.24,0.25,0.47,0.45,0.56c0.06,0.03,0.08,0.05,0.15,0.05c0.26,0,0.34,0.09,0.59-0.04c0.09,0.03,0.19-0.04,0.21-0.14
			C146.31,25.13,146.25,25.03,146.16,25z"/>
	</g>
	<g transform="matrix(0.4441,0,0,0.39775,0,0)">
		<path class="st0" d="M156.29,26.36c0.25-0.1,0.36-0.08,0.58-0.27c0.19-0.17,0.3-0.43,0.43-0.68c0.33-0.62,0.64-1.3,0.84-1.99
			c0.09-0.31,0.13-0.62,0.19-0.91c0.13-0.35-0.02-0.76-0.34-0.9c-0.32-0.14-0.68,0.03-0.81,0.38c-0.15,0.3-0.34,0.59-0.47,0.92
			c-0.15,0.36-0.26,0.75-0.39,1.13c-0.13,0.38-0.26,0.75-0.37,1.12c-0.03,0.11-0.07,0.22-0.07,0.34c-0.01,0.3,0.08,0.38,0.12,0.66
			c-0.05,0.09-0.02,0.21,0.06,0.27C156.14,26.48,156.25,26.45,156.29,26.36z"/>
	</g>
	<g transform="matrix(0.4441,0,0,0.39775,0,0)">
		<path class="st0" d="M163.67,36.25c-0.02,0-0.03,0-0.05,0.01c-0.19,0-0.29,0.05-0.34,0.07c-0.08,0.03-0.1,0.11-0.13,0.16
			c-0.13,0.15-0.03,0.3,0.05,0.49c0.03,0.07,0.22,0.05,0.41,0.26c0.08,0.09,0.01,0.09,0.11,0.18c0.09,0.08,0.25,0.07,0.41,0.08
			c0.83,0.09,2.25-0.02,3.16-0.31c0.29-0.09,0.57-0.16,0.71-0.34c0.08-0.1,0.13-0.14,0.16-0.25c0.29-0.25,0.35-0.72,0.13-1.04
			c-0.22-0.33-0.64-0.39-0.93-0.15c-0.04,0-0.05-0.08-0.09-0.07c-0.12,0.02-0.25,0.09-0.41,0.14c-0.8,0.26-2.02,0.43-2.75,0.54
			c-0.13,0.02-0.26,0.01-0.33,0.08c-0.08,0.06,0.02,0.04-0.04,0.11C163.71,36.23,163.69,36.24,163.67,36.25z"/>
	</g>
	<g transform="matrix(0.4441,0,0,0.39775,0,0)">
		<path class="st0" d="M161.68,49.36c-0.34,0.28,0.27-0.09-0.14,0.01c-0.06,0.01-0.01,0.03-0.06,0.07c-0.04,0.03,0,0.06-0.03,0.1
			c-0.05,0.07,0,0.1-0.03,0.18c-0.03,0.09,0.02,0.16,0.04,0.27c0.03,0.19,0.19,0.36,0.35,0.56c0.07,0.09,0.16,0.16,0.25,0.23
			c0.85,0.66,2.48,1.32,3.34,1.45c0.11,0.02,0.21,0.04,0.29,0.01c0.09-0.03,0.1-0.05,0.15-0.09c0.33,0.05,0.64-0.21,0.69-0.58
			c0.05-0.37-0.19-0.72-0.52-0.77c-0.03-0.05,0-0.07-0.05-0.12c-0.04-0.04-0.09-0.08-0.16-0.11c-0.03-0.01-0.08-0.02-0.12-0.03
			c-0.6-0.14-1.61-0.44-2.4-0.79c-0.23-0.11-0.44-0.22-0.62-0.32c-0.08-0.05-0.15-0.05-0.21-0.09c-0.02-0.01-0.08,0.01-0.07-0.01
			c0.04-0.08-0.19,0.04-0.15,0.09c0.02,0.02-0.08,0-0.05,0.01c0.12,0.08-0.07-0.01-0.16-0.04c0.01-0.1-0.05-0.2-0.14-0.22
			c-0.1-0.02-0.19,0.05-0.21,0.15C161.68,49.35,161.69,49.36,161.68,49.36L161.68,49.36z"/>
	</g>
	<g transform="matrix(0.4441,0,0,0.39775,0,0)">
		<path class="st0" d="M158.32,56.91c0,0.08-0.12,0.19-0.1,0.58c0.02,0.23,0.12,0.48,0.22,0.78c0.11,0.36,0.26,0.74,0.42,1.14
			c0.13,0.32,0.26,0.64,0.42,0.93c0.29,0.55,0.63,1.02,0.92,1.33c0.26,0.31,0.71,0.33,0.99,0.03c0.28-0.3,0.29-0.79,0.03-1.11
			c-0.15-0.19-0.29-0.48-0.46-0.78c-0.1-0.19-0.21-0.38-0.32-0.58c-0.31-0.54-0.62-1.1-0.9-1.56c-0.16-0.27-0.27-0.52-0.42-0.67
			c-0.29-0.28-0.44-0.29-0.51-0.31c-0.06-0.09-0.17-0.11-0.24-0.04C158.28,56.7,158.26,56.82,158.32,56.91z"/>
	</g>
</g>
</svg>
