<?xml version="1.0" encoding="utf-8"?>
<!-- Generator: Adobe Illustrator 24.2.0, SVG Export Plug-In . SVG Version: 6.00 Build 0)  -->
<svg version="1.1" id="图层_1" xmlns="http://www.w3.org/2000/svg" xmlns:xlink="http://www.w3.org/1999/xlink" x="0px" y="0px"
	 viewBox="0 0 85 85" style="enable-background:new 0 0 85 85;" xml:space="preserve">
<style type="text/css">
	.st0{display:none;}
	.st1{display:inline;}
	.st2{fill-rule:evenodd;clip-rule:evenodd;fill:#040000;}
	.st3{fill-rule:evenodd;clip-rule:evenodd;fill:#FFFFFF;}
	.st4{fill-rule:evenodd;clip-rule:evenodd;}
	.st5{fill:none;}
</style>
<g class="st0">
	<g transform="matrix(0.4441,0,0,0.39775,-345.369,-236.477)" class="st1">
		<g id="Gray-Short.svg" transform="matrix(0.681216,0,0,0.681216,1361.69,1133.76)">
			<g transform="matrix(1,0,0,1,-236.5,-283.5)">
				<g id="head-mono-Gray-Short">
					<path id="_xD83D__xDD8D_-Ink" class="st2" d="M-473.8-374.7c-6.3,0.7-13.7-0.9-17.9-6.6c-0.1-0.2-0.2-0.4-0.2-0.5
						c0-0.2,0.1-0.4,0.2-0.6c0.1-0.2,0.3-0.3,0.5-0.3c0.2,0,0.3,0,0.5,0.1l0.4,0.2c2.9,1.8,5.8,3.3,9.1,3.9c3.3,0.7,6.7,0.6,10-0.2
						c6-1.5,10.9-5.4,14.5-10.6c4-5.8,6.4-13,7-20.4c0.7-8.9-1-17.6-2.8-26.2c-1.9-9-3.9-18-6.3-26.8c-0.1-0.3-0.1-0.5-0.1-0.8
						c-0.7-0.3-1.5-0.2-2.2,0.1c-1.4,0.5-2.7,1.7-3.8,2.6c-0.4,0.3-0.8,0.7-1.1,0.9c-1.4,1.1-2.9,1.8-4.6,2
						c-1.8,0.1-3.5-0.5-5.1-1.3c-0.8-0.4-1.6-0.8-2.4-1.2c-2.3-1.1-4.5-2.3-7-3c-3.3-1-6.7-1.5-10.2-1.5c-6.1,0.1-12.3,1.8-16,7.6
						c-1.5,2.3-2.5,5-1.7,7.9c0.4,1.6,1.2,3,2.1,4.3l0.3,0.5c0.5,0.7,0.9,1.4,1,2.2c0.1,0.6,0,1.3-0.4,2.1c-0.3,0.5-0.6,0.9-0.9,1.3
						c-0.2,0.3-0.5,0.6-0.7,0.9c-0.4,0.6-0.8,1.4-1.1,2.1c-0.6,1.4-0.8,3-0.8,4.5c-0.1,1.9,0.2,3.7,0.4,5.6c0.2,1.3,0.3,2.6,0.4,3.9
						c0,0.2,0,0.4-0.1,0.5c-0.1,0.2-0.3,0.2-0.5,0.3c0,0-0.1,0-0.2,0c0,0.1,0,0.2,0.1,0.4c-0.1-0.2-0.2-0.3-0.4-0.5c0,0,0,0,0,0
						c-0.1-0.1-0.2-0.2-0.3-0.4c-0.2-0.2-0.4-0.4-0.6-0.5c-1-0.9-2.3-1.4-3.5-1.4c-1.2,0-2.4,0.4-3.3,1.4c-1.8,1.9-2.3,5-2.4,7.6
						c0,2.7,0.5,5.9,2.6,7.6c0.8,0.7,1.9,1.1,2.9,1.1c0.9,0,1.7-0.3,2.5-0.6c0.2-0.1,0.5-0.2,0.8-0.3c0.3-0.1,0.5-0.1,0.8,0
						c0.2,0.1,0.5,0.3,0.6,0.5c0.2,0.2,0.3,0.5,0.3,0.8c0,0.3,0,0.6-0.1,0.9c0,0.1-0.1,0.1-0.1,0.2l0.5,0.9c1.8,3.2,3.6,6.4,5.9,9.2
						c1.4,1.6,2.8,3.1,4.4,4.4l0.2,0.2c0.1,0.1,0.3,0.2,0.5,0.4c0.5,0.4,1,1,1.5,1c0.1,0,0.3,0,0.4,0c0.3,0,0.5-0.1,0.8,0
						c0.2,0.1,0.4,0.2,0.6,0.6c0.1,0.2,0.2,0.5,0.2,0.8c0,0.3-0.1,0.6-0.2,0.8c-0.3,0.5-0.6,0.8-0.9,1c-0.4,0.2-0.8,0.2-1.3,0.1
						c-1.1-0.2-2.3-1.3-3.1-1.9l-0.1-0.1c-1.7-1.5-3.4-3.1-4.8-4.9c-2.5-3.1-4.7-6.8-5.8-10.8c-0.8,0.6-1.8,0.9-2.8,0.9
						c-1.5,0.1-3.1-0.4-4.3-1c-2.6-1.4-4.2-4-4.9-6.9c-0.8-3.5-0.6-7.4,0.5-10.5c0-0.1,0.1-0.2,0.1-0.3c-3.3-9.4-4.3-19.9-4.1-29.9
						c0.1-4.7,0.4-9.6,1.4-14.2c0.5-2.1,1.2-4,2.5-5.6c0.7-0.9,1.6-1.6,2.4-2.4c0.8-0.6,1.5-1.2,2.1-2l0.3-0.4
						c0.1-0.1,0.1-0.2,0.2-0.2c1.1-1.4,2.2-2.7,3.5-3.8c1.5-1.3,3.2-2.3,5-3.1c3.8-1.8,7.9-2.9,12-3.7c8.8-1.8,17.8-1.9,26.5,0.6
						c4,1.2,8,2.8,11.9,4.4c0.4,0.1,0.7,0.3,1.1,0.5c3,1.2,6.1,2.5,9.1,3.7c1.4,0.6,2.8,1.2,4.2,1.7c0.3,0.1,0.6,0.4,0.8,0.7
						c0.2,0.3,0.2,0.7,0.1,1.1c-0.9,2.5-2,4.8-3.3,6.9c0.5,0.4,0.9,0.8,1.1,1.4c0.4,0.7,0.6,1.5,0.6,2.4c0,2.9-2.3,4.9-4.3,6.3
						c-0.2,0.1-0.4,0.2-0.5,0.2c1.9,8.1,3.7,16.3,5.3,24.5l0.1,0.6c1.6,8.6,2.6,17.4,1.1,26.1c-1.3,7.5-4.3,14.8-9,20.4
						C-460.9-378.9-467.1-375.4-473.8-374.7z M-515.2-424.2c-0.8-2.9-1.3-6.1-0.9-9c0.2-1.9,0.7-3.6,1.5-5.3c0.5-0.9,1-1.8,1.7-2.6
						l0.2-0.3c0.1-0.1,0.2-0.3,0.2-0.4c0-0.1,0-0.2,0-0.3c-0.1-0.3-0.3-0.5-0.5-0.8c-0.1-0.2-0.2-0.3-0.3-0.5
						c-1.8-2.7-3.2-6-2.7-9.4c0.4-3.4,2.4-6.5,4.5-8.9c4.6-5.2,11.8-6.4,18.1-6.1c3.7,0.2,7.3,0.9,10.8,2.1c1.7,0.6,3.4,1.4,5,2.2
						l0.4,0.2c0.2,0.1,0.4,0.2,0.6,0.3c1.3,0.7,2.6,1.4,4,1.8c2.7,0.7,4.5-0.8,6.5-2.4c0.7-0.5,1.3-1.1,2-1.6l0.1-0.1
						c1.3-0.8,2.8-1.4,4.3-1.4c1.3,0,2.5,0.5,3.5,1.6c0.2,0.2,0.3,0.5,0.4,0.7c0.1,0.2,0.2,0.4,0.3,0.6c0.4,1.5,0.7,3,1.1,4.5
						l0.3-0.2c0.9-0.6,1.8-1.4,2.2-2.4c0.2-0.4,0.1-1.1-0.1-1.6c-0.1-0.2-0.2-0.3-0.3-0.4c-0.1-0.1-0.2-0.1-0.4-0.1
						c-0.3,0-0.6,0-0.9-0.1c-0.3-0.1-0.5-0.4-0.7-0.6c-0.2-0.3-0.2-0.6-0.2-1c0-0.3,0.1-0.6,0.4-0.9c1.5-1.9,2.7-4,3.7-6.3l-6.3-2.6
						c-2.2-0.9-4.5-1.9-6.7-2.8l-1.2-0.5c-4.1-1.7-8.2-3.3-12.4-4.4c-8.4-2.1-17.2-1.6-25.6,0.4l-0.5,0.1c-3.5,0.9-7.1,1.9-10.3,3.7
						c-1.6,0.9-3.1,2-4.4,3.3c-0.6,0.6-1.1,1.3-1.6,1.9c-0.7,0.9-1.5,1.8-2.3,2.6l-0.8,0.7c-1.2,1.1-2.3,2.1-2.9,3.8
						c-0.7,1.7-1,3.7-1.3,5.5c-0.7,4.7-1,9.5-0.9,14.3c0,8,1.1,15.9,2.5,23.7c1.1-1.8,2.7-3.1,4.7-3.4c1.3-0.2,2.6,0.1,3.7,0.7
						C-516.2-425.3-515.7-424.8-515.2-424.2z M-517.2-414.7c-1.5-0.6-3-0.8-4.5-0.5c-0.2,0-0.3,0-0.4-0.1c-0.1-0.1-0.2-0.2-0.3-0.4
						c-0.1-0.2-0.1-0.4,0-0.5c0-0.1,0.1-0.3,0.3-0.4c1.7-0.9,3.5-1.3,5.4-1l0.2,0c0.9,0.2,2.3,0.5,3.3,1.1c0.8,0.5,1.3,1.2,1.5,2.1
						c0.1,0.5,0,1-0.3,1.3c-0.2,0.4-0.6,0.6-1.1,0.6c-0.8,0-1.3-0.4-1.9-0.9c-0.1-0.1-0.2-0.1-0.2-0.2
						C-516-414-516.6-414.4-517.2-414.7z"/>
				</g>
			</g>
		</g>
		<g id="Eyes-Closed.svg" transform="matrix(0.734096,0,0,0.734096,1398.38,1156.31)">
			<g transform="matrix(1,0,0,1,-144.5,-146.5)">
				<g id="face-Eyes-Closed">
					<path id="_xD83D__xDD8D_-Ink1" class="st2" d="M-558.4-520.4l0.2,0c1.2-0.3,2.4-0.8,3.5,0.1c1.1,0.8,1.2,2.3,0.4,3.3
						c-0.9,1.1-2,1-3.2,1h-0.1c-1,0-2,0-3-0.1c-0.9-0.1-1.9-0.2-2.8-0.4l-0.5-0.1c-0.5-0.1-1.1-0.3-1.4-0.9c-0.5-1,3.2-1.9,3.6-2
						C-560.6-519.9-559.5-520.1-558.4-520.4z M-556.3-533c-0.6,0.7-1.4,1.2-2.2,1.4c-2.2,0.7-5,0.3-6.8-0.4
						c-0.4-0.2-0.7-0.5-0.9-0.9c-0.2-0.4-0.2-0.8-0.1-1.2c0-0.1,0.1-0.2,0.1-0.4c0.1-0.3,0.4-0.6,0.7-0.7c0.3-0.2,0.7-0.2,1-0.1
						c0,0,0.1,0,0.1,0c1.1,0.4,3,1.1,4.5,0.9c0.9-0.1,1.7-0.4,2.2-1.4c0.2-0.5,0.2-1,0-1.4c-0.3-0.7-0.9-1.3-1.4-1.7
						c-0.7-0.6-1.5-0.8-2.2-1c-0.3-0.1-0.6-0.2-0.9-0.3c-0.1,0-0.2-0.1-0.2-0.2s-0.1-0.2-0.1-0.3s0-0.2,0-0.3c0-0.1,0.1-0.2,0.2-0.2
						c1.5-0.8,3.5-0.3,5,0.9c0.7,0.6,1.4,1.4,1.7,2.2c0.3,0.8,0.5,1.7,0.4,2.6C-555.4-534.4-555.8-533.6-556.3-533z M-581.3-550
						c0.4-0.2,0.8,0.8,0.9,1l0.2,0.6c0.3,0.9,0.6,1.8,1.3,2.5c0.5,0.6,1.4,1,2,0.4c0.6-0.6,0.3-1.3,0.4-2.1c0.2-1.4,1.8-2.8,2.8-1.3
						c2.3,3.2-1.2,7.8-4.5,7c-1.7-0.4-3-1.9-3.5-3.6l0-0.1C-582.2-546.8-582.5-549.3-581.3-550z M-551.9-547.7L-551.9-547.7
						c-1.1-2.8,2.8-4,3.1-1.5l0,0.2c0.3,2.8-0.3,6.5-3.4,6.7c-3.4,0.3-4.8-3.9-4.5-7c0-0.5,0.7-0.6,0.8-0.1l0,0.1
						c0.5,1.6,1.1,4.5,3,4.5C-551.4-544.8-551.5-546.7-551.9-547.7z M-549.4-555.7c2-0.1,1.9,3.3,0,3.4c-6.5,0.2-13,0.4-19.5,0.4
						l-1.2,0c-6.1,0-12.2,0.1-18.3-0.4c-0.5,0-0.4-0.9,0-0.8c6.4-1,12.8-1.3,19.3-1.7C-562.5-555.2-556-555.4-549.4-555.7z"/>
				</g>
			</g>
		</g>
	</g>
</g>
<g>
	<g transform="matrix(0.4441,0,0,0.39775,0,0)">
		<path class="st3" d="M35.2,92.7l0.1,3.3c0,0-7.4,6.3-9,11.8c0,0-0.9,1.4,0.2,3c0,0,1,1.3,2.6-0.2c0,0,0.5,2.5,3.3,0.8
			c0,0,4.1-2.2,4.5-2.3c0.4-0.1-1,1.8,2.4,2c3.4,0.1,10.3-2.2,10.3-2.2s-8.4,11-10.7,30.5c0,0-0.7,3.8-0.4,5.3c0,0,1.8-4,8.9-5.3
			c0,0,12.9-18.6,36.7-0.5c0,0,7.7,0.5,7.9,0.5c0.2,0,0.6-11.5,17.4-11.4c16.8,0.2,24.7,16.6,25.7,17c0,0,3.5-4.9,7.9-1.9
			c0,0-14.9-35-14.9-34.9c-0.1,0.1,9,3.1,13.2-1.1c0,0,4.8,0.6,4.8-0.1c0-0.7-5.6-3.1-5.6-3.1c0-0.1,4.5,1.2,5.4,0.9
			c0.9-0.3,1.7,0.4,2.6-0.3c0.8-0.7,8.5-19.5-15.2-25c-23.6-5.5-76-11.5-88.7-3.1C31.8,84.9,35.2,92.7,35.2,92.7z"/>
	</g>
	<g transform="matrix(0.4441,0,0,0.39775,0,0)">
		<path class="st3" d="M157.1,108.9c0,0-10.2,33.5-11,36.3c-0.8,2.9,1,3.4,1,3.4l2.8-3.4c0,0,10.6-33.3,11.1-35.4
			C161.4,107.7,157.1,108.9,157.1,108.9z"/>
	</g>
	<g transform="matrix(0.4441,0,0,0.39775,0,0)">
		<path class="st4" d="M156.9,108c0,0.2-0.2,0.3-0.2,0.5c0,0.1,0,0.2-0.1,0.2c-0.1,0.3-0.2,0.6-0.3,1c-0.1,0.3-0.1,0.6-0.2,1
			c-1.4,5.7-5.9,17.4-8.6,26.1c-0.7,2.3-1.3,4.3-1.6,6c-0.1,0.6-0.1,1.1-0.2,1.6c-0.1,0.4,0.2,0.8,0.5,0.9c0.4,0.1,0.7-0.2,0.8-0.6
			c0.1-0.4,0.3-0.8,0.4-1.3c0.4-1.5,0.9-3.3,1.5-5.2c2.6-8.4,6.9-20.1,8.5-26.2c0.2-0.7,0.3-1.3,0.4-1.9c0.1-0.5,0.1-1,0.1-1.3
			c-0.1-0.5-0.2-0.7-0.3-0.9c0-0.2-0.2-0.3-0.4-0.2C157,107.6,156.9,107.8,156.9,108z"/>
	</g>
	<g transform="matrix(0.4441,0,0,0.39775,0,0)">
		<path class="st4" d="M161.1,110.2C161.1,110.2,161.1,110.1,161.1,110.2c0.2-0.2,0.2-0.4,0.1-0.5c-0.1-0.1-0.3-0.2-0.6,0.1
			c-0.1,0.1-0.4,0.4-0.7,1c-0.4,0.7-0.7,1.9-1.1,3.1c-0.9,2.7-1.9,6-2.3,7.3c-1.7,5.5-4,11-5.7,16.6c-0.6,2-1.1,4-1.4,6
			c-0.1,0.5-0.1,1-0.1,1.5c-0.1,0.4,0.2,0.7,0.5,0.8c0.3,0.1,0.7-0.2,0.7-0.6c0.1-0.4,0.2-0.8,0.3-1.1c0.2-0.9,0.4-1.8,0.7-2.7
			c0.5-1.9,1.1-3.8,1.7-5.7c1.6-4.8,3.4-9.6,4.8-14.3c0.4-1.3,1.4-4.6,2.2-7.3c0.4-1.2,0.8-2.3,0.9-3.1
			C161.1,110.7,161.1,110.1,161.1,110.2L161.1,110.2z M161,110.2c-0.1,0-0.1,0-0.2,0C160.9,110.2,160.9,110.3,161,110.2z"/>
	</g>
	<g transform="matrix(0.4441,0,0,0.39775,0,0)">
		<path class="st4" d="M147.1,147.9c-0.1-0.1-0.2-0.4-0.2-0.6c-0.2-0.6-0.2-1.4-0.4-1.7c-0.1-0.2-0.2-0.3-0.3-0.3c0,0,0-0.1,0-0.1
			c0-0.1-0.5-0.5-0.8,0.5c0,0.1,0,0.3,0,0.4c0.1,0.7,0.3,1.8,0.5,2.4c0.2,0.4,0.4,0.7,0.6,0.8c0.4,0.2,0.9,0.1,1.5-0.4
			c0.6-0.6,1.4-1.7,1.9-2.4c0.1-0.1,0.1-0.2,0.2-0.3c0.1-0.2,0-0.3,0.1-0.3c0.2-0.2,0.2-0.6,0-0.9c-0.2-0.2-0.6-0.2-0.8,0
			c-0.1,0-0.2,0.1-0.4,0.3c-0.1,0.1-0.2,0.2-0.3,0.3C148.2,146.2,147.5,147.6,147.1,147.9z M147,148L147,148c-0.1,0-0.3-0.2-0.3-0.1
			C146.8,148,146.9,148.1,147,148z"/>
	</g>
	<g transform="matrix(0.4441,0,0,0.39775,0,0)">
		<path class="st4" d="M157.4,108.6C157.4,108.6,157.4,108.7,157.4,108.6c0,0.1-0.1,0.2,0.1,0.4c0.1,0.1,0.3,0.2,0.5,0.2
			c0.7,0.3,1.7,0.6,2.5,0.8c0.2,0,0.4,0.1,0.6,0.1c0.1,0,0.1-0.1,0.2-0.1c0.4,0,0.7-0.3,0.7-0.8c0-0.4-0.3-0.8-0.7-0.8
			c0-0.1,0-0.1,0-0.1c-0.1-0.1-0.3-0.1-0.5-0.1c-0.9-0.2-2.1-0.6-2.7-0.6c-0.1,0-0.1,0-0.2,0c-0.4,0.2-0.4,0.2-0.4,0.3
			c-0.2,0-0.3,0.2-0.3,0.4C157.1,108.5,157.3,108.7,157.4,108.6z"/>
	</g>
	<g transform="matrix(0.388553,0,0,0.308033,16.1983,188.966)">
		<path class="st4" d="M32.3-533.6c0-0.4-0.2-0.7-0.6-1c-0.3-0.2-0.6-0.3-1.1-0.4c-0.9-0.1-2.2,0.3-3.6,0.8
			c-4.3,1.5-9.9,4.7-10.9,5.4c-5.3,3.7-10.4,8.2-14,14.2c-2.5,4.2-4.4,9.1-5,14.9c-0.1,1.3-0.2,2.7-0.2,4.2c0,0.9,0.1,1.8,0.2,2.8
			c0,0.8,0.6,1.4,1.2,1.4c0.6,0,1.1-0.7,1.1-1.5c0-0.9,0.1-1.7,0.2-2.6c0.1-1.3,0.2-2.6,0.3-3.8c0.6-5.3,2.2-9.7,4.4-13.5
			c3.3-5.8,8.1-10.1,13-13.7c0.8-0.6,5.1-3.2,8.8-4.9c1.9-0.9,3.6-1.5,4.8-1.7c0.2,0,0.4-0.1,0.6-0.1c0.2,0,0.2-0.2,0.3-0.1
			c0.1,0.2,0.3,0.3,0.5,0.1C32.4-533.1,32.4-533.4,32.3-533.6z"/>
	</g>
	<g transform="matrix(0.4441,0,0,0.39775,0,0)">
		<path class="st4" d="M146,91c0.1,0.1,0.2,0.2,0.3,0.2c0.2,0.1,0.4,0.1,0.6,0.2c0.3,0.1,0.6,0.4,0.8,0.7c0.6,0.7,0.9,1.7,1,2.8
			c0.3,2,0,4.4-0.4,6.3c-0.1,0.7-0.3,1.3-0.4,1.8c-0.1,0.3-0.1,0.5-0.2,0.7c-0.2,0.4-0.1,1,0.3,1.2c0.4,0.2,0.9,0.1,1.1-0.4
			c0.2-0.2,0.3-0.5,0.5-0.8c0.2-0.6,0.4-1.3,0.6-2.1c0.4-2.1,0.5-4.9,0.1-7.1c-0.4-2.3-1.4-4.1-3.1-4.5c-0.3-0.1-0.6-0.2-1-0.1
			c-0.2,0.1-0.2,0.1-0.4,0.2c-0.2,0-0.3,0.2-0.3,0.4C145.7,90.9,145.8,91,146,91z"/>
	</g>
	<g transform="matrix(0.4441,0,0,0.39775,0,0)">
		<path class="st4" d="M134.2,92.1c0.1-0.9,0.8-1.1,1.6-1.3c1.4-0.3,3.1-0.3,3.9-0.4c2.7-0.3,6.2,0,9,1.4c0.9,0.5,1.7,1.1,2.4,1.8
			c0.7,0.7,1.3,1.5,1.7,2.5c0.1,0.4,0.5,0.6,0.9,0.4c0.4-0.1,0.5-0.6,0.4-1c-0.4-1.3-1-2.5-1.8-3.4c-0.8-0.9-1.8-1.6-2.9-2.1
			c-3.1-1.5-6.9-1.6-9.9-1.2c-1,0.2-3.4,0.2-4.8,1c-0.8,0.5-1.3,1.2-1.2,2.3c0,0.2,0.1,0.4,0.3,0.4C134,92.5,134.2,92.3,134.2,92.1z
			"/>
	</g>
	<g transform="matrix(0.4441,0,0,0.39775,0,0)">
		<path class="st5" d="M134,91.1c-0.3,0.1-4.4-0.9-4.7-1c-3.9-1.3-10.6-1.4-14.6-1.5c-10.9-0.4-21.8,2.1-32.7,2.8"/>
	</g>
	<g transform="matrix(0.501536,0,0,0.438843,-37.8456,-95.2552)">
		<path class="st4" d="M151.4,318.8C151.4,318.8,151.3,318.8,151.4,318.8c-0.1,0-0.1,0-0.1,0c0,0.1-0.1,0.2-0.1,0.4
			c-0.1,0.6,0,1.6,0,2.6c0,1.6,0.1,3.3,0.2,3.9l1,17.2c0,0.7,0.5,1.2,1.1,1.2c0.6,0,1-0.6,1-1.2c0-0.9,0-1.9,0-2.8
			c0-1.4-0.1-2.8-0.2-4.2c-0.2-3.5-0.5-6.9-0.8-10.4c-0.1-0.6-0.1-2.3-0.3-3.9c-0.1-1.1-0.3-2-0.5-2.6c0-0.1,0-0.1-0.1-0.2
			c-0.2-0.4-0.3-0.5-0.4-0.5c-0.2-0.1-0.2-0.2-0.2-0.2c-0.2,0-0.3-0.2-0.4,0c0,0-0.1,0-0.1,0.1c0,0.1-0.2,0.1-0.1,0.3
			C151.3,318.6,151.3,318.7,151.4,318.8z M151.6,319C151.6,319,151.6,319,151.6,319c0.1,0,0.1,0,0.2,0
			C151.6,319.1,151.6,319.1,151.6,319z M152.1,318.7c0,0.1-0.1,0.2-0.1,0.2l0,0C152,319,152,318.8,152.1,318.7
			C152.1,318.8,152.1,318.8,152.1,318.7z M151.4,318.9C151.4,318.9,151.4,318.9,151.4,318.9C151.4,318.9,151.4,318.9,151.4,318.9z"
			/>
	</g>
	<g transform="matrix(0.501536,0,0,0.438843,-37.8456,-95.2552)">
		<path class="st4" d="M117.5,318.3c-0.2,0.2-0.4,0.5-0.7,0.7c-0.3,0.3-0.5,0.6-0.6,0.9c-0.3,0.8-0.7,1.7-1,2.5
			c-0.5,1.3-0.9,2.5-1.3,3.8c-0.9,2.9-1.8,5.8-2.6,8.8c-0.4,1.5-0.8,2.9-1.2,4.4c-0.4,1.5-0.7,3-1,4.5c-0.1,0.4,0.1,0.7,0.4,0.8
			c0.3,0.1,0.6-0.1,0.7-0.5c0.3-1.4,0.7-2.8,1.1-4.2c0.5-2.1,1.1-4.2,1.6-6.4c0.6-2.3,1.3-4.7,2-7l2.1-6.3c0.1-0.2,0.2-0.4,0.4-0.7
			c0.3-0.5,0.7-1.1,0.7-1.3c0-0.2,0-0.3-0.1-0.4c-0.1-0.1-0.2-0.2-0.4-0.1C117.5,317.9,117.4,318.1,117.5,318.3L117.5,318.3z"/>
	</g>
	<g transform="matrix(0.501536,0,0,0.438843,-37.8456,-95.2552)">
		<path class="st4" d="M110.1,348.8c-0.1-0.1,0-0.3,0-0.4c0-0.3,0.1-0.6,0.2-0.9c0.4-0.9,1-1.8,1.3-2.5c1.2-2.5,2.7-4.6,4.5-6.3
			c1.8-1.7,3.9-2.9,6.3-3.8c5.2-1.8,10.8-1.6,16.1,0.1c3.7,1.2,7.2,3.2,10.3,5.6c1,0.7,1.9,1.5,2.8,2.3c0.4,0.3,0.8,0.6,1.2,1
			c0.4,0.4,0.9,0.4,1.3-0.1c0.3-0.4,0.3-1.1-0.1-1.5c-0.3-0.5-0.7-0.9-1.1-1.3c-0.9-0.9-1.9-1.8-2.9-2.5c-3.3-2.5-7.1-4.4-11-5.5
			c-5.6-1.7-11.6-1.8-17.1,0.2c-2.6,0.9-4.8,2.4-6.7,4.2c-1.9,1.9-3.5,4.2-4.7,6.9c-0.4,0.9-1.1,2.1-1.4,3.2
			c-0.1,0.8-0.1,1.5,0.4,1.9c0.1,0.2,0.4,0.2,0.5,0C110.3,349.2,110.3,349,110.1,348.8z"/>
	</g>
	<g transform="matrix(0.501536,0,0,0.438843,-37.8456,-95.2552)">
		<path class="st4" d="M155,342L155,342c0,0,0-0.1,0-0.2l0,0l0,0C155,341.9,155,341.9,155,342L155,342c0.1,0,0.1,0,0-0.1l0,0
			c0,0,0,0,0,0l0,0c0.1-0.1,0.1-0.2,0.2-0.2l3.8-4.1c1.7-1.7,3.5-3,5.4-4.1c1.9-1.1,3.9-1.9,6.1-2.4c5-1.2,11.2,0.2,16.7,3.1
			c3.8,2,7.2,4.7,10,7.6c1.3,1.4,2.4,2.8,3.3,4.4c0.3,0.5,0.9,0.7,1.3,0.3c0.5-0.3,0.6-1,0.3-1.5c-0.9-1.7-2.1-3.4-3.5-4.9
			c-2.9-3.2-6.6-5.9-10.7-7.9c-5.9-3-12.5-4.3-17.8-2.9c-2.3,0.6-4.5,1.5-6.4,2.7c-2,1.2-3.8,2.8-5.5,4.7l-3.6,4.4
			c-0.2,0.2-0.3,0.6-0.4,0.7c-0.1,0.2,0,0.4,0,0.4C154.3,342.1,154.8,342.5,155,342z"/>
	</g>
	<g transform="matrix(0.501536,0,0,0.438843,-37.8456,-95.2552)">
		<path class="st4" d="M187.6,312.4c-3.3-4.5-6-1.6,0.6,2.6l0,0c0.1,0.2,0.2,0.7,0.4,1.2c0.2,0.7,0.6,1.4,0.7,1.8l3.4,7.9
			c1.4,3.1,4.5,12.1,6.9,17.6c0.4,0.8,0.7,1.5,1,2.2c0.5,0.9,1,1.6,1.3,2.1c0.2,0.3,0.6,0.3,0.8,0c0.2-0.2,0.3-0.7,0-0.9
			c-0.3-0.4-0.6-1-0.9-1.7c-0.6-1.2-1.3-2.7-2-4.5c-2.3-5.5-4.9-12.7-6.1-15.4l-3.5-7.9c-0.2-0.4-0.5-1.1-0.8-1.7
			c-0.2-0.5-0.5-0.9-0.6-1.1l0,0C189.7,305.5,186.6,306.2,187.6,312.4z"/>
	</g>
	<g transform="matrix(0.501536,0,0,0.438843,-37.8456,-95.2552)">
		<path class="st4" d="M156,331.3c-0.4,4-0.1,4.3,0.3,2.5c0.3,1.9,0.6,1.6,0.3-2.5l0,0c0-0.1,0.2-0.7,0.2-0.8l2-1.3
			c1.2-0.7,2.3-1.3,3.5-1.9c1.2-0.6,2.4-1.1,3.6-1.5c3.3-1.1,8.8-2,13.6-1.2c2.5,0.4,4.7,1.3,6.5,3c0.4,0.4,0.9,0.9,1.2,1.4
			c0.2,0.3,0.5,0.4,0.7,0.2c0.2-0.2,0.3-0.6,0.1-0.8c-0.3-0.7-0.7-1.3-1.2-1.8c-1.8-2-4.4-3-7.2-3.5c-5-0.8-10.7,0.4-14.1,1.7
			c-1,0.4-2,0.8-3,1.3c-1.4,0.7-2.8,1.6-4.2,2.4c-0.4,0.3-0.9,0.5-1.3,0.8c-0.3,0.2-0.6,0.4-0.8,0.7c-0.1,0.1-0.2,0.3-0.3,0.6
			C155.9,330.6,155.9,331.1,156,331.3L156,331.3z"/>
	</g>
	<g transform="matrix(0.501536,0,0,0.438843,-37.8456,-95.2552)">
		<path class="st4" d="M157.8,322.9L157.8,322.9c-0.1,0.1-0.2,0.3-0.1,0.5c0,0,0.2,0.2,0.4,0c0,0,0.1-0.1,0.2-0.2
			c0.5-0.4,1.5-1.2,2.4-1.7c1.3-0.6,2.7-1.1,4.1-1.6c0.9-0.3,1.8-0.5,2.8-0.7c3.6-0.7,8.3-1,12.5-0.2c1.7,0.3,3.3,0.8,4.7,1.5
			c1,0.5,2,1,2.9,1.7c0.3,0.3,0.7,0.2,0.9-0.2c0.2-0.3,0.2-0.8-0.1-1.1c-0.9-0.8-2-1.5-3.1-2.1c-1.6-0.8-3.3-1.3-5.1-1.6
			c-4.4-0.8-9.2-0.4-12.9,0.5c-1.2,0.3-2.4,0.6-3.6,1.1c-1.2,0.5-2.3,1.1-3.4,1.7c-1,0.5-2,1.5-2.5,1.9
			C157.9,322.8,157.9,322.9,157.8,322.9L157.8,322.9z"/>
	</g>
	<g transform="matrix(0.501536,0,0,0.438843,-37.8456,-95.2552)">
		<path class="st4" d="M146.5,331.8c0.2-0.4-0.2-1.2-1.1-2c-1.8-1.6-5.6-3.5-6.4-3.9c-3.4-1.4-7.8-1.9-12-1.3
			c-2.9,0.4-5.7,1.2-8.2,2.6c-1.1,0.7-2.1,1.4-3.1,2.3c-0.2,0.2-0.2,0.5-0.1,0.7c0.1,0.2,0.4,0.3,0.6,0.1c0.9-0.7,2-1.3,3.1-1.8
			c2.4-1.2,5.1-2,7.8-2.4c4-0.6,8.2-0.3,11.5,1c0.6,0.2,2.9,1.3,4.7,2.5c0.5,0.3,1,0.7,1.4,0.9c0.4,0.2,0.7,0.4,0.9,0.7
			c0.1,0.1,0.2,0.2,0.2,0.3c0,0,0,0,0,0c-0.1,0.2,0,0.4,0.1,0.4C146.2,332,146.4,331.9,146.5,331.8z"/>
	</g>
	<g transform="matrix(0.501536,0,0,0.438843,-37.8456,-95.2552)">
		<path class="st4" d="M120.4,322.9c-0.1,0-0.1-0.1-0.1-0.1c0-0.1,0-0.1,0.1-0.2c0.3-0.3,0.9-0.7,1.6-1c1.2-0.5,2.8-1,4.1-1.2
			l2.3-0.2c3.5-0.3,8-0.1,11.9,1.1c2.7,0.8,5.1,2,6.9,4c0.2,0.3,0.6,0.2,0.8,0c0.2-0.3,0.2-0.7,0-1c-2-2.1-4.6-3.4-7.5-4.3
			c-4.1-1.2-8.7-1.3-12.3-0.9l-2.3,0.4c-1.9,0.4-4.3,1.5-5.5,2.3c-0.9,0.7-1.1,1.3-0.3,1.7c0.1,0.1,0.3,0,0.4-0.2
			C120.6,323.2,120.5,323,120.4,322.9z"/>
	</g>
	<g transform="matrix(0.501536,0,0,0.438843,-37.8456,-95.2552)">
		<path class="st4" d="M150.2,344.5C150.2,344.5,150.2,344.5,150.2,344.5c0.2,0,0.4-0.1,0.5-0.3c0-0.1,0-0.1,0-0.2c0.3,0,0.6,0,1,0
			c0.7,0,1.4-0.1,2.2,0c0.5,0,0.9,0.1,1.4,0.2c0.3,0,0.6,0,0.9,0.1c0.4,0.2,0.8,0,1-0.5c0.2-0.4,0-0.9-0.4-1.1
			c-0.3-0.2-0.7-0.4-1.1-0.5c-0.5-0.1-1.1-0.2-1.6-0.2c-0.8,0-1.6,0.1-2.4,0.2c-0.5,0.1-1.1,0.3-1.5,0.4c-0.5,0.3-0.7,0.5-0.6,0.9
			c0,0.3,0.3,0.9,0.6,1C150.1,344.5,150.1,344.6,150.2,344.5C150.3,344.5,150.2,344.6,150.2,344.5z M150.3,344.1L150.3,344.1
			C150.3,344.1,150.3,344.1,150.3,344.1z"/>
	</g>
	<g transform="matrix(0.501536,0,0,0.438843,-37.8456,-95.2552)">
		<path class="st4" d="M157.6,343c0-0.6,0.2-1.1,0.5-1.7c0.6-1.1,1.7-2.3,3-3.3c2.8-2.2,6.6-3.8,8.4-4c5.2-0.4,10.1,0.9,14.3,3.5
			c2.6,1.6,4.9,3.7,6.9,6.2c1.1,1.3,2,2.7,3,4.1c0.2,0.4,0.5,0.7,0.8,1.1c0.2,0.4,0.7,0.5,1.1,0.3c0.4-0.3,0.5-0.8,0.2-1.2
			c-0.2-0.4-0.4-0.9-0.6-1.3c-0.9-1.7-2-3.2-3.1-4.5c-2.2-2.6-4.8-4.7-7.6-6.3c-4.5-2.6-9.7-3.9-15.2-3.3c-2,0.2-6,2-9,4.4
			c-1.5,1.2-2.7,2.5-3.3,3.8c-0.4,0.8-0.4,1.7-0.3,2.5c0,0.2,0.2,0.4,0.4,0.4C157.5,343.4,157.6,343.2,157.6,343z"/>
	</g>
	<g transform="matrix(0.501536,0,0,0.438843,-37.8456,-95.2552)">
		<path class="st4" d="M149.7,344.2C149.7,344.2,149.6,344.3,149.7,344.2C149.7,344.2,149.7,344.2,149.7,344.2
			C149.7,344.2,149.7,344.1,149.7,344.2C149.7,344.1,149.7,344.2,149.7,344.2c0.1,0.2,0.3,0.4,0.5,0.3c0.2,0,0.2-0.1,0.3-0.6
			c0-0.1,0-0.2-0.1-0.5c-0.1-0.3-0.3-0.6-0.5-0.9c-0.6-0.9-1.4-1.9-1.5-2c-1.1-1-2.4-1.8-3.7-2.5c-1.3-0.6-2.7-1.1-4.1-1.4
			c-4.8-1.2-10.3-1.9-15.1-0.4c-1.3,0.4-2.6,1-3.8,1.8c-1.7,1.1-3.3,2.7-4.6,4.8c-0.2,0.3-0.2,0.7,0.1,1c0.3,0.2,0.7,0.2,0.9-0.1
			c1.3-1.8,2.8-3.1,4.4-4c1.1-0.7,2.3-1.2,3.5-1.6c4.5-1.4,9.7-0.8,14.3,0.3c1.3,0.3,2.6,0.7,3.8,1.3c1.2,0.6,2.4,1.2,3.4,2.2
			c0.1,0.1,0.7,1,1.3,1.7c0.2,0.3,0.5,0.6,0.6,0.7C149.5,344.2,149.6,344.2,149.7,344.2z M149.8,343.8c-0.1,0.1-0.2,0.1-0.1,0.3l0,0
			C149.7,344,149.7,343.9,149.8,343.8z"/>
	</g>
	<g transform="matrix(0.4441,0,0,0.39775,0,0)">
		<path class="st4" d="M41,91.4c0.1,0,0.3,0,0.5-0.1c1.7-0.7,6.2-2.5,6.9-2.6c2.9-0.8,5.5-1.1,8.1-0.9c1.3,0.1,2.6,0.4,4,0.7
			c1.3,0.3,2.5,0.7,3.9,1.3c0.4,0.2,0.8,0,0.9-0.4c0.2-0.4,0-0.9-0.4-1c-1.4-0.7-2.7-1.3-4-1.7c-1.4-0.4-2.9-0.6-4.3-0.7
			c-2.7-0.1-5.5,0.3-8.5,1.2c-0.8,0.2-5.3,2.2-7,3.2c-0.3,0.2-0.5,0.4-0.6,0.5c-0.3,0.3-0.2,0.6-0.1,0.7c0,0,0.1,0.1,0.3,0.1
			C40.9,91.6,40.9,91.5,41,91.4z M40.9,91.5C40.9,91.5,40.9,91.5,40.9,91.5C40.9,91.6,40.9,91.5,40.9,91.5z"/>
	</g>
	<g transform="matrix(0.4441,0,0,0.39775,0,0)">
		<path class="st4" d="M57.9,91.9c0,0.1,0,0.1,0.1,0.1c0,0,0.1,0,0.2,0c0.2,0,0.3,0.2,0.6,0.2c0.2,0,0.3,0,0.5,0
			c1.3-0.2,3.4-1.1,4.2-1.2c1.1-0.1,2.3-0.1,3.4-0.1c1.7,0,3.5,0.2,5.2,0.3c5.2,0.4,10.3,1,15.4,1.7c4.6,0.6,9.2,1.4,13.9,2.1
			c3.1,0.5,6.2,0.9,9.2,1.4c0.5,0.1,1-0.3,1.1-0.9c0.1-0.6-0.3-1.1-0.8-1.2c-3.2-0.5-6.4-1.1-9.6-1.6c-3.2-0.5-6.4-0.9-9.7-1.4
			c-6.5-0.8-12.9-1.5-19.4-1.9c-1.7-0.1-3.5-0.2-5.3-0.2c-1.2,0-2.4,0.1-3.6,0.3c-0.3,0-0.7,0.2-1.2,0.3c-1,0.4-2.4,0.9-3.3,1.1
			c-0.3,0.1-0.4,0.1-0.6,0.2c0,0,0,0.1-0.1,0.1c-0.2-0.1-0.4,0-0.4,0.2C57.6,91.6,57.7,91.8,57.9,91.9z"/>
	</g>
	<g transform="matrix(0.4441,0,0,0.39775,0,0)">
		<path class="st4" d="M116.5,105.6L116.5,105.6L116.5,105.6L116.5,105.6C116.5,105.6,116.5,105.6,116.5,105.6L116.5,105.6
			c0,0-0.1,0-0.2,0c-1.1,0.2-4,0.4-4.9,0.4c-2.3,0.1-5.1-0.1-7.7-0.1c-1.2,0-2.3,0-3.4,0.1c-8.2,0.6-15.7,2.2-23.5,3.1
			c-3.3,0.4-6.6,0.7-10,0.7c-1.7,0-3.4,0-5.2-0.2c-1.7-0.2-3.4-0.4-5-0.9c-0.6-0.2-1.2-0.4-1.8-0.6c-0.9-0.3-1.8-0.7-2.6-1.1
			c0,0-0.6-0.3-0.8-0.3c-0.3,0-0.5,0.2-0.4,0.5c0,0.2,0.2,0.3,0.4,0.3c0,0,0.1,0,0.1-0.1l0.4,0.2c0.7,0.5,1.4,0.9,2.2,1.3
			c0.7,0.4,1.5,0.7,2.3,0.9c1.4,0.4,2.8,0.8,4.2,1c2.1,0.3,4.2,0.4,6.3,0.4c3.5,0.1,6.9-0.1,10.2-0.5c7.8-0.8,15.3-2.3,23.5-2.8
			c0.7,0,1.4-0.1,2.2-0.1c2.9,0,6.2,0.1,8.9,0c1,0,4.1-0.2,5.2-0.5c0.1,0,0.3-0.1,0.4-0.1c0.3-0.2,0.5-0.3,0.5-0.5
			c0-0.3,0.3-0.5,0.1-0.8c0,0,0-0.1-0.1-0.2c-0.1-0.1-0.1-0.3-0.3-0.3C117,105.4,116.7,105.4,116.5,105.6z M116.3,106.6L116.3,106.6
			c0,0.1,0,0.1,0.1,0.1L116.3,106.6C116.3,106.7,116.3,106.7,116.3,106.6L116.3,106.6z M116.2,106.1c0,0.1,0,0.1,0,0.2
			C116.2,106.2,116.2,106.2,116.2,106.1z M116.4,105.7C116.4,105.7,116.4,105.7,116.4,105.7L116.4,105.7z"/>
	</g>
	<g transform="matrix(0.4441,0,0,0.39775,0,0)">
		<path class="st4" d="M116.2,96L116.2,96c0,0,0.5,0.3,0.8,0.4c0.2,0.1,0.4,0.2,0.5,0.2c0.4,0.1,0.8,0.1,1.3,0
			c0.6-0.1,1.2-0.3,1.8-0.5c1.8-0.7,3.3-1.3,4.7-1.6c1.7-0.4,3.3-0.3,4.8,0c1.2,0.2,2.4,0.7,3.7,1.3c1.6,0.7,3.3,1.7,5.3,3
			c0.8,0.5,1.6,1,2.3,1.5c1.1,0.8,2.2,1.6,3.3,2.5c0,0,0.1,0,0.1,0.1l-0.1-0.1l0,0c0.2-0.1,0.5,0.6,0.5,0.8c0,0-0.1,0.1-0.1,0.1
			c0,0,0.1,0,0.1-0.1c0,0,0,0,0,0c0-0.1,0.1-0.1,0.1-0.1c0-0.1,0.1-0.1,0.2-0.2c-0.2,0.1-0.3,0.2-0.3,0.4c-0.1,0.3,0.1,0.6,0.4,0.7
			c0.1,0.1,0.2,0,0.3,0.1c0,0,0.1,0,0.1,0c0,0,0.1-0.1,0.1-0.1c0.2,0,0.3-0.3,0.4-0.6c0-0.1,0-0.2,0-0.3c0-0.6-0.6-1.8-0.8-2
			c-0.9-0.8-1.8-1.5-2.8-2.3c-1-0.7-1.9-1.4-3-2c-2.1-1.2-3.9-2.2-5.5-2.9c-1.4-0.6-2.7-0.9-4-1c-1.6-0.2-3.3,0-5.1,0.4
			c-1.4,0.3-3,0.8-4.9,1.6c-0.4,0.2-0.9,0.3-1.3,0.4c-0.4,0.1-0.9,0.1-1.3,0c-0.2,0-1-0.4-1.5-0.3c-0.4,0-0.6,0.2-0.6,0.6
			c0,0.2,0.1,0.4,0.3,0.4C116,96.2,116.1,96.2,116.2,96z M145.5,103.2c0,0-0.1-0.1-0.1,0c0,0,0,0-0.1,0
			C145.4,103.2,145.5,103.2,145.5,103.2z"/>
	</g>
	<g transform="matrix(0.4441,0,0,0.39775,0,0)">
		<path class="st4" d="M133,98.9c0,0.2,0.2,0.4,0.6,0.5l0.1,0c0.2,0.1,0.9,0.3,1,0.4l2.9,1.2c1.4,0.5,3.4,1,5.1,1.9
			c0.5,0.2,0.9,0.5,1.3,0.8l-2.5-0.4c-1.3-0.3-2.9-0.3-4.4-0.5c-0.4-0.1-0.7-0.2-1.1-0.3c-0.3-0.1-0.6-0.1-0.9-0.2
			c-0.2-0.1-0.4-0.1-0.6-0.2c-0.3-0.1-0.6-0.2-0.9-0.3l-0.1,0c-0.2-0.1-0.3,0.1-0.4,0.1c0,0-0.1,0.3,0.2,0.5l0.1,0l0,0c0,0,0,0,0,0
			l0.1,0c0.2,0.1,0.4,0.3,0.6,0.4c0.3,0.1,0.5,0.2,0.8,0.3c0.6,0.2,1.3,0.3,2,0.4l1,0.2c0.7,0.3,1.4,0.6,2.1,0.9
			c1.3,0.6,2.6,1.4,4,2c0.2,0.1,0.7,0.2,1.2,0.4c-0.1,0-0.1,0-0.2,0c-0.9,0-2.1-0.2-2.2-0.2c-1.8,0-6.5-1.4-9.5-1.7
			c-0.7-0.1-1.3-0.1-1.7,0c-0.3,0-0.6,0.1-0.8,0.2c-0.1,0-0.1,0.1-0.1,0.2c0,0.1,0.1,0.1,0.2,0.1c0.2,0,0.4,0,0.7,0
			c0.4,0,1,0.1,1.6,0.2c3,0.4,7.7,1.6,9.6,1.6c0.1,0,1.3,0.1,2.2,0.3c0.4,0.1,0.7,0.2,1,0.2c0.6,0.1,0.8-0.4,0.8-0.6
			c0-0.3-0.1-0.7-0.4-0.9c-0.5-0.5-1.7-0.6-2-0.8c-0.7-0.3-1.4-0.6-2.1-0.9l2.1,0.6c0,0,1.2,0.1,1.6,0c0.6-0.1,0.7-0.6,0.8-0.8
			c0-0.2,0-0.4-0.2-0.6c-0.8-1.1-2-1.9-3.3-2.5c-1.8-0.8-3.8-1.2-5.3-1.7l-3-0.8c-0.1,0-0.8-0.2-1.1-0.2l-0.1,0
			C133.2,98.6,132.9,98.7,133,98.9z M145.6,107.4C145.6,107.4,145.6,107.4,145.6,107.4C145.6,107.4,145.6,107.4,145.6,107.4z
			 M145.3,103.9c0.2,0,0.3-0.1,0.3-0.2C145.6,103.5,145.4,103.8,145.3,103.9z"/>
	</g>
	<g transform="matrix(0.4441,0,0,0.39775,0,0)">
		<path class="st4" d="M140.1,108.1L140.1,108.1c0-0.1-0.3,0.1-0.3,0.1c-0.9,0.3-1.8,0.6-2.8,0.8c-0.6,0.1-1.2,0.2-1.8,0.1
			c-1.9-0.3-3.9-0.8-5.8-1.2c-1.9-0.4-3.9-0.8-5.9-1c-1.2-0.2-2.4-0.4-3.6-0.4c-0.5,0-1,0.1-1.6,0.1c-0.4,0-0.7,0.3-0.7,0.7
			c0,0.4,0.3,0.7,0.6,0.8c0.4,0.1,0.8,0.2,1.2,0.2c0.4,0.1,0.8,0.1,1.2,0.1c2.2,0.2,4.3,0.5,6.5,0.8c0.9,0.1,1.9,0.3,2.8,0.4
			c1.7,0.2,3.4,0.3,5.1,0.3c0.7,0,1.3,0,2-0.2c1-0.2,1.9-0.5,2.8-0.8c0,0,0.2-0.1,0.3-0.1c0,0,0,0,0,0c0,0,0,0,0,0
			c0.3-0.1,0.2-0.4,0.2-0.4C140.5,108.1,140.3,108,140.1,108.1z"/>
	</g>
	<g transform="matrix(0.477425,0,0,0.39775,-25.6813,0)">
		<path class="st4" d="M198.5,95.6c-0.3,0.4-0.3,0.9,0,1.3c0.3,0.4,0.8,0.4,1.1,0.1c0.4-0.2,0.5-0.9,0.4-1.8c-0.1-0.7-0.7-1.8-1.4-3
			c-2.5-4.3-7.9-10.9-8.6-11.7c-4.3-4.9-9.8-10.3-15.8-13.9c-2.8-1.6-5.8-2.9-8.8-3.4c-1.2-0.2-2.4-0.4-3.6-0.2
			c-0.1,0-0.3,0.1-0.4,0.1c-0.2,0-0.3,0.2-0.3,0.4c0,0.2,0.1,0.4,0.3,0.4c0.1,0,0.2,0.1,0.4,0.1c1.1,0.3,2.3,0.3,3.4,0.6
			c2.9,0.7,5.6,2,8.3,3.6c5.8,3.7,11,9.2,15,14.1c0.8,0.9,7.3,9.2,9.2,12.8c0.2,0.4,0.3,0.6,0.4,0.9c0,0,0,0,0,0s0-0.1,0-0.1
			C198.4,95.8,198.5,95.7,198.5,95.6z"/>
	</g>
	<g transform="matrix(0.4441,0,0,0.39775,0,0)">
		<path class="st4" d="M168.6,98.5C168.6,98.5,168.6,98.6,168.6,98.5c0,0.1,0,0.1-0.1,0.1L168.6,98.5
			C168.5,98.6,168.5,98.6,168.6,98.5L168.6,98.5c0,0-0.1,0-0.1,0.1h0c0,0,0,0-0.1,0.1c0,0,0,0,0.1-0.1c-0.1,0-0.2-0.1-0.3,0
			c-1.2,0.2-2.6,0.2-4,0.2c-3.2,0-6.7-0.4-9.6-0.4c-0.3,0-0.7,0-1,0.1c-0.8,0.2-1.5,0.4-2.2,0.5c-0.2,0-0.3,0-0.5,0.1
			c-0.1,0,0,0.1-0.1,0.1c-0.1,0-0.2,0-0.3,0c-0.2-0.1-0.4,0-0.4,0.1c-0.1,0.2,0,0.4,0.1,0.5c0.1,0.1,0.2,0.1,0.3,0.3
			c0.1,0.1,0,0.1,0,0.1c0.1,0.1,0.2,0.1,0.3,0.2c0.2,0.1,0.5,0.1,0.8,0.1c0.9,0,2-0.6,2.9-0.6c2.9,0.1,6.4,0.5,9.6,0.5
			c1.5,0,2.9,0,4.2-0.2c0.2,0,0.5,0,0.7-0.1c0.1-0.1,0.3-0.2,0.4-0.3c0.3-0.3,0.3-0.9,0-1.2C169.2,98.4,168.9,98.4,168.6,98.5z"/>
	</g>
	<g transform="matrix(0.4441,0,0,0.39775,-4.29679,0.553348)">
		<path class="st4" d="M19.9,100.1c-0.2-0.1-0.4,0-0.5,0.2c-0.1,0.1-0.2,0.6,0.3,0.7c0.1,0,0.2,0.1,0.4,0.1c0.2,0.1,0.4,0.1,0.7,0.2
			c0.9,0.2,2.3,0.3,2.9,0.3c1.5,0.1,3.1,0.1,4.6,0.1c3.6,0,7.2-0.1,10.8-0.1c0.3,0,0.6-0.3,0.6-0.7c0-0.4-0.3-0.7-0.6-0.7
			c-3.6,0-7.2,0.1-10.8,0c-1.5,0-3.1,0-4.6-0.1c-0.6,0-1.9-0.2-2.8-0.2c-0.3,0-0.5,0-0.7,0C20,100.1,19.9,100.1,19.9,100.1
			L19.9,100.1z M20,100.2c0.1,0.1,0.2,0.3,0.2,0.5C20.2,100.5,20.2,100.3,20,100.2z"/>
	</g>
	<g transform="matrix(0.4441,0,0,0.39775,0,0)">
		<path class="st4" d="M130.6,38.6C130.6,38.6,130.6,38.6,130.6,38.6c0.2,0,0.4,0,0.6,0c0.2,0,0.5,0,0.8,0c0.8,0,1.6,0,2.4,0
			c-1.5,2-4.6,5.9-5.2,8c-0.3,0.9-0.1,1.6,0.1,2.1c0.2,0.4,0.6,0.8,1.2,1c0.3,0.1,0.7,0.1,1.3,0l3-0.3c1.1-0.1,2.2-0.1,3.3-0.3
			c0.1,0,0.2-0.1,0.3-0.2c0.6,0,1.1-0.6,1.1-1.3c0-0.7-0.5-1.3-1.1-1.3c-0.1-0.1-0.2-0.1-0.4-0.2c-0.3-0.1-0.6,0-0.9,0
			c-0.9,0.1-1.8,0.2-2.7,0.3l-3,0.4c1-2.5,4.8-6.8,5.4-7.9c0.1-0.2,0.4-0.7,0.4-1.1c0-0.3,0-0.7-0.2-0.9c-0.1-0.2-0.5-0.6-1.3-0.8
			c-1-0.2-3.3-0.3-4.8,0c-0.5,0.1-0.9,0.2-1.2,0.4c-0.1,0-0.1,0.1-0.1,0.1c-0.1,0.2-0.1,0.2-0.2,0.4c-0.1,0.5-0.5,0.6-0.3,0.9
			c0,0.1,0,0.2,0.1,0.3c0.1,0.2,0.3,0.4,0.7,0.5C130.3,38.9,130.5,38.8,130.6,38.6C130.6,38.6,130.6,38.6,130.6,38.6z M131,47
			C131,46.9,131,46.9,131,47C131,47,131,47,131,47z M130.5,38.3c0-0.1-0.1-0.2,0-0.3c0-0.1-0.1-0.1-0.1-0.1s-0.1,0-0.1,0
			c0,0.1,0,0.2,0.1,0.3C130.5,38.2,130.5,38.2,130.5,38.3z"/>
	</g>
	<g transform="matrix(0.4441,0,0,0.39775,0,0)">
		<path class="st4" d="M140,28L140,28l0.6,0.1c0.3,0,1.1-0.2,2-0.3c0.8-0.2,1.7-0.4,2.6-0.5c-0.8,1.1-1.6,2.4-2.1,3.6
			c-0.4,1-0.6,1.9-0.6,2.7c0,0.9,0.3,1.6,0.9,2.1c0.5,0.4,1.3,0.7,2.4,0.6l2.1-0.2c0.8-0.1,1.7-0.1,2.4-0.3c0.1,0,0.1-0.1,0.3-0.2
			c0.5,0,0.9-0.5,0.9-1.1c0-0.6-0.4-1.1-0.9-1.1c-0.1-0.1-0.2-0.2-0.3-0.2c-0.1,0-0.2,0-0.3,0c-0.8,0-1.6,0.2-2.4,0.3l-1.9,0.2
			c-0.3,0-0.6,0-0.8,0c-0.1,0-0.1,0-0.2-0.1c-0.1-0.2,0-0.5,0.1-0.8c0.4-1.6,1.7-3.7,2.7-4.9c0,0,0.5-0.6,0.7-0.8
			c0.6-0.8,0.1-1.6,0-1.7c-0.3-0.3-1.1-0.6-2.2-0.5c-1.2,0.1-2.8,0.5-4,0.8c-0.7,0.2-1.3,0.4-1.5,0.4l-0.5,0.1
			c-0.4,0-0.8,0.4-0.8,0.9C139.2,27.7,139.5,28.1,140,28L140,28z"/>
	</g>
	<g transform="matrix(0.4441,0,0,0.39775,0,0)">
		<path class="st4" d="M159.5,16.6c-0.6,0.1-1.8,0.2-2.7,0.4c-0.6,0.1-1.3,0.3-2,0.5c-0.6,0.2-1.1,0.4-1.7,0.5c-0.1,0-0.1,0-0.2,0
			c-0.1,0.1-0.1,0.2-0.2,0.2c-0.1,0.1-0.2,0.1-0.3,0.1c-0.2,0.1-0.1,0.1-0.2,0.3c-0.2-0.1-0.3,0.1-0.4,0.2c0,0.2,0.1,0.4,0.2,0.4
			c0.1,0.2,0,0.1,0.1,0.3c0.1,0.2,0.3,0.1,0.4,0.3c0.1,0.1,0.1,0.2,0.3,0.3c0.1,0,0.2,0,0.2,0c0.7,0,1.4-0.1,2.1-0.3
			c0.6-0.1,1.2-0.3,1.7-0.4l0.5-0.1c-0.4,0.9-0.7,1.8-0.8,2c-0.4,0.9-1.9,3-2.7,4.5c-0.3,0.7-0.5,1.4-0.5,1.8c0,0.1,0.4,1.4,1.6,1.2
			c0.8-0.2,2.7-0.7,2.8-0.7c1.3-0.4,2.8-1,4.3-1.5c0.7-0.2,1.4-0.3,2.1-0.4c0.1,0,0.3,0,0.4-0.1c0.1,0,0-0.1,0.1-0.1
			c0.6,0,1.1-0.5,1.1-1.2c0-0.6-0.5-1.2-1.1-1.2c-0.1-0.1-0.1-0.1-0.2-0.1c-0.2-0.1-0.4,0-0.6,0c-0.6,0-1.1,0.2-1.7,0.4
			c-1.7,0.5-3.4,1.4-4.9,1.9c0,0-0.4,0.1-0.8,0.2c0.8-1.3,1.8-2.8,2.1-3.5c0.2-0.4,2-2.5,1.7-3.4c1.9-0.3,2.1-1.3,1.5-1.9
			c-0.2-0.4-0.7-0.7-1.6-0.7c-0.1,0-0.2,0-0.3,0l-0.2,0C159.8,16.5,159.6,16.5,159.5,16.6z"/>
	</g>
	<g transform="matrix(0.4441,0,0,0.39775,0,0)">
		<path class="st4" d="M41.3,96.5c-0.5-0.5-1-1.1-1.5-1.6c-0.4-0.4-0.9-0.7-1.4-0.8c-0.7-0.1-1.6,0.1-2.5,0.5
			c-1.3,0.7-2.8,2-4.2,3.6c-1.9,2.1-3.7,4.6-5,6.7c-0.8,1.3-1.3,2.6-1.6,3.4c-0.1,0.3,0,0.6,0.3,0.8c0.3,0.1,0.6,0,0.7-0.3
			c0.3-0.7,1-1.7,1.8-2.9c1.3-2,3-4.5,4.8-6.5c1.3-1.5,2.6-2.7,3.8-3.4c0.6-0.4,1.2-0.6,1.8-0.6c0.4,0,0.7,0.2,1.1,0.4
			c0.6,0.4,1.2,0.9,1.7,1.3c0.1,0.1,0.3,0.1,0.4-0.1C41.5,96.8,41.5,96.6,41.3,96.5z"/>
	</g>
	<g transform="matrix(0.4441,0,0,0.39775,0,0)">
		<path class="st4" d="M36.3,102.5L36.3,102.5c0.1,0.2,0.3,0.2,0.5,0.1c0.1-0.1,0.1-0.2,0.1-0.3c0.1-0.1,0.4-0.2,0.6-0.3
			c0.2,0,0.3,0,0.4,0c0.3-0.1,0.3-0.4,0.4-0.5c0-0.1,0-0.5-0.5-0.6c-0.2-0.1-0.4-0.1-0.7,0c-0.5,0.1-1.3,0.4-2.1,0.9
			c-1.6,0.9-3.6,2.3-5.2,3.9c-1.2,1.2-2.3,2.4-2.9,3.4c-0.5,0.9-0.6,1.7-0.5,2.3c0,0.2,0.3,0.4,0.5,0.3c0.2-0.1,0.3-0.3,0.3-0.5
			c-0.1-0.4,0.2-0.8,0.6-1.4c0.6-0.9,1.6-2,2.8-3.1c1.6-1.4,3.5-2.8,5-3.7C35.8,102.8,36.1,102.6,36.3,102.5z M37.3,101.3
			c0.1-0.1,0.3-0.2,0.2-0.2C37.4,100.9,37.3,101.1,37.3,101.3z"/>
	</g>
	<g transform="matrix(0.4441,0,0,0.39775,0,0)">
		<path class="st4" d="M41.1,103.9c-0.1,0-0.2-0.1-0.3-0.1c-0.5,0-1.1,0.1-1.9,0.3c-1,0.3-2.1,0.7-3.1,1.2c-1,0.5-2,1-2.9,1.5
			c-0.2,0.2-2.5,1.4-3.5,2.5c-0.6,0.7-0.7,1.4-0.4,1.7c0.1,0.2,0.4,0.3,0.6,0.1c0.1-0.1,0.2-0.3,0.2-0.5l0,0c0,0,0.1,0,0.1,0
			c0.1-0.2,0.4-0.3,0.6-0.5c1.1-0.8,2.8-1.7,3-1.9c1.1-0.7,2.3-1.3,3.4-1.8c0.8-0.4,1.5-0.7,2.3-1c0.5-0.2,0.9-0.3,1.3-0.4
			c0.5-0.1,0.8-0.2,1-0.3c0.2-0.1,0.3-0.3,0.3-0.4c0-0.1,0-0.3-0.1-0.4c-0.1-0.2-0.3-0.2-0.5-0.1C41.2,103.8,41.1,103.9,41.1,103.9z
			 M41.2,103.9C41.2,103.9,41.3,103.9,41.2,103.9C41.3,103.9,41.2,103.9,41.2,103.9z"/>
	</g>
	<g transform="matrix(0.4441,0,0,0.39775,0,0)">
		<path class="st4" d="M44.5,106.8c-0.1-0.1-0.3-0.1-0.5-0.1c-0.5,0-1.1,0.1-1.9,0.2c-1.5,0.3-3.5,0.8-5.3,1.4
			c-1.3,0.4-2.6,0.9-3.4,1.4c-0.8,0.5-1.3,1-1.4,1.4c-0.1,0.3,0,0.5,0.2,0.7c0.2,0.1,0.5,0,0.6-0.3c0-0.1,0.1-0.1,0.2-0.1
			c0.2-0.1,0.5-0.2,0.9-0.4c0.6-0.2,1.3-0.5,2.1-0.8c1.9-0.7,4.2-1.3,6-1.8c0.8-0.2,1.5-0.4,2-0.6c0.2-0.1,0.3-0.2,0.5-0.3
			c0.2,0,0.3-0.2,0.3-0.4C44.9,107,44.7,106.8,44.5,106.8z"/>
	</g>
	<g transform="matrix(0.4441,0,0,0.39775,0,0)">
		<path class="st4" d="M50.3,107.7c-2.1,0.9-4,1.9-6.1,2.5c-1.3,0.4-2.7,0.6-4.2,0.4c-0.4,0-0.6,0.1-0.7,0.1c0,0-0.1-0.1-0.1-0.1
			c-0.2-0.1-0.4,0.1-0.4,0.3c0,0.1,0,0.2,0,0.2c0,0.1,0.1,0.2,0.3,0.3c0.1,0,0.3,0.1,0.8,0.2c1.6,0.3,3.1,0.3,4.6-0.1
			c2.1-0.5,4.2-1.5,6.4-2.4c0.6-0.3,0.9-0.7,0.9-1.1c0-0.4-0.1-1-0.8-1.3c-0.3-0.2-0.6-0.1-0.8,0.2
			C50.1,107.1,50.1,107.4,50.3,107.7z M39.3,110.6C39.2,110.6,39.2,110.5,39.3,110.6C39.2,110.6,39.2,110.6,39.3,110.6z M50.4,107.8
			c0,0.1,0,0.2,0.1,0.1C50.5,107.9,50.5,107.8,50.4,107.8L50.4,107.8z M50.4,107.6C50.5,107.6,50.5,107.6,50.4,107.6
			C50.5,107.5,50.5,107.5,50.4,107.6z"/>
	</g>
	<g transform="matrix(0.4441,0,0,0.39775,0,0)">
		<path class="st4" d="M43.1,99c0-0.2-0.2-0.3-0.3-0.3c-0.2,0-0.3,0.2-0.3,0.3c0,0.1,0.2,0.6,0.4,0.8c0.4,0.4,0.7,0.8,1.1,1.1
			c0.9,0.7,1.9,1.3,2.8,2c1.8,1.3,3,4.1,4.6,5.9c0.3,0.3,0.6,0.7,0.9,0.9c0.3,0.2,0.5,0.2,0.8,0.3c0.4,0.2,0.9,0,1.1-0.4
			c0.2-0.4,0-1-0.4-1.2c-0.2-0.1-0.3-0.3-0.4-0.5c-0.1-0.1-0.3-0.3-0.5-0.4c-1.3-1.3-2.5-3.2-3.9-4.6c-0.5-0.5-1-1-1.6-1.3l-4.2-2.5
			L43.1,99z"/>
	</g>
	<g transform="matrix(0.4441,0,0,0.39775,0,0)">
		<path class="st4" d="M44.7,72.1C44.7,72.2,44.7,72.2,44.7,72.1C44.7,72.2,44.7,72.1,44.7,72.1c0-0.1,0-0.2-0.1-0.2
			c0,0,0-0.1,0-0.1s0.1,0.1,0.1,0.2c0,0.2,0.1,0.4,0.3,0.4c0.2,0,0.3-0.1,0.4-0.3c0.1-0.1,0.1-0.3,0.2-0.5c0.1-0.2-0.2-0.2-0.2-0.4
			c-0.3-0.2-0.6-0.1-0.8,0.2C44.4,71.5,44.5,71.9,44.7,72.1z"/>
	</g>
	<g transform="matrix(0.4441,0,0,0.39775,0,0)">
		<path class="st4" d="M64.8,61.4c0,0-15.5,3.4-21.5,10.9c-5.6,7-8.2,10.6-8.5,20.9c-0.1,3.6,5.8-2.4,6.2-2.6
			c1.3-0.4,12.6-8.6,24.1-2c8,4.6,29.8,0.1,46.3,0.1c7.3,0,14.2,0.8,17.9,1.8c2.1,0.6,3.8,1.8,5.3,0.8c0.9-0.5-0.9,1,0,0
			c1.6-1.8,4.8-3.1,7.4-2.7c2.7,0.4,4.9,1.9,7.4,3.6c1,0.7,0.4,6.7,1.1,6.9c0.9,0.3,4.4-0.9,5.3-1.9c0.7-0.7,0.8-2.2,0.9-1.8
			c0.7,2-20.6-34.2-39.1-31.8C117,63.9,97,69.6,91.2,87.1c-1.3-0.3-5.9,2.4-12.3-3.7c-3.1-3-2.7-8.5-6.3-12.3
			C74.7,66.5,69.4,61.7,64.8,61.4z"/>
	</g>
	<g transform="matrix(0.4441,0,0,0.39775,0,0)">
		<path class="st3" d="M65,89.1L65,89.1c0.1-0.2,0.3-0.5,0.6-0.9c0.5-0.8,1.2-1.8,1.3-2c0.9-1.7,1.9-3.4,2.5-5.3
			c0.2-0.5,0.3-1,0.4-1.6c0.1-0.8,0.2-1.6,0.1-2.4c0-0.2-0.2-0.3-0.3-0.3c-0.2,0-0.3,0.2-0.3,0.4c0,0.8-0.1,1.5-0.2,2.2
			c-0.1,0.5-0.2,1-0.3,1.5c-0.5,1.8-1.4,3.5-2.3,5.2c-0.1,0.2-0.7,1.2-1.2,2.1c-0.2,0.4-0.4,0.7-0.4,1c-0.1,0.2-0.1,0.4-0.1,0.4
			c0,0.1,0.2,0.2,0.3,0C65,89.3,65.1,89.2,65,89.1z M64.8,89.1C64.8,89.1,64.8,89.1,64.8,89.1C64.8,89.1,64.8,89.1,64.8,89.1
			C64.8,89.1,64.8,89.1,64.8,89.1z"/>
	</g>
	<g transform="matrix(0.4441,0,0,0.39775,0,0)">
		<path class="st3" d="M119.8,75.8c-0.1,0.1-0.1,0.2-0.2,0.4c0,0.2,0,0.3,0.1,0.5c0.3,0.9,0.9,2.3,1.3,3.1c0.9,2,1.9,4.2,3.1,6.2
			c0.8,1.3,1.7,2.6,2.6,3.7c0.2,0.3,0.9,1.2,1.5,1.9c0.2,0.2,0.3,0.3,0.5,0.4c0.2,0.1,0.4,0.2,0.6,0.1c0.2,0,0.3-0.2,0.3-0.3
			c0-0.2-0.1-0.3-0.3-0.3c0,0,0,0,0-0.1c-0.1,0-0.1-0.1-0.2-0.2c-0.2-0.2-0.5-0.5-0.8-0.8c-0.5-0.5-0.9-1.1-1.1-1.3
			c-0.9-1.1-1.8-2.3-2.5-3.6c-1.2-2-2.2-4.1-3.1-6.1c-0.2-0.5-0.6-1.3-0.9-2c-0.2-0.5-0.4-1-0.5-1.3c0,0,0,0,0-0.1
			c0-0.1-0.1-0.1-0.1-0.1c0,0,0,0,0-0.1c0-0.1,0-0.2-0.1-0.2C119.9,75.6,119.8,75.7,119.8,75.8z"/>
	</g>
	<g transform="matrix(0.4441,0,0,0.39775,-314.885,364.3)" class="st0">
		<g id="Gray-Short.svg2" transform="matrix(0.681216,0,0,0.681216,1361.69,1133.76)" class="st1">
			<g transform="matrix(1,0,0,1,-236.5,-283.5)">
				<g id="head-mono-Gray-Short2">
					<path class="st3" d="M-624.1-2638.2c0,0-4.6,20.2,9.1,14.3c0,0,7.7,19.9,14.1,17.9c0,0,5.1,4.7,9.3,5c0,0,20.4,20.8,37.4-11.4
						c6.8-12.8,2.5-40.9-0.4-51.3c-1.3-4.5-1.5-9.2-1.6-10.5c0,0,8.8-6.1,2.3-9c0,0,4.6-7.1,3.7-7.7c-0.9-0.6-30.4-15.1-45.1-11.8
						c-14.7,3.2-21.7,5.2-26.6,12.4c-4.8,7.2-4.9,3.3-5.8,10.2S-630.5-2642.3-624.1-2638.2z"/>
					<path id="_xD83D__xDD8D_-Ink4" class="st4" d="M-574.9-2593.5c-6.2,0.7-13.5-0.9-17.6-6.5c-0.1-0.2-0.2-0.4-0.2-0.5
						c0-0.2,0.1-0.4,0.2-0.6c0.1-0.2,0.3-0.3,0.5-0.3c0.2,0,0.3,0,0.5,0.1l0.4,0.2c2.8,1.7,5.7,3.2,8.9,3.8c3.3,0.7,6.6,0.6,9.9-0.2
						c5.9-1.5,10.7-5.3,14.2-10.4c3.9-5.7,6.3-12.8,6.9-20c0.7-8.7-1-17.3-2.7-25.8c-1.8-8.8-3.9-17.6-6.2-26.3
						c-0.1-0.3-0.1-0.5-0.1-0.7c-0.7-0.3-1.4-0.2-2.2,0.1c-1.3,0.5-2.7,1.6-3.8,2.6c-0.4,0.3-0.8,0.7-1.1,0.9
						c-1.4,1-2.9,1.8-4.6,1.9c-1.7,0.1-3.5-0.5-5-1.2c-0.8-0.4-1.6-0.8-2.4-1.2c-2.2-1.1-4.5-2.3-6.9-3c-3.3-1-6.6-1.5-10-1.4
						c-6,0.1-12,1.8-15.7,7.5c-1.5,2.3-2.5,4.9-1.7,7.8c0.4,1.5,1.2,2.9,2,4.2l0.3,0.4c0.5,0.7,0.9,1.4,1,2.2c0.1,0.6,0,1.3-0.4,2
						c-0.3,0.5-0.6,0.9-0.9,1.3c-0.2,0.3-0.5,0.6-0.7,0.9c-0.4,0.6-0.8,1.3-1,2.1c-0.6,1.4-0.8,2.9-0.8,4.5
						c-0.1,1.8,0.2,3.7,0.4,5.5c0.2,1.3,0.3,2.6,0.4,3.9c0,0.2-0.1,0.4-0.1,0.5c-0.1,0.2-0.3,0.2-0.4,0.3c-0.1,0-0.1,0-0.2,0
						c0,0.1,0.1,0.3,0.1,0.4c-0.1-0.2-0.2-0.3-0.4-0.5c0,0,0,0,0,0c-0.1-0.1-0.2-0.2-0.3-0.4c-0.2-0.2-0.4-0.4-0.6-0.5
						c-1-0.9-2.2-1.4-3.4-1.4c-1.2,0-2.3,0.4-3.2,1.4c-1.8,1.8-2.3,4.9-2.3,7.5c0,2.6,0.5,5.8,2.6,7.5c0.8,0.7,1.8,1.1,2.9,1.1
						c0.8,0,1.7-0.3,2.5-0.6c0.2-0.1,0.5-0.2,0.7-0.3c0.3-0.1,0.5-0.1,0.7,0c0.2,0.1,0.5,0.3,0.6,0.5c0.2,0.2,0.3,0.5,0.3,0.8
						c0,0.3,0,0.6-0.1,0.9c0,0.1-0.1,0.1-0.1,0.2l0.5,0.8c1.7,3.2,3.5,6.3,5.8,9.1c1.3,1.6,2.7,3.1,4.3,4.4l0.2,0.2
						c0.1,0.1,0.3,0.2,0.4,0.4c0.5,0.4,1,1,1.5,1c0.2,0,0.3,0,0.4,0c0.3,0,0.5-0.1,0.8,0.1c0.2,0.1,0.4,0.2,0.6,0.6
						c0.1,0.2,0.2,0.5,0.2,0.8c0,0.3-0.1,0.6-0.2,0.8c-0.3,0.5-0.6,0.8-0.9,0.9c-0.4,0.2-0.8,0.2-1.3,0.1c-1.1-0.2-2.3-1.2-3.1-1.9
						l-0.1-0.1c-1.7-1.4-3.3-3.1-4.7-4.8c-2.4-3.1-4.6-6.7-5.7-10.6c-0.8,0.6-1.8,0.8-2.8,0.9c-1.5,0.1-3-0.4-4.2-1
						c-2.5-1.3-4.1-3.9-4.8-6.8c-0.8-3.4-0.6-7.3,0.5-10.4c0-0.1,0.1-0.2,0.1-0.3c-3.3-9.3-4.3-19.5-4-29.4c0.1-4.6,0.4-9.5,1.4-14
						c0.4-2,1.2-3.9,2.4-5.5c0.7-0.9,1.5-1.6,2.4-2.3c0.7-0.6,1.5-1.2,2.1-2l0.3-0.4c0.1-0.1,0.1-0.2,0.2-0.2
						c1.1-1.3,2.1-2.6,3.4-3.7c1.5-1.3,3.2-2.2,4.9-3.1c3.7-1.8,7.8-2.8,11.8-3.6c8.6-1.8,17.5-1.9,26,0.6c4,1.2,7.8,2.7,11.7,4.3
						c0.4,0.1,0.7,0.3,1.1,0.4c3,1.2,6,2.4,9,3.7c1.4,0.6,2.8,1.1,4.2,1.7c0.3,0.1,0.6,0.4,0.8,0.7c0.2,0.3,0.2,0.7,0.1,1.1
						c-0.9,2.4-1.9,4.7-3.2,6.8c0.5,0.3,0.8,0.8,1.1,1.3c0.4,0.7,0.6,1.5,0.6,2.3c0,2.9-2.3,4.8-4.2,6.2c-0.2,0.1-0.4,0.2-0.5,0.2
						c1.9,8,3.7,16,5.2,24.1l0.1,0.6c1.6,8.5,2.6,17.1,1.1,25.7c-1.3,7.4-4.2,14.5-8.9,20C-562.2-2597.7-568.3-2594.3-574.9-2593.5z
						 M-615.5-2642.2c-0.8-2.9-1.2-6-0.9-8.9c0.2-1.8,0.7-3.6,1.5-5.2c0.5-0.9,1-1.8,1.6-2.6l0.2-0.3c0.1-0.1,0.2-0.3,0.2-0.4
						c0-0.1,0-0.2-0.1-0.3c-0.1-0.3-0.3-0.5-0.5-0.8c-0.1-0.2-0.2-0.3-0.3-0.5c-1.8-2.7-3.1-5.9-2.7-9.3c0.4-3.3,2.4-6.4,4.4-8.7
						c4.6-5.1,11.6-6.3,17.8-6c3.6,0.2,7.2,0.9,10.6,2.1c1.7,0.6,3.3,1.4,5,2.2l0.4,0.2c0.2,0.1,0.4,0.2,0.6,0.3
						c1.3,0.7,2.5,1.4,3.9,1.8c2.7,0.7,4.5-0.8,6.4-2.4c0.7-0.5,1.3-1.1,2-1.5l0.1-0.1c1.3-0.8,2.8-1.4,4.2-1.3
						c1.3,0,2.5,0.5,3.5,1.5c0.2,0.2,0.3,0.5,0.4,0.7c0.1,0.2,0.2,0.4,0.3,0.6c0.4,1.5,0.7,3,1.1,4.5l0.3-0.2
						c0.9-0.6,1.8-1.3,2.2-2.4c0.2-0.4,0.1-1.1-0.1-1.6c-0.1-0.2-0.2-0.3-0.3-0.4c-0.1-0.1-0.2-0.1-0.3-0.1c-0.3,0-0.6,0-0.9-0.1
						c-0.3-0.1-0.5-0.4-0.7-0.6c-0.2-0.3-0.2-0.6-0.2-0.9c0-0.3,0.1-0.6,0.4-0.9c1.5-1.9,2.7-3.9,3.6-6.2l-6.2-2.6
						c-2.2-0.9-4.4-1.8-6.6-2.7l-1.2-0.5c-4-1.6-8-3.2-12.2-4.3c-8.3-2.1-16.9-1.6-25.2,0.4l-0.5,0.1c-3.5,0.8-7,1.9-10.2,3.6
						c-1.6,0.9-3,1.9-4.3,3.3c-0.6,0.6-1.1,1.2-1.6,1.9c-0.7,0.9-1.4,1.8-2.3,2.6l-0.8,0.7c-1.2,1.1-2.2,2.1-2.9,3.7
						c-0.7,1.7-1,3.6-1.3,5.4c-0.7,4.6-0.9,9.3-0.9,14c0,7.9,1.1,15.6,2.5,23.3c1.1-1.7,2.6-3.1,4.6-3.4c1.3-0.2,2.5,0.1,3.6,0.7
						C-616.6-2643.3-616-2642.8-615.5-2642.2z M-617.6-2632.9c-1.4-0.6-2.9-0.8-4.4-0.5c-0.2,0-0.3,0-0.4-0.1
						c-0.1-0.1-0.2-0.2-0.3-0.4c-0.1-0.2-0.1-0.4,0-0.5c0-0.1,0.1-0.3,0.3-0.4c1.6-0.9,3.5-1.3,5.3-1l0.2,0c0.9,0.2,2.2,0.5,3.2,1.1
						c0.8,0.5,1.3,1.2,1.5,2.1c0.1,0.5,0,1-0.3,1.3c-0.2,0.3-0.6,0.6-1.1,0.6c-0.8,0-1.3-0.4-1.9-0.9c-0.1-0.1-0.1-0.1-0.2-0.2
						C-616.3-2632.2-616.9-2632.6-617.6-2632.9z"/>
				</g>
			</g>
		</g>
		<g id="Eyes-Closed.svg2" transform="matrix(0.76459,0,0,0.76459,1390.19,1160.21)" class="st1">
			<g transform="matrix(1,0,0,1,-144.5,-146.5)">
				<g id="face-Eyes-Closed2">
					<path id="_xD83D__xDD8D_-Ink5" class="st4" d="M-611.8-2473.4l0.1,0c1.2-0.3,2.3-0.7,3.4,0.1c1,0.8,1.2,2.2,0.4,3.3
						c-0.8,1.1-2,1-3.1,1l-0.1,0c-1,0-2,0-2.9-0.1c-0.9-0.1-1.8-0.2-2.7-0.4l-0.5-0.1c-0.5-0.1-1.1-0.3-1.4-0.9
						c-0.5-1,3.1-1.8,3.6-2C-614-2472.9-612.9-2473.2-611.8-2473.4z M-609.8-2485.8c-0.6,0.7-1.3,1.1-2.2,1.4
						c-2.2,0.7-4.9,0.3-6.7-0.4c-0.4-0.2-0.7-0.5-0.9-0.8c-0.2-0.4-0.2-0.8-0.1-1.2c0-0.1,0.1-0.2,0.1-0.4c0.1-0.3,0.4-0.6,0.7-0.7
						c0.3-0.1,0.7-0.2,1-0.1c0,0,0.1,0,0.1,0c1.1,0.4,2.9,1,4.5,0.9c0.9-0.1,1.7-0.4,2.1-1.4c0.2-0.5,0.2-1,0-1.4
						c-0.3-0.7-0.9-1.3-1.4-1.7c-0.7-0.6-1.4-0.8-2.2-1c-0.3-0.1-0.6-0.2-0.9-0.3c-0.1,0-0.2-0.1-0.2-0.2c-0.1-0.1-0.1-0.2-0.1-0.3
						c0-0.1,0-0.2,0.1-0.3c0-0.1,0.1-0.2,0.2-0.2c1.5-0.7,3.4-0.3,4.9,0.9c0.7,0.6,1.3,1.3,1.7,2.2c0.3,0.8,0.5,1.6,0.4,2.5
						C-608.9-2487.2-609.3-2486.4-609.8-2485.8z M-634.3-2502.5c0.4-0.2,0.8,0.8,0.9,1l0.2,0.5c0.3,0.9,0.6,1.8,1.2,2.4
						c0.5,0.5,1.3,1,1.9,0.4c0.6-0.6,0.3-1.3,0.4-2c0.2-1.4,1.8-2.7,2.8-1.3c2.2,3.2-1.2,7.6-4.4,6.8c-1.6-0.4-2.9-1.8-3.5-3.6
						l0-0.1C-635.2-2499.4-635.5-2501.9-634.3-2502.5z M-605.4-2500.3L-605.4-2500.3c-1.1-2.8,2.7-3.9,3-1.5l0,0.2
						c0.3,2.7-0.3,6.3-3.3,6.6c-3.3,0.3-4.7-3.8-4.4-6.9c0.1-0.5,0.6-0.6,0.8-0.1l0,0.1c0.5,1.5,1,4.5,2.9,4.5
						C-605-2497.4-605-2499.3-605.4-2500.3z M-603-2508.1c1.9-0.1,1.9,3.3,0,3.3c-6.4,0.2-12.8,0.4-19.1,0.4l-1.2,0
						c-6,0-12,0.1-18-0.4c-0.5,0-0.4-0.8,0-0.8c6.3-1,12.6-1.3,18.9-1.7C-615.9-2507.6-609.4-2507.8-603-2508.1z"/>
				</g>
			</g>
		</g>
	</g>
</g>
</svg>
