<?xml version="1.0" encoding="utf-8"?>
<!-- Generator: Adobe Illustrator 24.2.0, SVG Export Plug-In . SVG Version: 6.00 Build 0)  -->
<svg version="1.1" id="图层_1" xmlns="http://www.w3.org/2000/svg" xmlns:xlink="http://www.w3.org/1999/xlink" x="0px" y="0px"
	 viewBox="0 0 85.04 85.04" style="enable-background:new 0 0 85.04 85.04;" xml:space="preserve">
<style type="text/css">
	.st0{fill-rule:evenodd;clip-rule:evenodd;}
	.st1{fill:none;}
	.st2{fill-rule:evenodd;clip-rule:evenodd;fill:#FFFFFF;}
</style>
<g>
	<g transform="matrix(0.4441,0,0,0.39775,0,0)">
		<path class="st0" d="M158.18,109.45c-0.02,0.16-0.16,0.26-0.25,0.52c-0.02,0.07-0.04,0.15-0.06,0.24
			c-0.06,0.29-0.17,0.61-0.26,0.99c-0.08,0.31-0.14,0.66-0.24,1.03c-1.44,5.78-6.05,17.72-8.78,26.53c-0.71,2.3-1.37,4.36-1.67,6.1
			c-0.1,0.59-0.13,1.13-0.17,1.63c-0.07,0.4,0.16,0.8,0.52,0.88c0.36,0.08,0.71-0.18,0.78-0.58c0.12-0.41,0.3-0.82,0.44-1.3
			c0.44-1.48,0.91-3.32,1.53-5.33c2.64-8.52,6.99-20.46,8.61-26.7c0.18-0.7,0.35-1.33,0.43-1.89c0.08-0.53,0.13-0.99,0.08-1.36
			c-0.07-0.46-0.19-0.73-0.34-0.94c-0.05-0.19-0.23-0.3-0.4-0.25C158.23,109.06,158.13,109.26,158.18,109.45z"/>
	</g>
	<g transform="matrix(0.4441,0,0,0.39775,0,0)">
		<path class="st0" d="M162.4,111.62c0.02-0.01,0.03-0.03,0.05-0.04c0.13-0.14,0.13-0.37,0.01-0.52c-0.07-0.14-0.28-0.21-0.62,0.1
			c-0.14,0.13-0.43,0.41-0.73,0.97c-0.39,0.73-0.71,1.9-1.13,3.16c-0.91,2.74-1.9,6.06-2.33,7.43c-1.72,5.55-4.09,11.15-5.77,16.88
			c-0.59,2.01-1.14,4.02-1.44,6.07c-0.08,0.52-0.11,1.05-0.15,1.57c-0.06,0.38,0.16,0.75,0.51,0.83c0.34,0.07,0.68-0.18,0.74-0.57
			c0.11-0.39,0.24-0.77,0.34-1.17c0.24-0.9,0.44-1.82,0.68-2.74c0.51-1.94,1.08-3.88,1.71-5.81c1.58-4.89,3.44-9.73,4.87-14.51
			c0.41-1.37,1.41-4.68,2.24-7.44c0.37-1.24,0.79-2.35,0.96-3.16c0.11-0.54,0.1-1.07,0.1-1.07L162.4,111.62z M162.33,111.66
			c-0.06,0.02-0.13,0.02-0.19,0C162.2,111.71,162.26,111.72,162.33,111.66z"/>
	</g>
	<g transform="matrix(0.4441,0,0,0.39775,0,0)">
		<path class="st0" d="M148.15,150.07c-0.06-0.14-0.16-0.4-0.21-0.59c-0.18-0.62-0.24-1.41-0.43-1.77c-0.11-0.2-0.22-0.3-0.34-0.35
			c-0.01-0.03-0.02-0.05-0.03-0.08c0.03-0.08-0.53-0.48-0.86,0.56c-0.04,0.12,0,0.28,0.01,0.45c0.06,0.73,0.28,1.79,0.53,2.42
			c0.17,0.45,0.42,0.72,0.63,0.84c0.36,0.21,0.96,0.12,1.57-0.45c0.64-0.59,1.46-1.69,1.95-2.45c0.07-0.11,0.14-0.22,0.18-0.32
			c0.06-0.16,0.03-0.27,0.06-0.36c0.22-0.25,0.22-0.65,0-0.9c-0.22-0.25-0.58-0.25-0.8,0c-0.11,0.05-0.25,0.1-0.44,0.26
			c-0.09,0.08-0.17,0.21-0.26,0.34C149.29,148.28,148.59,149.72,148.15,150.07z M148.1,150.11L148.1,150.11
			c-0.07-0.04-0.32-0.18-0.26-0.06C147.9,150.17,147.99,150.18,148.1,150.11z"/>
	</g>
	<g transform="matrix(0.4441,0,0,0.39775,0,0)">
		<path class="st0" d="M158.68,110.07c-0.01,0.02-0.02,0.07-0.02,0.07s-0.06,0.15,0.08,0.29c0.1,0.1,0.28,0.17,0.48,0.25
			c0.7,0.3,1.75,0.64,2.56,0.78c0.22,0.04,0.43,0.12,0.6,0.06c0.09-0.03,0.11-0.06,0.17-0.12c0.38,0,0.69-0.35,0.69-0.77
			c0-0.43-0.31-0.77-0.69-0.77c-0.04-0.06,0.01-0.08-0.05-0.12c-0.13-0.09-0.33-0.06-0.53-0.09c-0.92-0.17-2.15-0.58-2.79-0.62
			c-0.07,0-0.13-0.01-0.19,0.01c-0.37,0.18-0.36,0.17-0.42,0.3c-0.18,0.04-0.29,0.23-0.26,0.43
			C158.35,109.97,158.51,110.09,158.68,110.07z"/>
	</g>
	<g transform="matrix(0.388553,0,0,0.308033,16.1983,188.966)">
		<path class="st0" d="M31.88-532.82c-0.03-0.44-0.24-0.66-0.59-0.99c-0.26-0.25-0.66-0.33-1.12-0.38c-0.94-0.1-2.24,0.28-3.69,0.78
			c-4.34,1.5-10.05,4.81-11.08,5.52c-5.38,3.74-10.57,8.31-14.26,14.46c-2.54,4.24-4.43,9.21-5.09,15.18
			c-0.15,1.36-0.25,2.78-0.23,4.25c0.01,0.92,0.08,1.86,0.17,2.82c0.02,0.81,0.57,1.45,1.21,1.42c0.64-0.03,1.15-0.72,1.12-1.53
			c0.03-0.89,0.1-1.75,0.15-2.6c0.08-1.33,0.18-2.61,0.34-3.84c0.66-5.35,2.21-9.86,4.44-13.71c3.4-5.87,8.24-10.27,13.27-13.92
			c0.86-0.63,5.17-3.22,8.98-5.01c1.92-0.9,3.7-1.54,4.85-1.68c0.22-0.03,0.4-0.09,0.56-0.09c0.16,0,0.23-0.22,0.35-0.15
			c0.11,0.22,0.34,0.28,0.52,0.14C31.94-532.31,31.99-532.6,31.88-532.82z"/>
	</g>
	<g transform="matrix(0.4441,0,0,0.39775,0,0)">
		<path class="st0" d="M147.06,92.13c0.14,0.08,0.18,0.18,0.32,0.23c0.23,0.09,0.45,0.12,0.65,0.2c0.35,0.15,0.62,0.39,0.86,0.69
			c0.56,0.68,0.87,1.71,1.02,2.87c0.27,2.04,0.01,4.47-0.39,6.42c-0.14,0.68-0.31,1.3-0.45,1.83c-0.07,0.27-0.1,0.53-0.18,0.74
			c-0.22,0.44-0.07,0.99,0.32,1.24c0.4,0.24,0.89,0.08,1.11-0.36c0.16-0.24,0.33-0.52,0.48-0.86c0.25-0.58,0.43-1.32,0.59-2.11
			c0.43-2.18,0.55-4.94,0.13-7.21c-0.43-2.32-1.43-4.2-3.15-4.6c-0.3-0.07-0.64-0.18-0.97-0.06c-0.16,0.06-0.24,0.14-0.38,0.25
			c-0.18,0.01-0.32,0.19-0.3,0.39C146.73,91.99,146.88,92.14,147.06,92.13z"/>
	</g>
	<g transform="matrix(0.4441,0,0,0.39775,0,0)">
		<path class="st0" d="M135.03,93.28c0.07-0.87,0.8-1.14,1.65-1.36c1.38-0.35,3.14-0.34,4-0.42c2.78-0.3,6.35-0.03,9.19,1.42
			c0.92,0.47,1.74,1.08,2.46,1.82c0.7,0.72,1.32,1.54,1.74,2.59c0.13,0.4,0.53,0.61,0.89,0.45c0.36-0.15,0.54-0.6,0.41-1
			c-0.38-1.36-1-2.52-1.82-3.45c-0.82-0.94-1.85-1.64-2.97-2.18c-3.12-1.52-7.04-1.65-10.06-1.21c-1.06,0.17-3.48,0.18-4.89,1.04
			c-0.84,0.52-1.37,1.26-1.25,2.3c0,0.2,0.15,0.36,0.33,0.36C134.89,93.65,135.03,93.48,135.03,93.28z"/>
	</g>
	<g transform="matrix(0.4441,0,0,0.39775,0,0)">
		<path class="st1" d="M134.84,92.23c-0.32,0.13-4.46-0.9-4.78-1.01c-3.97-1.36-10.76-1.4-14.88-1.55
			c-11.11-0.39-22.17,2.09-33.26,2.81"/>
	</g>
	<g transform="matrix(0.501536,0,0,0.438843,-37.8456,-95.2552)">
		<path class="st0" d="M151.39,320.18c-0.02-0.02-0.05-0.03-0.05-0.03s-0.04,0.01-0.05,0.04c-0.03,0.11-0.12,0.2-0.15,0.42
			c-0.08,0.6-0.03,1.58-0.01,2.62c0.03,1.62,0.15,3.36,0.19,4.01l1.06,17.51c0.02,0.67,0.51,1.2,1.1,1.18
			c0.59-0.02,1.05-0.58,1.04-1.26c0.02-0.95,0.05-1.9,0.03-2.85c-0.02-1.42-0.11-2.83-0.2-4.25c-0.21-3.53-0.54-7.06-0.86-10.57
			c-0.07-0.64-0.14-2.38-0.35-3.97c-0.14-1.08-0.33-2.08-0.48-2.69c-0.02-0.07-0.02-0.14-0.05-0.19c-0.21-0.37-0.3-0.48-0.41-0.54
			c-0.16-0.08-0.15-0.25-0.25-0.23c-0.18,0.04-0.32-0.17-0.4,0.02c-0.02,0.05-0.08,0.02-0.1,0.08c-0.02,0.08-0.18,0.13-0.11,0.34
			C151.32,319.95,151.34,320.08,151.39,320.18z M151.55,320.34c0.02,0.01,0.05,0.02,0.07,0.03c0.03,0.01,0.06,0.01,0.09,0.02
			C151.64,320.42,151.59,320.43,151.55,320.34z M152.09,320.1c-0.03,0.09-0.08,0.16-0.14,0.21l0.03,0c0.06,0.01,0.04-0.12,0.13-0.16
			C152.12,320.15,152.09,320.13,152.09,320.1z M151.42,320.22c0,0.03,0.02,0.05,0.04,0.06
			C151.44,320.25,151.43,320.23,151.42,320.22z"/>
	</g>
	<g transform="matrix(0.501536,0,0,0.438843,-37.8456,-95.2552)">
		<path class="st0" d="M116.87,319.64c-0.17,0.18-0.45,0.5-0.67,0.76c-0.26,0.31-0.47,0.64-0.57,0.89
			c-0.34,0.84-0.67,1.69-0.98,2.54c-0.47,1.28-0.92,2.57-1.35,3.87c-0.97,2.95-1.86,5.92-2.69,8.92c-0.41,1.5-0.82,3-1.19,4.51
			c-0.37,1.51-0.7,3.04-1.03,4.56c-0.08,0.36,0.1,0.72,0.42,0.82c0.31,0.09,0.63-0.12,0.71-0.48c0.36-1.44,0.74-2.88,1.1-4.32
			c0.55-2.16,1.08-4.32,1.66-6.47c0.65-2.38,1.32-4.76,2.05-7.11l2.1-6.44c0.06-0.18,0.23-0.42,0.39-0.67
			c0.35-0.53,0.71-1.09,0.75-1.31c0.04-0.2,0-0.35-0.08-0.43c-0.06-0.06-0.21-0.18-0.45-0.07c-0.15,0.05-0.24,0.23-0.2,0.41
			L116.87,319.64z"/>
	</g>
	<g transform="matrix(0.501536,0,0,0.438843,-37.8456,-95.2552)">
		<path class="st0" d="M109.39,350.67c-0.08-0.13-0.02-0.28-0.01-0.44c0.02-0.27,0.11-0.58,0.24-0.9c0.37-0.89,1.01-1.85,1.36-2.54
			c1.17-2.53,2.71-4.68,4.57-6.4c1.83-1.7,3.97-2.99,6.39-3.83c5.28-1.83,11.01-1.63,16.39,0.12c3.75,1.22,7.29,3.25,10.46,5.69
			c0.97,0.75,1.88,1.56,2.81,2.34c0.41,0.34,0.83,0.64,1.23,0.98c0.37,0.39,0.96,0.36,1.3-0.06c0.34-0.43,0.32-1.09-0.05-1.48
			c-0.35-0.46-0.69-0.92-1.08-1.34c-0.89-0.96-1.9-1.79-2.94-2.59c-3.36-2.58-7.24-4.45-11.23-5.63c-5.74-1.69-11.8-1.82-17.37,0.23
			c-2.6,0.96-4.9,2.4-6.85,4.29c-1.97,1.9-3.59,4.25-4.8,7c-0.37,0.89-1.17,2.19-1.38,3.28c-0.15,0.79-0.06,1.48,0.4,1.91
			c0.15,0.17,0.39,0.18,0.54,0.01C109.53,351.13,109.53,350.85,109.39,350.67z"/>
	</g>
	<g transform="matrix(0.501536,0,0,0.438843,-37.8456,-95.2552)">
		<path class="st0" d="M155.04,343.73l-0.01,0c-0.03-0.02-0.01-0.08,0.03-0.15l0.01,0.01l0.01,0.03c-0.01,0.03-0.02,0.06-0.03,0.09
			L155.04,343.73c0.06,0.02,0.06-0.03,0.04-0.11l0.01-0.03c0-0.01,0-0.03,0-0.04l0-0.01c0.05-0.08,0.12-0.17,0.16-0.21l3.89-4.19
			c1.71-1.71,3.52-3.09,5.47-4.2c1.92-1.09,3.96-1.92,6.19-2.43c5.13-1.19,11.35,0.25,16.98,3.18c3.83,2,7.35,4.73,10.14,7.77
			c1.31,1.43,2.48,2.9,3.39,4.45c0.3,0.53,0.91,0.68,1.37,0.34c0.46-0.34,0.59-1.04,0.29-1.57c-0.95-1.73-2.13-3.43-3.55-5.01
			c-2.93-3.25-6.76-6.02-10.84-8.06c-6.04-3.02-12.69-4.36-18.14-2.98c-2.36,0.61-4.54,1.51-6.55,2.76
			c-2.01,1.26-3.84,2.85-5.56,4.75l-3.68,4.52c-0.15,0.19-0.32,0.59-0.36,0.74c-0.07,0.24,0,0.4,0.01,0.43
			C154.33,343.87,154.81,344.27,155.04,343.73z"/>
	</g>
	<g transform="matrix(0.501536,0,0,0.438843,-37.8456,-95.2552)">
		<path class="st0" d="M188.27,313.62c-3.38-4.53-6.12-1.62,0.61,2.66l0.01,0.04c0.07,0.24,0.2,0.73,0.4,1.26
			c0.25,0.68,0.58,1.4,0.75,1.81l3.43,8.06c1.38,3.18,4.58,12.29,7.04,17.92c0.36,0.82,0.69,1.57,1.02,2.21
			c0.5,0.96,0.97,1.67,1.34,2.1c0.22,0.27,0.58,0.29,0.82,0.05c0.24-0.25,0.26-0.67,0.04-0.94c-0.27-0.38-0.57-0.99-0.94-1.76
			c-0.58-1.2-1.29-2.77-2.03-4.53c-2.3-5.56-4.96-12.89-6.19-15.68l-3.53-8.04c-0.18-0.39-0.48-1.12-0.79-1.74
			c-0.24-0.49-0.49-0.91-0.59-1.13l-0.02-0.04C190.41,306.61,187.24,307.3,188.27,313.62z"/>
	</g>
	<g transform="matrix(0.501536,0,0,0.438843,-37.8456,-95.2552)">
		<path class="st0" d="M156.02,332.89c-0.37,4.07-0.05,4.39,0.28,2.52c0.3,1.97,0.6,1.67,0.31-2.56l0-0.04
			c0.01-0.14,0.16-0.68,0.2-0.82l2.08-1.34c1.18-0.69,2.36-1.35,3.57-1.95c1.19-0.59,2.41-1.11,3.68-1.53
			c3.37-1.12,8.96-2.05,13.82-1.25c2.54,0.42,4.83,1.35,6.56,3c0.45,0.43,0.89,0.87,1.26,1.4c0.17,0.28,0.51,0.36,0.76,0.17
			c0.25-0.19,0.31-0.58,0.15-0.86c-0.35-0.69-0.75-1.32-1.23-1.87c-1.79-2.03-4.44-3.08-7.28-3.53c-5.06-0.81-10.88,0.43-14.36,1.7
			c-1.04,0.38-2.05,0.83-3.03,1.33c-1.47,0.74-2.89,1.59-4.31,2.48c-0.44,0.27-0.88,0.55-1.3,0.85c-0.29,0.21-0.57,0.43-0.84,0.66
			c-0.12,0.11-0.23,0.31-0.28,0.57c-0.06,0.35-0.05,0.8-0.04,0.98L156.02,332.89z"/>
	</g>
	<g transform="matrix(0.501536,0,0,0.438843,-37.8456,-95.2552)">
		<path class="st0" d="M157.92,324.34L157.92,324.34c-0.14,0.11-0.17,0.32-0.07,0.46c0,0,0.21,0.25,0.44,0.04
			c0.04-0.03,0.12-0.11,0.23-0.2c0.47-0.41,1.51-1.25,2.49-1.75c1.36-0.64,2.74-1.15,4.15-1.58c0.93-0.28,1.87-0.53,2.83-0.72
			c3.69-0.75,8.4-1.02,12.73-0.18c1.7,0.33,3.33,0.86,4.83,1.57c1.04,0.49,2.03,1.06,2.9,1.77c0.3,0.26,0.73,0.18,0.95-0.16
			c0.22-0.35,0.16-0.83-0.14-1.09c-0.94-0.83-1.99-1.54-3.13-2.1c-1.59-0.78-3.36-1.28-5.18-1.6c-4.49-0.79-9.37-0.39-13.17,0.46
			c-1.24,0.29-2.46,0.66-3.63,1.15c-1.17,0.49-2.3,1.09-3.42,1.76c-1,0.56-2.07,1.49-2.55,1.93
			C158.05,324.22,157.97,324.3,157.92,324.34L157.92,324.34z"/>
	</g>
	<g transform="matrix(0.501536,0,0,0.438843,-37.8456,-95.2552)">
		<path class="st0" d="M146.37,333.35c0.22-0.4-0.17-1.25-1.1-2.07c-1.87-1.66-5.73-3.61-6.48-3.93c-3.48-1.43-7.91-1.9-12.22-1.3
			c-2.94,0.41-5.85,1.25-8.31,2.66c-1.15,0.66-2.19,1.47-3.11,2.35c-0.19,0.16-0.23,0.46-0.09,0.68c0.14,0.21,0.4,0.26,0.59,0.1
			c0.95-0.71,2.02-1.28,3.14-1.82c2.41-1.17,5.14-2.02,7.94-2.42c4.11-0.58,8.33-0.29,11.67,1c0.57,0.21,2.91,1.36,4.82,2.53
			c0.54,0.33,1.03,0.67,1.46,0.96c0.37,0.25,0.69,0.45,0.9,0.67c0.1,0.09,0.18,0.17,0.22,0.26c0.01,0.02,0.05,0.01,0.04,0.03
			c-0.07,0.16-0.01,0.36,0.13,0.44C146.12,333.58,146.29,333.51,146.37,333.35z"/>
	</g>
	<g transform="matrix(0.501536,0,0,0.438843,-37.8456,-95.2552)">
		<path class="st0" d="M119.82,324.36c-0.06-0.03-0.1-0.06-0.12-0.09c-0.02-0.06,0.05-0.09,0.11-0.17c0.29-0.34,0.9-0.71,1.67-1.05
			c1.22-0.55,2.82-1.01,4.13-1.21l2.31-0.24c3.6-0.3,8.1-0.13,12.14,1.08c2.7,0.81,5.21,2.06,7.07,4.02
			c0.25,0.26,0.63,0.24,0.86-0.04c0.23-0.28,0.21-0.72-0.04-0.98c-2.01-2.1-4.68-3.49-7.59-4.33c-4.17-1.2-8.81-1.28-12.52-0.91
			l-2.38,0.4c-1.93,0.42-4.4,1.48-5.56,2.35c-0.92,0.69-1.07,1.36-0.33,1.77c0.14,0.08,0.32,0.01,0.39-0.15
			C120.03,324.63,119.97,324.43,119.82,324.36z"/>
	</g>
	<g transform="matrix(0.501536,0,0,0.438843,-37.8456,-95.2552)">
		<path class="st0" d="M150.2,346.34c0-0.01,0-0.04,0.03-0.09c0.2,0.09,0.42-0.03,0.49-0.26c0.02-0.05,0.02-0.1,0.02-0.15
			c0.32-0.01,0.66-0.02,1.01-0.04c0.71-0.04,1.47-0.09,2.21-0.05c0.48,0.02,0.94,0.11,1.38,0.18c0.31,0.04,0.6,0.04,0.87,0.12
			c0.38,0.18,0.81-0.03,0.97-0.46c0.16-0.43-0.03-0.93-0.41-1.11c-0.33-0.22-0.69-0.41-1.1-0.52c-0.52-0.15-1.1-0.16-1.68-0.16
			c-0.8,0-1.63,0.07-2.4,0.22c-0.56,0.1-1.07,0.26-1.54,0.38c-0.54,0.35-0.7,0.53-0.66,0.88c0.04,0.33,0.33,0.87,0.65,1.05
			c0.02,0.01,0.04,0.04,0.06,0.03C150.26,346.32,150.2,346.37,150.2,346.34z M150.28,345.86l-0.04,0
			C150.26,345.87,150.27,345.87,150.28,345.86z"/>
	</g>
	<g transform="matrix(0.501536,0,0,0.438843,-37.8456,-95.2552)">
		<path class="st0" d="M157.7,344.75c-0.04-0.6,0.18-1.16,0.5-1.75c0.61-1.14,1.7-2.31,3.04-3.35c2.85-2.2,6.68-3.91,8.59-4.06
			c5.3-0.4,10.27,0.87,14.58,3.53c2.63,1.62,4.96,3.81,7.06,6.33c1.09,1.31,2.09,2.75,3.08,4.22c0.25,0.36,0.52,0.71,0.77,1.07
			c0.23,0.42,0.72,0.55,1.09,0.28c0.37-0.26,0.48-0.82,0.25-1.24c-0.19-0.44-0.37-0.88-0.59-1.3c-0.89-1.7-1.99-3.21-3.16-4.61
			c-2.24-2.68-4.89-4.8-7.73-6.44c-4.61-2.66-9.87-3.94-15.45-3.4c-2.04,0.19-6.15,2.04-9.18,4.46c-1.5,1.2-2.78,2.52-3.35,3.88
			c-0.36,0.86-0.46,1.72-0.26,2.52c0.04,0.24,0.24,0.4,0.45,0.36C157.6,345.21,157.74,344.99,157.7,344.75z"/>
	</g>
	<g transform="matrix(0.501536,0,0,0.438843,-37.8456,-95.2552)">
		<path class="st0" d="M149.62,346c-0.01,0.04-0.01,0.06,0.02,0.03C149.65,346.01,149.64,346,149.62,346c0-0.03,0.01-0.07,0.02-0.1
			c0,0.03,0,0.06,0.01,0.09c0.05,0.23,0.26,0.38,0.47,0.32c0.18,0.05,0.24-0.14,0.29-0.61c0.01-0.09-0.01-0.24-0.1-0.52
			c-0.08-0.26-0.28-0.59-0.5-0.95c-0.57-0.93-1.38-1.94-1.5-2.05c-1.16-1.04-2.45-1.86-3.8-2.5c-1.33-0.63-2.72-1.09-4.14-1.45
			c-4.93-1.26-10.48-1.89-15.33-0.39c-1.37,0.42-2.68,1-3.9,1.81c-1.77,1.16-3.33,2.77-4.64,4.85c-0.21,0.31-0.16,0.76,0.12,1
			c0.27,0.24,0.67,0.18,0.88-0.13c1.28-1.8,2.8-3.11,4.43-4.1c1.13-0.68,2.32-1.21,3.55-1.59c4.61-1.41,9.87-0.86,14.56,0.3
			c1.33,0.32,2.64,0.75,3.9,1.32c1.24,0.56,2.42,1.27,3.5,2.19c0.1,0.09,0.75,1,1.33,1.71c0.24,0.3,0.46,0.57,0.64,0.73
			C149.48,345.98,149.58,345.98,149.62,346z M149.74,345.59c-0.09,0.06-0.16,0.12-0.1,0.27l0,0
			C149.64,345.76,149.68,345.66,149.74,345.59z"/>
	</g>
	<g transform="matrix(0.4441,0,0,0.39775,0,0)">
		<path class="st0" d="M40.2,92.56c0.12-0.03,0.3-0.05,0.46-0.11c1.76-0.67,6.29-2.51,7.06-2.7c2.94-0.77,5.6-1.08,8.21-0.88
			c1.35,0.1,2.67,0.37,4.03,0.73c1.28,0.34,2.59,0.76,3.95,1.35c0.36,0.18,0.79-0.01,0.95-0.42c0.16-0.41-0.01-0.88-0.38-1.06
			c-1.4-0.74-2.74-1.34-4.09-1.75c-1.46-0.44-2.91-0.65-4.36-0.72c-2.76-0.14-5.56,0.3-8.64,1.22c-0.78,0.25-5.42,2.23-7.09,3.27
			c-0.32,0.2-0.52,0.38-0.62,0.47c-0.31,0.33-0.18,0.61-0.07,0.68c0.04,0.03,0.15,0.14,0.34,0.08
			C40.06,92.74,40.15,92.67,40.2,92.56z M40.12,92.58c-0.04,0.01-0.06,0.03-0.05,0.06C40.09,92.69,40.11,92.64,40.12,92.58z"/>
	</g>
	<g transform="matrix(0.4441,0,0,0.39775,0,0)">
		<path class="st0" d="M57.38,93.07c0.02,0.09,0,0.08,0.06,0.14c0.04,0.04,0.12,0.01,0.18,0.02c0.18,0.05,0.35,0.15,0.6,0.18
			c0.15,0.02,0.32-0.02,0.5-0.05c1.37-0.21,3.42-1.08,4.32-1.17c1.14-0.13,2.31-0.15,3.48-0.12c1.78,0.04,3.57,0.2,5.31,0.33
			c5.26,0.41,10.49,1.02,15.71,1.73c4.71,0.64,9.4,1.39,14.1,2.12c3.14,0.49,6.27,0.94,9.41,1.42c0.52,0.08,1-0.32,1.07-0.89
			c0.07-0.58-0.28-1.11-0.8-1.19c-3.26-0.56-6.52-1.14-9.79-1.65c-3.27-0.51-6.55-0.96-9.83-1.39C85.13,91.7,78.54,91,71.93,90.59
			c-1.77-0.11-3.59-0.25-5.4-0.24c-1.23,0.01-2.46,0.1-3.66,0.29c-0.3,0.05-0.72,0.17-1.2,0.35c-1.04,0.37-2.42,0.88-3.35,1.15
			c-0.26,0.07-0.45,0.14-0.61,0.18c-0.05,0.01-0.03,0.06-0.07,0.08c-0.17-0.08-0.36,0.01-0.43,0.19
			C57.14,92.77,57.22,92.99,57.38,93.07z"/>
	</g>
	<g transform="matrix(0.4441,0,0,0.39775,0,0)">
		<path class="st0" d="M117.01,107L117.01,107l0-0.01l0.01,0c0,0,0.01-0.03,0-0.02l-0.01,0.02c-0.03,0.01-0.11-0.02-0.17-0.01
			c-1.12,0.18-4.07,0.37-5,0.4c-2.35,0.07-5.19-0.06-7.84-0.08c-1.2-0.01-2.36,0.01-3.43,0.07c-8.37,0.57-15.99,2.2-23.92,3.14
			c-3.32,0.39-6.69,0.67-10.2,0.69c-1.75,0.01-3.51-0.03-5.26-0.19c-1.73-0.16-3.45-0.43-5.14-0.91c-0.62-0.17-1.23-0.37-1.82-0.59
			c-0.91-0.34-1.8-0.71-2.68-1.16c-0.03-0.01-0.58-0.28-0.83-0.26c-0.32,0.03-0.51,0.18-0.43,0.55c0.03,0.2,0.19,0.34,0.37,0.31
			c0.05-0.01,0.09-0.03,0.12-0.05l0.4,0.24c0.72,0.47,1.45,0.91,2.2,1.29c0.76,0.38,1.54,0.69,2.35,0.97
			c1.4,0.45,2.82,0.77,4.26,0.98c2.13,0.31,4.29,0.41,6.45,0.44c3.56,0.06,7-0.15,10.37-0.49c7.92-0.81,15.52-2.38,23.86-2.86
			c0.7-0.05,1.44-0.07,2.2-0.08c2.97-0.05,6.32,0.09,9.01-0.02c0.98-0.04,4.13-0.2,5.29-0.51c0.15-0.04,0.28-0.06,0.36-0.12
			c0.3-0.22,0.47-0.33,0.5-0.5c0.05-0.34,0.28-0.56,0.09-0.78c-0.04-0.05-0.02-0.12-0.07-0.16c-0.09-0.07-0.1-0.27-0.28-0.29
			C117.55,106.81,117.24,106.82,117.01,107z M116.81,108.04l0,0.04c0,0.05,0.04,0.07,0.08,0.09l-0.04-0.05
			c-0.01-0.02-0.03-0.04-0.04-0.06L116.81,108.04z M116.73,107.48c-0.05,0.07-0.04,0.15-0.01,0.23
			C116.71,107.63,116.71,107.55,116.73,107.48z M116.94,107.06c-0.01,0-0.01,0.01-0.01,0.01L116.94,107.06z"/>
	</g>
	<g transform="matrix(0.4441,0,0,0.39775,0,0)">
		<path class="st0" d="M116.73,97.24l-0.01,0.04c0,0,0.56,0.23,0.83,0.35c0.23,0.1,0.42,0.17,0.5,0.18
			c0.43,0.08,0.86,0.08,1.29,0.02c0.62-0.08,1.23-0.28,1.81-0.53c1.8-0.75,3.36-1.31,4.8-1.61c1.77-0.36,3.34-0.35,4.89-0.04
			c1.22,0.24,2.41,0.72,3.72,1.33c1.59,0.75,3.32,1.73,5.35,3.01c0.8,0.48,1.58,0.99,2.34,1.52c1.13,0.79,2.22,1.63,3.31,2.52
			c-0.01,0.02,0.06,0.05,0.07,0.06l-0.07-0.06l0.01-0.01c0.16-0.13,0.53,0.6,0.48,0.86c-0.03,0.05-0.1,0.1-0.06,0.09
			c0.03-0.01,0.05-0.04,0.06-0.09c0.01-0.01,0.02-0.03,0.02-0.04c-0.01-0.05,0.07-0.06,0.06-0.1c-0.01-0.14,0.1-0.13,0.21-0.16
			c-0.15,0.07-0.28,0.22-0.32,0.41c-0.07,0.32,0.1,0.65,0.39,0.73c0.11,0.13,0.23,0.01,0.33,0.06c0.05,0.02,0.08-0.04,0.12-0.03
			c0.05,0.01,0.07-0.06,0.12-0.06c0.25,0,0.26-0.27,0.41-0.66c0.03-0.08,0.01-0.17,0.01-0.28c-0.02-0.65-0.62-1.83-0.85-2.03
			c-0.93-0.8-1.87-1.57-2.83-2.3c-0.97-0.74-1.97-1.43-3-2.08c-2.13-1.25-3.94-2.25-5.61-2.92c-1.44-0.58-2.78-0.91-4.1-1.07
			c-1.68-0.19-3.34-0.04-5.22,0.41c-1.47,0.35-3.08,0.86-4.94,1.62c-0.43,0.18-0.88,0.32-1.34,0.4c-0.44,0.08-0.88,0.1-1.32,0.02
			c-0.18-0.02-1.04-0.37-1.48-0.32c-0.36,0.04-0.58,0.22-0.59,0.57c-0.02,0.2,0.11,0.38,0.29,0.4
			C116.54,97.46,116.67,97.37,116.73,97.24z M146.57,104.54c-0.04-0.03-0.07-0.07-0.1-0.03c-0.02,0.02-0.04,0.03-0.06,0.05
			C146.46,104.54,146.51,104.54,146.57,104.54z"/>
	</g>
	<g transform="matrix(0.4441,0,0,0.39775,0,0)">
		<path class="st0" d="M133.78,100.21c-0.02,0.18,0.19,0.41,0.62,0.5l0.08,0.03c0.24,0.09,0.94,0.35,1.02,0.38l2.93,1.2
			c1.46,0.53,3.44,1.05,5.17,1.9c0.47,0.23,0.93,0.49,1.35,0.79l-2.57-0.45c-1.3-0.26-2.9-0.29-4.46-0.52
			c-0.36-0.11-0.72-0.2-1.08-0.28c-0.32-0.07-0.63-0.14-0.95-0.2c-0.22-0.07-0.44-0.14-0.66-0.21c-0.31-0.09-0.61-0.15-0.89-0.26
			l-0.1-0.04c-0.21-0.09-0.34,0.07-0.36,0.09c-0.02,0.02-0.14,0.32,0.17,0.55l0.05,0.04l0.01,0.01c0.02,0.02,0.02,0.02,0.04,0.04
			l0.06,0.03c0.19,0.14,0.38,0.27,0.6,0.37c0.26,0.12,0.54,0.18,0.83,0.26c0.63,0.17,1.31,0.27,1.99,0.4l1.05,0.2
			c0.74,0.29,1.46,0.61,2.17,0.95c1.36,0.66,2.68,1.4,4.04,2.06c0.19,0.09,0.71,0.23,1.18,0.44c-0.05,0-0.1,0.01-0.16,0.01
			c-0.97,0.02-2.13-0.22-2.27-0.22c-1.85-0.03-6.59-1.39-9.68-1.72c-0.68-0.07-1.29-0.11-1.76-0.04c-0.32,0.05-0.58,0.14-0.77,0.25
			c-0.08,0.03-0.13,0.14-0.1,0.23c0.03,0.09,0.12,0.14,0.21,0.11c0.18-0.04,0.4-0.01,0.68,0c0.45,0.02,1.02,0.06,1.67,0.15
			c3.09,0.42,7.88,1.62,9.74,1.64c0.13,0,1.29,0.11,2.23,0.28c0.41,0.07,0.76,0.17,1.02,0.2c0.6,0.07,0.78-0.44,0.82-0.64
			c0.02-0.35-0.14-0.68-0.43-0.95c-0.52-0.47-1.68-0.65-2.01-0.78c-0.72-0.29-1.44-0.59-2.16-0.9l2.11,0.59
			c0.04,0.01,1.22,0.11,1.65,0.05c0.61-0.09,0.76-0.63,0.77-0.82c0.01-0.19-0.02-0.4-0.16-0.6c-0.8-1.11-1.98-1.93-3.31-2.52
			c-1.8-0.81-3.87-1.22-5.39-1.69l-3.02-0.82c-0.1-0.03-0.85-0.18-1.1-0.24l-0.06-0.01C134.06,99.83,133.72,99.98,133.78,100.21z
			 M146.64,108.78c-0.01,0.03-0.03,0.07-0.02,0.05C146.64,108.82,146.65,108.8,146.64,108.78z M146.37,105.22
			c0.17-0.01,0.29-0.05,0.27-0.17C146.62,104.89,146.42,105.17,146.37,105.22z"/>
	</g>
	<g transform="matrix(0.4441,0,0,0.39775,0,0)">
		<path class="st0" d="M141.07,109.53L141.07,109.53c-0.02-0.1-0.31,0.07-0.35,0.08c-0.9,0.28-1.86,0.61-2.83,0.78
			c-0.63,0.11-1.26,0.16-1.87,0.1c-1.97-0.31-3.92-0.79-5.9-1.19c-1.98-0.41-3.97-0.77-5.96-1.06c-1.21-0.18-2.43-0.36-3.64-0.38
			c-0.53-0.01-1.05,0.05-1.58,0.09c-0.37-0.01-0.68,0.31-0.69,0.73c-0.01,0.42,0.28,0.76,0.65,0.77c0.4,0.07,0.78,0.17,1.18,0.23
			c0.39,0.06,0.78,0.09,1.18,0.13c2.21,0.23,4.42,0.55,6.64,0.86c0.96,0.14,1.92,0.26,2.88,0.36c1.74,0.18,3.47,0.28,5.19,0.32
			c0.67,0.05,1.36-0.03,2.05-0.18c0.99-0.2,1.98-0.55,2.89-0.85c0.03-0.01,0.22-0.05,0.3-0.07c0.02,0,0.04-0.01,0.04-0.01
			c0.02,0,0.04-0.01,0.04-0.01c0.27-0.12,0.21-0.4,0.19-0.45C141.42,109.57,141.24,109.47,141.07,109.53z"/>
	</g>
	<g transform="matrix(0.477425,0,0,0.39775,-25.6813,0)">
		<path class="st0" d="M199.67,96.82c-0.26,0.38-0.26,0.94,0.03,1.31c0.31,0.4,0.83,0.42,1.17,0.05c0.38-0.25,0.54-0.88,0.38-1.86
			c-0.12-0.73-0.68-1.8-1.42-3.04c-2.58-4.34-8.01-11.05-8.71-11.88c-4.34-4.96-9.93-10.53-16.11-14.11
			c-2.87-1.66-5.86-2.94-8.93-3.45c-1.2-0.2-2.43-0.44-3.63-0.23c-0.14,0.03-0.26,0.09-0.4,0.14c-0.17,0-0.3,0.16-0.3,0.36
			c0,0.2,0.14,0.36,0.3,0.36c0.14,0.05,0.25,0.11,0.39,0.15c1.14,0.26,2.3,0.31,3.44,0.6c2.9,0.72,5.73,2,8.44,3.71
			c5.91,3.73,11.21,9.33,15.3,14.31c0.78,0.91,7.38,9.34,9.38,13.06c0.2,0.36,0.35,0.65,0.43,0.87c0.01,0.02,0.04,0.01,0.04,0.01
			s0.05-0.06,0.04-0.09C199.51,96.96,199.6,96.89,199.67,96.82z"/>
	</g>
	<g transform="matrix(0.4441,0,0,0.39775,0,0)">
		<path class="st0" d="M170.03,99.8c0.01,0,0.01,0.01,0.02,0.03c0.01,0.08-0.06,0.08-0.15,0.06l0.05-0.04
			c0.02-0.01,0.05-0.03,0.07-0.04L170.03,99.8c-0.03-0.01-0.09,0.04-0.14,0.09h0.01c-0.03,0.02-0.05,0.05-0.07,0.07
			c0.02-0.02,0.04-0.05,0.07-0.07c-0.09-0.02-0.21-0.06-0.27-0.05c-1.24,0.19-2.62,0.25-4.06,0.24c-3.27-0.03-6.84-0.41-9.76-0.42
			c-0.33,0-0.67,0.05-1.01,0.12c-0.77,0.17-1.56,0.44-2.28,0.53c-0.17,0.02-0.33,0.01-0.48,0.07c-0.08,0.03-0.02,0.09-0.1,0.11
			c-0.09,0.03-0.19-0.01-0.28-0.03c-0.16-0.09-0.36-0.03-0.44,0.15c-0.08,0.18-0.03,0.4,0.13,0.49c0.1,0.11,0.25,0.13,0.33,0.26
			c0.05,0.09-0.01,0.06,0.04,0.15c0.07,0.11,0.19,0.13,0.31,0.18c0.25,0.11,0.53,0.12,0.81,0.11c0.96-0.02,2-0.59,2.96-0.57
			c2.92,0.05,6.48,0.48,9.76,0.55c1.52,0.03,2.98-0.01,4.3-0.2c0.21-0.03,0.49,0,0.71-0.09c0.15-0.06,0.28-0.15,0.4-0.28
			c0.31-0.34,0.32-0.9,0.01-1.25C170.69,99.7,170.32,99.64,170.03,99.8z"/>
	</g>
	<g transform="matrix(0.4441,0,0,0.39775,0,0)">
		<path class="st0" d="M10.96,102.48c-0.19-0.07-0.41,0.01-0.52,0.21c-0.05,0.07-0.17,0.56,0.32,0.76c0.06,0.03,0.2,0.07,0.39,0.12
			c0.19,0.05,0.44,0.12,0.72,0.18c0.96,0.18,2.29,0.27,2.91,0.33c1.57,0.09,3.15,0.14,4.73,0.14c3.66,0.02,7.35-0.12,10.97-0.09
			c0.34,0,0.62-0.3,0.63-0.69c0-0.38-0.27-0.7-0.62-0.7c-3.62-0.04-7.31,0.07-10.97,0.04c-1.56-0.01-3.12-0.05-4.67-0.14
			c-0.61-0.02-1.92-0.16-2.87-0.19c-0.28-0.01-0.53,0.01-0.72,0.01c-0.16,0-0.32,0.01-0.32,0.01L10.96,102.48z M11.08,102.54
			c0.15,0.11,0.21,0.31,0.18,0.5C11.31,102.87,11.31,102.67,11.08,102.54z"/>
	</g>
	<g transform="matrix(0.4441,0,0,0.39775,0,0)">
		<path class="st0" d="M126.27,24.41c0.02,0.01,0.05,0.02,0.09,0.03c0.16,0.01,0.35-0.05,0.57-0.07c0.25-0.02,0.53-0.02,0.82-0.03
			c0.77-0.03,1.65-0.03,2.39,0.01c-1.48,2.02-4.65,5.98-5.29,8.12c-0.27,0.92-0.15,1.64,0.12,2.18c0.22,0.45,0.61,0.79,1.24,0.98
			c0.33,0.1,0.76,0.09,1.31,0.01l3.05-0.33c1.14-0.13,2.28-0.06,3.4-0.34c0.14-0.04,0.23-0.12,0.36-0.18c0.64,0,1.15-0.57,1.15-1.28
			c0-0.71-0.52-1.28-1.15-1.28c-0.14-0.07-0.23-0.14-0.38-0.17c-0.29-0.07-0.59,0-0.88,0.02c-0.92,0.06-1.83,0.22-2.76,0.34
			l-3.09,0.44c1.03-2.53,4.87-6.92,5.52-8.06c0.11-0.2,0.36-0.72,0.4-1.1c0.04-0.36-0.03-0.67-0.16-0.93
			c-0.09-0.18-0.49-0.65-1.28-0.79c-1.01-0.18-3.32-0.29-4.83,0c-0.51,0.1-0.96,0.2-1.24,0.4c-0.06,0.04-0.12,0.06-0.15,0.11
			c-0.11,0.23-0.12,0.17-0.16,0.37c-0.11,0.48-0.48,0.64-0.32,0.96c0.04,0.09,0.01,0.19,0.08,0.27c0.15,0.17,0.27,0.44,0.74,0.5
			c0.15,0.11,0.35,0.06,0.45-0.11C126.25,24.44,126.26,24.43,126.27,24.41z M126.76,32.95c-0.04-0.06-0.07-0.1-0.08-0.04
			C126.67,32.95,126.7,32.96,126.76,32.95z M126.25,24.06c0.01-0.08-0.07-0.21-0.03-0.31c0.02-0.06-0.09-0.14-0.09-0.14
			s-0.06,0.01-0.05,0.04c0.02,0.09,0.01,0.18,0.08,0.3C126.19,23.98,126.22,24.01,126.25,24.06z"/>
	</g>
	<g transform="matrix(0.4441,0,0,0.39775,0,0)">
		<path class="st0" d="M135.86,13.67l0,0.02l0.65,0.05c0.32-0.02,1.08-0.16,2.01-0.35c0.81-0.17,1.76-0.38,2.6-0.52
			c-0.8,1.08-1.62,2.41-2.15,3.65c-0.43,1.01-0.66,1.98-0.64,2.77c0.02,0.89,0.34,1.61,0.93,2.12c0.5,0.43,1.28,0.72,2.45,0.65
			l2.15-0.22c0.83-0.14,1.7-0.06,2.49-0.36c0.12-0.04,0.15-0.13,0.26-0.21c0.53,0,0.96-0.48,0.96-1.07c0-0.59-0.43-1.07-0.96-1.07
			c-0.12-0.09-0.19-0.15-0.33-0.2c-0.1-0.03-0.22-0.01-0.32-0.01c-0.81,0.01-1.61,0.17-2.41,0.27l-1.98,0.25
			c-0.31,0.03-0.57,0.02-0.78-0.04c-0.07-0.02-0.13-0.01-0.16-0.06c-0.09-0.22-0.03-0.52,0.05-0.84c0.4-1.65,1.75-3.76,2.78-5.03
			c0.02-0.03,0.51-0.57,0.69-0.8c0.6-0.78,0.1-1.6,0.01-1.69c-0.32-0.34-1.12-0.63-2.2-0.52c-1.18,0.12-2.81,0.5-4.07,0.85
			c-0.72,0.2-1.3,0.4-1.56,0.44l-0.54,0.13c-0.44,0.02-0.78,0.43-0.78,0.92c0.01,0.49,0.36,0.89,0.8,0.9L135.86,13.67z"/>
	</g>
	<g transform="matrix(0.4441,0,0,0.39775,0,0)">
		<path class="st0" d="M155.7,1.98c-0.65,0.09-1.81,0.24-2.79,0.38c-0.65,0.1-1.36,0.29-2.05,0.51c-0.58,0.18-1.15,0.37-1.69,0.46
			c-0.06,0.01-0.12,0.02-0.18,0.05c-0.12,0.07-0.06,0.17-0.18,0.24c-0.09,0.06-0.18,0.07-0.27,0.12c-0.16,0.1-0.08,0.13-0.22,0.26
			c-0.17-0.05-0.35,0.06-0.4,0.25c-0.05,0.19,0.05,0.4,0.22,0.45c0.05,0.22,0,0.15,0.12,0.33c0.11,0.16,0.29,0.13,0.43,0.27
			c0.14,0.13,0.13,0.2,0.3,0.29c0.07,0.04,0.16,0.01,0.24,0.01c0.68,0.01,1.42-0.11,2.16-0.29c0.61-0.14,1.21-0.33,1.78-0.4
			l0.51-0.06c-0.37,0.92-0.69,1.81-0.79,2.05c-0.43,0.95-1.98,3.04-2.71,4.59c-0.35,0.73-0.53,1.4-0.53,1.87
			c0,0.11,0.45,1.43,1.64,1.17c0.79-0.17,2.78-0.7,2.86-0.72c1.33-0.38,2.83-1.04,4.33-1.51c0.72-0.22,1.44-0.35,2.12-0.46
			c0.14-0.02,0.27-0.03,0.4-0.09c0.06-0.03,0.05-0.07,0.1-0.12c0.59,0,1.07-0.54,1.07-1.2c0-0.66-0.48-1.19-1.07-1.19
			c-0.06-0.06-0.08-0.09-0.16-0.12c-0.2-0.09-0.42-0.04-0.64-0.03c-0.57,0.03-1.15,0.2-1.73,0.37c-1.72,0.51-3.49,1.39-5.02,1.9
			c-0.03,0.01-0.38,0.11-0.84,0.25c0.79-1.36,1.82-2.82,2.16-3.58c0.17-0.37,2.01-2.56,1.73-3.5c1.92-0.34,2.18-1.3,1.53-1.97
			c-0.19-0.4-0.69-0.7-1.6-0.67c-0.09-0.01-0.17-0.01-0.26-0.01l-0.17,0.01C155.97,1.89,155.84,1.92,155.7,1.98z"/>
	</g>
	<g transform="matrix(0.4441,0,0,0.39775,0,0)">
		<path class="st0" d="M40.55,97.7c-0.47-0.47-0.99-1.12-1.56-1.62c-0.45-0.4-0.95-0.68-1.46-0.8c-0.73-0.14-1.59,0.06-2.51,0.55
			c-1.34,0.71-2.84,2.06-4.29,3.67c-1.92,2.11-3.81,4.64-5.08,6.81c-0.81,1.37-1.35,2.61-1.62,3.42c-0.12,0.29,0,0.64,0.26,0.77
			c0.26,0.13,0.57,0,0.69-0.29c0.33-0.72,1.01-1.75,1.83-2.99c1.33-2.03,3.06-4.55,4.9-6.62c1.33-1.5,2.68-2.76,3.89-3.48
			c0.66-0.38,1.25-0.63,1.78-0.56c0.37,0.03,0.73,0.2,1.08,0.43c0.61,0.4,1.19,0.93,1.71,1.31c0.14,0.12,0.35,0.09,0.46-0.07
			C40.72,98.05,40.69,97.82,40.55,97.7z"/>
	</g>
	<g transform="matrix(0.4441,0,0,0.39775,0,0)">
		<path class="st0" d="M35.43,103.85l0.01,0.02c0.12,0.15,0.32,0.17,0.46,0.04c0.07-0.07,0.11-0.17,0.11-0.26
			c0.12-0.06,0.45-0.24,0.65-0.27c0.19-0.03,0.33,0,0.43-0.03c0.34-0.07,0.34-0.44,0.36-0.56c0.02-0.14-0.04-0.48-0.52-0.61
			c-0.19-0.05-0.43-0.06-0.72-0.02c-0.56,0.08-1.31,0.41-2.15,0.88c-1.62,0.89-3.62,2.36-5.29,3.93c-1.26,1.18-2.37,2.41-2.96,3.5
			c-0.48,0.9-0.64,1.7-0.46,2.29c0.05,0.24,0.27,0.39,0.49,0.34c0.22-0.06,0.35-0.3,0.3-0.54c-0.05-0.4,0.23-0.84,0.6-1.39
			c0.63-0.94,1.64-2.05,2.83-3.11c1.62-1.47,3.53-2.88,5.06-3.77C34.92,104.12,35.18,103.98,35.43,103.85z M36.44,102.6
			c0.12-0.08,0.27-0.19,0.22-0.25C36.54,102.21,36.47,102.42,36.44,102.6z"/>
	</g>
	<g transform="matrix(0.4441,0,0,0.39775,0,0)">
		<path class="st0" d="M40.33,105.27c-0.09-0.02-0.22-0.07-0.34-0.07c-0.46-0.01-1.13,0.07-1.96,0.31c-1.05,0.35-2.1,0.76-3.12,1.23
			c-1.02,0.47-2.01,1.01-2.99,1.56c-0.25,0.16-2.59,1.39-3.54,2.49c-0.61,0.71-0.7,1.41-0.39,1.74c0.15,0.22,0.43,0.26,0.63,0.09
			c0.15-0.12,0.21-0.33,0.16-0.52l0,0.01c0,0,0.05-0.02,0.08-0.04c0.13-0.15,0.36-0.29,0.61-0.48c1.1-0.8,2.87-1.78,3.09-1.9
			c1.13-0.66,2.29-1.28,3.47-1.85c0.78-0.38,1.57-0.74,2.37-1.05c0.5-0.2,0.94-0.29,1.29-0.38c0.49-0.13,0.82-0.24,0.98-0.33
			c0.23-0.13,0.35-0.26,0.35-0.42c0-0.11,0.02-0.29-0.14-0.44c-0.11-0.16-0.32-0.19-0.47-0.06
			C40.38,105.19,40.35,105.22,40.33,105.27z M40.42,105.29c0.03,0,0.05,0,0.04-0.03C40.46,105.22,40.44,105.25,40.42,105.29z"/>
	</g>
	<g transform="matrix(0.4441,0,0,0.39775,0,0)">
		<path class="st0" d="M43.8,108.25c-0.15-0.05-0.29-0.13-0.51-0.15c-0.48-0.05-1.14,0.11-1.9,0.25c-1.56,0.29-3.55,0.82-5.35,1.42
			c-1.36,0.45-2.62,0.93-3.49,1.43c-0.86,0.5-1.35,1.05-1.44,1.4c-0.09,0.26,0.02,0.56,0.25,0.66c0.23,0.1,0.5-0.02,0.59-0.28
			c0.02-0.05,0.11-0.05,0.19-0.1c0.22-0.14,0.54-0.23,0.92-0.39c0.59-0.24,1.33-0.53,2.14-0.81c1.91-0.67,4.24-1.34,6.06-1.84
			c0.83-0.23,1.57-0.38,2.08-0.58c0.22-0.09,0.35-0.21,0.49-0.28c0.18-0.01,0.32-0.18,0.31-0.39
			C44.14,108.39,43.98,108.24,43.8,108.25z"/>
	</g>
	<g transform="matrix(0.4441,0,0,0.39775,0,0)">
		<path class="st0" d="M49.68,109.07c-2.13,0.93-4.11,1.92-6.19,2.5c-1.35,0.37-2.73,0.6-4.27,0.42c-0.36,0.01-0.61,0.07-0.74,0.09
			c-0.04-0.03-0.08-0.06-0.12-0.07c-0.18-0.06-0.37,0.06-0.42,0.26c-0.04,0.1-0.02,0.18-0.02,0.24c0.01,0.13,0.08,0.24,0.31,0.33
			c0.08,0.03,0.3,0.06,0.85,0.25c1.66,0.33,3.2,0.26,4.69-0.08c2.19-0.49,4.25-1.56,6.48-2.48c0.62-0.27,0.93-0.74,0.95-1.17
			c0.03-0.46-0.14-1.04-0.79-1.33c-0.29-0.18-0.66-0.07-0.83,0.25C49.46,108.54,49.5,108.86,49.68,109.07z M38.44,112.08
			c-0.04-0.05-0.09-0.09-0.09-0.03C38.35,112.09,38.38,112.09,38.44,112.08z M49.81,109.18c0.01,0.09,0.03,0.17,0.08,0.14
			c0.03-0.02-0.02-0.09-0.06-0.13L49.81,109.18z M49.81,109.02c0.04-0.01,0.08-0.03,0.06-0.05
			C49.84,108.93,49.82,108.96,49.81,109.02z"/>
	</g>
	<g transform="matrix(0.4441,0,0,0.39775,0,0)">
		<path class="st0" d="M42.3,100.23c-0.04-0.17-0.19-0.29-0.35-0.27c-0.23-0.01-0.28,0.18-0.33,0.32c-0.05,0.13,0.22,0.61,0.37,0.79
			c0.36,0.4,0.73,0.78,1.15,1.12c0.92,0.76,1.94,1.35,2.88,2.06c1.84,1.37,3.1,4.19,4.71,5.99c0.3,0.34,0.59,0.68,0.94,0.9
			c0.27,0.16,0.54,0.25,0.83,0.32c0.4,0.22,0.88,0.04,1.08-0.41c0.2-0.44,0.03-0.98-0.36-1.2c-0.16-0.15-0.26-0.35-0.42-0.51
			c-0.15-0.15-0.33-0.27-0.49-0.42c-1.36-1.27-2.57-3.22-3.95-4.67c-0.5-0.53-1.03-1-1.59-1.35l-4.27-2.53L42.3,100.23z"/>
	</g>
	<g transform="matrix(0.4441,0,0,0.39775,0,0)">
		<path class="st0" d="M43.94,72.91c0.01,0.04,0.03,0.07,0.07,0.07C43.99,72.95,43.96,72.93,43.94,72.91
			c-0.02-0.06-0.01-0.16-0.07-0.21c-0.04-0.03,0.04-0.14,0.04-0.14s0.09,0.14,0.12,0.2c-0.02,0.21,0.11,0.4,0.29,0.42
			c0.18,0.03,0.35-0.12,0.38-0.33c0.1-0.12,0.14-0.31,0.21-0.51c0.07-0.21-0.15-0.25-0.22-0.45c-0.26-0.2-0.63-0.13-0.81,0.16
			C43.7,72.33,43.74,72.69,43.94,72.91z"/>
	</g>
	<g transform="matrix(0.4441,0,0,0.39775,0,0)">
		<path class="st0" d="M64.41,62.05c0,0-15.77,3.45-21.84,11.09c-5.65,7.13-8.37,10.77-8.68,21.31c-0.11,3.66,5.86-2.46,6.26-2.6
			c1.29-0.45,12.8-8.72,24.54-1.99c8.12,4.65,30.29,0.13,47.06,0.14c7.48,0,14.41,0.82,18.26,1.84c2.11,0.56,3.89,1.79,5.42,0.82
			c0.88-0.56-0.92,1,0,0c1.67-1.83,4.91-3.13,7.51-2.72c2.71,0.43,5,1.94,7.5,3.67c1.01,0.7,0.41,6.8,1.13,7.04
			c0.9,0.29,4.46-0.9,5.42-1.92c0.67-0.71,0.78-2.19,0.89-1.86c0.68,2.06-20.92-34.8-39.77-32.39c-0.6,0.08-3.07,28.38-26.81,23.64
			c-1.29-0.26-6.05,2.47-12.53-3.73c-3.16-3.02-2.73-8.68-6.37-12.48C69.49,68.87,65.33,73.66,64.41,62.05z"/>
	</g>
	<g transform="matrix(0.4441,0,0,0.39775,0,0)">
		<path class="st2" d="M64.64,90.22l0.03-0.05c0.12-0.2,0.33-0.5,0.55-0.85c0.53-0.82,1.18-1.85,1.29-2.05
			c0.96-1.7,1.91-3.47,2.5-5.37c0.16-0.52,0.3-1.05,0.39-1.59c0.14-0.8,0.18-1.63,0.13-2.47c-0.01-0.2-0.16-0.35-0.34-0.34
			c-0.18,0.01-0.32,0.18-0.31,0.38c0.02,0.78-0.06,1.54-0.19,2.28c-0.09,0.5-0.2,1-0.35,1.49c-0.54,1.85-1.45,3.59-2.35,5.26
			c-0.11,0.2-0.75,1.22-1.2,2.09c-0.2,0.39-0.36,0.74-0.44,0.98c-0.08,0.23-0.08,0.39-0.06,0.43c0.04,0.06,0.15,0.18,0.31,0.02
			C64.66,90.39,64.68,90.3,64.64,90.22z M64.45,90.17c-0.03-0.01-0.05-0.01-0.05,0.02c0,0.01,0.02,0,0.03-0.01
			C64.44,90.18,64.44,90.17,64.45,90.17z"/>
	</g>
	<g transform="matrix(0.4441,0,0,0.39775,0,0)">
		<path class="st2" d="M120.41,76.62c-0.09,0.09-0.15,0.21-0.17,0.45c-0.01,0.16,0.05,0.34,0.1,0.55c0.26,0.95,0.94,2.35,1.28,3.12
			c0.94,2.07,1.96,4.24,3.15,6.26c0.8,1.37,1.68,2.66,2.67,3.81c0.25,0.29,0.94,1.27,1.57,1.9c0.18,0.18,0.35,0.35,0.52,0.44
			c0.22,0.12,0.42,0.17,0.57,0.14c0.17,0,0.31-0.16,0.31-0.35c0-0.19-0.14-0.34-0.31-0.34c-0.02-0.01-0.02-0.05-0.05-0.07
			c-0.05-0.04-0.1-0.1-0.17-0.16c-0.23-0.21-0.51-0.5-0.78-0.82c-0.46-0.55-0.9-1.15-1.09-1.36c-0.95-1.1-1.81-2.35-2.59-3.67
			c-1.18-1.99-2.19-4.14-3.13-6.17c-0.24-0.5-0.61-1.28-0.94-2.01c-0.22-0.51-0.42-0.99-0.51-1.33c-0.01-0.02-0.01-0.05-0.02-0.07
			c-0.03-0.07-0.08-0.09-0.11-0.14c-0.01-0.03-0.05-0.04-0.05-0.07c0.03-0.08,0-0.18-0.08-0.21
			C120.52,76.5,120.44,76.54,120.41,76.62z"/>
	</g>
</g>
</svg>
