<?xml version="1.0" encoding="utf-8"?>
<!-- Generator: Adobe Illustrator 24.2.0, SVG Export Plug-In . SVG Version: 6.00 Build 0)  -->
<svg version="1.1" id="图层_1" xmlns="http://www.w3.org/2000/svg" xmlns:xlink="http://www.w3.org/1999/xlink" x="0px" y="0px"
	 viewBox="0 0 85 85" style="enable-background:new 0 0 85 85;" xml:space="preserve">
<style type="text/css">
	.st0{fill-rule:evenodd;clip-rule:evenodd;fill:#FFFFFF;}
	.st1{fill-rule:evenodd;clip-rule:evenodd;}
	.st2{display:none;}
	.st3{display:inline;opacity:0.28;}
	.st4{opacity:0.21;}
	.st5{display:inline;}
	.st6{fill-rule:evenodd;clip-rule:evenodd;fill:#040000;}
</style>
<g transform="matrix(1,0,0,1,-128.952,-435.544)">
	<g transform="matrix(1,0,0,1,-0.678144,-1.00857)">
		<g transform="matrix(0.4441,0,0,0.39775,2.09089,0.83855)">
			<path class="st0" d="M321.4,1185.9l-0.2,12.7c0,0-3.5,3-3.7,8.1c-0.2,5.1-1.5,19.4,5,23.5l2.1,37.6c0,0,38.2-4.3,52.7,12.5
				c0,0,9,3.2,11.6,2.1c0,0,4.1-9.7,22.3-12.2c18.2-2.5,25.7-5,30.4-2.1c0,0,1.6-40.7,1.7-40.8c0.1-0.2,4.2-0.8,5.7-10.3
				c1.6-9.4-0.2-13.3-0.5-14.4c-0.2-1.1-3.2-6.2-3.7-7.2l-0.3-11.5l-0.7-0.7l0.6-4.3l-1.3-0.3l0.2-2.7l-2.7-0.6l-0.1-2.9
				c-0.4-1.2-22.7-8.2-48.4,16.6c-0.6,0.6-1.2,0.6-2,1.4c-2,2,0.3-9.8-1.1-6.6c0.7-0.5-12.1,1.2-20.7-5.8c-1.1-0.9,0.3,4.7-0.8,3.9
				c-11.2-8.2-26.3-15.1-40.1-9.2l0.3,2.6l-2.8,0.7l0.1,2.5l-1.3,0.5l0.3,5.3L321.4,1185.9z"/>
		</g>
		<g transform="matrix(0.453681,0,0,0.401188,-35.6678,-3.33229)">
			<path class="st1" d="M514.1,1173c-0.1,0.4-0.1,1.3,0,2.3c0,0.2,0.2,0.4,0.4,0.4c0.2,0,0.4-0.2,0.4-0.5c-0.1-1.3,0.1-1.9,0.2-2.2
				c0.1-0.5-0.1-0.7-0.3-0.8c-7.9-2.2-15-2.2-21.8-0.1c-6.4,2-12.7,5.8-19.5,11.3c-2.4,2-4.6,3.6-6.8,5.6c-1.4,1.3-2.7,2.7-4.1,4.4
				c-1,1.2-1.9,2.7-2.5,4.1c-0.5,1.1-0.9,2.3-0.9,3.2c0,0.2,0.1,0.4,0.3,0.4c0.2,0,0.4-0.2,0.4-0.4c0.1-0.9,0.4-1.9,0.9-2.9
				c0.6-1.3,1.5-2.7,2.5-3.8c1.4-1.7,2.7-3,4.1-4.2c2.2-1.9,4.4-3.5,6.8-5.5c6.7-5.4,12.8-9.2,19.1-11.2
				C499.7,1171.2,506.5,1171,514.1,1173z"/>
		</g>
		<g transform="matrix(-0.457002,0,0,0.401188,3502.25,-3.33229)">
			<path class="st1" d="M7340.2,1173c-7.6-2-14.3-1.8-20.9,0.3c-6.3,2-12.5,5.8-19.2,11.2c-2.4,2-4.6,3.6-6.8,5.5
				c-1.4,1.2-2.7,2.6-4.1,4.2c-1,1.2-1.9,2.5-2.5,3.8c-0.5,1-0.8,2-0.9,2.9c0,0.2-0.2,0.4-0.4,0.4c-0.2,0-0.4-0.2-0.3-0.4
				c0.1-1,0.4-2.1,0.9-3.3c0.6-1.4,1.6-2.8,2.5-4.1c1.4-1.7,2.7-3.2,4.1-4.4c2.1-2,4.4-3.6,6.8-5.6c6.8-5.5,13.1-9.3,19.5-11.3
				c6.9-2.1,13.9-2.1,21.8,0.1c0.3,0.1,0.4,0.3,0.3,0.8c-0.1,0.3-0.3,1-0.2,2.2c0,0.2-0.1,0.5-0.4,0.5c-0.2,0-0.4-0.2-0.4-0.4
				C7340.2,1174.3,7340.1,1173.4,7340.2,1173z"/>
		</g>
		<g transform="matrix(0.460827,0,0,0.350426,-60.1981,163.526)">
			<path class="st1" d="M561.9,870.8c-0.1,0.4,0,1.4,0,2.8c0,0.3,0.2,0.5,0.4,0.5c0.2,0,0.4-0.2,0.4-0.5c0-1.9,0.1-2.7,0.2-3
				c0-0.7-0.1-0.7-0.4-0.8c-7.8-2.2-14.8-2.2-21.5-0.2c-6.5,2-12.9,5.8-19.8,11.4c-2.4,2-4.6,3.6-6.7,5.6c-1.4,1.3-2.8,2.7-4.1,4.5
				c-1,1.2-1.9,2.6-2.5,4c-0.6,1.2-0.9,2.3-1,3.4c0,0.3,0.1,0.5,0.3,0.5c0.2,0,0.4-0.2,0.4-0.4c0.1-0.9,0.4-1.9,0.9-2.9
				c0.6-1.3,1.5-2.6,2.5-3.8c1.4-1.7,2.7-3,4.1-4.3c2.1-1.9,4.3-3.5,6.8-5.4c6.8-5.5,13-9.3,19.4-11.3
				C547.6,869,554.3,868.9,561.9,870.8z"/>
		</g>
		<g transform="matrix(-0.464201,0,0,0.350426,3526.96,163.526)">
			<path class="st1" d="M7282.2,870.8c-7.6-2-14.2-1.8-20.8,0.2c-6.4,2-12.7,5.8-19.4,11.3c-2.4,1.9-4.6,3.5-6.8,5.4
				c-1.4,1.2-2.7,2.6-4.1,4.3c-0.9,1.1-1.8,2.5-2.5,3.8c-0.5,1-0.8,2-0.9,2.9c0,0.3-0.2,0.5-0.4,0.4c-0.2,0-0.3-0.2-0.3-0.5
				c0.1-1,0.4-2.2,1-3.4c0.6-1.4,1.6-2.8,2.5-4c1.4-1.8,2.7-3.2,4.1-4.5c2.1-2,4.3-3.6,6.7-5.6c6.9-5.6,13.2-9.5,19.8-11.4
				c6.8-2,13.7-2,21.5,0.2c0.3,0.1,0.5,0.1,0.4,0.8c0,0.3-0.1,1.1-0.2,3c0,0.3-0.2,0.5-0.4,0.5c-0.2,0-0.4-0.2-0.4-0.5
				C7282.2,872.2,7282.1,871.2,7282.2,870.8z"/>
		</g>
		<g transform="matrix(0.453336,0,0,0.315557,-27.0631,279.105)">
			<path class="st1" d="M499.2,604.6c0,0.7-0.1,2-0.1,4.9c0,0.3,0.2,0.6,0.4,0.6c0.2,0,0.4-0.3,0.4-0.6c0-3,0.1-4.4,0.1-4.9
				c0-0.3,0-0.4,0-0.4c0-0.2-0.1-0.3-0.1-0.4c-0.1-0.1-0.5-0.2-0.5-0.2s0.1-0.1,0.2,0c-7.8-2.2-14.7-2.2-21.4-0.2
				c-6.6,1.9-13,5.8-19.9,11.4c-2.4,2-4.6,3.6-6.7,5.6c-1.4,1.3-2.8,2.7-4.2,4.5c-1,1.2-1.9,2.6-2.5,4c-0.6,1.2-0.9,2.4-1,3.4
				c0,0.3,0.1,0.5,0.3,0.6c0.2,0,0.4-0.2,0.4-0.5c0.1-0.9,0.4-1.9,0.9-2.9c0.6-1.3,1.5-2.6,2.4-3.7c1.4-1.7,2.7-3.1,4.1-4.3
				c2.1-1.9,4.3-3.5,6.7-5.4c6.8-5.5,13.1-9.3,19.6-11.3C485,602.8,491.7,602.7,499.2,604.6z"/>
		</g>
		<g transform="matrix(-0.456655,0,0,0.304137,3493.58,315.32)">
			<path class="st1" d="M7331,507.1c0.2,0,0.5,0,0.4,1.1c0,0.6-0.1,1.9-0.1,4.9c0,0.3-0.2,0.6-0.4,0.6c-0.2,0-0.4-0.3-0.4-0.6
				c0-2.8,0-4.2,0.1-4.9c-7.5-2-14.2-1.8-20.7,0.1c-6.5,2-12.8,5.8-19.6,11.3c-2.4,1.9-4.6,3.5-6.7,5.4c-1.4,1.2-2.8,2.6-4.1,4.3
				c-0.9,1.1-1.8,2.4-2.4,3.7c-0.5,1-0.9,2-0.9,2.9c0,0.3-0.2,0.5-0.4,0.5c-0.2,0-0.3-0.3-0.3-0.6c0.1-1.1,0.4-2.3,1-3.5
				c0.6-1.4,1.5-2.7,2.5-4c1.4-1.8,2.8-3.2,4.2-4.5c2.1-2,4.3-3.6,6.7-5.6c6.9-5.6,13.4-9.5,19.9-11.5
				C7316.4,504.8,7323.2,504.9,7331,507.1z M7330.9,507.1L7330.9,507.1C7330.8,507.1,7330.9,507.1,7330.9,507.1z"/>
		</g>
		<g transform="matrix(1,0,0,1,3.89864,7.57019)" class="st2">
			<g class="st3">
				<g class="st4">
					<g transform="matrix(0.512983,0,0,0.54845,-249.47,-507.347)">
						<path class="st1" d="M759.2,1790.8c-0.1,0-0.2,0-0.2,0.1l0,0c0,0,0,0,0,0l0,0h0h0c0,0,0,0,0,0c-0.2,0.1-0.2,0.2-0.2,0.2
							c-0.2,0.2,0.1,0.7,0.8,0.3c0.3-0.2,1.3-1.4,1.8-1.7l4.3-2.4c0.4,0,0.8,0,1.2,0.2c0.5,0.2,1.1,0.5,1.7,0.8
							c1.3,0.7,2.7,1.8,3.8,2.9c1.1,1,2,2.1,2.4,2.9c0.1,0.2,0.1,0.3,0.2,0.5c0,0.1,0,0.2-0.1,0.3c-0.4,0.2-1,0.1-2.1-0.2
							c-1.6-0.4-4-1.9-6.1-2.7c-0.7-0.3-1.5-0.5-2.1-0.4c-0.4,0-0.7,0.1-0.9,0.2c-0.1,0-0.2,0.1-0.2,0.3c0,0.1,0.2,0.2,0.3,0.2
							c0.3,0,0.5,0,0.8,0.1c0.6,0.1,1.2,0.2,1.8,0.5c2.1,0.8,4.5,2.4,6.1,2.9c1.7,0.5,2.7,0.4,3.1,0.1c0.4-0.3,0.6-0.6,0.5-1.2
							c-0.1-0.7-0.7-1.8-1.7-2.9c-1.2-1.4-3-2.8-4.8-3.8c-1-0.5-1.9-0.9-2.8-1c-0.5-0.1-0.9,0-1.3,0.1c-0.4,0.1-1.5,0.3-2.5,0.7
							c-0.9,0.4-1.7,0.9-2.3,1.2C760.4,1789.3,759.7,1790.4,759.2,1790.8z M759.5,1791.2C759.5,1791.2,759.5,1791.2,759.5,1791.2
							c0,0.1,0,0.2,0,0.2S759.5,1791.2,759.5,1791.2L759.5,1791.2z M758.9,1790.9C758.9,1790.9,758.9,1790.9,758.9,1790.9
							C758.9,1790.9,758.9,1790.9,758.9,1790.9L758.9,1790.9L758.9,1790.9L758.9,1790.9C758.9,1790.9,758.9,1790.9,758.9,1790.9z
							 M759.1,1790.9c0,0-0.1,0-0.1,0l0,0l0,0C759,1790.9,759,1790.9,759.1,1790.9z"/>
					</g>
					<g transform="matrix(0.512983,0,0,0.54845,-249.47,-507.347)">
						<path class="st1" d="M771,1801.8L771,1801.8L771,1801.8L771,1801.8c0,0.1,0,0.1-0.1,0.1C770.9,1801.9,770.9,1801.9,771,1801.8
							L771,1801.8c-2.4-0.4-4.5-2.3-6.7-3.2c-1.1-0.4-2.2-0.6-3.5-0.3c-0.2,0-0.3,0.2-0.2,0.4c0,0.2,0.2,0.3,0.4,0.2
							c1.1-0.2,2,0,3,0.5c1.3,0.6,2.5,1.6,3.8,2.4c1,0.6,1.9,1.1,3,1.3c0.9,0.2,1.3-0.2,1.4-0.7c0.1-0.4,0-1-0.2-1.5
							c-0.2-0.6-0.5-1.1-0.8-1.5c-0.3-0.5-0.7-0.8-1.2-1.2c-1.6-1.3-3.2-2.4-5-3.1c-1.2-0.5-2.6-0.8-4-0.8c-0.3,0-0.6,0-0.9,0.1
							c-0.6,0.2-1.2,0.5-1.8,0.7c-0.2,0-0.3,0.2-0.3,0.4c0.1,0.2,0.3,0.3,0.5,0.3c0.7-0.1,1.4-0.3,2.1-0.4c0.1,0,0.3,0,0.5,0
							c1.3,0,2.4,0.3,3.5,0.7c1.6,0.7,3.1,1.8,4.6,3c0.4,0.3,0.7,0.6,1,1c0.3,0.4,0.5,0.7,0.6,1.2
							C770.8,1801.3,771,1801.7,771,1801.8z M771,1801.8C771,1801.8,771.1,1801.8,771,1801.8C771.1,1801.8,771,1801.8,771,1801.8
							L771,1801.8z"/>
					</g>
					<g transform="matrix(0.512983,0,0,0.54845,-249.47,-507.347)">
						<path class="st1" d="M759.3,1803c0.1,0,0.1,0.1,0.2,0.1c0.3,0.1,0.7,0.2,0.8,0.2l0.8,0.4l3.3,1.2l1.2,0.4l1.1,0.3
							c0.8,0.1,1.2,0,1.5-0.3c0.2-0.2,0.3-0.4,0.3-0.8c-0.1-0.8-1.2-2.2-1.7-2.9c-0.1-0.1-0.3-0.2-0.4-0.1c-0.2,0.1-0.2,0.3-0.1,0.4
							c0.3,0.6,0.9,1.5,1.1,2.2c0.1,0.2,0.2,0.5,0.1,0.5c0,0,0-0.1,0-0.1s-0.2,0-0.5-0.1l-0.9-0.3l-1.2-0.4l-3.2-1.3l-0.8-0.4
							c-0.2-0.1-1-0.4-1.6-0.3c-0.4,0-0.8,0.1-1,0.3c-0.2,0.3-0.5,0.7,0,1.4c0.1,0.2,0.4,0.3,0.6,0.2
							C759.3,1803.5,759.4,1803.2,759.3,1803z M759.3,1803C759.2,1803,759.2,1803,759.3,1803C759.2,1803,759.2,1803,759.3,1803z
							 M759.3,1803c0.1-0.1,0.1-0.2,0-0.2C759.3,1802.7,759.3,1802.9,759.3,1803z"/>
					</g>
					<g transform="matrix(0.512983,0,0,0.54845,-249.47,-507.347)">
						<path class="st1" d="M772.2,1796.8c0.5,0.3,1,0.7,1.4,1.2c0.4,0.5,0.6,1,0.7,1.6l0.2,0.9c0,0.1-0.1,0-0.2,0
							c-0.2,0-0.5-0.1-0.7-0.1c-0.7-0.2-1.3-0.5-1.6-0.5c-0.2-0.1-0.5,0-0.6,0.2c-0.1,0.2,0,0.4,0.2,0.5c0.3,0.2,1.5,0.7,2.4,0.9
							c0.7,0.1,1.2-0.1,1.5-0.6c0.1-0.2,0.1-0.4,0.1-0.7c-0.1-0.4-0.2-0.8-0.3-1c-0.3-0.6-0.7-1.2-1.1-1.7c-0.5-0.5-1-1-1.6-1.3
							c-0.2-0.1-0.4,0-0.4,0.1C772,1796.5,772.1,1796.7,772.2,1796.8z"/>
					</g>
					<g transform="matrix(0.512983,0,0,0.54845,-249.47,-507.347)">
						<path class="st1" d="M759.1,1792.2c0.1,0,0.2,0,0.3,0c0.1-0.1,0.2-0.3,0.1-0.4c-0.1-0.2-0.3-0.3-0.4-0.3
							c-0.2-0.1-0.4,0-0.6,0.3c-0.1,0.2-0.2,0.8-0.3,1.1c0,0.2-0.1,0.4-0.1,0.6c-0.1,0.3-0.1,0.7-0.1,1c0,0.4,0,0.7,0.1,1.1
							c0,0.1,0.1,0.2,0.3,0.2c0.1,0,0.3-0.1,0.2-0.3c0-0.2,0.1-0.3,0.1-0.5c0.1-0.4,0.3-0.8,0.4-1.2c0.1-0.3,0.1-0.6,0.2-0.9
							C759.2,1792.8,759.1,1792.4,759.1,1792.2z M758.9,1792.1L758.9,1792.1c0,0-0.1-0.1-0.1-0.1
							C758.7,1792.1,758.8,1792.1,758.9,1792.1z M759.1,1792L759.1,1792C759.1,1792,759.2,1792,759.1,1792
							C759.1,1791.9,759.1,1792,759.1,1792z"/>
					</g>
					<g transform="matrix(0.512983,0,0,0.54845,-249.47,-507.347)">
						<path class="st1" d="M758.3,1796.9c0.3,1.1,0.4,2.1,0.4,3.2c0,0.7,0,1.3,0,2c0,0.1,0,0.3,0,0.4c-0.1,0.4-0.2,0.7-0.2,1.1
							c-0.1,0.5,0,1,0.1,1.6c0.2,0.9,0.3,1.9,0.7,2.5c0.2,0.3,0.4,0.5,0.7,0.6c0.2,0.1,0.4,0.1,0.6,0.2c0.3,0.1,0.6-0.1,0.7-0.4
							c0.1-0.3-0.1-0.6-0.4-0.7c-0.1,0-0.1-0.1-0.2-0.2c-0.2-0.1-0.3-0.3-0.3-0.5c-0.2-0.5-0.3-1.2-0.4-1.9
							c-0.1-0.5-0.2-0.9-0.3-1.4c-0.1-0.3-0.2-0.6-0.3-1c-0.1-0.6,0-1.1,0-1.7c0-1.3,0-2.7-0.3-4.1c0-0.2-0.2-0.3-0.4-0.2
							C758.4,1796.6,758.3,1796.8,758.3,1796.9z"/>
					</g>
					<g transform="matrix(0.512983,0,0,0.54845,-249.47,-507.347)">
						<path class="st1" d="M759.9,1789.9c0-0.4,0.3-1.5,0.3-1.6c0.1-0.6,0.5-1.6,0.6-2.4c0.1-0.4,0.1-0.9,0-1.2
							c0-0.2-0.3-0.4-0.6-0.4c-0.3,0-0.4,0.3-0.4,0.5c0,0.3,0,0.6,0,0.9c-0.1,0.8-0.4,1.8-0.5,2.4c0,0.1-0.1,1.3-0.1,1.7
							c0,0.2,0.1,0.4,0.2,0.4c0.1,0.1,0.3,0.1,0.4-0.1C760,1790.2,760,1790.1,759.9,1789.9z"/>
					</g>
				</g>
				<g transform="matrix(0.4441,0,0,0.39775,0,0)">
					<path class="st1" d="M314.7,1195.7l0.1-0.2c1.1-1.2,3.4-3.8,3.5-3.9c1.5-1.2,2.3-1.9,3.1-2.2c0.8-0.4,1.7-0.4,3.5-0.1
						c0.5,0.1,1.2,0.2,1.7,0.4c0.5,0.2,1,0.5,1.4,0.8c-0.3,0-0.7,0.4-0.8,0.4l-3.6-0.2c-1.1,0-2,0.4-2.7,1.1c-1,0.9-1.9,2.2-2.8,3.5
						c-0.1,0.1,0,0.2,0,0.2c0.1,0.1,0.2,0.1,0.2,0c1-1.2,1.8-2.4,2.9-3.2c0.7-0.5,1.5-0.9,2.4-0.9c0.8,0,1.7,0.1,2.5,0.1
						c0.4,0,0.7-0.1,1.1-0.2c0.1,0,0.7-0.2,1-0.4c0.2-0.1,0.3-0.3,0.1-0.4c-0.4-0.5-1-0.9-1.6-1.2c-0.6-0.3-1.2-0.5-1.8-0.6
						c-2-0.4-3-0.5-3.9-0.1c-0.9,0.3-1.7,1-3.3,2.1c-0.1,0.1-2.9,2.5-3.9,4c-0.3,0.5-0.4,0.8-0.4,1c0,0.4,0.1,1.1,1,0.5
						C314.6,1196.1,314.7,1195.9,314.7,1195.7z"/>
				</g>
				<g transform="matrix(0.4441,0,0,0.39775,0,0)">
					<path class="st1" d="M327.7,1201.1L327.7,1201.1c-0.1,0,0.1,0.6,0.3,1.1c0.1,0.3,0.4,0.7,0.5,1c-0.1-0.1-0.2-0.1-0.4-0.2
						c-0.4-0.2-0.9-0.5-1.3-0.8c-0.5-0.4-2.1-2-3.1-2.8c-0.3-0.2-0.6-0.4-0.8-0.5c-0.1-0.1-0.2-0.2-0.4-0.2c-0.2,0-1.2,0.5-1.2,0.5
						c-0.4,0.2-0.9,0.4-1.4,0.7c-0.5,0.3-0.9,0.7-1.2,1.2c0,0.1,0,0.1,0,0.2c0,0.1,0.1,0.1,0.2,0c0.2-0.2,0.5-0.3,0.8-0.4
						c0.3-0.1,0.5-0.2,0.8-0.3c0.4-0.2,0.8-0.3,1.2-0.5c0,0,0.4-0.2,0.7-0.4c0.1,0,0.1,0.1,0.2,0.1l0,0h0l0,0c0,0-0.1,0-0.1-0.1
						c0.1,0,0.2-0.1,0.2,0c0,0.1,0,0.1,0,0.1h0l3.8,3.4c0.4,0.3,0.9,0.6,1.4,0.8c0.4,0.2,0.7,0.3,1.1,0.4c0.3,0.1,0.6-0.1,0.7-0.2
						c0.1-0.2,0.2-0.6,0.1-1c-0.1-0.5-0.5-1.2-0.8-1.7c-0.3-0.4-0.5-0.6-0.7-0.8c0-0.4-0.3-1.3-0.7-2.1c-0.6-1.2-1.4-2.3-1.9-2.8
						c-1.4-1.1-2.2-1.8-3.1-2.1c-0.9-0.2-1.8,0-3.6,1c-0.5,0.3-2.1,1.2-2.7,2c-0.4,0.5-0.5,1-0.3,1.3c0.1,0.2,0.3,0.2,0.5,0.1
						c0.2-0.1,0.2-0.4,0.1-0.6c0,0,0.1,0.1,0.1,0.1c-0.3-0.2,0.8-0.6,1.3-0.9c0.6-0.4,1.2-0.7,1.5-0.9c1.4-0.8,2.1-1,2.8-0.8
						c0.7,0.2,1.4,0.9,2.6,1.9c0.3,0.2,0.8,0.8,1.3,1.4c0.8,1,1.6,2.1,1.6,2.5c0,0.1,0,0.2,0.1,0.2
						C327.6,1201.1,327.7,1201.1,327.7,1201.1z M328.7,1203.5c-0.1,0.1-0.2,0.2,0,0.2C328.8,1203.7,328.8,1203.6,328.7,1203.5z
						 M322.2,1199.2c0-0.1,0.1-0.2,0.1-0.2C322.2,1199.1,322.2,1199.1,322.2,1199.2z"/>
				</g>
				<g transform="matrix(0.4441,0,0,0.39775,0,0)">
					<path class="st1" d="M317.6,1202.3L317.6,1202.3c0.2,0,0.4,0,0.6-0.1c0.4-0.1,0.8-0.4,1.1-0.5c0.6-0.4,1.2-0.7,1.9-0.9
						c0.4-0.1,0.8-0.2,1.2-0.1c0.1,0,0.3,0.2,0.4,0.3c0.3,0.3,0.6,0.7,0.8,0.9c0.4,0.6,1,1,1.4,1.5c0.2,0.2,0.3,0.4,0.4,0.6
						c0.2,0.4,0.4,1.2,0.6,1.7c-0.2,0-0.4,0-0.4-0.1c-0.8-0.6-1.7-0.9-2.5-1.5c-0.2-0.2-0.3-0.3-0.5-0.5l-0.1-0.3c0,0,0-0.1,0-0.1
						c0-0.1-0.1-0.3-0.3-0.3c-0.2-0.1-0.6-0.1-0.8,0l-1.9,0.7c0,0-0.6,0.3-0.7,0.4c-0.2,0.2-0.2,0.4-0.2,0.5c0,0.2,0.1,0.6,0.6,0.6
						c0.3,0,1.1-0.3,1.8-0.5c0.3-0.1,0.5-0.2,0.7-0.1l0.7,1.2l0.6,0.9c0.4,0.5,0.6,1,0.9,1.5l-1.4-1c-0.5-0.3-1-0.7-1.6-0.8
						c-0.6-0.1-1.2,0-1.7,0.4c-0.1,0.1-0.2,0.1-0.2,0.2c-0.1,0.2-0.2,0.6-0.4,0.7c-0.1,0-0.1,0.1,0,0.2c0,0.1,0.1,0.1,0.2,0.1
						l0.7-0.6c0.4-0.1,0.7,0,1,0.1c0.2,0.1,0.4,0.2,0.6,0.3c0.3,0.1,0.6,0.3,0.8,0.5l2.1,1.5c0.1,0.1,0.4,0.5,0.7,0.6
						c0.3,0.2,0.6,0.1,0.8,0c0.1-0.1,0.4-0.4,0.5-0.6c0.2-0.4,0.1-0.7-0.1-0.9c-0.1-0.2-0.3-0.3-0.4-0.5c-0.5-0.8-1-1.8-1.6-2.6
						l-0.5-0.7c-0.1-0.1-0.2-0.3-0.2-0.4l2.3,1.8c0.1,0.1,1.1,0.4,1.5,0.4c0.3,0,0.4-0.2,0.5-0.4c0.1-0.1,0.1-0.4-0.2-0.7l-0.8-2.2
						c-0.2-0.3-0.4-0.6-0.6-0.8c-0.4-0.5-1-0.9-1.4-1.5c-0.2-0.3-0.6-0.8-1-1.2c-0.3-0.2-0.5-0.4-0.8-0.4c-0.6-0.1-1.1,0-1.7,0.1
						c-0.7,0.2-1.5,0.6-2.1,1c-0.2,0.2-0.5,0.4-0.8,0.6c-0.1,0.1-0.3,0.2-0.4,0.2C315.4,1201.6,315.4,1202.3,317.6,1202.3
						L317.6,1202.3z"/>
				</g>
				<g transform="matrix(0.4441,0,0,0.39775,0,0)">
					<path class="st1" d="M314.4,1195.9c0.1-0.1,0.2-0.4,0.1-0.5c-0.1-0.3-0.3-0.2-0.5-0.2c-0.2,0-0.6,0.7-0.6,0.8l-0.3,1.4
						c-0.1,0.4-0.1,0.7-0.1,1.1c0,0.2,0,0.5,0.1,0.7c0.1,0.9,0.4,1.7,0.7,2.5c0.1,0.3,0.2,0.6,0.2,0.8c0,0.5,0,0.9,0,1.4l0.3,1.2
						c0.1,0.6,0,1.2,0,1.8c0,0.3,0,0.6,0.1,0.8l0.6,1.5l0.2,1.8c0.1,0.4,0.2,0.8,0.5,1.2c0.2,0.4,0.6,0.7,0.8,1.1l0.6,0.9
						c0.2,0.3,0.6,0.5,0.9,0.3c0.3-0.2,0.4-0.7,0.2-1l-0.4-0.8c-0.1-0.4-0.3-0.7-0.5-1.1c-0.1-0.1-0.1-0.3-0.2-0.4
						c-0.2-0.2-0.4-0.4-0.5-0.6l-0.7-1.7c-0.2-0.3-0.5-0.5-0.6-0.8c-0.1-0.1-0.1-0.2-0.1-0.3c0-0.2-0.1-0.5-0.1-0.7
						c0-0.6,0.1-1.2,0.1-1.8c0-0.2,0-0.4-0.1-0.6c-0.1-0.2-0.2-0.5-0.3-0.7c-0.2-0.4-0.3-0.8-0.4-1.3c0-0.3,0-0.6-0.1-0.9
						c-0.1-0.5-0.1-1.1-0.1-1.7c0-0.5,0.1-1,0.1-1.4c0-0.3,0-0.6,0.1-0.9l0.1-1.5c0,0,0,0.1,0,0.1L314.4,1195.9z M314,1196
						c0.1,0,0.1,0.1,0.2,0C314.2,1196,314.1,1196,314,1196z"/>
				</g>
				<g transform="matrix(0.4441,0,0,0.39775,0,0)">
					<path class="st1" d="M315.9,1193.6C315.9,1193.6,315.9,1193.5,315.9,1193.6c0-0.1,0-0.1,0-0.1l0,0L315.9,1193.6
						C315.9,1193.5,315.9,1193.5,315.9,1193.6C315.9,1193.5,315.9,1193.6,315.9,1193.6L315.9,1193.6
						C316,1193.6,316,1193.5,315.9,1193.6c0-0.2,0.2-0.4,0.2-0.5c0.1-0.3,0.1-0.5,0.1-0.6l0.2-2.4c0.2-1.2,0.4-2.5,0.5-3.8
						c0.1-0.6,0.1-1.3,0.1-1.9c0-0.6,0-1.3,0-1.9c0-0.2-0.1-0.3-0.3-0.3c-0.2,0-0.3,0.1-0.3,0.3c-0.1,0.7-0.3,1.5-0.4,2.2
						c-0.3,1.7-0.4,3.5-0.7,5.2l-0.2,2.5c0,0.1-0.1,0.9,0,1.2c0,0.3,0.1,0.4,0.2,0.5c0.1,0.1,0.3,0.2,0.4,0
						C315.9,1193.9,315.9,1193.7,315.9,1193.6z M315.6,1193.3c0.1,0,0.1,0,0.2,0.1C315.7,1193.3,315.6,1193.3,315.6,1193.3z"/>
				</g>
			</g>
		</g>
		<g transform="matrix(0.4441,0,0,0.39775,3.89864,7.57019)">
			<path class="st1" d="M375.1,1184.3c0.1,0,0.1-0.1,0.1-0.2c0.1-0.2,0.1-0.6-0.2-0.7c-0.5-0.5-1.2,0.1-1.4,1.7
				c-0.2,1.6,0.2,4.5,0.1,6.2l-0.5,18.2c-0.2,8.8-0.3,17.5-0.3,26.3c0,5.3,0,10.5,0.1,15.8c0.1,3.5,0.2,7,0.3,10.5
				c0,0.5,0.4,0.9,0.8,0.8c0.4,0,0.8-0.4,0.8-0.9c0-3.2,0.1-6.3,0.1-9.5c0-7.4,0-14.7,0.1-22.1c0.1-7,0.2-14,0.4-21
				c0.1-3,0.2-6.1,0.2-9.1c0.1-3,0.1-6.1,0-9.1c0-1.7-0.2-4.6-0.5-6.3C375.1,1184.8,375.1,1184.5,375.1,1184.3z"/>
		</g>
		<g transform="matrix(0.4441,0,0,0.39775,3.89864,7.57019)">
			<path class="st1" d="M375.5,1183.1c-0.4,0.1-0.7,0.3-0.6,0.5c-0.2,0.4-0.1,0.9,0.8,0.6c0.2,0.1,0.4,0.1,0.7,0.1
				c0.2,0,0.5,0.1,0.8,0.1c0.5,0,1.1,0,1.8,0c1.1,0,2.3,0.1,3.6,0.2c0.6,0.1,1.2,0.1,1.8,0.2c-0.3,1.3-0.4,2.7-0.5,4.1
				c0,2.1,0.1,4.2,0.2,6.2c0.1,2.8,0.1,5.6,0.1,8.3c-0.1,6.5-0.4,13.1-0.4,19.6c0,7.9,0.5,16.4,0.6,24.8c0,5.6-0.2,11.1-1,16.3
				c-0.1,0.5,0.2,0.9,0.6,1c0.4,0.1,0.8-0.2,0.9-0.7c0.7-4,1.1-8.2,1.2-12.4c0.4-9.6-0.4-19.7-0.3-28.9c0-6.6,0.4-13.1,0.5-19.6
				c0-2.8,0-5.6-0.1-8.5c-0.1-2-0.3-4-0.3-6.1c0-1.3-0.1-2.6,0.1-3.9l0.2-1.1c0.1-0.4-0.1-0.9-0.5-1.1c-0.3-0.1-0.6-0.1-0.8,0
				c-0.9-0.2-1.7-0.4-2.5-0.5c-1.6-0.2-3.1-0.1-4.3,0c-0.5,0-1,0.1-1.4,0.2C376.2,1182.8,375.7,1183,375.5,1183.1
				C375.5,1183.1,375.5,1183.1,375.5,1183.1z"/>
		</g>
		<g transform="matrix(0.4441,0,0,0.39775,3.89864,7.57019)">
			<path class="st1" d="M375.7,1265.1C375.7,1265.1,375.6,1265.1,375.7,1265.1c-0.1,0.1,0.2,0.1,0.4,0.3c0.1,0.1,0.1,0.2,0.2,0.3
				c0.8,0.4,2.2,0.3,3.6,0.4c1,0.1,1.9,0.1,2.8,0.1c0.8-0.1,1.5-0.2,2-0.4c0.5-0.2,0.8-0.7,0.6-1.3c-0.1-0.5-0.6-0.9-1.1-0.7
				c-0.4,0.1-0.9,0.1-1.4,0.1c-2.1,0.1-5-0.7-6.4-0.2c-0.2,0.1-0.2,0.2-0.3,0.3c-0.5,0.3-0.9,0.3-0.9,0.4c-0.2,0.2-0.2,0.5-0.1,0.7
				C375.2,1265.1,375.5,1265.2,375.7,1265.1z"/>
		</g>
		<g transform="matrix(0.4441,0,0,0.39775,3.89864,7.57019)">
			<path class="st1" d="M385.1,1183.3c-0.1,0.1-0.1,0.3-0.1,0.5c0.3,1,0.8,0.1,0.9-0.2c0.2-0.1,0.4-0.1,0.6-0.2
				c1.4-1,2.2-2.7,3.6-3.8c1.3-1,2.7-2,4.2-2.9c2.2-1.3,4.6-2.6,6.7-3.8c6.5-3.6,12.8-6.3,19.2-7.4c5.2-0.9,10.5-0.7,16,0.8
				c1.3,0.3,2.6,0.7,3.9,1.2c0.4,0.2,0.9-0.1,1.1-0.6c0.2-0.5-0.1-1-0.5-1.2c-1.3-0.6-2.7-1.1-4-1.5c-5.7-1.7-11.3-1.7-16.8-0.7
				c-6.6,1.2-13,4-19.6,7.7c-2.2,1.2-4.5,2.5-6.8,3.9c-1.5,0.9-3,2-4.3,3.1c-0.8,0.7-1.5,1.4-2.1,2.2c-0.5,0.6-1.1,1.1-1.5,1.8
				c-0.1,0.2-0.2,0.4-0.3,0.6C385.2,1182.9,385.2,1183.1,385.1,1183.3z M385.5,1183.1c0.2,0,0.4,0.1,0.5,0.3
				C385.8,1183,385.6,1182.9,385.5,1183.1z"/>
		</g>
		<g transform="matrix(-0.46614,0,0,0.390039,3535.56,35.0323)">
			<path class="st1" d="M7219.9,1138c0,0.1,0,0.3,0,0.3c0,0.1-0.6,0.7-0.9-0.1c-0.1-0.2,0-0.4,0.1-0.5c0-0.2,0.1-0.4,0.2-0.5
				c0.1-0.2,0.1-0.3,0.2-0.5c0-0.1,0.1-0.1,0.2-0.2c0.6-0.7,1.2-1.4,1.8-2.2c0.5-0.6,1.1-1.2,1.7-1.8c1.3-1.1,2.8-2.1,4.4-3.1
				c2.2-1.4,4.6-2.6,6.7-3.8c6.6-3.7,13.1-6.5,19.7-7.7c5.4-1,10.9-0.9,16.7,0.8c1.3,0.4,2.7,0.9,4,1.5c0.4,0.2,0.7,0.7,0.5,1.2
				c-0.1,0.5-0.6,0.8-1,0.6c-1.3-0.5-2.6-0.9-3.9-1.2c-5.5-1.5-10.8-1.7-16-0.8c-6.4,1.1-12.8,3.8-19.3,7.4
				c-2.2,1.2-4.5,2.4-6.7,3.8c-1.5,0.9-2.9,1.9-4.2,2.9c-1.4,1.1-2.3,2.8-3.6,3.8C7220.2,1137.9,7220,1137.9,7219.9,1138z"/>
		</g>
		<g transform="matrix(0.4441,0,0,0.39775,3.89864,7.57019)">
			<path class="st1" d="M439.8,1167.3c0,0.1,0,0.2,0,0.3c-0.1,0.2-0.2,0.2-0.3,0.4c0,0.1,0,0.2,0,0.3c0,1.3,0,2.7,0,4
				c-0.1,6.7-0.1,13.3-0.4,20c-0.6,19.2-1.8,38.4-2.1,58.4c0,0.4,0.3,0.8,0.7,0.8c0.4,0,0.7-0.3,0.7-0.8c0.4-22.8,2.1-44.6,2.6-66.7
				c0.1-5,0.2-10,0.1-15c0-0.3,0-0.6,0-0.8c-0.1-0.2-0.2-0.3-0.3-0.6c0-0.1,0-0.2,0-0.3c0-0.3-0.2-0.5-0.5-0.5
				C440,1166.8,439.8,1167,439.8,1167.3z"/>
		</g>
		<g transform="matrix(-0.46614,0,0,0.390039,3535.56,35.0323)">
			<path class="st1" d="M7274.6,1121.7c0,0.1,0,0.2,0,0.2c0.1,0.3,0.2,0.3,0.3,0.6c0.1,0.3,0,0.6,0,0.8c0.1,5,0,10.1-0.1,15
				c-0.5,22.1-2.1,43.8-2.6,66.7c0,0.4-0.3,0.8-0.7,0.8c-0.4,0-0.7-0.4-0.7-0.8c0.3-20,1.5-39.1,2.1-58.4c0.2-6.6,0.3-13.3,0.4-20
				c0-1.3,0-2.7,0-4c0-0.1,0-0.2,0-0.3c0.1-0.2,0.2-0.2,0.2-0.4c0-0.1,0-0.2,0-0.3c0-0.3,0.2-0.5,0.4-0.6
				C7274.4,1121.1,7274.6,1121.4,7274.6,1121.7z"/>
		</g>
		<g transform="matrix(0.4441,0,0,0.39775,3.89864,7.57019)">
			<path class="st1" d="M386.2,1265l3.7-3.7c1-0.9,2.8-2.2,4.8-3.4c1.8-1.1,3.7-2.1,5.2-2.5c4.3-1.1,14-3.1,22.6-4.1
				c6.6-0.8,12.6-1,14.7,0.3c0.4,0.2,0.9,0.1,1.1-0.4c0.2-0.4,0.1-1-0.3-1.2c-1.9-1.1-6.4-1.3-11.8-0.8c-9.4,0.8-21.7,3.4-26.6,4.7
				c-1.2,0.3-2.9,1.1-4.5,2c-2.4,1.4-4.9,3.2-6,4.2c-0.4,0.4-1,1-1.6,1.6c-1,1.1-1.9,2.4-2.1,2.7c-0.2,0.2-0.1,0.6,0.1,0.8
				C385.7,1265.4,386,1265.3,386.2,1265z"/>
		</g>
		<g transform="matrix(-0.46614,0,0,0.390039,3535.56,35.0323)">
			<path class="st1" d="M7219.3,1218.8c0.2-0.3,1.1-1.6,2.1-2.7c0.6-0.6,1.1-1.2,1.5-1.6c1-0.9,2.9-2.4,5-3.6c1.9-1.2,4-2.2,5.5-2.6
				c4.9-1.3,17.2-3.8,26.6-4.7c5.4-0.5,9.9-0.3,11.8,0.8c0.4,0.2,0.5,0.8,0.4,1.2c-0.2,0.5-0.7,0.7-1,0.4c-2.2-1.3-8.2-1-14.8-0.3
				c-8.6,1-18.4,3-22.6,4.1c-1.4,0.4-3.3,1.3-5.2,2.5c-2,1.2-3.9,2.6-4.8,3.4l-3.7,3.7c-0.2,0.2-0.4,0.3-0.6,0.1
				C7219.2,1219.3,7219.1,1219,7219.3,1218.8z"/>
		</g>
		<g transform="matrix(-1.08339,0,0,1.13498,3596.83,-168.798)">
			<g transform="matrix(0.4441,0,0,0.39775,0,0)">
				<path class="st0" d="M7178.5,1438.9c0,0-9.5-3.8-18.5,4.2c0,0-0.8,0.9,7.7,0.4c0,0-8.8,4.4-8.5,6.2c0.2,1.8,5.6-2.8,11.2-2
					c0,0-8.3,2-7.9,4.9c0.1,1,5.7-1,7.9-1.3c0,0-6.4,2.9-5.8,5.1c0.3,1.1,6.3-2.6,8.9-1.7c2.6,0.9,1.2,1.4,1.2,1.4l-0.2,2.1
					c0,0,0.4,1.1,1.3,0.3c0.8-0.7,1.9-5,2.8-6.9c0.9-1.9,1.6-4.7,0.7-5.9C7178.2,1444.8,7180.8,1441.3,7178.5,1438.9z"/>
			</g>
			<g transform="matrix(0.425241,0.114677,-0.12804,0.38086,505.519,-417.697)">
				<path class="st1" d="M6485.2,651c0.6-0.1,1.5-0.2,1.6-0.3c1.4-0.5,2.8-0.9,4.2-1.5c0.9-0.4,1.8-0.7,2.7-1.2
					c0.3-0.1,1-0.3,1.5-0.5c0.2-0.1,0.4-0.2,0.4-0.3c0.1-0.1,0.2-0.2,0.3-0.1c0.1,0.1,0.2,0.2,0.1,0.3c-0.1,0.2-0.3,0.4-0.6,0.6
					c-0.5,0.3-1.1,0.5-1.4,0.7c-0.9,0.5-1.8,0.9-2.7,1.3c-1.4,0.6-2.8,1.1-4.2,1.6c-0.2,0.1-2,0.5-2.6,0.5c-0.7,0-0.8-0.5-0.6-0.9
					c0.8-1.8,2.4-3.6,4.3-5.1c2.7-2.1,6.1-3.9,8.4-4.9c0.7-0.3,3.3-0.6,4.9,0c0.4,0.2,0.8,0.4,1.1,0.6c0.3,0.4,0.5,0.8,0.5,1.3
					c0,0.2-0.1,0.4-0.4,0.5c-0.2,0-0.4-0.1-0.5-0.4c-0.1-0.2-0.3-0.3-0.5-0.5c-0.3-0.2-0.7-0.3-1.2-0.4c-1.3-0.2-3-0.1-3.5,0.1
					c-2.2,1-5.5,2.6-8.2,4.6C6487.4,648.4,6486,649.7,6485.2,651z"/>
			</g>
			<g transform="matrix(0.425241,0.114677,-0.12804,0.38086,505.519,-417.697)">
				<path class="st1" d="M6496.2,647c0.1-0.1,0.2-0.1,0.4,0c0,0,0.5,0.6,0,0.9c-0.1,0.1-0.4,0.2-0.7,0.3l-0.8,0.4l-4,3.3
					c-0.8,0.6-1.8,1.6-2.7,2.6c-0.9,1-1.8,2-2.4,2.9c-0.1,0.2-0.4,0.2-0.5,0.1c-0.2-0.1-0.2-0.4-0.1-0.6c0.7-1.2,1.7-2.6,2.8-3.8
					c0.8-0.9,1.6-1.6,2.3-2.2c0.6-0.5,1.8-1.5,2.9-2.2c0.5-0.4,1-0.7,1.3-0.9l0.9-0.4C6495.8,647.2,6496,647.1,6496.2,647
					L6496.2,647z"/>
			</g>
			<g transform="matrix(0.425241,0.114677,-0.12804,0.38086,505.519,-417.697)">
				<path class="st1" d="M6486,657.4c0,0.2,0,0.3,0.1,0.3c0.2,0,0.5-0.2,0.6-0.2c0.8-0.5,1.7-1.4,2.6-2.1c0.3-0.2,0.5-0.4,0.8-0.5
					c1.2-0.7,2.4-1.4,3.6-2c0.9-0.4,1.8-0.8,2.7-1l2.1-0.5c0.2-0.1,0.5-0.1,0.7,0.2c0.2,0.3,0.1,0.6-0.2,0.7
					c-0.1,0.1-0.4,0.2-0.8,0.3c-0.6,0.2-1.4,0.3-1.7,0.4c-0.9,0.1-1.7,0.5-2.5,0.8c-1.2,0.6-2.4,1.3-3.6,2l-3.4,2.5
					c-0.2,0.1-0.9,0.4-1.4,0.2c-0.3-0.1-0.5-0.4-0.5-1.1c0-0.2,0.2-0.4,0.4-0.4C6485.8,657,6486,657.2,6486,657.4z"/>
			</g>
			<g transform="matrix(0.425241,0.114677,-0.12804,0.38086,505.519,-417.697)">
				<path class="st1" d="M6490.6,658.9l0.5-0.3l1.1-0.6l2.1-1.3l3.8-1.7c0.2-0.1,0.5-0.1,0.6,0.1c0.1,0.2,0.1,0.5-0.1,0.6
					c-0.5,0.4-0.9,0.7-1.4,1c-0.7,0.4-1.5,0.7-2.2,1.1l-2.1,1.3l-1.1,0.6c-0.4,0.2-0.7,0.6-1.1,0.8c-0.2,0.2-0.5,0.3-0.7,0.4
					c-0.5,0.2-0.8,0-0.9-0.3c-0.2-0.3-0.1-0.9,0-1.1c0.1-0.4,0.3-0.7,0.5-1.1c0.3-0.5,0.6-0.9,0.9-1.4c0.5-0.7,1.1-1.3,1.8-1.8
					c1-0.8,2-1.4,3-2c0.2-0.2,1-0.5,1.7-0.9c0.7-0.3,1.4-0.6,1.7-0.7c0.2-0.1,0.4,0,0.5,0.3c0.1,0.2,0,0.5-0.2,0.5l-3.1,1.6
					c-0.9,0.6-1.9,1.3-2.8,2.1c-0.6,0.5-1.1,1-1.5,1.6C6491,658.2,6490.8,658.5,6490.6,658.9z"/>
			</g>
			<g transform="matrix(0.425241,0.114677,-0.12804,0.38086,505.519,-417.697)">
				<path class="st1" d="M6493.4,662.2c0.5-0.4,1.2-1,1.3-1c0.5-0.3,1.9-1.3,3.3-2c0.8-0.4,1.7-0.7,2.5-0.9c0.2,0,0.4,0,0.5-0.1
					c0.1-0.1,0.1-0.2,0.2-0.2c0.2-0.2,0.4-0.2,0.7-0.2c0.7,0,1.2,0.4,1.5,1.1c0.2,0.3,0,0.8-0.3,0.9c-0.3,0.2-0.7,0-0.9-0.3
					c-0.1-0.2-0.3-0.3-0.6-0.4c-0.1,0-0.2-0.1-0.4-0.1c-0.1-0.1-0.1-0.2-0.2-0.2c-0.2,0-0.4,0.1-0.6,0.2c-0.7,0.3-1.4,0.7-2.2,1.1
					c-1.4,0.8-2.7,1.7-3.2,2c-0.1,0-0.8,0.6-1.4,0.9c0,0-0.1,0.1-0.1,0.1c-0.3,0,0-0.2-0.2-0.2c-0.2,0-0.3,0.2-0.3,0.3
					c-0.2,0.2-0.4-0.1-0.4-0.1c-0.2-0.4-0.3-0.8-0.3-1.4c0-0.6,0.3-1.2,0.7-1.8c0.8-1.4,2.3-2.5,3-3.1c0.2-0.2,0.9-0.9,1.5-1.5
					c0.3-0.3,0.6-0.5,0.9-0.6c0.2-0.1,0.4,0,0.5,0.3c0.1,0.2,0,0.5-0.2,0.5c-0.2,0.1-0.5,0.4-0.8,0.7c-0.5,0.5-1,1.2-1.2,1.4
					c-0.5,0.5-1.5,1.5-2.2,2.5c-0.5,0.6-0.9,1.3-1.1,1.9L6493.4,662.2z M6493.3,662.5c0,0,0.1,0,0,0.1c0,0,0,0-0.1,0.1
					C6493.3,662.6,6493.3,662.6,6493.3,662.5z"/>
			</g>
			<g transform="matrix(0.442001,0.0386194,-0.0431197,0.395871,154.397,-152.616)">
				<path class="st1" d="M6976,1152c-0.1-0.1-0.1-0.1-0.1-0.2c0-0.2,0.1-0.5,0.3-0.5c0.2,0,0.4,0,0.5,0.3c0.2,0.3,0.3,1.2,0.3,1.3
					l0.2,4.1c0,0.3,0.1,0.5,0.2,0.8c0.2,0.4,0.3,0.8,0.4,1.2c0.1,0.4,0.2,0.9,0.1,1.4c-0.1,0.9-0.7,1.8-1,2.7
					c-0.1,0.3-0.2,0.7-0.2,1c-0.1,1.4-0.1,2.5-0.3,3.5c-0.2,1.1-0.7,2.1-1.5,3.3c-0.2,0.3-0.6,0.4-0.9,0.1c-0.3-0.2-0.4-0.7-0.1-1
					c0.5-0.8,0.9-1.5,1.2-2.2c0.2-0.5,0.3-1,0.4-1.5c0.2-0.7,0.3-1.5,0.5-2.4c0.1-0.5,0.3-0.9,0.4-1.4c0.1-0.3,0.2-0.6,0.3-0.9
					c0.1-0.5,0.2-0.9,0.1-1.3c-0.1-0.5-0.4-0.8-0.6-1.2c-0.2-0.4-0.5-0.7-0.6-1.2c-0.1-0.3-0.1-0.7-0.1-1c0.1-1.1,0.4-1.9,0.6-2.9
					c0.1-0.4,0.1-0.8,0.1-1.2C6976.2,1152.8,6976.1,1152.1,6976,1152z"/>
			</g>
			<g transform="matrix(0.4441,0,0,0.39775,0,0)">
				<path class="st1" d="M7178.3,1438.9c-0.1-0.1-0.3-0.4-0.3-0.5l-0.8-1.7c-0.3-0.6-0.6-1.2-0.9-1.9c-0.2-0.6-0.5-1.1-0.7-1.7
					c-0.2-0.4-0.3-0.7-0.4-1.1c-0.2-0.2-0.1-0.6,0.1-0.8c0.2-0.2,0.6-0.2,0.7,0.1c0.3,0.3,0.5,0.5,0.7,0.8c0.2,0.3,0.4,0.6,0.5,1
					c0.4,1,0.7,2,1.1,2.9l0.6,1.9c0,0.2,0.3,0.6,0.3,0.7c0,0.2,0,0.3-0.1,0.4c-0.1,0.1-0.2,0.2-0.5,0.1
					C7178.4,1439.2,7178.3,1439.1,7178.3,1438.9z M7178.6,1438.4L7178.6,1438.4C7178.6,1438.4,7178.6,1438.5,7178.6,1438.4
					L7178.6,1438.4C7178.6,1438.5,7178.6,1438.5,7178.6,1438.4z"/>
			</g>
		</g>
		<g transform="matrix(1.1298,0,0,1.13498,-233.645,-172.424)">
			<g transform="matrix(0.4441,0,0,0.39775,0,0)">
				<path class="st0" d="M867.1,1444.9c0,0-9.5-3.8-18.5,4.2c0,0-0.8,0.9,7.7,0.4c0,0-8.8,4.4-8.5,6.2c0.2,1.8,5.6-2.8,11.2-2
					c0,0-8.3,2-7.9,4.9c0.1,1,5.7-1,7.9-1.3c0,0-6.4,2.9-5.8,5.1c0.3,1.1,6.3-2.6,8.9-1.7c2.6,0.9,1.2,1.4,1.2,1.4l-0.2,2.1
					c0,0,0.4,1.1,1.3,0.3c0.8-0.7,1.9-5,2.8-6.9c0.9-1.9,1.6-4.7,0.7-5.9C866.8,1450.8,869.3,1447.3,867.1,1444.9z"/>
			</g>
			<g transform="matrix(0.425241,0.114677,-0.12804,0.38086,505.519,-417.697)">
				<path class="st1" d="M443.5,2476.5c0.8-1.4,2.2-2.7,3.7-3.8c2.7-2,6-3.6,8.2-4.6c0.5-0.2,2.1-0.4,3.5-0.2
					c0.5,0.1,0.9,0.2,1.2,0.4c0.2,0.1,0.4,0.2,0.5,0.5c0,0.2,0.2,0.4,0.4,0.4s0.4-0.2,0.3-0.5c0-0.5-0.2-1-0.5-1.4
					c-0.3-0.3-0.7-0.5-1.1-0.6c-1.6-0.6-4.2-0.3-4.9,0c-2.3,1-5.6,2.7-8.3,4.9c-1.9,1.5-3.6,3.2-4.4,5.1c-0.2,0.4-0.1,0.9,0.6,0.9
					c0.6,0,2.4-0.4,2.6-0.5c1.4-0.5,2.8-1,4.2-1.6c0.9-0.4,1.9-0.8,2.7-1.3c0.3-0.2,0.9-0.4,1.4-0.7c0.3-0.2,0.5-0.4,0.6-0.6
					c0.1-0.1,0-0.3-0.1-0.3c-0.1-0.1-0.2,0-0.3,0.1c-0.1,0.1-0.2,0.2-0.4,0.3c-0.5,0.2-1.2,0.4-1.5,0.5c-0.8,0.4-1.8,0.8-2.7,1.2
					c-1.4,0.5-2.8,1-4.2,1.5C445,2476.2,444.1,2476.4,443.5,2476.5z"/>
			</g>
			<g transform="matrix(0.425241,0.114677,-0.12804,0.38086,505.519,-417.697)">
				<path class="st1" d="M454.4,2472.5L454.4,2472.5L454.4,2472.5c-0.2,0.1-0.4,0.2-0.6,0.2l-0.9,0.4c-0.3,0.2-0.8,0.5-1.3,0.9
					c-1,0.8-2.3,1.8-2.9,2.2c-0.9,0.7-1.9,1.6-2.8,2.7c-0.9,1.1-1.7,2.2-2.3,3.2c-0.1,0.2-0.1,0.4,0.1,0.6c0.2,0.1,0.4,0.1,0.5-0.1
					c0.7-0.9,1.5-1.9,2.4-2.9c0.9-1,1.8-2,2.7-2.6l4-3.3l0.8-0.4c0.2-0.1,0.5-0.2,0.7-0.3c0.1,0,0.1,0,0.1-0.1
					c0.2-0.1,0.2-0.3,0.2-0.3c0-0.2-0.1-0.4-0.3-0.5C454.7,2472.3,454.5,2472.4,454.4,2472.5
					C454.5,2472.5,454.4,2472.5,454.4,2472.5L454.4,2472.5C454.4,2472.5,454.4,2472.5,454.4,2472.5L454.4,2472.5
					C454.4,2472.2,454.4,2472.3,454.4,2472.5z"/>
			</g>
			<g transform="matrix(0.425241,0.114677,-0.12804,0.38086,505.519,-417.697)">
				<path class="st1" d="M443.5,2482.8c0,0.7,0.3,1,0.6,1.1c0.5,0.2,1.2-0.1,1.4-0.2l3.4-2.5c1.2-0.7,2.4-1.4,3.6-2
					c0.8-0.4,1.6-0.7,2.5-0.8c0.3,0,1.1-0.2,1.7-0.4c0.4-0.1,0.7-0.2,0.8-0.3c0.2-0.1,0.3-0.5,0.1-0.7c-0.1-0.3-0.4-0.3-0.7-0.2
					l-2.1,0.5c-0.9,0.2-1.8,0.5-2.7,1c-1.2,0.6-2.4,1.4-3.6,2c-0.2,0.1-0.5,0.3-0.8,0.5c-0.9,0.7-1.8,1.6-2.6,2.1
					c-0.1,0-0.4,0.2-0.6,0.2c-0.1,0-0.1-0.1-0.1-0.3c0-0.2-0.2-0.4-0.4-0.5C443.6,2482.4,443.5,2482.6,443.5,2482.8z"/>
			</g>
			<g transform="matrix(0.425241,0.114677,-0.12804,0.38086,505.519,-417.697)">
				<path class="st1" d="M448.8,2484.3c0.2-0.4,0.5-0.7,0.7-1c0.4-0.6,1-1.1,1.6-1.6c0.9-0.8,1.9-1.4,2.8-2.1l3.2-1.6
					c0.2-0.1,0.3-0.3,0.2-0.5c-0.1-0.2-0.3-0.3-0.5-0.3c-0.3,0.1-1,0.4-1.7,0.7c-0.7,0.3-1.4,0.7-1.7,0.9c-0.9,0.6-2,1.3-3,2
					c-0.7,0.5-1.3,1.1-1.8,1.8c-0.3,0.4-0.7,0.9-0.9,1.3c-0.2,0.3-0.4,0.7-0.5,1.1c-0.1,0.2-0.1,0.9,0.1,1.1
					c0.2,0.2,0.4,0.5,0.9,0.3c0.2-0.1,0.5-0.2,0.7-0.4c0.4-0.3,0.8-0.6,1.1-0.8l1.1-0.6l2.1-1.3c0.7-0.4,1.4-0.7,2.2-1.1
					c0.5-0.3,1-0.6,1.4-1c0.2-0.1,0.2-0.4,0.1-0.6c-0.1-0.2-0.4-0.3-0.6-0.2l-3.8,1.7l-2.1,1.3l-1.1,0.6L448.8,2484.3z"/>
			</g>
			<g transform="matrix(0.425241,0.114677,-0.12804,0.38086,505.519,-417.697)">
				<path class="st1" d="M451.7,2487.7l0.1-0.2c0.2-0.6,0.6-1.3,1.1-1.9c0.8-1,1.7-2,2.2-2.5c0.2-0.2,0.7-0.8,1.2-1.4
					c0.3-0.3,0.5-0.6,0.8-0.7c0.2-0.1,0.3-0.3,0.2-0.5c-0.1-0.2-0.3-0.3-0.5-0.3c-0.3,0.1-0.5,0.3-0.9,0.6c-0.6,0.5-1.2,1.3-1.5,1.5
					c-0.7,0.6-2.1,1.7-2.9,3.1c-0.4,0.6-0.6,1.2-0.7,1.8c-0.1,0.5,0,1,0.3,1.4c0,0.1,0.2,0.3,0.4,0.2c0.1-0.1,0.1-0.3,0.4-0.3
					c0.2,0,0,0.1,0.2,0.2c0,0,0.1,0,0.1-0.1c0.6-0.3,1.3-0.9,1.4-0.9c0.5-0.3,1.8-1.2,3.2-2c0.7-0.4,1.5-0.9,2.2-1.1
					c0.2-0.1,0.4-0.2,0.6-0.2c0.1,0,0.1,0.1,0.2,0.2c0.1,0.1,0.3,0.1,0.4,0.1c0.3,0.1,0.5,0.1,0.6,0.4c0.2,0.3,0.5,0.5,0.8,0.3
					c0.3-0.2,0.4-0.6,0.3-0.9c-0.3-0.7-0.9-1.1-1.6-1.1c-0.2,0-0.4,0-0.6,0.2c-0.1,0.1-0.1,0.2-0.2,0.2c-0.1,0.1-0.3,0-0.5,0.1
					c-0.8,0.2-1.7,0.5-2.5,0.9c-1.5,0.7-2.8,1.7-3.3,2C452.9,2486.7,452.2,2487.2,451.7,2487.7z M451.6,2487.9c0,0,0,0.1,0,0.1
					l0,0.1c0,0,0.1,0,0.1-0.1C451.7,2487.9,451.6,2487.9,451.6,2487.9L451.6,2487.9z"/>
			</g>
			<g transform="matrix(0.442001,0.0386194,-0.0431197,0.395871,154.397,-152.616)">
				<path class="st1" d="M695,1770.8c0,0.2,0.1,0.8,0.1,0.9c0,0.4,0,0.8-0.1,1.2c-0.1,1-0.4,1.8-0.5,2.9c0,0.4,0,0.7,0.1,1
					c0.1,0.4,0.4,0.8,0.6,1.2c0.2,0.4,0.6,0.7,0.6,1.2c0,0.4,0,0.9-0.1,1.3c-0.1,0.3-0.2,0.6-0.3,0.9c-0.2,0.5-0.4,0.9-0.4,1.4
					c-0.1,0.9-0.3,1.7-0.5,2.4c-0.1,0.5-0.2,1-0.4,1.5c-0.3,0.7-0.6,1.4-1.1,2.2c-0.2,0.3-0.1,0.7,0.1,1c0.3,0.2,0.7,0.2,0.9-0.1
					c0.8-1.2,1.2-2.2,1.5-3.3c0.2-1.1,0.3-2.2,0.3-3.6c0-0.3,0.1-0.7,0.2-1c0.3-0.9,0.9-1.8,1-2.7c0.1-0.5,0-0.9-0.2-1.4
					c-0.1-0.4-0.3-0.8-0.5-1.2c-0.1-0.2-0.2-0.5-0.2-0.8l-0.2-4.1c0-0.2-0.2-1.1-0.3-1.3c-0.2-0.3-0.3-0.3-0.5-0.3
					c-0.2,0-0.3,0.3-0.3,0.5C694.9,1770.6,694.9,1770.7,695,1770.8z"/>
			</g>
			<g transform="matrix(0.4441,0,0,0.39775,0,0)">
				<path class="st1" d="M866.9,1444.9c0,0.2,0.1,0.3,0.3,0.4c0.2,0.1,0.3,0,0.4-0.1c0.1-0.1,0.2-0.2,0.2-0.4c0-0.1-0.2-0.5-0.3-0.7
					l-0.6-1.9c-0.4-0.9-0.7-2-1.1-2.9c-0.1-0.3-0.3-0.7-0.5-1c-0.2-0.3-0.5-0.6-0.7-0.8c-0.2-0.2-0.5-0.3-0.7-0.1
					c-0.2,0.2-0.2,0.5-0.1,0.8c0.2,0.3,0.3,0.7,0.4,1.1c0.2,0.5,0.5,1.1,0.7,1.7c0.3,0.7,0.6,1.3,0.9,1.9l0.8,1.6
					C866.6,1444.5,866.8,1444.8,866.9,1444.9z"/>
			</g>
		</g>
		<g transform="matrix(0.4441,0,0,0.302536,2.09089,307.802)">
			<path class="st1" d="M366.7,538.3c-0.1,0.4-0.1,0.9,0.1,1.3c0.3,0.6,0.9,0.7,1.3,0.3c1-0.9,0.9-2.2,0.2-3.3
				c-0.2-0.3-0.4-0.6-0.7-0.7c-0.4-0.2-0.8,0.2-0.8-0.1c0-0.1,0,0.1,0,0.1c0.1,0,0.1,0.1,0.1,0.2c0-0.2-0.1-0.3-0.3-0.4
				c-0.1-0.1-0.1-0.1-0.1-0.1c-0.1-0.1-0.1,0-0.1,0c-0.2-0.1-0.2,0.2-0.3,0.3c-0.1,0.1,0,0.3-0.1,0.5c0,0.1,0.1,0.1,0.1,0.3
				c0,0.1,0.1,0.1,0.2,0.4c0.1,0.2,0.1,0.5,0.3,0.9C366.6,538.1,366.7,538.2,366.7,538.3z M366.8,538.3c0,0.2,0,0.4,0.1,0.3
				C366.9,538.6,366.8,538.5,366.8,538.3z M367,537.7c0,0-0.1,0-0.1,0.1l-0.1,0.2l0-0.1C366.9,537.8,366.9,537.8,367,537.7
				L367,537.7z M366.8,537L366.8,537C366.7,537,366.7,537,366.8,537L366.8,537L366.8,537z M367,536.4c0,0.1,0,0.2,0,0.2l0-0.1
				C367,536.5,367,536.5,367,536.4z"/>
		</g>
		<g transform="matrix(0.4441,0,0,0.346094,2.09089,168.758)">
			<path class="st1" d="M389.3,878.4c0-0.1-0.1-0.2,0-0.3c0,0,0-0.1,0-0.1s-0.1,0-0.1,0c-0.3-0.1-0.3,0.2-0.5,0.1
				c-0.1,0,0,0.1-0.1,0.1c-0.2,0,0,0.2-0.1,0.3c-0.3,0.1,0.1,0.3-0.1,0.4c0,0.1-0.1,0.3-0.2,0.6c-0.2,1,0,2.6,0.3,3.5
				c0.1,0.3,0.2,0.5,0.4,0.7c0.4,0.4,0.8,0.8,1.3,0.5c0.6,0,1-0.6,1-1.3c0-0.5-0.2-0.9-0.5-1.1c0,0,0,0,0.1,0c0.1-0.1,0-0.1-0.2-0.1
				c-0.1-0.4,0.1-1.4,0.1-1.9c0-0.3-0.1-0.5-0.1-0.7c0,0,0-0.1,0-0.1l0,0.1c0,0.1-0.2,0.1-0.1,0.2c0,0.1-0.1,0,0,0.1
				c0.1,0.1-0.2,0-0.1,0.2c0.1,0.1-0.2,0-0.1,0.1c0,0.1-0.1-0.1-0.1,0c0,0.1-0.2-0.1-0.1-0.1c0.3,0,0.2-0.5,0.2-0.7
				c0-0.3,0.2-0.6,0-0.7c-0.1,0-0.1-0.2-0.2-0.2c-0.2-0.2-0.5-0.1-0.6,0.1C389.3,878.2,389.2,878.3,389.3,878.4z M390.4,881.6
				L390.4,881.6c0.1,0.1,0.1,0.1,0.2,0.1L390.4,881.6L390.4,881.6L390.4,881.6L390.4,881.6L390.4,881.6L390.4,881.6z M389.3,878.7
				L389.3,878.7c0,0.1,0,0.1,0.1,0.1L389.3,878.7C389.3,878.7,389.3,878.7,389.3,878.7L389.3,878.7z"/>
		</g>
	</g>
	<g transform="matrix(0.4441,0,0,0.39775,1107.86,782.822)" class="st2">
		<g id="Gray-Short.svg5" transform="matrix(0.681216,0,0,0.681216,1361.69,1133.76)" class="st5">
			<g transform="matrix(1,0,0,1,-236.5,-283.5)">
				<g id="head-mono-Gray-Short5">
					<path class="st0" d="M-4903.3-2572.5c0,0-4.8,21.4,9.6,15.1c0,0,8.1,21,14.9,18.9c0,0,5.4,4.9,9.8,5.3c0,0,21.5,22,39.5-12.1
						c7.1-13.5,2.7-43.1-0.4-54.2c-1.3-4.8-1.6-9.7-1.7-11.1c0,0,9.3-6.5,2.5-9.5c0,0,4.8-7.5,3.9-8.2c-0.9-0.7-32.1-15.9-47.6-12.5
						c-15.5,3.4-23,5.5-28,13.1c-5.1,7.6-5.2,3.4-6.1,10.8C-4908-2609.5-4910.1-2576.9-4903.3-2572.5z"/>
					<path id="_xD83D__xDD8D_-Ink12" class="st1" d="M-4851.4-2525.4c-6.5,0.7-14.2-1-18.6-6.9c-0.1-0.2-0.2-0.4-0.2-0.6
						c0-0.2,0.1-0.4,0.2-0.6c0.1-0.2,0.3-0.3,0.5-0.3c0.2,0,0.3,0,0.5,0.1l0.4,0.2c3,1.8,6,3.4,9.4,4.1c3.5,0.7,7,0.6,10.4-0.3
						c6.2-1.6,11.3-5.6,15-11c4.2-6,6.6-13.5,7.3-21.1c0.8-9.2-1-18.3-2.9-27.2c-1.9-9.3-4.1-18.6-6.5-27.8
						c-0.1-0.3-0.1-0.5-0.1-0.8c-0.7-0.3-1.5-0.2-2.3,0.1c-1.4,0.5-2.8,1.7-4,2.7c-0.4,0.4-0.8,0.7-1.2,1c-1.5,1.1-3,1.9-4.8,2
						c-1.8,0.1-3.7-0.5-5.3-1.3c-0.9-0.4-1.7-0.8-2.5-1.2c-2.4-1.2-4.7-2.4-7.3-3.2c-3.4-1-7-1.5-10.5-1.5
						c-6.3,0.1-12.7,1.9-16.6,7.9c-1.6,2.4-2.6,5.2-1.8,8.2c0.4,1.6,1.3,3.1,2.2,4.5l0.3,0.5c0.5,0.7,0.9,1.5,1,2.3
						c0.1,0.7,0,1.4-0.4,2.1c-0.3,0.5-0.6,0.9-0.9,1.4c-0.2,0.3-0.5,0.6-0.7,1c-0.4,0.7-0.8,1.4-1.1,2.2c-0.6,1.5-0.8,3.1-0.9,4.7
						c-0.1,1.9,0.2,3.9,0.4,5.8c0.2,1.4,0.3,2.7,0.4,4.1c0,0.2-0.1,0.4-0.1,0.5c-0.1,0.2-0.3,0.3-0.5,0.3c-0.1,0-0.1,0-0.2,0
						c0,0.1,0.1,0.3,0.1,0.4c-0.1-0.2-0.2-0.3-0.4-0.5c0,0,0,0,0,0c-0.1-0.1-0.3-0.2-0.3-0.4c-0.2-0.2-0.4-0.4-0.6-0.6
						c-1.1-0.9-2.3-1.4-3.6-1.5c-1.2,0-2.4,0.4-3.4,1.4c-1.9,2-2.4,5.1-2.4,7.9c0,2.8,0.6,6.1,2.7,7.9c0.9,0.7,1.9,1.1,3,1.1
						c0.9,0,1.7-0.3,2.6-0.7c0.3-0.1,0.5-0.2,0.8-0.3c0.3-0.1,0.6-0.1,0.8,0c0.3,0.1,0.5,0.3,0.7,0.5c0.2,0.2,0.3,0.5,0.3,0.9
						c0,0.3,0,0.6-0.1,0.9c0,0.1-0.1,0.1-0.1,0.2l0.5,0.9c1.8,3.4,3.7,6.7,6.2,9.6c1.4,1.7,2.9,3.2,4.5,4.6l0.2,0.2
						c0.1,0.1,0.3,0.3,0.5,0.4c0.5,0.4,1,1,1.6,1c0.2,0,0.3,0,0.4,0c0.3,0,0.6-0.1,0.8,0.1c0.2,0.1,0.4,0.3,0.6,0.6
						c0.1,0.2,0.2,0.5,0.2,0.8c0,0.3-0.1,0.6-0.2,0.9c-0.3,0.5-0.6,0.8-1,1c-0.4,0.2-0.9,0.2-1.3,0.1c-1.2-0.2-2.4-1.3-3.2-2
						l-0.2-0.1c-1.8-1.5-3.5-3.2-5-5.1c-2.5-3.2-4.8-7-6-11.2c-0.8,0.6-1.9,0.9-2.9,0.9c-1.6,0.1-3.2-0.4-4.4-1
						c-2.7-1.4-4.3-4.1-5.1-7.2c-0.9-3.6-0.6-7.7,0.5-10.9c0-0.1,0.1-0.2,0.1-0.3c-3.5-9.8-4.5-20.6-4.2-31c0.1-4.9,0.4-10,1.5-14.8
						c0.5-2.1,1.3-4.2,2.5-5.8c0.7-1,1.6-1.7,2.5-2.4c0.8-0.6,1.6-1.3,2.2-2.1l0.3-0.4c0.1-0.1,0.1-0.2,0.2-0.2
						c1.1-1.4,2.2-2.8,3.6-3.9c1.6-1.3,3.4-2.4,5.2-3.2c4-1.9,8.2-3,12.4-3.8c9.1-1.9,18.5-2,27.5,0.7c4.2,1.2,8.2,2.9,12.3,4.6
						c0.4,0.2,0.8,0.3,1.1,0.5c3.2,1.3,6.3,2.6,9.5,3.9c1.5,0.6,2.9,1.2,4.4,1.8c0.3,0.1,0.6,0.4,0.8,0.8c0.2,0.3,0.2,0.7,0.1,1.1
						c-0.9,2.5-2,4.9-3.4,7.2c0.5,0.4,0.9,0.8,1.2,1.4c0.4,0.7,0.6,1.6,0.6,2.5c0.1,3-2.4,5.1-4.4,6.5c-0.2,0.1-0.4,0.2-0.6,0.3
						c2,8.4,3.9,16.9,5.5,25.4l0.1,0.6c1.7,8.9,2.7,18.1,1.2,27.1c-1.3,7.8-4.5,15.3-9.4,21.1
						C-4838-2529.8-4844.4-2526.2-4851.4-2525.4z M-4894.3-2576.8c-0.9-3-1.3-6.3-1-9.4c0.2-1.9,0.7-3.8,1.6-5.5
						c0.5-1,1.1-1.9,1.7-2.7l0.2-0.3c0.1-0.1,0.2-0.3,0.3-0.4c0-0.1,0-0.2-0.1-0.3c-0.1-0.3-0.3-0.6-0.5-0.8
						c-0.1-0.2-0.3-0.3-0.4-0.5c-1.9-2.8-3.3-6.2-2.8-9.8c0.4-3.5,2.5-6.8,4.7-9.2c4.8-5.4,12.3-6.6,18.8-6.3
						c3.8,0.2,7.6,0.9,11.2,2.2c1.8,0.6,3.5,1.4,5.2,2.3l0.4,0.2c0.2,0.1,0.4,0.2,0.6,0.3c1.3,0.7,2.7,1.5,4.1,1.9
						c2.8,0.8,4.7-0.9,6.7-2.5c0.7-0.6,1.4-1.1,2.1-1.6l0.2-0.1c1.3-0.9,2.9-1.4,4.5-1.4c1.3,0,2.6,0.5,3.7,1.6
						c0.2,0.2,0.3,0.5,0.4,0.7c0.1,0.2,0.2,0.4,0.3,0.7c0.4,1.6,0.7,3.1,1.1,4.7l0.3-0.2c0.9-0.7,1.9-1.4,2.3-2.5
						c0.2-0.4,0.1-1.1-0.1-1.6c-0.1-0.2-0.2-0.3-0.3-0.4c-0.1-0.1-0.2-0.1-0.4-0.1c-0.3,0-0.7,0-0.9-0.1c-0.3-0.1-0.5-0.4-0.7-0.7
						c-0.2-0.3-0.2-0.6-0.2-1c0-0.3,0.2-0.6,0.4-0.9c1.5-2,2.8-4.2,3.8-6.5l-6.5-2.7c-2.3-1-4.6-1.9-7-2.9l-1.3-0.5
						c-4.2-1.7-8.5-3.4-12.9-4.5c-8.7-2.2-17.9-1.7-26.6,0.4l-0.5,0.1c-3.7,0.9-7.4,2-10.7,3.8c-1.6,0.9-3.2,2-4.6,3.4
						c-0.6,0.6-1.1,1.3-1.7,2c-0.8,1-1.5,1.9-2.4,2.7l-0.8,0.7c-1.2,1.1-2.4,2.2-3,3.9c-0.7,1.8-1.1,3.8-1.4,5.7
						c-0.7,4.9-1,9.9-1,14.8c0,8.3,1.2,16.5,2.6,24.6c1.1-1.8,2.8-3.3,4.8-3.6c1.3-0.2,2.7,0.1,3.8,0.7
						C-4895.4-2577.9-4894.8-2577.4-4894.3-2576.8z M-4896.4-2566.9c-1.5-0.7-3.1-0.9-4.7-0.6c-0.2,0-0.3,0-0.5-0.1
						c-0.1-0.1-0.2-0.2-0.3-0.4c-0.1-0.2-0.1-0.4,0-0.5c0.1-0.1,0.1-0.3,0.3-0.4c1.7-0.9,3.7-1.3,5.6-1l0.2,0c1,0.2,2.3,0.5,3.4,1.2
						c0.8,0.5,1.4,1.3,1.5,2.2c0.1,0.5,0,1-0.3,1.4c-0.2,0.4-0.6,0.6-1.1,0.6c-0.9,0-1.4-0.4-2-1c-0.1-0.1-0.2-0.1-0.2-0.2
						C-4895.1-2566.2-4895.8-2566.6-4896.4-2566.9z"/>
				</g>
			</g>
		</g>
	</g>
	<g id="Explaining.svg" transform="matrix(0.283467,0,0,0.253883,1730.41,1244.07)" class="st2">
		<g transform="matrix(1,0,0,1,-144.5,-146.5)" class="st5">
			<g id="face-Explaining">
				<path id="_xD83D__xDD8D_-Ink13" class="st1" d="M-5362-2926.6c2.8-3.6,7.4-3.8,11.3-2.9c2.5,0.6,4.9,1.5,7.4,1.9
					c1.2,0.2,2.4,0.2,3.5,0.2c1.2,0,2.3-0.3,3.5-0.2c0.2,0,0.2,0.3,0.1,0.4c-1.6,1.1-3.7,1.4-5.6,1.7c0,0.2,0,0.3,0,0.4
					c0.1,0.3,0.1,0.7,0.1,1c0.1,0.8,0.2,1.6,0.3,2.3c0.2,1.5,0.2,3.1,0.6,4.6l0.1,0.2c0.1,0.3,0.1,0.6,0.1,0.9l0.1,0l0.2-0.1
					l0.2-0.1c0.6-0.3,1.1-0.5,1.8-0.4c0.5,0.1,1,0.4,1,1.1c0,2.8-3.3,3.7-5.2,4.2l-0.6,0.2c-2.4,0.7-4.9,1.2-7.4,1.4
					c-4,0.2-8.5-1-11.1-4.6C-5364.2-2918.1-5364.7-2923.1-5362-2926.6z M-5343.8-2915c-0.4-4.2-5-4.4-6.3-1.8
					c-0.6-3.7-9.2-0.3-8.6,0.4c2.6,2.8,6.5,3,9.8,2.5C-5347.2-2914.1-5345.5-2914.5-5343.8-2915z M-5348.9-2925.9l-1.2-0.2l-0.5-0.1
					c-2.9-0.4-6.1-0.6-8.4,1.4c-0.9,0.7-1.3,1.7-1.5,2.8c2.2-0.4,4.4-0.6,6.7-0.9l0.6-0.1c1.4-0.1,2.8-0.3,4.2-0.4l1-0.1l1-0.1
					c0.3,0,2.7-0.2,3.1-0.1c0-0.4,0.1-1.4,0.2-1.8c-1.7,0.1-3.3-0.1-5-0.3L-5348.9-2925.9z M-5343.6-2944.5c1.7,1.2,4.3,3.9,2.5,6.7
					c-2.2,2.5-5.3-0.4-6.8-1.7c-1.4-1-3,1.6-1.7,2.8c11.1,9.2,15.6-7.5,6.9-9.2C-5343.7-2946-5344.1-2944.8-5343.6-2944.5z
					 M-5340.6-2939.6L-5340.6-2939.6l0.1-0.1C-5340.4-2939.7-5340.4-2939.7-5340.6-2939.6L-5340.6-2939.6L-5340.6-2939.6
					C-5340.6-2939.6-5340.6-2939.6-5340.6-2939.6z M-5362.4-2949.9L-5362.4-2949.9c0-1.7,0.8-5.3,2.9-5.3c1.3,0,2.1,2.5,2.2,5.1
					l0,0.1c0.1,1.6-0.3,5.1-2.2,5.1C-5361.4-2944.9-5362.4-2948.2-5362.4-2949.9z M-5331.9-2950.4L-5331.9-2950.4
					c0-1.7-0.8-5.3-2.9-5.3c-1.3,0-2,2.4-2.2,4.9l0,0.2c-0.1,1.5,0.3,5.2,2.2,5.2C-5332.9-2945.4-5331.9-2948.7-5331.9-2950.4z
					 M-5361.2-2966.2c1.7-0.3,3.9,0.3,4.7,2.2c0.4,0.9-0.1,1.8-1,1.9c-2.1,0.1-4.1-0.4-5.9,1.1c-0.8,0.7-1.5,1.6-2.1,2.5l-0.2,0.4
					l-0.2,0.3c-0.4,0.6-0.8,1.3-0.7,2.1c0,0.2-0.2,0.4-0.4,0.4c-1.2-0.1-1.4-1.8-1.2-2.8c0.3-1.9,1.1-3.7,2.3-5.2
					C-5364.7-2964.8-5363.1-2965.9-5361.2-2966.2z M-5337.9-2963.8c1.2-0.8,2.7-1.2,4-1c2.7,0.2,7.2,2.8,6.6,6.5
					c-0.2,1.1-1.6,1.7-2.4,1.1c-0.9-0.7-1.1-1.7-1.8-2.6c-0.5-0.7-1.2-1.2-1.9-1.7c-0.7-0.4-1.5-0.7-2.3-0.8l-0.1,0
					c-0.5,0-2.9,0-2.6,1c0.1,0.2-0.2,0.4-0.3,0.2C-5339.5-2962.1-5338.7-2963.3-5337.9-2963.8z"/>
			</g>
		</g>
	</g>
</g>
<g class="st2">
	<g transform="matrix(0.4441,0,0,0.39775,-345.369,-236.477)" class="st5">
		<g id="Gray-Short.svg" transform="matrix(0.681216,0,0,0.681216,1361.69,1133.76)">
			<g transform="matrix(1,0,0,1,-236.5,-283.5)">
				<g id="head-mono-Gray-Short">
					<path id="_xD83D__xDD8D_-Ink" class="st6" d="M-473.8-374.7c-6.3,0.7-13.7-0.9-17.9-6.6c-0.1-0.2-0.2-0.4-0.2-0.5
						c0-0.2,0.1-0.4,0.2-0.6c0.1-0.2,0.3-0.3,0.5-0.3c0.2,0,0.3,0,0.5,0.1l0.4,0.2c2.9,1.8,5.8,3.3,9.1,3.9c3.3,0.7,6.7,0.6,10-0.2
						c6-1.5,10.9-5.4,14.5-10.6c4-5.8,6.4-13,7-20.4c0.7-8.9-1-17.6-2.8-26.2c-1.9-9-3.9-18-6.3-26.8c-0.1-0.3-0.1-0.5-0.1-0.8
						c-0.7-0.3-1.5-0.2-2.2,0.1c-1.4,0.5-2.7,1.7-3.8,2.6c-0.4,0.3-0.8,0.7-1.1,0.9c-1.4,1.1-2.9,1.8-4.6,2
						c-1.8,0.1-3.5-0.5-5.1-1.3c-0.8-0.4-1.6-0.8-2.4-1.2c-2.3-1.1-4.5-2.3-7-3c-3.3-1-6.7-1.5-10.2-1.5c-6.1,0.1-12.3,1.8-16,7.6
						c-1.5,2.3-2.5,5-1.7,7.9c0.4,1.6,1.2,3,2.1,4.3l0.3,0.5c0.5,0.7,0.9,1.4,1,2.2c0.1,0.6,0,1.3-0.4,2.1c-0.3,0.5-0.6,0.9-0.9,1.3
						c-0.2,0.3-0.5,0.6-0.7,0.9c-0.4,0.6-0.8,1.4-1.1,2.1c-0.6,1.4-0.8,3-0.8,4.5c-0.1,1.9,0.2,3.7,0.4,5.6c0.2,1.3,0.3,2.6,0.4,3.9
						c0,0.2,0,0.4-0.1,0.5c-0.1,0.2-0.3,0.2-0.5,0.3c0,0-0.1,0-0.2,0c0,0.1,0,0.2,0.1,0.4c-0.1-0.2-0.2-0.3-0.4-0.5c0,0,0,0,0,0
						c-0.1-0.1-0.2-0.2-0.3-0.4c-0.2-0.2-0.4-0.4-0.6-0.5c-1-0.9-2.3-1.4-3.5-1.4c-1.2,0-2.4,0.4-3.3,1.4c-1.8,1.9-2.3,5-2.4,7.6
						c0,2.7,0.5,5.9,2.6,7.6c0.8,0.7,1.9,1.1,2.9,1.1c0.9,0,1.7-0.3,2.5-0.6c0.2-0.1,0.5-0.2,0.8-0.3c0.3-0.1,0.5-0.1,0.8,0
						c0.2,0.1,0.5,0.3,0.6,0.5c0.2,0.2,0.3,0.5,0.3,0.8c0,0.3,0,0.6-0.1,0.9c0,0.1-0.1,0.1-0.1,0.2l0.5,0.9c1.8,3.2,3.6,6.4,5.9,9.2
						c1.4,1.6,2.8,3.1,4.4,4.4l0.2,0.2c0.1,0.1,0.3,0.2,0.5,0.4c0.5,0.4,1,1,1.5,1c0.1,0,0.3,0,0.4,0c0.3,0,0.5-0.1,0.8,0
						c0.2,0.1,0.4,0.2,0.6,0.6c0.1,0.2,0.2,0.5,0.2,0.8c0,0.3-0.1,0.6-0.2,0.8c-0.3,0.5-0.6,0.8-0.9,1c-0.4,0.2-0.8,0.2-1.3,0.1
						c-1.1-0.2-2.3-1.3-3.1-1.9l-0.1-0.1c-1.7-1.5-3.4-3.1-4.8-4.9c-2.5-3.1-4.7-6.8-5.8-10.8c-0.8,0.6-1.8,0.9-2.8,0.9
						c-1.5,0.1-3.1-0.4-4.3-1c-2.6-1.4-4.2-4-4.9-6.9c-0.8-3.5-0.6-7.4,0.5-10.5c0-0.1,0.1-0.2,0.1-0.3c-3.3-9.4-4.3-19.9-4.1-29.9
						c0.1-4.7,0.4-9.6,1.4-14.2c0.5-2.1,1.2-4,2.5-5.6c0.7-0.9,1.6-1.6,2.4-2.4c0.8-0.6,1.5-1.2,2.1-2l0.3-0.4
						c0.1-0.1,0.1-0.2,0.2-0.2c1.1-1.4,2.2-2.7,3.5-3.8c1.5-1.3,3.2-2.3,5-3.1c3.8-1.8,7.9-2.9,12-3.7c8.8-1.8,17.8-1.9,26.5,0.6
						c4,1.2,8,2.8,11.9,4.4c0.4,0.1,0.7,0.3,1.1,0.5c3,1.2,6.1,2.5,9.1,3.7c1.4,0.6,2.8,1.2,4.2,1.7c0.3,0.1,0.6,0.4,0.8,0.7
						c0.2,0.3,0.2,0.7,0.1,1.1c-0.9,2.5-2,4.8-3.3,6.9c0.5,0.4,0.9,0.8,1.1,1.4c0.4,0.7,0.6,1.5,0.6,2.4c0,2.9-2.3,4.9-4.3,6.3
						c-0.2,0.1-0.4,0.2-0.5,0.2c1.9,8.1,3.7,16.3,5.3,24.5l0.1,0.6c1.6,8.6,2.6,17.4,1.1,26.1c-1.3,7.5-4.3,14.8-9,20.4
						C-460.9-378.9-467.1-375.4-473.8-374.7z M-515.2-424.2c-0.8-2.9-1.3-6.1-0.9-9c0.2-1.9,0.7-3.6,1.5-5.3c0.5-0.9,1-1.8,1.7-2.6
						l0.2-0.3c0.1-0.1,0.2-0.3,0.2-0.4c0-0.1,0-0.2,0-0.3c-0.1-0.3-0.3-0.5-0.5-0.8c-0.1-0.2-0.2-0.3-0.3-0.5
						c-1.8-2.7-3.2-6-2.7-9.4c0.4-3.4,2.4-6.5,4.5-8.9c4.6-5.2,11.8-6.4,18.1-6.1c3.7,0.2,7.3,0.9,10.8,2.1c1.7,0.6,3.4,1.4,5,2.2
						l0.4,0.2c0.2,0.1,0.4,0.2,0.6,0.3c1.3,0.7,2.6,1.4,4,1.8c2.7,0.7,4.5-0.8,6.5-2.4c0.7-0.5,1.3-1.1,2-1.6l0.1-0.1
						c1.3-0.8,2.8-1.4,4.3-1.4c1.3,0,2.5,0.5,3.5,1.6c0.2,0.2,0.3,0.5,0.4,0.7c0.1,0.2,0.2,0.4,0.3,0.6c0.4,1.5,0.7,3,1.1,4.5
						l0.3-0.2c0.9-0.6,1.8-1.4,2.2-2.4c0.2-0.4,0.1-1.1-0.1-1.6c-0.1-0.2-0.2-0.3-0.3-0.4c-0.1-0.1-0.2-0.1-0.4-0.1
						c-0.3,0-0.6,0-0.9-0.1c-0.3-0.1-0.5-0.4-0.7-0.6c-0.2-0.3-0.2-0.6-0.2-1c0-0.3,0.1-0.6,0.4-0.9c1.5-1.9,2.7-4,3.7-6.3l-6.3-2.6
						c-2.2-0.9-4.5-1.9-6.7-2.8l-1.2-0.5c-4.1-1.7-8.2-3.3-12.4-4.4c-8.4-2.1-17.2-1.6-25.6,0.4l-0.5,0.1c-3.5,0.9-7.1,1.9-10.3,3.7
						c-1.6,0.9-3.1,2-4.4,3.3c-0.6,0.6-1.1,1.3-1.6,1.9c-0.7,0.9-1.5,1.8-2.3,2.6l-0.8,0.7c-1.2,1.1-2.3,2.1-2.9,3.8
						c-0.7,1.7-1,3.7-1.3,5.5c-0.7,4.7-1,9.5-0.9,14.3c0,8,1.1,15.9,2.5,23.7c1.1-1.8,2.7-3.1,4.7-3.4c1.3-0.2,2.6,0.1,3.7,0.7
						C-516.2-425.3-515.7-424.8-515.2-424.2z M-517.2-414.7c-1.5-0.6-3-0.8-4.5-0.5c-0.2,0-0.3,0-0.4-0.1c-0.1-0.1-0.2-0.2-0.3-0.4
						c-0.1-0.2-0.1-0.4,0-0.5c0-0.1,0.1-0.3,0.3-0.4c1.7-0.9,3.5-1.3,5.4-1l0.2,0c0.9,0.2,2.3,0.5,3.3,1.1c0.8,0.5,1.3,1.2,1.5,2.1
						c0.1,0.5,0,1-0.3,1.3c-0.2,0.4-0.6,0.6-1.1,0.6c-0.8,0-1.3-0.4-1.9-0.9c-0.1-0.1-0.2-0.1-0.2-0.2
						C-516-414-516.6-414.4-517.2-414.7z"/>
				</g>
			</g>
		</g>
		<g id="Eyes-Closed.svg" transform="matrix(0.734096,0,0,0.734096,1398.38,1156.31)">
			<g transform="matrix(1,0,0,1,-144.5,-146.5)">
				<g id="face-Eyes-Closed">
					<path id="_xD83D__xDD8D_-Ink1" class="st6" d="M-558.4-520.4l0.2,0c1.2-0.3,2.4-0.8,3.5,0.1c1.1,0.8,1.2,2.3,0.4,3.3
						c-0.9,1.1-2,1-3.2,1h-0.1c-1,0-2,0-3-0.1c-0.9-0.1-1.9-0.2-2.8-0.4l-0.5-0.1c-0.5-0.1-1.1-0.3-1.4-0.9c-0.5-1,3.2-1.9,3.6-2
						C-560.6-519.9-559.5-520.1-558.4-520.4z M-556.3-533c-0.6,0.7-1.4,1.2-2.2,1.4c-2.2,0.7-5,0.3-6.8-0.4
						c-0.4-0.2-0.7-0.5-0.9-0.9c-0.2-0.4-0.2-0.8-0.1-1.2c0-0.1,0.1-0.2,0.1-0.4c0.1-0.3,0.4-0.6,0.7-0.7c0.3-0.2,0.7-0.2,1-0.1
						c0,0,0.1,0,0.1,0c1.1,0.4,3,1.1,4.5,0.9c0.9-0.1,1.7-0.4,2.2-1.4c0.2-0.5,0.2-1,0-1.4c-0.3-0.7-0.9-1.3-1.4-1.7
						c-0.7-0.6-1.5-0.8-2.2-1c-0.3-0.1-0.6-0.2-0.9-0.3c-0.1,0-0.2-0.1-0.2-0.2s-0.1-0.2-0.1-0.3s0-0.2,0-0.3c0-0.1,0.1-0.2,0.2-0.2
						c1.5-0.8,3.5-0.3,5,0.9c0.7,0.6,1.4,1.4,1.7,2.2c0.3,0.8,0.5,1.7,0.4,2.6C-555.4-534.4-555.8-533.6-556.3-533z M-581.3-550
						c0.4-0.2,0.8,0.8,0.9,1l0.2,0.6c0.3,0.9,0.6,1.8,1.3,2.5c0.5,0.6,1.4,1,2,0.4c0.6-0.6,0.3-1.3,0.4-2.1c0.2-1.4,1.8-2.8,2.8-1.3
						c2.3,3.2-1.2,7.8-4.5,7c-1.7-0.4-3-1.9-3.5-3.6l0-0.1C-582.2-546.8-582.5-549.3-581.3-550z M-551.9-547.7L-551.9-547.7
						c-1.1-2.8,2.8-4,3.1-1.5l0,0.2c0.3,2.8-0.3,6.5-3.4,6.7c-3.4,0.3-4.8-3.9-4.5-7c0-0.5,0.7-0.6,0.8-0.1l0,0.1
						c0.5,1.6,1.1,4.5,3,4.5C-551.4-544.8-551.5-546.7-551.9-547.7z M-549.4-555.7c2-0.1,1.9,3.3,0,3.4c-6.5,0.2-13,0.4-19.5,0.4
						l-1.2,0c-6.1,0-12.2,0.1-18.3-0.4c-0.5,0-0.4-0.9,0-0.8c6.4-1,12.8-1.3,19.3-1.7C-562.5-555.2-556-555.4-549.4-555.7z"/>
				</g>
			</g>
		</g>
	</g>
</g>
</svg>
