<?xml version="1.0" encoding="utf-8"?>
<!-- Generator: Adobe Illustrator 24.2.0, SVG Export Plug-In . SVG Version: 6.00 Build 0)  -->
<svg version="1.1" id="图层_1" xmlns="http://www.w3.org/2000/svg" xmlns:xlink="http://www.w3.org/1999/xlink" x="0px" y="0px"
	 viewBox="0 0 85.04 85.04" style="enable-background:new 0 0 85.04 85.04;" xml:space="preserve">
<style type="text/css">
	.st0{fill-rule:evenodd;clip-rule:evenodd;}
	.st1{fill-rule:evenodd;clip-rule:evenodd;fill:#FFFFFF;}
</style>
<g transform="matrix(1,0,0,1,-9.83253,-33.6069)">
	<g transform="matrix(0.4441,0,0,0.39775,0,0)">
		<path class="st0" d="M96.38,161.55l0.01,0.03c0.5,1.36,1.82,4.69,1.93,5.09c0.18,0.8,0.3,1.7,0.41,2.64
			c0.15,1.27,0.22,2.62,0.15,3.95c-0.1,1.71-0.51,3.33-1.23,4.7c-0.18,0.34-0.32,0.69-0.54,1c-0.39,0.44-0.39,1.16,0,1.6
			c0.39,0.44,1.03,0.44,1.43,0c0.46-0.43,0.87-0.91,1.2-1.46c0.72-1.2,1.07-2.68,1.25-4.2c0.21-1.77,0.15-3.65-0.14-5.39
			c-0.2-1.24-0.51-2.4-0.84-3.42c-0.12-0.42-1.49-3.92-2.13-5.28c-0.12-0.26-0.21-0.45-0.27-0.53c-0.06-0.08-0.08-0.13-0.1-0.15
			c-0.26-0.2-0.37-0.34-0.45-0.33c-0.32,0.04-0.6-0.05-0.71,0.23c-0.23,0.55-0.41,0.94-0.1,1.36
			C96.29,161.45,96.33,161.5,96.38,161.55z M97.38,161.27c0.02-0.01,0.04-0.02,0.06-0.03c0.08-0.04-0.06-0.17-0.03-0.24
			c0.01-0.03-0.1-0.01-0.07-0.01C97.43,160.98,97.4,161.12,97.38,161.27z M96.28,161.14c-0.01-0.04-0.03-0.06-0.05-0.05
			C96.19,161.1,96.27,161.13,96.28,161.14z"/>
	</g>
	<g transform="matrix(0.4441,0,0,0.39775,0,0)">
		<path class="st0" d="M118.25,174.71c0.07,0.05,0.09,0.08,0.05,0.15c-0.01,0.02-0.02,0.05-0.04,0.04
			c-0.06-0.03-0.13,0.01-0.17-0.04c-0.01-0.01-0.08,0.01-0.05,0.01c0.17-0.04-0.01,0.45-0.03,0.77c-0.02,0.44-0.07,0.95-0.08,1.49
			c-0.01,0.83,0.07,1.71,0.25,2.45c0.3,1.26,0.93,2.15,1.97,2.33c0.46,0.09,0.89-0.26,0.97-0.77c0.08-0.51-0.23-0.99-0.69-1.08
			c-0.25-0.05-0.36-0.29-0.46-0.55c-0.15-0.4-0.21-0.9-0.27-1.41c-0.06-0.56-0.09-1.14-0.15-1.66c-0.09-0.79-0.21-1.46-0.37-1.88
			c-0.08-0.19-0.14-0.36-0.24-0.46c-0.09-0.1-0.16-0.19-0.26-0.24c-0.09-0.04-0.17-0.12-0.26-0.09c-0.18,0.06-0.3,0-0.41,0.27
			c-0.17,0.08-0.24,0.29-0.17,0.47C117.9,174.7,118.09,174.79,118.25,174.71z"/>
	</g>
	<g>
		<g transform="matrix(0.4441,0,0,0.39775,0,0)">
			<path class="st0" d="M179.22,131.82c-0.12,0.54-0.19,1.08-0.03,1.32c0.26,0.4,0.04,0.17,0.3,0.27c0.13,0.39,0.3,0.76,0.53,1.08
				c0.21,0.3,0.44,0.55,0.68,0.77c-0.07,0.17-0.11,0.36-0.11,0.56c0,0.77,0.56,1.39,1.25,1.39c0.58,0.02,0.99-0.28,1.31-0.81
				c0.04-0.07,0.07-0.14,0.11-0.22c1.36,0.01,2.86-0.61,3.95-1.02c2.05-0.77,4.09-2.04,5.88-3.65c1.8-1.62,3.35-3.58,4.43-5.69
				c0.55-1.08,1.22-2.3,1.43-3.53c0.18-1.09,0.07-2.2-0.59-3.29c-0.64-1.05-1.47-1.72-2.43-2.08c-0.78-0.9-1.78-1.25-2.86-1.26
				c-1.45-0.01-3.09,0.73-4.18,1.23c-2.12,0.97-3.4,1.82-4.32,2.73c-1.56,1.55-2.07,3.34-3.9,6.67c-0.58,1.05-1.23,2.8-1.4,4.45
				C179.22,131.12,179.21,131.48,179.22,131.82z"/>
		</g>
		<g transform="matrix(0.4441,0,0,0.39775,0,0)">
			<path class="st0" d="M181.08,135.2l0.02-0.28c-0.19-0.31-0.42-0.59-0.67-0.84c-0.32-0.32-0.69-0.59-1.04-0.87l-4.15-3.06
				c-1.12-0.75-3.5-2.04-5.74-2.86c-1.86-0.68-3.64-0.97-4.68-0.65c-0.48,0.15-0.89,0.44-1.24,0.81c-0.44,0.46-0.75,1.13-1.2,1.54
				c-0.45,0.42-1.05,0.89-1.46,1.46c-0.27,0.38-0.47,0.81-0.59,1.28c-0.97,4.18,1.05,6.72,4.19,8.01c3.7,1.52,9.1,1.09,11.57,0.11
				c0.67-0.27,2.96-0.58,4.13-1.35c0.73-0.48,1.17-1.13,1.29-1.83C181.58,136.45,181.55,135.8,181.08,135.2z M177.26,136.43
				l0.01,0.04l0.06-0.01l-0.04-0.02L177.26,136.43z M165.59,132.48c-0.15-0.02-0.24,0.02-0.23,0.18
				C165.36,132.76,165.52,132.6,165.59,132.48z"/>
		</g>
		<g transform="matrix(0.4441,0,0,0.39775,0,0)">
			<path class="st0" d="M181.96,139.29c-0.01,0-0.02-0.01-0.02-0.01c-0.15-0.04-0.32-0.08-0.48-0.11c-0.42-0.1-0.83-0.11-1.14-0.05
				c-1.01,0.23-2.82,1.53-3.7,3.08c-0.83,1.46-0.87,3.07,0.28,4.34c1.07,1.18,2.67,1.09,4.17,0.08c1.21-0.82,2.32-2.21,2.79-3.28
				c0.32-0.75,0.36-1.43,0.25-1.91c-0.18-0.75-0.53-1.19-0.92-1.45c-0.07-0.13-0.07-0.21-0.22-0.37c-0.1-0.11-0.13-0.27-0.2-0.36
				c-0.27-0.31-0.59-0.25-0.7-0.11C182.01,139.16,181.98,139.22,181.96,139.29z M180.63,143.92c-0.02,0.02-0.03,0.04-0.03,0.06
				C180.6,143.98,180.65,143.94,180.63,143.92z M181.5,142L181.5,142c0.06-0.01,0.08,0.11,0.12,0.13l0.01-0.03
				c0-0.01,0.01-0.03,0.01-0.04l0-0.03c-0.05-0.01-0.09-0.02-0.14-0.04V142z M181.95,139.48c-0.07,0.01-0.05,0.1-0.03,0.18
				l0.09-0.01h0.01C181.98,139.6,181.96,139.54,181.95,139.48z M182.05,139.38c0.01,0.01,0.02,0.01,0.02-0.01
				C182.07,139.35,182.06,139.36,182.05,139.38z"/>
		</g>
		<g transform="matrix(0.4441,0,0,0.39775,0,0)">
			<path class="st0" d="M185.16,137.47c-0.09-0.45-0.34-0.88-0.82-1.18c-0.46-0.29-1.32-0.44-2.08-0.36
				c-0.54,0.06-1.01,0.26-1.34,0.49c-0.23,0.06-0.43,0.14-0.59,0.24c-0.19,0.11-0.55,0.42-0.71,0.75c-0.18,0.38-0.24,0.81-0.07,1.29
				c0.06,0.17,0.17,0.37,0.35,0.58c0.1,0.17,0.22,0.34,0.38,0.49c0.46,0.44,1.37,0.84,2.21,0.92c0.49,0.05,0.94-0.03,1.31-0.19
				c0.03,0.07,0.06,0.12,0.09,0.18c0.26,0.43,0.71,0.83,1.37,1.04c0.4,0.13,0.9,0.19,1.44,0.19c0.19,0.13,0.39,0.22,0.6,0.32
				c1.1,0.52,3.19,0.17,4.66-0.87c1.2-0.85,1.92-2.14,1.79-3.55c-0.06-0.64-0.37-1.16-0.9-1.54c-0.44-0.31-1.14-0.5-1.96-0.54
				c-1.92-0.07-4.61,0.74-5.31,1.33C185.54,137.11,185.38,137.26,185.16,137.47z M183.77,136.32c-0.05,0.01-0.12,0.05-0.18,0.09
				c0.05,0.05,0.19,0.09,0.26,0.07l-0.01-0.02c-0.01-0.02-0.03-0.05-0.04-0.08L183.77,136.32z M183.82,136.32l0.07,0.04
				C183.87,136.33,183.85,136.32,183.82,136.32z"/>
		</g>
		<g transform="matrix(0.343675,0,0,0.235074,493.182,323.819)">
			<path class="st0" d="M-1206.61-1158.52c0.03,0.59,0.08,1.17,0.2,1.77c0.39,2.06,1.24,4.14,2.21,6.2
				c1.68,3.57,3.93,6.96,5.78,9.67c0.37,0.53,0.96,0.51,1.32-0.02c0.36-0.54,0.35-1.4-0.02-1.93c-1.84-2.54-4.02-5.79-5.78-9.1
				c-0.97-1.83-1.77-3.69-2.38-5.45c-0.18-0.5-0.37-0.95-0.51-1.43c-0.06-0.33-0.29-0.53-0.51-0.45
				C-1206.53-1159.18-1206.66-1158.84-1206.61-1158.52z"/>
		</g>
		<g transform="matrix(0.4441,0,0,0.39775,0,0)">
			<path class="st0" d="M179.76,132.5c-0.02-0.23-0.01-0.47,0-0.73c0.03-0.61,0.12-1.26,0.21-1.8c0.18-1.31,0.55-2.6,1.04-3.84
				c0.49-1.25,1.11-2.45,1.76-3.56c1.1-1.86,3.79-3.66,6.61-4.61c2.73-0.93,5.61-1.13,7.15,0.58c1.07,1.19,1.33,2.65,1.16,4.11
				c-0.19,1.6-0.88,3.18-1.69,4.45c-1.54,2.46-3.56,4.77-5.9,6.25c-1.16,0.74-2.41,1.26-3.71,1.51c-1.25,0.24-2.56,0.26-3.93-0.12
				c-0.4-0.13-0.81,0.13-0.93,0.57c-0.12,0.44,0.11,0.9,0.51,1.03c1.77,0.67,3.51,0.8,5.17,0.48c0.74-0.14,1.46-0.39,2.15-0.7
				c3.31-1.46,6.16-4.49,8.23-7.76c1.16-1.88,2.08-4.35,1.99-6.69c-0.06-1.63-0.59-3.21-1.83-4.52c-1.63-1.71-4.34-2.02-7.14-1.31
				c-3.69,0.93-7.51,3.51-8.88,6.01c-0.66,1.19-1.27,2.48-1.75,3.82c-0.49,1.35-0.85,2.76-1,4.18c-0.04,0.42-0.11,0.9-0.11,1.38
				c0,0.51,0.06,1.02,0.19,1.46c0.04,0.22,0.23,0.36,0.43,0.31C179.67,132.93,179.8,132.72,179.76,132.5z"/>
		</g>
		<g transform="matrix(0.4441,0,0,0.39775,0,0)">
			<path class="st0" d="M185.02,137.61c0.13-0.04,0.38-0.04,0.56-0.1c0.65-0.21,1.47-0.5,1.68-0.55c0.87-0.25,2.63-0.67,4.09-0.49
				c0.76,0.09,1.44,0.31,1.66,1.03c0.57,1.86-0.58,3.3-2.01,4.07c-1.49,0.81-3.39,1.02-4.56-0.26c-0.29-0.34-0.76-0.35-1.06-0.03
				c-0.3,0.32-0.31,0.85-0.03,1.19c1.55,1.96,4.33,2.17,6.48,1.03c2.26-1.19,3.75-3.76,2.73-6.64c-0.39-1.08-1.2-1.71-2.26-1.94
				c-1.77-0.39-4.25,0.32-5.37,0.72c-0.22,0.08-1.11,0.38-1.75,0.76c-0.34,0.2-0.61,0.42-0.74,0.58c-0.26,0.32-0.29,0.59-0.16,0.76
				c0.05,0.07,0.11,0.18,0.25,0.22c0.18,0.09,0.4,0,0.47-0.21C185.01,137.7,185.02,137.66,185.02,137.61z M184.97,137.63
				c-0.03,0.02-0.05,0.04-0.03,0.08C184.97,137.77,184.97,137.71,184.97,137.63z"/>
		</g>
		<g transform="matrix(0.4441,0,0,0.39775,0,0)">
			<path class="st0" d="M176.97,132.52c0.01,0.18,0.03,0.35,0.09,0.5c0.13,0.33,0.37,0.58,0.87,0.58c0.2,0.04,0.27-0.12,0.36-0.22
				c0.1-0.11-0.01-0.6-0.03-0.86c-0.15-0.39-0.31-0.66-0.5-0.91c-0.18-0.22-0.39-0.42-0.68-0.67c-0.51-0.41-1.03-0.8-1.57-1.17
				c-0.79-0.55-1.61-1.06-2.42-1.56c-2.7-1.64-4.87-2.68-7-2.39c-1.44,0.2-2.88,0.99-4.46,2.64c-0.66,0.69-1.25,1.37-1.67,2.17
				c-0.3,0.58-0.51,1.22-0.58,1.98c-0.18,1.75,0.23,3.22,1,4.42c1.1,1.72,2.99,2.86,4.99,3.41c3.11,0.85,6.78,1.34,10.17,0.71
				c2.36-0.44,4.57-1.43,6.39-3.08c0.34-0.3,0.41-0.85,0.14-1.24c-0.27-0.38-0.77-0.45-1.11-0.15c-2.04,1.73-4.62,2.44-7.27,2.64
				c-2.7,0.21-5.49-0.13-7.92-0.76c-1.34-0.35-2.64-0.99-3.56-1.98c-0.87-0.94-1.39-2.19-1.25-3.79c0.06-0.64,0.25-1.16,0.54-1.63
				c0.32-0.54,0.74-1.01,1.19-1.5c1.63-1.79,3.08-2.44,4.62-2.33c1.57,0.12,3.21,0.97,5.19,2.12c0.8,0.47,1.61,0.95,2.39,1.47
				c0.52,0.34,1.02,0.7,1.51,1.08c0.23,0.17,0.41,0.3,0.56,0.45L176.97,132.52z"/>
		</g>
		<g transform="matrix(0.4441,0,0,0.39775,0,0)">
			<path class="st0" d="M182.39,139.65L182.39,139.65c0,0-0.09-0.02-0.17-0.03c-0.67-0.11-2.34-0.48-2.48-0.5
				c-0.61-0.02-1.24,0.19-1.82,0.54c-0.55,0.33-1.04,0.78-1.42,1.25c-1.5,1.86-1.75,4.69-0.81,6.46c0.69,1.31,2,2.13,3.96,1.74
				c1.02-0.22,1.66-0.53,2.15-0.93c0.72-0.61,1.07-1.47,1.89-2.81c0.4-0.66,0.67-1.43,0.83-2.26c0.21-1.09,0.25-2.25,0.27-3.32
				c0.02-0.44-0.29-0.81-0.68-0.83c-0.39-0.02-0.73,0.32-0.74,0.76c-0.07,0.95-0.17,1.99-0.41,2.95c-0.15,0.58-0.36,1.13-0.66,1.59
				c-0.71,1.08-0.98,1.8-1.58,2.3c-0.32,0.27-0.74,0.45-1.41,0.6c-1.36,0.34-2.21-0.34-2.51-1.41c-0.34-1.19-0.1-2.74,0.71-3.88
				c0.27-0.38,0.62-0.75,1.02-1.03c0.38-0.26,0.8-0.46,1.22-0.47c0.14-0.01,1.77,0.12,2.43,0.11c0.34,0,0.54-0.13,0.57-0.17
				c0.13-0.17,0.11-0.42-0.04-0.57C182.62,139.66,182.5,139.63,182.39,139.65z"/>
		</g>
		<g transform="matrix(0.4441,0,0,0.39775,0,0)">
			<path class="st0" d="M178.41,131.48c0.03-0.04-0.03-0.05-0.11-0.06h0c-0.07-0.23-0.05-0.86-0.05-0.91
				c0.03-0.57,0.12-1.2,0.21-1.88c0.18-1.35,0.43-2.87,0.8-4.36c0.3-1.25,0.69-2.48,1.09-3.59c0.3-0.83,0.58-1.6,0.92-2.23
				c0.18-0.3,0.11-0.71-0.16-0.91c-0.27-0.2-0.64-0.12-0.81,0.18c-0.43,0.66-0.86,1.46-1.21,2.37c-0.45,1.16-0.78,2.49-1.06,3.82
				c-0.32,1.57-0.56,3.17-0.63,4.58c-0.04,0.73-0.02,1.4,0.02,2.01c0.01,0.12,0.25,1.17,0.46,1.44c0.18,0.22,0.36,0.26,0.52,0.15
				c0.16-0.09,0.22-0.31,0.14-0.49C178.49,131.56,178.45,131.52,178.41,131.48z M178.29,131.43c0.02,0.07,0.05,0.1,0.09,0.08
				c0.01-0.01,0.02-0.01,0.02-0.02C178.38,131.46,178.34,131.44,178.29,131.43L178.29,131.43z"/>
		</g>
		<g transform="matrix(0.4441,0,0,0.39775,0,0)">
			<path class="st0" d="M176.76,128.28l-5.24-6.31c-0.24-0.27-0.63-0.27-0.87,0c-0.24,0.27-0.24,0.7,0,0.97
				c0.2,0.24,0.92,1.27,1.84,2.39c0.64,0.78,1.36,1.62,2.06,2.27c0.68,0.63,1.31,1.08,1.75,1.27c0.39,0.17,0.68,0.16,0.83,0.01
				c0.15-0.11,0.19-0.34,0.09-0.5C177.11,128.21,176.91,128.17,176.76,128.28z"/>
		</g>
		<g transform="matrix(0.4441,0,0,0.39775,0,0)">
			<path class="st0" d="M181.03,114.29c-0.03,0.02-0.05,0.04-0.06,0.06c-0.01,0.02-0.01,0.06-0.01,0.1
				c-0.02,0.05-0.03,0.11-0.04,0.18c-0.04,0.27-0.17,0.75-0.14,1.18v0c-0.02,0.02-0.02,0.04,0,0.05l0.02,0.14l0,0.02
				c-0.01,0.05-0.01,0.1-0.01,0.15c0,0.27,0.1,0.5,0.27,0.67c0.05,0.17,0.2,0.28,0.36,0.25c0.03,0,0.06-0.01,0.09-0.03
				c0.03,0,0.06,0.01,0.1,0.01c0.19,0.14,0.28-0.18,0.54-0.21c0.07-0.01,0.07-0.12,0.14-0.16c0.1-0.06,0.14-0.24,0.22-0.49
				c0.06-0.18-0.05-0.63-0.09-0.97c0.02-0.08,0.03-0.14,0.05-0.2c0.02-0.05,0.03-0.1,0.03-0.15l-0.01-0.03l0-0.01l0.01,0l0,0
				c0.08-0.6-0.41-0.75-0.86-0.72C181.4,114.04,181.16,114.05,181.03,114.29z M180.97,115.57c-0.01,0.01-0.02,0.03-0.02,0.05
				c-0.01,0.04-0.13,0.14-0.17,0.2l0,0.05l0.02,0c0.02,0,0.03,0,0.04-0.01c0.03-0.09,0.07-0.18,0.13-0.25L180.97,115.57z
				 M182.5,114.85l-0.01,0.04c0,0.01,0,0.02,0,0.03c0-0.02,0.06-0.07,0.03-0.07H182.5z"/>
		</g>
		<g transform="matrix(0.4441,0,0,0.39775,0,0)">
			<path class="st0" d="M169.98,122.01c0.25-0.23,0.47-0.59,0.63-0.99c0.21-0.61,0.08-0.99,0-1.17c-0.2-0.5-1-0.86-1.72-0.01
				c-0.27,0.32-0.55,0.87-0.66,1.44c-0.13,0.7-0.01,1.41,0.48,1.92c0.32,0.36,0.85,0.36,1.18,0
				C170.18,122.87,170.21,122.37,169.98,122.01z M170.06,121.19c0.11,0,0.19-0.01,0.12-0.08
				C170.13,121.06,170.09,121.11,170.06,121.19z M169.06,120.67c0.01-0.04,0.02-0.09,0.03-0.14c0.01-0.05,0.04-0.13,0-0.13
				C168.93,120.39,168.97,120.53,169.06,120.67z"/>
		</g>
		<g transform="matrix(0.4441,0,0,0.39775,0,0)">
			<path class="st1" d="M180.55,134l0.01-0.02c0.08-0.2-0.17-0.66-0.39-0.74c-0.33-0.11-0.51,0.09-0.51,0.42
				c0,0.11,0.02,0.22,0.05,0.34c0.05,0.17,0.14,0.34,0.2,0.48l0.79,1.53c0.69,1.13,1.34,2.26,2.12,3.28
				c0.14,0.18,0.27,0.37,0.43,0.53c0.25,0.24,0.53,0.4,0.82,0.58c0.14,0.13,0.34,0.11,0.46-0.04c0.12-0.15,0.1-0.38-0.04-0.51
				l-3.1-4.39l-0.79-1.36L180.55,134z M179.87,133.77c-0.01,0.07-0.01,0.15,0.02,0.2C179.87,133.9,179.86,133.84,179.87,133.77z"/>
		</g>
		<g transform="matrix(0.4441,0,0,0.39775,0,0)">
			<path class="st1" d="M182.12,132.29c0.02,0,0.04-0.01,0.06-0.02c0.04-0.02,0.03-0.07,0.06-0.06c0.18,0.05,0.02-0.18,0.12-0.15
				c0.05,0.01-0.01-0.06,0.03-0.05c0.18,0.04-0.04-0.18,0.09-0.19c0.14-0.01-0.07-0.14,0.04-0.17c0.08-0.02-0.06-0.07,0.01-0.1
				c0.14-0.06,0-0.1-0.04-0.17v0l-0.01-0.04c0.35-0.28,0.69-0.63-0.01-0.2c-0.04-0.01-0.09-0.02-0.05-0.08
				c0.03-0.05,0.02-0.06-0.01-0.07c0.07-0.1-0.12,0.04-0.07-0.11c0.04-0.13-0.04-0.09-0.12-0.11c0-0.04-0.02-0.03-0.05-0.02
				c0.01,0.01,0.03,0.02,0.05,0.02l0,0.02c-0.02,0.08,0.09-0.01,0.06,0.06c-0.02,0.06,0.07,0,0.04,0.05
				c-0.03,0.09,0.04,0.08,0.08,0.09l-0.02,0.02l-0.02,0.03l0.02,0.03c0.02,0.03,0.03,0.06,0.04,0.09c-0.08,0.05-0.16,0.1-0.26,0.17
				c0.03,0.06,0.04,0.13,0.04,0.2c-0.21,0.12-0.29,0.08,0.16-0.49c-0.13-0.23-0.34-0.36-0.56-0.39c0.03-0.01,0.06-0.05,0.08-0.06
				l0.02,0l0,0c0,0-0.01,0-0.01,0l-0.01,0c-0.05,0-0.11,0-0.16-0.03c-0.17-0.11-0.37,0.03-0.46,0.14c-0.06,0.06-0.1,0.04-0.1,0.09
				c0.02,0.2-0.17,0.05-0.11,0.15c0.06,0.12-0.13,0.04-0.07,0.13c0.05,0.07-0.08,0.03-0.04,0.09c0.1,0.11-0.14,0.09-0.04,0.16
				c0.05,0.04-0.06,0.05-0.01,0.08c0.12,0.08-0.12,0.13,0,0.17c0.11,0.04-0.09,0.13,0.02,0.15c0.06,0.01-0.04,0.07,0.02,0.08
				c0.16,0.01-0.07,0.22,0.08,0.19c0.12-0.02-0.03,0.17,0.09,0.13c0.08-0.03,0,0.12,0.08,0.08c0.06-0.03,0.01,0.09,0.06,0.05
				c0.15-0.1,0.07,0.29,0.21,0.12c0.07-0.08,0.06,0.14,0.12,0.03c0.08-0.13,0.14,0.22,0.2,0.01c0.03-0.11,0.13,0.14,0.15-0.03
				c0.01-0.07,0.08,0.06,0.08-0.03C182.01,132.24,182.11,132.39,182.12,132.29z M182.47,131.33L182.47,131.33
				c-0.09,0.08-0.19,0.15-0.27,0.19c0,0.14-0.07,0.27-0.19,0.35c-0.16,0.09-0.37,0.03-0.47-0.13l-0.08,0.05
				c-0.09,0.07-0.41,0.29-0.14,0.11c0.41-0.27-0.44,0.34-0.04,0.13c0.06-0.03-0.01,0.11,0.05,0.09c0.05-0.02,0,0.09,0.05,0.06
				c0.1-0.05,0.07,0.17,0.16,0.12c0.08-0.05,0.1,0.11,0.18,0.06c0.15-0.09,0.29-0.04,0.4-0.07c0-0.01,0-0.04-0.01-0.07
				c0.27-0.18,0.41-0.51,0.37-0.84l-0.01-0.01c0-0.01,0-0.01,0-0.02L182.47,131.33L182.47,131.33L182.47,131.33L182.47,131.33z
				 M181.53,131.7c-0.11,0.06-0.24,0.13-0.05,0.03L181.53,131.7L181.53,131.7z M181.91,130.57c0.01,0,0.01,0.02,0.01,0.04
				c0.01,0.1,0.1-0.05,0.1,0.04c0,0.05,0.05-0.03,0.05,0.02c0,0.09,0.05,0.07,0.1,0.05c-0.01-0.01-0.02-0.03-0.03-0.06
				C182.11,130.53,182.02,130.56,181.91,130.57z M181.41,130.71c-0.01,0-0.02-0.01-0.03-0.03c-0.02-0.02-0.01,0.02-0.01,0.05
				L181.41,130.71z M181.78,130.63c-0.01-0.01-0.02-0.02-0.03-0.05c-0.03-0.08-0.06,0.09-0.1,0c-0.04-0.08-0.05,0.12-0.11,0.02
				c-0.03-0.04-0.02,0.07-0.06,0.02c-0.03-0.05-0.02,0.03-0.04,0.07C181.55,130.64,181.67,130.63,181.78,130.63z"/>
		</g>
		<g transform="matrix(0.4441,0,0,0.39775,0,0)">
			<path class="st1" d="M184.11,131.53c-0.04,0.01-0.07,0.02-0.11,0.05c-0.3,0.18-0.18,0.49-0.17,0.52c0.02,0.04,0.18,0.32,0.47,0.2
				c0.07-0.03,0.25-0.13,0.29-0.17c0.15-0.15,0.16-0.4,0.03-0.57C184.48,131.4,184.25,131.38,184.11,131.53z M184.4,132.22
				L184.4,132.22L184.4,132.22L184.4,132.22z M184.5,132.06c-0.02,0.05-0.05,0.1-0.08,0.14
				C184.47,132.16,184.49,132.11,184.5,132.06z"/>
		</g>
		<g transform="matrix(0.4441,0,0,0.39775,0,0)">
			<path class="st1" d="M184.56,135.62c-0.03-0.09,0.07-0.14,0.07-0.2c0.04-0.03,0.07-0.06,0.1-0.1c0.01-0.05,0.01-0.1,0.01-0.15
				l0.02,0.02l0.02,0.03c-0.01,0.03-0.03,0.07-0.05,0.09l0,0.02c0,0,0,0.01,0,0.01l-0.01,0.04l-0.02,0.04
				c-0.01,0.01-0.01,0.02-0.02,0.03C184.65,135.52,184.61,135.58,184.56,135.62c0,0.02,0.02,0.04,0.03,0.06
				c0.02,0.03,0-0.08,0.02-0.07c0.11,0,0.06-0.09,0.07-0.15l0.01-0.02l0-0.01c0,0,0.01,0,0.02-0.01c0.04-0.01,0.01-0.04,0.01-0.07
				l0-0.01l0,0l0.01-0.01c0.07-0.03,0.07-0.07,0.04-0.1c0.04-0.11,0.03-0.24-0.03-0.36c-0.1-0.19-0.32-0.25-0.49-0.14
				c-0.06-0.02-0.08-0.18-0.21-0.12c-0.14,0.07-0.19,0.16-0.17,0.23c0.02,0.11-0.11,0.08-0.07,0.15c0.08,0.13-0.13,0.17-0.03,0.24
				c0.18,0.12-0.07,0.41,0.16,0.36c0.05-0.01,0.02,0.08,0.08,0.06c0.06-0.02,0.06,0.12,0.14,0.06
				C184.3,135.75,184.45,135.71,184.56,135.62z M184.7,134.98l0.01,0.03l0.01-0.01c0.02-0.03-0.02-0.03-0.03-0.05L184.7,134.98z
				 M184.63,134.86c0.01,0.01,0.02,0.03,0.03,0.04l0.02,0.04l0-0.01C184.71,134.86,184.67,134.86,184.63,134.86L184.63,134.86z
				 M184.52,134.76L184.52,134.76c0-0.04-0.02-0.03-0.05-0.03l0.02,0.01L184.52,134.76z"/>
		</g>
		<g transform="matrix(0.4441,0,0,0.39775,0,0)">
			<path class="st1" d="M187.53,133.33c-0.17-0.02-0.32,0.1-0.37,0.29c-0.05,0.21,0.06,0.42,0.25,0.47c0.05,0.1,0.19,0.22,0.37,0.1
				c0.14-0.08,0.04-0.07,0.04-0.16c0.18-0.09,0.26-0.33,0.18-0.53c-0.08-0.2-0.29-0.29-0.48-0.2c-0.05-0.05,0.06-0.14-0.06-0.12
				c-0.03,0,0.02,0.1,0,0.08C187.4,133.22,187.47,133.29,187.53,133.33z"/>
		</g>
		<g transform="matrix(0.4441,0,0,0.39775,0,0)">
			<path class="st1" d="M190.55,132.76c0.03-0.04,0.04-0.09,0.05-0.15c0.03-0.22-0.09-0.43-0.29-0.47c-0.1-0.03-0.19,0.01-0.28,0.06
				c-0.09,0.05-0.19,0.3-0.21,0.39c-0.05,0.22,0.07,0.45,0.26,0.51c0.2,0.06,0.4-0.08,0.46-0.3L190.55,132.76z"/>
		</g>
		<g transform="matrix(0.4441,0,0,0.39775,0,0)">
			<path class="st1" d="M192.51,130.22c-0.05,0.05-0.14,0.24-0.08,0.08c0.1-0.3-0.25,0.17-0.11-0.06c0.07-0.11-0.12,0.05-0.05-0.04
				c0.12-0.15-0.2,0.05-0.06-0.08c0.19-0.17-0.29-0.01-0.06-0.12c0.15-0.08-0.2-0.04-0.03-0.09c0.21-0.07-0.18-0.61-0.04-0.26
				c0.01,0.03-0.02,0.07-0.04,0.1c-0.09,0.37,0.11,0.74,0.44,0.84c0.31,0.09,0.64-0.1,0.74-0.44c0.01,0,0.01-0.03,0.02-0.05
				l-0.02,0.05l0,0c-0.06,0.01,0.04-0.07,0-0.1c-0.2-0.17,0.18-0.12-0.02-0.17c-0.17-0.04,0.14-0.09-0.02-0.09
				c-0.23-0.01,0.17-0.16-0.04-0.12c-0.18,0.04,0.12-0.16-0.05-0.09c-0.25,0.1,0.13-0.3-0.1-0.11c-0.24,0.2,0.07-0.4-0.13-0.07
				c-0.1,0.15,0-0.21-0.08-0.01c-0.12,0.28-0.08-0.42-0.15,0.06c-0.2,0-0.36,0.18-0.36,0.41
				C192.28,130.02,192.38,130.17,192.51,130.22z M192.54,130.27c0,0.03-0.01,0.12,0,0.09l0.02-0.12l-0.02-0.01L192.54,130.27z"/>
		</g>
		<g transform="matrix(0.4441,0,0,0.39775,0,0)">
			<path class="st1" d="M192.79,124.49c0,0.13,0.05,0.25,0.15,0.33c0.16,0.13,0.39,0.08,0.5-0.1c0.26,0.11-0.11-0.15,0.09-0.16
				c0.1-0.01-0.07-0.05,0.01-0.08c0.22-0.05-0.19-0.03-0.01-0.17c0.16-0.12-0.19,0.05-0.06-0.16c0.1-0.15-0.15,0.09-0.08-0.12
				c0.05-0.14-0.09,0.08-0.06-0.09c0.03-0.16-0.06,0.08-0.05-0.12c0.01-0.27-0.07-0.09-0.03-0.18c-0.2-0.1-0.44-0.09-0.65,0.05
				c-0.35,0.23-0.47,0.73-0.26,1.12c-0.1,0.12,0.15-0.01,0.06,0.13c-0.06,0.09,0.09-0.03,0.04,0.07c-0.07,0.13,0.12-0.06,0.06,0.09
				c-0.07,0.18,0.14-0.08,0.1,0.14c-0.01,0.08-0.02,0.02,0.05,0.06c0.08,0.05,0.1,0.08,0.16,0c0.13-0.16-0.06-0.25,0.09-0.14
				c0.08,0.06,0.06-0.16,0.02-0.07c-0.05,0.1,0.05-0.16,0-0.08c-0.19,0.29,0.08-0.31-0.1-0.19c-0.06,0.04,0.04-0.08-0.02-0.05
				c-0.18,0.09,0.12-0.16-0.05-0.14c-0.1,0.01,0.08-0.07-0.01-0.08C192.66,124.55,192.76,124.52,192.79,124.49z M192.81,124.35
				c-0.04,0-0.09,0-0.04,0.03c0.07,0.04-0.09,0.04-0.02,0.06c0.02,0.01,0.03,0.01,0.03,0.02
				C192.79,124.43,192.8,124.39,192.81,124.35z M192.84,124.29c-0.03,0-0.05-0.01-0.02,0.01l0.01,0.01L192.84,124.29L192.84,124.29z
				 M193.55,123.86l0.03,0.05l0.01,0.01c-0.02,0.04-0.03,0.08,0.03,0.06l-0.03-0.06c0.02-0.05,0.06-0.11-0.02-0.07
				C193.56,123.86,193.55,123.86,193.55,123.86z M193.27,123.64c0.1,0.04,0.19,0.11,0.26,0.21l0,0.01c0,0.01,0,0,0.01,0.01h0.01
				l-0.01-0.02l0,0c0.01-0.04,0.07-0.12-0.01-0.08c-0.16,0.09-0.1-0.5-0.2-0.25L193.27,123.64z"/>
		</g>
		<g transform="matrix(0.4441,0,0,0.39775,0,0)">
			<path class="st1" d="M192.83,119.33c-0.01-0.07-0.04-0.14-0.07-0.21c-0.18-0.34-0.57-0.46-0.88-0.26
				c-0.12-0.03-0.11,0.09-0.19,0.1c-0.19,0.02-0.2,0.2-0.21,0.33c-0.01,0.13-0.11,0.13-0.02,0.18c0.17,0.09-0.17,0.09,0.02,0.12
				c0.28,0.04-0.22,0.18,0.06,0.17c0.22,0-0.09,0.16,0.14,0.22c0.03,0.01,0.03,0.05,0.05,0.06c0.02,0.02,0.04,0.05,0.07,0.07
				c0.04,0.02,0.08,0.06,0.12,0.08c0.24,0.12,0.58,0.05,0.72-0.07C192.86,119.94,192.93,119.61,192.83,119.33z M192.78,119.8
				c-0.05,0.12-0.14,0.23-0.26,0.31C192.68,120.02,192.75,119.91,192.78,119.8z M192.14,118.93c-0.1,0.01-0.2,0.07-0.25,0.13
				C191.97,118.99,192.05,118.95,192.14,118.93z"/>
		</g>
		<g transform="matrix(0.4441,0,0,0.39775,0,0)">
			<path class="st1" d="M188.67,121c-0.12,0.04-0.22,0.11-0.29,0.22c-0.81,0.32-1.85,0.87,0.27,1c-0.08-0.04-0.14-0.09-0.19-0.15
				c-0.15-0.15-0.22-0.39-0.17-0.63c0.02-0.08,0.05-0.16,0.1-0.22l0.03-0.01c-0.03,0.05-0.06,0.09-0.08,0.15
				c-0.1,0.25-0.04,0.53,0.12,0.71c0.06,0.07,0.14,0.11,0.23,0.14c0.01,0.01,0.07,0.04,0.08,0.05c0.77,0.52,1.81,0.28,0.34-1.25
				C188.96,120.95,188.8,120.95,188.67,121z"/>
		</g>
		<g transform="matrix(0.4441,0,0,0.39775,0,0)">
			<path class="st1" d="M190.09,126.37c0.03,0.06-0.11,0.12-0.07,0.22c0.05,0.11,0.16,0.17,0.24,0.21c0.24,0.17,0.55,0.1,0.71-0.16
				c0.15-0.26,0.09-0.62-0.15-0.79l-0.43-0.21c-0.18-0.09-0.39,0-0.48,0.2C189.83,126.04,189.91,126.28,190.09,126.37z"/>
		</g>
		<g transform="matrix(0.4441,0,0,0.39775,0,0)">
			<path class="st1" d="M188.68,129.27c-0.04,0.02-0.1,0.06-0.08,0.12c-0.02,0.04-0.03,0.09-0.04,0.13
				c-0.19,0.28-0.02,0.47-0.02,0.51c0.01,0.12,0.11,0.16,0.15,0.23c0.13,0.22,0.4,0.29,0.68,0.08c0.04-0.03,0.22-0.06,0.22-0.27
				c0-0.07-0.14-0.23-0.05-0.23c0.03,0-0.06-0.02-0.07,0.01c-0.02,0.09-0.08,0.05-0.14,0.03c0.12-0.02,0.22-0.11,0.27-0.23
				c0.01,0.05,0.02,0.11,0.03,0.18c0.02-0.1,0.02-0.2,0-0.3v-0.01c0.02-0.22-0.13-0.42-0.33-0.43c-0.02-0.02-0.04-0.02-0.07-0.01
				C189.03,129.02,188.82,129.1,188.68,129.27z M189.17,129.12c-0.19-0.02-0.38,0.08-0.43,0.12c-0.01,0.01-0.03,0.01-0.05,0.03
				l-0.03,0.03c-0.01,0.02-0.02,0.03-0.03,0.05l-0.02,0.04l0.01,0.02C188.71,129.61,188.98,129.25,189.17,129.12z"/>
		</g>
		<g transform="matrix(0.4441,0,0,0.39775,0,0)">
			<path class="st1" d="M185.39,127.95L185.39,127.95L185.39,127.95c-0.08,0.07-0.13,0.17-0.14,0.27l0.01,0.03
				c0,0.02,0.01,0.05,0.01,0.07l0.01,0.07l0-0.02l-0.02-0.03c-0.01-0.04-0.01-0.09,0-0.12l-0.01-0.03c0.02-0.02-0.05-0.14-0.03-0.09
				c0.01,0.03,0.02,0.06,0.03,0.09v0c-0.05,0.05-0.02,0.1,0.01,0.15l0,0.01c0,0.01,0.01,0.03,0.01,0.04l0.01,0.03
				c0.01,0.25-0.08,0.42-0.02,0.46c0.09,0.06,0.13,0.2,0.24,0.09c0.03-0.02,0.05,0.04,0.08,0c0.04-0.05,0.18,0.1,0.22-0.14
				c0.07-0.04,0.12-0.1,0.15-0.17c0.11-0.01,0.08-0.18,0.07-0.22l-0.01-0.03c0-0.08-0.02-0.15-0.05-0.23c0.01-0.05,0-0.08-0.02-0.1
				c-0.08-0.2-0.3-0.29-0.48-0.2C185.44,127.92,185.41,127.93,185.39,127.95z M185.94,128.25c-0.04,0.17-0.17,0.44,0,0.43h0.01
				c0.04-0.08,0.06-0.17,0.06-0.25l-0.03-0.11L185.94,128.25z M185.85,128.06l-0.03-0.05c-0.03-0.05-0.07-0.04-0.11-0.03
				C185.76,127.99,185.81,128.02,185.85,128.06z M185.55,127.95c-0.02-0.01-0.03-0.02-0.05-0.04c-0.03-0.03-0.05,0.07-0.12,0.04h0
				l0,0c0,0.01,0,0.03,0,0.05C185.44,127.97,185.5,127.95,185.55,127.95z"/>
		</g>
		<g transform="matrix(0.4441,0,0,0.39775,0,0)">
			<path class="st1" d="M183.41,125.66c-0.02-0.08-0.06-0.16-0.12-0.21c-0.16-0.16-0.4-0.14-0.54,0.04
				c-0.15,0.21-0.16,0.4-0.04,0.59c0.06,0.1,0.27,0.22,0.34,0.28c0.14,0.16,0.37,0.16,0.51,0.01c0.14-0.16,0.15-0.41,0.01-0.57
				C183.54,125.76,183.47,125.71,183.41,125.66z M183.34,126.02l-0.02,0.03C183.33,126.04,183.34,126.03,183.34,126.02z"/>
		</g>
		<g transform="matrix(0.4441,0,0,0.39775,0,0)">
			<path class="st1" d="M185.74,124.06c-0.26-0.06-0.53,0.12-0.59,0.42c-0.07,0.31,0.09,0.62,0.37,0.7c0.12-0.04,0.2,0.02,0.27-0.04
				c0.07-0.06,0.13-0.06,0.2-0.16c0.19-0.07,0.29-0.29,0.23-0.51c-0.06-0.21-0.26-0.33-0.45-0.26c-0.04-0.01-0.09-0.04-0.09-0.04
				S185.71,124.07,185.74,124.06z M185.74,124.06c0.01-0.01,0.02,0,0.03,0.01L185.74,124.06z"/>
		</g>
		<g transform="matrix(0.4441,0,0,0.39775,0,0)">
			<path class="st1" d="M196.44,123.56c0.03-0.03,0.05-0.07,0.04-0.12C196.48,123.48,196.46,123.52,196.44,123.56
				c-0.06,0.06-0.16,0.09-0.18,0.19c-0.02,0.06-0.09,0.06-0.15,0.03c-0.05-0.02-0.05-0.06-0.03-0.13c0.06-0.21,0.1-0.14,0.12-0.31
				c0.18-0.1,0.25-0.34,0.16-0.54c-0.09-0.2-0.31-0.28-0.48-0.18c-0.12-0.08-0.05-0.11-0.2-0.22c-0.12-0.09-0.16,0.02-0.29,0.01
				c-0.28-0.04-0.26,0.34-0.46,0.56c-0.11,0.48,0.14,0.96,0.57,1.09C195.9,124.18,196.29,123.96,196.44,123.56z"/>
		</g>
		<g transform="matrix(0.4441,0,0,0.39775,0,0)">
			<path class="st1" d="M196.4,119.63c0.05,0,0.12,0,0.12,0.09c0,0.02,0.06,0.04,0.06,0.04l0.13-0.1c0,0,0.03,0.09,0.04,0.14
				l-0.01,0.05c0.01-0.01,0.01-0.03,0.01-0.05c0.06-0.34-0.13-0.67-0.43-0.76c-0.32-0.09-0.64,0.12-0.73,0.47
				c0.03,0.08-0.08,0.23,0.07,0.38c0.26,0.25,0.4,0.54,0.5,0.49c0.19,0.06,0.39-0.07,0.44-0.29
				C196.63,119.9,196.55,119.71,196.4,119.63z"/>
		</g>
		<g transform="matrix(0.4441,0,0,0.39775,0,0)">
			<path class="st1" d="M176.16,134.26c-0.06,0.15-0.12,0.28,0.07,0.03l-0.05-0.02L176.16,134.26l0.03-0.07l0.01-0.03l0.04,0.04
				l0.04,0.03l-0.01,0.01l-0.04,0.05l0.02,0.01l0.03,0.01c-0.03,0.1-0.05,0.2,0.06,0.03l-0.01-0.01l-0.05-0.02l0.01-0.02l0.01-0.04
				c0.09,0.06,0.19,0.09,0.3,0.1c0.02,0.18,0.04-0.12,0.05,0.01c0.07,0.42,0.04-0.26,0.12-0.01c0.13,0.41-0.02-0.31,0.13-0.04
				c0.08,0.16-0.03-0.16,0.05-0.03c0.2,0.31-0.11-0.3,0.1-0.08c0.28,0.29-0.19-0.31,0.1-0.11c0.23,0.15-0.17-0.2,0.06-0.09
				c0.27,0.12-0.23-0.18,0.05-0.12c0.18,0.04-0.16-0.1,0.02-0.08c0.3,0.04-0.28-0.11,0.02-0.13c0.17-0.01-0.17-0.04,0-0.08
				c0.27-0.05-0.29-0.02-0.01-0.12c0.22-0.09-0.25,0.02-0.02-0.1c0.22-0.12-0.26,0.07-0.04-0.1c0.15-0.12-0.2,0.08-0.04-0.08
				c0.19-0.19-0.28,0.19-0.07-0.1c0.12-0.18-0.2,0.18-0.07-0.07c0.07-0.14-0.13,0.14-0.05-0.05c0.06-0.14-0.12,0.17-0.06-0.04
				c0.03-0.11-0.07,0.14-0.04-0.03c0.01-0.06,0.03,0.03-0.07-0.08c-0.04-0.04-0.17-0.02-0.22-0.02c-0.38-0.11-0.76,0.14-0.86,0.56
				C175.66,133.72,175.84,134.12,176.16,134.26z M176.35,134.34c0.03,0.01,0.05,0.03,0.05,0.05c0.02,0.11-0.01-0.1-0.03-0.07
				L176.35,134.34z M176.11,134.05c-0.03,0.05-0.08,0.11,0.02,0.04l0.01-0.01L176.11,134.05z M176.06,133.97
				c-0.07,0.08-0.16,0.16,0.02,0.06l0.01,0l-0.02-0.03L176.06,133.97z M176.01,133.83c-0.1,0.07-0.22,0.13,0.01,0.06l0.01,0
				l-0.01-0.03L176.01,133.83z M175.98,133.68c-0.06,0.03-0.13,0.05-0.01,0.04l0.01,0l0,0L175.98,133.68z M175.97,133.58
				c-0.08,0.02-0.17,0.03-0.01,0.05l0.01,0V133.58z M175.98,133.46c-0.05,0-0.11,0-0.02,0.03l0.01,0v-0.01L175.98,133.46z
				 M176,133.38c-0.08,0-0.17-0.02-0.02,0.04l0.01,0l0,0L176,133.38z M176.04,133.27c-0.05-0.01-0.1-0.03-0.02,0.03l0.01,0.01
				l0.01-0.02L176.04,133.27z M176.08,133.2c-0.07-0.03-0.13-0.06-0.03,0.03l0.01,0.01l0.01-0.01L176.08,133.2z M176.14,133.11
				c-0.05-0.03-0.11-0.07-0.03,0.02l0.01,0.01L176.14,133.11z M176.21,133.03c-0.06-0.05-0.12-0.11-0.03,0.02l0,0.01l0.01-0.01
				L176.21,133.03z M176.31,132.96c-0.05-0.06-0.09-0.12-0.03,0.01l0,0.01l0.01-0.01L176.31,132.96z M176.41,132.9
				c-0.03-0.06-0.06-0.11-0.03,0l0,0.01L176.41,132.9z M176.5,132.87c-0.02-0.05-0.04-0.09-0.03,0l0,0.01L176.5,132.87z
				 M176.55,132.82c-0.01-0.01-0.01,0.02-0.01,0.04l0,0.01l0.02,0L176.55,132.82z M176.63,132.86c-0.01-0.03-0.01-0.06-0.02,0v0.01
				L176.63,132.86z"/>
		</g>
		<g transform="matrix(0.4441,0,0,0.39775,0,0)">
			<path class="st1" d="M173.77,131.36h0.03c0.02,0,0.03,0,0.05,0.01l0.02,0v0c-0.02,0-0.03,0-0.05,0
				c-0.18,0.02-0.32,0.19-0.32,0.39c-0.04-0.04-0.14-0.07-0.07-0.08c0.04-0.01-0.06-0.05-0.02-0.06c0.06-0.01,0.03-0.05,0-0.09
				c0.06-0.07,0.14-0.12,0.22-0.14c-0.07-0.04-0.16-0.18-0.13,0.03c0.01,0.07-0.04-0.08-0.11,0.01c-0.02,0.03,0,0.07,0.02,0.1
				c-0.07,0.07-0.12,0.16-0.14,0.27c-0.02,0.06,0.01,0.12-0.02,0.16c-0.1,0.17,0.15,0.07,0.03,0.18c-0.05,0.04,0.06,0.01,0.02,0.06
				c-0.06,0.06,0.08,0,0.04,0.07c-0.07,0.1,0.11-0.02,0.07,0.09c-0.07,0.16,0.15-0.08,0.12,0.1c-0.01,0.09,0.08-0.06,0.08,0.04
				c0,0.16,0.1-0.16,0.15,0.03c0.03,0.09,0.04-0.1,0.08,0c0.05,0.12,0.02-0.2,0.15-0.04c0.07,0.08-0.04-0.09,0.13-0.04
				c0.04,0.01,0.08-0.02,0.12-0.09c0.09-0.18,0.19-0.18,0.05-0.37l0-0.02v-0.01c0.01-0.04,0.02-0.08,0-0.09h0v-0.01
				c0-0.02-0.01-0.04-0.01-0.06l-0.01-0.05c0.03-0.03,0.06-0.05-0.01-0.04h0l0-0.01l-0.01-0.01c0.01-0.02,0.02-0.03-0.01-0.03l0,0
				l0.01,0.03l0,0.01c0,0.01,0,0.01,0,0.02l0.01,0l0.01,0.04l0,0.01l-0.01,0.01c0-0.01-0.01-0.02-0.03-0.03
				c0-0.03-0.01-0.05-0.01-0.08l0.02,0c-0.02-0.03-0.03-0.05-0.05-0.08c0.01-0.04,0.03-0.08-0.03-0.05l0.01,0.02l0.02,0.03l0,0l0,0
				l0,0l-0.01-0.02l-0.02-0.03h0l0,0c-0.01-0.02-0.03-0.04-0.05-0.05c0-0.02,0-0.04-0.02-0.02l0.01,0.01l0.01,0.01v0.01v0
				l-0.01-0.01l-0.03-0.02h0l0.01-0.01c-0.02-0.01-0.04-0.03-0.06-0.04c0-0.02-0.01-0.04-0.03-0.01l0.01,0l0.02,0.01v0.01l0,0.01
				l-0.02-0.01l-0.02-0.01h0l0.01-0.01c-0.03-0.01-0.07-0.02-0.11-0.02l-0.01,0C173.83,131.29,173.82,131.19,173.77,131.36
				L173.77,131.36z M174.24,131.81c-0.01,0.02-0.01,0.04,0.02,0.07c0.06,0.05-0.03,0.05,0.02,0.11v0l0.01-0.03v-0.05l0-0.05
				C174.26,131.84,174.25,131.82,174.24,131.81z M173.68,131.37l-0.03,0.01l-0.01,0C173.66,131.39,173.67,131.4,173.68,131.37
				l0.02,0l0.03,0C173.71,131.34,173.69,131.3,173.68,131.37L173.68,131.37z M173.77,131.36h-0.02l-0.02,0
				C173.74,131.37,173.75,131.38,173.77,131.36z"/>
		</g>
		<g transform="matrix(0.4441,0,0,0.39775,0,0)">
			<path class="st1" d="M170.34,129.24c-0.04-0.04-0.1-0.07-0.15-0.08c-0.09,0.01-0.17-0.01-0.23,0.03
				c-0.03,0.02-0.06,0.04-0.09,0.06c-0.02,0.02-0.04,0.04-0.06,0.06c-0.02,0.01-0.02,0.05-0.04,0.06c-0.24,0.1-0.07,0.06-0.17,0.42
				c-0.06,0.2,0.19,0.4,0.43,0.48c0.26,0.08,0.53-0.1,0.6-0.39C170.69,129.62,170.56,129.34,170.34,129.24z M170.35,129.87
				c-0.08,0.07-0.19,0.1-0.3,0.08C170.17,129.99,170.29,129.95,170.35,129.87z M170.46,129.67l0-0.02c0.01,0.01,0,0.03-0.01,0.04
				L170.46,129.67z M170.36,129.26c0.08,0.08,0.13,0.2,0.12,0.33c0.05-0.01,0.13-0.01,0.07-0.07
				C170.47,129.45,170.44,129.32,170.36,129.26z M170.31,129.22c-0.01,0-0.02-0.01-0.03-0.01L170.31,129.22z"/>
		</g>
		<g transform="matrix(0.4441,0,0,0.39775,0,0)">
			<path class="st1" d="M168.19,128.76c0,0.05,0,0.1,0.04,0.11c0.13,0.02-0.07,0.2,0.04,0.24c0.07,0.02-0.08,0.05-0.02,0.07
				c0.18,0.05-0.25,0.04-0.08,0.17c0.1,0.07-0.16-0.06-0.09,0.07c0.01,0.02-0.05,0.03-0.08,0.03c0-0.02-0.02-0.05,0-0.07
				c0.17-0.12,0.22-0.37,0.11-0.56c-0.11-0.19-0.33-0.24-0.5-0.12c-0.2,0.02-0.23,0.2-0.33,0.22c-0.32,0.06,0.08,0.16-0.18,0.2
				c-0.11,0.02,0.07,0.06-0.03,0.09c-0.14,0.05,0.09,0.04-0.02,0.14c-0.1,0.09,0.11,0.12,0.06,0.27c-0.05,0.16,0.14,0.09,0.19,0.32
				c0.02,0.07,0.06,0.09,0.14,0.13c0.1,0.04,0.16,0.04,0.3-0.04c0.33,0.09,0.66-0.12,0.75-0.49
				C168.57,129.23,168.44,128.91,168.19,128.76c0-0.07,0.01-0.14-0.07-0.13c-0.03,0-0.03-0.11-0.04-0.07
				c-0.02,0.05-0.05,0.08-0.01,0.15C168.11,128.72,168.15,128.74,168.19,128.76z"/>
		</g>
		<g transform="matrix(0.4441,0,0,0.39775,0,0)">
			<path class="st1" d="M164.71,132.28c-0.02-0.08-0.03-0.17-0.05-0.19c0.03-0.01,0.06-0.03,0.09-0.05c0.1-0.14,0.14-0.26,0.14-0.35
				h0l0,0.02l0.01,0.03c-0.03,0.02-0.02,0.04,0,0.06C164.92,131.98,164.85,132.17,164.71,132.28c0.02,0.1,0.06,0.18,0.16,0.05
				c0.03-0.03,0-0.08,0.03-0.07c0.28,0.07-0.16-0.27,0.05-0.26c0.16,0-0.15-0.1,0-0.13c0.1-0.02,0.01-0.04-0.04-0.07l0-0.03l0-0.02
				l0.02-0.01c0.05-0.02-0.01-0.02-0.03-0.03l0,0l0-0.01v-0.01l0.01-0.01c0.04-0.03,0.02-0.04-0.01-0.04
				c-0.01-0.09-0.04-0.14-0.06-0.16c-0.06-0.05-0.14-0.09-0.35-0.16c-0.11-0.04,0,0.11-0.41-0.11c-0.05-0.03-0.05-0.01-0.09,0.03
				c-0.05,0.04-0.07,0.04-0.05,0.09c0.06,0.2-0.17,0.07-0.06,0.19c0.12,0.13-0.15,0.05-0.02,0.14c0.2,0.13-0.21,0.14,0.01,0.19
				c0.1,0.03-0.08,0.08,0.02,0.09c0.2,0.02-0.12,0.23,0.09,0.18c0.14,0.27,0.45,0.36,0.69,0.2
				C164.68,132.31,164.69,132.3,164.71,132.28z M164.26,131.96c0.06,0.11,0.19,0.27,0.35,0.15
				C164.48,132.13,164.34,132.08,164.26,131.96z M164.24,131.49c-0.07,0.07-0.07,0.14-0.05,0.21
				C164.18,131.63,164.2,131.56,164.24,131.49z M164.88,131.65l0.01,0.02l0,0v-0.03v-0.02l-0.02,0l-0.01,0L164.88,131.65z
				 M164.27,131.45c0.02-0.02,0.04-0.05,0.07-0.07C164.29,131.39,164.28,131.42,164.27,131.45z"/>
		</g>
		<g transform="matrix(0.4441,0,0,0.39775,0,0)">
			<path class="st1" d="M162.68,134.15c-0.09,0.02-0.16,0.04-0.21,0.05c-0.47,0.15-0.29,0.74-0.24,0.85
				c0.06,0.15,0.2,0.55,0.54,0.39c0.04-0.02,0.17,0.03,0.33-0.19l0.01,0c0.01-0.08,0.08-0.23,0.13-0.27l-0.03-0.01l0.02,0l0.03,0
				l0,0h0c0.03,0,0.07-0.01,0.1-0.03v0.04V135c-0.05,0.11-0.14,0.2-0.26,0.25c0,0.02,0,0.04,0.01,0.05c0.19,0.17,0.24-0.05,0.24-0.3
				c0.02-0.03,0.03-0.06,0.04-0.09c0.05-0.03,0.09-0.07,0.12-0.13c0.13-0.08,0.04-0.22,0.07-0.3c0.04-0.13-0.09-0.26-0.49-0.35
				c-0.06-0.01-0.16-0.01-0.27,0l0.07,0.02l0.06,0.02c-0.06,0-0.12,0.01-0.18,0.03C162.73,134.19,162.69,134.18,162.68,134.15
				c0.05-0.01,0.1-0.02,0.16-0.02l-0.05-0.02c-0.02-0.01-0.1-0.04-0.11,0.02C162.68,134.14,162.68,134.15,162.68,134.15z
				 M163.28,134.96L163.28,134.96L163.28,134.96l-0.02,0.01l-0.01,0.01c0.04,0.01,0.07,0.02,0.05-0.01
				C163.29,134.96,163.29,134.96,163.28,134.96z M162.96,134.82c0.02,0.03,0.05,0.05,0.08,0.08c0.04,0.03,0.08,0.05,0.12,0.06
				C163.04,134.99,163,134.91,162.96,134.82z M162.88,134.53l0,0.02c0,0.01,0,0.03,0,0.04l0,0.02v0
				C162.86,134.59,162.87,134.57,162.88,134.53z"/>
		</g>
		<g transform="matrix(0.4441,0,0,0.39775,0,0)">
			<path class="st1" d="M167.85,138.02l-0.13,0.2c-0.06,0.26,0.08,0.53,0.31,0.6c0.23,0.07,0.47-0.09,0.53-0.35l0-0.4
				c0.01-0.22-0.14-0.41-0.34-0.43C168.03,137.63,167.86,137.8,167.85,138.02z"/>
		</g>
		<g transform="matrix(0.4441,0,0,0.39775,0,0)">
			<path class="st1" d="M167.29,133.05l-0.08-0.02c-0.21-0.06-0.42,0.08-0.48,0.31c-0.05,0.23,0.07,0.47,0.28,0.53l0.47-0.04
				c0.19-0.06,0.3-0.28,0.25-0.5C167.68,133.11,167.48,132.99,167.29,133.05z"/>
		</g>
		<g transform="matrix(0.4441,0,0,0.39775,0,0)">
			<path class="st1" d="M171.71,134.8c-0.06,0.04-0.29,0.18-0.33,0.25c-0.14,0.21-0.2,0.5,0.26,0.68c0.2,0.06,0.42-0.08,0.47-0.3
				l0-0.03c0.09-0.1,0.17-0.22,0.17-0.24c0.01-0.22-0.14-0.41-0.34-0.42C171.85,134.72,171.77,134.75,171.71,134.8z M171.93,134.94
				c-0.03-0.02-0.06-0.04-0.1-0.05C171.87,134.9,171.9,134.92,171.93,134.94z"/>
		</g>
		<g transform="matrix(0.4441,0,0,0.39775,0,0)">
			<path class="st1" d="M171.94,137.71l-0.01,0.07c-0.06,0-0.05,0.08-0.06,0.14c-0.02,0.03-0.03,0.06-0.04,0.09
				c0.03-0.01,0.03-0.05,0.04-0.09c0.01-0.02,0.03-0.04,0.04-0.06l0.02-0.08c0.01,0,0.02,0,0.04,0c0.03,0.01,0.05-0.12,0.03-0.08
				C171.98,137.74,171.96,137.73,171.94,137.71l0.01-0.08l0,0.01c0.07,0,0.13,0,0.19,0.03l0.01,0.07c-0.09,0-0.18,0.05-0.24,0.13
				c-0.08,0.44-0.2,1.01-0.2,0.99c0-0.01,0.1,0.24,0.29-0.04c-0.02-0.11,0.12-0.22,0.27-0.31l0.01,0.13l0,0.05
				c-0.07,0.06-0.16,0.09-0.26,0.1l-0.02,0.03c0,0.02,0.01,0.04,0.03,0.06c0.2,0.28,0.26,0.11,0.25-0.19
				c0.1-0.08,0.17-0.19,0.2-0.33c0.04-0.03,0.05-0.07,0.04-0.09c0.06-0.21-0.05-0.43-0.23-0.5c-0.04-0.04-0.09-0.07-0.15-0.09
				c-0.01-0.05-0.02-0.09-0.03-0.09c-0.01,0-0.07-0.1-0.15-0.09c0.01-0.15-0.01-0.18-0.1,0.07
				C171.85,137.6,171.89,137.68,171.94,137.71z"/>
		</g>
		<g transform="matrix(0.4441,0,0,0.39775,0,0)">
			<path class="st1" d="M174.25,138.42c-0.01,0.02-0.01,0.03-0.02,0.05l0,0.01l0,0.01l-0.01,0.04c-0.12,0.55,0.02,0.72,0.21,0.68
				c0.15,0.13,0.35,0.05,0.49-0.51l0-0.01l0,0l0-0.02l0-0.01l0.01-0.03c0.1-0.19,0.03-0.44-0.14-0.55
				c-0.17-0.11-0.39-0.04-0.49,0.16C174.29,138.29,174.26,138.36,174.25,138.42z"/>
		</g>
		<g transform="matrix(0.4441,0,0,0.39775,0,0)">
			<path class="st1" d="M177.43,137.88c-0.03-0.01-0.07-0.01-0.1-0.02c0-0.03-0.01-0.05-0.01-0.07l0,0
				c0.02-0.02-0.07-0.04-0.04-0.03c0.02,0,0.03,0.02,0.04,0.03c-0.04,0.05-0.02,0.06,0.01,0.07c0.01,0.06,0,0.14,0.04,0.18
				c0.13,0.24,0.41,0.32,0.62,0.18c0.17-0.11,0.26-0.34,0.22-0.54l0.03-0.01c0.04-0.01-0.02-0.04-0.06-0.09
				c-0.01-0.02-0.02-0.04-0.02-0.06c0,0.02,0.01,0.04,0.02,0.06c0.01,0.03,0.02,0.06,0.03,0.09c-0.28,0.07-0.03-0.5-0.27-0.37
				c-0.05,0.03-0.03-0.08-0.09-0.03c-0.18-0.08-0.39,0.01-0.47,0.22C177.35,137.63,177.36,137.77,177.43,137.88z M177.47,137.93
				c0,0.01,0,0.02,0,0.03c-0.02,0.05,0.02,0.03,0.06,0.02l-0.03-0.02L177.47,137.93z"/>
		</g>
		<g transform="matrix(0.4441,0,0,0.39775,0,0)">
			<path class="st1" d="M178.46,135.01l-0.23-0.16c-0.24-0.07-0.48,0.09-0.54,0.35c-0.06,0.27,0.08,0.53,0.31,0.6l0.3-0.01
				c0.19,0.05,0.39-0.09,0.43-0.3C178.77,135.27,178.65,135.06,178.46,135.01z"/>
		</g>
		<g transform="matrix(0.4441,0,0,0.39775,0,0)">
			<path class="st1" d="M187.21,137.69c-0.1-0.03-0.11-0.09,0.03-0.26c0.02-0.02,0.05-0.01,0.07-0.02c0.13-0.05,0.22-0.17,0.25-0.32
				c-0.03-0.2-0.15-0.37-0.33-0.44l0-0.01l0.01-0.02c-0.05,0-0.1,0-0.14,0.02c-0.02,0.01-0.04,0.03-0.06,0.03
				c-0.8-0.17-0.61,0.14-0.67,0.38c-0.05,0.18-0.1,0.36,0.09,0.44c0.04,0.02,0.01,0.09,0.07,0.1c0.07,0.01,0.03,0.14,0.12,0.11
				c0.12-0.04,0.1,0.27,0.33,0C187.03,137.73,187.12,137.72,187.21,137.69z M187.23,136.63c0.14,0.01,0.27,0.12,0.31,0.28
				c0.02,0.06,0.02,0.13,0.01,0.19c0.01,0.07,0.01,0.15-0.01,0.22c-0.05,0.19-0.17,0.33-0.33,0.38c0.02,0.01,0.05,0.01,0.08,0.02
				c0.11,0.01,0.13-0.02,0.16-0.08c0.09-0.18,0.11-0.31,0.18-0.43c0.1-0.17-0.15-0.22-0.11-0.46c0.01-0.09-0.13-0.02-0.13-0.14
				c0-0.07-0.12,0.07-0.13-0.05C187.25,136.52,187.24,136.58,187.23,136.63z"/>
		</g>
		<g transform="matrix(0.4441,0,0,0.39775,0,0)">
			<path class="st1" d="M189.22,136c-0.13,0.06-0.24,0.19-0.28,0.36c-0.33,0.18-0.1,0.36-0.11,0.48c-0.03,0.35,0.31,0.55,0.56,0.47
				c0.12-0.04,0.32,0.08,0.37-0.17c0.01-0.07-0.05-0.14,0.02-0.14c0.06,0-0.01-0.08-0.06-0.09c0.11-0.04,0.19-0.14,0.22-0.25l0,0
				c0.04-0.04,0.07-0.04,0.05-0.07c-0.05-0.07,0.01-0.15-0.02-0.19c-0.07-0.11-0.13-0.19-0.2-0.25c-0.06-0.08-0.14-0.14-0.24-0.17
				c-0.02-0.01-0.05-0.01-0.07-0.01l-0.01,0C189.38,135.93,189.28,135.9,189.22,136z M189.47,135.96c-0.09-0.01-0.17,0-0.25,0.04
				c0,0.01-0.01,0.02-0.01,0.03c-0.03,0.08,0.05,0.07,0.13,0.1c0.11,0.06,0.12-0.06,0.18,0c0.12-0.03,0.24,0,0.32,0.09
				c0.06,0.12,0.08,0.26,0.05,0.41c0.03,0.03,0.03,0.04,0.06,0.02c0.02-0.07,0.03-0.14,0.01-0.22c-0.02-0.08-0.06-0.15-0.11-0.21
				l0-0.01c-0.01-0.01-0.02-0.03-0.02-0.04l-0.03-0.04C189.69,136.06,189.59,136.02,189.47,135.96z"/>
		</g>
		<g transform="matrix(0.4441,0,0,0.39775,0,0)">
			<path class="st1" d="M191.73,137.69c0.05,0.01,0.1,0.03,0.14,0.07c0.01,0.03,0.03,0.04,0.05,0.05c0.03,0.04,0.06,0.08,0.07,0.12
				l0,0.02c0,0,0,0.01,0,0.02l0.01,0.01c0.03,0.1,0.02,0.19-0.02,0.28c0,0.03,0,0.06-0.01,0.08c-0.04,0.17-0.16,0.29-0.3,0.34
				c0,0.02,0.01,0.05,0.06,0.11c0.08,0.1,0.14-0.17,0.2-0.18c0.05-0.01,0-0.08,0.05-0.08c0.21-0.03-0.06-0.25,0.08-0.39
				c0.06-0.06-0.03-0.09-0.06-0.15v0c0-0.01-0.01-0.03-0.01-0.04c0-0.01,0-0.03,0.01-0.05c0.03-0.06-0.03-0.06-0.09-0.08
				c-0.02-0.02-0.03-0.03-0.05-0.05c0-0.01-0.01-0.03,0-0.05c0.01-0.07-0.11,0.05-0.12-0.05
				C191.75,137.63,191.74,137.66,191.73,137.69z M191.68,138.67c0.01-0.04,0.07-0.05,0.09-0.2c0.1-0.04,0.18-0.12,0.22-0.22
				c0.02-0.21-0.1-0.42-0.28-0.49l0-0.01c0-0.01,0.01-0.02,0.01-0.03l0.01-0.03c-0.06-0.01-0.12-0.01-0.18,0.01
				c-0.06-0.13-0.06-0.19-0.03-0.21l-0.06-0.03c-0.14-0.08-0.34,0.11-0.37,0.19c-0.07,0.18-0.22,0.13-0.15,0.26
				c0.09,0.19-0.19,0.28-0.03,0.38c0.04,0.02-0.02,0.07,0.02,0.09c0.04,0.02-0.01,0.08,0.04,0.09c0.11,0.02,0,0.24,0.15,0.19
				c0.06-0.02,0.02,0.09,0.09,0.06c0.09-0.06,0.08,0.16,0.25-0.04C191.53,138.7,191.61,138.7,191.68,138.67z"/>
		</g>
		<g transform="matrix(0.4441,0,0,0.39775,0,0)">
			<path class="st1" d="M190.45,140.81l-0.03,0.01h0C190.43,140.82,190.44,140.82,190.45,140.81c0.06-0.01,0.12-0.01,0.18-0.01h0
				l0.01,0c-0.08,0.05-0.14,0.13-0.16,0.24c-0.01-0.04-0.06-0.11-0.05-0.07c0.02,0.09-0.1-0.01-0.17-0.09
				c0.05-0.03,0.1-0.06,0.15-0.07c-0.04-0.01-0.1-0.05-0.13,0.04c-0.01,0.02-0.08-0.04-0.06-0.01c0.01,0.01,0.02,0.03,0.03,0.04
				c-0.13,0.09-0.23,0.23-0.27,0.4c-0.02,0.09,0,0.16-0.02,0.22c-0.02,0.06,0.05,0.08,0.02,0.13c-0.1,0.2,0.2,0.15,0.23,0.36
				c0.02,0.14,0.17-0.02,0.27,0.12c0.04,0.06,0.09-0.07,0.17,0c0.05,0.05,0.08-0.06,0.28-0.09c0.04,0,0.09-0.04,0.12-0.09
				c0.15-0.28,0.24-0.49,0.11-0.71c0.04-0.22-0.09-0.43-0.28-0.47c-0.09-0.02-0.17,0-0.25,0.04l-0.02,0
				C190.57,140.76,190.51,140.71,190.45,140.81L190.45,140.81z M191.15,141.37l-0.01-0.04v0c0.03,0.04,0.02,0.1,0.01,0.17l0-0.06
				C191.15,141.41,191.15,141.39,191.15,141.37z M191.1,141.18c0.01,0.02,0.02,0.05,0.03,0.08
				C191.12,141.22,191.13,141.19,191.1,141.18L191.1,141.18z M190.97,140.98c-0.02-0.08-0.04-0.14-0.14-0.11
				C190.88,140.9,190.93,140.94,190.97,140.98z M190.78,140.85l-0.02-0.01l-0.03-0.01l0,0
				C190.76,140.81,190.77,140.83,190.78,140.85z"/>
		</g>
		<g transform="matrix(0.4441,0,0,0.39775,0,0)">
			<path class="st1" d="M188.73,142.1c-0.15,0.01-0.29,0.13-0.33,0.31c-0.09,0.45,0.17,0.8,0.64,0.46c0.14-0.1,0.3-0.29,0.34-0.38
				c0.13-0.33,0.01-0.52-0.24-0.59C188.98,141.85,188.81,141.94,188.73,142.1z M189.07,142.28c0.06,0.1,0.08,0.22,0.05,0.34
				C189.17,142.46,189.13,142.35,189.07,142.28z"/>
		</g>
		<g transform="matrix(0.4441,0,0,0.39775,0,0)">
			<path class="st1" d="M187.81,138.95l0.02,0L187.81,138.95l-0.02,0.01L187.81,138.95L187.81,138.95c-0.02,0-0.05-0.01-0.07-0.01
				c-0.17-0.05-0.36,0.06-0.4,0.26c-0.05,0.19,0.06,0.39,0.23,0.45c0.02,0.04-0.03,0.06,0,0.09c0.03,0.03,0.08,0.03,0.13,0.03
				c0.13,0,0.24,0.02,0.32-0.05c0.19-0.08,0.28-0.31,0.21-0.52c-0.06-0.17-0.2-0.27-0.36-0.26c-0.01,0.01-0.03,0.01-0.05,0.01
				c0.02,0,0.03-0.01,0.05-0.01c0.01,0,0.02-0.01,0.02-0.02C187.9,138.87,187.86,138.92,187.81,138.95z"/>
		</g>
		<g transform="matrix(0.4441,0,0,0.39775,0,0)">
			<path class="st1" d="M180.02,140.32l-0.02,0C180.01,140.32,180.01,140.32,180.02,140.32L180.02,140.32
				c0.02,0,0.05-0.01,0.05-0.02c0.01-0.11,0.08-0.09,0.15-0.08c-0.05,0.01-0.09,0.03-0.13,0.07c-0.16,0.13-0.2,0.38-0.08,0.56
				c0,0.13,0.36-0.3,0.72-0.08l-0.01,0.01l-0.02,0.01c-0.01,0-0.01,0-0.02,0.01l0.02-0.01c0.04-0.01,0.13,0.05,0.09,0.02
				c-0.02-0.02-0.04-0.03-0.06-0.04c0.16-0.14,0.21-0.4,0.1-0.61c-0.12-0.23-0.37-0.3-0.58-0.17c-0.09-0.04-0.11,0-0.2,0.08
				C180,140.13,180.07,140.3,180.02,140.32z M180.43,140.23c-0.04-0.05-0.07-0.08-0.12-0.02l0,0
				C180.34,140.21,180.38,140.21,180.43,140.23z"/>
		</g>
		<g transform="matrix(0.4441,0,0,0.39775,0,0)">
			<path class="st1" d="M177.87,144.07c0-0.01,0-0.02,0-0.03l0-0.03l-0.03,0h-0.01c-0.03-0.07-0.04-0.13,0.02-0.15
				c0.05-0.02,0.03,0.09,0.02,0.16c0.05,0,0.1,0,0.15-0.02c0.19-0.08,0.28-0.31,0.21-0.52c-0.01-0.38-0.38-0.45-0.84-0.39
				c-0.4,0.05-0.67,0.52-0.78,0.83c-0.02,0.16,0,0.37,0.1,0.57c0.08,0.14,0.23,0.26,0.29,0.35c0.12,0.31,0.45,0.45,0.72,0.31
				c0.28-0.14,0.4-0.5,0.28-0.81C178,144.28,177.93,144.17,177.87,144.07z M177.62,143.86c0.03,0.07,0.05,0.13,0.12,0.11
				c0.02,0,0.07,0.08,0.05,0.06c-0.03-0.05-0.07,0.16-0.02,0.18c0.06,0.03,0.09-0.08,0.09-0.15l-0.03-0.06
				C177.76,143.99,177.68,143.94,177.62,143.86z"/>
		</g>
		<g transform="matrix(0.4441,0,0,0.39775,0,0)">
			<path class="st1" d="M178.35,146.39c-0.01,0.01-0.02,0.02-0.04,0.03c-0.04,0.02,0.01,0.1-0.05,0.13c-0.02,0,0.01,0.01,0.04,0.02
				l0,0.03c0,0.04,0.02,0.09,0.01,0.14c-0.09,0.28-0.01,0.25-0.05,0.41c-0.04,0.16,0.12,0.12,0.18,0.21
				c0.15,0.21,0.57,0.24,0.68-0.11c0.03-0.1,0.23-0.13,0.07-0.4c0.04-0.17,0-0.33-0.1-0.45l-0.01-0.01c0,0,0,0-0.01,0l0,0
				c-0.05-0.06-0.12-0.11-0.2-0.13c-0.03-0.01-0.05-0.01-0.07-0.01c-0.05-0.02-0.09-0.03-0.15-0.03
				C178.53,146.19,178.41,146.27,178.35,146.39z M178.93,146.33c0.06,0.07,0.09,0.17,0.09,0.27c0.01,0.03,0.09,0.01,0.07,0.03
				c-0.05,0.08,0.12-0.08,0.07-0.1c-0.07-0.01-0.04-0.1-0.06-0.14l-0.02-0.02l-0.01,0C179.02,146.36,178.97,146.34,178.93,146.33z
				 M178.68,146.23c-0.08-0.01-0.16,0-0.26,0.07c-0.03,0.02-0.04,0.06-0.07,0.09c-0.03,0.05-0.05,0.11-0.05,0.17
				c0.02,0,0.03,0.01,0.04,0.01C178.39,146.4,178.52,146.27,178.68,146.23z"/>
		</g>
		<g transform="matrix(0.4441,0,0,0.39775,0,0)">
			<path class="st1" d="M181.46,145.26l-0.08,0.2c-0.06,0.26,0.08,0.53,0.31,0.6c0.23,0.07,0.47-0.09,0.53-0.35l-0.06-0.64
				c-0.05-0.21-0.24-0.35-0.44-0.29C181.53,144.82,181.41,145.04,181.46,145.26z"/>
		</g>
		<g transform="matrix(0.4441,0,0,0.39775,0,0)">
			<path class="st1" d="M181.06,143.13c-0.11,0.12-0.14,0.32-0.06,0.48c0.09,0.19,0.31,0.27,0.49,0.16
				c0.22,0.05,0.26-0.51,0.46-0.35c-0.02,0.04-0.05,0.08-0.09,0.11c0.03-0.04,0.13-0.07,0.1-0.1l-0.01-0.01
				c0.14-0.23,0.13-0.54-0.04-0.76c-0.2-0.26-0.55-0.28-0.78-0.05c-0.11,0.09-0.22,0.22-0.24,0.38c0,0.05,0.07,0.09,0.03,0.11
				C180.84,143.13,180.97,143.16,181.06,143.13z"/>
		</g>
	</g>
	<g transform="matrix(0.4441,0,0,0.39775,0,0)">
		<path class="st0" d="M97.29,178.38c0.02-0.04,0.04-0.09,0.04-0.15c0.02-0.24-0.04-0.38-0.08-0.43c-0.15-0.23-0.35-0.31-0.61,0.08
			c-0.09,0.13-0.29,0.43-0.32,1.16c0,0.08,0.01,0.17,0.03,0.26c0.1,0.74,0.44,1.8,1.17,3.23c1.11,2.13,3.27,6.01,5.74,8.14
			c0.89,0.77,1.82,1.35,2.77,1.53c0.49,0.09,0.97,0.07,1.45-0.04c0.46-0.07,0.78-0.55,0.71-1.07c-0.07-0.52-0.49-0.87-0.96-0.8
			c-0.39,0.04-0.76-0.07-1.15-0.2c-0.91-0.32-1.83-0.97-2.69-1.84c-1.97-1.99-3.69-4.87-4.65-6.55c-0.72-1.23-0.97-2.18-1.19-2.77
			C97.47,178.65,97.35,178.51,97.29,178.38z"/>
	</g>
	<g transform="matrix(0.4441,0,0,0.39775,0,0)">
		<path class="st0" d="M97.31,173.94c0,0.06,0.01,0.14-0.01,0.21c-0.06,0.19,0.03,0.39,0.2,0.46c0.17,0.06,0.35-0.04,0.41-0.23
			c0.17-0.41,0.14-0.71,0.07-0.91c-0.11-0.32-0.42-0.48-0.88-0.48c-0.37,0-0.9,0.14-1.45,0.38c-1.21,0.52-2.58,1.51-2.75,1.59
			c-2.52,1.19-4.46,1.74-5.32,3.17c-0.6,1-0.77,2.43-0.22,4.78c0.51,2.12,3.52,9.99,6.37,15.39c1.14,2.16,2.27,3.93,3.2,4.85
			c0.64,0.63,1.25,0.9,1.74,0.88c1.01-0.04,2.17-0.58,3.35-1.4c1.02-0.71,2.07-1.62,3.04-2.53c1.05-0.98,2-1.95,2.77-2.55
			c0.39-0.28,0.49-0.86,0.24-1.29c-0.25-0.43-0.77-0.55-1.16-0.26c-1.5,1.09-3.73,3.46-5.84,4.94c-0.87,0.61-1.71,1.08-2.46,1.12
			c-0.23,0.01-0.45-0.3-0.77-0.66c-1.08-1.22-2.38-3.53-3.68-6.12c-2.49-4.97-4.91-11-5.36-12.8c-0.44-1.7-0.46-2.75-0.04-3.49
			c0.73-1.27,2.48-1.65,4.65-2.76c0.17-0.09,1.48-0.99,2.62-1.66c0.44-0.26,0.83-0.51,1.14-0.58L97.31,173.94z"/>
	</g>
	<g transform="matrix(0.4441,0,0,0.39775,0,0)">
		<path class="st0" d="M120.85,179.75c0.06-0.11,0.06-0.26,0-0.37c-0.05-0.18-0.16-0.22-0.21-0.27c-0.17-0.14-0.31-0.02-0.48,0.16
			c-0.14,0.15-0.25,1.36-0.33,1.57c-0.11,0.49-0.28,0.97-0.47,1.45c-0.19,0.48-0.42,0.94-0.66,1.37c-0.58,1.11-2.37,3.44-4.16,5.21
			c-0.66,0.66-1.34,1.21-1.94,1.63c-0.45,0.32-0.81,0.61-1.15,0.62c-0.4-0.03-0.75,0.3-0.78,0.74c-0.03,0.45,0.27,0.83,0.67,0.87
			c0.55,0.1,1.26-0.06,2.02-0.48c0.48-0.27,0.97-0.66,1.47-1.11c2.21-1.96,4.55-5.21,5.25-6.61c0.24-0.52,0.46-1.08,0.64-1.66
			c0.17-0.59,0.31-1.18,0.37-1.77c0.01-0.09,0.02-0.31-0.03-0.56C121.01,180.28,120.89,179.98,120.85,179.75z"/>
	</g>
	<g transform="matrix(0.4441,0,0,0.39775,8.5754,1.78358)">
		<path class="st0" d="M106.96,173.78L106.96,173.78c0,0.01,0,0.01,0,0.01l0.02,0.01c0.04,0.04,0.09,0.08,0.15,0.09
			c0.07,0.15,0.12,0.36,0.2,0.41l1.65,1.11c0.42,0.26,1.65,1.24,2.72,2.17c0.66,0.57,1.26,1.11,1.49,1.45
			c-0.02,0.01,0.03,0.04,0.04,0.06l-0.04-0.06l0,0c0.52-0.12-0.2,1.69-0.27,2.09c-0.15,0.87-0.39,1.66-0.68,2.4
			c-0.52,1.34-1.23,2.53-1.83,3.84c-0.27,0.57-0.49,1.18-0.7,1.81c-0.16,0.36-0.03,0.81,0.3,0.99c0.33,0.18,0.73,0.03,0.89-0.34
			c0.26-0.46,0.54-0.88,0.8-1.33c0.63-1.11,1.21-2.21,1.73-3.36c0.5-1.12,0.9-2.3,1.13-3.67c0.06-0.39,0.25-1.33,0.25-2.06
			c0.01-0.58-0.11-1.07-0.3-1.35c-0.28-0.4-1.06-1.1-1.98-1.77c-1.2-0.88-2.6-1.74-3.07-1.96l-1.81-0.77
			c0.02,0.01,0.08,0.03,0.06,0.06c-0.11,0.12-0.22-0.35-0.27-0.39c-0.12-0.08-0.22-0.1-0.31-0.07c-0.07,0.03-0.22,0.08-0.24,0.31
			C106.86,173.58,106.89,173.7,106.96,173.78z M107.4,173.83l0.02-0.02c-0.02,0.02-0.04,0.04-0.06,0.05l0.01-0.01
			C107.39,173.85,107.4,173.84,107.4,173.83z M107.11,173.86c-0.04-0.08-0.08-0.13-0.13-0.1c-0.02,0.01-0.02,0.02-0.02,0.02
			l0.01,0.01l0.01,0.01C107.01,173.83,107.07,173.85,107.11,173.86z"/>
	</g>
	<g transform="matrix(0.4441,0,0,0.39775,0,0)">
		<path class="st0" d="M121.4,177.4L121.4,177.4c-0.55,1.6,0.8,1.28,0.9,0.46c-0.2-0.17-0.51-0.41-0.71-0.49
			c0.08-0.04,0.14-0.11,0.17-0.2c0.05-0.14,0.01-0.29-0.08-0.39c0.51,0.38,0.66,0.77,0.62,1.08c0.08,0.06,0.14,0.12,0.17,0.14
			c0.42,0.29,0.79,0.68,1.13,1.11c0.34,0.43,0.62,0.9,0.83,1.39c1.15,2.47,2.05,4.41,2.21,6.5c0.1,1.31-0.1,2.69-0.74,4.31
			c-1.12,2.84-2.96,7.06-5.48,9c-1.53,1.17-3.32,1.35-5.27-0.39c-0.42-0.35-0.81-0.98-1.24-1.63c-0.72-1.08-1.48-2.3-2.33-2.98
			c-0.55-0.45-1.12-0.72-1.71-0.71c-0.38-0.04-0.72,0.27-0.75,0.7c-0.04,0.43,0.24,0.8,0.62,0.84c0.17,0.05,0.28,0.2,0.43,0.32
			c0.25,0.2,0.49,0.46,0.72,0.76c0.57,0.75,1.08,1.73,1.6,2.57c0.48,0.78,0.98,1.44,1.47,1.86c2.83,2.32,5.29,1.88,7.41,0.18
			c2.71-2.18,4.84-6.67,6.06-9.76c0.78-1.97,1.03-3.64,0.89-5.24c-0.2-2.31-1.22-4.44-2.57-7.13c-0.32-0.59-0.71-1.16-1.19-1.65
			c-0.48-0.48-1.01-0.89-1.57-1.18c-0.21-0.08-1.17-0.22-1.47-0.23c-0.09,0-0.15-0.01-0.17,0c-0.14,0.04-0.63,0.62-0.03,0.75
			C121.36,177.39,121.38,177.4,121.4,177.4z M121.59,177.38c-0.09-0.04-0.16-0.03-0.19,0.03
			C121.47,177.42,121.53,177.41,121.59,177.38z"/>
	</g>
	<g transform="matrix(0.4441,0,0,0.39775,0,0)">
		<path class="st0" d="M82.9,208.33c0.01-0.03,0.02-0.06,0.02-0.09c0.24-0.59-0.12-0.84-0.19-0.9c-0.09-0.07-0.33-0.03-0.66,0.32
			c-0.07,0.07-0.14,0.15-0.22,0.29c-0.16,0.27-0.3,0.69-0.47,1.16c-0.52,1.41-1.09,3.32-1.1,3.36c-0.9,2.8-1.8,5.6-2.66,8.41
			c-0.58,1.88-1.13,3.77-1.65,5.67c-0.13,0.48,0.11,0.98,0.54,1.13c0.43,0.14,0.88-0.13,1.01-0.61c0.5-1.89,1.03-3.77,1.58-5.64
			c0.82-2.82,1.68-5.63,2.54-8.44c0.01-0.04,0.53-1.96,0.94-3.41c0.12-0.45,0.26-0.84,0.32-1.13
			C82.91,208.42,82.9,208.37,82.9,208.33z M82.9,208.19h0.02C82.93,208.19,82.91,208.19,82.9,208.19L82.9,208.19z"/>
	</g>
	<g transform="matrix(0.4441,0,0,0.39775,0,0)">
		<path class="st0" d="M84.32,183.44c-0.1,0-0.23,0.08-0.33,0.01c-0.25-0.15,0.08-0.13-0.17-0.3c-0.06-0.04-0.14,0-0.21,0
			c-0.68,0.06-1.48,0.46-2.32,0.96c-1.95,1.17-4.12,3.17-5.5,4.28c-7.85,6.32-12.77,12.14-16.18,18.45
			c-3.47,6.41-5.45,13.32-7.28,21.8c-0.41,1.92-0.81,3.92-1.2,6.01c-0.54,2.83-1.05,5.83-1.66,9.04c-0.07,0.3,0.09,0.59,0.36,0.67
			c0.26,0.07,0.53-0.1,0.59-0.4c0.81-3.16,1.55-6.11,2.21-8.9c0.49-2.07,0.95-4.04,1.4-5.94c1.92-8.24,3.73-15,7.09-21.27
			c3.29-6.15,8.02-11.84,15.6-18.05c1.15-0.94,2.9-2.5,4.54-3.71c0.9-0.66,1.76-1.19,2.47-1.48c0.1-0.04,0.21-0.05,0.28-0.13
			c0.2-0.25-0.18-0.09,0.04-0.31c0.07-0.07,0.17-0.01,0.26-0.01c0.18,0,0.33-0.15,0.33-0.35C84.64,183.61,84.5,183.44,84.32,183.44z
			"/>
	</g>
	<g transform="matrix(0.4441,0,0,0.39775,0,0)">
		<path class="st0" d="M54.47,246.15c-0.02,0.02-0.03,0.04-0.05,0.07c-0.01,0.02-0.03,0.05-0.03,0.07l-0.03,0.05
			c-0.09,0.18-0.04,0.4,0.12,0.5c0.16,0.1,0.36,0.05,0.45-0.13c0.02-0.03,0.06-0.11,0.08-0.17
			C55.59,245.56,54.75,245.71,54.47,246.15z"/>
	</g>
	<g transform="matrix(0.4441,0,0,0.39775,0,0)">
		<path class="st0" d="M52.26,246.19c-0.05,0.02-0.03,0.04,0.02,0.06c0.04,0.1,0.11,0.18,0.2,0.21c0.08,0.48,0.06,1.41,0.22,1.72
			c0.36,0.64,0.76,1.26,1.2,1.85c0.44,0.6,0.92,1.16,1.43,1.66c1.76,1.75,3.58,3.52,5.52,5.1c1.31,1.07,2.67,2.05,4.09,2.89
			c4.64,2.71,10.68,4.88,16.8,5.75c3.6,0.51,7.24,0.58,10.62,0.04c2.46-0.39,4.79-1.13,6.88-2.19c0.39-0.19,0.56-0.69,0.39-1.12
			c-0.17-0.43-0.62-0.63-1-0.44c-1.99,0.94-4.19,1.52-6.5,1.86c-3.25,0.48-6.73,0.44-10.19-0.01c-5.94-0.78-11.83-2.72-16.37-5.26
			c-1.38-0.76-2.7-1.67-3.98-2.66c-1.94-1.5-3.79-3.17-5.56-4.84c-0.48-0.45-0.94-0.95-1.36-1.49c-0.43-0.54-0.82-1.11-1.18-1.7
			c-0.24-0.35-0.42-1.41-0.51-1.68c-0.07-0.2-0.18-0.29-0.23-0.3c-0.12-0.04-0.23-0.05-0.33,0.05c-0.03,0.03-0.15,0.13-0.15,0.38
			C52.25,246.11,52.25,246.15,52.26,246.19z M52.44,246.29c-0.03-0.09-0.07-0.13-0.12-0.12c-0.03,0-0.04,0.01-0.06,0.02
			c0,0.02,0.01,0.04,0.02,0.06C52.32,246.26,52.37,246.28,52.44,246.29z"/>
	</g>
	<g transform="matrix(0.4441,0,0,0.39775,0,0)">
		<path class="st0" d="M75.91,224.4c-0.01,0.01-0.02,0.03-0.03,0.04c-0.1,0.09-0.24,0.07-0.41,0.2c-0.25,0.19-0.53,0.54-0.84,0.9
			c-1.12,1.29-2.58,3.17-3.16,3.92c-2.18,2.81-5.56,5.87-7.92,9.28c-1.11,1.6-1.97,3.29-2.47,4.98c-0.11,0.34,0.05,0.71,0.35,0.83
			c0.3,0.12,0.63-0.05,0.75-0.39c0.45-1.23,1.15-2.39,1.95-3.56c0.51-0.73,1.04-1.48,1.61-2.2c2.25-2.84,4.94-5.51,6.79-7.94
			c0.57-0.76,2.11-2.56,3.09-3.97c0.29-0.41,0.56-0.77,0.69-1.1c0.08-0.23,0.05-0.38,0.1-0.53c0.04-0.11,0.1-0.17,0.12-0.22
			c0.08-0.17,0.04-0.29,0.02-0.35c-0.05-0.14-0.16-0.29-0.4-0.22C76.02,224.12,75.92,224.25,75.91,224.4z M76.03,224.71
			c0.06,0.07,0.15,0.11,0.29,0.08C76.21,224.81,76.1,224.78,76.03,224.71z"/>
	</g>
	<g transform="matrix(0.4441,0,0,0.39775,0,0)">
		<path class="st0" d="M75.65,234.07c-0.33,0.56-0.79,1.29-1.39,2.05c-0.37,0.46-0.81,0.89-1.24,1.37c-0.4,0.45-0.81,0.92-1.22,1.37
			c-0.71,0.77-1.46,1.49-2.13,2.13c-0.85,0.81-1.59,1.5-2.22,1.75c-0.24,0.08-0.38,0.36-0.31,0.63c0.07,0.27,0.33,0.42,0.57,0.34
			c0.72-0.2,1.66-0.75,2.63-1.59c0.48-0.42,0.95-0.92,1.42-1.44c0.7-0.78,1.41-1.61,2.02-2.47c0.27-0.39,0.49-0.8,0.74-1.17
			c0.67-1.01,1.3-1.89,1.68-2.58c0.1-0.17,0.05-0.39-0.1-0.5C75.94,233.85,75.74,233.9,75.65,234.07z"/>
	</g>
	<g transform="matrix(0.4441,0,0,0.39775,0,0)">
		<path class="st0" d="M76.26,238.53c-0.08-0.12-0.22-0.17-0.35-0.13c-0.17,0.06-0.27,0.26-0.22,0.45c0.01,0.11,0.13,0.27,0.38,0.44
			c0.21,0.14,0.58,0.32,1.04,0.48c1.64,0.59,4.51,1.15,5.14,1.35c4.92,1.45,9.73,2.95,14.6,4.39c1.21,0.36,2.44,0.68,3.66,1.03
			c0.33,0.11,0.68-0.1,0.78-0.47c0.1-0.37-0.09-0.76-0.42-0.87c-1.82-0.64-3.62-1.29-5.44-1.85c-4.25-1.32-8.53-2.39-12.86-3.58
			c-0.46-0.12-2.05-0.42-3.55-0.69c-0.9-0.17-1.75-0.34-2.3-0.46C76.49,238.56,76.25,238.52,76.26,238.53L76.26,238.53z"/>
	</g>
	<g transform="matrix(0.4441,0,0,0.39775,0,0)">
		<path class="st0" d="M102.67,246.58c0,0.01,0.01,0.01,0.02,0.01c0.33-0.03,0.91,0.21,1.5,0.39c0.85,0.26,1.67,0.49,1.72,0.5
			c1.31,0.15,2.8,0.33,4.24,0.28c0.8-0.03,1.61-0.05,2.33-0.32c0.16-0.06,0.32-0.1,0.44-0.22c0.05-0.06,0.05-0.08,0.08-0.16
			c0.26-0.08,0.41-0.39,0.33-0.67c-0.08-0.29-0.35-0.45-0.61-0.37c-0.07-0.04-0.08-0.08-0.15-0.09c-0.17-0.03-0.34,0.02-0.52,0.04
			c-0.84,0.11-1.72,0.22-2.61,0.21c-1.17-0.01-2.34-0.12-3.4-0.23c-0.04,0-0.7-0.2-1.44-0.29c-0.58-0.07-1.18-0.08-1.63-0.01
			c-0.71,0.1-1.06,0.46-0.93,0.87c0.03,0.2,0.2,0.33,0.38,0.29C102.54,246.79,102.63,246.7,102.67,246.58z M102.69,246.49
			c0,0.02,0,0.04-0.01,0.05C102.69,246.54,102.69,246.52,102.69,246.49z"/>
	</g>
	<g transform="matrix(0.4441,0,0,0.39775,0,0)">
		<path class="st0" d="M111.58,246.9c-0.05,0.01-0.09,0.03-0.14,0.03c-0.15-0.01-0.22-0.11-0.38-0.13c-0.64-0.04-1.26,0.3-1.88,0.57
			c-0.68,0.29-1.34,0.67-1.98,1.07c-0.95,0.59-1.85,1.25-2.78,1.72c-0.26,0.12-0.39,0.45-0.29,0.74c0.1,0.29,0.4,0.44,0.67,0.32
			c0.73-0.27,1.46-0.61,2.19-1c0.95-0.51,1.91-1.07,2.85-1.57c0.51-0.27,1.04-0.42,1.49-0.74c0.11-0.08,0.12-0.21,0.24-0.28
			c0.04-0.02,0.08-0.02,0.12-0.03c0.17-0.04,0.29-0.23,0.26-0.43C111.92,246.99,111.75,246.86,111.58,246.9z"/>
	</g>
	<g transform="matrix(0.4441,0,0,0.39775,0,0)">
		<path class="st0" d="M104.95,251.01c0.05,0.04,0.13,0.05,0.18,0.11c0.06,0.08,0.01,0.11,0.09,0.19c0.15,0.16,0.43,0.17,0.7,0.24
			c1.15,0.3,2.9,0.44,3.84,0.62c0.25,0.05,1.43,0.17,2.07,0.1c0.1-0.01,0.17-0.03,0.22-0.07c0.08-0.05,0.07-0.13,0.07-0.13
			s-0.01-0.14-0.05-0.13c-0.06,0.02-0.02-0.08-0.06-0.08c-0.16,0.01,0.04-0.16-0.06-0.26c-0.04-0.04,0.06-0.05,0.03-0.11
			c-0.02-0.05,0.08-0.01,0.08-0.09c0-0.03,0.07-0.01,0.07-0.01s0.03,0.02,0.01,0.07c-0.11,0.04-0.18,0.17-0.14,0.29
			c0.03,0.12,0.15,0.2,0.26,0.16c0.11,0.09,0.12,0,0.17,0.01c0.06,0.02,0.03-0.06,0.07-0.06c0.17,0-0.01-0.17,0.08-0.26
			c0.07-0.08-0.1-0.07-0.07-0.2c0.01-0.07-0.09,0-0.11-0.12c-0.02-0.11-0.03-0.08-0.24-0.29c-0.06-0.06-0.14-0.08-0.25-0.11
			c-0.59-0.14-1.74,0.01-1.98-0.03c-1.07-0.16-3.19-0.33-4.28-0.56c-0.06-0.01-0.12-0.04-0.17-0.03c-0.09,0.02-0.05,0.09-0.14,0.11
			c-0.05,0.01-0.1-0.01-0.14-0.02c-0.16-0.08-0.36,0-0.43,0.18C104.72,250.71,104.79,250.93,104.95,251.01z"/>
	</g>
	<g transform="matrix(0.4441,0,0,0.39775,0,0)">
		<path class="st0" d="M108.39,266.99c0.02-0.03,0.02-0.09,0.04-0.07c0.07,0.09,0.16-0.12,0.19-0.02c0.04,0.15,0.29-0.04,0.25,0.12
			c0,0.03,0.05,0,0.04,0.03c-0.01,0.04,0.08,0,0.07,0.05c-0.02,0.05,0.16,0.06,0.11,0.05c-0.05-0.01,0.01-0.12,0.01-0.17
			c-0.02-0.88,0.07-1.75,0.21-2.62c0.15-0.9,0.35-1.78,0.59-2.63c0.23-0.9,1.09-5.17,1.72-7.69c0.06-0.23,0.12-0.45,0.16-0.65
			c0.05-0.26,0.04-0.47,0.06-0.67c0.02-0.15-0.05-0.38,0.03-0.36c0.03,0.01-0.02-0.07-0.03-0.06c0.15-0.11,0.2-0.33,0.1-0.5
			c-0.09-0.17-0.29-0.22-0.45-0.11c-0.19,0.06-0.54,0.41-0.9,1.11c-0.11,0.21-0.19,0.48-0.29,0.76c-0.82,2.44-1.75,6.7-2.02,7.59
			c-0.31,1.12-0.58,2.28-0.72,3.46c-0.1,0.81-0.13,1.62-0.09,2.43c0.01,0.11-0.02,0.26,0.04,0.36c0.14,0.25,0.11,0.42,0.31,0.45
			c0.21,0.04,0.16,0.31,0.34,0.22c0.05-0.02,0.06,0.05,0.1,0.02c0.05-0.03,0.07,0.04,0.12,0c0.09-0.09,0.18,0.05,0.25-0.11
			c0.24-0.08,0.39-0.37,0.31-0.64C108.87,267.08,108.63,266.93,108.39,266.99z"/>
	</g>
	<g transform="matrix(0.4441,0,0,0.39775,0,0)">
		<path class="st0" d="M108.05,267.42c-0.08,0-0.18-0.01-0.22-0.1c-0.08-0.17,0.11-0.08,0.03-0.26c-0.01-0.02-0.03-0.03-0.05-0.04
			c-0.1-0.09-0.2-0.19-0.32-0.29c-0.29-0.25-0.64-0.47-1.1-0.64c-0.75-0.24-1.52-0.44-2.3-0.6c-1.22-0.25-2.47-0.44-3.67-0.72
			c-0.31-0.07-0.61-0.16-0.91-0.21c-0.21-0.04-0.41-0.05-0.62-0.09c-0.36-0.12-0.74,0.1-0.85,0.5c-0.11,0.4,0.09,0.82,0.45,0.95
			c0.22,0.12,0.44,0.24,0.67,0.33c0.52,0.21,1.07,0.32,1.63,0.45c0.88,0.19,1.79,0.34,2.68,0.47c0.88,0.13,1.76,0.24,2.61,0.43
			c0.49,0.08,0.84,0.34,1.13,0.5c0.03,0.01,0.05,0.04,0.08,0.04c0.2-0.01,0.04-0.12,0.23-0.14c0.23-0.02,0.4,0.18,0.59,0.15
			c0.18-0.01,0.31-0.19,0.3-0.39C108.39,267.56,108.23,267.41,108.05,267.42z"/>
	</g>
	<g transform="matrix(0.4441,0,0,0.39775,0,0)">
		<path class="st0" d="M99.92,250.69c-0.08,0.08-0.15,0.18-0.16,0.3l-0.01,0.03c-0.02,0.07-0.08,0.21-0.15,0.42
			c-0.14,0.4-0.37,1-0.56,1.66c-0.31,1.07-0.54,2.24-0.6,2.66c-0.2,1.85-0.23,3.73-0.08,5.59c0.08,0.93,0.19,1.86,0.38,2.78
			c0.19,0.91,0.46,1.8,0.75,2.68c0.14,0.46,0.59,0.7,0.99,0.55c0.41-0.16,0.63-0.65,0.49-1.11c-0.23-0.83-0.39-1.68-0.55-2.53
			c-0.16-0.85-0.32-1.7-0.41-2.56c-0.2-1.73-0.24-3.48-0.12-5.22c0.02-0.4,0.24-1.47,0.39-2.49c0.1-0.68,0.15-1.32,0.2-1.75
			c0.02-0.21,0.04-0.36,0.05-0.44l0-0.04l0-0.01c0.04-0.13,0.03-0.27-0.02-0.4c-0.04-0.12-0.1-0.2-0.18-0.23
			C100.21,250.5,100.06,250.51,99.92,250.69z M99.82,251.51c-0.1,0.06-0.17,0.11-0.06,0.12l0,0c0.02-0.04,0.03-0.07,0.06-0.1V251.51
			z"/>
	</g>
	<g transform="matrix(0.340879,0,0,0.248021,494.149,340.953)">
		<path class="st0" d="M-1275.75-1062.01c0.05-0.07,0.08-0.19,0.12-0.33c0.27-1.12,0.64-3.23,0.77-3.9l1.73-10.98
			c0.1-0.4-0.06-0.83-0.35-0.96c-0.29-0.13-0.6,0.08-0.7,0.48c-0.52,1.79-0.99,3.59-1.36,5.44c-0.37,1.84-0.64,3.71-0.93,5.57
			c-0.08,0.72-0.59,2.96-0.47,4.19c0.05,0.55,0.17,0.85,0.28,1.05c0.22,0.38,0.41,0.65,0.78,0.34c0.21-0.14,0.29-0.49,0.19-0.78
			C-1275.71-1061.94-1275.72-1061.98-1275.75-1062.01z"/>
	</g>
	<g transform="matrix(0.24414,0,0,0.302848,957.227,216.154)">
		<path class="st0" d="M-3657.84-454.67c0.75-0.01,1.28-0.03,0.02-0.06l-0.03,0c-0.02-0.11-0.05-0.26-0.1-0.48
			c0-0.17-0.12-0.32-0.29-0.41c-0.17-1.68,0.4-5.2,0.41-5.66c-0.05-3.04,0.33-4.37,0.31-6.1c-0.01-1.08-0.2-2.3-0.66-4.16
			c-0.04-0.25-0.33-0.43-0.64-0.39c-0.31,0.03-0.53,0.26-0.49,0.51c0.1,1.26,0.07,2.2,0.06,3.01c-0.05,2.32-0.45,3.52-0.49,7.13
			c0.02,0.61,0.25,5.82,0.42,6.62c0.02,0.12,0.04,0.19,0.05,0.21c0.19,0.33,1.6,0.99,1.43-0.15L-3657.84-454.67z"/>
	</g>
	<g transform="matrix(0.450307,0,0,0.669296,-18.9417,-582.899)">
		<path class="st0" d="M170.36,977.13c-0.05,0.09-0.09,0.14-0.09,0.23c0,0.05,0.03,0.09,0.05,0.14c0.17,0.36,0.51,0.75,0.93,1.15
			c1.16,1.1,2.99,2.22,3.72,2.63c0.22,0.13,0.56,0.1,0.75-0.05c0.19-0.15,0.15-0.38-0.07-0.5c-0.61-0.34-2.03-1.19-3.13-2.09
			c-0.6-0.49-0.97-1.04-1.32-1.43c-0.06-0.07-0.15-0.08-0.22-0.14c-0.03-0.12-0.19-0.2-0.37-0.18
			C170.45,976.9,170.33,977.01,170.36,977.13z"/>
	</g>
	<g transform="matrix(0.4441,0,0,0.39775,0,0)">
		<path class="st0" d="M128.73,176.09c-0.28-0.27-0.17-0.7,0.02-1.17c0.49-1.23,1.69-2.71,1.91-3.44c0.2-0.54,0.72-0.9,1.33-1.2
			c0.92-0.45,2.05-0.67,2.82-0.77c0.31-0.05,0.61-0.15,0.91-0.28c0.95-0.41,1.82-1.2,2.75-1.43c0.3-0.07,0.68,0.06,1.1,0.16
			c0.48,0.11,0.97,0.26,1.42,0.32c0.32,0.04,0.57,0,0.82-0.01c0.12,0,0.25-0.07,0.34,0.04c0.04,0.05,0.05,0.12,0.07,0.19
			c0.08,0.26,0.07,0.55,0.11,0.88c0.09,0.86,0.13,1.82,0.17,2.26c0.15,1.62,0.25,3.15,0.41,4.67c0.11,1.07,0.24,2.12,0.35,3.19
			c0.05,0.46,0.12,0.9,0.16,1.37c0.07,0.75,0.14,1.51,0.16,2.3c-0.02,0.29,0.18,0.55,0.44,0.57c0.26,0.02,0.5-0.2,0.52-0.49
			c0.19-1.16,0.34-2.26,0.37-3.37c0.02-0.49,0-0.97-0.02-1.45c-0.05-0.96-0.12-1.92-0.27-2.87c-0.2-1.37-0.53-2.73-0.82-4.16
			c-0.1-0.48-0.18-1.62-0.54-2.49c-0.16-0.39-0.42-0.65-0.6-0.94c-0.18-0.29-0.31-0.52-0.55-0.71c-0.22-0.2-0.42-0.46-0.75-0.68
			c-0.4-0.26-0.9-0.42-1.37-0.56c-0.71-0.2-1.41-0.22-1.92-0.06c-0.3,0.09-0.6,0.23-0.9,0.4c-0.87,0.5-1.67,1.34-2.63,1.6
			c-0.83,0.26-2.04,0.72-2.99,1.38c-0.76,0.53-1.36,1.16-1.53,1.9c-0.21,0.72-1.38,2.18-1.86,3.39c-0.32,0.82-0.34,1.55,0.15,2.02
			c0.14,0.13,0.34,0.11,0.46-0.04C128.88,176.45,128.87,176.22,128.73,176.09z"/>
	</g>
	<g transform="matrix(0.4441,0,0,0.39775,0,0)">
		<path class="st0" d="M113.41,252.03c0.2-0.1,0.4-0.12,0.61-0.22c0.08-0.04,0.15-0.09,0.23-0.13c0.59-0.34,1.25-0.58,1.94-0.8
			c1.59-0.5,3.31-0.85,4.63-1.36c0.26-0.09,0.4-0.4,0.32-0.68c-0.08-0.28-0.36-0.45-0.61-0.35c-1.56,0.5-3.71,0.61-5.47,1.33
			c-0.59,0.24-1.17,0.51-1.59,0.95c-0.21,0.22-0.34,0.46-0.49,0.73c-0.13,0.13-0.14,0.36-0.02,0.51
			C113.08,252.15,113.28,252.16,113.41,252.03z"/>
	</g>
	<g transform="matrix(0.4441,0,0,0.39775,0,0)">
		<path class="st0" d="M120.04,249.17c0.43,0.03,1.24,0.32,1.53,0.46c0.68,0.28,1.34,0.56,2.02,0.79c0.68,0.24,1.38,0.43,2.1,0.59
			c1.23,0.28,4.27,1.08,6.9,2.06c0.56,0.21,1.1,0.42,1.6,0.64c-1.03-0.04-2.17-0.29-3.22-0.32c-0.37-0.01-0.73,0-1.07,0.05
			c-0.38,0.04-0.65,0.42-0.61,0.84c0.04,0.42,0.38,0.72,0.75,0.68c0.27-0.02,0.56-0.01,0.86,0.01c1.29,0.11,2.7,0.53,3.9,0.53
			c0.12,0,1.59,0.03,2.18,0c0.18-0.01,0.31-0.03,0.36-0.05c0.28-0.08,0.41-0.25,0.47-0.33c0.27-0.39,0.3-0.8-0.05-1.2
			c-0.6-0.69-1.92-1.42-3.52-2.04c-2.93-1.14-6.84-2.04-8.29-2.33l-4.04-1.06c-0.53-0.13-1.89-0.09-2.24,0.01
			c-0.2,0.06-0.3,0.17-0.32,0.23c-0.05,0.12-0.07,0.24-0.01,0.35c0.03,0.05,0.1,0.2,0.35,0.25
			C119.83,249.38,119.97,249.31,120.04,249.17z M119.9,249.17c-0.08,0.01-0.14,0.04-0.13,0.1
			C119.77,249.38,119.85,249.26,119.9,249.17z M119.9,248.66c-0.03-0.06-0.07-0.11-0.1-0.05c0,0.01,0.02,0.02,0.04,0.02
			C119.86,248.64,119.88,248.65,119.9,248.66z"/>
	</g>
	<g transform="matrix(0.4441,0,0,0.39775,0,0)">
		<path class="st0" d="M123.33,254.14c1.33,0.22,4.4,0.72,4.57,0.74c1.65,0.18,4.39,0.32,6.78,0.99c1.27,0.35,2.44,0.84,3.23,1.64
			c-1.38-0.06-3.66-0.41-3.8-0.43c-0.86-0.1-4.69-0.52-8.21-0.62c-0.71-0.02-1.4-0.01-2.06,0c-1.49,0.03-2.81,0.03-3.56,0.32
			c-0.55,0.2-0.8,0.49-0.81,0.7c-0.01,0.04,0.01,0.09,0.05,0.1c0.04,0.01,0.08-0.01,0.09-0.05c0.08-0.13,0.34-0.01,0.78,0
			c0.77,0.01,2.01-0.06,3.44,0.01c0.65,0.03,1.33,0.08,2.03,0.12c3.49,0.18,7.28,0.44,8.14,0.53c0.16,0.02,3.28,0.53,4.5,0.51
			c0.6-0.01,0.91-0.35,0.97-0.51c0.05-0.16,0.05-0.31,0.01-0.47c-0.03-0.14-0.17-0.29-0.25-0.42c-0.88-1.34-2.48-2.19-4.29-2.66
			c-2.45-0.64-5.28-0.63-6.97-0.75c-0.22-0.02-4.73-0.63-5.24-0.62c-0.15,0-0.23,0.06-0.26,0.09c-0.14,0.13-0.32,0.43,0.06,0.64
			c0.04,0.02,0.22,0.08,0.6,0.15C123.21,254.18,123.27,254.17,123.33,254.14z M122.91,253.39l-0.03-0.02
			c-0.01,0-0.04-0.07-0.05-0.03C122.83,253.37,122.86,253.38,122.91,253.39z"/>
	</g>
	<g transform="matrix(0.4441,0,0,0.39775,0,0)">
		<path class="st0" d="M120.05,257.33c-0.02-0.09-0.08-0.17-0.16-0.22c-0.16-0.09-0.36-0.02-0.44,0.15
			c-0.12,0.26-0.09,0.44-0.02,0.56c0.07,0.14,0.27,0.27,0.58,0.24c0.48-0.05,1.42-0.44,1.9-0.52c0.62-0.09,1.24-0.12,1.87-0.1
			c0.95,0.03,1.9,0.18,2.83,0.34c2.56,0.48,4.22,0.78,5.81,1.4c0.7,0.27,1.37,0.62,2.11,1.06c0.88,0.52,1.87,1.16,3.04,2.06
			c0.19,0.15,0.45,0.11,0.59-0.1c0.14-0.21,0.1-0.5-0.09-0.66c-1.15-1.03-2.11-1.82-3.01-2.39c-0.8-0.51-1.54-0.85-2.31-1.12
			c-1.66-0.58-3.39-0.76-6.05-1.1c-0.96-0.14-1.94-0.25-2.92-0.27c-0.66-0.01-1.32,0.03-1.97,0.14
			C121.38,256.89,120.54,257.24,120.05,257.33z"/>
	</g>
	<g transform="matrix(0.4441,0,0,0.39775,0,0)">
		<path class="st0" d="M118.95,261.02l-0.02,0.01c0,0,0.31,0.23,0.54,0.33c0.22,0.09,0.42,0.1,0.49,0.11l4.64,0.05
			c2.19,0.14,4.3,0.18,6.31,0.54c1.37,0.25,2.69,0.64,3.94,1.34c0.16,0.09,0.36,0.02,0.44-0.15c0.08-0.18,0.02-0.4-0.14-0.49
			c-1.29-0.79-2.67-1.26-4.1-1.58c-2.02-0.44-4.16-0.55-6.37-0.78c-0.8-0.08-1.59-0.12-2.38-0.11c-0.78,0.01-1.56,0.08-2.35,0.12
			c-0.04,0-0.17-0.03-0.31-0.03c-0.27,0-0.54,0.07-0.65,0.09c-0.08,0.02-0.13,0.01-0.15,0.03c-0.18,0.16-0.26,0.26-0.12,0.4
			c0.02,0.01,0.05,0.12,0.19,0.12C118.92,261.01,118.93,261.01,118.95,261.02z"/>
	</g>
	<g transform="matrix(0.4441,0,0,0.39775,0,0)">
		<path class="st0" d="M129.79,264.45c-0.48,0.24-1.11,0.27-1.79,0.23c-1.6-0.1-3.46-0.65-4.62-0.68c-3.21-0.01-6.1,0.89-8.87,0.66
			c-1.05-0.09-2.07-0.37-3.13-0.93c-0.62-0.32-1.25-0.71-1.9-1.26c-0.3-0.28-0.75-0.25-1,0.09c-0.25,0.33-0.22,0.83,0.08,1.12
			c0.69,0.72,1.37,1.3,2.07,1.71c1.24,0.73,2.51,1,3.78,1.07c1.51,0.08,3.04-0.17,4.62-0.48c1.4-0.27,2.84-0.59,4.37-0.68
			c1.14-0.08,3.01,0.32,4.59,0.27c0.81-0.02,1.54-0.15,2.09-0.48c0.16-0.09,0.23-0.3,0.15-0.48
			C130.15,264.44,129.95,264.37,129.79,264.45z"/>
	</g>
	<g transform="matrix(0.4441,0,0,0.39775,8.5754,1.78358)">
		<path class="st0" d="M108.87,188.53c-0.31,0.16-0.57,0.5-0.79,1.06c-0.17,0.44-0.22,1.03-0.28,1.7c-0.16,2.07-0.01,5.01-0.05,7.43
			c-0.02,1.14-0.04,2.17-0.24,2.91c-0.13,0.43,0.08,0.89,0.46,1.03c0.38,0.14,0.8-0.09,0.93-0.52c0.25-0.74,0.41-1.72,0.47-2.83
			c0.13-2.72-0.25-6.23-0.17-8.46c0.01-0.36,0.04-0.68,0.05-0.96c0.02-0.36-0.07-0.63,0.04-0.82c0.14-0.13,0.15-0.36,0.03-0.51
			C109.21,188.42,109.01,188.4,108.87,188.53z"/>
	</g>
	<g transform="matrix(0.4441,0,0,0.39775,8.5754,1.78358)">
		<path class="st0" d="M120.12,191.91c0.02,0.36,0.07,0.76,0.14,1.18c0.28,1.67,0.84,3.74,1.45,5.22c0.3,0.73,0.58,1.33,0.86,1.66
			c0.19,0.22,0.32,0.32,0.43,0.37c0.14,0.15,0.36,0.15,0.5,0c0.14-0.15,0.14-0.4,0-0.56c-0.03-0.07,0.03-0.17-0.01-0.32
			c-0.08-0.34-0.24-0.82-0.41-1.42c-0.36-1.2-0.86-2.78-1.15-4.24c-0.09-0.42-0.16-0.83-0.21-1.21c-0.06-0.45,0.03-0.87,0.07-1.19
			c0.25-0.1,0.49-0.22,0.72-0.35c0.57-0.33,0.54-0.82,0.51-1.05c-0.03-0.25-0.14-0.58-0.5-0.77c-0.08-0.04-0.23-0.11-0.44-0.12
			c-0.18-0.01-0.46,0.02-0.54,0.02c-0.4,0.07-0.71,0.2-0.95,0.5c-0.04,0.05-0.07,0.1-0.11,0.16c-0.51,0.15-1.03,0.25-1.56,0.3
			c-1.56,0.16-3.19,0-4.66-0.19c-0.8-0.1-1.85-0.54-2.74-0.74c-0.29-0.06-0.56-0.1-0.8-0.11c-0.05,0-0.1-0.02-0.15-0.01
			c-0.34,0.09-0.43,0.27-0.65,0.41c-0.15,0.09-0.3,0.12-0.39,0.22c-0.13,0.14-0.14,0.37-0.01,0.51c0.12,0.14,0.33,0.15,0.46,0.01
			c0.16-0.07,0.26,0.24,0.55,0.37c0.18,0.08,0.4,0.15,0.62,0.23c0.92,0.33,2.06,0.75,2.91,0.89c1.58,0.26,3.33,0.51,5.02,0.36
			C119.43,192.02,119.78,191.97,120.12,191.91z M121.8,191.02c0.01,0.04,0.01,0.09,0.01,0.13c0.07,0.04,0.12,0.03,0.14-0.07
			C121.96,191.02,121.89,191.01,121.8,191.02z"/>
	</g>
	<g transform="matrix(0.4441,0,0,0.39775,8.5754,1.78358)">
		<path class="st0" d="M122.46,198.74c0.02,0,0.06,0.01,0.08,0.02c-0.17,0.01-0.31,0.17-0.31,0.36c0,0.2,0.15,0.36,0.32,0.36
			c0.16,0.05,0.53-0.11,0.97-0.65c0.32-0.39,0.63-1.04,0.97-1.76c1.06-2.27,2.11-5.51,2.1-6.51c0-0.35-0.25-0.63-0.57-0.63
			c-0.31,0-0.57,0.28-0.57,0.63c-0.01,0.45-0.31,1.39-0.71,2.48c-0.34,0.93-0.76,1.94-1.15,2.86c-0.29,0.71-0.57,1.36-0.81,1.87
			c-0.07,0.14-0.14,0.27-0.18,0.39c-0.06,0.16-0.08,0.29-0.12,0.4C122.46,198.62,122.47,198.71,122.46,198.74z M122.46,198.74
			c0,0.01-0.01,0.02-0.02,0.01C122.42,198.73,122.43,198.73,122.46,198.74z"/>
	</g>
	<g transform="matrix(0.4441,0,0,0.39775,8.5754,1.78358)">
		<path class="st0" d="M126.31,190.72c-0.03,0.03-0.06,0.07-0.06,0.07s0.1,0.04,0.14,0.1c0.14,0.2-0.12,0.04,0.03,0.25
			c0.01,0.02,0.04,0.02,0.06,0.03c0.34,0.11,0.83,0.24,1.28,0.36c0.01,0.1,0.02,0.2,0.04,0.3c0.05,0.19,0.18,0.27,0.26,0.5
			c0.04,0.12,0.08,0.23,0.08,0.36c0,0.05-0.02,0.1-0.03,0.15c-0.06,0.22-0.16,0.42-0.22,0.67c-0.07,0.31-0.07,0.66-0.1,1.02
			c-0.49,4.76-1.69,12.64-2.02,15.22c-0.41,3.44-0.91,6.78-1.24,10.15c-0.22,2.27-0.35,4.55-0.34,6.88c0,0.33,0.24,0.6,0.53,0.6
			c0.29,0,0.53-0.27,0.53-0.6c0.02-2.28,0.19-4.51,0.43-6.73c0.36-3.35,0.89-6.68,1.32-10.11c0.31-2.59,1.48-10.49,1.9-15.28
			c0.03-0.37,0.09-0.72,0.08-1.05c-0.01-0.27-0.09-0.48-0.12-0.72c-0.01-0.05-0.02-0.11-0.02-0.16c0.02-0.14,0.07-0.25,0.12-0.36
			c0.1-0.24,0.23-0.33,0.28-0.54c0.09-0.33,0-0.62-0.02-0.82c-0.08-0.74-0.51-0.99-0.76-1.04c-0.56-0.07-1.32-0.24-1.8-0.29
			c-0.03,0-0.06-0.02-0.08-0.01c-0.24,0.16,0.09,0.05-0.1,0.23c-0.26,0.25-0.53,0.14-0.57,0.24c-0.14,0.13-0.15,0.36-0.04,0.51
			C126,190.79,126.18,190.82,126.31,190.72z"/>
	</g>
	<g transform="matrix(0.4441,0,0,0.39775,8.5754,1.78358)">
		<path class="st0" d="M107.78,206.45c-0.61,1.02-1.21,2.57-1.75,4.25c-0.78,2.45-1.41,5.15-1.78,6.71
			c-1.32,5.73-1.8,10.55-1.19,15.21c0.38,2.95,1.17,5.85,2.51,8.83c0.76,1.71,1.73,3.43,2.85,5.24c0.25,0.42,0.76,0.53,1.13,0.25
			c0.37-0.28,0.47-0.84,0.23-1.26c-1.02-1.77-1.85-3.48-2.56-5.13c-1.22-2.81-2.03-5.48-2.42-8.22c-0.63-4.43-0.22-9.02,0.96-14.49
			c0.32-1.54,0.9-4.21,1.59-6.64c0.46-1.62,0.96-3.13,1.51-4.09c0.01-0.02,0.18-0.63,0.25-1.36c0.06-0.58,0.06-1.23,0.16-1.58
			c0.01-0.03,0.02-0.08,0.02-0.09c0.1-0.06,0.17-0.18,0.17-0.32c0-0.2-0.15-0.36-0.32-0.36c-0.17-0.03-0.45,0.23-0.68,0.73
			c-0.18,0.4-0.39,0.97-0.52,1.48C107.86,205.96,107.81,206.27,107.78,206.45z"/>
	</g>
	<g transform="matrix(0.441149,0,0,0.352852,13.0584,119.168)">
		<path class="st0" d="M46.42-34.56c0.03,0,0.06-0.02,0.09-0.03c0.16-0.09,0.24-0.34,0.16-0.54c0.08-0.12,0.05-0.03,0.06-0.16
			c0.02-0.26-0.23-0.33-0.34-0.39c-0.21-0.12-0.54-0.03-0.81,0.49c-0.27,0.51-0.59,1.74-0.84,2.97c-0.29,1.41-0.48,2.81-0.49,2.9
			c-0.2,1.14-2.69,9.11-2.81,13.52c-0.07,2.3,0.61,3.73,1.74,3.84c5.89,0.7,11.89,0.12,17.86,0.39c1.47,0.07,2.93,0.19,4.39,0.39
			c2.85,0.4,5.68,0.99,8.53,1.42c1.24,0.19,2.48,0.35,3.72,0.45L84.23-9c1.36,0.09,2.53,0.07,3.63-0.04c1.73-0.16,3.31-0.51,5.3-0.8
			c1.78-0.31,2.54-0.81,2.93-1.65c0.34-0.73,0.39-1.84,0.54-3.63c0.15-1.54,0.36-3.09,0.6-4.63c0.37-2.32,0.81-4.62,1.27-6.91
			c0.56-2.82,1.41-5.66,1.96-8.53c0.24-1.28,0.42-2.57,0.49-3.87c0.02-0.39-0.21-0.72-0.52-0.75c-0.31-0.02-0.58,0.27-0.6,0.65
			c-0.07,1.22-0.24,2.43-0.47,3.63c-0.55,2.87-1.42,5.69-1.99,8.51c-0.47,2.3-0.93,4.63-1.31,6.97c-0.26,1.57-0.48,3.16-0.64,4.74
			c-0.17,1.45-0.17,2.35-0.47,2.93c-0.27,0.51-0.82,0.55-1.94,0.66c-1.97,0.25-3.54,0.54-5.25,0.69c-1.05,0.09-2.15,0.13-3.44,0.05
			l-6.53-0.28c-1.22-0.09-2.43-0.24-3.63-0.42c-2.86-0.42-5.7-0.99-8.55-1.37c-1.5-0.2-3-0.31-4.5-0.37
			c-5.94-0.26-11.91,0.29-17.76-0.42c-0.22-0.03-0.21-0.36-0.25-0.71c-0.14-1.08,0.02-2.69,0.29-4.44c0.67-4.2,2.02-9.12,2.16-10
			c0.01-0.09,0.2-1.48,0.41-2.91C46.09-32.97,46.25-34.06,46.42-34.56z M46.26-34.59c-0.08-0.04-0.14-0.11-0.18-0.21
			c-0.07-0.03-0.09,0-0.11,0.06C45.91-34.58,46.16-34.56,46.26-34.59L46.26-34.59z"/>
	</g>
	<g transform="matrix(0.4441,0,0,0.39775,0,0)">
		<path class="st0" d="M119.25,276.72c0.06,0.07,0.15,0.11,0.25,0.1c2.48-0.07,1.94-0.83,0.39-0.97c-0.71-0.07-2.14-0.15-3.78-0.19
			c-3.73-0.1-8.59-0.06-8.74-0.08c-4.58-0.41-9.15-0.71-13.72-0.87c-3.2-0.12-6.41-0.21-9.62-0.19c-1.37,0.01-2.75,0.06-4.12,0.1
			c-0.36,0-0.64,0.32-0.64,0.72c0,0.4,0.29,0.72,0.64,0.72c1.1,0.04,2.19,0.1,3.29,0.12c4.39,0.1,8.77,0.11,13.14,0.26
			c3.64,0.12,7.29,0.28,10.94,0.54c0.14,0.01,5.06-0.07,8.83-0.17C117.36,276.77,118.48,276.73,119.25,276.72z M120.12,276.04
			c0.08-0.01,0.12-0.03,0.11-0.07c-0.01-0.06-0.08,0.04-0.09,0.05L120.12,276.04z"/>
	</g>
	<g transform="matrix(0.4441,0,0,0.39775,0,0)">
		<path class="st0" d="M118.69,272.23l0.02,0c0.2,0.04,0.36-0.06,0.41-0.19c0.13-0.2-0.01-0.48-0.31-0.53c-0.02,0-0.05,0-0.07,0
			c-0.04-0.01-0.08-0.02-0.13-0.03c-0.69-0.12-2.51-0.45-2.94-0.46c-1.9-0.05-3.8-0.16-5.7-0.3c-1.27-0.09-2.53-0.18-3.8-0.3
			c-5.02-0.45-10-0.95-15-1.25c-2-0.12-4.01-0.22-6.02-0.24c-1.34-0.01-2.68,0.03-4.02,0.08c-0.32,0-0.58,0.29-0.58,0.65
			c0,0.36,0.26,0.65,0.58,0.65c1.33,0.04,2.66,0.13,3.99,0.18c2,0.09,3.99,0.16,5.99,0.27c4.99,0.26,9.97,0.62,14.98,0.98
			c1.59,0.11,3.19,0.2,4.79,0.24c1.6,0.04,3.19,0.02,4.79-0.02c0.42-0.01,2.19,0.19,2.86,0.26
			C118.58,272.23,118.64,272.23,118.69,272.23z"/>
	</g>
	<g transform="matrix(0.4441,0,0,0.39775,0,0)">
		<path class="st0" d="M52.41,260.57c-0.1-0.42-0.48-1.06-0.62-1.21c-0.06-0.07-0.12-0.08-0.16-0.1c-0.17-0.11-0.38-0.09-0.44,0.57
			c0,0.14-0.02,0.26,0,0.39c0.15,1.1,0.67,2.08,1.1,3.08c1.07,2.52,2.44,4.86,3.42,7.43c1.09,2.77,2.24,5.5,3.44,8.22
			c0.71,1.62,1.43,3.24,2.17,4.85c1.1,2.41,2.22,4.81,3.27,7.25c0.11,0.27,0.39,0.39,0.63,0.27c0.24-0.12,0.35-0.44,0.24-0.71
			c-0.78-2.09-1.59-4.17-2.45-6.23c-2-4.77-4.18-9.45-6.07-14.26c-0.3-0.75-0.62-1.48-0.97-2.2c-1.09-2.24-2.33-4.37-3.31-6.68
			C52.57,261.02,52.49,260.79,52.41,260.57z"/>
	</g>
	<g transform="matrix(0.4441,0,0,0.39775,0,0)">
		<path class="st0" d="M48.96,261.47c0.01-0.02,0,0.05-0.02-0.06c0.13-0.08,0.19-0.24,0.16-0.39l0,0c0,0,0,0,0-0.01l0-0.01
			c0.03,0,0.07,0,0.09,0.01c0.02,0.03-0.02,0.08-0.05,0.09c0.24-0.15,0.5-0.23,0.76-0.31c0.28-0.09,0.56-0.16,0.84-0.18
			c0.39-0.03,0.68-0.4,0.66-0.84c-0.03-0.44-0.36-0.76-0.75-0.73c-0.46,0.03-0.94,0.1-1.38,0.28c-0.31,0.13-0.59,0.31-0.85,0.53
			c-0.1,0.11-0.23,0.21-0.29,0.39c-0.12,0.39-0.18,0.85-0.04,1.05c0.14,0.19,0.24,0.43,0.47,0.37c0.1-0.02,0.33,0.08,0.39-0.14
			C48.95,261.5,48.96,261.48,48.96,261.47z M49.09,261L49.09,261L49.09,261L49.09,261c-0.02,0-0.03,0.01-0.02,0.01
			c0.01,0.01,0.02,0.01,0.02,0v0L49.09,261z M48.98,260.81L48.98,260.81c-0.03-0.13-0.16-0.12-0.27-0.19
			c-0.04-0.02-0.12-0.04-0.14,0.02c-0.02,0.06-0.02,0.09,0.05,0.13C48.74,260.7,48.88,260.72,48.98,260.81z"/>
	</g>
	<g transform="matrix(0.4441,0,0,0.39775,0,0)">
		<path class="st0" d="M48.57,262.09c-0.11-0.11-0.22-0.23-0.34-0.37c0.14,0.17,0.24,0.43,0.34,0.72c0.28,0.79,0.47,1.78,0.69,2.35
			l2.92,7.29c0.56,1.34,1.13,2.67,1.71,3.98c1.36,3.07,2.78,6.1,4.12,9.19l1.02,3.29l1.92,4.44c0.12,0.29,0.42,0.42,0.68,0.29
			c0.26-0.13,0.37-0.47,0.26-0.76l-1.84-4.43c-0.26-0.75-0.41-1.55-0.63-2.32c-0.1-0.36-0.22-0.72-0.37-1.07l-5.66-13.24
			c-0.59-1.46-1.15-2.93-1.75-4.38c-0.4-0.97-0.83-1.93-1.27-2.89c-0.17-0.37-0.34-0.94-0.54-1.51c1.06-0.18,0.95-2.6-0.83-1.7
			c0.21,0.24,0.39,0.59,0.56,0.98c0.1,0.23,0.19,0.47,0.27,0.72c-0.3,0.05-0.69-0.07-1.15-0.49c0.03,0.02,0.07,0.03,0.12,0.04
			c0.18,0.02,0.34-0.12,0.36-0.32c0.08-0.22-0.3-0.84-0.16-0.91l0.02-0.01l-0.06-0.07c-0.07-0.07-0.11-0.1-0.12-0.11
			c-0.41-0.25-0.63,0.05-0.7,0.21c-0.04,0.08-0.13,0.25-0.03,0.5c0.01,0.02,0.02,0.08,0.07,0.13c0.04,0.05,0.16,0.11,0.25,0.21
			c0.02,0.02,0.07,0.05,0.07,0.05s0.03-0.04,0.03-0.06C48.5,261.93,48.53,262.02,48.57,262.09z"/>
	</g>
	<g transform="matrix(0.4441,0,0,0.39775,0,0)">
		<path class="st0" d="M64.36,293.41c-0.11-0.05-0.22-0.1-0.34-0.15c-0.13-0.05-0.87-0.44-1.56-0.77c-0.3-0.15-0.76-0.22-0.93-0.34
			c0.01-0.04,0.01-0.08,0.01-0.11c-0.02-0.2-0.18-0.35-0.36-0.33c-0.29-0.03-0.37,0.2-0.42,0.34c-0.05,0.12,0,0.32,0.17,0.58
			c0.16,0.24,0.52,0.62,0.95,0.98c0.64,0.53,1.42,0.99,1.55,1.07l0.59,0.39c0.09,0.12,0.34,0.45,0.44,0.53
			c0.43,0.34,0.8,0.13,1-0.09c0.1-0.12,0.31-0.61,0.3-1.31c-0.01-1.08-0.21-2.88-0.26-3.17c-0.04-0.35-0.33-0.59-0.64-0.55
			c-0.31,0.05-0.53,0.37-0.49,0.72C64.39,291.4,64.39,292.48,64.36,293.41z M64.29,294.45c-0.06,0.06-0.09,0.12-0.02,0.14
			c0.03,0.01,0.02-0.08,0.02-0.13V294.45z"/>
	</g>
	<g transform="matrix(0.4441,0,0,0.39775,0,0)">
		<path class="st0" d="M27.87,232.83l0.02,0.01c0.24,0.08,0.49,0.1,0.74,0.14c1.95,0.34,3.93,0.57,5.92,0.77
			c5.18,0.52,10.42,0.94,15.52,1.21c0.58,0.03,1.15,0.02,1.72,0.04c0.47,0.05,0.89-0.34,0.93-0.87c0.04-0.53-0.31-1-0.78-1.05
			c-0.49-0.09-0.98-0.2-1.48-0.27c-0.33-0.04-0.66-0.06-0.99-0.08c-5.83-0.46-11.84-0.73-17.73-1.25c-1.18-0.11-2.35-0.31-3.52-0.32
			c-0.31,0-0.59,0.06-0.9,0.08c-0.44,0.02-0.68,0.08-0.79,0.17c-0.34,0.26-0.45,0.54-0.2,0.88
			C26.48,232.47,27.1,232.83,27.87,232.83z"/>
	</g>
	<g transform="matrix(0.4441,0,0,0.39775,0,0)">
		<path class="st0" d="M155.78,242.74L155.78,242.74c-0.14-0.05-0.3,0.11-0.31,0.31c-0.05,0.21,0.08,0.44,0.23,0.41l0.02,0
			c0.04,0.03,0.09,0.05,0.15,0.07c0.15,0.06,0.43,0.02,0.67,0.25c0.11,0.1,0.01,0.14,0.13,0.25c0.04,0.04,0.09,0.04,0.14,0.06
			c0.28,0.09,0.61,0.18,0.97,0.24c2.83,0.51,7.65,0.87,8.75,0.97c2.78,0.21,5.55,0.5,8.31,0.82c2.59,0.3,5.17,0.64,7.75,0.97
			c3.88,0.48,7.77,0.94,11.66,1.4c0.44,0.06,0.83-0.29,0.89-0.77c0.05-0.49-0.26-0.93-0.69-0.99c-4.62-0.72-9.22-1.52-13.84-2.17
			c-4.64-0.64-9.29-1.13-13.96-1.47c-1.1-0.07-5.86-0.69-8.72-0.77c-0.37-0.01-0.7,0-0.99,0.04c-0.05,0-0.11,0-0.15,0.03
			c-0.14,0.09-0.04,0.14-0.17,0.22c-0.28,0.17-0.54,0.08-0.7,0.1C155.89,242.71,155.83,242.73,155.78,242.74z"/>
	</g>
	<g transform="matrix(0.4441,0,0,0.430415,8.5754,-71.3161)">
		<path class="st0" d="M124.68,339.12c-0.01-0.12-0.08-0.23-0.2-0.28c-0.17-0.07-0.36,0.01-0.42,0.18
			c-0.08,0.17,0.02,0.52,0.43,0.88c0.53,0.47,1.59,1.18,2.62,1.96c0.58,0.44,1.15,0.88,1.58,1.35c0.5,0.54,1.34,1.73,2.15,2.96
			c0.8,1.22,1.57,2.48,1.91,3.16c0.99,1.97,2.34,5.01,3.41,7.95c0.73,2,1.34,3.95,1.61,5.47c1.15,6.54,0.97,13.41-0.32,19.63
			c-1.47,7.09-4.36,13.34-8.35,17.26c-0.32,0.31-0.33,0.83-0.03,1.16c0.3,0.33,0.81,0.34,1.12,0.03c4.16-4.13,7.2-10.69,8.69-18.13
			c1.29-6.41,1.43-13.48,0.19-20.19c-0.29-1.58-0.94-3.61-1.73-5.69c-1.13-2.97-2.54-6.04-3.58-8.03c-0.36-0.7-1.18-1.99-2.03-3.24
			c-0.87-1.27-1.78-2.5-2.32-3.06c-0.53-0.55-1.23-1.1-1.95-1.58c-0.94-0.62-1.9-1.12-2.45-1.51
			C124.87,339.29,124.72,339.16,124.68,339.12z"/>
	</g>
	<g transform="matrix(0.4441,0,0,0.39775,0,0)">
		<path class="st0" d="M138.02,254.54c-0.03-0.17-0.07-0.36-0.1-0.23l0,0.03C137.96,254.4,138,254.47,138.02,254.54L138.02,254.54
			l0.01,0.03l0,0.01L138.02,254.54c-0.08-0.04-0.11-0.1-0.1-0.2c-0.2-0.33-0.55-0.51-0.92-0.44c-0.49,0.1-0.82,0.63-0.73,1.18
			c-0.01,0.62,0.34,1.04,0.86,1.34c0.31,0.18,0.76,0.21,1.28,0.15c0.84-0.1,1.95-0.44,2.97-0.89c0.59-0.26,1.14-0.53,1.59-0.8
			c0.25-0.15,0.41-0.32,0.59-0.41c0.15-0.07,0.28-0.1,0.34-0.09c0.18,0.02,0.34-0.13,0.35-0.33c0.02-0.2-0.11-0.38-0.29-0.39
			c-0.08-0.01-0.22,0.03-0.42,0.06c-0.24,0.03-0.54-0.01-0.92,0.03c-0.58,0.07-1.28,0.2-2,0.34
			C139.75,254.25,138.4,254.74,138.02,254.54z"/>
	</g>
	<g transform="matrix(0.4441,0,0,0.39775,8.5754,1.78358)">
		<path class="st0" d="M124.87,225.28c-0.1,0.01-0.23,0.08-0.14,0.05c0.02-0.01,0.01,0.05,0.02,0.08c0.27,0.66,0.57,2.5,0.61,2.71
			c0.2,1.11,0.32,2.22,0.41,3.34c0.13,1.59,0.17,3.19,0.27,4.79c0.07,1.08,0.18,2.16,0.31,3.24c0.04,0.39,0.36,0.68,0.71,0.63
			c0.35-0.05,0.61-0.4,0.56-0.8c-0.1-1.13-0.14-2.27-0.21-3.4c-0.07-1.15-0.15-2.3-0.26-3.45c-0.14-1.55-0.34-3.1-0.67-4.62
			c-0.05-0.19-0.41-1.74-0.77-2.57c-0.15-0.36-0.31-0.65-0.45-0.7c-0.03-0.01-0.06-0.06-0.09-0.04c-0.2,0.09-0.12-0.14-0.2,0.05
			c-0.18-0.01-0.33,0.14-0.34,0.34C124.63,225.08,124.73,225.23,124.87,225.28z"/>
	</g>
	<g transform="matrix(0.4441,0,0,0.39775,8.5754,1.78358)">
		<path class="st0" d="M126.08,222.61c0.15,0.67,0.34,1.31,0.62,1.92c0.18,0.41,0.4,0.78,0.63,1.16c0.84,1.36,1.88,2.58,2.87,3.78
			c0.29,0.33,0.76,0.34,1.06,0.02c0.3-0.32,0.31-0.84,0.02-1.18c-0.83-0.93-1.68-1.89-2.46-2.89c-0.38-0.49-0.74-1-1.1-1.52
			c-0.36-0.52-0.73-1.01-1.04-1.58c-0.07-0.18-0.26-0.27-0.42-0.19C126.09,222.21,126.01,222.42,126.08,222.61z"/>
	</g>
	<g transform="matrix(0.4441,0,0,0.39775,8.5754,1.78358)">
		<path class="st0" d="M110.2,203.61c-0.04-0.06-0.11-0.11-0.18-0.13c-0.03-0.11-0.08,0.02-0.1-0.02c-0.08-0.13-0.08,0.1-0.15,0.06
			c-0.18-0.11,0.01,0.18-0.15,0.24c-0.1,0.04,0.11,0.08,0.01,0.2c-0.04,0.05,0.09,0.01,0.05,0.1c-0.02,0.04,0.07-0.01,0.06,0.07
			c0,0.03-0.02-0.02,0.07,0.15c0.04,0.09,0.2,0.2,0.42,0.35c1.08,0.72,3.88,2.06,4.56,2.37c1.79,0.73,3.64,0.99,5.43,0.74
			c0.73-0.1,1.46-0.28,2.15-0.56c1.02-0.41,1.98-1,2.89-1.74c0.32-0.24,0.41-0.73,0.2-1.09c-0.22-0.36-0.65-0.46-0.98-0.22
			c-0.85,0.56-1.74,0.96-2.64,1.26c-0.61,0.2-1.22,0.36-1.85,0.45c-1.54,0.23-3.14,0.1-4.69-0.48c-0.7-0.23-3.47-1.46-4.66-1.82
			c-0.24-0.07-0.41-0.12-0.49-0.1c-0.05,0.01-0.05,0.05-0.05,0.05s0.01,0.06,0.03,0.05C110.21,203.5,110.19,203.58,110.2,203.61z
			 M109.96,204.2h-0.02C109.95,204.21,109.96,204.22,109.96,204.2L109.96,204.2L109.96,204.2z M110.11,204.14
			c-0.01,0.01-0.02,0.01-0.04,0.02C110.1,204.18,110.11,204.18,110.11,204.14L110.11,204.14z M110.16,204.1l-0.01,0.01
			c0.02,0,0.04,0,0.03-0.02v-0.01L110.16,204.1z M110.26,203.91l0,0.01c-0.01,0.02-0.01,0.04-0.02,0.07
			C110.27,203.97,110.31,203.96,110.26,203.91L110.26,203.91z M110.23,203.68c0.02,0.04,0.03,0.08,0.03,0.12
			C110.3,203.75,110.34,203.7,110.23,203.68L110.23,203.68z M110.22,203.65l0.01,0.02c0-0.02,0.01-0.04-0.02-0.04l-0.01,0
			L110.22,203.65z"/>
	</g>
	<g transform="matrix(0.4441,0,0,0.39775,0,0)">
		<path class="st0" d="M106.17,200.37c0.01-0.11,0.02-0.18,0.02-0.18c-0.08-0.24-0.3-0.39-0.52-0.34c-0.23,0.04-0.39,0.26-0.39,0.52
			c0,0-0.09,0.14-0.14,0.45c-0.14,0.87-0.06,2.87-0.17,3.99l-1.23,9.97c-0.45,3.73-0.79,7.5-1.1,11.28
			c-0.31,3.75-0.61,7.5-1.04,11.22c-0.15,1.27-0.32,2.54-0.48,3.81c-0.25,1.91-0.51,3.81-0.87,5.7c-0.06,0.26,0.08,0.52,0.31,0.59
			c0.23,0.07,0.47-0.09,0.53-0.35c0.5-1.88,0.95-3.77,1.3-5.69c0.24-1.27,0.43-2.56,0.6-3.85c0.51-3.73,0.87-7.5,1.2-11.27
			c0.33-3.76,0.62-7.51,1.06-11.22c0.22-2,0.48-4.01,0.69-6.01c0.14-1.35,0.27-2.7,0.37-4.05c0.08-1.16,0.19-3.23,0.05-4.13
			c-0.05-0.31-0.14-0.45-0.14-0.45L106.17,200.37z"/>
	</g>
	<g transform="matrix(0.4441,0,0,0.39775,0,0)">
		<path class="st0" d="M108.85,209.66c-0.28,0.03-0.53,0.22-0.76,0.43c-0.59,0.56-0.91,1.71-0.95,2.86
			c-0.03,0.94,0.17,1.88,0.52,2.54c0.38,0.71,0.96,1.11,1.68,1.07c1.99-0.12,3.46-2.41,3.55-4.34c0.04-0.83-0.17-1.59-0.63-2.13
			c-0.52-0.62-1.42-1.06-2.76-0.68C109.29,209.46,109.08,209.55,108.85,209.66z M108.79,211.02c-0.31,0.45-0.42,1.19-0.42,1.94
			c0.01,0.66,0.12,1.32,0.38,1.78c0.13,0.22,0.28,0.39,0.51,0.37c1.33-0.09,2.24-1.68,2.29-2.97c0.04-0.92-0.5-1.51-1.8-1.3
			c-0.26,0.04-0.54,0.07-0.86,0.16C108.86,211.01,108.83,211.02,108.79,211.02z"/>
	</g>
	<g transform="matrix(0.4441,0,0,0.39775,0,0)">
		<path class="st0" d="M107.98,232.7c-0.05,0-0.1,0-0.17,0.02c-0.14,0.05-0.56,0.38-0.74,0.64c-0.2,0.2-0.38,0.45-0.55,0.73
			c-0.2,0.34-0.37,0.74-0.5,1.21c-0.1,0.26-0.04,0.55,0.12,0.75c-0.25,1-0.51,2.34-0.38,3.42c0.15,1.21,0.74,2.12,2.03,2.32
			c0.59,0.09,1.12-0.1,1.57-0.44c0.55-0.41,0.99-1.06,1.37-1.64c1.8-2.78,1.4-5.06,0.39-6.24
			C110.34,232.55,109.1,232.17,107.98,232.7z M107.2,235.78c-0.17,0.91-0.42,2.35-0.23,3.45c0.1,0.57,0.36,1.04,0.98,1.11
			c0.34,0.04,0.62-0.14,0.87-0.37c0.34-0.32,0.61-0.75,0.86-1.13c1.29-1.96,1.26-3.57,0.54-4.4c-0.65-0.74-1.75-0.6-2.54,0.56
			C107.51,235.24,107.34,235.48,107.2,235.78z M108.05,233.46c-0.03,0.01-0.07,0.02-0.1,0.02
			C108.02,233.52,108.07,233.53,108.05,233.46z"/>
	</g>
</g>
</svg>
