<?xml version='1.0' encoding='ASCII' standalone='yes'?>
<svg xmlns="http://www.w3.org/2000/svg" xmlns:xlink="http://www.w3.org/1999/xlink" version="1.1" width="170.0px" viewBox="0 0 170.0 170.0" height="170.0px">
  <g transform="translate(0, 0) scale(0.2 0.2) ">
    <g>
      <g>
        <g>
          <g/>
        </g>
        <g transform="translate(170.1, 56.7) scale(1 1) translate(0, 0) scale(1 1) ">
          <g><!-- Generator: Sketch 62 (91390) - https://sketch.com -->
    <title>head/mono/hat-hip</title>
    <desc>Created with Sketch.</desc>
    <g id="head/mono/hat-hip" stroke="none" stroke-width="1" fill="none" fill-rule="evenodd">
        <path d="M418.5807,283.1921 C418.1827,260.7901 417.7427,237.9401 414.4127,215.7561 C411.1567,194.0681 402.1997,174.4641 386.8077,158.7151 C354.1147,125.2621 306.7247,117.0911 262.6127,109.6031 L187.1937,96.8001 C164.1847,92.8951 139.6377,86.6531 116.3907,92.1911 C104.9357,94.9201 95.2077,101.2601 86.3167,108.7611 C77.7467,115.9911 68.5327,123.7551 62.7257,133.4821 C56.9087,143.2231 54.9077,154.6101 53.0167,165.6271 C50.8837,178.0481 49.2267,190.5661 48.0497,203.1141 C45.6907,228.2541 45.3687,253.5831 47.0797,278.7751 C47.9087,290.9941 49.2277,303.1781 50.9117,315.3081 C51.7467,321.3231 52.6907,327.3231 53.7567,333.3021 C54.0707,335.0651 54.3097,337.0171 54.6317,338.9891 C52.2527,345.7551 50.9007,352.7621 51.0097,359.7391 C51.3307,380.2911 68.6777,393.2301 86.1657,400.1771 C96.3057,404.2051 106.9067,406.9421 116.8697,411.4421 C127.3507,416.1751 134.4847,423.8481 141.6507,432.6011 C155.3177,449.2951 170.7407,464.2991 188.3517,476.8171 C225.6897,503.3581 272.9817,515.9111 318.2857,506.3831 C329.1557,504.0971 340.1217,500.5471 349.8927,495.1981 C360.2087,489.5511 367.9657,481.3681 374.4797,471.6931 C386.5747,453.7321 395.2487,433.5071 401.8107,412.9261 C408.5037,391.9321 413.2547,370.9001 415.8457,349.0091 C418.4277,327.1891 418.9717,305.1471 418.5807,283.1921 L418.5807,283.1921 Z" id="&#127912;-Background" fill="#FFFFFF"/>
        <path d="M177.911,18.7638 C209.121,14.4708 252.198,28.4238 267.741,56.5578 C341.947,39.0638 435.54,38.4908 496.701,96.7278 C560.52,165.8098 480.36,256.8948 427.207,277.4308 C431.077,296.2378 425.043,416.7228 382.348,470.4658 C348.464,516.0018 269.557,537.0168 233.044,482.6278 L232.759185,482.179028 C228.84735,475.897763 232.216386,476.099459 236.232,480.7718 C271.986,512.2138 320.599,512.7508 358.06,479.5688 C428.268,418.9188 421.029,270.2088 387.621,184.1778 C292.491,173.7298 190.637,202.5628 124.932,274.1718 L129.375,300.9198 C130.132,305.4768 130.992,310.0298 131.648,314.6028 C132.068,317.5328 132.115,320.4468 130.085,322.8188 C123.382,330.6488 112.085,318.8828 102.79,314.2028 C100.046,313.8168 97.297,313.6678 94.601,313.8578 C49.943,319.6098 58.742,406.2398 107.824,391.0548 C111.948,388.4858 115.491,389.2698 117.091,392.9978 C128.79,403.7138 136.504,422.8258 155.941,441.2338 C162.799,448.1388 169.04,453.9158 176.754,459.4548 C181.285,464.0368 194.957,468.7088 190.623,476.5498 C182.427,494.3918 134.096,438.3468 125.551,422.8478 C98.778,433.4198 69.108,429.8288 41.363,427.2448 C-105.007,419.6348 -85.467,265.3448 34.509,167.9338 C57.093,151.3078 82.01,137.7448 107.911,127.3078 C111.447,125.8828 109.902,120.0768 106.316,121.5218 C89.178,128.4288 72.471,136.6498 56.545,146.1648 L56.5208889,140.476217 C56.4975556,130.894967 56.6478333,120.919967 58.312,112.1658 C59.144,106.0998 60.543,99.6208 62.697,94.7468 C65.36,79.8038 107.075,28.5118 177.911,18.7638 Z M92.6476,333.7464 C94.9076,331.5994 99.1266,334.1594 101.1386,334.0954 C106.2836,334.7994 111.1716,336.9724 114.9836,339.6544 C117.5006,341.0644 119.2646,342.3884 120.7386,343.6064 L120.7786,343.5954 C120.7676,343.5954 120.7536,343.6064 120.7416,343.6094 L120.88034,343.703149 C123.026611,345.228067 130.883488,353.817299 125.9196,351.5074 C125.5496,351.0264 125.1706,350.5644 124.7886,350.1114 C124.7476,350.1734 124.6906,350.2344 124.6226,350.2934 L124.901425,350.707187 C129.120418,357.053674 121.836253,350.3674 120.7156,348.5914 C120.6626,348.6344 120.6026,348.6634 120.5436,348.6944 L122.003034,350.47064 C122.207069,350.722822 122.367475,350.92415 122.5006,351.0944 L122.80835,351.391495 C127.686358,356.186188 127.838752,360.501238 122.1716,353.4124 C122.3946,353.7464 122.5736,354.1004 122.5986,354.4144 L122.934448,354.842528 C127.384087,360.576307 123.764834,358.540007 121.553741,356.09113 L121.368713,355.880491 L121.406573,355.937683 C123.463553,359.106476 119.382226,356.883081 118.661034,355.188062 L118.6306,355.1114 C117.844733,354.4702 117.361142,353.7506 117.195274,353.568882 L117.1646,353.5384 C113.3386,349.6184 107.7926,346.3014 103.0816,344.7944 C102.3986,344.6644 101.7076,344.5604 101.0096,344.4864 C98.1766,343.8544 95.3126,343.4214 92.4186,343.1874 C92.0646,343.1454 91.7056,342.8854 91.4376,342.5494 C87.0614308,342.401815 88.4122973,340.608057 90.2279363,340.274958 L90.2597134,340.269491 L89.8995111,340.239171 C87.0910681,339.965081 85.1730646,338.957417 88.0127603,338.338948 L88.3726,338.2674 C88.3286,338.1984 88.2896,338.1294 88.2516,338.0604 C85.8196,337.7934 87.4066,335.4294 88.7566,336.0014 C88.1886,334.1444 90.7846,335.0714 91.1086,334.7954 C91.3556,334.5214 91.6626,334.2794 91.8396,334.2664 C92.6216,333.7144 92.2426,333.7644 92.6476,333.7464 Z M107.528,303.6808 L106.958,304.0138 C106.497,304.2828 106.023,304.4618 105.547,304.5668 C106.219,304.8528 106.883,305.1618 107.54,305.4918 C107.529333,305.088467 107.521778,304.685578 107.521778,304.28343 L107.528,303.6808 Z" id="&#128397;-Ink" fill="#000000"/>
    </g>
</g>
        </g>
      </g>
    </g>
    <g transform="translate(325.1, 246.7) scale(1 1) translate(0, 0) scale(1 1) ">
      <g><!-- Generator: Sketch 62 (91390) - https://sketch.com -->
    <title>face/Loving Grin 2</title>
    <desc>Created with Sketch.</desc>
    <g id="face/Loving-Grin-2" stroke="none" stroke-width="1" fill="none" fill-rule="evenodd">
        <path d="M167.9366,192.8326 C176.4346,192.5446 184.9936,191.8846 193.4456,193.1236 C207.4876,195.1806 221.7086,205.1576 221.663813,220.6746 C221.5886,246.7046 192.2546,256.5556 171.3476,259.9506 L169.026212,260.3252 C143.853379,264.356201 113.84608,268.00118 91.2606,253.7286 C80.6176,247.0026 73.8696,235.6376 76.9856,222.8736 C79.9536,210.7106 90.2196,201.9746 101.7426,198.1996 C115.1856,193.7946 129.0956,196.0566 142.7746,197.8696 C143.7716,198.0026 144.7656,198.1276 145.7596,198.2556 C148.9416,197.2396 152.0696,195.8706 155.2596,194.9306 C159.4616,193.6916 163.5476,192.9806 167.9366,192.8326 Z M164.844896,226.1931 L151.656663,227.921328 L151.656663,227.921328 C146.719773,228.568558 141.781787,229.191816 136.844896,229.795668 C137.477072,236.521376 137.585539,243.321281 137.362032,250.1931 C146.257419,250.000187 155.201013,248.849557 163.932056,247.380448 C164.509451,240.331697 164.851286,233.273813 164.844896,226.1931 Z M125.844896,231.1931 C113.86176,232.498058 101.868505,233.664427 89.8448961,234.656728 C92.5542834,239.890975 99.4997584,243.21047 104.819601,245.087526 C110.902794,247.233999 117.180478,248.525653 123.550349,249.1931 C124.656588,243.263688 125.372721,237.24447 125.844896,231.1931 Z M212.8419,221.1931 C203.783266,222.678998 194.447563,223.325088 185.407621,224.463176 L174.844896,225.792779 L174.844896,225.792779 C175.928986,232.219562 176.7481,238.694774 177.265956,245.1931 L178.911506,244.870918 C186.320768,243.386194 193.764899,241.398766 200.312201,237.634834 L200.866263,237.308147 C206.10101,234.146375 213.009628,227.861612 212.8419,221.1931 Z M126.844896,211.1931 C120.919766,211.725643 114.659039,211.8295 108.950531,213.085728 C100.608882,214.920902 90.5724134,219.52044 88.9943241,228.911762 C88.736173,230.449729 88.8237199,231.872791 89.1705404,233.1931 C101.52139,230.851899 113.890198,228.701838 126.290432,226.700934 C126.587867,221.527973 126.739391,216.346174 126.844896,211.1931 Z M158.919623,208.1931 L150.803641,208.899984 L150.803641,208.899984 C144.822168,209.42204 138.832981,209.590655 132.844896,210.034889 C134.28737,214.715021 135.327626,219.435146 136.039497,224.1931 C140.960878,223.433254 145.885566,222.689621 150.816865,221.967605 L164.844896,219.915048 L164.844896,219.915048 L164.825959,216.372543 C164.809143,213.993846 164.777309,211.586646 164.690621,209.18425 L164.106579,209.136693 L164.106579,209.136693 C162.352248,208.942137 160.628773,208.600585 158.919623,208.1931 Z M208.844896,213.772288 C203.237051,208.737383 192.736117,209.084912 186.029401,209.290658 C181.002091,209.444167 175.90276,209.969725 170.844896,209.962263 C171.792086,213.000476 172.691262,216.057877 173.428935,219.1931 L184.237596,217.616427 L184.237596,217.616427 C192.364007,216.432057 200.613727,214.799951 208.844896,213.772288 Z M170.814304,144.367155 C178.365682,148.9572 189.871664,159.660291 181.748119,171.039573 C172.185929,181.073062 158.418535,169.568982 151.634201,164.366134 C145.343449,160.333898 138.275437,170.704507 144.112,175.412823 C193.135736,211.708059 213.030606,145.567387 174.633685,138.970386 C170.406047,138.243425 168.835891,142.947174 170.814304,144.367155 Z M244.785835,118.774001 C242.202576,135.655796 215.663649,159.196325 212.062317,159.196325 C208.460985,159.196325 177.625371,129.24444 177.625371,115.920887 C177.625371,102.597334 190.94622,84.7128809 212.062317,107.230782 C224.071147,92.1948429 247.369093,101.892207 244.785835,118.774001 Z M126.884,103.7684 C133.128,112.8854 130.751,124.2274 124.395,132.5394 C118.770429,139.897 99.8496345,156.361101 96.8867018,156.78525 C93.2344248,157.308079 76.517,138.4024 72.65,135.2294 C68.783,132.0564 58.0621266,121.858033 60.608,112.4114 C63.057,103.3234 76.1615358,87.9555018 95.2962581,103.7684 C101.379566,88.6863818 121.244,95.5334 126.884,103.7684 Z M64.7094,74.4155 C74.5104,63.4325 95.2674,51.8435 106.7074,66.6855 C109.6284,70.4775 106.5094,76.6745 102.2444,77.6545 C96.9624,78.8695 91.6264,78.1305 86.4404,79.6375 C81.6884,81.0185 77.1364,83.7855 73.0634,86.5435 C68.4184,89.6875 64.1404,93.1975 60.2094,97.1965 C57.8714,99.5755 54.9254,105.2115 51.3194,105.3165 C47.7344,105.4215 52.5464,94.2105 52.9444,93.2405 C55.7714,86.3355 59.7424,79.9815 64.7094,74.4155 Z M183.3277,47.5561 C188.97145,44.92585 194.477388,46.0961625 200.159036,47.6504359 L202.6057,48.3301 C208.6597,50.0131 215.1227,52.0811 220.3167,55.7101 L220.724563,55.9989329 C227.25785,60.6861748 237.247308,70.7440588 232.4787,79.4821 C232.1597,80.0651 231.4837,80.1231 230.9397,79.8851 C224.7957,77.1941 220.2407,71.8201 213.7057,69.5721 L212.50015,69.1615409 C206.171147,67.0297024 198.341185,64.7882515 191.5287,64.9921 C186.738954,66.5489889 180.269819,65.2594389 179.022929,59.4287798 L178.9667,59.1431 L178.8587,58.5391 C178.1407,54.5551 179.2087,49.4761 183.3277,47.5561 Z" id="&#128397;-Ink" fill="#000000"/>
    </g>
</g>
    </g>
  </g>
</svg>
