<?xml version="1.0" encoding="utf-8"?>
<!-- Generator: Adobe Illustrator 24.2.0, SVG Export Plug-In . SVG Version: 6.00 Build 0)  -->
<svg version="1.1" id="图层_1" xmlns="http://www.w3.org/2000/svg" xmlns:xlink="http://www.w3.org/1999/xlink" x="0px" y="0px"
	 viewBox="0 0 85 85" style="enable-background:new 0 0 85 85;" xml:space="preserve">
<style type="text/css">
	.st0{fill-rule:evenodd;clip-rule:evenodd;fill:#FFFFFF;}
	.st1{fill-rule:evenodd;clip-rule:evenodd;}
</style>
<g>
	<g transform="matrix(0.4441,0,0,0.39775,1.00977e-13,0)">
		<path class="st0" d="M65.8,94.1c0,0-2.7,4.2-8.6,7.1s-12.3,1.1-18.1,12.8s-1.9,46.5-0.5,48.1c1.3,1.6,2.4-0.6,2.8-0.9
			c0,0,1.4,2.2,2.5,7.1c1.1,4.9,4.1,8.7,8.4,8.5c4.3-0.3,9.6-5.1,10.6-7.6c0,0,13.2,1.6,16.9,3.5c3.7,1.9,9.7,11.8,84.4-2.4
			c0,0,2.1-1.3,4.4-7c2.4-5.7,9.3-48.7,9.1-52s-0.7-2.1-2.7-2.5s-38.3,0.7-49.9,5c0,0-0.6-6.5-7.2-8.7s-11.1-6.6-12.8-7.8
			c-1.8-1.2-0.7-0.2-5.2-2.5S96.3,93,96.3,93s0.2-3.4,0.1-3.8C96.3,89,84.8,80.1,80,81.9C75.2,83.7,66,93.9,65.8,94.1z"/>
	</g>
	<g transform="matrix(0.459452,0,0,0.4115,-358.655,797.556)">
		<path class="st1" d="M854.7-1856c0.1-0.1,0.2-0.2,0.1-0.2C854.7-1856.2,854.7-1856.1,854.7-1856
			C854.7-1856,854.6-1855.9,854.7-1856c-0.2,0.4-0.5,0.3-0.8,0.4c-0.1,0-0.1-0.2-0.2-0.1c-0.1,0,0.1-0.2-0.1-0.2
			c-0.1,0,0.2-0.2,0-0.1c-0.1,0,0.1-0.1,0.1-0.1s0,0,0.1,0c0.1,0.2,0.3,0.3,0.5,0.2c0.2-0.1,0.3-0.3,0.2-0.6c0.4-0.4,0-0.3,0.1-0.5
			c0.1-0.1-0.1,0-0.1-0.1c0-0.3-0.2-0.1-0.3-0.2c-0.2-0.2-0.7,0-1,0.7c-0.1,0.3-0.3,1.4-0.3,1.5l-0.7,3.1c-0.3,0.4-0.2,1,0.1,1.3
			s0.9,0.2,1.1-0.1c0.4-0.3,0.6-0.5,0.9-0.9c0.1-0.2,0.2-0.3,0.2-0.5c0.3-0.9,0.4-1.8,0.3-2.8C854.9-1855.2,854.7-1855.7,854.7-1856
			z"/>
		<path class="st1" d="M873.3-1849.3c-0.2,0.1-0.2,0.1-0.4,0.3c-0.1,0.1-0.1,0.2-0.1,0.3c-0.1,0.7,0,1.5,0.2,2.4
			c0.3,1.7,0.9,3.6,1.4,5.1c0.2,0.4,0.4,0.8,0.5,1.2c0.1,0.4,0.6,0.7,1,0.5s0.6-0.6,0.4-1.1c0-0.3-0.1-0.5-0.2-0.8
			c-0.5-2.1-1.6-5-1.8-6.9c0-0.2,0-0.4-0.1-0.5c-0.1-0.2-0.2-0.1-0.3-0.3c0-0.2-0.1-0.5-0.3-0.5
			C873.6-1849.7,873.4-1849.6,873.3-1849.3z"/>
		<path class="st1" d="M850.7-1854.3c-0.2,0.2-0.4,0.4-0.5,0.6c-1,1.9,0.1,4.3,2,6.5c3.4,4,9.7,8,11.6,10.8c0.3,0.4,0.7,0.4,1.1,0.2
			c0.3-0.3,0.4-0.8,0.1-1.2c-1.9-2.8-8.4-6.8-11.9-10.7c-1.4-1.5-2.3-3-2-4.5c0-0.2,0.1-0.4,0.2-0.7c0.1-0.2,0.1-0.3,0.1-0.5
			c0.1-0.2,0.1-0.5-0.1-0.6C851.1-1854.5,850.9-1854.5,850.7-1854.3z"/>
		<path class="st1" d="M855.3-1827.8c-1.1-2-2.5-7.1-2.7-7.6c-1.3-3.3-5-7.4-7.1-10.6c-0.6-1-1.1-1.8-1.2-2.6
			c-0.1-0.3,0.1-0.8,0.4-1.3c0.5-1.1,1.4-2.3,2.5-3.3c1.2-1.2,2.5-2.3,3.7-2.5c0.2,0,0.3,0,0.5-0.1c0.2,0,0.3-0.1,0.5-0.1
			c0.2,0.1,0.4,0,0.5-0.3c0.1-0.2,0-0.5-0.2-0.6c-0.2-0.2-0.4-0.3-0.7-0.4c-1.4-0.4-3.5,1.1-5.2,2.7c-1.2,1.2-2.2,2.6-2.8,3.7
			c-0.5,1-0.6,1.9-0.5,2.5c0.2,0.9,0.7,2,1.5,3.1c2,3.2,5.6,7.1,6.9,10.3c0.2,0.5,1.3,5,2.3,7.3c0.3,0.8,0.7,1.3,1,1.6
			c0.3,0.3,0.7,0.4,1,0.3c0.2,0,0.6-0.4,1.1-1.1c0.8-1.3,2.3-4.4,4-6.6c0.3-0.4,0.6-0.7,0.9-1c0.5-0.5,0.9-0.9,1.4-1.1
			c0.3-0.1,0.5-0.5,0.4-0.8s-0.4-0.6-0.7-0.5c-0.7,0.1-1.5,0.5-2.2,1.1c-0.4,0.3-0.7,0.7-1.1,1.1c-1.5,1.9-2.9,4.5-3.7,6.1
			C855.5-1828.2,855.4-1827.9,855.3-1827.8z"/>
		<path class="st1" d="M875.8-1829.1c-0.7-0.7-1.4-1.4-2.2-2c-0.5-0.4-1-0.7-1.5-0.9c-0.2-0.1-0.5-0.1-0.6,0.2
			c-0.1,0.2-0.1,0.5,0.1,0.7c0.4,0.4,0.8,0.8,1.2,1.2c1,0.9,2.1,1.9,3.1,2.7l0.6,1c0.1,0.3,0.4,0.4,0.7,0.3s0.4-0.4,0.4-0.7
			l-0.2-1.1c-0.3-1.1-0.5-2.1-0.5-3.1c0-0.6,0.1-1.2,0.3-1.9c0.5-1.5,2.8-3.6,3.9-5.3c0.5-0.7,0.8-1.4,0.8-2c0.1-1-0.3-1.9-0.8-2.7
			c-0.7-1-1.7-1.9-2.5-2.9c-0.2-0.3-0.4-0.5-0.6-0.8c-0.1-0.1-0.2-0.2-0.3-0.3c-0.1-0.2-0.3-0.4-0.5-0.3s-0.3,0.3-0.3,0.6
			c0,0.2,0,0.4,0.1,0.6c0.1,0.4,0.4,0.8,0.6,1.1c0.7,1,1.7,1.8,2.4,2.8c0.3,0.5,0.6,1.1,0.5,1.8c0,0.3-0.3,0.7-0.6,1.2
			c-1.2,1.8-3.6,4-4.1,5.6c-0.3,0.9-0.4,1.7-0.4,2.5C875.5-1830.3,875.7-1829.8,875.8-1829.1z"/>
		<path class="st1" d="M877.1-1841.8c-0.2,0-0.4-0.2-0.4-0.6c0.1,0.2,0.2,0.3,0.4,0.3c0.1,0,0.1,0,0.2,0c0-0.2,0.1-0.3,0.2-0.3l0,0
			c0,0.1-0.1,0.2-0.2,0.3C877.1-1842.1,877.1-1842,877.1-1841.8c0.4,0.1,0.7-0.4,0.3-0.6v-0.1c0-0.3-0.1-0.4-0.1-0.4
			c-0.1-0.2-0.5-0.4-0.7,0.2c-0.1,0.3-0.4,1.4-0.6,1.8c-0.2,0.4-0.4,0.9-0.6,1.3c-0.3,0.6-0.7,1.3-1,1.9c-1.2,2-2.3,3.6-3.3,5.4
			c-0.5,0.9-0.9,1.8-1.3,2.8c-0.1,0.4-0.2,0.8-0.4,1.3c-0.1,0.4,0.1,0.7,0.4,0.9c0.3,0.1,0.7-0.1,0.8-0.4c0.1-0.4,0.3-0.8,0.5-1.2
			c0.4-0.9,0.7-1.8,1.1-2.7c0.9-1.8,2-3.5,3.1-5.5c0.4-0.6,0.7-1.3,1-2c0.2-0.5,0.4-0.9,0.6-1.4C877-1840.8,877-1841.4,877.1-1841.8
			z"/>
		<path class="st1" d="M865.1-1835.1L865.1-1835.1c-0.1-0.3-0.3-0.4-0.5-0.3s-0.3,0.3-0.2,0.6l0,0c0.1,0.2,0.3,0.3,0.5,0.2
			C865.1-1834.6,865.2-1834.9,865.1-1835.1z"/>
		<path class="st1" d="M865-1835.4C865.1-1835.5,865.1-1835.5,865-1835.4c0-0.2,0-0.3,0-0.4c-0.1-0.2-0.3-0.3-0.5-0.2
			c0,0-0.2,0.2-0.2,0.6c0,0.5,0,1.6,0,1.7c-0.3,2.8,0,4.4,0.7,5.5c1,1.9,3,2.5,4.4,5.9c0.2,0.5,0.3,1,0.4,1.5c0.1,0.6,0.1,1.3,0.1,2
			c0,0.5,0,1,0.1,1.4c0.1,0.3,0.2,0.6,0.3,0.9c0,0.3,0.3,0.6,0.6,0.5c0.3,0,0.5-0.3,0.5-0.7c0-0.2,0.1-0.5,0.1-0.7c0.1-1,0-2-0.1-3
			s-0.3-1.9-0.7-2.7c-1.6-3.5-3.6-4-4.8-5.9c-0.6-0.9-0.9-2.3-0.8-4.7C865.2-1833.7,865-1834.9,865-1835.4z M865-1835.5L865-1835.5
			L865-1835.5c0,0.1-0.1,0.2-0.1,0.3l0.1-0.1l0,0C865-1835.4,865-1835.4,865-1835.5L865-1835.5L865-1835.5z"/>
		<path class="st1" d="M862.9-1829.1L862.9-1829.1C862.8-1829.1,862.8-1829.1,862.9-1829.1L862.9-1829.1L862.9-1829.1
			c0-0.1-0.1-0.2-0.1-0.3c-0.1-0.1-0.6-0.1-0.6,0.6c0,0.1,0,0.2,0,0.4c0,0.2,0.1,0.5,0.3,0.7c0.5,1.1,1.5,2.8,2.7,4
			c0.3,0.3,0.7,0.3,0.9,0c0.3-0.3,0.2-0.8,0-1c-0.8-0.9-1.4-2-2-2.8c-0.3-0.5-0.6-1-0.8-1.3C863.1-1828.9,862.9-1829,862.9-1829.1z
			 M862.8-1828.7c0,0.1-0.1,0.2-0.2,0.2C862.6-1828.6,862.7-1828.6,862.8-1828.7L862.8-1828.7z M862.8-1829L862.8-1829
			C862.8-1828.9,862.9-1828.9,862.8-1829z"/>
	</g>
	<g transform="matrix(0.471451,0,0,0.422247,-375.218,784.572)">
		<g transform="matrix(1.03107,-0.330832,0.24138,0.752286,-350.99,733.13)">
			<path class="st1" d="M1766.9-2547.6c-0.2-0.2-0.8,0.3-1.1,0.5c-3.3,2.7-7.7,2.4-11.8,2.5c-1.9,0-3.7,0-5.4,0.4
				c-1.6,0.4-3.2,1.2-4.5,2.5c-4.9,4.9-8,11.5-10.1,18.9c-2.2,7.6-3.3,16-4.2,23.8c-0.3,2.8-0.7,5.5-0.9,8.1c-0.1,0.7-0.1,1.4-0.1,2
				c-0.1,0.8,0.2,1.5,0.7,1.7c0.5,0.1,1-0.4,1.2-1.2c0.2-0.7,0.4-1.3,0.5-2c0.5-2.6,0.9-5.3,1.3-8.1c1-7.5,2-15.6,4-23
				c1.8-6.8,4.5-13,8.8-17.6c1.6-1.9,3.6-2.8,5.7-3.3c1-0.2,2-0.4,3-0.5c4.4-0.4,8.9,0,12.3-2.9c0.4-0.3,1.2-0.4,1.4-0.7
				c0.2-0.3,0.2-0.5,0.2-0.9c-0.1-0.4-0.3-0.6-0.6-0.5C1767.1-2547.8,1767-2547.7,1766.9-2547.6z"/>
		</g>
		<path class="st1" d="M833.2-1705.6c-0.1,0-0.2,0.1-0.3,0.1s-0.2,0-0.3,0s-0.2-0.1-0.2-0.2l0.1-0.1l0.1-0.1c0-0.2,0.1-0.3,0.2-0.5
			c0.4-0.9,1.3-2,2.3-3.1c1.7-1.8,3.7-3.5,4.2-3.8s0.7-1.1,0.4-1.7s-1-0.8-1.5-0.5c-0.9,0.5-5.5,4.6-6.9,7.5
			c-0.8,1.6-0.7,2.9,0.2,3.6c0.3,0.1,0.6,0.3,0.9,0.2c0.3-0.1,0.5-0.3,0.8-0.6c0.1-0.1,0.2-0.1,0.2-0.1c0.2-0.1,0.3-0.4,0.2-0.6
			C833.7-1705.6,833.5-1705.7,833.2-1705.6z"/>
		<g transform="matrix(0.941984,5.22906e-17,-5.22906e-17,0.941984,793.618,-1856.81)">
			<path class="st0" d="M73.6,99.1c0,0-2.6-4.2-3.4-5.8c0,0-9.8-5.3-8.8-7.6c1-2.3,5-0.1,4.9-0.1c0,0-4.4-9.5,2.2-11.7
				c0,0,1.1-3.7,4.4-3.9c0,0,1.2-0.4,2.8,2.3c1.5,2.7,5,7.3,7.8,13.1c2.8,5.7,0.7,11.8,0.2,15.8s-5.9,19.2-5.6,21.4l-13-7.4
				C65.1,115.2,72.1,101.8,73.6,99.1z"/>
		</g>
		<g transform="matrix(0.952186,-0.30552,0.30552,0.952186,-345.234,388.974)">
			<path class="st1" d="M1763.6-1635c0.4,1.6,0.1,3.3-0.1,5.2c-0.2,1.8-0.4,3.7-0.1,5.6c0.3,2.1,1.2,4.3,3.4,6.2
				c2.3,2,5.2,2.1,8.1,1c4.1-1.5,8.2-5.3,10.1-8.2c5.7-8.6,14.6-22.4,22.3-34.6c1.3-2,2.6-4,3.8-6c2-3.3,3.9-6.4,5.5-9
				c0.1-0.2,0.1-0.5-0.1-0.7c-0.2-0.1-0.5-0.1-0.6,0.1c-1.9,2.9-4.2,6.1-6.6,9.8c-8.5,13.1-18.9,29.8-25.4,39.7
				c-1.8,2.7-5.6,6.3-9.5,7.7c-2.5,0.9-5.1,1-7.1-0.8c-2-1.7-2.8-3.6-3.1-5.5c-0.3-1.8-0.1-3.6,0.1-5.2c0.2-2,0.3-3.9-0.3-5.5
				c-0.1-0.2-0.2-0.3-0.4-0.2C1763.7-1635.4,1763.6-1635.2,1763.6-1635z"/>
		</g>
		<g transform="matrix(0.952186,-0.30552,0.30552,0.952186,-337.719,378.829)">
			<path class="st1" d="M1761.5-1629.9C1761.5-1629.9,1761.4-1629.8,1761.5-1629.9c-0.1,0.3,0.3,0.9,0.6,0.2
				c0.1-0.1,0.2-0.4,0.4-0.8c0.9-1.8,2.7-6.1,4.3-7.9c1.1-1.2,2.2-2.5,3.3-3.9c1.6-2,3.3-4,4.8-6c2.2-2.8,4.4-5.4,6.6-7.8
				c4.3-4.7,8.7-8.7,13.3-13.5c1.1-1.1,2.1-2.3,3.2-3.5c0.2-0.2,0.2-0.4,0-0.6s-0.4-0.2-0.5,0c-1.5,1.5-2.9,2.9-4.3,4.3
				c-3.5,3.4-6.8,6.7-10,10.1c-3,3.1-5.9,6.4-9,10.3c-1.5,2-3.2,4-4.8,6c-1.1,1.4-2.2,2.7-3.3,3.9c-1.3,1.4-2.7,4.2-3.6,6.4
				c-0.5,1.2-0.9,2.1-1.1,2.6C1761.5-1630,1761.5-1629.9,1761.5-1629.9z M1762.1-1629.8c0-0.1-0.1-0.2-0.2-0.3l0,0
				C1761.9-1630.1,1762-1630,1762.1-1629.8z"/>
		</g>
		<g transform="matrix(0.432594,-0.683942,0.708613,0.396277,-244.097,1622.53)">
			<path class="st1" d="M4326.6-1078.7L4326.6-1078.7C4326.7-1078.7,4326.7-1078.7,4326.6-1078.7L4326.6-1078.7L4326.6-1078.7
				C4326.6-1078.8,4326.6-1078.7,4326.6-1078.7S4326.6-1078.7,4326.6-1078.7v-0.2l0,0l0,0c0.1-0.1,0.3-0.4,0.4-0.6
				c0.3-0.6,0.9-1.4,1.4-2.3c1.3-2.3,2.7-5,3-5.5c1.6-3.3,3.7-6.3,6-8.5c0.5-0.5,1-1,1.5-1.4c0.3-0.2,0.5-0.3,0.8-0.4
				c1.3-0.9,2.5-1.6,3.7-2.1c1-0.4,1.9-0.7,2.9-0.7c0.2,0,0.4-0.1,0.4-0.3c0-0.2-0.1-0.3-0.3-0.4c-1.1-0.2-2.3-0.1-3.5,0.3
				c-1.3,0.4-2.6,1.1-3.9,2.1c-0.3,0.2-0.5,0.5-0.8,0.8c-2.9,2.6-5.9,6-8,10.3c-0.2,0.4-1.5,2.7-2.6,4.8c-0.4,0.8-0.7,1.5-1,2.1
				c-0.4,0.8-0.6,1.4-0.7,1.7c-0.2,0.4,0.1,0.6,0.1,0.7c0.2,0.1,0.5,0,0.6-0.2C4326.5-1078.6,4326.6-1078.6,4326.6-1078.7z"/>
		</g>
		<g transform="matrix(0.68219,-0.566899,0.602894,0.641461,-360.985,1192.16)">
			<path class="st1" d="M3300.6-1709.1c0,0,0,0.1,0,0.2c0.1-0.7,0.4-1.4,0.8-2.1c0.6-1.1,1.4-2.3,1.9-3.3c0.7-1.4,1.7-2.8,2.9-4
				s2.5-2.3,3.9-2.9c0.2-0.1,0.4-0.2,0.6-0.2c0.5-0.1,1.1-0.2,1.6-0.4c0.2,0,0.3-0.2,0.3-0.4c0-0.2-0.2-0.3-0.3-0.2
				c-0.5,0.1-1.1,0.1-1.6,0.2c-0.3,0-0.5,0.1-0.8,0.2c-1.6,0.6-3.2,1.6-4.5,2.9s-2.4,2.8-3.3,4.3c-0.6,1.2-1.6,2.6-2.1,4
				c-0.3,0.7-0.4,1.4-0.4,2c0,0.3,0.1,0.4,0.2,0.4c0.1,0,0.8,0.2,0.9-0.4C3300.6-1708.9,3300.6-1709,3300.6-1709.1z M3299.7-1709.1
				L3299.7-1709.1C3299.7-1709,3299.6-1709,3299.7-1709.1C3299.6-1708.9,3299.6-1709,3299.7-1709.1z"/>
		</g>
		<g transform="matrix(0.465376,-0.735772,0.78249,0.437591,-383.956,1637.56)">
			<path class="st1" d="M4128.4-860.8c0.7-0.7,1.2-1.5,1.7-2.1c1.5-1.9,2.6-3.4,4.3-4.3c1-0.5,2.1-0.7,3.7-0.9
				c0.5,0,1.1-0.1,1.7-0.1c0.4,0,0.8-0.3,0.8-0.7c0.1-0.4-0.2-0.7-0.6-0.7c-0.7,0-1.3,0-1.8,0c-1.9,0.2-3.3,0.7-4.4,1.4
				c-1.8,1.1-2.8,2.8-4.4,4.9c-0.5,0.7-1,1.3-1.7,2.1c-0.1,0.2-0.1,0.4,0,0.5C4128-860.6,4128.2-860.7,4128.4-860.8z"/>
		</g>
		<g transform="matrix(0.465376,-0.735772,0.78249,0.437591,-381.561,1638.95)">
			<path class="st1" d="M4121-847.1c0.1,0.1,0.3,0.2,0.5,0.2c0.1,0,0.3,0,0.5-0.1c0.6-0.1,1.4-0.4,2.4-0.8c0.3-0.1,0.6-0.3,0.9-0.5
				c3.2-1.8,7.2-4.8,8-5.7s1.3-1.6,1.7-2.3c1-1.7,1.2-3.1,2.6-5.3c0.9-1.5,3-3.5,4.1-5.1c0.4-0.6,0.7-1.2,0.8-1.7
				c0.1-0.7,0.1-1.2,0.1-1.6c0-0.3-0.1-0.4-0.3-0.6c-0.2-0.1-0.4-0.1-0.6,0.1c-0.2,0.2-0.2,0.4,0,0.6l-0.3,1.5
				c-0.1,0.3-0.4,0.7-0.7,1.1c-1.2,1.5-3.4,3.5-4.5,4.9c-1.5,2.3-1.7,3.7-2.8,5.4c-0.4,0.6-0.8,1.2-1.5,1.9
				c-0.5,0.5-2.2,1.8-4.1,3.1c-1.3,0.9-2.8,1.8-4,2.5c-0.9,0.5-1.6,0.9-2.1,1.2c-0.2,0.1-0.2,0.2-0.4,0.2c-0.2-0.1-0.5,0.1-0.6,0.3
				C4120.7-847.4,4120.8-847.1,4121-847.1z"/>
		</g>
		<g transform="matrix(0.465376,-0.735772,0.78249,0.437591,-383.956,1637.56)">
			<path class="st1" d="M4118.5-860.6c-0.1-0.1,0-0.5,0-0.9c0.1-0.7,0.3-1.5,0.3-1.8l0.3-2.4l0.2-1.9c0.3-2.5,0.8-3.9,1.4-4.4
				c0.3-0.2,0.5-0.1,0.8,0.2c0.5,0.5,1,1.4,1.4,2.7c0.1,0.2,0.3,0.3,0.6,0.2c0.2-0.1,0.4-0.3,0.3-0.6c-0.6-1.9-1.4-3-2.1-3.3
				c-0.5-0.2-1-0.2-1.5,0.2c-0.8,0.6-1.5,2.2-1.8,5l-0.2,1.9l-0.3,2.4c0,0.3-0.4,1.6-0.4,2.3c0,0.4,0,0.6,0.2,0.8
				c0.1,0.1,0.4,0.2,0.5,0C4118.5-860.2,4118.6-860.4,4118.5-860.6z"/>
		</g>
		<g transform="matrix(0.68219,-0.566899,0.602894,0.641461,-360.985,1192.16)">
			<path class="st1" d="M3313.7-1716.6c-0.1,0-0.2,0.1-0.3,0.2l-0.6,0.7l-1.5,1.9c-0.7,1-1.3,2.2-1.9,3.4c-0.6,1.2-1,2.4-1.3,3.6
				c-0.1,0.2,0,0.4,0.2,0.4s0.4-0.1,0.4-0.3c0.3-1.1,0.8-2.3,1.3-3.4c0.6-1.1,1.2-2.2,1.8-3.2l1.5-1.8l0.5-0.6
				c0.1-0.1,0.2-0.1,0.3-0.1c0.1-0.1,0.2-0.2,0.2-0.3c0-0.1,0-0.3-0.1-0.4C3314.1-1716.9,3313.9-1716.8,3313.7-1716.6L3313.7-1716.6
				z M3313.7-1716.1L3313.7-1716.1L3313.7-1716.1L3313.7-1716.1z M3313.7-1716.2L3313.7-1716.2L3313.7-1716.2L3313.7-1716.2z"/>
		</g>
	</g>
	<g transform="matrix(0.459452,0,0,0.4115,-358.655,797.556)">
		<path class="st1" d="M829.9-1828.2c-0.1,0.1-0.2,0.3-0.2,0.6c-0.1,0.6,0.1,2,0.4,3.7c0.7,4.1,2,10.4,2.7,13.9
			c0.1,0.6,0.2,1.1,0.3,1.5c0,0.4,0.4,0.7,0.7,0.7c0.4,0,0.6-0.4,0.6-0.8c0-0.3,0-0.8-0.1-1.2c-0.1-0.8-0.3-1.7-0.5-2.7
			c-0.8-3.8-2.1-9-2.8-12.3c-0.2-1-0.4-1.9-0.4-2.4c0-0.1,0-0.2,0-0.3c0-0.1-0.1,0-0.1-0.1c0.1-0.2,0.1-0.4-0.1-0.5
			S830-1828.3,829.9-1828.2z"/>
	</g>
	<g transform="matrix(0.494372,0,0,0.442776,-385.076,733.398)">
		<g transform="matrix(1.11646,0,0,1.10522,-230.379,-137.527)">
			<path class="st1" d="M996.4-1278.3c0.1-0.1,0.5-0.2,0.9-0.3c1.2-0.4,3.2-0.9,5.1-1.4c2-0.5,3.8-0.9,4.2-1
				c6-1.2,12.2-2.4,18.3-3.2c4.1-0.5,8.2-0.8,12.3-0.7c0.9,0,3.4-0.3,5.6-0.2c0.9,0,1.8,0.1,2.4,0.3c0.2,0.1,0.4,0.1,0.5,0.3
				c0.2,0.4,0.1,1.2,0.1,2c-0.1,1.5-0.5,3.2-0.6,3.8c-1,5.2-1.8,10.4-2.7,15.7c-0.2,1.3-0.5,2.6-0.7,3.9c-0.8,3.8-1.3,10.8-2.9,16.2
				c-0.7,2.4-1.6,4.5-2.9,5.7c-0.8,0.8-2.8,1.4-5.1,1.8c-4.7,1-11,1.3-13.3,1.6c-6.8,0.8-13.9,2-20.9,2.7c-3,0.3-6,0.5-8.9,0.6
				c-4,0-8-0.4-11.7-1.2c-2.6-0.6-5.1-1.3-7.5-2.5c-0.3-0.2-0.7,0-0.8,0.3c-0.1,0.4,0,0.8,0.3,0.9c2.4,1.5,5,2.6,7.6,3.4
				c3.9,1.1,8,1.4,12.2,1.4c3,0,6-0.2,9.1-0.5c7-0.8,14.1-2.2,20.9-3.1c2.3-0.3,8.6-0.9,13.4-1.9c2.6-0.6,4.8-1.3,5.8-2.2
				c1.5-1.4,2.6-3.7,3.4-6.5c1.6-5.4,2.1-12.5,3-16.3c0.3-1.3,0.5-2.6,0.8-3.9c0.9-5.2,1.6-10.5,2.7-15.6c0.1-0.7,0.6-3,0.6-4.7
				c0-1.1-0.1-2-0.4-2.5c-0.4-0.7-1.7-1.1-3.2-1.2c-2.4-0.1-5.6,0.3-6.6,0.3c-4.1-0.1-8.3,0.1-12.5,0.6c-6.2,0.7-12.4,1.9-18.4,3
				c-0.7,0.1-4.6,1-7.5,1.8c-1.3,0.4-2.4,0.7-2.9,1c-0.3,0.2-0.5,0.3-0.6,0.5c-0.8,1.2-1.8,4.7-2.8,9.2c-1.6,7.2-3.3,16.7-4.2,21.4
				l-0.4,1.9c-0.4,2.1-0.9,4.2-1.3,6.4c-0.3,1.4-0.5,2.8-0.7,4.3c-0.2,1.1-0.2,1.5-0.3,2.1c0,0.1,0,0.1,0,0.2s0.1,0.1,0.1,0.2
				s0,0.1,0,0.2c0,0.2-0.1,0.4-0.2,0.7c-0.1,0.2,0,0.4,0.2,0.5s0.4-0.1,0.4-0.2c0.1-0.3,0.1-0.6,0.2-0.8c0.1-0.1,0.2-0.1,0.2-0.2
				s0-0.2,0.1-0.3c0.1-0.6,0.2-1,0.4-2.1c0.2-1.4,0.5-2.8,0.8-4.2c0.4-2.1,0.9-4.2,1.3-6.3l0.4-1.9c0.9-4.7,2.7-14.2,4.4-21.3
				C994.8-1273.9,995.7-1277.1,996.4-1278.3z"/>
		</g>
		<g transform="matrix(1.11646,0,0,1.10522,-230.379,-137.527)">
			<path class="st1" d="M1020-1264.6C1019.9-1264.6,1019.9-1264.5,1020-1264.6h-0.2v0.1c0,0.2,0.1,0.4,0.1,0.4
				c0.1,0.4,0.1,0.9,0.1,1.3c0,0.3-0.1,0.5-0.2,0.7c-0.1,0.2-0.2,0.3-0.4,0.5c-0.3,0.3-0.8,0.5-1.2,0.8c-0.5,0.3-1.1,0.7-1.4,1.2
				c-0.4,0.6-0.4,1.2-0.2,1.7s0.6,0.9,1.3,0.9l1-0.2c0.2,0,0.3-0.2,0.3-0.4c0-0.2-0.2-0.4-0.4-0.3l-0.8-0.1c-0.2,0-0.4-0.1-0.4-0.3
				c-0.1-0.2,0-0.4,0.1-0.6c0.2-0.4,0.6-0.6,1-0.8c0.5-0.3,1-0.5,1.4-0.9c0.2-0.2,0.5-0.5,0.6-0.8c0.2-0.4,0.3-0.8,0.3-1.2
				c0-0.6-0.1-1.2-0.2-1.7c0,0-0.1-0.5-0.3-0.7c-0.3-0.3-0.5-0.4-0.7-0.2c-0.1,0.1-0.2,0.3-0.1,0.4
				C1019.8-1264.7,1019.9-1264.6,1020-1264.6z"/>
		</g>
		<g transform="matrix(1.11646,0,0,1.10522,-230.379,-137.527)">
			<path class="st1" d="M1017.2-1257.7l-0.7,0.2c-0.3,0.2-0.6,0.4-0.8,0.7c-0.2,0.3-0.3,0.6-0.4,1c-0.2,1.1,0.1,2,0.6,2.7
				s1.3,1.1,2.2,1.2c1.1,0.2,2.4,0.1,3.6-0.2c1.2-0.3,2.4-0.8,3.4-1.6c0.6-0.5,1.3-1.8,1.4-2.9c0.1-0.8-0.1-1.6-0.8-1.9
				c-0.1-0.1-0.3-0.1-0.5-0.1c-0.3-0.1-0.5,0.1-0.6,0.5c0,0.3,0.1,0.6,0.4,0.6c0.1,0,0.1,0.1,0.2,0.2c0.3,0.2,0.2,0.6,0.1,1
				c-0.2,0.7-0.5,1.3-0.9,1.6c-0.8,0.7-1.9,1.1-3,1.4s-2.3,0.3-3.3,0.2c-0.6-0.1-1.2-0.3-1.5-0.8c-0.4-0.4-0.6-1-0.5-1.7
				c0-0.2,0.1-0.4,0.2-0.6c0.1-0.2,0.2-0.4,0.4-0.5c0.1-0.1,0.4-0.2,0.6-0.3c0.1-0.1,0.2-0.2,0.2-0.3c0.1-0.1,0-0.3-0.1-0.4
				C1017.5-1257.9,1017.3-1257.8,1017.2-1257.7z"/>
		</g>
		<g transform="matrix(1.11646,0,0,1.10522,-230.379,-137.527)">
			<path class="st1" d="M1020.8-1264.8C1020.8-1264.9,1020.7-1264.9,1020.8-1264.8c-0.2-0.2-0.4-0.2-0.5-0.2
				c-0.1,0.1-0.2,0.3-0.1,0.4l0.1,0.4l0.5,1.2c0.3,0.7,0.6,1.3,0.8,2c0.1,0.4,0,0.8-0.1,1.2c0,0.2-0.1,0.4-0.1,0.6
				c-0.1,0.2-0.1,0.4,0.1,0.6c0.2,0.1,0.4,0.1,0.5-0.1c0.2-0.2,0.3-0.3,0.4-0.5c0.3-0.5,0.3-1,0.3-1.6c-0.1-0.9-0.6-1.8-1.1-2.7
				l-0.6-1.1L1020.8-1264.8L1020.8-1264.8z M1020.3-1264.6C1020.3-1264.6,1020.3-1264.5,1020.3-1264.6
				C1020.3-1264.5,1020.3-1264.5,1020.3-1264.6C1020.3-1264.5,1020.3-1264.5,1020.3-1264.6z M1020.4-1264.8L1020.4-1264.8
				C1020.4-1264.7,1020.4-1264.7,1020.4-1264.8z"/>
		</g>
		<g transform="matrix(1.11646,0,0,1.10522,-230.379,-137.527)">
			<path class="st1" d="M1022.2-1260.3c-0.1,0-0.2,0.1-0.3,0.2c-0.1,0.3,0.1,0.4,0.2,0.4c0.1,0,0.5-0.1,0.5-0.1l0,0l0.7,0.2
				c0.2,0.1,0.3,0.3,0.4,0.6c0.1,0.3,0.2,0.7,0.3,0.9c0.1,0.3-0.1,0.6-0.4,0.9c-0.3,0.3-0.7,0.6-1.1,0.8c-0.1,0.1-0.2,0.1-0.3,0.2
				s-0.1,0.1-0.2,0.2c-0.2,0-0.3,0.2-0.3,0.4s0.2,0.4,0.3,0.4c0.1,0.1,0.2,0.1,0.3,0.1c0.2,0,0.3,0,0.5-0.1c0.5-0.1,1.1-0.5,1.6-1
				c0.5-0.6,0.8-1.3,0.7-2.1c-0.1-0.4-0.3-1-0.6-1.4c-0.2-0.4-0.5-0.7-0.8-0.8c-0.2,0-0.3-0.1-0.5-0.1s-0.3,0-0.5,0
				C1022.5-1260.6,1022.3-1260.4,1022.2-1260.3z"/>
		</g>
		<path class="st1" d="M849.1-1505.7c-0.5-1,0.3-1.5,1.5-2c1.1-0.4,2.5-0.7,3.8-1c1.7-0.3,3.3-0.6,4-0.7c2.3-0.6,3.8-0.9,5-1.1
			c2-0.3,3.3-0.1,6.9-0.6c0.3,0,0.5-0.1,0.8-0.2c0.3,0,0.5-0.3,0.5-0.7s-0.3-0.6-0.6-0.6c-0.5,0-0.9,0-1.3,0c-2.5,0-3.8,0.2-5.2,0.3
			c-1.6,0.2-3.2,0.5-6.4,1.2c-0.6,0.2-2.2,0.4-3.9,0.8c-1.4,0.4-2.8,0.8-3.9,1.4c-1.7,0.9-2.6,2.1-1.6,3.5c0.1,0.2,0.3,0.2,0.4,0.1
			C849.1-1505.3,849.2-1505.5,849.1-1505.7z"/>
		<path class="st1" d="M854.3-1504.3C854.3-1504.2,854.2-1504.2,854.3-1504.3C854.2-1504.2,854.3-1504.2,854.3-1504.3
			c0.2,0.2,0.3,0.3,0.5,0.5c0.9,0.7,2.5,1.9,2.9,2.1c1.5,0.7,3,1.3,4.6,1.7c0.8,0.2,1.6,0.4,2.4,0.5s1.6,0.2,2.4,0.3
			c0.3,0,0.6-0.2,0.7-0.6c0-0.4-0.2-0.7-0.5-0.7c-0.7-0.2-1.5-0.4-2.2-0.5c-1.1-0.2-2.2-0.5-3.3-0.8c-1.2-0.3-2.4-0.7-3.5-1.2
			c-0.4-0.1-1.9-1.3-2.9-1.7c-0.6-0.2-1-0.3-1.1-0.2c-0.2,0.1-0.2,0.3-0.2,0.4C854-1504.3,854.1-1504.2,854.3-1504.3z"/>
		<path class="st1" d="M854.6-1505.9c0.1,0.1,0.3,0.3,0.7,0.3c0.1,0,0.2,0,0.4-0.1c1.1-0.2,2.9-0.9,3.2-0.9c3-0.7,6-1,9-1.5
			c0.5-0.1,1.1-0.2,1.6-0.4c0.2-0.1,0.4-0.2,0.7-0.3c0.2-0.1,0.4-0.3,0.3-0.6c-0.1-0.3-0.3-0.4-0.6-0.4s-0.6,0.1-0.9,0.1
			c-2.7,0.5-5.4,0.9-8.1,1.4c-0.8,0.1-1.5,0.3-2.3,0.5c-0.2,0-1,0.3-1.8,0.6c-0.6,0.2-1.3,0.4-1.7,0.6c-0.1,0-0.2,0.1-0.2,0.1v0.1
			c-0.1-0.1-0.3-0.1-0.4,0.1C854.5-1506.2,854.5-1506,854.6-1505.9z"/>
		<path class="st1" d="M858.5-1503.2c1.2-0.6,2.4-0.9,3.7-1.2c1.9-0.5,3.8-0.8,5.7-1.3c0.7-0.2,1.3-0.3,1.9-0.6
			c0.2-0.1,0.3-0.2,0.4-0.3c0.2-0.1,0.3-0.3,0.2-0.5s-0.3-0.3-0.5-0.2c-0.1,0-0.2,0-0.4,0s-0.3,0.1-0.5,0.2c-2.4,0.9-5,1.1-7.5,1.9
			c-1.2,0.4-2.4,0.9-3.5,1.6c-0.1,0.1-0.2,0.3-0.1,0.5C858.1-1503.1,858.3-1503.1,858.5-1503.2z"/>
		<path class="st1" d="M865.2-1501.4c1.2-0.7,2.7-0.6,4.1-0.9c0.2-0.1,0.4-0.1,0.5-0.2c0.2-0.1,0.3-0.2,0.5-0.4
			c0.2-0.1,0.3-0.4,0.2-0.7c-0.1-0.3-0.4-0.4-0.6-0.3c-0.2,0-0.3,0-0.5,0.1c-0.2,0-0.3,0.1-0.5,0.2c-0.8,0.3-1.7,0.5-2.5,0.8
			c-0.5,0.2-1.1,0.5-1.5,0.8c-0.1,0.1-0.2,0.3-0.1,0.5C864.9-1501.3,865.1-1501.3,865.2-1501.4z"/>
	</g>
	<g transform="matrix(0.4441,0,0,0.39775,-334.346,814.168)">
		<path class="st1" d="M857.7-1949C857.6-1949,857.7-1949,857.7-1949c0.2,0.4,0.5,1,0.7,1.2c0.8,0.7,1.6,1.3,2.5,1.9
			s1.7,1.1,2.6,1.6c5.3,2.9,7,3,8.4,4.1c1.2,0.9,1.7,2.7,4.8,7c0.2,0.3,0.4,0.5,0.7,0.8c0.3,0.5,1,0.7,1.5,0.3
			c0.5-0.4,0.6-1.1,0.3-1.7c-0.1-0.3-0.3-0.7-0.4-1c-2.8-5.3-4.3-6.6-5.6-7.6c-1.5-1-3.3-1.1-8.8-3.8c-0.9-0.4-1.8-0.9-2.6-1.4
			s-1.7-1-2.6-1.6c-0.1-0.1-0.3-0.4-0.4-0.6c-0.3-0.3-0.6-0.5-0.8-0.5c-0.2,0.1-0.4,0-0.5,0.4C857.3-1949.5,857.4-1949.2,857.7-1949
			C857.6-1949.1,857.6-1949,857.7-1949z"/>
	</g>
</g>
<g transform="matrix(0.4441,0,0,0.39775,0,0)">
	<path class="st0" d="M59,63.4l-6.1,4.4c0,0-3,14.4-16.8,12.8s-12.8-13.3-14-19.2c-1.2-5.8,7.5-19.9,16.9-17.7
		c9.4,2.2,12.7,4,12.7,16.8C51.7,61.7,58.9,63.6,59,63.4z"/>
</g>
<g transform="matrix(0.4441,0,0,0.39775,0,0)">
	<path class="st0" d="M125.6,78.1c0,0,9.3-7.2,9.2-7.2s-2.2-12.7,8.7-13.1c10.9-0.5,18.2,4.2,18.5,15s-7.6,20.2-17.4,18.9
		c-9.8-1.3-9.4-10.1-10.2-11.4L125.6,78.1z"/>
</g>
<g transform="matrix(0.4441,0,0,0.39775,0,0)">
	<path class="st0" d="M135.5,47.2l4.2-4.6c0,0,14.1,8.4,18.8-3.6s-1.6-18.9-4.3-21.4c-2.7-2.6-18.3-7.5-23.8,2.4
		c-5.6,9.9,0.9,20.8,4.5,20.3L135.5,47.2z"/>
</g>
<g transform="matrix(0.384296,0,0,0.344188,47.4421,1097.91)">
	<path class="st1" d="M20.9-3099.4c0.2,0,0.4,0.1,0.7,0l0.1-0.1c0.4-0.3,1-0.6,1.6-0.9c1.1-0.7,2.3-1.5,3.6-2.4c2-1.4,4-2.9,5.3-3.9
		c0.3-0.2,0.4-0.6,0.2-1c-0.2-0.3-0.6-0.4-0.9-0.2c-1.3,0.8-3.5,2-5.6,3.3c-1.3,0.8-2.6,1.7-3.6,2.4c-0.6,0.5-1.1,0.9-1.5,1.3
		l-0.1,0.1c-0.2,0.3-0.2,0.6-0.3,0.8c-0.2,0.1-0.2,0.4,0,0.6C20.5-3099.3,20.8-3099.3,20.9-3099.4z"/>
</g>
<g transform="matrix(0.384296,0,0,0.344188,47.4421,1097.91)">
	<path class="st1" d="M21.7-3098.6L21.7-3098.6c0,0,0,0.2,0.2,0.2c0.8,0.3,2.9,0.7,3,0.7c2.1,0.4,4.1,0.8,6.2,1
		c0.9,0.1,1.8,0.1,2.7,0.1c0.5,0,0.9-0.3,0.9-0.8s-0.3-0.9-0.7-1c-0.6-0.1-1.1-0.3-1.7-0.4c-2.3-0.4-4.6-0.7-6.9-1.2
		c-0.1,0-2.3-0.6-3.2-0.3c-0.5,0.1-0.7,0.2-0.7,0.4c0,0.1-0.1,0.1-0.1,0.1c0,0.2-0.2,0.3-0.1,0.5c0,0,0,0.1,0,0.2
		c0.1,0.1,0,0.3,0.2,0.3c0.1,0,0.1,0,0.3,0C21.6-3098.7,21.6-3098.7,21.7-3098.6L21.7-3098.6z M22-3099.4L22-3099.4
		c0-0.1-0.1-0.2-0.1-0.2s-0.1,0.1,0,0.1C21.8-3099.4,21.9-3099.4,22-3099.4L22-3099.4z"/>
</g>
<g transform="matrix(0.384296,0,0,0.344188,47.4421,1097.91)">
	<path class="st1" d="M32.7-3108.2c-0.1,0-0.1-0.2-0.1-0.3c-0.1-0.3,0-0.6,0-1.1c0-1.1,0.2-2.7,0.7-4.3c0.6-2.1,1.5-4.3,2.5-5.2
		c3.8-3.3,9.7-3.8,15-2.2c2.6,0.8,5,2.1,7,3.8c2,1.8,3.6,4.1,4.2,6.8c1.4,6.4,0.4,12-2,16.3c-1.8,3.3-4.5,5.8-7.4,7.4
		c-6.2,3.4-13.7,2.6-17.6-4.3c-0.5-0.9-0.9-1.9-1.3-3c-0.2-0.7-0.5-1.4-0.7-2.1c-0.1-0.5-0.6-0.8-1-0.7c-0.5,0.1-0.7,0.6-0.6,1.1
		c0.1,0.9,0.3,1.7,0.5,2.4c0.4,1.3,0.9,2.4,1.4,3.4c4.3,7.9,13,8.9,20.2,5c3.2-1.8,6.1-4.6,8.2-8.2c2.7-4.7,3.9-10.9,2.5-18
		c-0.7-3.3-2.4-6.1-4.9-8.2c-2.2-1.9-4.9-3.4-7.8-4.2c-5.9-1.7-12.5-0.8-16.7,3c-1.5,1.3-2.8,4.6-3.3,7.7c-0.3,1.5-0.4,3-0.1,4
		c0.2,1,0.7,1.5,1.2,1.6c0.2,0.1,0.4-0.1,0.5-0.3C33-3107.9,32.9-3108.1,32.7-3108.2z"/>
</g>
<g transform="matrix(0.329474,0,0,0.295087,142.214,1107.04)">
	<path class="st1" d="M-249.7-3697c0.1-0.1,0.1-0.3,0-0.5c0-0.1-0.5-0.7-1.2,0.6c-0.1,0.1-0.1,0.2-0.1,0.4c-0.1,0.4-0.1,1-0.1,1.7
		c0,0.5,0,1.1,0,1.7c0,0.6,0,1.2,0.1,1.7c0.1,0.8,0.2,1.4,0.2,1.7c0,0.5,0.4,0.9,0.9,0.8s0.8-0.5,0.7-1c0-0.3,0.1-0.9,0.1-1.6
		c0-0.5,0-1.1,0-1.6c0-0.6,0-1.1,0-1.6c0-0.6-0.1-1.2-0.2-1.6c0-0.2-0.1-0.3-0.1-0.4C-249.5-3696.9-249.7-3696.9-249.7-3697
		c0,0.1-0.1,0.1-0.1,0.2C-249.5-3697.1-249.6-3697.1-249.7-3697z M-249.8-3696.9L-249.8-3696.9c0,0.1-0.1,0.1-0.2,0.1
		C-249.9-3696.9-249.9-3696.9-249.8-3696.9L-249.8-3696.9z M-250.3-3697C-250.3-3696.9-250.3-3696.9-250.3-3697L-250.3-3697
		L-250.3-3697L-250.3-3697z M-249.7-3697L-249.7-3697L-249.7-3697L-249.7-3697z"/>
</g>
<g transform="matrix(0.329474,0,0,0.295087,142.214,1107.04)">
	<path class="st1" d="M-243-3694.4c0.1,0,0.1,0.1,0.2,0.1c0.2,0,0.4-0.2,0.5-0.4c0.1-0.1,0-0.1,0-0.2c0,0,0,0,0-0.1
		c0.1-0.2-0.2-0.1-0.2-0.3s-0.2,0.1-0.3-0.1c-0.1-0.1-0.1-0.2-0.9,0c-0.4,0.1-0.8,0.7-1.2,1c-1.2,1.1-2.5,2.1-3.5,3.4
		c-0.7,0.8-1.3,1.8-1.9,2.7c-0.3,0.4-0.3,1,0.1,1.4c0.4,0.3,0.9,0.3,1.2-0.1l5.5-5.5c0.4-0.4,1-0.9,1.1-1.3c0.1-0.2-0.2-0.4-0.1-0.4
		c0.1,0-0.1-0.1-0.1-0.1c0,0.1-0.1-0.1-0.2,0c0,0,0,0-0.1,0C-243-3694.2-243-3694.3-243-3694.4z M-243.2-3694.6c0,0.1,0,0.1,0,0.1
		l0,0C-243.2-3694.5-243.2-3694.5-243.2-3694.6z M-243.2-3694.7C-243.3-3694.7-243.3-3694.7-243.2-3694.7L-243.2-3694.7
		L-243.2-3694.7z"/>
</g>
<g transform="matrix(0.329474,0,0,0.295087,142.214,1107.04)">
	<path class="st1" d="M-249.2-3697.7c-0.6-0.1-1.2-0.4-1.7-0.6c-2.2-0.9-3.8-2.8-4.9-5.5c-2-4.9-2.2-11.6-1.3-15.4
		c1.6-6.9,6.7-10.6,12.5-12c5.9-1.3,12.5-0.2,17.1,2.9c3.7,2.4,6.3,5.4,8.1,8.6c3.3,5.9,3.7,12.5,1.8,17.9c-2.6,7-9.2,11.4-18.5,9.1
		c-1.7-0.4-3.6-1-5.5-1.9c-0.5-0.3-1.1,0-1.3,0.6s0,1.2,0.5,1.5c2,1.1,3.9,1.9,5.8,2.4c10.7,3,18.2-2.8,21.2-10.8
		c2.3-6.1,2-13.7-1.8-20.4c-2-3.6-5-6.9-9.1-9.4c-5.1-3.2-12.3-4.4-18.7-2.8c-6.5,1.6-12.1,5.9-13.8,13.7
		c-0.9,4.2-0.7,11.5,1.6,16.7c1.3,3.1,3.3,5.8,6,6.3c0.7,0.1,1.4,0.1,2.1-0.1c0.2,0,0.4-0.2,0.4-0.5S-249-3697.7-249.2-3697.7z"/>
</g>
<g transform="matrix(0.329474,0,0,0.295087,142.214,1107.04)">
	<path class="st1" d="M-250.1-3708.5c0.1,1.4,0.7,2.7,2,3.6c0.9,0.6,2.1,0.8,3.6,0.6c0.4-0.1,0.8-0.2,1.2-0.3c0.7,1.2,1.9,2,3.6,2.4
		c2.4,0.6,5.6,0.4,8.7-0.3c3.8-0.9,7.4-2.6,9.2-4.5c1-1.1,1.5-2.2,1.4-3.3c-0.1-0.9-0.5-1.6-1.3-2c-0.4-0.2-0.9-0.3-1.6-0.4
		c0.3-1.1,0.1-2.2-0.5-3.3c-0.5-0.8-1.3-1.4-2.4-1.8c-1.5-0.6-3.6-0.8-5.7-0.7c-0.1,0-0.3,0-0.4,0c-0.5-0.5-1.2-0.7-2.1-0.5
		c-0.4,0.1-0.8,0.2-1.3,0.5c-0.1-0.2-0.3-0.5-0.4-0.7c-0.9-1.3-2.2-1.8-3.6-1.6c-0.2,0-0.5,0.1-0.8,0.1c-1-0.7-2.4-0.5-3.9,0.2
		c-1.2,0.6-2.5,1.5-3.6,2.7c-1.4,1.5-2.4,3.4-2.8,5.2C-251.2-3711.1-250.9-3709.7-250.1-3708.5z M-222.7-3710l-0.1-0.1
		c-0.2-0.1-0.4-0.1-0.6-0.1c-0.4,0-0.8,0-1.3,0c-2.3,2.8-7,5.1-8.9,5.3c-0.2,0-1,0-1.4-0.3s-0.7-0.8-0.6-1.4c0-0.6,0.3-1.3,1-2
		c-0.9,0.6-2,1.2-3,1.4c-0.2,0.1-0.4,0.1-0.6,0.1l-0.3,0.2c-0.1,0.1-0.3,0.2-0.4,0.3l-0.3,0.2c0.4,0,1,0.1,1.7,0
		c0.5,0,0.9,0.4,0.9,0.9s-0.3,1-0.8,1c-1.8,0.2-2.9,0-3.5-0.3c0.4,0.3,1,0.4,1.6,0.6c2.2,0.4,5.1,0.1,7.9-0.6
		c2.8-0.8,5.6-1.9,7.3-3.3C-223.3-3708.7-222.7-3709.3-222.7-3710z M-243.8-3706.8c-1,0.3-2,0.4-2.9,0.3c0.5,0.2,1.2,0.2,1.9,0.1
		c0.3,0,0.6-0.1,1-0.2V-3706.8L-243.8-3706.8z M-242.1-3707.4l-0.2,0.1l0,0v0.1h0.1l0.1-0.1L-242.1-3707.4L-242.1-3707.4z
		 M-237.6-3717.3c-0.1-0.2-0.2-0.3-0.3-0.4c-0.7-0.9-1.7-1-2.7-0.6c-1.6,0.5-3.3,1.8-4.7,3.5c-1.4,1.6-2.6,3.6-2.8,5.3v0.2
		c0.7,0.5,1.5,0.7,2.4,0.6c0.7,0,1.5-0.2,2.3-0.5c0.3-1.2,0.8-2.4,1.5-3.4c0.9-1.4,1.9-2.6,3.1-3.4
		C-238.5-3716.6-238-3717-237.6-3717.3z M-236.6-3711.4c-0.3,0.3-0.6,0.7-0.9,1l-0.5,0.6c0.6-0.5,1.3-1,1.8-1.6
		C-236.3-3711.3-236.5-3711.3-236.6-3711.4z M-225.8-3712.5c0.4-0.7,0.5-1.3,0-2c-0.2-0.4-0.7-0.7-1.3-0.9c-1.2-0.5-2.9-0.7-4.5-0.6
		c0,0.9-0.3,1.8-0.8,2.8l-0.1,0.1c0.3,0.1,0.5,0.2,0.6,0.4c0.4,0.4,0.5,1,0.2,1.6c-0.2,0.4-1,1-1.1,1.1c1.6-0.9,3.6-1.7,5.5-2.2
		C-226.7-3712.4-226.3-3712.5-225.8-3712.5z M-239.2-3712.4c-0.1,0.2-0.2,0.4-0.3,0.5c0.1-0.1,0.3-0.3,0.4-0.4
		C-239.1-3712.3-239.1-3712.3-239.2-3712.4z M-242.1-3720.2c-1.5,0-3.5,1.6-5,3.5c-0.9,1.1-1.6,2.4-1.9,3.7l0,0
		c0.6-1.2,1.4-2.4,2.3-3.5C-245.3-3718.1-243.7-3719.4-242.1-3720.2z M-233.4-3715.8c-0.3,0.1-0.6,0.1-0.9,0.2
		c0.1,0.4,0,0.9-0.2,1.4c-0.1,0.3-0.3,0.5-0.5,0.8h0.6c0.2-0.3,0.4-0.6,0.6-0.9C-233.6-3714.8-233.4-3715.3-233.4-3715.8z"/>
</g>
<g transform="matrix(0.384296,0,0,0.344188,47.4421,1097.91)">
	<path class="st1" d="M42.2-3109.8c-0.4,0.5-0.8,1-1.1,1.3c-0.5,0.6-2,1.4-2.2,1.8c-0.2,0.3-0.2,0.6-0.1,0.8
		c0.1,0.2,0.3,0.5,0.8,0.5c0.2,0,0.4,0,0.7-0.1c-1.3,1.9-2.1,4-2,5.6c0.4,3.5,2.9,4.3,5.8,3.6c0.1,0.6,0.2,1.2,0.5,1.8
		c1.2,2.1,3.4,1.8,5.6,0.3c0.4-0.2,0.8-0.5,1.3-0.9c1-0.9,1.9-2.1,2.6-3.3c0.2-0.4,0.4-0.8,0.5-1.2c0.2-0.4,0.4-0.8,0.5-1.2h0.2
		c2.7-0.7,4.6-2.2,4.9-4.3c0.1-0.5-0.1-0.9-0.4-1.2c-0.4-0.3-1.1-0.5-2.2-0.5c-0.2,0-0.5,0-0.7,0.1c0.2-0.6,0.2-1.3-0.1-1.9
		c-0.6-1.2-2-1.9-3.7-2.2c-2.5-0.5-5.9-0.3-8.7-0.3c0.2-0.6,0.3-1.3,0.3-2c-0.1-1.5-1.1-2.1-2.3-2.1c-1.4,0-3.2,1.1-3.6,2.2
		c-0.6,1.3-0.2,2.2,0.8,2.7C40.1-3110,41-3109.8,42.2-3109.8z M48.5-3098.1c-0.9,0.6-1.8,1.1-2.8,1.4c-0.1,0.1-0.3,0.1-0.4,0.2
		c0,0.5,0.1,0.9,0.4,1.4c0.6,1.1,1.6,1.1,2.7,0.6c-0.1-0.2-0.2-0.5-0.2-0.8C48.1-3096,48.2-3097,48.5-3098.1z M53.7-3100.4
		c-0.8,0.1-1.6,0.2-2.4,0.2c-0.3,0.3-0.7,0.6-1,0.9c-0.5,1.2-0.8,2.4-0.9,3.3c0,0.2,0,0.4,0,0.6v0.1c0,0,0,0,0.1,0
		c0.3-0.2,0.5-0.4,0.8-0.6c1.3-1.2,2.6-2.8,3.4-4.4L53.7-3100.4z M40.2-3102.7c-0.5,1-0.7,2-0.6,2.8c0.3,2.6,2.3,2.9,4.6,2.2
		c0.1-0.6,0.3-1.1,0.5-1.7c-0.2,0.1-0.4,0.1-0.6,0.1c-0.6,0.1-0.9-0.2-1.1-0.5c-0.6-0.2-1.2-0.5-1.7-1c-0.4-0.4-0.6-0.9-0.7-1.5
		C40.4-3102.4,40.3-3102.6,40.2-3102.7z M47.4-3100.3c-0.3,0.1-0.7,0.2-1.2,0.4c-0.3,0.6-0.5,1.1-0.7,1.6c1.1-0.5,2.3-1.2,3.4-1.9
		C48.5-3100.2,47.9-3100.2,47.4-3100.3z M54.1-3103.5l-0.1,0.2c-0.3,0.5-0.6,1-1.1,1.5c0.4-0.1,0.8-0.1,1.2-0.2
		c0-0.2,0.1-0.5,0.1-0.7s0-0.4,0-0.6C54.2-3103.4,54.1-3103.4,54.1-3103.5z M49-3107.4c-1,0.1-2.1,0.3-3.1,0.6
		c0.1,0.2,0.1,0.3,0.1,0.5h0.2c0.2,0,0.5,0.1,0.5,0.4c0,0.3-0.1,0.5-0.3,0.6c0,0.1,0,0.1,0,0.2c0,0.2-0.2,0.7-0.2,0.8v0.1v0.1
		c-0.1,0.7-0.3,0.8-0.5,0.7c-0.2,0-0.4-0.2-0.2-0.9l0,0c0-0.1,0-0.4,0-0.6v-0.2c-1.9,0.5-3.1,0.9-3.8,1.4c0,0.3,0,0.6,0,0.9
		c0.5,0.3,1.2,0.5,2.1,0.7c0.2,0.1,0.4,0.1,0.6,0.1c0.1-0.1,0.2-0.1,0.3-0.2c0.7-0.5,1.7-0.9,2.5-1.2c0.8-1,1.7-1.9,2.6-2.6
		c0-0.3-0.1-0.6-0.3-0.9C49.2-3107.1,49.1-3107.3,49-3107.4z M58.8-3105c-0.2,0-0.4-0.1-0.6-0.1c-0.6,0-1.5,0.1-2.5,0.3l0,0
		l-0.1,0.1l-0.1,0.1c0,0.3,0.1,0.7,0,1.1c0.1,0.3,0.1,0.7,0.1,1.1C57.2-3102.9,58.5-3103.7,58.8-3105z M53.3-3105.8
		C53.3-3105.9,53.3-3105.9,53.3-3105.8c-0.2-0.4-0.5-0.3-1-0.2s-1,0.4-1.5,0.8c0,0.1,0,0.2,0,0.2
		C51.7-3105.3,52.5-3105.6,53.3-3105.8z M45-3106.6c-0.9,0.2-1.8,0.5-2.6,0.7c-0.2,0.2-0.4,0.4-0.6,0.6v0.1l0,0
		c0.8-0.3,1.9-0.7,3.4-1v-0.1C45.1-3106.4,45.1-3106.5,45-3106.6z M48-3109.8c0.5,0.1,1,0.4,1.4,0.8c1.2-0.1,2.3,0,3.2,0.4
		c1,0.4,1.9,1.1,2.3,2.3H55c0.1-0.1,0.2-0.3,0.3-0.4c0.2-0.4,0.4-0.7,0.2-1.1c-0.8-1.5-3.1-1.8-5.8-1.9
		C49.3-3109.8,48.7-3109.8,48-3109.8z M50.5-3107.5c0.1,0.2,0.2,0.4,0.2,0.6c0.3-0.2,0.6-0.4,0.9-0.5
		C51.3-3107.4,51-3107.4,50.5-3107.5L50.5-3107.5z M45.8-3109.7c-0.7,0-1.4,0-2.1,0c-0.4,0.7-0.8,1.3-1.3,1.8
		c0.1-0.1,0.2-0.1,0.3-0.2c0.4-0.3,0.7-0.5,1.1-0.8C44.5-3109.3,45.2-3109.6,45.8-3109.7z M42.9-3111c0.3-0.6,0.5-1.2,0.4-1.8
		c-0.1-0.9-0.8-0.9-1.5-0.8c-0.8,0.2-1.8,0.7-2,1.3c-0.3,0.8,0.3,1,1.1,1.1C41.5-3111.1,42.2-3111.1,42.9-3111z"/>
</g>
<g>
	<g transform="matrix(0.329474,0,0,0.295087,70.8105,1091.83)">
		<path class="st1" d="M-145-3616.6c0,0.2,0.1,0.4,0.3,0.6c0.3,0.4,1.1,0.7,1.6,0.9c1,0.2,2.1,0.5,3.1,0.6c0.9,0.2,1.8,0.3,2.8,0.4
			c0.6,0.1,1.2,0.1,1.8,0.2c0.4,0.1,0.8-0.2,0.9-0.6c0.1-0.5-0.1-0.9-0.5-1c-0.8-0.3-1.5-0.6-2.3-0.9c-1.1-0.3-2.2-0.5-3.3-0.7
			c-0.7-0.1-1.4-0.2-2.2-0.3c-0.4,0-0.9-0.3-1.2-0.3C-145.3-3617.6-145.3-3616.7-145-3616.6z"/>
	</g>
	<g transform="matrix(0.329474,0,0,0.295087,70.8105,1091.83)">
		<path class="st1" d="M-145.1-3608.1c-0.2,0.2,0,0-0.1,0.3l0.1,0.1c0,0,0.1,0,0.1,0.1s0.1,0,0.1,0.1s0.1,0,0.2,0.1
			c0.2,0.2,0.4,0,0.9-0.2c0.2-0.1,0.5-0.5,0.7-0.6c1-0.5,2-1,2.9-1.6c1.4-0.9,2.8-1.8,4.2-2.8c0.4-0.2,0.6-0.8,0.4-1.3
			c-0.2-0.5-0.8-0.7-1.2-0.4c-1.5,0.7-3,1.4-4.5,2.2c-1,0.6-1.9,1.2-2.8,1.9c-0.3,0.2-0.5,1.3-0.9,1.1c-0.1,0,0.1,0.1,0.1,0.1h0.1
			c0.1-0.1,0.2,0.2,0.4,0.2c0.1,0,0,0.2,0.1,0.2c0.4,0-0.5,0.2-0.1,0.1c-0.1-0.2-0.4-0.3-0.6-0.2
			C-145.1-3608.7-145.2-3608.4-145.1-3608.1z"/>
	</g>
	<g transform="matrix(0.329474,0,0,0.295087,70.8105,1091.83)">
		<path class="st1" d="M-144.4-3617.6c-0.2-0.7-0.3-1.5-0.4-2.2c-0.3-3.2,0.5-6.3,0-9.5c-0.3-2.4-1.4-4.7-4-7.1
			c-9.2-8.1-19.3-7.5-26.7-1.9c-7.2,5.5-11.8,16-10.1,28.1c2,14.4,10.6,20.7,19.9,20.7c4.6,0,9.5-1.6,13.7-4.8
			c1.7-1.3,3.3-2.7,4.7-4.5c1.9-2.4,3.5-5.2,4.7-8.3c0.2-0.4,0-0.9-0.3-1.1c-0.4-0.2-0.8,0-1,0.4c-1.4,2.8-3.2,5.1-5.1,7.2
			c-1.4,1.5-2.8,2.9-4.4,4c-3.9,2.8-8.2,4.5-12.4,4.5c-8.3,0.2-16-5.6-17.9-18.5c-1.6-11.2,2.5-20.9,9.2-26c6.7-5.2,16-5.7,24.5,1.7
			c2.3,1.9,3.2,3.9,3.5,5.9c0.6,3.2-0.3,6.4,0.3,9.4c0.2,0.8,0.5,1.6,0.9,2.3c0.1,0.2,0.4,0.4,0.6,0.2
			C-144.4-3617.1-144.3-3617.4-144.4-3617.6z"/>
	</g>
	<g transform="matrix(0.329474,0,0,0.295087,70.8105,1091.83)">
		<path class="st1" d="M-174.3-3620.7c-0.2,0.5-0.3,1-0.3,1.4c0,0.5,0.2,0.9,0.4,1.2s0.6,0.4,0.9,0.5c-0.4,1-0.7,2.1-1,3.2
			c-0.4,1.2-0.7,2.4-0.9,3.7c-0.4,2.6-0.2,5.2,0.8,7.5c2,4.4,6.3,4.8,10.9,3.1l0.2-0.1c3.6-1,7.6-3.6,10.2-6.8
			c1-1.3,1.9-2.8,2.4-4.3c0.2-0.5,0.4-1,0.5-1.4c0.2-1,0.2-1.8,0.1-2.5c-0.1-1.2-0.4-2.4-1-3.7c-1.6-3.4-4.3-3.4-6.7-2
			c-0.9,0.5-1.7,1.2-2.4,1.9c-0.3-0.2-0.7-0.3-1.1-0.4c0.8-0.9,1.6-1.9,2.2-2.8c1.9-2.8,2.5-5.6,1-7.4c-0.4-0.5-0.9-0.8-1.5-1
			c0.1-0.6,0.1-1.1,0-1.5c-0.3-0.9-1-1.4-1.9-1.4c-1.4-0.1-3.7,1-6,2.7c-1.9,1.4-3.9,3.2-5.3,5c-1.7,2.1-2.5,4.2-2,5
			C-174.7-3620.7-174.5-3620.6-174.3-3620.7z M-160.4-3628.8c-0.7,1.2-1.9,2.7-3.2,4.1c-2.4,2.5-5.3,5-7.3,6.2
			c-0.4,0.8-0.8,1.6-1.2,2.4c-0.6,2-1,4.1-1,6c-0.1,3.9,1.4,7.2,5.6,7.8c3.2,0.5,7.8-1.3,11.2-4.4c0.6-0.6,1.2-1.1,1.7-1.7
			c0.1-0.1,0.1-0.1,0.2-0.2c1.6-2,2.6-4.3,2.5-6.8c-0.3-0.5-0.8-0.6-1.4-0.7c-1.1-0.1-2.5,0.1-4,0.6c0.3,0.8,0.2,1.8-0.3,2.9
			c-0.7,1.6-2.1,3.4-3.7,4.9c-2.1,1.9-4.5,3.4-5.9,3.4c-0.9,0-1.6-0.4-1.9-1.2c-0.3-0.1-0.6-0.3-0.8-0.5c-0.7-0.9-0.8-2.2-0.1-3.6
			c0.7-1.5,2.3-3.3,4.1-4.8c1.3-1,2.8-1.9,4.1-2.4c0.2-0.3,0.4-0.6,0.6-1c-0.1,0-0.2,0-0.3,0c-0.6,0-1.2,0.2-1.9,0.5
			c-1.9,1.9-3.8,3.5-5,4.5c-0.5,0.4-0.9,0.7-1.1,0.8c-0.7,0.4-1.1,0-1.2-0.1c-0.3-0.3-0.4-0.7-0.3-1.2c0.1-0.5,0.6-1.1,0.9-1.4
			c0.8-0.8,3.3-3,5.6-4.3c1.5-1.5,3-3.2,4.1-4.9c0.7-1.1,1.3-2.2,1.5-3.2c0.1-0.6,0.1-1.2-0.3-1.6
			C-159.7-3628.6-160-3628.7-160.4-3628.8z M-159.1-3613.7c-0.2,0.1-0.4,0.2-0.6,0.3c-0.6,1.3-1.5,2.7-2.6,3.9c-0.9,1-1.9,2-2.9,2.7
			c0.9-0.5,1.8-1.3,2.7-2.1c1.4-1.4,2.7-2.9,3.3-4.3C-159.2-3613.4-159.1-3613.5-159.1-3613.7z M-161.8-3613.3
			c-2.1,1.2-4,2.7-5.1,4.3c-0.4,0.6-0.8,1.2-1,1.7c0.2-0.1,0.4-0.2,0.6-0.3c1.5-0.9,3.4-2.6,4.8-4.5
			C-162.3-3612.5-162-3612.9-161.8-3613.3L-161.8-3613.3L-161.8-3613.3z M-152.7-3617.8c0-0.1-0.1-0.2-0.1-0.3
			c-0.7-1.6-1.8-1.9-3-1.7c-1.2,0.3-2.4,1.2-3.4,2.2c0.1,0.2,0.1,0.4,0.1,0.7l0,0c0.2-0.1,0.3-0.1,0.5-0.2
			C-156.3-3617.9-154.2-3618.1-152.7-3617.8z M-170.3-3623.2c-0.6,0.6-1.1,1.2-1.5,1.8c-0.5,0.7-0.9,1.3-1,1.8
			c0.1,0,0.3-0.1,0.5-0.2C-171.7-3620.9-171-3622.1-170.3-3623.2z M-161.3-3630.8c0.1-0.3,0.2-0.5,0.1-0.6c-0.2-0.5-0.8-0.4-1.5-0.1
			c-1.5,0.5-3.5,1.8-5.5,3.4c-1.9,1.5-3.7,3.2-4.8,4.7c-0.5,0.6-0.9,1.2-1,1.6c-0.1,0.2-0.1,0.4-0.1,0.5l0,0
			c0.1-0.2,0.3-0.5,0.4-0.7c1.4-2.2,4.4-4.9,7.3-6.7C-164.5-3629.9-162.7-3630.6-161.3-3630.8z M-162.8-3628.3
			c-0.9,0.3-1.9,0.9-2.9,1.5c0.2,0.2,0.4,0.5,0.2,1c0,0.1-0.3,0.3-0.4,0.4c-0.8,0.8-1.5,1.7-2.2,2.6l-0.1,0.1c0.7-0.6,1.4-1.3,2.1-2
			C-164.9-3625.9-163.7-3627.1-162.8-3628.3z"/>
	</g>
</g>
</svg>
