<?xml version="1.0" encoding="utf-8"?>
<!-- Generator: Adobe Illustrator 24.2.0, SVG Export Plug-In . SVG Version: 6.00 Build 0)  -->
<svg version="1.1" id="图层_1" xmlns="http://www.w3.org/2000/svg" xmlns:xlink="http://www.w3.org/1999/xlink" x="0px" y="0px"
	 viewBox="0 0 85 85" style="enable-background:new 0 0 85 85;" xml:space="preserve">
<style type="text/css">
	.st0{fill-rule:evenodd;clip-rule:evenodd;fill:#FFFFFF;}
	.st1{fill-rule:evenodd;clip-rule:evenodd;}
	.st2{display:none;}
	.st3{display:inline;fill-rule:evenodd;clip-rule:evenodd;fill:#FFFFFF;}
	.st4{fill:none;}
	.st5{fill:none;stroke:#000000;stroke-width:0.5048;stroke-linecap:round;stroke-linejoin:round;stroke-miterlimit:10;}
</style>
<g>
	<g transform="matrix(0.4441,0,0,0.39775,0,0)">
		<path class="st0" d="M43.1,37.2c0,0,114.2-4.6,132.5-0.9c0,0,2.1-0.6,3.2,2.9c1.1,3.6,2,68.2,1.8,84.2c0,0-123.1-1.3-135.1-1.2
			c0,0-1-5.1-1.5-14.6C44,107.7,41.4,39.7,43.1,37.2z"/>
	</g>
	<g transform="matrix(0.48359,0,0,0.401504,-151.68,-31.0638)">
		<path class="st1" d="M352.9,189c0,0.2-0.1,0.3-0.1,0.5c0,0.4,0,0.8,0,1c-0.1,0.2-0.1,0.3,0,0.3v0.1c0,0.3,0.1,0.5,0.1,0.5
			c0.2,0.6,0.6,0.7,0.8,0.8c0.3,0.1,0.6,0,0.9-0.3c0.1-0.1,0.3-0.3,0.3-0.8c0-0.2,0-2.6,0-6.5c-0.1-4.2-0.2-10.2-0.3-17
			c-0.3-12.8-0.6-28.4-0.7-39.6c-0.1-3.9-0.1-7.3-0.1-9.9c0-0.3,0-0.6,0-0.8c-0.1-0.8-0.3-1.4-0.3-2c0-0.5,0-1,0-1.3
			s-0.1-0.5-0.4-0.6c-0.2,0-0.5,0.2-0.5,0.5c-0.1,0.4-0.1,0.8-0.2,1.4s-0.4,1.2-0.5,2c0,0.3,0,0.6,0,0.9c-0.1,2.6-0.2,6-0.2,9.9
			c0,11.2,0.2,26.8,0.5,39.7c0.1,6.8,0.3,12.8,0.4,17C352.8,186.4,352.9,187.9,352.9,189z M353,190.3l-0.1,0.1v0.3l0,0
			C353,190.8,353,190.6,353,190.3z"/>
	</g>
	<g transform="matrix(0.48359,0,0,0.401504,-151.68,-31.0638)">
		<path class="st1" d="M353.7,115.5c0,0,0.2-0.1,0.3-0.2c0.6-0.2,1.6-0.2,3.1-0.3c0.5,0,1-0.1,1.6-0.1c3.7-0.4,8.8-0.7,14.2-0.9
			c7.5-0.3,15.4-0.3,19.7,0c23.3,1.7,44.4-0.8,66.4-0.4c5.4,0.1,10.9,0.3,16.5,0.9c0.2,0,0.3,0.3,0.5,0.5c0.3,0.6,0.6,1.4,0.9,2.4
			c1.1,4.1,1.6,11.3,1.9,19.8c0.5,14.4,0,32.8-0.3,47.4c0,2.1-0.1,4-0.1,5.9c0,2.1,0,4.1,0,5.9c0,0.7,0.4,1.3,1,1.3s1-0.5,1.1-1.2
			c0.1-1.7,0.2-3.5,0.3-5.4c0.1-2.5,0.2-5.3,0.2-8.1c0.4-17.5,0.7-39.7-0.3-54.4c-0.4-6.2-1.1-11-2.1-13.7c-0.8-2-1.8-3-2.8-3.1
			c-5.6-0.7-11.2-1.1-16.6-1.3c-21.9-0.6-43,2.2-66.3,0.6c-4.8-0.3-14-0.2-22.3,0.4c-3.5,0.2-6.8,0.6-9.5,0.9
			c-1.3,0.2-2.6,0.3-3.6,0.6c-0.1,0-0.3,0.1-0.4,0.1c-1.3,0.5-2.2,0.9-2.8,1.2c-0.3,0.2-0.6,0.3-0.7,0.5c-0.3,0.3-0.3,0.6-0.1,0.9
			c0.1,0.2,0.3,0.2,0.4,0.1C353.7,115.8,353.7,115.6,353.7,115.5z"/>
	</g>
	<g transform="matrix(0.48359,0,0,0.401504,-151.68,-31.0638)">
		<path class="st1" d="M479.7,199.6L479.7,199.6c-1.4,0.1-4.6-0.2-4.9-0.2c-4.3-0.1-8.5-0.3-12.8-0.6c-4.3-0.2-8.5-0.5-12.8-0.9
			c-3-0.2-6-0.4-9-0.4c-11.9-0.1-23.9,1.1-35.8,0.5c-5.1-0.3-10.2-0.2-15.3,0.1c-5,0.2-9.9,0.6-14.9,1c-3.3,0.3-6.6,0.5-9.9,0.8
			c-3.5,0.3-7,0.6-10.6,0.7c-0.4,0-0.7,0.4-0.7,0.8c0,0.5,0.3,0.8,0.7,0.8c4.1,0.1,8.1,0.1,12.2-0.1c3.8-0.2,7.6-0.4,11.3-0.7
			c5.6-0.4,11.3-0.8,16.9-0.9c3.3-0.1,6.7-0.1,10.1,0.1c12,0.6,23.9-0.7,35.9-0.7c3,0,5.9,0.1,8.9,0.3c4.3,0.3,8.6,0.6,12.8,0.7
			c4.3,0.2,8.6,0.3,12.8,0.4c0.2,0,2.9,0.2,4.5,0c0.2,0,0.4,0,0.6-0.1c0.4-0.1,0.7-0.3,0.8-0.5c0-0.1,0.1-1.3-0.6-1.2
			C480,199.5,479.9,199.5,479.7,199.6z"/>
	</g>
	<g transform="matrix(0.4441,0,0,0.39775,0,0)">
		<path class="st1" d="M126.1,60.2L126.1,60.2c0.4,0,0.7,0,1,0.1c2.6,0.1,5.2,0.1,7.8,0.1c10.1-0.1,20.3-1,30.4-1
			c-5.9,1.9-20.6,6.5-29.7,9.7c-3.3,1.2-5.9,2.2-7.1,2.8c-0.6,0.3-0.9,0.6-1,0.8c-0.2,0.3-0.2,0.5-0.2,0.7c0,0.4,0.3,1.3,1.6,1.6
			c1.2,0.3,3.9,0.4,8.9,0.2c1.4-0.1,2.8-0.2,4.3-0.3c3.3-0.3,6.5-0.7,9.8-0.9c1.2-0.1,13.2-0.1,17.6-1.1c0.3-0.1,0.6-0.1,0.8-0.2
			c0.5-0.2,0.8-0.4,1-0.6c0.5-0.5,0.7-1,0.5-1.5s-0.7-0.8-1.1-0.6c-0.2,0.1-0.4,0.2-0.5,0.4c-0.1,0-0.3,0-0.4,0.1
			c-0.2,0-0.4,0.1-0.7,0.1c-4.4,0.8-16.1,0.9-17.3,1c-3.3,0.2-6.6,0.6-9.8,0.9c-1.4,0.1-2.8,0.2-4.2,0.3c-2.9,0.2-4.9,0.2-6.4,0.1
			c0.3-0.1,0.6-0.3,0.9-0.4c8.8-3.5,30.5-10.3,35.1-11.9c0.2-0.1,1.6-0.5,2.1-0.9c0.3-0.3,0.5-0.6,0.5-0.9c0.1-0.9-0.3-1.4-0.9-1.7
			c-0.7-0.3-2.2,0-3,0c-9.1,0.1-18.2,0.8-27.3,1.3c-3.9,0.2-7.8,0.3-11.7,0.3c-0.3,0-0.6,0-0.9,0c-0.6,0.1-1.1,0.4-1.1,0.7
			c0,0.2,0,0.6,0.6,1c0.1,0.1,0.3,0.1,0.5-0.1C126.3,60.5,126.2,60.3,126.1,60.2L126.1,60.2z M170.1,70.9L170.1,70.9L170.1,70.9
			L170.1,70.9L170.1,70.9L170.1,70.9z M168.3,59c0.1,0.2,0.2,0.4,0.2,0.2C168.5,59.1,168.4,59,168.3,59z"/>
	</g>
	<g transform="matrix(0.4441,0,0,0.39775,3.21281,-9.08777)">
		<path class="st1" d="M118.9,126.4c0-0.1-0.1-0.2-0.3-0.3c-0.1-0.1-0.4-0.1-0.7,0c-0.2,0-0.5,0-0.7,0.1c-0.4,0.1-0.4,0.5-0.4,0.8
			c0,0.2,0.2,0.4,0.8,0.7l2.3,0.4c1.8,0.3,3.5,0.4,5.2,0.5c1.7,0,3.4,0,5.1-0.1c8.5-0.2,16.8,0.7,25.2,1c1.7,0.1,3.4,0.2,5.1,0.1
			c0.4,0,0.8-0.1,1.3-0.1c0.6,0,1-0.5,1-1.1s-0.5-1.1-1-1.1c-0.4,0-0.9-0.1-1.3-0.1c-1.8-0.1-3.5-0.1-5.3-0.1
			c-5.2-0.2-10.3-0.5-15.5-0.6c-3.2-0.1-6.4-0.1-9.6,0.1c-2.1,0.1-4.1,0.2-6.1,0.2c-1.3,0-2.6,0-4-0.2L118.9,126.4z"/>
	</g>
</g>
<g>
	<g transform="matrix(0.4441,0,0,0.39775,0,0)" class="st2">
		<path class="st3" d="M78.2,79.2c-1.8,0,1.1,10.7-0.8,10.5c-1.7-0.2-8.4-0.2-10.2,2.5c-2,3,0,7.3-2.5,8.6c-1.8,0.9-1.3-0.9-2.5-0.4
			c-12.7,5-10.5,5-16.5,10.5c-10.8,10-16.4,22.8-15.7,31.3l1.4-1.1c0,0-7.6,50.9,9,53.4c16.5,2.6,5.5-1.7,5.5-1.7v3.3
			c0,0,29.7-0.7,38.6-1.3s37,2,37.7,1.9c0.6-0.1,8,1.5,8,1.5s-2.2-57-2.2-57.5s1.2-0.4,2.2-0.1c0,0,0.6-27.9-21.9-37.6
			c0,0,2.5-6.1-6.1-12.3c-8.6-6.1-2.9,0.3-2.9,0.3l-0.7-4C98.7,87.1,86.4,78.3,78.2,79.2z"/>
	</g>
	<rect x="28" y="52.1" class="st4" width="14.9" height="12"/>
	<path id="_xD83D__xDD8D_-Ink23" class="st1" d="M55.4,52.5c-0.5,0.6-0.9,1.3-1.2,2c-0.2,0.4-0.4,0.7-0.6,1.1c0-0.8,0-1.7-0.1-2.5
		c0-0.1-0.1-0.1-0.1,0c-0.1,0.7-0.1,1.5-0.2,2.2c-0.1,0-0.1,0-0.1,0c-0.6,0-1.1,0.1-1.6,0.1c-0.2,0-0.5,0-0.8,0.1
		c0.2-0.2,0.4-0.4,0.6-0.7s0.4-0.6,0.1-0.9c-0.3-0.3-1,0.1-1.3,0.2c-0.2,0.1-0.3,0.1-0.5,0.2c-0.2-0.6-0.8-0.6-1.4-0.6
		c-0.4,0.1-0.8,0.2-1.1,0.3c-0.5,0.1-0.9,0.2-1.4,0.4c-0.8,0.2-1.7,0.4-2.5,0.5c0,0-0.1-0.1-0.1-0.1c-0.3-0.1-0.6,0-0.9,0
		c-0.3,0-0.6,0-0.9,0c-0.6,0-1.1,0-1.7,0c-0.1-0.1-0.3-0.2-0.4-0.4c-0.1-0.2,0.1-0.5,0.2-0.7c0.3-0.7,0.5-1.6,0.3-2.3
		c0-0.1-0.1-0.3-0.1-0.4c0.6,0.1,1.2,0.1,1.8,0.1c1.2,0.1,2.4,0.1,3.6,0.1c2.4,0,4.9,0,7.3,0c1.4,0,2.8,0,4.1-0.1
		c-0.1,0.1-0.2,0.3-0.3,0.4c0,0-0.1,0-0.1,0v0C55.8,51.9,55.6,52.2,55.4,52.5 M52.7,77.6c-0.6,0-1.1,0-1.7-0.1
		c-1.1,0-2.2-0.1-3.3-0.1c-2.2-0.1-4.4-0.1-6.6-0.2c-2.2-0.1-4.4-0.1-6.6-0.1s-4.4,0.2-6.6,0.4c-1.2,0.1-2.4,0.2-3.6,0.2
		c-1.2,0-2.3,0-3.5,0.1c0-0.3,0-0.6,0-0.9c0.4-0.2,0.8-0.5,1.1-0.7c1.4-0.8,2.6-1.8,3.8-2.8c0.2-0.2,0.4-0.3,0.6-0.5
		c-0.1,0.3,0,0.6,0.3,0.8c0.4,0.1,0.9,0.1,1.3,0.1s0.9,0,1.4,0c0.9,0,1.8,0,2.7-0.1c1.8,0,3.5-0.1,5.3-0.1c3.5,0,7.1,0,10.6,0.1
		c1,0,2,0.1,3,0c0.5,0,1,0,1.5-0.1c0.4,0,0.8-0.1,1.2-0.1c0.1,0.7,0.1,1.4,0.2,2.1c0,0.5,0.1,0.9,0.1,1.4c0,0.2,0,0.4,0.1,0.6
		C53.5,77.6,53.1,77.6,52.7,77.6 M53.1,58c0,0.5,0,1.1,0,1.6c-0.1,0-0.1-0.1-0.1-0.1c-0.6-0.1-1.3,0-1.9,0c-0.6,0-1.2,0-1.8,0
		c-0.6,0-1.2,0.1-1.8,0.1c-0.3,0-0.6,0-0.8,0.1c-0.2,0-0.4,0-0.6,0.1c0.9-0.8,1.7-1.7,2.6-2.5c0,0,0.1-0.1,0.1-0.1
		c0.6-0.4,1.1-0.8,1.6-1.2c0.4,0.2,0.8,0.2,1.3,0.2c0.6,0.1,1.1,0.1,1.6,0.1c0,0,0.1,0,0.1,0C53.1,56.9,53.1,57.5,53.1,58
		 M30.7,68.3c1.3,0.4,2.8,0.4,4.1,0.5c1.5,0.1,2.9,0.2,4.4,0.2c2.9,0.1,5.9,0.3,8.8,0.4c1.7,0.1,3.3,0.2,5,0.2c0.1,0,0.2,0,0.3-0.1
		c0.1,1.1,0.1,2.2,0.2,3.3c0,0.1,0,0.3,0,0.4c-0.8-0.1-1.6-0.2-2.3-0.3c-0.9-0.1-1.8-0.1-2.7-0.2c-1.7-0.1-3.5-0.3-5.2-0.3
		c-3.5-0.1-7.1-0.1-10.7-0.1c-1,0-2,0-3,0c-0.5,0-1,0-1.5,0c-0.5,0-1-0.1-1.5,0.1l0,0C28,71.3,29.3,69.8,30.7,68.3 M35.3,64
		c2.2,0.4,4.5,0.4,6.7,0.4c2.3,0.1,4.6,0,6.9,0c1.3,0,2.6,0.1,3.9-0.1c0.1,0,0.3-0.1,0.3-0.2c0,1.4,0.1,2.7,0.1,4.1
		c-0.1,0-0.2-0.1-0.3-0.1c-2.9-0.2-5.9-0.3-8.8-0.4c-2.9-0.1-5.9-0.2-8.8-0.2c-1.4,0-2.9-0.1-4.3,0.2c0.5-0.6,1.1-1.1,1.7-1.7
		C33.6,65.5,34.4,64.7,35.3,64 M37,62.3L37,62.3C37,62.3,37,62.3,37,62.3c2.1-0.1,4.4,0.6,6.3-0.4c0.9-0.4,1.6-1.1,2.3-1.8
		c0,0,0,0,0,0c0,0.1,0,0.1,0.1,0.2c0.2,0.1,0.5,0.1,0.8,0.1c0.3,0.1,0.6,0.1,0.8,0.1c0.6,0,1.2,0.1,1.9,0.1c0.6,0,1.2,0,1.9,0.1
		c0.6,0,1.3,0.1,1.9,0c0.1,0,0.1,0,0.1-0.1c0,0.8,0,1.6,0,2.4c0,0.1,0,0.3,0,0.4c-0.1-0.1-0.2-0.1-0.3-0.2c-1.2-0.1-2.3-0.1-3.5-0.1
		c-1.1,0-2.3,0-3.4,0c-2.3,0-4.6,0-6.9,0.1c-1.1,0-2.2,0.1-3.3,0.3C36.1,63.2,36.6,62.8,37,62.3 M19.1,76.9
		c-0.4,0.1-0.8,0.1-1.3,0.2c0,0-0.1,0-0.1,0c-1.3-0.5-2.1-1.6-2.7-2.9c-0.6-1.3-1-2.6-1.3-4c-0.6-2.9-0.6-5.8-0.3-8.7
		c0.3-2.9,0.9-5.7,1.7-8.4c0.6-1.9,1.3-3.8,2.3-5.5c1.2,0.8,2.1,1.9,2.9,3c1,1.3,1.9,2.7,2.8,4.2c-0.1,0.3-0.1,0.6-0.1,0.8
		c-0.1,0.4-0.1,0.9-0.2,1.3c-0.1,0.9-0.2,1.8-0.3,2.8c-0.2,1.8-0.5,3.7-0.8,5.4c0,0.2,0,0.3,0.1,0.4c-0.6,0.3-1.2,0.7-1.9,1.1
		c-1.3,0.8-2.6,1.8-3.6,3c0,0,0,0.1,0.1,0.1c2.1-1.9,4.7-3.2,7.3-4.4c1.3-0.6,2.6-1.2,3.9-2c1.3-0.8,2.6-1.6,3.8-2.5
		c1.4-1.1,2.7-2.2,3.9-3.4c0.1-0.2,0.1-0.3,0-0.4c0,0,0.1-0.1,0.1-0.1c0-0.8,0.3-1.5,0.8-2.2c0.4-0.6,1-1.1,1.5-1.7
		c0.2-0.2,0.4-0.5,0.6-0.8c0.2-0.3,0.3-0.6,0.5-0.9c0.2-0.3,0.4-0.2,0.5,0.1c0.1,0.3,0.1,0.8,0.1,1.1c-0.1,0.4-0.2,0.8-0.3,1.1
		c-0.1,0.3-0.3,0.6-0.2,1c0.2,0.6,0.9,1,1.5,1.1c0.6,0.2,1.3,0.1,1.9,0.1c0.8-0.1,1.6-0.2,2.4-0.4c0.9-0.2,1.8-0.4,2.7-0.6
		c0.4-0.1,0.8-0.3,1.3-0.3c0.1,0,0.4-0.1,0.6,0c-2.3,1.4-4.8,2.3-7.3,3.1c-0.3,0.1-0.2,0.6,0.1,0.5c2.7-0.7,5.3-1.9,7.7-3.3
		c0,0,0.1-0.1,0.1-0.1c0.2-0.1,0.5-0.2,0.8-0.2c0.1,0,0.7-0.2,0.8-0.2c0.1,0.1-0.3,0.4-0.3,0.5c-0.6,0.7-1.4,1.3-2.2,1.8
		c-0.8,0.5-1.7,0.9-2.6,1.2c-1,0.4-2.1,0.7-3,1.2c-0.4,0.2-0.1,0.8,0.3,0.7c0.5-0.2,1-0.4,1.5-0.6c0.4-0.2,0.9-0.4,1.3-0.5
		c0.3-0.1,0.6-0.3,0.9-0.4c-0.4,0.4-0.9,0.8-1.3,1.2c-0.8,0.7-1.5,1.5-2.4,2c-0.9,0.5-2,0.5-3,0.5c-0.5,0-1,0-1.5,0
		c-0.6,0-1,0.1-1.5,0.3c0,0,0,0,0,0c0,0-0.1,0-0.1,0c-1.4,0.8-2.7,1.9-3.9,3c-1.3,1.1-2.5,2.3-3.6,3.5c-1.1,1.2-2.1,2.4-3.3,3.4
		c-1.2,1.1-2.4,2-3.7,2.9c-0.7,0.5-1.4,1-2.2,1.4C19.9,76.6,19.5,76.8,19.1,76.9 M19.2,45.2c0.5-0.6,1-1.1,1.6-1.6
		c0.3,0.1,0.5,0.1,0.8,0.1c0.4,0,0.8,0,1.2,0c0.8,0,1.6,0,2.3,0c1.6,0,3.2,0,4.8,0c0.2,0,0.3-0.1,0.5-0.2c0.3,0.4,0.7,0.7,1,1.1
		c0.6,0.6,1.1,1.1,1.7,1.6c-0.1,0-0.2,0-0.3,0c-0.6,0-1.1,0-1.7,0c-1.1,0-2.2,0-3.3,0c-2.2,0-4.4,0-6.6,0.1c-0.6,0-1.2,0.1-1.8,0.1
		c-0.3,0-0.7,0.1-1,0.1c-0.1,0-0.1,0-0.2,0C18.5,46.1,18.8,45.6,19.2,45.2 M28,40.2C28,40.2,28,40.2,28,40.2
		c-0.1,0.1-0.1,0.1-0.1,0.1c0.1,0,0.1,0,0.1,0.1c0.2,0.2,0.3,0.5,0.4,0.7c0.3,0.4,0.6,0.9,0.9,1.2c0.1,0.1,0.1,0.2,0.2,0.2
		c-1.5,0-3,0-4.5,0.1c-0.8,0-1.6,0.1-2.3,0.1c-0.3,0-0.6,0.1-1,0.1c1.7-1.2,3.5-2.1,5.5-2.8l0,0c0,0.1,0,0.1,0.1,0.1
		C27.6,39.9,27.8,40,28,40.2 M35.5,54.3c0,0.1-0.1,0.1-0.1,0.2c-0.1-0.1-0.2-0.2-0.4-0.2c-1.9-0.1-3.9-0.1-5.8-0.1c-1,0-1.9,0-2.9,0
		c-0.5,0-1,0.1-1.4,0.1c-0.3,0-0.7,0.1-1,0.1c-0.8-1.3-1.6-2.6-2.5-3.8c2.1,0.3,4.2,0.2,6.3,0.3c2.4,0.1,4.7,0.1,7.1,0.2
		c0.6,0,1.3,0,1.9,0.1c0.3,0,0.7,0,1,0c0.1,0,0.2,0,0.3,0c0,0,0,0,0,0.1c-0.2,0.4-0.4,0.7-0.7,1C36.7,53,36,53.5,35.5,54.3
		 M32.9,58.4c-0.1-0.2-0.3-0.4-0.5-0.3c-1.6,0.1-3.2,0.1-4.8,0.2c-0.8,0.1-1.6,0.1-2.3,0.2c-0.4,0-0.8,0.1-1.2,0.2
		c-0.3,0-0.6,0.1-0.8,0.2c0.1-0.6,0.1-1.1,0.1-1.7c0-0.4,0-0.9,0-1.3c0-0.2,0-0.5,0-0.7c0,0,0.1,0,0.1,0c0,0,0.1,0,0.1,0
		c0.4,0.2,0.8,0.2,1.2,0.2c0.5,0,0.9,0.1,1.4,0.1c1,0.1,2,0.1,3,0.1c1.9,0.1,3.9,0.1,5.8,0.2c-0.1,0.4-0.1,0.8,0.1,1.1
		c-0.1,0-0.2,0-0.3,0.1C34.1,57.3,33.5,57.9,32.9,58.4 M27.3,62.5c0-0.1-0.1-0.2-0.2-0.3c-0.3-0.3-1-0.1-1.4-0.1
		c-0.5,0-1,0.1-1.4,0.1c-0.1,0-0.9,0.1-1.4,0.2c0.1-0.9,0.2-1.7,0.3-2.6c0-0.2,0-0.4,0.1-0.5c0.3,0.1,0.6,0.1,0.8,0.1
		c0.4,0,0.8,0.1,1.2,0.1c0.8,0,1.6,0,2.4-0.1c1.4,0,2.9-0.1,4.3-0.2C30.5,60.4,29,61.4,27.3,62.5C27.4,62.4,27.3,62.4,27.3,62.5
		 M22.8,63c0.1,0,0.2,0,0.3,0c0.5,0.1,0.9,0.1,1.4,0.1c0.5,0,0.9,0,1.4,0c0.1,0,0.2,0,0.3,0c-1.2,0.6-2.5,1.2-3.7,1.9
		C22.6,64.3,22.7,63.6,22.8,63 M36,47.9c2.8,1.2,6.3,1.3,8.7-0.7c0.2,0.1,0.5,0.1,0.7,0.1c0.5,0.1,0.9,0.1,1.4,0.1
		c0.9,0,1.8,0.1,2.8,0.1c1.9,0,3.7,0,5.6,0.1c0.1,0,0.3-0.1,0.4-0.1c0.2,0.3,0.3,0.6,0.5,1c0.2,0.5,0.4,1,0.6,1.5c0,0-0.1,0-0.1,0
		c-2.4-0.1-4.9,0-7.3,0c-2.4,0-4.9,0-7.3,0c-0.7,0-1.3,0-2,0.1c-0.3,0-0.7,0-1,0.1c0,0-0.1,0-0.1,0c-0.5-0.3-1-0.2-1.6-0.2
		c-0.6,0-1.2,0-1.8,0c-1.2,0-2.4,0-3.6,0c-2.4,0-4.7,0.1-7.1,0.1c-1.2,0.1-2.3,0.1-3.5,0.3c-0.1-0.1-0.1-0.2-0.2-0.3
		c-0.8-1-1.8-2.4-3.2-2.7c0.1-0.1,0.1-0.2,0.1-0.3c0.9,0.3,2,0.2,3,0.3c1.1,0.1,2.2,0.1,3.3,0.1c2.2,0.1,4.4,0.1,6.6,0.1
		c0.6,0,1.2,0,1.8,0c0.3,0,0.7,0,1,0c0.2,0,0.3,0,0.5-0.1c0.2-0.1,0.3-0.1,0.5-0.2c0.1,0,0.1-0.1,0.1-0.1C35,47.5,35.5,47.7,36,47.9
		 M46.7,44c0.3,0.1,0.7,0.1,1.1,0.1c0.5,0,1,0.1,1.4,0.1c0.8,0,1.5,0,2.3,0c0.3,0,0.5-0.2,0.6-0.5c0,0,0,0,0,0
		c0.9,0.8,1.8,1.7,2.5,2.6c-1.7,0-3.4,0-5.2,0c-0.9,0-1.8,0.1-2.8,0.1c-0.4,0-0.9,0.1-1.3,0.1h0c0.1-0.1,0.1-0.1,0.1-0.2
		C46,45.7,46.5,44.9,46.7,44 M58,78.8c0.1-0.4,0.1-0.9,0.1-1.3c0-0.4,0-0.9,0-1.3c0-0.9,0-1.8,0-2.6c0-1.8,0-3.6-0.1-5.4
		c-0.1-3.5-0.4-7.1-0.8-10.6c-0.2-1.7-0.5-3.4-0.8-5.1c0,0,0,0,0,0c0.3-0.5,0.8-0.9,1.1-1.4c0-0.1-0.2,0.1-0.2,0l0.1-0.1
		c-0.3-0.1-0.1-0.5-0.1-0.5c0,0-0.5-1.3-0.5-1.4c-0.2-0.4-0.4-0.9-0.6-1.3c-0.1-0.3-0.3-0.5-0.5-0.8c0-0.2-0.1-0.4-0.3-0.4
		c-0.3-0.4-0.6-0.8-1-1.2c-1.4-1.6-3.2-2.9-5.1-3.8c-0.3-0.1-0.6-0.2-0.8-0.4c-0.3-0.1-0.6-0.3-0.9-0.4c-0.5-0.2-1-0.2-1.4,0
		c0,0,0,0.1,0,0.1c0.3-0.1,0.6-0.1,0.9,0c0.3,0.1,0.5,0.3,0.8,0.4c0.5,0.3,1,0.5,1.5,0.7c0.6,0.3,1.3,0.7,1.9,1.1
		c-0.6,0-1.2,0.1-1.9,0.1c-0.5,0-0.9,0-1.4,0.1c-0.3,0-0.7,0-1,0.1c0.1-0.5,0.1-1.1,0-1.6l0,0c0-0.1-0.1-0.3-0.1-0.4
		c-0.1-0.3-0.3-0.3-0.5-0.2c0,0,0,0-0.1-0.1c-0.2-0.2-0.4-0.4-0.6-0.6c-0.3-0.4-0.6-1-0.8-1.5c-0.2-0.5-0.4-1.1-0.5-1.6
		c-0.1-0.3-0.1-0.5-0.2-0.8c-0.1-0.2-0.1-0.5-0.2-0.7c0-0.1-0.1,0-0.1,0c-0.1,0.3,0,0.6,0,0.9c0,0.3,0,0.6,0.1,0.9
		c0.1,0.6,0.2,1.3,0.4,1.9c0.2,0.6,0.5,1.1,0.9,1.6c0.3,0.3,0.6,0.8,1,0.9c0.1,0.6,0.1,1.2-0.1,1.8c-0.2,0.8-0.6,1.5-1,2.2
		c-1,1.3-2.6,2.1-4.3,2.3c-1.7,0.2-3.5-0.2-5.1-1c-1.7-0.9-3.2-2.2-4.5-3.6c-0.8-0.8-1.5-1.6-2.2-2.5c-0.1-0.2-0.3-0.5-0.6-0.8
		c0.2,0,0.5,0,0.7-0.1c0.4-0.1,0.8-0.1,1.3-0.3c0.8-0.2,1.6-0.5,2.3-0.9c1.4-0.9,2-2.1,2.2-3.8c0.1-0.5-0.8-0.6-0.9-0.1
		c-0.1,0.8-0.3,1.2-0.6,1.9c-0.2,0.7-0.6,1-1.3,1.4c-0.6,0.4-1.4,0.6-2.1,0.8c-0.4,0.1-0.8,0.2-1.2,0.4c-0.3,0.1-0.6,0.1-0.8,0.3
		c-0.1-0.1-0.3-0.2-0.4-0.2c0,0,0-0.1,0,0c0,0-0.1,0-0.1,0s-0.1,0-0.1,0c-2.4,0.5-4.8,1.7-6.7,3.2c-0.1,0.1-0.2,0.1-0.3,0.2
		c-0.1,0-0.1,0.1-0.1,0.1c-0.3,0.2-0.6,0.5-0.9,0.8c-2.3,2.1-3.7,4.9-4.7,7.8c-1,2.8-1.7,5.8-2,8.8c-0.4,3-0.4,6.1,0.1,9.2
		c0.3,1.6,0.8,3.2,1.4,4.7c0.6,1.3,1.7,2.9,3.2,3c0,0,0,0,0,0c0.6,0.5,1.6,0.2,2.2-0.2c0.1-0.1,0.2-0.1,0.3-0.2
		C20,77.5,20,77.7,20,77.9c0,0.4,0.6,0.4,0.7,0.1c1,0.2,2,0.2,3,0.2c1.1,0,2.2-0.1,3.3-0.1c2.2-0.1,4.3-0.3,6.5-0.3
		c4.4-0.2,8.8,0.2,13.2,0.3c1.2,0.1,2.5,0.1,3.7,0.1c1.3,0.1,2.5,0.1,3.8,0.2c0.5,0.1,0.6-0.4,0.5-0.7c0-0.2,0-0.4,0-0.6
		c0-0.4-0.1-0.8-0.1-1.2c-0.1-0.8-0.1-1.6-0.2-2.4c-0.1-1.6-0.2-3.3-0.3-4.9c-0.2-3.3-0.3-6.5-0.4-9.8c0-0.8-0.1-1.6-0.1-2.4
		c0.1-0.1,0.1-0.2,0.1-0.2c0.1-0.3,0.3-0.5,0.5-0.8c0.3-0.5,0.6-1,1-1.5c0.3-0.4,0.6-0.9,0.9-1.3c0.4,3.2,0.7,6.4,0.9,9.6
		c0.2,3.5,0.3,7.1,0.3,10.6c0,1,0,2,0,3c0,0.5,0,1,0,1.6c0,0.5-0.1,1,0.1,1.5C57.5,79,57.9,79,58,78.8z"/>
	<path class="st0" d="M32.3,38.1c0,0.2,0.9,1.1,0.9,1.1s-2.8,2-2.9,2.1c-0.1,0.1-0.8-1.4-0.8-1.4s0.1-1.2-0.1-1.2
		C29.3,38.8,32.3,38,32.3,38.1z"/>
	<path class="st0" d="M44.8,38.3l-0.7,1.2L46,44l1.4-2.3l0.6-1.5L44.8,38.3z"/>
	<path class="st0" d="M13.2,56.8c0,0,2.3-1.7,6.4-0.7s3.3,1,3.2,0.9c-0.1-0.6,0.4-1.6,0.4-1.6s3.5-5.3,1.3-14.2
		C24.2,39.3,12.7,50.1,13.2,56.8z"/>
	<path class="st0" d="M51.1,42.7c0,0-1.4,8.7,2.4,13.6c0.4,0.5,0.1,0.6,0.1,0.6s2.9-1.7,4.2-1C58.3,56.2,57.3,46.9,51.1,42.7z"/>
	<path class="st5" d="M31.7,37.4c-0.7-0.2,1.8,2,2.1,2.3c1.7,1.5,3.7,2.6,5.8,3.5"/>
	<path class="st5" d="M33.8,35.8c0.2-0.3-0.9-0.2-0.9-0.2c-1,0.1-2,0.5-2.8,1c-1.3,0.7-0.8,3-0.3,4c1.1,2.3,3.4,4.3,5.8,5.2
		c2.3,0.8,3.6,0.5,4.1-2"/>
	<path class="st5" d="M44.9,37.5c0.3,0.3-0.4,1.5-0.6,1.7c-0.9,1.7-2.3,3.2-3.9,4.3"/>
	<path class="st5" d="M44.4,36.3c0,0.2,0.2-0.2,0.4-0.3c0.3-0.1,0.6,0.2,0.8,0.3c0.9,0.6,2.8,2.2,2.5,3.5c-0.5,2.2-1.8,4.4-3.7,5.6
		c-1.5,0.8-3.4,0.8-4.2-0.9"/>
	<path class="st5" d="M39,45.7c-0.1-0.2,0,0.7,0,0.8c0,0.6,0,1.1,0.1,1.7"/>
	<path class="st5" d="M40.1,47.2c0-0.1,0.2,0.3,0.3,0.2c0.3-0.2-0.1-0.6-0.4-0.4c-0.3,0.2,0.1,0.7,0.3,0.4"/>
	<path class="st5" d="M24.6,41.2c-0.1,0.3,0.2,0.7,0.3,1c0.3,1.3,0.4,2.7,0.4,4c0.2,3.1-0.3,6.2-1.7,9"/>
	<path class="st5" d="M50.9,42.8c-0.4-0.6-0.3,4-0.3,4.4c0.1,1.7,1.4,8,2.9,9.1"/>
	<path class="st5" d="M24.2,41.3c0-0.2-0.3,0.1-0.5,0.2c-0.4,0.2-0.8,0.5-1.2,0.8c-0.1,0.1-0.1,0.1-0.2,0.1
		c-1.2,0.8-2.2,1.6-3.2,2.7c-2.8,3.1-5.2,6.7-6.1,10.8"/>
	<path class="st5" d="M13.2,56.8c-0.3-0.2,0.4-0.6,0.5-0.6c0.7-0.3,1.6-0.3,2.3-0.4c1.9-0.2,3.9,0.2,5.7,0.8
		c0.4,0.1,1.4,0.3,1.6,0.7"/>
	<path class="st5" d="M56,47.8c0,0-0.1-0.1-0.1-0.1C55.8,47.6,56,47.9,56,48c0.1,0.2,0.2,0.4,0.3,0.6c0.2,0.5,0.4,1,0.6,1.6
		c0.6,1.7,0.7,3.7,1,5.4"/>
	<path class="st5" d="M58,56.1C58,56.1,58,56.1,58,56.1c-0.1-0.2-0.2-0.2-0.4-0.3c-0.3-0.1-0.7-0.1-1-0.1c-1,0.1-2.4,0.6-3.1,1.4"/>
</g>
</svg>
