<?xml version="1.0" encoding="utf-8"?>
<!-- Generator: Adobe Illustrator 24.2.0, SVG Export Plug-In . SVG Version: 6.00 Build 0)  -->
<svg version="1.1" id="图层_1" xmlns="http://www.w3.org/2000/svg" xmlns:xlink="http://www.w3.org/1999/xlink" x="0px" y="0px"
	 viewBox="0 0 85 85" style="enable-background:new 0 0 85 85;" xml:space="preserve">
<style type="text/css">
	.st0{fill:#FFFFFF;}
	.st1{fill-rule:evenodd;clip-rule:evenodd;}
	
		.st2{fill-rule:evenodd;clip-rule:evenodd;stroke:#000000;stroke-width:6.300000e-02;stroke-linecap:round;stroke-linejoin:round;stroke-miterlimit:10;}
	.st3{fill-rule:evenodd;clip-rule:evenodd;fill:#FFFFFF;}
</style>
<path class="st0" d="M35.4,32.5c0,0,7.8-0.4,9.6,1c0,0-0.3,6.5,1.1,6.7c1.4,0.2,7,3,8.2,3.8c0.9,0.6,5,12.6,5,12.6s0,0.5-0.1,0.9
	c-0.1,0.4,0.9,0.8,1,1.4c0.2,0.6-0.7,0.6-0.6,1.1c0.1,0.5,0.7,0.4,0.7,0.8c0,0.4-0.7,1.7-1.2,2.4c-0.5,0.6,1.3,9.2,1.3,9.2
	s-0.5,2.2-2.2,4.5c-1.7,2.3-6.3,1.8-6.3,1.8l-7.7,0.4c0,0-1.8-0.2-3.4-0.2c-1.7,0-19.6,0.6-19.6,0.6s-1.1-3-4.4-5.9
	c-3.3-2.9-3.9-14.5-3.5-18c0.4-3.5,5.1-14.7,14-15.8C38.8,38.5,35.4,32.5,35.4,32.5z"/>
<g>
	<g transform="matrix(0.4441,0,0,0.39775,-157.329,14.655)">
		<path class="st1" d="M434.8,47.1c0.1-1.1-0.7-1-0.9,0.6c0,0.4,0,1,0,1.7c0.1,2.4,0.4,6,0.5,6.7c0,0.3,0.3,0.5,0.5,0.5
			c0.3,0,0.5-0.3,0.5-0.6c0-0.7-0.1-4.2-0.2-6.7c0-0.7-0.1-1.2-0.1-1.7C434.9,47.4,434.9,47.2,434.8,47.1z"/>
	</g>
	<g id="Paper.svg" transform="matrix(0.289228,0,0,0.259042,1230.71,349.047)">
		<g transform="matrix(1,0,0,1,-409,-366.5)">
			<g id="body-mono-Paper">
				<path id="_xD83D__xDD8D_-Ink18" class="st1" d="M-3671.4-758.3c-2.4-1.1-5-1.6-7.6-1.9c1.4-0.3,2.8-0.5,4.2-0.7
					c1-0.1,1.9-0.1,2.7,0.8c0.5,0.6,0.7,1.3,1.1,1.9C-3671.1-758.2-3671.3-758.2-3671.4-758.3z M-3645.5-768.2
					c-3.9,0.2-7.9,1.3-11.5,3.2c-1.5,0.8-2.8,1.9-3.2,3.8c-0.2,0.9-0.1,1.9,0,2.9c0.1,0.7,0.1,1.6,0.7,2.1c0.1,0.1,0.2,0.2,0.3,0.2
					c-1.3,0.7-2.6,1.5-3.7,2.3c-1,0.8-2.1,1.9-2.5,3.2c0-0.2-0.1-0.3-0.1-0.4c-0.8-2.7-2-4.8-4-6.3c0.3-0.2,0.6-0.6,0.5-1.2
					c-0.5-2.4-2.4-4.4-4.6-4.3c-2.4,0.2-5,1.1-7.2,2.4c-0.8,0-1.6,0-2.4,0c-0.1,0-0.1,0.2,0,0.2c0.6,0.1,1.3,0.2,1.9,0.3
					c1.5,0.3,3,0.6,4.5,1c1.8,0.5,3.6,1,5.2,1.9c3.2,1.7,5.2,6.3,4.8,10.2c-0.1,0.7-0.3,2.6-1.1,2.4c-0.7-0.2-0.9-1.8-1.2-2.3
					c-0.6-1.6-1.8-2.6-3.2-3.3c-1.6-0.8-3.3-1.4-5-2c-0.9-0.4-1.9-0.7-2.9-1.1c-1-0.4-1.9-0.9-2.9-0.6c-0.6,0.2-0.7,1-0.4,1.5
					c0.5,0.7,1.3,0.9,2.1,1.2c1,0.4,2,0.8,3,1.2c1.6,0.6,3.2,1.1,4.7,1.9l-0.1,0.1c-0.1,0-0.3,0.1-0.2,0.3c0.2,1.6,0.6,3.4,0.2,5
					c-0.3,1.2-1.3,2.6-2.5,2.3c0.2-0.2,0.3-0.6,0.1-0.9c-0.5-1.2-7.1-6-7.7-4.2c0,0.1,0,0.1,0.1,0.1c0.5-0.1,1.4,0.8,1.8,1.2
					c0.6,0.4,1.2,0.9,1.8,1.3c0.6,0.5,1.2,1,1.8,1.5c0.5,0.4,0.8,0.8,1.4,1.1c-0.3,0.2-0.5,0.4-0.6,0.8c-0.2,0.9-0.7,1.7-1.5,2.1
					c-0.9,0.4-1.8,0.2-2.7,0.3c-1.2,0.1-2.3,0.8-3.2,1.7c-1.9,2-2.8,5.4-5.4,6.3c-1.6,0.5-3.3,0.2-4.9,0c-1.8-0.3-3.5-0.5-5.3-0.2
					c-1.7,0.3-3.3,0.9-4.9,1.8c-1.5,0.8-3.1,1.6-4.4,2.7c-0.3-0.9-0.5-1.8-0.7-2.8c-0.5-2.2-0.7-4.5-0.8-6.8
					c-0.1-2.2,0.1-4.4,0.2-6.5c0.1-1.1,0.2-2.2,0.3-3.2c0-0.3,0.1-0.6,0.1-0.9c2.3-1.5,4.8-2.7,7.2-3.9c0,0,0,0,0,0
					c0.1,0,0.1-0.1,0.2-0.1c0,0,0,0,0,0c0.3-0.2,0.5-0.5,0.6-0.7c3.5-2.6,6.5-6.2,8.7-10.4c0.9-1.8,1.8-3.6,3-5.1
					c1.3-1.6,2.8-2.6,4.7-3.1c2.2-0.6,4.5-1,6.8-1.2c1.2-0.1,2.6-0.3,4-0.3c0.9,0,1.9,0.1,2.7,0.4c1.2,0.4,2,1.5,2.8,2.5
					c0.8,1,1.5,2.1,2.2,3.1c0.7,1,1.3,2.1,1.8,3.2c0.3,0.7,0.6,1.3,0.9,2c0.1,0.2,0.2,0.5,0.3,0.8c0.1,0.3-0.1,0.5,0.2,0.5
					c-1.1,0-1.1,1.9,0,1.9c4.2-0.3-1.8-9.4-2.7-10.7c-1.2-1.8-2.5-4.2-4.5-5c0,0-0.1,0-0.1,0c0.6-0.6,1-1.3,1.5-2.1
					c0.4-0.8,1-1.7,1.1-2.6c0.1-0.6-0.6-0.9-0.9-0.4c-0.4,0.7-0.7,1.7-1,2.5c-0.3,0.8-0.8,1.6-1.1,2.4c-0.8-0.3-1.6-0.4-2.5-0.4
					c1.1-1.7,3-4.8,3.2-5.2c1-1.9,2-3.8,2.9-5.8c1-2.1,1.9-4.3,2.9-6.5c0.6-1.2,1.1-2.4,1.7-3.6c0.2-0.4,0.4-0.8,0.7-1.2
					c0.1-0.1,0.1-0.1,0.2-0.2c0.1,0,0.1-0.1,0.2-0.1c0.4-0.2,0.5-0.8,0.7-1.1c0.4-0.5,0.9-0.6,1.5-0.6c1.3,0,2.6,0,3.8,0.1
					c1.9,0.1,3.7,0.1,5.6,0.2C-3650.9-795.2-3645.5-768.2-3645.5-768.2z M-3663.5-746c-0.5,0.3-1,0.6-1.5,1c0.1-0.6,0.1-1.2,0.1-1.8
					C-3664.5-746.4-3664-746.1-3663.5-746z M-3641.1-760.8C-3641.2-760.8-3641.2-760.8-3641.1-760.8c-0.8,1.7-0.5,3.6,0.7,4.9
					c0.6,0.7,2,1.5,1.9,2.6c0,0.9-0.9,1.7-1.3,2.4c-0.4,0.7-0.5,1.5-0.2,2.2c0.4,1,1.4,1.3,1.7,2.3c0.4,1.2-0.3,2.7-0.8,3.7
					c-0.5,1-1.1,1.9-1.5,3c-2.7,1.5-5,3.9-7.1,6.3c-2.2,2.6-4.2,5.7-7.7,5.6c-0.4,0-0.6,0.2-0.8,0.5c-1,0-2,0.1-3,0.1
					c-1.7,0-3.5,0-5.2-0.1c-0.1-0.5,0-1.1,0-1.5c0-1.3,0-2.5-0.1-3.8c0-0.3,0-0.7,0-1.1c0.6,1.3,1.9,1.8,3.2,1.8
					c2.2-0.2,4.5-0.5,6.7-0.9c1.2-0.2,2.3-0.4,3.5-0.6c0.9-0.2,2.3-0.1,3-1c0.2-0.2,0.2-0.6-0.1-0.7c-0.7-0.4-1.1-0.2-1.8,0
					c-0.9,0.2-1.8,0.4-2.7,0.5c-1.7,0.3-3.4,0.6-5.1,0.9c-1,0.2-1.9,0.3-2.9,0.4c-0.9,0.1-1.8,0.2-2.5-0.5c-1.4-1.5-0.6-3.9,0.3-5.3
					c0,0,0-0.1,0-0.1c0.8-0.2,1.6-0.5,2.5-0.7c1.6-0.3,3.2-0.6,4.8-0.9c3.3-0.5,6.6-0.9,9.9-1.2c0.8-0.1,0.8-1.5,0-1.4
					c-4.7,0.5-9.5,0.9-14.2,2c-1.2,0.2-2.3,0.5-3.5,0.9c-0.6,0.2-1.1,0.4-1.7,0.4c0,0-0.1,0-0.1,0c-1.1,0-1.3-1.1-0.7-2
					c0.1-0.1,0.1-0.2,0.2-0.3c1.1-1.5,2.4-2.4,3.9-3.4c1.6-0.2,3.1-0.8,4.7-1.2c3.8-1,7.6-1.9,11.4-2.9c0.7-0.2,0.4-1.5-0.3-1.3
					c-2.9,0.7-5.8,1.5-8.6,2.2l-4.2,1.1c-0.8,0.2-1.9,0.6-2.9,0.8c-0.5,0.1-1,0.1-1.4,0c-1.4-0.4-1.4-2.3-0.9-3.4
					c0.7-1.3,1.9-2.1,3-2.8c1.9-1.3,4-2.2,6-3.2c0.4-0.1,0.7-0.2,1.1-0.3c2.1-0.5,4.4-0.8,6.4-1.7c0.6-0.3,0.3-1.3-0.3-1.3
					c-1.5,0-3.1,0.6-4.6,1c-1.6,0.4-3.2,0.8-4.8,1.2c-0.2,0-1.1,0.4-1.3,0.3c-0.1,0-0.1-0.4-0.1-0.6c-0.1-0.8-0.2-1.6-0.1-2.3
					c0.2-1.7,1.5-2.5,2.8-3.2c2.9-1.5,6.1-2.4,9.3-2.8c0.7-0.1,1.5-0.1,2.2-0.2c0.9,0,1.6-0.2,2,0.8
					C-3641.8-764.4-3641.4-762.5-3641.1-760.8z M-3645.2-706.5c-0.6-2.5-0.5-5.1-0.9-7.6c-0.2-1.3-0.5-2.6-0.9-3.8
					c-0.3-1-0.7-2.1-0.8-3.2c0-0.1,0.1-0.1,0.1-0.1c0.9,0.6,1.6,1.8,2.1,2.8c0.6,1.2,1.1,2.4,1.4,3.7c0.8,2.5,1.4,5.6,0.4,8.2
					C-3643.9-705.7-3645-705.5-3645.2-706.5z M-3664.8-738.9c0.5-0.1,1.1-0.2,1.6-0.3c-0.6,0.7-1.1,1.4-1.5,2.3
					C-3664.7-737.6-3664.8-738.2-3664.8-738.9C-3664.8-738.9-3664.8-738.9-3664.8-738.9z M-3669.9-687.9c-0.9-0.7-1.6-1.8-2.4-2.7
					c-0.8-0.9,0.4-2.3,1.2-1.4c0.7,0.8,1.3,1.7,2.1,2.4c0.4,0.3,0.6,0.8,0.3,1.3C-3669-687.8-3669.6-687.6-3669.9-687.9z
					 M-3675.2-716.2c1.7-0.8,3.4-1.7,5.2-2.3c1.1-0.4,1.5,1.5,0.5,1.9c-1.7,0.5-3.2,1.4-4.8,2.1
					C-3675.4-714-3676.2-715.7-3675.2-716.2z M-3693.4-716.8c-0.4-1.2,1.3-1.7,1.7-0.5c0.5,1.3,1,2.6,1.5,3.9
					c0.4,1.2-1.3,1.7-1.7,0.5C-3692.4-714.2-3693-715.5-3693.4-716.8z M-3711.4-693.6c-0.3,0.4-0.8,0.7-1.2,0.3
					c-0.4-0.2-0.6-0.9-0.3-1.3c0.8-1.2,1.7-2.5,2.6-3.6c0.8-0.9,2,0.5,1.2,1.4C-3709.9-695.8-3710.7-694.7-3711.4-693.6z
					 M-3714-823.8c0.8,0.6,1.5,1.3,2.2,2.1c0.8,0.9-0.4,2.3-1.2,1.4c-0.6-0.6-1.2-1.3-1.8-1.8c-0.4-0.3-0.6-0.8-0.3-1.3
					C-3715-823.9-3714.4-824.1-3714-823.8z M-3687.8-792.5c-0.4,1-0.9,2-0.9,3.2c0,1.2-1.8,1.2-1.7,0c0-1.5,0.5-2.8,1.1-4.1
					C-3688.8-794.6-3687.3-793.6-3687.8-792.5z M-3678.2-817.7c0.9-0.7,1.8,1,0.9,1.7c-0.8,0.6-1.5,1.1-2.3,1.7
					c-0.9,0.7-1.8-1-0.9-1.7C-3679.7-816.5-3679-817.1-3678.2-817.7z M-3719.9-773.7c-0.2,1.2-1.8,0.7-1.7-0.5
					c0.2-1.9,0.5-3.8,1-5.6c0.3-1.2,2-0.7,1.7,0.5C-3719.3-777.5-3719.6-775.6-3719.9-773.7z M-3726-751.4c-1.1,0-1.1-2,0-2
					c1,0,2,0.3,3,0.6c1.1,0.3,0.6,2.2-0.5,1.9C-3724.3-751.1-3725.1-751.4-3726-751.4z M-3728.2-706.5c-0.4,0.2-0.8,0.4-1.2,0.6
					c-0.8,0.4-1.6,0.8-2.3,1.2c-1.6,0.8-3.2,1.7-4.9,2.5c-3.2,1.7-6.5,3.3-9.8,5c-3.3,1.7-6.6,3.4-9.9,5.1c-1.6,0.8-3.1,1.6-4.7,2.4
					c-1.3,0.7-3,1.9-4.5,2c-0.1,0-0.1-0.1-0.1-0.2c0.6-0.7,1.4-1.1,2.2-1.6c0.8-0.5,1.5-0.9,2.3-1.4c1.6-0.9,3.1-1.9,4.8-2.8
					c3.2-1.8,6.4-3.6,9.6-5.4c3.2-1.8,6.5-3.7,9.8-5.4c1.6-0.8,3.1-1.7,4.6-2.5c0.8-0.4,1.7-0.9,2.5-1.3c0.4-0.2,0.7-0.4,1.1-0.6
					c0.5-0.2,0.9-0.2,1.4-0.3c0.8-0.2,1.2,1,0.6,1.5C-3727.4-707.2-3727.6-706.8-3728.2-706.5z M-3739.9-686.5
					c-0.2-0.5,0.2-1.1,0.6-1.2c0.5-0.2,0.9,0.2,1.1,0.7c0.5,1.3,1.2,2.5,2,3.5c0.8,0.9-0.4,2.3-1.2,1.4
					C-3738.5-683.5-3739.3-684.9-3739.9-686.5z M-3748.4-717.8c-0.8-0.9,0.4-2.3,1.2-1.4l2.3,2.5c0.8,0.9-0.4,2.3-1.2,1.4
					L-3748.4-717.8z M-3771.6-721.9c-1.6,0.5-3.5,1-4.6,2.6c-0.1,0.1-0.1,0-0.1-0.1c1.4-3.3,5.5-4.4,8.3-5.6c2-0.8,4-1.5,6.1-2.1
					c-0.2-2.6,0.4-5.4,0.6-8c0.2-2.8,0.4-5.6,0.5-8.4c0.1-2.8,0.1-5.7,0-8.6c-0.1-2.8-0.4-5.7-0.6-8.5c0-0.3,0.3-0.3,0.4-0.1
					c0.9,2.6,1.2,5.5,1.5,8.3c0.3,2.9,0.4,5.7,0.4,8.6c0,3-0.2,5.9-0.4,8.8c-0.1,1.4-0.2,2.8-0.3,4.2c-0.1,1.1-0.1,2.1-0.3,3.2
					c1.2-0.3,2.5-0.7,3.7-1c4-1,7.9-1.9,11.9-3c1.9-0.5,3.8-1.2,5.8-1.7c1.8-0.5,3.7-1.2,5.6-1.4c0.7-0.1,0.8,0.9,0.3,1.3
					c-1.5,1.2-3.5,2-5.3,2.7s-3.6,1.2-5.4,1.6c-3.8,1-7.5,1.9-11.3,2.8c-3.8,0.9-7.6,1.8-11.3,2.8
					C-3768-723-3769.8-722.5-3771.6-721.9z M-3780.5-774c-1,0.6-1.9-1-0.9-1.7c1.3-0.8,2.6-1.5,4-2.1c1-0.5,1.5,1.4,0.5,1.9
					C-3778.2-775.3-3779.4-774.7-3780.5-774z M-3784-701.7c-1,0.6-1.9-1-0.9-1.7c1.4-0.9,2.9-1.5,4.3-2.2c1-0.5,1.9,1.1,0.9,1.7
					C-3781.2-703.1-3782.7-702.5-3784-701.7z M-3785.6-742.7c0.9,1,2.2,1.5,3.4,2c1,0.5,0.6,2.3-0.5,1.9c-1.5-0.7-3-1.2-4.1-2.5
					C-3787.7-742.2-3786.4-743.6-3785.6-742.7z M-3775.2-798.4c1,0.5,0.6,2.3-0.5,1.9c-1.2-0.5-2.4-0.9-3.5-1.4
					c-1-0.5-0.6-2.3,0.5-1.9C-3777.6-799.3-3776.4-798.9-3775.2-798.4z M-3756.8-820.6c1.1-0.2,1.6,1.7,0.5,1.9
					c-1.4,0.3-2.7,0.6-4,1.1c-1.1,0.5-1.5-1.4-0.5-1.9C-3759.6-820-3758.2-820.3-3756.8-820.6z M-3750.8-766.7
					c-1-0.5-0.1-2.2,0.9-1.7c1.1,0.6,2.1,1,3.3,1.3c1.1,0.3,0.6,2.1-0.5,1.9C-3748.4-765.5-3749.6-766-3750.8-766.7z M-3745-797
					c1.1-0.3,1.5,1.5,0.5,1.9c-1.9,0.6-3.9,0.9-5.8,1.4c-1.1,0.3-1.6-1.6-0.5-1.9C-3748.9-796.2-3746.9-796.5-3745-797z
					 M-3720.7-806.6c1.1,0.2,0.6,2.1-0.5,1.9c-1.2-0.2-2.4-0.2-3.5-0.2c-1.1,0-1.1-2,0-2C-3723.4-806.9-3722.1-806.8-3720.7-806.6z
					 M-3641.4-766.7c-0.4-1.1-8.9-30.4-9-30.4c0,0,0-0.1-0.1-0.1c-0.9-1.5-1.6-3.1-2.2-4.8c-0.6-1.6-1.1-3.3-2-4.8
					c-1-1.7-2.4-3-3.8-4.2c-0.9,0.7-1.7,1.5-2.5,2.3c-0.8,0.9-2-0.5-1.2-1.4c0.7-0.7,1.4-1.4,2.2-2c-0.9-0.6-1.8-1.2-2.7-1.7
					c-3.3-2.1-6.6-4-10.1-5.8c-1.6-0.8-3.2-1.6-4.8-2.3c-0.9-0.4-1.7-0.9-2.6-1.4c0.1-0.7-0.1-1.5-0.6-1.9c-0.4-0.3-0.6-0.5-1-0.7
					c-0.1,0-0.1-0.1-0.2-0.1c0,0,0.1,0,0.2,0.1c0.2,0.1,0.2,0.1,0.1-0.1c0-0.4-0.7-1.2-0.9-1.6c-0.6-1.4-0.7-2.9-1.5-4.1
					c-1.1-1.8-3-2.4-4.8-1.8c-0.2-2.1-0.2-4.3-0.9-6.2c0,0-0.1-0.1-0.1,0c-0.7,1.4-0.8,3-0.9,4.6c-0.1,1.5,0,3.1,0.2,4.6
					c-0.1,0.1-0.2,0.2-0.4,0.3c-0.6,0.4-1.2,0.7-1.8,1c-1.2,0.5-2.5,0.6-3.8,0.7c-3.3,0.2-6.7-0.2-9.9-0.8
					c-3.3-0.6-8.3-1.6-11.2-3.4c-1.9-1.2-3.7-2.7-5.5-4.1c0.6-2.3,0.8-4.8,0.2-6.8c-0.1-0.2-0.4-0.3-0.5,0c-0.4,1.9-0.5,3.8-1.1,5.6
					c0,0,0,0.1,0,0.1c-0.2-0.1-0.3-0.3-0.5-0.4c-0.4-0.3-0.9-0.1-1.2,0.3c-3.8,6.6-9.7,7-16,8.2c-6.9,1.3-13.7,2.7-20.3,5.2
					c-6.3,2.4-12.3,6-17.1,11.2c-1.1,1.2-2.1,2.5-3,3.8c0.9,0.1,1.8,0.3,2.7,0.7c1.1,0.4,0.6,2.2-0.5,1.9c-1.2-0.4-2.3-0.6-3.5-0.7
					c-3.2,5-5.8,10.6-7.9,16.1c-4.2,10.6-6.9,21.9-8.2,33.3c0.7-0.5,1.4-0.9,2.1-1.3c1-0.6,1.9,1.1,0.9,1.7
					c-1.1,0.6-2.2,1.3-3.2,2.1c-0.5,5-0.6,10.1-0.5,15.1c0.2,12,1.7,24.4,5,35.9c1.6,5.6,3.8,11.2,6.9,16c1.4,2.2,3.1,4.1,5,5.7
					c0.9,0.8,1.9,1.5,3,2.1c1.3,0.8,3.1,1,4.3,2.1c0.4,0.4,0.7,0.8,0.9,1.4c-0.1,1-0.1,2,0.1,3c0.1,0.3,0.3,0.6,0.6,0.7
					c0,0.1,0,0.2,0,0.3c0,0,0.1,0,0.1,0c0-0.1,0-0.2,0-0.2c0.1,0,0.2,0,0.3,0c3.3,0,6.6-0.1,9.9-0.2c-0.3-0.9-0.5-1.8-0.8-2.6
					c-0.4-1.2,1.3-1.7,1.7-0.5c0.3,1,0.6,2,0.9,3.1c3.6-0.2,7.1-0.3,10.6-0.5c7.5-0.3,15.1-0.4,22.6-0.5c11.7-0.3,23.5-0.8,35.2-0.3
					c0.4-1,0.9-1.9,1.3-2.8c0.5-1.1,2-0.1,1.5,1c-0.3,0.7-0.6,1.3-0.9,2c2.4,0.1,4.8,0.3,7.1,0.6c4,0.4,8,1.2,12.1,1.6
					c4.1,0.5,8.1,0.4,12.2-0.4c0.7-0.1,1.2-0.6,1.3-1.2c0,0,0,0,0,0c0.2-0.3,0.4-0.5,0.6-0.7c0.2-0.2,0.5-0.3,0.8-0.5
					c0.6-0.2,1.2-0.4,1.8-0.5c0.7-0.1,1.3-0.1,2-0.2c0.6-0.1,1.1-0.2,1.7-0.3c1-0.3,1.9-0.6,2.9-1.1c0.8-0.4,1.6-1,2.2-1.6
					c1.4-1.2,2.7-2.7,3.8-4.2c0.6-0.9,1.2-1.8,1.8-2.8c0.9-1.7,1.7-3.5,2.6-5.2c0.3-0.5,0.6-1.1,0.8-1.6c-1.6-0.5-3.2-1-4.9-1
					c-1.1,0-1.1-2,0-2c1.9,0,3.8,0.5,5.6,1.1c0.1-0.3,0.2-0.5,0.2-0.8c0.2-0.6,0.4-1.1,0.5-1.7c0.1-0.3,0.2-0.5,0.3-0.8
					c0.2-0.9,0.4-1.8,0.6-2.7c0.4-1.5,0.7-2.9,0.9-4.4c0.2-1,0.3-2,0.4-3c0.3-2.4,0.6-4.9,0.6-7.3c0-1.5-0.1-3-0.3-4.5
					c-0.1-1-0.2-2-0.3-3.1c-0.2-1.5-0.4-3-0.7-4.5c-0.2-1-0.5-2-0.7-3c-0.6-2.1-1.3-4.2-2.1-6.2c0-0.1-0.3-0.4-0.4-0.4
					c-0.1,0-0.2,0.1-0.2,0.2c0,0,0,0,0,0c-0.1-0.1-0.1-0.2-0.1-0.3c0-0.1-0.2-0.3-0.3-0.3c0,0,0,0,0,0c0,0,0.1-0.1,0.1-0.1
					c0.8-1,1.3-2.4,1.9-3.6c0.5-1,0.9-2,1-3.2c0.1-1,0-2-0.6-2.7c-0.6-0.9-1.8-1.3-1.1-2.6c0.8-1.5,1.8-2.8,0.8-4.5
					c-0.6-0.9-1.4-1.3-2.1-2.1c-0.8-0.9-1.1-2-1.1-3.2c0.1,0,0.1,0,0.1-0.1C-3640.3-762.3-3640.7-764.7-3641.4-766.7z"/>
				<path class="st2" d="M-3668.3-755.4l2.5,5.3l7.3-6.3l-0.9-1.5l-0.1-3.4l2.1-2.8l6-2.5l7.4-1.6l-4-18.6l-4.4-12l-11.1-0.5
					c0,0-8.6,11.6-8.3,12.7s-4.5,12.7-4.5,12.7l1.4,2.8l2.5,1l2.1,1.4l2.9,4.2l2.8,4.9l0.8,2.5L-3668.3-755.4z"/>
				<path class="st2" d="M-3679.6-760c0,0,9.2,2.6,9.4,2.9c0.2,0.3-0.4-2.8-0.4-2.8l-2.5-2c0,0-3.6,0.3-3.8,0.4
					C-3677.1-761.3-3679.6-760-3679.6-760z"/>
			</g>
		</g>
	</g>
	<g transform="matrix(0.4441,0,0,0.39775,-157.329,14.655)">
		<path class="st3" d="M417.7,125.6c0,0-30-6.4-48.4-45.9c-14.5-30.9,59.8-1.9,65.2,0.6c5.5,2.6,29.1,18,30.5,19.5
			c1.4,1.5-5-1.8-9.2,2.1c-4.8,4.4-3.1,6.2-6.3,8.9C446.3,113.5,434.4,121.1,417.7,125.6z"/>
	</g>
	<g transform="matrix(0.4441,0,0,0.39775,-157.329,14.655)">
		<path class="st3" d="M441.7,134.1c-0.1,0,3.3-4.9,7.5-5.1c4.2-0.3,7.7,2.1,11.2-3.6c3.5-5.7,2-0.4,4.2-2s3.7-6.4,4.2-5.5
			c0.6,0.9,0.9-0.1,1.9,1.2c1,1.3,1.3,2.5,1.5,4.3c0.3,3.3,8.6,0.6,11.5,0.1c2.7-0.4,3.9,2.6,3.9,2.6s26.9-8.5,28.8-6.5
			s3.4,10.4,0.3,22.7c-3.1,12.3-6.3,25.5-9.2,24.5c-2.9-0.9-17.6-19.8-20.7-26.8c-0.9-2-1.3-1.5-1.5-1.6
			C485,138.3,462.4,141.1,441.7,134.1z"/>
	</g>
	<g transform="matrix(0.191972,0,0,0.260497,982.353,14.655)">
		<g transform="matrix(2.31336,0,0,1.52689,-5936.71,0)">
			<path class="st1" d="M487.4,137.7c0.2-0.1,0.4-0.4,0.1-0.6c-0.1-0.2-0.2-0.2-0.4-0.1c-0.1,0-0.2-0.1-0.4-0.1
				c-0.1,0-0.1,0.1-0.2,0.1c-0.6,0.3-1.8,0.9-3.1,1c-1.5,0.2-3,0.3-4.5,0.3c-1.5,0-3,0-4.5-0.1c-3.7-0.1-8.4-0.7-13.2-1.4
				c-6.2-0.9-12.6-2.1-17.7-3.2c-0.5-0.1-0.9-0.3-1.4-0.3c-0.2,0-0.4,0.1-0.6,0.1c-0.3-0.1-0.6,0.1-0.6,0.5
				c-0.1,0.3,0.1,0.6,0.4,0.7c0.2,0.1,0.2,0.3,0.4,0.4c0.4,0.2,0.8,0.2,1.1,0.3c4.2,1,9.5,1.9,14.8,2.8c6,0.9,12.1,1.6,16.7,1.7
				c1.8,0,3.7,0,5.5-0.1c1.2-0.1,2.5-0.2,3.7-0.4c1.4-0.2,2.8-0.9,3.4-1.2c0.1-0.1,0.2-0.1,0.2-0.1
				C487.3,137.9,487.4,137.8,487.4,137.7z"/>
		</g>
		<g transform="matrix(2.31336,0,0,1.52689,-5936.71,0)">
			<path class="st1" d="M416.5,125.4c0,0-0.1,0-0.1-0.1c-0.1-0.1,0-0.2-0.2-0.3c0,0-0.1-0.1-0.2-0.1c-0.8-0.3-1.5-0.6-2.2-0.9
				c-8.7-3.8-16.3-8.4-23-14.6c-7.1-6.5-13.2-14.7-18.6-25.4c-1.1-2.2-2.8-5.4-3.5-8.5c-0.5-2-0.6-4,0.1-5.7
				c1.2-2.6,4.8-3.4,9.3-3.6c9.2-0.3,21.7,2.7,25.2,3.7c10,2.8,20.9,6.7,31.9,12.1c9,4.4,17.9,9.9,26.5,16.3c0.5,0.3,0.9,0.7,1.4,1
				c0.5,0.3,1,0.6,1.5,0.9c0.2,0.2,0.6,0.1,0.7-0.1c0.2-0.3,0.1-0.6-0.1-0.8c-0.4-0.4-0.8-0.9-1.2-1.3c-0.4-0.4-0.9-0.8-1.4-1.1
				c-8.5-6.8-17.7-12.1-26.7-16.6c-11-5.4-22-9.3-32.1-12.2c-3.6-1-16.3-4.1-25.7-3.7c-5.1,0.2-9.2,1.6-10.6,4.5
				c-0.9,2-0.8,4.4-0.2,6.8c0.8,3.3,2.5,6.6,3.7,8.9c5.5,10.9,11.7,19.2,19,25.7c6.8,6.2,14.6,10.8,23.5,14.6
				c0.7,0.3,1.5,0.6,2.2,0.9c0.1,0,0.1,0.1,0.2,0.1c0.1,0,0.2-0.1,0.3-0.1c0.1,0,0.1,0,0.2,0c0.2,0.1,0.4,0,0.4-0.2
				C416.7,125.7,416.6,125.4,416.5,125.4z"/>
		</g>
		<g transform="matrix(2.31336,0,0,1.52689,-5936.71,0)">
			<path class="st1" d="M485.5,123.2L485.5,123.2c0,0.1-0.1,0.2-0.2,0.2c0,0-0.1-0.1-0.1-0.1c-0.1-0.1-0.3-0.1-0.4,0
				c-0.1,0.1-0.1,0.2-0.1,0.4c0,0.1,0.1,0.1,0.1,0.2c0,0-0.1,0.1-0.1,0.1l-0.1,0.1v0c0,0.1,0,0.1,0.1,0.1c0.2,0.3,0.5,0.7,0.8,1.1
				c0.4,0.4,0.7,0.8,1.1,1.3c0.2,0.3,0.5,0.5,0.7,0.8c0,0.1,0.1,0.1,0.1,0.2c0.2,0.1,0.2,0.1,0.1,0c0,0-0.1-0.1,0.1-0.2
				c0.2,0.3,0.5,0.3,0.7,0.1c0.2-0.2,0.3-0.6,0.1-0.8c0.1-0.1,0.1-0.1,0.1-0.1c0,0,0,0.2,0-0.1c0,0,0-0.1,0-0.1
				c-0.2-0.4-0.5-0.7-0.9-1c-0.7-0.6-1.5-1.2-2-1.8C485.7,123.3,485.6,123.2,485.5,123.2L485.5,123.2z"/>
		</g>
		<g transform="matrix(2.31336,0,0,1.52689,-5936.71,0)">
			<path class="st1" d="M489.6,130.2L489.6,130.2C489.6,130.2,489.6,130.2,489.6,130.2c0.1,0.4,0.2,0.8,0.3,1.3
				c0.1,0.3,0.1,0.6,0.1,0.9c0.1,0.7,0,1.5-0.2,2.2c-0.1,0.5-0.4,0.9-0.6,1.3c-0.1,0.2-0.2,0.3-0.3,0.5c-0.4,0.3-0.5,0.9-0.2,1.4
				c0.3,0.4,0.8,0.5,1.2,0.2c0.2-0.1,0.5-0.3,0.6-0.5c0.4-0.4,0.6-1,0.8-1.6c0.4-1.2,0.4-2.6,0.1-3.7c-0.1-0.4-0.2-0.8-0.4-1.2
				c-0.1-0.4-0.3-0.8-0.5-1.1c-0.1-0.1-0.3-0.2-0.4-0.3c0,0,0-0.1,0-0.1c0,0,0-0.1,0-0.1c0,0.1,0,0.1,0.1,0.2c0,0.1-0.1,0.2,0,0.3
				c0,0.1-0.1,0-0.1,0.1c0,0.1-0.1,0-0.1,0c0.1,0.1-0.1-0.1-0.1,0c0,0.1,0,0,0,0c0.1-0.1,0.2-0.3,0.1-0.5s-0.3-0.2-0.4-0.1
				c-0.1-0.1,0,0.1-0.1,0c-0.2-0.2,0,0.1-0.2,0.1c-0.1,0,0,0.1-0.1,0.1c0,0,0,0.1,0,0.2c-0.1,0.1,0,0.3,0.1,0.6
				C489.5,130.1,489.8,130.2,489.6,130.2C489.6,130.3,489.6,130.3,489.6,130.2z"/>
		</g>
		<g transform="matrix(2.31336,0,0,1.52689,-5936.71,0)">
			<path class="st1" d="M487.5,140.8c0-0.2,0-0.4-0.1-0.4c-0.2-0.1-0.4,0-0.4,0.2c-0.1,0.1-0.1,0.3-0.1,0.8c0,0.1,0.1,0.3,0.2,0.5
				c0.9,1.6,3.6,5.1,4,5.8c1.1,1.8,6,9.9,10.3,15.1c1.7,2.1,3.4,3.7,4.6,4.4c0.7,0.4,1.4,0.4,1.9,0.2c1.4-0.6,2.4-1.8,3.1-3.3
				c1-2,1.6-4.4,2.1-6.2c1-3.4,4.7-16.8,5.6-26.8c0.5-5.7-0.1-10.3-2.3-11.7c-1.1-0.8-3.2-0.8-5.9-0.4c-5.1,0.9-12.1,3.4-17.2,4.8
				c-1.1,0.3-2.1,0.5-3,0.7c-0.5,0.1-0.9,0.3-1.2,0.4c-0.3,0-0.5,0.3-0.5,0.6c0,0.3,0.2,0.5,0.5,0.5c0.4,0,0.9,0.1,1.4,0
				c0.9-0.1,2-0.4,3.1-0.7c5.1-1.3,12.1-4,17.1-4.9c2.2-0.4,4.1-0.5,5,0.2c0.7,0.5,1.1,1.3,1.4,2.5c0.5,2,0.5,4.8,0.2,7.9
				c-0.9,9.9-4.6,23.1-5.6,26.5c-0.5,1.7-1,4.1-2,6c-0.6,1.2-1.3,2.1-2.4,2.6c-0.4,0.2-0.9-0.1-1.5-0.5c-1.1-0.7-2.3-2-3.7-3.6
				c-4.3-5.1-9.2-13.2-10.3-14.9c-0.5-0.7-3.1-4.3-4.1-5.8c-0.1-0.1-0.2-0.3-0.2-0.4c-0.1-0.1-0.2-0.1-0.2-0.1s0,0,0,0.1
				C487.6,140.7,487.6,140.8,487.5,140.8z"/>
		</g>
		<g transform="matrix(2.31336,0,0,1.52689,-5936.71,0)">
			<path class="st1" d="M491.5,137.7c0.1,0.1,0.2,0.2,0.2,0.3c0.1,0.2,0.1,0.4,0.2,0.6c0,0.1,0.1,0.1,0.1,0.2
				c0.5,0.6,1.1,1.3,1.9,2.1c1.6,1.6,3.7,3.6,5.8,5.4c2.2,2,4.3,3.9,5.6,5.4c0.2,0.2,0.4,0.2,0.6,0c0.2-0.2,0.2-0.5,0-0.7
				c-1.3-1.7-3.2-3.9-5.4-6c-1.1-1.1-2.3-2.2-3.5-3.2c-1.3-1.2-2.5-2.3-3.5-3.2c-0.4-0.4-0.7-0.7-1-1c-0.2-0.1-0.4-0.1-0.5-0.2
				c-0.1-0.1-0.1-0.2-0.2-0.3c-0.1-0.2-0.3-0.2-0.5-0.1C491.4,137.3,491.4,137.6,491.5,137.7z"/>
		</g>
		<g transform="matrix(2.31336,0,0,1.52689,-5936.71,0)">
			<path class="st1" d="M493.1,134.8L493.1,134.8c-0.3-0.2-0.4-0.4-0.5-0.5c-0.6-0.4-0.9,0-1.1,0.5c0,0.2,0,0.4,0.2,0.7
				c0.2,0.2,0.8,0.5,0.9,0.6c2.1,1.2,4.3,2.2,6.5,3.1c2.3,0.9,4.7,1.8,7,2.6c1,0.3,2,0.6,3,0.9c0.3,0.1,0.6-0.1,0.7-0.4
				s0-0.6-0.3-0.7c-0.8-0.4-1.5-0.8-2.3-1.1c-3-1.3-6.2-2.3-9.3-3.5C496.4,136.3,494.8,135.6,493.1,134.8L493.1,134.8z M492.5,135.4
				c-0.1,0-0.2-0.1-0.2,0C492.3,135.6,492.4,135.6,492.5,135.4z"/>
		</g>
		<g transform="matrix(2.31336,0,0,1.52689,-5936.71,0)">
			<path class="st1" d="M492.7,132.3c0.1,0,0.1,0,0.2,0c0.6-0.1,1.5-0.1,2.4-0.1c1.2,0,2.4-0.1,2.5-0.1c2.9-0.2,5.8-0.4,8.6-0.6
				c1.2-0.1,2.5-0.2,3.7-0.4c0.4,0,0.7-0.4,0.6-0.8s-0.3-0.7-0.7-0.7c-1.2,0-2.5,0-3.7,0.1c-2.9,0.1-5.8,0.4-8.7,0.7
				c-0.2,0-3.5,0.2-5,0.5c-0.2,0-0.3,0-0.4,0.1c-0.4,0.3-0.5,0.5-0.5,0.6c0,0.2-0.1,0.7,0.6,0.9
				C492.5,132.5,492.6,132.4,492.7,132.3z"/>
		</g>
		<g transform="matrix(2.31336,0,0,1.52689,-5936.71,0)">
			<path class="st1" d="M409.1,72.8c0.1-0.2,0.1-0.4-0.1-0.5c-0.1-0.1-0.3-0.1-0.5,0.1c-0.3,0-0.2,0.2-0.4,0.4c0,0.1,0,0.1,0,0.2
				c0,0.1,0,0.2,0,0.3c0,0.2,0.1,0.5,0.3,0.8c0.1,0.3,0.4,0.5,0.5,0.8c0.3,1.6,0.5,3.2,0.6,4.8c0.1,1.6,0.1,3.2-0.2,4.7
				c-0.7,4.9-2.5,10.1-5.2,14.6c-2.3,4.1-5.3,7.6-8.7,10.3c-0.4,0.3-0.8,0.6-1.1,0.9c-0.3,0.2-0.4,0.6-0.2,0.9s0.5,0.4,0.9,0.3
				c0.5-0.2,0.9-0.5,1.3-0.8c3.8-2.5,6.9-6.3,9.4-10.6c2.8-4.8,4.6-10.2,5.4-15.4c0.2-1.7,0.3-3.4,0.1-5.2c-0.1-1.7-0.4-3.4-0.8-5
				c-0.1-0.5-0.5-1-0.8-1.4c0-0.1-0.2-0.1-0.1-0.1c0-0.1-0.2,0-0.1,0.1C409.3,73,409.2,72.9,409.1,72.8z"/>
		</g>
		<g transform="matrix(2.31336,0,0,1.52689,-5936.71,0)">
			<path class="st1" d="M392.5,82.6c0-0.2-0.1-0.4-0.1-0.5c-0.2-0.5-0.7-0.7-1.2-0.6c-0.9,0.2-1.9,1.3-1.6,2.5
				c0.3,0.9,1,1.2,1.6,1.1c0.6-0.1,1.1-0.6,1.3-1.3C392.7,83.3,392.6,82.9,392.5,82.6z"/>
		</g>
	</g>
</g>
</svg>
