<?xml version="1.0" encoding="utf-8"?>
<!-- Generator: Adobe Illustrator 24.2.0, SVG Export Plug-In . SVG Version: 6.00 Build 0)  -->
<svg version="1.1" id="图层_1" xmlns="http://www.w3.org/2000/svg" xmlns:xlink="http://www.w3.org/1999/xlink" x="0px" y="0px"
	 viewBox="0 0 85.04 85.04" style="enable-background:new 0 0 85.04 85.04;" xml:space="preserve">
<style type="text/css">
	.st0{fill-rule:evenodd;clip-rule:evenodd;}
</style>
<g>
	<g transform="matrix(0.191972,0,0,0.260497,446.149,-22.9004)">
		<g transform="matrix(2.31336,0,0,1.52689,-2954.48,0)">
			<path class="st0" d="M297.73,240.82l0.01-0.37c0.02-0.41,0.1-1.02,0.1-1.69c-0.01-1.1-0.18-2.26-0.17-2.36
				c0.22-2.26,0.26-4.51,0.18-6.76c-0.11-3.33-0.47-6.66-0.82-10c-0.27-2.63-1.37-17.3-0.86-27.91c0.19-3.91,0.6-7.25,1.33-9.17
				c0.23-0.62,0.44-1.08,0.78-1.17c3.99-1.12,8.08-1.53,12.2-1.64c6.26-0.16,12.59,0.38,18.75,0.44c4.36,0.03,21.46-1.77,33.35,0.36
				c3.11,0.56,5.86,1.38,7.88,2.61c1.63,0.99,2.77,2.22,3.09,3.88c0.54,2.85,0.7,5.75,0.66,8.68c-0.08,7-1.25,14.15-1.14,21.02
				c0.13,7.05-0.15,14.04-0.05,21.08c0.01,0.79,0.06,1.56,0.1,2.35c-0.01,0.53,0.37,0.97,0.84,0.98c0.47,0.01,0.87-0.41,0.88-0.94
				c0.05-0.63,0.13-1.25,0.16-1.88c0.14-2.5,0.11-5.01,0.15-7.51c0.08-4.7,0.12-9.39,0.07-14.11c-0.09-6.85,1.12-13.97,1.22-20.95
				c0.04-3.12-0.13-6.21-0.71-9.24c-0.44-2.31-1.92-4.16-4.2-5.54c-2.21-1.34-5.2-2.27-8.59-2.87c-12.01-2.13-29.28-0.3-33.69-0.31
				c-6.18-0.01-12.54-0.55-18.83-0.29c-4.26,0.17-8.49,0.71-12.6,1.95c-0.74,0.23-1.43,1.02-1.91,2.39
				c-0.71,2.07-1.07,5.64-1.21,9.81c-0.37,10.72,0.63,25.51,0.92,28.18c0.35,3.3,0.7,6.58,0.83,9.88c0.08,2.17,0.06,4.35-0.14,6.53
				c-0.01,0.11,0.01,1.44,0.22,2.67c0.12,0.66,0.32,1.25,0.43,1.65c0.07,0.23,0.11,0.38,0.14,0.45c0.08,0.2,0.19,0.27,0.23,0.28
				c0.12,0.02,0.36,0.08,0.41-0.23C297.76,240.98,297.76,240.89,297.73,240.82z M297.49,240.59c-0.07-0.03-0.14-0.02-0.22,0.04
				C297.34,240.59,297.41,240.57,297.49,240.59z"/>
		</g>
		<g transform="matrix(2.31336,0,0,1.52689,-2954.48,0)">
			<path class="st0" d="M297.46,242.15c0.2,0.05,0.44,0.15,0.77,0.18c0.39,0.04,0.87-0.08,1.38-0.07c0.53,0.01,1.09,0.13,1.66,0.17
				c1.7,0.09,3.39,0.04,3.85,0.06c1.27,0.03,2.54,0.08,3.81,0.15c5.11,0.26,10.21,0.72,15.33,0.86c4.82,0.12,30.95,1.28,50.19,0.71
				c8.76-0.26,16.11-0.89,19.42-2.09c0.54-0.2,1-0.39,1.33-0.64c0.42-0.33,0.68-0.69,0.78-1.05c0.14-0.32,0.03-0.71-0.26-0.87
				c-0.29-0.16-0.63-0.03-0.78,0.29c-0.08,0.13-0.27,0.14-0.46,0.25c-0.28,0.15-0.62,0.32-1.05,0.47
				c-3.26,1.13-10.45,1.66-19.02,1.9c-19.21,0.52-45.31-0.55-50.11-0.67c-4.46-0.09-8.92-0.44-13.38-0.65
				c-1.92-0.09-3.85-0.15-5.77-0.17c-0.46,0-2.16-0.01-3.88,0.12c-0.57,0.04-1.12,0.18-1.65,0.2c-0.51,0.02-0.98-0.09-1.38-0.05
				c-0.32,0.03-0.57,0.13-0.76,0.18c-0.18,0-0.32,0.16-0.33,0.36C297.14,241.99,297.28,242.15,297.46,242.15z"/>
		</g>
		<g transform="matrix(2.31336,0,0,1.52689,-2954.48,0)">
			<path class="st0" d="M373.9,239.22c-0.11-0.03-0.23-0.02-0.34,0.01c-0.37,0.12-0.58,0.56-0.47,0.97c0,0.37,0.1,0.65,0.23,0.93
				c0.06,0.13,0.17,0.23,0.26,0.33c0.97,1.01,2.85,0.83,4.09-0.35c1.17-1.11,1.83-3.01,0.56-5.27c-0.51-0.9-1.05-1.3-1.52-1.43
				c-0.56-0.15-1.09,0-1.56,0.42c-0.76,0.69-1.39,2.19-1.56,3.16c-0.02,0.09-0.03,0.17-0.03,0.24c0.03,0.51,0.1,0.75,0.19,0.83
				C373.8,239.12,373.85,239.18,373.9,239.22z M374.15,239.35c0.12,0.1,0.21,0.24,0.26,0.41c0.07,0.11,0.2,0.1,0.28,0.18
				c0.08,0.09,0.17,0.15,0.28,0.18c0.63,0.2,1.49-0.22,1.94-0.96c0.36-0.59,0.4-1.4-0.1-2.34c-0.29-0.54-0.46-0.77-0.71-0.58
				c-0.59,0.46-0.99,1.59-1.29,2.21c-0.06,0.12-0.13,0.18-0.18,0.26c-0.05,0.08-0.14,0.12-0.14,0.12l-0.01-0.01
				c0.02,0.12-0.01,0.26-0.1,0.35c-0.03,0.1-0.12,0.09-0.16,0.13C374.19,239.33,374.17,239.34,374.15,239.35z M374.24,238.54
				c0.03,0.01,0.07,0.03,0.1,0.06C374.32,238.55,374.29,238.54,374.24,238.54z M374.04,238.54l-0.02,0c-0.02,0-0.03,0.01-0.04,0.04
				l0.03-0.01c0.01,0,0.02-0.01,0.03-0.01L374.04,238.54z"/>
		</g>
		<g transform="matrix(2.31336,0,0,1.52689,-2954.48,0)">
			<path class="st0" d="M380.21,235.37l0.03,0.01c0.17,0.08,0.36-0.01,0.43-0.19c0.07-0.18-0.01-0.4-0.17-0.48l-0.03-0.01
				c-0.16-0.08-0.35,0.01-0.42,0.19C379.97,235.07,380.05,235.29,380.21,235.37z"/>
		</g>
		<g transform="matrix(2.31336,0,0,1.52689,-2954.48,0)">
			<path class="st0" d="M376.19,231.24c-0.02-0.19-0.18-0.33-0.35-0.31c-0.06-0.04-0.08,0.04-0.13,0.03
				c-0.03-0.01-0.03,0.05-0.07,0.05c-0.16,0.01-0.04,0.19-0.12,0.36c-0.06,0.12,0.14,0.3,0.17,0.41c0.07,0.2,0.17,0.26,0.37,0.41
				c0.1,0.08,0.24,0.08,0.38,0.1c0.73,0.12,1.85-0.16,2.31-0.13l5.63,0.35c1.66,0.13,4.3,0.01,6.75,0.18
				c1.55,0.1,3.02,0.31,4.07,0.88c1.36,0.73,1.71,2.07,0.73,4.72c-0.17,0.46-0.32,0.97-0.56,1.52c-0.1,0.18-0.06,0.42,0.1,0.54
				c0.16,0.12,0.37,0.07,0.48-0.11c0.39-0.48,0.72-0.91,0.98-1.36c2.02-3.51,0.92-5.68-1-6.87c-1.19-0.74-2.89-1.11-4.68-1.27
				c-2.46-0.21-5.1-0.01-6.76-0.13c-1.14-0.07-2.29-0.13-3.43-0.16c-0.77-0.02-1.53-0.01-2.3,0c-0.37,0.01-1.16,0.2-1.84,0.31
				c-0.22,0.03-0.42,0.04-0.59,0.06c-0.1,0.02-0.08,0.17-0.16,0.18c0.02,0-0.03,0.07,0,0.08c0.04,0.01,0,0.08,0.03,0.1
				C376.21,231.18,376.2,231.21,376.19,231.24z M376.06,231.59c-0.01,0-0.02,0.01-0.03,0.02l-0.01,0.01c0.03,0,0.05,0,0.05-0.03
				l0-0.01L376.06,231.59z M376.2,231.27c0,0.06-0.01,0.11-0.02,0.16C376.22,231.38,376.25,231.34,376.2,231.27L376.2,231.27z"/>
		</g>
		<g transform="matrix(2.31336,0,0,1.52689,-2954.48,0)">
			<path class="st0" d="M379.31,235.68c0.18,0.07,0.25,0.17,0.44,0.2c0.29,0.04,0.59-0.06,0.91-0.09c1.39-0.16,3.04-0.26,4.78-0.29
				c2.43-0.04,5.04-0.01,7.34-0.08c0.15,0,0.31,0,0.46-0.02c0.37-0.05,0.71-0.16,1.06-0.25c0.21,0,0.37-0.2,0.37-0.43
				c-0.01-0.23-0.18-0.42-0.39-0.41c-0.35-0.07-0.68-0.17-1.05-0.21c-2.94-0.32-6.5-0.31-9.54-0.18c-1.36,0.06-2.64,0.16-3.7,0.46
				c-0.16,0.05-0.32,0.07-0.46,0.16c-0.19,0.14-0.25,0.27-0.39,0.45c-0.17,0.05-0.27,0.25-0.23,0.44
				C378.96,235.62,379.14,235.73,379.31,235.68z"/>
		</g>
		<g>
			<g transform="matrix(2.87515,0,0,1.87858,-3550.9,-1261.06)">
				<path class="st0" d="M474.98,835.11c-0.05,0.03-0.1,0.07-0.13,0c-0.01-0.03-0.12,0.02-0.08,0.01c0.03,0-0.02,0.06-0.02,0.09
					c0.03,0.18,0.08,0.41,0.09,0.43c0.07,0.41,0.1,0.89,0.06,1.34c-0.02,0.26-0.07,0.52-0.18,0.74c-0.09,0.19-0.21,0.34-0.35,0.47
					c-0.35,0.32-0.79,0.54-1.22,0.78c-0.55,0.31-1.05,0.67-1.38,1.2c-0.35,0.58-0.4,1.18-0.22,1.66c0.19,0.48,0.6,0.86,1.26,0.9
					l0.95-0.17c0.19-0.02,0.33-0.22,0.31-0.44c-0.02-0.22-0.19-0.37-0.39-0.35l-0.8-0.07c-0.22-0.03-0.38-0.13-0.43-0.29
					c-0.06-0.17,0.01-0.38,0.14-0.58c0.25-0.37,0.64-0.59,1.04-0.81c0.5-0.27,1.01-0.54,1.41-0.92c0.25-0.23,0.46-0.5,0.61-0.83
					c0.16-0.36,0.25-0.77,0.28-1.2c0.03-0.56-0.05-1.16-0.17-1.66c-0.01-0.04-0.09-0.49-0.27-0.68c-0.31-0.33-0.54-0.42-0.66-0.2
					c-0.13,0.08-0.19,0.26-0.12,0.41C474.76,835.05,474.87,835.12,474.98,835.11z"/>
			</g>
			<g transform="matrix(2.87515,0,0,1.87858,-3550.9,-1261.06)">
				<path class="st0" d="M472.16,842.07l-0.71,0.18c-0.32,0.16-0.57,0.38-0.78,0.66c-0.21,0.28-0.34,0.63-0.41,1.03
					c-0.2,1.07,0.07,2,0.61,2.69c0.51,0.66,1.29,1.1,2.18,1.23c1.14,0.15,2.41,0.1,3.64-0.18c1.25-0.29,2.44-0.82,3.41-1.59
					c0.56-0.45,1.29-1.78,1.39-2.89c0.07-0.84-0.15-1.63-0.85-1.9c-0.14-0.05-0.29-0.09-0.46-0.08c-0.27-0.05-0.52,0.15-0.57,0.45
					c-0.05,0.3,0.13,0.59,0.4,0.64c0.09,0.03,0.14,0.1,0.2,0.15c0.26,0.2,0.19,0.58,0.1,0.97c-0.16,0.66-0.54,1.35-0.87,1.6
					c-0.84,0.67-1.89,1.11-2.98,1.36c-1.11,0.26-2.25,0.33-3.28,0.2c-0.62-0.06-1.17-0.33-1.54-0.76c-0.37-0.43-0.57-1.02-0.48-1.72
					c0.03-0.24,0.1-0.45,0.2-0.63c0.11-0.19,0.25-0.38,0.44-0.52c0.12-0.09,0.42-0.21,0.59-0.33c0.12-0.09,0.2-0.17,0.24-0.26
					c0.08-0.15,0.03-0.34-0.1-0.43C472.41,841.87,472.24,841.92,472.16,842.07z"/>
			</g>
			<g transform="matrix(2.87515,0,0,1.87858,-3550.9,-1261.06)">
				<path class="st0" d="M475.78,834.94c-0.03-0.08-0.06-0.14-0.06-0.14c-0.1-0.12-0.27-0.15-0.39-0.06
					c-0.13,0.09-0.18,0.27-0.13,0.42l0.06,0.37l0.51,1.18c0.32,0.66,0.63,1.31,0.77,1.97c0.08,0.4,0.05,0.79-0.07,1.23
					c-0.05,0.18-0.05,0.38-0.13,0.58c-0.12,0.18-0.08,0.45,0.09,0.58c0.17,0.13,0.39,0.09,0.51-0.09c0.17-0.15,0.31-0.29,0.41-0.47
					c0.29-0.49,0.3-1.05,0.25-1.55c-0.08-0.94-0.59-1.83-1.09-2.73l-0.56-1.07l-0.16-0.23L475.78,834.94z M475.29,835.17
					c0,0.03,0,0.06,0.01,0.09c0,0.01,0,0.02,0.01,0.03C475.27,835.25,475.28,835.21,475.29,835.17z M475.36,834.97
					c-0.03,0.03-0.06,0.06-0.06,0.11C475.31,835.04,475.33,835,475.36,834.97z"/>
			</g>
			<g transform="matrix(2.87515,0,0,1.87858,-3550.9,-1261.06)">
				<path class="st0" d="M477.12,839.42c-0.12,0-0.23,0.1-0.25,0.23c-0.12,0.3,0.09,0.37,0.24,0.43c0.07,0.02,0.48-0.11,0.48-0.11
					s-0.03,0.02-0.04,0.01l0.68,0.2c0.17,0.08,0.26,0.34,0.37,0.58c0.13,0.31,0.22,0.65,0.25,0.89c0.06,0.34-0.15,0.63-0.39,0.91
					c-0.31,0.34-0.72,0.6-1.1,0.78c-0.11,0.05-0.2,0.1-0.3,0.15c-0.09,0.05-0.11,0.13-0.19,0.18c-0.19,0-0.34,0.17-0.34,0.38
					s0.15,0.38,0.34,0.38c0.11,0.07,0.2,0.1,0.34,0.13c0.15,0.03,0.31-0.02,0.48-0.07c0.55-0.15,1.12-0.55,1.55-1.02
					c0.54-0.59,0.82-1.34,0.67-2.07c-0.09-0.38-0.28-0.96-0.57-1.4c-0.24-0.38-0.53-0.67-0.85-0.76c-0.16-0.05-0.33-0.09-0.5-0.09
					c-0.17,0-0.33,0.01-0.49,0.04C477.42,839.2,477.22,839.35,477.12,839.42z"/>
			</g>
		</g>
	</g>
	<g transform="matrix(0.191972,0,0,0.260497,498.365,-18.3205)">
		<g transform="matrix(2.31336,0,0,1.52689,-3226.47,-17.5812)">
			<path class="st0" d="M347.68,134.48c0,0.02,0,0.03,0,0.05c-0.06,0.13-0.13,0.02-0.21,0.19c-0.11,0.22-0.02,0.59,0,0.94
				c0.17,0.99,0.21,2,0.19,3c-0.02,1.02-0.1,2.04-0.24,3.05c-0.27,2.45-0.68,4.81-1.24,7.11c-0.39,1.62-0.91,3.18-1.44,4.78
				c-0.22,0.68-0.41,1.37-0.65,2.06c-0.17,0.37-0.03,0.82,0.3,1c0.33,0.18,0.73,0.04,0.9-0.33c0.3-0.52,0.6-1.02,0.85-1.56
				c0.59-1.27,1.02-2.61,1.41-3.95c0.83-2.85,1.31-5.79,1.63-8.87c0.09-1.1,0.14-2.21,0.09-3.32c-0.06-1.12-0.22-2.23-0.5-3.32
				c-0.09-0.24-0.1-0.51-0.2-0.67c-0.1-0.17-0.17-0.04-0.24-0.17c-0.04-0.07-0.01-0.14-0.02-0.17c-0.06-0.34-0.32-0.32-0.41-0.3
				c-0.05,0.01-0.15,0.05-0.22,0.21C347.66,134.3,347.65,134.39,347.68,134.48z M348.02,134.72c0.09,0,0.2-0.04,0.26-0.21
				C348.23,134.63,348.13,134.71,348.02,134.72z"/>
		</g>
		<g transform="matrix(2.31336,0,0,1.52689,-3226.47,-17.5812)">
			<path class="st0" d="M366.41,149.42c0.01,0,0-0.04,0-0.06L366.41,149.42L366.41,149.42c-0.12-0.03,0.1-0.24,0.15-0.37
				c0.06-0.17,0.16-0.33,0.14-0.49c-0.02-0.14,0.02-0.17-0.06-0.27c-0.17-0.21-0.01-0.14-0.21-0.29c-0.05-0.04-0.03-0.05-0.06-0.1
				c-0.06-0.11-0.04-0.25-0.11-0.37c-0.09-0.17-0.29-0.22-0.44-0.12c-0.15,0.1-0.2,0.33-0.11,0.5c-0.04,0.23-0.27-0.13-0.43,0.03
				c-0.05,0.05-0.11,0.11-0.16,0.18c-0.26,0.41-0.42,0.92-0.4,1.37c0.03,0.52,0.44,0.91,0.9,0.88
				C366.07,150.33,366.41,149.91,366.41,149.42z"/>
		</g>
		<g transform="matrix(2.31336,0,0,1.52689,-3226.47,-17.5812)">
			<path class="st0" d="M367.91,149.71c-0.03,0.28-0.31,0.5-0.59,0.75c-0.54,0.47-1.23,0.85-1.56,1.04
				c-0.76,0.51-1.63,0.84-2.52,1.1c-1.41,0.41-2.9,0.64-4.26,0.93c-0.52,0.12-1.45,0.18-2.18,0.41c-0.49,0.15-0.9,0.38-1.18,0.67
				c-0.41,0.43-0.64,1.09-0.66,1.91c-0.04,1.65,0.83,4.16,0.67,5.32c-0.14,1-0.59,1.95-1.15,2.86c-0.89,1.45-2.05,2.8-3.01,3.9
				c-0.21,0.23-0.22,0.6-0.02,0.84c0.2,0.24,0.54,0.25,0.75,0.02c0.66-0.64,1.43-1.35,2.14-2.16c0.46-0.53,0.89-1.1,1.27-1.69
				c0.72-1.1,1.26-2.28,1.45-3.5c0.18-1.06-0.4-3.24-0.48-4.93c-0.02-0.5-0.06-0.94,0.17-1.16c0.16-0.16,0.45-0.2,0.75-0.27
				c0.66-0.15,1.4-0.22,1.84-0.32c1.39-0.36,2.91-0.62,4.34-1.12c1.02-0.35,2-0.81,2.86-1.46c0.39-0.33,1.29-1.05,1.8-1.81
				c0.3-0.46,0.49-0.92,0.46-1.34c0-0.27-0.2-0.5-0.44-0.5C368.11,149.22,367.91,149.44,367.91,149.71z"/>
		</g>
		<g transform="matrix(2.31336,0,0,1.52689,-3226.47,-17.5812)">
			<path class="st0" d="M368.93,149.2L368.93,149.2L368.93,149.2c0.01,0.02,0.02,0.04,0.03,0.05c0.02,0.03,0.03,0.06,0.04,0.09
				c0.01,0.08-0.03,0.13-0.02,0.24c0.02,0.27,0.13,0.59,0.24,0.91c0.14,0.42,0.33,0.78,0.44,0.94c0.18,0.27,1.1,1.07,1.83,1.9
				c0.22,0.25,0.57,0.61,0.68,0.82c-0.82,0.99-1.94,1.66-2.9,2.53c-0.28,0.25-0.54,0.51-0.78,0.8c-2.48,2.95-4.06,5.15-6.01,6.97
				c-1.51,1.42-3.29,2.49-5.84,3.73c-0.51,0.24-1.02,0.53-1.58,0.8c-0.29,0.1-0.45,0.45-0.36,0.78s0.41,0.5,0.7,0.4
				c0.49-0.12,0.96-0.21,1.4-0.36c2.22-0.73,3.84-1.73,5.23-2.75c2.77-2.05,4.52-4.61,7.65-8.31c0.84-1.02,1.97-1.74,2.9-2.65
				c0.27-0.26,0.52-0.54,0.75-0.84c0.4-0.51,0.44-1.19,0.03-1.91c-0.6-1.07-2.48-2.37-2.75-2.73c-0.09-0.11-0.21-0.39-0.36-0.66
				c-0.15-0.28-0.3-0.57-0.46-0.76c-0.07-0.08-0.13-0.07-0.18-0.14c-0.07-0.09-0.07-0.18-0.09-0.21c-0.1-0.2-0.25-0.2-0.27-0.2
				c-0.03,0-0.44,0.1-0.32,0.51C368.91,149.16,368.92,149.18,368.93,149.2z M372.15,154.16c-0.05,0.07-0.09,0.18-0.03,0.17
				C372.2,154.32,372.2,154.25,372.15,154.16z"/>
		</g>
		<g transform="matrix(2.31336,0,0,1.52689,-3226.47,-17.5812)">
			<path class="st0" d="M343.18,153.44c0.14-0.12,0.18-0.34,0.07-0.5c-0.1-0.16-0.31-0.2-0.45-0.08c-0.13-0.09-0.02-0.01-0.17-0.03
				c-0.03,0-0.04,0.04-0.07,0.05c-0.05,0.02-0.06,0.07-0.11,0.1c-0.07,0.04-0.08,0.11-0.13,0.19c-0.09,0.16-0.1,0.39-0.1,0.64
				c0,0.81,0.48,2.08,0.9,2.86c0.5,0.93,1.11,1.77,1.81,2.52c0.69,0.74,1.46,1.39,2.29,1.95c0.51,0.34,1.32,0.7,1.98,1.18
				c0.31,0.22,0.59,0.44,0.7,0.75c0.07,0.21,0.06,0.42,0.02,0.62c-0.16,0.93-0.64,1.82-0.55,2.78c0.04,0.42,0.15,0.81,0.3,1.18
				c0.42,1,1.33,1.78,1.42,3.03c0.12,1.55,0.14,2.43,0.07,3.09c-0.11,1-0.49,1.48-0.92,3.09c-0.11,0.41-0.2,0.9-0.31,1.47
				c-0.09,0.36,0.09,0.73,0.41,0.84c0.32,0.11,0.65-0.1,0.75-0.45c0.19-0.52,0.37-0.94,0.51-1.32c0.63-1.71,0.91-2.3,1.05-3.4
				c0.1-0.73,0.1-1.71,0-3.44c-0.02-0.42-0.11-0.81-0.24-1.17c-0.23-0.64-0.59-1.2-0.92-1.77c-0.24-0.41-0.47-0.82-0.51-1.31
				c-0.07-0.78,0.41-1.49,0.54-2.25c0.09-0.51,0.09-1.03-0.09-1.58c-0.17-0.52-0.52-0.99-0.99-1.38c-0.74-0.62-1.81-1.05-2.43-1.44
				c-0.75-0.46-1.45-1.01-2.09-1.63c-0.63-0.62-1.2-1.32-1.68-2.11c-0.27-0.46-0.58-1.14-0.74-1.72c-0.06-0.23-0.25-0.58-0.11-0.59
				c0.06,0-0.14-0.09-0.14-0.03C343.26,153.64,343.21,153.5,343.18,153.44z"/>
		</g>
		<g transform="matrix(2.31336,0,0,1.52689,-3226.47,-17.5812)">
			<path class="st0" d="M342.03,151.85c0.02,0.08,0.07,0.16,0.14,0.21c0.28,0.26,0.63,0.03,0.55-0.57
				c-0.03-0.22-0.16-0.48-0.27-0.61c-0.13-0.14-0.29-0.15-0.44-0.12c-0.21,0.03-0.43,0.16-0.65,0.34c-0.33,0.28-0.62,0.73-0.85,0.96
				c-1.02,0.98-2.97,1.76-4.05,3.01c-0.63,0.73-0.99,1.6-0.92,2.66c0.25,3.26,1.77,6.54,4,8.74c1.64,1.62,3.67,2.72,5.84,2.73
				c0.9,0,1.81-0.2,2.72-0.58c0.37-0.13,0.58-0.57,0.46-0.99c-0.12-0.41-0.51-0.64-0.88-0.51c-0.77,0.22-1.52,0.24-2.25,0.2
				c-1.78-0.11-3.44-0.92-4.82-2.23c-1.97-1.88-3.38-4.67-3.66-7.51c-0.09-0.82,0.34-1.43,0.9-1.98c1.05-1.02,2.54-1.81,3.35-2.7
				L342.03,151.85z"/>
		</g>
		<g transform="matrix(2.31336,0,0,1.52689,-3226.47,-17.5812)">
			<path class="st0" d="M335.5,159.15c-0.16,0.03-0.27,0.18-0.27,0.36c0,0.2,0.15,0.36,0.32,0.36l0.14-0.03
				c0.17-0.07,0.25-0.28,0.18-0.47C335.81,159.2,335.65,159.11,335.5,159.15z"/>
		</g>
		<g transform="matrix(2.31336,0,0,1.52689,-3226.47,-17.5812)">
			<path class="st0" d="M335.64,159.07c-0.03-0.16-0.16-0.28-0.31-0.28l-0.01,0c-0.11-0.04-0.21-0.03-0.32-0.1
				c-0.1-0.07-0.03-0.11-0.15-0.17c-0.03-0.01-0.06,0-0.09,0c-0.34-0.01-0.69,0.02-1.07,0.12c-0.32,0.08-0.64,0.22-0.97,0.37
				c-1.8,0.81-3.74,2.29-4.94,3.08c-2.33,1.55-5.98,4.91-8.64,8.62c-1.46,2.04-2.69,4.17-3.15,6.21c-0.1,0.45-0.26,0.9-0.18,1.33
				c0.05,0.26,0.13,0.38,0.25,0.6c-0.02,0.42,0.26,0.78,0.64,0.8c0.37,0.03,0.7-0.29,0.72-0.71c0.12-0.18,0.25-0.22,0.34-0.42
				c0.06-0.13,0.09-0.28,0.12-0.43c0.58-2.41,2.07-5.13,3.99-7.57c2.28-2.91,5-5.45,6.84-6.74c0.84-0.58,2.07-1.51,3.33-2.33
				c0.68-0.44,1.37-0.8,2-1.12c0.33-0.17,0.65-0.26,0.9-0.46c0.09-0.07,0.05-0.14,0.14-0.22c0.08-0.07,0.15-0.1,0.24-0.14
				c0.1-0.04,0.19-0.02,0.23-0.1C335.58,159.35,335.63,159.1,335.64,159.07z M335.64,159.07L335.64,159.07L335.64,159.07
				L335.64,159.07c0,0.02,0,0.06,0.01,0.08C335.65,159.13,335.64,159.1,335.64,159.07z M335.09,158.9l-0.02,0.02l0,0
				C335.08,158.92,335.08,158.91,335.09,158.9z M335.31,158.79c-0.05-0.02-0.09,0-0.12,0.03
				C335.23,158.8,335.27,158.79,335.31,158.79z"/>
		</g>
		<g transform="matrix(2.31336,0,0,1.52689,-3226.47,-17.5812)">
			<path class="st0" d="M374.97,156.39l-0.03,0.04l-0.02,0.02c0.02,0.02,0.05,0.07,0.09,0.09c0.18,0.07,0.45,0.15,0.75,0.23
				c0.74,0.2,1.66,0.41,1.83,0.46c0.94,0.29,1.89,0.6,2.82,0.93c0.94,0.33,1.87,0.68,2.79,1.04c3.38,1.33,6.03,2.6,8.29,4.38
				c2.24,1.77,4.1,4.06,5.88,7.52c3.29,6.21,6.61,14.87,9.29,23.78c2.67,8.88,4.7,18,5.27,25.26c0.29,4.17-0.35,9.37-2.55,12.99
				c-1.47,2.42-3.66,3.95-6.74,4.18c-1.08,0.08-2.26,0.1-3.58-0.16c-0.34-0.09-0.68,0.13-0.76,0.51c-0.09,0.37,0.12,0.76,0.45,0.85
				c1.54,0.57,2.94,0.88,4.22,0.85c2.51-0.06,4.51-1.22,6.07-2.81c3.77-3.84,4.96-11.01,4.54-16.55c-0.49-7.4-2.39-16.75-5.02-25.81
				c-2.65-9.11-6.05-17.93-9.37-24.27c-2.02-3.75-4.09-6.24-6.61-8.1c-2.44-1.8-5.29-3-8.9-4.23c-0.95-0.32-1.91-0.63-2.88-0.92
				c-0.97-0.29-1.93-0.55-2.91-0.8c-0.18-0.04-1.14-0.29-1.94-0.37c-0.35-0.04-0.67-0.06-0.88-0.01c-0.28,0.07-0.44,0.13-0.47,0.21
				c-0.1,0.21-0.27,0.26-0.16,0.41c0.02,0.03-0.01,0.07,0.02,0.1c0.05,0.04,0.02,0.14,0.12,0.16
				C374.69,156.45,374.85,156.47,374.97,156.39z M374.92,156.45c-0.02,0.02-0.03,0.03-0.02,0
				C374.91,156.44,374.92,156.44,374.92,156.45z M375.12,156.18c0.01,0.09,0.02,0.16-0.09,0.17l0.02-0.02
				C375.08,156.29,375.11,156.23,375.12,156.18z M375.09,155.9c0.01,0.01,0.01,0.02,0.02,0.03l0,0.01l0-0.03
				c0.01-0.02-0.02-0.03-0.04-0.04L375.09,155.9z"/>
		</g>
		<g transform="matrix(2.31336,0,0,1.52689,-3226.47,-17.5812)">
			<path class="st0" d="M374.73,207.2c-0.11,0.06-0.03-0.02-0.1,0.1c-0.03,0.06,0.02,0.13,0.04,0.2c0.09,0.39,0.47,0.84,1.06,1.25
				c1.47,1,4.36,1.77,5.14,2.13c2.94,1.34,5.85,2.68,8.72,4.1c1.72,0.85,3.4,1.79,5.12,2.68c1.14,0.59,2.29,1.13,3.44,1.74
				c0.28,0.17,0.63,0.06,0.79-0.26c0.15-0.31,0.05-0.71-0.23-0.88c-1.09-0.76-2.17-1.52-3.29-2.18c-1.13-0.67-2.3-1.24-3.46-1.82
				c-3.46-1.73-7-3.25-10.58-4.79c-0.6-0.25-2.4-0.76-3.9-1.34c-0.64-0.25-1.21-0.52-1.61-0.78c-0.15-0.09-0.27-0.15-0.36-0.23
				c-0.04-0.04-0.09,0.05-0.13,0c-0.02-0.2-0.17-0.34-0.35-0.32C374.84,206.82,374.71,207,374.73,207.2z"/>
		</g>
		<g transform="matrix(2.31336,0,0,1.52689,-3226.47,-17.5812)">
			<path class="st0" d="M396.64,215.69c0.12-0.01,0.13,0.14,0.25,0.14c0.22,0,0.45,0.1,0.76,0.25c0.79,0.39,1.78,1.16,2.79,2.12
				c2.36,2.24,4.8,5.34,5.24,6.06c0.23,0.37,0.68,0.46,1.01,0.21c0.33-0.25,0.42-0.76,0.19-1.13c-0.53-0.86-3.8-4.99-6.58-7.27
				c-0.97-0.79-1.88-1.4-2.62-1.54c-0.53-0.11-1.06-0.14-1.31,0.21c-0.12,0.16-0.15,0.2-0.17,0.42c-0.13,0.13-0.14,0.36-0.02,0.51
				C396.3,215.82,396.5,215.83,396.64,215.69z"/>
		</g>
		<g transform="matrix(2.31336,0,0,1.52689,-3226.47,-17.5812)">
			<path class="st0" d="M387.44,192.99c-0.05,0.05-0.1,0.11-0.14,0.2c-0.03,0.05-0.06,0.1-0.07,0.18c-0.1,0.5-0.05,1.38-0.06,1.65
				l0,4.56c0.12,2.39,0.39,4.7,0.84,6.98c0.46,2.27,1.1,4.48,1.87,6.71c0.11,0.34,0.45,0.52,0.75,0.39c0.3-0.12,0.46-0.5,0.35-0.84
				c-0.68-2.19-1.19-4.38-1.61-6.59c-0.41-2.2-0.72-4.43-0.85-6.74l-0.15-4.47c-0.01-0.26,0.04-1.15-0.06-1.65
				c-0.02-0.08-0.05-0.13-0.07-0.18c-0.34-0.62-0.79-0.26-0.79-0.26C387.44,192.94,387.44,192.96,387.44,192.99z"/>
		</g>
		<g transform="matrix(2.31336,0,0,1.52689,-3226.47,-17.5812)">
			<path class="st0" d="M391.2,214.86c0,0.11-0.03,0.1,0.15,0.14c0.03,0,0.07-0.01,0.12-0.02c0.69-0.27,2.39-1.08,2.78-1.25
				c0.87-0.37,1.73-0.63,2.59-0.83c1.33-0.31,2.66-0.48,4.08-0.55c0.15,0,0.27-0.13,0.27-0.29c0-0.17-0.12-0.3-0.26-0.3
				c-1.22-0.08-2.38-0.12-3.54,0c-1.17,0.12-2.32,0.42-3.5,0.87c-0.41,0.16-2.28,0.75-2.92,1.2c-0.07,0.04-0.13,0.07-0.15,0.13
				c-0.08,0.27,0.07,0.01,0.02,0.23c-0.04,0.18-0.19,0.23-0.19,0.29c-0.01,0.2-0.04,0.45,0.24,0.47
				C390.99,214.98,391.11,214.95,391.2,214.86z M391.24,214.4c0.03,0.06,0.05,0.13,0.05,0.2
				C391.31,214.53,391.29,214.46,391.24,214.4z"/>
		</g>
		<g transform="matrix(2.31336,0,0,1.52689,-3226.47,-17.5812)">
			<path class="st0" d="M375.12,226.63c-0.02-0.03-0.04-0.06-0.08-0.07c-0.01,0-0.04-0.11-0.05-0.06
				C374.98,226.54,375.03,226.59,375.12,226.63c0.02,0.04,0.03,0.09,0.05,0.11c0.02,0.02,0.04,0.04,0.05,0.06
				c-0.07-0.01-0.13,0-0.19,0.03c0.03-0.03,0.06-0.06,0.06-0.06s-0.14-0.22-0.17-0.27c-0.05-0.07-0.1-0.06-0.12-0.08
				c-0.16-0.15-0.29,0.03-0.35,0.02c-0.24-0.02-0.23,0.27-0.35,0.41c-0.03,0.04-0.08,0.36,0.28,0.79c0.09,0.11,0.52,0.39,0.67,0.53
				l1.05,0.75c0.82,0.61,1.65,1.25,2.53,1.78c0.2,0.12,0.38,0.25,0.59,0.33c0.22,0.09,0.43,0.13,0.66,0.18
				c0.27,0.12,0.57-0.02,0.68-0.32c0.11-0.3-0.02-0.64-0.28-0.76c-0.17-0.13-0.32-0.27-0.49-0.39c-0.4-0.27-0.82-0.5-1.21-0.78
				c-0.58-0.41-1.15-0.86-1.71-1.29l-1.1-0.8C375.64,226.8,375.3,226.72,375.12,226.63z"/>
		</g>
	</g>
	<g transform="matrix(0.151517,0,0,0.205601,520.968,79.2881)">
		<g transform="matrix(2.31336,0,0,1.38925,-2954.48,144.572)">
			<path class="st0" d="M-45.75-153.25c-0.11-0.21-0.25-0.21-0.38-0.31c-0.1-0.08-0.19-0.01-0.29-0.04
				c-0.33-0.11-0.55,0.15-0.91,0.57c-0.32,0.37-0.5,1.21-0.62,2.27c-0.07,0.59-0.07,1.29-0.07,2.05c-0.01,6.17,1.27,17.16,1.44,19.5
				c0.05,0.65,0.52,1.14,1.06,1.08c0.53-0.06,0.93-0.64,0.88-1.29c-0.11-1.55-0.67-6.89-1.04-12.1c-0.27-3.73-0.36-7.37-0.24-9.45
				c0.02-0.42,0.03-0.75,0.06-1c0.01-0.05-0.08-0.13-0.05-0.12c0.17,0.03-0.32-0.18-0.32-0.18s0.03-0.1,0.07-0.1
				c0.2,0.14,0.45,0.05,0.56-0.19C-45.49-152.81-45.56-153.11-45.75-153.25z"/>
		</g>
		<g transform="matrix(2.31336,0,0,1.37729,-2954.48,155.574)">
			<path class="st0" d="M-44.8-165.07c-0.14-0.01-0.28,0.06-0.37,0.2c-0.08,0.13-0.09,0.25-0.11,0.33
				c-0.08,0.26,0.15,0.72,1.25,0.94c0.18,0.04,0.38,0.06,0.62,0.04c0.6-0.05,1.38-0.27,2.31-0.26c2.14,0.03,4.26,0.09,6.38,0.18
				c2.12,0.09,4.23,0.22,6.35,0.42c3.6,0.32,7.25,0.56,10.93,0.72c5.48,0.24,11,0.31,16.39,0.33c2.68,0,5.43-0.51,8.16-0.59
				c1.1-0.03,2.19,0,3.28,0.19c0.62,0.11,1.66,0.26,2.58,0.54c0.41,0.13,0.8,0.24,1.05,0.45c0.04,0.17,0.17,0.69,0.22,1.15
				c0.25,1.89,0.33,4.9,0.3,8.15c-0.03,2.49-0.14,5.11-0.28,7.47c-0.11,1.86-0.25,3.55-0.38,4.9c-0.08,0.82-0.15,1.48-0.21,1.98
				c-0.02,0.16,0.03,0.29,0.01,0.4c0,0.03,0.03,0.07,0.03,0.07s0.06,0,0.09-0.01c-0.34,0.3-0.43,0.89-0.2,1.32
				c0.24,0.44,0.72,0.55,1.07,0.26c0.27-0.1,0.52-0.46,0.85-1.06c0.18-0.33,0.33-0.79,0.47-1.34c0.49-1.93,0.74-5.15,0.93-8.59
				c0.3-5.54,0.21-11.75-0.27-14.6c-0.2-1.19-0.55-1.96-0.85-2.3c-0.38-0.42-0.99-0.8-1.71-1.07c-1.12-0.42-2.54-0.63-3.34-0.77
				c-1.22-0.21-2.45-0.26-3.69-0.22c-2.7,0.09-5.43,0.61-8.09,0.62c-4.48,0.01-9.04-0.03-13.6-0.15c-4.56-0.11-9.11-0.3-13.57-0.63
				c-1.72-0.12-3.44-0.19-5.16-0.24c-2.57-0.06-5.14-0.05-7.72-0.01c-1.21,0.04-2.24,0.17-2.91,0.48c-0.14,0.07-0.25,0.14-0.36,0.24
				C-44.58-165.33-44.78-165.2-44.8-165.07z M-44.43-164.58c0,0.11-0.02,0.23-0.08,0.32C-44.43-164.39-44.42-164.49-44.43-164.58z"
				/>
		</g>
		<g transform="matrix(2.31336,0,0,1.52689,-2959.89,-19.2907)">
			<path class="st0" d="M-42.53-9.63c0.37,0.08-0.32,0.16,0.1-0.06c0.12,0.22,0.37,0.29,0.56,0.16c0.19-0.13,0.26-0.41,0.14-0.63
				c0.04-0.03,0.07-0.07,0.09-0.09l0.02,0.01c0.17,0.09,0.12,0.31,0.07,0.35c-0.14,0.09,0.09,0.18-0.05,0.19
				c-0.16,0.02-0.13,0.31-0.31,0.28c-0.05-0.01-0.11,0.05-0.17,0.03c-0.03-0.01-0.1,0-0.1,0s0.02,0.05,0.05,0.07
				c0.41,0.3,1.24,0.85,1.67,0.99c0.53,0.16,1.06,0.27,1.6,0.34c0.78,0.11,1.57,0.14,2.35,0.18l11.92,0.55
				c2.68,0.17,5.37,0.24,8.06,0.26c6.21,0.04,12.44-0.2,18.65,0.08c2.58,0.08,6.89,0.6,10.45,0.1c1.19-0.17,2.32-0.38,3.26-0.86
				c0.49-0.25,0.91-0.57,1.29-0.93c0.41-0.29,0.52-0.9,0.26-1.36c-0.26-0.45-0.81-0.58-1.22-0.29c-0.3,0.15-0.62,0.22-0.96,0.34
				c-1.23,0.44-2.7,0.74-4.27,0.82C7.76-8.92,4.35-9.35,2.17-9.44C-4.95-9.67-12.09-9.26-19.21-9.3c-1.77-0.01-3.53-0.04-5.3-0.13
				L-36.5-9.77c-0.73,0-1.48,0-2.21-0.06c-0.47-0.04-0.94-0.09-1.4-0.2c-0.31-0.07-0.86-0.49-1.26-0.64
				c-0.28-0.11-0.49-0.16-0.61-0.14c-0.13,0.01-0.24-0.01-0.31,0.03c-0.07,0.05-0.16,0.04-0.19,0.11c-0.04,0.09-0.16,0.06-0.14,0.16
				c0.02,0.09-0.09,0.02-0.05,0.09c0.13,0.19-0.2,0.07-0.05,0.31c0.06,0.08-0.09,0.43,0.14,0.48L-42.53-9.63z"/>
		</g>
		<g transform="matrix(2.31336,0,0,1.52689,-2954.48,5.55112e-17)">
			<path class="st0" d="M-36.55-48.19c0.56-0.22,1.18-0.29,1.85-0.38c0.61-0.09,1.26-0.18,1.92-0.23c2.12-0.13,4.39,0.01,6.09-0.2
				c5.53-0.71,10.89-1.39,16.25-1.24c3.52,0.1,7.04,0.57,10.61,1.6c0.64,0.19,4.33-0.32,7.15,0.08c0.7,0.1,1.33,0.26,1.8,0.54
				c0.22,0.13,0.38,0.27,0.43,0.54c0.02,0.09,0.11,0.15,0.13,0.26c-0.08,0.65,0.32,1.25,0.9,1.34c0.58,0.09,1.12-0.36,1.2-1.01
				c0.1-0.2,0.14-0.37,0.17-0.58c0.29-1.8-1.17-3.03-3.04-3.54c-1.77-0.48-4.23-0.32-6.1-0.14c-1.05,0.1-1.88,0.25-2.14,0.18
				c-3.74-0.96-7.42-1.32-11.09-1.33c-5.44-0.02-10.87,0.74-16.47,1.57c-1.94,0.3-4.68,0.12-7.03,0.5
				c-0.43,0.07-0.85,0.14-1.25,0.27c-0.67,0.22-1.25,0.54-1.76,0.93c-0.2,0.11-0.28,0.39-0.18,0.61
				C-36.99-48.16-36.75-48.07-36.55-48.19z"/>
		</g>
		<g transform="matrix(2.31336,0,0,1.52689,-2954.48,5.55112e-17)">
			<path class="st0" d="M-39.09-47.81c0.02-0.03-0.02-0.11,0.01-0.1c0.09,0.05,0.04-0.24,0.1-0.15c0.06,0.08,0.35-0.19,0.23-0.12
				c-0.02,0.01-0.02-0.07-0.04-0.1c-0.11-0.2-0.19-0.5-0.3-0.84c-0.21-0.68-0.43-1.53-0.58-2.39c-0.2-1.23-0.34-2.47-0.05-3.05
				c0.26-0.53,0.94-0.95,1.68-1.36c1.32-0.73,2.89-1.29,3.7-1.68c3.07-1.45,5.12-2.02,6.41-1.12c1.2,0.84,1.34,2.86,1.48,6.14
				c0.01,0.27,0.05,0.54,0.07,0.82c-0.02,0.44,0.28,0.81,0.67,0.83c0.39,0.02,0.72-0.31,0.74-0.75c0.05-0.29,0.1-0.57,0.13-0.86
				c0.36-4.2-0.64-6.71-2.16-7.82c-1.58-1.15-4.2-0.9-8.06,0.84c-0.98,0.44-3,1.14-4.48,2.05c-0.88,0.55-1.57,1.2-1.9,1.87
				c-0.58,1.22-0.3,4.5,0.44,6.67c0.28,0.82,0.6,1.49,0.92,1.84c0.19,0.22,0.36,0.46,0.55,0.45c0.34-0.03,0.36,0.16,0.52-0.11
				c0.04-0.07,0.09,0,0.12-0.08c0.03-0.09,0.07-0.03,0.11-0.12c0.04-0.07,0.14-0.08,0.19-0.17c0.17-0.17,0.19-0.45,0.04-0.64
				C-38.68-47.94-38.92-47.96-39.09-47.81z"/>
		</g>
		<g transform="matrix(2.31336,0,0,1.52689,-2954.48,5.55112e-17)">
			<path class="st0" d="M-24.2-52.26c-0.36,0.11-0.4,0.44-0.42,0.84c0,0.09,0.05,0.18,0.1,0.28c0.02,0.03,0.65,0.52,1.15-0.05
				l0.01-0.02c0.22,0,0.46-0.07,0.47-0.2c0.13,0.07,0.29,0.07,0.41-0.02c0.19-0.13,0.36-0.58-0.03-0.8c0.29-0.36,0.53-0.66,0.56-0.7
				l1.65-2.54c1.24-1.98,2.22-3.93,3.62-5.47c0.89-0.98,1.95-1.76,3.26-2.35c0.78-0.34,2.97-0.79,5.1-0.93
				c1.08-0.07,2.14-0.05,2.99,0.11c0.45,0.09,0.84,0.11,0.96,0.39c0.19,0.41,0.08,1.08-0.01,1.8c-0.18,1.44-0.55,3.02-0.63,3.91
				c-0.1,1.09-0.14,1.42-0.24,1.88c-0.05,0.22-0.14,0.47-0.17,0.85c-0.02,0.25,0.01,0.48,0.03,0.83c-0.15,0.48,0.08,1,0.51,1.16
				c0.43,0.16,0.89-0.09,1.04-0.57c0.17-0.2,0.31-0.3,0.42-0.48c0.22-0.34,0.29-0.63,0.37-0.86c0.23-0.64,0.25-1.02,0.41-2.52
				c0.1-1.03,0.61-2.96,0.73-4.56c0.08-1.07-0.03-2.02-0.34-2.65c-0.26-0.53-0.69-0.99-1.32-1.27c-0.68-0.3-1.62-0.44-2.69-0.39
				c-2.83,0.13-6.6,1.36-7.69,1.99c-1.4,0.79-2.46,1.8-3.41,2.92c-1.39,1.63-2.52,3.51-3.83,5.51l-1.71,2.38
				C-22.94-53.75-23.78-52.75-24.2-52.26z"/>
		</g>
		<g transform="matrix(2.31336,0,0,1.52689,-2954.48,5.55112e-17)">
			<path class="st0" d="M-14.05-77.79c-0.02,0.05-0.08-0.04-0.15-0.04c-0.14-0.01-0.31-0.06-0.5-0.13c-1-0.37-2.49-1.46-3.93-3
				c-1.34-1.44-2.65-3.28-3.38-5.44c-3.69-10.56-2.53-22.15-4.02-31.81c-0.26-1.67-0.56-3.29-1.04-4.82
				c-0.33-1.06-0.75-2.06-1.22-3.03c-0.12-0.28-0.42-0.4-0.67-0.26c-0.25,0.13-0.36,0.47-0.24,0.75c0.37,0.96,0.64,1.97,0.92,2.98
				c2.22,8.36,1.39,18.68,3.05,28.8c0.44,2.68,1.07,5.33,1.97,7.93c1.04,2.87,2.95,5.25,4.83,6.82c1.45,1.21,2.86,1.93,3.76,2.12
				c0.76,0.16,1.24-0.09,1.39-0.5c0.09-0.23,0-0.5-0.21-0.6C-13.72-78.12-13.96-78.02-14.05-77.79z"/>
		</g>
		<g transform="matrix(2.31336,0,0,1.52689,-2954.48,5.55112e-17)">
			<path class="st0" d="M-32.34-130.23c-0.8-2.16-2.16-4.09-3.95-5.7c-2.36-2.12-5.44-3.67-8.67-4.64
				c-5.64-1.68-11.8-1.49-15.89,0.55c-2.33,1.17-4.4,2.94-6.09,5.11c-1.67,2.14-2.96,4.65-3.86,7.22c-0.12,0.31,0.01,0.67,0.29,0.8
				c0.28,0.13,0.6-0.01,0.71-0.32c0.97-2.37,2.33-4.62,3.97-6.57c1.61-1.91,3.49-3.53,5.64-4.56c3.82-1.85,9.51-1.76,14.77-0.26
				c3.03,0.87,5.9,2.23,8.23,4.03c1.73,1.34,3.19,2.87,4.11,4.75c0.1,0.23,0.34,0.32,0.55,0.21
				C-32.33-129.73-32.24-130-32.34-130.23z"/>
		</g>
		<g transform="matrix(2.31336,0,0,1.52689,-2954.48,5.55112e-17)">
			<path class="st0" d="M-69.96-110.8l0.04,0.08c0.24,0.47,0.76,1.71,0.81,1.81c0.38,0.71,0.81,1.33,1.31,1.9
				c0.48,0.56,1.02,1.06,1.6,1.54c1.03,0.86,2.15,1.59,3.32,2.26c0.77,0.44,1.55,0.87,2.36,1.22c2.07,0.9,4.26,1.41,6.44,1.43
				c1.64-0.02,3.25-0.25,4.82-0.67c1.56-0.41,3.08-1.01,4.58-1.73c9.98-4.87,10.68-12.85,7.4-18.28c-2.85-4.73-8.91-7.72-14.78-5.12
				c-0.5,0.22-1,0.47-1.48,0.81c-0.67,0.46-1.3,1.04-1.92,1.69c-0.3,0.25-0.36,0.72-0.13,1.05c0.22,0.33,0.65,0.4,0.94,0.15
				c0.66-0.44,1.32-0.75,1.96-1.06c0.45-0.22,0.88-0.42,1.31-0.59c5-1.98,10.01,0.37,12.41,4.34c2.75,4.53,1.83,10.97-6.48,15.11
				c-1.39,0.7-2.8,1.29-4.26,1.73c-1.44,0.44-2.92,0.74-4.43,0.82c-2.02,0.17-4.08-0.12-6.06-0.78c-0.8-0.26-1.58-0.56-2.34-0.95
				c-1.14-0.59-2.21-1.33-3.2-2.15c-0.55-0.45-1.05-0.93-1.5-1.45c-0.45-0.52-0.85-1.09-1.19-1.73c-0.05-0.1-0.56-1.32-0.79-1.79
				c-0.17-0.34-0.42-0.42-0.47-0.42c-0.22,0-0.41,0.2-0.41,0.46C-70.08-111-70.03-110.88-69.96-110.8z"/>
		</g>
		<g transform="matrix(2.31336,0,0,1.52689,-2954.48,5.55112e-17)">
			<path class="st0" d="M-60.13-121.72c1.31-3.41,3.3-5.92,5.8-7.24c1.03-0.54,2.15-0.86,3.34-0.98c1.61-0.17,3.36,0,5.23,0.69
				c0.28,0.11,0.59-0.05,0.69-0.37c0.1-0.31-0.05-0.66-0.33-0.77c-2.02-0.85-3.94-1.21-5.71-1.03c-1.35,0.13-2.61,0.58-3.76,1.24
				c-2.66,1.54-4.74,4.36-6.01,8.12c-0.08,0.23,0.02,0.5,0.23,0.59C-60.45-121.37-60.21-121.49-60.13-121.72z"/>
		</g>
		<g transform="matrix(2.31336,0,0,1.52689,-2954.48,5.55112e-17)">
			<path class="st0" d="M-33.14-117.03c-0.03-0.09-0.09-0.17-0.18-0.23c-0.2-0.12-0.45-0.05-0.56,0.17
				c-0.07,0.09-0.08,0.26,0.01,0.53c0.04,0.12,0.16,0.35,0.37,0.62c0.53,0.69,1.66,1.66,1.74,1.76c0.66,0.78,1.19,1.59,1.63,2.44
				c0.45,0.86,0.81,1.78,1.11,2.8c0.33,1.03,0.5,2.06,0.59,3.1c0.14,1.65,0.1,3.32,0.25,4.99c0.38,4.58,1.08,9.43,2.83,13.66
				c0.59,1.44,1.3,2.82,2.18,4.07c0.86,1.22,1.88,2.31,3.06,3.28c0.13,0.12,0.32,0.09,0.43-0.05c0.1-0.15,0.08-0.36-0.05-0.48
				c-1.06-1.01-1.94-2.15-2.71-3.36c-0.8-1.23-1.48-2.53-2.04-3.9c-1.7-4.13-2.41-8.85-2.8-13.32c-0.14-1.96-0.03-3.9-0.19-5.83
				c-0.07-0.86-0.18-1.72-0.4-2.58c-0.31-1.12-0.7-2.14-1.19-3.08c-0.5-0.95-1.11-1.82-1.85-2.66c-0.08-0.09-1-0.99-1.68-1.56
				c-0.16-0.13-0.32-0.22-0.43-0.31c-0.05-0.04-0.12-0.09-0.12-0.09V-117.03z"/>
		</g>
		<g transform="matrix(2.31336,0,0,1.52689,-2954.48,5.55112e-17)">
			<path class="st0" d="M-5.77-69.2l0.03-0.01c-0.17-0.1-0.48-0.59-0.5-0.64l-1.31-3c-0.55-1.48-1.06-3.04-1.32-4.64
				c-0.25-1.55-0.24-3.12,0.14-4.66c0.47-1.92,1.24-3.51,2.19-4.85c1.03-1.45,2.29-2.58,3.73-3.42c1.99-1.15,4.3-1.65,6.72-1.83
				c1.01-0.07,2.03-0.15,3.07-0.1c0.19,0.03,0.36-0.12,0.38-0.32c0.03-0.21-0.1-0.4-0.29-0.43c-1.06-0.28-2.11-0.51-3.17-0.56
				c-2.65-0.14-5.2,0.52-7.4,1.71c-1.67,0.91-3.15,2.17-4.31,3.84c-1.06,1.53-1.83,3.39-2.29,5.57c-0.29,1.42-0.29,2.85-0.11,4.26
				c0.25,2.04,0.87,4.05,1.59,5.93l1.39,3.15c0.05,0.09,0.84,1,1.14,1.03c0.19,0.01,0.25,0.09,0.32,0.02
				c0.19-0.21,0.48-0.11,0.39-0.37c-0.03-0.09,0.13-0.24-0.05-0.37C-5.47-69.07-5.61-69.18-5.77-69.2z M-6.18-68.91l-0.03,0.02
				c-0.06,0.03,0.03,0.12-0.03,0.21c-0.01,0.02,0.02,0.03,0.03,0.05C-6.22-68.73-6.21-68.83-6.18-68.91z M-5.94-69.17
				c-0.09-0.04-0.11,0.02-0.14,0.1C-6.04-69.12-5.99-69.15-5.94-69.17z M-5.73-69.2c0.07-0.02,0.13-0.05,0.08,0
				C-5.67-69.18-5.7-69.18-5.73-69.2z M-5.84-69.2l-0.02,0l-0.03,0.01C-5.87-69.2-5.85-69.21-5.84-69.2z"/>
		</g>
		<g transform="matrix(2.31336,0,0,1.52689,-2954.48,5.55112e-17)">
			<path class="st0" d="M10.21-88.98l-0.03-0.06C10.18-89.03,10.19-89,10.21-88.98c0.11,0.21,0.19,0.43,0.26,0.66
				c0.13,0.41,0.22,0.84,0.28,1.26c0.2,1.06,0.22,2.17,0.14,3.27c-0.09,1.14-0.29,2.27-0.55,3.33c-0.51,2.04-1.85,4.01-3.55,5.14
				c-1,0.67-2.12,0.98-3.26,0.93c-0.72-0.03-1.45-0.16-2.17-0.56C1-75.18,0.57-75.05,0.37-74.67c-0.2,0.38-0.08,0.87,0.26,1.09
				c0.71,0.53,1.44,0.89,2.19,1.04c1.19,0.25,2.4-0.01,3.52-0.51c2.61-1.17,4.79-4.01,5.49-6.96c0.34-1.39,0.6-2.89,0.65-4.38
				c0.04-1.03-0.02-2.05-0.21-3.04c-0.09-0.42-0.2-0.84-0.34-1.25c-0.15-0.44-0.34-0.85-0.59-1.23c-0.08-0.09-0.15-0.24-0.29-0.28
				c-0.2-0.06-0.59-0.07-0.59-0.07l0.01,0.03c-0.09-0.07-0.21-0.1-0.32-0.08c-0.18-0.04-0.23,0.13-0.29,0.17
				c-0.21,0.13-0.11,0.32,0.06,0.71c0.04,0.09,0.57,0.34,0.39,0.49C10.28-88.91,10.23-88.94,10.21-88.98z M10.52-89.54
				c-0.01,0.01-0.02,0.03-0.04,0.04C10.5-89.51,10.52-89.52,10.52-89.54L10.52-89.54z M10.57-90.11c0.09,0.06,0.09,0.15,0.07,0.24
				c0-0.03,0-0.05-0.01-0.08C10.62-90.01,10.6-90.07,10.57-90.11z"/>
		</g>
		<g transform="matrix(2.31336,0,0,1.52689,-2954.48,5.55112e-17)">
			<path class="st0" d="M1.06-86.7c-0.12-0.23,0.09-0.35,0.27-0.48c0.29-0.21,0.69-0.33,0.99-0.41c0.65-0.18,1.39-0.21,2.1-0.08
				c0.67,0.13,1.31,0.42,1.8,0.9c1.65,1.61,1.59,4.23,0.6,6.15c-0.59,1.15-1.54,2-2.7,2.35c-0.72,0.21-1.5,0.32-2.4,0.05
				C1.44-78.34,1.12-78.18,1-77.85c-0.11,0.32,0.03,0.68,0.32,0.81c1.1,0.63,2.17,0.82,3.15,0.65c1.67-0.3,3.01-1.66,3.81-3.29
				c1.29-2.64,1.15-6.19-1.15-8.28c-0.7-0.63-1.59-1.01-2.52-1.14C3.72-89.23,2.8-89.15,2-88.87c-0.61,0.24-1.46,0.75-1.74,1.37
				c-0.18,0.41-0.22,0.86,0.11,1.32c0.13,0.21,0.39,0.27,0.58,0.13C1.14-86.19,1.19-86.48,1.06-86.7z"/>
		</g>
		<g transform="matrix(2.31336,0,0,1.52689,-2954.48,5.55112e-17)">
			<path class="st0" d="M-0.25-83.91c0.11,0.17,0.32,0.24,0.5,0.15c0.21-0.11,0.3-0.38,0.2-0.61c-0.08-0.65-0.67-0.78-1.43-0.53
				c-0.8,0.25-1.76,1.28-1.89,1.41c-1.02,1.11-1.8,2.43-1.87,3.8c-0.05,0.98,0.24,1.98,0.99,2.91c0.26,0.37,0.75,0.42,1.07,0.13
				s0.38-0.83,0.11-1.2c-0.48-0.73-0.53-1.45-0.36-2.14c0.19-0.79,0.62-1.55,1.19-2.24c0.08-0.1,0.58-0.68,1.06-1.12
				c0.15-0.14,0.27-0.28,0.4-0.36c0.02-0.01,0.03-0.09,0.04-0.07C-0.2-83.71-0.22-83.82-0.25-83.91z"/>
		</g>
		<g transform="matrix(2.31336,0,0,1.52689,-2954.48,5.55112e-17)">
			<path class="st0" d="M-12.97-74.61c0.35-0.07,0.71,0.41,1.13,0.95c0.43,0.56,0.82,1.28,1.21,1.94c0.5,0.84,0.97,1.56,1.09,1.97
				c0.05,0.25,0.27,0.4,0.49,0.35c0.22-0.05,0.36-0.3,0.31-0.55c-0.06-0.5-0.36-1.53-0.9-2.55c-0.27-0.51-0.62-0.99-0.97-1.42
				c-0.89-1.11-1.9-1.81-2.56-1.58c-0.22,0.06-0.35,0.31-0.3,0.55C-13.41-74.7-13.19-74.55-12.97-74.61z"/>
		</g>
		<g transform="matrix(2.31336,0,0,1.52689,-2954.48,5.55112e-17)">
			<path class="st0" d="M-66.32-126.27c-0.15,0.14-0.29,0.24-0.42,0.4c-0.28,0.36-0.47,0.78-0.66,1.17
				c-0.73,1.5-1.11,2.97-1.21,4.49c-0.13,1.98,0.26,4.05,1.24,6.46c0.13,0.31,0.46,0.46,0.74,0.31c0.28-0.14,0.41-0.51,0.28-0.83
				c-0.86-2.19-1.21-4.06-1.07-5.85c0.1-1.34,0.51-2.61,1.12-3.96c0.17-0.37,0.38-0.73,0.53-1.14c0.07-0.19,0.08-0.37,0.14-0.57
				c0.12-0.21,0.07-0.5-0.12-0.63C-65.94-126.54-66.2-126.49-66.32-126.27z"/>
		</g>
		<g transform="matrix(2.31336,0,0,1.52689,-2954.48,5.55112e-17)">
			<path class="st0" d="M-33.17-37.22c0.02-0.07,0.04-0.15,0.03-0.25c0-0.02,0-0.04-0.01-0.06c0.01-0.08,0.02-0.16,0.03-0.22
				c0.01-0.04,0.02-0.09,0.02-0.09s-0.04,0.05-0.09,0.11c-0.03-0.11-0.05-0.23-0.02-0.34c0.05-0.23,0.1-0.22,0.17-0.35
				c0.18-0.31-0.13-0.34-0.12-0.45c0.01-0.12-0.11-0.04-0.14-0.14c-0.1-0.34-0.43-0.04-0.69-0.08c-0.2,0.09-0.54,0.4-0.63,1.05
				c-0.16,1.06,0.05,3.79,0.06,4.15c0.07,2.27-0.27,3.7,0.02,4.42c0.24,0.6,0.76,1.01,2.09,1.03c0.48-0.02,1.08,0.1,1.62,0.06
				c0.29-0.02,0.64,0.04,0.82-0.18c0.06-0.08,0.04-0.05,0.06-0.15c0.37-0.16,0.56-0.63,0.41-1.05c-0.14-0.42-0.56-0.62-0.93-0.46
				c-0.06,0-0.09-0.08-0.15-0.08c-0.61,0.02-1.35,0.04-1.92,0.1c-0.57,0.08-0.82,0.19-0.84-0.19c-0.03-0.75,0.25-1.92,0.24-3.54
				C-33.15-34.21-33.24-36.07-33.17-37.22z M-33.96-37.49c0-0.11-0.02-0.3-0.08-0.39c-0.1-0.15-0.32,0-0.27-0.11
				c0.02-0.04-0.07,0.03-0.05,0.04c0.06,0.02-0.02,0.1,0.02,0.11c0.09,0.01,0.02,0.14,0.09,0.14c0.07,0,0.03,0.1,0.09,0.09
				c0.13-0.03,0.09,0.15,0.2,0.12L-33.96-37.49z M-33.46-37.8c-0.17-0.05-0.37-0.03-0.46,0.26C-33.85-37.73-33.65-37.84-33.46-37.8z
				"/>
		</g>
		<g transform="matrix(2.31336,0,0,1.52689,-2954.48,5.55112e-17)">
			<path class="st0" d="M-26.84-37.96L-26.84-37.96c0,0-0.03,0.02-0.05,0.04c-0.03,0.06-0.07,0.11-0.1,0.2
				c-0.17,0.57-0.28,1.67-0.28,2.29c0.02,1.44-0.21,3.82,0.44,5.32c0.39,0.89,1.04,1.52,2.08,1.69c1.75,0.27,2.75-0.46,3.32-1.64
				c0.97-2,0.4-5.81,0.56-7.91c0.04-0.45-0.25-0.84-0.66-0.88c-0.4-0.04-0.75,0.28-0.79,0.73c-0.15,1.65,0.21,4.45-0.22,6.41
				c-0.23,1.03-0.76,1.73-1.99,1.54c-0.64-0.09-0.93-0.61-1.1-1.23c-0.35-1.29-0.25-3-0.31-4.09c-0.04-0.55,0.17-1.51,0.14-2.05
				c-0.01-0.12-0.03-0.2-0.05-0.28c-0.09-0.32-0.11-0.49-0.17-0.53c-0.21-0.12-0.33-0.34-0.5-0.16c-0.04,0.04-0.11,0.02-0.15,0.09
				c-0.02,0.05-0.12,0.09-0.13,0.25C-26.83-38.1-26.84-38.03-26.84-37.96z"/>
		</g>
		<g transform="matrix(2.31336,0,0,1.52689,-2954.48,5.55112e-17)">
			<path class="st0" d="M-18.15-29.92c-0.01,0.12,0.01,0.24,0.08,0.34c0.19,0.45,0.44,0.53,0.53,0.57c0.23,0.1,0.35-0.1,0.54-0.26
				c0.11-0.09,0.2-0.31,0.27-0.81c0.05-0.35-0.09-0.9-0.04-1.42l0.19-3.59l0.04,0.07c0.12,0.19,1.85,3.18,2.99,4.81
				c0.38,0.54,0.71,0.94,0.9,1.11c0.22,0.19,0.41,0.25,0.53,0.26c0.04,0,0.81-0.09,0.85-0.89c0.01-0.22,0.02-0.79,0.02-0.82v-1.9
				l0.41-5.55c0.03-0.37-0.21-0.7-0.54-0.73c-0.33-0.03-0.62,0.24-0.65,0.6l-0.66,5.61l-0.02,0.64c-1.1-1.62-2.54-3.89-2.64-4.06
				l-1.1-1.94l-0.09-0.39c-0.07-0.38-0.39-0.64-0.73-0.6c-0.35,0.04-0.61,0.36-0.62,0.74l-0.11,2.2l-0.29,4.35
				c0,0.59,0.01,1.22,0.16,1.62L-18.15-29.92z"/>
		</g>
		<g transform="matrix(2.31336,0,0,1.52689,-2954.48,5.55112e-17)">
			<path class="st0" d="M-3.66-38.17c0-0.19,0.06-0.05-0.01-0.22c-0.06-0.14-0.2-0.17-0.31-0.24c-1.5-0.86-2.98,0.07-3.9,1.38
				c-1.33,1.9-1.54,5.16-0.29,7.14c0.59,0.9,1.71,1.45,2.86,1.47c0.9,0.01,1.78-0.29,2.38-0.9c0.05-0.05,0.12-0.1,0.15-0.17
				c0.1-0.19,0.15-0.33,0.16-0.55c0.18-0.32,0.09-0.73-0.19-0.93c-0.28-0.19-0.65-0.1-0.83,0.22c-0.1,0.08-0.22,0.05-0.33,0.12
				c-0.37,0.25-0.82,0.4-1.3,0.38c-0.59-0.03-1.19-0.27-1.48-0.74c-0.7-1.13-0.59-2.82-0.09-4.13c0.45-1.15,1.21-1.93,2.4-1.81
				c0.11,0.01,0.21,0.03,0.32-0.01c0.16-0.06,0.02-0.05,0.15-0.18c0.21,0.1,0.45-0.01,0.54-0.25C-3.35-37.81-3.45-38.07-3.66-38.17z
				"/>
		</g>
		<g transform="matrix(2.31336,0,0,1.52689,-2954.48,5.55112e-17)">
			<path class="st0" d="M-0.54-37.86c-0.95,0.4-0.64,2.09-0.22,1.01c-0.02,0.1-0.04,0.21-0.05,0.32c-0.04,0.52,0.03,1.04,0.03,1.56
				c0.03,1.08-0.23,2.62-0.22,3.97c0.01,0.64-0.05,1.33,0.23,1.76c0.05,0.09,0.09,0.11,0.17,0.17c0.14,0.39,0.53,0.58,0.88,0.43
				c0.35-0.15,0.52-0.59,0.39-0.98c0.02-0.07,0.07-0.09,0.07-0.16c0-0.39-0.14-0.81-0.15-1.27c-0.05-1.36,0.1-2.93,0.01-4.01
				l-0.28-1.93c-0.03-0.09-0.08-0.25-0.08-0.42c0-0.19,0.14-0.44,0.09-0.47v0c0.01-0.05,0.01-0.09,0.01-0.1
				c0.02-0.18-0.05-0.27-0.06-0.3c-0.1-0.17-0.48-0.49-0.71,0.06c-0.01,0.01-0.02,0.06-0.04,0.13C-0.49-38.04-0.51-37.96-0.54-37.86
				z M-0.51-37.88l0.03-0.01c-0.01-0.05-0.01-0.11,0-0.16L-0.51-37.88z"/>
		</g>
		<g transform="matrix(2.31336,0,0,1.52689,-2954.48,5.55112e-17)">
			<path class="st0" d="M0.41-33.71c-0.09,0.23-0.12,0.55,0,0.28c0.04-0.08,0.17,0.09,0.3,0.13c0.63,0.15,1.67,0.33,2.58,0.26
				c0.28-0.02,0.58-0.02,0.8-0.17c0.1-0.06,0.16-0.1,0.22-0.21c0.21-0.38,0.26-0.39,0.31-0.79c0.11-0.08,0.14-0.25,0.06-0.37
				c-0.07-0.12-0.22-0.15-0.33-0.07c-0.28-0.07-0.22-0.25-0.53-0.35c-0.08-0.02-0.15-0.07-0.24-0.06C2.59-35,1.26-35.13,0.61-35.02
				c-0.29,0.05-0.5,0.09-0.58,0.21c-0.03,0.04-0.06,0.01-0.07,0.06c-0.02,0.24-0.16,0-0.1,0.18c0.04,0.12-0.09,0.01-0.04,0.11
				c0.09,0.18-0.17,0.06-0.03,0.19c-0.09,0.23,0.01,0.5,0.22,0.6C0.15-33.6,0.3-33.62,0.41-33.71z"/>
		</g>
		<g transform="matrix(2.31336,0,0,1.52689,-2954.48,5.55112e-17)">
			<path class="st0" d="M5.44-38.16c0.16-0.1,0.24-0.31,0.19-0.52c-0.06-0.24-0.29-0.38-0.51-0.32c-0.14-0.15-0.06,0.17-0.3,0.12
				c-0.15-0.03-0.03,0.09-0.23,0.16c-0.09,0.03-0.09,0.09-0.17,0.21c-0.35,0.52-0.2,2.3-0.22,2.5c-0.07,1.72-0.16,3.52-0.1,5.28
				c0.02,0.63-0.05,1.28,0.13,1.86c0.06,0.18,0.15,0.28,0.24,0.44c0.07,0.49,0.48,0.83,0.92,0.75c0.44-0.08,0.75-0.53,0.68-1.03
				c0.04-0.14,0.11-0.22,0.13-0.38c0.01-0.11-0.02-0.23-0.03-0.35c-0.22-2.15-0.24-4.41-0.25-6.54c0-0.12-0.02-0.78-0.05-1.4
				c-0.01-0.3-0.21-0.73-0.05-0.77c0.06-0.01-0.13-0.09-0.1-0.04c0.02,0.05-0.09-0.04-0.07,0c0.02,0.04-0.07-0.02-0.06,0.01
				C5.66-38.03,5.54-38.13,5.44-38.16z"/>
		</g>
		<g transform="matrix(2.31336,0,0,1.52689,-2954.48,5.55112e-17)">
			<path class="st0" d="M-45-27.3l0-0.02c0,0,0,0,0,0.01L-45-27.3c0,0.03,0,0.09,0.03,0.09c0.04,0,0,0.08,0.03,0.08
				c0.12,0.02,0.06,0.09,0.02,0.18c-0.02-0.17-0.13-0.32-0.28-0.37c-0.22-0.07-0.45,0.06-0.51,0.3c-0.22,0.12,0.07,0.21,0.04,0.54
				c-0.01,0.11,0.07,0.12,0.19,0.26c0.07,0.09,0.25,0.11,0.45,0.16c1.04,0.26,3.76,0.35,4.38,0.38l10.04,0.95
				c5.84,0.45,11.79,0.79,17.73,0.87c5.96,0.08,11.92-0.11,17.76-0.79c2.4-0.26,4.9-0.16,7.33-0.39c0.75-0.07,1.52-0.11,2.24-0.33
				c0.32-0.1,0.61-0.25,0.92-0.4c0.24-0.07,0.38-0.33,0.32-0.59c-0.06-0.26-0.3-0.43-0.53-0.36c-0.41,0.05-0.82,0.05-1.23,0.1
				c-0.95,0.12-1.9,0.29-2.86,0.36c-2.11,0.16-4.24,0.16-6.31,0.42C0.12-25.26-4.6-25-9.34-24.96c-7.1,0.05-14.23-0.39-21.21-0.95
				l-10.06-1.01c-0.59-0.03-3.2-0.12-4.2-0.35C-44.89-27.28-44.99-27.27-45-27.3z"/>
		</g>
		<g transform="matrix(2.31336,0,0,1.52689,-2954.48,5.55112e-17)">
			<path class="st0" d="M-45.98-41.56c0.34-0.04,0.72-0.04,1.12-0.02c1.64,0.09,3.58,0.57,4.79,0.57c3.31-0.03,6.56-0.18,9.84-0.19
				c1.39,0,2.79,0.01,4.2,0.07c5.69,0.26,11.35,0.27,17.01,0.16c3.83-0.08,7.65-0.23,11.47-0.36c3.82-0.13,7.64-0.14,11.46-0.37
				c0.85-0.05,1.69-0.15,2.54-0.23c0.24-0.01,0.43-0.24,0.42-0.51c-0.01-0.27-0.22-0.48-0.46-0.47c-0.85,0-1.7-0.02-2.55,0
				c-3.82,0.11-7.63,0.48-11.45,0.65c-3.82,0.18-7.63,0.28-11.45,0.34c-5.64,0.09-11.29,0.03-16.96-0.27
				c-1.9-0.1-3.78-0.12-5.66-0.09c-2.8,0.04-5.6,0.19-8.44,0.23c-1.2,0.02-3.12-0.43-4.75-0.49c-0.85-0.03-1.63,0.04-2.2,0.31
				c-0.47,0.22-0.38,0.54-0.17,0.79c0.1,0.12,0.75,0.3,0.98,0.19C-46.1-41.31-46.02-41.43-45.98-41.56z M-46.59-42.1
				c-0.04-0.08-0.08-0.13-0.11-0.05C-46.71-42.12-46.64-42.1-46.59-42.1z"/>
		</g>
		<g transform="matrix(2.31336,0,0,1.52689,-2954.48,5.55112e-17)">
			<path class="st0" d="M-20.93-52.1c-0.03,0.12-0.01,0.25,0.06,0.36c-0.04,0.19,0.18,0.03,0.28,0.19c0.03,0.06,0.08-0.05,0.14,0
				c0.05,0.04,0.06-0.18,0.21-0.11c0.51,0.23-1.09,0.39,0.56,0.22c0.03,0,0.04-0.04,0.07-0.07c0.16-0.17,0.4-0.47,0.46-0.54
				c0.22-0.28,0.48-0.54,0.75-0.79c0.27-0.25,0.57-0.48,0.86-0.69c0.22-0.16,0.44-0.28,0.65-0.41c0.55-0.33,1.07-0.58,1.64-0.72
				c0.9-0.22,1.84-0.29,2.89-0.36c1.1-0.07,2.43-0.36,3.71-0.3c0.8,0.03,1.57,0.24,2.23,0.54c0.25,0.12,0.35,0.45,0.52,0.72
				c0.2,0.32,0.42,0.63,0.66,0.86c0.39,0.38,0.85,0.61,1.45,0.54c0.54-0.14,1.03-0.27,1.45-0.54c0.46-0.3,0.76-0.7,1.14-1.07
				c0.06-0.06,0.12-0.14,0.2-0.17c0.23-0.1,0.42-0.01,0.66-0.08c0.14-0.03,0.25-0.1,0.38-0.16c0.81-0.38,1.58-0.79,2.49-1
				c0.69-0.16,1.46-0.17,2.4,0.08c0.99,0.22,2.1,0.69,3.06,1.26c0.6,0.36,1.15,0.74,1.48,1.22c0.24,0.34,0.24,0.71,0.01,1.17
				c-0.07,0.14-0.12,0.28-0.18,0.45c-0.08,0.23-0.04,0.4-0.12,0.67c-0.36,0.35-0.4,0.96-0.09,1.36c0.31,0.4,0.86,0.45,1.22,0.1
				c0.32-0.07,0.51-0.13,0.76-0.27c0.27-0.15,0.43-0.39,0.6-0.61c1.23-1.63,0.86-3.35-0.09-4.71c-0.55-0.78-1.39-1.5-2.39-2.04
				c-1.22-0.65-2.66-1.04-3.9-1.2c-1.36-0.12-2.44,0.06-3.35,0.48c-0.41,0.19-0.8,0.39-1.15,0.66c-0.51,0.39-0.94,0.83-1.38,1.3
				c-0.1,0.1-0.2,0.19-0.28,0.31c-0.15,0.21-0.16,0.44-0.34,0.61c-0.06,0.06-0.15,0.08-0.22,0.1c-0.44,0.15-0.85,0.12-1.32,0.19
				c-0.38,0.05-0.76,0.12-1.2,0.11c-0.24,0.02-0.33-0.25-0.47-0.45c-0.22-0.32-0.45-0.65-0.71-0.91c-0.24-0.24-0.5-0.44-0.8-0.54
				c-0.43-0.14-0.88-0.23-1.36-0.29c-0.51-0.07-1.04-0.09-1.57-0.13c-1.22-0.08-2.46-0.14-3.5-0.23c-1.43-0.13-2.7-0.27-3.93-0.01
				c-0.9,0.19-1.76,0.6-2.65,1.27c-0.35,0.3-0.69,0.63-1.02,0.99c-0.33,0.37-0.63,0.75-0.9,1.16c-0.04,0.06-0.19,0.29-0.29,0.53
				c-0.04,0.1-0.09,0.2-0.08,0.28c0.02,0.14,0.16,0.01,0.07,0.09C-21.93-51.96-21.25-51.89-20.93-52.1z M-20.69-52.41
				c-0.05,0-0.12-0.02-0.1,0.06v0.01l0.03-0.02C-20.74-52.39-20.72-52.4-20.69-52.41z M-20.37-52.41c-0.05-0.08-0.08-0.14-0.16-0.04
				l0,0C-20.48-52.45-20.42-52.43-20.37-52.41z M-20.58-52.44c-0.03-0.01-0.05-0.03-0.07,0.02l0,0
				C-20.63-52.43-20.61-52.44-20.58-52.44z"/>
		</g>
	</g>
</g>
</svg>
