<?xml version="1.0" encoding="utf-8"?>
<!-- Generator: Adobe Illustrator 24.2.0, SVG Export Plug-In . SVG Version: 6.00 Build 0)  -->
<svg version="1.1" id="图层_1" xmlns="http://www.w3.org/2000/svg" xmlns:xlink="http://www.w3.org/1999/xlink" x="0px" y="0px"
	 viewBox="0 0 85 85" style="enable-background:new 0 0 85 85;" xml:space="preserve">
<style type="text/css">
	.st0{fill-rule:evenodd;clip-rule:evenodd;fill:#FFFFFF;}
	.st1{fill-rule:evenodd;clip-rule:evenodd;}
</style>
<g>
	<g transform="matrix(0.4441,0,0,0.39775,0,0)">
		<path class="st0" d="M75.3,76.8c0,0,1.9,11.7-3.6,22.4c0,0-2-2.9-1.8-5.4c0,0,0.1-0.4-2.2,1.7c-2.3,2.1-3.2,1.1-3.9,3.3
			c-0.7,2.1,0.1,2.3,0,2.5c-0.1,0.1-14.1,2.8-19.2,18.7c0,0-16.1,0.9-19,2.9c-2.9,1.9-3.7,20.2-1,42.4c0.4,3.4-1.8,10.8,0.3,18.9
			c0,0,92.5,3.6,97.2-0.2c4.7-3.8,1.9-3.5,2.1-3.7c0.2-0.2,3.5,0.4,3.5,0.4l12-26.4c0,0-8.1-31.8-12.6-38.2
			c-4.4-6.5-5.7-13.5-24.2-18c-18.5-4.6-2.9-0.7-2.9-0.7s0.8-0.4-0.2-1.8c-1.1-1.4-3.1-3.2-3.1-4.1c-0.1-0.8-2.9,1.6-3.5,0.5
			c-0.7-1.1,1.1-2.8,0.9-4.3C93.7,86,82.1,72.3,75.3,76.8z"/>
	</g>
	<g transform="matrix(0.191972,0,0,0.260497,466.054,1027.22)">
		<g transform="matrix(2.31336,0,0,1.52689,-2954.48,0)">
			<path class="st1" d="M252.7-2399.3l0-0.4c0-0.4,0.1-1,0.1-1.7c0-1.1-0.2-2.3-0.2-2.4c0.2-2.3,0.3-4.5,0.2-6.8
				c-0.1-3.3-0.5-6.7-0.8-10c-0.3-2.6-1.4-17.3-0.9-27.9c0.2-3.9,0.6-7.3,1.3-9.2c0.2-0.6,0.4-1.1,0.8-1.2c4-1.1,8.1-1.5,12.2-1.6
				c6.3-0.2,12.6,0.4,18.8,0.4c4.4,0,21.5-1.8,33.3,0.4c3.1,0.6,5.9,1.4,7.9,2.6c1.6,1,2.8,2.2,3.1,3.9c0.5,2.8,0.7,5.8,0.7,8.7
				c-0.1,7-1.3,14.2-1.1,21c0.1,7.1-0.1,14-0.1,21.1c0,0.8,0.1,1.6,0.1,2.4c0,0.5,0.4,1,0.8,1c0.5,0,0.9-0.4,0.9-0.9
				c0.1-0.6,0.1-1.2,0.2-1.9c0.1-2.5,0.1-5,0.2-7.5c0.1-4.7,0.1-9.4,0.1-14.1c-0.1-6.9,1.1-14,1.2-20.9c0-3.1-0.1-6.2-0.7-9.2
				c-0.4-2.3-1.9-4.2-4.2-5.5c-2.2-1.3-5.2-2.3-8.6-2.9c-12-2.1-29.3-0.3-33.7-0.3c-6.2,0-12.5-0.5-18.8-0.3
				c-4.3,0.2-8.5,0.7-12.6,2c-0.7,0.2-1.4,1-1.9,2.4c-0.7,2.1-1.1,5.6-1.2,9.8c-0.4,10.7,0.6,25.5,0.9,28.2c0.4,3.3,0.7,6.6,0.8,9.9
				c0.1,2.2,0.1,4.3-0.1,6.5c0,0.1,0,1.4,0.2,2.7c0.1,0.7,0.3,1.3,0.4,1.7c0.1,0.2,0.1,0.4,0.1,0.5c0.1,0.2,0.2,0.3,0.2,0.3
				c0.1,0,0.4,0.1,0.4-0.2C252.8-2399.1,252.8-2399.2,252.7-2399.3z M252.5-2399.5c-0.1,0-0.1,0-0.2,0
				C252.3-2399.5,252.4-2399.5,252.5-2399.5z"/>
		</g>
		<g transform="matrix(2.31336,0,0,1.52689,-2954.48,0)">
			<path class="st1" d="M252.5-2398c0.2,0,0.4,0.2,0.8,0.2c0.4,0,0.9-0.1,1.4-0.1c0.5,0,1.1,0.1,1.7,0.2c1.7,0.1,3.4,0,3.8,0.1
				c1.3,0,2.5,0.1,3.8,0.1c5.1,0.3,10.2,0.7,15.3,0.9c4.8,0.1,30.9,1.3,50.2,0.7c8.8-0.3,16.1-0.9,19.4-2.1c0.5-0.2,1-0.4,1.3-0.6
				c0.4-0.3,0.7-0.7,0.8-1c0.1-0.3,0-0.7-0.3-0.9c-0.3-0.2-0.6,0-0.8,0.3c-0.1,0.1-0.3,0.1-0.5,0.2c-0.3,0.1-0.6,0.3-1,0.5
				c-3.3,1.1-10.4,1.7-19,1.9c-19.2,0.5-45.3-0.6-50.1-0.7c-4.5-0.1-8.9-0.4-13.4-0.6c-1.9-0.1-3.8-0.2-5.8-0.2
				c-0.5,0-2.2,0-3.9,0.1c-0.6,0-1.1,0.2-1.7,0.2c-0.5,0-1-0.1-1.4,0c-0.3,0-0.6,0.1-0.8,0.2c-0.2,0-0.3,0.2-0.3,0.4
				C252.1-2398.1,252.3-2398,252.5-2398z"/>
		</g>
		<g transform="matrix(2.31336,0,0,1.52689,-2954.48,0)">
			<path class="st1" d="M328.9-2400.9c-0.1,0-0.2,0-0.3,0c-0.4,0.1-0.6,0.6-0.5,1c0,0.4,0.1,0.6,0.2,0.9c0.1,0.1,0.2,0.2,0.3,0.3
				c1,1,2.8,0.8,4.1-0.4c1.2-1.1,1.8-3,0.6-5.3c-0.5-0.9-1-1.3-1.5-1.4c-0.6-0.1-1.1,0-1.6,0.4c-0.8,0.7-1.4,2.2-1.6,3.2
				c0,0.1,0,0.2,0,0.2c0,0.5,0.1,0.8,0.2,0.8C328.8-2401,328.9-2400.9,328.9-2400.9z M329.2-2400.8c0.1,0.1,0.2,0.2,0.3,0.4
				c0.1,0.1,0.2,0.1,0.3,0.2c0.1,0.1,0.2,0.2,0.3,0.2c0.6,0.2,1.5-0.2,1.9-1c0.4-0.6,0.4-1.4-0.1-2.3c-0.3-0.5-0.5-0.8-0.7-0.6
				c-0.6,0.5-1,1.6-1.3,2.2c-0.1,0.1-0.1,0.2-0.2,0.3c-0.1,0.1-0.1,0.1-0.1,0.1l0,0c0,0.1,0,0.3-0.1,0.3
				C329.4-2400.8,329.3-2400.9,329.2-2400.8C329.2-2400.8,329.2-2400.8,329.2-2400.8z M329.3-2401.6c0,0,0.1,0,0.1,0.1
				C329.3-2401.6,329.3-2401.6,329.3-2401.6z M329-2401.6L329-2401.6C329-2401.6,329-2401.6,329-2401.6L329-2401.6
				C329-2401.6,329-2401.6,329-2401.6L329-2401.6z"/>
		</g>
		<g transform="matrix(2.31336,0,0,1.52689,-2954.48,0)">
			<path class="st1" d="M335.2-2404.8L335.2-2404.8c0.2,0.1,0.4,0,0.5-0.2c0.1-0.2,0-0.4-0.2-0.5l0,0c-0.2-0.1-0.4,0-0.4,0.2
				C335-2405,335.1-2404.8,335.2-2404.8z"/>
		</g>
		<g transform="matrix(2.31336,0,0,1.52689,-2954.48,0)">
			<path class="st1" d="M331.2-2408.9c0-0.2-0.2-0.3-0.4-0.3c-0.1,0-0.1,0-0.1,0c0,0,0,0-0.1,0c-0.2,0,0,0.2-0.1,0.4
				c-0.1,0.1,0.1,0.3,0.2,0.4c0.1,0.2,0.2,0.3,0.4,0.4c0.1,0.1,0.2,0.1,0.4,0.1c0.7,0.1,1.8-0.2,2.3-0.1l5.6,0.4
				c1.7,0.1,4.3,0,6.8,0.2c1.5,0.1,3,0.3,4.1,0.9c1.4,0.7,1.7,2.1,0.7,4.7c-0.2,0.5-0.3,1-0.6,1.5c-0.1,0.2-0.1,0.4,0.1,0.5
				c0.2,0.1,0.4,0.1,0.5-0.1c0.4-0.5,0.7-0.9,1-1.4c2-3.5,0.9-5.7-1-6.9c-1.2-0.7-2.9-1.1-4.7-1.3c-2.5-0.2-5.1,0-6.8-0.1
				c-1.1-0.1-2.3-0.1-3.4-0.2c-0.8,0-1.5,0-2.3,0c-0.4,0-1.2,0.2-1.8,0.3c-0.2,0-0.4,0-0.6,0.1c-0.1,0-0.1,0.2-0.2,0.2
				c0,0,0,0.1,0,0.1C331.2-2409,331.2-2409,331.2-2408.9C331.2-2408.9,331.2-2408.9,331.2-2408.9z M331.1-2408.5
				C331.1-2408.5,331-2408.5,331.1-2408.5L331.1-2408.5C331.1-2408.5,331.1-2408.5,331.1-2408.5L331.1-2408.5L331.1-2408.5z
				 M331.2-2408.9c0,0.1,0,0.1,0,0.2C331.2-2408.7,331.3-2408.8,331.2-2408.9L331.2-2408.9z"/>
		</g>
		<g transform="matrix(2.31336,0,0,1.52689,-2954.48,0)">
			<path class="st1" d="M334.3-2404.4c0.2,0.1,0.2,0.2,0.4,0.2c0.3,0,0.6-0.1,0.9-0.1c1.4-0.2,3-0.3,4.8-0.3c2.4,0,5,0,7.3-0.1
				c0.2,0,0.3,0,0.5,0c0.4-0.1,0.7-0.2,1.1-0.2c0.2,0,0.4-0.2,0.4-0.4c0-0.2-0.2-0.4-0.4-0.4c-0.3-0.1-0.7-0.2-1.1-0.2
				c-2.9-0.3-6.5-0.3-9.5-0.2c-1.4,0.1-2.6,0.2-3.7,0.5c-0.2,0-0.3,0.1-0.5,0.2c-0.2,0.1-0.2,0.3-0.4,0.4c-0.2,0.1-0.3,0.2-0.2,0.4
				C334-2404.5,334.1-2404.4,334.3-2404.4z"/>
		</g>
		<g>
			<g transform="matrix(2.87515,0,0,1.87858,-3550.9,-1261.06)">
				<path class="st1" d="M438.8-1310.8c-0.1,0-0.1,0.1-0.1,0c0,0-0.1,0-0.1,0c0,0,0,0.1,0,0.1c0,0.2,0.1,0.4,0.1,0.4
					c0.1,0.4,0.1,0.9,0.1,1.3c0,0.3-0.1,0.5-0.2,0.7c-0.1,0.2-0.2,0.3-0.4,0.5c-0.3,0.3-0.8,0.5-1.2,0.8c-0.5,0.3-1.1,0.7-1.4,1.2
					c-0.4,0.6-0.4,1.2-0.2,1.7c0.2,0.5,0.6,0.9,1.3,0.9l1-0.2c0.2,0,0.3-0.2,0.3-0.4c0-0.2-0.2-0.4-0.4-0.3l-0.8-0.1
					c-0.2,0-0.4-0.1-0.4-0.3c-0.1-0.2,0-0.4,0.1-0.6c0.2-0.4,0.6-0.6,1-0.8c0.5-0.3,1-0.5,1.4-0.9c0.2-0.2,0.5-0.5,0.6-0.8
					c0.2-0.4,0.3-0.8,0.3-1.2c0-0.6-0.1-1.2-0.2-1.7c0,0-0.1-0.5-0.3-0.7c-0.3-0.3-0.5-0.4-0.7-0.2c-0.1,0.1-0.2,0.3-0.1,0.4
					C438.6-1310.8,438.7-1310.7,438.8-1310.8z"/>
			</g>
			<g transform="matrix(2.87515,0,0,1.87858,-3550.9,-1261.06)">
				<path class="st1" d="M436-1303.8l-0.7,0.2c-0.3,0.2-0.6,0.4-0.8,0.7c-0.2,0.3-0.3,0.6-0.4,1c-0.2,1.1,0.1,2,0.6,2.7
					c0.5,0.7,1.3,1.1,2.2,1.2c1.1,0.2,2.4,0.1,3.6-0.2c1.2-0.3,2.4-0.8,3.4-1.6c0.6-0.5,1.3-1.8,1.4-2.9c0.1-0.8-0.1-1.6-0.8-1.9
					c-0.1-0.1-0.3-0.1-0.5-0.1c-0.3-0.1-0.5,0.1-0.6,0.5c0,0.3,0.1,0.6,0.4,0.6c0.1,0,0.1,0.1,0.2,0.2c0.3,0.2,0.2,0.6,0.1,1
					c-0.2,0.7-0.5,1.3-0.9,1.6c-0.8,0.7-1.9,1.1-3,1.4c-1.1,0.3-2.3,0.3-3.3,0.2c-0.6-0.1-1.2-0.3-1.5-0.8c-0.4-0.4-0.6-1-0.5-1.7
					c0-0.2,0.1-0.4,0.2-0.6c0.1-0.2,0.2-0.4,0.4-0.5c0.1-0.1,0.4-0.2,0.6-0.3c0.1-0.1,0.2-0.2,0.2-0.3c0.1-0.1,0-0.3-0.1-0.4
					C436.2-1304,436-1303.9,436-1303.8z"/>
			</g>
			<g transform="matrix(2.87515,0,0,1.87858,-3550.9,-1261.06)">
				<path class="st1" d="M439.6-1310.9c0-0.1-0.1-0.1-0.1-0.1c-0.1-0.1-0.3-0.1-0.4-0.1c-0.1,0.1-0.2,0.3-0.1,0.4l0.1,0.4l0.5,1.2
					c0.3,0.7,0.6,1.3,0.8,2c0.1,0.4,0,0.8-0.1,1.2c0,0.2-0.1,0.4-0.1,0.6c-0.1,0.2-0.1,0.4,0.1,0.6c0.2,0.1,0.4,0.1,0.5-0.1
					c0.2-0.2,0.3-0.3,0.4-0.5c0.3-0.5,0.3-1,0.3-1.6c-0.1-0.9-0.6-1.8-1.1-2.7l-0.6-1.1L439.6-1310.9L439.6-1310.9z M439.1-1310.7
					C439.1-1310.7,439.1-1310.6,439.1-1310.7c0,0.1,0,0.1,0,0.1C439.1-1310.6,439.1-1310.7,439.1-1310.7z M439.2-1310.9
					c0,0-0.1,0.1-0.1,0.1C439.1-1310.8,439.1-1310.9,439.2-1310.9z"/>
			</g>
			<g transform="matrix(2.87515,0,0,1.87858,-3550.9,-1261.06)">
				<path class="st1" d="M440.9-1306.4c-0.1,0-0.2,0.1-0.3,0.2c-0.1,0.3,0.1,0.4,0.2,0.4c0.1,0,0.5-0.1,0.5-0.1s0,0,0,0l0.7,0.2
					c0.2,0.1,0.3,0.3,0.4,0.6c0.1,0.3,0.2,0.7,0.3,0.9c0.1,0.3-0.1,0.6-0.4,0.9c-0.3,0.3-0.7,0.6-1.1,0.8c-0.1,0.1-0.2,0.1-0.3,0.2
					c-0.1,0.1-0.1,0.1-0.2,0.2c-0.2,0-0.3,0.2-0.3,0.4s0.2,0.4,0.3,0.4c0.1,0.1,0.2,0.1,0.3,0.1c0.2,0,0.3,0,0.5-0.1
					c0.5-0.1,1.1-0.5,1.6-1c0.5-0.6,0.8-1.3,0.7-2.1c-0.1-0.4-0.3-1-0.6-1.4c-0.2-0.4-0.5-0.7-0.8-0.8c-0.2,0-0.3-0.1-0.5-0.1
					c-0.2,0-0.3,0-0.5,0C441.2-1306.7,441-1306.5,440.9-1306.4z"/>
			</g>
		</g>
	</g>
	<g transform="matrix(0.191972,0,0,0.260497,518.27,1031.8)">
		<g transform="matrix(2.31336,0,0,1.52689,-3226.47,-17.5812)">
			<path class="st1" d="M302.7-2505.6C302.7-2505.6,302.7-2505.6,302.7-2505.6c-0.1,0.2-0.1,0.1-0.2,0.2c-0.1,0.2,0,0.6,0,0.9
				c0.2,1,0.2,2,0.2,3c0,1-0.1,2-0.2,3.1c-0.3,2.5-0.7,4.8-1.2,7.1c-0.4,1.6-0.9,3.2-1.4,4.8c-0.2,0.7-0.4,1.4-0.6,2.1
				c-0.2,0.4,0,0.8,0.3,1c0.3,0.2,0.7,0,0.9-0.3c0.3-0.5,0.6-1,0.9-1.6c0.6-1.3,1-2.6,1.4-4c0.8-2.8,1.3-5.8,1.6-8.9
				c0.1-1.1,0.1-2.2,0.1-3.3c-0.1-1.1-0.2-2.2-0.5-3.3c-0.1-0.2-0.1-0.5-0.2-0.7c-0.1-0.2-0.2,0-0.2-0.2c0-0.1,0-0.1,0-0.2
				c-0.1-0.3-0.3-0.3-0.4-0.3c-0.1,0-0.2,0.1-0.2,0.2C302.7-2505.8,302.7-2505.7,302.7-2505.6z M303-2505.4c0.1,0,0.2,0,0.3-0.2
				C303.2-2505.5,303.1-2505.4,303-2505.4z"/>
		</g>
		<g transform="matrix(2.31336,0,0,1.52689,-3226.47,-17.5812)">
			<path class="st1" d="M321.4-2490.7C321.4-2490.7,321.4-2490.7,321.4-2490.7L321.4-2490.7L321.4-2490.7c-0.1,0,0.1-0.2,0.2-0.4
				c0.1-0.2,0.2-0.3,0.1-0.5c0-0.1,0-0.2-0.1-0.3c-0.2-0.2,0-0.1-0.2-0.3c0,0,0,0-0.1-0.1c-0.1-0.1,0-0.2-0.1-0.4
				c-0.1-0.2-0.3-0.2-0.4-0.1c-0.2,0.1-0.2,0.3-0.1,0.5c0,0.2-0.3-0.1-0.4,0c-0.1,0.1-0.1,0.1-0.2,0.2c-0.3,0.4-0.4,0.9-0.4,1.4
				c0,0.5,0.4,0.9,0.9,0.9C321.1-2489.8,321.4-2490.2,321.4-2490.7z"/>
		</g>
		<g transform="matrix(2.31336,0,0,1.52689,-3226.47,-17.5812)">
			<path class="st1" d="M322.9-2490.4c0,0.3-0.3,0.5-0.6,0.7c-0.5,0.5-1.2,0.8-1.6,1c-0.8,0.5-1.6,0.8-2.5,1.1
				c-1.4,0.4-2.9,0.6-4.3,0.9c-0.5,0.1-1.4,0.2-2.2,0.4c-0.5,0.2-0.9,0.4-1.2,0.7c-0.4,0.4-0.6,1.1-0.7,1.9c0,1.6,0.8,4.2,0.7,5.3
				c-0.1,1-0.6,1.9-1.2,2.9c-0.9,1.5-2.1,2.8-3,3.9c-0.2,0.2-0.2,0.6,0,0.8c0.2,0.2,0.5,0.2,0.8,0c0.7-0.6,1.4-1.3,2.1-2.2
				c0.5-0.5,0.9-1.1,1.3-1.7c0.7-1.1,1.3-2.3,1.4-3.5c0.2-1.1-0.4-3.2-0.5-4.9c0-0.5-0.1-0.9,0.2-1.2c0.2-0.2,0.4-0.2,0.7-0.3
				c0.7-0.1,1.4-0.2,1.8-0.3c1.4-0.4,2.9-0.6,4.3-1.1c1-0.4,2-0.8,2.9-1.5c0.4-0.3,1.3-1,1.8-1.8c0.3-0.5,0.5-0.9,0.5-1.3
				c0-0.3-0.2-0.5-0.4-0.5C323.1-2490.9,322.9-2490.7,322.9-2490.4z"/>
		</g>
		<g transform="matrix(2.31336,0,0,1.52689,-3226.47,-17.5812)">
			<path class="st1" d="M323.9-2490.9L323.9-2490.9L323.9-2490.9C323.9-2490.9,324-2490.9,323.9-2490.9c0,0.1,0.1,0.1,0.1,0.1
				c0,0.1,0,0.1,0,0.2c0,0.3,0.1,0.6,0.2,0.9c0.1,0.4,0.3,0.8,0.4,0.9c0.2,0.3,1.1,1.1,1.8,1.9c0.2,0.2,0.6,0.6,0.7,0.8
				c-0.8,1-1.9,1.7-2.9,2.5c-0.3,0.2-0.5,0.5-0.8,0.8c-2.5,2.9-4.1,5.1-6,7c-1.5,1.4-3.3,2.5-5.8,3.7c-0.5,0.2-1,0.5-1.6,0.8
				c-0.3,0.1-0.4,0.5-0.4,0.8c0.1,0.3,0.4,0.5,0.7,0.4c0.5-0.1,1-0.2,1.4-0.4c2.2-0.7,3.8-1.7,5.2-2.8c2.8-2,4.5-4.6,7.7-8.3
				c0.8-1,2-1.7,2.9-2.6c0.3-0.3,0.5-0.5,0.8-0.8c0.4-0.5,0.4-1.2,0-1.9c-0.6-1.1-2.5-2.4-2.8-2.7c-0.1-0.1-0.2-0.4-0.4-0.7
				c-0.2-0.3-0.3-0.6-0.5-0.8c-0.1-0.1-0.1-0.1-0.2-0.1c-0.1-0.1-0.1-0.2-0.1-0.2c-0.1-0.2-0.3-0.2-0.3-0.2
				C324.2-2491.5,323.8-2491.4,323.9-2490.9C323.9-2491,323.9-2490.9,323.9-2490.9z M327.2-2486c0,0.1-0.1,0.2,0,0.2
				C327.2-2485.8,327.2-2485.9,327.2-2486z"/>
		</g>
		<g transform="matrix(2.31336,0,0,1.52689,-3226.47,-17.5812)">
			<path class="st1" d="M298.2-2486.7c0.1-0.1,0.2-0.3,0.1-0.5c-0.1-0.2-0.3-0.2-0.5-0.1c-0.1-0.1,0,0-0.2,0c0,0,0,0-0.1,0.1
				c-0.1,0-0.1,0.1-0.1,0.1c-0.1,0-0.1,0.1-0.1,0.2c-0.1,0.2-0.1,0.4-0.1,0.6c0,0.8,0.5,2.1,0.9,2.9c0.5,0.9,1.1,1.8,1.8,2.5
				c0.7,0.7,1.5,1.4,2.3,1.9c0.5,0.3,1.3,0.7,2,1.2c0.3,0.2,0.6,0.4,0.7,0.8c0.1,0.2,0.1,0.4,0,0.6c-0.2,0.9-0.6,1.8-0.5,2.8
				c0,0.4,0.1,0.8,0.3,1.2c0.4,1,1.3,1.8,1.4,3c0.1,1.6,0.1,2.4,0.1,3.1c-0.1,1-0.5,1.5-0.9,3.1c-0.1,0.4-0.2,0.9-0.3,1.5
				c-0.1,0.4,0.1,0.7,0.4,0.8c0.3,0.1,0.7-0.1,0.7-0.5c0.2-0.5,0.4-0.9,0.5-1.3c0.6-1.7,0.9-2.3,1.1-3.4c0.1-0.7,0.1-1.7,0-3.4
				c0-0.4-0.1-0.8-0.2-1.2c-0.2-0.6-0.6-1.2-0.9-1.8c-0.2-0.4-0.5-0.8-0.5-1.3c-0.1-0.8,0.4-1.5,0.5-2.2c0.1-0.5,0.1-1-0.1-1.6
				c-0.2-0.5-0.5-1-1-1.4c-0.7-0.6-1.8-1-2.4-1.4c-0.7-0.5-1.4-1-2.1-1.6c-0.6-0.6-1.2-1.3-1.7-2.1c-0.3-0.5-0.6-1.1-0.7-1.7
				c-0.1-0.2-0.2-0.6-0.1-0.6C298.5-2486.6,298.3-2486.6,298.2-2486.7C298.3-2486.5,298.2-2486.6,298.2-2486.7z"/>
		</g>
		<g transform="matrix(2.31336,0,0,1.52689,-3226.47,-17.5812)">
			<path class="st1" d="M297-2488.3c0,0.1,0.1,0.2,0.1,0.2c0.3,0.3,0.6,0,0.5-0.6c0-0.2-0.2-0.5-0.3-0.6c-0.1-0.1-0.3-0.1-0.4-0.1
				c-0.2,0-0.4,0.2-0.6,0.3c-0.3,0.3-0.6,0.7-0.8,1c-1,1-3,1.8-4,3c-0.6,0.7-1,1.6-0.9,2.7c0.3,3.3,1.8,6.5,4,8.7
				c1.6,1.6,3.7,2.7,5.8,2.7c0.9,0,1.8-0.2,2.7-0.6c0.4-0.1,0.6-0.6,0.5-1c-0.1-0.4-0.5-0.6-0.9-0.5c-0.8,0.2-1.5,0.2-2.3,0.2
				c-1.8-0.1-3.4-0.9-4.8-2.2c-2-1.9-3.4-4.7-3.7-7.5c-0.1-0.8,0.3-1.4,0.9-2c1-1,2.5-1.8,3.3-2.7L297-2488.3z"/>
		</g>
		<g transform="matrix(2.31336,0,0,1.52689,-3226.47,-17.5812)">
			<path class="st1" d="M290.5-2481c-0.2,0-0.3,0.2-0.3,0.4c0,0.2,0.1,0.4,0.3,0.4l0.1,0c0.2-0.1,0.2-0.3,0.2-0.5
				C290.8-2480.9,290.7-2481,290.5-2481z"/>
		</g>
		<g transform="matrix(2.31336,0,0,1.52689,-3226.47,-17.5812)">
			<path class="st1" d="M290.6-2481.1c0-0.2-0.2-0.3-0.3-0.3l0,0c-0.1,0-0.2,0-0.3-0.1c-0.1-0.1,0-0.1-0.1-0.2c0,0-0.1,0-0.1,0
				c-0.3,0-0.7,0-1.1,0.1c-0.3,0.1-0.6,0.2-1,0.4c-1.8,0.8-3.7,2.3-4.9,3.1c-2.3,1.6-6,4.9-8.6,8.6c-1.5,2-2.7,4.2-3.2,6.2
				c-0.1,0.4-0.3,0.9-0.2,1.3c0,0.3,0.1,0.4,0.2,0.6c0,0.4,0.3,0.8,0.6,0.8s0.7-0.3,0.7-0.7c0.1-0.2,0.2-0.2,0.3-0.4
				c0.1-0.1,0.1-0.3,0.1-0.4c0.6-2.4,2.1-5.1,4-7.6c2.3-2.9,5-5.5,6.8-6.7c0.8-0.6,2.1-1.5,3.3-2.3c0.7-0.4,1.4-0.8,2-1.1
				c0.3-0.2,0.6-0.3,0.9-0.5c0.1-0.1,0.1-0.1,0.1-0.2c0.1-0.1,0.2-0.1,0.2-0.1c0.1,0,0.2,0,0.2-0.1
				C290.6-2480.8,290.6-2481,290.6-2481.1z M290.6-2481L290.6-2481L290.6-2481L290.6-2481C290.6-2481,290.6-2481,290.6-2481
				C290.7-2481,290.7-2481,290.6-2481z M290.1-2481.2L290.1-2481.2L290.1-2481.2C290.1-2481.2,290.1-2481.2,290.1-2481.2z
				 M290.3-2481.3c-0.1,0-0.1,0-0.1,0C290.2-2481.3,290.3-2481.3,290.3-2481.3z"/>
		</g>
		<g transform="matrix(2.31336,0,0,1.52689,-3226.47,-17.5812)">
			<path class="st1" d="M330-2483.7L330-2483.7L330-2483.7c0,0.1,0,0.1,0,0.1c0.2,0.1,0.4,0.1,0.7,0.2c0.7,0.2,1.7,0.4,1.8,0.5
				c0.9,0.3,1.9,0.6,2.8,0.9c0.9,0.3,1.9,0.7,2.8,1c3.4,1.3,6,2.6,8.3,4.4c2.2,1.8,4.1,4.1,5.9,7.5c3.3,6.2,6.6,14.9,9.3,23.8
				c2.7,8.9,4.7,18,5.3,25.3c0.3,4.2-0.4,9.4-2.6,13c-1.5,2.4-3.7,4-6.7,4.2c-1.1,0.1-2.3,0.1-3.6-0.2c-0.3-0.1-0.7,0.1-0.8,0.5
				c-0.1,0.4,0.1,0.8,0.5,0.9c1.5,0.6,2.9,0.9,4.2,0.8c2.5-0.1,4.5-1.2,6.1-2.8c3.8-3.8,5-11,4.5-16.6c-0.5-7.4-2.4-16.7-5-25.8
				c-2.7-9.1-6.1-17.9-9.4-24.3c-2-3.7-4.1-6.2-6.6-8.1c-2.4-1.8-5.3-3-8.9-4.2c-1-0.3-1.9-0.6-2.9-0.9c-1-0.3-1.9-0.6-2.9-0.8
				c-0.2,0-1.1-0.3-1.9-0.4c-0.4,0-0.7-0.1-0.9,0c-0.3,0.1-0.4,0.1-0.5,0.2c-0.1,0.2-0.3,0.3-0.2,0.4c0,0,0,0.1,0,0.1
				c0,0,0,0.1,0.1,0.2C329.7-2483.7,329.9-2483.7,330-2483.7z M329.9-2483.7C329.9-2483.6,329.9-2483.6,329.9-2483.7
				C329.9-2483.7,329.9-2483.7,329.9-2483.7z M330.1-2483.9c0,0.1,0,0.2-0.1,0.2l0,0C330.1-2483.8,330.1-2483.9,330.1-2483.9z
				 M330.1-2484.2C330.1-2484.2,330.1-2484.2,330.1-2484.2L330.1-2484.2L330.1-2484.2C330.1-2484.2,330.1-2484.2,330.1-2484.2
				L330.1-2484.2z"/>
		</g>
		<g transform="matrix(2.31336,0,0,1.52689,-3226.47,-17.5812)">
			<path class="st1" d="M329.7-2432.9c-0.1,0.1,0,0-0.1,0.1c0,0.1,0,0.1,0,0.2c0.1,0.4,0.5,0.8,1.1,1.2c1.5,1,4.4,1.8,5.1,2.1
				c2.9,1.3,5.8,2.7,8.7,4.1c1.7,0.9,3.4,1.8,5.1,2.7c1.1,0.6,2.3,1.1,3.4,1.7c0.3,0.2,0.6,0.1,0.8-0.3c0.2-0.3,0.1-0.7-0.2-0.9
				c-1.1-0.8-2.2-1.5-3.3-2.2c-1.1-0.7-2.3-1.2-3.5-1.8c-3.5-1.7-7-3.3-10.6-4.8c-0.6-0.3-2.4-0.8-3.9-1.3c-0.6-0.2-1.2-0.5-1.6-0.8
				c-0.1-0.1-0.3-0.1-0.4-0.2c0,0-0.1,0-0.1,0c0-0.2-0.2-0.3-0.4-0.3C329.9-2433.3,329.7-2433.1,329.7-2432.9z"/>
		</g>
		<g transform="matrix(2.31336,0,0,1.52689,-3226.47,-17.5812)">
			<path class="st1" d="M351.6-2424.4c0.1,0,0.1,0.1,0.2,0.1c0.2,0,0.5,0.1,0.8,0.3c0.8,0.4,1.8,1.2,2.8,2.1
				c2.4,2.2,4.8,5.3,5.2,6.1c0.2,0.4,0.7,0.5,1,0.2c0.3-0.3,0.4-0.8,0.2-1.1c-0.5-0.9-3.8-5-6.6-7.3c-1-0.8-1.9-1.4-2.6-1.5
				c-0.5-0.1-1.1-0.1-1.3,0.2c-0.1,0.2-0.2,0.2-0.2,0.4c-0.1,0.1-0.1,0.4,0,0.5C351.3-2424.3,351.5-2424.3,351.6-2424.4z"/>
		</g>
		<g transform="matrix(2.31336,0,0,1.52689,-3226.47,-17.5812)">
			<path class="st1" d="M342.4-2447.1c0,0-0.1,0.1-0.1,0.2c0,0.1-0.1,0.1-0.1,0.2c-0.1,0.5,0,1.4-0.1,1.6l0,4.6
				c0.1,2.4,0.4,4.7,0.8,7c0.5,2.3,1.1,4.5,1.9,6.7c0.1,0.3,0.4,0.5,0.8,0.4c0.3-0.1,0.5-0.5,0.4-0.8c-0.7-2.2-1.2-4.4-1.6-6.6
				c-0.4-2.2-0.7-4.4-0.9-6.7l-0.2-4.5c0-0.3,0-1.1-0.1-1.6c0-0.1,0-0.1-0.1-0.2C342.9-2447.6,342.5-2447.2,342.4-2447.1
				C342.5-2447.2,342.4-2447.2,342.4-2447.1z"/>
		</g>
		<g transform="matrix(2.31336,0,0,1.52689,-3226.47,-17.5812)">
			<path class="st1" d="M346.2-2425.3c0,0.1,0,0.1,0.1,0.1c0,0,0.1,0,0.1,0c0.7-0.3,2.4-1.1,2.8-1.3c0.9-0.4,1.7-0.6,2.6-0.8
				c1.3-0.3,2.7-0.5,4.1-0.6c0.1,0,0.3-0.1,0.3-0.3c0-0.2-0.1-0.3-0.3-0.3c-1.2-0.1-2.4-0.1-3.5,0c-1.2,0.1-2.3,0.4-3.5,0.9
				c-0.4,0.2-2.3,0.7-2.9,1.2c-0.1,0-0.1,0.1-0.2,0.1c-0.1,0.3,0.1,0,0,0.2c0,0.2-0.2,0.2-0.2,0.3c0,0.2,0,0.4,0.2,0.5
				C346-2425.1,346.1-2425.2,346.2-2425.3z M346.3-2425.7c0,0.1,0.1,0.1,0.1,0.2C346.3-2425.6,346.3-2425.7,346.3-2425.7z"/>
		</g>
		<g transform="matrix(2.31336,0,0,1.52689,-3226.47,-17.5812)">
			<path class="st1" d="M330.1-2413.5C330.1-2413.5,330.1-2413.5,330.1-2413.5c-0.1-0.1-0.1-0.2-0.1-0.1
				C330-2413.6,330-2413.5,330.1-2413.5c0,0,0,0.1,0,0.1c0,0,0,0,0.1,0.1c-0.1,0-0.1,0-0.2,0c0,0,0.1-0.1,0.1-0.1s-0.1-0.2-0.2-0.3
				c-0.1-0.1-0.1-0.1-0.1-0.1c-0.2-0.1-0.3,0-0.4,0c-0.2,0-0.2,0.3-0.3,0.4c0,0-0.1,0.4,0.3,0.8c0.1,0.1,0.5,0.4,0.7,0.5l1,0.8
				c0.8,0.6,1.7,1.3,2.5,1.8c0.2,0.1,0.4,0.2,0.6,0.3c0.2,0.1,0.4,0.1,0.7,0.2c0.3,0.1,0.6,0,0.7-0.3c0.1-0.3,0-0.6-0.3-0.8
				c-0.2-0.1-0.3-0.3-0.5-0.4c-0.4-0.3-0.8-0.5-1.2-0.8c-0.6-0.4-1.2-0.9-1.7-1.3l-1.1-0.8C330.7-2413.3,330.3-2413.4,330.1-2413.5z
				"/>
		</g>
	</g>
	<g transform="matrix(0.4441,0,0,0.39775,0,0)">
		<path class="st0" d="M128.4,162.8c0,0-2.2,18.5,0.9,20.5c3.2,2,45.1,2.3,47.2,1.5c2.1-0.8,1.5-19,0.2-20.9c-1.3-2-3.2-0.7-3.5-0.7
			c-0.2-0.1-4.3-5.7-7.8-6c0,0-0.7-6.3-6.6-6c-5.8,0.2-7-1.1-10,5.9c0,0-1.5-4.7-7.7-2.9c-6.2,1.8-7.6-1.4-8.9,7.8
			C132.4,161.9,128.5,162.7,128.4,162.8z"/>
	</g>
	<g transform="matrix(0.4441,0,0,0.39775,0,0)">
		<path class="st1" d="M128,164.2L128,164.2C127.9,164.3,127.9,164.2,128,164.2L128,164.2L128,164.2c-0.1,0-0.2,0.1-0.2,0.1
			c-0.1-0.1-0.1,0-0.2,0c-0.1-0.2-0.3-0.1-0.3-0.3c0-0.1-0.1-0.1,0-0.2c0,0,0-0.2,0-0.2s0,0.1-0.1,0.2c-0.1,0.1-0.1,0.1-0.2,0.2
			c-0.3,0.6-0.1,1.4-0.2,2.1l-0.1,3.8c-0.1,2.7-0.4,6.6,0.1,9.9c0.3,1.6,0.7,3.1,1.4,4.2c0.2,0.4,0.7,0.5,1,0.3
			c0.4-0.2,0.5-0.8,0.3-1.2c-0.4-0.8-0.6-1.8-0.8-2.9c-0.1-0.7-0.2-1.4-0.2-2.1c-0.2-2.9-0.1-6-0.1-8.3l0-3.7c0-0.7,0.2-1.4,0-2
			c0-0.1-0.1-0.1-0.1-0.2c-0.1-0.1-0.1-0.1-0.1-0.1c-0.1-0.2,0.1-0.3,0-0.3c-0.2-0.1-0.1-0.5-0.3-0.4c0,0-0.1-0.1-0.1,0
			c-0.1,0-0.1-0.1-0.2,0c-0.1,0.1-0.2-0.3-0.1,0.2c-0.2,0.1-0.3,0.3-0.2,0.5C127.5,164.1,127.7,164.2,128,164.2
			C127.9,164.2,127.9,164.2,128,164.2z"/>
	</g>
	<g transform="matrix(0.4441,0,0,0.39775,0,0)">
		<path class="st1" d="M129.2,163L129.2,163c0.4,0,1.1,0.2,1.9,0.3c0.6,0.1,1.2,0.1,1.9,0.2c4.8,0.4,12.5,1,17.1,0.8
			c2.8-0.1,11.7,0.2,17.3,0.1c2,0,3.6-0.1,4.4-0.2c2.8-0.5,4.2-0.3,4.8,1c0.6,1.3,0.5,3.4,0.4,6.4c-0.1,2.5,0,5.3,0,8
			c0,1.8,0,3.6-0.2,5.2c0,0.4,0.2,0.7,0.5,0.7c0.3,0,0.6-0.2,0.7-0.6c0.2-1.2,0.3-2.6,0.4-4c0.2-3,0.1-6.3,0.2-9.3
			c0.1-2.6,0.1-4.6-0.2-6c-0.2-1.2-0.7-2-1.4-2.6c-1-0.8-2.7-1-5.4-0.6c-0.8,0.1-2.3,0.2-4.2,0.2c-5.7,0.1-14.5-0.2-17.4-0.1
			c-4.6,0.3-12.4-0.5-17.1-0.7c-0.7,0-1.4-0.1-1.9,0c-1,0-1.7,0.2-2,0.3c-0.2,0.1-0.3,0.2-0.4,0.3c-0.1,0.2-0.1,0.5,0.2,0.6
			C128.9,163.1,129.1,163.1,129.2,163z"/>
	</g>
	<g transform="matrix(0.4441,0,0,0.39775,1.95718,0.377086)">
		<path class="st1" d="M127.8,183.1L127.8,183.1c-0.1,0.1,0.2,0.4,0.3,0.4c0.1,0.1,0.1,0.2,0.1,0.2c0,0,0.1,0,0.1,0.1
			c0.9,0.4,2,0.7,3,0.8c2.5,0.4,5.3,0.3,7.6,0.6c4.1,0.5,8.1,0.6,12.1,0.6c6,0,12-0.5,18-0.6c0.6,0,2.6,0.2,3.5-0.3
			c0.7-0.4,1.1-1,1-1.7c0-0.5-0.4-0.9-0.9-0.9c-0.3,0-0.6,0.3-0.7,0.6c0,0,0,0,0,0c-0.8,0.3-2.4,0-2.9,0c-6.1,0.1-12,0.5-18,0.5
			c-3.9,0-7.9,0-11.9-0.4c-2-0.2-4.3-0.1-6.6-0.2c-1.3-0.1-2.5-0.3-3.7-0.6c-0.1,0-0.2-0.1-0.2-0.1c-0.1,0-0.1,0.1-0.2,0.1
			c-0.1,0-0.4,0.1-0.5,0.1c-0.2,0-0.3,0-0.3,0.1c-0.1,0.2-0.3,0.2-0.2,0.4c0,0,0,0.1,0.1,0.2C127.6,183,127.7,183.1,127.8,183.1z
			 M172,183L172,183c0,0.1,0,0.1,0,0.1l0,0.1C172,183.2,172,183.1,172,183L172,183z M128.2,182.8c0,0.1,0,0.2-0.2,0.2l0,0
			C128.2,183,128.2,182.9,128.2,182.8z M172.1,182.9C172.1,182.9,172.1,182.9,172.1,182.9C172.1,182.9,172.1,182.9,172.1,182.9z"/>
	</g>
	<g transform="matrix(0.4441,0,0,0.39775,0,0)">
		<path class="st1" d="M133.1,162C133.1,162,133.1,162,133.1,162c-0.3,0.3-0.2,1,0.3,0.7c0.1,0,0.1,0,0.2-0.1l0,0
			c0,0,0.1-0.1,0.3-0.2c0.3-0.2,0.8-0.5,1.3-0.9c0.5-0.4,0.9-0.8,1.2-1c1.3-1,2.8-2,4.3-2.6c1-0.4,2-0.6,3.1-0.6
			c1.6,0.1,3.1,1,4.6,1.4c0.8,0.2,1.6,0.3,2.4,0.2c0.3,0,0.6-0.1,0.9-0.2c1-0.3,1.9-1,3-1.2c3.8-0.9,7.1-0.8,10.1,0.2
			c2.5,0.9,4.7,2.5,6.9,4.7c0.5,0.5,1,1,1.6,1.5c0.3,0.4,0.9,0.4,1.2,0.1c0.4-0.4,0.4-1,0-1.4c-0.5-0.7-1-1.3-1.5-1.8
			c-2.3-2.5-4.9-4.1-7.7-5c-3.3-1.1-7-1.1-11.1,0c-1,0.3-1.8,0.8-2.7,1.2c-0.3,0.1-0.6,0.3-1,0.3c-0.6,0.1-1.2,0-1.8-0.1
			c-1.6-0.4-3.3-1.3-4.9-1.4c-1.2,0-2.4,0.3-3.6,0.8c-1.7,0.7-3.2,1.8-4.6,2.9c-0.3,0.3-0.8,0.7-1.3,1.1c-0.5,0.5-0.8,1-1.1,1.3
			C133.2,161.8,133.1,161.9,133.1,162L133.1,162z"/>
	</g>
	<g transform="matrix(0.4441,0,0,0.39775,0,0)">
		<path class="st1" d="M148.3,156.8c-0.1,0.1-0.2,0.2-0.2,0.3c0,0.2,0,0.3,0,0.4c0.1,0.2,0.3,0.3,0.5,0.2c0.1,0,0.1-0.2,0.3-0.4
			c0.1-0.1,0.1,0,0.2-0.1c0.5-0.4,0.8-1.6,1.1-2c0.9-1.1,1.5-2.1,2.3-2.9c0.5-0.4,1.1-0.7,1.8-0.8c1.2-0.2,3-0.1,4.7,0.3
			c1.7,0.4,3.3,0.9,4.1,1.9c0.2,0.3,0.3,0.7,0.5,1.2c0.2,0.5,0.3,0.9,0.6,1.2c0.3,0.3,0.6,0.6,1,0.6c0.3,0.1,0.7-0.1,0.8-0.5
			c0.1-0.4-0.1-0.8-0.4-0.9c-0.1-0.1,0.1-0.2,0-0.2c0-0.1-0.1-0.2-0.1-0.3c-0.2-0.5-0.4-1.1-0.6-1.5c-0.1-0.3-0.3-0.6-0.5-0.8
			c-0.9-1-2.4-1.7-4-2.1c-2.2-0.6-4.8-0.7-6.3-0.4c-1.1,0.2-1.9,0.7-2.5,1.3c-0.9,0.8-1.5,2-2.4,3.2c-0.3,0.4-1,1.6-1.1,2.3
			C148.2,156.7,148.3,156.8,148.3,156.8z"/>
	</g>
	<g transform="matrix(0.4441,0,0,0.39775,0,0)">
		<path class="st1" d="M132.5,162.2c0,0,0-0.1,0.1-0.1c0.2-0.9,0.7-2.9,1.3-4.4c0.3-0.7,0.5-1.2,0.7-1.3c0.3-0.2,0.5-0.3,0.8-0.3
			c0.8-0.2,1.7-0.2,2.5-0.5c2.3-0.8,4.7-1.4,6.8-0.9c1,0.3,2,0.9,2.9,1.9c0.2,0.2,0.5,0.4,0.7,0.7c0.2,0.3,0.6,0.4,0.9,0.2
			c0.3-0.2,0.4-0.7,0.2-1c-0.2-0.4-0.3-0.7-0.5-1c-1-1.5-2.4-2.1-3.7-2.5c-2.3-0.6-5,0.2-7.6,1c-0.8,0.3-1.6,0.3-2.4,0.5
			c-0.4,0.1-0.8,0.3-1.2,0.5c-0.3,0.2-0.6,0.6-0.9,1.3c-0.6,1.3-1.2,3.4-1.4,4.8c-0.1,0.4-0.1,0.8-0.1,1c0,0,0,0.1,0,0.1
			c0.2,0.3,0-0.2,0.2,0.1c0.3,0.3,0.2,0.6,0.3,0.7c0.1,0,0.3,0,0.6-0.3C132.5,162.4,132.5,162.3,132.5,162.2z"/>
	</g>
	<g transform="matrix(0.4441,0,0,0.39775,0,0)">
		<path class="st1" d="M144.1,115.4c0.1-0.2,0-0.4-0.1-0.5c-0.2-0.2-0.4-0.1-0.5,0c-0.1,0.1-0.1,0.1-0.2,0.1c-0.1,0,0,0.1-0.1,0.4
			c0,0.4,0.2,0.9,0.6,1.4c0.7,0.9,2,2.1,2.9,3.6c0.5,1,0.9,2.1,0.8,3.4c-0.2,2.4-1.4,4.9-2.5,7.3c-1.4,2.9-2.5,5.8-2.1,8.5
			c0.2,1,0.5,2.1,1.3,3c0.7,1,1.8,1.9,3.3,2.7c0.4,0.2,0.9,0.1,1.1-0.4c0.2-0.4,0.1-1-0.3-1.2c-1-0.7-1.8-1.5-2.3-2.2
			c-1.1-1.4-1.3-2.8-1-4.3c0.3-2,1.4-4.1,2.3-6.2c1-2.3,1.9-4.7,2-7.1c0-1.7-0.5-3.2-1.3-4.4c-1-1.6-2.5-2.7-3.3-3.6
			C144.3,115.9,144.1,115.7,144.1,115.4L144.1,115.4z"/>
	</g>
	<g transform="matrix(0.4441,0,0,0.39775,0,0)">
		<path class="st1" d="M154,114.5c0-0.1-0.1-0.3-0.3-0.3c-0.4-0.2-0.5,0.1-0.6,0.3c-0.1,0.1,0,0.2,0,0.5c0,0.1,0.2,0.4,0.5,0.7
			c0.2,0.3,0.6,0.5,0.7,0.7c0.9,0.8,1.8,1.9,2.6,3c0.7,1.1,1.2,2.3,1.4,3.6l0.1,1c0.1,2-1.1,4.7-2.2,7.4c-1.2,2.9-2.3,5.9-1.9,8.4
			c0.3,2.3,1.6,4.2,4.9,5.3c0.4,0.1,0.7-0.1,0.9-0.5c0.1-0.4-0.1-0.8-0.4-1c-2.4-1-3.4-2.4-3.6-4.1c-0.2-2.2,0.8-4.8,1.8-7.4
			c1.2-3,2.4-6,2.3-8.3l-0.1-1.1c-0.2-1.3-0.7-2.5-1.3-3.5c-0.9-1.5-2.2-2.8-3.5-3.8c-0.2-0.1-0.5-0.4-0.8-0.6
			C154.2,114.6,154.1,114.5,154,114.5z M153.9,114.5C153.9,114.4,153.9,114.4,153.9,114.5C153.8,114.5,153.9,114.5,153.9,114.5z"/>
	</g>
	<g transform="matrix(0.4441,0,0,0.39775,0,0)">
		<path class="st1" d="M165.2,115c0,0,0.1,0,0.1,0c0.1,0,0,0.2,0.1,0.2c0.1,0.1,0.2,0.2,0.3,0.4c0.4,0.5,0.7,1.3,1.1,1.8
			c2.4,3.1,1.8,7.3,0.9,11.6c-0.6,2.6-1.3,5.2-1.7,7.5c-0.4,2.1-0.5,4-0.2,5.5c0.5,2.3,1.8,4,4.8,4.6c0.4,0.1,0.8-0.2,0.9-0.7
			c0.1-0.5-0.2-0.9-0.6-1c-2.1-0.5-3.1-1.7-3.4-3.3c-0.3-1.3-0.1-3,0.3-4.7c0.4-2.3,1.1-4.9,1.6-7.5c0.9-4.8,1.2-9.7-1.7-13
			c-0.5-0.5-1-1.5-1.5-2c-0.2-0.2-0.4-0.4-0.6-0.4c-0.2,0-0.2,0.1-0.4,0.2c-0.1,0-0.2,0-0.4,0.1c-0.2,0.1-0.3,0.3-0.2,0.5
			C164.8,115,165.1,115.1,165.2,115z"/>
	</g>
	<g transform="matrix(0.375579,0,0,0.291741,131.202,391.738)">
		<path class="st1" d="M-184.5-1104.5l-0.1,0.1c-0.4,0.4-0.7,0.8-0.9,0.9c-0.1,0-0.2,0.2-0.3,0.3c-0.1,0-0.2,0-0.3,0
			c-0.1,0-0.1,0.1-0.1,0.1c-0.2,0.1-0.3,0.2-0.5,0.6c-0.1,0.1,0,0.2,0,0.3c-0.1,0.3,0.2,0.4,0.3,0.6c0.1,0.1,0.3,0.1,0.5,0
			c0.3-0.1,0.7-0.3,0.9-0.5c0.2-0.1,0.4-0.2,0.7-0.5c0.3,1.2,0.8,2.2,1.7,2.6c0.3,0.2,0.7,0.3,1.2,0.2c0.5,0,1-0.4,1.5-1
			c0.5-0.5,0.9-1.3,1.3-1.9l0.1-0.1c0,0.3,0.1,0.6,0.2,0.8c0.3,0.8,0.7,1.4,1.2,1.6c0.5,0.2,1,0.1,1.7-0.6l0.1-0.1
			c0.2,0.4,0.5,0.6,0.9,0.8c0.3,0.1,0.7,0.1,1.2-0.1c0.4-0.2,0.9-0.5,1.4-0.8c0,0.4,0.2,0.8,0.5,0.9c0.3,0.1,0.6-0.1,0.8-0.5
			c0,0,0.4-1.5,1.1-2.8c0.1-0.2,0.3-0.4,0.4-0.6l0,0c0.2-0.3,0.4-0.6,0.6-0.8c0,0,0.1,0,0.1-0.1c0,0.2-0.1,0.4-0.1,0.6
			c-0.2,1-0.6,2.2-0.6,3.1c0,0.9,0.3,1.5,0.8,1.9c0.4,0.3,1,0.3,1.6,0.2c0.8-0.2,1.7-0.7,2.5-1.3c0.1,0.2,0.2,0.3,0.4,0.4
			c0.4,0.4,1.1,0.5,2.1,0c0.5-0.3,1.8-1.4,3.1-2.9l-0.2,0.8c-0.3,0.7-0.5,1.3-0.6,1.7c-0.1,0.6,0.1,0.8,0.2,0.9
			c0.2,0.2,0.6,0.5,1-0.1c0.1-0.2,0.5-1,0.5-1.3l0.1-0.4c0.2-0.4,0.5-0.9,0.8-1.4c0.2-0.4,0.5-0.7,0.8-1c0.2-0.2,0.4-0.4,0.6-0.6
			c0.1-0.1,0.2-0.1,0.3-0.2c0.1,0,0.1-0.1,0.2-0.1l0,0c0.1,0.2,0,0.4,0,0.8c0,0.6-0.1,1.4-0.1,2c0,0.9,0.3,1.6,0.7,2
			c0.5,0.5,1.6,0.8,3.2-0.7c0.3-0.3,0.5-0.6,0.8-1c0.3-0.3,0.4-0.8,0.2-1.1c-0.2-0.4-0.6-0.5-0.9-0.2c-0.3,0.2-0.7,0.3-0.9,0.5
			c-0.3,0.2-0.6,0.4-0.8,0.5c-0.2,0.1-0.4,0.1-0.5,0.2c0-0.1,0-0.2,0-0.2c0-0.3,0-0.6,0-0.9c0-1.1,0.1-2.2-0.1-2.7
			c-0.6-1.5-1.6-1.6-2.8-0.6c0.2-0.2,0.3-0.5,0.4-0.7c0.5-0.9,0.9-1.8,1.1-2.5c0.2-1-0.1-1.8-0.7-2.4c-0.3-0.3-0.8-0.3-1.1,0.4
			c-0.3,0.6-0.7,2.6-0.7,2.7c-0.2,0.9-0.4,1.8-0.7,2.7c-1.6,2-3.6,3.9-4.2,4.2c-0.2,0.1-0.4,0.2-0.6,0.2c-0.1,0-0.2,0-0.2,0l0,0
			c0.6-0.6,1-1.3,1.3-1.9c0.3-0.8,0.4-1.5,0.2-2.1c-0.1-0.3-0.3-0.6-0.7-0.6c-0.3,0-0.8,0.2-0.8,0.3c-0.7,0.7-1.3,2.3-1.5,3.6
			c-0.1,0.1-0.1,0.1-0.2,0.2c-0.6,0.5-1.3,0.9-2,1.1c-0.4,0.1-0.8,0.2-1,0c0,0,0-0.2,0-0.3c0-0.2,0.1-0.4,0.1-0.7
			c0.2-1.2,0.6-2.7,0.6-3.4c0-0.7-0.3-1.1-0.7-1.3c-0.5-0.2-1-0.1-1.4,0.2c-0.1-0.1-0.2-0.2-0.3-0.3c-0.2-0.2-0.9-0.4-1.3,0.6
			c-0.2,0.5-0.5,1.5-0.7,2.4c0,0.2-0.1,0.3-0.1,0.5l-0.1,0.1c-0.6,0.6-1.4,1.1-2,1.4c-0.3,0.1-0.5,0.2-0.6,0.1
			c-0.2-0.1-0.2-0.4-0.2-0.7c0.1-0.2,0.3-0.5,0.4-0.7c0.1-0.3,0.7-1.5,0.8-2.2c0.1-0.6,0-1-0.2-1.3c-0.1-0.2-0.7-0.7-1.2,0.1
			c-0.2,0.3-0.5,1.2-0.6,1.3c-0.1,0.5-0.4,1.2-0.5,2c0,0.1-0.1,0.1-0.1,0.2c-0.2,0.3-0.4,0.6-0.7,0.9c-0.2,0.2-0.3,0.3-0.5,0.3
			c-0.2-0.1-0.2-0.3-0.3-0.5c-0.2-0.5-0.2-1.2-0.2-1.9l0,0c0.3-0.4,0.5-0.9,0.6-1.2c0.1-0.2,0.1-0.4,0.2-0.5c0-0.3-0.1-0.5-0.1-0.6
			c-0.1-0.2-0.3-0.4-0.6-0.3c-0.5,0.1-1,0.6-1.2,1.5c-0.1,0.4-0.2,1-0.2,1.5c-0.1,0.2-0.3,0.5-0.5,0.7c-0.2,0.3-0.5,0.6-0.8,0.9
			c-0.5,0.6-1.1,1.1-1.5,1c-0.4-0.1-0.7-0.2-0.9-0.5c-0.4-0.5-0.6-1.2-0.7-2c1.2-1.4,2.7-3.4,3.5-5.1c0.6-1.4,0.8-2.7,0.4-3.6
			c-0.2-0.4-0.6-0.8-1.2-1.1c-0.6-0.2-1.3,0.1-2,1c-1.1,1.5-2.1,4.7-2.2,7.5C-184.5-1104.9-184.5-1104.7-184.5-1104.5z
			 M-153.2-1101.6C-153.2-1101.5-153.2-1101.5-153.2-1101.6C-153.2-1101.6-153.2-1101.6-153.2-1101.6L-153.2-1101.6z M-185.8-1102.5
			C-185.8-1102.5-185.8-1102.5-185.8-1102.5c-0.1,0-0.1,0.1-0.1,0.1c0,0.1,0.1,0.1,0.1,0.2C-185.8-1102.3-185.7-1102.4-185.8-1102.5
			C-185.8-1102.5-185.8-1102.5-185.8-1102.5z M-186.1-1102.9C-186.1-1102.9-186.2-1102.9-186.1-1102.9
			C-186.2-1102.9-186.1-1102.9-186.1-1102.9C-186.1-1102.9-186.1-1102.9-186.1-1102.9z M-182.8-1106.4c0.6-0.8,1.2-1.6,1.6-2.4
			c0.4-0.7,0.8-1.5,0.9-2.1c0.1-0.3,0.1-0.5,0-0.7c-0.1-0.2-0.2-0.2-0.4-0.3c-0.1,0-0.1,0.1-0.2,0.1c-0.2,0.2-0.5,0.6-0.7,1
			C-182.1-1109.6-182.6-1108-182.8-1106.4z"/>
	</g>
</g>
</svg>
