<?xml version="1.0" encoding="utf-8"?>
<!-- Generator: Adobe Illustrator 24.2.0, SVG Export Plug-In . SVG Version: 6.00 Build 0)  -->
<svg version="1.1" id="图层_1" xmlns="http://www.w3.org/2000/svg" xmlns:xlink="http://www.w3.org/1999/xlink" x="0px" y="0px"
	 viewBox="0 0 85 85" style="enable-background:new 0 0 85 85;" xml:space="preserve">
<style type="text/css">
	.st0{display:none;fill:none;}
	.st1{fill-rule:evenodd;clip-rule:evenodd;fill:#FFFFFF;}
	.st2{fill-rule:evenodd;clip-rule:evenodd;}
</style>
<rect x="3.9" y="21.7" class="st0" width="80.9" height="65.9"/>
<path class="st1" d="M35.5,31.6c0,0-1.8,6.6-2.6,6.6c0,0-0.5-0.6-0.4-1.2c0,0-1.5-0.5-1.6,2.4c0,0-11.7,0.8-16.5,14.3
	c-4.3,12-0.9,22.4,4.3,22.8c3.6,0.2,16.2,1.4,20.3,1c4.1-0.4,26,0.7,27.5,0.1c1.5-0.7,1.8-0.5,1.8-0.5s6.7,1.7,7.9-0.7
	s-2.8-4.9-3.5-5.1c0,0-1.5-1.3-3.2-1.5c0,0,4.1-13.6,2.7-13.9C71.5,55.5,55.9,55,55.9,55S54,44.2,47,40.9c0,0-0.4-3.4-3.3-3.5
	l0.3-3.5C44,33.9,41.2,31.3,35.5,31.6z"/>
<g>
	<path class="st2" d="M35.4,32.3L35.4,32.3c-0.2,0-0.3,0.2-0.4,0.3c-0.9,2-1.3,4.1-2.6,5.9c-0.1,0.1-0.1,0.3,0,0.5
		c0.5,0.3,0.9-0.6,1.2-0.9c1-1.7,1.6-3.6,2.1-5.5c0-0.1,0-0.1-0.1-0.1c-0.1-0.2,0.1,0.1-0.1,0c0-0.1,0-0.1-0.1-0.2
		C35.6,32.2,35.5,32.2,35.4,32.3C35.4,32.3,35.4,32.3,35.4,32.3z"/>
	<path class="st2" d="M43.5,35.9c-0.3,0.8-0.6,4.9,0.8,4.4c0.3-0.1,0.4-0.5,0.2-0.7c-0.8-1-0.5-2.5-0.5-3.6c0,0-0.1,0-0.2,0
		c0,0,0-0.1,0-0.1c0,0,0-0.1-0.1-0.1c0,0-0.1,0-0.1,0.1c0,0,0,0.1,0,0.1C43.6,35.9,43.6,35.9,43.5,35.9L43.5,35.9z"/>
	<path class="st2" d="M32.2,37.7L32.2,37.7c-0.3,1.3,1,2.2,1.7,3.1c0.8,1,1.7,1.9,2.6,2.8c0.4,0.4,3.8,4.1,3.3,2.1
		c-2.1-2.2-4.3-4.3-6.4-6.7c-0.3-0.4-0.5-0.8-0.5-1.3c0,0-0.1,0-0.2,0c0-0.2-0.2-0.2-0.2,0C32.4,37.7,32.3,37.7,32.2,37.7z"/>
	<path class="st2" d="M32.6,36.7c-0.1-0.1,0-0.1-0.1-0.2c-3.7,0.1-0.4,9,0.2,10.9c0.6,2.1,1.6,3.6,4,2.1c1-0.6,1.8-1.3,2.4-2.1
		c0.2-0.2,0.2-0.4,0-0.6c-0.2-0.2-0.4-0.2-0.6,0c-1,0.7-3.4,3.5-4.4,1.8C33.3,46.8,30,38,32.4,37.1c0.1,0,0.1-0.1,0.1-0.2
		c0.1,0,0.1-0.1,0.1-0.1C32.7,36.8,32.6,36.7,32.6,36.7z"/>
	<path class="st2" d="M45,38.8c-1,2.3-2.7,4.9-4.6,6.6c-0.2,0.1-0.2,0.3-0.1,0.5c0.3,0.4,0.7-0.1,1-0.2c1.8-1.6,3.8-4.3,4.3-6.6
		c0,0,0-0.1,0-0.1c-0.1-0.3,0.2,0.1-0.2,0c0-0.2-0.2-0.2-0.2-0.1C44.8,38.8,45.1,38.7,45,38.8z"/>
	<path class="st2" d="M45.4,48.8c-1.3-0.1-3.9-1.8-4.6-2c-0.2-0.1-0.3,0-0.4,0.2s0,0.3,0.2,0.4c1,0.5,3.5,2.5,5,2.4
		c2.9-0.6,2.8-14.3-1.5-12.3c-0.2,0-0.1,0.3,0,0.2c1.6,0,2.2,1.5,2.2,2.9C46.3,42.8,46.9,46.7,45.4,48.8z"/>
	<path class="st2" d="M38.1,47.9c-0.2,0.1-0.2,0-0.3,0.2c-0.1,2.1-0.8,4.3-0.6,6.3c-0.1,0.5,0.7,0.6,0.8,0.1
		c0.1-0.1,0.1-0.1,0.1-0.2c0.3-2,0.7-4.2,0.6-6.2c0,0,0,0,0-0.1C38.4,48,38.5,48,38.3,48c0-0.1,0-0.1-0.1-0.1
		C38.1,47.8,38.1,47.9,38.1,47.9z"/>
	<path class="st2" d="M39.6,49.6L39.6,49.6c-0.1,0.1-0.1,0.2,0,0.2c-0.1,0.7,1,0.7,1,0.1c0,0,0-0.1,0-0.1c0,0,0-0.1,0-0.1
		c-0.1,0-0.2,0-0.4-0.1c0-0.2-0.2-0.2-0.2,0C39.8,49.6,39.7,49.6,39.6,49.6z"/>
	<path class="st2" d="M39.5,54.3c-0.3,0.2-0.4,0.9,0.1,1c0.4,0.1,0.7-0.3,0.6-0.6c0-0.2,0.1,0.3-0.2-0.1c0.1-0.1-0.1-0.3-0.2-0.2
		c0,0-0.1-0.1-0.2-0.1C39.6,54.4,39.5,54.4,39.5,54.3L39.5,54.3z"/>
	<path class="st2" d="M30.8,39.2c-9.1,0.4-16.6,10.2-17.7,18.5c-0.7,5.5-2,12.3,2,17.2c0.9,1,2.1,1.7,3.5,1.9c0.1,0,0.3-0.1,0.3-0.2
		c0-0.1-0.1-0.3-0.2-0.3c-1.3-0.3-2.3-1-3.1-2c-2.6-3-2.7-8-2.4-11.5c0.3-2.8,0.5-5.6,1.3-8.4c2-6.9,9-13.7,16.3-15.2
		C30.9,39.2,30.9,39.2,30.8,39.2z"/>
	<path class="st2" d="M19.9,76.4c-0.2-0.2-0.4,0.2-0.1,0.3c0.1,0.1,0.4,0.2,0.6,0.2c1.4,0.1,9,1.3,9.3-0.1c0-0.2-0.2-0.3-0.4-0.3
		C26.1,76.8,23,76.2,19.9,76.4C19.9,76.4,19.9,76.4,19.9,76.4z"/>
	<path class="st2" d="M47.8,41.5c-0.1,0.1,0,0.2,0.2,0.1h0c0,0,0,0.1,0.1,0.1c0,0,0,0,0,0c0,0.1,0,0.1,0,0.1c3.3,2.8,5.8,6.4,7,10.5
		c0.3,0.8,0.5,1.8,0.8,2.6c0,0.2,0.2,0.3,0.4,0.2c0.4-0.1,0.2-0.6,0.2-0.9c-0.9-5.1-3.8-9.7-8-12.8c0,0-0.1,0-0.2-0.1
		c-0.1,0-0.2-0.1-0.3-0.1C47.8,41.3,47.8,41.4,47.8,41.5z"/>
	<path class="st2" d="M22.8,48.4c0.1,0.2,0,0.2-0.1,0.3c0,0.1,0,0.2,0.1,0.3c0.9,4,1.6,7.3,2.1,11.2c2.2,2.6-1.2-10.6-1.5-11.4
		c0-0.1,0-0.2-0.1-0.3c-0.1-0.1-0.1,0-0.2-0.1c-0.1-0.1,0-0.3-0.1-0.3C22.9,48,22.7,48.2,22.8,48.4z M23,48.3
		C23,48.3,23,48.3,23,48.3C23,48.3,23,48.3,23,48.3z"/>
	<path class="st2" d="M50.8,48.6c0.8,2.3,0.9,4.7,1,7.2c0,0.2,0.1,0.3,0.3,0.3c0.5-0.1,0.3-0.9,0.4-1.3c0-2.2-0.2-4.4-1.2-6.3
		c0,0,0,0,0,0c-0.1,0-0.2-0.1-0.2-0.2c-0.1,0-0.2,0-0.2,0.1C50.8,48.5,50.8,48.5,50.8,48.6z M51.1,48.5
		C51.1,48.5,51.1,48.5,51.1,48.5C51.1,48.5,51.1,48.5,51.1,48.5z"/>
	<path class="st2" d="M21.1,66.6c4.7,0.9,10,1.5,14.4,3.6c0.3,0.1,0.9,0.4,1.1,0c0.1-0.2,0-0.4-0.2-0.4c-3.2-1.9-6.8-2.4-10.4-3
		c-1.4-0.3-3.4-0.7-4.7-0.6c-0.2,0.1-0.5,0.1-0.4,0.4C20.9,66.6,21,66.6,21.1,66.6z M21.1,66.4L21.1,66.4L21.1,66.4L21.1,66.4
		L21.1,66.4z"/>
	<path class="st2" d="M33.8,71.2c0.7,0,1.4-0.4,2.2-0.3c0.4,0,0.4-0.7,0-0.7c-0.8,0.1-1.7,0.1-2.4,0.5c-0.1,0.1-0.1,0.2-0.1,0.2
		C33.5,71.1,33.6,71.3,33.8,71.2z"/>
	<path class="st2" d="M33.6,71.5c0.1,0,0.1-0.2,0-0.2c-0.1,0-0.1,0.1-0.2,0.2c-0.1,0.1,0,0-0.1,0.1c-0.2,1.5-0.6,3-0.5,4.5
		c0,0.2,0.1,0.3,0.3,0.3s0.3-0.1,0.3-0.3c0.1-1.5,0.4-2.9,0.4-4.4C33.6,71.5,33.6,71.6,33.6,71.5L33.6,71.5z"/>
	<path class="st2" d="M22.3,57.5L22.3,57.5c0.6,1.2,1.7,2.8,2.1,4.2c0.4,1.1,0.8,2.2,1.1,3.4c0.1,0.2,0.2,0.3,0.4,0.2
		s0.3-0.2,0.2-0.4c-0.7-2.6-1.8-5.5-3.5-7.5C21.8,56.6,21.5,57.1,22.3,57.5z"/>
	<path class="st2" d="M34.4,68.7c0,0.1,0,0.2,0.1,0.3h0c0.4,0.2,1.3,0.9,1.5,1.4c0,0.1,0,0.4,0.1,0.3c0.1,0,0.1,0,0.1-0.2
		c0.2-0.7-1.1-2-1.6-2.2c0,0,0,0-0.1,0C34.4,68.4,34.3,68.6,34.4,68.7z"/>
	<path class="st2" d="M34.7,68.7c-0.1,0.1,0,0.3,0.1,0.2C35,68.8,34.8,68.6,34.7,68.7z"/>
	<path class="st2" d="M35.1,68.7c0.1,0,0.1-0.5,0.2-0.4c0,0,0,0,0,0c0,0,0,0-0.1,0c0.2,0,0.2-0.4,0-0.4c-0.1,0-0.3,0.1-0.3,0.2
		c-0.2,0.2-0.2,1,0.2,0.9C35.1,68.9,35.1,68.9,35.1,68.7C35.1,68.8,35.1,68.7,35.1,68.7z"/>
	<path class="st2" d="M35.3,68.6c0.5,0.5,1.5,0.8,2.1,1c0.2,0.2,0.6-0.1,0.4-0.4c-0.4-0.6-1.4-0.8-2.1-1
		C35.1,68.4,34,68.1,35.3,68.6C35.3,68.6,35.3,68.6,35.3,68.6z"/>
	<path class="st2" d="M38.5,70.1c0.1,0,0.2-0.1,0.1-0.2c0-0.1,0-0.2-0.1-0.2c-0.5-0.3-1.3,1.2-1.4,1.3c-0.2,0.5-1.4,3.7-0.6,4.7
		c0.3,0.3,0.7-0.2,0.4-0.4c0,0,0,0,0,0C37.1,73.6,37.4,71.6,38.5,70.1C38.5,70.2,38.5,70.1,38.5,70.1C38.5,70.1,38.5,70.1,38.5,70.1
		z M38.5,70.1C38.4,70.1,38.4,70.1,38.5,70.1C38.4,70,38.4,70,38.5,70.1C38.4,70,38.4,70.1,38.5,70.1C38.4,70.1,38.4,70.1,38.5,70.1
		z"/>
	<path class="st2" d="M42.8,57C42.8,57,42.8,57,42.8,57c0-0.1,0-0.2-0.1-0.2c-0.1,0-0.3,0.2-0.4,0.4c-0.4,0.9-0.8,3.2-0.9,3.4
		c-1.2,5-3,9.7-3.5,14.8c0,0.2,0.1,0.4,0.3,0.4c0.2,0,0.4-0.1,0.4-0.3c0.2-1.5,0.5-3,0.9-4.4C40.6,66.2,42.3,62.1,42.8,57
		C42.8,57,42.8,57,42.8,57L42.8,57z M42.8,57C42.8,57,42.7,57,42.8,57C42.8,57,42.8,57,42.8,57L42.8,57z"/>
	<path class="st2" d="M72.1,56.2c-0.4,7.2-4.3,14.1-5,20.8c1.6-4.2,7.1-17.6,5.4-21.6C34.6,54.1,34.1,55.7,72.1,56.2z"/>
	<path class="st2" d="M38,77.5c-0.1,0-0.1,0.1-0.1,0.1c0,0.1,0,0.2,0.2,0.1c0,0,0,0,0,0c8-0.5,16.3,0.4,24.3,0.4
		c0.5-0.1,4.7,0.7,4.8-0.6c0-0.4-0.5-0.5-0.7-0.2c-6.8,0.1-13.2-0.5-19.9-0.5C44.8,77,39.8,76.6,38,77.5C38.1,77.5,38,77.5,38,77.5z
		 M66.5,77.4L66.5,77.4L66.5,77.4C66.5,77.4,66.5,77.4,66.5,77.4z"/>
	<path class="st2" d="M37.3,77.3c-0.4-0.3-0.7,0.3-0.4,0.6c0.2,0.2,0.5,0.1,0.7,0c0.8-0.4,1.4-1.8,0.3-2.3c-1-0.6-2.5,1.4-1.4,2
		c0.2,0,0.2-0.2,0.1-0.2c-0.1-0.1,0-0.4,0.1-0.5c0.2-0.3,0.5-0.8,1-0.6C38.2,76.5,37.7,77.1,37.3,77.3
		C37.3,77.3,37.3,77.3,37.3,77.3z M37.3,77.4C37.2,77.3,37.2,77.3,37.3,77.4C37.2,77.4,37.3,77.4,37.3,77.4z"/>
	<path class="st2" d="M29.3,77.1C29.3,77.1,29.3,77.1,29.3,77.1c-0.1,0-0.2,0.2,0,0.2c0,0,0.1,0,0.1,0c0.3,0.5,1.8,0.2,2.1,0.3
		c1.6,0,3.2,0.2,4.7,0.1c0.2,0,0.4-0.2,0.4-0.4S36.5,77,36.3,77c-1.6-0.1-3.1-0.1-4.7-0.1c-0.3,0.1-1.8-0.3-2.1,0.1
		C29.4,77.1,29.4,77.1,29.3,77.1C29.3,77.1,29.3,77.1,29.3,77.1z"/>
	<path class="st2" d="M29,76.5c-0.2-0.4,1-0.4,1.1-0.3c2,0.5,4.4,0.2,6.4,0.1c0.2,0,0.4-0.2,0.4-0.4s-0.2-0.4-0.4-0.4
		c-2-0.1-4.2,0.4-6.2,0c-0.5-0.1-1.9,0.1-1.5,1C28.8,76.7,29,76.6,29,76.5z"/>
	<path class="st2" d="M38,71.2c0.1,0.2,0.8-0.1,1-0.1c0.5-0.2,0.1-0.9-0.4-0.7c-0.1,0.1-1.3,0.3-0.9,0.8c0,0,0,0,0.1,0
		C37.9,71.2,38,71.2,38,71.2C38,71.2,38,71.2,38,71.2z M38,71C38,71,38,71,38,71C38,71,38,71,38,71C38,71,38,71,38,71z"/>
	<path class="st2" d="M69.5,70c1.2-0.1,2,0.6,3.2,1.1c0.3,0.1,0.5-0.3,0.2-0.4c-1.1-0.6-2.1-1.3-3.4-1c0,0,0,0-0.1,0c0,0,0,0,0,0.1
		C69.3,69.7,69.4,70,69.5,70z"/>
	<path class="st2" d="M69.9,71.3c3.2,0.2,5.3,0.6,6,4.1c0.2,2.7-5.1,1.6-6.4,1.3c-0.4,0-1-0.7-1.3-0.2c-0.1,0.2,0,0.4,0.1,0.5
		c0.7,0.4,1.3,0.5,2.1,0.7c1.7,0.2,6.7,0.8,6.3-2.4c-0.7-3.6-3.7-4.8-6.8-4.2C69.8,71,69.8,71.3,69.9,71.3z"/>
	<path class="st2" d="M73.7,74c-1.8,0.8-1.7-2.6-3-2.8c-0.2,0-0.3,0.1-0.3,0.3s0.1,0.3,0.3,0.3c0.9,1,1.5,3.7,3.3,2.5
		c0.7-0.6-1.3-3.1-2-2.9c-0.1,0.1,0,0.3,0.1,0.2c0,0,0,0,0,0C72.7,72.1,73.6,73.2,73.7,74z"/>
	<g>
		<g transform="matrix(2.87515,0,0,1.87858,-3550.9,-1261.06)">
			<path class="st2" d="M1254.4,705.1C1254.3,705.1,1254.3,705.2,1254.4,705.1L1254.4,705.1L1254.4,705.1c0,0.1,0,0.1,0,0.1
				c0,0.1,0,0.2,0,0.3c0,0.1,0,0.1,0,0.2s0,0.1-0.1,0.1c-0.1,0.1-0.2,0.1-0.2,0.2c-0.1,0.1-0.2,0.1-0.3,0.3
				c-0.1,0.1-0.1,0.3-0.1,0.4c0,0.1,0.1,0.3,0.2,0.3l0.2,0c0,0,0.1,0,0.1-0.1c0-0.1,0-0.1-0.1-0.1l-0.2,0c0,0-0.1,0-0.1-0.1
				c0-0.1,0-0.1,0-0.2c0-0.1,0.1-0.1,0.2-0.2c0.1-0.1,0.2-0.1,0.3-0.2c0,0,0.1-0.1,0.1-0.2c0-0.1,0.1-0.2,0.1-0.3c0-0.2,0-0.3,0-0.4
				c0,0,0-0.1,0-0.2c-0.1-0.1-0.1-0.1-0.1-0.1C1254.3,705,1254.3,705.1,1254.4,705.1C1254.3,705.1,1254.3,705.2,1254.4,705.1z"/>
		</g>
		<g transform="matrix(2.87515,0,0,1.87858,-3550.9,-1261.06)">
			<path class="st2" d="M1253.7,706.9l-0.1,0c-0.1,0-0.1,0.1-0.2,0.2c0,0.1-0.1,0.1-0.1,0.2c-0.1,0.3,0,0.5,0.1,0.7
				c0.1,0.2,0.2,0.3,0.4,0.4c0.2,0.1,0.5,0.1,0.7,0.1c0.2,0,0.5-0.1,0.7-0.3c0.1-0.1,0.3-0.4,0.3-0.7c0-0.2,0-0.4-0.1-0.5
				c0,0-0.1,0-0.1,0c-0.1,0-0.1,0-0.1,0.1c0,0.1,0,0.2,0.1,0.2c0,0,0,0,0,0.1c0.1,0.1,0,0.2,0,0.3c0,0.2-0.1,0.3-0.2,0.4
				c-0.2,0.2-0.4,0.2-0.6,0.3c-0.2,0-0.4,0-0.6,0c-0.1,0-0.2-0.1-0.3-0.3c-0.1-0.1-0.1-0.3-0.1-0.5c0-0.1,0-0.1,0-0.1s0-0.1,0.1-0.1
				c0,0,0.1,0,0.1-0.1c0,0,0,0,0-0.1C1253.8,707,1253.8,706.9,1253.7,706.9C1253.8,706.8,1253.7,706.9,1253.7,706.9z"/>
		</g>
		<g transform="matrix(2.87515,0,0,1.87858,-3550.9,-1261.06)">
			<path class="st2" d="M1254.5,705.1C1254.5,705.1,1254.5,705.1,1254.5,705.1C1254.5,705.1,1254.4,705.1,1254.5,705.1
				c-0.1,0-0.1,0-0.1,0l0,0.1l0.1,0.3c0,0.2,0.1,0.4,0.1,0.5c0,0.1,0,0.2,0,0.3c0,0.1,0,0.1,0,0.2c0,0,0,0.1,0,0.2c0,0,0.1,0,0.1,0
				c0,0,0.1-0.1,0.1-0.1c0.1-0.1,0.1-0.3,0.1-0.4c0-0.2-0.1-0.5-0.2-0.7L1254.5,705.1L1254.5,705.1L1254.5,705.1z M1254.4,705.2
				C1254.4,705.2,1254.4,705.2,1254.4,705.2C1254.4,705.2,1254.4,705.2,1254.4,705.2L1254.4,705.2z M1254.4,705.1L1254.4,705.1
				C1254.4,705.2,1254.4,705.1,1254.4,705.1z"/>
		</g>
		<g transform="matrix(2.87515,0,0,1.87858,-3550.9,-1261.06)">
			<path class="st2" d="M1254.7,706.3C1254.7,706.3,1254.6,706.4,1254.7,706.3c-0.1,0.1,0,0.1,0,0.2c0,0,0.1,0,0.1,0l0,0l0.1,0.1
				c0,0,0.1,0.1,0.1,0.2c0,0.1,0,0.2,0,0.2c0,0.1,0,0.2-0.1,0.2c-0.1,0.1-0.1,0.1-0.2,0.2c0,0,0,0-0.1,0c0,0,0,0,0,0
				c0,0-0.1,0-0.1,0.1c0,0.1,0,0.1,0.1,0.1c0,0,0,0,0.1,0c0,0,0.1,0,0.1,0c0.1,0,0.2-0.1,0.3-0.2c0.1-0.1,0.2-0.3,0.2-0.5
				c0-0.1,0-0.3-0.1-0.4c0-0.1-0.1-0.2-0.1-0.2c0,0-0.1,0-0.1,0s-0.1,0-0.1,0S1254.7,706.3,1254.7,706.3z"/>
		</g>
	</g>
</g>
</svg>
