<?xml version='1.0' encoding='ASCII' standalone='yes'?>
<svg xmlns="http://www.w3.org/2000/svg" xmlns:xlink="http://www.w3.org/1999/xlink" version="1.1" width="170.0px" viewBox="0 0 170.0 170.0" height="170.0px">
  <g transform="translate(0, 0) scale(0.2 0.2) ">
    <g>
      <g>
        <g>
          <g/>
        </g>
        <g transform="translate(170.1, 56.7) scale(1 1) translate(0, 0) scale(1 1) ">
          <g><!-- Generator: Sketch 62 (91390) - https://sketch.com -->
    <title>head/mono/Shaved 1</title>
    <desc>Created with Sketch.</desc>
    <g id="head/mono/Shaved-1" stroke="none" stroke-width="1" fill="none" fill-rule="evenodd">
        <path d="M346.4621,91.6774 C272.5601,53.8014 162.4431,57.8744 110.4451,129.5084 C102.1691,143.1044 93.7681,157.9944 89.6921,173.1444 C84.580016,192.704181 75.536005,221.723412 73.4392737,249.856629 C72.2212776,266.199281 77.76048,282.044829 76.2575,296.0806 C75.0692665,307.17707 63.7071486,303.803823 64.1686265,314.448639 C65.0701727,335.244418 65.7282139,365.508322 76.2575,381.876182 C86.1535,396.020182 104.6351,395.1524 115.4991,408.4934 C125.7381,421.0564 134.5881,434.9944 147.5301,445.0504 C174.6191,495.5984 251.9261,507.0744 304.0421,502.3574 C428.2141,482.6294 426.7501,297.0434 424.9671,199.4224 C425.5271,149.4534 388.8691,112.4644 346.4621,91.6774 Z" id="&#127912;-Background" fill="#FFFFFF"/>
        <path d="M159.4765,36.5216 C204.5875,11.4116 258.4475,0.8716 309.7175,6.4616 C335.3875,9.2716 360.9875,15.6416 383.5075,28.6416 C404.0475,40.4816 420.8565,57.9016 431.9175,78.8706 C442.4475,98.8516 447.7675,121.7616 448.3565,144.2816 C448.6575,155.6616 447.5375,167.0516 445.3475,178.2216 C444.2575,183.8016 442.6065,189.9816 443.9275,195.6616 C445.2075,201.1616 450.3775,204.2316 454.2475,207.8916 C471.5875,224.3016 480.1175,249.2016 476.8075,272.7716 C473.9575,293.1016 461.6375,314.3306 443.5975,325.1516 C446.3275,328.2716 448.4365,332.0316 449.8775,335.7116 C453.4075,344.7716 453.1575,354.4716 449.3075,363.3616 C445.3775,372.4216 437.5375,383.4216 428.6275,388.1516 C424.2175,390.4816 419.0375,391.2906 414.2975,389.7816 C411.3775,421.7016 402.5675,452.1716 379.7175,476.7016 C361.3375,496.4416 336.2875,510.1516 309.4975,513.9116 C294.9365,515.9416 280.0075,515.3516 265.5775,512.5806 C258.7875,511.2816 252.1065,509.3706 245.6575,506.8816 C238.4875,504.1116 231.2575,501.3616 226.0475,495.5406 C220.6065,489.4716 225.9175,480.3306 233.8965,482.0716 C241.4275,483.7116 248.0275,487.9716 255.3275,490.4716 C262.1065,492.7816 269.1775,494.5716 276.2875,495.5016 C290.5175,497.3816 305.1275,495.8616 318.8675,491.8306 C341.0975,485.3016 361.7265,470.9416 375.2175,452.0516 C390.7375,430.3306 397.0875,404.2516 399.3965,377.9916 C402.0475,347.7616 401.0075,317.2716 401.2675,286.9616 C401.4075,270.9916 401.2675,255.0216 401.3775,239.0616 C401.4875,223.8516 401.0775,208.6716 402.0375,193.5016 C401.3565,193.3706 400.6575,193.0806 399.9675,192.5716 C392.7775,187.3516 387.1375,179.9316 380.2675,174.2116 C373.3275,168.4316 365.7975,163.3616 357.9575,158.9016 C328.6275,142.2016 294.7075,135.0316 261.1275,135.5806 C242.6575,135.8816 224.5375,138.3016 206.4875,142.1516 L206.4875,142.1516 L150.5275,157.1016 C139.0375,149.1116 126.0375,143.4916 113.3675,137.6016 C112.0475,142.8116 108.2775,147.8116 105.9475,152.4316 C102.8565,158.5516 100.0075,164.8016 97.4875,171.1816 C92.4075,184.0216 88.3375,197.3306 85.2675,210.8016 C82.4129545,223.347055 80.7402273,236.066063 79.1373723,248.808362 L78.6575,252.6316 C77.7975,259.5016 76.8475,266.4616 76.4675,273.3716 C76.2575,277.1016 76.3375,280.8516 76.2775,284.5806 C76.2265,287.1316 75.3875,292.5116 77.5975,294.9116 C77.7775,295.1016 77.9675,295.2716 78.1865,295.4216 C90.2775,291.7616 104.1775,295.7716 109.7075,308.1616 C110.0575,308.9416 109.1975,309.6316 108.5275,309.0716 C97.2575,299.6316 77.7175,305.0016 71.5475,317.8216 C68.6675,323.7906 68.2375,331.0216 69.7175,337.4216 C71.4675,344.9516 76.1465,351.2216 79.0675,358.2906 C80.7075,362.2616 81.4975,366.2016 82.1275,370.4216 C82.5175,373.0316 82.6975,376.7216 84.5975,378.7416 C86.6175,380.8916 90.5475,381.1716 93.2575,381.7816 C97.0275,382.6316 100.6675,383.6616 104.1065,385.4616 C117.5375,392.4816 124.4075,408.8816 133.9475,419.9816 C139.4365,426.3706 145.4075,432.3706 151.7775,437.8916 C157.8775,443.1816 167.6465,447.5216 168.4765,456.2616 C168.7575,459.1516 166.1775,462.0016 163.5575,462.7216 C157.0375,464.5216 152.3675,460.0516 147.6065,456.2906 C143.1975,452.8116 138.9475,449.1316 134.8965,445.2416 C126.8775,437.5516 119.6575,429.0616 113.1675,420.0616 C108.4765,413.5516 104.5575,405.1416 97.8275,400.4316 C90.9575,395.6316 81.6865,396.8706 74.9575,391.3016 C66.8275,384.5716 68.4675,375.4216 66.0975,366.2906 C63.8075,357.5116 57.7875,350.2416 55.9575,341.2216 C52.6975,325.0806 57.5875,305.3116 73.3375,297.3616 C74.2875,296.8816 75.2675,296.4516 76.2575,296.0806 C75.9575,295.8616 75.6775,295.6116 75.4275,295.3306 C73.6465,293.4016 72.9275,290.1516 72.3565,287.6916 C70.5575,280.0116 69.5575,272.0316 68.4975,264.2216 C66.3175,248.3416 67.4675,232.2016 70.0175,216.4316 C72.4075,201.5916 76.1575,187.0616 81.2775,172.9416 C79.4975,171.7116 78.0875,169.8916 77.3075,167.5806 C75.6175,162.6716 77.1375,157.6616 78.1065,152.7216 C78.3965,151.2116 78.7175,149.7016 79.0475,148.1916 C78.2875,99.3706 119.2575,58.9016 159.4765,36.5216 Z M81.3972,330.981 C88.2272,330.871 94.0282,332.172 99.9672,335.831 C105.6572,339.352 110.9472,344.432 113.5172,350.672 C115.6472,355.831 107.1072,359.222 104.6072,354.422 C102.0372,349.491 100.1272,344.901 96.0072,340.962 C92.0972,337.212 86.4472,333.791 81.2382,332.182 C80.5772,331.972 80.7072,330.991 81.3972,330.981 Z" id="&#128397;-Ink" fill="#000000"/>
    </g>
</g>
        </g>
      </g>
    </g>
    <g transform="translate(325.1, 246.7) scale(1 1) translate(0, 0) scale(1 1) ">
      <g><!-- Generator: Sketch 62 (91390) - https://sketch.com -->
    <title>face/Loving Grin 2</title>
    <desc>Created with Sketch.</desc>
    <g id="face/Loving-Grin-2" stroke="none" stroke-width="1" fill="none" fill-rule="evenodd">
        <path d="M167.9366,192.8326 C176.4346,192.5446 184.9936,191.8846 193.4456,193.1236 C207.4876,195.1806 221.7086,205.1576 221.663813,220.6746 C221.5886,246.7046 192.2546,256.5556 171.3476,259.9506 L169.026212,260.3252 C143.853379,264.356201 113.84608,268.00118 91.2606,253.7286 C80.6176,247.0026 73.8696,235.6376 76.9856,222.8736 C79.9536,210.7106 90.2196,201.9746 101.7426,198.1996 C115.1856,193.7946 129.0956,196.0566 142.7746,197.8696 C143.7716,198.0026 144.7656,198.1276 145.7596,198.2556 C148.9416,197.2396 152.0696,195.8706 155.2596,194.9306 C159.4616,193.6916 163.5476,192.9806 167.9366,192.8326 Z M164.844896,226.1931 L151.656663,227.921328 L151.656663,227.921328 C146.719773,228.568558 141.781787,229.191816 136.844896,229.795668 C137.477072,236.521376 137.585539,243.321281 137.362032,250.1931 C146.257419,250.000187 155.201013,248.849557 163.932056,247.380448 C164.509451,240.331697 164.851286,233.273813 164.844896,226.1931 Z M125.844896,231.1931 C113.86176,232.498058 101.868505,233.664427 89.8448961,234.656728 C92.5542834,239.890975 99.4997584,243.21047 104.819601,245.087526 C110.902794,247.233999 117.180478,248.525653 123.550349,249.1931 C124.656588,243.263688 125.372721,237.24447 125.844896,231.1931 Z M212.8419,221.1931 C203.783266,222.678998 194.447563,223.325088 185.407621,224.463176 L174.844896,225.792779 L174.844896,225.792779 C175.928986,232.219562 176.7481,238.694774 177.265956,245.1931 L178.911506,244.870918 C186.320768,243.386194 193.764899,241.398766 200.312201,237.634834 L200.866263,237.308147 C206.10101,234.146375 213.009628,227.861612 212.8419,221.1931 Z M126.844896,211.1931 C120.919766,211.725643 114.659039,211.8295 108.950531,213.085728 C100.608882,214.920902 90.5724134,219.52044 88.9943241,228.911762 C88.736173,230.449729 88.8237199,231.872791 89.1705404,233.1931 C101.52139,230.851899 113.890198,228.701838 126.290432,226.700934 C126.587867,221.527973 126.739391,216.346174 126.844896,211.1931 Z M158.919623,208.1931 L150.803641,208.899984 L150.803641,208.899984 C144.822168,209.42204 138.832981,209.590655 132.844896,210.034889 C134.28737,214.715021 135.327626,219.435146 136.039497,224.1931 C140.960878,223.433254 145.885566,222.689621 150.816865,221.967605 L164.844896,219.915048 L164.844896,219.915048 L164.825959,216.372543 C164.809143,213.993846 164.777309,211.586646 164.690621,209.18425 L164.106579,209.136693 L164.106579,209.136693 C162.352248,208.942137 160.628773,208.600585 158.919623,208.1931 Z M208.844896,213.772288 C203.237051,208.737383 192.736117,209.084912 186.029401,209.290658 C181.002091,209.444167 175.90276,209.969725 170.844896,209.962263 C171.792086,213.000476 172.691262,216.057877 173.428935,219.1931 L184.237596,217.616427 L184.237596,217.616427 C192.364007,216.432057 200.613727,214.799951 208.844896,213.772288 Z M170.814304,144.367155 C178.365682,148.9572 189.871664,159.660291 181.748119,171.039573 C172.185929,181.073062 158.418535,169.568982 151.634201,164.366134 C145.343449,160.333898 138.275437,170.704507 144.112,175.412823 C193.135736,211.708059 213.030606,145.567387 174.633685,138.970386 C170.406047,138.243425 168.835891,142.947174 170.814304,144.367155 Z M244.785835,118.774001 C242.202576,135.655796 215.663649,159.196325 212.062317,159.196325 C208.460985,159.196325 177.625371,129.24444 177.625371,115.920887 C177.625371,102.597334 190.94622,84.7128809 212.062317,107.230782 C224.071147,92.1948429 247.369093,101.892207 244.785835,118.774001 Z M126.884,103.7684 C133.128,112.8854 130.751,124.2274 124.395,132.5394 C118.770429,139.897 99.8496345,156.361101 96.8867018,156.78525 C93.2344248,157.308079 76.517,138.4024 72.65,135.2294 C68.783,132.0564 58.0621266,121.858033 60.608,112.4114 C63.057,103.3234 76.1615358,87.9555018 95.2962581,103.7684 C101.379566,88.6863818 121.244,95.5334 126.884,103.7684 Z M64.7094,74.4155 C74.5104,63.4325 95.2674,51.8435 106.7074,66.6855 C109.6284,70.4775 106.5094,76.6745 102.2444,77.6545 C96.9624,78.8695 91.6264,78.1305 86.4404,79.6375 C81.6884,81.0185 77.1364,83.7855 73.0634,86.5435 C68.4184,89.6875 64.1404,93.1975 60.2094,97.1965 C57.8714,99.5755 54.9254,105.2115 51.3194,105.3165 C47.7344,105.4215 52.5464,94.2105 52.9444,93.2405 C55.7714,86.3355 59.7424,79.9815 64.7094,74.4155 Z M183.3277,47.5561 C188.97145,44.92585 194.477388,46.0961625 200.159036,47.6504359 L202.6057,48.3301 C208.6597,50.0131 215.1227,52.0811 220.3167,55.7101 L220.724563,55.9989329 C227.25785,60.6861748 237.247308,70.7440588 232.4787,79.4821 C232.1597,80.0651 231.4837,80.1231 230.9397,79.8851 C224.7957,77.1941 220.2407,71.8201 213.7057,69.5721 L212.50015,69.1615409 C206.171147,67.0297024 198.341185,64.7882515 191.5287,64.9921 C186.738954,66.5489889 180.269819,65.2594389 179.022929,59.4287798 L178.9667,59.1431 L178.8587,58.5391 C178.1407,54.5551 179.2087,49.4761 183.3277,47.5561 Z" id="&#128397;-Ink" fill="#000000"/>
    </g>
</g>
    </g>
  </g>
</svg>
