<?xml version='1.0' encoding='ASCII' standalone='yes'?>
<svg xmlns="http://www.w3.org/2000/svg" xmlns:xlink="http://www.w3.org/1999/xlink" version="1.1" width="170.0px" viewBox="0 0 170.0 170.0" height="170.0px">
  <g transform="translate(0, 0) scale(0.2 0.2) ">
    <g>
      <g>
        <g>
          <g/>
        </g>
        <g transform="translate(170.1, 56.7) scale(1 1) translate(0, 0) scale(1 1) ">
          <g><!-- Generator: Sketch 62 (91390) - https://sketch.com -->
    <title>head/mono/Medium 1</title>
    <desc>Created with Sketch.</desc>
    <g id="head/mono/Medium-1" stroke="none" stroke-width="1" fill="none" fill-rule="evenodd">
        <path d="M195.395558,82.6720788 C346.965479,75.2183452 357.551668,119.271611 378.365264,147.356837 C388.694346,161.294583 415.36224,181.93629 419.786376,229.602142 C422.857417,262.689688 403.308238,300.826871 403.308238,330.393336 C403.308238,345.485177 421.786376,377.885575 413.184129,399.881894 C394.037459,448.840758 353.497414,503.176 301.837107,503.176 C250.1768,503.176 154.814935,474.704319 97.7325351,392.972519 C79.0353378,366.201473 43.8256361,90.1258123 195.395558,82.6720788 Z" id="&#127912;-Background" fill="#FFFFFF"/>
        <path d="M416.009341,333.345332 C412.699341,329.695332 410.129341,326.695332 409.269341,321.675332 C408.909341,319.584332 408.749341,317.435332 408.679341,315.275332 C421.969341,296.695332 434.889341,252.808332 434.889341,228.804332 C434.889341,194.939332 422.399341,162.355332 401.899341,135.405332 C361.939341,82.9143323 295.419341,56.0043323 230.319341,58.1153323 C167.979341,60.1243323 101.671341,83.1043323 62.7833414,132.226332 C-66.2406586,295.201332 42.0473414,473.217332 121.359341,510.254332 C128.263341,513.478332 150.561341,512.358332 147.454341,505.473332 C138.530341,485.694332 131.499341,449.265332 129.859341,441.064332 C132.399341,442.775332 134.959341,444.445332 137.529341,446.175332 C142.079341,449.224332 148.179341,452.714332 153.899341,451.704332 C154.169341,451.655332 154.339341,451.365332 154.349341,451.115332 C154.609341,445.744332 150.769341,440.224332 147.389341,436.394332 C142.699341,431.074332 138.239341,425.624332 133.189341,420.634332 C131.039341,418.504332 128.859341,416.394332 126.679341,414.284332 C126.399341,401.624332 127.249341,388.905332 129.519341,376.175332 C133.449341,354.105332 140.229341,332.605332 148.019341,311.445332 C154.529341,306.644332 160.849341,301.595332 166.699341,296.074332 C180.789341,282.784332 191.539341,266.525332 200.759341,249.425332 C200.869341,249.374332 200.989341,249.314332 201.099341,249.265332 C218.969341,240.954332 236.689341,232.325332 254.269341,223.425332 C263.339341,218.834332 272.349341,214.134332 281.359341,209.435332 C286.259341,206.874332 291.309341,204.544332 296.319341,202.134332 C294.969341,209.054332 293.149341,215.874332 290.939341,222.584332 C289.119341,228.095332 294.679341,232.164332 299.599341,231.254332 C316.349341,228.155332 332.539341,221.925332 347.109341,213.105332 C354.329341,208.735332 361.199341,203.685332 367.569341,198.144332 C373.939341,207.634332 381.679341,216.534332 389.489341,224.195332 C394.759341,229.365332 400.269341,234.284332 405.989341,238.945332 C403.399341,256.775332 401.179341,274.644332 398.369341,292.435332 C396.899341,301.735332 395.129341,311.034332 394.019341,320.384332 C392.809341,330.574332 396.179341,337.834332 402.889341,345.284332 C412.269341,355.695332 412.259341,370.754332 408.669341,383.685332 C408.229341,385.284332 407.679341,386.845332 407.109341,388.394332 C406.989341,388.714332 406.639341,389.584332 406.509341,389.925332 C406.509341,389.935332 406.509341,389.945332 406.499341,389.964332 C406.499341,389.974332 406.489341,389.985332 406.489341,389.994332 C406.479341,389.994332 406.479341,390.004332 406.469341,390.015332 L406.469341,390.034332 L406.469341,390.044332 L406.459341,390.054332 C406.039341,391.034332 405.589341,391.994332 405.139341,392.954332 C403.089341,397.284332 400.799341,401.515332 398.419341,405.675332 C386.719341,426.214332 371.939341,445.004332 355.099341,461.584332 C347.259341,469.304332 339.109341,476.485332 329.899341,482.365332 C327.959341,483.595332 325.979341,484.784332 323.949341,485.874332 C322.859341,486.464332 321.739341,487.015332 320.619341,487.574332 C318.979341,488.384332 319.659341,488.064332 318.659341,488.464332 C316.849341,489.175332 314.999341,489.794332 313.109341,490.284332 C312.099341,490.544332 311.079341,490.765332 310.049341,490.954332 C310.039341,490.954332 310.019341,490.964332 309.989341,490.964332 C309.979341,490.964332 309.969341,490.974332 309.959341,490.964332 C309.949341,490.974332 309.929341,490.974332 309.909341,490.974332 C309.529341,491.004332 308.849341,491.064332 308.719341,491.064332 C294.359341,491.115332 280.119341,489.185332 266.219341,485.615332 C258.689341,483.675332 251.169341,481.324332 244.089341,478.095332 C240.489341,476.445332 236.969341,474.615332 233.599341,472.544332 C232.089341,471.615332 230.659341,470.494332 229.069341,469.685332 C226.689341,468.464332 224.359341,468.595332 221.789341,468.485332 C217.869341,468.324332 215.089341,472.425332 216.049341,476.025332 C217.219341,480.414332 219.059341,483.004332 222.839341,485.615332 C225.859341,487.695332 229.059341,489.534332 232.319341,491.204332 C239.419341,494.855332 246.929341,497.824332 254.529341,500.254332 C268.759341,504.794332 283.739341,507.584332 298.639341,508.605332 C309.489341,509.345332 318.889341,507.894332 328.769341,503.324332 C339.199341,498.494332 348.549341,491.284332 357.199341,483.804332 C376.569341,467.064332 393.419341,446.754332 407.709341,425.564332 C421.139341,405.644332 431.559341,383.954332 428.129341,359.224332 C426.759341,349.304332 422.719341,340.765332 416.009341,333.345332" id="&#128397;-Ink" fill="#000000"/>
    </g>
</g>
        </g>
      </g>
    </g>
    <g transform="translate(325.1, 246.7) scale(1 1) translate(0, 0) scale(1 1) ">
      <g><!-- Generator: Sketch 62 (91390) - https://sketch.com -->
    <title>face/Loving Grin 2</title>
    <desc>Created with Sketch.</desc>
    <g id="face/Loving-Grin-2" stroke="none" stroke-width="1" fill="none" fill-rule="evenodd">
        <path d="M167.9366,192.8326 C176.4346,192.5446 184.9936,191.8846 193.4456,193.1236 C207.4876,195.1806 221.7086,205.1576 221.663813,220.6746 C221.5886,246.7046 192.2546,256.5556 171.3476,259.9506 L169.026212,260.3252 C143.853379,264.356201 113.84608,268.00118 91.2606,253.7286 C80.6176,247.0026 73.8696,235.6376 76.9856,222.8736 C79.9536,210.7106 90.2196,201.9746 101.7426,198.1996 C115.1856,193.7946 129.0956,196.0566 142.7746,197.8696 C143.7716,198.0026 144.7656,198.1276 145.7596,198.2556 C148.9416,197.2396 152.0696,195.8706 155.2596,194.9306 C159.4616,193.6916 163.5476,192.9806 167.9366,192.8326 Z M164.844896,226.1931 L151.656663,227.921328 L151.656663,227.921328 C146.719773,228.568558 141.781787,229.191816 136.844896,229.795668 C137.477072,236.521376 137.585539,243.321281 137.362032,250.1931 C146.257419,250.000187 155.201013,248.849557 163.932056,247.380448 C164.509451,240.331697 164.851286,233.273813 164.844896,226.1931 Z M125.844896,231.1931 C113.86176,232.498058 101.868505,233.664427 89.8448961,234.656728 C92.5542834,239.890975 99.4997584,243.21047 104.819601,245.087526 C110.902794,247.233999 117.180478,248.525653 123.550349,249.1931 C124.656588,243.263688 125.372721,237.24447 125.844896,231.1931 Z M212.8419,221.1931 C203.783266,222.678998 194.447563,223.325088 185.407621,224.463176 L174.844896,225.792779 L174.844896,225.792779 C175.928986,232.219562 176.7481,238.694774 177.265956,245.1931 L178.911506,244.870918 C186.320768,243.386194 193.764899,241.398766 200.312201,237.634834 L200.866263,237.308147 C206.10101,234.146375 213.009628,227.861612 212.8419,221.1931 Z M126.844896,211.1931 C120.919766,211.725643 114.659039,211.8295 108.950531,213.085728 C100.608882,214.920902 90.5724134,219.52044 88.9943241,228.911762 C88.736173,230.449729 88.8237199,231.872791 89.1705404,233.1931 C101.52139,230.851899 113.890198,228.701838 126.290432,226.700934 C126.587867,221.527973 126.739391,216.346174 126.844896,211.1931 Z M158.919623,208.1931 L150.803641,208.899984 L150.803641,208.899984 C144.822168,209.42204 138.832981,209.590655 132.844896,210.034889 C134.28737,214.715021 135.327626,219.435146 136.039497,224.1931 C140.960878,223.433254 145.885566,222.689621 150.816865,221.967605 L164.844896,219.915048 L164.844896,219.915048 L164.825959,216.372543 C164.809143,213.993846 164.777309,211.586646 164.690621,209.18425 L164.106579,209.136693 L164.106579,209.136693 C162.352248,208.942137 160.628773,208.600585 158.919623,208.1931 Z M208.844896,213.772288 C203.237051,208.737383 192.736117,209.084912 186.029401,209.290658 C181.002091,209.444167 175.90276,209.969725 170.844896,209.962263 C171.792086,213.000476 172.691262,216.057877 173.428935,219.1931 L184.237596,217.616427 L184.237596,217.616427 C192.364007,216.432057 200.613727,214.799951 208.844896,213.772288 Z M170.814304,144.367155 C178.365682,148.9572 189.871664,159.660291 181.748119,171.039573 C172.185929,181.073062 158.418535,169.568982 151.634201,164.366134 C145.343449,160.333898 138.275437,170.704507 144.112,175.412823 C193.135736,211.708059 213.030606,145.567387 174.633685,138.970386 C170.406047,138.243425 168.835891,142.947174 170.814304,144.367155 Z M244.785835,118.774001 C242.202576,135.655796 215.663649,159.196325 212.062317,159.196325 C208.460985,159.196325 177.625371,129.24444 177.625371,115.920887 C177.625371,102.597334 190.94622,84.7128809 212.062317,107.230782 C224.071147,92.1948429 247.369093,101.892207 244.785835,118.774001 Z M126.884,103.7684 C133.128,112.8854 130.751,124.2274 124.395,132.5394 C118.770429,139.897 99.8496345,156.361101 96.8867018,156.78525 C93.2344248,157.308079 76.517,138.4024 72.65,135.2294 C68.783,132.0564 58.0621266,121.858033 60.608,112.4114 C63.057,103.3234 76.1615358,87.9555018 95.2962581,103.7684 C101.379566,88.6863818 121.244,95.5334 126.884,103.7684 Z M64.7094,74.4155 C74.5104,63.4325 95.2674,51.8435 106.7074,66.6855 C109.6284,70.4775 106.5094,76.6745 102.2444,77.6545 C96.9624,78.8695 91.6264,78.1305 86.4404,79.6375 C81.6884,81.0185 77.1364,83.7855 73.0634,86.5435 C68.4184,89.6875 64.1404,93.1975 60.2094,97.1965 C57.8714,99.5755 54.9254,105.2115 51.3194,105.3165 C47.7344,105.4215 52.5464,94.2105 52.9444,93.2405 C55.7714,86.3355 59.7424,79.9815 64.7094,74.4155 Z M183.3277,47.5561 C188.97145,44.92585 194.477388,46.0961625 200.159036,47.6504359 L202.6057,48.3301 C208.6597,50.0131 215.1227,52.0811 220.3167,55.7101 L220.724563,55.9989329 C227.25785,60.6861748 237.247308,70.7440588 232.4787,79.4821 C232.1597,80.0651 231.4837,80.1231 230.9397,79.8851 C224.7957,77.1941 220.2407,71.8201 213.7057,69.5721 L212.50015,69.1615409 C206.171147,67.0297024 198.341185,64.7882515 191.5287,64.9921 C186.738954,66.5489889 180.269819,65.2594389 179.022929,59.4287798 L178.9667,59.1431 L178.8587,58.5391 C178.1407,54.5551 179.2087,49.4761 183.3277,47.5561 Z" id="&#128397;-Ink" fill="#000000"/>
    </g>
</g>
    </g>
  </g>
</svg>
