<?xml version="1.0" encoding="utf-8"?>
<!-- Generator: Adobe Illustrator 24.2.0, SVG Export Plug-In . SVG Version: 6.00 Build 0)  -->
<svg version="1.1" id="图层_1" xmlns="http://www.w3.org/2000/svg" xmlns:xlink="http://www.w3.org/1999/xlink" x="0px" y="0px"
	 viewBox="0 0 85.04 85.04" style="enable-background:new 0 0 85.04 85.04;" xml:space="preserve">
<style type="text/css">
	.st0{fill-rule:evenodd;clip-rule:evenodd;fill:#FFFFFF;}
	.st1{fill-rule:evenodd;clip-rule:evenodd;}
</style>
<g>
	<g transform="matrix(0.4441,0,0,0.39775,-345.369,-236.477)">
		<path class="st0" d="M846.76,672.21l-0.06,0.13c-0.41,0.9-0.44,1.64-0.35,1.98c0.11,0.37,0.31,0.63,0.58,0.79
			c0.34,0.21,0.85,0.3,1.45,0c0.15-0.08,0.33-0.19,0.52-0.34c0.01,0.05,0.02,0.08,0.02,0.1c0.07,0.31,0.2,0.53,0.36,0.67
			c-0.05,0.3-0.06,0.55-0.04,0.74c0.05,0.39,0.19,0.63,0.34,0.78c0.02,0.17,0.05,0.29,0.07,0.35c0.02,0.06,0.05,0.11,0.07,0.16
			c-0.08,0.3-0.14,0.57-0.17,0.82c-0.07,0.51-0.04,0.92,0.04,1.22c0.09,0.31,1.03,1.3,1.89,0.35c-0.22,0.89-0.4,1.78-0.48,2.69
			c-0.04,0.44,0.09,0.68,0.15,0.78c0.23,0.39,0.54,0.53,0.89,0.49c0.15-0.01,0.46-0.07,0.71-0.44c0.11-0.16,0.42-0.92,0.55-1.22
			s0.4-0.9,0.75-1.61c0.22,0.03,0.47,0,0.75-0.11c-0.15,0.53-0.26,1.01-0.29,1.36c-0.1,1.08,0.44,1.59,0.9,1.72
			c0.15,0.04,0.32,0.05,0.5,0.02c-0.02,0.27,0,0.49,0.04,0.65c-0.07,0.2-0.13,0.38-0.15,0.46c-0.1,0.31-0.06,0.53-0.05,0.56
			c0.02,0.12,1.28,1.61,1.86,0.19l0.25-0.68c0.09-0.08,0.19-0.17,0.28-0.28c0.27-0.34,0.64-0.99,1.04-1.81
			c0.58-1.09,1.21-2.49,1.71-3.82c0.52-1.38,0.91-2.7,1.02-3.59c0.09-0.7-0.01-1.23-0.16-1.54c-0.28-0.58-0.68-0.68-1.03-0.66
			c-0.09,0.01-0.19,0.03-0.3,0.07c-0.1-0.02-0.21-0.02-0.33,0.01c0.07-0.12,0.13-0.22,0.15-0.28c0.17-0.36,0.14-0.64,0.12-0.74
			c-0.09-0.67-0.44-0.96-0.99-0.97c-0.08,0-0.37-0.02-0.71,0.31c-0.05-0.12-0.11-0.23-0.19-0.32c0.1-0.21,0.18-0.4,0.24-0.57
			c0.09-0.25,0.12-0.9,0.07-1.03c-0.1-0.27-0.29-0.38-0.48-0.43c-0.14-0.03-0.37-0.05-0.62,0.22c-0.17,0.18-0.36,0.43-0.56,0.73
			c-0.44-0.15-1.07,0-1.62,0.68c-0.04,0.05-0.08,0.09-0.11,0.15c-0.02-0.2-0.06-0.4-0.11-0.58c-0.03-0.1-0.06-0.18-0.1-0.26
			c0.13-0.36,0.23-0.7,0.26-0.95c0.05-0.45-0.04-0.8-0.16-1.03c-0.13-0.25-0.32-0.49-0.6-0.61c0.1-0.37,0.13-0.73,0.08-1.08
			c0.04-1.08-0.81-1.54-0.84-1.54c-0.1-0.02-0.22-0.03-0.35-0.02l-0.03-0.01c-0.29-0.2-0.67-0.3-1.14-0.2
			c-0.79,0.17-2.26,1.34-3.48,2.78c-0.98,1.17-1.81,2.48-2.09,3.38C846.67,671.36,846.66,671.83,846.76,672.21z M855.79,681.4
			c-0.08-0.02-0.17-0.04-0.15,0.03C855.67,681.5,855.72,681.47,855.79,681.4z"/>
	</g>
	<g transform="matrix(0.459452,0,0,0.4115,-369.678,-253.089)">
		<path class="st1" d="M878.72,697.22c0.07-0.07,0.15-0.16,0.07-0.16C878.73,697.05,878.71,697.12,878.72,697.22
			c-0.03,0.03-0.06,0.07-0.07,0.09c-0.15,0.34-0.47,0.2-0.73,0.27c-0.1,0.03-0.12-0.18-0.25-0.13c-0.12,0.05,0.07-0.23-0.1-0.17
			c-0.09,0.03,0.15-0.16,0.02-0.15c-0.07,0.01,0.08-0.06,0.08-0.06s0.01-0.03,0.13-0.03c0.08,0.23,0.31,0.34,0.51,0.25
			c0.2-0.09,0.3-0.35,0.22-0.57c0.39-0.44,0-0.26,0.1-0.5c0.05-0.12-0.08-0.01-0.07-0.12c0.04-0.28-0.2-0.07-0.34-0.21
			c-0.21-0.24-0.69,0.01-1,0.71c-0.15,0.33-0.25,1.36-0.28,1.52l-0.7,3.08c-0.28,0.39-0.22,0.95,0.12,1.26
			c0.35,0.31,0.85,0.25,1.13-0.14c0.36-0.27,0.64-0.55,0.9-0.92c0.11-0.15,0.18-0.34,0.24-0.52c0.31-0.86,0.37-1.81,0.31-2.77
			C878.95,698.03,878.74,697.49,878.72,697.22z"/>
		<path class="st1" d="M897.33,703.89c-0.21,0.12-0.21,0.06-0.37,0.28c-0.06,0.09-0.06,0.21-0.08,0.33
			c-0.1,0.69,0.02,1.54,0.19,2.44c0.31,1.67,0.86,3.6,1.44,5.08c0.17,0.44,0.37,0.82,0.52,1.17c0.15,0.44,0.58,0.66,0.97,0.49
			c0.39-0.16,0.59-0.65,0.44-1.09c-0.05-0.26-0.08-0.54-0.15-0.83c-0.55-2.07-1.59-4.96-1.81-6.9c-0.02-0.19-0.02-0.37-0.08-0.53
			c-0.09-0.22-0.16-0.1-0.29-0.27c0.04-0.24-0.1-0.47-0.31-0.52C897.59,703.5,897.38,703.66,897.33,703.89z"/>
		<path class="st1" d="M874.75,698.94c-0.2,0.2-0.37,0.4-0.5,0.64c-1.02,1.9,0.09,4.27,1.98,6.51c3.36,3.99,9.74,8,11.62,10.78
			c0.25,0.37,0.72,0.44,1.05,0.15c0.33-0.28,0.39-0.81,0.14-1.17c-1.95-2.78-8.44-6.76-11.92-10.72c-1.35-1.54-2.25-3.03-2.03-4.49
			c0.03-0.23,0.11-0.45,0.18-0.68c0.05-0.17,0.06-0.33,0.12-0.51c0.13-0.2,0.08-0.47-0.09-0.62
			C875.12,698.7,874.87,698.75,874.75,698.94z"/>
		<path class="st1" d="M879.27,725.45c-1.1-1.96-2.46-7.09-2.66-7.59c-1.26-3.34-4.97-7.36-7.06-10.63
			c-0.61-0.96-1.08-1.84-1.25-2.61c-0.07-0.33,0.11-0.78,0.37-1.3c0.51-1.05,1.43-2.27,2.48-3.34c1.19-1.23,2.54-2.27,3.68-2.51
			c0.16-0.04,0.31-0.04,0.46-0.06c0.18-0.02,0.31-0.12,0.47-0.11c0.2,0.08,0.43-0.04,0.5-0.27c0.07-0.23-0.03-0.48-0.24-0.56
			c-0.2-0.18-0.41-0.3-0.68-0.36c-1.43-0.36-3.47,1.06-5.15,2.7c-1.2,1.17-2.22,2.56-2.8,3.74c-0.48,0.97-0.63,1.85-0.49,2.46
			c0.21,0.92,0.75,1.99,1.48,3.14c2.03,3.18,5.65,7.09,6.87,10.34c0.18,0.48,1.3,4.95,2.32,7.29c0.34,0.76,0.69,1.31,0.99,1.58
			c0.34,0.3,0.69,0.36,0.99,0.3c0.2-0.04,0.64-0.35,1.06-1.05c0.8-1.33,2.27-4.39,3.98-6.56c0.29-0.36,0.59-0.7,0.88-1.01
			c0.47-0.5,0.91-0.94,1.42-1.14c0.33-0.09,0.53-0.46,0.45-0.83c-0.08-0.37-0.42-0.59-0.75-0.5c-0.72,0.12-1.46,0.5-2.16,1.08
			c-0.38,0.32-0.74,0.71-1.1,1.13c-1.55,1.86-2.85,4.45-3.71,6.06C879.51,725.05,879.38,725.27,879.27,725.45z"/>
		<path class="st1" d="M899.81,724.07c-0.7-0.7-1.4-1.43-2.17-2.03c-0.49-0.38-1.01-0.66-1.53-0.94c-0.21-0.15-0.49-0.08-0.62,0.15
			c-0.14,0.24-0.07,0.54,0.14,0.7c0.42,0.38,0.8,0.83,1.22,1.23c1,0.95,2.07,1.86,3.07,2.73l0.59,0.95
			c0.14,0.28,0.44,0.41,0.72,0.31s0.44-0.42,0.39-0.74l-0.19-1.13c-0.27-1.09-0.53-2.06-0.53-3.07c0-0.59,0.09-1.2,0.34-1.85
			c0.52-1.46,2.77-3.57,3.89-5.26c0.49-0.73,0.78-1.42,0.81-1.97c0.05-1.03-0.27-1.91-0.81-2.71c-0.69-1.03-1.71-1.93-2.49-2.86
			c-0.22-0.26-0.41-0.54-0.59-0.8c-0.09-0.12-0.2-0.19-0.28-0.32c-0.07-0.23-0.29-0.36-0.49-0.28c-0.21,0.07-0.32,0.32-0.25,0.55
			c0,0.21,0.02,0.4,0.07,0.61c0.11,0.41,0.36,0.77,0.62,1.13c0.69,0.96,1.72,1.81,2.37,2.82c0.34,0.53,0.57,1.09,0.52,1.76
			c-0.02,0.34-0.26,0.72-0.56,1.16c-1.21,1.78-3.55,4.04-4.12,5.58c-0.31,0.88-0.41,1.69-0.39,2.48
			C899.56,722.87,899.67,723.46,899.81,724.07z"/>
		<path class="st1" d="M901.12,711.39c-0.18-0.03-0.37-0.19-0.45-0.57c0.06,0.15,0.19,0.26,0.35,0.27c0.06,0,0.11-0.01,0.16-0.03
			c0.05-0.19,0.1-0.31,0.18-0.28l0.04,0.02c-0.04,0.12-0.12,0.21-0.22,0.26C901.16,711.15,901.14,711.26,901.12,711.39
			c0.37,0.06,0.75-0.4,0.29-0.6c0.01-0.04,0.02-0.09,0.02-0.13c0.04-0.26-0.07-0.39-0.09-0.44c-0.08-0.15-0.48-0.36-0.75,0.16
			c-0.14,0.26-0.42,1.37-0.59,1.8c-0.17,0.44-0.36,0.86-0.57,1.28c-0.32,0.64-0.68,1.26-1.04,1.86c-1.17,1.96-2.31,3.62-3.28,5.45
			c-0.47,0.88-0.93,1.79-1.28,2.8c-0.14,0.41-0.25,0.85-0.36,1.3c-0.11,0.36,0.07,0.74,0.39,0.86c0.32,0.12,0.67-0.07,0.77-0.43
			c0.14-0.4,0.31-0.78,0.46-1.16c0.36-0.94,0.72-1.82,1.14-2.66c0.92-1.83,2-3.52,3.1-5.5c0.36-0.64,0.71-1.3,1.02-1.98
			c0.21-0.46,0.41-0.94,0.58-1.42C901,712.37,901.05,711.82,901.12,711.39z"/>
		<path class="st1" d="M889.1,718.12l-0.02-0.05c-0.08-0.22-0.31-0.33-0.51-0.24s-0.3,0.35-0.21,0.57l0.01,0.05
			c0.08,0.23,0.31,0.33,0.51,0.24C889.08,718.61,889.18,718.35,889.1,718.12z"/>
		<path class="st1" d="M888.99,717.85c0.06-0.06,0.08-0.12-0.01-0.12c0.02-0.09,0-0.19-0.04-0.28c-0.1-0.21-0.34-0.3-0.53-0.19
			c-0.03,0.02-0.22,0.21-0.23,0.6c-0.01,0.46,0.04,1.62,0.03,1.74c-0.3,2.79,0.04,4.38,0.65,5.53c1.02,1.91,2.99,2.48,4.45,5.9
			c0.2,0.47,0.31,0.99,0.38,1.54c0.08,0.64,0.08,1.32,0.11,1.98c0.03,0.48,0.04,0.96,0.12,1.41c0.06,0.33,0.17,0.6,0.27,0.9
			c0.03,0.34,0.31,0.58,0.61,0.54c0.3-0.04,0.52-0.34,0.49-0.68c0.04-0.25,0.12-0.46,0.15-0.72c0.09-0.97,0.03-2.03-0.05-3.04
			c-0.08-0.97-0.28-1.9-0.66-2.71c-1.62-3.45-3.61-4-4.76-5.9c-0.58-0.95-0.9-2.28-0.81-4.67
			C889.18,719.56,889.03,718.36,888.99,717.85z M888.99,717.73L888.99,717.73c-0.01,0-0.01,0.01-0.01,0.04
			c-0.02,0.08-0.06,0.16-0.12,0.22c0.04-0.04,0.1-0.08,0.14-0.13v-0.02c0-0.02-0.01-0.05-0.01-0.07l0-0.02L888.99,717.73z"/>
		<path class="st1" d="M886.87,724.16c0.01-0.05,0.02-0.09-0.01-0.06C886.84,724.12,886.85,724.14,886.87,724.16l-0.01,0.04l0,0.03
			c0-0.12-0.04-0.25-0.13-0.34c-0.05-0.12-0.64-0.15-0.63,0.63c0,0.09,0,0.2,0.03,0.38c0.04,0.2,0.13,0.45,0.26,0.74
			c0.49,1.12,1.51,2.76,2.66,4.02c0.26,0.28,0.68,0.27,0.93-0.02s0.25-0.76-0.02-1.04c-0.79-0.87-1.43-1.97-1.97-2.85
			c-0.32-0.53-0.57-1-0.79-1.3C887.09,724.31,886.92,724.22,886.87,724.16z M886.79,724.47c-0.02,0.11-0.08,0.18-0.21,0.18
			c0.07-0.02,0.13-0.07,0.18-0.13C886.77,724.5,886.78,724.49,886.79,724.47z M886.85,724.24c0,0.05-0.01,0.1-0.03,0.15
			C886.85,724.35,886.87,724.31,886.85,724.24z"/>
	</g>
	<g transform="matrix(0.399772,0,0,0.39775,-287.458,-238.617)">
		<path class="st0" d="M799.53,683.35l-0.08-0.05c-0.43-0.23-0.79-0.17-1.09,0.01c-0.2,0.12-0.43,0.36-0.53,0.75
			c-0.03,0.01-0.06,0.01-0.09,0.02c-0.12,0.04-0.24,0.1-0.36,0.2c-0.07-0.02-0.15-0.03-0.23-0.02c-0.02-0.05-0.04-0.09-0.07-0.13
			c-0.16-0.25-0.37-0.38-0.57-0.44c-0.17-0.05-0.35-0.08-0.54-0.04c-0.19-0.03-0.37-0.01-0.54,0.07c-0.16,0.07-0.38,0.2-0.53,0.53
			c-0.32,0.01-0.65,0.14-0.85,0.58c-0.02,0.03-0.03,0.07-0.05,0.11c-0.02,0.03-0.04,0.06-0.05,0.09c-0.09,0.18-0.15,0.46-0.13,0.81
			c0.01,0.1,0.02,0.2,0.04,0.32c-0.12,0.14-0.26,0.41-0.22,0.81c0.05,0.44,0.45,1.5,0.46,1.55l0.78,1.98
			c0.2,0.54,0.86,1.26,1.41,1.53c0.13,0.07,0.26,0.11,0.39,0.14c0.11,0.25,0.22,0.48,0.34,0.71c0.27,0.7,0.55,1.4,0.83,2.09
			c0.02,0.04,0.08,0.22,0.18,0.47c-0.13,0.5-0.16,1.11-0.11,1.76c0.05,0.58,0.15,1.19,0.27,1.79l-0.65,1.81l-0.6,1.53
			c-0.05,0.19,0,0.52,0.22,0.79c-0.05,0.27,0.01,0.46,0.07,0.56c-0.14,0.45-0.27,0.9-0.4,1.36c-0.11,0.41-0.34,1.07-0.46,1.67
			c-0.07,0.35-0.1,0.68-0.07,0.96c0.04,0.33,0.58,0.92,1.09,0.73l0.01,0.01l0.01,0.01l-0.05,0.51c-0.01,0.17-0.02,0.29-0.03,0.35
			c0,0.09,0,0.14,0,0.17c0.11,0.89,0.9,0.79,1.12,0.71c0.21-0.08,0.47-0.27,0.7-0.59l-0.01,0.07c-0.07,0.36-0.52,2.09-0.61,3.2
			c-0.04,0.54,0.03,0.98,0.14,1.23c0.11,0.25,0.27,0.38,0.41,0.45c-0.01,0.79,0.07,1.32,0.23,1.49l-0.13,0.85
			c-0.03,0.22-0.09,0.78-0.08,0.93c0.02,0.32,0.16,0.5,0.22,0.56c0.26,0.3,0.58,0.37,0.91,0.26c0.08-0.02,0.4-0.1,0.56-0.54
			c0.11-0.08,0.24-0.22,0.32-0.46c0.09-0.26,0.17-0.53,0.24-0.81c0.16-0.01,0.34-0.08,0.54-0.24c-0.01,0.42,0.1,0.83,0.21,1.03
			c0.15,0.27,0.35,0.38,0.41,0.41c0.36,0.16,0.64,0.05,0.85-0.16c0.06-0.06,0.26-0.25,0.23-0.61c0.05-0.04,0.1-0.09,0.14-0.16
			c0.18-0.24,0.42-0.89,0.59-1.46c0.05-0.07,0.09-0.14,0.13-0.21c0.04-0.04,0.07-0.09,0.1-0.14c0.19-0.28,0.41-0.77,0.49-1
			l0.65-2.16l1.36-5.73l0.06-0.29l0.28-0.99c0.19-0.37,0.34-0.83,0.45-1.32c0.04-0.18,0.08-0.36,0.11-0.55l0.1-0.37l0.13-0.52
			l0.01-0.02c0.09,0,0.19-0.01,0.28-0.03c0.13-0.04,0.37-0.14,0.5-0.47c0.05-0.12,0.13-0.65,0.16-0.86l0.06-0.46
			c0.04-0.04,0.15-0.18,0.18-0.44c0.02-0.14,0.05-0.64,0.06-0.84c0.01-0.14,0-0.35-0.01-0.59c0.07-0.7,0.17-1.41,0.22-2.12
			c0.01-0.16,0.02-0.31,0.02-0.47l0.03-0.28c0.16-0.62,0.31-1.24,0.44-1.86c0.01-0.06,0.02-0.1,0.02-0.12
			c0.02-0.17-0.02-0.27-0.03-0.31c-0.01-0.03-0.02-0.05-0.03-0.07c0.07-0.2,0.14-0.39,0.16-0.48c0.06-0.2,0.04-0.34,0.03-0.36
			c0-0.03-0.1-0.15-0.25-0.27c0.34-3.26-0.36-4.47-1.5,0.49l-0.07,0.35c-0.06,0.12-0.14,0.31-0.18,0.4l-0.03,0.07l-0.07-0.04
			l-0.08-0.04c0.06-0.34,0.1-0.65,0.12-0.89c0.05-0.63-0.17-1.03-0.3-1.16c-0.14-0.14-0.28-0.22-0.42-0.27l0.09-0.41
			c0.09-0.43,0.2-1.49,0.12-1.72c-0.11-0.32-0.32-0.47-0.51-0.55c-0.07-0.03-0.17-0.07-0.29-0.08c-0.13-0.63-0.7-0.59-1.2-0.26
			l0-0.18c0-0.08,0-0.15,0-0.23l-0.01-0.24l0.02-0.1c0.05-0.22,0.17-0.75,0.2-0.9c0.03-0.19,0.02-0.31,0.01-0.34
			c-0.01-0.07-0.38-0.43-0.78-0.58c0.02-0.33,0.02-0.76-0.04-1.05c-0.1-0.48-0.39-0.75-0.64-0.87c-0.27-0.12-0.52-0.14-0.74-0.07
			c-0.27-0.46-0.7-0.63-1.28-0.48c-0.24,0.06-0.51,0.22-0.73,0.53c-0.02,0.02-0.03,0.05-0.05,0.07c-0.16-0.41-0.44-0.59-0.59-0.65
			c-0.06-0.02-0.11-0.04-0.17-0.06c-0.24-0.16-0.48-0.2-0.7-0.16C800.02,682.9,799.74,683.02,799.53,683.35z M799.79,693.82
			c0.06,0.19,0.15,0.5,0.25,0.84c0.08,0,0.17,0.01,0.26,0.03c0.07-0.12,0.14-0.22,0.2-0.29c0.08-0.11,0.17-0.19,0.25-0.25l0.03-0.09
			c-0.04-0.03-0.09-0.08-0.13-0.12l-0.01-0.01l-0.05,0.02c-0.15,0.04-0.38,0.08-0.65-0.03
			C799.89,693.89,799.84,693.86,799.79,693.82z M795.26,690.31c0.14,0.18,0.31,0.26,0.42,0.3c0.1,0.03,0.2,0.05,0.31,0.06l0.06,0.08
			l0.01,0.01C795.96,691.23,795.73,691.28,795.26,690.31z"/>
	</g>
	<g transform="matrix(0.4441,0,0,0.39775,-345.369,-236.477)">
		<path class="st0" d="M848.19,666.03l-0.23,1.05c-0.03,0.16-0.11,0.47-0.11,0.62c0,0.09,0.01,0.16,0.03,0.23
			c-0.04,0.2-0.08,0.42-0.08,0.5c0,0.76,0.45,0.9,0.8,0.86c0.12,0.03,0.24,0.03,0.39-0.02c0.06-0.02,0.31-0.03,0.49-0.39
			c0.04-0.07,0.07-0.15,0.1-0.22l-0.02,0c-0.05-0.02,0.06-0.18,0.08-0.23l0,0l0.02,0.02l0,0l-0.06,0.15l-0.03,0.07
			c0.3,0.11,0.26-0.01,0.09-0.22c0.05-0.12,0.09-0.25,0.13-0.38h0l0.01-0.03l0.02-0.08l0.02-0.07l0.01,0.01v0l-0.03,0.09l-0.02,0.05
			l-0.01,0.03c0.13,0.01,0.13-0.06,0.06-0.17l0.02-0.07c0.1-0.31,0.18-0.64,0.26-0.98l0.53-1.8c0.02-0.07,0.17-0.56,0.19-0.79
			c0-0.03,0-0.07,0-0.1c0.01-0.03,0.01-0.05,0.01-0.07c0.01-0.06,0.01-0.11,0.01-0.16c0-0.06,0.01-0.11,0-0.15
			c0-0.08-0.02-0.16-0.03-0.22c0.01-0.24,0-0.62-0.05-0.7c-0.09-0.17-0.22-0.34-0.42-0.4c-0.05-0.06-0.1-0.11-0.14-0.15
			c-0.15-0.13-0.61-0.46-1.09,0.15c-0.22,0.29-0.41,0.71-0.54,1.19c-0.21,0.77-0.31,1.73-0.43,2.31L848.19,666.03z"/>
	</g>
	<g transform="matrix(0.4441,0,0,0.39775,-345.369,-236.477)">
		<path class="st0" d="M846.36,662.82c-0.11,0.01-0.22,0.06-0.31,0.14c-0.1,0.07-0.2,0.17-0.29,0.32c-0.02,0.03-0.04,0.07-0.06,0.11
			c-0.02,0.01-0.04,0.03-0.06,0.05c-0.08,0.07-0.31,0.53-0.39,0.73l-0.24,0.66l-0.13,0.4c-0.15,0.32-0.29,0.66-0.4,0.99
			c-0.16,0.48-0.23,0.95-0.2,1.33c0.02,0.19,0.06,0.33,0.12,0.44c0.02,0.17,0.08,0.28,0.11,0.33c0.21,0.35,0.49,0.5,0.86,0.37
			c0.06-0.02,0.3-0.06,0.48-0.42c0.25-0.52,0.45-1.1,0.6-1.71l0.65-1.79l-0.01,0.02l0-0.01c0,0-0.09,0.14-0.24,0.37l-0.02,0.01
			l-0.01,0c0.03-0.09,0.06-0.18,0.08-0.27l0.01-0.04l0.15-0.39l0.02-0.04c0.06-0.03,0.08-0.08,0.05-0.12
			c0.06-0.14,0.14-0.29,0.16-0.39c0.06-0.27-0.02-0.49-0.1-0.66c-0.12-0.24-0.33-0.44-0.73-0.46
			C846.46,662.81,846.42,662.81,846.36,662.82z M847.17,664.33c-0.01-0.02-0.03-0.04-0.06-0.06c-0.03-0.02-0.06-0.01-0.08,0.03
			c0,0.06,0,0.13-0.01,0.19c0.04-0.01,0.07-0.03,0.1-0.05l0.04-0.09L847.17,664.33z"/>
	</g>
	<g transform="matrix(0.471451,0,0,0.422247,-386.24,-266.072)">
		<g transform="matrix(1.03107,-0.330832,0.24138,0.752286,-350.99,733.13)">
			<path class="st1" d="M1085.45,460.3c-0.2-0.21-0.84,0.34-1.1,0.55c-3.3,2.66-7.65,2.44-11.84,2.46c-1.86,0.01-3.67,0-5.38,0.43
				c-1.64,0.41-3.17,1.2-4.54,2.49c-4.85,4.89-7.97,11.55-10.07,18.93c-2.17,7.62-3.3,15.99-4.22,23.81c-0.33,2.79-0.7,5.5-0.93,8.1
				c-0.06,0.7-0.07,1.36-0.11,2.04c-0.13,0.79,0.19,1.54,0.71,1.68c0.52,0.14,1.04-0.38,1.17-1.17c0.18-0.66,0.37-1.3,0.52-2
				c0.54-2.57,0.87-5.33,1.26-8.15c1.04-7.52,2.03-15.6,4.04-23c1.84-6.75,4.47-12.98,8.79-17.62c1.61-1.86,3.59-2.76,5.73-3.28
				c0.98-0.24,1.99-0.44,3.01-0.54c4.37-0.42,8.9-0.05,12.31-2.87c0.36-0.3,1.16-0.39,1.36-0.71c0.16-0.25,0.22-0.55,0.17-0.91
				c-0.06-0.4-0.34-0.62-0.61-0.5C1085.6,460.1,1085.52,460.19,1085.45,460.3z"/>
		</g>
		<path class="st1" d="M856.64,782.58c-0.08,0.04-0.16,0.11-0.26,0.13c-0.09,0.02-0.16-0.01-0.25-0.02
			c-0.09-0.01-0.2-0.08-0.17-0.17c0.02-0.05,0.09-0.15,0.13-0.09c-0.03-0.03,0.06-0.05,0.06-0.09c0.01-0.15,0.09-0.3,0.17-0.48
			c0.4-0.92,1.29-2.04,2.29-3.11c1.69-1.82,3.67-3.5,4.19-3.8c0.54-0.33,0.74-1.08,0.44-1.69c-0.3-0.6-0.97-0.82-1.51-0.49
			c-0.86,0.54-5.48,4.58-6.91,7.52c-0.77,1.58-0.7,2.93,0.21,3.63c0.34,0.15,0.59,0.33,0.86,0.23c0.34-0.12,0.54-0.32,0.84-0.58
			c0.07-0.06,0.16-0.09,0.24-0.13c0.21-0.1,0.31-0.38,0.22-0.62C857.11,782.59,856.86,782.48,856.64,782.58z"/>
		<g transform="matrix(0.952186,-0.30552,0.30552,0.952186,-345.234,388.974)">
			<path class="st1" d="M1025.71,741.42c0.41,1.55,0.12,3.32-0.12,5.21c-0.23,1.79-0.4,3.68-0.13,5.56c0.31,2.13,1.21,4.26,3.4,6.23
				c2.27,2.04,5.18,2.06,8.08,1c4.14-1.52,8.23-5.28,10.14-8.16c5.7-8.62,14.59-22.44,22.35-34.62c1.3-2.04,2.58-4.04,3.78-5.97
				c2.05-3.29,3.89-6.38,5.53-9.05c0.15-0.22,0.1-0.52-0.09-0.67c-0.2-0.14-0.47-0.08-0.62,0.15c-1.92,2.85-4.19,6.15-6.55,9.77
				c-8.53,13.07-18.92,29.81-25.38,39.65c-1.78,2.71-5.59,6.26-9.47,7.72c-2.52,0.94-5.06,1-7.05-0.76
				c-1.98-1.75-2.81-3.63-3.1-5.53c-0.27-1.77-0.05-3.55,0.1-5.25c0.18-2.02,0.28-3.91-0.27-5.52c-0.05-0.18-0.23-0.27-0.4-0.2
				C1025.75,741.04,1025.65,741.24,1025.71,741.42z"/>
		</g>
		<g transform="matrix(0.952186,-0.30552,0.30552,0.952186,-337.719,378.829)">
			<path class="st1" d="M1023.54,746.53c-0.01,0.02-0.02,0.05-0.03,0.07c-0.1,0.25,0.29,0.78,0.64,0.15
				c0.07-0.13,0.23-0.41,0.43-0.83c0.88-1.83,2.7-6.1,4.33-7.91c1.08-1.21,2.21-2.53,3.34-3.9c1.64-1.98,3.28-4.05,4.82-6.01
				c2.24-2.85,4.42-5.38,6.6-7.76c4.32-4.72,8.68-8.74,13.29-13.51c1.08-1.11,2.14-2.28,3.25-3.49c0.16-0.16,0.17-0.42,0.03-0.59
				s-0.38-0.16-0.53,0c-1.49,1.49-2.95,2.88-4.35,4.25c-3.52,3.45-6.77,6.68-10.04,10.1c-2.97,3.12-5.92,6.43-8.97,10.33
				c-1.53,1.96-3.16,4.03-4.79,6c-1.12,1.36-2.23,2.67-3.3,3.87c-1.25,1.41-2.66,4.2-3.61,6.36c-0.51,1.16-0.89,2.13-1.05,2.59
				C1023.58,746.4,1023.55,746.51,1023.54,746.53z M1024.14,746.6c-0.02-0.12-0.1-0.22-0.22-0.25l-0.01,0
				C1024.02,746.35,1024.12,746.41,1024.14,746.6z"/>
		</g>
		<g transform="matrix(0.69397,-0.720004,0.720004,0.69397,-588.21,1251.33)">
			<path class="st1" d="M1402.76,695.74L1402.76,695.74c0.11,0.04,0.07-0.04,0-0.12c0.07-0.14,0.27-0.39,0.4-0.64
				c0.33-0.6,0.83-1.43,1.34-2.36c1.27-2.31,2.7-5.13,2.94-5.62c2-4.21,4.59-7.91,7.5-10.16c0.27-0.21,0.57-0.37,0.85-0.56
				c1.18-0.83,2.29-1.54,3.39-2.03c1.07-0.47,2.09-0.79,3.07-0.8c0.15,0.01,0.29-0.1,0.32-0.26c0.03-0.15-0.07-0.28-0.22-0.29
				c-1.07-0.16-2.24-0.07-3.47,0.35c-1.23,0.42-2.53,1.12-3.74,2.13c-0.27,0.23-0.5,0.5-0.77,0.75c-2.8,2.61-5.75,6.14-7.85,10.51
				c-0.21,0.45-1.5,2.78-2.6,4.96c-0.39,0.77-0.74,1.53-1.04,2.17c-0.36,0.78-0.61,1.39-0.71,1.68c-0.14,0.39,0.06,0.58,0.11,0.6
				c0.16,0.07,0.37-0.02,0.45-0.19C1402.74,695.83,1402.75,695.79,1402.76,695.74z M1402.73,695.59c0.01,0.02,0.01,0.03,0.02,0.05
				c-0.02,0.05-0.02,0.09,0.01,0.1c0-0.03,0-0.07-0.01-0.1l0.01-0.02l0,0L1402.73,695.59z"/>
		</g>
		<g transform="matrix(0.880764,-0.473556,0.473556,0.880764,-444.805,750.559)">
			<path class="st1" d="M1190.67,592.4c-0.07,0.07-0.1,0.13,0,0.16l0-0.06L1190.67,592.4c0.02-0.02,0.04-0.04,0.06-0.06
				c-0.01,0.08-0.02,0.23-0.05,0.22l-0.01,0l0,0.06c0,0.04,0,0.07,0,0.08c0.09,0.47,0.45,0.4,0.54,0.36
				c0.03-0.01,0.31-0.09,0.33-0.41c0-0.04,0.01-0.13,0.01-0.21c0.01,0.04,0.01,0.09,0,0.14c0.02-0.23,0.07-0.47,0.14-0.71
				c0.01-0.01,0.02-0.03,0.03-0.05c0.02-0.04,0.03-0.09,0.03-0.14c0.14-0.42,0.33-0.84,0.54-1.27c0.57-1.16,1.31-2.32,1.81-3.3
				c0.7-1.44,1.68-2.84,2.81-4.07c1.13-1.23,2.41-2.3,3.82-2.97c0.2-0.09,0.39-0.17,0.6-0.22c0.52-0.14,1.06-0.2,1.58-0.34
				c0.15-0.04,0.25-0.19,0.24-0.34c-0.02-0.15-0.15-0.25-0.3-0.22c-0.53,0.09-1.06,0.1-1.59,0.2c-0.25,0.04-0.49,0.11-0.74,0.2
				c-1.57,0.6-3.06,1.61-4.34,2.9c-1.27,1.27-2.33,2.81-3.12,4.35c-0.57,1.18-1.51,2.59-2.01,4
				C1190.83,591.21,1190.7,591.82,1190.67,592.4z"/>
		</g>
		<g transform="matrix(0.69397,-0.720004,0.720004,0.69397,-588.21,1251.33)">
			<path class="st1" d="M1416.93,686.32c0.64-0.77,1.18-1.5,1.7-2.18c1.47-1.94,2.53-3.47,4.24-4.42c0.95-0.53,2.12-0.8,3.7-0.96
				c0.51-0.05,1.07-0.12,1.68-0.15c0.34,0,0.64-0.28,0.67-0.62c0.03-0.34-0.21-0.61-0.55-0.61c-0.65-0.02-1.24-0.03-1.79,0.03
				c-1.82,0.18-3.14,0.72-4.2,1.4c-1.76,1.13-2.77,2.85-4.28,4.97c-0.48,0.68-1.03,1.39-1.67,2.14c-0.13,0.15-0.11,0.36,0.02,0.47
				C1416.59,686.5,1416.8,686.47,1416.93,686.32z"/>
		</g>
		<g transform="matrix(0.69397,-0.720004,0.720004,0.69397,-586.019,1253.51)">
			<path class="st1" d="M1409.68,700.5c0.12,0.12,0.28,0.17,0.53,0.2c0.14,0.02,0.3-0.03,0.48-0.06c0.59-0.11,1.38-0.38,2.26-0.82
				c0.29-0.14,0.57-0.31,0.87-0.49c3.12-1.86,6.99-4.92,7.79-5.85c0.74-0.86,1.26-1.61,1.65-2.31c1-1.77,1.17-3.2,2.63-5.51
				c0.93-1.54,2.97-3.6,4.03-5.19c0.44-0.65,0.73-1.24,0.78-1.7c0.08-0.68,0.15-1.26,0.11-1.63c-0.03-0.27-0.11-0.46-0.24-0.56
				c-0.15-0.13-0.38-0.1-0.52,0.06c-0.14,0.16-0.14,0.39,0,0.51l-0.26,1.56c-0.07,0.34-0.36,0.73-0.72,1.19
				c-1.21,1.54-3.36,3.55-4.4,5.07c-1.51,2.32-1.72,3.76-2.75,5.54c-0.35,0.61-0.81,1.26-1.47,2.01c-0.58,0.66-2.84,2.41-5.15,4.01
				c-1.16,0.81-2.34,1.55-3.32,2.14c-0.71,0.43-1.29,0.75-1.71,0.94c-0.15,0.07-0.21,0.2-0.32,0.21c-0.18-0.06-0.39,0.05-0.46,0.23
				C1409.41,700.25,1409.5,700.44,1409.68,700.5z"/>
		</g>
		<g transform="matrix(0.69397,-0.720004,0.720004,0.69397,-588.21,1251.33)">
			<path class="st1" d="M1407.22,686.71c-0.1-0.13-0.02-0.51,0.05-0.92c0.12-0.72,0.32-1.52,0.35-1.79l0.31-2.41l0.25-1.98
				c0.3-2.52,0.79-4.01,1.44-4.56c0.28-0.24,0.57-0.18,0.86,0.08c0.51,0.45,1,1.41,1.41,2.81c0.06,0.2,0.27,0.29,0.48,0.21
				c0.2-0.08,0.32-0.3,0.26-0.5c-0.47-1.56-1.05-2.61-1.63-3.11c-0.62-0.53-1.26-0.53-1.84-0.03c-0.71,0.62-1.38,2.27-1.69,5.09
				l-0.23,1.97l-0.3,2.42c-0.04,0.35-0.37,1.61-0.4,2.39c-0.02,0.36,0.04,0.64,0.14,0.77c0.11,0.14,0.32,0.15,0.47,0.03
				C1407.29,687.06,1407.32,686.84,1407.22,686.71z"/>
		</g>
		<g transform="matrix(0.880764,-0.473556,0.473556,0.880764,-444.805,750.559)">
			<path class="st1" d="M1204.38,584.88c-0.09,0.04-0.22,0.11-0.27,0.15l-0.59,0.66l-1.46,1.96c-0.65,1.05-1.27,2.21-1.8,3.4
				c-0.54,1.2-0.99,2.43-1.29,3.62c-0.04,0.17,0.05,0.33,0.2,0.36c0.15,0.03,0.31-0.08,0.35-0.24c0.3-1.16,0.75-2.34,1.28-3.5
				c0.53-1.16,1.14-2.28,1.78-3.3l1.42-1.87l0.51-0.57c0.07-0.06,0.24-0.1,0.3-0.15c0.09-0.07,0.14-0.15,0.16-0.22
				c0.04-0.13,0.05-0.29-0.13-0.41c-0.14-0.1-0.35-0.05-0.46,0.11L1204.38,584.88z M1204.43,585.31L1204.43,585.31L1204.43,585.31
				L1204.43,585.31z"/>
		</g>
	</g>
	<g transform="matrix(0.459452,0,0,0.4115,-369.678,-253.089)">
		<path class="st1" d="M853.93,725.06c-0.1,0.09-0.18,0.27-0.23,0.58c-0.1,0.64,0.11,1.98,0.39,3.66c0.69,4.11,2.04,10.43,2.7,13.94
			c0.11,0.59,0.23,1.09,0.29,1.49c0.04,0.41,0.37,0.7,0.73,0.66c0.37-0.05,0.63-0.41,0.59-0.82c-0.01-0.35-0.02-0.77-0.09-1.24
			c-0.1-0.78-0.32-1.71-0.55-2.75c-0.84-3.83-2.14-9.01-2.82-12.29c-0.22-1.04-0.39-1.88-0.43-2.42c-0.01-0.12,0-0.23-0.01-0.31
			c0-0.06-0.09-0.05-0.09-0.08c0.1-0.15,0.08-0.37-0.05-0.49C854.23,724.88,854.04,724.91,853.93,725.06z"/>
	</g>
	<g transform="matrix(0.494372,0,0,0.442776,-396.099,-317.247)">
		<g transform="matrix(1.11646,0,0,1.10522,-230.379,-137.527)">
			<path class="st1" d="M1016.4,868.64c0.14-0.06,0.54-0.22,0.91-0.33c1.24-0.4,3.23-0.91,5.05-1.37c1.99-0.5,3.8-0.93,4.24-1.01
				c6.03-1.16,12.16-2.41,18.31-3.16c4.09-0.5,8.19-0.77,12.27-0.66c0.89,0.03,3.44-0.25,5.65-0.22c0.93,0.01,1.8,0.09,2.43,0.28
				c0.24,0.08,0.45,0.13,0.54,0.28c0.22,0.36,0.14,1.16,0.06,2.02c-0.14,1.51-0.49,3.19-0.61,3.78c-1.04,5.17-1.78,10.44-2.72,15.66
				c-0.23,1.29-0.48,2.58-0.75,3.87c-0.8,3.84-1.34,10.83-2.9,16.19c-0.7,2.4-1.58,4.48-2.86,5.68c-0.85,0.79-2.78,1.37-5.07,1.83
				c-4.75,0.96-11,1.29-13.32,1.56c-6.8,0.79-13.91,1.98-20.89,2.69c-3,0.3-5.98,0.54-8.91,0.57c-4.04,0.04-7.96-0.36-11.72-1.2
				c-2.58-0.57-5.1-1.3-7.52-2.46c-0.31-0.17-0.68-0.02-0.83,0.33c-0.15,0.35-0.02,0.77,0.29,0.94c2.41,1.47,4.95,2.62,7.62,3.38
				c3.87,1.1,7.97,1.41,12.17,1.41c2.99,0,6.04-0.18,9.1-0.51c6.99-0.75,14.08-2.19,20.89-3.12c2.33-0.32,8.61-0.87,13.39-1.88
				c2.63-0.55,4.82-1.27,5.8-2.17c1.49-1.36,2.61-3.7,3.43-6.47c1.61-5.4,2.15-12.47,2.96-16.35c0.27-1.3,0.52-2.61,0.76-3.92
				c0.93-5.22,1.64-10.48,2.67-15.64c0.14-0.72,0.56-2.97,0.62-4.72c0.03-1.08-0.11-1.99-0.4-2.46c-0.42-0.67-1.66-1.12-3.23-1.2
				c-2.38-0.12-5.57,0.32-6.59,0.29c-4.14-0.14-8.3,0.11-12.46,0.59c-6.19,0.71-12.35,1.92-18.42,3.05
				c-0.69,0.13-4.64,1.02-7.54,1.85c-1.32,0.37-2.43,0.75-2.94,1c-0.33,0.16-0.52,0.35-0.59,0.45c-0.78,1.18-1.77,4.75-2.77,9.18
				c-1.63,7.22-3.35,16.75-4.24,21.45l-0.37,1.86c-0.44,2.12-0.88,4.24-1.28,6.36c-0.27,1.42-0.52,2.84-0.75,4.28
				c-0.17,1.14-0.22,1.5-0.33,2.14c-0.01,0.05-0.03,0.1-0.02,0.16c0.01,0.09,0.07,0.09,0.08,0.19c0.01,0.07-0.02,0.14-0.04,0.21
				c-0.04,0.19-0.1,0.4-0.17,0.66c-0.05,0.19,0.05,0.4,0.22,0.46c0.17,0.06,0.36-0.05,0.41-0.25c0.09-0.32,0.1-0.61,0.21-0.8
				c0.07-0.12,0.16-0.12,0.22-0.22c0.05-0.09,0.05-0.19,0.07-0.28c0.14-0.57,0.19-0.98,0.39-2.06c0.24-1.42,0.5-2.82,0.78-4.23
				c0.42-2.11,0.87-4.21,1.33-6.32l0.39-1.89c0.93-4.68,2.69-14.18,4.4-21.35C1014.76,873.08,1015.67,869.84,1016.4,868.64z"/>
		</g>
		<g transform="matrix(1.11646,0,0,1.10522,-230.379,-137.527)">
			<path class="st1" d="M1040.02,882.32c-0.05,0.03-0.1,0.07-0.13,0c-0.01-0.03-0.12,0.02-0.08,0.01c0.03,0-0.02,0.06-0.02,0.09
				c0.03,0.18,0.08,0.41,0.09,0.43c0.07,0.41,0.1,0.89,0.06,1.34c-0.02,0.26-0.07,0.52-0.18,0.74c-0.09,0.19-0.21,0.34-0.35,0.47
				c-0.35,0.32-0.79,0.54-1.22,0.78c-0.55,0.31-1.05,0.67-1.38,1.2c-0.35,0.58-0.4,1.18-0.22,1.66c0.19,0.48,0.6,0.86,1.26,0.9
				l0.95-0.17c0.19-0.02,0.33-0.22,0.31-0.44c-0.02-0.22-0.19-0.37-0.39-0.35l-0.8-0.07c-0.22-0.03-0.38-0.13-0.43-0.29
				c-0.06-0.17,0.01-0.38,0.14-0.58c0.25-0.37,0.64-0.59,1.04-0.81c0.5-0.27,1.01-0.54,1.41-0.92c0.25-0.23,0.46-0.5,0.61-0.83
				c0.16-0.36,0.26-0.77,0.28-1.2c0.03-0.56-0.05-1.16-0.17-1.66c-0.01-0.04-0.09-0.49-0.27-0.68c-0.31-0.33-0.54-0.42-0.66-0.2
				c-0.13,0.08-0.19,0.26-0.12,0.41C1039.81,882.27,1039.91,882.33,1040.02,882.32z"/>
		</g>
		<g transform="matrix(1.11646,0,0,1.10522,-230.379,-137.527)">
			<path class="st1" d="M1037.2,889.28l-0.71,0.18c-0.32,0.16-0.57,0.38-0.78,0.66c-0.21,0.28-0.34,0.63-0.41,1.03
				c-0.2,1.07,0.07,2,0.61,2.69c0.51,0.66,1.29,1.1,2.18,1.23c1.14,0.15,2.41,0.1,3.64-0.18c1.25-0.29,2.44-0.82,3.41-1.59
				c0.56-0.45,1.29-1.78,1.39-2.89c0.07-0.84-0.15-1.63-0.85-1.9c-0.14-0.05-0.29-0.09-0.46-0.08c-0.27-0.05-0.52,0.15-0.57,0.45
				c-0.05,0.3,0.13,0.59,0.4,0.64c0.09,0.03,0.14,0.1,0.2,0.15c0.26,0.2,0.19,0.58,0.1,0.97c-0.16,0.66-0.54,1.35-0.87,1.6
				c-0.84,0.67-1.89,1.11-2.98,1.36c-1.11,0.26-2.25,0.33-3.28,0.2c-0.62-0.06-1.17-0.33-1.54-0.76c-0.37-0.43-0.57-1.02-0.48-1.72
				c0.03-0.24,0.1-0.45,0.2-0.63c0.11-0.19,0.25-0.38,0.44-0.52c0.12-0.09,0.42-0.21,0.59-0.33c0.12-0.09,0.2-0.17,0.24-0.26
				c0.08-0.15,0.03-0.34-0.1-0.43S1037.28,889.13,1037.2,889.28z"/>
		</g>
		<g transform="matrix(1.11646,0,0,1.10522,-230.379,-137.527)">
			<path class="st1" d="M1040.83,882.16c-0.03-0.08-0.06-0.14-0.06-0.14c-0.1-0.12-0.27-0.15-0.39-0.06
				c-0.13,0.09-0.18,0.27-0.13,0.42l0.06,0.37l0.51,1.18c0.32,0.66,0.63,1.31,0.77,1.97c0.08,0.4,0.05,0.79-0.07,1.23
				c-0.05,0.18-0.05,0.38-0.13,0.58c-0.12,0.18-0.08,0.45,0.09,0.58c0.17,0.13,0.39,0.09,0.51-0.09c0.17-0.15,0.31-0.29,0.41-0.47
				c0.29-0.49,0.3-1.05,0.25-1.55c-0.08-0.94-0.59-1.83-1.09-2.73l-0.56-1.07l-0.16-0.23L1040.83,882.16z M1040.33,882.38
				c0,0.03,0,0.06,0.01,0.09c0,0.01,0,0.02,0.01,0.03C1040.32,882.46,1040.32,882.42,1040.33,882.38z M1040.4,882.18
				c-0.03,0.03-0.06,0.06-0.06,0.11C1040.35,882.26,1040.37,882.22,1040.4,882.18z"/>
		</g>
		<g transform="matrix(1.11646,0,0,1.10522,-230.379,-137.527)">
			<path class="st1" d="M1042.17,886.63c-0.12,0-0.23,0.1-0.25,0.23c-0.12,0.3,0.09,0.37,0.24,0.43c0.07,0.02,0.48-0.11,0.48-0.11
				s-0.03,0.02-0.04,0.01l0.68,0.2c0.17,0.08,0.26,0.34,0.37,0.58c0.13,0.31,0.22,0.65,0.26,0.89c0.06,0.34-0.15,0.63-0.39,0.91
				c-0.31,0.34-0.72,0.6-1.1,0.78c-0.11,0.05-0.2,0.1-0.3,0.15c-0.09,0.05-0.11,0.13-0.19,0.18c-0.19,0-0.34,0.17-0.34,0.38
				c0,0.21,0.15,0.38,0.34,0.38c0.11,0.07,0.2,0.1,0.34,0.13c0.15,0.03,0.31-0.02,0.48-0.07c0.55-0.15,1.12-0.55,1.55-1.02
				c0.54-0.59,0.82-1.34,0.67-2.07c-0.09-0.38-0.28-0.96-0.57-1.4c-0.24-0.38-0.53-0.67-0.85-0.76c-0.16-0.05-0.33-0.09-0.5-0.09
				c-0.17,0-0.33,0.01-0.49,0.04C1042.46,886.41,1042.26,886.56,1042.17,886.63z"/>
		</g>
		<path class="st1" d="M871.39,867.21c-0.53-0.98,0.34-1.51,1.54-1.99c1.08-0.43,2.47-0.72,3.79-0.98c1.74-0.34,3.34-0.59,3.96-0.73
			c2.35-0.56,3.8-0.88,5.02-1.08c1.97-0.33,3.35-0.13,6.88-0.61c0.25-0.03,0.5-0.1,0.77-0.16c0.3-0.02,0.54-0.31,0.52-0.65
			s-0.28-0.6-0.58-0.58c-0.46-0.01-0.89-0.04-1.29-0.03c-2.46,0.03-3.83,0.16-5.18,0.3c-1.58,0.16-3.15,0.47-6.43,1.22
			c-0.61,0.15-2.22,0.37-3.93,0.81c-1.38,0.35-2.83,0.83-3.92,1.42c-1.7,0.92-2.58,2.12-1.63,3.45c0.1,0.15,0.28,0.19,0.42,0.09
			C871.45,867.57,871.48,867.36,871.39,867.21z"/>
		<path class="st1" d="M876.59,868.61c-0.02,0.01-0.04,0.02-0.04,0.02s0.05,0.04,0.08,0.07c0.12,0.08,0.24,0.23,0.42,0.38
			c0.92,0.72,2.49,1.88,2.86,2.07c1.49,0.72,3.03,1.27,4.6,1.71c0.78,0.21,1.56,0.41,2.36,0.55s1.59,0.19,2.39,0.26
			c0.32,0.05,0.61-0.2,0.65-0.56c0.04-0.36-0.18-0.68-0.5-0.73c-0.74-0.16-1.47-0.35-2.2-0.52c-1.1-0.25-2.2-0.47-3.28-0.78
			c-1.19-0.34-2.38-0.74-3.53-1.25c-0.36-0.14-1.88-1.28-2.9-1.7c-0.55-0.23-0.97-0.25-1.1-0.16c-0.15,0.06-0.24,0.26-0.18,0.43
			C876.28,868.57,876.44,868.66,876.59,868.61z"/>
		<path class="st1" d="M876.93,867.01c0.08,0.14,0.33,0.26,0.73,0.28c0.11,0.01,0.23-0.03,0.36-0.05c1.1-0.2,2.9-0.85,3.23-0.92
			c2.98-0.7,6.02-0.96,8.98-1.54c0.53-0.1,1.07-0.18,1.59-0.35c0.23-0.08,0.44-0.18,0.65-0.28c0.25-0.07,0.4-0.35,0.34-0.62
			c-0.06-0.28-0.31-0.45-0.56-0.38c-0.3,0.05-0.59,0.07-0.89,0.12c-2.68,0.48-5.37,0.91-8.07,1.39c-0.76,0.14-1.51,0.29-2.27,0.47
			c-0.21,0.05-1,0.31-1.83,0.61c-0.64,0.23-1.32,0.43-1.72,0.57c-0.09,0.03-0.2,0.12-0.2,0.12s0,0.06,0.02,0.07
			c-0.13-0.11-0.32-0.08-0.42,0.06C876.77,866.69,876.8,866.9,876.93,867.01z"/>
		<path class="st1" d="M880.78,869.7c1.16-0.58,2.39-0.89,3.66-1.19c1.9-0.45,3.85-0.8,5.73-1.33c0.65-0.18,1.32-0.31,1.91-0.64
			c0.16-0.09,0.28-0.21,0.43-0.33c0.19-0.08,0.29-0.33,0.22-0.54c-0.07-0.22-0.29-0.32-0.48-0.24c-0.13,0-0.23-0.03-0.36,0
			c-0.16,0.03-0.31,0.12-0.47,0.18c-2.39,0.85-5.02,1.12-7.46,1.89c-1.22,0.38-2.37,0.91-3.45,1.61c-0.15,0.09-0.21,0.29-0.13,0.45
			C880.45,869.72,880.63,869.79,880.78,869.7z"/>
		<path class="st1" d="M887.52,871.51c1.23-0.66,2.73-0.56,4.09-0.93c0.19-0.05,0.37-0.11,0.54-0.2c0.18-0.1,0.34-0.22,0.5-0.36
			c0.24-0.12,0.34-0.43,0.24-0.7c-0.11-0.27-0.39-0.38-0.63-0.27c-0.17,0.04-0.34,0.04-0.52,0.08c-0.17,0.04-0.33,0.1-0.5,0.16
			c-0.83,0.27-1.69,0.49-2.5,0.8c-0.54,0.21-1.06,0.46-1.53,0.81c-0.14,0.09-0.2,0.3-0.11,0.46
			C887.19,871.55,887.37,871.61,887.52,871.51z"/>
	</g>
	<g transform="matrix(0.4441,0,0,0.39775,-345.369,-236.477)">
		<path class="st1" d="M882.5,692.44c0,0.01,0,0.03,0,0.04c0.16,0.39,0.46,0.94,0.71,1.16c0.81,0.67,1.65,1.3,2.51,1.89
			c0.86,0.58,1.75,1.12,2.65,1.64c5.27,2.91,7.03,3.05,8.43,4.07c1.19,0.87,1.71,2.73,4.81,7.03c0.19,0.27,0.42,0.5,0.66,0.76
			c0.34,0.54,1,0.68,1.49,0.3c0.49-0.37,0.61-1.12,0.27-1.66c-0.14-0.34-0.25-0.66-0.41-0.96c-2.78-5.3-4.3-6.64-5.65-7.55
			c-1.48-1-3.29-1.07-8.85-3.81c-0.89-0.42-1.77-0.88-2.64-1.37c-0.87-0.49-1.72-1-2.55-1.56c-0.15-0.1-0.26-0.42-0.41-0.6
			c-0.3-0.34-0.57-0.52-0.76-0.47c-0.19,0.05-0.44,0.03-0.52,0.38c-0.12,0.23-0.06,0.53,0.15,0.67
			C882.44,692.41,882.47,692.43,882.5,692.44z"/>
	</g>
	<g transform="matrix(0.384296,0,0,0.344188,36.4195,47.2609)">
		<path class="st1" d="M47.73-51.66c0.2-0.03,0.37,0.06,0.7-0.04c0.05-0.02,0.09-0.05,0.13-0.08c0.42-0.26,0.98-0.56,1.6-0.95
			c1.06-0.67,2.31-1.53,3.58-2.41c2.01-1.41,4.01-2.95,5.26-3.91c0.3-0.2,0.39-0.64,0.2-0.97c-0.18-0.33-0.57-0.43-0.87-0.23
			c-1.33,0.82-3.49,2.02-5.55,3.32c-1.31,0.83-2.59,1.67-3.61,2.44c-0.61,0.47-1.1,0.92-1.49,1.28c-0.04,0.04-0.09,0.07-0.13,0.12
			c-0.22,0.34-0.24,0.56-0.31,0.8c-0.16,0.15-0.18,0.41-0.05,0.59C47.33-51.53,47.57-51.51,47.73-51.66z"/>
	</g>
	<g transform="matrix(0.384296,0,0,0.344188,36.4195,47.2609)">
		<path class="st1" d="M48.49-50.87c-0.02,0.03-0.03,0.06-0.02,0.04c0.03-0.06,0.06,0.14,0.17,0.18c0.81,0.33,2.86,0.71,2.96,0.74
			c2.05,0.39,4.1,0.83,6.17,1.05c0.89,0.09,1.79,0.11,2.69,0.14c0.45,0.05,0.85-0.32,0.89-0.83c0.04-0.5-0.29-0.95-0.74-1
			c-0.58-0.11-1.15-0.26-1.72-0.37c-2.31-0.41-4.64-0.73-6.95-1.17c-0.11-0.01-2.31-0.56-3.2-0.32c-0.48,0.13-0.68,0.25-0.73,0.39
			c-0.03,0.09-0.12,0.07-0.13,0.14c0,0.21-0.23,0.3-0.11,0.45c0.04,0.05-0.02,0.11,0.03,0.15c0.08,0.06,0.03,0.27,0.23,0.28
			c0.08,0,0.12,0.01,0.27,0.04c0.05,0.01,0.1,0.05,0.16,0.08L48.49-50.87z M48.79-51.63c0-0.02,0-0.03,0.01-0.05
			c0.02-0.07-0.15-0.16-0.15-0.16s-0.05,0.07-0.02,0.11c0.03,0.04,0.08,0.06,0.14,0.09L48.79-51.63z"/>
	</g>
	<g transform="matrix(0.384296,0,0,0.344188,36.4195,47.2609)">
		<path class="st1" d="M59.54-60.43c-0.08-0.05-0.07-0.16-0.1-0.26c-0.09-0.27-0.01-0.64,0.01-1.1c0.05-1.13,0.25-2.7,0.68-4.27
			c0.59-2.14,1.47-4.31,2.52-5.22c3.83-3.32,9.74-3.8,14.99-2.2c2.58,0.78,5.01,2.08,6.97,3.81c2.04,1.81,3.58,4.09,4.18,6.83
			c1.41,6.44,0.41,12.03-1.99,16.32c-1.84,3.3-4.5,5.84-7.43,7.44c-6.23,3.41-13.72,2.58-17.57-4.26c-0.5-0.89-0.94-1.89-1.34-2.98
			c-0.25-0.67-0.5-1.37-0.71-2.12c-0.11-0.5-0.56-0.82-1.01-0.69c-0.45,0.12-0.73,0.63-0.62,1.13c0.13,0.85,0.29,1.67,0.51,2.43
			c0.36,1.28,0.86,2.42,1.42,3.44c4.33,7.93,13.04,8.93,20.18,4.99c3.24-1.79,6.15-4.6,8.21-8.24c2.68-4.73,3.93-10.86,2.47-18.02
			c-0.68-3.28-2.44-6.08-4.87-8.25c-2.19-1.95-4.92-3.38-7.82-4.2c-5.9-1.68-12.47-0.85-16.68,2.97c-1.46,1.33-2.78,4.65-3.28,7.65
			c-0.26,1.54-0.36,2.99-0.13,3.97c0.23,0.98,0.67,1.55,1.21,1.61c0.2,0.07,0.41-0.05,0.47-0.27
			C59.84-60.13,59.73-60.36,59.54-60.43z"/>
	</g>
	<g transform="matrix(0.329474,0,0,0.295087,59.7879,41.1899)">
		<path class="st1" d="M-111.47-56.14c0.04,0.19,0.13,0.4,0.29,0.64c0.29,0.44,1.1,0.71,1.6,0.89c1.04,0.24,2.08,0.47,3.13,0.65
			c0.92,0.16,1.84,0.32,2.77,0.44c0.62,0.08,1.23,0.09,1.85,0.17c0.41,0.12,0.83-0.16,0.93-0.61c0.11-0.46-0.14-0.93-0.55-1.04
			c-0.76-0.33-1.52-0.65-2.31-0.88c-1.08-0.31-2.18-0.49-3.28-0.67c-0.72-0.12-1.44-0.21-2.15-0.33c-0.38-0.03-0.89-0.34-1.24-0.33
			C-111.8-57.19-111.77-56.24-111.47-56.14z"/>
	</g>
	<g transform="matrix(0.329474,0,0,0.295087,59.7879,41.1899)">
		<path class="st1" d="M-111.6-47.68c-0.21,0.22,0,0-0.06,0.25c-0.01,0.05,0.05,0.06,0.06,0.1c0.01,0.05,0.06,0.05,0.07,0.09
			c0.02,0.07,0.1,0.05,0.13,0.11c0.05,0.08,0.14,0.03,0.2,0.09c0.21,0.2,0.44,0.02,0.9-0.18c0.23-0.1,0.48-0.48,0.69-0.56
			c0.97-0.54,1.97-1.01,2.93-1.58c1.44-0.86,2.82-1.85,4.23-2.76c0.43-0.25,0.61-0.84,0.38-1.33c-0.22-0.48-0.76-0.68-1.19-0.43
			c-1.5,0.75-3.02,1.41-4.48,2.25c-0.98,0.56-1.9,1.23-2.84,1.86c-0.28,0.23-0.49,1.33-0.85,1.14c-0.07-0.04,0.11,0.14,0.14,0.1
			c0.03-0.05,0.08,0.03,0.12-0.01c0.15-0.15,0.22,0.17,0.42,0.19c0.06,0.01-0.01,0.16,0.07,0.17c0.38,0.03-0.52,0.23-0.13,0.09
			c-0.1-0.24-0.36-0.34-0.58-0.23C-111.61-48.21-111.7-47.92-111.6-47.68z"/>
	</g>
	<g transform="matrix(0.329474,0,0,0.295087,59.7879,41.1899)">
		<path class="st1" d="M-110.96-57.17c-0.22-0.74-0.29-1.47-0.35-2.19c-0.3-3.17,0.46-6.33-0.01-9.52
			c-0.35-2.37-1.38-4.75-4.02-7.12c-9.18-8.08-19.32-7.5-26.68-1.86c-7.24,5.55-11.8,16.04-10.05,28.14
			c2.01,14.38,10.63,20.73,19.91,20.68c4.64-0.02,9.49-1.64,13.74-4.78c1.7-1.25,3.32-2.73,4.75-4.48c1.92-2.35,3.49-5.15,4.71-8.28
			c0.19-0.42,0.04-0.94-0.34-1.15c-0.38-0.21-0.84-0.04-1.03,0.38c-1.4,2.77-3.17,5.12-5.07,7.19c-1.39,1.51-2.84,2.87-4.4,4.02
			c-3.86,2.84-8.19,4.46-12.39,4.54c-8.32,0.16-16-5.59-17.94-18.47c-1.64-11.17,2.51-20.9,9.19-26.04
			c6.74-5.19,16.04-5.67,24.48,1.71c2.26,1.93,3.19,3.88,3.53,5.85c0.55,3.16-0.34,6.37,0.3,9.45c0.17,0.81,0.47,1.58,0.87,2.35
			c0.1,0.24,0.36,0.35,0.58,0.24C-110.96-56.64-110.86-56.93-110.96-57.17z"/>
	</g>
	<g transform="matrix(0.329474,0,0,0.295087,131.192,56.3977)">
		<path class="st1" d="M-225.98-149.99c0.1-0.15,0.12-0.35,0.04-0.52c0.04-0.13-0.49-0.7-1.21,0.59c-0.05,0.1-0.06,0.23-0.09,0.38
			c-0.06,0.43-0.09,1.02-0.1,1.67c-0.01,0.53,0.02,1.1,0.04,1.66c0.02,0.58,0.04,1.15,0.09,1.66c0.08,0.78,0.19,1.39,0.24,1.69
			c0.04,0.5,0.43,0.88,0.88,0.83s0.79-0.48,0.75-0.99c0.01-0.29,0.07-0.88,0.1-1.62c0.02-0.5,0-1.07,0-1.65
			c-0.01-0.56-0.01-1.12-0.04-1.65c-0.04-0.64-0.08-1.22-0.16-1.64c-0.03-0.16-0.05-0.29-0.11-0.39c-0.13-0.22-0.27-0.24-0.27-0.24
			s-0.09,0.04-0.08,0.06C-225.85-150.03-225.93-150.02-225.98-149.99z M-226.11-149.86L-226.11-149.86
			c-0.03,0.15-0.08,0.11-0.16,0.06c0.05-0.01,0.1-0.02,0.14-0.05L-226.11-149.86z M-226.58-149.89c0.01,0.03,0.02,0.05,0.05,0.04
			l0,0l-0.04-0.02L-226.58-149.89z M-226.02-149.94c-0.02,0.02-0.03,0.03-0.05,0.05C-226.05-149.9-226.02-149.9-226.02-149.94
			L-226.02-149.94z"/>
	</g>
	<g transform="matrix(0.329474,0,0,0.295087,131.192,56.3977)">
		<path class="st1" d="M-219.35-147.31c0.06,0.04,0.12,0.06,0.19,0.07c0.24,0.02,0.45-0.18,0.47-0.45c0.09-0.06-0.04-0.11,0.01-0.17
			c0.03-0.04-0.04-0.05-0.02-0.09c0.1-0.18-0.17-0.07-0.19-0.26c-0.01-0.17-0.15,0.07-0.28-0.09c-0.11-0.14-0.14-0.2-0.88-0.01
			c-0.38,0.1-0.8,0.71-1.21,1.01c-1.23,1.06-2.47,2.13-3.54,3.39c-0.72,0.85-1.34,1.79-1.95,2.74c-0.31,0.41-0.27,1.02,0.1,1.37
			c0.37,0.35,0.92,0.3,1.23-0.11l5.49-5.51c0.39-0.4,0.97-0.88,1.12-1.32c0.08-0.24-0.2-0.39-0.06-0.38c0.08,0-0.07-0.14-0.08-0.08
			c-0.02,0.15-0.14-0.07-0.18,0c-0.03,0.05-0.05-0.05-0.08-0.01C-219.29-147.11-219.31-147.22-219.35-147.31z M-219.51-147.5
			c-0.01,0.06-0.03,0.12,0.04,0.11l0.03,0C-219.47-147.43-219.5-147.46-219.51-147.5z M-219.56-147.68
			c-0.02,0.03-0.04,0.05-0.01,0.06l0.02,0.01C-219.56-147.63-219.56-147.66-219.56-147.68z"/>
	</g>
	<g transform="matrix(0.329474,0,0,0.295087,131.192,56.3977)">
		<path class="st1" d="M-225.51-150.63c-0.64-0.12-1.18-0.4-1.73-0.64c-2.2-0.93-3.82-2.84-4.89-5.46c-2-4.9-2.25-11.61-1.35-15.43
			c1.64-6.87,6.71-10.64,12.48-11.96c5.86-1.34,12.46-0.18,17.08,2.86c3.65,2.39,6.32,5.4,8.13,8.64
			c3.27,5.85,3.75,12.53,1.77,17.91c-2.57,6.98-9.17,11.4-18.54,9.15c-1.73-0.42-3.57-0.99-5.5-1.86c-0.51-0.25-1.11,0-1.34,0.57
			c-0.23,0.57,0,1.24,0.51,1.49c2.01,1.09,3.93,1.91,5.78,2.42c10.7,2.95,18.24-2.78,21.22-10.79c2.27-6.1,1.96-13.73-1.76-20.38
			c-2.01-3.58-5.01-6.86-9.08-9.44c-5.09-3.21-12.31-4.37-18.69-2.79c-6.46,1.59-12.06,5.94-13.82,13.67
			c-0.95,4.15-0.68,11.45,1.56,16.74c1.32,3.11,3.26,5.77,6.03,6.33c0.69,0.14,1.39,0.09,2.15-0.06c0.24,0,0.44-0.22,0.44-0.49
			S-225.27-150.63-225.51-150.63z"/>
	</g>
	<g transform="matrix(0.329474,0,0,0.295087,59.7879,41.1899)">
		<path class="st1" d="M-140.8-60.21c-0.21,0.52-0.31,1.01-0.32,1.44c-0.01,0.51,0.16,0.88,0.39,1.15c0.23,0.27,0.57,0.44,0.94,0.5
			c-0.4,1.03-0.75,2.09-1.02,3.16c-0.42,1.19-0.74,2.42-0.94,3.65c-0.41,2.58-0.24,5.16,0.8,7.46c1.96,4.41,6.34,4.83,10.93,3.1
			l0.19-0.07c3.63-1.04,7.58-3.56,10.17-6.84c1.05-1.32,1.87-2.76,2.38-4.27c0.21-0.49,0.37-0.96,0.47-1.42
			c0.21-1,0.23-1.84,0.08-2.53c-0.08-1.21-0.38-2.44-0.96-3.66c-1.61-3.44-4.29-3.44-6.71-2.04c-0.86,0.5-1.68,1.18-2.39,1.92
			c-0.32-0.21-0.69-0.33-1.09-0.39c0.81-0.93,1.55-1.88,2.17-2.81c1.89-2.84,2.5-5.6,1.04-7.37c-0.38-0.46-0.88-0.78-1.46-0.95
			c0.13-0.58,0.1-1.07-0.04-1.46c-0.33-0.89-0.98-1.35-1.89-1.42c-1.41-0.1-3.69,0.99-5.96,2.69c-1.92,1.43-3.89,3.24-5.28,4.95
			c-1.72,2.12-2.49,4.16-1.98,5C-141.17-60.25-140.98-60.17-140.8-60.21z M-126.92-68.3c-0.73,1.24-1.89,2.7-3.22,4.14
			c-2.35,2.55-5.27,5.01-7.33,6.24c-0.41,0.76-0.8,1.57-1.17,2.42c-0.63,1.99-1.01,4.06-1.04,5.98c-0.05,3.89,1.44,7.2,5.57,7.82
			c3.18,0.55,7.81-1.34,11.21-4.41c0.6-0.56,1.17-1.15,1.68-1.74c0.06-0.07,0.11-0.13,0.17-0.2c1.61-2,2.64-4.34,2.48-6.76
			c-0.28-0.45-0.8-0.63-1.42-0.7c-1.1-0.13-2.51,0.12-4.02,0.64c0.27,0.79,0.18,1.78-0.28,2.86c-0.67,1.56-2.11,3.37-3.74,4.91
			c-2.07,1.95-4.46,3.4-5.94,3.44c-0.92,0.03-1.58-0.36-1.93-1.2c-0.32-0.1-0.6-0.29-0.81-0.55c-0.73-0.88-0.75-2.16-0.08-3.58
			c0.73-1.54,2.32-3.33,4.13-4.77c1.32-1.05,2.76-1.91,4.06-2.39c0.16-0.31,0.35-0.64,0.58-0.97c-0.08-0.01-0.17-0.02-0.25-0.02
			c-0.56,0-1.2,0.22-1.87,0.54c-1.9,1.91-3.81,3.55-4.99,4.5c-0.53,0.42-0.92,0.71-1.11,0.84c-0.65,0.43-1.13,0-1.19-0.06
			c-0.32-0.34-0.42-0.74-0.34-1.18c0.08-0.45,0.57-1.08,0.89-1.43c0.78-0.85,3.27-3.03,5.63-4.26c1.51-1.53,3.02-3.24,4.11-4.88
			c0.74-1.12,1.29-2.19,1.46-3.16c0.11-0.62,0.05-1.17-0.31-1.61C-126.23-68.14-126.55-68.27-126.92-68.3z M-125.6-53.2
			c-0.22,0.11-0.43,0.2-0.63,0.27c-0.61,1.3-1.55,2.65-2.62,3.87c-0.91,1.03-1.91,1.96-2.88,2.69c0.87-0.54,1.8-1.28,2.66-2.1
			c1.44-1.36,2.73-2.95,3.31-4.32C-125.7-52.93-125.64-53.07-125.6-53.2z M-128.36-52.85c-2.07,1.23-3.96,2.74-5.12,4.27
			c-0.45,0.59-0.79,1.16-0.95,1.71c0.19-0.08,0.4-0.18,0.61-0.3c1.53-0.87,3.38-2.6,4.75-4.47c0.28-0.39,0.54-0.78,0.78-1.17
			l-0.02-0.01L-128.36-52.85z M-119.18-57.32c-0.04-0.09-0.08-0.18-0.12-0.27c-0.74-1.56-1.83-1.93-2.96-1.66
			c-1.2,0.29-2.42,1.2-3.37,2.21c0.06,0.21,0.11,0.43,0.13,0.65l0.01,0.01c0.15-0.06,0.31-0.12,0.46-0.18
			C-122.79-57.4-120.71-57.7-119.18-57.32z M-136.78-62.7c-0.59,0.6-1.11,1.2-1.53,1.78c-0.5,0.68-0.87,1.3-1,1.84
			c0.14-0.03,0.29-0.08,0.46-0.15C-138.24-60.49-137.54-61.66-136.78-62.7z M-127.78-70.32c0.12-0.25,0.18-0.46,0.12-0.63
			c-0.2-0.54-0.78-0.37-1.5-0.14c-1.53,0.47-3.54,1.83-5.46,3.37c-1.89,1.52-3.67,3.24-4.8,4.68c-0.48,0.62-0.86,1.15-1.02,1.61
			c-0.07,0.2-0.14,0.37-0.07,0.5c0.01,0.02,0.02,0.03,0.02,0.05c0.12-0.24,0.27-0.49,0.43-0.74c1.44-2.23,4.35-4.91,7.25-6.69
			C-131.02-69.41-129.24-70.16-127.78-70.32z M-129.32-67.85c-0.93,0.35-1.94,0.87-2.94,1.51c0.25,0.17,0.45,0.49,0.17,1
			c-0.04,0.08-0.26,0.34-0.35,0.44c-0.78,0.83-1.52,1.69-2.21,2.6l-0.06,0.08c0.7-0.62,1.42-1.29,2.11-1.97
			C-131.38-65.4-130.22-66.67-129.32-67.85z"/>
	</g>
	<g transform="matrix(0.329474,0,0,0.295087,131.192,56.3977)">
		<path class="st1" d="M-226.39-161.4c0.09,1.45,0.71,2.7,2,3.57c0.91,0.62,2.15,0.8,3.56,0.57c0.38-0.06,0.78-0.15,1.19-0.27
			c0.66,1.18,1.92,1.97,3.56,2.38c2.36,0.59,5.58,0.4,8.69-0.33c3.8-0.9,7.42-2.63,9.19-4.46c1.04-1.07,1.49-2.24,1.39-3.33
			c-0.09-0.89-0.54-1.56-1.34-1.97c-0.41-0.21-0.94-0.33-1.57-0.37c0.26-1.09,0.12-2.2-0.54-3.28c-0.46-0.75-1.3-1.39-2.43-1.82
			c-1.53-0.58-3.62-0.81-5.67-0.66c-0.14,0.01-0.28,0.02-0.42,0.04c-0.52-0.51-1.24-0.66-2.09-0.5c-0.4,0.07-0.83,0.23-1.28,0.45
			c-0.13-0.25-0.28-0.49-0.45-0.73c-0.93-1.28-2.2-1.76-3.63-1.63c-0.25,0.02-0.5,0.07-0.75,0.13c-0.96-0.72-2.36-0.54-3.86,0.21
			c-1.21,0.6-2.52,1.53-3.62,2.72c-1.4,1.52-2.43,3.41-2.76,5.17C-227.49-164.01-227.26-162.59-226.39-161.4z M-199-162.94
			c-0.03-0.02-0.09-0.06-0.13-0.07c-0.17-0.07-0.37-0.11-0.59-0.13c-0.38-0.04-0.81-0.04-1.27,0c-2.25,2.85-7.04,5.13-8.94,5.26
			c-0.22,0.01-1-0.03-1.43-0.35c-0.4-0.3-0.65-0.75-0.63-1.39c0.02-0.58,0.34-1.29,0.99-1.96c-0.93,0.61-1.97,1.18-2.97,1.43
			c-0.21,0.05-0.42,0.1-0.62,0.12l-0.27,0.18c-0.14,0.09-0.29,0.19-0.43,0.28l-0.31,0.19c0.44,0.05,1.01,0.05,1.7,0.02
			c0.49-0.04,0.91,0.37,0.94,0.91c0.03,0.54-0.33,1.01-0.82,1.05c-1.76,0.18-2.88,0.02-3.53-0.29c0.45,0.26,0.99,0.43,1.59,0.56
			c2.16,0.45,5.06,0.1,7.87-0.65c2.85-0.75,5.6-1.92,7.34-3.26C-199.65-161.69-198.97-162.26-199-162.94z M-220.13-159.71
			c-1,0.27-1.99,0.37-2.9,0.26c0.54,0.21,1.2,0.22,1.93,0.1c0.31-0.05,0.64-0.12,0.97-0.22L-220.13-159.71L-220.13-159.71z
			 M-218.43-160.32l-0.18,0.08l0,0.05l0,0.09l0.11-0.05l0.11-0.05l0.05-0.16L-218.43-160.32z M-213.88-170.25
			c-0.07-0.15-0.16-0.3-0.27-0.45c-0.66-0.91-1.66-0.98-2.73-0.65c-1.57,0.49-3.29,1.83-4.7,3.46c-1.42,1.65-2.55,3.6-2.83,5.35
			l-0.03,0.22c0.66,0.52,1.52,0.67,2.43,0.62c0.73-0.04,1.5-0.22,2.26-0.51c0.33-1.16,0.85-2.35,1.52-3.45
			c0.86-1.41,1.94-2.63,3.06-3.41C-214.76-169.5-214.33-169.9-213.88-170.25z M-212.93-164.3c-0.29,0.34-0.6,0.69-0.9,1.03
			l-0.51,0.59c0.65-0.5,1.26-1.04,1.82-1.59C-212.66-164.28-212.8-164.29-212.93-164.3z M-202.11-165.47
			c0.37-0.66,0.47-1.35,0.05-2.04c-0.24-0.4-0.74-0.67-1.33-0.9c-1.23-0.47-2.88-0.66-4.52-0.57c0,0.88-0.26,1.83-0.76,2.8
			l-0.06,0.12c0.29,0.1,0.5,0.23,0.63,0.37c0.39,0.41,0.48,0.96,0.15,1.57c-0.24,0.44-0.99,1.03-1.1,1.11
			c1.55-0.89,3.61-1.7,5.54-2.18C-203.03-165.31-202.57-165.4-202.11-165.47z M-215.49-165.32c-0.11,0.18-0.21,0.36-0.3,0.54
			c0.14-0.14,0.27-0.27,0.4-0.41C-215.42-165.24-215.46-165.28-215.49-165.32z M-218.39-173.1c-1.47-0.04-3.47,1.57-5,3.52
			c-0.88,1.12-1.59,2.4-1.93,3.65l0,0c0.59-1.21,1.39-2.41,2.32-3.49C-221.62-171.01-219.98-172.34-218.39-173.1z M-209.72-168.78
			c-0.32,0.06-0.63,0.12-0.93,0.2c0.07,0.41,0,0.89-0.24,1.43c-0.11,0.26-0.27,0.54-0.47,0.83l0.56,0.02
			c0.21-0.3,0.39-0.61,0.55-0.91C-209.96-167.75-209.76-168.29-209.72-168.78z"/>
	</g>
	<g transform="matrix(0.384296,0,0,0.344188,36.4195,47.2609)">
		<path class="st1" d="M68.96-62.01c-0.37,0.5-0.76,0.95-1.12,1.35c-0.5,0.55-2.01,1.44-2.23,1.78c-0.2,0.33-0.17,0.62-0.08,0.83
			c0.07,0.17,0.27,0.49,0.8,0.49c0.2,0,0.43-0.02,0.69-0.06c-1.32,1.86-2.15,3.97-1.96,5.63c0.39,3.47,2.85,4.32,5.84,3.58
			c0.05,0.63,0.22,1.22,0.52,1.75c1.23,2.11,3.45,1.84,5.6,0.27c0.37-0.17,0.8-0.46,1.29-0.89c1.01-0.89,1.92-2.05,2.61-3.35
			c0.2-0.37,0.38-0.76,0.54-1.16c0.2-0.4,0.37-0.79,0.51-1.17l0.18-0.05c2.69-0.71,4.59-2.17,4.85-4.28
			c0.06-0.46-0.08-0.85-0.43-1.16c-0.35-0.31-1.11-0.52-2.2-0.48c-0.22,0.01-0.46,0.03-0.71,0.06c0.22-0.65,0.2-1.3-0.12-1.9
			c-0.62-1.18-1.96-1.87-3.7-2.22c-2.51-0.5-5.91-0.31-8.72-0.31c0.22-0.65,0.33-1.32,0.26-2c-0.14-1.52-1.13-2.13-2.34-2.11
			c-1.43,0.03-3.15,1.08-3.62,2.19c-0.56,1.33-0.18,2.16,0.82,2.67C66.88-62.21,67.82-62.06,68.96-62.01z M75.31-50.37
			c-0.91,0.57-1.85,1.06-2.77,1.43c-0.13,0.05-0.27,0.11-0.4,0.15c0.02,0.49,0.14,0.94,0.37,1.35c0.63,1.09,1.6,1.11,2.67,0.59
			c-0.11-0.21-0.19-0.48-0.23-0.79C74.88-48.3,75.01-49.28,75.31-50.37z M80.47-52.64c-0.78,0.12-1.59,0.19-2.41,0.23
			c-0.33,0.29-0.68,0.58-1.04,0.85c-0.49,1.22-0.82,2.45-0.86,3.34c-0.01,0.23,0,0.43,0.04,0.59c0.01,0.04-0.01,0.09,0.02,0.1
			c0.02,0.01,0.05,0.01,0.07,0.01c0.26-0.19,0.51-0.4,0.76-0.62c1.35-1.19,2.61-2.84,3.37-4.39L80.47-52.64z M67.02-54.99
			c-0.46,0.99-0.7,1.97-0.6,2.82c0.29,2.62,2.28,2.9,4.58,2.21c0.1-0.55,0.26-1.11,0.48-1.68c-0.23,0.06-0.44,0.1-0.61,0.13
			c-0.61,0.09-0.94-0.19-1.08-0.51c-0.65-0.17-1.23-0.5-1.7-1.02c-0.35-0.4-0.59-0.91-0.71-1.49C67.22-54.68,67.1-54.84,67.02-54.99
			z M74.25-52.51c-0.32,0.11-0.73,0.25-1.16,0.39c-0.29,0.55-0.54,1.11-0.71,1.65c1.15-0.49,2.31-1.17,3.38-1.94
			C75.26-52.43,74.75-52.46,74.25-52.51z M80.89-55.75l-0.12,0.22c-0.28,0.48-0.64,0.97-1.07,1.47c0.41-0.06,0.81-0.13,1.21-0.21
			c0.04-0.24,0.07-0.48,0.09-0.73c0.02-0.2,0.03-0.4,0.03-0.58C80.99-55.64,80.94-55.7,80.89-55.75z M75.82-59.65
			c-1.02,0.1-2.08,0.32-3.13,0.58c0.06,0.16,0.11,0.32,0.15,0.49l0.15-0.03c0.24-0.05,0.46,0.13,0.51,0.39
			c0.04,0.26-0.11,0.52-0.35,0.56c0.01,0.06,0.01,0.14,0,0.22c-0.03,0.21-0.17,0.7-0.19,0.81l-0.01,0.09
			c-0.01,0.03-0.01,0.07-0.02,0.1c-0.13,0.67-0.34,0.79-0.51,0.65c-0.2,0.04-0.35-0.18-0.25-0.86l0-0.03c0.01-0.1,0.04-0.4,0.02-0.6
			l-0.02-0.16c-1.92,0.46-3.14,0.92-3.81,1.38c-0.02,0.3-0.01,0.6,0.03,0.87c0.48,0.29,1.2,0.54,2.08,0.75
			c0.21,0.05,0.42,0.1,0.65,0.14c0.08-0.06,0.17-0.12,0.26-0.18c0.75-0.47,1.68-0.89,2.49-1.23c0.8-0.99,1.69-1.87,2.55-2.56
			c-0.04-0.31-0.14-0.62-0.31-0.93C76.02-59.36,75.93-59.51,75.82-59.65z M85.6-57.24c-0.15-0.04-0.41-0.1-0.64-0.11
			c-0.63-0.02-1.47,0.07-2.46,0.27l0,0c-0.04,0.04-0.08,0.08-0.13,0.12l-0.13,0.12c0.04,0.33,0.05,0.69,0.05,1.07
			c0.09,0.33,0.12,0.7,0.09,1.11C84.03-55.2,85.31-55.96,85.6-57.24z M80.13-58.08c-0.01-0.03-0.02-0.06-0.04-0.09
			c-0.15-0.33-0.5-0.24-0.92-0.1c-0.45,0.15-0.96,0.43-1.49,0.81c-0.01,0.08-0.02,0.15-0.04,0.23
			C78.51-57.56,79.34-57.84,80.13-58.08z M71.81-58.85c-0.91,0.24-1.78,0.49-2.58,0.71c-0.19,0.2-0.38,0.4-0.56,0.61l-0.03,0.09
			l0,0.02c0.79-0.35,1.89-0.69,3.36-1l-0.05-0.14C71.91-58.66,71.87-58.76,71.81-58.85z M74.84-62.02c0.52,0.15,1.01,0.42,1.45,0.84
			c1.19-0.07,2.3,0.03,3.22,0.4c1.02,0.41,1.85,1.11,2.33,2.26l0.15-0.03c0.12-0.13,0.22-0.26,0.31-0.4
			c0.24-0.37,0.37-0.73,0.19-1.1c-0.77-1.52-3.13-1.84-5.75-1.94C76.11-62.02,75.48-62.02,74.84-62.02z M77.34-59.71
			c0.1,0.21,0.18,0.42,0.23,0.64c0.32-0.2,0.63-0.36,0.93-0.49c-0.34-0.08-0.7-0.13-1.09-0.15L77.34-59.71z M72.64-62
			c-0.72,0.01-1.42,0.02-2.08,0.02c-0.38,0.66-0.84,1.27-1.29,1.8c0.11-0.08,0.22-0.14,0.33-0.2c0.36-0.29,0.72-0.55,1.09-0.77
			C71.34-61.54,72-61.83,72.64-62z M69.74-63.29c0.28-0.58,0.45-1.2,0.4-1.84c-0.07-0.85-0.82-0.92-1.53-0.78
			c-0.85,0.17-1.75,0.68-2.02,1.31c-0.33,0.77,0.28,0.96,1.14,1.12C68.31-63.37,68.99-63.32,69.74-63.29z"/>
	</g>
</g>
</svg>
