<?xml version="1.0" encoding="utf-8"?>
<!-- Generator: Adobe Illustrator 24.2.0, SVG Export Plug-In . SVG Version: 6.00 Build 0)  -->
<svg version="1.1" id="图层_1" xmlns="http://www.w3.org/2000/svg" xmlns:xlink="http://www.w3.org/1999/xlink" x="0px" y="0px"
	 viewBox="0 0 85 85" style="enable-background:new 0 0 85 85;" xml:space="preserve">
<style type="text/css">
	.st0{fill-rule:evenodd;clip-rule:evenodd;}
	.st1{fill-rule:evenodd;clip-rule:evenodd;fill:#FFFFFF;}
	.st2{fill:none;stroke:#000000;stroke-width:0.5048;stroke-linecap:round;stroke-linejoin:round;stroke-miterlimit:10;}
</style>
<g>
	<g transform="matrix(1,0,0,1,-409,-366.5)">
		<g>
			<g>
				<defs>
					<rect id="SVGID_1_" x="436.9" y="418.7" width="14.9" height="12"/>
				</defs>
				<clipPath id="SVGID_2_">
					<use xlink:href="#SVGID_1_"  style="overflow:visible;"/>
				</clipPath>
			</g>
		</g>
	</g>
	<g>
		<g id="body-mono-Explaining">
			<path id="_xD83D__xDD8D_-Ink20" class="st0" d="M55.4,52.6c-0.5,0.7-0.9,1.3-1.2,2c-0.2,0.4-0.4,0.7-0.5,1.1c0-0.8,0-1.7-0.1-2.5
				c0-0.1-0.1-0.1-0.1,0c-0.1,0.7-0.1,1.5-0.2,2.2c0,0-0.1,0-0.2,0c-0.5,0-1.1,0-1.6,0.1c-0.2,0-0.5,0-0.7,0.1
				c0.2-0.2,0.4-0.5,0.6-0.7c0.2-0.2,0.4-0.6,0.1-0.9c-0.3-0.3-1,0.1-1.3,0.2c-0.2,0.1-0.3,0.1-0.5,0.2c-0.2-0.6-0.8-0.6-1.3-0.6
				c-0.4,0.1-0.7,0.2-1.1,0.3c-0.5,0.1-0.9,0.2-1.4,0.4c-0.8,0.2-1.7,0.4-2.6,0.5c0,0-0.1,0-0.1-0.1c-0.3-0.1-0.6,0-0.9,0
				c-0.3,0-0.6,0-0.9,0c-0.6,0-1.1,0-1.7,0c-0.2-0.1-0.4-0.2-0.4-0.4c-0.1-0.2,0.1-0.5,0.2-0.7c0.3-0.7,0.5-1.5,0.3-2.3
				c0-0.1-0.1-0.3-0.1-0.4c0.6,0.1,1.2,0.1,1.8,0.1c1.2,0,2.4,0.1,3.6,0.1c2.4,0,4.9,0,7.3,0c1.4,0,2.7,0,4.1-0.1
				c-0.1,0.1-0.2,0.3-0.3,0.4c0,0,0,0,0,0c0,0,0,0,0,0C55.7,52.1,55.6,52.4,55.4,52.6 M52.7,77.8c-0.6,0-1.1,0-1.7-0.1
				c-1.1,0-2.2-0.1-3.3-0.1c-2.2-0.1-4.4-0.1-6.6-0.2c-2.2-0.1-4.4-0.1-6.6-0.1c-2.2,0.1-4.4,0.2-6.6,0.4c-1.2,0.1-2.4,0.1-3.7,0.2
				c-1.2,0-2.3,0-3.5,0.1c0-0.3,0-0.6,0-0.9c0.4-0.2,0.8-0.5,1.1-0.7c1.3-0.8,2.6-1.8,3.8-2.8c0.2-0.2,0.4-0.3,0.5-0.5
				c-0.1,0.3,0,0.6,0.3,0.7C27,74,27.4,74,27.9,74c0.5,0,0.9,0,1.4,0c0.9,0,1.8,0,2.7-0.1c1.8,0,3.5-0.1,5.3-0.1
				c3.5,0,7.1,0,10.6,0.1c1,0,2,0,3,0c0.5,0,1,0,1.5,0c0.4,0,0.8-0.1,1.2-0.1c0,0.7,0.1,1.4,0.2,2.1c0,0.5,0.1,0.9,0.1,1.4
				c0,0.2,0,0.4,0,0.6C53.4,77.8,53,77.8,52.7,77.8 M53.1,58.2c0,0.5,0,1.1,0,1.6c0,0-0.1,0-0.2-0.1c-0.6-0.1-1.3,0-1.9,0
				c-0.6,0-1.2,0-1.8,0c-0.6,0-1.2,0.1-1.8,0.1c-0.3,0-0.6,0-0.8,0.1c-0.2,0-0.4,0-0.6,0.1c0.9-0.8,1.7-1.7,2.6-2.5
				c0,0,0-0.1,0.1-0.1c0.6-0.4,1.1-0.7,1.6-1.2c0.4,0.2,0.8,0.2,1.3,0.2c0.5,0,1.1,0.1,1.6,0.1c0,0,0.1,0,0.1,0
				C53.1,57.1,53.1,57.6,53.1,58.2 M30.6,68.5c1.3,0.4,2.8,0.4,4.1,0.5c1.5,0.1,2.9,0.2,4.4,0.2c2.9,0.1,5.9,0.3,8.8,0.4
				c1.7,0.1,3.3,0.1,5,0.2c0.1,0,0.2,0,0.3-0.1c0.1,1.1,0.1,2.2,0.2,3.3c0,0.1,0,0.3,0,0.4c-0.8-0.1-1.6-0.2-2.4-0.3
				c-0.9-0.1-1.8-0.1-2.7-0.2c-1.7-0.1-3.5-0.3-5.2-0.3c-3.5-0.1-7.1-0.1-10.6,0c-1,0-2,0-3,0c-0.5,0-1,0-1.5,0c-0.5,0-1,0-1.5,0.1
				c0,0,0,0,0,0C28,71.5,29.3,70,30.6,68.5 M35.2,64.1c2.2,0.4,4.4,0.4,6.7,0.4c2.3,0,4.6,0,6.9,0c1.3,0,2.6,0.1,3.9-0.1
				c0.2,0,0.3-0.1,0.4-0.2c0,1.4,0.1,2.8,0.1,4.1c-0.1,0-0.2-0.1-0.3-0.1c-2.9-0.2-5.9-0.3-8.8-0.4c-2.9-0.1-5.9-0.2-8.8-0.2
				c-1.4,0-2.9-0.1-4.3,0.2c0.5-0.6,1.1-1.1,1.7-1.7C33.5,65.6,34.4,64.9,35.2,64.1 M36.9,62.5C36.9,62.5,36.9,62.5,36.9,62.5
				C36.9,62.5,36.9,62.5,36.9,62.5c2.1,0,4.4,0.6,6.3-0.4c0.9-0.4,1.6-1.2,2.3-1.8c0,0,0,0,0,0c0,0.1,0,0.1,0.1,0.1
				c0.2,0.1,0.5,0.1,0.7,0.1c0.3,0,0.6,0.1,0.8,0.1c0.6,0,1.3,0.1,1.9,0.1c0.6,0,1.3,0,1.9,0.1c0.6,0,1.3,0.1,1.9,0
				c0.1,0,0.1,0,0.2-0.1c0,0.8,0,1.6,0,2.4c0,0.1,0,0.3,0,0.4c-0.1-0.1-0.2-0.1-0.3-0.1c-1.1-0.1-2.3-0.1-3.5-0.1
				c-1.1,0-2.3,0-3.4,0c-2.3,0-4.6,0-6.9,0.1c-1.1,0-2.2,0.1-3.3,0.3C36.1,63.4,36.5,63,36.9,62.5 M19,77.1
				c-0.4,0.1-0.8,0.1-1.3,0.2c0,0,0,0-0.1,0c-1.3-0.5-2.1-1.6-2.7-2.8c-0.6-1.3-1-2.7-1.3-4.1c-0.6-2.9-0.6-5.8-0.3-8.7
				c0.3-2.9,0.9-5.7,1.7-8.4c0.6-1.9,1.3-3.8,2.3-5.5c1.2,0.8,2.1,1.9,2.9,3c1,1.3,1.9,2.7,2.8,4.2C23,55.2,23,55.5,23,55.7
				c-0.1,0.4-0.2,0.9-0.2,1.3c-0.1,0.9-0.2,1.8-0.4,2.8c-0.2,1.8-0.5,3.6-0.8,5.5c0,0.1,0,0.3,0.1,0.4c-0.6,0.3-1.3,0.7-1.9,1.1
				c-1.3,0.8-2.6,1.8-3.6,3c0,0,0,0.1,0,0c2.1-1.9,4.7-3.2,7.3-4.4c1.3-0.6,2.6-1.2,3.9-2c1.3-0.8,2.6-1.6,3.8-2.5
				c1.4-1.1,2.7-2.2,3.9-3.4c0.1-0.1,0.1-0.3,0-0.4c0,0,0.1,0,0.1-0.1c0-0.8,0.3-1.5,0.7-2.1c0.4-0.6,1-1.1,1.5-1.7
				c0.2-0.2,0.4-0.5,0.6-0.8c0.2-0.3,0.3-0.6,0.5-0.9c0.2-0.3,0.4-0.2,0.5,0.1c0.1,0.4,0.1,0.8,0.1,1.1c0,0.4-0.2,0.7-0.3,1.1
				c-0.2,0.3-0.3,0.7-0.2,1c0.2,0.6,0.9,1,1.5,1.1c0.6,0.2,1.3,0.1,1.9,0c0.8-0.1,1.6-0.2,2.4-0.4c0.9-0.2,1.8-0.4,2.7-0.6
				c0.4-0.1,0.8-0.3,1.3-0.3c0.2,0,0.4-0.1,0.6,0c-2.3,1.4-4.8,2.3-7.3,3.1c-0.3,0.1-0.2,0.6,0.1,0.5c2.7-0.7,5.3-1.9,7.7-3.3
				c0,0,0.1-0.1,0.1-0.1c0.2-0.1,0.5-0.2,0.8-0.2c0.1,0,0.7-0.2,0.8-0.1c0.1,0.1-0.3,0.4-0.3,0.5c-0.6,0.7-1.4,1.3-2.2,1.8
				c-0.8,0.5-1.7,0.9-2.6,1.2c-1,0.4-2.1,0.7-3,1.2c-0.4,0.2-0.1,0.8,0.3,0.7c0.5-0.2,1-0.4,1.5-0.6c0.4-0.2,0.9-0.4,1.3-0.5
				c0.3-0.1,0.6-0.3,0.9-0.4c-0.4,0.4-0.9,0.8-1.3,1.2c-0.8,0.7-1.5,1.5-2.4,2c-0.9,0.5-2,0.6-3,0.5c-0.5,0-1,0-1.5,0
				c-0.5,0-1,0.1-1.5,0.3c0,0,0,0,0,0c0,0,0,0-0.1,0c-1.4,0.8-2.7,1.9-3.9,3c-1.3,1.1-2.5,2.3-3.6,3.5c-1.1,1.2-2.2,2.4-3.3,3.4
				c-1.1,1.1-2.4,2-3.7,2.9c-0.7,0.5-1.4,0.9-2.2,1.4C19.8,76.8,19.4,77,19,77.1 M19.1,45.4c0.5-0.6,1-1.1,1.6-1.6
				c0.3,0.1,0.5,0.1,0.8,0.1c0.4,0,0.8,0,1.2,0c0.8,0,1.6,0,2.3,0c1.6,0,3.2,0,4.8,0c0.2,0,0.4-0.1,0.5-0.2c0.3,0.4,0.7,0.7,1,1.1
				c0.5,0.6,1.1,1.1,1.7,1.6c-0.1,0-0.2,0-0.4,0c-0.6,0-1.1,0-1.7,0c-1.1,0-2.2,0-3.3,0c-2.2,0-4.4,0-6.6,0.1c-0.6,0-1.2,0-1.8,0.1
				c-0.3,0-0.7,0.1-1,0.1c-0.1,0-0.1,0-0.2,0C18.4,46.2,18.7,45.8,19.1,45.4 M27.9,40.4C27.9,40.4,27.9,40.4,27.9,40.4
				c-0.1,0.1-0.1,0.1,0,0.1c0.1,0,0.1,0,0.2,0c0.2,0.2,0.3,0.5,0.4,0.7c0.3,0.4,0.6,0.9,0.9,1.3c0.1,0.1,0.1,0.2,0.2,0.2
				c-1.5,0-3,0-4.5,0.1c-0.8,0-1.6,0.1-2.3,0.1c-0.3,0-0.6,0.1-1,0.1c1.7-1.2,3.5-2.1,5.5-2.8c0,0,0,0,0,0c0,0,0,0.1,0.1,0.1
				C27.5,40.1,27.7,40.1,27.9,40.4 M35.4,54.5c0,0.1-0.1,0.1-0.1,0.2c-0.1-0.1-0.2-0.2-0.4-0.2c-1.9-0.1-3.9-0.1-5.8-0.1
				c-1,0-1.9,0-2.9,0c-0.5,0-1,0.1-1.4,0.1c-0.3,0-0.7,0-1,0.1c-0.8-1.3-1.6-2.6-2.5-3.8c2.1,0.3,4.2,0.2,6.3,0.3
				c2.4,0.1,4.7,0.1,7.1,0.2c0.7,0,1.3,0,2,0c0.3,0,0.7,0,1,0c0.1,0,0.2,0,0.3,0c0,0,0,0,0,0.1c-0.2,0.4-0.4,0.7-0.7,1
				C36.6,53.1,35.9,53.7,35.4,54.5 M32.9,58.6c-0.1-0.2-0.2-0.4-0.5-0.3c-1.6,0.1-3.2,0.1-4.8,0.2c-0.8,0.1-1.6,0.1-2.3,0.2
				c-0.4,0-0.8,0.1-1.2,0.2c-0.3,0-0.6,0.1-0.8,0.2c0.1-0.6,0.1-1.1,0.1-1.7c0-0.5,0-0.9,0-1.4c0-0.2,0-0.5,0-0.7c0,0,0,0,0.1,0
				c0,0,0.1,0,0.1,0c0.4,0.1,0.8,0.2,1.2,0.2c0.5,0,0.9,0.1,1.4,0.1c1,0.1,2,0.1,2.9,0.1c1.9,0.1,3.9,0.1,5.8,0.2
				c-0.1,0.4-0.1,0.8,0,1.2c-0.1,0-0.2,0-0.3,0.1C34,57.5,33.5,58,32.9,58.6 M27.3,62.6c0-0.1-0.1-0.2-0.2-0.3
				c-0.3-0.3-1-0.1-1.4-0.1c-0.5,0-1,0-1.4,0.1c-0.1,0-0.9,0-1.4,0.2c0.1-0.9,0.2-1.7,0.3-2.6c0-0.2,0-0.4,0.1-0.5
				c0.3,0.1,0.5,0.1,0.8,0.1c0.4,0,0.8,0.1,1.2,0.1c0.8,0,1.6,0,2.4,0c1.4,0,2.9-0.1,4.3-0.1C30.4,60.6,28.9,61.6,27.3,62.6
				C27.3,62.6,27.3,62.6,27.3,62.6 M22.7,63.1c0.1,0,0.2,0,0.3,0c0.5,0,0.9,0.1,1.4,0.1c0.5,0,0.9,0,1.4,0c0.1,0,0.2,0,0.3,0
				c-1.2,0.7-2.5,1.3-3.7,1.9C22.5,64.5,22.6,63.8,22.7,63.1 M35.9,48.1c2.8,1.2,6.3,1.3,8.7-0.7c0.2,0.1,0.5,0.1,0.7,0.1
				c0.5,0,0.9,0.1,1.4,0.1c0.9,0,1.8,0.1,2.7,0.1c1.9,0,3.7,0,5.5,0c0.2,0,0.3,0,0.4-0.1c0.2,0.3,0.4,0.6,0.5,1
				c0.2,0.5,0.4,1,0.6,1.5c0,0-0.1,0-0.1,0c-2.4,0-4.9,0-7.3,0c-2.4,0-4.9,0-7.3,0c-0.7,0-1.3,0-2,0.1c-0.4,0-0.7,0-1,0.1
				c0,0-0.1,0-0.1,0c-0.5-0.3-1-0.2-1.6-0.2c-0.6,0-1.2,0-1.8,0c-1.2,0-2.4,0-3.6,0c-2.4,0-4.7,0-7.1,0.1c-1.2,0-2.4,0.1-3.5,0.3
				c-0.1-0.1-0.2-0.2-0.2-0.3c-0.8-1-1.8-2.4-3.2-2.7c0.1-0.1,0.1-0.2,0.2-0.3c0.9,0.2,2,0.2,2.9,0.3c1.1,0.1,2.2,0.1,3.3,0.1
				c2.2,0.1,4.4,0.1,6.6,0.1c0.6,0,1.2,0,1.8,0c0.3,0,0.7,0,1,0c0.2,0,0.4,0,0.5-0.1c0.2-0.1,0.3-0.1,0.5-0.2c0.1,0,0.1-0.1,0.1-0.1
				C35,47.7,35.4,47.9,35.9,48.1 M46.7,44.2c0.3,0.1,0.7,0.1,1.1,0.1c0.5,0,1,0,1.4,0c0.8,0,1.5,0,2.3,0c0.3,0,0.5-0.2,0.6-0.5
				c0,0,0,0,0,0c0.9,0.8,1.8,1.7,2.5,2.6c-1.7,0-3.5,0-5.2,0c-0.9,0-1.8,0-2.7,0.1c-0.4,0-0.9,0-1.3,0.1c0,0,0,0,0,0
				c0-0.1,0.1-0.1,0.1-0.2C46,45.9,46.4,45.1,46.7,44.2 M57.9,78.9c0.2-0.4,0.1-0.9,0.1-1.3c0-0.5,0-0.9,0-1.4c0-0.9,0-1.8,0-2.7
				c0-1.8,0-3.6-0.1-5.4c-0.1-3.5-0.4-7.1-0.8-10.6c-0.2-1.7-0.5-3.4-0.8-5.1c0,0,0,0,0,0c0.4-0.5,0.8-0.9,1.1-1.4
				c0,0-0.2,0.1-0.2,0c0,0,0.2-0.1,0.1-0.1c-0.3-0.1-0.2-0.5-0.1-0.5c0,0-0.4-1.3-0.5-1.4c-0.2-0.4-0.4-0.9-0.6-1.3
				c-0.1-0.3-0.3-0.5-0.4-0.8c0-0.2-0.1-0.4-0.3-0.4c-0.3-0.4-0.6-0.8-1-1.2c-1.4-1.6-3.2-2.9-5.1-3.8c-0.3-0.1-0.6-0.2-0.9-0.4
				c-0.3-0.1-0.6-0.3-0.9-0.4c-0.5-0.2-1-0.2-1.4,0c0,0,0,0.1,0,0.1c0.3-0.1,0.6-0.1,0.9,0c0.3,0.1,0.5,0.3,0.8,0.4
				c0.5,0.3,1,0.5,1.5,0.7c0.6,0.3,1.3,0.7,1.9,1.1c-0.6,0-1.2,0.1-1.9,0.1c-0.5,0-0.9,0-1.4,0c-0.3,0-0.7,0-1,0.1
				c0.1-0.5,0.1-1.1,0-1.6l0,0c0-0.1-0.1-0.3-0.1-0.4c-0.1-0.3-0.3-0.3-0.5-0.2c0,0,0,0-0.1,0c-0.2-0.2-0.4-0.4-0.6-0.6
				c-0.3-0.4-0.6-1-0.8-1.5c-0.2-0.5-0.4-1.1-0.5-1.6c-0.1-0.3-0.2-0.5-0.2-0.8c-0.1-0.2-0.1-0.5-0.2-0.7c0,0-0.1,0-0.1,0
				c-0.1,0.3,0,0.6,0,0.9c0,0.3,0,0.6,0.1,0.9c0.1,0.6,0.2,1.3,0.4,1.9c0.2,0.6,0.5,1.1,0.9,1.6c0.3,0.3,0.6,0.8,1,0.9
				c0.1,0.6,0,1.2-0.1,1.8c-0.2,0.8-0.5,1.5-1,2.2c-1,1.3-2.6,2.1-4.3,2.3c-1.7,0.2-3.5-0.2-5.1-1c-1.7-0.8-3.2-2.2-4.5-3.6
				c-0.7-0.8-1.5-1.6-2.2-2.5c-0.1-0.2-0.3-0.5-0.6-0.7c0.2,0,0.5,0,0.7-0.1c0.4-0.1,0.9-0.1,1.3-0.2c0.8-0.2,1.6-0.5,2.3-0.9
				c1.5-0.9,2-2.1,2.2-3.8c0.1-0.5-0.8-0.6-0.9-0.1c-0.1,0.8-0.3,1.2-0.6,1.9c-0.2,0.7-0.6,1-1.3,1.4c-0.6,0.4-1.4,0.6-2.1,0.8
				c-0.4,0.1-0.8,0.2-1.2,0.4c-0.2,0.1-0.5,0.1-0.8,0.3C28,40.1,27.9,40,27.7,40c0,0,0,0,0,0c0,0-0.1,0-0.1,0c0,0-0.1,0-0.1,0
				c-2.4,0.5-4.8,1.6-6.8,3.2c-0.1,0-0.2,0.1-0.3,0.2c0,0-0.1,0.1-0.1,0.1c-0.3,0.2-0.6,0.5-0.9,0.8c-2.3,2.1-3.7,4.9-4.7,7.8
				c-1,2.8-1.7,5.8-2,8.8c-0.4,3-0.4,6.1,0.1,9.2c0.3,1.6,0.8,3.2,1.5,4.7c0.6,1.3,1.6,2.9,3.2,3c0,0,0,0,0,0
				c0.6,0.5,1.6,0.2,2.2-0.1c0.1,0,0.2-0.1,0.3-0.2c-0.1,0.2-0.1,0.4-0.1,0.6c0,0.4,0.6,0.4,0.7,0.1c1,0.2,2,0.2,3,0.2
				c1.1,0,2.2,0,3.3-0.1c2.2-0.1,4.3-0.3,6.5-0.3c4.4-0.1,8.8,0.2,13.2,0.3c1.2,0,2.5,0.1,3.7,0.1c1.3,0,2.5,0.1,3.8,0.2
				c0.5,0.1,0.6-0.4,0.5-0.7c0-0.2,0-0.4,0-0.6c0-0.4-0.1-0.8-0.1-1.2c-0.1-0.8-0.1-1.6-0.2-2.4c-0.1-1.6-0.2-3.3-0.3-4.9
				c-0.2-3.3-0.3-6.5-0.4-9.8c0-0.8-0.1-1.6-0.1-2.4c0-0.1,0.1-0.2,0.1-0.2c0.2-0.3,0.3-0.5,0.5-0.8c0.3-0.5,0.6-1,0.9-1.5
				c0.3-0.4,0.6-0.9,0.9-1.3c0.4,3.2,0.7,6.4,0.9,9.6c0.2,3.5,0.3,7.1,0.3,10.6c0,1,0,2,0,3c0,0.5,0,1,0,1.5c0,0.5-0.1,1,0.1,1.5
				C57.5,79.2,57.8,79.2,57.9,78.9z"/>
			<path class="st1" d="M32.2,38.3c0,0.2,0.9,1.1,0.9,1.1s-2.8,2-2.9,2.1s-0.8-1.4-0.8-1.4s0.1-1.2-0.1-1.2
				C29.2,39,32.2,38.2,32.2,38.3z"/>
			<path class="st1" d="M44.8,38.5l-0.7,1.2l1.8,4.5l1.5-2.2l0.5-1.5L44.8,38.5z"/>
			<path class="st1" d="M13.1,57c0,0,2.3-1.7,6.4-0.7s3.3,1,3.3,0.9c-0.1-0.6,0.4-1.6,0.4-1.6s3.5-5.3,1.3-14.2
				C24.1,39.5,12.6,50.3,13.1,57z"/>
			<path class="st1" d="M51,42.9c0,0-1.4,8.7,2.4,13.6c0.4,0.5,0.2,0.6,0.2,0.6s2.9-1.7,4.2-1C58.3,56.4,57.3,47,51,42.9z"/>
			<path class="st2" d="M31.6,37.5c-0.7-0.2,1.8,2,2.1,2.3c1.7,1.5,3.7,2.6,5.8,3.5"/>
			<path class="st2" d="M33.7,36c0.2-0.3-0.9-0.2-0.9-0.2c-1,0.1-2,0.5-2.8,1c-1.3,0.7-0.8,3-0.3,4c1.1,2.3,3.4,4.3,5.8,5.2
				c2.3,0.8,3.7,0.5,4.1-2"/>
			<path class="st2" d="M44.8,37.7c0.2,0.3-0.4,1.5-0.5,1.7c-0.9,1.7-2.2,3.2-3.9,4.3"/>
			<path class="st2" d="M44.3,36.5c0,0.2,0.2-0.2,0.4-0.3c0.3-0.1,0.6,0.2,0.8,0.3c0.9,0.6,2.8,2.2,2.5,3.5
				c-0.5,2.2-1.8,4.4-3.7,5.5c-1.5,0.8-3.4,0.8-4.2-0.9"/>
			<path class="st2" d="M38.9,45.9c-0.1-0.2,0,0.7,0,0.7c0,0.6,0,1.1,0.1,1.7"/>
			<path class="st2" d="M40,47.4c0-0.1,0.2,0.2,0.3,0.2c0.3-0.2-0.1-0.6-0.4-0.5c-0.3,0.2,0.1,0.7,0.4,0.4"/>
			<path class="st2" d="M24.5,41.3c-0.1,0.3,0.2,0.7,0.3,1c0.3,1.3,0.4,2.7,0.4,4.1c0.2,3.1-0.3,6.2-1.6,9"/>
			<path class="st2" d="M50.8,42.9c-0.4-0.6-0.3,4-0.3,4.4c0.1,1.7,1.4,8,2.9,9.1"/>
			<path class="st2" d="M24.1,41.5c0-0.2-0.3,0.1-0.5,0.2c-0.4,0.2-0.8,0.5-1.2,0.8c-0.1,0-0.1,0.1-0.2,0.1
				c-1.2,0.8-2.2,1.6-3.2,2.7c-2.8,3.1-5.2,6.7-6.1,10.8"/>
			<path class="st2" d="M13.1,57c-0.3-0.1,0.4-0.6,0.5-0.6c0.7-0.3,1.6-0.3,2.4-0.4c1.9-0.1,3.9,0.2,5.7,0.8
				c0.4,0.1,1.4,0.3,1.6,0.7"/>
			<path class="st2" d="M55.9,48c0,0-0.1-0.1-0.1-0.1c-0.1-0.1,0.1,0.2,0.2,0.3c0.1,0.2,0.2,0.4,0.3,0.6c0.2,0.5,0.4,1,0.6,1.6
				c0.6,1.7,0.7,3.6,0.9,5.5"/>
			<path class="st2" d="M57.9,56.3C57.9,56.3,57.9,56.3,57.9,56.3c-0.1-0.2-0.2-0.2-0.4-0.3c-0.3-0.1-0.7-0.1-1-0.1
				c-1.1,0.1-2.4,0.6-3.1,1.4"/>
		</g>
	</g>
	<g transform="matrix(0.376866,0,0,0.334435,-5.62707,3.5542)">
		<path class="st0" d="M151,33.4C151,33.4,151.1,33.4,151,33.4c0,0.2,0.2,0.5,0.1,0.4c0-0.1,0.2,0.1,0.4,0.1c0.2,0,0.3,0.1,0.5,0
			c0.4,0,0.8-0.2,1.3-0.2c1.9-0.3,4.6-0.4,7.7-0.5c7.1-0.2,15.6-0.2,18.1-0.2c3.4,0.1,20.7-0.9,33.6-1.1c4.7-0.1,8.8-0.1,11.4,0.2
			c1,0.1,2.1,0.3,2.2,0.4c0.1,0.1,0.2,0.3,0.3,0.6c0.3,0.7,0.5,1.8,0.8,3c0.8,4.3,1.4,11.4,1.8,19.5c0.9,17.5,1,40.1,1.1,51.9
			c0,1.8-0.1,3.4,0,4.6c0,0.4,0.1,0.8,0.1,1.2c0,0.6,0.5,1.2,1,1.2c0.6,0,1-0.5,1-1.2c0.1-0.3,0.1-0.7,0.1-1.2c0.1-1.2,0-2.8,0-4.6
			c0.1-11.8-0.1-34.5-0.9-52.1c-0.4-8.3-1-15.5-1.9-19.9c-0.6-2.9-1.4-4.8-2.1-5.4c-0.2-0.2-0.7-0.5-1.4-0.6
			c-1.6-0.3-4.8-0.5-8.9-0.5c-12.9,0-34.4,1.4-38.3,1.3c-2.6-0.1-11.4-0.1-18.6,0.3c-1.7,0.1-3.3,0.2-4.7,0.4
			c-1.8,0.2-3.3,0.3-4.3,0.7c-0.2,0.1-0.3,0.1-0.5,0.2c-0.4,0.2-0.6,0.4-0.8,0.6c-0.3,0.5-0.5,0.7-0.3,1c0.1,0.1,0,0.2,0.1,0.3
			c0.1,0.2,0.3,0.3,0.5,0.2C151,33.8,151.1,33.6,151,33.4z"/>
	</g>
	<g transform="matrix(0.446843,0,0,0.401926,-345.213,-70.2838)">
		<path class="st0" d="M886.2,279.2C886.1,279.2,886.1,279.2,886.2,279.2c-0.2-0.2-0.4-0.2-0.5,0c-0.1,0-0.1,0.2-0.1,0.2
			c-0.2,0.2,0,0.7,0.8,1.1c0.2,0.1,0.4,0.1,0.7,0.1c1.8,0.1,5-0.2,5.7-0.2l15.5,0.1c4.6,0,9.3-0.1,13.9-0.2c7-0.2,13.9-0.5,20.8-0.9
			c2.7-0.1,5.6-0.8,8.4-1c0.8-0.1,1.6,0,2.4-0.1c0.3,0,0.7-0.1,1-0.1c0.4,0.1,0.8-0.3,0.8-0.7s-0.2-0.9-0.6-0.9
			c-0.4-0.1-0.7-0.2-1.1-0.3c-0.9-0.1-1.7,0-2.6,0c-2.8,0.2-5.7,0.9-8.3,1c-6.9,0.3-13.9,0.7-20.8,0.9c-4.6,0.1-9.2,0.2-13.9,0.2
			l-15.5,0.1c-0.7,0-3.9,0.3-5.7,0.4c-0.2,0-0.4,0-0.6,0C886.3,279,886.1,279.3,886.2,279.2C886.2,279.1,886.2,279.2,886.2,279.2z
			 M886.2,279.3c0,0.1,0,0.2,0,0.4c0,0,0.1,0,0,0C886.2,279.5,886.3,279.3,886.2,279.3L886.2,279.3z"/>
	</g>
	<g transform="matrix(0.152794,0,0,0.197638,1461.89,20.518)">
		<g transform="matrix(1.44349,0,0,0.862685,-4986.93,408.649)">
			<path class="st0" d="M-2930.9-479.7c0.1,0,0.1-0.1,0.2-0.1c0.2,0.1,0.8,0.7,0.1-0.9c0-0.2-0.1-0.3-0.2-0.4
				c-0.2-0.3-0.4-0.8-0.7-1.3c-0.1-0.2-0.1-0.2-0.3-0.3c-0.6-0.3-1.7,0.1-2.8,0.4c-1.6,0.4-3.4,1.2-4.4,2.6
				c-0.2,0.4-0.6,0.8-0.6,1.2c0,0.4-0.1,0.4,0.1,0.8c-0.3,0.9,0.1,2,0.8,2.3c0.7,0.4,1.5-0.1,1.8-1c0.1-0.1,0.3,0.2,0.4,0
				c0.2-0.2,0.4-0.4,0.6-0.6c1.3-0.9,3.1-0.9,4.1-1.3c0.2-0.1,0.2-0.2,0.3-0.3C-2931.3-479-2931.1-479.4-2930.9-479.7z"/>
		</g>
		<g transform="matrix(1.44349,0,0,0.862685,-4986.93,408.649)">
			<path class="st0" d="M-2937.8-464.8c0-0.5-0.3-0.8-0.6-0.8c-0.4,0-0.7,0.4-0.7,0.8c-0.1,0.2,0,0.4-0.1,0.5
				c-0.4,0.5,0.1,0-0.2,0.5c-0.1,0.1,0.1,0.1,0,0.2c0,0.1,0.1,0.1,0.1,0.3c0,0.2,0.1,0.2,0.2,0.4c0,0.2,0.2,0.2,0.3,0.4
				c0.2,0.3,0.5,0.3,0.9,0.4c0.6,0.2,1.5,0.2,2.4,0.2c0.5,0,0.9-0.1,1.3,0c0.6,0.2,0.9,0.7,1.1,1.3c0.4,1,0.6,2.1,0.7,3.2
				c0.1,0.4-0.1,0.8-0.3,1.2c-0.4,0.9-1.1,1.8-1.9,2.4c-1,0.8-2.1,1.2-3.1,1c-0.2,0-0.3,0-0.5,0c-0.1,0-0.1,0.2-0.2,0.2
				c-0.8-0.6-1.8-0.4-2.2,0.6s-0.3,2.3,0.5,2.9c0.1,0.3,0.1,0.4,0.3,0.7c0.3,0.5,0.8,0.5,1.2,0.7c1.9,0.8,4.3-0.1,6.2-1.7
				c2.7-2.3,4.4-6.1,3.9-9.1c-0.3-1.8-0.7-3.9-1.7-5.5c-0.7-1.2-1.7-2.2-3.1-2.7c-0.6-0.2-1.3-0.3-2.1-0.1c-0.7,0.2-1.4,0.5-2,0.7
				c-0.1,0-0.3,0.2-0.3,0.1c-0.1-0.4,0,0.8,0.3,0.8c0.3,0.1-0.5,0.2-0.2,0.2C-2937.5-464.8-2937.8-464.8-2937.8-464.8z"/>
		</g>
		<g transform="matrix(1.44349,0,0,0.862685,-4986.93,408.649)">
			<path class="st0" d="M-2927.6-481.6c-0.2-0.1-0.8-0.1-0.4,0.9c-0.5,1.4,0.2,1.1,0.4,0.9h0c0.1,0.2,0.2,0.3,0.3,0.5
				c0.1,0.2,0.1,0.4,0.5,0.6c0.5,0.3,1.5,0.2,2.4,0.3c1.4,0.1,2.9,0.1,3.5,0.1c0.1,0,1.6-0.3,1.8,0.1c0.1,0.1,0.1-0.2,0-0.1
				c-0.1,0.2-0.1-0.3-0.1-0.2c-0.2,0.4-0.1-0.4-0.3-0.2c-0.1,0.1,0-0.1-0.1-0.1c-0.3,0.3,0-0.4-0.3-0.3c-0.1,0.1,0-0.2-0.1-0.2
				c-0.1,0.1,0-0.2-0.1-0.2c-0.3,0.1,0.1-0.4-0.1-0.4c-0.1,0,0.1-0.1,0-0.1c-0.1,0,0.1-0.2,0-0.2c-0.4-0.1,0.3-0.3,0-0.5
				c-0.2-0.1,0.3-0.2,0.1-0.4c-0.1-0.1,0.1-0.1,0-0.1c-0.1-0.1,0.1,0,0.1-0.2c-0.2-0.3,0.4,0,0.2-0.4c-0.1-0.2,0.2,0,0.1-0.2
				c-0.1-0.3,0.3,0.1,0.2-0.2c0-0.1,0.1,0.1,0.1-0.1c0-0.2,0.2,0.2,0.2-0.1c0-0.2,0.1,0.2,0.1,0c0-0.2,0.1,0.4,0.2,0
				c0-0.1,0,0.1,0,0.3c-0.7,0-1.2,0.7-1.2,1.6c0,0.9,0.6,1.6,1.2,1.6c0.2,0.6,0.2,0.1,0.3,0.3c0.1,0.3,0.1-0.1,0.2,0
				c0.1,0.1,0.1-0.1,0.1,0c0.2,0.3,0.1-0.3,0.2-0.1c0.2,0.2,0-0.3,0.2-0.1c0.1,0.1,0-0.2,0.1-0.1c0.1,0.1,0-0.2,0.1-0.1
				c0.3,0.2-0.1-0.4,0.2-0.4c0.1,0-0.1-0.1,0.1-0.1c0.4,0-0.3-0.5,0.1-0.6c0.2-0.1-0.2-0.2,0-0.3c0.3-0.1-0.3-0.2,0-0.4
				c0.1-0.1-0.1-0.1,0-0.1c0.2-0.2-0.3-0.1-0.1-0.4c0.1-0.1-0.1,0-0.1-0.1c0.1-0.2-0.2,0-0.1-0.2c0.1-0.3-0.3,0.1-0.2-0.3
				c0-0.1-0.1,0-0.1-0.1c0.1-0.2-0.2,0.2-0.2-0.2c0-0.2-0.2,0.2-0.2-0.1c0-0.1-0.1,0.1-0.1-0.1c0-0.2,0.1,0.1-0.3-0.4
				c-0.3-0.4-1.8-0.3-2-0.3c-0.7,0-2.3-0.1-3.8,0c-1,0.1-1.9,0-2.4,0.4c-0.3,0.2-0.4,0.4-0.5,0.6L-2927.6-481.6z"/>
		</g>
		<g transform="matrix(1.44349,0,0,0.862685,-4986.93,408.649)">
			<path class="st0" d="M-2924.9-479.2c0.2-0.1,0.4-0.4,0.4-0.8c0-0.5-0.3-0.9-0.6-0.9c-0.2-0.4-0.2,0.2-0.6,0.1
				c-0.1-0.1-0.1,0.2-0.3,0.2c-0.3,0-0.2,0.1-0.5,0.5c-0.2,0.2-0.2,0.6-0.3,1c-0.2,0.9-0.2,2.1-0.2,3.5c0,3,0.4,6.7,0.4,7.6
				c0.2,3.5-0.1,7.1,0,10.7c0.1,1.7,0.2,3.3,0.4,4.9c0.4,2.6,1.6,3.5,3.1,3.8c0.6,0.1,1.4,0.2,2.3,0.1c1.2-0.2,2.5-0.9,3.9-0.9
				c0.9,0,1.6-0.9,1.6-2.1s-0.7-2.1-1.6-2.1c-1.4-0.1-2.7,0.1-3.9,0.4c-0.7,0.2-1.4,0.5-1.9,0.5c-0.2,0-0.3-0.2-0.4-0.5
				c-0.2-1.4-0.3-2.8-0.4-4.2c-0.1-3.6,0.1-7.3,0-10.8c0-0.9-0.3-4.6-0.5-7.6c-0.1-1.2-0.2-2.3-0.2-3c0-0.2-0.1-0.4,0-0.4
				c0.1,0-0.2-0.2-0.2-0.1c0.1,0.1-0.2-0.1-0.2,0C-2924.4-478.9-2924.7-479.2-2924.9-479.2z M-2925-479.2
				C-2925-479.2-2925-479.2-2925-479.2l-0.1,0C-2925.1-479.1-2925-479-2925-479.2C-2925-479.1-2925-479.2-2925-479.2L-2925-479.2z"
				/>
		</g>
		<g transform="matrix(1.44349,0,0,0.862685,-4986.93,408.649)">
			<path class="st0" d="M-2923.3-465.5c-0.1,0-0.3,0-0.4,0c-0.2,0.1-0.3,0.3-0.4,0.3c-0.3,0.2-0.8,0.4,1,2.3
				c0.2,0.2,0.5,0.3,0.9,0.4c0.7,0.2,1.8,0.2,2.7,0.1c1.1-0.1,2.1-0.6,2.6-0.7c0.8,0,1.4-0.9,1.4-2c0-1-0.7-1.8-1.5-1.8
				c-0.5-0.1-1.7-0.3-3-0.3c-0.7,0-1.4,0.1-2,0.3c-0.4,0.1-0.6,0.2-0.8,0.4C-2923.5-466-2923.6-465.9-2923.3-465.5L-2923.3-465.5z
				 M-2922.8-464.6L-2922.8-464.6L-2922.8-464.6L-2922.8-464.6z M-2922.8-464.6L-2922.8-464.6L-2922.8-464.6L-2922.8-464.6z"/>
		</g>
		<g transform="matrix(1.44349,0,0,0.862685,-4986.93,408.649)">
			<path class="st0" d="M-2912.5-451.5L-2912.5-451.5l0.2,0.5c0,0-0.1,0-0.1-0.1L-2912.5-451.5L-2912.5-451.5
				C-2912.6-451.6-2912.6-451.5-2912.5-451.5l0.1,0.9c0,0.7,0.4,1.4,1,1.5c0.1,0,0.1,0,0.2,0l0,0l0,0c0.5,0,0.9-0.4,1.1-1
				c0,0-0.1-0.1-0.1-0.2l0.2-0.3c0,0,0.1-0.6,0.1-1.4c0-0.7,0-1.5-0.1-2.1l-1.3-16.5l-0.1-2.9c0.2,0.5,0.5,1,0.7,1.6
				c1.8,4.3,3.3,9,5,12.5c0.7,1.4,1.2,3,1.9,4.5c0.3,0.7,0.7,1.4,1.1,2.1c0.4,0.7,0.8,2.4,1.2,3c0.4,0.7,0.9,1,1.2,1.1
				c0.7,0.2,1.6,0.2,2.3-1.3c0.6-1.4,0.9-3.5,0.7-5.8c-0.2-3.8-1.3-8.4-1.6-10.8l-1.5-10.9c-0.1-1.1-0.9-1.9-1.7-1.8
				c-0.9,0.1-1.5,1.1-1.4,2.2l1.2,11c0.1,1.6,0.7,4.3,1,7.1l-1.3-3c-1.9-4-3.6-9.7-5.9-14.4c-0.8-1.6-1.6-3-2.4-4.2
				c-0.3-0.4-0.5-0.7-0.8-1c-0.2-0.2-0.4-0.3-0.7-0.5c-1.1-0.8-1.7-0.5-2-0.2c-0.2,0.3-0.5,0.6-0.6,1.2c-0.1,0.3-0.1,0.9,0.1,1.7
				c0.2,0.8,0.6,2,0.6,2.6l0.3,6.4l1.4,16.5L-2912.5-451.5z"/>
		</g>
		<g transform="matrix(1.44349,0,0,0.862685,-4986.93,408.649)">
			<path class="st0" d="M-2897.1-477.9c0,0.1,0.1,0.4-0.1,0.2c-0.1,0,0,0.2,0,0.1c-0.1-0.1-0.1,0.4,0,0.2c0.2-0.2-0.1,0.3,0.2,0.6
				c0.1,0.1,0.2,0.1,0.4,0.2c0.9,0.2,2.3,0.2,3.9,0.3c0.7,0,1.4,0,2.1,0.1c0,0.7,0.1,1.5,0.1,2.4c0.4,5.6,0.2,11.5,0.6,17.3
				c0.1,2.1,0.3,4.2,0.7,6.2c0.1,0.3,0.1,0.6,0.2,0.9c0.1,0.3,0.2,0.3,0.4,0.5c0.2,1,0.9,1.6,1.7,1.4c0.8-0.2,1.2-1.2,1.1-2.2
				c0.1-0.3,0.2-0.5,0.2-0.8c0-0.5-0.1-1.1-0.1-1.6c-0.7-7.3-0.4-15-1-22.2c-0.1-0.8-0.2-1.5-0.3-2.1l0-0.1c0.5-0.1,0.9-0.3,1.2-0.5
				c0.4-0.3,0.6-0.5,0.9-0.9c0.4-0.4,0.7-0.6,0.8-0.7c0.4-1.2,0.6-1.9,0.1-2.3c-0.1-0.1-0.6-1.2-1.4-0.8c-0.2,0.1-0.5,0.3-0.8,0.5
				c0-0.1,0.1-0.1,0.1-0.2c0,0,0-0.2,0.1-0.2c-0.2,0-0.2-0.4-0.5-0.4c-0.6-0.1-1.4,0.2-2.4,0.3c-1.2,0.1-2.5,0-3.8,0.1
				c-1.5,0.1-3,0.2-3.9,0.5c-0.4,0.1-0.7,0.1-0.8,0.3c-1.2,1.5-1,1.1-0.8,1.6c-0.2,0.4-0.1,0.9,0.1,1.2
				C-2897.7-477.6-2897.3-477.6-2897.1-477.9z M-2886-478.3c0.1,0.1,0.2,0.2,0.4,0.3c0.1,0,0.3,0,0.3,0S-2885.7-478.2-2886-478.3z"
				/>
		</g>
		<g transform="matrix(1.44349,0,0,0.862685,-4986.93,408.649)">
			<path class="st0" d="M-2881-448c0,0,0.1-0.1,0.1-0.2c0.3-0.9,0.9-3.2,0.9-3.3l2.2-9.1l0.4-1.7l0.4-1.6l0.3-1.6l0.3-1.5
				c0.1-0.4,0.3-3.7,1-6.9c0.2-1,0.8-1.9,1.1-2.6c0.1,0.5,0.2,1.1,0.4,1.6c1.4,5.3,3,14.1,4.6,20.5c0.6,2.5,0.9,4.8,1.8,6
				c0.1,0.1,0.2,0.3,0.3,0.3c0.4,0.1,0.1,0,0.5,0c0.3,0.7,0.9,0.9,1.4,0.5s0.7-1.2,0.4-1.9c0.1-0.4,0.3-0.2,0.3-0.7
				c0-0.6-0.3-1.1-0.5-1.8c-1.6-5.8-3.1-16.7-4.8-23.3c-0.7-2.6-1.4-4.6-2.1-5.6c-0.8-1.1-1.6-1.6-2.3-1.5c-1.1,0.1-2.2,1-3,3
				c-1.4,3.5-2.1,10.8-2.2,11.3l-0.3,1.4l-0.3,1.6l-0.4,1.6l-0.4,1.6l-2.1,9.1c0,0.1-0.6,2.5-0.7,3.5c0,0.2,0,0.4,0,0.5
				c0,0.2,0,0.3,0,0.4c0.1,0.4,0.1,0.7,0.1,0.9c0.5,0.6,0.7,1.1,1.2,0.9c0.4-0.2,1.1-0.2,1.3-1.1C-2881-447.8-2881-447.9-2881-448z
				 M-2882.5-450.1c-0.1,0.1-0.2,0.2-0.4,0.2c-0.1,0-0.1,0.3-0.1,0.3S-2882.7-449.8-2882.5-450.1z M-2874.6-477.8
				c-0.1-0.2-0.2-0.3-0.3-0.2C-2875.1-477.8-2874.9-477.8-2874.6-477.8z"/>
		</g>
		<g transform="matrix(1.44349,0,0,0.862685,-4986.93,408.649)">
			<path class="st0" d="M-2877.5-460.6c-0.1,0.2,0,0.4-0.3,0.3c-0.1,0-0.1,0.1-0.2,0.1c0,0.1,0,0.3,0.1,0.4c0.4,0.1,0.9,0.3,1.4,0.4
				c1.9,0.4,4,0.4,6,0.2c1-0.1,2.1-0.2,2.9-0.9c0.2-0.2,0.4-0.5,0.6-0.8c0.7-0.5,1-1.8,0.6-2.7s-1.4-1.3-2.1-0.7
				c-0.1,0-0.2-0.1-0.4-0.1c-0.1,0-0.2,0.1-0.3,0.1c-0.8,0.4-1.7,0.6-2.6,0.7c-1.6,0.2-3.2,0-4.7,0.1c-0.5,0-0.9,0.2-1.3,0.3
				c-0.4,0.4-0.5,0.3-0.6,0.5c-0.1,0.3-0.3,0.1-0.3,0.2c0,0.3-0.3,0.2-0.3,0.4c0,0.1-0.1,0.1-0.1,0.3c0.1,0.3-0.3,0.6,0,0.8
				c0.1,0,0,0.2,0.1,0.2c0.1,0,0,0.2,0.1,0.2c0.1,0,0.1,0.4,0.4,0.3C-2878.3-460.4-2877.8-460.5-2877.5-460.6z M-2877.9-460.1
				C-2878-460.1-2878-460.1-2877.9-460.1C-2877.9-460.2-2877.9-460.2-2877.9-460.1z M-2877.3-461.9c0-0.1-0.2-0.1-0.2-0.3
				c0-0.1-0.2-0.2-0.2-0.2s-0.1,0.1-0.1,0.2c0.1,0.1,0.2,0.1,0.2,0.1C-2877.6-462.1-2877.4-462-2877.3-461.9L-2877.3-461.9z"/>
		</g>
		<g transform="matrix(1.44349,0,0,0.862685,-4986.93,408.649)">
			<path class="st0" d="M-2858.4-482.2l0.4,0l0.1,0c0,0.1,0,0.1,0.1,0.2c0,0-0.1,0-0.2,0c-0.1,0-0.3,0.1-0.5,0.1l0.1-0.2
				C-2858.4-482.1-2858.4-482.1-2858.4-482.2L-2858.4-482.2L-2858.4-482.2c-0.9,0-1.5,0.2-2,0.6c-1.1,0.1-2.3,0.3-3,0.6
				c-0.1,0.1-0.2,0.1-0.2,0.2c-0.7,1.2-0.2,0.9-0.3,1.1c-0.4,0-0.7,0.4-0.7,0.9s0.3,0.9,0.7,0.9c0.1,0.3-0.4-0.1,0.5,1
				c0.1,0.1,0.1,0.1,0.3,0.2c0.3,0.1,0.7,0.1,1.2,0.1c0.1,1.4,0.3,2.9,0.3,3.8c0.1,4.9,1.1,10.9,1.3,16.5c0.1,1.7,0.1,3.4,0,4.9
				c-0.9,0.1-1.6,1.1-1.6,2.3c0,1.2,0.7,2.3,1.6,2.4c0,0,0.1,0,0.3,0l0,0c0,0,3.2,0.4,5.6,0c0.4-0.1,0.7-0.2,0.9-0.4
				c0.2-0.2,0.2-0.3,0.4-0.5c0.7,0,1.3-0.8,1.3-1.7s-0.6-1.7-1.3-1.7c-0.2-0.2-0.2-0.3-0.4-0.5c-0.3-0.2-0.6-0.3-1-0.4
				c-0.6-0.1-1.3-0.1-1.9-0.1c0.1-1.5,0.2-3,0.1-4.6c-0.1-5.6-1.2-11.6-1.3-16.4c0-0.7-0.2-1.9-0.4-3.1c0-0.2-0.1-0.6-0.2-0.9
				l0.7-0.1c0.5-0.1,0.8-0.2,0.9-0.3c1.1-0.7,1.1-1.9,1.1-2.5c0-0.6-0.2-1.4-1.1-2c-0.1-0.1-0.5-0.2-1.3-0.3
				C-2858.1-482.6-2858.2-482.5-2858.4-482.2z M-2858.1-477.4c0.1-0.1,0.1-0.2,0-0.2C-2858.2-477.7-2858.2-477.6-2858.1-477.4
				L-2858.1-477.4L-2858.1-477.4z"/>
		</g>
		<g transform="matrix(1.44349,0,0,0.862685,-4986.93,408.649)">
			<path class="st0" d="M-2846.2-449.2c0,0.2,0.1,0.5,0.2,0.7c0,0.6,0.2,0.8,0.5,1.4c0.1,0.1,0.2,0.2,0.3,0.3c0.6,0.6,1.3,0.6,2,0.4
				c6.2-1.9,8.8-10.5,8.4-19.3c-0.2-5.7-1.6-11.3-3.6-14.9c-1.4-2.5-3.2-4.1-5.1-4.4c-4-0.6-6.1,1.6-7.2,5.1c-1.9,6.3,0.5,18,1.1,21
				c0.1,0.3,1.2,6,2,8.1c0.1,0.4,0.3,0.6,0.4,0.8c0,0.1,0.1,0.1,0.1,0.1C-2846.8-449.4-2846.4-449.2-2846.2-449.2z M-2843.8-450.7
				c0-0.1,0.5-0.4,0.4-0.5c-0.2,0-0.4-0.2-0.6-0.1c4.4-1.3,5.7-7.8,5.4-14.1c-0.2-4.7-1.2-9.4-2.8-12.3c-0.7-1.4-1.5-2.4-2.5-2.6
				c-2.6-0.5-3.6,1.6-4,4.4c-0.8,5.8,0.8,13.8,1.2,16.1c0.1,0.3,1.3,5.8,1.6,8.1c0,0.1,0,0.3,0,0.4
				C-2844.7-451.5-2844.1-451.3-2843.8-450.7z M-2846.9-450.9c0,0.1,0,0.2,0,0.2L-2846.9-450.9z M-2845.2-451.2c0,0.1,0,0.2,0,0.2
				C-2844.8-450.9-2844.9-451-2845.2-451.2z M-2845.4-451.2L-2845.4-451.2L-2845.4-451.2L-2845.4-451.2L-2845.4-451.2L-2845.4-451.2
				z"/>
		</g>
		<g transform="matrix(1.44349,0,0,0.862685,-4986.93,408.649)">
			<path class="st0" d="M-2820.4-459.4c-0.3-0.7-0.6-1.4-0.9-2c-1.6-3.5-3.4-6.9-5.1-10.4l-2.1-4.6c-0.1-0.2-0.4-0.5-0.7-0.8
				c0-0.4-0.1-0.8-0.2-1.1c-0.3-1.2-1-1.9-2.2-2c-1.2-0.2-1.6,0.8-2,1.4c-0.3,0.6-0.3,1.5-0.1,2.6c0.1,0.2,0.2,0.6,0.4,0.9
				c0,0.2,0,0.5-0.1,0.6v17.7c0,0.5,0,4.5,0.3,6.3c0,0.3,0.2,0.6,0.2,0.6s0.2-0.2,0.2-0.3c0-0.2,0.2-0.3,0.3-0.4
				c-0.2,0.2-0.3,0.6-0.3,0.9c-0.1,0.1-0.2,0.1-0.2,0.1l0,0.1c-0.4,0.7,0.4,1.1,0.4,1.2c0.3,0.6,0.7,0.1,1.2,0
				c0.2-0.1,0.3-0.4,0.6-1c0.1-0.3,0.3-0.9,0.5-1.7c0.3-2,0.1-5.4,0.1-5.8l0.3-10.5c1.4,3.1,3,6.1,4.4,9.1c0.7,1.5,1.4,2.9,2,4.4
				c0.5,1.2,1,2.4,1.6,3.6c0.4,0.9,0.8,1.7,1.3,2.5c0.3,0.6,0.8,2.2,1,2.5c1.2,2.1,2.6,1.3,3.2,0.6c0.2-0.2,0.8-0.9,0.8-2.3
				c0-2.3-0.1-4.7-0.3-7c-0.6-8-1.7-16-2.1-24c0-0.7,0.1-1.4-0.1-2.1c-0.1-0.2-0.1-0.3-0.2-0.5c0-1.3-0.8-2.4-1.8-2.4
				c-1,0-1.8,1-1.8,2.4c-0.1,0.2-0.2,0.2-0.2,0.4c-0.1,0.3-0.1,0.7-0.1,1c0,1.9,0.1,3.7,0.3,5.6
				C-2821.4-468.9-2820.9-464.2-2820.4-459.4z M-2832.1-450.8L-2832.1-450.8c0.4-0.2,0.8,0.1,0.9,0.6c0.2,0.1,0.3,0.2,0.4,0
				c0.1-0.1-0.1-0.3-0.1-0.3C-2831.5-450.8-2831.8-451.2-2832.1-450.8L-2832.1-450.8z M-2829.8-477.9c-0.2-0.3-0.3-0.5-0.1-0.7
				c0.1-0.1,0,0.3,0.1,0.4C-2829.8-478.1-2829.8-478-2829.8-477.9z"/>
		</g>
	</g>
	<g transform="matrix(0.4441,0,0,0.39775,0,0)">
		<path class="st0" d="M72.2,77.3c0.1,0.1,0.2,0.1,0.3,0c0.2-0.1,0.2-0.3,0.1-0.5c-0.2-0.3-0.4-0.5-0.6-0.5c-0.2,0-0.3,0.1-0.5,0.3
			c-0.2,0.2-0.4,0.3-0.5,0.8c-0.1,0.3-0.1,0.7-0.2,1.1c-0.2,2.5,0.1,6.9,0.2,9.5c0,0.3,0,0.6,0,0.8c0,0.1,0.1,0.1,0.2,0.2
			c0,0.3,0.2,0.5,0.5,0.5c0.3,0,0.5-0.2,0.5-0.5c0.1-0.1,0.1,0,0.1-0.1c0.1-0.3,0-0.8,0-1.2c0-2.7-0.2-7-0.1-9.3
			c0-0.2,0.1-0.5,0-0.7C72.2,77.6,72.2,77.4,72.2,77.3z"/>
	</g>
</g>
</svg>
