<?xml version="1.0" encoding="utf-8"?>
<!-- Generator: Adobe Illustrator 24.2.0, SVG Export Plug-In . SVG Version: 6.00 Build 0)  -->
<svg version="1.1" id="图层_1" xmlns="http://www.w3.org/2000/svg" xmlns:xlink="http://www.w3.org/1999/xlink" x="0px" y="0px"
	 viewBox="0 0 85.04 85.04" style="enable-background:new 0 0 85.04 85.04;" xml:space="preserve">
<style type="text/css">
	.st0{fill-rule:evenodd;clip-rule:evenodd;}
	
		.st1{fill-rule:evenodd;clip-rule:evenodd;stroke:#000000;stroke-width:0.063;stroke-linecap:round;stroke-linejoin:round;stroke-miterlimit:10;}
	.st2{fill-rule:evenodd;clip-rule:evenodd;fill:#FFFFFF;}
</style>
<g>
	<g transform="matrix(0.4441,0,0,0.39775,-157.329,14.655)">
		<path class="st0" d="M434.82,47.09c0.09-1.07-0.74-1.04-0.94,0.57c-0.05,0.42-0.04,1.02-0.02,1.69c0.07,2.44,0.41,5.96,0.47,6.68
			c0.02,0.32,0.27,0.55,0.55,0.53c0.28-0.03,0.49-0.3,0.47-0.62c-0.04-0.72-0.11-4.24-0.24-6.66c-0.04-0.66-0.06-1.24-0.13-1.65
			C434.94,47.42,434.89,47.24,434.82,47.09z"/>
	</g>
	<g id="Paper.svg" transform="matrix(0.289228,0,0,0.259042,1230.71,349.047)">
		<g transform="matrix(1,0,0,1,-409,-366.5)">
			<g id="body-mono-Paper">
				<path id="_xD83D__xDD8D_-Ink18" class="st0" d="M-3671.38-758.28c-2.41-1.06-5.01-1.64-7.62-1.87c1.41-0.27,2.81-0.54,4.24-0.68
					c0.99-0.09,1.91-0.09,2.66,0.75c0.5,0.56,0.73,1.28,1.06,1.94C-3671.15-758.18-3671.27-758.23-3671.38-758.28z M-3645.49-768.16
					c-3.95,0.22-7.9,1.27-11.48,3.17c-1.46,0.78-2.79,1.9-3.17,3.75c-0.2,0.94-0.15,1.92-0.04,2.87c0.08,0.72,0.1,1.64,0.66,2.13
					c0.1,0.08,0.2,0.15,0.31,0.19c-1.32,0.66-2.57,1.46-3.69,2.28c-1.02,0.75-2.07,1.91-2.54,3.22c-0.04-0.15-0.08-0.29-0.12-0.42
					c-0.8-2.65-2.04-4.81-3.98-6.27c0.34-0.17,0.58-0.58,0.47-1.15c-0.46-2.36-2.41-4.41-4.61-4.26c-2.41,0.16-5,1.14-7.18,2.38
					c-0.8-0.02-1.59-0.01-2.37,0.03c-0.14,0-0.13,0.21,0,0.23c0.64,0.09,1.27,0.19,1.91,0.31c1.51,0.27,3.02,0.61,4.49,1.04
					c1.77,0.51,3.6,1.02,5.25,1.92c3.21,1.73,5.19,6.27,4.78,10.21c-0.07,0.65-0.29,2.6-1.1,2.4c-0.68-0.17-0.95-1.75-1.19-2.34
					c-0.64-1.56-1.78-2.57-3.16-3.26c-1.61-0.81-3.34-1.36-5.02-1.99c-0.95-0.36-1.9-0.73-2.85-1.09c-0.97-0.37-1.9-0.89-2.93-0.63
					c-0.63,0.16-0.7,0.99-0.35,1.47c0.53,0.73,1.33,0.94,2.1,1.24c1.02,0.39,2.03,0.79,3.04,1.18c1.57,0.61,3.21,1.12,4.73,1.87
					l-0.05,0.12c-0.12-0.04-0.27,0.1-0.25,0.27c0.23,1.57,0.55,3.39,0.19,4.97c-0.28,1.25-1.26,2.63-2.54,2.27
					c0.2-0.2,0.27-0.56,0.14-0.88c-0.51-1.21-7.13-5.97-7.72-4.2c-0.02,0.06,0.04,0.11,0.09,0.1c0.5-0.12,1.35,0.84,1.75,1.15
					c0.58,0.44,1.17,0.87,1.75,1.32c0.63,0.49,1.24,1.01,1.84,1.54c0.47,0.42,0.83,0.85,1.37,1.07c-0.28,0.15-0.51,0.43-0.6,0.79
					c-0.24,0.93-0.71,1.72-1.53,2.13c-0.86,0.43-1.82,0.16-2.72,0.26c-1.23,0.14-2.3,0.79-3.2,1.72c-1.88,1.96-2.82,5.42-5.45,6.34
					c-1.57,0.55-3.31,0.2-4.9-0.05c-1.78-0.28-3.51-0.5-5.29-0.21c-1.71,0.28-3.33,0.94-4.9,1.75c-1.47,0.76-3.09,1.61-4.39,2.74
					c-0.27-0.92-0.54-1.83-0.74-2.78c-0.48-2.23-0.74-4.49-0.81-6.78c-0.06-2.18,0.05-4.36,0.22-6.53c0.08-1.08,0.21-2.16,0.3-3.24
					c0.02-0.27,0.07-0.56,0.1-0.86c2.32-1.53,4.76-2.7,7.22-3.91c0.01,0,0.01-0.01,0.02-0.01c0.08-0.04,0.15-0.08,0.23-0.11
					c0-0.01,0-0.01-0.01-0.01c0.28-0.19,0.48-0.45,0.59-0.73c3.54-2.62,6.51-6.21,8.72-10.39c0.93-1.75,1.82-3.57,3.03-5.1
					c1.29-1.64,2.82-2.61,4.72-3.12c2.22-0.59,4.5-0.95,6.77-1.15c1.24-0.11,2.63-0.28,3.98-0.27c0.94,0.01,1.86,0.1,2.71,0.36
					c1.25,0.38,1.98,1.45,2.77,2.52c0.75,1.03,1.5,2.07,2.2,3.14c0.66,1.02,1.29,2.07,1.84,3.18c0.33,0.66,0.63,1.34,0.88,2.05
					c0.09,0.25,0.21,0.53,0.26,0.79c0.05,0.26-0.05,0.54,0.22,0.54c-1.08,0.02-1.07,1.94,0,1.87c4.2-0.27-1.82-9.42-2.69-10.69
					c-1.24-1.81-2.53-4.16-4.52-5c-0.03-0.01-0.06-0.02-0.09-0.03c0.58-0.61,1.04-1.35,1.47-2.09c0.45-0.77,0.99-1.65,1.14-2.56
					c0.09-0.58-0.55-0.91-0.86-0.4c-0.45,0.74-0.66,1.68-1,2.5c-0.34,0.83-0.75,1.61-1.08,2.44c-0.79-0.27-1.64-0.39-2.5-0.44
					c1.09-1.65,2.96-4.83,3.18-5.24c1.03-1.89,2.02-3.84,2.95-5.8c1.02-2.12,1.88-4.32,2.86-6.46c0.55-1.21,1.11-2.44,1.72-3.62
					c0.21-0.4,0.44-0.81,0.7-1.17c0.05-0.07,0.11-0.13,0.17-0.2c0.07-0.04,0.14-0.09,0.18-0.11c0.35-0.23,0.48-0.75,0.73-1.09
					c0.4-0.54,0.86-0.6,1.46-0.61c1.27-0.01,2.55,0.04,3.82,0.08c1.87,0.06,3.73,0.14,5.6,0.25
					C-3650.92-795.25-3645.47-768.24-3645.49-768.16z M-3663.48-746c-0.52,0.27-1.03,0.6-1.5,0.98c0.08-0.59,0.1-1.21,0.08-1.84
					C-3664.51-746.39-3664.01-746.12-3663.48-746z M-3641.15-760.79c-0.04,0-0.07,0.03-0.09,0.07c-0.72,1.67-0.42,3.53,0.76,4.83
					c0.62,0.68,1.97,1.45,1.92,2.57c-0.04,0.9-0.92,1.66-1.3,2.41c-0.35,0.7-0.48,1.46-0.2,2.21c0.36,0.97,1.36,1.35,1.71,2.3
					c0.44,1.2-0.27,2.66-0.77,3.7c-0.46,0.97-1.06,1.94-1.46,2.97c-2.66,1.54-5.03,3.89-7.08,6.28c-2.24,2.62-4.16,5.69-7.71,5.61
					c-0.36-0.01-0.63,0.2-0.79,0.49c-0.99,0.05-1.98,0.07-2.97,0.08c-1.74,0.01-3.48-0.01-5.21-0.07c-0.12-0.47-0.03-1.11-0.04-1.5
					c-0.02-1.28-0.03-2.55-0.08-3.83c-0.01-0.35-0.03-0.71-0.04-1.07c0.63,1.26,1.85,1.84,3.24,1.75c2.24-0.15,4.48-0.55,6.7-0.92
					c1.17-0.19,2.33-0.41,3.49-0.64c0.95-0.19,2.3-0.14,2.97-0.99c0.16-0.2,0.17-0.56-0.08-0.7c-0.66-0.36-1.08-0.16-1.8,0
					c-0.88,0.19-1.77,0.37-2.66,0.54c-1.71,0.33-3.42,0.64-5.13,0.91c-0.98,0.15-1.95,0.3-2.93,0.42c-0.85,0.1-1.82,0.24-2.51-0.48
					c-1.39-1.45-0.61-3.88,0.27-5.34c0.02-0.03,0.02-0.06,0.01-0.08c0.83-0.22,1.65-0.47,2.48-0.65c1.58-0.34,3.18-0.63,4.78-0.88
					c3.28-0.52,6.58-0.87,9.88-1.22c0.82-0.09,0.83-1.52,0-1.44c-4.74,0.48-9.5,0.94-14.18,1.96c-1.17,0.25-2.34,0.54-3.49,0.86
					c-0.55,0.15-1.13,0.39-1.71,0.39c-0.03,0-0.07,0-0.1,0c-1.12-0.04-1.29-1.11-0.67-2c0.08-0.11,0.15-0.22,0.24-0.32
					c1.09-1.45,2.45-2.42,3.85-3.42c1.57-0.24,3.13-0.77,4.66-1.16c3.79-0.96,7.57-1.93,11.36-2.89c0.74-0.19,0.43-1.46-0.32-1.28
					c-2.88,0.73-5.75,1.45-8.63,2.18l-4.21,1.07c-0.84,0.21-1.89,0.64-2.88,0.79c-0.49,0.08-0.96,0.08-1.39-0.03
					c-1.38-0.36-1.45-2.29-0.85-3.43c0.67-1.28,1.93-2.09,3.04-2.81c1.94-1.26,4-2.17,6.01-3.22c0.36-0.09,0.71-0.18,1.07-0.26
					c2.08-0.51,4.45-0.76,6.41-1.7c0.59-0.28,0.27-1.31-0.31-1.29c-1.52,0.04-3.11,0.64-4.59,1c-1.61,0.39-3.21,0.78-4.82,1.16
					c-0.16,0.04-1.12,0.38-1.26,0.3c-0.09-0.05-0.12-0.4-0.15-0.64c-0.1-0.77-0.17-1.58-0.06-2.35c0.24-1.73,1.53-2.54,2.83-3.21
					c2.91-1.48,6.1-2.4,9.28-2.77c0.73-0.09,1.46-0.14,2.2-0.17c0.86-0.03,1.58-0.2,2.02,0.75
					C-3641.76-764.43-3641.38-762.5-3641.15-760.79z M-3645.2-706.46c-0.63-2.45-0.46-5.06-0.9-7.56c-0.22-1.29-0.53-2.57-0.86-3.83
					c-0.27-1.02-0.72-2.1-0.77-3.16c0-0.07,0.07-0.11,0.12-0.08c0.89,0.57,1.58,1.81,2.09,2.78c0.61,1.16,1.08,2.38,1.45,3.66
					c0.75,2.55,1.37,5.62,0.4,8.19C-3643.95-705.7-3644.96-705.54-3645.2-706.46z M-3664.8-738.9c0.54-0.06,1.07-0.17,1.61-0.31
					c-0.6,0.65-1.15,1.44-1.46,2.31c-0.05-0.67-0.11-1.34-0.19-2C-3664.83-738.9-3664.81-738.9-3664.8-738.9z M-3669.95-687.92
					c-0.95-0.74-1.63-1.77-2.44-2.67c-0.79-0.89,0.44-2.27,1.23-1.38c0.68,0.77,1.28,1.74,2.08,2.37c0.39,0.3,0.57,0.85,0.31,1.33
					C-3668.98-687.84-3669.56-687.62-3669.95-687.92z M-3675.22-716.22c1.73-0.83,3.42-1.74,5.23-2.34
					c1.08-0.36,1.54,1.52,0.46,1.88c-1.66,0.55-3.22,1.38-4.81,2.14C-3675.36-714.05-3676.25-715.73-3675.22-716.22z
					 M-3693.44-716.81c-0.42-1.16,1.26-1.66,1.68-0.52c0.48,1.32,1.03,2.6,1.51,3.92c0.42,1.16-1.27,1.66-1.68,0.52
					C-3692.42-714.2-3692.96-715.49-3693.44-716.81z M-3711.43-693.59c-0.28,0.42-0.75,0.65-1.19,0.35
					c-0.37-0.25-0.6-0.91-0.31-1.33c0.83-1.24,1.67-2.46,2.65-3.56c0.79-0.89,2.02,0.48,1.23,1.38
					C-3709.92-695.78-3710.69-694.7-3711.43-693.59z M-3714-823.84c0.8,0.61,1.5,1.35,2.18,2.11c0.79,0.89-0.44,2.26-1.23,1.38
					c-0.58-0.64-1.16-1.3-1.83-1.81c-0.39-0.3-0.56-0.85-0.31-1.33C-3714.97-823.92-3714.39-824.14-3714-823.84z M-3687.83-792.52
					c-0.45,1.01-0.86,2-0.89,3.15c-0.03,1.25-1.77,1.25-1.74,0c0.03-1.5,0.53-2.81,1.12-4.13
					C-3688.84-794.63-3687.33-793.64-3687.83-792.52z M-3678.23-817.67c0.94-0.7,1.81,0.99,0.88,1.68
					c-0.75,0.56-1.51,1.12-2.26,1.68c-0.94,0.7-1.81-0.99-0.88-1.68C-3679.74-816.55-3678.99-817.11-3678.23-817.67z
					 M-3719.87-773.7c-0.16,1.24-1.84,0.71-1.68-0.52c0.25-1.89,0.54-3.76,1-5.61c0.3-1.21,1.98-0.69,1.68,0.52
					C-3719.33-777.46-3719.63-775.59-3719.87-773.7z M-3725.99-751.4c-1.12-0.03-1.12-1.97,0-1.95c1.02,0.02,2.01,0.32,2.99,0.6
					c1.09,0.3,0.62,2.18-0.46,1.88C-3724.28-751.11-3725.13-751.38-3725.99-751.4z M-3728.24-706.49c-0.39,0.21-0.78,0.4-1.17,0.6
					c-0.78,0.4-1.56,0.8-2.34,1.2c-1.62,0.83-3.25,1.67-4.87,2.51c-3.25,1.68-6.52,3.3-9.77,4.96c-3.32,1.69-6.63,3.41-9.93,5.13
					c-1.56,0.81-3.13,1.59-4.69,2.38c-1.34,0.68-2.99,1.86-4.46,1.97c-0.08,0.01-0.1-0.1-0.06-0.16c0.56-0.71,1.44-1.12,2.17-1.57
					c0.75-0.47,1.51-0.91,2.26-1.36c1.58-0.93,3.15-1.86,4.75-2.76c3.18-1.8,6.37-3.58,9.56-5.37c3.25-1.82,6.5-3.65,9.78-5.4
					c1.55-0.83,3.09-1.65,4.64-2.47c0.84-0.44,1.68-0.89,2.52-1.33c0.36-0.19,0.72-0.4,1.09-0.57c0.49-0.23,0.87-0.18,1.37-0.32
					c0.83-0.23,1.19,0.95,0.55,1.46C-3727.37-707.18-3727.64-706.82-3728.24-706.49z M-3739.88-686.54c-0.18-0.49,0.2-1.08,0.61-1.2
					c0.49-0.15,0.89,0.19,1.07,0.68c0.48,1.3,1.16,2.49,2.03,3.49c0.78,0.9-0.45,2.28-1.23,1.38
					C-3738.49-683.45-3739.28-684.92-3739.88-686.54z M-3748.44-717.78c-0.79-0.89,0.44-2.26,1.23-1.38l2.26,2.52
					c0.79,0.89-0.44,2.26-1.23,1.38L-3748.44-717.78z M-3771.61-721.89c-1.62,0.53-3.52,1.02-4.63,2.57
					c-0.05,0.08-0.15-0.02-0.11-0.1c1.42-3.28,5.48-4.43,8.3-5.58c1.99-0.81,4.03-1.49,6.09-2.09c-0.21-2.62,0.36-5.44,0.56-8.05
					c0.21-2.79,0.38-5.58,0.47-8.38c0.09-2.85,0.11-5.72,0.03-8.58c-0.08-2.84-0.41-5.65-0.56-8.48c-0.01-0.27,0.33-0.29,0.4-0.06
					c0.86,2.63,1.22,5.54,1.5,8.31c0.29,2.86,0.38,5.7,0.35,8.58c-0.04,2.95-0.19,5.9-0.4,8.84c-0.1,1.4-0.22,2.79-0.33,4.18
					c-0.08,1.06-0.12,2.12-0.32,3.15c1.24-0.34,2.49-0.66,3.73-0.98c3.96-1,7.93-1.92,11.87-3c1.93-0.53,3.84-1.16,5.77-1.73
					c1.81-0.53,3.73-1.17,5.59-1.41c0.66-0.08,0.75,0.93,0.31,1.27c-1.51,1.19-3.52,2.01-5.27,2.68c-1.75,0.67-3.58,1.15-5.38,1.64
					c-3.75,1.03-7.54,1.87-11.32,2.75c-3.77,0.88-7.56,1.75-11.29,2.83C-3768.04-723-3769.83-722.47-3771.61-721.89z
					 M-3780.51-773.96c-0.97,0.64-1.85-1.05-0.88-1.68c1.27-0.83,2.61-1.45,3.97-2.06c1.04-0.47,1.49,1.42,0.46,1.88
					C-3778.18-775.27-3779.38-774.7-3780.51-773.96z M-3784.03-701.65c-0.97,0.63-1.85-1.05-0.88-1.68
					c1.36-0.88,2.85-1.47,4.27-2.24c1-0.55,1.89,1.13,0.88,1.68C-3781.17-703.12-3782.67-702.53-3784.03-701.65z M-3785.61-742.69
					c0.94,1,2.2,1.47,3.38,1.99c1.03,0.46,0.58,2.34-0.46,1.88c-1.47-0.65-2.98-1.25-4.15-2.49
					C-3787.66-742.18-3786.42-743.56-3785.61-742.69z M-3775.2-798.43c1.03,0.45,0.58,2.33-0.46,1.88c-1.16-0.51-2.36-0.89-3.51-1.4
					c-1.03-0.45-0.58-2.33,0.46-1.88C-3777.56-799.33-3776.36-798.94-3775.2-798.43z M-3756.84-820.57c1.1-0.21,1.57,1.67,0.46,1.88
					c-1.37,0.26-2.72,0.56-4.02,1.12c-1.05,0.45-1.5-1.43-0.46-1.88C-3759.56-820.01-3758.21-820.32-3756.84-820.57z
					 M-3750.77-766.67c-1.01-0.55-0.12-2.23,0.88-1.68c1.06,0.58,2.15,1.03,3.31,1.3c1.1,0.26,0.63,2.14-0.46,1.88
					C-3748.35-765.48-3749.58-766.02-3750.77-766.67z M-3745.04-797.03c1.08-0.33,1.54,1.55,0.46,1.88c-1.9,0.58-3.86,0.88-5.77,1.4
					c-1.09,0.29-1.55-1.58-0.46-1.88C-3748.9-796.15-3746.94-796.45-3745.04-797.03z M-3720.73-806.56c1.1,0.23,0.63,2.1-0.46,1.88
					c-1.17-0.24-2.35-0.24-3.53-0.25c-1.12,0-1.12-1.95,0-1.95C-3723.39-806.88-3722.06-806.84-3720.73-806.56z M-3641.37-766.74
					c-0.35-1.13-8.9-30.4-9.04-30.41c-0.01-0.03-0.03-0.07-0.05-0.1c-0.93-1.53-1.62-3.06-2.21-4.78c-0.57-1.64-1.12-3.34-2-4.82
					c-1-1.69-2.35-3.01-3.83-4.16c-0.9,0.67-1.73,1.46-2.49,2.3c-0.8,0.88-2.03-0.5-1.23-1.38c0.68-0.74,1.4-1.43,2.16-2.05
					c-0.88-0.6-1.78-1.16-2.66-1.72c-3.29-2.09-6.65-4.03-10.09-5.8c-1.6-0.82-3.21-1.56-4.84-2.3c-0.88-0.4-1.74-0.91-2.62-1.37
					c0.06-0.69-0.12-1.46-0.6-1.92c-0.35-0.33-0.62-0.46-1.04-0.69c-0.09-0.04-0.15-0.06-0.18-0.07c0.02,0,0.08,0.02,0.17,0.06
					c0.22,0.11,0.24,0.08,0.05-0.1c-0.01-0.39-0.71-1.23-0.86-1.63c-0.55-1.39-0.73-2.87-1.54-4.14c-1.13-1.75-3.02-2.41-4.78-1.82
					c-0.18-2.1-0.23-4.3-0.94-6.18c-0.02-0.05-0.08-0.07-0.11-0.02c-0.74,1.41-0.8,2.98-0.86,4.6c-0.05,1.53,0,3.08,0.18,4.6
					c-0.11,0.1-0.23,0.19-0.35,0.28c-0.56,0.41-1.17,0.73-1.8,0.97c-1.21,0.45-2.48,0.64-3.75,0.71c-3.28,0.18-6.66-0.19-9.88-0.82
					c-3.26-0.63-8.26-1.59-11.16-3.41c-1.92-1.2-3.68-2.67-5.47-4.09c0.65-2.34,0.81-4.85,0.16-6.82c-0.08-0.24-0.41-0.28-0.47,0
					c-0.41,1.88-0.53,3.78-1.07,5.64c-0.01,0.03-0.02,0.06-0.03,0.08c-0.17-0.13-0.34-0.26-0.51-0.38
					c-0.39-0.29-0.93-0.07-1.16,0.34c-3.76,6.62-9.72,7-15.98,8.18c-6.85,1.29-13.73,2.69-20.32,5.22
					c-6.3,2.42-12.31,5.95-17.08,11.22c-1.08,1.19-2.09,2.46-3.04,3.79c0.92,0.13,1.84,0.33,2.74,0.65
					c1.07,0.37,0.61,2.25-0.46,1.88c-1.16-0.41-2.33-0.61-3.52-0.71c-3.24,4.95-5.76,10.56-7.95,16.08
					c-4.19,10.59-6.92,21.86-8.17,33.34c0.69-0.46,1.39-0.9,2.11-1.31c1-0.57,1.88,1.11,0.88,1.68c-1.11,0.63-2.19,1.33-3.23,2.08
					c-0.46,5.02-0.63,10.08-0.53,15.13c0.25,12.04,1.71,24.43,5,35.91c1.61,5.64,3.75,11.23,6.94,15.99
					c1.44,2.16,3.08,4.1,5.01,5.73c0.93,0.79,1.92,1.49,2.97,2.08c1.34,0.77,3.1,1.02,4.26,2.11c0.38,0.36,0.68,0.83,0.9,1.36
					c-0.13,1.01-0.14,2.03,0.1,3.04c0.08,0.32,0.29,0.57,0.56,0.7c0,0.09,0,0.17,0,0.26c0,0.04,0.05,0.05,0.06,0.01
					c0.01-0.08,0.02-0.15,0.03-0.23c0.08,0.03,0.17,0.05,0.27,0.05c3.31,0.01,6.62-0.08,9.94-0.2c-0.26-0.88-0.53-1.75-0.8-2.62
					c-0.36-1.19,1.32-1.7,1.68-0.52c0.31,1.02,0.64,2.04,0.93,3.07c3.55-0.15,7.1-0.32,10.64-0.46c7.54-0.28,15.07-0.37,22.61-0.55
					c11.71-0.28,23.5-0.84,35.22-0.29c0.41-0.96,0.86-1.9,1.29-2.85c0.51-1.12,2.01-0.13,1.51,0.98c-0.3,0.66-0.61,1.31-0.9,1.97
					c2.37,0.14,4.75,0.32,7.11,0.57c4.04,0.42,8.04,1.17,12.08,1.64c4.1,0.48,8.12,0.39,12.19-0.36c0.73-0.14,1.16-0.63,1.34-1.24
					c0.01,0,0.01-0.01,0.01-0.01c0.21-0.27,0.41-0.5,0.61-0.7c0.24-0.17,0.5-0.32,0.81-0.45c0.57-0.24,1.17-0.39,1.78-0.49
					c0.67-0.11,1.34-0.12,2.01-0.21c0.56-0.08,1.11-0.2,1.66-0.35c0.99-0.26,1.92-0.61,2.86-1.06c0.81-0.4,1.55-0.97,2.24-1.59
					c1.43-1.17,2.68-2.66,3.76-4.22c0.63-0.91,1.23-1.85,1.77-2.83c0.94-1.7,1.74-3.46,2.55-5.24c0.29-0.53,0.56-1.07,0.81-1.62
					c-1.58-0.52-3.18-0.95-4.86-0.98c-1.12-0.02-1.12-1.97,0-1.95c1.93,0.03,3.75,0.54,5.56,1.14c0.09-0.26,0.17-0.52,0.25-0.79
					c0.22-0.56,0.39-1.13,0.54-1.71c0.09-0.26,0.17-0.53,0.26-0.79c0.2-0.91,0.39-1.82,0.59-2.73c0.39-1.46,0.71-2.94,0.93-4.44
					c0.19-0.99,0.34-1.98,0.44-2.99c0.3-2.44,0.55-4.88,0.57-7.34c-0.03-1.52-0.11-3.04-0.26-4.55c-0.06-1.03-0.17-2.05-0.31-3.06
					c-0.19-1.51-0.37-3-0.68-4.49c-0.23-1.01-0.47-2.01-0.7-3.02c-0.58-2.1-1.27-4.16-2.06-6.17c-0.04-0.13-0.26-0.4-0.4-0.41
					c-0.1,0-0.24,0.1-0.19,0.24c0,0.01,0.01,0.03,0.01,0.04c-0.05-0.11-0.09-0.23-0.14-0.35c-0.04-0.11-0.19-0.32-0.31-0.32
					c-0.01,0-0.01,0-0.02,0c0.03-0.02,0.06-0.06,0.09-0.09c0.78-1.03,1.29-2.39,1.85-3.59c0.46-0.99,0.9-2.03,1.03-3.15
					c0.11-0.98-0.04-1.95-0.59-2.74c-0.63-0.9-1.81-1.33-1.15-2.63c0.75-1.48,1.84-2.77,0.75-4.46c-0.56-0.86-1.44-1.33-2.09-2.08
					c-0.75-0.86-1.11-2.02-1.09-3.2c0.05,0.03,0.11,0.01,0.13-0.06C-3640.27-762.33-3640.73-764.67-3641.37-766.74z"/>
				<path class="st1" d="M-3668.27-755.42l2.54,5.33l7.33-6.33l-0.89-1.46l-0.07-3.36l2.05-2.79l5.96-2.46l7.38-1.56l-4.02-18.62
					l-4.42-11.97l-11.06-0.54c0,0-8.56,11.58-8.3,12.7c0.26,1.12-4.47,12.69-4.47,12.69l1.35,2.85l2.53,0.96l2.1,1.41l2.88,4.17
					l2.78,4.89l0.84,2.45L-3668.27-755.42z"/>
				<path class="st1" d="M-3679.58-759.95c0,0,9.22,2.64,9.45,2.91c0.23,0.26-0.39-2.77-0.39-2.77l-2.49-1.95
					c0,0-3.56,0.34-3.8,0.41C-3677.06-761.3-3679.58-759.95-3679.58-759.95z"/>
			</g>
		</g>
	</g>
	<g transform="matrix(0.4441,0,0,0.39775,-157.329,14.655)">
		<path class="st2" d="M417.66,125.58c0,0-29.96-6.38-48.41-45.9c-14.45-30.94,59.78-1.95,65.25,0.63
			c5.46,2.59,29.07,18.02,30.49,19.52c1.43,1.5-4.98-1.77-9.23,2.1c-4.78,4.36-3.13,6.2-6.31,8.9
			C446.27,113.53,434.36,121.1,417.66,125.58z"/>
	</g>
	<g transform="matrix(0.4441,0,0,0.39775,-157.329,14.655)">
		<path class="st2" d="M441.67,134.09c-0.07-0.02,3.33-4.85,7.55-5.15c4.21-0.3,7.71,2.15,11.19-3.57s1.95-0.39,4.22-2.02
			c2.27-1.63,3.66-6.41,4.24-5.53c0.58,0.88,0.92-0.07,1.9,1.19c0.98,1.26,1.3,2.52,1.48,4.31c0.32,3.32,8.64,0.57,11.53,0.12
			c2.7-0.42,3.85,2.56,3.85,2.56s26.9-8.47,28.83-6.46c1.93,2.01,3.4,10.41,0.27,22.68c-3.14,12.27-6.31,25.48-9.17,24.53
			c-2.87-0.94-17.62-19.79-20.74-26.83c-0.89-2-1.31-1.49-1.55-1.55C485.02,138.33,462.35,141.1,441.67,134.09z"/>
	</g>
	<g transform="matrix(0.191972,0,0,0.260497,982.353,14.655)">
		<g transform="matrix(2.31336,0,0,1.52689,-5936.71,0)">
			<path class="st0" d="M487.44,137.68c0.18-0.08,0.42-0.37,0.08-0.59c-0.06-0.18-0.24-0.19-0.39-0.15
				c-0.11-0.03-0.23-0.05-0.37-0.07c-0.06-0.01-0.13,0.07-0.23,0.12c-0.57,0.29-1.8,0.87-3.08,1.04c-1.49,0.19-2.98,0.28-4.48,0.32
				c-1.5,0.03-3.01,0-4.51-0.05c-3.73-0.12-8.38-0.67-13.2-1.37c-6.19-0.9-12.64-2.13-17.72-3.18c-0.47-0.1-0.92-0.28-1.37-0.27
				c-0.24,0-0.41,0.1-0.64,0.15c-0.29-0.06-0.57,0.14-0.63,0.47c-0.06,0.32,0.13,0.64,0.42,0.7c0.16,0.14,0.25,0.28,0.44,0.38
				c0.35,0.18,0.75,0.2,1.14,0.29c4.25,0.99,9.54,1.95,14.84,2.76c6.02,0.92,12.07,1.57,16.69,1.66c1.84,0.03,3.67,0.03,5.5-0.08
				c1.23-0.07,2.45-0.19,3.68-0.38c1.43-0.22,2.8-0.9,3.43-1.24c0.1-0.06,0.21-0.07,0.25-0.14
				C487.35,137.9,487.4,137.79,487.44,137.68z"/>
		</g>
		<g transform="matrix(2.31336,0,0,1.52689,-5936.71,0)">
			<path class="st0" d="M416.48,125.37c-0.05-0.03-0.11-0.04-0.15-0.09c-0.11-0.12-0.05-0.22-0.16-0.33
				c-0.04-0.04-0.11-0.05-0.17-0.07c-0.75-0.31-1.49-0.62-2.22-0.94c-8.73-3.81-16.34-8.43-23.05-14.56
				c-7.11-6.48-13.21-14.66-18.57-25.36c-1.09-2.17-2.76-5.36-3.53-8.52c-0.49-2.02-0.62-4.02,0.13-5.66
				c1.17-2.57,4.84-3.42,9.29-3.58c9.17-0.34,21.68,2.72,25.21,3.73c10.01,2.84,20.93,6.72,31.88,12.08
				c8.96,4.38,17.87,9.88,26.46,16.35c0.46,0.35,0.92,0.72,1.4,1.04c0.49,0.33,1,0.59,1.5,0.89c0.24,0.19,0.57,0.14,0.74-0.13
				c0.17-0.26,0.12-0.64-0.11-0.83c-0.42-0.45-0.8-0.9-1.24-1.32c-0.43-0.41-0.9-0.77-1.36-1.14c-8.51-6.82-17.67-12.13-26.73-16.56
				c-11.04-5.4-22.05-9.3-32.14-12.15c-3.59-1.01-16.33-4.07-25.66-3.69c-5.12,0.21-9.23,1.57-10.57,4.54
				c-0.9,2-0.82,4.41-0.22,6.85c0.81,3.28,2.54,6.62,3.69,8.87c5.5,10.86,11.74,19.15,19,25.71c6.84,6.18,14.59,10.83,23.46,14.64
				c0.74,0.32,1.49,0.63,2.24,0.94c0.06,0.02,0.11,0.07,0.17,0.07c0.15,0,0.16-0.13,0.31-0.14c0.06-0.01,0.11,0.03,0.16,0.04
				c0.17,0.07,0.37-0.03,0.43-0.22C416.74,125.66,416.65,125.44,416.48,125.37z"/>
		</g>
		<g transform="matrix(2.31336,0,0,1.52689,-5936.71,0)">
			<path class="st0" d="M485.52,123.19L485.52,123.19c-0.04,0.05-0.12,0.15-0.17,0.15c-0.01,0-0.08-0.09-0.1-0.1
				c-0.12-0.07-0.27-0.06-0.37,0.03c-0.1,0.08-0.14,0.22-0.12,0.36c0.01,0.06,0.1,0.12,0.07,0.17c-0.03,0.04-0.07,0.07-0.11,0.1
				l-0.08,0.06l0,0.02c-0.01,0.05,0.05,0.08,0.07,0.12c0.21,0.35,0.48,0.7,0.78,1.06c0.35,0.42,0.74,0.85,1.12,1.26
				c0.24,0.26,0.47,0.51,0.68,0.75c0.04,0.05,0.07,0.14,0.13,0.15c0.21,0.05,0.17,0.06,0.13,0.03c-0.03-0.02-0.07-0.08,0.11-0.17
				c0.17,0.26,0.51,0.32,0.74,0.13c0.24-0.19,0.29-0.57,0.12-0.83c0.09-0.11,0.13-0.13,0.15-0.12c0.04,0.03-0.05,0.23,0.02-0.11
				c0.01-0.04-0.02-0.07-0.03-0.1c-0.18-0.38-0.52-0.7-0.86-1.03c-0.66-0.64-1.48-1.2-2.05-1.78c-0.06-0.06-0.1-0.16-0.17-0.17
				L485.52,123.19z"/>
		</g>
		<g transform="matrix(2.31336,0,0,1.52689,-5936.71,0)">
			<path class="st0" d="M489.62,130.22l-0.01-0.03C489.61,130.2,489.61,130.21,489.62,130.22c0.13,0.41,0.24,0.83,0.34,1.26
				c0.06,0.28,0.12,0.56,0.15,0.85c0.09,0.68,0,1.49-0.22,2.24c-0.14,0.48-0.39,0.89-0.63,1.27c-0.1,0.16-0.16,0.34-0.28,0.47
				c-0.38,0.32-0.46,0.92-0.18,1.35c0.28,0.43,0.83,0.52,1.21,0.2c0.24-0.13,0.45-0.28,0.64-0.49c0.39-0.43,0.63-1.03,0.81-1.65
				c0.36-1.22,0.41-2.62,0.15-3.73c-0.1-0.42-0.22-0.83-0.37-1.24c-0.15-0.39-0.32-0.77-0.51-1.13c-0.06-0.11-0.3-0.21-0.41-0.32
				c0-0.03-0.02-0.06-0.05-0.08c-0.02-0.02,0.01-0.13-0.01-0.1c-0.03,0.06,0,0.12,0.06,0.17c0.01,0.09-0.09,0.2-0.03,0.29
				c0.05,0.08-0.13,0.03-0.07,0.12c0.05,0.07-0.11-0.04-0.06,0.04c0.06,0.09-0.14-0.11-0.09,0.01c0.02,0.05-0.02-0.01-0.04-0.04
				c0.14-0.1,0.19-0.31,0.1-0.48c-0.09-0.17-0.29-0.23-0.44-0.14c-0.08-0.08-0.01,0.05-0.08-0.01c-0.2-0.16,0.02,0.14-0.17,0.08
				c-0.12-0.04,0.04,0.05-0.07,0.09c-0.05,0.02-0.01,0.1-0.04,0.16c-0.1,0.14,0.03,0.28,0.12,0.55c0.03,0.1,0.34,0.25,0.24,0.33
				C489.65,130.29,489.63,130.26,489.62,130.22z"/>
		</g>
		<g transform="matrix(2.31336,0,0,1.52689,-5936.71,0)">
			<path class="st0" d="M487.55,140.79c0.05-0.17-0.01-0.36-0.15-0.44c-0.16-0.09-0.36-0.02-0.44,0.16
				c-0.1,0.06-0.14,0.26-0.06,0.75c0.02,0.14,0.13,0.29,0.23,0.47c0.89,1.61,3.59,5.15,4.04,5.84c1.14,1.76,6.01,9.93,10.29,15.15
				c1.72,2.09,3.36,3.71,4.64,4.35c0.74,0.36,1.39,0.42,1.92,0.21c1.37-0.55,2.37-1.77,3.12-3.27c1-1.98,1.55-4.45,2.07-6.23
				c1-3.42,4.73-16.82,5.58-26.83c0.48-5.66-0.09-10.26-2.27-11.74c-1.13-0.77-3.25-0.83-5.88-0.38
				c-5.06,0.87-12.15,3.43-17.25,4.83c-1.1,0.3-2.12,0.5-2.98,0.72c-0.47,0.12-0.87,0.28-1.25,0.36c-0.26,0.02-0.46,0.27-0.45,0.56
				c0.01,0.29,0.24,0.52,0.5,0.5c0.42,0.04,0.88,0.08,1.4,0.03c0.91-0.08,1.96-0.37,3.1-0.68c5.07-1.35,12.09-4,17.12-4.89
				c2.24-0.4,4.05-0.5,5.02,0.15c0.68,0.46,1.12,1.33,1.41,2.47c0.51,2.01,0.51,4.79,0.24,7.92c-0.86,9.89-4.62,23.11-5.62,26.48
				c-0.5,1.7-1.01,4.07-1.95,5.96c-0.58,1.17-1.32,2.15-2.38,2.59c-0.39,0.16-0.88-0.09-1.47-0.49c-1.07-0.72-2.33-2.04-3.66-3.63
				c-4.29-5.14-9.18-13.18-10.33-14.91c-0.45-0.68-3.07-4.26-4.07-5.77c-0.1-0.14-0.16-0.27-0.24-0.35
				c-0.07-0.07-0.17-0.06-0.17-0.06s-0.04,0.04-0.03,0.06C487.61,140.73,487.58,140.76,487.55,140.79z"/>
		</g>
		<g transform="matrix(2.31336,0,0,1.52689,-5936.71,0)">
			<path class="st0" d="M491.51,137.74c0.07,0.1,0.17,0.18,0.24,0.31c0.1,0.19,0.11,0.4,0.23,0.64c0.04,0.08,0.1,0.15,0.15,0.22
				c0.47,0.61,1.15,1.29,1.93,2.07c1.61,1.6,3.7,3.55,5.75,5.43c2.16,1.98,4.3,3.87,5.64,5.43c0.16,0.2,0.42,0.21,0.6,0.04
				c0.18-0.17,0.19-0.47,0.03-0.67c-1.26-1.7-3.25-3.87-5.39-5.97c-1.15-1.12-2.34-2.22-3.47-3.24c-1.31-1.2-2.52-2.3-3.46-3.19
				c-0.38-0.36-0.69-0.73-1.01-0.96c-0.19-0.14-0.37-0.13-0.51-0.25c-0.1-0.08-0.15-0.2-0.21-0.29c-0.11-0.16-0.31-0.19-0.45-0.07
				C491.43,137.35,491.4,137.58,491.51,137.74z"/>
		</g>
		<g transform="matrix(2.31336,0,0,1.52689,-5936.71,0)">
			<path class="st0" d="M493.15,134.84l-0.09-0.08c-0.17-0.15-0.3-0.29-0.44-0.38c-0.56-0.36-0.91,0.03-1.07,0.52
				c-0.04,0.18,0.01,0.44,0.24,0.69c0.19,0.2,0.8,0.52,0.86,0.56c2.11,1.16,4.31,2.17,6.55,3.06c2.32,0.92,4.68,1.78,7.04,2.55
				c1.02,0.33,2.04,0.6,3.05,0.91c0.27,0.1,0.57-0.06,0.66-0.36c0.09-0.3-0.05-0.63-0.32-0.74c-0.76-0.37-1.5-0.75-2.28-1.08
				c-3.05-1.27-6.23-2.28-9.3-3.52c-1.64-0.66-3.27-1.34-4.85-2.13L493.15,134.84z M492.51,135.43c-0.11-0.04-0.23-0.07-0.23,0.01
				C492.27,135.62,492.4,135.56,492.51,135.43z"/>
		</g>
		<g transform="matrix(2.31336,0,0,1.52689,-5936.71,0)">
			<path class="st0" d="M492.73,132.35c0.06-0.01,0.12-0.02,0.19-0.03c0.62-0.07,1.54-0.1,2.43-0.13c1.25-0.04,2.41-0.09,2.52-0.1
				c2.87-0.25,5.75-0.4,8.63-0.63c1.23-0.1,2.46-0.24,3.7-0.35c0.37-0.02,0.66-0.37,0.64-0.79c-0.02-0.42-0.33-0.74-0.71-0.72
				c-1.24,0.02-2.48,0.02-3.72,0.07c-2.89,0.13-5.78,0.4-8.66,0.67c-0.19,0.02-3.53,0.16-5.02,0.51c-0.16,0.04-0.31,0.04-0.41,0.12
				c-0.4,0.29-0.46,0.46-0.49,0.63c-0.04,0.2-0.1,0.7,0.6,0.85C492.52,132.49,492.65,132.45,492.73,132.35z"/>
		</g>
		<g transform="matrix(2.31336,0,0,1.52689,-5936.71,0)">
			<path class="st0" d="M409.15,72.84c0.09-0.16,0.06-0.37-0.08-0.48c-0.14-0.12-0.34-0.09-0.45,0.07c-0.3,0.02-0.21,0.2-0.41,0.38
				c-0.05,0.05-0.03,0.09-0.05,0.15c-0.03,0.09,0.01,0.2,0.02,0.3c0.03,0.24,0.14,0.49,0.29,0.75c0.15,0.27,0.41,0.51,0.46,0.77
				c0.31,1.56,0.53,3.17,0.62,4.78c0.09,1.59,0.07,3.18-0.16,4.74c-0.71,4.9-2.55,10.05-5.16,14.64c-2.32,4.08-5.33,7.6-8.7,10.26
				c-0.39,0.31-0.76,0.62-1.15,0.91c-0.3,0.19-0.41,0.61-0.24,0.94c0.17,0.33,0.55,0.45,0.85,0.27c0.45-0.24,0.9-0.48,1.33-0.76
				c3.75-2.46,6.89-6.31,9.38-10.57c2.78-4.78,4.64-10.23,5.38-15.38c0.24-1.71,0.28-3.45,0.15-5.18c-0.13-1.7-0.44-3.39-0.82-5.03
				c-0.12-0.47-0.49-0.97-0.81-1.39c-0.04-0.05-0.17-0.09-0.13-0.13c0.05-0.05-0.17,0.01-0.15,0.08
				C409.32,73.03,409.2,72.86,409.15,72.84z"/>
		</g>
		<g transform="matrix(2.31336,0,0,1.52689,-5936.71,0)">
			<path class="st0" d="M392.53,82.58c-0.01-0.22-0.06-0.4-0.13-0.54c-0.22-0.46-0.68-0.67-1.22-0.57
				c-0.91,0.16-1.94,1.31-1.56,2.54c0.29,0.94,0.97,1.21,1.61,1.08c0.56-0.12,1.11-0.62,1.31-1.33
				C392.67,83.28,392.65,82.89,392.53,82.58z"/>
		</g>
	</g>
</g>
</svg>
