<?xml version="1.0" encoding="utf-8"?>
<!-- Generator: Adobe Illustrator 24.2.0, SVG Export Plug-In . SVG Version: 6.00 Build 0)  -->
<svg version="1.1" id="图层_1" xmlns="http://www.w3.org/2000/svg" xmlns:xlink="http://www.w3.org/1999/xlink" x="0px" y="0px"
	 viewBox="0 0 85.04 85.04" style="enable-background:new 0 0 85.04 85.04;" xml:space="preserve">
<style type="text/css">
	.st0{fill:none;}
	.st1{fill-rule:evenodd;clip-rule:evenodd;}
</style>
<g id="画板1" transform="matrix(0.287322,0,0,0.312434,0,0)">
	<rect x="13.58" y="69.37" class="st0" width="281.52" height="211.03"/>
	<g transform="matrix(3.48041,0,0,3.20068,-3030.47,-3818.3)">
		<path class="st1" d="M906.13,1225.25l-0.01,0c-0.06-0.01-0.05-0.01-0.11,0.02c-0.12,0.07-0.17,0.2-0.25,0.31
			c-0.05,0.07-0.08,0.16-0.11,0.23c-0.61,1.36-0.96,2.77-1.59,4.08c-0.21,0.42-0.45,0.83-0.71,1.24c-0.06,0.1-0.12,0.21-0.18,0.31
			c-0.12,0.14-0.1,0.35,0.04,0.47c0.14,0.12,0.35,0.1,0.47-0.04c0.09-0.08,0.18-0.16,0.26-0.24c0.19-0.21,0.34-0.44,0.49-0.67
			c0.32-0.5,0.56-1.03,0.77-1.57c0.46-1.16,0.87-2.33,1.25-3.55c0.03-0.11,0.08-0.21,0.07-0.33c-0.01-0.06-0.01-0.06-0.05-0.11
			l-0.01-0.01c-0.13-0.15,0.13,0.09-0.06-0.03c0.03-0.06,0.01-0.14-0.06-0.16c-0.06-0.03-0.14-0.01-0.16,0.06
			C906.15,1225.26,906.14,1225.25,906.13,1225.25z"/>
	</g>
	<g transform="matrix(3.48041,0,0,3.20068,-3030.47,-3818.3)">
		<path class="st1" d="M914.22,1228.86l-0.02,0.02c-0.05,0.04-0.04,0.12-0.05,0.18c-0.14,0.58-0.21,1.22-0.21,1.86
			c0,0.36,0.04,0.72,0.09,1.07c0.06,0.38,0.16,0.75,0.31,1.09c0.14,0.25,0.46,0.35,0.71,0.21s0.35-0.46,0.21-0.71
			c-0.13-0.19-0.25-0.39-0.32-0.61c-0.08-0.23-0.13-0.47-0.16-0.71c-0.1-0.69-0.03-1.41,0.02-2.07c0.01-0.07,0.05-0.15,0.01-0.21
			l-0.02-0.03l-0.01,0c-0.04,0-0.1,0-0.14-0.03c0,0,0-0.05-0.01-0.06c-0.01-0.04-0.05-0.08-0.1-0.08c-0.04-0.01-0.09,0.01-0.12,0.05
			c-0.01,0.02-0.01,0.05-0.02,0.05c-0.04,0.01-0.1-0.01-0.14-0.02L914.22,1228.86z"/>
	</g>
	<g transform="matrix(3.48041,0,0,3.20068,-3030.47,-3818.3)">
		<path class="st1" d="M902.95,1230.64l-0.02,0.02c-0.03,0.02-0.01,0.06-0.02,0.1c-0.05,0.39,0.06,0.75,0.21,1.07
			c0.34,0.72,1.06,1.28,1.56,1.88c0.84,1.01,1.7,1.93,2.58,2.82c0.53,0.54,1.07,1.07,1.63,1.6c0.25,0.24,0.51,0.49,0.78,0.72
			c0.11,0.1,0.24,0.19,0.36,0.28c0.14,0.13,0.36,0.13,0.49-0.01c0.13-0.14,0.13-0.36-0.01-0.49c-0.07-0.08-0.13-0.17-0.2-0.25
			c-0.29-0.32-0.6-0.61-0.9-0.9c-0.89-0.88-1.76-1.72-2.61-2.62c-0.51-0.54-1.01-1.09-1.5-1.68c-0.34-0.4-0.79-0.79-1.15-1.23
			c-0.27-0.33-0.48-0.68-0.49-1.12c0-0.04,0.02-0.08,0-0.11l-0.03-0.04c-0.04,0.01-0.11,0.01-0.22-0.02
			c0.01-0.07-0.04-0.13-0.11-0.14c-0.07-0.01-0.13,0.04-0.14,0.11C903.08,1230.66,903,1230.65,902.95,1230.64z"/>
	</g>
	<g transform="matrix(3.48041,0,0,3.20068,-3030.47,-3818.3)">
		<path class="st1" d="M903.28,1229.71c-0.06-0.11-0.01-0.08-0.1-0.16c-0.01-0.01-0.03-0.01-0.05-0.02
			c-0.59-0.13-1.01,0.24-1.28,0.62c-0.38,0.53-0.42,1.36-0.39,2.1c0.05,1.06,0.23,2.21,0.48,3.37c0.37,1.69,0.9,3.4,1.43,4.85
			c0.15,0.41,0.4,1.32,0.8,1.92c0.25,0.39,0.57,0.65,0.92,0.73c0.73,0.16,1.54-0.07,2.29-0.53c0.75-0.45,1.46-1.08,1.98-1.65
			c0.15-0.17,0.28-0.34,0.4-0.49c0.16-0.16,0.15-0.42-0.01-0.58c-0.16-0.16-0.42-0.15-0.58,0.01c-0.14,0.12-0.3,0.24-0.47,0.39
			c-0.52,0.47-1.15,1.06-1.83,1.47c-0.53,0.32-1.08,0.56-1.6,0.46c-0.21-0.04-0.35-0.28-0.49-0.53c-0.29-0.52-0.47-1.19-0.59-1.52
			c-0.44-1.19-0.88-2.55-1.23-3.94c-0.35-1.37-0.61-2.77-0.68-4.03c-0.03-0.48-0.02-1,0.13-1.41c0.11-0.33,0.31-0.58,0.73-0.66
			c0.02,0,0.04,0,0.05-0.01c0.1-0.08,0.02-0.06,0.08-0.17c0.07,0,0.12-0.05,0.12-0.12C903.4,1229.76,903.35,1229.71,903.28,1229.71z
			"/>
	</g>
	<g transform="matrix(3.48041,0,0,3.20068,-3030.47,-3818.3)">
		<path class="st1" d="M915.68,1231.73c-0.02,0.01-0.05,0.04-0.08,0.06c-0.11,0.08-0.1,0.26-0.15,0.4
			c-0.15,0.37-0.34,0.76-0.56,1.18c-0.45,0.85-1.04,1.78-1.67,2.61c-0.57,0.76-1.2,1.41-1.73,1.93c-0.16,0.16-0.3,0.32-0.44,0.45
			c-0.16,0.11-0.2,0.32-0.09,0.48c0.11,0.16,0.32,0.2,0.48,0.09c0.18-0.09,0.36-0.19,0.55-0.32c0.07-0.05,0.14-0.11,0.21-0.17
			c0.74-0.65,1.53-1.61,2.24-2.63c0.53-0.77,1.02-1.58,1.36-2.34c0.18-0.39,0.32-0.76,0.42-1.11c0.04-0.14,0.15-0.28,0.09-0.39
			c-0.01-0.03-0.02-0.05-0.03-0.07c-0.12-0.27,0.2,0.14-0.18-0.03c0.02-0.07-0.02-0.14-0.09-0.16c-0.07-0.02-0.14,0.02-0.16,0.09
			C915.5,1231.79,915.81,1231.62,915.68,1231.73z"/>
	</g>
	<g transform="matrix(3.48041,0,0,3.20068,-3030.47,-3818.3)">
		<path class="st1" d="M916.14,1241.73c-0.04,0-0.14,0.01-0.22,0c-0.37-0.06-0.85-0.26-1.36-0.5c-1.2-0.55-2.55-1.33-3.04-1.53
			c-0.16-0.07-0.35,0-0.42,0.16c-0.07,0.16,0,0.35,0.16,0.42c0.39,0.2,1.32,0.86,2.3,1.42c0.59,0.34,1.21,0.63,1.71,0.8
			c0.38,0.13,0.72,0.18,0.97,0.15c0.27-0.03,0.47-0.14,0.61-0.32c0.74-0.9,1.11-2.18,1.26-3.54c0.06-0.54,0.09-1.09,0.08-1.64
			c-0.02-1.39-0.21-2.73-0.31-3.73c-0.13-1.09-0.47-2.17-1.17-2.75c-0.42-0.35-0.95-0.58-1.59-0.46c-0.13,0.02-0.25,0.07-0.38,0.13
			c-0.07,0.01-0.11,0.08-0.1,0.14c0.01,0.07,0.07,0.11,0.14,0.1c0.13,0.01,0.24,0.04,0.35,0.05c0.48,0.07,0.83,0.24,1.1,0.54
			c0.15,0.17,0.27,0.37,0.38,0.6c0.23,0.5,0.34,1.11,0.36,1.72c0.05,0.98,0.14,2.3,0.14,3.66c0,0.51-0.01,1.03-0.05,1.53
			C916.97,1239.86,916.73,1240.95,916.14,1241.73z"/>
	</g>
	<g transform="matrix(3.48041,0,0,3.20068,-3030.47,-3818.3)">
		<path class="st1" d="M908.79,1240.9c-0.17,0.09-0.12,0-0.25,0.14c-0.02,0.02-0.02,0.04-0.03,0.06c-0.04,0.15-0.03,0.3-0.04,0.45
			c-0.13,1.59-0.44,3.1-0.6,4.67c-0.04,0.36-0.12,0.72-0.05,1.08c0.01,0.05,0.04,0.08,0.06,0.13c-0.02,0.21,0.13,0.4,0.35,0.42
			c0.21,0.02,0.4-0.13,0.42-0.35c0.03-0.04,0.06-0.06,0.08-0.1c0.01-0.02,0.01-0.05,0.02-0.07c0.05-0.24,0.1-0.48,0.14-0.72
			c0.06-0.36,0.09-0.73,0.14-1.09c0.1-0.86,0.19-1.72,0.25-2.59c0.04-0.6,0.16-1.21,0.03-1.81c-0.01-0.02-0.01-0.04-0.02-0.06
			c-0.12-0.14-0.08-0.05-0.24-0.14c0-0.07-0.05-0.12-0.12-0.12C908.84,1240.78,908.79,1240.83,908.79,1240.9z"/>
	</g>
	<g transform="matrix(3.48041,0,0,3.20068,-3030.47,-3818.3)">
		<path class="st1" d="M910.36,1242.57l-0.05,0.04c-0.02,0.01-0.02,0.05-0.02,0.07c0,0.04,0.01,0.07,0.02,0.11
			c-0.02,0.28,0.19,0.52,0.46,0.55c0.28,0.02,0.52-0.18,0.55-0.46c0.01-0.03,0.03-0.05,0.04-0.08c0-0.02,0.01-0.04-0.01-0.06
			l-0.03-0.04c-0.08,0.01-0.19-0.01-0.36-0.05c0.01-0.07-0.04-0.13-0.11-0.14c-0.07-0.01-0.13,0.04-0.14,0.11
			C910.55,1242.61,910.44,1242.59,910.36,1242.57z"/>
	</g>
	<g transform="matrix(3.48041,0,0,3.20068,-3030.47,-3818.3)">
		<path class="st1" d="M910.19,1247.31c0-0.01,0.04,0-0.03,0.01c-0.01,0-0.02,0.02-0.03,0.03c-0.1,0.11-0.13,0.26-0.18,0.41
			c-0.07,0.25,0.09,0.51,0.34,0.58c0.25,0.07,0.51-0.09,0.58-0.34c0.01-0.05,0.05-0.09,0.05-0.14c-0.01-0.08-0.01-0.13-0.02-0.16
			c-0.01-0.18,0.07,0.3-0.24-0.08c0.04-0.05,0.03-0.13-0.02-0.17c-0.05-0.04-0.13-0.03-0.17,0.02l-0.09-0.05l-0.06-0.03
			C910.32,1247.37,910.22,1247.34,910.19,1247.31L910.19,1247.31z"/>
	</g>
	<g transform="matrix(3.48041,0,0,3.1105,-2970.47,-3721.67)">
		<path class="st1" d="M884.3,1236.83c-0.18-0.01-0.36-0.02-0.54-0.02c-0.42,0.01-0.84,0.07-1.26,0.14
			c-0.59,0.11-1.17,0.26-1.75,0.47c-1.54,0.54-3.05,1.39-4.46,2.43c-0.9,0.66-1.76,1.41-2.57,2.22c-3.05,3.02-5.4,6.84-6.39,10.31
			c-0.33,1.15-0.56,2.32-0.73,3.5c-0.26,1.74-0.4,3.5-0.59,5.26c-0.32,2.94-0.21,7,1.14,10.09c0.38,0.88,0.85,1.68,1.46,2.36
			c0.9,1,2.07,1.71,3.54,2c0.14,0.03,0.28-0.06,0.31-0.2c0.03-0.14-0.06-0.28-0.19-0.32c-1.31-0.35-2.3-1.07-3.09-2.01
			c-0.53-0.63-0.97-1.36-1.32-2.16c-1.28-2.97-1.36-6.86-1.04-9.68c0.2-1.75,0.34-3.5,0.6-5.23c0.17-1.14,0.39-2.27,0.71-3.39
			c0.96-3.35,3.24-7.02,6.18-9.94c0.78-0.78,1.62-1.5,2.48-2.15c1.34-1.02,2.76-1.85,4.21-2.44c0.54-0.22,1.09-0.42,1.64-0.57
			c0.39-0.11,0.79-0.21,1.18-0.3c0.17-0.04,0.34-0.09,0.51-0.12c0.07-0.01,0.12-0.07,0.12-0.14
			C884.43,1236.87,884.37,1236.82,884.3,1236.83z"/>
	</g>
	<g transform="matrix(3.48041,0,0,3.20068,-3030.47,-3818.3)">
		<path class="st1" d="M890.61,1269.39c-0.01-0.01-0.02-0.03-0.03-0.04c-0.05-0.04-0.13-0.03-0.17,0.02
			c-0.11,0.15-0.04,0.21,0.05,0.29c0.06,0.06,0.12,0.12,0.26,0.16c0.12,0.04,0.25,0.01,0.3,0.02l2.4,0.31
			c1.28,0.09,2.61,0.22,3.93,0.23c0.45,0,0.89,0,1.33-0.04c0.45-0.04,0.89-0.12,1.33-0.21c0.2-0.03,0.34-0.23,0.31-0.43
			c-0.03-0.2-0.23-0.34-0.43-0.31c-0.42,0.05-0.84,0.07-1.26,0.09c-0.42,0.02-0.85,0.04-1.27,0.04c-1.3,0.01-2.62-0.09-3.89-0.15
			c-0.57-0.02-1.12-0.1-1.69-0.12c-0.25-0.01-0.5,0-0.76,0.02c-0.06,0.01-0.2,0.02-0.32,0.06
			C890.66,1269.36,890.63,1269.37,890.61,1269.39z"/>
	</g>
	<g transform="matrix(3.48041,0,0,3.20068,-3030.47,-3818.3)">
		<path class="st1" d="M918.55,1234.5c-0.06,0.08-0.05,0.17,0.16,0.13l0.01,0c0.02,0.01,0.05,0.07,0.08,0.07
			c-0.01,0-0.02,0.01-0.02,0c0.01,0.05,0.01,0.09,0.03,0.14c0.03,0.05,0.08,0.09,0.12,0.13c0.25,0.26,0.54,0.47,0.79,0.76
			c0.57,0.59,1.15,1.07,1.68,1.63c0.21,0.22,0.42,0.46,0.62,0.73c1.2,1.63,2.12,3.11,2.85,4.7c0.37,0.81,0.69,1.65,0.98,2.55
			c0.22,0.67,0.4,1.37,0.61,2.11c0.05,0.18,0.11,0.35,0.17,0.53c0.04,0.17,0.2,0.29,0.38,0.25c0.17-0.04,0.29-0.2,0.25-0.38
			c-0.02-0.19-0.03-0.38-0.06-0.57c-0.12-0.79-0.31-1.52-0.52-2.21c-0.28-0.95-0.62-1.82-1.02-2.66c-0.76-1.63-1.75-3.14-3.01-4.8
			c-0.3-0.39-0.61-0.72-0.95-1.04c-0.48-0.45-0.99-0.85-1.5-1.34c-0.15-0.14-0.29-0.27-0.45-0.39c-0.18-0.13-0.36-0.25-0.54-0.38
			c-0.02-0.01-0.04-0.03-0.07-0.04c-0.04-0.01-0.06,0-0.1-0.01c-0.08-0.04-0.24-0.06-0.3-0.06l-0.02,0
			C918.49,1234.3,918.48,1234.39,918.55,1234.5z"/>
	</g>
	<g transform="matrix(3.48041,0,0,3.20068,-2961.97,-3862.16)">
		<path class="st1" d="M873.86,1255.03c0.03,0.04,0.07,0.1,0.05,0.18c-0.02,0.09-0.08,0.03-0.11,0.13c-0.02,0.09,0.04,0.2,0.06,0.31
			c0.19,0.91,0.51,2.44,0.59,2.82c0.34,1.4,0.61,2.79,0.85,4.19c0.24,1.4,0.46,2.8,0.62,4.23c0.02,0.22,0.22,0.37,0.44,0.35
			c0.22-0.02,0.38-0.22,0.35-0.44c-0.15-1.45-0.33-2.87-0.58-4.29c-0.25-1.42-0.58-2.82-0.96-4.23c-0.11-0.37-0.49-1.89-0.76-2.77
			c-0.04-0.12-0.03-0.24-0.1-0.31c-0.08-0.08-0.1,0.01-0.16-0.06c-0.07-0.08-0.05-0.18-0.07-0.23c-0.02-0.05-0.05-0.08-0.06-0.09
			c-0.07-0.06-0.19-0.09-0.21,0.09C873.8,1254.96,873.82,1255.01,873.86,1255.03z M874.04,1254.95c-0.01,0.02-0.02,0.05-0.03,0.06
			C874.03,1255,874.04,1254.98,874.04,1254.95z"/>
	</g>
	<g transform="matrix(3.41645,0,0,2.86588,-2945.57,-3331.95)">
		<path class="st1" d="M913.97,1216.87c-0.02,0.02-0.02,0.07-0.01,0.12c0.03,0.23,0.21,0.6,0.24,0.71c0.07,0.25,0.13,0.49,0.17,0.74
			c0.07,0.39,0.13,0.79,0.2,1.18c0.13,0.7,0.21,1.39,0.25,2.08c0.05,0.74,0.05,1.48,0.08,2.23c0.01,0.32,0.04,0.64,0.05,0.97
			c0,0.19,0.14,0.34,0.31,0.34s0.31-0.15,0.31-0.34c0.02-0.36,0.04-0.72,0.05-1.08c0.01-0.55-0.01-1.09-0.04-1.63
			c-0.05-0.91-0.15-1.81-0.35-2.72c-0.09-0.4-0.16-0.79-0.26-1.18c-0.07-0.27-0.14-0.54-0.24-0.8c-0.04-0.11-0.2-0.53-0.32-0.74
			c-0.01-0.01-0.01-0.03-0.03-0.04c-0.05-0.04-0.06,0-0.1-0.03c-0.08-0.06-0.11-0.13-0.14-0.14c-0.09-0.04-0.19-0.02-0.23,0.16
			C913.91,1216.77,913.93,1216.83,913.97,1216.87z M914.25,1216.81c0.01-0.01,0.01-0.03,0.01-0.05
			C914.26,1216.78,914.25,1216.8,914.25,1216.81z"/>
	</g>
	<g transform="matrix(3.48041,0,0,3.20068,-3066.78,-3777.05)">
		<path class="st1" d="M902.22,1246.7c0.03,0.03,0.11,0.05,0.21,0.08c0.24,0.06,0.68,0.07,1.34,0.16c0.32,0.04,0.64,0.1,0.96,0.16
			c0.76,0.15,1.52,0.35,2.26,0.51c1.48,0.31,2.97,0.57,4.45,0.9c0.97,0.22,1.93,0.47,2.87,0.81c0.81,0.27,1.54,0.72,2.34,1.02
			c0.21,0.08,0.43,0.13,0.65,0.19c0.18,0.06,0.37-0.04,0.43-0.22c0.06-0.18-0.04-0.37-0.22-0.43c-0.2-0.09-0.39-0.19-0.58-0.29
			c-0.47-0.23-0.94-0.47-1.41-0.7c-0.31-0.15-0.62-0.28-0.93-0.4c-0.97-0.33-1.97-0.58-2.98-0.8c-1.49-0.31-3-0.54-4.48-0.82
			c-0.64-0.12-1.3-0.27-1.96-0.39c-0.45-0.08-0.9-0.14-1.35-0.17c-0.69-0.04-1.14-0.11-1.39-0.04c-0.09,0.03-0.12,0.08-0.18,0.1
			c-0.08,0.03-0.13,0.03-0.16,0.05c-0.11,0.08-0.13,0.14-0.07,0.21c0.01,0.02,0.03,0.05,0.07,0.06
			C902.14,1246.71,902.18,1246.71,902.22,1246.7z M902.25,1246.49L902.25,1246.49L902.25,1246.49L902.25,1246.49L902.25,1246.49z"/>
	</g>
	<g transform="matrix(3.48041,0,0,3.20068,-3030.47,-3818.3)">
		<path class="st1" d="M904.48,1264.21c0.01,0.01,0.03,0.02,0.07,0.03c0.06,0.01,0.15-0.02,0.24-0.04c0.16-0.04,0.31-0.09,0.35-0.1
			c0.25-0.06,0.51-0.1,0.78-0.13c0.27-0.03,0.55-0.04,0.8-0.03c0.18,0,0.33-0.15,0.33-0.33c0-0.18-0.15-0.33-0.33-0.33
			c-0.28,0.01-0.58,0.03-0.87,0.07c-0.3,0.04-0.59,0.1-0.86,0.18c-0.05,0.01-0.22,0.06-0.39,0.14c-0.1,0.05-0.2,0.09-0.24,0.15
			c-0.11,0.14-0.11,0.16-0.11,0.21c0,0.05-0.02,0.2,0.18,0.19C904.45,1264.22,904.46,1264.22,904.48,1264.21z"/>
	</g>
	<g transform="matrix(3.48041,0,0,2.77931,-3030.47,-3112.22)">
		<path class="st1" d="M904.3,1202.17c0.04-0.01,0.08-0.05,0.09-0.1c0.02-0.07-0.02-0.15-0.08-0.18c-0.09-0.03-0.12,0.06-0.24,0.18
			c-0.07,0.07-0.05-0.02-0.13,0.06c-0.02,0.02-0.02,0.06-0.03,0.09c-0.09,0.33-0.08,0.95-0.12,1.19c-0.11,0.76-0.24,1.55-0.31,2.33
			c-0.02,0.21-0.04,0.42-0.05,0.63c-0.01,0.32,0,0.65,0.02,0.96c0,0.19,0.14,0.35,0.31,0.35c0.17,0,0.31-0.16,0.31-0.35
			c0.02-0.31,0.05-0.63,0.08-0.95c0.03-0.32,0.05-0.63,0.07-0.95c0.06-0.65,0.13-1.3,0.2-1.92c0.02-0.25-0.02-0.86,0-1.21
			c0-0.02,0.01-0.04,0-0.05C904.37,1202.15,904.32,1202.28,904.3,1202.17C904.3,1202.17,904.3,1202.17,904.3,1202.17z"/>
	</g>
	<g transform="matrix(3.4801,0.0427064,-0.0464388,3.20039,-2881.39,-3860.73)">
		<path class="st1" d="M866.98,1252.24l0,0.01c0.01,0.03,0,0.07,0.04,0.15c0.04,0.09,0.13,0.22,0.23,0.39
			c0.21,0.34,0.54,0.85,0.93,1.56c0.39,0.68,0.71,1.38,0.99,2.1c0.43,1.09,0.79,2.22,1.16,3.34c0.06,0.17,0.25,0.27,0.42,0.21
			c0.17-0.06,0.27-0.25,0.21-0.42c-0.38-1.14-0.72-2.28-1.16-3.38c-0.3-0.74-0.64-1.47-1.06-2.18c-0.44-0.71-0.79-1.22-1.04-1.55
			c-0.13-0.16-0.22-0.29-0.3-0.36C866.47,1251.37,866.17,1251.87,866.98,1252.24z"/>
	</g>
	<g transform="matrix(3.48041,0,0,3.20068,-3030.47,-3818.3)">
		<path class="st1" d="M905.11,1261.67c-0.03,0.12-0.02,0.23,0.1,0.29l-0.01,0c0.21,0.09,0.65,0.43,1.01,0.77
			c0.16,0.15,0.31,0.3,0.41,0.43c0.05,0.07,0.09,0.12,0.1,0.17c0,0.02,0.02,0.13,0.02,0.16l0,0.01c-0.01,0.15,0.05,0.17,0.12,0.14
			c0.07,0.04,0.14,0.02,0.13-0.15l0-0.01c0-0.03,0.02-0.14,0.02-0.16c0.02-0.22-0.16-0.59-0.43-0.95c-0.36-0.45-0.87-0.87-1.1-1
			c-0.04-0.02-0.09-0.03-0.14-0.03c0,0-0.05,0.01-0.07,0.01C905.09,1261.41,905.07,1261.54,905.11,1261.67z"/>
	</g>
	<g transform="matrix(3.48041,0,0,3.20068,-3030.47,-3818.3)">
		<path class="st1" d="M905.41,1261.64l-0.01,0.01c-0.05,0.05-0.05,0.12-0.01,0.17c0.05,0.05,0.12,0.05,0.17,0.01l0.01-0.01
			c0.05-0.05,0.05-0.12,0.01-0.17C905.54,1261.6,905.46,1261.6,905.41,1261.64z"/>
	</g>
	<g transform="matrix(3.48041,0,0,3.20068,-3030.47,-3818.3)">
		<path class="st1" d="M905.79,1261.7c0.03-0.01,0.06-0.04,0.08-0.09c0.05-0.11,0.07-0.37,0.15-0.33c0.01,0.01-0.02-0.03-0.03-0.02
			c-0.01,0.03-0.04,0.01-0.07,0c0.1-0.01,0.18-0.1,0.18-0.21c0-0.11-0.09-0.21-0.21-0.21c-0.08-0.04-0.17,0.02-0.3,0.11
			c-0.02,0.01-0.03,0.04-0.05,0.06c-0.07,0.11-0.13,0.27-0.14,0.42c0,0.03-0.01,0.06,0,0.09c0.02,0.11,0.05,0.18,0.08,0.24
			c0.08,0.13,0.13,0.21,0.25,0.15c0.07-0.02,0.1-0.09,0.09-0.15C905.82,1261.73,905.81,1261.71,905.79,1261.7z"/>
	</g>
	<g transform="matrix(3.48041,0,0,3.20068,-3030.47,-3818.3)">
		<path class="st1" d="M906,1261.54c0.05,0.05,0.13,0.15,0.27,0.24c0.11,0.07,0.25,0.12,0.4,0.19c0.3,0.13,0.64,0.29,0.93,0.42
			c0.1,0.04,0.19,0.08,0.28,0.11c0.11,0.04,0.19,0.03,0.25,0.06c0.1,0.1,0.27,0.1,0.38,0c0.1-0.1,0.1-0.27,0-0.38
			c-0.05-0.09-0.15-0.19-0.3-0.31c-0.06-0.05-0.13-0.09-0.21-0.13c-0.36-0.19-0.86-0.36-1.27-0.46c-0.12-0.03-0.23-0.06-0.32-0.06
			c-0.18-0.01-0.28,0.05-0.36,0.05c-0.73,0.01-0.95-0.07-0.08,0.28C905.98,1261.54,905.99,1261.54,906,1261.54z"/>
	</g>
	<g transform="matrix(3.48041,0,0,3.20068,-3030.47,-3818.3)">
		<path class="st1" d="M909.21,1263.1c0.02,0,0.03,0,0.05,0c0.07-0.01,0.11-0.08,0.09-0.15c0.02-0.08-0.03-0.11-0.05-0.16
			c-0.01-0.02-0.04-0.02-0.05-0.04c-0.06-0.08-0.17-0.05-0.36,0.02c-0.04,0.02-0.08,0.05-0.12,0.09c-0.36,0.3-0.85,1.13-0.9,1.22
			c-0.18,0.34-0.66,1.93-0.82,3.14c-0.06,0.48-0.09,0.92-0.02,1.18c0.06,0.2,0.14,0.34,0.24,0.4c0.12,0.12,0.3,0.12,0.42,0
			c0.12-0.12,0.12-0.31,0-0.42c0.01,0.01,0.05-0.01,0.03,0c-0.03,0,0.01-0.05,0.01-0.09c0-0.09,0-0.21,0.01-0.33
			c0.02-0.4,0.1-0.95,0.2-1.49c0.18-0.92,0.41-1.84,0.53-2.08c0.03-0.08,0.43-0.83,0.68-1.16c0.02-0.02,0.03-0.05,0.04-0.07
			C909.21,1263.14,909.2,1263.1,909.21,1263.1C909.21,1263.11,909.21,1263.11,909.21,1263.1z M909.18,1263.09
			c-0.03-0.02-0.06-0.05-0.06-0.08c-0.01-0.01-0.02,0-0.02,0s0,0.03,0.01,0.03C909.13,1263.05,909.15,1263.1,909.18,1263.09z"/>
	</g>
	<g transform="matrix(3.15476,0,0,3.34621,-2639,-4068.61)">
		<path class="st1" d="M883.76,1270.37c0.01-0.01,0.01-0.01,0.01-0.02c0.03-0.06-0.01-0.13-0.08-0.15c-0.01-0.01-0.11-0.01-0.21,0.1
			c-0.04,0.05-0.14,0.14-0.22,0.3c-0.41,0.82-0.89,3.04-0.94,3.21c-0.89,3.37-2.13,6.54-3.01,9.85c-0.37,1.41-0.67,2.85-0.87,4.34
			c-0.03,0.18,0.12,0.34,0.33,0.37c0.21,0.02,0.4-0.1,0.42-0.28c0.24-1.46,0.58-2.86,0.96-4.25c0.9-3.31,2.04-6.5,2.9-9.88
			c0.04-0.18,0.67-2.35,0.75-3.24c0.01-0.17-0.03-0.28-0.03-0.34C883.77,1270.38,883.77,1270.37,883.76,1270.37L883.76,1270.37z
			 M883.72,1270.41c-0.02,0.01-0.05,0.02-0.07,0.02C883.68,1270.43,883.7,1270.43,883.72,1270.41L883.72,1270.41z"/>
	</g>
	<g transform="matrix(3.26479,0,0,3.34621,-2795.42,-4068.61)">
		<path class="st1" d="M933.43,1270.16c0.22,0.53,0.12,1.34-0.07,2.2c-0.31,1.38-0.91,2.87-1.2,3.65
			c-1.48,4.05-2.13,7.25-3.34,10.92c-0.28,0.86-0.59,1.75-0.95,2.68c-0.07,0.16,0.03,0.34,0.21,0.4c0.18,0.06,0.38-0.03,0.45-0.19
			c0.59-1.43,1.07-2.76,1.49-4.05c1.01-3.1,1.71-5.97,3.06-9.49c0.35-0.93,1.13-2.83,1.38-4.41c0.13-0.85,0.11-1.62-0.15-2.15
			c-0.07-0.15-0.23-0.3-0.51-0.39c-0.29-0.1-0.77-0.16-1.37-0.18c-1.98-0.06-5.35,0.31-6.13,0.31c-3.46,0.01-6.51-0.54-9.71-0.67
			c-1.38-0.05-2.78-0.03-4.25,0.15c-2.67,0.32-5.53-0.28-8.25-0.09c-0.5,0.04-1.01,0.05-1.48,0.2c-0.21,0.07-0.39,0.17-0.58,0.28
			c-0.07,0.02-0.11,0.08-0.09,0.14c0.02,0.06,0.09,0.1,0.16,0.08c0.22,0,0.41,0.03,0.63,0.03c0.24-0.01,0.48-0.05,0.72-0.07
			c0.56-0.05,1.13-0.07,1.7-0.06c2.43,0.04,4.93,0.49,7.3,0.25c1.42-0.15,2.78-0.15,4.11-0.08c3.21,0.16,6.28,0.72,9.76,0.73
			c0.6,0,2.75-0.22,4.61-0.29c0.79-0.03,1.53-0.04,2.07,0.01C933.13,1270.08,933.35,1270.14,933.43,1270.16z"/>
	</g>
	<g transform="matrix(3.15476,0,0,3.20827,-2639,-3829.81)">
		<path class="st1" d="M878.46,1271.02c-0.07,0-0.11,0.05-0.11,0.11c-0.05,0.11,0.05,0.19,0.17,0.14c0.01,0,0.01,0,0.01,0
			c0.02,0,0.04,0.01,0.07,0.01c0.04,0,0.1,0.01,0.16,0.01c0.22-0.01,0.53-0.07,0.63-0.08c0.34-0.05,0.7-0.08,1.05-0.1
			c0.35-0.02,0.71-0.03,1.05-0.02l6.55,0.11c4.63,0.02,9.22,0.33,13.84,0.46c1.16,0.03,2.32,0.05,3.48,0.05
			c0.57-0.01,2.79,0.19,4.07,0.06c0.44-0.04,0.78-0.13,0.96-0.23c0.23-0.14,0.33-0.3,0.31-0.47c0-0.2-0.18-0.36-0.4-0.36
			c-0.14,0-0.27,0.07-0.34,0.17c-0.03,0-0.1,0.01-0.15,0.02c-1.05,0.14-3.81-0.1-4.44-0.1c-4.63,0.01-9.23-0.28-13.84-0.37
			c-1.16-0.02-2.32-0.03-3.48-0.02l-6.55,0.11c-0.36,0.01-0.74,0.03-1.11,0.07c-0.37,0.04-0.74,0.1-1.09,0.17
			c-0.1,0.02-0.42,0.09-0.63,0.17c-0.06,0.02-0.11,0.05-0.15,0.07C878.5,1271,878.48,1271.01,878.46,1271.02z M909.92,1270.96
			l-0.01,0.03l0,0.02C909.91,1270.99,909.92,1270.98,909.92,1270.96z"/>
	</g>
	<g transform="matrix(3.48041,0,0,3.20068,-3030.47,-3818.3)">
		<path class="st1" d="M908.06,1270.28c-0.06-0.05-0.13-0.08-0.22-0.08c-0.18,0-0.32,0.14-0.32,0.32c-0.01,0.18,0.06,0.29,0.14,0.37
			c0.09,0.09,0.22,0.13,0.39,0.12c0.09-0.01,0.2-0.04,0.32-0.1c0.25-0.13,0.53-0.4,0.72-0.71c0.21-0.34,0.29-0.73,0.14-1.06
			c-0.09-0.19-0.25-0.38-0.53-0.51c-0.58-0.27-1.16,0.01-1.49,0.52c-0.18,0.27-0.29,0.59-0.29,0.85c-0.01,0.33,0.11,0.56,0.35,0.59
			c0.07,0.02,0.13-0.02,0.15-0.09c0.02-0.07-0.02-0.13-0.09-0.15c-0.06-0.03-0.04-0.11-0.03-0.19c0.02-0.11,0.08-0.22,0.15-0.34
			c0.06-0.11,0.13-0.22,0.22-0.32c0.19-0.23,0.45-0.44,0.74-0.29c0.16,0.09,0.24,0.19,0.23,0.31c-0.02,0.3-0.33,0.6-0.56,0.75
			C908.07,1270.26,908.06,1270.27,908.06,1270.28z M908,1270.32c-0.03-0.02-0.05-0.02-0.04,0.01
			C907.96,1270.35,907.98,1270.34,908,1270.32z"/>
	</g>
	<g transform="matrix(3.48041,0,0,3.20068,-3030.47,-3818.3)">
		<path class="st1" d="M900.06,1270.07c-0.02,0-0.04,0-0.07,0.01c-0.01,0-0.11,0.2,0.06,0.24c0.02,0.01,0.08-0.01,0.14,0.03
			c0.06,0.05-0.01,0.06,0.06,0.11c0.43,0.28,1.73,0.17,2.04,0.19c1.1,0.02,2.2,0.09,3.3,0.1c0.48,0.01,0.95-0.01,1.42-0.03
			c0.21,0,0.38-0.17,0.38-0.38c0-0.21-0.17-0.38-0.38-0.38c-0.63-0.01-1.25-0.05-1.88-0.07c-0.95-0.02-1.89-0.01-2.84,0.01
			c-0.31,0.02-1.56-0.19-2.02,0.04c-0.08,0.04-0.02,0.08-0.09,0.11c-0.05,0.03-0.1,0.01-0.12,0.01
			C900.07,1270.06,900.06,1270.07,900.06,1270.07z"/>
	</g>
	<g transform="matrix(3.48041,0,0,3.20068,-3030.47,-3818.3)">
		<path class="st1" d="M899.7,1269.46c-0.02-0.05-0.04-0.1-0.03-0.15c0.02-0.07,0.1-0.07,0.18-0.1c0.03-0.01,0.07-0.03,0.1-0.04
			c0.29-0.09,0.71-0.05,0.9,0.01c0.79,0.22,1.68,0.29,2.59,0.29c1.03,0.01,2.09-0.05,3.04-0.11c0.26-0.02,0.5-0.04,0.74-0.05
			c0.2,0,0.36-0.16,0.36-0.36c0-0.2-0.16-0.36-0.36-0.36c-0.29-0.01-0.59-0.02-0.9-0.01c-1.11,0.04-2.34,0.19-3.5,0.19
			c-0.63,0-1.25-0.04-1.81-0.17c-0.32-0.06-1.08-0.03-1.4,0.26c-0.13,0.12-0.19,0.26-0.18,0.42c0.01,0.08,0.01,0.17,0.06,0.27
			c0.03,0.06,0.1,0.09,0.16,0.06C899.7,1269.59,899.73,1269.52,899.7,1269.46z"/>
	</g>
	<g transform="matrix(3.48041,0,0,3.20068,-3030.47,-3818.3)">
		<path class="st1" d="M908.71,1264.13c0.01,0.04,0.05,0.08,0.11,0.08c0.13,0,0.32-0.05,0.5-0.08c0.19-0.03,0.35-0.08,0.43-0.1
			c0.19-0.1,0.27-0.33,0.18-0.53c-0.1-0.19-0.33-0.27-0.53-0.18c-0.11,0.07-0.61,0.16-0.79,0.33c-0.14,0.13-0.2,0.19-0.18,0.27
			c0.02,0.09-0.06,0.14,0.01,0.17c0.02,0.01,0.01,0.04,0.04,0.05c0.03,0,0.03,0.04,0.07,0.03c0.06,0.04,0.13,0.02,0.17-0.04
			C908.71,1264.14,908.71,1264.13,908.71,1264.13z M908.73,1264.01c-0.01-0.01-0.04-0.03-0.04-0.05c0-0.01-0.02,0.01-0.02,0.01
			c0.02,0.01,0.03,0.03,0.04,0.05C908.72,1264.01,908.73,1264.01,908.73,1264.01z"/>
	</g>
	<g transform="matrix(3.48041,0,0,3.20068,-3076.13,-3811.66)">
		<path class="st1" d="M940.16,1257.13c-0.11-0.06-0.18-0.26-0.33-0.42c-0.07-0.08-0.16-0.13-0.25-0.18
			c-0.17-0.09-0.36-0.11-0.55-0.06c-0.32,0.09-0.64,0.28-0.93,0.53c-0.39,0.35-0.71,0.82-0.87,1.3c-0.23,0.66-0.17,1.33,0.32,1.82
			c0.19,0.19,0.54,0.57,0.93,0.76c0.32,0.15,0.66,0.2,1,0.02c0.11-0.06,0.21-0.12,0.31-0.2c0.31-0.25,0.55-0.61,0.9-0.82
			c0.12-0.06,0.17-0.2,0.11-0.32c-0.06-0.12-0.2-0.17-0.32-0.11c-0.16,0.07-0.31,0.16-0.46,0.26c-0.29,0.2-0.54,0.46-0.84,0.59
			c-0.18,0.09-0.36,0-0.52-0.11c-0.26-0.17-0.49-0.43-0.62-0.56c-0.38-0.37-0.28-0.93-0.02-1.42c0.13-0.25,0.32-0.49,0.52-0.69
			c0.21-0.21,0.45-0.38,0.69-0.47c0.04-0.02,0.08-0.01,0.12,0c0.05,0.02,0.11,0.05,0.16,0.08c0.22,0.12,0.43,0.24,0.58,0.25
			c0.07,0.02,0.14-0.02,0.16-0.09S940.23,1257.15,940.16,1257.13z"/>
	</g>
	<g transform="matrix(3.48041,0,0,3.20068,-3076.13,-3811.66)">
		<path class="st1" d="M940.55,1257.36c0.03-0.1,0.16-0.14,0.31-0.21c0.19-0.08,0.43-0.13,0.68-0.16c0.12-0.01,0.25-0.01,0.37-0.01
			c0.18,0,0.35,0.02,0.49,0.08c0.02,0.01,0.04,0.02,0.07,0.03c0.05,0.01,0.08-0.01,0.13,0.01c0.07,0.07,0.19,0.07,0.26,0
			c0.07-0.07,0.07-0.19,0-0.26c-0.03-0.08-0.06-0.13-0.11-0.19c-0.03-0.03-0.08-0.05-0.12-0.07c-0.2-0.1-0.45-0.15-0.72-0.15
			c-0.15,0-0.3,0.02-0.45,0.06c-0.24,0.05-0.48,0.13-0.66,0.24c-0.31,0.18-0.5,0.4-0.49,0.6c-0.01,0.07,0.04,0.13,0.11,0.14
			C940.48,1257.47,940.54,1257.42,940.55,1257.36z"/>
	</g>
	<g transform="matrix(3.48041,0,0,3.20068,-3076.13,-3811.66)">
		<path class="st1" d="M942.67,1257.02c-0.08-0.05-0.15-0.07-0.22-0.09c-0.32-0.06-0.61,0.15-0.82,0.43
			c-0.33,0.43-0.46,1.12-0.3,1.61c0.16,0.47,0.57,0.84,1.25,0.63c0.15-0.05,0.31-0.13,0.49-0.25c0.11-0.06,0.16-0.19,0.1-0.31
			c-0.06-0.11-0.2-0.16-0.31-0.1c-0.13,0.04-0.25,0.05-0.35,0.07c-0.49,0.1-0.68-0.17-0.7-0.54c-0.03-0.46,0.13-1.01,0.48-1.16
			c0.04-0.02,0.09-0.03,0.14-0.04c0.05-0.01,0.1-0.03,0.16-0.03c0.06,0.02,0.13-0.02,0.15-0.08
			C942.78,1257.11,942.74,1257.04,942.67,1257.02z"/>
	</g>
	<g transform="matrix(3.48041,0,0,3.20068,-3076.13,-3811.66)">
		<path class="st1" d="M942.81,1259.43c-0.01-0.01-0.01-0.02,0-0.04c0.01-0.01-0.03-0.04,0-0.06c-0.03,0.02-0.05,0.02-0.08,0.05
			c-0.15,0.15-0.21,0.35-0.35,0.51c-0.16,0.22-0.45,0.24-0.72,0.19c-0.17-0.03-0.32-0.1-0.45-0.2c-0.06-0.05-0.12-0.1-0.16-0.16
			c-0.01-0.02-0.04-0.02-0.05-0.04c-0.05-0.14-0.19-0.21-0.33-0.16c-0.14,0.05-0.21,0.19-0.16,0.33c0,0.05,0,0.08,0.01,0.13
			c0.03,0.16,0.15,0.29,0.28,0.4c0.2,0.18,0.48,0.29,0.77,0.33c0.5,0.07,1.02-0.1,1.28-0.52c0.07-0.15,0.13-0.29,0.18-0.44
			c0.02-0.07,0.06-0.14,0.07-0.22c0-0.03-0.01-0.04-0.01-0.07c-0.01-0.06,0.02-0.07,0.01-0.09c-0.04-0.05-0.01-0.09-0.04-0.09
			c-0.06-0.01-0.09-0.1-0.14-0.04c-0.01,0.02-0.07,0.01-0.07,0.05C942.84,1259.36,942.82,1259.4,942.81,1259.43z M942.94,1259.53
			L942.94,1259.53c0.01,0.01,0.01,0.01,0.02,0C942.95,1259.53,942.94,1259.53,942.94,1259.53z M943.02,1259.5
			c-0.01,0.01-0.03,0.02-0.05,0.02l0,0c0,0,0.01,0,0.01,0C943,1259.53,943.01,1259.52,943.02,1259.5z M942.83,1259.46
			c0,0.03,0.01,0.04,0.04,0.04C942.85,1259.49,942.84,1259.47,942.83,1259.46L942.83,1259.46z M943.07,1259.38
			c0.01,0.01,0.01,0.02,0,0.04C943.07,1259.4,943.07,1259.39,943.07,1259.38L943.07,1259.38z M943.03,1259.31
			c0.01,0.01,0.02,0.02,0.02,0.03l0,0C943.06,1259.32,943.05,1259.32,943.03,1259.31z M942.96,1259.28c0.01,0,0.01,0,0.02,0l0,0
			C942.97,1259.28,942.96,1259.28,942.96,1259.28z"/>
	</g>
	<g transform="matrix(3.48041,0,0,3.20068,-3076.13,-3811.66)">
		<path class="st1" d="M940.26,1256.48c0.03,0.11,0.12,0.19,0.24,0.19c0.05,0.03,0.09,0.03,0.14,0.03c0.05,0,0.09-0.02,0.13-0.04
			c0.14-0.05,0.27-0.15,0.4-0.23c0.33-0.24,0.68-0.48,0.93-0.77c0.19-0.23,0.34-0.49,0.4-0.81c0.02-0.11,0.07-0.25,0.06-0.38
			c-0.01-0.1-0.03-0.19-0.09-0.28c-0.06-0.08-0.15-0.16-0.28-0.19c-0.2-0.05-0.53-0.01-0.63,0c-0.34,0.05-0.73,0.25-1.03,0.53
			c-0.31,0.29-0.54,0.66-0.55,1.03c-0.01,0.27,0.04,0.67,0.18,0.83c0.02,0.02,0.04,0.05,0.06,0.06
			C940.23,1256.46,940.25,1256.47,940.26,1256.48z M941.98,1254.54c0-0.02,0-0.04-0.02-0.04c-0.01,0,0.01,0.02,0.01,0.03
			L941.98,1254.54c-0.11,0-0.29,0.05-0.34,0.06c-0.24,0.02-0.52,0.16-0.75,0.35c-0.22,0.18-0.41,0.42-0.44,0.66
			c-0.02,0.15-0.02,0.35,0.01,0.49c0.01,0.02,0,0.06,0,0.08c0.02,0,0.03,0,0.05,0c0.02-0.01,0.01-0.04,0.03-0.05
			c0.1-0.05,0.19-0.14,0.28-0.21c0.29-0.21,0.59-0.41,0.81-0.66c0.13-0.15,0.23-0.32,0.27-0.52
			C941.91,1254.68,941.96,1254.6,941.98,1254.54L941.98,1254.54L941.98,1254.54L941.98,1254.54L941.98,1254.54L941.98,1254.54
			c0.02,0.04,0.05,0.08,0.05,0.05C942.04,1254.56,942.02,1254.54,941.98,1254.54z"/>
	</g>
	<g transform="matrix(3.48041,0,0,3.20068,-3111.71,-3878.28)">
		<path class="st1" d="M963.61,1281.67c0.03,0.02,0.03,0.04,0.07,0.04c0.07,0.01,0.14-0.02,0.21-0.02c0.36-0.03,0.69,0.02,1.03,0.15
			c0.33,0.14,0.67,0.37,1.11,0.6c0.23,0.12,0.5,0.24,0.79,0.37c0.12,0.06,0.27,0.01,0.33-0.11c0.06-0.12,0.01-0.27-0.11-0.33
			c-0.33-0.18-0.61-0.35-0.87-0.49c-0.31-0.16-0.6-0.26-0.85-0.36c-0.21-0.08-0.41-0.16-0.61-0.21c-0.34-0.07-0.68-0.09-1.05,0.02
			c-0.02,0.01-0.05,0.01-0.06,0.02c-0.03,0.02-0.02,0.03-0.03,0.06c-0.07,0.02-0.11,0.08-0.09,0.15S963.55,1281.69,963.61,1281.67z"
			/>
	</g>
	<g transform="matrix(3.48041,0,0,3.20068,-3111.71,-3878.28)">
		<path class="st1" d="M964,1282.96c0.09,0.02,0.18,0.05,0.27,0.06c0.21,0.04,0.42,0.04,0.62,0.06c1.31,0.1,2.39,0.23,3.26,0.82
			c0.65,0.44,1.16,1.12,1.57,2.2c0.1,0.25,0.24,0.61,0.31,0.97c0.04,0.19,0.06,0.38,0.02,0.53c-0.21,0.67-0.92,0.98-1.73,1.12
			c-1.33,0.23-2.94,0-3.71-0.13c-0.36-0.06-0.68-0.12-0.98-0.2c-0.29-0.07-0.57-0.17-0.87-0.33c-0.16-0.09-0.37-0.04-0.46,0.12
			c-0.09,0.16-0.04,0.37,0.12,0.46c0.28,0.18,0.54,0.31,0.81,0.4c0.39,0.13,0.79,0.18,1.27,0.25c0.68,0.1,1.98,0.24,3.2,0.16
			c0.49-0.03,0.97-0.1,1.4-0.22c0.81-0.23,1.43-0.67,1.68-1.38c0.09-0.26,0.1-0.58,0.04-0.92c-0.07-0.41-0.22-0.84-0.34-1.13
			c-0.68-1.61-1.57-2.43-2.68-2.84c-0.78-0.28-1.66-0.37-2.68-0.35c-0.26,0.01-0.52,0-0.79,0.04c-0.11,0.02-0.22,0.05-0.34,0.07
			c-0.07,0-0.12,0.05-0.12,0.12C963.87,1282.91,963.93,1282.96,964,1282.96z"/>
	</g>
	<g transform="matrix(3.48041,0,0,3.20068,-3111.71,-3878.28)">
		<path class="st1" d="M967.76,1285.7c-0.4,0.25-0.72,0.19-0.99-0.03c-0.59-0.48-0.97-1.57-1.34-2.17
			c-0.23-0.37-0.49-0.56-0.72-0.56c-0.16,0-0.29,0.13-0.29,0.29c0,0.16,0.13,0.29,0.29,0.29c0.04,0,0.06,0.05,0.11,0.1
			c0.1,0.11,0.19,0.27,0.29,0.45c0.36,0.65,0.78,1.56,1.34,1.99c0.44,0.34,0.96,0.44,1.6,0c0.13-0.09,0.2-0.25,0.17-0.47
			c-0.04-0.26-0.23-0.66-0.5-1.06c-0.28-0.42-0.64-0.85-0.95-1.11c-0.3-0.26-0.57-0.35-0.68-0.28c-0.06,0.03-0.09,0.11-0.05,0.17
			c0.03,0.06,0.11,0.09,0.17,0.05c0.01,0,0.01,0.02,0.03,0.02c0.04,0.02,0.08,0.06,0.13,0.1c0.23,0.2,0.54,0.6,0.82,1.01
			c0.23,0.35,0.44,0.71,0.54,0.98C967.75,1285.56,967.76,1285.66,967.76,1285.7z"/>
	</g>
</g>
</svg>
