<?xml version="1.0" encoding="utf-8"?>
<!-- Generator: Adobe Illustrator 24.2.0, SVG Export Plug-In . SVG Version: 6.00 Build 0)  -->
<svg version="1.1" id="图层_1" xmlns="http://www.w3.org/2000/svg" xmlns:xlink="http://www.w3.org/1999/xlink" x="0px" y="0px"
	 viewBox="0 0 85 85" style="enable-background:new 0 0 85 85;" xml:space="preserve">
<style type="text/css">
	.st0{fill-rule:evenodd;clip-rule:evenodd;fill:#FFFFFF;}
	.st1{fill-rule:evenodd;clip-rule:evenodd;}
	.st2{display:none;}
	.st3{display:inline;}
	.st4{fill-rule:evenodd;clip-rule:evenodd;fill:#040000;}
</style>
<g>
	<g transform="matrix(0.4441,0,0,0.39775,0,0)">
		<path class="st0" d="M75.2,77.8c0,0,2.9,10.3,0,18.5l-4-2.3c0,0-2.9,4.1-4.9,5.2c-1.9,1.2-18.4,2.1-25.2,10.9
			c-6.9,8.9-19.7,44.3-18.5,60.1c1.2,15.8-2.5,15.5,3.5,17.8c6,2.3,17.5-1.9,17.5-1.9l-0.2,6.8c0,0,64,9.5,95-1.5l1.5-7.3
			l-18.3-73.9c0,0-5.4-4.8-14-6.8l-0.6-3.3c0,0-3.2-4.3-3.9-4l-1.2,0.8c0,0-4-2.8-1-13.3L75.2,77.8z"/>
	</g>
	<g id="Coffee.svg" transform="matrix(0.310891,0,0,0.249383,1138.04,934.728)">
		<g transform="matrix(1,0,0,1,-409,-366.5)">
			<g id="body-mono-Coffee">
				<path id="_xD83D__xDD8D_-Ink9" class="st1" d="M-3073.1-3154.3c0.1-0.2,0.3-0.1,0.3,0.1c-1.2,5.4-2.3,10.8-3,16.3
					c-1.3,10-1.1,20-1,30.1l0,0.5c0.1,5.4,0.1,10.8,0.3,16.2c0.1,2.7,0.2,5.5,0.2,8.2c0,1.5-0.4,2.9-0.5,4.3c-0.1,1.3,0,2.6,0,3.9
					c0,0.9-1.1,0.8-1.2,0l-0.1-1.1c-0.1-1.3-0.3-2.7-0.7-3.9c-0.5-1.5-0.7-3-0.9-4.7c-0.3-2.5-0.4-5-0.5-7.5l-0.1-1.7
					c-0.4-10.4-0.4-20.9,0.3-31.3l0-0.7C-3079.2-3135.3-3078-3145.9-3073.1-3154.3z M-3098.3-3216.2c-0.3-0.1-0.2-0.7,0.1-0.6
					l0.6,0.2c4.6,1.2,9,2.5,13.3,4.8c4.3,2.3,7.9,5.7,10.7,9.8c5.6,8.1,7.9,17.9,9.7,27.8c2,10.9,3.9,21.9,5.9,32.8l0.4,2
					c1.9,10.2,3.7,20.4,5,30.7l0.1,0.7c1.3,10.6,2.1,21.5,0.7,32.2c-0.3,2.1-3.4,1.6-3.3-0.5c0.4-6,0.6-12,0.4-18
					c-0.2-6-0.8-12-1.5-18c-0.6-5-1.6-10-2.4-14.9l-0.1-0.8c-0.7-4.2-1.4-8.5-2.1-12.7l-1.1-6.3c-1.6-9.5-3.3-19-5.1-28.4l-0.1-0.6
					c-1.8-9.1-4.5-18.6-10-25.8C-3082.6-3209-3090.6-3212.7-3098.3-3216.2z M-3118.4-3120.1c0.1-0.3,0.6-0.3,0.7,0
					c0.6,1.2,0.6,2.6,0.7,3.9l0,0.1c0.1,1.6,0.3,3.2,0.3,4.8c0.1,3,0.2,6.1,0.2,9.1c0,3.1-0.1,6.2-0.2,9.3l0,0.8
					c-0.1,2.7-0.4,5.7-1.5,8.1c-0.4,0.9-1.6,0.6-1.8-0.3c-0.8-2.8-0.4-6.2-0.2-9.1l0.2-2.3c0.2-2.3,0.3-4.5,0.4-6.8
					c0.2-3.1,0.3-6.2,0.4-9.3c0-1,0.1-2,0.1-3l0.1-1.5C-3118.9-3117.5-3118.9-3118.9-3118.4-3120.1z M-3207.5-3116.1l0.4-0.4
					c1.1-1.2,2.4-3,4-2.9c0.6,0,1,0.6,0.9,1.3c-0.3,1.5-1.6,2.3-2.6,3.2c-1.1,1-2.1,2.1-3.1,3.1c-0.9,1-1.8,1.9-2.6,2.9l-0.3,0.4
					c-0.3,0.4-2.4,2.5-2.2,3.1l0,0c0.1,0.1,0,0.3-0.2,0.2c-0.9-0.3-0.9-1.2-0.5-2.1c0.7-1.7,1.9-3.3,2.9-4.8
					C-3209.8-3113.4-3208.7-3114.8-3207.5-3116.1z M-3115.1-3159.4c-0.7-1.9-3.4-1.9-4.9-1.7c-3.8,0.3-7.9,1.4-11.2,3.3
					c-3.5,2-5.8,5.3-7.9,8.9l-0.1,0.2c-2,3.6-4,7.8-7.2,10.2c-1.6,1.2-3.5,2.4-5.5,2.9c-0.1,0.3-0.4,0.5-0.6,0.6l-0.1,0
					c-0.6,0.1-1.4,0.3-2.2,0.2c0,0.4,0,0.8,0,1.2c0,1.1,0,2.2,0,3.4c0,2.4-0.1,4.7,0,7.1c0.1,2.1,0.3,4.3,1.2,6.1
					c0.7,1.4,1.5,2.3,2.6,3.1c2.6-1.8,5.5-2.8,8.4-3.6c3.6-1,7.2-1.6,10.7-2.9c1.7-0.6,3.3-1.5,4.8-2.6c1.6-1.2,2.7-2.8,4-4.4
					l0.2-0.2c1.2-1.6,2.6-3.1,4.4-4c1.5-0.7,3.5-0.9,4.8-2c0.7-0.6,0.8-1.5,0.8-2.4c-0.8,0.1-1.7-0.1-2.6-0.2l-0.4-0.1
					c-0.8-0.1-1.6-0.2-2.4-0.4c-0.1,0-0.1-0.3,0-0.3c0.9-0.3,1.9-0.4,2.8-0.5l0.2,0c0.9-0.1,1.8-0.3,2.6-0.1
					c0.2-0.6,0.4-1.3,0.7-1.9c0.4-0.9,1.2-1.8,1.4-2.9c0-0.3,0-0.7-0.2-0.9l0-0.1c-0.1-0.1-0.1-0.2-0.2-0.3c0,0,0,0-0.1,0
					c-0.7,0.2-1.2-0.1-1.5-0.7c-1.3,0.2-2.7,0.1-3.9,0.2l-1.2,0.1c-1.3,0.1-2.7,0.1-3.9-0.2c-0.2,0-0.2-0.4-0.1-0.4
					c1.5-0.7,3.3-0.9,4.9-1.2c0.9-0.2,1.8-0.3,2.7-0.4c0.6-0.1,1.2-0.2,1.9-0.3c1.6-2.2,0.7-5.6-1.4-6.5c-0.8,0.4-1.5,0.2-2.4,0.1
					c-0.9-0.1-1.7-0.1-2.6-0.1c-1.7,0-3.6,0.5-5.3,0.3c-0.3,0-0.5-0.4-0.3-0.7c1.3-1.2,3.2-1.6,4.9-1.8l0.3-0.1
					c0.6-0.1,1.2-0.2,1.9-0.3c0.2-0.3,0.4-0.6,0.9-0.7c0.1,0,0.3,0,0.4,0l0,0C-3114.7-3156.6-3114.8-3158.6-3115.1-3159.4z
					 M-3186.6-3122.5C-3186.7-3122.4-3186.7-3122.4-3186.6-3122.5l-0.1,0.1L-3186.6-3122.5L-3186.6-3122.5z M-3133.4-3150
					L-3133.4-3150c0.9,0.1,1.6,0.9,1.8,1.9c0.3,1.4,0.2,2.7,0.9,4c0.8,1.3,1.3,2.4,1.4,4c0,0.7,0,1.3,0.2,2l0.1,0.5
					c0.1,0.5,0.2,1,0.1,1.5c0,0.5-0.3,0.8-0.7,1c-1.4,0.5-2.5-0.7-2.8-2.1c-0.3-1.3,0.1-2.8-0.3-3.9c-0.2-0.7-0.7-1.2-0.9-1.9
					c-0.3-0.7-0.4-1.3-0.4-2c-0.1-1.3,1-3,0.4-4.2C-3133.8-3149.6-3133.7-3150-3133.4-3150z M-3152-3163.9c0.9-0.2,2-0.7,3-0.3
					c0.5,0.2,0.7,0.9,0.3,1.3c-0.7,0.8-1.7,0.8-2.7,1l-0.1,0c-1.1,0.2-2.2,0.5-3.4,0.7c-2.1,0.4-4.2,0.7-6.4,1
					c-2.2,0.3-4.4,0.6-6.6,0.8l-0.8,0.1c-1.9,0.2-3.8,0.3-5.6,0c-0.3,0-0.2-0.5,0-0.6c2-0.7,4.2-0.9,6.2-1.1c2.2-0.3,4.4-0.6,6.6-1
					c2.2-0.4,4.4-0.8,6.5-1.2C-3153.9-3163.4-3152.9-3163.6-3152-3163.9z M-3117.8-3166c-0.8-0.3-1.7-0.8-2.6-0.7
					c-1.6,0.3-2.9,2-4.2,3.1l0.6-0.1c3.2-0.7,7.3-1.4,10,0.8c0,0,0,0,0,0c0.2-0.4,0.5-0.6,0.7-1c0,0,0.1-0.1,0.1-0.1l0.1-0.2
					l-0.3-0.1c-0.7-0.3-1.6-0.6-1.7-0.7l0,0C-3116-3165.3-3116.9-3165.7-3117.8-3166z M-3143.8-3239.9c-0.1-1.9,2.5-1.8,2.6,0
					c0.3,4-0.5,8-2.3,11.6c0,0,0,0,0,0.1c1.1,0.6,2.2,1.2,3.3,1.8c1.4,0.7,2.9,1.3,4.4,1.9c1.4,0.5,3,0.7,4.2,1.7
					c2.4,2.1,1.5,6.6,1,9.5l-0.1,0.5c-0.2,1.5-0.4,3,0.2,4.4c0.6,1.5,1.8,2.6,2.9,3.7l0.2,0.2c1,1,2,2.2,2.7,3.5
					c0.6-1.5,1.5-2.7,2.4-4c0.7-1,0.2-1.3-0.3-2.2c-0.5-0.9-0.7-1.9-0.5-2.9c0.3-1.9,1.6-3.3,3-4.4c1.6-1.2,3.4-2.1,5.1-3.3
					c3.4-2.4,6.8-5,9.8-8c0.1-0.1,0.2,0,0.2,0.1c-2.4,4-5.2,7.5-8.6,10.5c-1.4,1.2-2.9,2.2-4.3,3.2l-0.4,0.3c-0.6,0.4-1.3,1-1.6,1.7
					c-0.3,0.7,0.3,1.3,0.6,1.9c1,1.9,0.5,3.7-0.7,5.3l-0.1,0.1c-1.2,1.6-2,3.1-2.4,5.1c-0.9,4.4,0.4,8.9,1.7,13l0.1,0.2
					c0.7,2.2,1.5,4.4,2.1,6.6l0.2,0.6c0.6,2.1,1,4.1,0.4,6.2c-0.2,0.7-1.1,0.9-1.5,0.2c-1.3-2.4-1.6-5.3-2.4-7.9
					c-0.8-2.6-1.7-5.1-2.5-7.7c-1-3.3-1.6-6.9-1.3-10.4c0,0,0,0,0-0.1l-0.2-0.6c-0.7-1.6-1.3-3.1-2.6-4.4c-1.3-1.4-2.7-2.6-3.7-4.2
					c-2.2-3.6-0.8-7.6-0.6-11.6l0-0.5c0-0.8,0.1-1.9-0.4-2.5c-0.5-0.6-1.8-0.8-2.5-1.1c-1.8-0.7-3.7-1.6-5.4-2.6
					c-1.7-1-3.2-2-4.7-3.3l-0.8-0.6c-1.2-1-2.4-2.1-3.2-3.5c-0.1-0.2,0.1-0.4,0.2-0.3c1.3,0.6,2.5,1.6,3.8,2.4c0-0.1,0-0.1,0.1-0.2
					C-3144.1-3232.9-3143.5-3236.3-3143.8-3239.9z M-3101.2-3218.5c0.5-1.6,2.9-1.5,2.9,0.4c-0.1,1.5-0.6,2.8-1.2,4.2l-0.1,0.1
					c-0.5,1.4-1.1,2.7-1.9,4c-1.4,2.5-3.1,4.7-4.8,6.9c-1.6,2-3.7,3.1-6.1,2.9c-1-0.1-2-0.4-2.9-0.9c-1.1-0.7-2.2-2.7-3.6-2.2
					c-0.1,0-0.3-0.2-0.1-0.3c1.6-1.4,3.3,0.8,4.8,1.3c2.2,0.8,4.6-0.1,6-2.1c1.5-2.1,2.9-4.5,4.2-6.8c0.6-1.2,1.2-2.4,1.7-3.6
					C-3101.7-3215.9-3101.6-3217.2-3101.2-3218.5z M-3104.8-3228.5c-0.1-0.2,0.2-0.4,0.4-0.3c1,0.7,1.9,1.7,2.9,2.6
					c1,1,2.1,1.9,3.2,2.8c1.6,1.3-0.2,3.8-1.6,2.4C-3101.9-3223.1-3104-3225.7-3104.8-3228.5z M-3110.4-3236.4
					c0.4-1.8,2.9-1.1,2.5,0.7l0,0.1c-0.7,2.9,0.3,5.9,2.4,7.8l0.1,0.1c1.3,1.2-0.5,3.2-1.8,2.1
					C-3110.2-3228.2-3111.3-3232.5-3110.4-3236.4z M-3116.5-3129.3c-0.2,0.1-0.4,0.2-0.7,0.3c-1,0.4-1.8,1.1-2.5,1.9
					c-1.6,1.7-2.8,3.7-4.4,5.3c-1.5,1.5-3.2,2.6-5,3.5c-3.7,1.8-7.7,2.5-11.7,3.5l-0.3,0.1c-3,0.7-6,1.6-8.6,3.3
					c-0.1,0.5-0.3,1-0.6,1.3c0.5,0.5,0.7,1.3,0.3,2c-1.1,2-3.1,3.2-4.8,4.4l-0.1,0.1c-1.7,1.3-3.5,2.5-5.2,3.8
					c-3.6,2.5-7.2,4.9-10.9,7.1c-5.9,3.6-12,7-18.2,10.2c0.4,2,0.2,4.1,0.5,6.2l0,0.3c0.1,0.8,0,1.4-0.5,1.9l0,0.1l0,0l0,0l0,0l0,0
					c-0.1,0.1-0.1,0.1-0.2,0.2l-0.1,0.1c-0.5,0.3-1,0.3-1.5,0l-0.1,0l-0.1-0.1c-0.6-0.4-1-1.4-0.8-2.1c0.6-1.9,0.9-3.9,1.4-5.8
					l-0.5,0.2l-0.6,0.3c-6.5,3.1-13.8,5.8-20.9,3.7c-3.1-0.9-6.1-3-7.6-6.2c-1.5-3.2-1.8-7-1.8-10.5c-0.1-4.4,0.1-8.9,0.6-13.3
					c0.4-2.9,0.8-5.9,1.4-8.8c-0.3-0.3-0.6-0.8-0.6-1.4c-0.3-2.8,0.2-5.7,0.6-8.4c0.3-2.7,0.7-5.4,1.1-8.1
					c0.8-5.4,1.8-10.8,2.9-16.2c2-9.5,4.5-18.9,7.7-28.1l0.3-0.8c2.9-8.4,6.2-16.5,10.9-23.9c2.2-3.5,4.6-6.7,7.7-9.2
					c2.9-2.4,6.3-4.1,9.7-5.4c3.4-1.3,6.9-2.2,10.5-2.7c3.6-0.6,7.5-0.9,10.9-2.6c-0.4-0.9-0.1-2,0.7-2.6c2.4-1.8,4.7-4.1,6.9-6.3
					c0.5-0.5,1.3,0.1,1,0.8c-0.7,1.6-1.5,3.1-2.5,4.4c-0.6,0.8-1.3,1.6-1.9,2.4c1.7,1.6,3.1,3.7,4.5,5.6c1.8,2.4,3.4,5,5.4,7.2
					c1.9,2.2,4.1,3.7,6.7,4.8l0.5,0.2c2.6,1,5.4,2.4,6.9,5.2c0.3,0.5-0.3,1.2-0.8,0.9c-2.6-1.8-5.6-2.1-8.3-3.3
					c-2.7-1.1-5-2.9-7.1-5.1c-2.1-2.2-3.8-4.7-5.6-7.2c-1.8-2.4-3.7-4.5-5.8-6.6c-3.3,2.4-7,3.5-10.8,4.6l-0.4,0.1
					c-3.8,1-7.6,2.3-11.1,4.1c-3.1,1.6-6.2,3.5-8.8,6.1c-2.7,2.8-4.8,6.3-6.8,9.8c-4.3,7.8-7.4,16.3-10,24.9c-2.8,9-5.1,18.1-7,27.3
					c-1,4.7-1.7,9.4-2.4,14.2c-0.3,2.3-0.6,4.6-0.8,6.9c-0.3,2.5-0.3,5-1,7.4c-0.3,1-1,1.4-1.7,1.4l-0.1,1.9
					c-0.2,2.6-0.4,5.2-0.4,7.8c-0.1,4.3-0.1,8.7,0.2,13l0,0.6c0.2,3.2,0.7,6.7,2.8,9c2.2,2.4,5.6,3.1,8.6,3.2
					c6.9,0.1,13.6-3.5,19.7-6.7c6.3-3.3,12.4-7,18.4-10.9c3-2,6.1-4.1,9-6.3c1.5-1.1,2.9-2.1,4.3-3.2c0.8-0.6,1.6-1.3,2.4-1.9
					c-0.4-0.4-0.6-1.1-0.3-1.7c-2.4-2.4-3.4-6.5-3.6-9.9c-0.1-2.7,0.3-5.5,0.6-8.2c0.1-1.4,0.3-2.7,0.5-4.1c0.1-0.5,0.1-1.1,0.2-1.7
					c-6.5,4-13.3,7.6-20.2,10.8c-3.5,1.6-7.1,3.1-10.8,4.4l-0.7,0.3c-3.4,1.3-7,2.4-10.5,3.2c-0.2,0-0.3-0.3-0.1-0.4
					c3.5-1.7,7.1-3.2,10.6-4.7l0.6-0.3c-0.1,0-0.1,0-0.2,0c-2.1-0.6-4.1-1.4-6.1-2.1c-1.9-0.7-4-1.1-5.8-2.1
					c-0.1-0.1-0.1-0.3,0.1-0.3c2-0.2,4.1,0.5,6.1,0.9l0.7,0.1c1.2,0.2,2.5,0.5,3.7,0.8c0-0.5,0.3-0.9,0.6-1.2
					c3.6-2.9,3.2-8.9,3.6-13.3l0.3-3.3c0.5-5.7,1-11.4,1.8-17c0-0.3,0.5-0.2,0.5,0.1c0,7-0.4,14-0.7,21l0,1.1
					c-0.1,4.3-0.2,8.8-2.7,12.1c0.3-0.2,0.8-0.2,1.1,0.1c0.3,0.4,0.5,1,0.5,1.5c2.2-1,4.4-2.1,6.6-3.2c7-3.5,13.9-7.3,20.5-11.5
					c0.7-0.5,1.4-0.1,1.8,0.5l0.1,0c0,0,0,0,0,0l0.1,0c0,0,0,0,0,0c0.9-0.6,2.2-0.2,3,0.7c0,0,0,0.1,0.1,0.1c1-0.5,2-1.2,2.8-2.1
					c1.8-1.8,3.3-4,4.6-6.2c2.4-4.1,4.5-8.6,7.7-12c2.6-2.7,5.9-4.4,9.4-5.5c0-0.1,0-0.2,0.1-0.3c0.2-0.2,0.3-0.3,0.5-0.1
					c0,0,0,0,0,0l0.3-0.6c0.2-0.3,0.4-0.7,0.4-0.8c0.4-0.5,0.8-1.1,1.2-1.6c0.7-0.9,1.5-1.8,2.4-2.4c2-1.4,4.1-0.6,6.1,0.2
					c1.2,0.5,2.5,0.9,3.7,1.4l0.1,0c0.9,0.3,2,0.6,2.4,1.7c0.2,0.4-0.1,0.7-0.2,1.1c5.6,5.4,6.9,15.8,5.5,24.1
					c-1.5,9-6.1,15.7-11.7,10.9c1.7-0.8,5.7-3.1,6.1-5.2c0.2-1.5,0.2-2.6,0.9-3.9c0.7-1.2,1.4-2.5,1.5-3.9c0.1-1.3-0.5-2.7-1.3-3.6
					c1-2,1.1-4.5,0.1-6.6c-0.7-1.6-1.9-2.7-3.3-3.3c0.7-1.7,0.6-3.8-0.4-5.4c1.2,0,2.2-1.6,2.5-2.9c10,4,12.1,15.3,10.3,24.7
					c-2.2,11.2-9.9,19.7-16.5,10.4"/>
			</g>
		</g>
	</g>
	<g transform="matrix(0.4441,0,0,0.39775,5.27896,-25.6899)">
		<path class="st0" d="M78.4,173.8c0,0-4,28-2.8,28c1.2,0.1,1-4.2,4.5-3.4c3.5,0.8,5.5,2.3,6.3,2.4c0.8,0.1-1.1,1.3-1.3,1.8
			c-0.2,0.5,0.6,3,0,3.6c-0.6,0.6,4.3-0.2,2.4,6.4c-0.2,0.6,1.2,1.7,1,2.1c-0.5,1.1-1.6,2.5-1.8,4.6c-0.2,2-3.9,2.4-5.6,4.1
			c-4.3,4.5-4.4,4-7,6.1c-2.6,2.1-3.1,19.9-4.7,20.9c-1.6,1,47.7,16,57.4,0.3c2.1-3.3-2.2-7.7,0.2-32.8c3.8-39,5.2-42.3,4.6-45.2
			c-0.6-2.9-22,3.4-28.2,3.1C97.4,175.5,80.5,173,78.4,173.8z"/>
	</g>
	<g transform="matrix(0.4441,0,0,0.39775,-12.4413,-41.5171)">
		<path class="st1" d="M117.8,213.6c0,0.1-0.1,0.1-0.1,0.2c-0.1,0.4-0.2,0.8-0.3,1.1c-0.3,1.5-0.5,3.1-0.7,4.7
			c-0.4,3.6-0.6,7.2-0.9,10.9c-0.1,0.9-0.1,1.8-0.2,2.7c-0.1,0.4,0.2,0.8,0.5,0.8c0.4,0.1,0.7-0.2,0.7-0.6c0.1-0.9,0.3-1.8,0.4-2.7
			c0.4-3.6,0.4-7.2,0.8-10.9c0.1-1.5,0.4-3,0.6-4.6c0.1-0.4,0.1-0.8,0.2-1.1c0-0.4,0-0.6,0-0.7c-0.1-0.4-0.2-0.5-0.3-0.5
			c-0.1,0-0.5-0.1-0.6,0.4C117.8,213.4,117.8,213.5,117.8,213.6z M117.8,213.5C117.8,213.5,117.8,213.5,117.8,213.5
			C117.8,213.4,117.8,213.5,117.8,213.5z"/>
	</g>
	<g transform="matrix(0.4441,0,0,0.39775,-12.4413,-41.5171)">
		<path class="st1" d="M170.5,212.3c0.2,0.6,0.2,1.5,0.2,2.6c0,2.1-0.3,5-0.6,8.3c-1.4,13-4.9,33.5-5,48.1c0,5.7,0.4,10.5,1.7,13.8
			c0.1,0.4,0.3,0.7,0.5,1c0,0,0,0.1,0,0.1c0.1,0.1,0.2,0.2,0.3,0.3c0.2,0.3,0.6,0.4,0.9,0.2c0.3-0.2,0.4-0.6,0.2-1
			c0-0.2,0-0.3-0.1-0.4c-0.1-0.3-0.2-0.6-0.3-0.9c-1.1-3.1-1.6-7.6-1.5-13c0.2-14.6,3.7-34.9,5.1-47.9c0.4-4.2,0.6-7.6,0.5-9.8
			c-0.1-1.3-0.3-2.2-0.6-2.7c-0.1-0.2-0.5-0.5-1.1-0.5c-0.8,0.1-2.7,0.8-2.9,0.8c-4.3,0.8-8.6,1.5-13,2c-4.3,0.5-8.6,0.9-13.1,1
			c-2.2,0.1-8.7-0.8-14.1-1.1c-1.3-0.1-2.5-0.1-3.6-0.2c-1,0-2,0-2.7,0.1c-0.3,0-0.5,0.1-0.7,0.1c-0.5,0.2-0.9,0.4-1.1,0.6
			c-0.1,0.1-0.1,0.2,0,0.3c0.1,0.1,0.2,0.1,0.2,0.1c0.2-0.1,0.4-0.1,0.8-0.1c0.2,0,0.5,0,0.9,0c0.7,0,1.6,0,2.6,0.1
			c1.1,0.1,2.3,0.2,3.5,0.3c5.4,0.5,12,1.5,14.2,1.4c4.4-0.1,8.8-0.4,13.2-0.9c4.4-0.5,8.7-1.1,13.1-2
			C168.2,213,169.7,212.5,170.5,212.3z"/>
	</g>
	<g transform="matrix(0.4441,0,0,0.290852,-12.4413,243.154)">
		<path class="st1" d="M113.3-611.2L113.3-611.2C113.3-611.2,113.3-611.2,113.3-611.2L113.3-611.2c0,0.2-0.1,0.5-0.1,0.8
			c-0.1,0.7-0.2,1.8-0.4,2.9c-0.4,3-0.9,6.5-0.9,6.8c-0.4,3.8-1.4,7.5-2,11.3c-0.3,1.7-0.5,3.3-0.7,5l0,0c-0.2,0.5-0.7,1.4-0.9,2
			c-0.2,0.7-0.1,1.2,0.1,1.6c0.2,0.3,0.8,0.8,1.8,1.3c2.6,1.2,8.2,3,14.3,4.7c4.9,1.3,10.1,2.6,14.4,3.6c4.8,1.1,8.6,1.7,9.8,1.6
			c3.4-0.3,8.7-2,13-5c2.6-1.8,4.8-4,6-6.5c0.2-0.4,0.4-0.9,0.5-1.3c0.1-0.5,0.3-1,0.3-1.5c0.1-0.5-0.1-1.1-0.4-1.3
			c-0.4-0.2-0.7,0.1-0.9,0.7c-0.1,0.3-0.3,0.6-0.4,1c-0.1,0.3-0.3,0.6-0.5,0.9c-1.2,2.1-3.1,4-5.4,5.6c-4.1,2.8-9.2,4.6-12.3,4.8
			c-2.2,0.2-13.8-2.3-23.9-4.8c-6.1-1.5-11.7-3.1-14.2-4.3c-0.4-0.2-0.7-0.3-1-0.5c0.1-0.3,0.3-0.8,0.4-1.1c0.2-0.5,0.4-1,0.4-1.2
			c0.1-1.6,0.3-3.2,0.6-4.8c0.6-3.8,1.5-7.6,1.9-11.5c0-0.3,0.7-5.6,1-8.7c0-0.4,0.1-0.7,0.1-1c0-0.5,0-0.8-0.1-1.1
			c0-0.4-0.2-0.5-0.2-0.5c-0.2,0-0.4-0.1-0.5,0c-0.1,0.1-0.2,0.2-0.1,0.4C113-611.2,113.1-611.1,113.3-611.2
			C113.2-611.1,113.2-611.2,113.3-611.2z"/>
	</g>
	<g transform="matrix(0.4441,0,0,0.39775,5.27896,-25.6899)">
		<path class="st1" d="M92.7,185c0.2-0.3,0.3-0.5,0.3-0.5c0-0.2-0.2-0.5-0.6-0.2c-0.1,0-0.1,0.2-0.2,0.2c-0.1,0-0.1,0-0.1,0
			c-0.1,0-0.1,0.1-0.2,0.1c-1,1.1-2.8,4.1-3,4.4c-1.2,2.1-2.5,4.4-3.6,6.8c-0.7,1.6-1.3,3.3-1.6,5c-0.1,0.3,0.1,0.7,0.4,0.7
			c0.3,0.1,0.6-0.1,0.6-0.5c0.4-1.6,1-3.1,1.7-4.7c1.1-2.3,2.4-4.6,3.5-6.7c0.2-0.3,2-3.2,2.7-4.5C92.7,185.2,92.7,185.2,92.7,185
			C92.7,185.1,92.7,185,92.7,185z"/>
	</g>
	<g transform="matrix(0.4441,0,0,0.39775,5.27896,-25.6899)">
		<path class="st1" d="M99.8,189.9c-0.2-0.3-0.5-0.5-0.8-0.7c-1.9-1.1-5.1-0.8-6.4,1.4c-0.1,0.2-0.3,0.5-0.3,0.8
			c0,0.3,0,0.5,0.1,0.7c0.1,0.2,0.2,0.3,0.4,0.5c-0.1,0.2-0.2,0.5-0.3,0.7c-0.2,0.9-0.3,1.7,0,2.4c0.3,0.6,0.8,1.2,1.8,1.4
			c0.5,0.1,1.1,0.1,1.7-0.1c0.8-0.3,1.6-0.7,2.1-1.2c1.9-1.8,2.4-3.3,2.3-4.5l0.8-0.2c1.8-0.6,3.5-1.1,4.3-1c0.3,0,0.6,0.2,0.7,0.4
			c0.1,0.2,0.2,0.4,0.2,0.7c-0.4,0.3-0.8,0.6-1.1,0.9c-0.6,0.7-0.8,1.4-0.6,2c0.2,0.5,0.7,1,2,1.1c0.2,0.9,0.6,1.6,1.2,2.1
			c1.4,1,3.3,0.8,4.9-0.3c1.5-1,2.6-2.7,2.7-4.5c0-1.7-0.8-2.7-2.1-3c-1.2-0.3-2.8-0.1-4.3,0.4c-0.5,0.2-0.9,0.4-1.4,0.6
			c-0.1-0.3-0.2-0.5-0.3-0.8c-0.4-0.7-0.9-1.1-1.9-1.2c-0.6,0-1.6,0.1-2.8,0.5C102,189.2,100.9,189.5,99.8,189.9z M108.2,192.3
			c0,0.4,0,0.7,0.1,1.1c0.1,1,0.1,1.9,0.8,2.4c0.9,0.7,2.1,0.4,3.2-0.3c1-0.7,1.9-1.8,1.9-3c0-0.7-0.3-1.1-0.9-1.2
			c-0.6-0.2-1.4-0.1-2.2,0.1C110,191.5,109,191.9,108.2,192.3z M99.2,191.8c-1.9,0.6-3.7,1.1-4.9,1.2c-0.2,0-0.3,0-0.5,0
			c-0.1,0.3-0.2,0.5-0.2,0.8c-0.1,0.5-0.2,1,0,1.4c0.2,0.3,0.5,0.5,1,0.6c0.4,0.1,0.9,0,1.4-0.2c0.5-0.2,1-0.5,1.4-0.9
			C98.7,193.5,99.2,192.5,99.2,191.8z M106.4,193.5c0-0.1-0.1-0.2-0.1-0.1C106.2,193.5,106.3,193.5,106.4,193.5
			c-0.1,0.1-0.1,0.1,0,0.1C106.4,193.7,106.4,193.6,106.4,193.5L106.4,193.5L106.4,193.5L106.4,193.5z M106.7,193.3
			c-0.1,0.1-0.2,0.2-0.3,0.2l0,0l0,0c0.1,0,0.2,0.1,0.3,0.1C106.7,193.5,106.7,193.4,106.7,193.3z M98.2,190.4
			c-0.8-0.4-1.9-0.5-2.9-0.1c-0.1,0.1-0.2,0.3-0.2,0.4c-0.1,0.2-0.3,0.4-0.4,0.7c0.1,0,0.2,0,0.3,0C95.8,191.1,97,190.8,98.2,190.4z
			"/>
	</g>
	<g transform="matrix(0.4441,0,0,0.39775,5.27896,-25.6899)">
		<path class="st1" d="M100.2,203.1c0.1,0,0.2,0,0.3-0.1c0.5-0.2,1.4-0.4,2.9-0.8c1.1-0.3,2.6-0.7,4.4-1.1c2.2-0.5,4-0.9,5.8-1.3
			c1.8-0.4,3.6-0.7,5.8-1.1c0.6-0.2,1.2-0.3,1.7-0.3c0,0.3,0.3,0.4,0.5,0.4c0.5-0.1,0.8-0.2,0.9-0.3c0.2-0.2,0.2-0.4,0.2-0.6
			c0-0.2-0.2-0.5-0.7-0.6c-0.6-0.1-1.8-0.2-2.9-0.1c-2.3,0.4-4,0.8-5.8,1.2c-1.8,0.4-3.6,0.8-5.8,1.4c-2,0.5-3.5,0.9-4.6,1.3
			c-0.8,0.3-1.5,0.6-1.9,0.8c-0.7,0.3-1.1,0.6-1.3,0.8c-0.3,0.3-0.2,0.5-0.1,0.6c0.1,0.1,0.1,0.2,0.3,0.1
			C100,203.4,100.1,203.3,100.2,203.1C100.2,203.1,100.2,203.1,100.2,203.1z M100.1,203.1C100,203.1,100,203.2,100.1,203.1
			C100.1,203.2,100.1,203.2,100.1,203.1z"/>
	</g>
	<g transform="matrix(0.4441,0,0,0.39775,5.27896,-25.6899)">
		<path class="st1" d="M122.7,202.4c0,0,0.1,0,0.1,0c0.8,0,1.1-0.7,0.6-1.1c-0.1-0.2-0.3-0.3-0.6-0.3c-0.2,0-0.3-0.1-0.5-0.1
			c-0.3,0-0.7,0-1.2,0c-1.8,0.1-4.3,0.4-5,0.6c-1.2,0.3-5.3,1.9-8.9,3.3c-1.6,0.6-3,1.2-4.1,1.7c-0.7,0.3-1.3,0.6-1.6,0.7
			c-0.1,0-0.1,0.1-0.1,0.1s0,0,0,0c-0.1,0-0.2,0.1-0.2,0.3c0,0.1,0.1,0.3,0.2,0.3c0,0,0.1,0,0.4,0c0.3,0,0.7-0.2,1.2-0.3
			c3.4-1.1,11.7-4.1,13.4-4.5c0.7-0.2,3.1-0.3,4.8-0.5c0.5-0.1,0.9-0.1,1.2-0.2C122.5,202.5,122.6,202.5,122.7,202.4z"/>
	</g>
</g>
<g class="st2">
	<g transform="matrix(0.4441,0,0,0.39775,-345.369,-236.477)" class="st3">
		<g id="Gray-Short.svg" transform="matrix(0.681216,0,0,0.681216,1361.69,1133.76)">
			<g transform="matrix(1,0,0,1,-236.5,-283.5)">
				<g id="head-mono-Gray-Short">
					<path id="_xD83D__xDD8D_-Ink" class="st4" d="M-473.8-374.7c-6.3,0.7-13.7-0.9-17.9-6.6c-0.1-0.2-0.2-0.4-0.2-0.5
						c0-0.2,0.1-0.4,0.2-0.6c0.1-0.2,0.3-0.3,0.5-0.3c0.2,0,0.3,0,0.5,0.1l0.4,0.2c2.9,1.8,5.8,3.3,9.1,3.9c3.3,0.7,6.7,0.6,10-0.2
						c6-1.5,10.9-5.4,14.5-10.6c4-5.8,6.4-13,7-20.4c0.7-8.9-1-17.6-2.8-26.2c-1.9-9-3.9-18-6.3-26.8c-0.1-0.3-0.1-0.5-0.1-0.8
						c-0.7-0.3-1.5-0.2-2.2,0.1c-1.4,0.5-2.7,1.7-3.8,2.6c-0.4,0.3-0.8,0.7-1.1,0.9c-1.4,1.1-2.9,1.8-4.6,2
						c-1.8,0.1-3.5-0.5-5.1-1.3c-0.8-0.4-1.6-0.8-2.4-1.2c-2.3-1.1-4.5-2.3-7-3c-3.3-1-6.7-1.5-10.2-1.5c-6.1,0.1-12.3,1.8-16,7.6
						c-1.5,2.3-2.5,5-1.7,7.9c0.4,1.6,1.2,3,2.1,4.3l0.3,0.5c0.5,0.7,0.9,1.4,1,2.2c0.1,0.6,0,1.3-0.4,2.1c-0.3,0.5-0.6,0.9-0.9,1.3
						c-0.2,0.3-0.5,0.6-0.7,0.9c-0.4,0.6-0.8,1.4-1.1,2.1c-0.6,1.4-0.8,3-0.8,4.5c-0.1,1.9,0.2,3.7,0.4,5.6c0.2,1.3,0.3,2.6,0.4,3.9
						c0,0.2,0,0.4-0.1,0.5c-0.1,0.2-0.3,0.2-0.5,0.3c0,0-0.1,0-0.2,0c0,0.1,0,0.2,0.1,0.4c-0.1-0.2-0.2-0.3-0.4-0.5c0,0,0,0,0,0
						c-0.1-0.1-0.2-0.2-0.3-0.4c-0.2-0.2-0.4-0.4-0.6-0.5c-1-0.9-2.3-1.4-3.5-1.4c-1.2,0-2.4,0.4-3.3,1.4c-1.8,1.9-2.3,5-2.4,7.6
						c0,2.7,0.5,5.9,2.6,7.6c0.8,0.7,1.9,1.1,2.9,1.1c0.9,0,1.7-0.3,2.5-0.6c0.2-0.1,0.5-0.2,0.8-0.3c0.3-0.1,0.5-0.1,0.8,0
						c0.2,0.1,0.5,0.3,0.6,0.5c0.2,0.2,0.3,0.5,0.3,0.8c0,0.3,0,0.6-0.1,0.9c0,0.1-0.1,0.1-0.1,0.2l0.5,0.9c1.8,3.2,3.6,6.4,5.9,9.2
						c1.4,1.6,2.8,3.1,4.4,4.4l0.2,0.2c0.1,0.1,0.3,0.2,0.5,0.4c0.5,0.4,1,1,1.5,1c0.1,0,0.3,0,0.4,0c0.3,0,0.5-0.1,0.8,0
						c0.2,0.1,0.4,0.2,0.6,0.6c0.1,0.2,0.2,0.5,0.2,0.8c0,0.3-0.1,0.6-0.2,0.8c-0.3,0.5-0.6,0.8-0.9,1c-0.4,0.2-0.8,0.2-1.3,0.1
						c-1.1-0.2-2.3-1.3-3.1-1.9l-0.1-0.1c-1.7-1.5-3.4-3.1-4.8-4.9c-2.5-3.1-4.7-6.8-5.8-10.8c-0.8,0.6-1.8,0.9-2.8,0.9
						c-1.5,0.1-3.1-0.4-4.3-1c-2.6-1.4-4.2-4-4.9-6.9c-0.8-3.5-0.6-7.4,0.5-10.5c0-0.1,0.1-0.2,0.1-0.3c-3.3-9.4-4.3-19.9-4.1-29.9
						c0.1-4.7,0.4-9.6,1.4-14.2c0.5-2.1,1.2-4,2.5-5.6c0.7-0.9,1.6-1.6,2.4-2.4c0.8-0.6,1.5-1.2,2.1-2l0.3-0.4
						c0.1-0.1,0.1-0.2,0.2-0.2c1.1-1.4,2.2-2.7,3.5-3.8c1.5-1.3,3.2-2.3,5-3.1c3.8-1.8,7.9-2.9,12-3.7c8.8-1.8,17.8-1.9,26.5,0.6
						c4,1.2,8,2.8,11.9,4.4c0.4,0.1,0.7,0.3,1.1,0.5c3,1.2,6.1,2.5,9.1,3.7c1.4,0.6,2.8,1.2,4.2,1.7c0.3,0.1,0.6,0.4,0.8,0.7
						c0.2,0.3,0.2,0.7,0.1,1.1c-0.9,2.5-2,4.8-3.3,6.9c0.5,0.4,0.9,0.8,1.1,1.4c0.4,0.7,0.6,1.5,0.6,2.4c0,2.9-2.3,4.9-4.3,6.3
						c-0.2,0.1-0.4,0.2-0.5,0.2c1.9,8.1,3.7,16.3,5.3,24.5l0.1,0.6c1.6,8.6,2.6,17.4,1.1,26.1c-1.3,7.5-4.3,14.8-9,20.4
						C-460.9-378.9-467.1-375.4-473.8-374.7z M-515.2-424.2c-0.8-2.9-1.3-6.1-0.9-9c0.2-1.9,0.7-3.6,1.5-5.3c0.5-0.9,1-1.8,1.7-2.6
						l0.2-0.3c0.1-0.1,0.2-0.3,0.2-0.4c0-0.1,0-0.2,0-0.3c-0.1-0.3-0.3-0.5-0.5-0.8c-0.1-0.2-0.2-0.3-0.3-0.5
						c-1.8-2.7-3.2-6-2.7-9.4c0.4-3.4,2.4-6.5,4.5-8.9c4.6-5.2,11.8-6.4,18.1-6.1c3.7,0.2,7.3,0.9,10.8,2.1c1.7,0.6,3.4,1.4,5,2.2
						l0.4,0.2c0.2,0.1,0.4,0.2,0.6,0.3c1.3,0.7,2.6,1.4,4,1.8c2.7,0.7,4.5-0.8,6.5-2.4c0.7-0.5,1.3-1.1,2-1.6l0.1-0.1
						c1.3-0.8,2.8-1.4,4.3-1.4c1.3,0,2.5,0.5,3.5,1.6c0.2,0.2,0.3,0.5,0.4,0.7c0.1,0.2,0.2,0.4,0.3,0.6c0.4,1.5,0.7,3,1.1,4.5
						l0.3-0.2c0.9-0.6,1.8-1.4,2.2-2.4c0.2-0.4,0.1-1.1-0.1-1.6c-0.1-0.2-0.2-0.3-0.3-0.4c-0.1-0.1-0.2-0.1-0.4-0.1
						c-0.3,0-0.6,0-0.9-0.1c-0.3-0.1-0.5-0.4-0.7-0.6c-0.2-0.3-0.2-0.6-0.2-1c0-0.3,0.1-0.6,0.4-0.9c1.5-1.9,2.7-4,3.7-6.3l-6.3-2.6
						c-2.2-0.9-4.5-1.9-6.7-2.8l-1.2-0.5c-4.1-1.7-8.2-3.3-12.4-4.4c-8.4-2.1-17.2-1.6-25.6,0.4l-0.5,0.1c-3.5,0.9-7.1,1.9-10.3,3.7
						c-1.6,0.9-3.1,2-4.4,3.3c-0.6,0.6-1.1,1.3-1.6,1.9c-0.7,0.9-1.5,1.8-2.3,2.6l-0.8,0.7c-1.2,1.1-2.3,2.1-2.9,3.8
						c-0.7,1.7-1,3.7-1.3,5.5c-0.7,4.7-1,9.5-0.9,14.3c0,8,1.1,15.9,2.5,23.7c1.1-1.8,2.7-3.1,4.7-3.4c1.3-0.2,2.6,0.1,3.7,0.7
						C-516.2-425.3-515.7-424.8-515.2-424.2z M-517.2-414.7c-1.5-0.6-3-0.8-4.5-0.5c-0.2,0-0.3,0-0.4-0.1c-0.1-0.1-0.2-0.2-0.3-0.4
						c-0.1-0.2-0.1-0.4,0-0.5c0-0.1,0.1-0.3,0.3-0.4c1.7-0.9,3.5-1.3,5.4-1l0.2,0c0.9,0.2,2.3,0.5,3.3,1.1c0.8,0.5,1.3,1.2,1.5,2.1
						c0.1,0.5,0,1-0.3,1.3c-0.2,0.4-0.6,0.6-1.1,0.6c-0.8,0-1.3-0.4-1.9-0.9c-0.1-0.1-0.2-0.1-0.2-0.2
						C-516-414-516.6-414.4-517.2-414.7z"/>
				</g>
			</g>
		</g>
		<g id="Eyes-Closed.svg" transform="matrix(0.734096,0,0,0.734096,1398.38,1156.31)">
			<g transform="matrix(1,0,0,1,-144.5,-146.5)">
				<g id="face-Eyes-Closed">
					<path id="_xD83D__xDD8D_-Ink1" class="st4" d="M-558.4-520.4l0.2,0c1.2-0.3,2.4-0.8,3.5,0.1c1.1,0.8,1.2,2.3,0.4,3.3
						c-0.9,1.1-2,1-3.2,1h-0.1c-1,0-2,0-3-0.1c-0.9-0.1-1.9-0.2-2.8-0.4l-0.5-0.1c-0.5-0.1-1.1-0.3-1.4-0.9c-0.5-1,3.2-1.9,3.6-2
						C-560.6-519.9-559.5-520.1-558.4-520.4z M-556.3-533c-0.6,0.7-1.4,1.2-2.2,1.4c-2.2,0.7-5,0.3-6.8-0.4
						c-0.4-0.2-0.7-0.5-0.9-0.9c-0.2-0.4-0.2-0.8-0.1-1.2c0-0.1,0.1-0.2,0.1-0.4c0.1-0.3,0.4-0.6,0.7-0.7c0.3-0.2,0.7-0.2,1-0.1
						c0,0,0.1,0,0.1,0c1.1,0.4,3,1.1,4.5,0.9c0.9-0.1,1.7-0.4,2.2-1.4c0.2-0.5,0.2-1,0-1.4c-0.3-0.7-0.9-1.3-1.4-1.7
						c-0.7-0.6-1.5-0.8-2.2-1c-0.3-0.1-0.6-0.2-0.9-0.3c-0.1,0-0.2-0.1-0.2-0.2s-0.1-0.2-0.1-0.3s0-0.2,0-0.3c0-0.1,0.1-0.2,0.2-0.2
						c1.5-0.8,3.5-0.3,5,0.9c0.7,0.6,1.4,1.4,1.7,2.2c0.3,0.8,0.5,1.7,0.4,2.6C-555.4-534.4-555.8-533.6-556.3-533z M-581.3-550
						c0.4-0.2,0.8,0.8,0.9,1l0.2,0.6c0.3,0.9,0.6,1.8,1.3,2.5c0.5,0.6,1.4,1,2,0.4c0.6-0.6,0.3-1.3,0.4-2.1c0.2-1.4,1.8-2.8,2.8-1.3
						c2.3,3.2-1.2,7.8-4.5,7c-1.7-0.4-3-1.9-3.5-3.6l0-0.1C-582.2-546.8-582.5-549.3-581.3-550z M-551.9-547.7L-551.9-547.7
						c-1.1-2.8,2.8-4,3.1-1.5l0,0.2c0.3,2.8-0.3,6.5-3.4,6.7c-3.4,0.3-4.8-3.9-4.5-7c0-0.5,0.7-0.6,0.8-0.1l0,0.1
						c0.5,1.6,1.1,4.5,3,4.5C-551.4-544.8-551.5-546.7-551.9-547.7z M-549.4-555.7c2-0.1,1.9,3.3,0,3.4c-6.5,0.2-13,0.4-19.5,0.4
						l-1.2,0c-6.1,0-12.2,0.1-18.3-0.4c-0.5,0-0.4-0.9,0-0.8c6.4-1,12.8-1.3,19.3-1.7C-562.5-555.2-556-555.4-549.4-555.7z"/>
				</g>
			</g>
		</g>
	</g>
</g>
</svg>
