<?xml version="1.0" encoding="utf-8"?>
<!-- Generator: Adobe Illustrator 24.2.0, SVG Export Plug-In . SVG Version: 6.00 Build 0)  -->
<svg version="1.1" id="图层_1" xmlns="http://www.w3.org/2000/svg" xmlns:xlink="http://www.w3.org/1999/xlink" x="0px" y="0px"
	 viewBox="0 0 85.04 85.04" style="enable-background:new 0 0 85.04 85.04;" xml:space="preserve">
<style type="text/css">
	.st0{fill-rule:evenodd;clip-rule:evenodd;}
	.st1{fill-rule:evenodd;clip-rule:evenodd;fill:#FFFFFF;}
</style>
<g>
	<g id="Coffee.svg" transform="matrix(0.310891,0,0,0.249383,1138.04,934.728)">
		<g transform="matrix(1,0,0,1,-409,-366.5)">
			<g id="body-mono-Coffee">
				<path id="_xD83D__xDD8D_-Ink8" class="st0" d="M-3065.6-3156.83c0.1-0.17,0.34-0.06,0.3,0.14c-1.18,5.4-2.29,10.82-3.01,16.32
					c-1.31,9.94-1.07,20-0.96,30.02l0.01,0.52c0.05,5.39,0.13,10.79,0.29,16.18c0.08,2.72,0.24,5.48,0.15,8.2
					c-0.05,1.48-0.4,2.88-0.53,4.34c-0.11,1.28-0.01,2.57,0.04,3.85c0.04,0.85-1.09,0.81-1.16,0l-0.1-1.05
					c-0.13-1.33-0.28-2.66-0.68-3.93c-0.47-1.53-0.7-3.04-0.86-4.65c-0.25-2.47-0.36-4.96-0.46-7.45l-0.07-1.72
					c-0.4-10.39-0.39-20.83,0.26-31.2l0.05-0.74C-3071.67-3137.83-3070.55-3148.43-3065.6-3156.83z M-3090.78-3218.66
					c-0.31-0.14-0.2-0.66,0.14-0.57l0.62,0.17c4.55,1.22,9.02,2.54,13.27,4.8c4.25,2.27,7.85,5.65,10.71,9.81
					c5.56,8.09,7.87,17.92,9.7,27.74c2.03,10.91,3.87,21.87,5.92,32.78l0.38,2.03c1.89,10.16,3.68,20.33,4.99,30.61l0.09,0.75
					c1.33,10.57,2.13,21.51,0.68,32.11c-0.29,2.1-3.41,1.57-3.29-0.5c0.35-5.99,0.61-11.95,0.36-17.95c-0.24-6-0.75-11.98-1.5-17.94
					c-0.63-5.01-1.58-9.96-2.41-14.92l-0.13-0.78c-0.7-4.23-1.42-8.45-2.14-12.67l-1.07-6.32c-1.61-9.47-3.25-18.94-5.11-28.35
					l-0.11-0.55c-1.82-9.05-4.49-18.53-9.94-25.72C-3075.14-3211.43-3083.05-3215.11-3090.78-3218.66z M-3110.86-3122.67
					c0.13-0.33,0.6-0.29,0.74,0c0.56,1.15,0.62,2.63,0.73,3.93l0.01,0.13c0.13,1.59,0.25,3.18,0.33,4.78
					c0.14,3.03,0.2,6.05,0.2,9.08c-0.01,3.1-0.06,6.21-0.21,9.31l-0.04,0.83c-0.14,2.69-0.37,5.7-1.51,8.06
					c-0.42,0.86-1.55,0.6-1.79-0.26c-0.79-2.84-0.38-6.2-0.18-9.1l0.16-2.27c0.16-2.27,0.3-4.53,0.42-6.8
					c0.16-3.1,0.3-6.21,0.42-9.32c0.04-1.01,0.09-2.02,0.13-3.03l0.07-1.51C-3111.33-3120.11-3111.33-3121.5-3110.86-3122.67z
					 M-3199.79-3118.65l0.35-0.38c1.07-1.17,2.43-2.98,4.02-2.87c0.63,0.04,1.04,0.63,0.91,1.33c-0.28,1.49-1.64,2.26-2.62,3.17
					c-1.07,0.99-2.08,2.06-3.09,3.13c-0.89,0.95-1.75,1.93-2.59,2.94l-0.31,0.38c-0.3,0.37-2.44,2.53-2.21,3.09l0.01,0.03
					c0.06,0.11-0.04,0.26-0.15,0.22c-0.93-0.33-0.87-1.21-0.52-2.11c0.67-1.72,1.85-3.32,2.88-4.79
					C-3202.09-3115.98-3200.98-3117.35-3199.79-3118.65z M-3107.51-3161.89c-0.72-1.89-3.35-1.85-4.85-1.74
					c-3.77,0.28-7.85,1.35-11.2,3.32c-3.48,2.04-5.82,5.31-7.92,8.92l-0.1,0.17c-2.04,3.55-4.01,7.74-7.21,10.18
					c-1.63,1.24-3.53,2.38-5.51,2.87c-0.14,0.27-0.36,0.48-0.64,0.55l-0.13,0.03c-0.56,0.14-1.44,0.29-2.19,0.2
					c0.01,0.41,0,0.82,0.01,1.21c0.03,1.12,0.04,2.25,0.04,3.37c0,2.35-0.11,4.7-0.02,7.05c0.08,2.08,0.34,4.25,1.23,6.1
					c0.66,1.36,1.52,2.26,2.56,3.12c2.57-1.75,5.47-2.81,8.42-3.61c3.56-0.97,7.21-1.61,10.7-2.93c1.68-0.63,3.29-1.46,4.75-2.58
					c1.55-1.19,2.73-2.81,3.95-4.39l0.19-0.25c1.24-1.59,2.6-3.11,4.36-3.98c1.51-0.74,3.51-0.88,4.83-2.03
					c0.69-0.6,0.75-1.48,0.82-2.37c-0.85,0.14-1.74-0.08-2.59-0.19l-0.44-0.06c-0.8-0.11-1.58-0.22-2.36-0.45
					c-0.15-0.04-0.15-0.29,0-0.33c0.93-0.27,1.85-0.38,2.8-0.51l0.22-0.03c0.86-0.13,1.77-0.32,2.61-0.1
					c0.15-0.64,0.37-1.26,0.68-1.88c0.43-0.87,1.25-1.85,1.36-2.86c0.03-0.3-0.03-0.66-0.16-0.92l-0.04-0.09
					c-0.05-0.11-0.12-0.22-0.21-0.28c-0.01,0.01-0.03,0.03-0.08,0.05c-0.65,0.23-1.22-0.13-1.52-0.67
					c-1.28,0.18-2.67,0.12-3.87,0.18l-1.21,0.07c-1.29,0.07-2.65,0.1-3.87-0.2c-0.17-0.04-0.22-0.36-0.05-0.44
					c1.5-0.71,3.31-0.94,4.91-1.22c0.89-0.15,1.8-0.27,2.69-0.41c0.6-0.09,1.23-0.24,1.85-0.27c1.55-2.16,0.72-5.56-1.44-6.49
					c-0.79,0.39-1.49,0.16-2.35,0.08c-0.86-0.08-1.72-0.14-2.58-0.13c-1.73,0.01-3.56,0.52-5.27,0.3c-0.28-0.04-0.54-0.45-0.26-0.7
					c1.31-1.19,3.18-1.58,4.84-1.84l0.34-0.05c0.56-0.08,1.23-0.2,1.94-0.27c0.16-0.35,0.44-0.61,0.87-0.67
					c0.13-0.02,0.26-0.03,0.38-0.04l0-0.01C-3107.18-3159.17-3107.22-3161.13-3107.51-3161.89z M-3178.99-3125.05
					c-0.02,0.03-0.04,0.06-0.06,0.09l-0.03,0.04l0.17-0.08L-3178.99-3125.05z M-3125.84-3152.57l0.03,0c0.9,0.12,1.53,0.93,1.75,1.9
					c0.32,1.41,0.16,2.69,0.94,3.96c0.8,1.31,1.29,2.36,1.4,3.98c0.05,0.67,0.03,1.33,0.16,1.98l0.1,0.46
					c0.1,0.49,0.19,0.96,0.14,1.48c-0.05,0.48-0.25,0.85-0.68,1c-1.4,0.5-2.47-0.65-2.83-2.1c-0.31-1.25,0.1-2.75-0.33-3.93
					c-0.24-0.65-0.69-1.2-0.95-1.86c-0.25-0.65-0.38-1.33-0.42-2.04c-0.08-1.34,0.98-2.95,0.39-4.16
					C-3126.27-3152.15-3126.13-3152.57-3125.84-3152.57z M-3144.37-3166.38c0.94-0.21,2.02-0.71,2.95-0.3
					c0.48,0.21,0.72,0.86,0.31,1.32c-0.7,0.79-1.72,0.83-2.67,1.02l-0.08,0.02c-1.12,0.23-2.24,0.45-3.36,0.66
					c-2.11,0.39-4.23,0.74-6.35,1.03c-2.18,0.3-4.37,0.57-6.56,0.77l-0.85,0.08c-1.85,0.17-3.78,0.29-5.59-0.03
					c-0.26-0.05-0.22-0.47,0-0.55c1.99-0.67,4.17-0.85,6.23-1.14c2.19-0.3,4.37-0.62,6.55-1c2.17-0.38,4.34-0.79,6.51-1.24
					C-3146.32-3165.95-3145.34-3166.16-3144.37-3166.38z M-3110.28-3168.54c-0.83-0.33-1.74-0.81-2.64-0.65
					c-1.55,0.28-2.93,1.97-4.15,3.08l0.62-0.13c3.15-0.68,7.32-1.4,9.97,0.83c0.01-0.01,0.01-0.03,0.02-0.04
					c0.21-0.36,0.46-0.64,0.73-0.95c0.03-0.03,0.05-0.06,0.08-0.08l0.15-0.17l-0.33-0.13c-0.71-0.28-1.56-0.65-1.69-0.7l-0.01,0
					C-3108.46-3167.84-3109.37-3168.18-3110.28-3168.54z M-3136.16-3242.27c-0.13-1.86,2.47-1.85,2.59,0
					c0.28,4.03-0.53,8.02-2.28,11.56c-0.01,0.03-0.03,0.05-0.04,0.07c1.09,0.64,2.2,1.25,3.33,1.79c1.45,0.7,2.92,1.33,4.42,1.87
					c1.36,0.49,3.03,0.68,4.17,1.69c2.41,2.14,1.5,6.58,1.04,9.45l-0.07,0.45c-0.23,1.48-0.4,3,0.16,4.42
					c0.6,1.52,1.8,2.64,2.88,3.73l0.22,0.22c0.95,0.97,2.04,2.15,2.74,3.47c0.64-1.47,1.51-2.68,2.43-4.04
					c0.66-0.97,0.19-1.29-0.28-2.23c-0.45-0.91-0.68-1.88-0.53-2.92c0.26-1.92,1.63-3.3,3-4.34c1.61-1.23,3.42-2.14,5.08-3.28
					c3.43-2.35,6.77-5.03,9.77-8.02c0.08-0.08,0.23,0.03,0.16,0.14c-2.38,4.04-5.16,7.52-8.59,10.48c-1.39,1.2-2.85,2.2-4.32,3.24
					l-0.42,0.3c-0.59,0.43-1.32,1-1.59,1.72c-0.27,0.73,0.3,1.28,0.61,1.89c0.98,1.92,0.51,3.71-0.65,5.34l-0.05,0.08
					c-1.15,1.58-2.02,3.06-2.44,5.08c-0.9,4.35,0.35,8.88,1.66,12.96l0.05,0.16c0.71,2.2,1.46,4.39,2.07,6.62l0.17,0.62
					c0.56,2.06,1.01,4.09,0.39,6.2c-0.21,0.72-1.09,0.89-1.46,0.21c-1.29-2.39-1.61-5.26-2.42-7.89c-0.79-2.56-1.69-5.07-2.45-7.64
					c-0.98-3.31-1.63-6.87-1.28-10.34c-0.01-0.02-0.02-0.04-0.03-0.06l-0.25-0.61c-0.68-1.65-1.33-3.09-2.57-4.4
					c-1.29-1.37-2.69-2.58-3.7-4.24c-2.2-3.6-0.84-7.61-0.57-11.54l0.03-0.48c0.05-0.82,0.07-1.93-0.4-2.49
					c-0.54-0.64-1.8-0.8-2.51-1.08c-1.84-0.73-3.66-1.58-5.39-2.6c-1.65-0.97-3.24-2.04-4.73-3.3l-0.75-0.63
					c-1.19-1-2.42-2.09-3.22-3.46c-0.09-0.16,0.06-0.41,0.23-0.33c1.33,0.6,2.55,1.56,3.79,2.4c0.02-0.05,0.04-0.1,0.07-0.15
					C-3136.55-3235.29-3135.92-3238.73-3136.16-3242.27z M-3093.68-3220.96c0.53-1.62,2.94-1.5,2.85,0.43
					c-0.07,1.48-0.64,2.82-1.15,4.16l-0.05,0.14c-0.53,1.4-1.15,2.72-1.88,4c-1.4,2.45-3.05,4.73-4.8,6.88
					c-1.59,1.95-3.68,3.14-6.09,2.94c-1.01-0.08-2.04-0.37-2.93-0.94c-1.06-0.67-2.2-2.69-3.55-2.2c-0.13,0.05-0.25-0.17-0.14-0.27
					c1.56-1.4,3.32,0.77,4.81,1.29c2.24,0.79,4.55-0.08,5.99-2.11c1.51-2.11,2.9-4.48,4.16-6.79c0.64-1.17,1.23-2.38,1.74-3.63
					C-3094.22-3218.3-3094.1-3219.67-3093.68-3220.96z M-3097.3-3230.94c-0.07-0.22,0.18-0.44,0.36-0.31
					c1.02,0.74,1.91,1.72,2.85,2.58c1.05,0.95,2.1,1.89,3.17,2.81c1.56,1.34-0.25,3.81-1.62,2.35
					C-3094.42-3225.51-3096.48-3228.14-3097.3-3230.94z M-3102.91-3238.79c0.42-1.79,2.87-1.05,2.51,0.72l-0.01,0.05
					c-0.68,2.92,0.29,5.89,2.35,7.78l0.08,0.07c1.3,1.17-0.54,3.2-1.83,2.05C-3102.64-3230.64-3103.81-3234.92-3102.91-3238.79z
					 M-3108.98-3131.92c-0.23,0.08-0.43,0.18-0.66,0.28c-0.96,0.42-1.77,1.09-2.51,1.89c-1.55,1.68-2.76,3.72-4.38,5.32
					c-1.47,1.45-3.15,2.58-4.95,3.45c-3.73,1.8-7.72,2.52-11.66,3.47l-0.27,0.07c-2.97,0.73-6,1.62-8.61,3.34
					c-0.05,0.51-0.26,0.99-0.59,1.3c0.46,0.48,0.66,1.25,0.25,1.97c-1.13,2.01-3.09,3.15-4.84,4.44l-0.11,0.08
					c-1.72,1.28-3.46,2.53-5.22,3.75c-3.57,2.49-7.21,4.85-10.9,7.1c-5.94,3.62-12,7.04-18.18,10.14c0.37,2.04,0.24,4.14,0.51,6.18
					l0.04,0.29c0.12,0.76-0.04,1.4-0.51,1.89l-0.05,0.05l0-0.01l-0.04,0.05l-0.01,0.01l0,0c-0.05,0.06-0.11,0.11-0.17,0.15
					l-0.07,0.05c-0.45,0.31-1.03,0.3-1.5,0.03l-0.05-0.03l-0.09-0.06c-0.61-0.39-1.03-1.37-0.78-2.14c0.62-1.9,0.86-3.93,1.43-5.84
					l-0.46,0.23l-0.6,0.29c-6.51,3.14-13.74,5.79-20.83,3.65c-3.13-0.95-6.06-2.95-7.63-6.22c-1.54-3.21-1.76-6.94-1.84-10.52
					c-0.1-4.41,0.11-8.89,0.63-13.26c0.35-2.94,0.77-5.93,1.43-8.83c-0.34-0.33-0.58-0.8-0.65-1.39c-0.31-2.77,0.23-5.66,0.56-8.42
					c0.32-2.7,0.68-5.38,1.08-8.07c0.81-5.42,1.76-10.82,2.86-16.17c1.96-9.52,4.54-18.88,7.65-28.01l0.27-0.8
					c2.88-8.35,6.2-16.51,10.84-23.85c2.22-3.51,4.56-6.69,7.69-9.22c2.94-2.37,6.25-4.07,9.66-5.38c3.42-1.3,6.94-2.18,10.51-2.72
					c3.63-0.55,7.47-0.89,10.86-2.55c-0.43-0.86-0.06-2.02,0.66-2.55c2.43-1.79,4.67-4.12,6.85-6.28c0.52-0.52,1.29,0.13,0.96,0.83
					c-0.75,1.57-1.51,3.05-2.51,4.44c-0.61,0.84-1.26,1.63-1.91,2.42c1.69,1.63,3.14,3.66,4.51,5.56c1.75,2.43,3.4,4.96,5.37,7.18
					c1.94,2.19,4.08,3.72,6.67,4.74l0.52,0.2c2.6,1.02,5.38,2.4,6.85,5.15c0.29,0.54-0.29,1.21-0.78,0.87
					c-2.55-1.76-5.54-2.12-8.31-3.28c-2.68-1.12-5.01-2.85-7.08-5.06c-2.06-2.2-3.79-4.71-5.59-7.17c-1.78-2.43-3.7-4.5-5.82-6.55
					c-3.26,2.45-6.97,3.51-10.75,4.56l-0.41,0.11c-3.78,1.05-7.55,2.26-11.1,4.08c-3.13,1.61-6.21,3.52-8.76,6.14
					c-2.71,2.77-4.81,6.32-6.74,9.78c-4.31,7.75-7.34,16.24-10.01,24.83c-2.78,8.94-5.1,18.06-6.97,27.28
					c-0.95,4.69-1.73,9.42-2.36,14.18c-0.31,2.29-0.58,4.59-0.82,6.89c-0.26,2.46-0.31,4.99-0.99,7.35
					c-0.29,1.01-0.97,1.43-1.66,1.4l-0.14,1.94c-0.18,2.59-0.36,5.18-0.41,7.78c-0.1,4.33-0.05,8.65,0.23,12.97l0.04,0.59
					c0.22,3.15,0.71,6.7,2.83,9.01c2.2,2.39,5.58,3.14,8.55,3.19c6.9,0.1,13.55-3.54,19.66-6.74c6.29-3.29,12.41-6.94,18.39-10.9
					c3.04-2.02,6.05-4.1,9.02-6.25c1.46-1.05,2.91-2.12,4.34-3.21c0.82-0.62,1.6-1.31,2.44-1.86c-0.41-0.43-0.59-1.1-0.25-1.68
					c-2.42-2.35-3.43-6.54-3.55-9.92c-0.1-2.74,0.27-5.46,0.55-8.17c0.14-1.37,0.32-2.73,0.51-4.09c0.07-0.54,0.13-1.11,0.21-1.68
					c-6.54,4.01-13.26,7.59-20.16,10.76c-3.54,1.63-7.12,3.09-10.75,4.43l-0.74,0.27c-3.44,1.26-6.96,2.45-10.52,3.16
					c-0.19,0.04-0.34-0.28-0.14-0.38c3.47-1.71,7.05-3.15,10.57-4.72l0.58-0.26c-0.07,0-0.14-0.01-0.21-0.03
					c-2.06-0.56-4.11-1.41-6.14-2.13c-1.88-0.67-3.99-1.09-5.75-2.1c-0.14-0.08-0.06-0.29,0.07-0.3c1.97-0.15,4.12,0.49,6.05,0.87
					l0.73,0.14c1.22,0.24,2.46,0.5,3.67,0.83c0.04-0.45,0.27-0.91,0.59-1.18c3.55-2.94,3.19-8.87,3.57-13.24l0.28-3.25
					c0.5-5.68,1.02-11.36,1.82-17c0.04-0.3,0.46-0.21,0.46,0.07c0.04,6.99-0.43,13.95-0.67,20.93l-0.04,1.14
					c-0.13,4.31-0.23,8.78-2.66,12.09c0.34-0.22,0.8-0.22,1.07,0.14c0.34,0.45,0.53,0.95,0.53,1.45c2.2-1.03,4.38-2.08,6.56-3.16
					c6.99-3.46,13.84-7.33,20.5-11.52c0.72-0.45,1.4-0.1,1.75,0.5l0.05-0.01c0.01,0,0.02,0,0.03,0l0.05,0c0,0,0,0,0.01,0
					c0.94-0.58,2.22-0.17,3.02,0.67c0.02,0.03,0.04,0.05,0.07,0.08c1.02-0.51,1.97-1.2,2.83-2.07c1.77-1.79,3.26-4,4.57-6.22
					c2.4-4.08,4.45-8.63,7.69-11.99c2.64-2.73,5.91-4.43,9.34-5.5c-0.01-0.11,0.02-0.23,0.09-0.31c0.18-0.2,0.3-0.27,0.53-0.15
					c0.02,0.01,0.03,0.02,0.04,0.04l0.33-0.64c0.18-0.35,0.37-0.7,0.44-0.79c0.39-0.55,0.79-1.09,1.2-1.62
					c0.69-0.9,1.48-1.79,2.39-2.41c1.99-1.37,4.09-0.59,6.14,0.15c1.24,0.45,2.47,0.92,3.71,1.38l0.13,0.05
					c0.92,0.33,2,0.62,2.41,1.71c0.16,0.43-0.12,0.67-0.2,1.1c5.6,5.43,6.89,15.75,5.53,24.03c-1.48,9.03-6.09,15.63-11.66,10.85
					c1.67-0.81,5.73-3.08,6.04-5.23c0.22-1.47,0.24-2.62,0.94-3.93c0.65-1.21,1.43-2.46,1.49-3.92c0.05-1.31-0.45-2.7-1.3-3.56
					c0.99-2.02,1.13-4.45,0.12-6.64c-0.73-1.58-1.92-2.68-3.31-3.3c0.65-1.68,0.56-3.82-0.37-5.4c1.19-0.04,2.16-1.61,2.52-2.9
					c10,4.04,12.1,15.3,10.28,24.68c-2.16,11.14-9.87,19.67-16.44,10.4"/>
			</g>
		</g>
	</g>
	<g transform="matrix(0.4441,0,0,0.39775,5.27896,-25.6899)">
		<path class="st1" d="M83.66,172.25c0,0-3.97,27.92-2.78,27.99c1.19,0.08,0.99-4.24,4.5-3.39c3.52,0.84,5.48,2.28,6.28,2.37
			c0.81,0.1-1.12,1.3-1.28,1.82c-0.16,0.53,0.61,2.99,0.02,3.64c-0.59,0.64,4.26-0.16,2.39,6.35c-0.18,0.61,1.18,1.68,0.99,2.14
			c-0.46,1.1-1.6,2.52-1.81,4.55c-0.21,2.04-3.91,2.36-5.56,4.09c-4.32,4.53-4.36,4.03-6.99,6.08c-2.63,2.05-3.14,19.83-4.7,20.87
			c-1.55,1.04,47.62,15.94,57.33,0.33c2.05-3.3-2.22-7.71,0.23-32.71c3.83-38.92,5.16-42.25,4.58-45.15
			c-0.58-2.9-22.01,3.38-28.13,3.07C102.62,173.99,85.79,171.49,83.66,172.25z"/>
	</g>
	<g transform="matrix(0.4441,0,0,0.39775,-12.4413,-41.5171)">
		<path class="st0" d="M123.06,212.11c-0.03,0.06-0.07,0.13-0.1,0.2c-0.11,0.38-0.22,0.75-0.31,1.14c-0.35,1.54-0.53,3.11-0.7,4.67
			c-0.4,3.61-0.59,7.23-0.9,10.85c-0.07,0.89-0.13,1.78-0.23,2.68c-0.05,0.39,0.19,0.76,0.55,0.82c0.36,0.06,0.68-0.22,0.74-0.61
			c0.14-0.91,0.28-1.81,0.38-2.72c0.38-3.61,0.42-7.23,0.78-10.85c0.15-1.52,0.38-3.02,0.61-4.55c0.06-0.38,0.1-0.76,0.15-1.14
			c0.02-0.41,0.03-0.61,0.02-0.68c-0.06-0.36-0.22-0.48-0.31-0.5c-0.07-0.01-0.51-0.1-0.61,0.36
			C123.11,211.86,123.08,211.98,123.06,212.11z M123.13,211.97c0.01-0.03,0.01-0.05-0.01-0.06
			C123.09,211.9,123.11,211.94,123.13,211.97z"/>
	</g>
	<g transform="matrix(0.4441,0,0,0.39775,-12.4413,-41.5171)">
		<path class="st0" d="M175.74,210.77c0.16,0.6,0.21,1.5,0.21,2.64c0,2.11-0.25,4.95-0.63,8.29c-1.44,12.98-4.85,33.4-4.96,48.02
			c-0.04,5.68,0.38,10.53,1.68,13.73c0.15,0.36,0.31,0.69,0.48,1.01c0.02,0.03,0.03,0.06,0.05,0.09c0.09,0.11,0.18,0.18,0.29,0.26
			c0.18,0.33,0.57,0.44,0.86,0.23s0.39-0.63,0.21-0.96c-0.03-0.15-0.02-0.29-0.07-0.44c-0.09-0.3-0.23-0.58-0.34-0.89
			c-1.12-3.08-1.55-7.63-1.5-13.01c0.15-14.55,3.68-34.87,5.05-47.8c0.44-4.16,0.64-7.57,0.49-9.8c-0.09-1.25-0.3-2.18-0.61-2.74
			c-0.1-0.18-0.46-0.54-1.1-0.46c-0.78,0.1-2.66,0.78-2.93,0.83c-4.32,0.83-8.62,1.52-12.94,2.03c-4.3,0.51-8.62,0.86-13.03,1.01
			c-2.16,0.09-8.65-0.77-14.04-1.14c-1.27-0.09-2.48-0.14-3.56-0.16c-1.04-0.01-1.96-0.01-2.7,0.09c-0.27,0.04-0.51,0.08-0.73,0.15
			c-0.52,0.17-0.86,0.38-1.05,0.6c-0.08,0.06-0.1,0.18-0.05,0.27c0.05,0.09,0.16,0.11,0.24,0.05c0.18-0.08,0.44-0.06,0.8-0.07
			c0.25,0,0.53,0,0.85,0c0.72,0,1.6-0.01,2.61,0.05c1.07,0.06,2.26,0.17,3.51,0.29c5.44,0.53,11.98,1.45,14.17,1.41
			c4.44-0.11,8.81-0.42,13.14-0.9c4.36-0.48,8.69-1.14,13.05-1.95C173.42,211.47,174.89,210.95,175.74,210.77z"/>
	</g>
	<g transform="matrix(0.4441,0,0,0.290852,-12.4413,243.154)">
		<path class="st0" d="M118.56-613.41l0.01,0.01c0.01,0,0.01,0.01,0.02,0.01l0.02,0.01c-0.05,0.17-0.12,0.45-0.18,0.74
			c-0.14,0.71-0.24,1.76-0.39,2.88c-0.4,2.95-0.86,6.52-0.89,6.79c-0.42,3.77-1.38,7.51-2.04,11.24c-0.29,1.66-0.53,3.31-0.66,4.97
			l0,0c-0.18,0.51-0.67,1.4-0.85,2.05c-0.19,0.67-0.12,1.23,0.08,1.59c0.17,0.31,0.77,0.8,1.78,1.27c2.59,1.22,8.17,2.98,14.31,4.68
			c4.85,1.34,10.05,2.63,14.4,3.6c4.82,1.07,8.61,1.71,9.81,1.62c3.35-0.25,8.68-2.04,12.97-5.01c2.57-1.78,4.79-3.97,5.99-6.48
			c0.2-0.42,0.38-0.85,0.51-1.3c0.14-0.49,0.25-0.98,0.32-1.48c0.12-0.54-0.08-1.12-0.43-1.3c-0.36-0.18-0.74,0.12-0.85,0.66
			c-0.1,0.34-0.25,0.63-0.4,0.95c-0.14,0.31-0.29,0.61-0.46,0.91c-1.16,2.12-3.12,3.99-5.41,5.54c-4.09,2.78-9.14,4.57-12.32,4.82
			c-2.24,0.19-13.81-2.26-23.87-4.8c-6.1-1.54-11.64-3.12-14.21-4.25c-0.41-0.18-0.75-0.35-0.98-0.5c0.12-0.3,0.31-0.78,0.44-1.07
			c0.22-0.5,0.36-0.96,0.38-1.2c0.09-1.6,0.31-3.2,0.57-4.81c0.63-3.8,1.54-7.61,1.92-11.44c0.03-0.33,0.7-5.57,0.98-8.64
			c0.03-0.36,0.08-0.7,0.08-0.99c0-0.48-0.05-0.83-0.07-1.05c-0.05-0.4-0.17-0.55-0.22-0.54c-0.17-0.02-0.4-0.1-0.49-0.03
			c-0.09,0.07-0.17,0.18-0.13,0.43c0.02,0.14,0.11,0.24,0.21,0.2C118.51-613.36,118.54-613.38,118.56-613.41z"/>
	</g>
	<g transform="matrix(0.4441,0,0,0.39775,5.27896,-25.6899)">
		<path class="st0" d="M97.95,183.47c0.2-0.32,0.25-0.5,0.26-0.54c0.01-0.21-0.17-0.53-0.57-0.22c-0.05,0.04-0.1,0.17-0.24,0.24
			c-0.05,0.03-0.06-0.01-0.12,0.01c-0.06,0.03-0.11,0.09-0.16,0.14c-0.98,1.08-2.83,4.07-3.03,4.41c-1.17,2.12-2.54,4.38-3.58,6.75
			c-0.72,1.64-1.28,3.34-1.59,5.04c-0.07,0.33,0.12,0.65,0.41,0.72c0.29,0.07,0.58-0.13,0.65-0.46c0.35-1.58,0.97-3.13,1.68-4.66
			c1.07-2.32,2.37-4.57,3.52-6.66c0.18-0.34,2.03-3.2,2.71-4.49c0.04-0.07,0.08-0.14,0.09-0.21
			C97.97,183.51,97.96,183.49,97.95,183.47z"/>
	</g>
	<g transform="matrix(0.4441,0,0,0.39775,5.27896,-25.6899)">
		<path class="st0" d="M105.07,188.32c-0.22-0.25-0.49-0.47-0.79-0.66c-1.85-1.12-5.06-0.78-6.37,1.45
			c-0.09,0.16-0.27,0.51-0.31,0.82c-0.04,0.26-0.01,0.51,0.08,0.72c0.08,0.18,0.21,0.34,0.4,0.47c-0.1,0.25-0.19,0.5-0.26,0.74
			c-0.25,0.86-0.26,1.69,0.03,2.35c0.27,0.63,0.82,1.15,1.79,1.4c0.53,0.13,1.13,0.07,1.71-0.11c0.8-0.25,1.59-0.74,2.13-1.23
			c1.93-1.76,2.44-3.33,2.27-4.48l0.78-0.24c1.81-0.56,3.47-1.05,4.34-0.98c0.34,0.03,0.56,0.17,0.69,0.41
			c0.1,0.19,0.17,0.42,0.22,0.68c-0.43,0.29-0.79,0.6-1.05,0.9c-0.63,0.71-0.77,1.44-0.55,1.98c0.19,0.46,0.75,1.02,1.99,1.09
			c0.2,0.87,0.58,1.61,1.22,2.08c1.4,1.02,3.3,0.77,4.84-0.27c1.51-1.01,2.64-2.74,2.68-4.5c0.04-1.73-0.8-2.66-2.07-3.04
			c-1.17-0.34-2.8-0.14-4.33,0.4c-0.47,0.16-0.92,0.36-1.35,0.57c-0.08-0.28-0.17-0.54-0.3-0.77c-0.37-0.67-0.94-1.13-1.88-1.2
			c-0.63-0.05-1.63,0.14-2.8,0.46C107.22,187.62,106.15,187.97,105.07,188.32z M113.42,190.76c0.03,0.36,0.05,0.72,0.07,1.07
			c0.07,0.97,0.11,1.94,0.75,2.4c0.92,0.66,2.15,0.36,3.15-0.33c1.02-0.7,1.85-1.81,1.87-3c0.01-0.69-0.34-1.05-0.85-1.2
			c-0.62-0.18-1.41-0.11-2.24,0.07C115.24,189.97,114.25,190.33,113.42,190.76z M104.46,190.2c-1.9,0.59-3.74,1.13-4.9,1.22
			c-0.16,0.01-0.32,0.01-0.46,0c-0.1,0.26-0.19,0.52-0.25,0.77c-0.13,0.54-0.17,1.04,0.02,1.44c0.16,0.33,0.49,0.54,1.02,0.65
			c0.44,0.1,0.95-0.01,1.42-0.21c0.52-0.22,1.01-0.55,1.37-0.88C103.99,191.97,104.5,190.97,104.46,190.2z M111.66,191.97
			c-0.03-0.09-0.08-0.19-0.13-0.13c-0.05,0.06,0,0.11,0.1,0.16c-0.03,0.05-0.04,0.09,0.01,0.12c0.04,0.02,0.04-0.03,0.03-0.1
			l-0.03-0.01l0.01-0.01L111.66,191.97z M111.94,191.73c-0.11,0.08-0.22,0.17-0.28,0.23l0.01,0.02l0,0.02
			c0.08,0.03,0.18,0.06,0.29,0.09C111.95,191.97,111.95,191.85,111.94,191.73z M103.43,188.86c-0.82-0.4-1.92-0.47-2.86-0.13
			c-0.08,0.13-0.16,0.26-0.25,0.4c-0.13,0.21-0.27,0.44-0.41,0.67c0.08-0.01,0.17-0.03,0.25-0.04
			C101.08,189.58,102.22,189.24,103.43,188.86z"/>
	</g>
	<g transform="matrix(0.4441,0,0,0.39775,5.27896,-25.6899)">
		<path class="st0" d="M105.42,201.51c0.09-0.02,0.21-0.05,0.33-0.09c0.51-0.18,1.41-0.42,2.88-0.8c1.12-0.28,2.55-0.67,4.41-1.09
			c2.22-0.52,3.99-0.91,5.76-1.27c1.77-0.36,3.55-0.7,5.79-1.09c0.6-0.16,1.23-0.26,1.74-0.3c0.05,0.26,0.27,0.43,0.51,0.37
			c0.5-0.08,0.78-0.2,0.89-0.28c0.23-0.17,0.25-0.39,0.24-0.55c-0.01-0.16-0.19-0.5-0.7-0.63c-0.57-0.15-1.77-0.24-2.9-0.13
			c-2.25,0.42-4.04,0.77-5.82,1.17c-1.78,0.4-3.55,0.84-5.77,1.4c-1.96,0.51-3.46,0.91-4.59,1.3c-0.83,0.28-1.46,0.55-1.93,0.77
			c-0.73,0.35-1.12,0.6-1.28,0.77c-0.26,0.28-0.22,0.5-0.13,0.6c0.05,0.06,0.14,0.15,0.29,0.15c0.13,0.02,0.24-0.08,0.26-0.22
			C105.43,201.56,105.43,201.54,105.42,201.51z M105.32,201.55c-0.02,0.01-0.03,0.03-0.02,0.05
			C105.32,201.61,105.32,201.58,105.32,201.55z"/>
	</g>
	<g transform="matrix(0.4441,0,0,0.39775,5.27896,-25.6899)">
		<path class="st0" d="M127.95,200.86c0.04,0,0.08,0,0.12,0c0.78-0.03,1.09-0.67,0.64-1.08c-0.1-0.18-0.31-0.29-0.59-0.28
			c-0.15-0.04-0.34-0.06-0.54-0.06c-0.31,0-0.74,0-1.23,0.02c-1.75,0.1-4.25,0.44-4.95,0.63c-1.16,0.32-5.31,1.9-8.92,3.34
			c-1.57,0.62-3.04,1.19-4.1,1.65c-0.75,0.33-1.3,0.57-1.55,0.72c-0.08,0.05-0.13,0.11-0.13,0.11s0.04,0,0.05,0
			c-0.13,0-0.23,0.11-0.23,0.25s0.1,0.26,0.23,0.26c0.01,0,0.15,0.01,0.4-0.03c0.27-0.04,0.68-0.16,1.22-0.33
			c3.44-1.07,11.65-4.08,13.36-4.48c0.68-0.17,3.08-0.33,4.75-0.5c0.48-0.05,0.9-0.11,1.2-0.16
			C127.76,200.91,127.86,200.88,127.95,200.86z"/>
	</g>
</g>
</svg>
