<?xml version="1.0" encoding="utf-8"?>
<!-- Generator: Adobe Illustrator 24.2.0, SVG Export Plug-In . SVG Version: 6.00 Build 0)  -->
<svg version="1.1" id="图层_1" xmlns="http://www.w3.org/2000/svg" xmlns:xlink="http://www.w3.org/1999/xlink" x="0px" y="0px"
	 viewBox="0 0 85 85" style="enable-background:new 0 0 85 85;" xml:space="preserve">
<style type="text/css">
	.st0{fill-rule:evenodd;clip-rule:evenodd;}
	.st1{fill-rule:evenodd;clip-rule:evenodd;fill:#FFFFFF;}
	.st2{display:none;}
	.st3{display:inline;}
	.st4{fill-rule:evenodd;clip-rule:evenodd;fill:#040000;}
</style>
<g>
	<g transform="matrix(1,0,0,1,-60.5913,415.2)">
		<g transform="matrix(0.4441,0,0,0.39775,0,0)">
			<path class="st0" d="M284.3-994.5c-0.1,0.5-0.2,1.1,0,1.3c0.3,0.4,0,0.2,0.3,0.3c0.1,0.4,0.3,0.7,0.5,1.1
				c0.2,0.3,0.4,0.5,0.7,0.8c-0.1,0.2-0.1,0.4-0.1,0.6c0,0.8,0.6,1.4,1.2,1.4c0.6,0,1-0.3,1.3-0.8c0-0.1,0.1-0.1,0.1-0.2
				c1.3,0,2.8-0.6,3.9-1c2-0.8,4-2,5.8-3.6c1.8-1.6,3.3-3.5,4.4-5.6c0.5-1.1,1.2-2.3,1.4-3.5c0.2-1.1,0.1-2.2-0.6-3.3
				c-0.6-1-1.5-1.7-2.4-2.1c-0.8-0.9-1.8-1.2-2.8-1.2c-1.4,0-3,0.7-4.1,1.2c-2.1,1-3.4,1.8-4.3,2.7c-1.5,1.5-2,3.3-3.9,6.6
				c-0.6,1-1.2,2.8-1.4,4.4C284.3-995.2,284.3-994.9,284.3-994.5z"/>
		</g>
		<g transform="matrix(0.4441,0,0,0.39775,0,0)">
			<path class="st0" d="M286.1-991.2l0-0.3c-0.2-0.3-0.4-0.6-0.7-0.8c-0.3-0.3-0.7-0.6-1-0.9l-4.1-3c-1.1-0.7-3.5-2-5.7-2.8
				c-1.8-0.7-3.6-1-4.6-0.6c-0.5,0.1-0.9,0.4-1.2,0.8c-0.4,0.5-0.7,1.1-1.2,1.5c-0.4,0.4-1,0.9-1.4,1.4c-0.3,0.4-0.5,0.8-0.6,1.3
				c-1,4.1,1,6.6,4.1,7.9c3.7,1.5,9,1.1,11.4,0.1c0.7-0.3,2.9-0.6,4.1-1.3c0.7-0.5,1.2-1.1,1.3-1.8
				C286.6-990,286.6-990.6,286.1-991.2z M282.3-990L282.3-990L282.3-990L282.3-990L282.3-990z M270.8-993.9c-0.1,0-0.2,0-0.2,0.2
				C270.6-993.6,270.7-993.8,270.8-993.9z"/>
		</g>
		<g transform="matrix(0.4441,0,0,0.39775,0,0)">
			<path class="st0" d="M287-987.2C287-987.2,287-987.2,287-987.2c-0.2-0.1-0.3-0.1-0.5-0.1c-0.4-0.1-0.8-0.1-1.1,0
				c-1,0.2-2.8,1.5-3.7,3c-0.8,1.4-0.9,3,0.3,4.3c1.1,1.2,2.6,1.1,4.1,0.1c1.2-0.8,2.3-2.2,2.8-3.2c0.3-0.7,0.4-1.4,0.2-1.9
				c-0.2-0.7-0.5-1.2-0.9-1.4c-0.1-0.1-0.1-0.2-0.2-0.4c-0.1-0.1-0.1-0.3-0.2-0.4c-0.3-0.3-0.6-0.2-0.7-0.1
				C287-987.3,287-987.2,287-987.2z M285.7-982.6C285.7-982.6,285.6-982.5,285.7-982.6C285.6-982.5,285.7-982.6,285.7-982.6z
				 M286.5-984.5L286.5-984.5c0.1,0,0.1,0.1,0.1,0.1l0,0c0,0,0,0,0,0l0,0C286.6-984.5,286.6-984.5,286.5-984.5L286.5-984.5z
				 M287-987c-0.1,0,0,0.1,0,0.2l0.1,0h0C287-986.8,287-986.9,287-987z M287.1-987.1C287.1-987.1,287.1-987.1,287.1-987.1
				C287.1-987.1,287.1-987.1,287.1-987.1z"/>
		</g>
		<g transform="matrix(0.4441,0,0,0.39775,0,0)">
			<path class="st0" d="M290.1-989c-0.1-0.4-0.3-0.9-0.8-1.2c-0.5-0.3-1.3-0.4-2.1-0.4c-0.5,0.1-1,0.3-1.3,0.5
				c-0.2,0.1-0.4,0.1-0.6,0.2c-0.2,0.1-0.5,0.4-0.7,0.7c-0.2,0.4-0.2,0.8-0.1,1.3c0.1,0.2,0.2,0.4,0.3,0.6c0.1,0.2,0.2,0.3,0.4,0.5
				c0.5,0.4,1.4,0.8,2.2,0.9c0.5,0,0.9,0,1.3-0.2c0,0.1,0.1,0.1,0.1,0.2c0.3,0.4,0.7,0.8,1.4,1c0.4,0.1,0.9,0.2,1.4,0.2
				c0.2,0.1,0.4,0.2,0.6,0.3c1.1,0.5,3.2,0.2,4.6-0.9c1.2-0.8,1.9-2.1,1.8-3.5c-0.1-0.6-0.4-1.1-0.9-1.5c-0.4-0.3-1.1-0.5-1.9-0.5
				c-1.9-0.1-4.6,0.7-5.2,1.3C290.5-989.3,290.4-989.2,290.1-989z M288.8-990.1c-0.1,0-0.1,0-0.2,0.1c0,0.1,0.2,0.1,0.3,0.1l0,0
				C288.8-990,288.8-990,288.8-990.1L288.8-990.1z M288.8-990.1L288.8-990.1C288.9-990.1,288.9-990.1,288.8-990.1z"/>
		</g>
		<g transform="matrix(0.343675,0,0,0.235074,493.182,323.819)">
			<path class="st0" d="M-1070.8-3064.3c0,0.6,0.1,1.2,0.2,1.8c0.4,2,1.2,4.1,2.2,6.1c1.7,3.5,3.9,6.9,5.7,9.5
				c0.4,0.5,0.9,0.5,1.3,0c0.4-0.5,0.3-1.4,0-1.9c-1.8-2.5-4-5.7-5.7-9c-1-1.8-1.7-3.6-2.4-5.4c-0.2-0.5-0.4-0.9-0.5-1.4
				c-0.1-0.3-0.3-0.5-0.5-0.4C-1070.7-3064.9-1070.9-3064.6-1070.8-3064.3z"/>
		</g>
		<g transform="matrix(0.4441,0,0,0.39775,0,0)">
			<path class="st0" d="M284.8-993.9c0-0.2,0-0.5,0-0.7c0-0.6,0.1-1.2,0.2-1.8c0.2-1.3,0.5-2.6,1-3.8c0.5-1.2,1.1-2.4,1.7-3.5
				c1.1-1.8,3.7-3.6,6.5-4.6c2.7-0.9,5.5-1.1,7.1,0.6c1.1,1.2,1.3,2.6,1.1,4.1c-0.2,1.6-0.9,3.1-1.7,4.4c-1.5,2.4-3.5,4.7-5.8,6.2
				c-1.1,0.7-2.4,1.2-3.7,1.5c-1.2,0.2-2.5,0.3-3.9-0.1c-0.4-0.1-0.8,0.1-0.9,0.6c-0.1,0.4,0.1,0.9,0.5,1c1.8,0.7,3.5,0.8,5.1,0.5
				c0.7-0.1,1.4-0.4,2.1-0.7c3.3-1.4,6.1-4.4,8.1-7.7c1.1-1.9,2.1-4.3,2-6.6c-0.1-1.6-0.6-3.2-1.8-4.5c-1.6-1.7-4.3-2-7.1-1.3
				c-3.6,0.9-7.4,3.5-8.8,5.9c-0.6,1.2-1.3,2.4-1.7,3.8c-0.5,1.3-0.8,2.7-1,4.1c0,0.4-0.1,0.9-0.1,1.4c0,0.5,0.1,1,0.2,1.4
				c0,0.2,0.2,0.4,0.4,0.3C284.7-993.4,284.8-993.6,284.8-993.9z"/>
		</g>
		<g transform="matrix(0.4441,0,0,0.39775,0,0)">
			<path class="st0" d="M290-988.8c0.1,0,0.4,0,0.5-0.1c0.6-0.2,1.5-0.5,1.7-0.5c0.9-0.2,2.6-0.7,4-0.5c0.7,0.1,1.4,0.3,1.6,1
				c0.6,1.8-0.6,3.3-2,4c-1.5,0.8-3.4,1-4.5-0.3c-0.3-0.3-0.8-0.3-1.1,0c-0.3,0.3-0.3,0.8,0,1.2c1.5,1.9,4.3,2.1,6.4,1
				c2.2-1.2,3.7-3.7,2.7-6.6c-0.4-1.1-1.2-1.7-2.2-1.9c-1.7-0.4-4.2,0.3-5.3,0.7c-0.2,0.1-1.1,0.4-1.7,0.7c-0.3,0.2-0.6,0.4-0.7,0.6
				c-0.3,0.3-0.3,0.6-0.2,0.7c0.1,0.1,0.1,0.2,0.2,0.2c0.2,0.1,0.4,0,0.5-0.2C290-988.7,290-988.8,290-988.8z M290-988.8
				C289.9-988.8,289.9-988.8,290-988.8C290-988.7,290-988.7,290-988.8z"/>
		</g>
		<g transform="matrix(0.4441,0,0,0.39775,0,0)">
			<path class="st0" d="M282.1-993.8c0,0.2,0,0.3,0.1,0.5c0.1,0.3,0.4,0.6,0.9,0.6c0.2,0,0.3-0.1,0.4-0.2c0.1-0.1,0-0.6,0-0.8
				c-0.2-0.4-0.3-0.7-0.5-0.9c-0.2-0.2-0.4-0.4-0.7-0.7c-0.5-0.4-1-0.8-1.5-1.2c-0.8-0.5-1.6-1-2.4-1.5c-2.7-1.6-4.8-2.6-6.9-2.4
				c-1.4,0.2-2.8,1-4.4,2.6c-0.6,0.7-1.2,1.4-1.6,2.1c-0.3,0.6-0.5,1.2-0.6,2c-0.2,1.7,0.2,3.2,1,4.4c1.1,1.7,2.9,2.8,4.9,3.4
				c3.1,0.8,6.7,1.3,10,0.7c2.3-0.4,4.5-1.4,6.3-3c0.3-0.3,0.4-0.8,0.1-1.2c-0.3-0.4-0.8-0.4-1.1-0.2c-2,1.7-4.6,2.4-7.2,2.6
				c-2.7,0.2-5.4-0.1-7.8-0.7c-1.3-0.3-2.6-1-3.5-2c-0.9-0.9-1.4-2.2-1.2-3.7c0.1-0.6,0.3-1.1,0.5-1.6c0.3-0.5,0.7-1,1.2-1.5
				c1.6-1.8,3-2.4,4.6-2.3c1.6,0.1,3.2,1,5.1,2.1c0.8,0.5,1.6,0.9,2.4,1.5c0.5,0.3,1,0.7,1.5,1.1C281.7-994.2,281.9-994,282.1-993.8
				L282.1-993.8z"/>
		</g>
		<g transform="matrix(0.4441,0,0,0.39775,0,0)">
			<path class="st0" d="M287.4-986.8L287.4-986.8c0,0-0.1,0-0.2,0c-0.7-0.1-2.3-0.5-2.4-0.5c-0.6,0-1.2,0.2-1.8,0.5
				c-0.5,0.3-1,0.8-1.4,1.2c-1.5,1.8-1.7,4.6-0.8,6.4c0.7,1.3,2,2.1,3.9,1.7c1-0.2,1.6-0.5,2.1-0.9c0.7-0.6,1.1-1.5,1.9-2.8
				c0.4-0.7,0.7-1.4,0.8-2.2c0.2-1.1,0.3-2.2,0.3-3.3c0-0.4-0.3-0.8-0.7-0.8c-0.4,0-0.7,0.3-0.7,0.7c-0.1,0.9-0.2,2-0.4,2.9
				c-0.1,0.6-0.4,1.1-0.7,1.6c-0.7,1.1-1,1.8-1.6,2.3c-0.3,0.3-0.7,0.4-1.4,0.6c-1.3,0.3-2.2-0.3-2.5-1.4c-0.3-1.2-0.1-2.7,0.7-3.8
				c0.3-0.4,0.6-0.7,1-1c0.4-0.3,0.8-0.5,1.2-0.5c0.1,0,1.7,0.1,2.4,0.1c0.3,0,0.5-0.1,0.6-0.2c0.1-0.2,0.1-0.4,0-0.6
				C287.6-986.8,287.5-986.8,287.4-986.8z"/>
		</g>
		<g transform="matrix(0.4441,0,0,0.39775,0,0)">
			<path class="st0" d="M283.5-994.9c0,0,0-0.1-0.1-0.1h0c-0.1-0.2,0-0.8,0-0.9c0-0.6,0.1-1.2,0.2-1.9c0.2-1.3,0.4-2.8,0.8-4.3
				c0.3-1.2,0.7-2.4,1.1-3.5c0.3-0.8,0.6-1.6,0.9-2.2c0.2-0.3,0.1-0.7-0.2-0.9c-0.3-0.2-0.6-0.1-0.8,0.2c-0.4,0.7-0.9,1.4-1.2,2.3
				c-0.4,1.1-0.8,2.5-1.1,3.8c-0.3,1.6-0.6,3.1-0.6,4.5c0,0.7,0,1.4,0,2c0,0.1,0.2,1.2,0.5,1.4c0.2,0.2,0.4,0.3,0.5,0.1
				c0.2-0.1,0.2-0.3,0.1-0.5C283.6-994.8,283.5-994.8,283.5-994.9z M283.4-994.9C283.4-994.9,283.4-994.8,283.4-994.9
				c0.1,0.1,0.1,0.1,0.1,0.1C283.4-994.9,283.4-994.9,283.4-994.9L283.4-994.9z"/>
		</g>
		<g transform="matrix(0.4441,0,0,0.39775,0,0)">
			<path class="st0" d="M281.8-998l-5.2-6.2c-0.2-0.3-0.6-0.3-0.9,0c-0.2,0.3-0.2,0.7,0,1c0.2,0.2,0.9,1.3,1.8,2.4
				c0.6,0.8,1.3,1.6,2,2.2c0.7,0.6,1.3,1.1,1.7,1.3c0.4,0.2,0.7,0.2,0.8,0c0.1-0.1,0.2-0.3,0.1-0.5C282.2-998.1,282-998.1,281.8-998
				z"/>
		</g>
		<g transform="matrix(0.4441,0,0,0.39775,0,0)">
			<path class="st0" d="M286.1-1011.8C286-1011.8,286-1011.8,286.1-1011.8c-0.1,0.1-0.1,0.1-0.1,0.2c0,0.1,0,0.1,0,0.2
				c0,0.3-0.2,0.7-0.1,1.2v0c0,0,0,0,0,0l0,0.1l0,0c0,0,0,0.1,0,0.1c0,0.3,0.1,0.5,0.3,0.7c0,0.2,0.2,0.3,0.4,0.2c0,0,0.1,0,0.1,0
				c0,0,0.1,0,0.1,0c0.2,0.1,0.3-0.2,0.5-0.2c0.1,0,0.1-0.1,0.1-0.2c0.1-0.1,0.1-0.2,0.2-0.5c0.1-0.2-0.1-0.6-0.1-1
				c0-0.1,0-0.1,0-0.2c0-0.1,0-0.1,0-0.1l0,0l0,0l0,0l0,0c0.1-0.6-0.4-0.7-0.9-0.7C286.4-1012.1,286.2-1012.1,286.1-1011.8z
				 M286-1010.6C286-1010.6,286-1010.6,286-1010.6c0,0.1-0.2,0.2-0.2,0.2l0,0l0,0c0,0,0,0,0,0C285.9-1010.4,286-1010.5,286-1010.6
				L286-1010.6z M287.5-1011.3L287.5-1011.3C287.5-1011.2,287.5-1011.2,287.5-1011.3C287.5-1011.2,287.6-1011.3,287.5-1011.3
				L287.5-1011.3z"/>
		</g>
		<g transform="matrix(0.4441,0,0,0.39775,0,0)">
			<path class="st0" d="M275.2-1004.2c0.2-0.2,0.5-0.6,0.6-1c0.2-0.6,0.1-1,0-1.2c-0.2-0.5-1-0.8-1.7,0c-0.3,0.3-0.5,0.9-0.6,1.4
				c-0.1,0.7,0,1.4,0.5,1.9c0.3,0.4,0.8,0.4,1.2,0C275.3-1003.4,275.4-1003.9,275.2-1004.2z M275.2-1005c0.1,0,0.2,0,0.1-0.1
				C275.3-1005.2,275.3-1005.1,275.2-1005z M274.2-1005.5c0,0,0-0.1,0-0.1c0-0.1,0-0.1,0-0.1
				C274.1-1005.8,274.2-1005.7,274.2-1005.5z"/>
		</g>
		<g transform="matrix(0.4441,0,0,0.39775,0,0)">
			<path class="st1" d="M285.6-992.4L285.6-992.4c0.1-0.2-0.2-0.7-0.4-0.7c-0.3-0.1-0.5,0.1-0.5,0.4c0,0.1,0,0.2,0.1,0.3
				c0,0.2,0.1,0.3,0.2,0.5l0.8,1.5c0.7,1.1,1.3,2.2,2.1,3.2c0.1,0.2,0.3,0.4,0.4,0.5c0.2,0.2,0.5,0.4,0.8,0.6c0.1,0.1,0.3,0.1,0.5,0
				c0.1-0.1,0.1-0.4,0-0.5l-3.1-4.3L285.6-992.4L285.6-992.4z M284.9-992.6c0,0.1,0,0.1,0,0.2C284.9-992.5,284.9-992.5,284.9-992.6z
				"/>
		</g>
		<g transform="matrix(0.4441,0,0,0.39775,0,0)">
			<path class="st1" d="M287.1-994.1C287.2-994.1,287.2-994.1,287.1-994.1c0.1,0,0.1-0.1,0.1-0.1c0.2,0.1,0-0.2,0.1-0.1
				c0,0,0-0.1,0-0.1c0.2,0,0-0.2,0.1-0.2c0.1,0-0.1-0.1,0-0.2c0.1,0-0.1-0.1,0-0.1c0.1-0.1,0-0.1,0-0.2v0l0,0c0.3-0.3,0.7-0.6,0-0.2
				c0,0-0.1,0,0-0.1c0,0,0-0.1,0-0.1c0.1-0.1-0.1,0-0.1-0.1c0-0.1,0-0.1-0.1-0.1c0,0,0,0,0,0c0,0,0,0,0,0l0,0c0,0.1,0.1,0,0.1,0.1
				c0,0.1,0.1,0,0,0.1c0,0.1,0,0.1,0.1,0.1l0,0l0,0l0,0c0,0,0,0.1,0,0.1c-0.1,0-0.2,0.1-0.3,0.2c0,0.1,0,0.1,0,0.2
				c-0.2,0.1-0.3,0.1,0.2-0.5c-0.1-0.2-0.3-0.4-0.6-0.4c0,0,0.1,0,0.1-0.1l0,0l0,0c0,0,0,0,0,0l0,0c-0.1,0-0.1,0-0.2,0
				c-0.2-0.1-0.4,0-0.5,0.1c-0.1,0.1-0.1,0-0.1,0.1c0,0.2-0.2,0-0.1,0.1c0.1,0.1-0.1,0-0.1,0.1c0,0.1-0.1,0,0,0.1
				c0.1,0.1-0.1,0.1,0,0.2c0.1,0-0.1,0,0,0.1c0.1,0.1-0.1,0.1,0,0.2c0.1,0-0.1,0.1,0,0.1c0.1,0,0,0.1,0,0.1c0.2,0-0.1,0.2,0.1,0.2
				c0.1,0,0,0.2,0.1,0.1c0.1,0,0,0.1,0.1,0.1c0.1,0,0,0.1,0.1,0.1c0.1-0.1,0.1,0.3,0.2,0.1c0.1-0.1,0.1,0.1,0.1,0
				c0.1-0.1,0.1,0.2,0.2,0c0-0.1,0.1,0.1,0.2,0c0-0.1,0.1,0.1,0.1,0C287-994.1,287.1-994,287.1-994.1z M287.5-995L287.5-995
				c-0.1,0.1-0.2,0.1-0.3,0.2c0,0.1-0.1,0.3-0.2,0.3c-0.2,0.1-0.4,0-0.5-0.1l-0.1,0c-0.1,0.1-0.4,0.3-0.1,0.1c0.4-0.3-0.4,0.3,0,0.1
				c0.1,0,0,0.1,0,0.1c0.1,0,0,0.1,0,0.1c0.1,0,0.1,0.2,0.2,0.1c0.1,0,0.1,0.1,0.2,0.1c0.1-0.1,0.3,0,0.4-0.1c0,0,0,0,0-0.1
				C287.4-994.3,287.5-994.6,287.5-995L287.5-995C287.5-995,287.5-995,287.5-995L287.5-995L287.5-995L287.5-995L287.5-995z
				 M286.6-994.7C286.5-994.6,286.3-994.5,286.6-994.7L286.6-994.7L286.6-994.7z M286.9-995.8C286.9-995.8,286.9-995.7,286.9-995.8
				c0,0.1,0.1,0,0.1,0.1c0,0.1,0.1,0,0,0c0,0.1,0.1,0.1,0.1,0.1c0,0,0,0,0-0.1C287.1-995.8,287-995.8,286.9-995.8z M286.4-995.6
				C286.4-995.6,286.4-995.6,286.4-995.6C286.4-995.7,286.4-995.6,286.4-995.6L286.4-995.6z M286.8-995.7
				C286.8-995.7,286.8-995.7,286.8-995.7c-0.1-0.1-0.1,0-0.1-0.1c0-0.1,0,0.1-0.1,0c0,0,0,0.1-0.1,0c0,0,0,0,0,0.1
				C286.6-995.7,286.7-995.7,286.8-995.7z"/>
		</g>
		<g transform="matrix(0.4441,0,0,0.39775,0,0)">
			<path class="st1" d="M289.1-994.8c0,0-0.1,0-0.1,0c-0.3,0.2-0.2,0.5-0.2,0.5c0,0,0.2,0.3,0.5,0.2c0.1,0,0.2-0.1,0.3-0.2
				c0.1-0.1,0.2-0.4,0-0.6C289.5-994.9,289.2-995,289.1-994.8z M289.4-994.1L289.4-994.1L289.4-994.1L289.4-994.1z M289.5-994.3
				c0,0.1,0,0.1-0.1,0.1C289.5-994.2,289.5-994.2,289.5-994.3z"/>
		</g>
		<g transform="matrix(0.4441,0,0,0.39775,0,0)">
			<path class="st1" d="M289.6-990.8c0-0.1,0.1-0.1,0.1-0.2c0,0,0.1-0.1,0.1-0.1c0,0,0-0.1,0-0.1l0,0l0,0c0,0,0,0.1,0,0.1l0,0
				c0,0,0,0,0,0l0,0l0,0c0,0,0,0,0,0C289.6-990.9,289.6-990.8,289.6-990.8C289.6-990.8,289.6-990.7,289.6-990.8
				C289.6-990.7,289.6-990.8,289.6-990.8c0.2,0,0.1-0.1,0.1-0.2l0,0l0,0c0,0,0,0,0,0c0,0,0,0,0-0.1l0,0l0,0l0,0c0.1,0,0.1-0.1,0-0.1
				c0-0.1,0-0.2,0-0.4c-0.1-0.2-0.3-0.2-0.5-0.1c-0.1,0-0.1-0.2-0.2-0.1c-0.1,0.1-0.2,0.2-0.2,0.2c0,0.1-0.1,0.1-0.1,0.1
				c0.1,0.1-0.1,0.2,0,0.2c0.2,0.1-0.1,0.4,0.2,0.4c0,0,0,0.1,0.1,0.1c0.1,0,0.1,0.1,0.1,0.1C289.3-990.6,289.4-990.7,289.6-990.8z
				 M289.7-991.4L289.7-991.4L289.7-991.4C289.7-991.4,289.7-991.4,289.7-991.4L289.7-991.4z M289.6-991.5
				C289.6-991.5,289.6-991.5,289.6-991.5L289.6-991.5L289.6-991.5C289.7-991.5,289.7-991.5,289.6-991.5L289.6-991.5z M289.5-991.6
				L289.5-991.6C289.5-991.7,289.5-991.7,289.5-991.6L289.5-991.6L289.5-991.6z"/>
		</g>
		<g transform="matrix(0.4441,0,0,0.39775,0,0)">
			<path class="st1" d="M292.5-993c-0.2,0-0.3,0.1-0.4,0.3c0,0.2,0.1,0.4,0.2,0.5c0,0.1,0.2,0.2,0.4,0.1c0.1-0.1,0-0.1,0-0.2
				c0.2-0.1,0.3-0.3,0.2-0.5C292.9-993.1,292.7-993.2,292.5-993c-0.1-0.1,0.1-0.2-0.1-0.1C292.4-993.2,292.4-993.1,292.5-993
				C292.4-993.2,292.4-993.1,292.5-993z"/>
		</g>
		<g transform="matrix(0.4441,0,0,0.39775,0,0)">
			<path class="st1" d="M295.5-993.6c0,0,0-0.1,0.1-0.1c0-0.2-0.1-0.4-0.3-0.5c-0.1,0-0.2,0-0.3,0.1c-0.1,0.1-0.2,0.3-0.2,0.4
				c-0.1,0.2,0.1,0.4,0.3,0.5C295.2-993.2,295.4-993.3,295.5-993.6L295.5-993.6z"/>
		</g>
		<g transform="matrix(0.4441,0,0,0.39775,0,0)">
			<path class="st1" d="M297.4-996.1C297.4-996.1,297.3-995.9,297.4-996.1c0-0.2-0.3,0.2-0.2,0c0.1-0.1-0.1,0.1,0,0
				c0.1-0.1-0.2,0-0.1-0.1c0.2-0.2-0.3,0-0.1-0.1c0.2-0.1-0.2,0,0-0.1c0.2-0.1-0.2-0.6,0-0.3c0,0,0,0.1,0,0.1
				c-0.1,0.4,0.1,0.7,0.4,0.8c0.3,0.1,0.6-0.1,0.7-0.4c0,0,0,0,0-0.1l0,0.1l0,0c-0.1,0,0-0.1,0-0.1c-0.2-0.2,0.2-0.1,0-0.2
				c-0.2,0,0.1-0.1,0-0.1c-0.2,0,0.2-0.2,0-0.1c-0.2,0,0.1-0.2,0-0.1c-0.2,0.1,0.1-0.3-0.1-0.1c-0.2,0.2,0.1-0.4-0.1-0.1
				c-0.1,0.2,0-0.2-0.1,0c-0.1,0.3-0.1-0.4-0.1,0.1c-0.2,0-0.4,0.2-0.4,0.4C297.2-996.3,297.3-996.2,297.4-996.1z M297.4-996.1
				C297.4-996,297.4-995.9,297.4-996.1L297.4-996.1L297.4-996.1L297.4-996.1z"/>
		</g>
		<g transform="matrix(0.4441,0,0,0.39775,0,0)">
			<path class="st1" d="M297.7-1001.8c0,0.1,0.1,0.2,0.2,0.3c0.2,0.1,0.4,0.1,0.5-0.1c0.3,0.1-0.1-0.1,0.1-0.2c0.1,0-0.1-0.1,0-0.1
				c0.2-0.1-0.2,0,0-0.2c0.2-0.1-0.2,0-0.1-0.2c0.1-0.1-0.1,0.1-0.1-0.1c0-0.1-0.1,0.1-0.1-0.1c0-0.2-0.1,0.1,0-0.1
				c0-0.3-0.1-0.1,0-0.2c-0.2-0.1-0.4-0.1-0.6,0c-0.3,0.2-0.5,0.7-0.3,1.1c-0.1,0.1,0.1,0,0.1,0.1c-0.1,0.1,0.1,0,0,0.1
				c-0.1,0.1,0.1-0.1,0.1,0.1c-0.1,0.2,0.1-0.1,0.1,0.1c0,0.1,0,0,0,0.1c0.1,0.1,0.1,0.1,0.2,0c0.1-0.2-0.1-0.2,0.1-0.1
				c0.1,0.1,0.1-0.2,0-0.1c-0.1,0.1,0-0.2,0-0.1c-0.2,0.3,0.1-0.3-0.1-0.2c-0.1,0,0-0.1,0,0c-0.2,0.1,0.1-0.2,0-0.1
				C297.6-1001.6,297.7-1001.7,297.7-1001.8C297.5-1001.7,297.7-1001.7,297.7-1001.8z M297.7-1001.9
				C297.7-1001.9,297.6-1001.9,297.7-1001.9C297.7-1001.8,297.6-1001.8,297.7-1001.9c0,0.1,0,0.1,0,0.1
				C297.7-1001.8,297.7-1001.9,297.7-1001.9z M297.7-1002C297.7-1002,297.7-1002,297.7-1002L297.7-1002L297.7-1002L297.7-1002z
				 M298.4-1002.4L298.4-1002.4L298.4-1002.4c0,0.1,0,0.1,0.1,0.1L298.4-1002.4C298.5-1002.4,298.5-1002.4,298.4-1002.4
				C298.4-1002.4,298.4-1002.4,298.4-1002.4z M298.2-1002.6c0.1,0,0.2,0.1,0.3,0.2l0,0c0,0,0,0,0,0h0l0,0l0,0c0,0,0.1-0.1,0-0.1
				c-0.2,0.1-0.1-0.5-0.2-0.2L298.2-1002.6z"/>
		</g>
		<g transform="matrix(0.4441,0,0,0.39775,0,0)">
			<path class="st1" d="M297.7-1006.9c0-0.1,0-0.1-0.1-0.2c-0.2-0.3-0.6-0.5-0.9-0.3c-0.1,0-0.1,0.1-0.2,0.1c-0.2,0-0.2,0.2-0.2,0.3
				c0,0.1-0.1,0.1,0,0.2c0.2,0.1-0.2,0.1,0,0.1c0.3,0-0.2,0.2,0.1,0.2c0.2,0-0.1,0.2,0.1,0.2c0,0,0,0,0.1,0.1c0,0,0,0,0.1,0.1
				c0,0,0.1,0.1,0.1,0.1c0.2,0.1,0.6,0,0.7-0.1C297.7-1006.3,297.8-1006.6,297.7-1006.9z M297.7-1006.4c-0.1,0.1-0.1,0.2-0.3,0.3
				C297.6-1006.2,297.6-1006.3,297.7-1006.4z M297-1007.3c-0.1,0-0.2,0.1-0.2,0.1C296.9-1007.2,297-1007.2,297-1007.3z"/>
		</g>
		<g transform="matrix(0.4441,0,0,0.39775,0,0)">
			<path class="st1" d="M293.6-1005.2c-0.1,0-0.2,0.1-0.3,0.2c-0.8,0.3-1.8,0.9,0.3,1c-0.1,0-0.1-0.1-0.2-0.1
				c-0.2-0.1-0.2-0.4-0.2-0.6c0-0.1,0.1-0.2,0.1-0.2l0,0c0,0-0.1,0.1-0.1,0.1c-0.1,0.2,0,0.5,0.1,0.7c0.1,0.1,0.1,0.1,0.2,0.1
				c0,0,0.1,0,0.1,0c0.8,0.5,1.8,0.3,0.3-1.2C293.9-1005.3,293.7-1005.3,293.6-1005.2z"/>
		</g>
		<g transform="matrix(0.4441,0,0,0.39775,0,0)">
			<path class="st1" d="M295-999.9c0,0.1-0.1,0.1-0.1,0.2c0,0.1,0.2,0.2,0.2,0.2c0.2,0.2,0.5,0.1,0.7-0.2s0.1-0.6-0.1-0.8l-0.4-0.2
				c-0.2-0.1-0.4,0-0.5,0.2C294.8-1000.2,294.8-1000,295-999.9z"/>
		</g>
		<g transform="matrix(0.4441,0,0,0.39775,0,0)">
			<path class="st1" d="M293.6-997.1c0,0-0.1,0.1-0.1,0.1c0,0,0,0.1,0,0.1c-0.2,0.3,0,0.5,0,0.5c0,0.1,0.1,0.2,0.1,0.2
				c0.1,0.2,0.4,0.3,0.7,0.1c0,0,0.2-0.1,0.2-0.3c0-0.1-0.1-0.2,0-0.2c0,0-0.1,0-0.1,0c0,0.1-0.1,0.1-0.1,0c0.1,0,0.2-0.1,0.3-0.2
				c0,0.1,0,0.1,0,0.2c0-0.1,0-0.2,0-0.3v0c0-0.2-0.1-0.4-0.3-0.4c0,0,0,0-0.1,0C294-997.3,293.8-997.2,293.6-997.1z M294.1-997.2
				c-0.2,0-0.4,0.1-0.4,0.1c0,0,0,0-0.1,0l0,0c0,0,0,0,0,0.1l0,0l0,0C293.6-996.7,293.9-997.1,294.1-997.2z"/>
		</g>
		<g transform="matrix(0.4441,0,0,0.39775,0,0)">
			<path class="st1" d="M290.4-998.4L290.4-998.4L290.4-998.4c-0.1,0.1-0.1,0.2-0.1,0.3l0,0c0,0,0,0,0,0.1l0,0.1l0,0l0,0
				c0,0,0-0.1,0-0.1l0,0c0,0,0-0.1,0-0.1c0,0,0,0.1,0,0.1v0c-0.1,0,0,0.1,0,0.1l0,0c0,0,0,0,0,0l0,0c0,0.2-0.1,0.4,0,0.5
				c0.1,0.1,0.1,0.2,0.2,0.1c0,0,0.1,0,0.1,0c0-0.1,0.2,0.1,0.2-0.1c0.1,0,0.1-0.1,0.2-0.2c0.1,0,0.1-0.2,0.1-0.2l0,0
				c0-0.1,0-0.2-0.1-0.2c0,0,0-0.1,0-0.1C290.8-998.4,290.6-998.5,290.4-998.4C290.4-998.4,290.4-998.4,290.4-998.4z M290.9-998.1
				c0,0.2-0.2,0.4,0,0.4h0c0-0.1,0.1-0.2,0.1-0.2L290.9-998.1L290.9-998.1z M290.8-998.3L290.8-998.3c-0.1-0.1-0.1-0.1-0.1-0.1
				C290.7-998.3,290.8-998.3,290.8-998.3z M290.5-998.4C290.5-998.4,290.5-998.4,290.5-998.4c-0.1-0.1-0.1,0-0.2,0h0l0,0
				c0,0,0,0,0,0C290.4-998.3,290.5-998.4,290.5-998.4z"/>
		</g>
		<g transform="matrix(0.4441,0,0,0.39775,0,0)">
			<path class="st1" d="M288.4-1000.6c0-0.1-0.1-0.2-0.1-0.2c-0.2-0.2-0.4-0.1-0.5,0c-0.1,0.2-0.2,0.4,0,0.6
				c0.1,0.1,0.3,0.2,0.3,0.3c0.1,0.2,0.4,0.2,0.5,0c0.1-0.2,0.1-0.4,0-0.6C288.5-1000.5,288.5-1000.6,288.4-1000.6z M288.4-1000.3
				L288.4-1000.3C288.3-1000.2,288.3-1000.3,288.4-1000.3z"/>
		</g>
		<g transform="matrix(0.4441,0,0,0.39775,0,0)">
			<path class="st1" d="M290.7-1002.2c-0.3-0.1-0.5,0.1-0.6,0.4c-0.1,0.3,0.1,0.6,0.4,0.7c0.1,0,0.2,0,0.3,0
				c0.1-0.1,0.1-0.1,0.2-0.2c0.2-0.1,0.3-0.3,0.2-0.5c-0.1-0.2-0.3-0.3-0.4-0.3c0,0-0.1,0-0.1,0S290.7-1002.2,290.7-1002.2z
				 M290.7-1002.2C290.7-1002.2,290.7-1002.2,290.7-1002.2L290.7-1002.2z"/>
		</g>
		<g transform="matrix(0.4441,0,0,0.39775,0,0)">
			<path class="st1" d="M301.3-1002.7c0,0,0.1-0.1,0-0.1C301.3-1002.8,301.3-1002.7,301.3-1002.7c-0.1,0.1-0.2,0.1-0.2,0.2
				c0,0.1-0.1,0.1-0.1,0c-0.1,0,0-0.1,0-0.1c0.1-0.2,0.1-0.1,0.1-0.3c0.2-0.1,0.2-0.3,0.2-0.5c-0.1-0.2-0.3-0.3-0.5-0.2
				c-0.1-0.1,0-0.1-0.2-0.2c-0.1-0.1-0.2,0-0.3,0c-0.3,0-0.3,0.3-0.5,0.6c-0.1,0.5,0.1,1,0.6,1.1
				C300.7-1002.1,301.1-1002.3,301.3-1002.7z"/>
		</g>
		<g transform="matrix(0.4441,0,0,0.39775,0,0)">
			<path class="st1" d="M301.2-1006.6c0.1,0,0.1,0,0.1,0.1c0,0,0.1,0,0.1,0l0.1-0.1c0,0,0,0.1,0,0.1l0,0c0,0,0,0,0,0
				c0.1-0.3-0.1-0.7-0.4-0.8c-0.3-0.1-0.6,0.1-0.7,0.5c0,0.1-0.1,0.2,0.1,0.4c0.3,0.2,0.4,0.5,0.5,0.5c0.2,0.1,0.4-0.1,0.4-0.3
				C301.5-1006.3,301.4-1006.5,301.2-1006.6z"/>
		</g>
		<g transform="matrix(0.4441,0,0,0.39775,0,0)">
			<path class="st1" d="M281.3-992.1C281.2-992,281.1-991.8,281.3-992.1L281.3-992.1L281.3-992.1L281.3-992.1L281.3-992.1
				L281.3-992.1l0.1,0l0,0L281.3-992.1L281.3-992.1l0.1,0.1c0,0.1-0.1,0.2,0.1,0l0,0l0,0l0,0l0,0c0.1,0.1,0.2,0.1,0.3,0.1
				c0,0.2,0-0.1,0.1,0c0.1,0.4,0-0.3,0.1,0c0.1,0.4,0-0.3,0.1,0c0.1,0.2,0-0.2,0.1,0c0.2,0.3-0.1-0.3,0.1-0.1
				c0.3,0.3-0.2-0.3,0.1-0.1c0.2,0.2-0.2-0.2,0.1-0.1c0.3,0.1-0.2-0.2,0-0.1c0.2,0-0.2-0.1,0-0.1c0.3,0-0.3-0.1,0-0.1
				c0.2,0-0.2,0,0-0.1c0.3,0-0.3,0,0-0.1c0.2-0.1-0.2,0,0-0.1c0.2-0.1-0.3,0.1,0-0.1c0.2-0.1-0.2,0.1,0-0.1c0.2-0.2-0.3,0.2-0.1-0.1
				c0.1-0.2-0.2,0.2-0.1-0.1c0.1-0.1-0.1,0.1-0.1,0c0.1-0.1-0.1,0.2-0.1,0c0-0.1-0.1,0.1,0,0c0-0.1,0,0-0.1-0.1c0,0-0.2,0-0.2,0
				c-0.4-0.1-0.8,0.1-0.9,0.6C280.8-992.7,280.9-992.3,281.3-992.1z M281.4-992C281.5-992,281.5-992,281.4-992
				C281.5-991.9,281.5-992.1,281.4-992L281.4-992z M281.2-992.3C281.2-992.3,281.1-992.2,281.2-992.3L281.2-992.3L281.2-992.3z
				 M281.2-992.4C281.1-992.3,281-992.3,281.2-992.4L281.2-992.4L281.2-992.4L281.2-992.4z M281.1-992.5
				C281-992.5,280.9-992.4,281.1-992.5L281.1-992.5L281.1-992.5L281.1-992.5z M281.1-992.7C281-992.7,280.9-992.7,281.1-992.7
				L281.1-992.7L281.1-992.7L281.1-992.7z M281.1-992.8C281-992.8,280.9-992.8,281.1-992.8L281.1-992.8L281.1-992.8z M281.1-992.9
				C281-992.9,281-992.9,281.1-992.9L281.1-992.9L281.1-992.9L281.1-992.9z M281.1-993C281-993,280.9-993,281.1-993L281.1-993
				L281.1-993L281.1-993z M281.1-993.1C281.1-993.1,281-993.1,281.1-993.1L281.1-993.1L281.1-993.1L281.1-993.1z M281.2-993.2
				C281.1-993.2,281-993.2,281.2-993.2L281.2-993.2L281.2-993.2L281.2-993.2z M281.2-993.3C281.2-993.3,281.1-993.3,281.2-993.3
				L281.2-993.3L281.2-993.3z M281.3-993.3C281.2-993.4,281.2-993.4,281.3-993.3L281.3-993.3L281.3-993.3L281.3-993.3z M281.4-993.4
				C281.4-993.5,281.3-993.5,281.4-993.4L281.4-993.4L281.4-993.4L281.4-993.4z M281.5-993.5C281.5-993.5,281.4-993.6,281.5-993.5
				L281.5-993.5L281.5-993.5z M281.6-993.5C281.6-993.5,281.6-993.6,281.6-993.5L281.6-993.5L281.6-993.5z M281.6-993.5
				C281.6-993.6,281.6-993.5,281.6-993.5L281.6-993.5L281.6-993.5L281.6-993.5z M281.7-993.5C281.7-993.5,281.7-993.6,281.7-993.5
				L281.7-993.5L281.7-993.5z"/>
		</g>
		<g transform="matrix(0.4441,0,0,0.39775,0,0)">
			<path class="st1" d="M278.9-995L278.9-995C278.9-995,279-995,278.9-995l0.1,0v0C279-995,279-995,278.9-995
				c-0.1,0-0.3,0.2-0.3,0.4c0,0-0.1-0.1-0.1-0.1c0,0-0.1-0.1,0-0.1c0.1,0,0,0,0-0.1c0.1-0.1,0.1-0.1,0.2-0.1c-0.1,0-0.2-0.2-0.1,0
				c0,0.1,0-0.1-0.1,0c0,0,0,0.1,0,0.1c-0.1,0.1-0.1,0.2-0.1,0.3c0,0.1,0,0.1,0,0.2c-0.1,0.2,0.1,0.1,0,0.2c0,0,0.1,0,0,0.1
				c-0.1,0.1,0.1,0,0,0.1c-0.1,0.1,0.1,0,0.1,0.1c-0.1,0.2,0.1-0.1,0.1,0.1c0,0.1,0.1-0.1,0.1,0c0,0.2,0.1-0.2,0.2,0
				c0,0.1,0-0.1,0.1,0c0.1,0.1,0-0.2,0.1,0c0.1,0.1,0-0.1,0.1,0c0,0,0.1,0,0.1-0.1c0.1-0.2,0.2-0.2,0-0.4l0,0v0c0,0,0-0.1,0-0.1h0v0
				c0,0,0,0,0-0.1l0,0c0,0,0.1-0.1,0,0h0l0,0l0,0c0,0,0,0,0,0l0,0l0,0l0,0c0,0,0,0,0,0l0,0l0,0l0,0l0,0c0,0,0,0,0,0c0,0,0-0.1,0-0.1
				l0,0c0,0,0-0.1,0-0.1c0,0,0-0.1,0-0.1l0,0l0,0l0,0l0,0l0,0l0,0l0,0h0l0,0c0,0,0,0,0-0.1c0,0,0,0,0,0l0,0l0,0v0v0l0,0l0,0h0l0,0
				c0,0,0,0-0.1,0c0,0,0,0,0,0l0,0l0,0v0l0,0l0,0l0,0h0l0,0c0,0-0.1,0-0.1,0l0,0C279-995.1,278.9-995.2,278.9-995L278.9-995z
				 M279.4-994.5C279.4-994.5,279.4-994.5,279.4-994.5c0.1,0.1,0,0.1,0,0.2v0l0,0v0L279.4-994.5
				C279.4-994.5,279.4-994.5,279.4-994.5z M278.8-995L278.8-995L278.8-995C278.8-995,278.8-995,278.8-995L278.8-995L278.8-995
				C278.8-995,278.8-995.1,278.8-995L278.8-995z M278.9-995L278.9-995L278.9-995C278.9-995,278.9-995,278.9-995z"/>
		</g>
		<g transform="matrix(0.4441,0,0,0.39775,0,0)">
			<path class="st1" d="M275.5-997.1c0,0-0.1-0.1-0.2-0.1c-0.1,0-0.2,0-0.2,0c0,0-0.1,0-0.1,0.1c0,0,0,0-0.1,0.1c0,0,0,0,0,0.1
				c-0.2,0.1-0.1,0.1-0.2,0.4c-0.1,0.2,0.2,0.4,0.4,0.5c0.3,0.1,0.5-0.1,0.6-0.4C275.9-996.7,275.7-997,275.5-997.1z M275.5-996.5
				c-0.1,0.1-0.2,0.1-0.3,0.1C275.3-996.3,275.5-996.4,275.5-996.5z M275.6-996.7L275.6-996.7C275.6-996.7,275.6-996.6,275.6-996.7
				L275.6-996.7z M275.5-997.1c0.1,0.1,0.1,0.2,0.1,0.3c0.1,0,0.1,0,0.1-0.1C275.6-996.9,275.6-997,275.5-997.1z M275.5-997.1
				C275.5-997.1,275.5-997.1,275.5-997.1L275.5-997.1z"/>
		</g>
		<g transform="matrix(0.4441,0,0,0.39775,0,0)">
			<path class="st1" d="M273.4-997.6c0,0.1,0,0.1,0,0.1c0.1,0-0.1,0.2,0,0.2c0.1,0-0.1,0,0,0.1c0.2,0-0.3,0-0.1,0.2
				c0.1,0.1-0.2-0.1-0.1,0.1c0,0,0,0-0.1,0c0,0,0-0.1,0-0.1C273.4-997.1,273.4-997.3,273.4-997.6c-0.2-0.1-0.4-0.2-0.6-0.1
				c-0.2,0-0.2,0.2-0.3,0.2c-0.3,0.1,0.1,0.2-0.2,0.2c-0.1,0,0.1,0.1,0,0.1c-0.1,0,0.1,0,0,0.1c-0.1,0.1,0.1,0.1,0.1,0.3
				c-0.1,0.2,0.1,0.1,0.2,0.3c0,0.1,0.1,0.1,0.1,0.1c0.1,0,0.2,0,0.3,0c0.3,0.1,0.7-0.1,0.7-0.5
				C273.8-997.1,273.6-997.4,273.4-997.6c0-0.1,0-0.1-0.1-0.1c0,0,0-0.1,0-0.1c0,0-0.1,0.1,0,0.1
				C273.3-997.6,273.3-997.6,273.4-997.6z"/>
		</g>
		<g transform="matrix(0.4441,0,0,0.39775,0,0)">
			<path class="st1" d="M269.9-994.1c0-0.1,0-0.2,0-0.2c0,0,0.1,0,0.1-0.1c0.1-0.1,0.1-0.3,0.1-0.3h0l0,0l0,0c0,0,0,0,0,0.1
				C270.2-994.4,270.1-994.2,269.9-994.1c0,0.1,0.1,0.2,0.2,0.1c0,0,0-0.1,0-0.1c0.3,0.1-0.2-0.3,0.1-0.3c0.2,0-0.1-0.1,0-0.1
				c0.1,0,0,0,0-0.1l0,0l0,0l0,0c0,0,0,0,0,0l0,0l0,0v0l0,0c0,0,0,0,0,0c0-0.1,0-0.1-0.1-0.2c-0.1,0-0.1-0.1-0.3-0.2
				c-0.1,0,0,0.1-0.4-0.1c-0.1,0,0,0-0.1,0c0,0-0.1,0-0.1,0.1c0.1,0.2-0.2,0.1-0.1,0.2c0.1,0.1-0.2,0.1,0,0.1c0.2,0.1-0.2,0.1,0,0.2
				c0.1,0-0.1,0.1,0,0.1c0.2,0-0.1,0.2,0.1,0.2C269.4-994,269.7-993.9,269.9-994.1C269.9-994.1,269.9-994.1,269.9-994.1z
				 M269.5-994.4c0.1,0.1,0.2,0.3,0.3,0.1C269.7-994.2,269.6-994.3,269.5-994.4z M269.5-994.9c-0.1,0.1-0.1,0.1-0.1,0.2
				C269.4-994.7,269.4-994.8,269.5-994.9z M270.1-994.7L270.1-994.7L270.1-994.7L270.1-994.7L270.1-994.7L270.1-994.7L270.1-994.7
				L270.1-994.7z M269.5-994.9C269.5-994.9,269.6-994.9,269.5-994.9C269.5-995,269.5-994.9,269.5-994.9z"/>
		</g>
		<g transform="matrix(0.4441,0,0,0.39775,0,0)">
			<path class="st1" d="M267.9-992.2c-0.1,0-0.2,0-0.2,0.1c-0.5,0.1-0.3,0.7-0.2,0.8c0.1,0.1,0.2,0.5,0.5,0.4c0,0,0.2,0,0.3-0.2l0,0
				c0-0.1,0.1-0.2,0.1-0.3l0,0l0,0l0,0l0,0h0c0,0,0.1,0,0.1,0v0v0c-0.1,0.1-0.1,0.2-0.3,0.2c0,0,0,0,0,0.1c0.2,0.2,0.2,0,0.2-0.3
				c0,0,0-0.1,0-0.1c0,0,0.1-0.1,0.1-0.1c0.1-0.1,0-0.2,0.1-0.3c0-0.1-0.1-0.3-0.5-0.3c-0.1,0-0.2,0-0.3,0l0.1,0l0.1,0
				c-0.1,0-0.1,0-0.2,0C268-992.2,268-992.2,267.9-992.2c0,0,0.1,0,0.2,0l0,0C268-992.3,268-992.3,267.9-992.2
				C267.9-992.2,267.9-992.2,267.9-992.2z M268.5-991.4L268.5-991.4L268.5-991.4L268.5-991.4L268.5-991.4
				C268.5-991.4,268.6-991.4,268.5-991.4C268.5-991.4,268.5-991.4,268.5-991.4z M268.2-991.6C268.2-991.5,268.3-991.5,268.2-991.6
				c0.1,0.1,0.2,0.1,0.2,0.1C268.3-991.4,268.3-991.5,268.2-991.6z M268.1-991.9L268.1-991.9C268.1-991.8,268.1-991.8,268.1-991.9
				L268.1-991.9L268.1-991.9C268.1-991.8,268.1-991.8,268.1-991.9z"/>
		</g>
		<g transform="matrix(0.4441,0,0,0.39775,0,0)">
			<path class="st1" d="M273-988.4l-0.1,0.2c-0.1,0.3,0.1,0.5,0.3,0.6c0.2,0.1,0.5-0.1,0.5-0.3l0-0.4c0-0.2-0.1-0.4-0.3-0.4
				C273.2-988.8,273.1-988.6,273-988.4z"/>
		</g>
		<g transform="matrix(0.4441,0,0,0.39775,0,0)">
			<path class="st1" d="M272.5-993.3L272.5-993.3c-0.3-0.1-0.5,0.1-0.5,0.3c-0.1,0.2,0.1,0.5,0.3,0.5l0.5,0c0.2-0.1,0.3-0.3,0.2-0.5
				C272.9-993.3,272.7-993.4,272.5-993.3z"/>
		</g>
		<g transform="matrix(0.4441,0,0,0.39775,0,0)">
			<path class="st1" d="M276.9-991.6c-0.1,0-0.3,0.2-0.3,0.2c-0.1,0.2-0.2,0.5,0.3,0.7c0.2,0.1,0.4-0.1,0.5-0.3l0,0
				c0.1-0.1,0.2-0.2,0.2-0.2c0-0.2-0.1-0.4-0.3-0.4C277-991.7,276.9-991.6,276.9-991.6z M277.1-991.4c0,0-0.1,0-0.1,0
				C277-991.5,277-991.5,277.1-991.4z"/>
		</g>
		<g transform="matrix(0.4441,0,0,0.39775,0,0)">
			<path class="st1" d="M277.1-988.7L277.1-988.7c-0.1,0.1-0.1,0.1-0.1,0.2c0,0,0,0.1,0,0.1c0,0,0-0.1,0-0.1c0,0,0,0,0-0.1
				L277.1-988.7C277.1-988.6,277.1-988.6,277.1-988.7C277.1-988.6,277.2-988.8,277.1-988.7C277.1-988.7,277.1-988.7,277.1-988.7
				L277.1-988.7L277.1-988.7c0.1-0.1,0.1-0.1,0.2,0l0,0.1c-0.1,0-0.2,0.1-0.2,0.1c-0.1,0.4-0.2,1-0.2,1c0,0,0.1,0.2,0.3,0
				c0-0.1,0.1-0.2,0.3-0.3l0,0.1l0,0c-0.1,0.1-0.2,0.1-0.3,0.1l0,0c0,0,0,0,0,0.1c0.2,0.3,0.3,0.1,0.2-0.2c0.1-0.1,0.2-0.2,0.2-0.3
				c0,0,0.1-0.1,0-0.1c0.1-0.2,0-0.4-0.2-0.5c0,0-0.1-0.1-0.1-0.1c0-0.1,0-0.1,0-0.1c0,0-0.1-0.1-0.1-0.1c0-0.2,0-0.2-0.1,0.1
				C277-988.8,277-988.7,277.1-988.7z"/>
		</g>
		<g transform="matrix(0.4441,0,0,0.39775,0,0)">
			<path class="st1" d="M279.4-988C279.4-988,279.4-988,279.4-988L279.4-988L279.4-988l0,0.1c-0.1,0.5,0,0.7,0.2,0.7
				c0.2,0.1,0.3,0.1,0.5-0.5l0,0l0,0l0,0l0,0l0,0c0.1-0.2,0-0.4-0.1-0.5c-0.2-0.1-0.4,0-0.5,0.2C279.4-988.1,279.4-988.1,279.4-988z
				"/>
		</g>
		<g transform="matrix(0.4441,0,0,0.39775,0,0)">
			<path class="st1" d="M282.5-988.5c0,0-0.1,0-0.1,0c0,0,0,0,0-0.1l0,0c0,0-0.1,0,0,0c0,0,0,0,0,0c0,0,0,0.1,0,0.1
				c0,0.1,0,0.1,0,0.2c0.1,0.2,0.4,0.3,0.6,0.2c0.2-0.1,0.3-0.3,0.2-0.5l0,0c0,0,0,0-0.1-0.1c0,0,0,0,0-0.1c0,0,0,0,0,0.1
				c0,0,0,0.1,0,0.1c-0.3,0.1,0-0.5-0.3-0.4c-0.1,0,0-0.1-0.1,0c-0.2-0.1-0.4,0-0.5,0.2C282.4-988.8,282.4-988.7,282.5-988.5z
				 M282.6-988.5C282.6-988.5,282.6-988.5,282.6-988.5C282.5-988.4,282.6-988.4,282.6-988.5L282.6-988.5L282.6-988.5z"/>
		</g>
		<g transform="matrix(0.4441,0,0,0.39775,0,0)">
			<path class="st1" d="M283.5-991.4l-0.2-0.2c-0.2-0.1-0.5,0.1-0.5,0.3c-0.1,0.3,0.1,0.5,0.3,0.6l0.3,0c0.2,0.1,0.4-0.1,0.4-0.3
				C283.8-991.1,283.7-991.3,283.5-991.4z"/>
		</g>
		<g transform="matrix(0.4441,0,0,0.39775,0,0)">
			<path class="st1" d="M292.2-988.7c-0.1,0-0.1-0.1,0-0.3c0,0,0,0,0.1,0c0.1,0,0.2-0.2,0.2-0.3c0-0.2-0.2-0.4-0.3-0.4l0,0l0,0
				c0,0-0.1,0-0.1,0c0,0,0,0-0.1,0c-0.8-0.2-0.6,0.1-0.7,0.4c0,0.2-0.1,0.4,0.1,0.4c0,0,0,0.1,0.1,0.1c0.1,0,0,0.1,0.1,0.1
				c0.1,0,0.1,0.3,0.3,0C292-988.7,292.1-988.7,292.2-988.7z M292.2-989.8c0.1,0,0.3,0.1,0.3,0.3c0,0.1,0,0.1,0,0.2
				c0,0.1,0,0.1,0,0.2c0,0.2-0.2,0.3-0.3,0.4c0,0,0,0,0.1,0c0.1,0,0.1,0,0.2-0.1c0.1-0.2,0.1-0.3,0.2-0.4c0.1-0.2-0.1-0.2-0.1-0.5
				c0-0.1-0.1,0-0.1-0.1C292.3-989.9,292.2-989.7,292.2-989.8C292.2-989.9,292.2-989.8,292.2-989.8z"/>
		</g>
		<g transform="matrix(0.4441,0,0,0.39775,0,0)">
			<path class="st1" d="M294.2-990.4c-0.1,0.1-0.2,0.2-0.3,0.4c-0.3,0.2-0.1,0.4-0.1,0.5c0,0.3,0.3,0.5,0.6,0.5
				c0.1,0,0.3,0.1,0.4-0.2c0-0.1,0-0.1,0-0.1c0.1,0,0-0.1-0.1-0.1c0.1,0,0.2-0.1,0.2-0.2l0,0c0,0,0.1,0,0.1-0.1c0-0.1,0-0.1,0-0.2
				c-0.1-0.1-0.1-0.2-0.2-0.2c-0.1-0.1-0.1-0.1-0.2-0.2c0,0,0,0-0.1,0l0,0C294.3-990.5,294.2-990.5,294.2-990.4z M294.4-990.4
				c-0.1,0-0.2,0-0.2,0c0,0,0,0,0,0c0,0.1,0,0.1,0.1,0.1c0.1,0.1,0.1-0.1,0.2,0c0.1,0,0.2,0,0.3,0.1c0.1,0.1,0.1,0.3,0,0.4
				c0,0,0,0,0.1,0c0-0.1,0-0.1,0-0.2c0-0.1-0.1-0.2-0.1-0.2l0,0c0,0,0,0,0,0l0,0C294.6-990.3,294.5-990.4,294.4-990.4z"/>
		</g>
		<g transform="matrix(0.4441,0,0,0.39775,0,0)">
			<path class="st1" d="M296.6-988.7c0,0,0.1,0,0.1,0.1c0,0,0,0,0,0c0,0,0.1,0.1,0.1,0.1l0,0c0,0,0,0,0,0l0,0c0,0.1,0,0.2,0,0.3
				c0,0,0,0.1,0,0.1c0,0.2-0.2,0.3-0.3,0.3c0,0,0,0.1,0.1,0.1c0.1,0.1,0.1-0.2,0.2-0.2c0,0,0-0.1,0-0.1c0.2,0-0.1-0.2,0.1-0.4
				c0.1-0.1,0-0.1-0.1-0.2v0c0,0,0,0,0,0c0,0,0,0,0,0c0-0.1,0-0.1-0.1-0.1c0,0,0,0,0,0c0,0,0,0,0-0.1
				C296.8-988.8,296.7-988.7,296.6-988.7C296.7-988.8,296.6-988.8,296.6-988.7z M296.6-987.8c0,0,0.1-0.1,0.1-0.2
				c0.1,0,0.2-0.1,0.2-0.2c0-0.2-0.1-0.4-0.3-0.5l0,0c0,0,0,0,0,0l0,0c-0.1,0-0.1,0-0.2,0c-0.1-0.1-0.1-0.2,0-0.2l-0.1,0
				c-0.1-0.1-0.3,0.1-0.4,0.2c-0.1,0.2-0.2,0.1-0.2,0.3c0.1,0.2-0.2,0.3,0,0.4c0,0,0,0.1,0,0.1c0,0,0,0.1,0,0.1c0.1,0,0,0.2,0.1,0.2
				c0.1,0,0,0.1,0.1,0.1c0.1-0.1,0.1,0.2,0.2,0C296.4-987.7,296.5-987.7,296.6-987.8z"/>
		</g>
		<g transform="matrix(0.4441,0,0,0.39775,0,0)">
			<path class="st1" d="M295.4-985.7L295.4-985.7L295.4-985.7C295.3-985.6,295.4-985.6,295.4-985.7c0.1,0,0.1,0,0.2,0h0l0,0
				c-0.1,0.1-0.1,0.1-0.2,0.2c0,0-0.1-0.1,0-0.1c0,0.1-0.1,0-0.2-0.1C295.2-985.6,295.3-985.6,295.4-985.7c-0.1,0-0.1,0-0.2,0
				c0,0-0.1,0-0.1,0c0,0,0,0,0,0c-0.1,0.1-0.2,0.2-0.3,0.4c0,0.1,0,0.2,0,0.2c0,0.1,0,0.1,0,0.1c-0.1,0.2,0.2,0.1,0.2,0.4
				c0,0.1,0.2,0,0.3,0.1c0,0.1,0.1-0.1,0.2,0c0.1,0,0.1-0.1,0.3-0.1c0,0,0.1,0,0.1-0.1c0.1-0.3,0.2-0.5,0.1-0.7
				c0-0.2-0.1-0.4-0.3-0.5c-0.1,0-0.2,0-0.2,0l0,0C295.5-985.7,295.4-985.8,295.4-985.7L295.4-985.7z M296.1-985.1L296.1-985.1
				L296.1-985.1c0,0,0,0.1,0,0.1L296.1-985.1C296.1-985.1,296.1-985.1,296.1-985.1z M296-985.3C296-985.3,296-985.2,296-985.3
				C296-985.2,296-985.3,296-985.3L296-985.3z M295.9-985.5c0-0.1,0-0.1-0.1-0.1C295.8-985.6,295.8-985.5,295.9-985.5z M295.7-985.6
				L295.7-985.6L295.7-985.6L295.7-985.6C295.7-985.7,295.7-985.6,295.7-985.6z"/>
		</g>
		<g transform="matrix(0.4441,0,0,0.39775,0,0)">
			<path class="st1" d="M293.7-984.4c-0.2,0-0.3,0.1-0.3,0.3c-0.1,0.4,0.2,0.8,0.6,0.5c0.1-0.1,0.3-0.3,0.3-0.4
				c0.1-0.3,0-0.5-0.2-0.6C293.9-984.6,293.7-984.5,293.7-984.4z M294-984.2c0.1,0.1,0.1,0.2,0.1,0.3
				C294.1-984,294.1-984.1,294-984.2z"/>
		</g>
		<g transform="matrix(0.4441,0,0,0.39775,0,0)">
			<path class="st1" d="M292.8-987.5L292.8-987.5L292.8-987.5L292.8-987.5L292.8-987.5L292.8-987.5
				C292.7-987.5,292.7-987.5,292.8-987.5c-0.2-0.1-0.4,0.1-0.5,0.2c0,0.2,0.1,0.4,0.2,0.4c0,0,0,0.1,0,0.1c0,0,0.1,0,0.1,0
				c0.1,0,0.2,0,0.3,0c0.2-0.1,0.3-0.3,0.2-0.5C293.1-987.4,293-987.5,292.8-987.5C292.8-987.5,292.8-987.5,292.8-987.5
				C292.8-987.5,292.8-987.5,292.8-987.5C292.8-987.5,292.8-987.5,292.8-987.5C292.9-987.6,292.8-987.5,292.8-987.5z"/>
		</g>
		<g transform="matrix(0.4441,0,0,0.39775,0,0)">
			<path class="st1" d="M285.1-986.1L285.1-986.1C285.1-986.1,285.1-986.1,285.1-986.1L285.1-986.1
				C285.1-986.1,285.1-986.2,285.1-986.1c0.1-0.1,0.1-0.1,0.2-0.1C285.2-986.2,285.2-986.2,285.1-986.1c-0.1,0.1-0.1,0.3,0,0.5
				c0,0.1,0.4-0.3,0.7-0.1l0,0l0,0c0,0,0,0,0,0l0,0c0,0,0.1,0,0.1,0c0,0,0,0-0.1,0c0.2-0.1,0.2-0.4,0.1-0.6
				c-0.1-0.2-0.4-0.3-0.6-0.2c-0.1,0-0.1,0-0.2,0.1C285-986.3,285.1-986.2,285.1-986.1z M285.5-986.2c0-0.1-0.1-0.1-0.1,0l0,0
				C285.4-986.2,285.4-986.2,285.5-986.2z"/>
		</g>
		<g transform="matrix(0.4441,0,0,0.39775,0,0)">
			<path class="st1" d="M282.9-982.4C283-982.4,283-982.5,282.9-982.4L282.9-982.4L282.9-982.4L282.9-982.4c-0.1-0.1-0.1-0.2,0-0.2
				C283-982.7,283-982.6,282.9-982.4c0.1-0.1,0.1-0.1,0.2-0.1c0.2-0.1,0.3-0.3,0.2-0.5c0-0.4-0.4-0.4-0.8-0.4
				c-0.4,0.1-0.7,0.5-0.8,0.8c0,0.2,0,0.4,0.1,0.6c0.1,0.1,0.2,0.3,0.3,0.3c0.1,0.3,0.4,0.4,0.7,0.3c0.3-0.1,0.4-0.5,0.3-0.8
				C283.1-982.2,283-982.3,282.9-982.4z M282.7-982.6c0,0.1,0.1,0.1,0.1,0.1c0,0,0.1,0.1,0.1,0.1c0-0.1-0.1,0.2,0,0.2
				c0.1,0,0.1-0.1,0.1-0.1l0-0.1C282.8-982.5,282.8-982.6,282.7-982.6z"/>
		</g>
		<g transform="matrix(0.4441,0,0,0.39775,0,0)">
			<path class="st1" d="M283.4-980.1C283.4-980.1,283.4-980.1,283.4-980.1c-0.1,0,0,0.1-0.1,0.2c0,0,0,0,0,0l0,0c0,0,0,0.1,0,0.1
				c-0.1,0.3,0,0.2-0.1,0.4c0,0.2,0.1,0.1,0.2,0.2c0.1,0.2,0.6,0.2,0.7-0.1c0-0.1,0.2-0.1,0.1-0.4c0-0.2,0-0.3-0.1-0.4l0,0
				c0,0,0,0,0,0l0,0c-0.1-0.1-0.1-0.1-0.2-0.1c0,0,0,0-0.1,0c0,0-0.1,0-0.1,0C283.6-980.3,283.5-980.3,283.4-980.1z M284-980.2
				c0.1,0.1,0.1,0.2,0.1,0.3c0,0,0.1,0,0.1,0c0,0.1,0.1-0.1,0.1-0.1c-0.1,0,0-0.1-0.1-0.1l0,0l0,0C284.1-980.2,284-980.2,284-980.2z
				 M283.7-980.3c-0.1,0-0.2,0-0.3,0.1c0,0,0,0.1-0.1,0.1c0,0.1,0,0.1,0,0.2c0,0,0,0,0,0C283.5-980.1,283.6-980.3,283.7-980.3z"/>
		</g>
		<g transform="matrix(0.4441,0,0,0.39775,0,0)">
			<path class="st1" d="M286.5-981.3l-0.1,0.2c-0.1,0.3,0.1,0.5,0.3,0.6c0.2,0.1,0.5-0.1,0.5-0.3l-0.1-0.6c0-0.2-0.2-0.3-0.4-0.3
				C286.6-981.7,286.4-981.5,286.5-981.3z"/>
		</g>
		<g transform="matrix(0.4441,0,0,0.39775,0,0)">
			<path class="st1" d="M286.1-983.4c-0.1,0.1-0.1,0.3-0.1,0.5c0.1,0.2,0.3,0.3,0.5,0.2c0.2,0,0.3-0.5,0.5-0.3c0,0-0.1,0.1-0.1,0.1
				c0,0,0.1-0.1,0.1-0.1l0,0c0.1-0.2,0.1-0.5,0-0.7c-0.2-0.3-0.5-0.3-0.8-0.1c-0.1,0.1-0.2,0.2-0.2,0.4c0,0,0.1,0.1,0,0.1
				C285.9-983.4,286-983.3,286.1-983.4z"/>
		</g>
	</g>
	<g transform="matrix(1.08859,0,0,1.08859,-180.368,-119.22)">
		<g transform="matrix(0.4441,5.51989e-18,-6.16312e-18,0.39775,2.52441e-14,-2.26095e-14)">
			<path class="st1" d="M445.4,344.5c0,0,4.9,12.7-1.7,18.7c0,0-1.6-1.8-1.1-3.4c0,0-1.4-2-3.8,0c-2.4,2,0.5,2.1,0.2,2.8
				c-0.3,0.7-4.6-1.4-5.9,0.1c-1.3,1.4-0.6,2.7-0.6,2.7s-1-3.6-10.3,8.7c0,0,0.6-7.9,3.8-11.3c3.2-3.4,8.2-5.6,11.2-7.7
				c3-2.1,5-7.4,4.7-7.8c-0.3-0.5-1.6-0.2-6,2.9l-2.7,0.4c0,0,1.8-1.4,2.6-2.9c0.8-1.5,2.3-7.3,1.9-7.9c-0.4-0.6-3.2-0.2-3.4-0.2
				c0,0-0.7-0.7-3.3-0.1c0,0-2.4-0.4-3.8-0.1c0,0-0.6-2.9-4.7-0.2c-4.1,2.8-3.4,4.2-4.8,10.7c-1.3,6.5-2.9,13.3-3.1,13.7
				c-0.2,0.4-3.6-3.1-3.6-2.2c0,1.2-3.3,8-3.4,9.5c-0.1,1-10.4,27.1-6.4,45.6c1.4,6.4,5.8,15,12.7,15.9c0,0,5,2.8,11-8
				c0,0,7.8-1.8,10.3-0.5c0,0-9.7,9-10.1,11.1c-0.4,2.1,1.8,0.3,2.7-0.2c0.9-0.6,0.4,2,2.7,1.8c0,0-10.5,20.7-11.9,22.1
				c-1.4,1.4,21.7-2.9,46.9-1c0,0,6.8-19,9-21.2c0,0,7.4,1.1,15.2,0.3c6-0.6,12-2.5,15.9-4.7c0,0,8.8-18.3-3.6-46.6
				c-6.3-14.3-12.4-19.6-16.9-22.3c-4.4-2.6-7.2-2.8-7.6-2.7c0,0,0.1-0.9-0.9-1.2c-0.9-0.2-3.3,0.9-3.7-0.2c-0.4-1.1,2.9-2.2,2.5-3
				c-0.4-0.8-0.9-2.3-4.8-0.2c-3.9,2.2-5.2,3.8-5.2,3.8s-0.4-8.4,0.8-10.3C467.6,347.6,452.2,342,445.4,344.5z"/>
		</g>
		<g transform="matrix(0.4441,0,0,0.39775,0,0)">
			<path class="st0" d="M446.2,346.6c0.1,0.1,0.1,0.1,0.2,0.1c0.2,0,0.3-0.2,0.3-0.4c0-0.2-0.1-0.3-0.2-0.3
				c-0.1-0.1-0.2-0.1-0.3-0.1c-0.2,0-0.3,0.1-0.4,0.3C445.9,346.4,446,346.6,446.2,346.6z"/>
		</g>
		<g transform="matrix(0.4441,0,0,0.39775,0,0)">
			<path class="st0" d="M446.1,346.7c0,0,0-0.1,0-0.1c0-0.2-0.1-0.2-0.2-0.3c-0.1-0.1-0.2-0.1-0.2-0.1c-0.2-0.1-0.3,0.1-0.4,0.3
				c-0.1,0.1-0.1,0.3-0.1,0.7c0,0.1,0,0.2,0,0.4c0,0.2,0.1,0.5,0.2,0.8c0.3,1.3,0.9,3.2,0.9,4c0.1,1.8,0,3.8-0.6,5.6
				c-0.4,1.2-1,2.4-1.7,3.4c-0.2,0.3-0.5,0.7-0.8,1c-0.1,0.1-0.1,0.2-0.2,0.3c-0.3,0.3-0.4,0.8-0.1,1.1c0.2,0.4,0.7,0.4,1,0.2
				c0.1,0,0.2,0,0.3-0.1c0.4-0.2,0.7-0.5,0.9-0.8c0.8-0.9,1.4-2,1.8-3.2c0.9-2.4,1.2-5.2,0.9-7.7c-0.1-0.9-1-3.4-1.5-4.8
				c0-0.1-0.1-0.2-0.1-0.3C446.3,346.9,446.1,346.7,446.1,346.7L446.1,346.7z M445.5,347C445.5,347,445.4,347,445.5,347L445.5,347z"
				/>
		</g>
		<g transform="matrix(0.4441,0,0,0.39775,0,0)">
			<path class="st0" d="M465.6,354.4c-0.1,0.1-0.2,0.2-0.3,0.2c-0.2,0.1-0.2,0.1-0.3,0.2c-0.3,0.3-0.3,0.9-0.4,1.5
				c-0.1,0.6,0,1.2,0.1,1.9c0.1,1,0.4,1.9,0.6,2.6c0.1,0.5,0.6,0.8,1.1,0.6c0.4-0.2,0.7-0.7,0.5-1.2c-0.2-0.6-0.3-1.4-0.4-2.2
				c-0.1-0.4-0.1-0.8-0.1-1.2c0-0.4-0.1-0.8-0.1-1.1c0-0.1,0-0.3,0-0.4c0-0.2-0.2-0.3-0.1-0.5c0.1-0.1,0.1-0.4,0-0.5
				C465.9,354.2,465.7,354.2,465.6,354.4z"/>
		</g>
		<g transform="matrix(0.4441,0,0,0.39775,0,0)">
			<path class="st0" d="M456.4,376.3c-0.2,0-0.3,0.1-0.4,0.2c-0.2,0.3-0.3,0.5-0.3,0.6c0,0.2,0,0.3,0.1,0.4c0,0.2,0.3,0.3,0.6,0.4
				c0.1,0,0.5-0.1,1-0.5c1.8-1.3,6.3-6.4,7.8-8.5c1.2-1.8,2.1-3.4,2.7-5c0.4-1.3,0.8-2.6,0.8-4c0-0.6-0.1-1.1-0.2-1.7
				c0-0.1-0.1-0.3-0.2-0.3c-0.1,0-0.2,0.1-0.2,0.3c-0.1,0.6-0.3,1.1-0.4,1.6c-0.3,1.2-0.6,2.4-1,3.6c-0.6,1.5-1.4,3-2.6,4.6
				c-1.4,2-5.9,6.7-7.4,8.3C456.4,376.2,456.4,376.3,456.4,376.3z M456.2,376.6C456.1,376.6,456.1,376.6,456.2,376.6
				C456.1,376.6,456.2,376.6,456.2,376.6z"/>
		</g>
		<g transform="matrix(0.4441,0,0,0.39775,0,0)">
			<path class="st0" d="M473.8,358.7c0.1-0.1,0.3-0.2,0.4-0.3c0.4-0.4,0.9-0.8,1.3-1.2c0.3-0.3,0.4-0.7,0.5-1
				c0.1-0.6-0.2-1.3-1.6-1.7c-0.3-0.1-0.7-0.1-1,0c-0.4,0.1-0.9,0.3-1.3,0.4c-0.1,0-0.2,0.1-0.3,0.2c-0.1-0.1-0.3,0-0.3,0.2
				c0,0.1,0,0.3,0.1,0.3c0.1,0.2,0.3,0.2,0.4,0.3c0.1,0,0.1,0,0.2,0c0.4,0,0.7-0.2,1.1-0.3c0.3-0.1,0.5-0.1,0.8-0.1
				c0.3,0.1,0.5,0.2,0.6,0.3c0.1,0.1,0.2,0.2,0.2,0.2s0-0.1,0-0.1c0.2,0-0.2,0.3-0.5,0.5c-0.4,0.4-0.9,0.7-1.3,1.1
				c-0.7,0.6-0.9,1.4-0.6,1.9c0.2,0.3,0.6,0.6,1.1,0.6c0.7,0,1.7-0.3,2.6-0.1c0.3,0.1,0.5,0.2,0.6,0.5c0.1,0.2,0,0.5-0.1,0.7
				c-0.2,0.6-0.5,1.2-0.7,1.6c-1.6,3.8-4.4,6.8-7.5,9.2c-1.6,1.2-3.3,2.1-5,3c-1.8,0.8-3.6,1.5-5.4,2c-0.3,0.1-0.5,0.4-0.4,0.8
				c0.1,0.3,0.4,0.6,0.7,0.5c2.2-0.5,4.6-1.2,6.8-2.3c1.5-0.7,2.9-1.6,4.2-2.6c3.4-2.5,6.2-5.8,7.9-9.9c0.2-0.5,0.6-1.4,0.8-2.1
				c0.1-0.5,0.1-1,0-1.3c-0.3-0.8-0.9-1.2-1.6-1.4c-0.8-0.2-1.8,0-2.5,0.1C474,358.7,473.9,358.7,473.8,358.7z M473.7,358.8
				c-0.1,0.1-0.1,0.1,0,0.1C473.7,358.9,473.7,358.9,473.7,358.8z"/>
		</g>
		<g transform="matrix(0.4441,0,0,0.39775,0,0)">
			<path class="st0" d="M442.5,361.5c-0.1,0.3-0.3,0.7-0.3,1.1c-0.1,0.8,0,1.7,0.3,2.5c0.2,0.8,0.6,1.6,1,2.4
				c0.4,0.7,0.9,1.4,1.4,2.1c2.2,2.8,5.2,5.3,7.4,6.3c1.1,0.5,2,0.7,2.6,0.6c0.3-0.1,0.6-0.5,0.5-0.8c-0.1-0.4-0.4-0.6-0.7-0.6
				c-0.6,0.1-1.6-0.3-2.8-1c-1.9-1.2-4.3-3.2-6-5.4c-0.5-0.6-0.9-1.3-1.3-1.9c-0.4-0.7-0.8-1.4-1.1-2.1c-0.3-0.7-0.4-1.4-0.4-2.1
				c0-0.3,0-0.6,0-0.9c0-0.1,0-0.3-0.2-0.3C442.7,361.3,442.6,361.4,442.5,361.5z"/>
		</g>
		<g transform="matrix(0.4441,0,0,0.39775,0,0)">
			<path class="st0" d="M438.5,362.4c-0.2,0.1-0.7,0-1.2-0.1c-1.2-0.2-2.8-0.6-3.7-0.4c-0.8,0.1-1.3,0.6-1.4,1.4
				c-0.3,2.2,0.6,4.4,2.2,6.5c1.8,2.3,4.4,4.4,7.3,6c3.4,1.9,7.1,3.2,10.1,3.4c1.4,0.1,2.7,0,3.7-0.5c0.3-0.2,0.6-0.4,0.8-0.6
				c0.2-0.1,0.2-0.4,0.1-0.6c-0.1-0.2-0.3-0.3-0.5-0.2c-0.2,0.1-0.5,0.2-0.8,0.2c-0.9,0.3-2.1,0.4-3.3,0.2c-2.9-0.3-6.4-1.5-9.7-3.3
				c-2.8-1.6-5.3-3.5-7-5.7c-1.4-1.8-2.2-3.6-2-5.5c0-0.1,0.1-0.2,0.2-0.3c0.2-0.1,0.5-0.1,0.8-0.1c1.1,0,2.5,0.4,3.5,0.5
				c0.5,0.1,0.9,0,1.2-0.1c0.5-0.3,0.7-0.7,0.5-1.3c-0.1-0.4-0.4-1-0.7-1.5c0-0.1-0.1-0.2-0.1-0.2c0-0.1-0.1-0.1-0.1-0.2
				c0,0,0-0.1,0-0.1l0,0c0.7-0.2,1.6-0.6,2.5-0.7c0.4-0.1,0.8,0,1.2,0.1c0.1,0,0.2,0,0.3,0c0,0,0,0,0,0l0,0c0,0,0,0,0,0
				c0.2,2,0.6,1.8,0.4-0.2l0,0c0,0,0,0,0,0l0,0l0,0c0-0.1-0.1-0.2-0.2-0.4c-0.1-0.1-0.2-0.2-0.3-0.3c-0.4-0.3-1-0.3-1.6-0.2
				c-0.9,0.1-1.9,0.4-2.7,0.7c-0.6,0.2-0.8,0.6-0.7,1.2c0.1,0.4,0.4,1,0.7,1.6c0.1,0.1,0.1,0.3,0.2,0.4
				C438.4,362.2,438.4,362.3,438.5,362.4z"/>
		</g>
		<g transform="matrix(0.4441,0,0,0.39775,0,0)">
			<path class="st0" d="M480.8,361.5c0.1,0.1,0.5,0.4,1.2,0.8c1.3,0.6,3.8,1.4,6.6,3.7c0.8,0.7,1.6,1.4,2.4,2.3
				c2.3,2.5,4.7,5.9,6.9,10.7c2.2,4.7,4.2,9.7,5.7,14.8c1.6,5.2,2.9,10.5,3.5,15.6c0.6,5.2,0.5,10.2-0.3,14.8
				c-0.4,2.1-0.9,4.2-1.6,6.1c-0.2,0.4,0,0.9,0.3,1c0.4,0.2,0.8,0,0.9-0.4c0.9-2,1.6-4.1,2.1-6.3c1-4.8,1-10.1,0.4-15.5
				c-0.6-5.3-1.8-10.7-3.6-16c-1.7-5.2-3.8-10.2-6.2-14.9c-2.5-4.8-5.1-8.2-7.6-10.7c-0.9-0.9-1.8-1.6-2.6-2.3
				c-2.9-2.4-5.4-3.6-6.8-4c-0.4-0.1-0.7-0.2-0.9-0.2c0,0-0.1,0-0.1,0s0,0,0,0.1c-0.1-0.2-0.3-0.2-0.5-0.1
				C480.7,361.1,480.7,361.4,480.8,361.5z"/>
		</g>
		<g transform="matrix(0.4441,0,0,0.39775,0,0)">
			<path class="st0" d="M494.8,414.2c0.1,0.2,0.1,0.3,0.2,0.4c0.1,0.1,0.3,0.2,0.5,0c0.1-0.1,0.1-0.3,0-0.5c0-0.1,0-0.4-0.1-0.5
				c-0.1-0.2-0.3-0.3-0.4-0.3c-0.8,0-1.7,0-2.5,0c-1.9,0-3.9,0-5.8,0.1c-1.2,0-2.4,0.1-3.6,0.1c-5.1,0.3-10.7,0.9-16,2.2
				c-1.8,0.4-3.5,1-5.2,1.6c-1.7,0.7-3.4,1.4-5,2.3c-0.3,0.1-0.4,0.5-0.3,0.8c0.1,0.3,0.5,0.4,0.7,0.3c1.6-0.8,3.3-1.4,5-2
				c1.7-0.6,3.4-1.1,5.1-1.5c5.2-1.3,10.7-2,15.8-2.4c3.2-0.3,6.3-0.2,9.5-0.4C493.3,414.4,494.1,414.3,494.8,414.2z"/>
		</g>
		<g transform="matrix(0.4441,0,0,0.39775,0,0)">
			<path class="st0" d="M505.2,431.6L505.2,431.6L505.2,431.6c0,0,0,0.1,0,0.1c-0.2,0.1-0.8,0.2-1.3,0.3c-1.1,0.4-2.7,0.9-4.4,1.5
				c-4.1,1.3-9.1,2.7-10.4,2.6c-4.5-0.1-9.1-0.4-13.7-0.9c-2.8-0.3-5.5-0.7-8.1-1.2c-1.1-0.2-2.2-0.4-3.2-0.6
				c-0.7-0.2-1.4-0.3-2.1-0.4c-0.3-0.1-0.6,0.1-0.7,0.4c-0.1,0.3,0.1,0.7,0.4,0.7c1,0.4,2.1,0.7,3.2,1c2.4,0.6,5,1.1,7.6,1.4
				c5.4,0.7,11.1,1,16.5,1.2c1.5,0,7.5-1.6,11.9-3.2c1.4-0.5,2.7-1,3.5-1.4c0.4-0.2,0.6-0.4,0.8-0.6c0.2-0.2,0.4-0.3,0.4-0.4
				c0.1-0.3,0.1-0.5,0-0.6c-0.1-0.1-0.3-0.1-0.5,0C505.3,431.5,505.2,431.6,505.2,431.6z M505.2,431.9L505.2,431.9L505.2,431.9
				L505.2,431.9z M505.2,431.7c0,0,0.1-0.1,0-0.1c0,0,0,0,0,0L505.2,431.7C505.2,431.6,505.2,431.7,505.2,431.7z"/>
		</g>
		<g transform="matrix(0.4441,0,0,0.39775,0,0)">
			<path class="st0" d="M466.8,435c-1.9-0.2-3.9-2.1-6-2.9c-1.1-0.4-2.2-0.5-3.2-0.1c-0.3,0.1-0.5,0.6-0.4,0.9
				c0.1,0.4,0.5,0.6,0.8,0.5c0.7-0.3,1.5-0.1,2.4,0.1c2.1,0.7,4.4,2.1,6.4,2.2c0.2,0,0.3-0.1,0.4-0.3
				C467.1,435.2,466.9,435,466.8,435z"/>
		</g>
		<g transform="matrix(0.4441,0,0,0.39775,0,0)">
			<path class="st0" d="M457.6,421c-0.3,0.1-0.5,0.5-0.7,1c-0.2,0.7-0.2,1.8-0.3,2.2c-0.1,1.4-0.1,2.9-0.1,4.3c0,1.5,0,2.9,0.1,4.3
				c0,0.4,0.4,0.8,0.7,0.7c0.4,0,0.7-0.4,0.6-0.8c-0.1-1.4-0.1-2.8-0.2-4.3c0-1.4,0-2.9,0-4.3c0-0.3-0.1-0.9,0-1.5
				c0-0.3,0-0.6,0.1-0.9c0-0.1,0-0.2,0-0.2c0.2-0.1,0.2-0.3,0.1-0.5C457.9,421,457.7,420.9,457.6,421z"/>
		</g>
		<g transform="matrix(0.4441,0,0,0.39775,0,0)">
			<path class="st0" d="M452.7,421c0,0,0.1,0.1,0.2,0.1c0.4,0.1,0.9,0.1,1.7-0.1c0.7-0.3,1.4-0.6,2.2-0.8c0.3-0.1,0.6-0.2,0.9-0.2
				c0.3,0,0.6-0.3,0.5-0.6c0-0.3-0.3-0.6-0.6-0.6c-0.5,0-1,0.1-1.5,0.2c-0.6,0.2-1.3,0.5-1.9,0.8c-0.5,0.2-0.9,0.3-1.1,0.3
				c-0.1,0-0.2,0.1-0.3,0.1c-0.2,0.1-0.4,0.1-0.4,0.2c-0.1,0.1-0.2,0.3,0,0.5C452.4,421,452.6,421.1,452.7,421z M452.9,420.7
				c0,0,0,0.1,0,0.1C452.9,420.8,452.9,420.8,452.9,420.7z"/>
		</g>
		<g transform="matrix(0.4441,0,0,0.39775,0,0)">
			<path class="st0" d="M451.8,422.2c-0.2,0.2-0.6,0.5-0.7,0.7c-0.2,0.4-0.3,0.9-0.4,1.3c-0.1,0.4-0.2,0.9-0.2,1.3
				c-0.1,1.1-0.2,4.6,0.3,7.1c0.3,1.5,0.8,2.6,1.3,3c0.2,0.2,0.6,0.1,0.8-0.1c0.2-0.3,0.1-0.6-0.1-0.8c-0.2-0.2-0.3-0.8-0.5-1.4
				c-0.1-0.6-0.2-1.2-0.3-1.8c-0.3-2.2-0.4-4.8-0.3-5.7c0-0.5,0.1-1,0.2-1.5c0-0.3,0.1-0.6,0.2-0.9c0.1-0.3,0.5-0.8,0.5-0.9
				c0.1-0.4,0-0.6-0.2-0.6c0,0-0.1,0-0.3,0C451.8,421.9,451.8,422.1,451.8,422.2z M451.8,422.2c0-0.1,0.1-0.1,0-0.1
				C451.8,422,451.8,422.1,451.8,422.2z"/>
		</g>
		<g transform="matrix(0.4441,0,0,0.39775,0,0)">
			<path class="st0" d="M452.6,433.9c-0.1,0-0.2,0-0.3,0.1c-0.1,0.1-0.1,0.2-0.2,0.2c0,0.2,0,0.4,0.3,0.5c0,0,0.1,0,0.2,0
				c0.1,0,0.1,0.1,0.3,0.2c0.6,0.1,1.6-0.2,1.7-0.2c0.6-0.2,1.2-0.3,1.7-0.5c0.6-0.2,1.1-0.4,1.7-0.7c0.4-0.2,0.5-0.6,0.4-1
				c-0.1-0.4-0.6-0.6-0.9-0.4c-0.5,0.3-1.1,0.5-1.6,0.7c-0.5,0.2-1.1,0.4-1.6,0.6c-0.1,0-1,0.2-1.5,0.5
				C452.7,433.8,452.6,433.8,452.6,433.9z"/>
		</g>
		<g transform="matrix(0.531844,0,0,0.401153,-394.354,-12.0993)">
			<path class="st0" d="M1116.7,447.7c0,0.1,0,0.2,0.1,0.2c0.1,0.1,0.3,0.1,0.4-0.1c0.1-0.1,0.1-0.2,0.1-0.3c0.1-0.2,0-0.5-0.4-0.8
				c-0.2-0.2-0.6-0.3-1-0.3c-1.8-0.4-5.2-0.3-5.5-0.2c-1.8,0.6-3.8,2.1-5.8,4c-1.6,1.5-3.2,3.1-4.5,4.7c-1.1,1.3-2,2.5-2.8,3.5
				c-0.2,0.2-0.2,0.5,0,0.7c0.1,0.2,0.4,0.2,0.6,0c0.8-0.9,1.8-2,2.9-3.3c1.4-1.5,2.9-3.2,4.4-4.7c1.9-1.7,3.8-3.2,5.4-3.9
				c0.3-0.1,4.3,0,5.7,0.3C1116.5,447.7,1116.6,447.7,1116.7,447.7z M1116.7,447.7C1116.7,447.8,1116.7,447.8,1116.7,447.7
				C1116.7,447.7,1116.7,447.7,1116.7,447.7z M1116.7,447.5C1116.7,447.6,1116.7,447.6,1116.7,447.5
				C1116.7,447.6,1116.7,447.6,1116.7,447.5z"/>
		</g>
		<g transform="matrix(0.531844,0,0,0.401153,-394.354,-12.0993)">
			<path class="st0" d="M1107.2,453.7C1107.2,453.7,1107.2,453.7,1107.2,453.7c0.2,0.2,0.3,0.2,0.4,0c0.1-0.2,0.1-0.4,0.1-0.5
				c0-0.2-0.2-0.4-0.6-0.3c-0.8,0.2-3.3,1.5-3.6,1.6c-1.6,0.8-3.5,2.1-5.1,3.6c-1.2,1.1-2.2,2.4-2.8,3.7c-0.1,0.2-0.1,0.5,0.1,0.7
				c0.2,0.1,0.4,0.1,0.5-0.2c0.6-1.2,1.5-2.4,2.6-3.4c1.6-1.5,3.4-2.7,5-3.5C1104.1,455.3,1106.3,454,1107.2,453.7z"/>
		</g>
		<g transform="matrix(0.531844,0,0,0.401153,-394.354,-12.0993)">
			<path class="st0" d="M1097.1,462.8c0.1,0,0.1-0.1,0.2-0.1c0.6-0.5,1.5-1,1.6-1.1l7.6-4.4c0,0,0.8-0.3,1.5-0.6
				c0.4-0.2,0.7-0.4,1-0.4c0,0,0.1,0,0.1,0l0,0l0,0c0,0,0,0,0.1,0.1l0,0l0,0c0,0.1,0.1,0.1,0.1,0l0,0l0,0c0,0,0,0,0,0v0
				c0,0,0,0,0.1,0c0.2,0,0.3-0.1,0.3-0.3c0-0.2,0-0.3-0.2-0.4c-0.1-0.1-0.2-0.1-0.4-0.1c-0.3,0-0.7,0.1-1.1,0.2
				c-0.8,0.2-1.6,0.6-1.6,0.6c-1,0.5-2.1,1-3.1,1.6c-1.5,0.8-3.1,1.7-4.6,2.5c-0.1,0.1-1.1,0.6-1.7,1.2c-0.4,0.3-0.7,0.7-0.7,0.9
				c-0.1,0.5-0.1,1.4,0.9,1c0.2,0,0.3-0.2,0.3-0.4C1097.1,462.9,1097.1,462.9,1097.1,462.8z M1096.8,463
				C1096.8,463,1096.7,463,1096.8,463C1096.8,463,1096.8,463,1096.8,463z M1096.7,462.6c0-0.1-0.1-0.3-0.2-0.1
				C1096.5,462.6,1096.6,462.6,1096.7,462.6z"/>
		</g>
		<g transform="matrix(0.531844,0,0,0.401153,-394.354,-12.0993)">
			<path class="st0" d="M1110.7,457.3c0,0-0.1,0-0.1,0c-0.5,0.2-1.6,0.6-1.8,0.7c-1.3,0.6-2.7,1.1-4.1,1.7c-0.6,0.3-1.2,0.5-1.7,0.8
				c-0.1,0-1,0.6-1.7,1.2c-0.3,0.3-0.6,0.5-0.7,0.7c-0.2,0.5-0.2,0.7,0,0.8c0.1,0,0,0.1,0.1,0.1c0,0,0,0.1,0.1,0.1
				c0.1,0,0.1,0.1,0.2-0.1c0.1,0,0.2-0.1,0.2-0.2c0,0.1,0,0.1,0,0.1c-0.1-0.2,0.3-0.3,0.6-0.4c0.6-0.5,1.5-1.1,1.5-1.1
				c0.5-0.3,1.1-0.6,1.7-0.9c1.3-0.6,2.7-1.2,4-1.8c0.2-0.1,1.1-0.4,1.6-0.7c0.3-0.2,0.5-0.4,0.5-0.4c0.1-0.3,0.1-0.5,0-0.6
				c0,0-0.1-0.1-0.2-0.1C1110.9,457.2,1110.8,457.2,1110.7,457.3z M1101.2,463c0,0.1,0.1,0.1,0,0.2
				C1101.2,463.1,1101.2,463.1,1101.2,463C1101.2,463,1101.2,463,1101.2,463z M1101.1,462.8C1101.1,462.8,1101.1,462.8,1101.1,462.8
				c0-0.1-0.1-0.2-0.1-0.2s-0.1,0.1,0,0.1C1101,462.8,1101.1,462.8,1101.1,462.8z"/>
		</g>
		<g transform="matrix(0.531844,0,0,0.401153,-394.354,-12.0993)">
			<path class="st0" d="M1103,463.6C1102.9,463.6,1102.9,463.6,1103,463.6C1102.9,463.6,1103,463.6,1103,463.6L1103,463.6
				L1103,463.6L1103,463.6L1103,463.6C1103,463.6,1103,463.6,1103,463.6L1103,463.6C1103,463.6,1103,463.6,1103,463.6L1103,463.6
				c0.2-0.1,0.7-0.2,1.5-0.4l3.3-0.9c1.2-0.2,2.4-0.4,3.6-0.6c1.2-0.2,2.4-0.3,3.6-0.5c0.2,0,1-0.1,1.6-0.2c0.1,0,0.2,0,0.3,0
				c0,0,0-0.1,0,0c0,0.1,0-0.1,0-0.1c0.2,0.2,0.5,0.1,0.6-0.1c0.1-0.3,0.1-0.6-0.1-0.8c0-0.1-0.1-0.2-0.3-0.3
				c-0.1-0.1-0.3-0.1-0.4-0.1c-0.6-0.1-1.7,0.2-1.9,0.3c-1.2,0.2-2.4,0.4-3.6,0.7c-1.2,0.2-2.4,0.5-3.6,0.8l-3.3,1.1
				c-0.9,0.2-1.4,0.4-1.6,0.5c-0.2,0.1-0.3,0.2-0.3,0.3c0,0.2,0,0.3,0.1,0.4C1102.7,463.7,1102.8,463.7,1103,463.6z M1103,463.1
				c0,0.1,0,0.1,0,0.2C1103.1,463.2,1103,463.2,1103,463.1z M1103,463.1L1103,463.1L1103,463.1L1103,463.1z"/>
		</g>
		<g transform="matrix(0.441788,0.0405336,-0.0439769,0.384488,152.4,-145.93)">
			<path class="st0" d="M139.1,749.7c-0.1,0.2-0.2,0.3-0.3,0.4c-0.1,0.2-0.1,0.3-0.2,0.5c-0.4,1.2-0.6,2.6-0.9,4.1
				c-0.7,3.9-1.1,8.4-1.7,11.9c-0.5,3.2-1,6.5-1.2,9.8c-0.2,3.3-0.1,6.7,0.1,9.9c0.1,1.7,0.3,3.3,0.5,5c0.2,1.1,0.4,2.2,0.7,3.3
				c1.1,4.2,3,8.1,6.1,11.7c1.7,1.9,3.3,3.7,5.3,4.7c1.4,0.7,2.9,1,4.6,0.9c0.5,0,0.9-0.5,0.9-1.1c0-0.6-0.5-1.1-1-1
				c-1.7,0-3.2-0.6-4.5-1.5c-1.4-0.9-2.7-2.2-3.9-3.6c-2.7-3-4.6-6.3-5.8-9.8c-0.9-2.5-1.5-5.1-1.8-7.8c-0.3-3.3-0.1-6.7,0.2-10.1
				c0.3-3.4,0.8-6.8,1.3-10c0.4-2.7,0.8-6,1.2-9.2c0.3-2.2,0.6-4.3,0.9-6c0.1-0.4,0.2-0.8,0.2-1.2c0-0.2,0-0.4,0-0.5
				c0.1-0.2,0-0.4-0.2-0.5C139.3,749.4,139.1,749.5,139.1,749.7z"/>
		</g>
		<g transform="matrix(0.441788,0.0405336,-0.0452569,0.395679,156.657,-183.147)">
			<path class="st0" d="M152.9,819.5c-0.1,0.1,0-0.1-0.1,0c0,0,0,0.1,0,0.1c0,0.4,0,0.8,0.1,1.2c0.1,1.5,0.4,3.4,0.5,5
				c0,0.9,0.1,1.8,0,2.6c-0.3,2.7-0.4,5.2-0.2,7.6c0.2,4.1,0.8,8,1.3,12.2c0.2,1.7,0.4,3.3,0.4,5.1c0,0.4,0.3,0.7,0.6,0.7
				c0.3,0,0.6-0.3,0.6-0.7c0-1.8,0-3.6-0.1-5.3c-0.3-4.2-1.1-8-1.3-12.1c-0.1-2.3-0.1-4.7,0.1-7.3c0.1-1.1,0-2.4-0.1-3.8
				c-0.2-1.5-0.4-3-0.7-4.3c-0.1-0.3,0-0.7-0.2-1c0-0.1-0.1,0-0.1-0.1c0-0.2-0.2-0.4-0.4-0.3C153,819.1,152.9,819.3,152.9,819.5z"/>
		</g>
		<g transform="matrix(0.441788,0.0405336,-0.0452569,0.395679,156.657,-183.147)">
			<path class="st0" d="M139,820.6c-0.9,0-0.6,0.4,1.2,0.9l0.2,0.1c0.3,0.1,0.7,0.4,1.3,0.6c1.2,0.6,2.9,1.1,3.1,1.2
				c1.7,0.6,3.3,0.9,4.8,1c1.6,0.1,3.2-0.2,4.9-0.7c0.3-0.1,0.5-0.5,0.4-0.9c-0.1-0.4-0.5-0.6-0.8-0.5c-1.6,0.4-3,0.6-4.5,0.5
				c-1.5-0.1-2.9-0.3-4.5-0.8c-0.2-0.1-1.8-0.7-3.1-1c-0.6-0.2-1.1-0.2-1.4-0.3c-0.1,0-0.2,0-0.4-0.1
				C139.2,820.1,138.8,820.2,139,820.6z"/>
		</g>
		<g transform="matrix(0.441788,0.0405336,-0.0452569,0.395679,156.657,-183.147)">
			<path class="st0" d="M141.1,812.3c-0.1,0.1-0.1,0.3-0.2,0.5c-0.2,0.6-0.4,1.6-0.7,2.7c-0.3,1.4-0.7,2.9-1,4
				c-0.1,0.3-0.2,0.6-0.3,0.8c0,0.1,0,0.2-0.1,0.3c-0.1,0-0.1,0-0.1,0.1c-0.2,0.1-0.3,0.3-0.3,0.6c0,0.4,0.3,0.7,0.6,0.7
				c0.2,0,0.6-0.2,0.9-0.8c0.5-0.9,1-3.2,1.4-5.2c0.2-0.9,0.3-1.8,0.4-2.5c0-0.5,0-0.9,0-1.1c0-0.2,0-0.4-0.1-0.4
				c-0.1-0.1-0.6-0.6-0.7,0.1C141.1,812.2,141.1,812.2,141.1,812.3z M139.1,820.6c-0.1,0-0.1,0-0.2,0l0,0l0,0l0,0l0,0l0,0
				c0,0,0,0,0,0C139,820.7,139,820.6,139.1,820.6z M141.7,812.4c0,0,0.1-0.1,0.1-0.1C141.8,812.3,141.7,812.3,141.7,812.4
				C141.7,812.4,141.7,812.4,141.7,812.4z M141.1,812.3C141.2,812.2,141.2,812.2,141.1,812.3C141.1,812.1,141.1,812.2,141.1,812.3z"
				/>
		</g>
		<g transform="matrix(0.441788,0.0405336,-0.0452569,0.395679,156.657,-183.147)">
			<path class="st0" d="M143.1,812.4c0,0.1,0,0.1,0.1,0l0,0c0.1,0.1,0.3,0.2,0.3,0.2l1.8,1.5c0.8,0.6,1.8,1.2,2.8,1.6
				c1,0.4,2,0.7,3,0.9l2.4,0.3c0.2,0,0.4-0.1,0.6-0.2c-0.4,0.8-0.6,1.8-0.8,2.7c-0.1,0.4-0.1,0.8-0.1,1.2c0,0.4,0,0.8,0.1,1.2
				c0.1,0.2,0.1,0.4,0.2,0.6c0,0.3,0.2,0.5,0.5,0.5c0.2,0,0.5-0.2,0.4-0.5c0.1-0.2,0.2-0.3,0.2-0.6c0.1-0.4,0.1-0.8,0.2-1.2
				c0-0.3,0.1-0.5,0.1-0.8c0.1-1,0.2-1.9,0.5-2.8c0.3-1.3-0.1-1.6-0.5-1.6c-0.1,0-0.1,0-0.2,0c-0.1,0.1,0,0.1-0.2,0.3
				c0,0.1-0.1,0.1-0.1,0.1c-0.2,0.1-0.5-0.1-0.8-0.3l-2.3-0.5c-1.1-0.3-2.2-0.7-3.4-1.1c-0.7-0.3-1.5-0.6-2.1-1l-1.9-1.2
				c-0.1-0.1-0.6-0.3-0.7-0.3c-0.3,0-0.4,0.2-0.4,0.3c0,0.1,0,0.2,0.1,0.3C142.9,812.3,143,812.4,143.1,812.4z M154.4,816.6
				c0,0.2,0.2,0.2,0.4,0.3c0,0,0,0,0,0c0-0.1,0-0.1,0-0.2c-0.1-0.1,0-0.1-0.1-0.1c-0.1,0-0.1-0.1-0.2-0.1
				C154.5,816.6,154.5,816.6,154.4,816.6z M143.2,812.4c-0.1,0-0.1,0-0.1,0l0,0C143.1,812.4,143.2,812.4,143.2,812.4L143.2,812.4z"
				/>
		</g>
		<g transform="matrix(0.459444,0.0421535,-0.0343399,0.300232,42.1554,135.755)">
			<path class="st0" d="M316.1,27.5L316.1,27.5c-0.1,0.2,0,0.2,0.1,0.1l0,0C316.1,27.6,316.1,27.5,316.1,27.5
				C316.1,27.5,316.1,27.5,316.1,27.5c0.1,0.1,0.1,0.1,0.1,0.1l0,0c0.4,0.5,0.7,1.3,1.1,2.2c0.7,2,1.4,4.5,1.9,6.2
				c1.2,3.5,1.7,6.1,2,8.2c0.2,2.1,0.1,3.8-0.2,5.6c-0.1,0.5,0.1,1.1,0.5,1.2c0.3,0.1,0.7-0.2,0.8-0.7c0.4-2,0.6-3.9,0.3-6.4
				c-0.2-2.3-0.9-5.1-2.2-8.8c-0.5-1.4-1.1-3.5-1.8-5.2c-0.5-1.3-1.2-2.5-1.8-3.1c0,0,0,0.1,0.1,0.1c0,0,0,0,0,0
				c0-0.1-0.1-0.1-0.1-0.1c0-0.1-0.1-0.1-0.1-0.1c-0.3-0.3-0.4,0.1-0.5,0.3C316,27,316,27.3,316.1,27.5z"/>
		</g>
		<g transform="matrix(0.441788,0.0405336,-0.0452569,0.395679,156.657,-183.147)">
			<path class="st0" d="M155.9,847.8c0.6,0.3,1.2,0.8,1.8,1.3c0.6,0.4,1.2,0.9,1.8,1.4c0.3,0.3,0.6,0.5,0.8,0.8
				c0.1,0.1,0.2,0.2,0.3,0.4c0,0.1,0.2,0.2,0.1,0.2c0,0,0,0.1,0.1,0.1c-0.3,0.2-0.3,0.7-0.1,1c0.2,0.3,0.6,0.4,0.9,0.1
				c0.9-0.7,0.7-2-0.5-3.3c-0.7-0.8-1.7-1.6-2.8-2.1c-0.8-0.4-1.5-0.5-2.2-0.6c-0.2-0.1-0.4,0.1-0.4,0.3
				C155.6,847.5,155.7,847.7,155.9,847.8z"/>
		</g>
		<g transform="matrix(0.4441,0,0,0.39775,-12.3765,-12.8789)">
			<path class="st0" d="M445.8,464.9c0.1,0,0.2-0.1,0.3-0.2c0.2,0,0.4,0,0.6-0.1c0.8-0.2,1.7-0.8,2.3-1.4c0.9-0.9,1.8-2,2.6-3.2
				c0.4-0.6,0.8-1.2,1.1-1.8c0.3-0.7,0.6-1.3,0.8-2c0.1-0.4,0-0.8-0.4-1c-0.3-0.2-0.7,0-0.9,0.4c-0.2,0.6-0.6,1.1-0.9,1.7
				c-0.3,0.6-0.6,1.1-1,1.7c-0.7,1.1-1.5,2.2-2.3,3.1c-0.5,0.6-1.3,1-1.9,1.4c-0.2,0.2-0.3,0.4-0.5,0.5c-0.3,0.3-0.5,0.5-0.5,0.5
				c0,0.1,0,0.4,0.3,0.4C445.6,465,445.7,464.9,445.8,464.9z"/>
		</g>
		<g transform="matrix(0.441788,0.0405336,-0.0452569,0.395679,154.705,-171.437)">
			<path class="st0" d="M147.4,782.2l1.4-7.8c0.3-2.1,0.3-4.2,0.3-6.2c0-2.2-0.1-4.2,0.5-5.9c0.5-1.4,1.5-2.6,3-3.5
				c0.5-0.3,1.2-0.8,2-1c0.5-0.2,0.9-0.2,1.4-0.2c0.1,0,0.2-0.1,0.3-0.2c0-0.1-0.1-0.3-0.2-0.3c-0.5-0.1-1-0.1-1.6,0
				c-0.8,0.2-1.6,0.5-2.2,0.9c-1.8,1.1-2.8,2.6-3.4,4.3c-0.2,0.4-0.3,0.9-0.4,1.4c-0.3,1.3-0.4,2.8-0.5,4.3c-0.1,2,0,4.1-0.3,6.2
				c-0.2,1.5-0.8,4.6-1,6.5c0,0.2-0.1,0.5-0.1,0.7c0,0.6,0.1,1.1,0.2,1.2c0.1,0.2,0.3,0.2,0.5,0.1
				C147.5,782.6,147.5,782.4,147.4,782.2z"/>
		</g>
		<g transform="matrix(0.441788,0.0405336,-0.0452569,0.395679,154.705,-171.437)">
			<path class="st0" d="M157,758.3C157,758.3,157,758.2,157,758.3L157,758.3L157,758.3L157,758.3L157,758.3L157,758.3L157,758.3
				C157,758.3,157,758.3,157,758.3C157,758.2,157,758.2,157,758.3L157,758.3c0-0.2,0-0.2,0-0.3c-0.1-0.2-0.3-0.3-0.5-0.2
				c-0.1,0-0.2,0.2-0.2,0.4c0,0.2,0.1,0.5,0.2,0.9c0.1,0.4,0.3,0.8,0.5,1.3c0.4,0.8,0.9,1.6,1,1.8l0.1,0.1c-0.2,0.6-0.5,2-0.7,3.4
				c-0.2,0.9-0.3,1.9-0.4,2.6c0,0.3,0.1,1.8,0.2,3.1c0,0.4,0,0.8,0,1.1c0,0.2,0,0.3,0,0.4c0,0.1,0.1,0.1,0,0.2
				c-0.1,0-0.2,0.1-0.3,0.1c-0.3,0-0.4-0.2-0.6-0.4c-0.3-0.3-0.6-0.9-0.7-1.6c-0.4-1.6-0.3-3.8-0.2-5.5c0-1.1,0-2,0.1-2.4
				c0-0.2-0.1-0.4-0.3-0.4c-0.2,0-0.4,0.1-0.4,0.3c-0.1,0.3-0.3,1.2-0.4,2.4c-0.1,1.8-0.1,4.1,0.4,5.8c0.2,0.9,0.6,1.6,1.1,2
				c0.1,0.1,0.2,0.1,0.3,0.2c0.3,0.1,0.5,0,0.7-0.1c0.1,0,0.3,0,0.4,0c0.1,0,0.1-0.1,0.2-0.2c0.1,0,0.1,0,0.2-0.1
				c0.1-0.1,0.2-0.4,0.3-0.7c0.3-1.2,0-3.6,0-4c0.1-0.8,0.3-2,0.6-3.1c0.3-1.6,0.7-3.1,0.7-3.1c0.1-0.2,0-0.5-0.2-0.7l-0.1-0.1
				c-0.1-0.1-0.5-0.9-0.9-1.6C157.6,759.3,157.2,758.8,157,758.3C157,758.4,157,758.3,157,758.3z"/>
		</g>
		<g transform="matrix(0.441788,0.0405336,-0.0452569,0.395679,154.705,-171.437)">
			<path class="st0" d="M158.2,757.9c-0.1,0-0.3,0.1-0.3,0.3c0,0,0.1,0.5,0.6,0.4c0.3,0,1,0,1.5,0.3c0.2,0.1,0.4,0.2,0.5,0.5
				c0.1,0.3,0.2,4.4,0.4,7.9c0,0.6,0.1,1.1,0.2,1.6c0,0.1,0,0.3,0,0.4c0,0.5-0.2,1-0.2,1.5c-0.1,0.7,0.1,1.3-0.1,1.7
				c0,0.1-0.1,0.1-0.1,0.1c-0.1,0.1-0.2,0.1-0.3-0.1c-0.2-0.3-0.6-1.1-1-2.4c0-0.1-0.2-0.2-0.3-0.2c-0.1,0-0.2,0.2-0.1,0.3
				c0.4,1.4,0.8,2.2,1.1,2.5c0.3,0.3,0.6,0.3,0.7,0c0-0.1,0-0.1,0.1-0.2c0.1-0.4,0.5-0.9,0.6-1.7c0-0.4,0-0.8,0-1.3
				c0-0.7,0.2-1.4,0.3-2.2c0.3-3.7,0-7.9-0.1-8.3c-0.2-0.7-0.7-1.1-1.4-1.3c-0.7-0.1-1.5,0-1.9,0.1
				C158.3,757.8,158.3,757.8,158.2,757.9L158.2,757.9z"/>
		</g>
		<g transform="matrix(0.441788,0.0405336,-0.0452569,0.395679,154.705,-171.437)">
			<path class="st0" d="M161.6,757.6c0.2,0.3,0.4,0.4,0.7,0.4c0.2,0,0.5-0.1,0.8-0.2c0.1,0,0.3-0.1,0.3,0.1c0.3,0.9,0.5,3.2,0.4,5.5
				c0,0.6-0.1,1.3-0.1,1.9c0,0.6-0.1,1.3-0.1,1.9c0,0.4-0.1,0.8-0.2,1.2c-0.1,0.5-0.4,0.8-0.6,1.2c-0.2,0.4-0.5,0.7-0.8,0.8
				c-0.1,0-0.2,0.2-0.2,0.3c0,0.1,0.2,0.2,0.3,0.2c0.5-0.1,1-0.5,1.3-1c0.2-0.3,0.3-0.7,0.4-1.1c0.3-0.8,0.6-1.7,0.8-2.7
				c0.2-1.1,0.2-2.2,0.2-3.4c0-2.2-0.3-4.2-0.7-5.1c-0.2-0.5-0.5-0.7-0.9-0.7c-0.3,0-0.6,0.1-0.9,0.3c-0.1,0.1-0.2,0.2-0.3,0.1
				c-0.1-0.2-0.3-0.2-0.5-0.1C161.5,757.2,161.5,757.4,161.6,757.6z"/>
		</g>
		<g transform="matrix(0.441788,0.0405336,-0.0452569,0.395679,154.705,-171.437)">
			<path class="st0" d="M166.2,757.2c-0.1-0.1-0.2-0.1-0.3-0.1c-0.2,0-0.3,0.2-0.3,0.4c0,0.3,0.2,0.4,0.4,0.5c0.1,0,0.6-0.2,0.9-0.3
				c0.1,0.3,0.1,0.7,0.1,1.2c0,0.7-0.1,1.6-0.3,2.4c-0.2,1.2-0.6,2.5-0.9,3.6c-0.3,0.9-0.6,1.7-0.9,2.1c-0.1,0.1-0.2,0.4,0,0.5
				c0.1,0.2,0.3,0.2,0.5,0c0.5-0.4,1-1.2,1.5-2.3c0.3-0.8,0.6-1.7,0.8-2.6c0.2-1.1,0.4-2.3,0.4-3.3c0-1.1-0.1-1.9-0.4-2.4
				c-0.2-0.2-0.4-0.4-0.7-0.3C166.7,756.8,166.4,757.1,166.2,757.2z M166.2,757.2c-0.1-0.1-0.2-0.1-0.1,0
				C166.1,757.2,166.1,757.2,166.2,757.2z"/>
		</g>
		<g transform="matrix(0.441788,0.0405336,-0.0452569,0.395679,154.705,-171.437)">
			<path class="st0" d="M156.8,785.6c0.4-1.3,0.9-2.4,1.5-3.4c0.7-1.2,1.4-2.2,2.3-3.1c0.4-0.4,0.8-0.7,1.3-1.1
				c1.2-0.9,2.6-1.6,3.9-2.4c1.3-0.9,2.5-1.9,3.6-3.1c0.6-0.7,1.2-1.5,1.7-2.4c0.4-0.8,0.8-1.8,1.1-2.9c0-0.2,0.1-0.3,0.1-0.5
				c0.1-0.7,0.1-1.4,0-2.1c0-0.1,0-0.2-0.1-0.2c-0.1,0-0.1,0-0.2,0.1c-0.3,0.7-0.6,1.2-0.9,1.8c-0.1,0.1-0.1,0.3-0.2,0.4
				c-0.4,0.9-0.7,1.7-1.2,2.5c-0.5,0.8-0.9,1.6-1.4,2.3c-1,1.3-2,2.3-3.1,3.3c-1.2,1-2.3,2.1-3.5,3.1c-0.4,0.4-0.9,0.7-1.3,1.1
				c-1,0.8-2,1.7-2.8,2.8c-0.7,1-1.2,2.3-1.5,3.7c-0.1,0.2,0,0.4,0.2,0.5C156.6,785.9,156.7,785.8,156.8,785.6z"/>
		</g>
		<g transform="matrix(0.441788,0.0405336,-0.0452569,0.395679,154.705,-171.437)">
			<path class="st0" d="M172,764c-0.1,0-0.2,0-0.3,0c-0.1-0.1,0-0.1-0.1-0.1c0,0-0.1,0-0.1,0c-0.6,0-1.2,0.2-1.8,0.5
				c-1.2,0.7-2.3,2.1-3.6,3.3c-0.1,0.1-0.2,0.2-0.3,0.3c0,0-0.1,0.1-0.1,0.1c-0.4,0-0.8-0.2-1.7,0.1c-0.2,0-0.4,0.2-0.3,0.5
				c0,0.2,0.2,0.4,0.4,0.4c0.7,0,1,0.3,1.3,0.4c0.2,0.1,0.4,0.1,0.6,0.1c0.3,0,0.6-0.2,1-0.5c1-1,1.9-2.2,2.8-3
				c0.3-0.3,0.6-0.5,1-0.7c0.2-0.1,0.4-0.3,0.7-0.3c0,0,0.1,0,0.1,0c0.1-0.1,0-0.1,0-0.1c0.1,0,0.1,0,0.2,0c0.2,0,0.3-0.1,0.3-0.3
				C172.3,764.2,172.2,764,172,764z"/>
		</g>
		<g transform="matrix(0.4441,0,0,0.39775,0,0)">
			<path class="st0" d="M445.9,376.4c0,0.1,0.2,0.3,0.3,0.5c0.3,0.8,0.7,1.9,0.6,2.9c-0.1,0.7-0.4,1.4-1.2,1.6
				c-0.3-0.4-0.5-1.4-0.7-2c0-0.1-0.1-0.2-0.1-0.3c0-0.2-0.1-0.4-0.2-0.6c0.2,0.1,0.7,0.1,1.3,0.5c0.2,0.2,0.5,0.1,0.6-0.1
				c0.1-0.2,0.1-0.5-0.1-0.7c-0.7-0.6-1.2-0.8-1.5-1c-0.4-0.1-0.7-0.1-0.9,0.1c-0.3,0.2-0.5,0.5-0.5,1c-0.1,1.1,0.8,3.3,1.4,4.1
				c0.3,0.5,0.8,0.6,0.9,0.5c2-0.4,2.6-2.1,2.4-3.9c-0.1-1.4-0.7-2.9-1.2-3.5c-0.6-0.7-1.2-0.7-1.5-0.1c-0.2,0.3-0.2,0.7,0.1,0.9
				C445.6,376.4,445.7,376.4,445.9,376.4z M445.6,381.4c0.1,0.1,0.2,0.2,0.3,0.1C445.9,381.4,445.7,381.4,445.6,381.4z M444.6,378.3
				C444.6,378.3,444.7,378.3,444.6,378.3C444.6,378.3,444.6,378.3,444.6,378.3z"/>
		</g>
		<g transform="matrix(0.407959,0,0,0.365381,165.69,109.518)">
			<path class="st0" d="M61.6,108L61.6,108c0.1-0.2,0-0.5-0.2-0.6c-0.1-0.1-0.2-0.1-0.3-0.1c-0.3-0.1-0.5,0.2-0.5,0.8
				c0,0.5,0.4,1.4,0.5,1.9l1.1,3.7c0.4,1.6,0.7,3.1,1.1,4.7c0.5,2.3,1,4.7,1.4,7.1c0.1,0.4,0.4,0.7,0.8,0.6c0.4-0.1,0.6-0.5,0.5-0.9
				c-0.2-1.6-0.5-3.2-0.8-4.8c-0.5-2.4-1.1-4.7-1.7-7.1l-1.2-3.7C62.1,109.2,61.8,108.4,61.6,108z"/>
		</g>
		<g transform="matrix(0.407959,0,0,0.365381,165.69,109.518)">
			<path class="st0" d="M64,130.9C64,130.9,64.1,130.8,64,130.9C64,130.8,64,130.9,64,130.9c0,0-0.1,0.1-0.1,0.1
				c0.1-0.1,0.2-0.3,0.1-0.5c-0.1-0.2-0.3-0.3-0.5-0.1c0,0-0.3,0.3-0.4,0.9c0,0.1,0,0.2,0,0.4c-0.1,2.2-0.2,7.5-0.3,8.2
				c-0.5,3.2-1.4,6.3-2.4,9.4c-1.1,3.2-2.5,6.3-3.9,9.4c-0.6,1.3-1.2,2.7-1.8,4c-0.1,0.3,0,0.6,0.2,0.8c0.2,0.2,0.6,0.1,0.7-0.2
				c0.8-1.4,1.5-2.8,2.3-4.3c1.1-2.2,2-4.5,2.9-6.8c1.5-3.9,2.6-8,3.2-12.1c0.1-0.7,0.1-6.2,0.1-8.4c0-0.1,0-0.2,0-0.3
				C64.1,131.1,64,131,64,130.9z"/>
		</g>
		<g transform="matrix(0.4441,0,0,0.39775,0,0)">
			<path class="st0" d="M462.3,378.3c0,0.1-0.1,0.2-0.1,0.3c-0.3,0.8-0.2,1.5,0.1,1.9c0.5,0.7,1,0.8,1.6,0.6
				c0.6-0.2,1.2-0.8,1.5-1.3c1.2-1.9,0.6-3.5-0.2-4.3c-0.9-0.8-2.6-0.8-3.1,1.1c-0.1,0.2-0.1,0.5-0.1,0.8
				C461.9,377.9,462.1,378.2,462.3,378.3z M464.2,377L464.2,377c0,0.1,0,0.2,0,0.3c-0.1,0.5-0.4,1.2-0.6,1.8c0,0.2-0.1,0.4-0.1,0.5
				c0.1,0.1,0.2-0.1,0.3-0.2c0.1-0.1,0.2-0.3,0.3-0.4C464.6,378.1,464.6,377.3,464.2,377L464.2,377z"/>
		</g>
		<g transform="matrix(0.4441,0,0,0.39775,0,0)">
			<path class="st0" d="M464.2,381.3c-0.2,0.1-0.3,0.3-0.5,0.6c-0.1,0.3-0.2,0.7-0.2,1.1c-0.2,1.9,0,4.9-0.1,6.5
				c-0.2,4.3-1.1,9.5-1,14.3c0.1,2.2,0.4,4.4,1.1,6.3c0.1,0.4,0.5,0.6,0.9,0.4s0.5-0.6,0.4-1c-0.6-1.8-0.9-3.7-0.9-5.8
				c-0.1-4.8,0.8-10,1-14.2c0-1.4-0.2-3.8-0.2-5.7c0-0.6,0.1-1.1,0.1-1.6c0-0.2,0-0.4,0-0.6c0.1-0.2,0.1-0.4-0.1-0.5
				C464.5,381.1,464.3,381.1,464.2,381.3z"/>
		</g>
		<g transform="matrix(0.4441,0,0,0.39775,0,0)">
			<path class="st0" d="M446,384.1c0.2-0.4,0.1-1.4,0-1.7c-0.1-0.2-0.2-0.2-0.3-0.3c-0.1,0-0.5,0-0.5,0.5l-0.5,10.5
				c-0.1,4.2-0.1,8.5,0,12.8c0.1,1.4,0.1,2.8,0.2,4.3c0.1,1.4,0.3,2.8,0.5,4.2c0,0.4,0.4,0.6,0.7,0.6c0.3-0.1,0.6-0.4,0.5-0.8
				c-0.1-1.4-0.2-2.8-0.3-4.2c-0.1-1.4-0.2-2.8-0.3-4.2c-0.2-4.2-0.2-8.5-0.2-12.7L446,384.1z"/>
		</g>
		<g transform="matrix(0.4441,0,0,0.39775,0,0)">
			<path class="st0" d="M445.3,413.5c-0.1,0.3-0.1,0.7,0,1c0.2,0.8,0.7,1.3,1.3,1.4c0.2,0,0.4-0.1,0.6-0.3c0.2-0.3,0.6-1.1,0.6-1.9
				c0.1-1-0.3-1.7-1-1.8c-0.3,0-0.5,0-0.7,0.1c-0.2,0.1-0.4,0.3-0.6,0.6C445.3,413,445.3,413.3,445.3,413.5z M446.4,414.7
				c-0.1,0-0.2,0-0.1,0.1C446.4,414.8,446.4,414.7,446.4,414.7L446.4,414.7z M446.3,414.2L446.3,414.2L446.3,414.2
				c0,0.1,0.1,0.2,0.1,0.3C446.4,414.4,446.3,414.3,446.3,414.2z"/>
		</g>
		<g transform="matrix(0.4441,0,0,0.39775,0,0)">
			<path class="st0" d="M462.8,410.5c-0.1,0.1-0.2,0.2-0.3,0.3c-0.2,0.3-0.3,0.5-0.3,0.8c-0.1,0.1-0.1,0.3-0.1,0.4
				c-0.1,0.5-0.1,1,0.1,1.4c0.4,0.8,1.1,0.9,1.8,0.6c0.5,0.1,0.9-0.3,1.3-0.9c0.4-0.6,0.6-1.4,0.6-2c0-0.3-0.1-0.6-0.2-0.8
				c0-0.1-0.1-0.2-0.2-0.2c-0.1-0.1-0.2-0.2-0.3-0.2c-0.6-0.4-1.3-0.2-1.9,0.3C463.1,410.2,463,410.4,462.8,410.5z M464.1,412.6
				L464.1,412.6L464.1,412.6L464.1,412.6z M464,411.7C464,411.7,464,411.7,464,411.7L464,411.7L464,411.7L464,411.7z"/>
		</g>
		<g transform="matrix(0.4441,0,0,0.39775,0,0)">
			<path class="st0" d="M430.9,365.5c-0.1,0.1,0,0.3,0.1,0.4c0.1,0.1,0.3,0,0.3-0.1c0.3-0.6,0.2-0.9,0-1c-0.1-0.1-0.1-0.1-0.2-0.1
				c-0.1,0-0.3-0.1-0.6,0c0,0-0.1,0-0.1,0.1c-0.9,0.5-2.4,1.8-2.5,1.9c-1,1-3.8,3.9-5.6,6.5c-0.3,0.5-0.6,0.9-0.8,1.3
				c-0.5,1-0.7,1.9-0.6,2.5c0,0.2,0.2,0.4,0.4,0.3c0.2,0,0.3-0.3,0.3-0.5c0-0.4,0.2-0.9,0.5-1.6c0.4-0.7,0.9-1.5,1.6-2.4
				c1.7-2.2,3.8-4.6,4.7-5.4c0.1-0.1,1.2-1.2,2-1.8C430.7,365.6,430.8,365.6,430.9,365.5z"/>
		</g>
		<g transform="matrix(0.4441,0,0,0.39775,0,0)">
			<path class="st0" d="M489.3,414c-0.1-0.2-0.2-0.5-0.2-0.5s0,0,0,0c0,0,0,0.1,0,0.1c0,0,0,0,0,0c0.1-0.1,0.2-0.1,0.4-0.1
				c1.1-0.2,3.2,0,3.9,0.4c1.5,1,2.8,2.1,3.8,3.4c0.7,0.8,1.2,1.7,1.8,2.6c0.8,1.3,1.6,2.7,2.3,4.3c0.1,0.3,0.5,0.4,0.7,0.3
				c0.3-0.1,0.4-0.5,0.2-0.8c-0.6-1.4-1.1-2.7-1.8-3.9c-0.5-0.9-0.9-1.7-1.5-2.4c-1.3-1.8-2.9-3.4-5.1-4.7c-0.8-0.5-3.3-0.7-4.6-0.3
				c-0.4,0.1-0.8,0.3-0.9,0.5c-0.2,0.3-0.3,0.5-0.2,0.8c0.1,0.2,0.3,0.5,0.7,0.7c0.1,0.1,0.3,0.1,0.3-0.1
				C489.4,414.3,489.4,414.1,489.3,414z"/>
		</g>
		<g transform="matrix(0.4441,0,0,0.39775,0,0)">
			<path class="st0" d="M493.1,411.8c0,0,0.1-0.1,0.1-0.2c0-0.1,0-0.3,0.1-0.2c0,0,0,0,0,0c0.1-0.2,0.3-0.3,0.6-0.4
				c0.5-0.3,1.2-0.4,1.9-0.6c1.7-0.3,3.6-0.2,4.6-0.3c0.4,0,0.6-0.4,0.6-0.8c0-0.4-0.3-0.7-0.7-0.7c-1.2,0.1-3.6,0-5.5,0.6
				c-0.6,0.2-1.1,0.3-1.4,0.6c-0.4,0.3-0.6,0.6-0.8,1c-0.1,0.1-0.1,0.4-0.1,0.7c0,0.2,0.1,0.3,0.2,0.4c0.2,0.2,0.3,0.3,0.4,0.2
				c0,0,0.2,0,0.2-0.2C493.1,411.9,493.1,411.9,493.1,411.8z"/>
		</g>
		<g transform="matrix(0.4441,0,0,0.39775,0,0)">
			<path class="st0" d="M484.3,371.4c0.1,0,0.2-0.1,0.2-0.2c0-0.1-0.1-0.3-0.2-0.3c-0.1,0-0.3,0.1-0.5,0.2c-0.1,0.1-0.2,0-0.3,0.1
				c-0.1,0.1-0.2,0.3-0.3,0.5c-0.2,0.3-0.4,0.8-0.5,1.2c-0.3,0.8-0.6,1.9-0.9,3c-0.4,1.6-0.8,3.4-1,4.9c-0.2,1.5-0.2,2.7-0.1,3.5
				c0,0.3,0.3,0.5,0.5,0.4c0.2,0,0.4-0.3,0.4-0.6c-0.1-0.6,0.1-1.5,0.2-2.6c0.1-0.8,0.3-1.7,0.4-2.7c0.4-2.3,1.1-4.8,1.6-6.3
				c0.1-0.3,0.2-0.6,0.3-0.9C484.3,371.7,484.2,371.6,484.3,371.4C484.3,371.5,484.3,371.4,484.3,371.4z"/>
		</g>
		<g transform="matrix(0.4441,0,0,0.39775,0,0)">
			<path class="st0" d="M481.4,389.5c0.1,0,0.2-0.1,0.2-0.2c0-0.1-0.1-0.3-0.2-0.3c-0.2,0-0.4,0.1-0.5,0.3c-0.1,0.2-0.1,0.5-0.1,0.9
				c0.1,1.5,0.9,4.2,0.9,4.3c0.7,3.5,1.3,7,2.1,10.4c0.4,1.6,0.8,3.2,1.4,4.8c0.3,0.7,0.5,1.3,0.8,2c0.1,0.3,0.4,0.4,0.7,0.3
				c0.3-0.1,0.4-0.5,0.2-0.8c-0.3-0.6-0.5-1.3-0.7-1.9c-0.6-1.5-1-3.1-1.4-4.6c-0.9-3.4-1.5-6.9-2.3-10.3c0,0-0.6-1.7-0.9-3.1
				c-0.1-0.6-0.2-1.1-0.2-1.4C481.4,389.7,481.4,389.6,481.4,389.5z M481.4,389.5C481.4,389.5,481.4,389.5,481.4,389.5
				C481.4,389.5,481.4,389.5,481.4,389.5z"/>
		</g>
		<g transform="matrix(0.4441,0,0,0.39775,0,0)">
			<path class="st0" d="M404.2,425.7c0.1,0.1,0.1,0.2,0.2,0.2c0.1,0.1,0.2,0.1,0.3,0c0,0,0.1-0.1,0.1-0.2c0-0.1,0-0.2-0.1-0.3
				c0-0.1-0.1-0.2-0.2-0.3c-0.1-0.1-0.2-0.1-0.2-0.1c-0.4,0-0.9-0.1-1.3-0.1c-1,0-2.1,0.1-3.1,0.1l-11.3,0.4c-0.3,0-0.5,0.2-0.5,0.5
				c0,0.3,0.2,0.5,0.5,0.5c1.1,0,2.3,0,3.4,0c2.6-0.1,5.3-0.3,7.9-0.4c1,0,2.1-0.1,3.1-0.2C403.4,425.8,403.8,425.7,404.2,425.7z"/>
		</g>
		<g transform="matrix(0.4441,0,0,0.39775,0,0)">
			<path class="st0" d="M436.1,423.4c-0.1-0.1-0.6-0.3-1.4-0.4c-0.3,0-0.6,0-0.9,0c-2.7,0-7.1,0.3-8.8,0.3c-0.2,0-0.4,0.2-0.4,0.4
				c0,0.2,0.2,0.4,0.4,0.4c1.5,0,5.1-0.1,7.7-0.2c0.7,0,1.4,0,2-0.1c0.6,0,1.1-0.1,1.2-0.1c0.1,0.1,0.3,0.1,0.3-0.1
				C436.2,423.7,436.2,423.5,436.1,423.4z"/>
		</g>
		<g transform="matrix(0.4441,0,0,0.39775,0,0)">
			<path class="st0" d="M525.9,418.7c0,0.1,0,0.1,0,0.2c0,0.1,0,0.3,0.2,0.3c0.1,0,0.3,0,0.3-0.2c0.1-0.1,0.1-0.2,0.1-0.3
				c0.1-0.2,0-0.4-0.1-0.5c-0.1-0.2-0.3-0.3-0.7-0.3c-3.6-0.1-7.3-0.2-10.9-0.1c-2.5,0.1-4.9,0.2-7.3,0.5c-0.3,0-0.4,0.3-0.4,0.6
				c0,0.3,0.3,0.5,0.5,0.5c2.4-0.3,4.8-0.4,7.2-0.4c3.6-0.1,7.3-0.1,10.9-0.2C525.8,418.7,525.9,418.7,525.9,418.7z M525.9,418.7
				C525.9,418.6,525.9,418.6,525.9,418.7C525.8,418.6,525.9,418.7,525.9,418.7z"/>
		</g>
		<g transform="matrix(0.734747,0,0,0.42005,-1288.33,-80.2248)">
			<path class="st0" d="M2013.2,605c0-0.3-0.1-0.6-0.1-0.6c-0.1-0.2-0.2-0.2-0.4-0.1c-0.1,0.1-0.2,0.3-0.2,0.5c0,0,0,0.1-0.1,0.3
				c0,0.3-0.1,0.7-0.1,1c0,0.1-0.1,0.3-0.1,0.4c-0.2,0.4-0.3,0.9-0.5,1.3c-0.3,1-0.6,2-0.9,3c-1,2.9-1.9,6-2.9,9
				c-0.6,1.9-1.3,3.8-2.1,5.6c-0.2,0.3-0.1,0.8,0,1.1c0.2,0.3,0.5,0.2,0.6-0.1c0.9-1.8,1.7-3.7,2.4-5.7c1-3,1.9-6.2,2.8-9.1l1.2-4.3
				c0.1-0.3,0.2-0.8,0.2-1.3c0-0.3,0.1-0.6,0-0.8C2013.3,605.1,2013.2,605,2013.2,605z M2012.8,605c0,0.1-0.1,0.1,0,0.2v0
				C2012.7,605.1,2012.7,605,2012.8,605z"/>
		</g>
		<g transform="matrix(0.4441,0,0,0.39775,-15.1098,1.08768)">
			<path class="st0" d="M453,456.6c0,0,0.1,0.1,0.2,0c0.5,0,1.5-0.1,1.9-0.2c1.1-0.2,2.3-0.3,3.4-0.4c1.7-0.2,3.4-0.3,5.2-0.3
				c3.1-0.2,6.3-0.3,9.5-0.4c3.2-0.1,6.3-0.2,9.4-0.2c4.9,0,8.8,0.7,13.3,0.6c1.1,0,2.2-0.1,3.4-0.2c0.4,0,0.7-0.4,0.6-0.8
				c0-0.4-0.3-0.7-0.7-0.7c-0.9,0-1.7-0.1-2.5-0.1c-0.8,0-1.7,0-2.5,0c-3.9-0.1-7.4-0.6-11.7-0.6c-2.5,0-5.1,0.1-7.6,0.1
				c-3.8,0.1-7.6,0.3-11.4,0.6c-1.5,0.1-2.9,0.2-4.4,0.4c-1.5,0.2-2.9,0.4-4.4,0.7c-0.4,0.1-1.5,0.2-2,0.5c-0.6,0.3-0.7,0.7-0.6,1
				c0.1,0.2,0.3,0.3,0.5,0.3C452.9,456.8,453,456.7,453,456.6z"/>
		</g>
		<g transform="matrix(0.4441,0,0,0.39775,-15.1098,1.08768)">
			<path class="st0" d="M500,454.7c0.1-0.1,0.2-0.1,0.2-0.3c0.3-0.6,0.5-1.8,1-2.9c0.5-1.2,1.1-2.4,1.5-3.2c1.4-3.2,2.9-6.3,4.2-9.5
				c0.6-1.4,1.1-2.8,1.6-4.2c0.1-0.3,0-0.7-0.3-0.8c-0.3-0.2-0.6,0-0.8,0.3c-0.7,1.3-1.4,2.6-2,4c-1.5,3.1-2.8,6.3-4.2,9.5
				c-0.5,1.2-1.3,3.2-1.8,4.8c-0.2,0.7-0.5,1.4-0.4,1.9c0,0.3,0.1,0.4,0.2,0.6c0,0.2,0.2,0.4,0.4,0.4
				C499.9,455.1,500,454.9,500,454.7z"/>
		</g>
		<g transform="matrix(0.444048,-0.00607908,0.00678748,0.397703,-39.2229,28.6972)">
			<path class="st0" d="M511,381.5L511,381.5C511,381.6,511,381.6,511,381.5L511,381.5c0,0.1,0,0.2,0,0.2c0,0.1,0.1,0.2,0.1,0.2
				c0.2,0.2,0.4,0.1,0.5,0c0.1-0.1,0.2-0.2,0.1-0.4c0,0-0.1-0.1-0.1-0.2c0.7-0.3,1.6-0.3,2.7-0.3c2.5,0,5.6,0.6,7.2,0.7
				c6.1,0.1,12.3,0.6,18.4,0.8c2.6,0.1,5.3,0.2,7.9,0.2c0.6,0,1.1-0.6,1.1-1.2c0-0.7-0.5-1.2-1.1-1.2c-1.7,0-3.5,0-5.2,0
				c-7-0.1-14.1-0.4-21.1-0.3c-1.6,0-4.7-0.3-7.2-0.2c-1.3,0.1-2.4,0.3-3.2,0.8c-0.2,0.1-0.3,0.3-0.3,0.5
				C510.8,381.2,510.9,381.4,511,381.5z M511,381.6L511,381.6L511,381.6C511,381.7,511,381.7,511,381.6l0,0.1c0,0,0,0,0,0
				C511,381.7,511,381.6,511,381.6L511,381.6z M511.6,381.3c0.1-0.1,0.1-0.2,0-0.2C511.6,381.1,511.6,381.2,511.6,381.3z
				 M511.5,381.3L511.5,381.3L511.5,381.3L511.5,381.3z M511.5,381.2c-0.1-0.1-0.2-0.1-0.3,0C511.3,381.2,511.4,381.2,511.5,381.2z"
				/>
		</g>
		<g transform="matrix(0.4441,0,0,0.39775,-7.19215,0.0159372)">
			<path class="st0" d="M451.2,451.9c4.6-0.1,9.4,0.1,14,0.2c4.1,0.1,8.1,0.3,11.6,0.4c1,0,2,0,2.9,0c0.5,0,0.9-0.4,0.9-0.9
				c0-0.5-0.3-1-0.8-1c-0.9-0.1-1.9-0.3-2.9-0.3c-3.6-0.3-7.6-0.3-11.7-0.2c-4.8,0.1-9.8,0.5-14.6,0.9c-0.7,0-0.7,0.5-0.6,0.7
				c0.1,0.1,0.3,0.4,0.7,0.5C451,452.3,451.2,452.2,451.2,451.9C451.2,451.9,451.2,451.9,451.2,451.9z"/>
		</g>
		<g transform="matrix(0.443882,-0.0124477,0.0138982,0.397555,-63.6527,58.2238)">
			<path class="st0" d="M601,313.5c0.2,0.1,0.5,0,0.7-0.1c0.1,0,0.7-2.3-0.7-2.3c-0.6,0-1.9,0-2.9,0.1c-1.6,0-3.2,0.1-4.8,0
				c-1.1,0-2.1,0-3.2-0.1c-5.6-0.4-11.3-0.3-16.8-0.5c-1.4-0.1-2.8-0.1-4.2-0.3c-0.2,0-0.4,0.1-0.4,0.4c0,0.2,0.1,0.4,0.3,0.5
				c1.4,0.2,2.8,0.3,4.2,0.5c5.5,0.5,11.2,0.6,16.7,1.2c1.1,0.1,2.2,0.2,3.3,0.3c1.6,0.1,3.2,0.1,4.9,0.2c1,0.1,2.3,0.1,2.8,0.2
				C600.9,313.5,601,313.5,601,313.5z"/>
		</g>
		<g>
			<g transform="matrix(0.4441,0,0,0.39775,0,0)">
				<path class="st1" d="M399.5,436.9l1.6-2.7c0,0,25.1,15.9,25.4,16.2c0.3,0.2,1.8,3.3,1.8,3.3l-3.8,0.1L399.5,436.9z"/>
			</g>
			<g transform="matrix(0.407347,-0.158436,0.176899,0.364833,-470.487,796.081)">
				<path class="st0" d="M1964.2-856.2C1964.2-856.2,1964.3-856.3,1964.2-856.2c0-0.2-0.1-0.4-0.2-0.4c-0.2,0-0.3,0.2-0.2,0.6
					c0,0.1,0,0.1,0,0.2c0,0.4,0.5,1,0.9,1.7c0.4,0.6,0.8,1.2,0.9,1.5c0.6,1.1,1.3,2.3,1.9,3.4c0.6,1.1,1.3,2.2,2,3.3
					c1.1,1.8,2.1,3.3,3.2,4.8c1.1,1.5,2.1,2.9,3.2,4.3c1.5,2,3.1,4,4.7,6.4c0.1,0.2,0.3,0.2,0.5,0.1c0.2-0.1,0.2-0.4,0.1-0.5
					c-1-1.8-2.1-3.4-3.1-4.9c-1-1.5-2.1-2.9-3.1-4.3c-1.5-2-3-4.1-4.5-6.5l-4-6.6c-0.2-0.3-0.6-0.9-1-1.5c-0.4-0.6-0.7-1.2-1-1.5
					C1964.3-856.2,1964.3-856.1,1964.2-856.2C1964.2-856.2,1964.2-856.2,1964.2-856.2z"/>
			</g>
			<g transform="matrix(0.407347,-0.158436,0.176899,0.364833,-469.924,796.565)">
				<path class="st0" d="M1961-855.6c0,0,0.1,0.1,0,0.1c0,0,0,0,0,0c0,0,0,0,0,0c0,0,0,0,0,0c0.1,0,0.3,0,0.5-0.1
					c0.6-0.3,1.6-1.1,2-1.3c0.3-0.2,0.4-0.6,0.2-0.9c-0.2-0.3-0.6-0.4-0.9-0.2c-0.4,0.3-1.4,1.1-1.9,1.7c-0.2,0.3-0.3,0.5-0.4,0.6
					c-0.1,0.3-0.1,0.4,0,0.4c0.1,0.1,0.2,0.1,0.3,0C1961-855.4,1961.1-855.5,1961-855.6z"/>
			</g>
			<g transform="matrix(0.420802,-0.16367,0.155852,0.367742,-453.208,808.061)">
				<path class="st0" d="M1835.2-908c0,0,0.1,0,0.1-0.1c0.3-0.2,0.3-0.6-0.2-0.5c-0.1,0-0.3,0.1-0.4,0.2c-0.1,0.1-0.1,0.3-0.1,0.4
					c0.1,0.2,0.2,0.4,0.3,0.5c0.2,0.4,0.5,0.7,0.7,1c0.9,1.3,1.5,2.7,2.3,4.1c0.2,0.3,0.4,0.7,0.6,1c2,3,4.8,7.4,7.5,11.4
					c0.9,1.3,1.8,2.5,2.6,3.7c1,1.3,2,2.5,2.8,3.5c0.1,0.1,0.2,0.1,0.2,0c0.1-0.1,0.1-0.2,0-0.3c-0.8-1.1-1.6-2.4-2.5-3.7
					c-0.8-1.2-1.7-2.5-2.5-3.8c-2.7-4-5.5-8.3-7.5-11.3c-0.9-1.3-1.5-2.7-2.4-4c-0.2-0.3-0.4-0.7-0.7-1c-0.2-0.3-0.5-0.6-0.8-0.9
					C1835.3-907.9,1835.3-907.9,1835.2-908z M1835.1-908C1835.1-908,1835.1-908,1835.1-908C1835.1-907.9,1835.1-907.9,1835.1-908z
					 M1835.2-908C1835.2-908,1835.2-908,1835.2-908C1835.2-908,1835.2-907.9,1835.2-908z"/>
			</g>
		</g>
		<g transform="matrix(0.407347,-0.158436,0.176899,0.364833,-470.487,796.081)">
			<path class="st0" d="M1977.5-828.3c0.1,0,0.2,0,0.4,0.1c0.5,0.2,1.4,0.4,2,0.9c0,0,0,0,0.1,0.1c0,0.2-0.1,0.1,0,0.2
				c0,0,0,0,0.1,0.1c0.5,0.3,0.8,0.5,0.8,0.5c0.2,0.1,0.4,0.1,0.6-0.1c0.2-0.1,0.3-0.4,0.3-0.6c0,0,0-1-0.1-2
				c-0.1-0.5-0.2-1-0.2-1.3c0-0.2-0.2-0.4-0.4-0.4c-0.2,0-0.4,0.2-0.4,0.4c0,0.3-0.1,0.9-0.1,1.4c0,0.3,0,0.7,0,1c0,0,0,0,0,0
				c-0.1,0,0,0.1-0.2,0.1c-0.1,0-0.1,0-0.2,0c-0.6-0.2-1.3-0.6-1.8-0.7c-0.5-0.2-0.8-0.2-1-0.1c-0.1,0.1-0.2,0.2-0.1,0.4
				C1977.2-828.3,1977.4-828.3,1977.5-828.3z"/>
		</g>
	</g>
	<g transform="matrix(0.4441,0,0,0.39775,1403.86,764.629)" class="st2">
		<g id="Gray-Short.svg11" transform="matrix(0.681216,0,0,0.681216,1361.69,1133.76)" class="st3">
			<g transform="matrix(1,0,0,1,-236.5,-283.5)">
				<g id="head-mono-Gray-Short11">
					<path class="st1" d="M-6304.1-4115.6c0,0-4.6,20.3,9.2,14.4c0,0,7.7,20,14.2,18c0,0,5.1,4.7,9.3,5.1c0,0,20.5,20.9,37.6-11.5
						c6.8-12.9,2.5-41.1-0.4-51.6c-1.3-4.6-1.5-9.2-1.6-10.6c0,0,8.8-6.2,2.3-9c0,0,4.6-7.1,3.7-7.8c-0.9-0.6-30.6-15.1-45.4-11.9
						c-14.8,3.2-21.9,5.3-26.7,12.5c-4.8,7.2-5,3.3-5.8,10.3C-6308.6-4150.8-6310.6-4119.7-6304.1-4115.6z"/>
					<path id="_xD83D__xDD8D_-Ink26" class="st0" d="M-6254.7-4070.7c-6.2,0.7-13.6-0.9-17.7-6.6c-0.1-0.2-0.2-0.4-0.2-0.5
						c0-0.2,0.1-0.4,0.2-0.6c0.1-0.2,0.3-0.3,0.5-0.3c0.2,0,0.3,0,0.5,0.1l0.4,0.2c2.8,1.7,5.8,3.2,9,3.9c3.3,0.7,6.6,0.6,9.9-0.2
						c5.9-1.5,10.8-5.4,14.3-10.5c4-5.7,6.3-12.9,6.9-20.1c0.7-8.7-1-17.4-2.7-25.9c-1.8-8.9-3.9-17.7-6.2-26.5
						c-0.1-0.3-0.1-0.5-0.1-0.7c-0.7-0.3-1.4-0.2-2.2,0.1c-1.3,0.5-2.7,1.6-3.8,2.6c-0.4,0.3-0.8,0.7-1.1,0.9
						c-1.4,1.1-2.9,1.8-4.6,1.9c-1.8,0.1-3.5-0.5-5.1-1.2c-0.8-0.4-1.6-0.8-2.4-1.2c-2.3-1.1-4.5-2.3-6.9-3c-3.3-1-6.6-1.5-10-1.4
						c-6,0.1-12.1,1.8-15.8,7.5c-1.5,2.3-2.5,5-1.7,7.8c0.4,1.6,1.2,3,2.1,4.3l0.3,0.4c0.5,0.7,0.9,1.4,1,2.2c0.1,0.6,0,1.3-0.4,2
						c-0.3,0.5-0.6,0.9-0.9,1.3c-0.2,0.3-0.5,0.6-0.7,0.9c-0.4,0.6-0.8,1.3-1.1,2.1c-0.6,1.4-0.8,2.9-0.8,4.5
						c-0.1,1.9,0.2,3.7,0.4,5.5c0.2,1.3,0.3,2.6,0.4,3.9c0,0.2-0.1,0.4-0.1,0.5c-0.1,0.2-0.3,0.3-0.4,0.3c-0.1,0-0.1,0-0.2,0
						c0,0.1,0.1,0.3,0.1,0.4c-0.1-0.2-0.2-0.3-0.4-0.5c0,0,0,0,0,0c-0.1-0.1-0.2-0.2-0.3-0.4c-0.2-0.2-0.4-0.4-0.6-0.5
						c-1-0.9-2.2-1.4-3.4-1.4c-1.2,0-2.3,0.4-3.2,1.4c-1.8,1.9-2.3,4.9-2.3,7.5c0,2.7,0.5,5.9,2.6,7.5c0.8,0.7,1.9,1.1,2.9,1.1
						c0.8,0,1.7-0.3,2.5-0.6c0.2-0.1,0.5-0.2,0.7-0.3c0.3-0.1,0.5-0.1,0.8,0c0.2,0.1,0.5,0.3,0.6,0.5c0.2,0.2,0.3,0.5,0.3,0.8
						c0,0.3,0,0.6-0.1,0.9c0,0.1-0.1,0.1-0.1,0.2l0.5,0.8c1.7,3.2,3.5,6.3,5.9,9.1c1.3,1.6,2.8,3.1,4.3,4.4l0.2,0.2
						c0.1,0.1,0.3,0.2,0.4,0.4c0.5,0.4,1,1,1.5,1c0.2,0,0.3,0,0.4,0c0.3,0,0.5-0.1,0.8,0.1c0.2,0.1,0.4,0.3,0.6,0.6
						c0.1,0.2,0.2,0.5,0.2,0.8c0,0.3-0.1,0.6-0.2,0.8c-0.3,0.5-0.6,0.8-0.9,0.9c-0.4,0.2-0.8,0.2-1.3,0.1c-1.1-0.2-2.3-1.2-3.1-1.9
						l-0.1-0.1c-1.7-1.5-3.3-3.1-4.8-4.9c-2.4-3.1-4.6-6.7-5.7-10.6c-0.8,0.6-1.8,0.9-2.8,0.9c-1.5,0.1-3.1-0.4-4.2-1
						c-2.6-1.4-4.1-3.9-4.8-6.8c-0.8-3.4-0.6-7.3,0.5-10.4c0-0.1,0.1-0.2,0.1-0.3c-3.3-9.3-4.3-19.6-4-29.6
						c0.1-4.6,0.4-9.5,1.4-14.1c0.4-2,1.2-4,2.4-5.6c0.7-0.9,1.6-1.6,2.4-2.3c0.7-0.6,1.5-1.2,2.1-2l0.3-0.4
						c0.1-0.1,0.1-0.2,0.2-0.2c1.1-1.3,2.1-2.6,3.5-3.7c1.5-1.3,3.2-2.3,5-3.1c3.8-1.8,7.8-2.8,11.8-3.7c8.7-1.8,17.6-1.9,26.2,0.6
						c4,1.2,7.9,2.8,11.7,4.3c0.4,0.1,0.7,0.3,1.1,0.4c3,1.2,6,2.5,9,3.7c1.4,0.6,2.8,1.1,4.2,1.7c0.3,0.1,0.6,0.4,0.8,0.7
						c0.2,0.3,0.2,0.7,0.1,1.1c-0.9,2.4-1.9,4.7-3.3,6.8c0.5,0.3,0.8,0.8,1.1,1.3c0.4,0.7,0.6,1.5,0.6,2.4c0,2.9-2.3,4.8-4.2,6.2
						c-0.2,0.1-0.4,0.2-0.5,0.2c1.9,8,3.7,16.1,5.2,24.2l0.1,0.6c1.6,8.5,2.6,17.2,1.1,25.8c-1.3,7.4-4.3,14.6-8.9,20.1
						C-6241.9-4074.9-6248.1-4071.5-6254.7-4070.7z M-6295.5-4119.6c-0.8-2.9-1.2-6-0.9-8.9c0.2-1.8,0.7-3.6,1.5-5.2
						c0.5-0.9,1-1.8,1.6-2.6l0.2-0.3c0.1-0.1,0.2-0.3,0.2-0.4c0-0.1,0-0.2-0.1-0.3c-0.1-0.3-0.3-0.5-0.5-0.8
						c-0.1-0.2-0.2-0.3-0.3-0.5c-1.8-2.7-3.1-5.9-2.7-9.3c0.4-3.3,2.4-6.4,4.5-8.8c4.6-5.1,11.7-6.3,17.9-6
						c3.6,0.2,7.2,0.9,10.7,2.1c1.7,0.6,3.4,1.4,5,2.2l0.4,0.2c0.2,0.1,0.4,0.2,0.6,0.3c1.3,0.7,2.5,1.4,3.9,1.8
						c2.7,0.7,4.5-0.8,6.4-2.4c0.7-0.5,1.3-1.1,2-1.6l0.1-0.1c1.3-0.8,2.8-1.4,4.3-1.4c1.3,0,2.5,0.5,3.5,1.5
						c0.2,0.2,0.3,0.5,0.4,0.7c0.1,0.2,0.2,0.4,0.3,0.6c0.4,1.5,0.7,3,1.1,4.5l0.3-0.2c0.9-0.6,1.8-1.3,2.2-2.4
						c0.2-0.4,0.1-1.1-0.1-1.6c-0.1-0.2-0.2-0.3-0.3-0.4c-0.1-0.1-0.2-0.1-0.3-0.1c-0.3,0-0.6,0-0.9-0.1c-0.3-0.1-0.5-0.4-0.7-0.6
						c-0.2-0.3-0.2-0.6-0.2-0.9c0-0.3,0.1-0.6,0.4-0.9c1.5-1.9,2.7-4,3.6-6.2l-6.2-2.6c-2.2-0.9-4.4-1.8-6.6-2.7l-1.2-0.5
						c-4-1.6-8.1-3.3-12.3-4.3c-8.3-2.1-17-1.6-25.3,0.4l-0.5,0.1c-3.5,0.8-7,1.9-10.2,3.7c-1.6,0.9-3.1,1.9-4.3,3.3
						c-0.6,0.6-1.1,1.2-1.6,1.9c-0.7,0.9-1.4,1.8-2.3,2.6l-0.8,0.7c-1.2,1.1-2.2,2.1-2.9,3.7c-0.7,1.7-1,3.6-1.3,5.5
						c-0.7,4.7-1,9.4-0.9,14.1c0,7.9,1.1,15.7,2.5,23.4c1.1-1.7,2.6-3.1,4.6-3.4c1.3-0.2,2.6,0.1,3.7,0.7
						C-6296.6-4120.7-6296-4120.2-6295.5-4119.6z M-6297.6-4110.2c-1.4-0.6-2.9-0.8-4.5-0.5c-0.2,0-0.3,0-0.4-0.1
						c-0.1-0.1-0.2-0.2-0.3-0.4c-0.1-0.2-0.1-0.4,0-0.5c0-0.1,0.1-0.3,0.3-0.4c1.6-0.9,3.5-1.3,5.3-1l0.2,0c0.9,0.2,2.2,0.5,3.2,1.1
						c0.8,0.5,1.3,1.2,1.5,2.1c0.1,0.5,0,1-0.3,1.3c-0.2,0.3-0.6,0.6-1.1,0.6c-0.8,0-1.3-0.4-1.9-0.9c-0.1-0.1-0.1-0.1-0.2-0.2
						C-6296.3-4109.6-6296.9-4110-6297.6-4110.2z"/>
				</g>
			</g>
		</g>
	</g>
	<g id="Smile.svg1" transform="matrix(0.296723,0,0,0.265755,2023.8,1231.37)" class="st2">
		<g transform="matrix(1,0,0,1,-144.5,-146.5)" class="st3">
			<g id="face-Smile1">
				<path id="_xD83D__xDD8D_-Ink27" class="st0" d="M-6527.5-4372c-1.4-0.7-2.7-1.8-3.7-3.2c-0.3-0.5-0.4-1-0.3-1.5
					c0.1-0.5,0.4-1,0.7-1.3c0.4-0.3,0.9-0.5,1.3-0.4c0.4,0.1,0.8,0.3,1.1,0.8l0.1,0.1c0.6,0.8,1.3,1.5,2.1,2
					c0.8,0.4,1.7,0.6,2.6,0.5c1.8-0.2,3-1.3,4.3-2.7c0.2-0.2,0.3-0.4,0.5-0.6c0.1-0.2,0.2-0.3,0.4-0.3c0.2-0.1,0.4-0.1,0.6,0
					c0.2,0.1,0.3,0.2,0.4,0.4c0.1,0.2,0.2,0.4,0.1,0.6c-0.1,1.5-0.8,2.8-1.8,3.9c-1.1,1.2-2.6,2-4,2.3
					C-6524.5-4371.2-6526.1-4371.4-6527.5-4372z M-6522.3-4395.2c1.6,1.1,4.1,3.7,2.4,6.4c-2.1,2.4-5-0.4-6.5-1.6
					c-1.4-1-2.9,1.5-1.6,2.7c10.5,8.7,14.8-7.2,6.6-8.8C-6522.4-4396.7-6522.7-4395.6-6522.3-4395.2z M-6541.2-4405.4
					c0.2-2.5,3.6-3.1,3.9-0.6c0.3,2.2-0.1,4.2-0.9,6.2c-0.9,1.9-3,1-3.1-0.7C-6541.6-4402.8-6541.3-4403.8-6541.2-4405.4z
					 M-6515.3-4406.5c0.5-0.7,1.2-1.2,2-0.9c2.6,0.8,1.8,4.9,0.9,6.9c-0.5,1.1-2.1,1.3-2.8,0.4c-1.2-1.5-1.7-4.6-0.2-6.1
					C-6515.4-4406.3-6515.4-4406.4-6515.3-4406.5z M-6538.2-4416.3l0.4-0.1c1.2-0.2,2.8-0.5,3.7,0.6c0.5,0.6,0.6,1.7,0,2.3
					c-1.1,1-2.3,0.6-3.7,0.7c-1.1,0.1-2.1,0.3-3.2,0.6c-2.3,0.7-4.2,2.1-6.2,3.6c-0.3,0.2-0.5-0.2-0.4-0.4c1.1-2.5,3.4-4.5,5.6-5.8
					C-6540.8-4415.5-6539.5-4416-6538.2-4416.3z M-6517.7-4417.4l0.3,0.1c3.4,0.8,7.7,2.4,9.3,6c0.1,0.5,0,0.6-0.1,0.7l0,0
					c0,0.1-0.1,0.1-0.3,0.2c-0.1,0-0.1,0-0.2,0c-0.7-0.2-1.3-0.5-1.9-0.8l-0.6-0.3c-0.7-0.4-1.4-0.8-2.2-1c-1.6-0.6-3.3-1-4.9-1.2
					c-0.4,0-0.7-0.2-1-0.4c-0.3-0.2-0.5-0.5-0.6-0.9c-0.1-0.5-0.1-0.9,0.2-1.4c0.2-0.4,0.5-0.6,0.8-0.8
					C-6518.4-4417.4-6518-4417.5-6517.7-4417.4z"/>
			</g>
		</g>
	</g>
</g>
<g class="st2">
	<g transform="matrix(0.4441,0,0,0.39775,-345.369,-236.477)" class="st3">
		<g id="Gray-Short.svg" transform="matrix(0.681216,0,0,0.681216,1361.69,1133.76)">
			<g transform="matrix(1,0,0,1,-236.5,-283.5)">
				<g id="head-mono-Gray-Short">
					<path id="_xD83D__xDD8D_-Ink" class="st4" d="M-473.8-374.7c-6.3,0.7-13.7-0.9-17.9-6.6c-0.1-0.2-0.2-0.4-0.2-0.5
						c0-0.2,0.1-0.4,0.2-0.6c0.1-0.2,0.3-0.3,0.5-0.3c0.2,0,0.3,0,0.5,0.1l0.4,0.2c2.9,1.8,5.8,3.3,9.1,3.9c3.3,0.7,6.7,0.6,10-0.2
						c6-1.5,10.9-5.4,14.5-10.6c4-5.8,6.4-13,7-20.4c0.7-8.9-1-17.6-2.8-26.2c-1.9-9-3.9-18-6.3-26.8c-0.1-0.3-0.1-0.5-0.1-0.8
						c-0.7-0.3-1.5-0.2-2.2,0.1c-1.4,0.5-2.7,1.7-3.8,2.6c-0.4,0.3-0.8,0.7-1.1,0.9c-1.4,1.1-2.9,1.8-4.6,2
						c-1.8,0.1-3.5-0.5-5.1-1.3c-0.8-0.4-1.6-0.8-2.4-1.2c-2.3-1.1-4.5-2.3-7-3c-3.3-1-6.7-1.5-10.2-1.5c-6.1,0.1-12.3,1.8-16,7.6
						c-1.5,2.3-2.5,5-1.7,7.9c0.4,1.6,1.2,3,2.1,4.3l0.3,0.5c0.5,0.7,0.9,1.4,1,2.2c0.1,0.6,0,1.3-0.4,2.1c-0.3,0.5-0.6,0.9-0.9,1.3
						c-0.2,0.3-0.5,0.6-0.7,0.9c-0.4,0.6-0.8,1.4-1.1,2.1c-0.6,1.4-0.8,3-0.8,4.5c-0.1,1.9,0.2,3.7,0.4,5.6c0.2,1.3,0.3,2.6,0.4,3.9
						c0,0.2,0,0.4-0.1,0.5c-0.1,0.2-0.3,0.2-0.5,0.3c0,0-0.1,0-0.2,0c0,0.1,0,0.2,0.1,0.4c-0.1-0.2-0.2-0.3-0.4-0.5c0,0,0,0,0,0
						c-0.1-0.1-0.2-0.2-0.3-0.4c-0.2-0.2-0.4-0.4-0.6-0.5c-1-0.9-2.3-1.4-3.5-1.4c-1.2,0-2.4,0.4-3.3,1.4c-1.8,1.9-2.3,5-2.4,7.6
						c0,2.7,0.5,5.9,2.6,7.6c0.8,0.7,1.9,1.1,2.9,1.1c0.9,0,1.7-0.3,2.5-0.6c0.2-0.1,0.5-0.2,0.8-0.3c0.3-0.1,0.5-0.1,0.8,0
						c0.2,0.1,0.5,0.3,0.6,0.5c0.2,0.2,0.3,0.5,0.3,0.8c0,0.3,0,0.6-0.1,0.9c0,0.1-0.1,0.1-0.1,0.2l0.5,0.9c1.8,3.2,3.6,6.4,5.9,9.2
						c1.4,1.6,2.8,3.1,4.4,4.4l0.2,0.2c0.1,0.1,0.3,0.2,0.5,0.4c0.5,0.4,1,1,1.5,1c0.1,0,0.3,0,0.4,0c0.3,0,0.5-0.1,0.8,0
						c0.2,0.1,0.4,0.2,0.6,0.6c0.1,0.2,0.2,0.5,0.2,0.8c0,0.3-0.1,0.6-0.2,0.8c-0.3,0.5-0.6,0.8-0.9,1c-0.4,0.2-0.8,0.2-1.3,0.1
						c-1.1-0.2-2.3-1.3-3.1-1.9l-0.1-0.1c-1.7-1.5-3.4-3.1-4.8-4.9c-2.5-3.1-4.7-6.8-5.8-10.8c-0.8,0.6-1.8,0.9-2.8,0.9
						c-1.5,0.1-3.1-0.4-4.3-1c-2.6-1.4-4.2-4-4.9-6.9c-0.8-3.5-0.6-7.4,0.5-10.5c0-0.1,0.1-0.2,0.1-0.3c-3.3-9.4-4.3-19.9-4.1-29.9
						c0.1-4.7,0.4-9.6,1.4-14.2c0.5-2.1,1.2-4,2.5-5.6c0.7-0.9,1.6-1.6,2.4-2.4c0.8-0.6,1.5-1.2,2.1-2l0.3-0.4
						c0.1-0.1,0.1-0.2,0.2-0.2c1.1-1.4,2.2-2.7,3.5-3.8c1.5-1.3,3.2-2.3,5-3.1c3.8-1.8,7.9-2.9,12-3.7c8.8-1.8,17.8-1.9,26.5,0.6
						c4,1.2,8,2.8,11.9,4.4c0.4,0.1,0.7,0.3,1.1,0.5c3,1.2,6.1,2.5,9.1,3.7c1.4,0.6,2.8,1.2,4.2,1.7c0.3,0.1,0.6,0.4,0.8,0.7
						c0.2,0.3,0.2,0.7,0.1,1.1c-0.9,2.5-2,4.8-3.3,6.9c0.5,0.4,0.9,0.8,1.1,1.4c0.4,0.7,0.6,1.5,0.6,2.4c0,2.9-2.3,4.9-4.3,6.3
						c-0.2,0.1-0.4,0.2-0.5,0.2c1.9,8.1,3.7,16.3,5.3,24.5l0.1,0.6c1.6,8.6,2.6,17.4,1.1,26.1c-1.3,7.5-4.3,14.8-9,20.4
						C-460.9-378.9-467.1-375.4-473.8-374.7z M-515.2-424.2c-0.8-2.9-1.3-6.1-0.9-9c0.2-1.9,0.7-3.6,1.5-5.3c0.5-0.9,1-1.8,1.7-2.6
						l0.2-0.3c0.1-0.1,0.2-0.3,0.2-0.4c0-0.1,0-0.2,0-0.3c-0.1-0.3-0.3-0.5-0.5-0.8c-0.1-0.2-0.2-0.3-0.3-0.5
						c-1.8-2.7-3.2-6-2.7-9.4c0.4-3.4,2.4-6.5,4.5-8.9c4.6-5.2,11.8-6.4,18.1-6.1c3.7,0.2,7.3,0.9,10.8,2.1c1.7,0.6,3.4,1.4,5,2.2
						l0.4,0.2c0.2,0.1,0.4,0.2,0.6,0.3c1.3,0.7,2.6,1.4,4,1.8c2.7,0.7,4.5-0.8,6.5-2.4c0.7-0.5,1.3-1.1,2-1.6l0.1-0.1
						c1.3-0.8,2.8-1.4,4.3-1.4c1.3,0,2.5,0.5,3.5,1.6c0.2,0.2,0.3,0.5,0.4,0.7c0.1,0.2,0.2,0.4,0.3,0.6c0.4,1.5,0.7,3,1.1,4.5
						l0.3-0.2c0.9-0.6,1.8-1.4,2.2-2.4c0.2-0.4,0.1-1.1-0.1-1.6c-0.1-0.2-0.2-0.3-0.3-0.4c-0.1-0.1-0.2-0.1-0.4-0.1
						c-0.3,0-0.6,0-0.9-0.1c-0.3-0.1-0.5-0.4-0.7-0.6c-0.2-0.3-0.2-0.6-0.2-1c0-0.3,0.1-0.6,0.4-0.9c1.5-1.9,2.7-4,3.7-6.3l-6.3-2.6
						c-2.2-0.9-4.5-1.9-6.7-2.8l-1.2-0.5c-4.1-1.7-8.2-3.3-12.4-4.4c-8.4-2.1-17.2-1.6-25.6,0.4l-0.5,0.1c-3.5,0.9-7.1,1.9-10.3,3.7
						c-1.6,0.9-3.1,2-4.4,3.3c-0.6,0.6-1.1,1.3-1.6,1.9c-0.7,0.9-1.5,1.8-2.3,2.6l-0.8,0.7c-1.2,1.1-2.3,2.1-2.9,3.8
						c-0.7,1.7-1,3.7-1.3,5.5c-0.7,4.7-1,9.5-0.9,14.3c0,8,1.1,15.9,2.5,23.7c1.1-1.8,2.7-3.1,4.7-3.4c1.3-0.2,2.6,0.1,3.7,0.7
						C-516.2-425.3-515.7-424.8-515.2-424.2z M-517.2-414.7c-1.5-0.6-3-0.8-4.5-0.5c-0.2,0-0.3,0-0.4-0.1c-0.1-0.1-0.2-0.2-0.3-0.4
						c-0.1-0.2-0.1-0.4,0-0.5c0-0.1,0.1-0.3,0.3-0.4c1.7-0.9,3.5-1.3,5.4-1l0.2,0c0.9,0.2,2.3,0.5,3.3,1.1c0.8,0.5,1.3,1.2,1.5,2.1
						c0.1,0.5,0,1-0.3,1.3c-0.2,0.4-0.6,0.6-1.1,0.6c-0.8,0-1.3-0.4-1.9-0.9c-0.1-0.1-0.2-0.1-0.2-0.2
						C-516-414-516.6-414.4-517.2-414.7z"/>
				</g>
			</g>
		</g>
		<g id="Eyes-Closed.svg" transform="matrix(0.734096,0,0,0.734096,1398.38,1156.31)">
			<g transform="matrix(1,0,0,1,-144.5,-146.5)">
				<g id="face-Eyes-Closed">
					<path id="_xD83D__xDD8D_-Ink1" class="st4" d="M-558.4-520.4l0.2,0c1.2-0.3,2.4-0.8,3.5,0.1c1.1,0.8,1.2,2.3,0.4,3.3
						c-0.9,1.1-2,1-3.2,1h-0.1c-1,0-2,0-3-0.1c-0.9-0.1-1.9-0.2-2.8-0.4l-0.5-0.1c-0.5-0.1-1.1-0.3-1.4-0.9c-0.5-1,3.2-1.9,3.6-2
						C-560.6-519.9-559.5-520.1-558.4-520.4z M-556.3-533c-0.6,0.7-1.4,1.2-2.2,1.4c-2.2,0.7-5,0.3-6.8-0.4
						c-0.4-0.2-0.7-0.5-0.9-0.9c-0.2-0.4-0.2-0.8-0.1-1.2c0-0.1,0.1-0.2,0.1-0.4c0.1-0.3,0.4-0.6,0.7-0.7c0.3-0.2,0.7-0.2,1-0.1
						c0,0,0.1,0,0.1,0c1.1,0.4,3,1.1,4.5,0.9c0.9-0.1,1.7-0.4,2.2-1.4c0.2-0.5,0.2-1,0-1.4c-0.3-0.7-0.9-1.3-1.4-1.7
						c-0.7-0.6-1.5-0.8-2.2-1c-0.3-0.1-0.6-0.2-0.9-0.3c-0.1,0-0.2-0.1-0.2-0.2s-0.1-0.2-0.1-0.3s0-0.2,0-0.3c0-0.1,0.1-0.2,0.2-0.2
						c1.5-0.8,3.5-0.3,5,0.9c0.7,0.6,1.4,1.4,1.7,2.2c0.3,0.8,0.5,1.7,0.4,2.6C-555.4-534.4-555.8-533.6-556.3-533z M-581.3-550
						c0.4-0.2,0.8,0.8,0.9,1l0.2,0.6c0.3,0.9,0.6,1.8,1.3,2.5c0.5,0.6,1.4,1,2,0.4c0.6-0.6,0.3-1.3,0.4-2.1c0.2-1.4,1.8-2.8,2.8-1.3
						c2.3,3.2-1.2,7.8-4.5,7c-1.7-0.4-3-1.9-3.5-3.6l0-0.1C-582.2-546.8-582.5-549.3-581.3-550z M-551.9-547.7L-551.9-547.7
						c-1.1-2.8,2.8-4,3.1-1.5l0,0.2c0.3,2.8-0.3,6.5-3.4,6.7c-3.4,0.3-4.8-3.9-4.5-7c0-0.5,0.7-0.6,0.8-0.1l0,0.1
						c0.5,1.6,1.1,4.5,3,4.5C-551.4-544.8-551.5-546.7-551.9-547.7z M-549.4-555.7c2-0.1,1.9,3.3,0,3.4c-6.5,0.2-13,0.4-19.5,0.4
						l-1.2,0c-6.1,0-12.2,0.1-18.3-0.4c-0.5,0-0.4-0.9,0-0.8c6.4-1,12.8-1.3,19.3-1.7C-562.5-555.2-556-555.4-549.4-555.7z"/>
				</g>
			</g>
		</g>
	</g>
</g>
</svg>
