<?xml version="1.0" encoding="utf-8"?>
<!-- Generator: Adobe Illustrator 24.2.0, SVG Export Plug-In . SVG Version: 6.00 Build 0)  -->
<svg version="1.1" id="图层_1" xmlns="http://www.w3.org/2000/svg" xmlns:xlink="http://www.w3.org/1999/xlink" x="0px" y="0px"
	 viewBox="0 0 85 85" style="enable-background:new 0 0 85 85;" xml:space="preserve">
<style type="text/css">
	.st0{display:none;}
	.st1{display:inline;}
	.st2{fill-rule:evenodd;clip-rule:evenodd;fill:#FFFFFF;}
	.st3{fill-rule:evenodd;clip-rule:evenodd;}
	.st4{fill-rule:evenodd;clip-rule:evenodd;fill:#040000;}
</style>
<g transform="matrix(1,0,0,1,-261.086,-19.0106)">
	<g id="Gray-Short.svg2" transform="matrix(0.302528,0,0,0.270954,708.623,648.318)" class="st0">
		<g transform="matrix(1,0,0,1,-236.5,-283.5)" class="st1">
			<g id="head-mono-Gray-Short2">
				<path class="st2" d="M-1147.9-1954.1c0,0-4.7,20.6,9.3,14.6c0,0,7.8,20.2,14.4,18.2c0,0,5.2,4.7,9.4,5.1c0,0,20.7,21.2,38-11.6
					c6.9-13,2.6-41.6-0.4-52.2c-1.3-4.6-1.5-9.4-1.7-10.7c0,0,8.9-6.2,2.4-9.2c0,0,4.7-7.2,3.8-7.9c-0.9-0.6-31-15.3-45.9-12.1
					c-15,3.3-22.1,5.3-27,12.6c-4.9,7.3-5,3.3-5.9,10.4C-1152.4-1989.7-1154.5-1958.2-1147.9-1954.1z"/>
				<path id="_xD83D__xDD8D_-Ink6" class="st3" d="M-1097.9-1908.6c-6.3,0.7-13.7-0.9-17.9-6.6c-0.1-0.2-0.2-0.4-0.2-0.6
					c0-0.2,0.1-0.4,0.2-0.6c0.1-0.2,0.3-0.3,0.5-0.3c0.2,0,0.3,0,0.5,0.1l0.4,0.2c2.9,1.8,5.8,3.3,9.1,3.9c3.3,0.7,6.7,0.6,10-0.3
					c6-1.5,10.9-5.4,14.5-10.6c4-5.8,6.4-13.1,7-20.4c0.7-8.8-1-17.6-2.8-26.2c-1.9-9-3.9-18-6.3-26.8c-0.1-0.3-0.1-0.5-0.1-0.7
					c-0.7-0.3-1.4-0.2-2.2,0.1c-1.4,0.5-2.7,1.7-3.8,2.6c-0.4,0.3-0.8,0.7-1.1,0.9c-1.4,1.1-2.9,1.8-4.6,2c-1.8,0.1-3.5-0.5-5.1-1.3
					c-0.8-0.4-1.6-0.8-2.4-1.2c-2.3-1.2-4.6-2.3-7-3c-3.3-1-6.7-1.5-10.2-1.5c-6.1,0.1-12.3,1.8-16,7.6c-1.5,2.3-2.5,5-1.7,7.9
					c0.4,1.6,1.2,3,2.1,4.3l0.3,0.4c0.5,0.7,0.9,1.4,1,2.2c0.1,0.6,0,1.3-0.4,2.1c-0.3,0.5-0.6,0.9-0.9,1.3
					c-0.2,0.3-0.5,0.6-0.7,0.9c-0.4,0.7-0.8,1.4-1.1,2.1c-0.6,1.4-0.8,3-0.9,4.5c-0.1,1.9,0.2,3.7,0.4,5.6c0.2,1.3,0.3,2.6,0.4,3.9
					c0,0.2-0.1,0.4-0.1,0.5c-0.1,0.2-0.3,0.3-0.4,0.3c-0.1,0-0.1,0-0.2,0c0,0.1,0.1,0.3,0.1,0.4c-0.1-0.2-0.2-0.3-0.4-0.5
					c0,0,0,0,0,0c-0.1-0.1-0.2-0.2-0.3-0.4c-0.2-0.2-0.4-0.4-0.6-0.5c-1-0.9-2.3-1.4-3.5-1.4c-1.2,0-2.4,0.4-3.3,1.4
					c-1.8,1.9-2.3,5-2.4,7.6c0,2.7,0.5,5.9,2.6,7.6c0.8,0.7,1.9,1.1,2.9,1.1c0.9,0,1.7-0.3,2.5-0.7c0.2-0.1,0.5-0.2,0.7-0.3
					c0.3-0.1,0.5-0.1,0.8,0c0.3,0.1,0.5,0.3,0.6,0.5c0.2,0.2,0.3,0.5,0.3,0.8c0,0.3,0,0.6-0.1,0.9c0,0.1-0.1,0.1-0.1,0.2l0.5,0.8
					c1.8,3.2,3.6,6.4,5.9,9.2c1.4,1.6,2.8,3.1,4.4,4.4l0.2,0.2c0.1,0.1,0.3,0.2,0.4,0.4c0.5,0.4,1,1,1.5,1c0.2,0,0.3,0,0.4,0
					c0.3,0,0.5-0.1,0.8,0.1c0.2,0.1,0.4,0.3,0.6,0.6c0.1,0.2,0.2,0.5,0.2,0.8c0,0.3-0.1,0.6-0.2,0.8c-0.3,0.5-0.6,0.8-0.9,1
					c-0.4,0.2-0.8,0.2-1.3,0.1c-1.1-0.2-2.3-1.3-3.1-1.9l-0.2-0.1c-1.7-1.5-3.4-3.1-4.8-4.9c-2.5-3.1-4.7-6.8-5.8-10.8
					c-0.8,0.6-1.8,0.9-2.8,0.9c-1.5,0.1-3.1-0.4-4.3-1c-2.6-1.4-4.2-4-4.9-6.9c-0.9-3.5-0.6-7.4,0.5-10.5c0-0.1,0.1-0.2,0.1-0.3
					c-3.3-9.4-4.4-19.9-4.1-29.9c0.1-4.7,0.4-9.6,1.4-14.2c0.4-2.1,1.2-4,2.5-5.6c0.7-0.9,1.6-1.6,2.4-2.4c0.8-0.6,1.5-1.2,2.1-2
					l0.3-0.4c0.1-0.1,0.1-0.2,0.2-0.2c1.1-1.4,2.2-2.7,3.5-3.8c1.5-1.3,3.2-2.3,5-3.1c3.8-1.8,7.9-2.9,12-3.7
					c8.8-1.8,17.8-1.9,26.5,0.6c4,1.2,8,2.8,11.9,4.4c0.4,0.1,0.7,0.3,1.1,0.4c3,1.2,6.1,2.5,9.1,3.7c1.4,0.6,2.8,1.2,4.2,1.7
					c0.3,0.1,0.6,0.4,0.8,0.7c0.2,0.3,0.2,0.7,0.1,1.1c-0.9,2.5-2,4.8-3.3,6.9c0.5,0.4,0.9,0.8,1.2,1.4c0.4,0.7,0.6,1.5,0.6,2.4
					c0.1,2.9-2.3,4.9-4.3,6.3c-0.2,0.1-0.4,0.2-0.5,0.2c1.9,8.1,3.7,16.3,5.3,24.5l0.1,0.6c1.6,8.6,2.6,17.4,1.1,26.1
					c-1.3,7.5-4.3,14.8-9,20.4C-1084.9-1912.8-1091.1-1909.4-1097.9-1908.6z M-1139.2-1958.2c-0.8-2.9-1.3-6.1-0.9-9
					c0.2-1.9,0.7-3.6,1.5-5.3c0.5-0.9,1-1.8,1.7-2.6l0.2-0.3c0.1-0.1,0.2-0.3,0.2-0.4c0-0.1,0-0.2-0.1-0.3c-0.1-0.3-0.3-0.5-0.5-0.8
					c-0.1-0.2-0.2-0.3-0.3-0.5c-1.8-2.7-3.1-6-2.7-9.4c0.4-3.4,2.4-6.5,4.5-8.9c4.6-5.2,11.8-6.4,18.1-6.1c3.7,0.2,7.3,0.9,10.8,2.1
					c1.7,0.6,3.4,1.4,5,2.2l0.4,0.2c0.2,0.1,0.4,0.2,0.6,0.3c1.3,0.7,2.6,1.4,4,1.8c2.7,0.7,4.5-0.8,6.5-2.4c0.7-0.5,1.3-1.1,2-1.6
					l0.1-0.1c1.3-0.8,2.8-1.4,4.3-1.4c1.3,0,2.5,0.5,3.5,1.6c0.2,0.2,0.3,0.5,0.4,0.7c0.1,0.2,0.2,0.4,0.3,0.6
					c0.4,1.5,0.7,3,1.1,4.6l0.3-0.2c0.9-0.6,1.8-1.4,2.2-2.4c0.2-0.4,0.1-1.1-0.1-1.6c-0.1-0.2-0.2-0.3-0.3-0.4
					c-0.1-0.1-0.2-0.1-0.3-0.1c-0.3,0-0.6,0-0.9-0.1c-0.3-0.1-0.5-0.4-0.7-0.6c-0.2-0.3-0.2-0.6-0.2-1c0-0.3,0.1-0.6,0.4-0.9
					c1.5-1.9,2.7-4,3.7-6.3l-6.3-2.6c-2.2-0.9-4.5-1.8-6.7-2.8l-1.2-0.5c-4.1-1.7-8.2-3.3-12.4-4.4c-8.4-2.1-17.2-1.6-25.6,0.4
					l-0.5,0.1c-3.5,0.9-7.1,1.9-10.3,3.7c-1.6,0.9-3.1,2-4.4,3.3c-0.6,0.6-1.1,1.3-1.6,1.9c-0.7,0.9-1.5,1.8-2.3,2.6l-0.8,0.7
					c-1.2,1.1-2.3,2.1-2.9,3.8c-0.7,1.7-1,3.7-1.3,5.5c-0.7,4.7-1,9.5-0.9,14.3c0,8,1.1,15.9,2.5,23.7c1.1-1.8,2.7-3.1,4.7-3.4
					c1.3-0.2,2.6,0.1,3.7,0.7C-1140.3-1959.3-1139.7-1958.8-1139.2-1958.2z M-1141.3-1948.7c-1.5-0.6-3-0.8-4.5-0.5
					c-0.2,0-0.3,0-0.4-0.1c-0.1-0.1-0.2-0.2-0.3-0.4c-0.1-0.2-0.1-0.4,0-0.5c0-0.1,0.1-0.3,0.3-0.4c1.7-0.9,3.5-1.3,5.4-1l0.2,0
					c0.9,0.2,2.3,0.5,3.3,1.1c0.8,0.5,1.3,1.2,1.5,2.1c0.1,0.5,0,1-0.3,1.3c-0.2,0.3-0.6,0.6-1.1,0.6c-0.8,0-1.3-0.4-1.9-0.9
					c-0.1-0.1-0.1-0.1-0.2-0.2C-1140-1948-1140.6-1948.4-1141.3-1948.7z"/>
			</g>
		</g>
	</g>
	<g id="Calm.svg1" transform="matrix(0.319302,0,0,0.285977,721.962,663.715)" class="st0">
		<g transform="matrix(1,0,0,1,-144.5,-146.5)" class="st1">
			<g id="face-Calm1">
				<path id="_xD83D__xDD8D_-Ink7" class="st3" d="M-1159.8-2001.8c-1.6,0.5-3.3,0.6-5,0c-1.5-0.5-3-1.6-4.1-3
					c-1-1.3-1.6-2.8-1.6-4.4c0-0.2,0.1-0.3,0.2-0.5c0.1-0.1,0.2-0.2,0.4-0.3c0.2,0,0.3,0,0.4,0c0.1,0.1,0.2,0.2,0.3,0.3
					c0.2,0.2,0.3,0.5,0.5,0.7c1.3,1.9,2.7,3.3,4.7,3.8c1.1,0.3,2.2,0.2,3.2-0.3c1.1-0.4,2.1-1.2,2.8-2.2c0.3-0.4,0.8-0.6,1.2-0.6
					c0.5,0,0.9,0.2,1.2,0.6c0.3,0.4,0.6,0.9,0.6,1.4c0,0.5-0.1,0.9-0.5,1.4C-1156.6-2003.3-1158.2-2002.3-1159.8-2001.8z
					 M-1159.9-2025.1c1.6,1.1,4.2,3.7,2.4,6.5c-2.1,2.4-5.1-0.4-6.6-1.6c-1.4-1-2.9,1.5-1.6,2.7c10.7,8.8,15-7.3,6.7-8.9
					C-1160-2026.6-1160.3-2025.4-1159.9-2025.1z M-1175.3-2030c-0.5-0.4-1.2-0.5-1.8-0.2c-0.5,0.3-1.5,1.2-2.1,2.4
					c-0.4,0.8-0.8,1.8-0.7,2.8c0,0.2-0.1,0.4-0.2,0.5c-0.1,0.1-0.2,0.2-0.4,0.2c-0.1,0-0.3,0-0.4,0c-0.2-0.1-0.4-0.3-0.4-0.4
					c-0.5-1.4-0.3-2.9,0.3-4.3c0.7-1.9,2-3.4,2.8-3.9c1.4-0.9,3.1-0.9,4.5,0c1.2,0.7,2,1.9,2.7,3.2c0.2,0.3,0.3,0.5,0.5,0.8
					c0.3,0.5,0.4,1,0.2,1.4c-0.1,0.5-0.5,0.9-0.9,1.1c-0.4,0.2-0.9,0.2-1.3,0c-0.4-0.2-0.7-0.5-0.9-1.1
					C-1173.9-2028.4-1174.5-2029.4-1175.3-2030z M-1148.4-2027.9c-0.4,0.2-0.6,0.3-1,0.1c-0.2-0.1-0.4-0.2-0.6-0.4
					c-0.2-0.2-0.3-0.4-0.3-0.7c-0.1-0.6-0.4-1.3-0.9-1.6c-0.4-0.3-0.9-0.5-1.4-0.4c-0.6,0.1-1.1,0.5-1.5,1c-0.1,0.2-0.2,0.4-0.3,0.5
					c-0.2,0.3-0.4,0.7-0.6,0.9c-0.1,0.1-0.2,0.2-0.4,0.2c-0.1,0-0.1,0-0.2,0c-0.6-0.7-0.7-1.1-0.7-1.6c0-0.5,0.2-1,0.5-1.5
					c0.7-1.1,2-2.1,2.9-2.3c1.2-0.3,2.4,0.1,3.4,0.8c1,0.8,1.7,2,2,3.3c0.1,0.3,0,0.7-0.1,1
					C-1147.9-2028.3-1148.1-2028.1-1148.4-2027.9z M-1172.6-2042.1c-0.7,0.8-1.6,0.9-2.4,1c-0.5,0.1-0.9,0.1-1.2,0.2
					c-1,0.3-2.1,0.7-3,1.2c-1,0.6-2.1,1.3-2.8,2.2c-0.2,0.2-0.4,0.4-0.5,0.7c-0.2,0.2-0.3,0.4-0.5,0.6c-0.2,0.2-0.4,0.5-0.5,0.7
					c-0.1,0.2-0.1,0.2-0.2,0.3c0,0.1-0.1,0.2-0.1,0.3c-0.1,0.1-0.1,0.3-0.2,0.4c-0.1,0.2-0.2,0.3-0.2,0.3c-0.1,0-0.2,0.1-0.3,0.1
					c-0.1,0-0.2-0.1-0.2-0.1c-0.4-0.4-0.5-0.9-0.5-1.5c0-0.9,0.3-2,0.6-2.6c0.7-1.5,1.6-3,2.7-4.1c1.2-1.2,2.6-2.2,4.2-2.8
					c1-0.4,2.1-0.8,3.2-0.7c0.8,0,1.5,0.3,2.1,0.9c0.4,0.4,0.5,0.9,0.5,1.5C-1172-2043.1-1172.2-2042.5-1172.6-2042.1z
					 M-1146.9-2034.9c0,0.1-0.1,0.1-0.2,0.2c-0.1,0-0.2,0-0.2,0c-0.1,0-0.2-0.1-0.2-0.1c-0.1-0.1-0.1-0.1-0.1-0.2
					c-0.5-2.4-1.4-4.1-3.4-5.2c-1-0.6-2.1-0.9-3.2-1.2c-0.3-0.1-0.6-0.1-1-0.2c-1-0.2-2.1-0.4-2.8-1.3c-0.4-0.6-0.6-1.3-0.5-1.9
					c0.1-0.6,0.4-1.2,1-1.5c1.5-0.8,3.3,0,4.8,0.7c0.1,0.1,0.2,0.1,0.3,0.2c1.4,0.7,2.8,1.6,3.9,2.9c0.9,1,1.7,2.5,2,4.1
					C-1146.3-2037.3-1146.3-2036-1146.9-2034.9z"/>
			</g>
		</g>
	</g>
	<g>
		<g transform="matrix(0.4441,0,0,0.39775,0,0)">
			<path class="st2" d="M647.2,83.1c0,0-3.8-13.7-10.2-5.1c-2.4,3.3-0.9,4.7,0.3,5.7c0,0-4.3,0.7-3.4,7.3c0.9,6.6,0.7,5.5,4.4,4.5
				s10.1-4.8,10.6-5.7c0,0,5.1,0.1,10.3-1c12.3-2.5,24.9-4.6,40.9-7.1c0,0,0.2-1.4,0.2-2.9c0-1.2-0.1-2.5-1.7-2.9
				c0,0-26.3,4.3-49.7,3.8C648.8,79.7,647.2,80.1,647.2,83.1z"/>
		</g>
		<g>
			<g transform="matrix(0.465404,0,0,0.396201,-37.1174,2.40486)">
				<path class="st3" d="M699.7,73.1c-0.1-0.1-0.2-0.2-0.3-0.2c-0.3,0-0.5,0.1-0.5,0.1c-0.1,0.1-0.2,0.2-0.2,0.3
					c0,0.1,0,0.3,0.1,0.4c0,0,0.2,0.1,0.5,0.2c0.8,0.1,2.7,0.3,3.1,0.3c1.4,0.1,2.8,0.1,4.3,0.1c3.4-0.1,6.9-0.5,10-0.5
					c3.3,0,6.5-0.1,9.8-0.3c3.3-0.2,6.5-0.4,9.8-0.8c1.8-0.2,3.6-0.7,5.4-1.2c0.7-0.2,1.5-0.4,2.2-0.6c0.6-0.1,1.2-0.2,1.9-0.3
					c0.3,0,0.5-0.3,0.5-0.6c0-0.3-0.2-0.6-0.5-0.5c-1,0-2,0.1-3,0.3c-2.2,0.4-4.4,1.2-6.6,1.5c-3.2,0.4-6.5,0.7-9.7,0.9
					c-3.2,0.2-6.5,0.3-9.7,0.4c-3.1,0.1-6.7,0.5-10,0.6c-1.5,0.1-2.9,0.1-4.3,0C702.1,73.2,700.6,73.2,699.7,73.1z M699.2,73.7
					C699.2,73.7,699.1,73.7,699.2,73.7C699.2,73.8,699.2,73.8,699.2,73.7z"/>
			</g>
			<g transform="matrix(0.47672,0,0,0.39775,-54.1608,-0.033415)">
				<path class="st3" d="M717.9,90.3c1.8,0.2,3.8,0,5.8-0.3c0.5-0.1,1-0.1,1.4-0.2c2.4-0.4,4.8-1.1,7-1.6c3.8-0.8,7.7-1.5,11.5-2.1
					c5.8-0.9,11.6-1.5,17.4-2.3c0.5-0.1,1-0.2,1.6-0.3c0.9-0.3,1.8-0.6,2.7-0.8c0.2-0.1,0.4-0.2,0.6-0.2c0.3,0,0.5-0.3,0.5-0.6
					c0-0.3-0.2-0.6-0.5-0.6c-0.4,0-0.7-0.1-1.1,0c-1.3,0.1-2.6,0.8-3.9,0.9c-5.8,0.8-11.6,1.5-17.4,2.5c-3.8,0.6-7.7,1.4-11.6,2.3
					c-1.8,0.4-3.8,1-5.8,1.5c-0.8,0.2-1.7,0.5-2.5,0.7c-1.9,0.4-3.8,0.5-5.6,0.3c-0.2,0-0.3,0.1-0.4,0.4
					C717.6,90.1,717.7,90.3,717.9,90.3z"/>
			</g>
			<g transform="matrix(0.908573,0,0,0.430632,-692.432,-51.4002)">
				<path class="st3" d="M1079.1,192.1L1079.1,192.1c-0.1,0-0.1,0-0.2,0.1c0,0-0.1,0.1-0.1,0.2l-0.2,0.8c-0.1,0.4-0.2,0.7-0.2,1.1
					c-0.1,0.4-0.1,0.8-0.1,1.1c-0.1,0.7-0.1,1.4-0.2,2.1c0,0.5,0,1,0,1.5c0.1,0.6,0.2,1.2,0.3,1.8c0.1,0.4,0.2,0.8,0.3,1.1
					c0.1,0.2,0.1,0.3,0.2,0.4c0,0.1,0.1,0.2,0.2,0.1c0.1-0.1,0.1-0.2,0.1-0.4c0-0.1,0-0.3,0-0.4c-0.1-1-0.4-2-0.5-3
					c0-0.4,0-0.8,0-1.2c0-0.7,0.1-1.3,0.1-2c0-0.3,0.1-0.7,0.1-1c0-0.3,0.1-0.6,0.2-1l0.2-0.7c0-0.1,0-0.2,0-0.2
					c1.8,0.5,1.4-0.6,0.2-0.7L1079.1,192.1L1079.1,192.1z"/>
			</g>
			<g transform="matrix(0.456396,0.114901,-0.137714,0.380792,194.278,-138.299)">
				<path class="st3" d="M311.7,358.5c0.1-0.1,0.1-0.2,0.1-0.3c-0.2-1.2-0.2-2.3-0.6-3.5c-0.2-0.7-0.6-1.5-1-2.3
					c-3.2-4.9-6.2-4.8-8.2-2.9c-1.4,1.3-2.2,3.5-2.3,5.5c-0.1,1.9,0.6,3.5,1.9,4.3c0.6,0.3,1.4,0.5,2.4,0.5c2.1,0.1,4.9-0.3,6.7-0.2
					c0.5,0,0.9,0.2,1.2,0.2c0.2,0,0.1-0.1,0.2-0.2c0.1,0.1,0.3,0.1,0.4,0c0.1-0.1,0.1-0.3,0-0.4c0-0.2,0.1-0.1,0-0.4
					c0,0-0.1,0-0.1-0.1C312.1,358.7,311.9,358.6,311.7,358.5z M311.1,358.3L311.1,358.3c-0.3-1.1-0.5-2.2-0.9-3.3
					c-0.2-0.6-0.5-1.2-1-1.8c-2.6-3.7-4.8-3.8-6.3-2.3c-1.1,1.1-1.8,2.8-1.8,4.4c0,1.1,0.2,2.1,1,2.6c1.6,0.9,5.5,0,8.1,0.3
					C310.5,358.2,310.8,358.3,311.1,358.3z"/>
			</g>
			<g transform="matrix(0.485908,0,0,0.373191,-66.9566,38.4867)">
				<path class="st3" d="M718.2-1.6c-0.5-1.3-0.8-4.5-0.5-7.2c0.1-1.1,0.3-2.1,0.6-2.9c0.2-0.5,0.4-1,0.8-1.1
					c0.8-0.3,1.6-0.4,2.3-0.2c2,0.3,3.9,1.6,5.8,1.8c0.2,0,0.3-0.1,0.4-0.4c0-0.2-0.1-0.4-0.3-0.5c-1.9-0.4-3.7-1.9-5.7-2.3
					c-0.9-0.2-1.8-0.2-2.8,0.1c-1.2,0.4-2,2.6-2.3,5.2c-0.3,3.3,0.1,7.3,0.8,8.6c0.1,0.3,0.5,0.5,1,0.5c0.9,0,2.8-0.7,4.8-1.7
					c2.1-1,4.5-2.3,5.9-3.4c0.2-0.2,0.4-0.3,0.6-0.4c0.4-0.4,0.6-0.7,0.7-1c0.1-0.2,0.1-0.5,0-0.6s-0.4-0.2-0.5,0
					c-0.2,0.1-0.5,0.2-0.8,0.4c-0.1,0.1-0.2,0.2-0.3,0.2c-1.2,0.8-3,1.9-4.8,2.8c-1.9,0.9-3.8,1.8-5,2
					C718.7-1.6,718.4-1.6,718.2-1.6z"/>
			</g>
			<g transform="matrix(0.47672,0,0,0.39775,-53.8495,0)">
				<path class="st3" d="M708.1,88.6c0.2-0.1,0.4-0.1,0.6-0.1c0.5-0.1,1-0.1,1.4,0c0.7,0.1,1.4,0.4,1.9,0.5c0.3,0.1,0.5,0,0.7,0.1
					c0.3,0.1,0.6,0.1,0.8,0.1c0.2,0,0.3-0.2,0.3-0.5c0-0.2-0.2-0.4-0.4-0.3c-0.1,0-0.3,0-0.5-0.1c-0.2-0.1-0.4-0.3-0.6-0.4
					c-0.6-0.3-1.3-0.6-2.1-0.8c-0.6-0.1-1.2-0.2-1.8-0.1c-0.3,0.1-0.5,0.2-0.8,0.3c-0.4,0.3-0.6,0.6-0.5,0.9c0,0.3,0.1,0.6,0.4,0.7
					c0.1,0.1,0.3,0.1,0.4,0C708.1,88.9,708.1,88.7,708.1,88.6z M708,88.4C708,88.4,708,88.5,708,88.4L708,88.4L708,88.4L708,88.4z"
					/>
			</g>
			<g transform="matrix(0.566012,0,0,0.517255,-179.89,-191.483)">
				<path class="st3" d="M824.6,438.4c-0.6-0.3-1.2-0.2-1.7,0c-0.7,0.3-1.4,1-2,1.5c-0.1,0.1-0.2,0.3-0.1,0.4
					c0.1,0.1,0.3,0.2,0.4,0.1c0.6-0.5,1.2-1.1,1.9-1.4c0.4-0.2,0.8-0.3,1.3,0c0.1,0.1,0.3,0,0.4-0.2
					C824.8,438.7,824.8,438.5,824.6,438.4z"/>
			</g>
			<g transform="matrix(0.397909,0.219054,-0.262546,0.331994,472.607,-213.21)">
				<path class="st3" d="M10.9,730.4c0.1,0,0.3,0,0.4,0c0.8,0,1.8,0.2,2.6,0.4c0.2,0.1,0.5,0.1,0.6,0.2c0.1,0,0.3,0,0.3,0.1
					c0.2,0.2,0.4,0.2,0.5,0c0.1-0.2,0.1-0.4-0.1-0.6c-0.1-0.2-0.3-0.3-0.6-0.5c-0.3-0.2-0.8-0.4-1.3-0.5c-1-0.3-2.1-0.4-2.8-0.4
					c-0.5,0-0.8,0.1-1,0.3c-0.2,0.2-0.3,0.4-0.2,0.7c0.1,0.2,0.2,0.6,0.7,0.8c0.1,0.1,0.3,0.1,0.4,0.1c0.2,0.1,0.4,0,0.4-0.2
					C11.3,730.8,11.2,730.6,10.9,730.4L10.9,730.4z M10.6,730.4C10.5,730.4,10.5,730.5,10.6,730.4C10.5,730.6,10.5,730.5,10.6,730.4
					z"/>
			</g>
			<g transform="matrix(0.496454,0.232471,-0.233317,0.346857,285.876,-255.512)">
				<path class="st3" d="M295.7,632.7c1-0.1,2.4-0.1,2.7,0c0.2,0,0.3-0.1,0.3-0.4c0-0.2-0.2-0.4-0.3-0.5c-0.5-0.1-3,0-3.7,0.2
					c-0.2,0.1-0.3,0.2-0.3,0.3c0,0.1,0,0.4,0.3,0.6c0.1,0.1,0.3,0.1,0.7,0.2c0.2,0,0.3-0.1,0.3-0.3
					C295.7,632.8,295.7,632.8,295.7,632.7z"/>
			</g>
			<g transform="matrix(0.47672,0,0,0.39775,-53.8495,0)">
				<path class="st3" d="M763,76c0,0.1,0.1,0.1,0.2,0.3c0.1,0.1,0.2,0.2,0.4,0.3c0.1,0.1,0.3,0.1,0.4,0.3c0.3,0.5,0.5,1.1,0.6,1.6
					c0.2,0.8,0,1.7,0,2.6c0,0.1,0,0.2,0.1,0.3c0,0.5,0.2,0.9,0.7,1c0.4,0.1,0.8-0.3,0.8-0.8c0-0.1,0.1-0.2,0.1-0.3
					c0.2-0.9,0.1-1.8-0.1-2.7c-0.2-1-0.5-2-1.2-2.9c-0.2-0.3-0.6-0.6-0.9-0.6c-0.2,0-0.4,0-0.5,0c-0.1,0-0.1,0.2-0.1,0.2
					c-0.1-0.1-0.4-0.1-0.5,0.1C762.9,75.6,762.9,75.9,763,76z"/>
			</g>
		</g>
	</g>
</g>
<g class="st0">
	<g transform="matrix(0.4441,0,0,0.39775,-345.369,-236.477)" class="st1">
		<g id="Gray-Short.svg" transform="matrix(0.681216,0,0,0.681216,1361.69,1133.76)">
			<g transform="matrix(1,0,0,1,-236.5,-283.5)">
				<g id="head-mono-Gray-Short">
					<path id="_xD83D__xDD8D_-Ink" class="st4" d="M-473.8-374.7c-6.3,0.7-13.7-0.9-17.9-6.6c-0.1-0.2-0.2-0.4-0.2-0.5
						c0-0.2,0.1-0.4,0.2-0.6c0.1-0.2,0.3-0.3,0.5-0.3c0.2,0,0.3,0,0.5,0.1l0.4,0.2c2.9,1.8,5.8,3.3,9.1,3.9c3.3,0.7,6.7,0.6,10-0.2
						c6-1.5,10.9-5.4,14.5-10.6c4-5.8,6.4-13,7-20.4c0.7-8.9-1-17.6-2.8-26.2c-1.9-9-3.9-18-6.3-26.8c-0.1-0.3-0.1-0.5-0.1-0.8
						c-0.7-0.3-1.5-0.2-2.2,0.1c-1.4,0.5-2.7,1.7-3.8,2.6c-0.4,0.3-0.8,0.7-1.1,0.9c-1.4,1.1-2.9,1.8-4.6,2
						c-1.8,0.1-3.5-0.5-5.1-1.3c-0.8-0.4-1.6-0.8-2.4-1.2c-2.3-1.1-4.5-2.3-7-3c-3.3-1-6.7-1.5-10.2-1.5c-6.1,0.1-12.3,1.8-16,7.6
						c-1.5,2.3-2.5,5-1.7,7.9c0.4,1.6,1.2,3,2.1,4.3l0.3,0.5c0.5,0.7,0.9,1.4,1,2.2c0.1,0.6,0,1.3-0.4,2.1c-0.3,0.5-0.6,0.9-0.9,1.3
						c-0.2,0.3-0.5,0.6-0.7,0.9c-0.4,0.6-0.8,1.4-1.1,2.1c-0.6,1.4-0.8,3-0.8,4.5c-0.1,1.9,0.2,3.7,0.4,5.6c0.2,1.3,0.3,2.6,0.4,3.9
						c0,0.2,0,0.4-0.1,0.5c-0.1,0.2-0.3,0.2-0.5,0.3c0,0-0.1,0-0.2,0c0,0.1,0,0.2,0.1,0.4c-0.1-0.2-0.2-0.3-0.4-0.5c0,0,0,0,0,0
						c-0.1-0.1-0.2-0.2-0.3-0.4c-0.2-0.2-0.4-0.4-0.6-0.5c-1-0.9-2.3-1.4-3.5-1.4c-1.2,0-2.4,0.4-3.3,1.4c-1.8,1.9-2.3,5-2.4,7.6
						c0,2.7,0.5,5.9,2.6,7.6c0.8,0.7,1.9,1.1,2.9,1.1c0.9,0,1.7-0.3,2.5-0.6c0.2-0.1,0.5-0.2,0.8-0.3c0.3-0.1,0.5-0.1,0.8,0
						c0.2,0.1,0.5,0.3,0.6,0.5c0.2,0.2,0.3,0.5,0.3,0.8c0,0.3,0,0.6-0.1,0.9c0,0.1-0.1,0.1-0.1,0.2l0.5,0.9c1.8,3.2,3.6,6.4,5.9,9.2
						c1.4,1.6,2.8,3.1,4.4,4.4l0.2,0.2c0.1,0.1,0.3,0.2,0.5,0.4c0.5,0.4,1,1,1.5,1c0.1,0,0.3,0,0.4,0c0.3,0,0.5-0.1,0.8,0
						c0.2,0.1,0.4,0.2,0.6,0.6c0.1,0.2,0.2,0.5,0.2,0.8c0,0.3-0.1,0.6-0.2,0.8c-0.3,0.5-0.6,0.8-0.9,1c-0.4,0.2-0.8,0.2-1.3,0.1
						c-1.1-0.2-2.3-1.3-3.1-1.9l-0.1-0.1c-1.7-1.5-3.4-3.1-4.8-4.9c-2.5-3.1-4.7-6.8-5.8-10.8c-0.8,0.6-1.8,0.9-2.8,0.9
						c-1.5,0.1-3.1-0.4-4.3-1c-2.6-1.4-4.2-4-4.9-6.9c-0.8-3.5-0.6-7.4,0.5-10.5c0-0.1,0.1-0.2,0.1-0.3c-3.3-9.4-4.3-19.9-4.1-29.9
						c0.1-4.7,0.4-9.6,1.4-14.2c0.5-2.1,1.2-4,2.5-5.6c0.7-0.9,1.6-1.6,2.4-2.4c0.8-0.6,1.5-1.2,2.1-2l0.3-0.4
						c0.1-0.1,0.1-0.2,0.2-0.2c1.1-1.4,2.2-2.7,3.5-3.8c1.5-1.3,3.2-2.3,5-3.1c3.8-1.8,7.9-2.9,12-3.7c8.8-1.8,17.8-1.9,26.5,0.6
						c4,1.2,8,2.8,11.9,4.4c0.4,0.1,0.7,0.3,1.1,0.5c3,1.2,6.1,2.5,9.1,3.7c1.4,0.6,2.8,1.2,4.2,1.7c0.3,0.1,0.6,0.4,0.8,0.7
						c0.2,0.3,0.2,0.7,0.1,1.1c-0.9,2.5-2,4.8-3.3,6.9c0.5,0.4,0.9,0.8,1.1,1.4c0.4,0.7,0.6,1.5,0.6,2.4c0,2.9-2.3,4.9-4.3,6.3
						c-0.2,0.1-0.4,0.2-0.5,0.2c1.9,8.1,3.7,16.3,5.3,24.5l0.1,0.6c1.6,8.6,2.6,17.4,1.1,26.1c-1.3,7.5-4.3,14.8-9,20.4
						C-460.9-378.9-467.1-375.4-473.8-374.7z M-515.2-424.2c-0.8-2.9-1.3-6.1-0.9-9c0.2-1.9,0.7-3.6,1.5-5.3c0.5-0.9,1-1.8,1.7-2.6
						l0.2-0.3c0.1-0.1,0.2-0.3,0.2-0.4c0-0.1,0-0.2,0-0.3c-0.1-0.3-0.3-0.5-0.5-0.8c-0.1-0.2-0.2-0.3-0.3-0.5
						c-1.8-2.7-3.2-6-2.7-9.4c0.4-3.4,2.4-6.5,4.5-8.9c4.6-5.2,11.8-6.4,18.1-6.1c3.7,0.2,7.3,0.9,10.8,2.1c1.7,0.6,3.4,1.4,5,2.2
						l0.4,0.2c0.2,0.1,0.4,0.2,0.6,0.3c1.3,0.7,2.6,1.4,4,1.8c2.7,0.7,4.5-0.8,6.5-2.4c0.7-0.5,1.3-1.1,2-1.6l0.1-0.1
						c1.3-0.8,2.8-1.4,4.3-1.4c1.3,0,2.5,0.5,3.5,1.6c0.2,0.2,0.3,0.5,0.4,0.7c0.1,0.2,0.2,0.4,0.3,0.6c0.4,1.5,0.7,3,1.1,4.5
						l0.3-0.2c0.9-0.6,1.8-1.4,2.2-2.4c0.2-0.4,0.1-1.1-0.1-1.6c-0.1-0.2-0.2-0.3-0.3-0.4c-0.1-0.1-0.2-0.1-0.4-0.1
						c-0.3,0-0.6,0-0.9-0.1c-0.3-0.1-0.5-0.4-0.7-0.6c-0.2-0.3-0.2-0.6-0.2-1c0-0.3,0.1-0.6,0.4-0.9c1.5-1.9,2.7-4,3.7-6.3l-6.3-2.6
						c-2.2-0.9-4.5-1.9-6.7-2.8l-1.2-0.5c-4.1-1.7-8.2-3.3-12.4-4.4c-8.4-2.1-17.2-1.6-25.6,0.4l-0.5,0.1c-3.5,0.9-7.1,1.9-10.3,3.7
						c-1.6,0.9-3.1,2-4.4,3.3c-0.6,0.6-1.1,1.3-1.6,1.9c-0.7,0.9-1.5,1.8-2.3,2.6l-0.8,0.7c-1.2,1.1-2.3,2.1-2.9,3.8
						c-0.7,1.7-1,3.7-1.3,5.5c-0.7,4.7-1,9.5-0.9,14.3c0,8,1.1,15.9,2.5,23.7c1.1-1.8,2.7-3.1,4.7-3.4c1.3-0.2,2.6,0.1,3.7,0.7
						C-516.2-425.3-515.7-424.8-515.2-424.2z M-517.2-414.7c-1.5-0.6-3-0.8-4.5-0.5c-0.2,0-0.3,0-0.4-0.1c-0.1-0.1-0.2-0.2-0.3-0.4
						c-0.1-0.2-0.1-0.4,0-0.5c0-0.1,0.1-0.3,0.3-0.4c1.7-0.9,3.5-1.3,5.4-1l0.2,0c0.9,0.2,2.3,0.5,3.3,1.1c0.8,0.5,1.3,1.2,1.5,2.1
						c0.1,0.5,0,1-0.3,1.3c-0.2,0.4-0.6,0.6-1.1,0.6c-0.8,0-1.3-0.4-1.9-0.9c-0.1-0.1-0.2-0.1-0.2-0.2
						C-516-414-516.6-414.4-517.2-414.7z"/>
				</g>
			</g>
		</g>
		<g id="Eyes-Closed.svg" transform="matrix(0.734096,0,0,0.734096,1398.38,1156.31)">
			<g transform="matrix(1,0,0,1,-144.5,-146.5)">
				<g id="face-Eyes-Closed">
					<path id="_xD83D__xDD8D_-Ink1" class="st4" d="M-558.4-520.4l0.2,0c1.2-0.3,2.4-0.8,3.5,0.1c1.1,0.8,1.2,2.3,0.4,3.3
						c-0.9,1.1-2,1-3.2,1h-0.1c-1,0-2,0-3-0.1c-0.9-0.1-1.9-0.2-2.8-0.4l-0.5-0.1c-0.5-0.1-1.1-0.3-1.4-0.9c-0.5-1,3.2-1.9,3.6-2
						C-560.6-519.9-559.5-520.1-558.4-520.4z M-556.3-533c-0.6,0.7-1.4,1.2-2.2,1.4c-2.2,0.7-5,0.3-6.8-0.4
						c-0.4-0.2-0.7-0.5-0.9-0.9c-0.2-0.4-0.2-0.8-0.1-1.2c0-0.1,0.1-0.2,0.1-0.4c0.1-0.3,0.4-0.6,0.7-0.7c0.3-0.2,0.7-0.2,1-0.1
						c0,0,0.1,0,0.1,0c1.1,0.4,3,1.1,4.5,0.9c0.9-0.1,1.7-0.4,2.2-1.4c0.2-0.5,0.2-1,0-1.4c-0.3-0.7-0.9-1.3-1.4-1.7
						c-0.7-0.6-1.5-0.8-2.2-1c-0.3-0.1-0.6-0.2-0.9-0.3c-0.1,0-0.2-0.1-0.2-0.2s-0.1-0.2-0.1-0.3s0-0.2,0-0.3c0-0.1,0.1-0.2,0.2-0.2
						c1.5-0.8,3.5-0.3,5,0.9c0.7,0.6,1.4,1.4,1.7,2.2c0.3,0.8,0.5,1.7,0.4,2.6C-555.4-534.4-555.8-533.6-556.3-533z M-581.3-550
						c0.4-0.2,0.8,0.8,0.9,1l0.2,0.6c0.3,0.9,0.6,1.8,1.3,2.5c0.5,0.6,1.4,1,2,0.4c0.6-0.6,0.3-1.3,0.4-2.1c0.2-1.4,1.8-2.8,2.8-1.3
						c2.3,3.2-1.2,7.8-4.5,7c-1.7-0.4-3-1.9-3.5-3.6l0-0.1C-582.2-546.8-582.5-549.4-581.3-550z M-551.9-547.7L-551.9-547.7
						c-1.1-2.8,2.8-4,3.1-1.5l0,0.2c0.3,2.8-0.3,6.5-3.4,6.7c-3.4,0.3-4.8-3.9-4.5-7c0-0.5,0.7-0.6,0.8-0.1l0,0.1
						c0.5,1.6,1.1,4.5,3,4.5C-551.4-544.8-551.5-546.7-551.9-547.7z M-549.4-555.7c2-0.1,1.9,3.3,0,3.4c-6.5,0.2-13,0.4-19.5,0.4
						l-1.2,0c-6.1,0-12.2,0.1-18.3-0.4c-0.5,0-0.4-0.9,0-0.8c6.4-1,12.8-1.3,19.3-1.7C-562.5-555.2-556-555.4-549.4-555.7z"/>
				</g>
			</g>
		</g>
	</g>
</g>
</svg>
