<?xml version="1.0" encoding="utf-8"?>
<!-- Generator: Adobe Illustrator 24.2.0, SVG Export Plug-In . SVG Version: 6.00 Build 0)  -->
<svg version="1.1" id="图层_1" xmlns="http://www.w3.org/2000/svg" xmlns:xlink="http://www.w3.org/1999/xlink" x="0px" y="0px"
	 viewBox="0 0 85 85" style="enable-background:new 0 0 85 85;" xml:space="preserve">
<style type="text/css">
	.st0{fill-rule:evenodd;clip-rule:evenodd;fill:#FFFFFF;}
	.st1{fill-rule:evenodd;clip-rule:evenodd;}
	.st2{display:none;fill-rule:evenodd;clip-rule:evenodd;}
	.st3{fill-rule:evenodd;clip-rule:evenodd;fill:#0A0000;}
	.st4{opacity:0.28;}
	.st5{display:none;}
	.st6{display:inline;}
	.st7{fill-rule:evenodd;clip-rule:evenodd;fill:#040000;}
</style>
<g transform="matrix(1,0,0,1,-261.086,-19.0106)">
	<g>
		<g transform="matrix(0.4441,0,0,0.39775,0,0)">
			<path class="st0" d="M665.2,126.9c0,0,5.2,5.2,4.7,11.8c0,0-8.2,2.7-9.2,5c-1.1,2.3-0.1,3.1-0.1,3.1s-18.5,5.4-25.7,20.4
				c0,0-4.5,14.6,1.4,39.7c0,0,3.5-1,4.1-1.1c0,0,0.8,0,1.2,7.5c0.4,7.5-2.3,32.2-2.3,32.2s41.8,4.5,78.2,1.6c0,0-12.3-92-11.5-96.5
				c0,0-2.4-3.2-6.6-4.3l0.4-1.2c0,0-8.7-5.4-10.9-5.8c0,0,0-4.6,0-5.5C689,133.5,674.5,124.6,665.2,126.9z"/>
		</g>
		<g transform="matrix(0.4441,0,0,0.39775,0,0)">
			<path class="st1" d="M677.5,158.3l0.8,21.8c0,0,4.1,0.7,5.1-0.1c0.9-0.8-0.1-6.2-0.1-6.2s-4,3.4-4.4-0.8
				c-0.3-4.2,3.3-1.5,3.9-1.7c0.6-0.2,0.9-6.6,0.9-6.6s-3.9,3.3-4.5-0.6c-0.6-3.9,3.2-3.1,3.9-1.7l0.6-0.3l0.2-6
				c0,0-3.2-2.2-3.1-2.2C680.7,154,677.5,158.3,677.5,158.3z"/>
		</g>
		<g transform="matrix(0.4441,0,0,0.39775,0,0)">
			<path class="st1" d="M665.4,128.4l0.2,0.9l0,0.2c0,0.1,0,0.2,0.1,0.3c0.1,0.2,0.4,0.4,0.4,0.6l1.9,3.9c0.6,1.5,0.8,3.4,0.7,5.3
				c-0.1,1.9-0.5,3.9-1.3,5.3c-0.2,0.5-0.1,1.1,0.3,1.3c0.4,0.3,0.9,0.1,1.2-0.3c0.9-1.6,1.5-3.8,1.7-6.1c0.2-2.3-0.2-4.6-0.9-6.4
				c-0.3-0.6-0.5-1.1-0.8-1.6c-0.4-0.8-0.9-1.5-1.4-2.2c-0.1-0.2-0.4-0.6-0.8-0.8c-0.2-0.1-0.3-0.1-0.4-0.1l-0.2,0
				C666.3,128.4,665.4,128.4,665.4,128.4z"/>
		</g>
		<g transform="matrix(0.4441,0,0,0.39775,0,0)">
			<path class="st1" d="M688.9,137.6c-0.3,0.2-0.5,0.2-0.7,0.5c-0.1,0.1-0.1,0.2-0.1,0.3c-0.3,0.8-0.4,1.6-0.4,2.5
				c0,0.7,0,1.5,0.1,2.2c0.2,1.2,0.6,2.3,1.1,3.2c0.3,0.5,0.9,0.7,1.4,0.4c0.5-0.3,0.6-1,0.3-1.5c-0.4-0.7-0.6-1.7-0.7-2.7
				c-0.1-0.9-0.2-1.9-0.1-2.8c0-0.2,0-0.5,0-0.7c0-0.1,0-0.2,0-0.3c0-0.4-0.2-0.4-0.3-0.8c0.1-0.2,0-0.4-0.2-0.5
				C689.2,137.4,689,137.5,688.9,137.6z"/>
		</g>
		<g transform="matrix(0.4441,0,0,0.39775,0,0)">
			<path class="st1" d="M667,142.5c-0.3,0-0.4,0.1-0.6,0.2c-0.3,0.2-0.4,0.8-0.1,1.5c0.6,1.4,3.1,3.5,3.2,3.6c2,1.7,3.9,3.3,5.6,4.6
				c1.5,1.1,2.8,2,3.9,2.7c0.4,0.3,1,0.1,1.2-0.3c0.3-0.5,0.1-1.1-0.3-1.4c-0.8-0.6-1.8-1.3-2.9-2.1c-0.9-0.7-1.9-1.3-2.9-2.1
				c-1.2-0.9-2.5-1.9-3.8-2.9c-0.1,0-0.9-0.7-1.7-1.4c-0.5-0.5-1-0.9-1.4-1.4c-0.1-0.1-0.4-0.3-0.3-0.3c0,0-0.1,0-0.1,0
				c0,0.1-0.1,0.1-0.1,0.1s0-0.1,0.1-0.1c0.2,0,0.3-0.2,0.3-0.4C667.4,142.6,667.2,142.5,667,142.5z"/>
		</g>
		<g transform="matrix(0.4441,0,0,0.39775,0,0)">
			<path class="st1" d="M690.5,143.9L690.5,143.9C690.4,144.2,690.5,144.1,690.5,143.9L690.5,143.9L690.5,143.9
				C690.5,143.9,690.5,143.9,690.5,143.9L690.5,143.9L690.5,143.9c0.1,0.1,0.2,0.2,0.2,0.4c0,0.3-0.1,0.6-0.2,0.9
				c-0.1,0.3-0.3,0.7-0.5,1c-0.7,1.5-1.5,2.8-2.4,4.1c-0.9,1.2-2,2.3-3.2,3.3c-0.4,0.3-0.4,0.9-0.2,1.3c0.3,0.4,0.8,0.5,1.1,0.2
				c1.3-1.1,2.5-2.3,3.5-3.6c1-1.4,1.8-2.9,2.5-4.5c0.2-0.6,0.5-1.2,0.5-1.8c0-0.3,0-0.6-0.1-1c-0.2-0.7-0.8-0.9-1-1
				c-0.1,0-0.1,0-0.2,0c-0.2,0.1-0.3,0.2-0.3,0.3c0,0.1,0,0.3,0.1,0.4C690.4,143.9,690.4,143.9,690.5,143.9z"/>
		</g>
		<g transform="matrix(0.4441,0,0,0.39775,0,0)">
			<path class="st1" d="M668.3,138.3C668.3,138.4,668.3,138.4,668.3,138.3c-0.2,0.1-0.2,0-0.3,0c-0.1,0-0.1,0-0.2,0.1
				c-0.6,0.3-1.4,0.8-1.9,1c-1.2,0.6-2.6,1.2-3.9,1.9c-0.9,0.5-1.8,1.2-2.5,1.9c-0.3,0.3-0.3,0.9,0,1.3c0.3,0.4,0.8,0.4,1.1,0
				c0.6-0.6,1.3-1.2,2.1-1.6c1.2-0.7,2.6-1.3,3.8-1.9c0.5-0.3,1.4-1,1.9-1.6c0-0.1,0.1-0.1,0.1-0.2c0-0.1,0-0.1,0-0.2
				c0-0.1,0.2-0.1,0.2-0.2c0.2-0.2,0.1-0.4,0.1-0.5c0-0.1-0.1-0.2-0.3-0.2C668.5,138.2,668.4,138.2,668.3,138.3z M668.4,138.8
				c0,0,0.1,0.1,0.2,0.1C668.5,138.9,668.4,138.8,668.4,138.8z"/>
		</g>
		<g transform="matrix(0.4441,0,0,0.39775,0,0)">
			<path class="st1" d="M673,161.8c-1.6-1.8-3.9-5.5-7-9.5c-1.1-1.4-2.2-2.8-3.4-4.2c-0.2-0.2-0.5-0.7-0.9-1.3
				c-0.3-0.4-0.6-0.9-0.9-1.4c-0.3-0.7-0.6-1.3-0.2-1.6c0.2-0.1,0.2-0.3,0.2-0.5c-0.1-0.2-0.3-0.3-0.4-0.2c-0.6,0.3-0.7,1.1-0.5,2
				c0.2,0.8,0.5,1.7,0.9,2.4c0.4,0.7,0.7,1.2,0.9,1.4c1.5,2,2.9,4,4.2,5.8c1.6,2.3,3,4.3,4.2,5.9c0.9,1.3,1.8,2.3,2.4,2.9
				c0,0,0.6,0.4,1.2-0.2c0.5-0.5,1.7-1.7,1.7-1.7c0.7-0.7,1.2-1.4,1.8-2.1c0.7-1,1.4-2,2.1-3.1c0.4-0.7,0.8-1.3,1.3-2
				c0.2-0.2,0.2-0.6,0-0.9c-0.2-0.2-0.6-0.2-0.8,0c-0.7,0.6-1.3,1.3-1.8,2c-1.2,1.6-2.2,3.3-3.7,4.7
				C674.2,160.5,673.5,161.3,673,161.8z"/>
		</g>
		<g transform="matrix(0.4441,0,0,0.39775,0,0)">
			<path class="st1" d="M690.2,139.2c-0.1-0.1-0.2-0.2-0.4-0.2c-0.3,0-0.3,0.3-0.3,0.4c0,0.1,0.1,0.2,0.2,0.3
				c0.1,0.1,0.9,0.4,1.2,0.5l2.3,1.6c0.9,0.5,2,1.1,3.1,1.7c0.6,0.3,1.2,0.7,1.8,1.1c0.4,0.2,0.8,0.5,1.2,0.7c0.3,0.3,0.8,0.2,1-0.2
				c0.2-0.4,0.2-0.8-0.2-1.1c-0.6-0.5-1.2-1-1.8-1.4c-1.5-0.9-3.2-1.6-4.5-2.3c-0.8-0.4-1.1-0.7-1.6-1c-0.3-0.1-0.5-0.2-0.9-0.3
				C691,139.1,690.5,139.2,690.2,139.2z M690.1,139.2C690.1,139.1,690.1,139,690.1,139.2C690,139.1,690.1,139.1,690.1,139.2z"/>
		</g>
		<g transform="matrix(0.4441,0,0,0.39775,0,0)">
			<path class="st1" d="M689.1,160.4c-1.1-1-3.1-3.1-4.3-4.5c-0.2-0.2-0.3-0.4-0.5-0.5c-0.2-0.2-0.4-0.3-0.4-0.4
				c-0.1-0.3-0.4-0.5-0.6-0.4c-0.3,0.1-0.5,0.4-0.4,0.7c0,0.4,0.2,0.9,0.5,1.5c0.7,1.2,2.2,2.7,3.4,3.8c0.8,0.8,1.5,1.4,1.8,1.7
				c0.7,0.6,1.3,0,1.3-0.1c1.6-2.6,2.8-4,4.1-6c0.5-0.8,1.1-1.7,1.7-2.7l3.2-5.7c0.3-0.6,0.8-2.9,1.1-2.4l0,0c0.1,0,0.3,0,0.4-0.2
				c0.1-0.2,0-0.4-0.1-0.5c-0.2-0.2-0.6-0.1-0.9,0.4c-0.4,0.5-0.9,1.7-1.3,2.2l-3.5,5.4c-0.6,1-1.2,1.9-1.7,2.6
				C691.6,156.9,690.5,158.2,689.1,160.4z M700,145.3c0,0-0.1,0-0.1,0C699.9,145.2,699.9,145.3,700,145.3z"/>
		</g>
		<g transform="matrix(0.4441,0,0,0.39775,0,0)">
			<path class="st1" d="M677.7,159.1c0-0.1,0-0.1,0-0.2c0-0.4,0-0.6-0.1-0.7c-0.1-0.4-0.7-0.6-1,0.4c0,0.2-0.1,0.5-0.1,0.8
				c-0.2,1.8-0.1,5.3-0.2,7.2c-0.1,1.9,0,3.9,0.1,5.9c0.1,2,0.2,4,0.3,5.8c0,0.3,0,0.6,0.1,0.9c0.1,0.2,0.2,0.2,0.3,0.4
				c0,0.3,0.2,0.6,0.5,0.6c0.3,0,0.5-0.3,0.5-0.6c0.1-0.2,0.2-0.2,0.2-0.4c0.1-0.3,0-0.6,0-0.9c0-1.9-0.1-3.9-0.3-5.9
				c-0.1-1.9-0.2-3.9-0.2-5.8c0-1.9-0.1-5.4-0.2-7.2C677.7,159.4,677.7,159.3,677.7,159.1z M677,158.9c0-0.1-0.1-0.2-0.1-0.1
				C676.8,158.8,676.9,158.9,677,158.9z M677.7,158.7C677.7,158.7,677.7,158.7,677.7,158.7C677.7,158.7,677.7,158.7,677.7,158.7z"/>
		</g>
		<g transform="matrix(0.4441,0,0,0.39775,0,0)">
			<path class="st1" d="M677.7,179.6c0-0.1-0.1-0.2-0.2-0.2c-0.2-0.1-0.4,0-0.4,0.2c-0.4,0.6,0.1,1.2,1.2,1.3
				c0.9,0.1,2.1-0.1,2.9-0.1c0.4,0,0.7-0.4,0.7-0.8c0-0.4-0.3-0.8-0.7-0.8c-0.7,0-2,0.1-2.8,0.3
				C678.1,179.6,677.8,179.6,677.7,179.6z"/>
		</g>
		<g transform="matrix(0.4441,0,0,0.39775,0,0)">
			<path class="st1" d="M682.6,179.9c-0.1,0.3,0.1,0.6,0.5,0.4c0.2,0,0.4-0.1,0.4-0.4c0.1-0.1,0.1-0.2,0.2-0.4
				c0.1-0.1,0.1-0.2,0.1-0.4c0.2-1.2,0.2-3.3,0.2-3.8l0-10.7c0-0.6-0.1-3.7,0-4.9c0-0.1,0-0.2,0-0.3l0,0l0,0c0,0,0,0,0-0.1
				c0-0.1,0-0.2,0-0.2c0-0.2-0.1-0.2-0.2-0.3c-0.1-0.1-0.3-0.1-0.5,0.2c0,0.1-0.1,0.3-0.1,0.6c-0.2,1.2-0.4,4.4-0.4,5l-0.4,10.7
				c0,0.4-0.2,2.5-0.1,3.7c0,0.2,0,0.3,0.1,0.4C682.5,179.7,682.5,179.8,682.6,179.9z M684,159.4C684,159.4,684,159.4,684,159.4
				C684,159.4,684,159.4,684,159.4L684,159.4L684,159.4C684,159.4,684,159.4,684,159.4z"/>
		</g>
		<g transform="matrix(0.4441,0,0,0.39775,0,0)">
			<path class="st1" d="M679.5,161.1c-0.3,0.2-0.5,0.4-0.7,0.7c-0.1,0.1-0.2,0.2-0.3,0.3c-0.5,0.7-0.5,1.6-0.4,2.4
				c0.2,1.3,1.2,2.3,3.2,1.9c2.2-0.5,2.6-2.5,2-4.1c-0.6-1.6-2.2-2.8-3.9-1.5L679.5,161.1z M680,162c0.2-0.1,0.4-0.1,0.6-0.1
				c0.5,0,0.9,0.5,1.1,1c0.3,0.7,0.1,1.6-0.8,1.8c-0.9,0.2-1.4-0.1-1.6-0.6c-0.1-0.5-0.1-1,0-1.5c0-0.1,0-0.2,0-0.3
				c0.1-0.2,0.2-0.4,0.4-0.6L680,162z"/>
		</g>
		<g transform="matrix(0.4441,0,0,0.39775,0,0)">
			<path class="st2" d="M679.5,171.8c-0.1-0.2,0.2-0.7,0-0.7c-0.1,0-0.2,0.4-0.2,0.4c-1,2.2,0,4.4,2.3,3.8c0.5-0.1,1.1-0.9,1.1-1.3
				c0.2-4.1-2.9-3.4-3.4-2.1"/>
			<path class="st1" d="M678.8,171.3c-0.1,0.1-0.1,0.2-0.2,0.3c-0.7,1.1-0.5,2.4-0.1,3.3c0.5,1.1,1.6,1.7,3.2,1.3
				c0.4-0.1,0.9-0.5,1.2-0.9c0.3-0.4,0.5-0.9,0.5-1.2c0.1-2.1-0.6-3.1-1.3-3.6c-0.6-0.4-1.3-0.5-2-0.3
				C679.5,170.4,679,170.8,678.8,171.3z M681.9,173.9c0.1-1.1-0.1-1.7-0.5-1.9c-0.2-0.2-0.5-0.2-0.8-0.1c-0.3,0.1-0.6,0.1-0.7,0.4
				c-0.1,0.1-0.1,0.2-0.3,0.3c-0.1,0.6,0,1.1,0.2,1.5c0.3,0.5,0.8,0.6,1.6,0.4C681.5,174.4,681.8,174,681.9,173.9z"/>
		</g>
		<g transform="matrix(0.4441,0,0,0.39775,0,0)">
			<path class="st1" d="M659.2,147.7c0.1-0.3,0-0.5-0.1-0.7c-0.1-0.2-0.2-0.3-0.4-0.4c-0.2-0.2-0.5-0.3-0.9-0.3
				c-0.1,0-0.3,0-0.5,0.1c-0.7,0.1-1.7,0.5-2.7,0.9c-1.8,0.8-3.5,1.8-3.7,1.9c-1.4,1-2.8,1.9-4.1,3c-1.3,1.1-2.6,2.3-3.7,3.7
				c-0.3,0.3-0.3,0.9,0,1.2c0.3,0.3,0.8,0.3,1.1,0c0.9-1,1.9-1.8,3-2.6c1.5-1.3,3.1-2.4,4.8-3.6c0.1-0.1,1.4-0.8,2.8-1.6
				c1.1-0.6,2.2-1.1,3-1.4c0.1,0,0.1,0,0.2-0.1c0.1,0,0.3-0.1,0.3-0.2c0-0.2,0.3-0.2,0.2-0.2c0,0,0,0,0,0.1c0,0.2,0.1,0.4,0.3,0.4
				C659,148,659.2,147.9,659.2,147.7z"/>
		</g>
		<g transform="matrix(0.4441,0,0,0.39775,0,0)">
			<path class="st1" d="M637.5,207c0,0,0.1,0,0.1,0c0.2,0,0.3-0.1,0.5-0.2c1.9-0.6,5.7-1.7,5.9-1.7c1.9-0.7,4.1-1.7,6.2-2.7
				c1.5-0.7,3.1-1.5,4.6-2.2c1.6-0.8,3.1-1.7,4.5-2.4c0.4-0.2,0.6-0.7,0.4-1.2c-0.2-0.5-0.7-0.7-1.1-0.5c-1.3,0.6-2.8,1.3-4.3,2.1
				c-2.1,1.1-4.2,2.2-6.3,3.2c-1.6,0.8-3.1,1.5-4.6,2.1c-0.2,0.1-3.9,1.4-5.8,2.1c-0.2,0.1-0.4,0.1-0.5,0.2
				c-0.1,0.1-0.1,0.2-0.2,0.2c-0.1,0.1-0.3,0.2-0.3,0.2c-0.3,0.2-0.4,1,0.6,0.8C637.4,207.1,637.4,207.1,637.5,207z"/>
		</g>
		<g transform="matrix(0.4441,0,0,0.39775,0,0)">
			<path class="st1" d="M643.9,155.8c-0.7,0.3-2.2,1.2-3.8,2.4c-1.3,1-2.6,2.1-3.4,3.2c-1,1.2-1.8,2.7-2.5,4.3
				c-0.7,1.6-1.1,3.3-1.3,5c-0.5,4.6-0.5,9.4-0.2,14.2c0.3,4.9,0.8,9.9,1.5,14.8c0.3,2.1,0.6,4.2,1,6.3c0.1,0.4,0.4,0.7,0.8,0.6
				c0.4-0.1,0.6-0.5,0.6-0.9c-0.3-2.1-0.5-4.2-0.8-6.3c-0.6-4.8-1.2-9.7-1.4-14.6c-0.3-4.7-0.3-9.4,0.2-13.9c0.1-1.5,0.5-3,1.1-4.5
				c0.6-1.5,1.3-2.9,2.1-4.1c0.7-1,1.9-2.2,3-3.2c1.4-1.2,2.9-2.3,3.5-2.6c0.2-0.1,0.3-0.3,0.2-0.5
				C644.3,155.8,644.1,155.7,643.9,155.8z"/>
		</g>
		<g transform="matrix(0.4441,0,0,0.39775,-4.41809,-3.13957)">
			<path class="st1" d="M662.2,173.8c0.2,0.8,0.4,1.7,0.5,2.5c0.5,2.7,0.8,5.4,1.3,8.1c0.7,3.5,1.5,7,2.2,10.4
				c0.5,2.1,0.9,4.2,1.4,6.2c0.3,1.4,0.7,2.7,1.1,4.1c0.1,0.4,0.4,0.6,0.8,0.5c0.3-0.1,0.5-0.5,0.4-0.8c-0.3-1.4-0.6-2.8-0.9-4.2
				c-1.3-5.5-2.7-11-3.9-16.5c-0.6-2.6-1-5.3-1.6-8c-0.1-0.6-0.3-1.2-0.4-1.8c0-0.1,0-0.3-0.1-0.4l0,0l0-0.1
				c0.5-0.3,0.6-1.3-0.3-1.1l0.1,0.4c0,0.1,0.1,0.3,0.1,0.4l0.1,0.4l0,0l0,0c-0.2-0.2-0.5-1.1-0.3-1.2l0,0l0-0.1
				c0-0.1-0.1-0.2-0.1-0.2c-0.2-0.2-0.3-0.2-0.4-0.1c-0.1,0-0.2,0.1-0.3,0.3c0,0,0,0.1,0,0.2C662,173,662.1,173.4,662.2,173.8z"/>
		</g>
		<g transform="matrix(0.448134,0,0,0.379898,-19.2536,36.6237)">
			<path class="st1" d="M694.7,105C694.7,105,694.7,105,694.7,105c0.2,0.2,0.5,0.2,0.6,0c0.2-0.3,0.2-0.5,0.2-0.6
				c0-0.3-0.1-0.5-0.4-0.5c-0.1,0-0.2,0-0.4,0c-0.2,0-0.4-0.1-0.7,0c-0.1,0-0.2,0.1-0.4,0.2c-1.9,0.9-5.3,3-6.1,3.4
				c-2.8,1.5-5.5,3.1-8.3,4.5c-0.9,0.5-1.8,0.9-2.8,1.3c-0.9,0.4-1.9,0.8-2.8,1.2c-0.3,0.1-0.5,0.5-0.4,0.9c0.1,0.4,0.4,0.6,0.8,0.5
				c1-0.3,2-0.6,3-0.9c1-0.4,1.9-0.8,2.9-1.3c2.8-1.4,5.5-3.1,8.3-4.6c0.8-0.5,4.2-2.7,6-3.6c0.1-0.1,0.2-0.1,0.3-0.2
				S694.6,105,694.7,105z"/>
		</g>
		<g transform="matrix(0.4441,0,0,0.39775,-1.92428,-1.98554)">
			<path class="st1" d="M645.1,213.1c0.2,0.7,0.7,1.9,1.2,3.2c0.3,0.6,0.5,1.2,0.8,1.9c0.4,0.9,0.9,1.8,1.3,2.7c1.5,3,4,8.8,7,12.7
				c1.5,2,3.1,3.5,4.8,4.1c0.8,0.3,1.7,0.4,2.6,0.5c1.8,0.2,3.8,0.1,5.9-0.3c3.7-0.7,7.8-2.1,11.9-4.1c3.7-1.8,7.5-4,11-6.4
				c6.3-4.3,11.8-9,14.9-12.5c0.2-0.2,0.2-0.5,0-0.7c-0.2-0.2-0.5-0.2-0.6,0c-3.1,3.4-8.6,7.8-14.9,12c-3.5,2.3-7.2,4.5-10.9,6.3
				c-4,1.9-8,3.4-11.6,4.1c-2,0.3-3.9,0.4-5.6,0.1c-0.8-0.1-1.5-0.4-2.2-0.7c-1.8-0.7-3.6-2.7-5.2-5.2c-2.4-3.7-4.5-8.2-5.9-10.7
				c-0.4-0.7-0.8-1.5-1.2-2.2c-1.2-2.1-2.4-4-2.9-5c-0.1-0.2-0.3-0.3-0.4-0.2C645.1,212.7,645,212.9,645.1,213.1z"/>
		</g>
		<g transform="matrix(0.4441,0,0,0.39775,0,0)">
			<path class="st3" d="M689,140c0,0-0.8,6.2,1.6,6.7c0,0-5.8,7.4-7.5,7.9c0,0,4.5,6.9,6.1,6.8c0,0,9.6-14.6,10.8-16.7
				C699.9,144.7,689.7,137.4,689,140z"/>
		</g>
		<g transform="matrix(0.4441,0,0,0.39775,0,0)">
			<path class="st1" d="M635.4,202.2c0,0,0,5.1,1.6,4.8c1.6-0.3,21.9-8.7,22.5-10c0.6-1.4-1.2-4.7-1.2-5.1
				C658.1,191.5,638.5,201.8,635.4,202.2z"/>
		</g>
		<g transform="matrix(0.4441,0,0,0.39775,0,0)">
			<path class="st0" d="M691.5,143.2c0.1-0.1,0.1-0.3,0-0.4c0-0.1-0.1-0.1-0.1-0.1c-0.1-0.1-0.2-0.1-0.5,0.1c-0.1,0-0.1,0.1-0.3,0.2
				c-0.3,0.4-0.8,1.6-1,2.1c-0.2,0.4-0.5,0.9-0.8,1.3c-0.4,0.6-0.8,1.2-1.2,1.9c-0.3,0.4-0.5,0.9-0.8,1.3c-0.2,0.2-0.1,0.5,0,0.7
				c0.2,0.2,0.5,0.2,0.6,0c0.4-0.4,0.8-0.7,1.1-1.2c0.2-0.3,0.5-0.6,0.7-0.9c0.6-0.8,1.1-1.7,1.4-2.5c0.2-0.5,0.7-1.7,0.8-2.2
				C691.5,143.4,691.5,143.3,691.5,143.2z"/>
		</g>
		<g>
			<g transform="matrix(0.4441,0,0,0.39775,0,0)">
				<path class="st0" d="M713.1,241.2c0,0,8.6,5.3,18.8,0.2c10.3-5.1,13.7-8.4,13.3-13.2c0,0-22-70.1-22.1-70.9c0,0,1.7-1.7,1.5-3.5
					c0,0,6.6,1.7,8.1-1c1.5-2.7,7.1-14.6,4.1-26.4c0,0-9.4-4.4-11.4-4c-1.9,0.4-3.6,3.7-5.3,12.6c-1.7,8.9-1,10.7-0.9,11.3
					c0,0-1.5-0.5-1.9,1.5c0,0-11.1-2-20.9,4.4c0,0-4.3-1.3-6.5-0.6c0,0,0.2,4.6,1.8,9.9C693.2,166.9,710,235.6,713.1,241.2z"/>
			</g>
			<g transform="matrix(0.410844,0,0,0.382127,167.16,29.6849)">
				<path class="st1" d="M340.8,94.8c0,0.2,0,0.3,0,0.5c0.1,0.5,0.2,0.9,0.2,1.1c0.1,0.6,0.2,1.3,0.4,1.9c0.3,1.4,0.8,2.9,1.1,4.3
					c0.9,3.4,1.7,6.9,2.7,10.3c0.6,2.3,1.3,4.6,2.1,6.8c5.1,14.1,8.5,28.6,12.8,42.8c1.1,3.5,2.2,6.9,3.4,10.3c0,0.2,0,0.5,0.1,0.7
					c0.2,0.4,0.6,0.8,1.4,1.2c1.9,1,5.7,2.1,6.8,2.1c4.4-0.2,9.1-0.9,13.6-2.6c2.2-0.8,4.3-1.9,6.3-3.2c1.9-1.3,3.7-2.9,5.4-4.7
					c0.5-0.6,1-1.6,1.4-2.6c0.4-1.1,0.5-2.3,0.3-3.1c-0.1-0.3-0.4-0.5-0.7-0.5c-0.3,0.1-0.5,0.4-0.4,0.8c0.1,0.6-0.1,1.4-0.4,2.3
					c-0.3,0.8-0.7,1.6-1.1,2.1c-1.6,1.7-3.4,3.1-5.3,4.3c-1.9,1.3-3.9,2.3-6,3.1c-4.3,1.7-8.8,2.4-13.1,2.6c-1.1,0-5.4-1.3-6.6-2.3
					l0,0c0-0.1,0-0.2,0-0.4c-5-14-8.3-28.5-12.7-42.8c-1.1-3.6-2.2-7.1-3.5-10.6c-0.8-2.2-1.5-4.5-2.1-6.7c-1-3.4-1.8-6.9-2.8-10.3
					l-1.7-6c0-0.2-0.1-0.7-0.4-1.1c-0.1-0.2-0.3-0.3-0.4-0.5c-0.1-0.1-0.1-0.2-0.1-0.2c-0.1-0.3-0.3-0.4-0.4-0.4
					c-0.1,0-0.3,0-0.4,0.1c-0.1,0.1-0.2,0.3-0.1,0.5C340.7,94.5,340.8,94.6,340.8,94.8z"/>
			</g>
			<g transform="matrix(0.4441,0,0,0.39775,0,0)">
				<path class="st1" d="M722,155.7c-0.1,0.2,0.1,0.9,0.2,1.9c0,0.2,0,0.5,0.1,0.7c0.1,0.5,0.3,0.9,0.5,1.5
					c1.5,4.3,4.2,11.3,5.1,14.6c0.9,3.6,1.9,7.1,3,10.6c2.5,8.2,5.2,16.2,7.5,24.4c1.3,4.4,2.4,9.1,3.8,13.5
					c0.3,0.8,0.5,1.5,0.8,2.3c0.4,1.1,0.9,2.2,1.4,3.3c0.1,0.3,0.4,0.4,0.7,0.3c0.3-0.1,0.4-0.5,0.3-0.8c-0.5-1.2-0.8-2.5-1.2-3.8
					c-0.4-1.3-0.8-2.5-1.2-3.8c-1.1-3.9-2.1-7.8-3.2-11.6c-2.4-8.2-5.1-16.3-7.5-24.5c-1-3.5-2-7-3-10.5c-0.4-1.4-1-3.4-1.8-5.6
					c-1.3-3.6-2.8-7.6-3.9-10.2c-0.5-1.3-1-2-1-2.3c0-0.2-0.1-0.4-0.3-0.4C722.2,155.3,722.1,155.4,722,155.7z"/>
			</g>
			<g transform="matrix(0.4441,0,0,0.39775,0,0)">
				<path class="st1" d="M692,163.2c0.1-0.2,0-0.4-0.1-0.5c-0.1-0.1-0.4-0.1-0.5,0.1c-0.2,0.2-0.1,0.6,0.2,0.9
					c0.4,0.5,1.4,1,1.7,1.1c0.7,0.3,1.4,0.5,2.1,0.6c1,0.2,2,0.1,3.1,0.1c2.7,0,5.4-0.4,8-1c2.6-0.6,5.2-1.6,7.7-2.8
					c3.4-1.8,5.6-3.6,6.7-5.2c0.8-1.1,1.1-2,1.1-2.8c0-0.3,0-0.7-0.2-0.9c-0.1-0.2-0.2-0.3-0.4-0.5c-0.1-0.3-0.4-0.4-0.7-0.2
					c-0.2,0.2-0.3,0.5-0.2,0.8c0,0.1-0.1,0.2-0.1,0.3c0,0.1,0,0.2,0,0.4c0,0.8-0.6,1.7-1.6,2.7c-1.2,1.2-3,2.4-5.5,3.7
					c-2.3,1.2-4.8,2.2-7.3,2.9c-2.5,0.7-5.1,1.2-7.7,1.3c-1,0.1-2,0.2-3,0.1c-0.6,0-1.2-0.1-1.9-0.3
					C693.4,163.8,692.2,163.5,692,163.2z M692,163.2c0-0.1,0.1-0.2,0-0.1C692,163.1,692,163.1,692,163.2z"/>
			</g>
			<g transform="matrix(0.4441,0,0,0.39775,0,0)">
				<path class="st1" d="M721.8,151.6c0-0.1-0.1-0.3-0.2-0.3c-0.2-0.1-0.4,0-0.4,0.2c-0.3,0.7,0.3,1.2,1.4,0.9
					c0.8-0.2,1.8-0.9,2.5-1.8c0.5-0.6,1-1.6,1.5-2.7c0.6-1.4,1.1-3.1,1.3-4.4c0.2-1.3,0.9-4.2,1.3-7.4c0.3-2.5,0.5-5.3,0.4-7.6
					c-0.1-3-0.9-5.4-2.5-6.3c-1.7-1-2.9-0.6-3.9,0.3c-1.3,1.2-2,3.5-2.6,5.2c-1,2.7-1.5,5.5-1.9,8.3c-0.3,2.8-0.4,5.7-0.4,8.5
					c0,1,0.1,2.5,0.4,3.7c0.3,1,0.7,1.8,1.4,2.3c0.3,0.2,0.6,0.1,0.7-0.2c0.2-0.3,0.1-0.6-0.2-0.8c-0.4-0.3-0.7-1-0.8-1.6
					c-0.2-1.1-0.2-2.4-0.2-3.3c0-2.8,0.1-5.6,0.5-8.3c0.3-2.7,0.9-5.4,1.8-7.9c0.5-1.4,1.1-3.5,2.2-4.5c0.6-0.5,1.3-0.7,2.3-0.2
					c1.3,0.7,1.8,2.6,2,5c0.1,2.3-0.1,4.9-0.5,7.4c-0.4,3.2-1,6.1-1.2,7.4c-0.2,1.1-0.5,2.3-0.9,3.5c-0.5,1.3-1,2.5-1.5,3.1
					c-0.2,0.3-0.5,0.6-0.8,0.8c-0.5,0.4-0.9,0.7-1.3,0.8C722,151.6,721.9,151.6,721.8,151.6z"/>
			</g>
			<g transform="matrix(0.4441,0,0,0.382972,0,25.6239)">
				<path class="st1" d="M736,65c0.1,0.3,0.1,0.6,0.2,1c0.1,0.5,0.2,1,0.2,1.6c0.1,1.2,0.1,2.6,0,4.3c-0.1,3.6-0.4,7.4-1.2,11.1
					c-0.5,2.3-1.3,4.6-2.5,6.8c-0.3,0.5-0.4,1.1-0.7,1.5c-0.1,0.1-0.1,0.2-0.2,0.2c-0.1,0-0.1,0.1-0.3,0.2c-0.3,0-0.5,0.3-0.5,0.6
					c0,0.3,0.2,0.6,0.5,0.6c0.2,0.1,0.4,0.1,0.6,0.1c0.2,0,0.4-0.2,0.6-0.3c0.6-0.4,0.8-1.2,1.2-2c1.3-2.3,2.1-4.7,2.7-7.2
					c0.9-3.9,1.1-7.8,1.2-11.5c0-2.2,0-4-0.2-5.3c-0.1-0.4-0.2-0.8-0.3-1.2c-0.2-0.4-0.4-0.7-0.7-1c-0.1-0.2-0.3-0.2-0.5-0.1
					C735.9,64.6,735.9,64.8,736,65z"/>
			</g>
			<g transform="matrix(0.4441,0,0,0.39775,0,0)">
				<path class="st1" d="M689.5,152.4c0.1,0,0.1,0.1,0.2,0.1c0.1,0,0.3,0,0.4,0c0.2,0,0.3,0.1,0.4,0.1c0.3,0.2,0.4,0.6,0.6,1
					c0.2,0.5,0.4,1.1,0.6,1.5c0.3,0.5,0.6,1,1.1,1.3c1.9,1.3,4.9,1.6,8.1,1.2c2.3-0.3,4.8-0.8,6.9-1.4c1.7-0.5,3.3-1.1,4.5-1.5
					c0.3-0.1,0.4-0.4,0.3-0.6c-0.1-0.3-0.3-0.5-0.6-0.4c-1.2,0.2-2.8,0.6-4.5,0.9c-2.1,0.4-4.5,0.9-6.8,1.1c-2.7,0.2-5.3,0.1-7-1
					c-0.3-0.2-0.6-0.6-0.7-1c-0.3-0.6-0.6-1.2-0.9-1.7c-0.2-0.4-0.5-0.7-0.8-0.9c-0.3-0.2-0.9-0.4-1.5-0.3c-0.4,0.1-0.8,0.2-1,0.5
					c-0.1,0.1-0.3,0.3-0.2,0.6c0,0.2,0.1,0.3,0.2,0.5c0.1,0.2,0.1,0.4,0.2,0.4c0.2,0.2,0.4,0.2,0.5,0c0,0,0.1-0.1,0.1-0.3
					C689.6,152.5,689.6,152.4,689.5,152.4z M689.5,152.4c0.1,0,0.2-0.2,0.1-0.3C689.6,152.1,689.5,152.2,689.5,152.4L689.5,152.4
					C689.5,152.3,689.5,152.4,689.5,152.4z"/>
			</g>
			<g transform="matrix(0.4441,0,0,0.39775,0,0)">
				<path class="st1" d="M711.9,154.9L711.9,154.9L711.9,154.9L711.9,154.9C711.9,155.2,711.9,155.1,711.9,154.9
					C711.9,154.9,711.9,154.9,711.9,154.9z M719.6,151.3l-5.1,1.9c-0.3,0.1-1.2,0.3-1.8,0.5c-0.3,0.1-0.6,0.2-0.8,0.3
					c-0.1,0.1-0.2,0.1-0.3,0.1c-0.1,0-0.1,0.1-0.1,0.1c-0.3,0.3-0.2,0.5,0,0.6c0,0,0.1,0.1,0.2,0.1c0.1,0,0.1,0,0.1,0v0c0,0,0,0,0,0
					h0c0,0,0,0,0,0v0c0,0,0.1,0,0.2,0c0.2,0,0.5,0,0.8-0.1c0.7-0.1,1.5-0.3,1.9-0.4c0.5-0.1,1.1-0.3,1.7-0.5c1.4-0.4,2.8-1,3.7-1.2
					l0.2,0c0.2,0,0.3-0.2,0.4-0.4c0.2-0.3,0.2-0.6,0.1-0.9c0-0.1,0-0.3-0.1-0.4c-0.1-0.1-0.1-0.1-0.2-0.1c-0.1,0-0.1,0-0.2,0
					c-0.1-0.3-0.3-0.4-0.6-0.4c-0.2,0.1-0.4,0.3-0.3,0.6C719.5,151.1,719.6,151.2,719.6,151.3z M719.6,151.5L719.6,151.5
					c-0.1,0.1-0.2,0.3-0.1,0.3C719.7,151.8,719.6,151.6,719.6,151.5z"/>
			</g>
			<g transform="matrix(0.4441,0,0,0.39775,0,0)">
				<path class="st1" d="M690.6,152c0.1,0,0.2,0.1,0.4,0.1c0.5,0.1,0.9,0.2,1.4,0.4c0.7,0.3,1.4,0.6,2.1,0.6c0.6,0.1,1.3,0,2.1-0.5
					c2.1-1.2,6.6-2.8,10.8-3.7c2.9-0.7,5.7-1.1,7.3-0.8c1,0.1,2.2,0.5,3.3,1.2c0.7,0.4,1.4,0.9,2,1.6c0.3,0.3,0.5,0.5,0.8,0.8
					c0.1,0.1,0.2,0.2,0.3,0.1c0.1-0.1,0.1-0.2,0.1-0.4c-0.2-0.4-0.3-0.8-0.6-1.2c-0.5-0.9-1.3-1.5-2.1-2.1c-1.2-0.9-2.6-1.4-3.7-1.6
					c-1.8-0.4-4.7,0-7.9,0.7c-4.3,1-9,2.7-11.2,4c-0.5,0.3-0.9,0.4-1.3,0.3c-0.6,0-1.2-0.3-1.8-0.4c-0.6-0.1-1.2-0.3-1.8,0
					c-0.2,0.1-0.3,0.1-0.4,0.2c-0.2,0.1-0.3,0.3-0.2,0.5C690.3,152,690.4,152.1,690.6,152z"/>
			</g>
			<g transform="matrix(0.4441,0,0,0.39775,0,0)">
				<path class="st1" d="M721.9,152.2C721.9,152.2,721.9,152.2,721.9,152.2c-0.2-0.2-0.4-0.2-0.5,0c-0.2,0.2-0.1,0.4,0.2,0.8
					c0.1,0.1,0,0.2,0.2,0.3c0,0,0.1,0.1,0.1,0.1c0.7,0.3,2,0.7,2.3,0.7c1.6,0.4,3.4,0.6,4.9,0.5c0.8,0,1.6-0.1,2.3-0.3
					c0.4-0.1,0.7-0.3,1-0.4c0.4-0.1,0.6-0.6,0.4-1c-0.1-0.4-0.5-0.6-0.9-0.5c-0.3,0.1-0.7,0.1-1.1,0.2c-0.8,0.1-1.7,0.3-2.6,0.3
					c-1.2,0-2.5-0.1-3.8-0.4c-0.3-0.1-1.5-0.3-2.2-0.4c0,0-0.1,0-0.1,0C722,152.1,721.9,152.2,721.9,152.2z"/>
			</g>
			<g transform="matrix(0.4441,0,0,0.39775,0,0)">
				<path class="st1" d="M720.8,153.2L720.8,153.2c-0.1,0.1-0.1,0.1-0.1,0.2c-0.1,0.3-0.1,0.7-0.1,1c0,1.1,0.5,2.4,1.3,2.9
					c0.6,0.4,1.4,0.4,2.3-0.5c0.2-0.2,0.3-0.4,0.4-0.6c0.1-0.3,0.2-0.6,0.2-1c0-0.6,0.1-1.3-0.1-1.8c-0.2-0.5-0.4-1-1-1.3
					c-0.6-0.3-1.6-0.3-2.3,0.2c-0.3,0.2-0.6,0.4-0.7,0.8C720.8,153.1,720.8,153.1,720.8,153.2z M722.4,154c0,0,0-0.1,0-0.1
					c0,0-0.2-0.1-0.1-0.1c0,0-0.1,0-0.1,0c0.1,0.3,0,0.5-0.1,0.7c0.1,0.4,0.3,0.8,0.5,1.1c0.1,0.1,0.3,0,0.5-0.2l0.1-0.3
					c0-0.3,0.1-0.7,0-1c0-0.1-0.1-0.2-0.1-0.2C722.9,153.8,722.4,153.8,722.4,154C722.4,154,722.4,154,722.4,154
					C722.4,154,722.4,154,722.4,154z"/>
			</g>
			<g transform="matrix(0.4441,0,0,0.39775,0,0)">
				<path class="st1" d="M721.5,151.7c0.1,0,0.1,0,0.1-0.1c0,0,0,0,0,0c0,0,0,0,0,0c0,0,0.1,0,0-0.1c-0.1-0.3-0.3-0.8-0.5-1.3
					c-0.1-0.2-0.2-0.5-0.3-0.7c-0.3-0.4-0.5-0.6-0.8-0.7c-0.3-0.2-0.7-0.1-0.9,0.3c-0.2,0.4,0,0.8,0.3,1c0,0,0,0.1,0,0.1
					c0,0.1,0.1,0.2,0.1,0.3c0.2,0.5,0.5,1.2,0.8,1.6c0.1,0.1,0.1,0.2,0.2,0.3c0,0,0.1,0.1,0.1,0c0.3,0,0.1,0.1,0.4,0
					c0.1,0,0.1,0,0.1,0c0.1,0,0.1,0.1,0.2,0.1c0.1,0,0.2,0,0.2,0c0.2-0.1,0.3-0.3,0.2-0.5C721.7,151.9,721.6,151.8,721.5,151.7z"/>
			</g>
			<g transform="matrix(0.4441,0,0,0.39775,0,0)">
				<path class="st1" d="M717.8,147.7c0,0,0.1-0.1,0.1-0.2c0-0.1,0.1-0.3,0.2-0.4c0.1-0.1,0.2,0,0.4,0c0.1,0,0.2,0,0.4,0
					c0.2,0.1,0.5,0,0.7-0.2c0.1-0.3,0-0.6-0.2-0.8c-0.1-0.2-0.3-0.3-0.4-0.3c-0.7-0.4-1.2-0.1-1.5,0.2c-0.1,0.2-0.3,0.3-0.3,0.6
					c-0.1,0.4-0.1,0.9,0.1,1.2c0.2,0.5,0.5,0.6,0.7,0.4c0.2-0.1,0.2-0.3,0.1-0.5C717.8,147.8,717.8,147.7,717.8,147.7z M717.8,147.7
					C717.8,147.7,717.8,147.7,717.8,147.7C717.8,147.7,717.8,147.7,717.8,147.7z M717.7,147.7c0,0-0.1,0-0.1,0
					C717.6,147.6,717.6,147.6,717.7,147.7z"/>
			</g>
			<g transform="matrix(0.4441,0,0,0.39775,0,0)">
				<path class="st1" d="M726,124.3c-0.3-0.3-0.6-0.3-0.9-0.3c-0.2,0-0.5,0.1-0.7,0.3c-0.2,0.1-0.3,0.3-0.5,0.5
					c-1,1.3-1.7,4-1.9,4.7c-0.6,2.8-1.7,7.8-1.9,12.3c-0.1,2.5-0.1,4.9,0.5,6.7c0.2,0.6,0.4,1.1,0.7,1.6c0.1,0.2,0.3,0.2,0.5,0.1
					c0.2-0.1,0.2-0.3,0.1-0.5c-0.2-0.4-0.4-0.9-0.5-1.5c-0.5-1.8-0.6-4-0.4-6.4c0.3-4.5,1.3-9.3,1.9-12.1c0.1-0.6,0.7-2.5,1.4-3.8
					c0.2-0.4,0.5-0.7,0.7-1c0.1-0.1,0.2-0.2,0.3-0.3c0.2-0.1,0.3,0,0.5,0.1c0.1,0.1,0.2,0.1,0.3-0.1
					C726.1,124.5,726.1,124.4,726,124.3z"/>
			</g>
			<g transform="matrix(0.4441,0,0,0.39775,0,0)">
				<path class="st1" d="M726.7,126.5c0,0.2,0,0.6,0,0.6l0.2,1.9l0,4.9c-0.1,2.2-0.6,6.2-1.5,9.7c-0.5,2.1-1.3,3.9-2.2,5.1
					c-0.1,0.2-0.2,0.3-0.4,0.4c-0.2,0.1-0.2,0.4-0.1,0.6c0.1,0.2,0.4,0.2,0.6,0.1c0.2-0.1,0.4-0.3,0.5-0.4c1.1-1.1,1.8-3.2,2.4-5.5
					c0.9-3.5,1.3-7.6,1.4-9.9c0-0.7,0-1.3,0-2c0-1-0.1-2-0.1-3c0-0.2,0-0.4-0.1-0.6c-0.1-0.4-0.2-0.9-0.2-1.3c0,0,0-0.5,0-0.7l0-0.1
					c0.1-0.7,0-1-0.1-1c-0.1-0.5-0.2-0.3-0.4,1.1C726.6,126.4,726.6,126.4,726.7,126.5z"/>
			</g>
			<g transform="matrix(0.4441,0,0,0.39775,0,0)">
				<path class="st1" d="M727.3,122.4c0,0-0.1,0-0.1,0c-0.7-0.3-0.8,0.6,0.3,1.2c0.8,0.4,2.6,0.8,2.7,0.9c1.4,0.5,2.8,1,4,1.6
					c0.4,0.2,0.8,0.5,1.2,0.7c0.4,0.3,0.7,0.5,0.9,0.8c0.2,0.3,0.6,0.4,0.9,0.2c0.3-0.2,0.4-0.7,0.1-1c-0.5-0.9-1.4-1.6-2.5-2.2
					c-1.3-0.7-2.8-1.1-4.3-1.5c-0.1,0-1.9-0.4-2.8-0.6c-0.1,0-0.1,0-0.2,0C727.5,122.4,727.4,122.4,727.3,122.4z"/>
			</g>
			<g transform="matrix(0.4441,0,0,0.39775,0,0)">
				<path class="st1" d="M692.1,161.6L692.1,161.6L692.1,161.6L692.1,161.6C692.2,161.5,692.2,161.5,692.1,161.6l0-0.1
					c0-0.1,0-0.2-0.1-0.3c-0.2-0.7-0.4-1.8-0.5-1.9c-0.3-1-0.6-2.2-0.9-3.3c-0.3-1.2-0.6-2.3-1-3.3c-0.1-0.3-0.2-0.5-0.3-0.7
					c0-0.1-0.1-0.2-0.3-0.2c-0.1,0-0.2,0.2-0.2,0.3c0,0.3,0,0.5,0,0.8c0.1,1,0.2,2,0.4,3.1c0.2,1.3,0.5,2.6,0.8,3.8
					c0.1,0.2,0.4,1.9,0.8,2.4c0.4,0.5,0.7,0.6,0.9,0.4c0.2-0.2,0.5-0.3,0.4-0.6c0-0.1,0-0.2-0.1-0.3
					C692.2,161.6,692.1,161.5,692.1,161.6C692.1,161.5,692.1,161.6,692.1,161.6z M692.1,161.5C692.1,161.6,692.1,161.6,692.1,161.5
					C692.1,161.6,692.1,161.6,692.1,161.5z"/>
			</g>
		</g>
		<g>
			<g class="st4">
				<g transform="matrix(0.4441,0,0,0.39775,0,0)">
					<path class="st1" d="M729.4,172.1c-0.2,0.6-1.6,2.2-2.6,3.8c-0.7,1-1.2,2.1-1.4,3c-0.1,0.7-0.1,1.2,0.2,1.7
						c0.3,0.5,0.9,0.8,2,0.9c0.5,0,1-0.2,1.5-0.4c0.6-0.3,1.1-0.8,1.6-1.2c0.3-0.3,0.6-0.6,1-0.7c0.1,0,0.2-0.1,0.1-0.2
						c0-0.1-0.1-0.2-0.2-0.2c-0.4,0-0.7,0.2-1.1,0.4c-0.7,0.4-1.3,1.1-2,1.4c-0.2,0.1-0.5,0.2-0.7,0.1c-0.7,0-1.2-0.2-1.4-0.5
						c-0.2-0.3-0.2-0.6-0.1-1c0.2-0.8,0.7-1.8,1.2-2.8c1-1.8,2.3-3.5,2.5-4.1c0-0.1,0-0.3-0.1-0.3C729.5,172,729.4,172,729.4,172.1z
						"/>
				</g>
				<g transform="matrix(0.4441,0,0,0.39775,0,0)">
					<path class="st1" d="M731.5,178.2c-0.4,0.1-0.9,0.5-1.4,1.2c-0.5,0.7-1,1.6-1.3,2.4c-0.3,0.7-0.4,1.4-0.3,2
						c0.1,0.7,0.4,1.1,0.9,1.3c0.3,0.1,0.6,0.1,0.9,0c0.2,0,0.5-0.1,0.7-0.1c0.3-0.1,0.6-0.2,0.9-0.2c0.2,0,0.3-0.1,0.3-0.3
						c0-0.2-0.1-0.3-0.3-0.4c-0.2,0-0.4-0.1-0.5-0.1c-0.3,0-0.5,0-0.8,0c-0.4,0-0.7,0.1-1,0c-0.3-0.1-0.3-0.4-0.3-0.7
						c0-0.6,0.2-1.3,0.5-2c0.2-0.6,0.5-1.1,0.8-1.6c0.4-0.6,0.7-1.1,1-1.2c0.1,0,0.2-0.2,0.2-0.3
						C731.8,178.3,731.7,178.2,731.5,178.2z"/>
				</g>
				<g transform="matrix(0.4441,0,0,0.39775,0,0)">
					<path class="st1" d="M731.6,185.4L731.6,185.4C731.6,185.4,731.6,185.5,731.6,185.4c0,0.1,0,0.1,0,0.1L731.6,185.4
						C731.6,185.5,731.6,185.5,731.6,185.4L731.6,185.4L731.6,185.4L731.6,185.4C731.6,185.5,731.6,185.4,731.6,185.4
						C731.6,185.4,731.6,185.4,731.6,185.4c0,0.1-0.1,0.1-0.1,0.2c-0.2,0.3-0.5,0.7-0.9,1c-0.3,0.4-0.6,0.9-0.7,1.1
						c-0.2,0.7,0.2,1.2,0.8,1.3c0.5,0.1,1.1,0.1,1.6,0c0.1,0,0.3-0.1,0.4-0.1c0,0.2-0.1,0.4-0.2,0.6c-0.3,0.6-0.8,1.3-0.8,1.5
						c-0.1,0.2,0,0.5,0.1,0.8c0.3,0.6,1,1.4,1.7,1.9c0.3,0.2,0.7,0.4,1,0.5c0.6,0.1,1,0,1.2-0.5c0.1-0.1,0-0.3-0.1-0.4
						c-0.1-0.1-0.3,0-0.4,0.1c-0.1,0.2-0.3,0.1-0.5,0c-0.3-0.1-0.7-0.4-1.1-0.7c-0.5-0.4-0.9-0.8-1.1-1.1c-0.2-0.2-0.3-0.3-0.3-0.5
						c0-0.2,0.3-0.9,0.6-1.4c0.2-0.3,0.3-0.5,0.4-0.6c0.2-0.2,0.1-0.5,0.1-0.5c-0.1-0.1-0.2-0.2-0.5-0.3c-0.1,0-0.3-0.1-0.5-0.1
						c-0.3,0-0.6,0-1-0.1c-0.2,0-0.3-0.1-0.4-0.1c-0.1,0-0.2,0-0.1-0.1c0.1-0.4,0.9-1.6,1.2-2.1c0.2-0.3,0.1-0.5,0.1-0.6
						c-0.1-0.1-0.2-0.1-0.3,0C731.7,185.3,731.6,185.4,731.6,185.4z"/>
				</g>
				<g transform="matrix(0.4441,0,0,0.39775,0,0)">
					<path class="st1" d="M729.4,174c0.1,0.4,0.5,0.3,0.9,0.7c0.1,0,0.1,0.1,0.2,0.2c0.4,0.8,0.7,1.5,1,2.3c0.2,0.5,0.5,1,0.7,1.6
						c0.1,0.3,0.2,0.7,0.3,1c0,0.1,0.1,0.1,0.1,0.1c0.1,0,0.1-0.1,0.1-0.1c-0.1-0.4-0.1-0.7-0.2-1.1c-0.1-0.6-0.1-1.1-0.2-1.7
						c-0.2-0.9-0.7-1.7-1.1-2.5c-0.2-0.3-0.4-0.5-0.6-0.6c-0.3-0.1-0.6,0.1-0.7-0.1c-0.1-0.1-0.2-0.2-0.3-0.1
						C729.4,173.7,729.3,173.8,729.4,174z"/>
				</g>
				<g transform="matrix(0.4441,0,0,0.39775,0,0)">
					<path class="st1" d="M731,178.9c0.1,0,0.2,0.1,0.3,0.3c0-0.1-0.1-0.1-0.2-0.1c0,0-0.1,0-0.1,0.1c0,0.1,0,0.1,0,0.1l0,0
						c0,0,0-0.1,0.1-0.1C731,179.1,731,179,731,178.9c-0.3,0-0.5,0.3-0.1,0.4c0,0,0,0.1,0,0.1c0,0.1,0.1,0.2,0.1,0.2
						c0,0.1,0.3,0.2,0.4-0.2c0-0.1,0.2-0.3,0.3-0.5c0-0.1,0.1-0.2,0.2-0.2c0.1,0,0.2-0.2,0.2-0.4c0-0.2-0.2-0.3-0.3-0.2
						c-0.2,0-0.4,0.1-0.5,0.2C731.1,178.5,731.1,178.7,731,178.9C731,178.9,731,178.9,731,178.9z"/>
				</g>
				<g transform="matrix(0.4441,0,0,0.39775,0,0)">
					<path class="st1" d="M731.1,179.7L731.1,179.7L731.1,179.7C731.1,179.7,731.1,179.7,731.1,179.7L731.1,179.7
						C731.1,179.7,731.1,179.7,731.1,179.7c-0.2,0-0.3,0.2-0.3,0.3c0,0,0,0.1,0.2,0.2c0.1,0,0.2,0.1,0.3,0.1c0.1,0,0.2,0.1,0.3,0.1
						c0.3,0.1,0.7,0.2,1,0.3c0.2,0.1,0.4,0.2,0.5,0.4c0.3,0.5,0.4,0.9,0.2,1.3c-0.2,0.4-0.5,0.8-0.8,1.1c-0.3,0.3-0.5,0.5-0.7,0.6
						c-0.1,0-0.1,0.1-0.1,0.2c0,0.1,0.1,0.2,0.2,0.1c0.3,0,0.7-0.1,1.1-0.3c0.4-0.2,0.6-0.6,0.9-0.9c0.5-0.8,0.6-1.7-0.1-2.7
						c-0.3-0.4-0.8-0.6-1.3-0.8c-0.2-0.1-0.4-0.1-0.6-0.1C731.6,179.6,731.4,179.7,731.1,179.7C731.2,179.7,731.2,179.7,731.1,179.7
						L731.1,179.7l0.1,0.1C731.2,179.7,731.2,179.7,731.1,179.7L731.1,179.7L731.1,179.7C731.2,179.6,731.1,179.6,731.1,179.7
						L731.1,179.7z"/>
				</g>
				<g transform="matrix(0.4441,0,0,0.39775,0,0)">
					<path class="st1" d="M732.2,185.2c-0.1,0-0.1,0-0.2,0.1c0,0,0,0,0,0c-0.1,0.1-0.1,0.1-0.1,0.1c0,0.1,0,0.2,0.2,0.3
						c0,0,0.1,0,0.1,0c0,0,0.1,0,0.1,0c0.1,0,0.2-0.2,0.2-0.3C732.5,185.2,732.4,185.2,732.2,185.2L732.2,185.2z M732.4,185.4
						c0,0.1,0,0.2-0.1,0.3C732.5,185.6,732.5,185.5,732.4,185.4z"/>
				</g>
				<g transform="matrix(0.4441,0,0,0.39775,0,0)">
					<path class="st1" d="M733.6,185.8c0,0,0-0.1,0-0.1c0,0,0-0.1,0-0.1c0.1,0.1,0.1,0.2,0.2,0.3c0.3,0.4,0.6,1,0.7,1.5
						c0.1,0.4,0,0.8-0.4,1c-0.1,0-0.2,0.2-0.2,0.3s0.1,0.2,0.3,0.2c0.6-0.1,0.9-0.4,1.1-0.9c0.1-0.2,0.1-0.4,0-0.7
						c-0.1-0.7-0.5-1.6-1.1-2c-0.2-0.1-0.3-0.2-0.5-0.3c-0.5-0.2-0.6,0.1-0.6,0.6c0,0.3,0.1,0.6,0.2,0.7c0.1,0.2,0.3,0.2,0.4,0.1
						c0,0,0.1-0.1,0.1-0.4C733.7,185.9,733.7,185.8,733.6,185.8z"/>
				</g>
				<g transform="matrix(0.4441,0,0,0.39775,0,0)">
					<path class="st1" d="M734.8,189.3c0-0.1-0.1-0.2-0.2-0.2c0,0-0.2,0.1-0.2,0.4c0,0.1,0.1,0.3,0.1,0.5c0.3,0.9,0.9,2.7,1.2,3.9
						c0.1,0.3,0.2,0.6,0.1,0.7c-0.1,0.2-0.1,0.4,0.1,0.5c0.2,0.1,0.4,0.1,0.5-0.1c0.2-0.2,0.2-0.7,0.2-1.2c-0.1-0.4-0.2-0.9-0.4-1.4
						c-0.4-1.1-0.9-2.3-1.2-2.9C734.9,189.5,734.9,189.4,734.8,189.3L734.8,189.3z"/>
				</g>
			</g>
			<g transform="matrix(0.4441,0,0,0.39775,0,0)">
				<path class="st0" d="M728.6,173.8c0,0-4,4.8-3.1,6.4c0.9,1.6,2.4,0.2,4.3-0.3c0,0-5.5,7.5,1.7,5c0,0-4,4.8,1.2,3.9
					c0,0-1.7,9.2,1.9,4.8c3.7-4.5,0.5-5.1,0.3-5.6c0,0,1.3-2.5-2.1-3.6c0,0,5-4-0.9-5.1C731.9,179.3,733.7,174.4,728.6,173.8z"/>
			</g>
			<g transform="matrix(0.4441,0,0,0.39775,0,0)">
				<path class="st1" d="M729.7,173.4C729.7,173.4,729.7,173.4,729.7,173.4c-0.1-0.1-0.1-0.1-0.1-0.2c0-0.1-0.1-0.1-0.2-0.2
					c0-0.1-0.1,0-0.2,0c-0.1,0-0.2,0-0.4,0c-0.5,0.1-1.1,0.7-1.3,0.9c-0.6,0.6-1.3,1.5-1.9,2.4c-0.4,0.7-0.8,1.4-0.9,2.1
					c-0.1,0.4-0.3,1.1-0.2,1.6c0,0.4,0.2,0.8,0.4,1c0.3,0.3,0.7,0.5,1.2,0.4c0.7,0,1.6-0.4,1.9-0.5c0.7-0.3,2-0.5,3-1
					c0.5-0.3,1-0.6,1.2-1.1c0.7-1.2,0.4-2.5-0.3-3.6c-0.5-0.7-1.1-1.3-1.8-1.6C730.1,173.5,729.9,173.5,729.7,173.4z M728.9,174.3
					c-0.2,0.2-0.4,0.3-0.5,0.4c-0.5,0.6-1.1,1.5-1.6,2.3c-0.3,0.6-0.6,1.1-0.6,1.6c0,0.2-0.1,0.5-0.2,0.8c0,0.1,0,0.2,0,0.4
					c0,0.1,0,0.1,0,0.1c0,0,0.1,0,0.2,0c0.2,0,0.3,0,0.5,0c0.5-0.1,1-0.2,1.2-0.3c0.6-0.2,1.7-0.3,2.6-0.6c0.5-0.2,1-0.4,1.2-0.8
					c0.4-0.6,0.2-1.3-0.1-1.9c-0.4-0.8-1.2-1.4-1.8-1.7c-0.1,0-0.2-0.1-0.3-0.1c-0.1,0-0.1-0.1-0.2-0.1
					C729.1,174.4,729,174.4,728.9,174.3z"/>
			</g>
			<g transform="matrix(0.4441,0,0,0.39775,0,0)">
				<path class="st1" d="M731.9,179.5C731.9,179.5,731.9,179.6,731.9,179.5c-0.1,0.1-0.1,0.1-0.2,0.1c0.1,0,0.1,0.2,0.2,0.3
					c0.2,0.2,0.5,0.3,0.7,0.3c0.3,0.1,0.6,0.1,0.9,0.2c0.1,0.1,0.3,0.2,0.4,0.3c0.4,0.6,0.4,1.1,0.1,1.7c-0.3,0.6-0.8,1-1.3,1.4
					c-0.2,0.1-0.5,0.2-0.7,0.3c-0.4,0.1-0.8,0.2-1.3,0.4c-0.4,0.1-0.8,0.3-1.2,0.4c-0.2,0-0.5,0.1-0.7,0c-0.2,0-0.3-0.1-0.4-0.3
					c-0.1-0.2-0.1-0.4,0-0.7c0.2-0.6,0.6-1.6,1-2.3c0.2-0.3,0.4-0.5,0.6-0.7c0.1-0.1,0.2-0.3,0.4-0.3c0.1,0,0.2-0.1,0.3-0.2
					c0-0.1-0.1-0.3-0.2-0.3c-0.3-0.1-0.5-0.1-0.8,0c-0.2,0.1-0.4,0.3-0.6,0.5c-0.7,0.8-1.3,2.1-1.6,3c-0.2,0.5-0.1,1.1,0.1,1.5
					c0.2,0.5,0.6,0.9,1.2,1c0.4,0.1,0.7,0,1.1,0c0.4-0.1,0.9-0.3,1.3-0.4c0.4-0.1,0.9-0.2,1.3-0.4c0.3-0.1,0.6-0.3,0.9-0.5
					c0.8-0.6,1.5-1.4,1.8-2.3c0.2-0.7,0.1-1.4-0.3-2.2c-0.2-0.3-0.5-0.5-0.7-0.7c-0.3-0.2-0.7-0.3-1.1-0.4c-0.2,0-0.4-0.1-0.5-0.1
					c-0.1,0-0.3-0.2-0.4-0.2c-0.2,0-0.4,0-0.5,0.2c-0.1,0.1-0.1,0.4,0,0.5C731.6,179.6,731.8,179.6,731.9,179.5z M731.7,179.6
					L731.7,179.6C731.7,179.6,731.6,179.6,731.7,179.6C731.7,179.6,731.7,179.6,731.7,179.6z M731.7,179.6
					C731.7,179.6,731.7,179.6,731.7,179.6C731.7,179.6,731.7,179.6,731.7,179.6z"/>
			</g>
			<g transform="matrix(0.4441,0,0,0.39775,0,0)">
				<path class="st1" d="M732.3,184.5C732.3,184.5,732.3,184.5,732.3,184.5L732.3,184.5C732.3,184.5,732.3,184.5,732.3,184.5
					c-0.1,0.1-0.1,0-0.2,0c0,0,0,0-0.1,0c-0.1,0.1-0.3,0.1-0.5,0.3c-0.3,0.2-0.6,0.5-1,1c-0.1,0.2-0.6,1.1-0.8,1.8
					c-0.1,0.5,0,1,0.2,1.2c0.5,0.5,1.3,0.8,2.2,0.7c1.1-0.1,2.3-0.6,3-1.2c0.6-0.6,0.7-1.3,0.5-2c-0.2-0.9-1-1.7-1.7-2
					c-0.2,0-0.5-0.2-0.8-0.1C732.6,184.1,732.4,184.2,732.3,184.5L732.3,184.5z M732.6,184.9C732.6,184.9,732.6,184.9,732.6,184.9
					L732.6,184.9C732.7,184.9,732.7,185,732.6,184.9c0.1,0,0.2,0.1,0.2,0.1c0.2,0,0.5,0.2,0.7,0.2c0.4,0.1,0.8,0.6,1,1
					c0.2,0.4,0.2,0.8-0.1,1.1c-0.5,0.4-1.2,0.8-1.9,0.9c-0.7,0.1-1.5,0.1-1.9-0.3c0,0,0.1,0.1,0.1,0.1c-0.4,0.1,0.4-1.5,0.6-1.6
					c0.6-0.7,0.9-0.9,1.2-1.1c0,0,0.1,0,0.1-0.1c0.1-0.1,0-0.1,0.1-0.2C732.5,184.9,732.6,184.9,732.6,184.9L732.6,184.9z"/>
			</g>
			<g transform="matrix(0.4441,0,0,0.39775,0,0)">
				<path class="st1" d="M732.7,194.2c0-0.1-0.2-0.8-0.2-1c-0.1-0.6,0-1.4,0.1-2.2c0.1-0.5,0.3-1,0.5-1.4c0.1-0.1,0.1-0.3,0.2-0.4
					c0,0,0.1,0.1,0.1,0c0.1,0,0.2-0.1,0.2-0.2c0-0.1,0-0.2-0.1-0.2l0,0c0,0-0.1-0.3-0.3-0.3c-0.1-0.1-0.2,0-0.4,0.1
					c-0.2,0.2-0.4,0.4-0.6,0.6c-0.2,0.3-0.3,0.7-0.5,1.1c-0.3,1-0.4,2.2-0.3,3c0,0.4,0.1,1,0.3,1.4c0.2,0.3,0.4,0.5,0.8,0.5
					c0.9,0,1.6-0.5,2.3-1.4c0.9-1.2,1.5-2.9,1.5-3.7c0-0.6-0.1-1.1-0.4-1.5c-0.4-0.6-1.1-0.8-1.7-1c-0.2,0-0.3,0.1-0.4,0.2
					c0,0.2,0.1,0.4,0.2,0.4c0.3,0.1,0.8,0.3,1,0.6c0.2,0.2,0.3,0.6,0.2,1c-0.1,0.7-0.6,2.1-1.3,3.1
					C733.8,193.8,733.3,194.2,732.7,194.2z M733.2,189C733.1,189,733.1,189,733.2,189C733.1,189,733.1,189,733.2,189z"/>
			</g>
		</g>
		<g transform="matrix(0.432481,0.090385,-0.100918,0.387344,265.11,-420.027)">
			<path class="st1" d="M343.9,1208.4c0.3,0.5,0.6,1.2,1.1,1.9c0.4,0.6,0.8,1.1,1.2,1.7c2.1,2.8,4.7,6,6.2,7.7
				c0.3,0.3,0.7,0.3,0.9,0c0.2-0.3,0.2-0.7,0-1c-1.6-1.8-4.7-5.8-7-8.6c-0.7-0.8-1.4-1.5-1.8-2.1c-0.1-0.2-0.3-0.2-0.5-0.1
				C343.8,1208,343.7,1208.2,343.9,1208.4z"/>
		</g>
		<g transform="matrix(0.46258,0,0,0.483366,-96.3224,-182.634)">
			<path class="st1" d="M841.7,557.3c0.1-0.5,0.8-0.9,1.9-1.3c1.6-0.6,4-1.2,7-2.1c4.3-1.2,9.8-3,16.2-5.7c4.1-1.8,7-3.8,9.4-5.2
				c0.8-0.4,1.6-0.8,2.3-1.1c0.4-0.1,0.6-0.5,0.4-0.9c-0.1-0.4-0.5-0.5-0.9-0.4c-0.8,0.3-1.7,0.6-2.6,1.1c-2.4,1.3-5.3,3.3-9.3,5.1
				c-6.3,2.8-11.8,4.5-16,5.9c-3.1,1-5.4,1.8-7,2.5c-1.4,0.6-2.1,1.2-2.2,1.9c0,0.2,0.1,0.3,0.3,0.4
				C841.5,557.5,841.6,557.4,841.7,557.3z"/>
		</g>
		<g transform="matrix(0.4441,0,0,0.39775,0,0)">
			<path class="st0" d="M698.4,198.9c0,0-1.1-7.9-0.3-11.3c0,0-1.9-5.5-0.3-9c1.6-3.5,3.3,9,4.9,10.9c0,0,14.2-10.5,15.9-8.4
				c1.7,2.1-9.8,9.8-10.5,10.8c0,0,13.1-8.8,14.1-7.4c1,1.4-2.6,4.6-3.2,5.4c0,0,3-0.9,0.1,3.4c0,0,2,1.3-3,6.9
				c0,0-6.1,8.9-13.7,9.1L698.4,198.9z"/>
		</g>
		<g>
			<g transform="matrix(0.4441,0,0,0.39775,0,0)">
				<path class="st1" d="M701,191.4c0.3-0.4,0.6-0.7,0.9-1c0.5-0.4,1-0.6,1.6-1c0.3-0.2,0.6-0.5,1-0.8c1.4-1.3,3.2-2.3,5.1-3.3
					c1.9-1,4-1.9,5.8-2.7c0.9-0.4,1.7-0.8,2.5-1.2c0.2-0.1,0.4-0.4,0.3-0.6c-0.1-0.3-0.3-0.4-0.6-0.3c-0.7,0.2-1.5,0.4-2.2,0.6
					c-1.6,0.5-3.4,1.3-5,2.1c-2.5,1.2-4.9,2.7-6.7,4.4c-0.4,0.4-0.7,0.6-1,0.9c-0.4,0.4-0.7,0.9-1.1,1.3c-0.3,0.4-0.7,0.7-1.2,1.2
					c-0.1,0.2-0.1,0.4,0,0.6C700.6,191.6,700.8,191.6,701,191.4z"/>
			</g>
			<g transform="matrix(0.4441,0,0,0.39775,0,0)">
				<path class="st1" d="M718.1,181.7c-0.6,0.7-1.3,1.4-2,2.1c-2.7,2.4-6.2,4.6-9,7.6c-0.3,0.3-0.3,0.8,0,1c0.3,0.3,0.7,0.3,0.9,0
					c2.7-3.2,6-5.4,8.6-8c0.7-0.7,1.4-1.5,2-2.3c0.1-0.2,0.1-0.4,0-0.6C718.4,181.6,718.2,181.6,718.1,181.7z"/>
			</g>
			<g transform="matrix(0.4441,0,0,0.39775,0,0)">
				<path class="st1" d="M707.3,193c0.3,0.2,1,0.2,1.7,0c0.3-0.1,0.6-0.2,1-0.4c1.9-0.9,4.1-2.7,4.8-3.1l7.8-4.8
					c0.2-0.1,0.3-0.4,0.2-0.6c-0.1-0.2-0.3-0.4-0.5-0.3c-1.3,0.4-2.4,0.7-3.5,1.2c-1.5,0.7-3,1.6-4.9,2.7c-0.6,0.4-2.4,1.7-4,2.8
					c-0.5,0.3-0.9,0.6-1.3,0.8c-0.5,0.4-0.8,0.8-1.1,0.7c-0.2-0.1-0.4,0.1-0.4,0.3C707.1,192.7,707.2,192.9,707.3,193z"/>
			</g>
			<g transform="matrix(0.4441,0,0,0.39775,0,0)">
				<path class="st1" d="M722.3,184.5c0,0.1-0.1,0.1-0.1,0.2c0,0.1,0,0.1-0.1,0.2c-0.1,0.5-0.5,1.1-0.9,1.6
					c-0.6,0.8-1.3,1.4-1.7,1.8c-1.8,1.5-3.4,2.8-4.9,4.1c-0.7,0.6-1.4,1.2-2.1,1.8c-0.4,0.4-0.8,0.7-1.2,1.1
					c-0.4,0.4-0.7,0.8-1.1,1.3c-0.2,0.2-0.3,0.5-0.4,0.8c-0.1,0.2-0.1,0.4,0,0.6c0.1,0.1,0.4,0.1,0.5,0c0.2-0.2,0.4-0.3,0.6-0.5
					c0.3-0.3,0.6-0.6,0.8-0.8c1.1-1.2,2.1-2.3,3.2-3.2c1.6-1.4,3.2-2.6,5.1-4.2c0.6-0.5,1.8-1.7,2.5-2.9c0.3-0.5,0.5-1,0.5-1.5
					c0-0.2-0.1-0.3-0.1-0.4c0-0.2-0.2-0.4-0.4-0.3C722.4,184.1,722.3,184.3,722.3,184.5z"/>
			</g>
			<g transform="matrix(0.4441,0,0,0.39775,0,0)">
				<path class="st1" d="M719.6,190.6c-0.1,0.3-0.3,0.5-0.4,0.8c-0.6,1-1.5,1.8-1.7,2c-2.3,2.2-3.1,2.6-4.4,4.1
					c-0.5,0.5-0.9,1.2-1.6,2.2c-0.2,0.2-0.1,0.5,0,0.6c0.2,0.2,0.4,0.2,0.6,0c0.7-0.7,1.3-1.2,1.8-1.6c0.3-0.2,0.5-0.5,0.7-0.7
					c1.1-1,2-1.5,3.9-3.3c0.2-0.2,1.3-1.1,2-2.4c0.4-0.7,0.7-1.5,0.7-2.3c-0.1-0.5-0.2-0.9-0.6-0.9c-0.2,0-0.4-0.1-0.7,0
					c-0.7,0.3-1.9,1.1-2.6,1.7c-0.9,0.7-1.8,1.3-2.6,2c-0.6,0.5-1.2,1.2-1.8,1.8c-0.6,0.6-1.2,1.2-1.7,1.9c-0.1,0.2-0.1,0.4,0,0.6
					s0.4,0.1,0.5,0c0.5-0.6,1.1-1.2,1.7-1.8c0.7-0.6,1.5-1.1,2.2-1.7c0.8-0.6,1.5-1.2,2.3-1.7C718.2,191.3,719.1,190.9,719.6,190.6z
					"/>
			</g>
			<g transform="matrix(0.4441,0,0,0.39775,0,0)">
				<path class="st1" d="M719.1,194.4c-0.3,1.2-1.1,2.3-2,3.3c-1.8,2-3.9,3.7-4.3,4.4c-0.8,1.3-2.6,3.1-4.6,4.4
					c-1.1,0.7-2.2,1.3-3.3,1.5c-0.8,0.2-1.5,0.3-2.2,0.1c-0.3-0.1-0.7,0.1-0.8,0.5c-0.1,0.4,0.1,0.8,0.5,0.8
					c1.6,0.5,3.6,0.1,5.4-0.9c2.7-1.4,5.2-3.9,6.2-5.6c0.4-0.7,2.4-2.3,4-4.4c0.9-1.2,1.6-2.6,1.9-3.9c0-0.2-0.1-0.4-0.3-0.5
					C719.3,194.1,719.1,194.2,719.1,194.4z"/>
			</g>
			<g transform="matrix(0.4441,0,0,0.39775,0,0)">
				<path class="st1" d="M697.7,190.8c0.1-0.3,0.3-0.8,0.3-1l-0.2-3.1c0,0-0.2-1.8-0.3-3.8c0-0.5-0.2-1.1-0.2-1.6
					c0-0.9,0.2-1.8,0.6-2.3c0-0.1,0.1-0.1,0.1-0.1c0,0,0,0,0-0.1c0.1-0.1,0.1,0,0.1,0c0.1,0,0.2,0,0.3,0c-0.1,0-0.2,0-0.3,0.1
					c0.1,0.3,0.2,1,0.4,1.4c0.3,1.1,0.5,2.1,0.6,2.2c0.3,0.6,0.6,1.2,0.8,1.8c0.4,1.1,0.6,2.2,1,3.2c0.3,0.8,0.8,1.4,1.4,2.1
					c0.1,0.1,0.2,0.1,0.3,0c0.1-0.1,0.1-0.2,0-0.3c-0.3-0.7-0.3-1.4-0.5-2.1c-0.2-1.1-0.3-2.2-0.6-3.3c-0.2-0.8-0.5-1.6-0.8-2.4
					c-0.1-0.2-0.6-2.5-1.2-3.5c-0.5-0.9-1.1-1.1-1.6-0.9c-0.2,0.2-0.5,0.3-0.6,0.6c0,0-0.1,0.1-0.1,0.1c0,0.2,0,0.2,0,0.4
					c0,0.2-0.1,0.4-0.1,0.6c-0.1,0.4-0.2,0.9-0.2,1.4c0,0.2,0,0.4,0,0.6c-0.1,0.8-0.3,1.7-0.3,2.6c0,1.7,0.2,3.1,0.2,3.1l0.2,3.2
					c0.1,0.4-0.1,1.2,0,1.4c0.1,0.3,0.2,0.4,0.4,0.3c0.1,0,0.2,0,0.3-0.2C697.9,191.2,697.9,190.9,697.7,190.8L697.7,190.8z
					 M697.7,190.9c0,0.1,0,0.1,0.1,0.1C697.9,191.1,697.8,191,697.7,190.9z M698.2,178.8c-0.1,0-0.1,0-0.2,0
					C698.1,178.9,698.2,178.9,698.2,178.8L698.2,178.8L698.2,178.8z"/>
			</g>
			<g transform="matrix(0.4441,0,0,0.39775,0,0)">
				<path class="st1" d="M697.6,189.8c-0.4,0.6-0.7,1.3-0.8,2.2c-0.2,1.1-0.2,2.3,0,3.4c0.1,0.8,0.3,1.5,0.5,2.2
					c0.5,1.6,1.2,2.8,1.4,3c0.1,0.1,0.2,0.1,0.3,0c0.1-0.1,0.1-0.2,0-0.3c-0.2-0.3-0.4-1.8-0.6-3.7c0-0.4-0.1-0.8-0.1-1.2
					c0-0.4-0.1-0.8-0.1-1.2c-0.1-0.8-0.1-1.6-0.1-2.4c0-0.6,0-1.1,0.1-1.6c0.1-0.2,0-0.4-0.2-0.5
					C697.9,189.5,697.7,189.6,697.6,189.8z"/>
			</g>
		</g>
		<g transform="matrix(0.4441,0,0,0.39775,0,0)">
			<path class="st1" d="M641.3,211.9L641.3,211.9c-0.3,0-0.4,0.2-0.4,0.4c0,0.2,0.2,0.4,0.4,0.4h0.1c0.2,0,0.4-0.2,0.4-0.4
				C641.6,212.1,641.5,211.9,641.3,211.9z"/>
		</g>
		<g transform="matrix(0.496893,0,0,0.44273,-253.192,-94.2065)">
			<path class="st1" d="M1082.6,403.9L1082.6,403.9C1082.5,404,1082.6,404,1082.6,403.9c0.1,0.1,0.1,0.4,0.1,0.6c0,0.8,0,2-0.2,3.6
				c-0.1,1.6-0.3,3.5-0.5,5.5c-0.4,4.2-0.9,9.1-1.2,12.9c-0.1,0.8-0.1,1.6-0.2,2.3c-0.1,1.5-0.1,2.7-0.1,3.5c0,0.3,0.3,0.6,0.6,0.6
				c0.3,0,0.6-0.3,0.6-0.6c0-0.8,0.2-2,0.3-3.4c0.1-1,0.2-2.2,0.3-3.5c0.4-5.1,1-11.6,1.2-16.2c0.1-2.5,0-4.4-0.2-5.3
				c-0.1-0.5-0.3-0.7-0.5-0.8c-0.2-0.1-0.3,0.1-0.4,0.2C1082.4,403.7,1082.4,403.9,1082.6,403.9z M1082.6,403.9
				C1082.6,403.9,1082.6,404,1082.6,403.9L1082.6,403.9L1082.6,403.9L1082.6,403.9C1082.6,403.9,1082.6,403.9,1082.6,403.9z"/>
		</g>
		<g transform="matrix(0.669068,0,0,0.248355,-1156.82,331.838)">
			<path class="st1" d="M2205.3-946.2C2205.3-946.3,2205.3-946.3,2205.3-946.2c0.1-0.4,0-0.8-0.1-0.9c-0.1-0.2-0.2-0.1-0.3,0
				c0,0-0.1,0.1-0.1,0.1c0,0,0,0.1-0.1,0.2c0,0.1,0,0.2-0.1,0.3c0,0.1,0,0.2,0,0.2c-0.1,0.2-0.1,0.1-0.1,0.4c0,0.1,0,0.3,0,0.5
				c0,1.2,0.4,3.2,0.4,4c0,0.8,0.2,1.4,0.5,1.4c0.3,0,0.5-0.6,0.5-1.4c0-0.8-0.4-3.1-0.5-4.4C2205.4-946,2205.4-946.1,2205.3-946.2
				C2205.4-946.3,2205.4-946.3,2205.3-946.2z M2205.2-945.9L2205.2-945.9L2205.2-945.9L2205.2-945.9z"/>
		</g>
		<g transform="matrix(0.4441,0,0,0.39775,0,0)">
			<path class="st1" d="M699.5,146.2L699.5,146.2c-0.2-0.1-0.4,0.1-0.4,0.3c0,0.2,0.1,0.4,0.3,0.5l0,0c0.2,0,0.4-0.1,0.4-0.3
				C699.8,146.5,699.7,146.3,699.5,146.2z"/>
		</g>
		<g transform="matrix(0.4441,0,0,0.39775,0,0)">
			<path class="st1" d="M699.1,146.7c0,0,0,0.1,0.1,0.1c0.1,0.1,0,0.1,0,0.2c0,0,0.1,0,0.1,0c0.4,0.2,1.2,0.4,1.5,0.5
				c0.4,0.1,0.7,0.3,1.1,0.5c0.5,0.3,1,0.6,1.5,0.8c0.4,0.2,0.7,0.3,1.1,0.5c0.3,0.2,0.7,0,0.8-0.3c0.2-0.3,0-0.8-0.3-0.9
				c-0.3-0.2-0.6-0.4-0.9-0.6c-0.3-0.2-0.6-0.3-0.9-0.5c-0.7-0.3-1.3-0.6-2-0.9c-0.3-0.1-1.1-0.4-1.5-0.4c-0.3,0-0.4,0.1-0.4,0.1
				c-0.1,0.1-0.2,0-0.2,0c-0.1,0.2-0.3,0.3-0.2,0.4c0,0.1,0,0.2,0.1,0.2c0,0,0,0.1,0.1,0.1C699,146.7,699.1,146.7,699.1,146.7z"/>
		</g>
		<g transform="matrix(0.4441,0,0,0.39775,0,0)">
			<path class="st1" d="M668.4,145.4l11.7,9.1l-6.8,9.1c0-0.6-13.9-15.6-13.2-19.5c0.5-2.8,9.3-5.9,9.1-5.2
				C669.2,139,669.2,144,668.4,145.4z"/>
		</g>
		<g transform="matrix(0.4441,0,0,0.39775,-0.121194,-0.765389)">
			<path class="st0" d="M666.9,143.8c-0.3,0.2-0.3,0.6,0.1,0.7c0,0.1,0.1,0.2,0.1,0.2c0.2,0.4,1.2,1.3,1.4,1.5
				c0.5,0.5,1,0.9,1.5,1.3c0.5,0.4,1.1,0.7,1.6,1.1c0.2,0.2,0.6,0.2,0.7-0.1c0.2-0.3,0.1-0.6-0.1-0.8c-0.5-0.5-0.9-1-1.4-1.4
				c-0.5-0.4-1-0.8-1.5-1.3c-0.2-0.2-1.1-1-1.6-1.2c-0.1,0-0.2-0.1-0.2-0.1C667.4,143.4,667,143.4,666.9,143.8z"/>
		</g>
		<g transform="matrix(0.430987,0.0273615,-0.0300746,0.379999,121.139,-103.218)">
			<path class="st0" d="M446.4,405.2c0,0-0.1,0.1-0.2,0.1l-0.3,0.4l-0.9,1c-0.5,0.6-1,1.2-1.4,2c-0.3,0.5-0.5,1.1-0.7,1.8
				c0,0.1,0,0.3,0.1,0.4c0.1,0.1,0.2,0,0.2-0.1c0.3-0.7,0.6-1.2,1-1.8c0.4-0.6,0.7-1.2,1.1-1.7l0.8-1.1l0.3-0.4c0,0,0.1,0,0.1-0.1
				l0,0l0,0c0,0,0,0,0,0l0,0C451.2,402.1,452.2,400.4,446.4,405.2z"/>
		</g>
		<g transform="matrix(0.4441,0,0,0.39775,-0.648456,0.184717)">
			<path class="st0" d="M684.3,156.2c0,0.1,0.1,0.1,0.1,0.1c0,0.1,0.1,0.2,0.2,0.3l1.1,1.6c0.1,0.1,0.2,0.1,0.2-0.1
				c0-0.2-0.1-0.5-0.2-0.6l-1.1-1.6c-0.1-0.1-0.2-0.3-0.3-0.4c0,0,0,0,0,0c-0.1,0-0.1,0-0.1,0.1c-0.1,0-0.1,0.2,0,0.4
				C684.2,156.1,684.2,156.1,684.3,156.2z"/>
		</g>
	</g>
	<g id="Gray-Short.svg6" transform="matrix(0.302528,0,0,0.270954,2204.24,649.977)" class="st5">
		<g transform="matrix(1,0,0,1,-236.5,-283.5)" class="st6">
			<g id="head-mono-Gray-Short6">
				<path class="st0" d="M-6090.2-1957c0,0-4.7,20.6,9.3,14.6c0,0,7.8,20.2,14.4,18.2c0,0,5.2,4.7,9.5,5.1c0,0,20.7,21.2,38-11.6
					c6.9-13,2.6-41.6-0.4-52.2c-1.3-4.6-1.5-9.4-1.7-10.7c0,0,8.9-6.2,2.4-9.2c0,0,4.7-7.2,3.8-7.9c-0.9-0.6-31-15.3-45.9-12.1
					c-15,3.3-22.1,5.3-27,12.6c-4.9,7.3-5,3.3-5.9,10.4C-6094.7-1992.7-6096.8-1961.2-6090.2-1957z"/>
				<path id="_xD83D__xDD8D_-Ink14" class="st1" d="M-6040.2-1911.6c-6.3,0.7-13.7-0.9-17.9-6.6c-0.1-0.2-0.2-0.4-0.2-0.6
					c0-0.2,0.1-0.4,0.2-0.6c0.1-0.2,0.3-0.3,0.5-0.3c0.2,0,0.3,0,0.5,0.1l0.4,0.2c2.9,1.8,5.8,3.3,9.1,3.9c3.3,0.7,6.7,0.6,10-0.3
					c6-1.5,10.9-5.4,14.5-10.6c4-5.8,6.4-13.1,7-20.4c0.7-8.8-1-17.6-2.8-26.2c-1.9-9-3.9-18-6.3-26.8c-0.1-0.3-0.1-0.5-0.1-0.7
					c-0.7-0.3-1.4-0.2-2.2,0.1c-1.4,0.5-2.7,1.7-3.8,2.6c-0.4,0.3-0.8,0.7-1.1,0.9c-1.4,1.1-2.9,1.8-4.6,2c-1.8,0.1-3.5-0.5-5.1-1.3
					c-0.8-0.4-1.6-0.8-2.4-1.2c-2.3-1.2-4.6-2.3-7-3c-3.3-1-6.7-1.5-10.2-1.5c-6.1,0.1-12.3,1.8-16,7.6c-1.5,2.3-2.5,5-1.7,7.9
					c0.4,1.6,1.2,3,2.1,4.3l0.3,0.4c0.5,0.7,0.9,1.4,1,2.2c0.1,0.6,0,1.3-0.4,2.1c-0.3,0.5-0.6,0.9-0.9,1.3
					c-0.2,0.3-0.5,0.6-0.7,0.9c-0.4,0.7-0.8,1.4-1.1,2.1c-0.6,1.4-0.8,3-0.9,4.5c-0.1,1.9,0.2,3.7,0.4,5.6c0.2,1.3,0.3,2.6,0.4,3.9
					c0,0.2-0.1,0.4-0.1,0.5c-0.1,0.2-0.3,0.3-0.4,0.3c-0.1,0-0.1,0-0.2,0c0,0.1,0.1,0.3,0.1,0.4c-0.1-0.2-0.2-0.3-0.4-0.5
					c0,0,0,0,0,0c-0.1-0.1-0.2-0.2-0.3-0.4c-0.2-0.2-0.4-0.4-0.6-0.5c-1-0.9-2.3-1.4-3.5-1.4c-1.2,0-2.4,0.4-3.3,1.4
					c-1.8,1.9-2.3,5-2.4,7.6c0,2.7,0.5,5.9,2.6,7.6c0.8,0.7,1.9,1.1,2.9,1.1c0.9,0,1.7-0.3,2.5-0.7c0.2-0.1,0.5-0.2,0.7-0.3
					c0.3-0.1,0.5-0.1,0.8,0c0.3,0.1,0.5,0.3,0.6,0.5c0.2,0.2,0.3,0.5,0.3,0.8c0,0.3,0,0.6-0.1,0.9c0,0.1-0.1,0.1-0.1,0.2l0.5,0.8
					c1.8,3.2,3.6,6.4,5.9,9.2c1.4,1.6,2.8,3.1,4.4,4.4l0.2,0.2c0.1,0.1,0.3,0.2,0.4,0.4c0.5,0.4,1,1,1.5,1c0.2,0,0.3,0,0.4,0
					c0.3,0,0.5-0.1,0.8,0.1c0.2,0.1,0.4,0.3,0.6,0.6c0.1,0.2,0.2,0.5,0.2,0.8c0,0.3-0.1,0.6-0.2,0.8c-0.3,0.5-0.6,0.8-0.9,1
					c-0.4,0.2-0.8,0.2-1.3,0.1c-1.1-0.2-2.3-1.3-3.1-1.9l-0.2-0.1c-1.7-1.5-3.4-3.1-4.8-4.9c-2.5-3.1-4.7-6.8-5.8-10.8
					c-0.8,0.6-1.8,0.9-2.8,0.9c-1.5,0.1-3.1-0.4-4.3-1c-2.6-1.4-4.2-4-4.9-6.9c-0.9-3.5-0.6-7.4,0.5-10.5c0-0.1,0.1-0.2,0.1-0.3
					c-3.3-9.4-4.4-19.9-4.1-29.9c0.1-4.7,0.4-9.6,1.4-14.2c0.4-2.1,1.2-4,2.5-5.6c0.7-0.9,1.6-1.6,2.4-2.4c0.8-0.6,1.5-1.2,2.1-2
					l0.3-0.4c0.1-0.1,0.1-0.2,0.2-0.2c1.1-1.4,2.2-2.7,3.5-3.8c1.5-1.3,3.2-2.3,5-3.1c3.8-1.8,7.9-2.9,12-3.7
					c8.8-1.8,17.8-1.9,26.5,0.6c4,1.2,8,2.8,11.9,4.4c0.4,0.1,0.7,0.3,1.1,0.4c3,1.2,6.1,2.5,9.1,3.7c1.4,0.6,2.8,1.2,4.2,1.7
					c0.3,0.1,0.6,0.4,0.8,0.7c0.2,0.3,0.2,0.7,0.1,1.1c-0.9,2.5-2,4.8-3.3,6.9c0.5,0.4,0.9,0.8,1.2,1.4c0.4,0.7,0.6,1.5,0.6,2.4
					c0.1,2.9-2.3,4.9-4.3,6.3c-0.2,0.1-0.4,0.2-0.5,0.2c1.9,8.1,3.7,16.3,5.3,24.5l0.1,0.6c1.6,8.6,2.6,17.4,1.1,26.1
					c-1.3,7.5-4.3,14.8-9,20.4C-6027.2-1915.8-6033.4-1912.3-6040.2-1911.6z M-6081.5-1961.1c-0.8-2.9-1.3-6.1-0.9-9
					c0.2-1.9,0.7-3.6,1.5-5.3c0.5-0.9,1-1.8,1.7-2.6l0.2-0.3c0.1-0.1,0.2-0.3,0.2-0.4c0-0.1,0-0.2-0.1-0.3c-0.1-0.3-0.3-0.5-0.5-0.8
					c-0.1-0.2-0.2-0.3-0.3-0.5c-1.8-2.7-3.1-6-2.7-9.4c0.4-3.4,2.4-6.5,4.5-8.9c4.6-5.2,11.8-6.4,18.1-6.1c3.7,0.2,7.3,0.9,10.8,2.1
					c1.7,0.6,3.4,1.4,5,2.2l0.4,0.2c0.2,0.1,0.4,0.2,0.6,0.3c1.3,0.7,2.6,1.4,3.9,1.8c2.7,0.7,4.5-0.8,6.5-2.4
					c0.7-0.5,1.3-1.1,2-1.6l0.1-0.1c1.3-0.8,2.8-1.4,4.3-1.4c1.3,0,2.5,0.5,3.5,1.6c0.2,0.2,0.3,0.5,0.4,0.7
					c0.1,0.2,0.2,0.4,0.3,0.6c0.4,1.5,0.7,3,1.1,4.6l0.3-0.2c0.9-0.6,1.8-1.4,2.2-2.4c0.2-0.4,0.1-1.1-0.1-1.6
					c-0.1-0.2-0.2-0.3-0.3-0.4c-0.1-0.1-0.2-0.1-0.3-0.1c-0.3,0-0.6,0-0.9-0.1c-0.3-0.1-0.5-0.4-0.7-0.6c-0.2-0.3-0.2-0.6-0.2-1
					c0-0.3,0.1-0.6,0.4-0.9c1.5-1.9,2.7-4,3.7-6.3l-6.3-2.6c-2.2-0.9-4.5-1.8-6.7-2.8l-1.2-0.5c-4.1-1.7-8.2-3.3-12.4-4.4
					c-8.4-2.1-17.2-1.6-25.6,0.4l-0.5,0.1c-3.5,0.9-7.1,1.9-10.3,3.7c-1.6,0.9-3.1,2-4.4,3.3c-0.6,0.6-1.1,1.3-1.6,1.9
					c-0.7,0.9-1.5,1.8-2.3,2.6l-0.8,0.7c-1.2,1.1-2.3,2.1-2.9,3.8c-0.7,1.7-1,3.7-1.3,5.5c-0.7,4.7-1,9.5-0.9,14.3
					c0,8,1.1,15.9,2.5,23.7c1.1-1.8,2.7-3.1,4.7-3.4c1.3-0.2,2.6,0.1,3.7,0.7C-6082.6-1962.2-6082-1961.7-6081.5-1961.1z
					 M-6083.6-1951.6c-1.5-0.6-3-0.8-4.5-0.5c-0.2,0-0.3,0-0.4-0.1c-0.1-0.1-0.2-0.2-0.3-0.4c-0.1-0.2-0.1-0.4,0-0.5
					c0-0.1,0.1-0.3,0.3-0.4c1.7-0.9,3.5-1.3,5.4-1l0.2,0c0.9,0.2,2.3,0.5,3.3,1.1c0.8,0.5,1.4,1.2,1.5,2.1c0.1,0.5,0,1-0.3,1.3
					c-0.2,0.3-0.6,0.6-1.1,0.6c-0.8,0-1.3-0.4-1.9-0.9c-0.1-0.1-0.1-0.1-0.2-0.2C-6082.3-1950.9-6082.9-1951.3-6083.6-1951.6z"/>
			</g>
		</g>
	</g>
	<g id="Calm.svg5" transform="matrix(0.319302,0,0,0.285977,2217.58,665.375)" class="st5">
		<g transform="matrix(1,0,0,1,-144.5,-146.5)" class="st6">
			<g id="face-Calm5">
				<path id="_xD83D__xDD8D_-Ink15" class="st1" d="M-5842.5-2004.6c-1.6,0.5-3.3,0.6-5,0c-1.5-0.5-3-1.6-4.1-3
					c-1-1.3-1.6-2.8-1.6-4.4c0-0.2,0.1-0.3,0.2-0.5c0.1-0.1,0.2-0.2,0.4-0.3c0.2,0,0.3,0,0.4,0c0.1,0.1,0.2,0.2,0.3,0.3
					c0.2,0.2,0.3,0.5,0.5,0.7c1.3,1.9,2.7,3.3,4.7,3.8c1.1,0.3,2.2,0.2,3.2-0.3c1.1-0.4,2.1-1.2,2.8-2.2c0.3-0.4,0.8-0.6,1.2-0.6
					c0.5,0,0.9,0.2,1.2,0.6c0.3,0.4,0.6,0.9,0.6,1.4c0,0.5-0.1,0.9-0.5,1.4C-5839.3-2006.1-5840.8-2005.1-5842.5-2004.6z
					 M-5842.5-2027.9c1.6,1.1,4.2,3.7,2.4,6.5c-2.1,2.4-5.1-0.4-6.6-1.6c-1.4-1-2.9,1.5-1.6,2.7c10.7,8.8,15-7.3,6.7-8.9
					C-5842.6-2029.4-5843-2028.2-5842.5-2027.9z M-5857.9-2032.8c-0.5-0.4-1.2-0.5-1.8-0.2c-0.5,0.3-1.5,1.2-2.1,2.4
					c-0.4,0.8-0.8,1.8-0.7,2.8c0,0.2-0.1,0.4-0.2,0.5c-0.1,0.1-0.2,0.2-0.4,0.2c-0.1,0-0.3,0-0.4,0c-0.2-0.1-0.4-0.3-0.4-0.4
					c-0.5-1.4-0.3-2.9,0.3-4.3c0.7-1.9,2-3.4,2.8-3.9c1.4-0.9,3.1-0.9,4.5,0c1.2,0.7,2,1.9,2.7,3.2c0.2,0.3,0.3,0.5,0.5,0.8
					c0.3,0.5,0.4,1,0.2,1.4c-0.1,0.5-0.5,0.9-0.9,1.1c-0.4,0.2-0.9,0.2-1.3,0c-0.4-0.2-0.7-0.5-0.9-1.1
					C-5856.6-2031.2-5857.1-2032.2-5857.9-2032.8z M-5831.1-2030.7c-0.4,0.2-0.6,0.3-1,0.1c-0.2-0.1-0.4-0.2-0.6-0.4
					c-0.2-0.2-0.3-0.4-0.3-0.7c-0.1-0.6-0.4-1.3-0.9-1.6c-0.4-0.3-0.9-0.5-1.4-0.4c-0.6,0.1-1.1,0.5-1.5,1c-0.1,0.2-0.2,0.4-0.3,0.5
					c-0.2,0.3-0.4,0.7-0.6,0.9c-0.1,0.1-0.2,0.2-0.4,0.2c-0.1,0-0.1,0-0.2,0c-0.6-0.7-0.7-1.1-0.7-1.6c0-0.5,0.2-1,0.5-1.5
					c0.7-1.1,2-2.1,2.9-2.3c1.2-0.3,2.4,0.1,3.4,0.8c1,0.8,1.7,2,2,3.3c0.1,0.3,0,0.7-0.1,1
					C-5830.6-2031.1-5830.8-2030.8-5831.1-2030.7z M-5855.3-2044.9c-0.7,0.8-1.6,0.9-2.4,1c-0.5,0.1-0.9,0.1-1.2,0.2
					c-1,0.3-2.1,0.7-3,1.2c-1,0.6-2.1,1.3-2.8,2.2c-0.2,0.2-0.4,0.4-0.5,0.7c-0.2,0.2-0.3,0.4-0.5,0.6c-0.2,0.2-0.4,0.5-0.5,0.7
					c-0.1,0.2-0.1,0.2-0.2,0.3c0,0.1-0.1,0.2-0.1,0.3c-0.1,0.1-0.1,0.3-0.2,0.4c-0.1,0.2-0.2,0.3-0.2,0.3c-0.1,0-0.2,0.1-0.3,0.1
					c-0.1,0-0.2-0.1-0.2-0.1c-0.4-0.4-0.5-0.9-0.5-1.5c0-0.9,0.3-2,0.6-2.6c0.7-1.5,1.6-3,2.7-4.1c1.2-1.2,2.6-2.2,4.2-2.8
					c1-0.4,2.1-0.8,3.2-0.7c0.8,0,1.5,0.3,2.1,0.9c0.4,0.4,0.5,0.9,0.5,1.5C-5854.7-2045.9-5854.9-2045.3-5855.3-2044.9z
					 M-5829.6-2037.7c0,0.1-0.1,0.1-0.2,0.2c-0.1,0-0.2,0-0.2,0c-0.1,0-0.2-0.1-0.2-0.1c-0.1-0.1-0.1-0.1-0.1-0.2
					c-0.5-2.4-1.4-4.1-3.4-5.2c-1-0.6-2.1-0.9-3.2-1.2c-0.3-0.1-0.6-0.1-1-0.2c-1-0.2-2.1-0.4-2.8-1.3c-0.4-0.6-0.6-1.3-0.5-1.9
					c0.1-0.6,0.4-1.2,1-1.5c1.5-0.8,3.3,0,4.8,0.7c0.1,0.1,0.2,0.1,0.3,0.2c1.4,0.7,2.8,1.6,3.9,2.9c0.9,1,1.7,2.5,2,4.1
					C-5828.9-2040.1-5829-2038.8-5829.6-2037.7z"/>
			</g>
		</g>
	</g>
</g>
<g class="st5">
	<g transform="matrix(0.4441,0,0,0.39775,-345.369,-236.477)" class="st6">
		<g id="Gray-Short.svg" transform="matrix(0.681216,0,0,0.681216,1361.69,1133.76)">
			<g transform="matrix(1,0,0,1,-236.5,-283.5)">
				<g id="head-mono-Gray-Short">
					<path id="_xD83D__xDD8D_-Ink" class="st7" d="M-473.8-374.7c-6.3,0.7-13.7-0.9-17.9-6.6c-0.1-0.2-0.2-0.4-0.2-0.5
						c0-0.2,0.1-0.4,0.2-0.6c0.1-0.2,0.3-0.3,0.5-0.3c0.2,0,0.3,0,0.5,0.1l0.4,0.2c2.9,1.8,5.8,3.3,9.1,3.9c3.3,0.7,6.7,0.6,10-0.2
						c6-1.5,10.9-5.4,14.5-10.6c4-5.8,6.4-13,7-20.4c0.7-8.9-1-17.6-2.8-26.2c-1.9-9-3.9-18-6.3-26.8c-0.1-0.3-0.1-0.5-0.1-0.8
						c-0.7-0.3-1.5-0.2-2.2,0.1c-1.4,0.5-2.7,1.7-3.8,2.6c-0.4,0.3-0.8,0.7-1.1,0.9c-1.4,1.1-2.9,1.8-4.6,2
						c-1.8,0.1-3.5-0.5-5.1-1.3c-0.8-0.4-1.6-0.8-2.4-1.2c-2.3-1.1-4.5-2.3-7-3c-3.3-1-6.7-1.5-10.2-1.5c-6.1,0.1-12.3,1.8-16,7.6
						c-1.5,2.3-2.5,5-1.7,7.9c0.4,1.6,1.2,3,2.1,4.3l0.3,0.5c0.5,0.7,0.9,1.4,1,2.2c0.1,0.6,0,1.3-0.4,2.1c-0.3,0.5-0.6,0.9-0.9,1.3
						c-0.2,0.3-0.5,0.6-0.7,0.9c-0.4,0.6-0.8,1.4-1.1,2.1c-0.6,1.4-0.8,3-0.8,4.5c-0.1,1.9,0.2,3.7,0.4,5.6c0.2,1.3,0.3,2.6,0.4,3.9
						c0,0.2,0,0.4-0.1,0.5c-0.1,0.2-0.3,0.2-0.5,0.3c0,0-0.1,0-0.2,0c0,0.1,0,0.2,0.1,0.4c-0.1-0.2-0.2-0.3-0.4-0.5c0,0,0,0,0,0
						c-0.1-0.1-0.2-0.2-0.3-0.4c-0.2-0.2-0.4-0.4-0.6-0.5c-1-0.9-2.3-1.4-3.5-1.4c-1.2,0-2.4,0.4-3.3,1.4c-1.8,1.9-2.3,5-2.4,7.6
						c0,2.7,0.5,5.9,2.6,7.6c0.8,0.7,1.9,1.1,2.9,1.1c0.9,0,1.7-0.3,2.5-0.6c0.2-0.1,0.5-0.2,0.8-0.3c0.3-0.1,0.5-0.1,0.8,0
						c0.2,0.1,0.5,0.3,0.6,0.5c0.2,0.2,0.3,0.5,0.3,0.8c0,0.3,0,0.6-0.1,0.9c0,0.1-0.1,0.1-0.1,0.2l0.5,0.9c1.8,3.2,3.6,6.4,5.9,9.2
						c1.4,1.6,2.8,3.1,4.4,4.4l0.2,0.2c0.1,0.1,0.3,0.2,0.5,0.4c0.5,0.4,1,1,1.5,1c0.1,0,0.3,0,0.4,0c0.3,0,0.5-0.1,0.8,0
						c0.2,0.1,0.4,0.2,0.6,0.6c0.1,0.2,0.2,0.5,0.2,0.8c0,0.3-0.1,0.6-0.2,0.8c-0.3,0.5-0.6,0.8-0.9,1c-0.4,0.2-0.8,0.2-1.3,0.1
						c-1.1-0.2-2.3-1.3-3.1-1.9l-0.1-0.1c-1.7-1.5-3.4-3.1-4.8-4.9c-2.5-3.1-4.7-6.8-5.8-10.8c-0.8,0.6-1.8,0.9-2.8,0.9
						c-1.5,0.1-3.1-0.4-4.3-1c-2.6-1.4-4.2-4-4.9-6.9c-0.8-3.5-0.6-7.4,0.5-10.5c0-0.1,0.1-0.2,0.1-0.3c-3.3-9.4-4.3-19.9-4.1-29.9
						c0.1-4.7,0.4-9.6,1.4-14.2c0.5-2.1,1.2-4,2.5-5.6c0.7-0.9,1.6-1.6,2.4-2.4c0.8-0.6,1.5-1.2,2.1-2l0.3-0.4
						c0.1-0.1,0.1-0.2,0.2-0.2c1.1-1.4,2.2-2.7,3.5-3.8c1.5-1.3,3.2-2.3,5-3.1c3.8-1.8,7.9-2.9,12-3.7c8.8-1.8,17.8-1.9,26.5,0.6
						c4,1.2,8,2.8,11.9,4.4c0.4,0.1,0.7,0.3,1.1,0.5c3,1.2,6.1,2.5,9.1,3.7c1.4,0.6,2.8,1.2,4.2,1.7c0.3,0.1,0.6,0.4,0.8,0.7
						c0.2,0.3,0.2,0.7,0.1,1.1c-0.9,2.5-2,4.8-3.3,6.9c0.5,0.4,0.9,0.8,1.1,1.4c0.4,0.7,0.6,1.5,0.6,2.4c0,2.9-2.3,4.9-4.3,6.3
						c-0.2,0.1-0.4,0.2-0.5,0.2c1.9,8.1,3.7,16.3,5.3,24.5l0.1,0.6c1.6,8.6,2.6,17.4,1.1,26.1c-1.3,7.5-4.3,14.8-9,20.4
						C-460.9-378.9-467.1-375.4-473.8-374.7z M-515.2-424.2c-0.8-2.9-1.3-6.1-0.9-9c0.2-1.9,0.7-3.6,1.5-5.3c0.5-0.9,1-1.8,1.7-2.6
						l0.2-0.3c0.1-0.1,0.2-0.3,0.2-0.4c0-0.1,0-0.2,0-0.3c-0.1-0.3-0.3-0.5-0.5-0.8c-0.1-0.2-0.2-0.3-0.3-0.5
						c-1.8-2.7-3.2-6-2.7-9.4c0.4-3.4,2.4-6.5,4.5-8.9c4.6-5.2,11.8-6.4,18.1-6.1c3.7,0.2,7.3,0.9,10.8,2.1c1.7,0.6,3.4,1.4,5,2.2
						l0.4,0.2c0.2,0.1,0.4,0.2,0.6,0.3c1.3,0.7,2.6,1.4,4,1.8c2.7,0.7,4.5-0.8,6.5-2.4c0.7-0.5,1.3-1.1,2-1.6l0.1-0.1
						c1.3-0.8,2.8-1.4,4.3-1.4c1.3,0,2.5,0.5,3.5,1.6c0.2,0.2,0.3,0.5,0.4,0.7c0.1,0.2,0.2,0.4,0.3,0.6c0.4,1.5,0.7,3,1.1,4.5
						l0.3-0.2c0.9-0.6,1.8-1.4,2.2-2.4c0.2-0.4,0.1-1.1-0.1-1.6c-0.1-0.2-0.2-0.3-0.3-0.4c-0.1-0.1-0.2-0.1-0.4-0.1
						c-0.3,0-0.6,0-0.9-0.1c-0.3-0.1-0.5-0.4-0.7-0.6c-0.2-0.3-0.2-0.6-0.2-1c0-0.3,0.1-0.6,0.4-0.9c1.5-1.9,2.7-4,3.7-6.3l-6.3-2.6
						c-2.2-0.9-4.5-1.9-6.7-2.8l-1.2-0.5c-4.1-1.7-8.2-3.3-12.4-4.4c-8.4-2.1-17.2-1.6-25.6,0.4l-0.5,0.1c-3.5,0.9-7.1,1.9-10.3,3.7
						c-1.6,0.9-3.1,2-4.4,3.3c-0.6,0.6-1.1,1.3-1.6,1.9c-0.7,0.9-1.5,1.8-2.3,2.6l-0.8,0.7c-1.2,1.1-2.3,2.1-2.9,3.8
						c-0.7,1.7-1,3.7-1.3,5.5c-0.7,4.7-1,9.5-0.9,14.3c0,8,1.1,15.9,2.5,23.7c1.1-1.8,2.7-3.1,4.7-3.4c1.3-0.2,2.6,0.1,3.7,0.7
						C-516.2-425.3-515.7-424.8-515.2-424.2z M-517.2-414.7c-1.5-0.6-3-0.8-4.5-0.5c-0.2,0-0.3,0-0.4-0.1c-0.1-0.1-0.2-0.2-0.3-0.4
						c-0.1-0.2-0.1-0.4,0-0.5c0-0.1,0.1-0.3,0.3-0.4c1.7-0.9,3.5-1.3,5.4-1l0.2,0c0.9,0.2,2.3,0.5,3.3,1.1c0.8,0.5,1.3,1.2,1.5,2.1
						c0.1,0.5,0,1-0.3,1.3c-0.2,0.4-0.6,0.6-1.1,0.6c-0.8,0-1.3-0.4-1.9-0.9c-0.1-0.1-0.2-0.1-0.2-0.2
						C-516-414-516.6-414.4-517.2-414.7z"/>
				</g>
			</g>
		</g>
		<g id="Eyes-Closed.svg" transform="matrix(0.734096,0,0,0.734096,1398.38,1156.31)">
			<g transform="matrix(1,0,0,1,-144.5,-146.5)">
				<g id="face-Eyes-Closed">
					<path id="_xD83D__xDD8D_-Ink1" class="st7" d="M-558.4-520.4l0.2,0c1.2-0.3,2.4-0.8,3.5,0.1c1.1,0.8,1.2,2.3,0.4,3.3
						c-0.9,1.1-2,1-3.2,1h-0.1c-1,0-2,0-3-0.1c-0.9-0.1-1.9-0.2-2.8-0.4l-0.5-0.1c-0.5-0.1-1.1-0.3-1.4-0.9c-0.5-1,3.2-1.9,3.6-2
						C-560.6-519.9-559.5-520.1-558.4-520.4z M-556.3-533c-0.6,0.7-1.4,1.2-2.2,1.4c-2.2,0.7-5,0.3-6.8-0.4
						c-0.4-0.2-0.7-0.5-0.9-0.9c-0.2-0.4-0.2-0.8-0.1-1.2c0-0.1,0.1-0.2,0.1-0.4c0.1-0.3,0.4-0.6,0.7-0.7c0.3-0.2,0.7-0.2,1-0.1
						c0,0,0.1,0,0.1,0c1.1,0.4,3,1.1,4.5,0.9c0.9-0.1,1.7-0.4,2.2-1.4c0.2-0.5,0.2-1,0-1.4c-0.3-0.7-0.9-1.3-1.4-1.7
						c-0.7-0.6-1.5-0.8-2.2-1c-0.3-0.1-0.6-0.2-0.9-0.3c-0.1,0-0.2-0.1-0.2-0.2s-0.1-0.2-0.1-0.3s0-0.2,0-0.3c0-0.1,0.1-0.2,0.2-0.2
						c1.5-0.8,3.5-0.3,5,0.9c0.7,0.6,1.4,1.4,1.7,2.2c0.3,0.8,0.5,1.7,0.4,2.6C-555.4-534.4-555.8-533.6-556.3-533z M-581.3-550
						c0.4-0.2,0.8,0.8,0.9,1l0.2,0.6c0.3,0.9,0.6,1.8,1.3,2.5c0.5,0.6,1.4,1,2,0.4c0.6-0.6,0.3-1.3,0.4-2.1c0.2-1.4,1.8-2.8,2.8-1.3
						c2.3,3.2-1.2,7.8-4.5,7c-1.7-0.4-3-1.9-3.5-3.6l0-0.1C-582.2-546.8-582.5-549.4-581.3-550z M-551.9-547.7L-551.9-547.7
						c-1.1-2.8,2.8-4,3.1-1.5l0,0.2c0.3,2.8-0.3,6.5-3.4,6.7c-3.4,0.3-4.8-3.9-4.5-7c0-0.5,0.7-0.6,0.8-0.1l0,0.1
						c0.5,1.6,1.1,4.5,3,4.5C-551.4-544.8-551.5-546.7-551.9-547.7z M-549.4-555.7c2-0.1,1.9,3.3,0,3.4c-6.5,0.2-13,0.4-19.5,0.4
						l-1.2,0c-6.1,0-12.2,0.1-18.3-0.4c-0.5,0-0.4-0.9,0-0.8c6.4-1,12.8-1.3,19.3-1.7C-562.5-555.2-556-555.4-549.4-555.7z"/>
				</g>
			</g>
		</g>
	</g>
</g>
</svg>
