<?xml version="1.0" encoding="utf-8"?>
<!-- Generator: Adobe Illustrator 24.2.0, SVG Export Plug-In . SVG Version: 6.00 Build 0)  -->
<svg version="1.1" id="图层_1" xmlns="http://www.w3.org/2000/svg" xmlns:xlink="http://www.w3.org/1999/xlink" x="0px" y="0px"
	 viewBox="0 0 818 733" style="enable-background:new 0 0 818 733;" xml:space="preserve">
<style type="text/css">
	.st0{display:none;}
	.st1{display:inline;fill-rule:evenodd;clip-rule:evenodd;fill:#FFFFFF;}
	.st2{display:inline;fill-rule:evenodd;clip-rule:evenodd;}
	.st3{fill-rule:evenodd;clip-rule:evenodd;fill:#FFFFFF;}
	.st4{fill-rule:evenodd;clip-rule:evenodd;}
	.st5{display:inline;}
</style>
<desc>Created with Sketch.</desc>
<g id="body_x2F_mono_x2F_Tee-1" class="st0">
	<path id="_xD83C__xDFA8_-Background" class="st1" d="M774.3,553c-4-22.8-7.7-45.6-11.1-68.5c-1.6-10.9-3.1-21.7-4.5-32.6
		c-1-7.6-2.5-16.4,2.7-22c7.3-8,13.9-14.8,14.8-26.1c0.8-10.7-2.8-22.4-5-32.8c-4.8-21.8-10.7-43.4-17.2-64.7
		c-6.6-21.7-13.9-43.2-21.3-64.6c-6.9-20-13.5-40.3-22.5-59.5c-17.1-36.5-46-63.5-81.6-81.6c-8.9-4.5-27-20.5-36.3-24.1
		c-8.5-3.3-8.5,6.3-16.9,2.7c-6.7-2.9-13-6.8-16.7-13.2c-4.1-7-14.3-16.9-15.9-25.1c-3.3-17.4,0.3-32.1-12.1-45.2
		c-11-11.6-25.8-19.5-41.1-23.8c-33.6-9.4-78.5-2.8-98.8,28.4c-9.7,14.9-13.1,33-26.2,45.1c-11.4,10.6-8.9,17.9-23.7,23.4
		c-0.8,0.3-23.5-4.6-24.4-4.2c-16.2-3.5-31.6,6.2-46.5,11.9c-22.1,8.4-43.2,19.3-63,32.3c-39.9,26.2-74.1,60.1-102.3,98.6
		c-28.4,38.7-50.5,82.2-66.2,127.6c-3.8,11-7.2,22.2-10.3,33.5c-1.7,6.3-3.5,12.8-1.4,19.3c1.7,5.3,5.4,9.2,9.8,12.4
		c6,4.3,17.9,7.1,17.7,15.7c-0.2,6.6-2.4,13.5-3.5,20c-1.3,7.7-2.4,15.5-3.4,23.3c-4.8,35.3-8.6,70.9-10.3,106.5
		c-1.6,35.1-3,70.9-0.6,106c0.2,2.3,0.9,4.4,2,6.2c-1,0.4-1.1,2.3,0.2,2.6c0.9,0.2,1.8,0.4,2.7,0.6c1.9,1.4,4.2,2.3,6.9,2.4
		c1.8,0.1,3.7,0.1,5.5,0.2c19.3,4,38.6,7.8,58.2,10.7c23.8,3.5,47.6,6.4,71.5,8.7c49.1,4.8,97.9,3.2,147.1,0.6
		c49.1-2.6,98.2-3.2,147.4-1.9c49.2,1.3,98.4,3.4,147.6,4.3c55,1,109.9-0.5,164.8-4.9c7.5-0.6,12.2-6.6,10.7-14
		C792.3,642.4,782.2,598,774.3,553z"/>
	<path id="_xD83D__xDD8D_-Ink" class="st2" d="M301.2,63.6c5.1-0.2,10.3,0.6,15.3,1.1c0.4,0,0.6,0.7,0.1,0.8
		c-9.1,1.9-18.1,4.5-27,7.1l-3.8,1.1c-10.1,3-19.8,6-29.6,10c-19.4,7.9-37.8,18.6-54.8,30.8C136.2,161.8,89,233.3,59.1,307.3
		C51,327.4,44.2,348,38.6,369c-1.4,5.1-2.6,10.2-3.8,15.3c-0.4,1.5-1.9,5.4-1.1,6.9c0.7,1.4,3.7,2.2,5,2.9l4.6,2.4
		c8.9,4.6,23.7,12.1,25.2,12.9l2.3,1.1c37.9,18.6,78.4,34.3,121.1,35.4l0.3-3.6l0,0c1.9-20.1,4.4-40.4,9.8-59.9
		c0.3-1,1.6-0.7,1.8,0.2c3,23.1,2.1,46.4,1,69.6c-1.9,41.1-4.4,82.2-6.6,123.3c-1.1,20.6-2.5,41.1-3.8,61.7
		c-1.3,20.6-1.7,41.7-4.7,62.1c-0.7,4.6-6,7-10,6.5c-4.5-0.5-7.9-4.5-7.9-9c-0.1-11.9,1.4-23.9,2.3-35.8c0.8-11.3,1.6-22.5,2.5-33.8
		c3.2-41.1,6.8-82.2,10.2-123.3c1.2-14.6,2.5-29.2,3.8-43.7c-45.2-1.5-87.4-18.2-127.7-37.8c-0.6,13.2-2,26.5-3.4,39.6
		c-3.8,36.8-7.2,73.6-9.7,110.5c-1.3,18.6-2.2,37.3-3,56c-0.4,9.2-0.7,18.3-1,27.5c-0.1,3.1-0.2,6.1-0.2,9.2l-0.1,7
		c-0.1,4.4-0.6,8.6-4.3,11.8c-3.8,3.3-8.9,3.5-12.7,0c-5-4.6-4.1-10.9-4-17.2c0.1-5.2,0.3-10.5,0.4-15.7c0.3-10.5,0.8-21,1.3-31.5
		c1.9-36.6,5.7-73.1,10.6-109.5l1.9-14c3.6-26.1,7.5-52.8,15.6-77.9c-3.1-1.6-6.2-3.1-9.3-4.7c-5.5-2.8-11.2-5.4-16.6-8.5
		c-4.2-2.4-7.9-5.8-9.1-10.7c-1.3-5.5,0.7-11.5,2-16.9l0.1-0.5c1.3-5.4,2.7-10.8,4.2-16.2c6.1-21.7,13.5-43.1,22.3-63.8
		c17.5-41.6,40.2-81.2,67.8-116.9c24.9-32.2,54.3-61.4,88.7-83.3c16.8-10.7,34.8-19.5,53.8-25.7c8.9-2.9,18.5-5.4,27.8-6.5
		C291.2,64.1,296.2,63.8,301.2,63.6z M391.3-2.4c6-6.5,18.1,0.2,15.1,8.8c-6.8,20.2-17.7,38.7-34.7,51.9
		c-15.9,12.5-35,20.6-55.4,18.9c-0.2,0-0.3-0.1-0.4-0.1l1.8,2.4c13.9,18.7,28.5,37.2,46.1,52.5c35.9,31.2,84.8,48,132,36.1
		c37.1-9.4,69.8-38.8,79.5-76.2c-1.4,0.6-3,0.8-4.8,0.4c-7.7-1.7-15.3-9.8-20.3-15.6c-5.4-6.3-9.6-13.1-12.6-20.7
		c-5.6-14-7.4-32.1,0.3-45.7c0.9-1.7,3.1-0.7,3.3,0.9l0.3,2.6c1.5,12.7,3.3,25.1,9.3,36.7c2.9,5.7,6.5,11.2,10.7,16
		c2.3,2.5,4.8,5,7.5,7.1c2.6,2.1,5.8,3.6,8.1,6l0.4,0.5l0-0.1c0.6-5,4.1-7.3,7.6-7.1c3.3,0.1,7.3,1.6,8.8,2.3l0.1,0.1
		c23.4,11.2,44.9,25.8,65.1,42c41.9,33.5,73.2,77.3,88.4,129c7.5,25.3,11.7,51.4,16.3,77.4l2.8,15.9c4.2,24,8.9,48.4,18.4,70.7
		c2.5,5.8,0.6,11.2-5.5,13.5c-7.5,2.8-15.1,5.6-22.7,8.3c3.7,16,6,32.5,8.8,48.5c5.9,34.1,13.2,68,19.4,102
		c3.2,17.4,6.1,34.9,9.2,52.3c1.5,8.4,3.1,16.8,4.7,25.1c0.8,4.5,1.6,9.1,2.4,13.6l0.1,0.8c0.5,2.4,1,4.9,0.4,7.2
		c-0.7,2.7-2.9,4.6-4.8,6.6c-1.6,1.6-3.8,1.6-5.7,0.7l-0.6-0.3c-3.4-1.6-6.1-3.2-7.3-7.1c-0.8-2.4-1-5.2-1.5-7.7
		c-1-4.8-1.9-9.7-2.7-14.5c-1.7-9.7-3.4-19.4-5.1-29.1l-1.5-9.1c-5.3-31.3-10.3-62.8-12.8-94.5c-1.1-14-2.3-28.1-3.5-42.1l-0.9-10.5
		c-1.1-13.3-2.5-27-2.7-40.5l-4.5,1.6l0,0l-22.1,7.8l0,0c-5.5,1.9-12.5,5.9-18.4,5.2c-2.9-0.4-5.1-1.3-6.8-2.9
		c2,28.7,4.8,57.4,8.5,86c3.3,26,7,51.9,11.4,77.7c2.2,12.8,4.4,25.6,6.8,38.3c1.2,6.4,2.5,12.7,3.7,19.1c0.6,3.2,1.4,6.3,1.9,9.5
		c0.6,3.7-0.4,5.9-2.5,8.9c-1.7,2.5-5,3.7-7.8,2c-3.6-2.3-5.5-4.2-6.5-8.3c-1-3.7-1.6-7.7-2.3-11.4c-1.4-7-2.7-14-4-21
		c-2.7-14.7-5.2-29.4-7.4-44.1c-7.8-52-12.7-104.4-15.2-156.9c-1.2-25.9-1.6-51.8-1.4-77.7c0.1-13.3,0.5-26.6,1.5-39.9
		c1-13.4,2.9-26.6,4.7-39.9c0.1-0.5,0.7-0.5,0.8,0c0.8,14.9,2.1,29.8,2.8,44.7c0.6,14.3,0.9,28.5,1.4,42.8
		c0.6,18.7,1.5,37.5,2.7,56.2c2.1-2.3,5.3-3.7,8.6-3.1c4.7-1,9.7-3.4,14.1-4.9l16.7-5.6l0,0c8.8-2.9,17.6-5.9,26.4-8.7
		c-7.9-26.6-13.3-53.5-17.9-80.8l-2.1-12.3c-4.1-24.2-8.5-48.4-15.9-71.9c-7.8-24.6-19.4-47.6-34.8-68.3
		c-15.2-20.4-33.7-38.5-52.7-55.3c-16.3-14.4-33.7-27.4-50.3-41.5c0.2,0.9,0.2,2,0.1,3.1c-3.5,25.9-17,49.9-35.8,67.8
		c-37.8,36-93.6,43.4-142,26.6c-46.7-16.3-88.1-55-102.7-102.8c-0.2-0.8,0.8-1.1,1.3-0.5c0.8,1.1,1.6,2.2,2.4,3.3
		c-0.1-0.4,0.2-0.9,0.7-1.1c17-6.6,33.8-15.9,46.5-29.1c6.2-6.4,11.7-13.7,15.9-21.6c2.1-3.8,3.9-7.7,5.4-11.7l0.4-1
		C386.1,6.7,387.6,1.6,391.3-2.4z"/>
</g>
<g>
	<g transform="matrix(0.596206,0,0,1.52689,-378.208,-774.394)">
		<path class="st3" d="M1142.5,466.3l-0.8,0.6c-5.3,4.1-5.7,7.4-4.5,8.9c1.4,1.6,4,2.8,7.5,3.6c4.4,1,10.9,1.3,18.6,0
			c2-0.3,4.2-0.9,6.6-1.5c0.1,0.2,0.2,0.4,0.3,0.5c0.8,1.4,2.5,2.4,4.6,3c-0.6,1.3-0.8,2.5-0.5,3.3c0.6,1.7,2.5,2.8,4.3,3.5
			c0.2,0.8,0.6,1.3,1,1.6c0.3,0.3,0.6,0.5,1,0.7c-1,1.3-1.8,2.6-2.2,3.7c-0.9,2.3-0.6,4.1,0.5,5.5c1.1,1.4,13.3,5.9,24.2,1.6
			c-2.8,4-5.1,8-6.2,12.1c-0.5,2,1.2,3,1.9,3.5c2.9,1.7,6.9,2.4,11.4,2.2c2-0.1,5.9-0.3,9.2-2c1.5-0.7,5.4-4.1,7.1-5.5
			c1.7-1.4,5.1-4.1,9.6-7.2c2.8,0.1,6.1,0,9.6-0.5c-2,2.4-3.4,4.6-3.8,6.1c-1.2,4.9,5.6,7.2,11.6,7.7c1.9,0.2,4.1,0.2,6.4,0.1
			c-0.3,1.2,0,2.2,0.5,2.9c-0.8,0.9-1.6,1.7-2,2.1c-1.2,1.4-0.8,2.4-0.7,2.5c0.2,0.5,16.4,7.2,23.9,0.8l3.2-3.1
			c1.2-0.3,2.4-0.8,3.6-1.3c3.5-1.5,8.3-4.5,13.4-8.1c7.5-4.9,15.5-11.2,22-17.2c6.7-6.2,11.7-12.1,13.1-16.1
			c1.1-3.1-0.1-5.5-2.1-6.9c-3.6-2.6-8.7-3-13.2-2.9c-1.2,0-2.5,0.1-3.8,0.3c-1.3-0.1-2.7-0.1-4.3,0.1c0.9-0.5,1.6-1,2-1.3
			c2.2-1.6,1.8-2.9,1.6-3.3c-1.1-3-5.6-4.3-12.7-4.3c-1,0-4.7-0.1-9.1,1.4c-0.6-0.5-1.4-1-2.4-1.4c1.3-1,2.3-1.8,3.1-2.6
			c1.1-1.1,1.6-4,0.9-4.6c-1.3-1.2-3.7-1.7-6.2-1.9c-1.7-0.2-4.8-0.2-8,1c-2.2,0.8-4.6,1.9-7.2,3.3c-5.7-0.7-13.7,0-20.8,3
			c-0.5,0.2-1,0.4-1.5,0.7c-0.3-0.9-0.8-1.8-1.5-2.6c-0.4-0.4-0.8-0.8-1.3-1.2c1.6-1.6,2.9-3.2,3.3-4.2c0.7-2-0.5-3.6-2-4.6
			c-1.7-1.1-4.1-2.2-7.7-2.7c1.3-1.7,1.6-3.3,1.1-4.9c0.6-4.9-10.4-6.9-10.8-6.9c-1.3-0.1-2.9-0.1-4.5-0.1l-0.4,0
			c-3.8-0.9-8.6-1.3-14.6-0.9c-10.2,0.8-28.9,6-44.6,12.5c-12.6,5.2-23.3,11.1-26.8,15.2C1141.4,462.5,1141.3,464.6,1142.5,466.3z
			 M1258.4,507.5c-1.1-0.1-2.2-0.2-1.9,0.1C1257,508,1257.6,507.8,1258.4,507.5z"/>
	</g>
	<g transform="matrix(0.616817,0,0,1.57968,-410.843,-838.166)">
		<path class="st4" d="M1251.6,522.9c0.9-0.3,1.9-0.7,0.9-0.7C1251.7,522.2,1251.5,522.5,1251.6,522.9c-0.4,0.2-0.8,0.3-0.9,0.4
			c-2,1.5-6,0.9-9.4,1.2c-1.3,0.1-1.6-0.8-3.2-0.6c-1.5,0.2,0.8-1-1.3-0.7c-1.1,0.1,2-0.7,0.3-0.7c-0.9,0,1-0.3,1-0.3
			s0.1-0.1,1.6-0.1c1,1,4,1.5,6.6,1.1c2.6-0.4,3.9-1.6,2.8-2.6c5-2,0-1.2,1.3-2.2c0.6-0.5-1-0.1-0.8-0.5c0.5-1.3-2.6-0.3-4.3-1
			c-2.7-1.1-8.8,0.1-12.8,3.2c-1.9,1.5-3.2,6.1-3.6,6.8l-9,13.8c-3.6,1.7-2.9,4.3,1.6,5.7c4.4,1.4,11,1.1,14.5-0.6
			c4.7-1.2,8.2-2.5,11.5-4.1c1.4-0.7,2.3-1.5,3.1-2.3c4-3.9,4.7-8.1,4-12.4C1254.5,526.6,1251.8,524.2,1251.6,522.9z"/>
		<path class="st4" d="M1490.5,552.9c-2.7,0.5-2.7,0.3-4.8,1.2c-0.8,0.4-0.8,1-1,1.5c-1.3,3.1,0.3,6.9,2.4,11
			c3.9,7.5,11.1,16.1,18.5,22.8c2.2,2,4.7,3.7,6.7,5.2c1.9,2,7.5,3,12.5,2.2c5-0.7,7.6-2.9,5.7-4.9c-0.6-1.2-1-2.4-2-3.7
			c-7-9.3-20.4-22.3-23.2-31c-0.3-0.9-0.3-1.7-1.1-2.4c-1.2-1-2-0.5-3.8-1.2c0.6-1.1-1.2-2.1-4-2.3
			C1493.7,551.1,1491,551.8,1490.5,552.9z"/>
		<path class="st4" d="M1200.6,530.7c-2.6,0.9-4.8,1.8-6.4,2.9c-13.1,8.5,1.2,19.2,25.4,29.2c43.1,17.9,125,35.9,149.1,48.4
			c3.2,1.6,9.3,2,13.5,0.7c4.2-1.3,5-3.6,1.8-5.3c-25-12.5-108.3-30.4-152.9-48.1c-17.4-6.9-28.9-13.6-26.1-20.2c0.4-1,1.4-2,2.3-3
			c0.6-0.7,0.8-1.5,1.5-2.3c1.6-0.9,1.1-2.1-1.2-2.8C1205.4,529.6,1202.2,529.8,1200.6,530.7z"/>
		<path class="st4" d="M1258.7,649.7c-14.2-8.8-31.6-31.8-34.2-34.1c-16.2-15-63.8-33-90.6-47.7c-7.8-4.3-13.8-8.2-16-11.7
			c-0.9-1.5,1.4-3.5,4.7-5.8c6.6-4.7,18.4-10.2,31.8-15c15.3-5.5,32.6-10.2,47.3-11.3c2-0.2,4-0.2,5.9-0.3c2.3-0.1,3.9-0.5,6.1-0.5
			c2.6,0.4,5.5-0.2,6.5-1.2c1-1-0.4-2.2-3-2.5c-2.6-0.8-5.3-1.3-8.8-1.6c-18.4-1.6-44.5,4.8-66.1,12.1
			c-15.4,5.2-28.5,11.5-35.9,16.8c-6.1,4.4-8.1,8.3-6.3,11.1c2.7,4.1,9.6,9,19,14.1c26.1,14.3,72.5,31.8,88.2,46.4
			c2.3,2.2,16.6,22.2,29.8,32.7c4.3,3.4,8.9,5.9,12.7,7.1c4.4,1.4,8.8,1.6,12.7,1.4c2.6-0.2,8.2-1.6,13.6-4.7
			c10.3-6,29.1-19.7,51-29.4c3.7-1.6,7.5-3.2,11.3-4.5c6-2.2,11.7-4.2,18.2-5.1c4.2-0.4,6.8-2.1,5.7-3.7c-1.1-1.6-5.3-2.7-9.6-2.2
			c-9.3,0.5-18.7,2.2-27.8,4.8c-4.9,1.4-9.5,3.2-14.1,5.1c-19.9,8.3-36.6,20-47.7,27.2C1261.7,647.9,1260.1,648.8,1258.7,649.7z"/>
		<path class="st4" d="M1522.3,643.5c-8.9-3.1-18-6.4-27.9-9.1c-6.3-1.7-12.9-3-19.6-4.2c-2.7-0.7-6.3-0.4-8,0.7
			c-1.7,1.1-0.9,2.4,1.8,3.1c5.4,1.7,10.2,3.7,15.7,5.5c12.8,4.3,26.5,8.3,39.4,12.3l7.6,4.3c1.8,1.3,5.7,1.9,9.2,1.4
			c3.5-0.5,5.6-1.9,5-3.3l-2.5-5.1c-3.4-4.9-6.7-9.3-6.8-13.8c-0.1-2.7,1.2-5.4,4.3-8.3c6.7-6.5,35.5-16,50-23.6
			c6.2-3.3,10-6.4,10.3-8.8c0.7-4.6-3.5-8.6-10.4-12.2c-8.8-4.6-22-8.7-32-12.8c-2.9-1.2-5.2-2.4-7.6-3.6c-1.1-0.6-2.5-0.9-3.6-1.5
			c-0.8-1-3.7-1.6-6.3-1.3c-2.7,0.3-4.1,1.4-3.3,2.5c0,1,0.2,1.8,1,2.7c1.4,1.8,4.6,3.5,8,5.1c8.9,4.3,22.1,8.1,30.4,12.7
			c4.3,2.4,7.3,4.9,6.7,7.9c-0.3,1.5-3.4,3.2-7.2,5.2c-15.5,8-45.6,18.1-52.9,25c-3.9,4-5.3,7.6-4.9,11.1
			C1519.1,638.1,1520.4,640.7,1522.3,643.5z"/>
		<path class="st4" d="M1539,586.5c-2.3-0.1-4.7-0.9-5.8-2.6c0.7,0.7,2.5,1.2,4.5,1.2c0.7,0,1.5,0,2.1-0.2c0.6-0.9,1.3-1.4,2.3-1.3
			l0.5,0.1c-0.5,0.5-1.5,1-2.8,1.2C1539.6,585.5,1539.3,586,1539,586.5c4.8,0.3,9.6-1.8,3.7-2.7c0.2-0.2,0.3-0.4,0.3-0.6
			c0.6-1.2-0.8-1.8-1.2-2c-1.1-0.7-6.2-1.6-9.6,0.7c-1.7,1.2-5.4,6.2-7.6,8.1c-2.1,2-4.6,3.9-7.3,5.8c-4.1,2.9-8.7,5.6-13.3,8.4
			c-15,8.8-29.6,16.3-42.1,24.5c-6,4-11.9,8-16.4,12.6c-1.8,1.9-3.2,3.8-4.6,5.8c-1.4,1.6,0.8,3.3,5,3.9c4.1,0.5,8.6-0.3,9.9-1.9
			c1.8-1.8,3.9-3.5,5.8-5.2c4.7-4.2,9.2-8.2,14.6-11.9c11.8-8.2,25.6-15.8,39.8-24.7c4.6-2.9,9.1-5.8,13.1-8.9
			c2.7-2.1,5.3-4.2,7.4-6.4C1537.6,590.9,1538.2,588.5,1539,586.5z"/>
		<path class="st4" d="M1384.8,616.8l-0.3-0.2c-1-1-3.9-1.5-6.5-1.1c-2.6,0.4-3.8,1.6-2.7,2.5l0.2,0.2c1.1,1,4,1.5,6.6,1.1
			C1384.6,618.9,1385.8,617.8,1384.8,616.8z"/>
		<path class="st4" d="M1383.5,615.6c0.7-0.3,1-0.5-0.1-0.6c0.2-0.4,0.1-0.9-0.5-1.3c-1.3-1-4.3-1.3-6.8-0.8c-0.4,0.1-2.9,1-3,2.7
			c-0.1,2.1,0.6,7.3,0.4,7.8c-3.8,12.5,0.5,19.7,8.4,24.8c13.1,8.6,38.4,11.1,57.1,26.5c2.6,2.1,4,4.5,4.9,6.9c1,2.9,1,5.9,1.4,8.9
			c0.3,2.2,0.5,4.3,1.6,6.3c0.8,1.5,2.1,2.7,3.4,4c0.4,1.5,3.9,2.6,7.9,2.4c3.9-0.2,6.7-1.5,6.3-3.1c0.5-1.1,1.6-2.1,1.9-3.3
			c1.1-4.4,0.4-9.1-0.6-13.6c-1-4.4-3.6-8.5-8.5-12.2c-20.8-15.5-46.4-18-61.1-26.5c-7.4-4.3-11.5-10.2-10.4-20.9
			C1385.8,623.2,1383.9,617.8,1383.5,615.6z M1383.4,615L1383.4,615c-0.1,0-0.1,0.1-0.1,0.2c-0.3,0.4-0.8,0.7-1.6,1
			c0.6-0.2,1.3-0.4,1.7-0.6v-0.1c0-0.1-0.1-0.2-0.2-0.3L1383.4,615L1383.4,615z"/>
		<path class="st4" d="M1356.2,643.9c0.1-0.2,0.3-0.4-0.2-0.3C1355.8,643.7,1355.9,643.8,1356.2,643.9l-0.1,0.2l-0.1,0.1
			c0-0.6-0.6-1.1-1.7-1.5c-0.7-0.6-8.3-0.7-8.1,2.8c0,0.4-0.1,0.9,0.3,1.7c0.5,0.9,1.7,2,3.3,3.3c6.2,5,19.3,12.4,34.2,18
			c3.4,1.3,8.7,1.2,12-0.1c3.2-1.3,3.2-3.4-0.2-4.7c-10.1-3.9-18.4-8.8-25.2-12.8c-4.1-2.4-7.4-4.5-10.2-5.8
			C1359,644.5,1356.9,644.1,1356.2,643.9z M1355.1,645.3c-0.3,0.5-1.1,0.8-2.7,0.8c0.9-0.1,1.7-0.3,2.3-0.6
			C1354.9,645.4,1355,645.3,1355.1,645.3z M1356,644.2c0,0.2-0.2,0.4-0.4,0.7C1355.9,644.7,1356.2,644.5,1356,644.2z"/>
	</g>
	<g transform="matrix(0.536696,0,0,1.52689,-300.462,-782.611)">
		<path class="st3" d="M1172.4,497.5l-1-0.2c-5.6-1-10.2-0.7-13.9,0.1c-2.6,0.5-5.5,1.6-6.9,3.4c-0.4,0-0.7,0.1-1.1,0.1
			c-1.5,0.2-3,0.4-4.6,0.9c-1-0.1-1.9-0.1-2.9-0.1c-0.3-0.2-0.5-0.4-0.8-0.6c-2.1-1.1-4.8-1.7-7.3-2c-2.1-0.2-4.4-0.4-6.9-0.2
			c-2.4-0.1-4.7,0-7,0.3c-2,0.3-4.9,0.9-6.7,2.4c-4.2,0-8.3,0.6-10.9,2.6c-0.2,0.2-0.4,0.3-0.6,0.5c-0.3,0.1-0.5,0.3-0.7,0.4
			c-1.2,0.8-2,2.1-1.7,3.6c0.1,0.4,0.3,0.9,0.6,1.4c-1.5,0.6-3.4,1.9-2.8,3.6c0.7,2,5.8,6.7,6,6.9l10,8.9c2.6,2.4,11.1,5.6,18,6.9
			c1.7,0.3,3.4,0.5,4.9,0.6c1.4,1.1,2.9,2.2,4.4,3.2c3.5,3.2,7,6.3,10.7,9.4c0.2,0.2,1.1,1,2.3,2.1c-1.7,2.2-2.1,5-1.4,7.9
			c0.6,2.6,1.9,5.4,3.5,8l-8.4,8.1l-7.7,6.9c-0.6,0.9,0.1,2.3,2.9,3.5c-0.7,1.2,0.1,2.1,0.8,2.5c-1.8,2-3.5,4.1-5.1,6.1
			c-1.4,1.8-4.4,4.8-5.9,7.5c-0.8,1.6-1.2,3-0.8,4.3c0.5,1.5,7.4,4.1,14,3.3l0.1,0.1l0.1,0l-0.6,2.3c-0.2,0.7-0.3,1.3-0.3,1.6
			c0,0.4,0,0.6,0.1,0.8c1.4,4,11.6,3.5,14.3,3.2c2.7-0.3,6.1-1.2,9-2.7l-0.1,0.3c-0.8,1.6-6.7,9.4-7.8,14.4
			c-0.6,2.4,0.3,4.4,1.7,5.5c1.4,1.1,3.4,1.7,5.3,2c-0.1,3.5,0.9,5.9,3,6.7l-1.6,3.8c-0.4,1-1.1,3.5-1,4.2c0.2,1.4,2,2.2,2.8,2.5
			c3.4,1.4,7.4,1.7,11.7,1.2c1-0.1,5.1-0.4,7.2-2.4c1.4-0.4,3.1-1,4.2-2.1c1.1-1.2,2.2-2.4,3-3.6c2.1,0,4.4-0.3,7-1.1
			c-0.2,1.9,1.3,3.7,2.7,4.6c1.9,1.2,4.4,1.7,5.3,1.8c4.7,0.7,8.2,0.2,10.9-0.7c0.8-0.3,3.3-1.1,2.9-2.8c0.6-0.2,1.3-0.4,1.8-0.7
			c2.3-1.1,5.3-4,7.6-6.6c0.6-0.3,1.2-0.6,1.7-1c0.5-0.2,0.9-0.4,1.3-0.6c2.4-1.3,5.2-3.5,6.2-4.5l8.3-9.7l17.4-25.7l0.7-1.3
			l3.6-4.4c2.4-1.7,4.3-3.7,5.8-5.9c0.5-0.8,1-1.6,1.4-2.5l1.3-1.7l1.7-2.3l0.1-0.1c1.2,0,2.4,0,3.6-0.2c1.6-0.2,4.7-0.6,6.5-2.1
			c0.6-0.5,1.6-2.9,2.1-3.9l0.7-2.1c0.5-0.2,1.9-0.8,2.3-2c0.2-0.6,0.6-2.9,0.8-3.8c0.1-0.6,0-1.6-0.1-2.7c0.9-3.2,2.2-6.3,2.8-9.5
			c0.1-0.7,0.2-1.4,0.3-2.1l0.4-1.3c2.1-2.8,4-5.5,5.7-8.3c0.2-0.3,0.3-0.5,0.3-0.5c0.3-0.8-0.2-1.2-0.4-1.4
			c-0.1-0.1-0.2-0.2-0.3-0.3c0.9-0.9,1.8-1.8,2.1-2.2c0.8-0.9,0.5-1.5,0.4-1.6c-0.1-0.1-1.3-0.7-3.2-1.2c4.3-14.6-4.6-20.1-19.2,2.2
			l-0.9,1.6c-0.8,0.5-1.8,1.4-2.3,1.8l-0.3,0.3l-0.8-0.2l-1-0.2c0.8-1.5,1.3-2.9,1.5-4c0.6-2.8-2.1-4.6-3.8-5.2
			c-1.8-0.6-3.6-1-5.5-1.2l1.2-1.8c1.1-1.9,2.5-6.7,1.5-7.7c-1.4-1.4-4.1-2.1-6.5-2.5c-1-0.1-2.2-0.3-3.7-0.3
			c-1.7-2.8-8.9-2.7-15.4-1.2l0-0.8c0-0.3,0-0.7-0.1-1l-0.1-1.1l0.3-0.4c0.6-1,2.2-3.4,2.5-4.1c0.4-0.8,0.2-1.4,0.1-1.5
			c-0.1-0.3-4.8-1.9-10-2.6c0.2-1.5,0.3-3.4-0.5-4.7c-1.3-2.1-4.9-3.4-8.3-3.9c-3.5-0.6-6.7-0.6-9.5-0.3c-3.4-2.1-8.9-2.8-16.5-2.2
			c-3,0.3-6.6,1-9.4,2.4c-0.2,0.1-0.4,0.2-0.6,0.3c-2-1.8-5.7-2.7-7.6-2.9c-0.7-0.1-1.5-0.2-2.2-0.3c-3.1-0.7-6.2-0.9-9-0.7
			C1178.7,495.5,1175.1,496,1172.4,497.5z M1175.7,544.5c0.8,0.9,1.9,2.2,3.2,3.8c1.1,0,2.2,0,3.4,0.1c0.9-0.5,1.8-1,2.5-1.3
			c1-0.5,2.1-0.8,3.2-1.1l0.3-0.4c-0.6-0.2-1.1-0.3-1.6-0.5l-0.1-0.1l-0.6,0.1c-1.9,0.2-4.9,0.3-8.3-0.1
			C1177.1,544.8,1176.4,544.7,1175.7,544.5z M1117.6,528.8c1.8,0.8,3.9,1.1,5.4,1.3c1.3,0.2,2.6,0.2,4,0.3l0.8,0.4l0.1,0.1
			C1126.6,532.9,1123.7,533.1,1117.6,528.8z"/>
	</g>
	<g transform="matrix(0.596206,0,0,1.52689,-378.208,-774.394)">
		<path class="st3" d="M1160.9,438.5l-3,4.7c-0.4,0.7-1.5,2.1-1.4,2.8c0,0.4,0.2,0.7,0.4,1c-0.5,0.9-1,1.9-1,2.2
			c0,3.4,5.8,4.1,10.2,3.9c1.5,0.2,3.1,0.1,4.9-0.1c0.8-0.1,4-0.1,6.3-1.7c0.5-0.3,0.9-0.7,1.3-1l-0.2,0c-0.7-0.1,0.8-0.8,1-1l0,0
			l0.3,0.1l0,0l-0.8,0.7l-0.4,0.3c3.8,0.5,3.3-0.1,1.1-1c0.6-0.5,1.1-1.1,1.7-1.7h0l0.1-0.1l0.3-0.4l0.2-0.3l0.1,0v0l-0.4,0.4
			l-0.3,0.2l-0.1,0.1c1.7,0.1,1.6-0.3,0.7-0.7l0.3-0.3c1.3-1.4,2.3-2.9,3.3-4.4l6.9-8.1c0.3-0.3,2.2-2.5,2.5-3.5
			c0.1-0.2,0.1-0.3,0.1-0.5c0.1-0.1,0.1-0.2,0.2-0.3c0.1-0.3,0.1-0.5,0.1-0.7c0.1-0.3,0.1-0.5,0.1-0.7c-0.1-0.4-0.2-0.7-0.4-1
			c0.2-1.1-0.1-2.8-0.6-3.1c-1.2-0.8-2.9-1.5-5.4-1.8c-0.6-0.3-1.2-0.5-1.8-0.7c-1.9-0.6-7.9-2.1-13.9,0.7c-2.9,1.3-5.2,3.2-6.9,5.3
			c-2.7,3.5-4,7.8-5.5,10.4L1160.9,438.5z"/>
	</g>
	<g transform="matrix(0.596206,0,0,1.52689,-378.208,-774.394)">
		<path class="st3" d="M1137.5,424.1c-1.5,0.1-2.9,0.3-4,0.6c-1.3,0.3-2.6,0.8-3.7,1.4c-0.2,0.1-0.5,0.3-0.8,0.5
			c-0.3,0.1-0.5,0.1-0.7,0.2c-1,0.3-4,2.4-4.9,3.3l-3,3l-1.6,1.8c-1.9,1.5-3.8,3-5.1,4.4c-2,2.2-3,4.2-2.5,6c0.2,0.8,0.8,1.5,1.6,2
			c0.3,0.8,1,1.3,1.4,1.5c2.7,1.6,6.2,2.2,11,1.7c0.8-0.1,3.9-0.3,6.2-1.9c3.2-2.3,5.8-4.9,7.7-7.7l8.4-8l-0.1,0.1l0,0
			c0,0-1.2,0.6-3,1.6l-0.2,0.1l-0.1,0c0.4-0.4,0.8-0.8,1-1.2l0.1-0.2l1.9-1.7l0.2-0.2c0.7-0.2,1.1-0.3,0.7-0.5
			c0.8-0.6,1.8-1.3,2-1.7c0.7-1.2-0.3-2.2-1.3-3c-1.5-1.1-4.3-2-9.4-2.1C1138.8,424.1,1138.2,424.1,1137.5,424.1z M1147.9,430.9
			c-0.1-0.1-0.4-0.2-0.8-0.3c-0.4-0.1-0.7,0-1,0.1c0,0.3-0.1,0.6-0.2,0.9c0.5-0.1,0.9-0.1,1.3-0.2l0.5-0.4L1147.9,430.9z"/>
	</g>
	<g transform="matrix(0.632926,0,0,1.62093,-433.078,-888.007)">
		<g transform="matrix(1.03107,-0.330832,0.24138,0.752286,-350.99,733.13)">
			<path class="st4" d="M1316.1,382.7c-2.7-1.7-9.6-1-12.3-0.8c-35,3-88-12.6-138.4-26.4c-22.3-6.1-44.3-12.2-64.1-15.7
				c-19-3.3-36-4.2-50.3-2c-49.8,9.6-75.6,34.3-87.9,66.2c-12.6,32.9-11.4,73.2-8.8,111.4c1,13.6,1.3,26.6,3.1,39.6
				c0.5,3.5,1.6,7,2.4,10.4c-0.1,3.7,5,8.7,11.5,11.2c6.5,2.5,11.9,1.4,12-2.3c1-2.9,2.2-5.6,2.8-8.8c2-11.7,1-25.2,0.7-38.7
				c-0.8-36.2-3.2-75.4,8-107.7c10.2-29.4,30.9-53.5,74.8-63.6c16.1-4.4,38.4-2.6,63.2,1.8c11.4,2,23.2,4.3,35.3,7.2
				c51.9,12.3,107.2,29.4,143.3,25.8c3.8-0.4,13.3,1.8,15.1,0.8c1.4-0.8,1.7-2.1,0.4-4.2c-1.5-2.3-5.1-4.4-8.2-4.6
				C1317.6,382.2,1316.7,382.4,1316.1,382.7z"/>
		</g>
		<path class="st4" d="M807.7,865.2c-1.1,0.2-2.1,0.5-3.3,0.6c-1.1,0.1-2.1,0-3.3-0.1c-1.1,0-2.6-0.4-2.2-0.7
			c0.3-0.2,1.2-0.7,1.6-0.4c-0.4-0.1,0.8-0.2,0.8-0.4c0.1-0.7,1.2-1.4,2.2-2.2c5.1-4.1,16.6-9.2,29.3-14
			c21.7-8.2,47.1-15.7,53.8-17.1c6.9-1.5,9.5-4.9,5.7-7.6c-3.8-2.7-12.5-3.7-19.4-2.2c-11.1,2.4-70.3,20.6-88.6,33.8
			c-9.9,7.1-8.9,13.1,2.7,16.3c4.3,0.7,7.6,1.5,11.1,1c4.3-0.6,6.9-1.5,10.8-2.6c0.9-0.3,2.1-0.4,3.1-0.6c2.7-0.5,4-1.7,2.9-2.8
			C813.6,865.2,810.4,864.7,807.7,865.2z"/>
		<g transform="matrix(0.952186,-0.30552,0.30552,0.952186,-345.234,388.974)">
			<path class="st4" d="M969.7,806.5c8.7,9.2,9.5,17.8,11.2,27.1c1.6,8.9,4.1,18.4,11.9,29c8.9,12,24.9,25.4,56.1,41.1
				c32.3,16.3,67.5,23.4,99.8,24.9c46.3,2.1,86.4-7.8,102.5-18.4c47.8-31.6,121.4-82.8,185.4-128.1c10.7-7.6,21.3-15,31.1-22.3
				c16.7-12.4,31.4-24.2,44.7-34.2c1.2-0.8,0-2.5-2.8-3.7c-2.7-1.2-5.9-1.6-7.1-0.7c-16.3,10.4-35.6,22.2-55.3,35.5
				c-71.1,48.2-155.7,111.1-209.7,147.3c-14.8,10-52.2,19.4-95.4,17.6c-28-1.1-58.6-7-86.8-21.1c-28.1-14-42.7-26-50.8-36.7
				c-7.5-10-9.2-18.8-11.5-27.4c-2.7-10.2-6.1-19.9-16.6-29.7c-1.1-1.1-3.5-2-5.3-2C969.2,804.6,968.6,805.4,969.7,806.5z"/>
		</g>
		<g transform="matrix(0.952186,-0.30552,0.30552,0.952186,-337.719,378.829)">
			<path class="st4" d="M1051.5,821.6c-0.1,0.1-0.1,0.2-0.2,0.3c-0.6,1.1,5.4,4.8,8.1,2.3c0.6-0.5,1.8-1.6,3.2-3.3
				c6.1-7.5,17.7-25.6,33.1-31.1c10.1-3.7,20.5-8,30.8-12.4c14.9-6.4,29.8-13.4,43.5-19.9c20.1-9.6,40.2-17.6,60.7-24.8
				c40.7-14.3,83.4-25,127.5-38.9c10.3-3.2,20.3-6.8,30.7-10.5c1.5-0.5,1-1.8-1-3c-2.1-1.2-4.9-1.8-6.4-1.3
				c-14.3,4.2-28.5,8-42.1,11.8c-34,9.6-65.5,18.7-96.5,28.8c-28.3,9.2-55.8,19.5-83.1,32.6c-13.7,6.6-28.3,13.5-43.2,20
				c-10.2,4.4-20.4,8.7-30.4,12.4c-11.7,4.4-21.9,15.6-28.1,24.7c-3.3,4.9-5.6,9-6.4,11.1C1051.5,821,1051.5,821.5,1051.5,821.6z
				 M1058.8,823.4c-0.6-0.7-1.8-1.4-3.3-1.9l-0.2-0.1C1056.7,821.8,1058.2,822.4,1058.8,823.4z"/>
		</g>
		<g transform="matrix(0.69397,-0.720004,0.720004,0.69397,-588.21,1251.33)">
			<path class="st4" d="M1698.8,828.2L1698.8,828.2c1.1,0.8,0.4,0-0.5-1.1c0-1,0.6-2.3,0.8-3.9c0.3-3.9,1.1-9.2,1.5-15.2
				c1.1-15.1,1.6-33.9,1.5-37.3c-0.6-28.8,6.1-50.6,21.5-58.3c1.4-0.7,3.3-0.8,4.9-1.4c6.6-2.4,13-4.1,20.4-3.7
				c7.2,0.3,14.5,1.7,22.8,5.7c1.3,0.7,2,0.3,1.6-0.9c-0.4-1.2-1.8-2.8-3.1-3.5c-9.8-5.9-19.3-9.9-28-11.3c-8.7-1.4-16.9-0.7-23,3.2
				c-1.4,0.9-2.2,2.3-3.5,3.4c-13,11.3-23.3,30.2-23,59.9c0.1,3.1-1.2,18.2-1.5,32.9c-0.1,5.2,0.1,10.4,0.2,14.8
				c0.2,5.4,0.6,9.7,0.9,11.9c0.5,2.9,3,5.4,3.5,5.8c1.7,1.3,3,1.4,3.1,0.2C1699,829,1698.9,828.6,1698.8,828.2z M1697.9,826.8
				c0.1,0.2,0.2,0.3,0.4,0.5c0,0.4,0.2,0.7,0.5,0.9c-0.1-0.3-0.3-0.6-0.5-0.9l0-0.1l0,0L1697.9,826.8z"/>
		</g>
		<g transform="matrix(0.880764,-0.473556,0.473556,0.880764,-444.805,750.559)">
			<path class="st4" d="M1520.5,570c-0.5,0.2-0.7,0.5,0.5,1l-0.2-0.4L1520.5,570c0.1,0,0.3-0.1,0.5-0.1c0.2,0.5,0.6,1.4,0.2,1.2
				l-0.1-0.1l0.2,0.4c0.2,0.3,0.2,0.4,0.3,0.5c2.6,3.3,6.3,4.1,7.2,4.2c0.2,0,3.1,0.5,2.2-1.5c-0.1-0.2-0.4-0.8-0.7-1.3
				c0.2,0.3,0.4,0.6,0.5,0.9c-0.6-1.4-0.8-2.7-0.9-4c0.1-0.1,0.1-0.1,0.1-0.2c0.1-0.2,0-0.5-0.1-0.8c0.1-2.2,0.7-4.2,1.5-6.2
				c2.2-5.4,6.3-10.2,8.4-14.7c2.7-6.7,8.5-12.2,16.6-16.1c8.1-3.9,18.4-6.3,31.6-5.6c1.8,0.1,3.7,0.3,5.8,0.7
				c5.2,0.9,10.9,2.4,16.1,3.3c1.5,0.3,2.1-0.3,1.4-1.4c-0.7-1-2.5-2.1-4.1-2.4c-5.5-1.2-11.3-3-16.8-4.3c-2.6-0.6-5-1-7.4-1.3
				c-15.1-1.6-27.9-0.4-37.5,3.3c-9.5,3.7-15.8,9.8-19,16.8c-2.2,5.5-7.5,11.2-8.1,18.5C1518.1,563,1518.7,566.4,1520.5,570z"/>
		</g>
		<g transform="matrix(0.69397,-0.720004,0.720004,0.69397,-588.21,1251.33)">
			<path class="st4" d="M1780,804.3c2.3-4.1,3.8-8.3,5.3-12.2c4.4-11,7.1-20,17.6-21.3c5.9-0.7,14.7,1.8,27.5,7
				c4.2,1.7,8.6,3.4,13.7,5.7c2.9,1.4,4.3,0.2,3.1-2.6c-1.1-2.8-4.3-6.2-7.2-7.6c-5.6-2.9-10.7-5.4-15.1-7.2
				c-14.7-6-23.7-6.7-29.9-5.2c-10.3,2.6-11.7,13.5-15.7,26c-1.3,4-3,7.9-5.3,11.9c-0.5,0.8,0.5,2.7,2.1,4.2
				C1777.9,804.5,1779.6,805.1,1780,804.3z"/>
		</g>
		<g transform="matrix(0.69397,-0.720004,0.720004,0.69397,-586.019,1253.51)">
			<path class="st4" d="M1790,923c1.6,1.6,3.1,2.7,5.4,4c1.3,0.8,2.4,1,3.8,1.5c4.5,1.5,10.1,2.4,15.8,2.2c1.8-0.1,3.6-0.4,5.4-0.7
				c18.8-3.4,38.9-14.2,41.9-19.1c2.7-4.5,4-8.9,4.4-13.5c1.1-11.5-3.4-23.3-0.6-37.6c1.5-9.7,10.2-19.4,12.7-29
				c1-3.9,1-7.9-0.4-11.7c-2.1-5.7-4-10.5-5.8-13.9c-1.3-2.5-2.8-4.5-4.3-5.9c-1.8-1.7-3.6-2.5-4.2-1.7c-0.6,0.8,0.4,2.8,2.1,4.5
				l4.3,12.7c0.8,2.7,0,4.9-1.2,7.5c-3.8,8.6-13.8,17.2-16.3,26.3c-3.2,14.2,1.1,26-0.3,37.4c-0.5,3.9-1.7,7.7-4.1,11.6
				c-2.2,3.4-14.1,9.4-27.1,13.9c-6.5,2.3-13.5,3.9-19.3,5c-4.2,0.8-7.8,1.2-10.7,1.1c-1,0-1,0.9-1.9,0.5c-1.8-1.2-3.1-1.2-3,0.1
				C1786.7,919.6,1788.2,921.7,1790,923z"/>
		</g>
		<g transform="matrix(0.69397,-0.720004,0.720004,0.69397,-588.21,1251.33)">
			<path class="st4" d="M1699.1,767.2c-1.4-1.5-2.3-4.6-3.5-8c-2-5.8-3.6-12.1-4.5-14.3l-7.4-20l-6.1-16.4c-8-21-10-32-6.8-34.2
				c1.4-0.9,4.1,0.8,7.7,4.3c6.2,6.1,14.4,16.6,23.7,30.7c1.3,2,3.5,3.7,4.9,3.9c1.4,0.1,1.5-1.3,0.2-3.3
				c-10.5-15.7-19.8-27.4-26.8-34.2c-7.5-7.3-12.9-9.9-15.8-7.9c-3.5,2.5-2.3,14.2,6.8,37.8l6.2,16.4l7.5,20.1
				c1.1,2.9,3.6,12.7,6.5,19.4c1.3,3.1,3,5.8,4.4,7.4c1.5,1.7,3.3,2.7,4.1,2.2C1701.1,770.5,1700.5,768.8,1699.1,767.2z"/>
		</g>
		<g transform="matrix(0.880764,-0.473556,0.473556,0.880764,-444.805,750.559)">
			<path class="st4" d="M1644.7,569.9c-0.8,0-2-0.1-2.4,0.1l-4.2,2.1l-9.2,7.4c-3.5,4.4-6.3,9.6-8,15.3c-1.7,5.7-2.4,12-1.6,18.5
				c0.1,0.9,1.6,2.2,3.4,3c1.8,0.7,3.1,0.6,3-0.3c-0.7-6.3,0.1-12.3,1.8-17.8c1.8-5.5,4.6-10.5,8-14.8l9-6.9l3.6-1.8
				c0.5-0.2,2.2,0.2,2.8,0.1c0.8-0.1,1-0.5,1-0.9c0-0.7-0.5-1.7-2.8-3.1C1647.4,569.6,1645.4,569.2,1644.7,569.9L1644.7,569.9z
				 M1646.6,572.8L1646.6,572.8L1646.6,572.8L1646.6,572.8z"/>
		</g>
	</g>
	<g transform="matrix(0.616817,0,0,1.57968,-410.843,-838.166)">
		<path class="st4" d="M933.5,647.9c-1.3,0.4-2.3,1.2-3,2.6c-1.3,2.9,1.4,8.9,5,16.4c8.8,18.5,26.1,46.8,34.7,62.6
			c1.4,2.7,3,4.9,3.7,6.7c0.5,1.8,4.8,3.1,9.4,2.9c4.7-0.2,8.1-1.9,7.6-3.7c-0.1-1.6-0.3-3.4-1.1-5.6c-1.3-3.5-4.1-7.7-7-12.3
			c-10.8-17.2-27.4-40.4-36.2-55.2c-2.8-4.7-4.9-8.4-5.5-10.8c-0.1-0.6-0.1-1-0.2-1.4c-0.1-0.3-1.2-0.2-1.1-0.3
			c1.3-0.7,1-1.7-0.7-2.2C937.3,647.1,934.8,647.2,933.5,647.9z"/>
	</g>
	<g transform="matrix(0.663698,0,0,1.69974,-446.313,-1084.46)">
		<g transform="matrix(1.11646,0,0,1.10522,-230.379,-137.527)">
			<path class="st4" d="M1690.4,815.7c1.8-0.3,6.9-1,11.7-1.5c15.9-1.8,41.4-4.1,64.9-6.1c25.6-2.2,48.7-4.2,54.4-4.6
				c77.4-5.2,156.1-10.8,235-14.2c52.5-2.2,105.1-3.5,157.5-3c11.4,0.2,44.1-1.1,72.5-1c11.9,0.1,23,0.4,31.1,1.3
				c3.1,0.3,5.7,0.6,6.9,1.2c2.8,1.6,1.7,5.2,0.7,9.1c-1.7,6.8-6.2,14.3-7.8,17c-13.4,23.2-22.8,46.9-35,70.3
				c-3,5.8-6.2,11.6-9.6,17.4c-10.2,17.2-17.3,48.6-37.3,72.7c-9,10.8-20.3,20.1-36.7,25.5c-10.9,3.5-35.7,6.1-65.1,8.2
				c-61,4.3-141.2,5.8-170.9,7c-87.3,3.5-178.5,8.9-268.1,12.1c-38.5,1.4-76.8,2.4-114.3,2.6c-51.8,0.2-102.1-1.6-150.5-5.4
				c-33.2-2.6-65.5-5.8-96.5-11c-4-0.8-8.8-0.1-10.7,1.5c-1.9,1.6-0.2,3.5,3.8,4.2c31,6.6,63.5,11.8,97.8,15.2
				c49.6,4.9,102.3,6.3,156.2,6.3c38.4,0,77.5-0.8,116.8-2.3c89.7-3.4,180.7-9.8,268.1-14c29.9-1.4,110.5-3.9,171.9-8.4
				c33.7-2.5,61.9-5.7,74.4-9.8c19.2-6.1,33.5-16.6,44-29c20.6-24.2,27.6-56,38-73.4c3.5-5.9,6.7-11.7,9.7-17.6
				c12-23.4,21.1-47,34.2-70.2c1.8-3.2,7.2-13.3,8-21.2c0.4-4.8-1.4-9-5.2-11.1c-5.5-3-21.3-5-41.4-5.4c-30.5-0.5-71.5,1.4-84.6,1.3
				c-53.2-0.6-106.6,0.5-159.9,2.6c-79.4,3.2-158.6,8.6-236.4,13.7c-8.8,0.6-59.6,4.6-96.7,8.3c-16.9,1.7-31.1,3.4-37.7,4.5
				c-4.3,0.7-6.7,1.6-7.6,2c-10,5.3-22.8,21.3-35.6,41.2c-20.9,32.4-43,75.2-54.4,96.3l-4.7,8.4c-5.7,9.5-11.3,19-16.4,28.5
				c-3.4,6.4-6.7,12.8-9.6,19.2c-2.1,5.1-2.9,6.7-4.3,9.6c-0.1,0.2-0.3,0.5-0.3,0.7c0.2,0.4,1,0.4,1.1,0.9c0.1,0.3-0.3,0.6-0.5,1
				c-0.5,0.9-1.3,1.8-2.2,3c-0.7,0.9,0.6,1.8,2.8,2.1c2.2,0.3,4.6-0.2,5.3-1.1c1.1-1.4,1.3-2.7,2.7-3.6c0.9-0.5,2.1-0.5,2.8-1
				c0.6-0.4,0.6-0.9,0.9-1.2c1.8-2.6,2.5-4.4,5-9.3c3-6.4,6.4-12.7,10-19c5.3-9.5,11.1-18.9,17-28.4l4.9-8.5
				c12-21,34.5-63.6,56.5-95.8C1669.3,835.6,1681,821,1690.4,815.7z"/>
		</g>
		<g transform="matrix(1.11646,0,0,1.10522,-230.379,-137.527)">
			<path class="st4" d="M1993.5,877.1c-0.7,0.1-1.3,0.3-1.6,0c-0.1-0.1-1.6,0.1-1.1,0.1c0.3,0-0.3,0.3-0.2,0.4
				c0.4,0.8,1.1,1.8,1.1,1.9c0.9,1.8,1.3,4,0.8,6c-0.3,1.2-1,2.3-2.3,3.3c-1.1,0.9-2.7,1.5-4.5,2.1c-4.4,1.5-10.2,2.4-15.6,3.5
				c-7,1.4-13.5,3-17.8,5.4c-4.5,2.6-5.2,5.3-2.8,7.4c2.4,2.1,7.7,3.9,16.1,4.1l12.2-0.7c2.5-0.1,4.2-1,3.9-2
				c-0.3-1-2.5-1.7-4.9-1.6l-10.3-0.3c-2.9-0.1-4.8-0.6-5.6-1.3c-0.8-0.8,0.1-1.7,1.8-2.6c3.2-1.7,8.2-2.7,13.3-3.6
				c6.4-1.2,12.9-2.4,18.1-4.1c3.2-1,5.9-2.3,7.8-3.7c2.1-1.6,3.3-3.5,3.6-5.4c0.4-2.5-0.7-5.2-2.1-7.4c-0.2-0.2-1.1-2.2-3.5-3.1
				c-4-1.5-7-1.9-8.4-0.9c-1.7,0.3-2.4,1.2-1.5,1.8C1990.7,876.8,1992.1,877.1,1993.5,877.1z"/>
		</g>
		<g transform="matrix(1.11646,0,0,1.10522,-230.379,-137.527)">
			<path class="st4" d="M1957.4,908.3l-9.1,0.8c-4.1,0.7-7.4,1.7-10,3c-2.7,1.3-4.3,2.8-5.2,4.6c-2.5,4.8,1,9,7.8,12.1
				c6.6,3,16.6,4.9,28,5.5c14.6,0.7,30.9,0.5,46.7-0.8c16-1.3,31.3-3.7,43.8-7.1c7.2-2,16.6-8,17.8-13c1-3.8-1.9-7.3-10.9-8.5
				c-1.8-0.2-3.7-0.4-6-0.4c-3.4-0.2-6.7,0.7-7.3,2c-0.6,1.3,1.7,2.6,5.1,2.9c1.1,0.2,1.8,0.5,2.6,0.7c3.4,0.9,2.5,2.6,1.2,4.4
				c-2.1,2.9-7,6-11.2,7.2c-10.8,3-24.3,5-38.3,6.1c-14.2,1.2-28.9,1.5-42.1,0.9c-7.9-0.3-15-1.5-19.8-3.4c-4.7-1.9-7.3-4.6-6.2-7.7
				c0.4-1.1,1.3-2,2.6-2.8c1.4-0.9,3.2-1.7,5.6-2.3c1.5-0.4,5.3-0.9,7.6-1.5c1.5-0.4,2.6-0.8,3-1.1c1-0.7,0.4-1.5-1.3-1.9
				C1960.5,907.4,1958.3,907.6,1957.4,908.3z"/>
		</g>
		<g transform="matrix(1.11646,0,0,1.10522,-230.379,-137.527)">
			<path class="st4" d="M2003.9,876.3c-0.4-0.3-0.7-0.6-0.7-0.6c-1.3-0.6-3.4-0.7-5.1-0.3c-1.6,0.4-2.3,1.2-1.7,1.9l0.7,1.7l6.5,5.3
				c4.1,3,8.1,5.9,9.9,8.8c1.1,1.8,0.6,3.5-0.8,5.5c-0.6,0.8-0.7,1.7-1.6,2.6c-1.5,0.8-1,2,1.1,2.6c2.1,0.6,5.1,0.4,6.6-0.4
				c2.2-0.7,3.9-1.3,5.3-2.1c3.7-2.2,3.9-4.7,3.3-7c-1.1-4.2-7.5-8.2-14-12.3l-7.2-4.8l-2-1L2003.9,876.3z M1997.5,877.3
				c0,0.1,0,0.3,0.1,0.4c0,0.1,0.1,0.1,0.1,0.2C1997.3,877.7,1997.3,877.5,1997.5,877.3z M1998.4,876.5c-0.4,0.1-0.8,0.3-0.7,0.5
				C1997.8,876.8,1998,876.6,1998.4,876.5z"/>
		</g>
		<g transform="matrix(1.11646,0,0,1.10522,-230.379,-137.527)">
			<path class="st4" d="M2021,896.4c-1.5,0-2.9,0.4-3.3,1c-1.5,1.3,1.2,1.7,3,1.9c0.8,0.1,6.1-0.5,6.1-0.5s-0.4,0.1-0.5,0.1l8.8,0.9
				c2.2,0.3,3.4,1.5,4.7,2.6c1.7,1.4,2.8,2.9,3.3,4c0.8,1.5-1.9,2.8-5,4.1c-3.9,1.5-9.3,2.7-14.1,3.5c-1.4,0.2-2.6,0.4-3.8,0.7
				c-1.1,0.2-1.5,0.6-2.4,0.8c-2.4,0-4.3,0.8-4.3,1.7c0,0.9,2,1.7,4.3,1.7c1.4,0.3,2.6,0.4,4.4,0.6c2,0.1,4-0.1,6.2-0.3
				c7-0.7,14.4-2.5,19.9-4.6c6.9-2.6,10.5-6,8.6-9.3c-1.1-1.7-3.6-4.3-7.3-6.3c-3.1-1.7-6.9-3-10.9-3.4c-2.1-0.2-4.3-0.4-6.4-0.4
				c-2.2,0-4.3,0-6.3,0.2C2024.8,895.4,2022.2,896.1,2021,896.4z"/>
		</g>
		<path class="st4" d="M1233.2,964.6c-6.7-4.4,4.4-6.8,19.8-8.9c13.8-1.9,31.7-3.3,48.6-4.4c22.3-1.5,42.9-2.7,50.8-3.3
			c30.1-2.5,48.8-3.9,64.4-4.9c25.3-1.5,43-0.6,88.3-2.8c3.2-0.2,6.4-0.5,9.9-0.7c3.9-0.1,6.9-1.4,6.7-2.9c-0.2-1.5-3.6-2.7-7.5-2.6
			c-6,0-11.4-0.2-16.6-0.1c-31.6,0.1-49.1,0.7-66.5,1.3c-20.3,0.7-40.5,2.1-82.5,5.5c-7.9,0.7-28.5,1.7-50.5,3.6
			c-17.7,1.6-36.3,3.7-50.3,6.4c-21.9,4.1-33.1,9.5-21,15.5c1.2,0.7,3.6,0.9,5.4,0.4C1234,966.2,1234.4,965.3,1233.2,964.6z"/>
		<path class="st4" d="M1300,970.9c-0.3,0-0.6,0.1-0.6,0.1s0.6,0.2,1.1,0.3c1.5,0.4,3.1,1,5.5,1.7c11.7,3.3,32,8.4,36.7,9.3
			c19.1,3.2,38.8,5.7,59,7.7c10,0.9,20.1,1.9,30.3,2.5c10.2,0.6,20.4,0.9,30.7,1.2c4.1,0.2,7.9-0.9,8.4-2.5c0.6-1.6-2.3-3.1-6.4-3.3
			c-9.5-0.7-18.8-1.6-28.3-2.3c-14.1-1.1-28.2-2.1-42.1-3.5c-15.3-1.5-30.5-3.3-45.3-5.6c-4.6-0.6-24.2-5.7-37.2-7.6
			c-7.1-1-12.5-1.1-14.1-0.7c-2,0.3-3,1.2-2.3,1.9C1296,970.7,1298.1,971.1,1300,970.9z"/>
		<path class="st4" d="M1304.4,963.7c1.1,0.6,4.2,1.1,9.4,1.2c1.4,0,3-0.1,4.6-0.2c14.1-0.9,37.3-3.8,41.5-4.1
			c38.2-3.1,77.2-4.3,115.3-6.9c6.8-0.5,13.7-0.8,20.4-1.6c2.9-0.3,5.6-0.8,8.4-1.3c3.2-0.3,5.1-1.6,4.4-2.8c-0.8-1.2-4-2-7.2-1.7
			c-3.8,0.2-7.6,0.3-11.5,0.5c-34.3,2.2-68.9,4.1-103.6,6.2c-9.7,0.6-19.4,1.3-29.1,2.1c-2.7,0.2-12.9,1.4-23.5,2.7
			c-8.3,1-16.9,1.9-22.1,2.6c-1.2,0.1-2.6,0.5-2.6,0.5s0.1,0.3,0.3,0.3c-1.7-0.5-4.1-0.4-5.4,0.3
			C1302.3,962.2,1302.7,963.2,1304.4,963.7z"/>
		<path class="st4" d="M1353.7,975.8c14.9-2.6,30.7-4,46.9-5.4c24.3-2,49.4-3.6,73.6-6c8.4-0.8,16.9-1.4,24.6-2.9
			c2-0.4,3.6-1,5.5-1.5c2.5-0.4,3.7-1.5,2.8-2.4c-1-1-3.7-1.5-6.2-1.1c-1.6,0-2.9-0.1-4.6,0c-2.1,0.1-4,0.5-6,0.8
			c-30.7,3.8-64.4,5-95.7,8.5c-15.6,1.7-30.5,4.1-44.3,7.2c-1.9,0.4-2.7,1.3-1.7,2C1349.5,975.9,1351.8,976.1,1353.7,975.8z"/>
		<path class="st4" d="M1440.2,983.9c15.8-3,35-2.5,52.5-4.2c2.4-0.2,4.8-0.5,7-0.9c2.3-0.4,4.3-1,6.4-1.6c3-0.5,4.4-1.9,3-3.1
			c-1.4-1.2-4.9-1.7-8-1.2c-2.2,0.2-4.4,0.2-6.6,0.4c-2.2,0.2-4.3,0.5-6.4,0.7c-10.6,1.2-21.7,2.2-32.1,3.6
			c-7,0.9-13.6,2.1-19.6,3.6c-1.8,0.4-2.5,1.3-1.5,2.1C1436,984.1,1438.4,984.3,1440.2,983.9z"/>
	</g>
	<g transform="matrix(0.596206,0,0,1.52689,-378.208,-774.394)">
		<path class="st4" d="M1601.3,557.1c0,0.1,0,0.1,0.1,0.2c2,1.7,5.9,4.2,9.1,5.2c10.4,3,21.2,5.8,32.2,8.5c11.1,2.6,22.5,5,34,7.3
			c67.7,13.1,90.3,13.7,108.3,18.3c15.2,3.9,21.9,12.3,61.8,31.5c2.5,1.2,5.5,2.2,8.4,3.4c4.3,2.4,12.9,3,19.1,1.4
			c6.2-1.7,7.8-5,3.5-7.4c-1.8-1.5-3.2-3-5.2-4.3c-35.7-23.8-55.2-29.8-72.5-33.9c-19-4.5-42.3-4.8-113.5-17.1
			c-11.5-1.9-22.7-4-33.9-6.1c-11.1-2.2-22.1-4.5-32.7-7c-1.9-0.4-3.3-1.9-5.3-2.7c-3.8-1.5-7.3-2.3-9.7-2.1
			c-2.4,0.2-5.7,0.1-6.7,1.7c-1.6,1-0.7,2.4,1.9,3C1600.5,557,1600.9,557,1601.3,557.1z"/>
	</g>
	<g transform="matrix(0.257724,0,0,1,85.2049,4.54747e-13)">
		<g transform="matrix(2.31336,0,0,1.52689,0,0)">
			<path class="st4" d="M1114.3-195.6c2.4-0.2,4.8,0.1,8.6-0.4c0.6-0.1,1.1-0.2,1.7-0.4c5.4-1.2,12.5-2.6,20.4-4.4
				c13.5-3,29.7-6.9,46-10.8c25.9-6.3,51.6-13.1,67.8-17.4c3.3-0.8,4.3-2.5,2.3-3.8c-2-1.3-6.4-1.7-9.6-0.9
				c-17,3.7-44.6,9.2-71,15.1c-16.8,3.7-33.2,7.5-46.3,11c-7.8,2.1-14.2,4.1-19.2,5.6c-0.6,0.2-1.2,0.3-1.6,0.5
				c-2.8,1.4-3.3,2.4-4.3,3.3c-1.8,0.6-2,1.6-0.5,2.3C1109.9-195.2,1112.5-195.1,1114.3-195.6z"/>
		</g>
		<g transform="matrix(2.31336,0,0,1.52689,0,0)">
			<path class="st4" d="M1124.1-192.2L1124.1-192.2C1124.1-192.2,1124.1-192.2,1124.1-192.2L1124.1-192.2L1124.1-192.2L1124.1-192.2
				c0.1-0.1,0.1-0.1,0.2-0.1L1124.1-192.2l0.4,0.1l0.2,0c0.4,0.2,0.9,0.6,1.8,0.7c10.5,1.4,36.9,3.1,38.2,3.2
				c26.3,1.8,52.5,3.7,79.1,4.7c11.4,0.4,22.9,0.6,34.4,0.7c5,0.2,9.4-1.3,9.9-3.2c0.5-2-3.2-3.7-8.2-3.9l-111.4-6.8
				c-1.4-0.1-29.5-2.5-40.8-1.5c-7.7,0.6-10.6,1.7-10.6,2.4c0,0.7-2.7,2.8,5.5,3.4C1123-192.5,1123.5-192.4,1124.1-192.2z
				 M1126-195.8c-0.1,0.1-0.1,0.3,0.2,0.4c0.3,0.1,0.8,0.2,1.3,0.2c0-0.1,0-0.2,0.1-0.2C1127.7-195.6,1126.6-195.7,1126-195.8z"/>
		</g>
		<g transform="matrix(2.31336,0,0,1.52689,0,0)">
			<path class="st4" d="M1266.1-234.6c-1.5-0.3-1.6-1-2.2-1.9c-0.8-1.2-0.2-2.7-0.1-4.5c0.4-5.1,3.1-12.2,8.6-19.3
				c7.6-9.8,19.1-19.6,32.8-23.8c49.5-15.1,125.9-17.3,193.9-10.1c33.4,3.5,64.9,9.4,90.2,17.2c26.5,8.2,46.5,18.6,54.2,31.1
				c18.2,29.1,5,54.4-26,73.8c-23.9,14.9-58.2,26.4-96.1,33.7c-80.7,15.5-178,11.7-227.8-19.3c-6.5-4-12.1-8.6-17.2-13.5
				c-3.2-3.1-6.3-6.2-9-9.6c-1.2-2-6.3-3.2-11.3-2.7c-5,0.5-8.1,2.4-6.9,4.4c1.8,3.8,3.9,7.4,6.7,10.8c4.7,5.7,11,10.7,18.2,15.3
				c55.2,35.3,165.9,39.7,256.8,22.2c41.3-8,78.4-20.5,104.7-36.7c34.2-21.1,50-48.5,31.2-80.4c-8.6-14.6-31.1-27-61.9-36.6
				c-27.9-8.7-62.7-15.1-99.7-18.8c-75.1-7.5-159-3.9-212.7,13.1c-18.5,5.9-35.2,20.7-41.7,34c-3.3,6.8-4.7,13.3-1.9,17.7
				c2.7,4.2,8,6.7,14.6,7.1c2.2,0.3,4.5-0.2,5.2-1C1269.4-233.4,1268.2-234.3,1266.1-234.6z"/>
		</g>
		<g transform="matrix(2.31336,0,0,1.52689,0,0)">
			<path class="st4" d="M34-140.4c0.3,0.7,1.3,1.5,3.2,2.3c4,1.8,13.7,3,20,3.7c10,0.8,20,1.6,30.1,2.2c13.9,0.9,27.8,1.7,41.7,2.4
				c9.2,0.5,18.4,0.8,27.6,1.3c3.9,0.4,7.9-0.5,8.9-2c1-1.5-1.3-3.1-5.2-3.5c-9.8-1.4-19.6-2.6-29.7-3.6c-13.9-1.3-28-2.1-42.1-2.9
				c-9.2-0.6-18.5-1-27.7-1.6c-5-0.2-11.8-1.7-16.5-1.8c-3.7-0.1-4.7,0.4-5.7,0.5c-0.9,0.1-1.2-0.1-1.4-0.1c-2,0.5-3.2,0-3.4,0.3
				c-0.4,0.7-3,0.8-1.6,1.4c0.3,0.1-0.3,0.4,0.3,0.5C32.8-141.1,32.3-140.4,34-140.4z"/>
		</g>
		<g transform="matrix(2.31336,0,0,1.52689,0,0)">
			<path class="st4" d="M31-102c-0.1,0.1-0.1,0.1-0.2,0.2c-1.4,1.2,3.1,1.3,4.8,1.8c0.7,0.2,1.5,0,2.4,0.1c1.5,0.2,2.7-0.2,4.8-0.4
				c1.4-0.1,2.7-0.5,4.4-0.9c2.6-0.7,5.1-2,7.3-2.4c12.4-2.5,25.1-4.7,37.4-7.2c18.5-3.8,36.4-8.1,54.7-12.1
				c4.1-0.8,5.8-2.8,3.6-4.4c-2.1-1.6-7.2-2.3-11.3-1.4c-19.1,3.4-38.4,6.6-57.1,10.4c-12.5,2.5-24.5,5.4-36.6,8.2
				c-3.4,0.9-8.1,3.1-10.6,4.8c-0.2,0.1,0.1,0.4,0.1,0.4s1.1,0.2,1.5,0.1c1.4-0.4,2.2,0.5,3.9,0.6c0.4,0-0.1,0.4,0.5,0.5
				c2.7,0.2-4,0.6-1.2,0.3c-1-0.8-3.5-1.1-5.5-0.8c-2.1,0.4-2.9,1.4-2,2.2C29-101.5,31.9-102.8,31-102z"/>
		</g>
		<g transform="matrix(2.31336,0,0,1.52689,0,0)">
			<path class="st4" d="M37.4-144.3c-3.1-3.3-4.4-6.6-5.4-9.9c-4.4-14.2,5.6-28.4-0.6-42.7c-4.5-10.4-17.5-20.8-50.8-31.2
				c-116.6-35.9-245.4-33.3-338.8-8.3c-92,24.7-149.8,71.3-127.6,125.1C-460-47.7-351-19.5-233.5-19.8
				c58.8-0.1,120.2-7.4,174.1-21.3C-37.9-46.7-17.3-53.3,0.9-61c24.6-10.4,45-22.7,61.1-36.5c1.8-1.4,0.3-3.1-3.3-3.8
				c-3.6-0.7-8-0.1-9.8,1.3C31.2-87.4,8.9-76.6-15.5-67.2c-17.9,6.9-36.8,13.1-57,18.3c-50.2,12.9-106.6,20.2-161.3,20.5
				c-108.4,0.7-208.5-25.5-233.5-84.2c-21.2-50.7,32.8-94.8,119.4-118.1c87.5-23.6,208.3-25.8,317.9,7.8c29.6,8.9,41.7,17.9,46.2,27
				c7,14.2-4.3,28.6,3.4,42.4c2,3.6,5.5,7,10.3,10.4c1,0.8,3.4,1.2,5.5,0.8C37.4-142.6,38.3-143.5,37.4-144.3z"/>
		</g>
		<g transform="matrix(2.31336,0,0,1.52689,0,0)">
			<path class="st4" d="M736.8-386.4c1-0.5,1.2-1.2,0.4-1.8c0.3-0.6-1.4-0.4-1.7-0.7c-0.7-0.8-2.1,0.2-4.1,0c-0.8-0.1-0.2,0.5-2,0.9
				c-0.3,0.1,0.1,0.3-0.9,0.7c-0.8,0.3-1.5,0.4-2.7,1.3c-0.6,0.5-0.8,1.1-1,1.8c-0.7,1.9-0.8,4.6-0.9,7.5c-0.1,2.4,0.2,4.9,0.5,7.4
				c0.3,2.6,0.5,5.2,1,7.4c0.8,3.5,2,6.2,2.5,7.5c0.4,1.7,4.1,2.9,8.4,2.8c4.3-0.1,7.5-1.6,7.1-3.3c0-1.3,0.5-4,0.7-7.3
				c0.1-2.3-0.1-4.8-0.2-7.4c-0.1-2.5-0.2-5-0.5-7.4c-0.4-2.9-0.8-5.5-1.6-7.4c-0.3-0.7-0.5-1.3-1.1-1.7c-1-0.8-2.6-1.1-2.6-1.1
				s-0.8,0.1-0.8,0.1C737.8-386.6,737.2-386.5,736.8-386.4z M735.5-386L735.5-386c-0.4,0.4-0.9,0.3-1.6,0.2c0.5,0,1-0.1,1.5-0.2
				L735.5-386z M731-386.2c0.1,0.1,0.2,0.2,0.5,0.1l0,0l-0.3-0.1L731-386.2z M736.1-386.2l0.3-0.1l0,0c0,0.1-0.3,0.1-0.5,0.2
				L736.1-386.2z"/>
		</g>
		<g transform="matrix(2.31336,0,0,1.52689,0,0)">
			<path class="st4" d="M823.4-374.7c0.6,0.2,1.4,0.3,2.2,0.3c2.3,0.1,4.3-0.6,4.5-1.5c0.8-0.3-0.3-0.5,0-0.7
				c0.3-0.2-0.5-0.2-0.4-0.4c0.5-0.7-1.8-0.2-2.7-0.9c-0.3-0.2-0.9,0.1-1.5-0.1c-1.1-0.4-2.8-0.6-9.3,0.2
				c-4.8,0.6-10.2,3.3-15.4,4.7c-15.6,4.8-31.2,9.6-45,15.2c-9.2,3.7-17.4,7.8-25.4,12c-3,1.4-2.5,3.4,0.9,4.6
				c3.5,1.2,8.7,1,11.7-0.4c6.7-2.7,13.8-5.1,20.7-7.7c6.9-2.5,13.8-5.1,20.9-7.6c9.4-3.3,19-6.6,28.8-9.8c5-1.8,12.3-3.9,14.6-5.7
				c0.9-0.7-1.2-1.6,0.1-1.5c0.6,0-0.4-0.5-0.5-0.3c-0.3,0.4-1.2-0.2-1.6,0c-0.3,0.2-0.6-0.2-1-0.1
				C823.9-374.1,823.8-374.4,823.4-374.7z M821.9-375.5c-0.2,0.1-0.3,0.3,0.1,0.3l0.3,0l-0.1-0.1C822.1-375.4,822-375.4,821.9-375.5
				L821.9-375.5z"/>
		</g>
		<g transform="matrix(2.31336,0,0,1.52689,0,0)">
			<path class="st4" d="M744-388.5c-8.4-0.4-15.7-1.5-22.9-2.5c-29.2-4-50.6-13-64.7-25c-26.1-22.2-29.3-52.7-17.7-70
				c21.2-31.3,87.1-48.6,162.4-54.7c76.1-6.1,161.9-0.9,221.8,12.8c47.6,10.8,82.3,24.5,105.9,39.2c42.8,26.7,48.6,57.3,22.7,81.8
				c-33.6,31.9-119.9,52.5-242.4,42c-22.4-1.9-46.2-4.7-71.1-8.7c-4.9-0.8-10.6,0-12.7,1.9c-2.2,1.9,0,4.1,4.9,5
				c25.7,4.7,50.2,8.3,73.7,10.6c135.1,12.8,230.3-12.1,267.9-47.5c28.6-27,24.4-60.7-22.7-90.1c-25.4-15.9-63.5-30.4-115-41.9
				c-64.5-14.3-156.1-19.5-237.2-12.6c-81.8,7-152.8,26.2-175.1,60.4c-12.1,18.4-8.7,50.9,19.6,74.4c16.5,13.7,40.9,25.1,75.5,27.9
				c8.5,0.7,17.4,0.6,26.9,0.1c2.3,0,4.1-0.7,4.1-1.6C748.1-387.7,746.3-388.5,744-388.5z"/>
		</g>
		<g transform="matrix(2.31336,0,0,1.52689,0,0)">
			<path class="st4" d="M-175.8-202.4c-18.5,0.6-41.5,4-64.5,8.9c-31.2,6.7-62.6,16.2-82.5,25c-14.2,6.3-22.5,12.3-22.7,16.8
				c-0.1,1.9,1.7,3.3,4.2,4.4c3.3,1.3,8.5,2,14.1,2c-5.3,4.6-9.9,9.4-13.5,14.2c-5.9,5.7-10.6,11.7-13.3,17.6
				c-5.2,11.4-3.2,22.8,9.9,32.9c24.6,19.4,79.9,21.1,137.5,13.5c4.5-0.6,8.9-1.2,13.4-1.9c42.8-5.1,87.8-15.7,118.1-29.1
				c12.2-5.4,22.1-11.2,28.6-17.4c3.5-2.6,6.1-5.2,7.6-7.7c2.8-4.5,2.8-8.2,0.7-11.3c-1-5.2-4.8-10.5-11.9-15.7
				c-19.7-14.7-52.4-14.6-82-8.6c-11.4,2.3-22.3,5.5-31.5,9c-5.8-1.6-13-2.3-21.2-2.2c12-4.7,23.1-9.6,32.2-14.3
				c23.2-12.2,31.4-24,13.6-31.6c-5.1-2.2-11.9-3.6-20-4.2c2.4-2.8,2.4-5.2,0.4-7.1c-5.1-4.7-16.8-6.5-33.4-5.4
				c-17.1,1.2-40.2,5.6-63.5,11.6c-24.6,6.4-49.7,14.4-67.6,22c-11.5,4.9-20,9.6-24.4,13.4c-4.1,3.5-4.5,6.3-1.4,8.1
				c1.2,0.8,3.7,1,5.7,0.6c2-0.5,2.6-1.5,1.4-2.2c-1.2-0.9-0.2-2,1.4-3.4c2.9-2.5,9.1-5.5,17-8.9c18.6-7.9,47.7-17.4,76.2-24.6
				c21.4-5.4,42.2-9.6,57.8-10.6c7.7-0.5,13.9-0.4,16.3,1.8C-172-205.7-173.4-204.2-175.8-202.4z M-325.1-78.5
				c7.9,4.1,17.9,6.8,29.5,8.5C-307.6-72.2-317.3-75-325.1-78.5z M-167.5-195.7c-9.3,5.6-24.4,12.4-42,19
				c-30.1,11.4-67.3,22.4-93.3,27.8c-6.1,3.9-12,8.2-17.3,12.6c-7.7,8.7-12.3,17.6-12.7,26c-0.9,18.1,19,33.5,73.9,36.5
				c35.5,2.1,84.9-3.9,126.2-14.4c20.8-5.8,39.2-12.3,53.1-18.9c16-8.3,25.5-17.6,23.5-27.1l-0.1-0.1c-3.9-2.5-11.5-3.6-20.9-4
				c-15.2-0.6-34.8,0.7-55.7,3.3c4.8,3.5,3.9,8-2.2,13.1c-8.4,6.9-26.6,14.9-47.3,21.7c-26.1,8.6-56,15-74.5,15.2
				c-11.1,0.1-19-1.6-22.8-5.3c-4.1-0.4-7.6-1.1-10.2-2.3c-8.6-3.7-8.6-8.9-0.7-14.8c9.2-6.8,29.3-14.7,52.2-21.1
				c17.2-4.8,36-8.7,52.7-10.8c2.6-1.8,6.1-3.8,10.2-5.8c-2.4-0.4-5.3-0.6-8.3-0.6c-7.6,0-16.5,1.1-25.8,2.6
				c-24.4,8.6-48.8,15.9-64,20.2c-6.7,1.9-11.6,3.2-14,3.7c-6.4,1.5-11.2,0.1-11.8-0.1c-3.3-1.2-4.3-2.6-3.5-4.2
				c0.9-1.9,6.8-4.4,10.6-5.8c10-3.8,41.9-13.6,72.1-19c19.6-6.9,39.1-14.7,53.3-22.1c9.8-5.2,17-10.2,19.3-14.6
				c1.6-3.2,0.6-6-4.7-8.3C-155.8-194.9-161.1-195.6-167.5-195.7z M-144.9-128.9c-0.7,0.3-1.6,0.6-2.7,0.8
				c-4.3,0.8-8.2,1.3-11.7,1.7c-7.7,5.8-19.7,11.9-33.5,17.4c-21.5,8.5-47.1,15.5-66.1,18c0.6,0,1.2,0,1.9,0
				c6.9-0.1,15.7-1.3,25.2-3.1c12.8-2.5,26.8-6.3,39.9-10.6c18.8-6.2,35.6-13.5,43.2-19.7C-146.8-126-145.4-127.5-144.9-128.9z
				 M-184.5-126.4c-24.1,5-46.3,11-61.7,17.2c-10.8,4.3-18.5,8.6-20,12.6c2.4-0.3,5-0.6,7.8-1.1c16.4-2.8,36.6-8.7,54-15.6
				c9.7-3.9,18.5-8,25.2-12.2c-1.3-0.1-2.4-0.3-3.4-0.4C-183.3-126.1-183.9-126.2-184.5-126.4z M-199.4-130.5
				c-9.9,1.9-20.1,4.3-29.7,7c-20.6,5.8-39,12.8-47.2,19c-2.7,2-4.4,3.8-4.2,5.4c3-4.7,11-9.6,22.9-14.4
				C-242.8-119.5-222.1-125.4-199.4-130.5z M-61.6-143.5c-1.2-1.2-2.5-2.3-4.1-3.5c-14.1-10.3-37.4-9.8-58.4-5.6
				c-10.5,2.1-20.6,5.1-28.9,8.2c1.3,1.3,2.1,2.7,2.5,4.1c1.1,0.1,2.1,0.2,3.1,0.4c2.2-0.3,4.3-0.6,6.5-0.9
				C-109.7-144.8-80.9-146.1-61.6-143.5z M-258.2-181.4c-22.5,5.9-43.1,12.9-56.4,19.3c-8,3.8-13.5,7.3-14,10.2c0.4,0,0.7,0,1,0
				c2.7,0,6.1-0.4,10-1C-301.5-164.6-280.5-174.9-258.2-181.4z M-188.8-194.6c-16.7,1.7-35.7,5.1-54.3,9.5c2.2-0.5,3.8-0.3,4.5-0.3
				c2.9,0.2,7.8,1.4,4.2,3.8c-0.5,0.3-3.1,1.4-4.2,1.8c-10,3.7-19.6,7.6-28.5,11.7c-4.5,2.1-8.9,4.2-13.1,6.4
				c13.8-3.9,28.7-8.6,43-13.5C-218.5-181.7-201-188.6-188.8-194.6z"/>
		</g>
		<g transform="matrix(2.31336,0,0,1.52689,0,0)">
			<path class="st4" d="M735.8-437.8c0.9,6.3,8.3,11.7,24.2,15.5c11.1,2.6,26.3,3.4,43.7,2.4c5.4-0.3,11.1-0.8,16.9-1.4
				c0.4,0.3,0.8,0.5,1.2,0.8c8.2,5.1,23.7,8.4,43.9,10.2c30,2.6,70.8,1.6,110.2-1.7c48-4,93.8-11.7,116.2-19.7
				c12.3-4.4,17.9-9.2,16.6-13.7c-1-3.5-6.2-6.1-15.1-7.7c-5.9-1-14-1.6-23.6-1.6c4.8-5.1,3.8-10.2-4.9-15.2
				c-5.6-3.2-15.8-5.8-29.3-7.6c-19.3-2.6-45.6-3.6-71.3-2.9c-2.1,0.1-4.1,0.1-6.2,0.2c-6.2-2.4-15.1-3.2-25.7-2.5
				c-5.7,0.4-12,1.2-18.5,2.5c-1.8-1.4-4-2.8-6.8-4.1c-12.9-6.2-31.5-8-52.1-6.4c-12-3.9-30.5-3.2-50.4,0.3
				c-15.3,2.7-31.6,7-45.4,12.3c-17.3,6.7-30.3,15-34.3,22.8C721.7-449.1,724.7-442.9,735.8-437.8z M1046.2-454.3
				c6.4-3.7,8.4-7.5,1.7-11.3c-3.5-2-10.4-3.4-18.9-4.6c-16.8-2.3-39.8-3.1-62.3-2.6c0.9,4.1-2.3,8.6-9.2,13.3
				c-0.9,0.6-1.9,1.2-2.9,1.9c5.1,0.4,8.8,1,10.8,1.8c3.9,1.4,4.8,3.4,1.4,5.6c-3,2-13.3,4.6-13.4,4.7c-11.8,3.3-32,8.7-51.8,11.4
				c-6.1,0.9-12.2,1.4-18.1,1.7c-7.1,1.7-14.3,3.3-21.6,4.7c2.5,0.3,5.4,0.5,8.9,0.6c6,0.2,13.5,0.2,22.5,0.1c4.6-0.1,8.6,1.2,8.9,3
				c0.3,1.8-3.2,3.4-7.8,3.5c-23.8,0.8-38.3-0.1-45.9-1.6c-2.8-0.6-5.1-1.2-6.8-2c-1.8,0.3-3.6,0.6-5.4,0.8
				c6.7,3.3,18.5,5.3,32.9,6.3c28,2.1,65.8,0.6,102.4-2.7c37-3.4,72.8-8.7,95.5-14.8c12.7-3.4,21.8-6.6,20.8-10.2
				c-0.1-0.5-1.2-0.8-2.5-1c-2.6-0.5-6-0.8-10-0.9c-5.4-0.2-11.7-0.2-18.4,0.1c-27.9,12.7-89.1,23-113.2,23.5
				c-2.5,0.1-11.3-0.1-16.1-1.3c-4.1-1.1-6.7-2.7-6.4-5c0.4-3,6.4-6.6,18.1-9.9c19.3-5.4,55-10.9,87.8-13.8
				C1033.7-453.5,1040.1-454,1046.2-454.3z M815.7-431.4c-13.7,1.4-27.2,2-39.6,1.5c-5.3-0.2-10.3-0.7-15.1-1.3c2.2,1,5,2,8.5,2.8
				c8,1.9,19.1,2.2,31.7,1.5c4.7-0.3,9.6-0.7,14.7-1.2C815.6-429.1,815.5-430.2,815.7-431.4z M843.3-435.4
				c-4.3,0.8-8.6,1.5-12.9,2.2c-0.3,1.2-0.3,2.3-0.1,3.3c2.6-0.4,5.3-0.8,8-1.2c0.3-0.4,0.7-0.9,1.1-1.4
				C840.2-433.4,841.5-434.4,843.3-435.4z M1015.6-443.3l-1.6,0.2c-22,2.5-43.7,5.9-58.2,9.5c-2.9,0.7-5.5,1.4-7.6,2.1
				C964.8-432.7,992.6-437.2,1015.6-443.3z M897.4-476.7c-1.3-1.1-2.9-2.2-5.1-3.2c-9.3-4.5-23.4-5-38.5-3.3
				c-20.7,2.3-43.2,8.4-61.7,15.9c-18.8,7.6-33.5,16.6-37.2,24.7c-0.3,0.6-0.5,1.2-0.6,1.8c6.7,2,14.9,3,23.9,3.4
				c12.8,0.5,27.1-0.4,41.3-2.3c4-5.4,10.9-11,19.8-16.2c12-6.9,27.2-12.8,42.9-16.1C887.1-473.7,892.3-475.3,897.4-476.7z
				 M904.4-451.6c-10.1,4-21.4,8.3-30.6,12.2c1.4,0.1,2.9,0.1,4.4,0.1l2.2-0.5c13.9-3.5,26.9-7.4,37.9-11.5
				C913.6-451.4,908.8-451.4,904.4-451.6z M841-446.5c-1.7,1.3-3.2,2.6-4.5,4c1.5-0.3,3-0.6,4.5-0.9c-0.3-0.9-0.3-1.9-0.1-2.9
				L841-446.5z M872.9-457.3c-5.6,3-10,6-12.2,8.8l-0.1,0.2c6.7-1.9,12.9-4,18.4-6.2C876.2-455.2,874.2-456.2,872.9-457.3z
				 M843.9-489.8c-19.6-2.9-51.2,4.9-74.4,15.1c-14.1,6.2-25.1,13.5-27.8,20.3c-0.6,1.5-0.8,2.9-0.5,4.3
				c7.1-7.5,20.7-15.4,37.4-22.3C798.1-480.3,821.8-486.8,843.9-489.8z M940.2-450.3l2.8-0.8l-1,0L940.2-450.3z M949.6-472
				c-6.4,0.4-12.6,0.8-18.4,1.4c2.7,2.2,1.4,5.2-4,8.6c-1.9,1.2-4.3,2.4-7.1,3.8c4.8,0.1,9.6,0.1,14.2,0.2c3.2-1.6,6-3.2,8.3-4.7
				C947.4-466.1,950.3-469.2,949.6-472z M896-463.9c-2.4,1-4.2,2.1-5,3.3c-0.1,0.1-0.1,0.2,0,0.3C892.9-461.5,894.6-462.7,896-463.9
				z"/>
		</g>
		<g transform="matrix(2.31336,0,0,1.52689,0,0)">
			<path class="st4" d="M1389.4-242.3c-5.1,2.5-10.7,4.8-15.7,6.7c-6.3,2.5-25.7,6.4-28.4,8c-2.3,1.3-1.9,2.5-0.9,3.3
				c0.8,0.7,3.1,1.9,9.2,2c3.2,0,7.1-0.2,11.6-0.4c-17.8,8.5-29.1,18.2-26.8,25.8c4.9,15.4,36.6,19,74.8,15.6c0.5,3,2.6,5.7,6.7,8.2
				c15.4,9.3,43.2,8,70.3,1.1c4.7-0.7,10.3-2,16.7-4c12.8-4,24.5-9.1,33.3-14.9c2.6-1.7,4.9-3.4,7-5.2c2.6-1.8,4.9-3.7,6.7-5.4
				c1-0.1,1.9-0.2,2.8-0.3c33.9-3.1,58-9.5,61.4-18.8c0.7-1.9-1-3.5-5-4.8c-4.4-1.3-13.9-2.2-27.4-2c-3.3,0.1-7,0.2-10.9,0.3
				c3.5-3,3.5-6-0.7-8.9c-7.8-5.2-24.8-8.2-46.7-9.8c-32.6-2.3-77-1.4-113.3-1.4c3.1-3,4.7-6.2,3.9-9.3c-1.7-6.5-13.9-9.2-28.9-9.1
				c-18,0.1-39.6,4.7-45.5,9.6c-6.8,5.7-2.2,9.2,10,11.4C1361.3-243.1,1374-242.5,1389.4-242.3z M1470.5-190.6
				c-12.3,2.8-25.2,5.2-37.8,6.9c-2,0.3-4,0.5-5.9,0.8c0.2,2.4,1.8,4.6,5.1,6.6c8.6,5.2,22.1,5.2,36.8,2.6c-1.7-1-2.9-2.2-3.4-3.8
				C1464.2-180.6,1466.2-185.4,1470.5-190.6z M1536.7-200.4c-10.6,0.6-21.8,1-33.1,1.1c-4.4,1.3-8.9,2.7-13.7,3.9
				c-6.4,5.6-10.8,11.2-11.3,15.3c-0.1,1.1,0,2,0.5,2.8c0.2,0.3,0.3,0.7,1.1,0.7c0.5,0,1,0.1,1.5,0.1c3.4-0.9,6.8-1.8,10.1-2.9
				c17.4-5.4,33.7-12.8,43.5-19.8l0.7-0.6L1536.7-200.4z M1362.2-211.3c-6.7,4.7-10.2,9.5-8.8,13.6c3.8,12.2,30.3,13.5,60.9,10.2
				c1.3-2.8,3.8-5.7,7.1-8.6c-3.8,0.4-7.2,0.6-9.8,0.8c-7,0.4-11.3-0.8-12.4-1.4c-0.4-0.3-0.8-0.5-1.1-0.8
				c-8.1-0.7-15.5-2.2-21.5-4.5c-4.5-1.8-7.4-4-9-6.6C1365-209.4,1363.2-210.3,1362.2-211.3z M1454.7-199.7
				c-4.2,0.5-9.7,1.2-15.3,1.8c-4.4,2.9-7.9,5.8-10.1,8.6c16.6-2.4,33.7-5.9,49.1-9.9C1470.3-199.3,1462.4-199.5,1454.7-199.7z
				 M1391.5-204c3.2,0.8,6.8,1.3,10.6,1.6l0.6-0.3l0.2-0.1C1398.8-203.1,1395-203.5,1391.5-204z M1540-214.4
				c-0.7,0.5-1.4,0.9-2.2,1.4c-4,2.4-9.4,4.9-15.9,7.4c6.7-0.3,13.2-0.7,19.5-1.1c0.6-1.2,1.1-2.4,1.4-3.6c0.2-1,0.3-1.9,0.4-2.8
				c-0.6-0.4-1.3-0.7-2.2-1C1540.7-214.2,1540.3-214.3,1540-214.4z M1475.7-231.8c-13.6,0.5-27.9,1.5-41.9,2.7
				c1.1,0.9,2,1.9,2.6,2.9l2.7-0.2c2.6-0.2,5.1,0.5,5.6,1.5c0.5,1-1.3,2-3.9,2.2l-0.7,0.1c0.3,0.3,0.4,0.7,0.2,1.2
				c-0.5,1-2.2,3.2-2.5,3.7l-0.1,0.4c-0.1,0.2-0.2,0.3-0.3,0.5c-1.4,2.5-3.8,2.9-5.6,2.4c-2.2,0.1-3.8-0.7-2.8-3.3l0-0.1
				c0.2-0.5,0.6-1.8,0.3-2.8l-0.3-1.1c-25.6,2.1-41.8,4.3-50.4,6.4c-0.3,1.5-0.2,3,0.4,4.3c6.2,1.4,15.8,2.5,27.3,3.5
				c2.9,0.2,5.9,0.5,9,0.7c1.1-0.3,2.3-0.5,3.4-0.8c9.6-2.1,21.5-4,32-5.5c10.5-4.5,22.1-8.6,33.4-11.7c-0.5-1.5-1.8-3.1-4.2-4.6
				C1478.7-230.3,1477.2-231.1,1475.7-231.8z M1602.3-220.8c-1.9-0.2-5.9-0.6-9.5-0.6c-8.2-0.1-19.1,0.3-32.1,1.2
				c-1.3,0.4-2.6,0.9-4,1.3c0.5,1.6,0.7,3.2,0.7,5c1.3,1.6,1.7,3.5,1,5.6l0.4,0C1581.4-210.9,1598.9-214.6,1602.3-220.8z
				 M1504.7-214.4c-5.7,0.8-11.6,1.6-17.5,2.5l-1.1,0.6l-1.8,0.9c5.9-1,12.2-2,18.7-3.2C1503.6-213.9,1504.2-214.1,1504.7-214.4z
				 M1532-223.9c-0.2-0.3-0.5-0.6-0.9-0.9c-1.7-1.3-5.5-1.3-9.9-1c-6.7,0.5-14.7,2-23.1,4.1c-0.2,0.7-0.6,1.3-1,2
				C1509.3-221.4,1521.1-222.8,1532-223.9z M1423.9-228.2c-11.9,1.1-23.3,2.3-33.7,3.3c-2.5,0.9-4.9,1.8-7.2,2.8
				c-0.5,0.5-1,1-1.4,1.5c10.3-1.7,25.2-3.3,45.6-4.8c-0.2-0.3-0.5-0.7-0.9-1C1425.7-227.1,1424.9-227.7,1423.9-228.2z M1554.9-226
				c1.7-0.6,3.1-1.3,4.4-2c3.4-1.8,5-3.6,2.4-5.4c-10-6.9-40.6-8.4-74.8-8.9c-26.6-0.4-55.3,0.1-79.9,0.1
				c-6.7,4.1-15.4,7.7-22.9,10.7c-1.2,0.5-3.1,1.1-5.3,1.7l2.9-0.3c4.4-2,9.6-3.5,15.3-4.4c4.2-1.2,8.6-2.2,13-3.2
				c25.4-5.4,51.9-6.5,70.9-0.1c15.3-0.3,29.5,0.1,41.3,1.7c13.1,1.8,23.7,5,29.7,10.3l2.4-0.2L1554.9-226z M1492.8-232.1
				c1.9,1.3,3.3,2.6,4.3,4c5.9-1.3,11.5-2.3,16.6-2.9c-5.5-0.6-11.5-0.9-17.9-1C1494.8-232,1493.8-232,1492.8-232.1z M1451.3-236.4
				c-5.6,0.4-11.2,0.8-16.7,1.3c-2.6,0.2-5.1,0.4-7.7,0.7C1435.2-235.8,1443.6-236.5,1451.3-236.4z M1397.9-247.3L1397.9-247.3
				c3.8-2.8,6.3-5.7,5.5-8.7c-1-4.1-11.1-4.6-20.9-3.9c-11.2,0.8-23.1,3.2-26.7,6.1c-4.6,3.7,3.4,4.8,15.5,5.6
				C1378.9-247.6,1387.9-247.4,1397.9-247.3z"/>
		</g>
	</g>
</g>
<g transform="matrix(0.596206,0,0,1.52689,-378.208,-774.394)" class="st0">
	<g id="Gray-Short.svg" transform="matrix(0.681216,0,0,0.681216,1361.69,1133.76)" class="st5">
		<g transform="matrix(1,0,0,1,-236.5,-283.5)">
			<g id="head-mono-Gray-Short">
				<path id="_xD83D__xDD8D_-Ink_1_" class="st4" d="M498.5-609.5c-80.6,3.2-176.3-4.2-230.1-29.8c-1.6-0.8-2.3-1.6-2.4-2.5
					c0-0.9,0.8-1.8,2.1-2.5c1.5-0.7,3.5-1.2,5.9-1.4c2-0.1,4.3,0,6.6,0.5l4.9,1.1c36.7,7.9,74.8,14.7,116.4,17.5
					c42.8,3,86.4,2.6,128.8-1.1c77.3-6.9,139.9-24.4,185.9-47.6c51.4-25.8,82.2-58.6,90.1-91.3c9.5-39.7-12.6-79.2-35.5-117.6
					c-24-40.4-50.3-80.6-80.8-120.3c-0.9-1.2-1.2-2.3-0.9-3.3c-9-1.4-18.6-1-28.1,0.3c-17.4,2.3-34.8,7.5-49.2,11.8
					c-5.2,1.5-10.1,3-14.5,4.2c-17.9,4.8-37.6,8.2-59.5,8.8c-22.8,0.6-45.2-2.2-65.9-5.7c-10.5-1.8-20.9-3.6-31.2-5.4
					c-29.4-5.2-58.4-10.3-90.1-13.6c-42.5-4.5-86.4-6.7-130.4-6.5c-78.6,0.3-157.4,8.2-205.5,34.1c-19.5,10.5-32.2,22.6-22.3,35.6
					c5.4,7.1,15.6,13.5,26.7,19.4l3.8,2c6.1,3.2,11.4,6.5,13,9.9c1.3,2.9,0.3,5.9-5,9.2c-3.3,2.1-7.5,4-11.7,5.9
					c-3.1,1.4-6.1,2.7-8.7,4.2c-5.3,2.9-10,6.1-13.7,9.4c-7.2,6.4-10.3,13.4-10.9,20.4c-0.8,8.4,2.3,16.7,5.3,24.9
					c2.1,5.9,4.3,11.7,5.1,17.7c0.2,1-0.7,1.8-1.8,2.4c-1.4,0.7-3.4,1.1-5.7,1.3c-0.7,0-1.4,0-2.2,0c0.4,0.6,0.7,1.1,0.9,1.7
					c-1.5-0.7-3-1.4-4.6-2.1c-0.1,0-0.2,0-0.3-0.1c-1.7-0.4-3.1-0.9-4-1.6c-2.3-0.8-4.8-1.6-7.3-2.4c-13.4-3.9-29.1-6.2-44.8-6.3
					c-15.1-0.1-30.3,1.9-42,6.2c-23.2,8.4-30,22.2-30.2,34.1c-0.2,12.1,6.9,26.6,33.9,34.1c10.8,3,24,4.8,37.4,4.9
					c11,0,21.6-1.5,32-2.9c3.2-0.4,6.4-0.9,9.6-1.3c3.6-0.5,6.9-0.4,9.8-0.1c3.2,0.4,6,1.2,8,2.2c2,1,3.4,2.3,3.8,3.7
					c0.4,1.3-0.1,2.7-1.5,3.9c-0.4,0.3-0.7,0.6-1.1,0.9l5.9,3.8c22.7,14.6,45.9,28.8,76.2,41.4c17.4,7.2,35.9,14,56.1,19.9l2.9,0.8
					c1.7,0.5,3.7,1.1,5.8,1.8c5.9,1.9,13,4.4,19.6,4.5c2,0,3.7-0.1,5.2-0.1c3.8-0.2,6.9-0.3,10,0.2c2.5,0.4,5.1,1.1,7.7,2.7
					c1.8,1,2.7,2.3,2.7,3.7c0,1.3-0.9,2.7-2.6,3.7c-3.4,2.2-7.6,3.5-12.1,4.3c-5,0.9-10.6,1-16.4,0.6c-14.2-1-30-5.6-40-8.6
					l-1.9-0.6c-22.2-6.6-43.3-13.9-61.8-22.1c-31.5-14-59.9-30.4-74.4-48.4c-10.3,2.6-22.9,3.9-36.2,4.1
					c-19.3,0.3-39.7-1.7-54.8-4.4c-33.2-6.1-53.3-17.8-62.8-31.1c-11-15.5-7.4-33.4,6.5-47.3c0.4-0.4,0.8-0.8,1.3-1.2
					c-42.7-42.3-55.9-89.2-52.2-134.3c1.7-21.1,5.4-43.3,18.2-63.9c5.7-9.2,15.7-18,31.5-25.3c9-4.1,20.1-7.4,31.3-10.6
					c9.7-2.8,19.4-5.6,27.5-9l3.9-1.7c0.8-0.4,1.7-0.7,2.5-1.1c14.1-6.1,27.8-11.9,44.9-16.9c19.8-5.8,41.7-10.3,64.4-14
					c49-8.1,101.7-12.9,153.8-16.7c112.8-8.1,228.6-8.5,340,2.9c51.8,5.3,102.1,12.5,152.3,19.8c4.7,0.7,9.3,1.3,14,2
					c39,5.6,78,11.2,117,16.8c18.1,2.6,36.3,5.2,54.4,7.8c3.9,0.6,7.8,1.8,10,3.3c2.1,1.5,2.8,3.2,1,4.9c-11.1,11-25.2,21.3-42.3,31
					c5.9,1.6,11,3.7,14.8,6.1c4.8,3.1,7.7,6.8,7.9,10.7c0.7,13.1-29.8,21.9-55,28.3c-2.4,0.6-4.7,1-6.9,1.1
					c24.5,36.5,47.9,73.2,67.8,110.1l1.4,2.6c20.5,38.7,33.7,78.1,14.3,117.3c-16.7,33.7-55.5,66.3-116.1,91.4
					C664.4-628.5,584.7-612.9,498.5-609.5z M-32.2-831.9c-10.6-13.1-16.1-27.3-12.1-40.6c2.5-8.3,9-16.4,19.4-23.7
					c6-4.2,13.3-8.1,21.2-11.8l2.7-1.2c1.4-0.6,2.8-1.2,3.2-1.9c0.2-0.4,0-0.9-0.7-1.4c-1.5-1.2-4.2-2.4-6.7-3.5
					c-1.6-0.7-3.2-1.4-4.5-2.1C-32.7-930.5-50-945-44.4-960.5c5.5-15.1,30.9-29.2,57.9-39.8c59.5-23.4,151.8-28.8,232.6-27.5
					c47.1,0.8,94,4,138.8,9.6c22.1,2.8,43.7,6.2,64.7,10.1l4.6,0.9c2.5,0.5,5,1,7.5,1.4c16.4,3.1,32.9,6.3,50.7,8
					c34.8,3.3,58.4-3.7,83.2-10.8c8.5-2.4,17.1-4.9,26.3-7.1l1.9-0.4c16.5-3.7,36.3-6.3,55.4-6.2c16.5,0.1,32.5,2.2,45.4,7
					c2.7,1,4.2,2.1,4.9,3.2c1.4,0.8,2.6,1.7,3.3,2.8c4.6,6.8,9.3,13.6,13.9,20.4l3.8-0.9c11.2-2.8,23.3-6.1,28.8-10.8
					c2.1-1.8,1.8-4.9-0.8-7.1c-0.9-0.8-2.2-1.5-3.9-1.9c-1.2-0.3-2.7-0.5-4.5-0.4c-4.2,0.2-8.1,0-11.4-0.6c-3.8-0.6-6.8-1.6-8.8-2.9
					c-2-1.3-2.9-2.8-2.4-4.3c0.4-1.3,1.9-2.7,4.8-4c19.1-8.6,35.1-18,47.3-28.3l-80.7-11.7c-28.8-4.2-57.5-8.3-86.3-12.4l-15.8-2.3
					c-52.3-7.5-105-14.8-159.4-19.6c-108.2-9.6-220.9-7.3-328.8,1.7l-6.5,0.6c-45.3,3.9-91.1,8.5-132.7,16.6
					c-20.4,4-39.8,8.8-56.4,14.9c-7.4,2.7-14,5.7-20.6,8.6c-9.3,4.1-18.6,8.3-29.7,11.7l-10.3,3.2c-15.3,4.8-29.1,9.5-37.7,17
					c-9,7.8-13.3,16.4-16.8,24.8c-8.9,21.2-12.4,42.7-12,64.1c0.6,36,14.6,71.2,32.3,106.4c14.2-7.9,34.1-14.1,59.7-15.4
					c16.7-0.9,33.2,0.4,47.6,3.2C-46.2-836.9-38.6-834.6-32.2-831.9z M-59-789.2c-18.7-2.8-38.3-3.8-58.1-2.4c-2.1,0.1-4,0-5.7-0.4
					c-1.7-0.4-3-1-3.7-1.7c-0.8-0.8-0.9-1.6-0.1-2.3c0.6-0.6,1.9-1.3,4.1-1.7c21.4-4,45.2-5.7,68.8-4.5l2.3,0.1
					c12.1,0.7,29.1,2.2,41.8,5.1c10,2.3,17.3,5.4,19.1,9.5c1,2.1-0.4,4.4-3.6,6c-3,1.6-7.7,2.6-13.7,2.5
					c-10.6-0.1-16.9-1.9-24.5-4.1c-0.9-0.3-1.9-0.6-2.8-0.8C-42.5-786.1-50.5-787.9-59-789.2z"/>
			</g>
		</g>
	</g>
	<g id="Eyes-Closed.svg" transform="matrix(0.734096,0,0,0.734096,1398.38,1156.31)" class="st5">
		<g transform="matrix(1,0,0,1,-144.5,-146.5)">
			<g id="face-Eyes-Closed">
				<path id="_xD83D__xDD8D_-Ink1" class="st4" d="M417.5-827.1l1.9-0.2c15.4-1.4,30.3-3.4,44.7,0.4c13.7,3.6,15.6,10.1,4.9,15
					c-11,4.9-25.6,4.7-41,4.7l-1,0c-12.8,0.1-25.8,0-38.5-0.4c-11.9-0.4-23.8-1.1-35.5-1.9l-6.9-0.5c-7.1-0.6-14.1-1.3-17.7-4
					c-6.4-4.7,41-8.3,46.7-9C389.1-824.7,403.3-825.9,417.5-827.1z M443.7-883.5c-7.5,3.1-17.5,5.1-28.7,6.4
					c-28.1,3.3-64,1.5-87-1.8c-4.8-0.7-9.2-2.1-11.8-3.9c-2.3-1.6-3.1-3.5-1.3-5.4c0.5-0.5,1.1-1.1,1.7-1.6c1.7-1.4,5.1-2.6,9.2-3.2
					c4.2-0.7,9-0.8,12.8-0.3c0.5,0.1,1,0.1,1.6,0.2c14.6,1.8,38.4,4.8,58.2,4.2c11.9-0.3,22.3-2,27.7-6.2c2.8-2.2,2.1-4.4-0.5-6.5
					c-3.8-3.1-11.4-5.7-17.8-7.5c-9-2.6-18.7-3.6-28.7-4.7c-3.8-0.4-7.6-0.8-11.4-1.3c-1.3-0.2-2.4-0.5-3.2-0.9
					c-0.8-0.4-1.4-0.9-1.5-1.4c-0.2-0.5,0-1,0.7-1.5c0.6-0.4,1.5-0.8,2.9-1c19.5-3.4,44.8-1.2,63.9,4.2c9.5,2.7,17.5,6.1,22.4,10
					c4.5,3.6,6.5,7.5,4.7,11.5C455.4-889.8,450.5-886.2,443.7-883.5z M123.5-959.7c5.5-0.9,10,3.5,11.1,4.7l2.3,2.5
					c3.8,4,8.2,8.1,16.2,11.1c6.7,2.5,17.5,4.6,25.2,1.7c7.4-2.8,3.8-5.9,4.9-9.3c2-6.2,23.5-12.3,36.5-5.9
					c29.3,14.6-16,34.8-57.7,31.2c-21.2-1.8-38.3-8.4-45.3-16.3l-0.4-0.4C112.2-945.5,107.9-957,123.5-959.7z M501.3-949.6l-0.2-0.2
					c-13.9-12.4,35.8-17.7,40-6.6l0.3,0.8c4.1,12.3-4.5,28.9-43.3,30.2c-43.5,1.4-61.6-17.6-57.7-31.4c0.7-2.5,8.4-2.8,10.8-0.6
					l0.5,0.5c7,7,13.7,20.4,38.4,20.4C506.7-936.6,505.9-945.3,501.3-949.6z M532.8-985.4c25-0.3,25,14.9,0,15.2
					c-83.3,0.8-166.7,1.8-250.1,2l-15.2,0c-78.3,0.2-156.9,0.6-235-1.9c-6.7-0.2-5.4-3.9,0.1-3.7c81.9-4.5,164.7-5.9,247.2-7.6
					C364.1-983.3,448.5-984.3,532.8-985.4z"/>
			</g>
		</g>
	</g>
</g>
</svg>
