<?xml version="1.0" encoding="utf-8"?>
<!-- Generator: Adobe Illustrator 24.2.0, SVG Export Plug-In . SVG Version: 6.00 Build 0)  -->
<svg version="1.1" id="图层_1" xmlns="http://www.w3.org/2000/svg" xmlns:xlink="http://www.w3.org/1999/xlink" x="0px" y="0px"
	 viewBox="0 0 85 85" style="enable-background:new 0 0 85 85;" xml:space="preserve">
<style type="text/css">
	.st0{fill-rule:evenodd;clip-rule:evenodd;fill:#FFFFFF;}
	
		.st1{fill-rule:evenodd;clip-rule:evenodd;stroke:#000000;stroke-width:6.870068e-02;stroke-linecap:round;stroke-linejoin:round;stroke-miterlimit:10;}
	
		.st2{fill-rule:evenodd;clip-rule:evenodd;stroke:#000000;stroke-width:0.64;stroke-linecap:round;stroke-linejoin:round;stroke-miterlimit:1.5;}
	.st3{fill-rule:evenodd;clip-rule:evenodd;}
	.st4{display:none;}
	.st5{display:inline;}
	.st6{fill-rule:evenodd;clip-rule:evenodd;fill:#040000;}
</style>
<g transform="matrix(1,0,0,1,-261.086,-19.0106)">
	<g>
		<g transform="matrix(0.4441,0,0,0.39775,0,0)">
			<path class="st0" d="M666.3,125.7c0,0-0.3,14.3-6.6,15.9c0,0-1-3.9-1-7.3c0-3.3-0.1-3.7-2.4-3.3c0,0-0.8-2.3-4.7-1.3
				c0,0-0.4-2.2-2.7-1.8c0,0-2.8-2.5-4.4-0.6c-1.5,1.9-5.4,8.5-5.3,10.7c0.1,2.2,0.8,3,1.2,3.3c0,0-23.5,10.7-14.6,48.8
				c0,0,1.4,1.7,2.3,1.3c0.8-0.4,14,29.3,14,29.3l54.7,0.3l5.8-27.2c0,0,1.5,6.8,3.9,5.8c0,0,7.8,21.8,19.6,12.2
				c3.6-2.9,3.7-7.7,3.3-12.9c-0.6-7.5-3-16.2-4.2-23c-1.7-9.5-4.6-22.8-3.9-25.5c0.6-2.5-0.4-5.6,2.2-8.9c2.7-3.3,3-5,0.5-9.1
				s-5.1-7.6-7.9-4.1c0,0-2.7,0.7-2.7,2.5c0,0-3.3-0.3-4.4,2.4c0,0-1.7-1.7-2.1,1.9c-0.1,1,1,2.9,0.9,4.7c-0.3,5.9-2.5,12,3.5,12.6
				c0,0-0.3,12-0.9,14.2c0,0-8.4-24.2-20.2-24c0,0-3.7,2.6-5.8,0.2c-2.1-2.3-1.7-8.7-1.3-10.8C683.3,132.2,672.2,125,666.3,125.7z"
				/>
		</g>
		<g transform="matrix(0.4441,0,0,0.39775,0,0)">
			<path class="st1" d="M687.2,142.4c0,0,5.2-0.3,7.2,0.9c0,0-0.3,29.1,6.9,34.8c0,0,2.3,54.7,2.3,55.3c0,0-54.5,4.6-75.8-4
				c0,0-0.4-39.9,1.5-42.7c0,0,13,38.1,30,32c0,0,2.5-1.3,2.8-2.4c0,0,22.6,2.3,23.7,0c1.2-2.3,0.1-7.5,0-7.9
				c-0.2-0.4-9.5,0.3-9.8,0.1s1.3-36.4,0.5-37.5c-0.7-1.1-11.9,2.4-12.2,2.4s-6.1-19.8-6.2-21.9c-0.2-2.2,2.8-3.3,3.1-5.2
				c0,0,9.2,12.5,17.7,8.2C687.3,150,686.6,150.4,687.2,142.4z"/>
		</g>
		<g transform="matrix(0.432482,0,0,0.486728,16.7634,-162.089)">
			<path class="st2" d="M622.4,451.5c0,0,2.4,8.2,2.5,10.5c0,0,0.6-4.1,0.6-4.9c-0.1-0.8-0.3-1.9-0.9-3.9
				C624,451.1,622.5,451.6,622.4,451.5z"/>
		</g>
		<g transform="matrix(0.4441,0,0,0.39775,0,0)">
			<path class="st1" d="M664.8,180.6c0,0,2.5-2.4,3.3-2.3c0.8,0.1-1,31.1-1,31.4c0,0-3-0.4-3.1-0.3
				C664,209.5,666.9,190.4,664.8,180.6z"/>
		</g>
		<g transform="matrix(0.366447,-0.224696,0.25088,0.328202,-383.299,452.38)">
			<path class="st3" d="M1803.4,36.7L1803.4,36.7c0,0.2,0.2,0.3,0.4,0.3c0.2,0,0.3-0.2,0.3-0.3s0.1-0.2,0-0.3l-0.1-0.1
				c0.1-0.1,0.2-0.2,0.2-0.3c0.3-0.4,0.7-0.8,0.9-1.3c0.3-0.5,0.4-1,0.4-1.5c0.1-1.8-1-3.7-1.3-5.8c-0.1-0.7-0.1-1.4,0.1-2.2
				c0.1-0.2,0.2-0.4,0.3-0.5c0.4-0.4,0.9-0.7,1.2-1.1c0.2-0.3,0.6-0.6,1.2-1c0.9-0.6,2-1.3,3.2-1.9c1.9-1,3.9-1.8,4.8-1.8
				c0.4,0,0.6,0.2,0.8,0.4c0.3,0.3,0.4,0.8,0.6,1.2c0.2,0.4,0.4,0.8,0.7,1c0.2,0.1,0.4,0.2,0.6,0.2c0.2,0.1,0.5,0,0.7-0.3
				c0.1-0.3,0.1-0.6-0.2-0.7c-0.1-0.1-0.1-0.2-0.1-0.3c-0.1-0.2-0.3-0.5-0.5-0.8c-0.3-0.5-0.6-0.9-1-1.2c-0.4-0.3-0.9-0.5-1.5-0.4
				c-0.8,0-2.4,0.7-4.1,1.5c-1.4,0.7-2.8,1.5-4,2.2c-0.8,0.4-1.4,0.8-1.7,1.1c-0.5,0.4-1.1,0.6-1.6,1c-0.3,0.3-0.5,0.6-0.6,1
				c-0.4,1-0.4,2-0.3,2.9c0.1,1,0.5,2,0.8,2.9s0.6,1.7,0.6,2.6c0,0.3-0.1,0.6-0.2,1s-0.1,0.7-0.3,1.1c-0.1,0.3-0.3,0.6-0.5,0.8
				c-0.1,0.1-0.1,0.3-0.1,0.5C1803.3,36.5,1803.4,36.6,1803.4,36.7z M1803.7,36.2C1803.6,36.2,1803.6,36.2,1803.7,36.2
				C1803.6,36.3,1803.7,36.3,1803.7,36.2z"/>
		</g>
		<g transform="matrix(-0.380229,-0.150828,-0.179843,0.363676,1714.03,272.825)">
			<path class="st3" d="M3297.1,778.7c0.1,0.2,0.1,0.4,0.1,0.4c0,0.1-0.1,0.2-0.3,0.3s-0.4-0.1-0.4-0.3l0,0
				c-0.1-0.1-0.1-0.2-0.1-0.2c-0.1-0.2,0-0.3,0.1-0.4c0.2-0.2,0.3-0.5,0.5-0.9c0.1-0.3,0.2-0.7,0.2-1.1c0.1-0.3,0.2-0.7,0.2-1
				c0.1-1.8-1.2-3.5-1.4-5.6c-0.1-0.9-0.1-1.9,0.3-2.9c0.2-0.4,0.4-0.7,0.6-0.9c0.5-0.4,1.1-0.7,1.6-1.1c0.3-0.3,0.9-0.6,1.7-1.1
				c1.1-0.7,2.5-1.5,3.9-2.2c1.7-0.8,3.3-1.5,4-1.5c0.6-0.1,1.1,0.2,1.5,0.5s0.7,0.8,1,1.3c0.2,0.3,0.3,0.5,0.4,0.8
				c0.1,0.1,0,0.2,0.1,0.3c0.2,0.1,0.3,0.5,0.2,0.7c-0.2,0.3-0.5,0.4-0.7,0.2c-0.2,0-0.4-0.1-0.6-0.3c-0.3-0.2-0.5-0.6-0.7-1
				s-0.3-0.9-0.6-1.2c-0.2-0.2-0.4-0.4-0.8-0.5c-0.9,0-2.8,0.8-4.7,1.8c-1.2,0.6-2.3,1.2-3.1,1.8c-0.5,0.4-0.9,0.7-1.1,1
				c-0.3,0.4-0.8,0.7-1.2,1.1c-0.1,0.2-0.2,0.3-0.3,0.6c-0.2,0.8-0.2,1.6-0.1,2.3c0.3,2.2,1.5,4.1,1.3,5.9c-0.1,0.5-0.2,1-0.4,1.5
				s-0.6,0.9-0.9,1.3C3297.2,778.5,3297.2,778.6,3297.1,778.7z M3296.7,778.7L3296.7,778.7L3296.7,778.7L3296.7,778.7z"/>
		</g>
		<g transform="matrix(0.366447,-0.224696,0.25088,0.328202,-383.299,452.38)">
			<path class="st3" d="M1808.2,26.8c0.4-0.6,1-1.1,1.5-1.6c0.8-0.7,1.6-1.4,2.4-1.8s2.7-1.1,4.3-1.2c0.9,0,1.8,0,2.1,0.7
				c0.1,0.2-0.1,0.5-0.1,0.7c0,0.3,0,0.5,0.2,0.7c0.1,0.3,0.4,0.5,0.7,0.3c0.3-0.1,0.5-0.4,0.4-0.7c0-0.1,0.1-0.1,0.2-0.2
				c0.1-0.2,0.1-0.5,0.1-0.7c0-0.3,0-0.6-0.1-0.8c-0.4-0.9-1.3-1.3-2.5-1.4c-2-0.1-4.7,0.9-5.8,1.5c-0.8,0.5-1.8,1.2-2.6,2.1
				c-0.8,0.8-1.6,1.8-2,2.7c-0.1,0.3-0.1,0.4,0,0.5s0.2,0.2,0.4,0.2c0.1,0,0.4-0.1,0.6-0.3C1808.1,27.2,1808.2,26.9,1808.2,26.8
				L1808.2,26.8z M1807.5,26.9L1807.5,26.9L1807.5,26.9L1807.5,26.9L1807.5,26.9L1807.5,26.9z M1807.5,26.8
				C1807.5,26.7,1807.5,26.8,1807.5,26.8L1807.5,26.8L1807.5,26.8L1807.5,26.8z"/>
		</g>
		<g transform="matrix(-0.380229,-0.150828,-0.179843,0.363676,1714.03,272.825)">
			<path class="st3" d="M3301.1,769.1L3301.1,769.1c0.1,0.2-0.1,0.5-0.3,0.7s-0.4,0.3-0.5,0.3c-0.2,0-0.3-0.1-0.4-0.2
				c-0.1-0.1-0.1-0.2,0-0.5c0.4-0.9,1.1-1.9,1.9-2.7c0.8-0.9,1.7-1.6,2.6-2.1c1-0.6,3.8-1.6,5.7-1.4c1.2,0.1,2.1,0.6,2.4,1.5
				c0.1,0.3,0.1,0.6,0.1,0.8s-0.1,0.5-0.1,0.7c0,0.1-0.2,0.1-0.2,0.2c0.1,0.3-0.1,0.6-0.4,0.7c-0.3,0.1-0.6-0.1-0.7-0.4
				c-0.2-0.2-0.2-0.5-0.2-0.7c0-0.3,0.2-0.5,0.1-0.8c-0.3-0.7-1.1-0.7-2-0.7c-1.6,0-3.5,0.7-4.2,1.1c-0.8,0.4-1.6,1.1-2.4,1.8
				C3302,768,3301.5,768.6,3301.1,769.1z M3300.3,769.3L3300.3,769.3L3300.3,769.3L3300.3,769.3L3300.3,769.3z M3300.4,769.1
				L3300.4,769.1L3300.4,769.1L3300.4,769.1C3300.3,769.2,3300.3,769.1,3300.4,769.1z"/>
		</g>
		<g transform="matrix(0.366447,-0.224696,0.25088,0.328202,-383.299,452.38)">
			<path class="st3" d="M1812,30L1812,30l1.9-1.7c1-0.7,2.1-1.5,3.2-2.1c0.7-0.4,1.4-0.7,2.2-0.9c0.3-0.1,0.8,0.1,1.2,0.4
				c0.4,0.2,0.8,0.6,1,0.9c0.1,0.1,0.3,0.1,0.3,0.3c-0.1,0.2,0.1,0.5,0.3,0.5c0.2,0,0.5-0.1,0.5-0.4c0.3-0.4,0.3-0.7,0.2-1.1
				c-0.1-0.4-0.4-0.8-0.8-1.1c-0.9-0.8-2.2-1.1-3-1c-0.8,0.2-1.7,0.6-2.6,1.1c-1.2,0.7-2.3,1.6-3.2,2.4c-0.3,0.2-0.6,0.5-0.9,0.8
				c-0.6,0.6-1.1,1.3-1.1,1.3c-0.2,0.2-0.2,0.5,0,0.6C1811.5,30.2,1811.8,30.2,1812,30L1812,30z"/>
		</g>
		<g transform="matrix(-0.380229,-0.150828,-0.179843,0.363676,1714.03,272.825)">
			<path class="st3" d="M3304.8,772.5L3304.8,772.5c-0.2,0.2-0.5,0.2-0.7,0.1s-0.2-0.5,0-0.7c0,0,0.6-0.8,1.2-1.5
				c0.2-0.2,0.5-0.4,0.7-0.6c0.9-0.7,2-1.6,3.1-2.3c0.8-0.5,1.7-0.9,2.5-1.1c0.8-0.2,2.2,0.3,3,1.1c0.4,0.3,0.7,0.7,0.8,1.1
				c0.1,0.4,0,0.8-0.2,1.1c-0.1,0.3-0.3,0.4-0.6,0.4c-0.2,0-0.4-0.3-0.3-0.5c0-0.2-0.2-0.2-0.3-0.3c-0.2-0.3-0.6-0.7-1-0.9
				s-0.8-0.4-1.1-0.4c-0.7,0.1-1.4,0.5-2.1,0.9c-1.1,0.6-2.2,1.5-3.1,2.1L3304.8,772.5L3304.8,772.5z"/>
		</g>
		<g transform="matrix(0.366447,-0.224696,0.25088,0.328202,-383.299,452.38)">
			<path class="st3" d="M1817.2,31.8c0.4-0.4,0.8-0.7,0.9-0.8c0.4-0.4,2.4-2.1,4-2.3c0.2,0,0.4,0.1,0.6,0.1c0.5,0,0.8,0.2,0.7,0.9
				c0,0.4-0.2,0.8-0.4,1.1c-0.2,0.4-0.6,0.6-0.8,1c-0.2,0.2-0.3,0.5-0.5,0.8c-0.3,0.4-0.6,0.7-0.8,1.2c-0.1,0.3-0.2,0.6-0.3,0.9
				c-0.5,1.2-1.3,2.5-1.8,3.8s-1,2.5-1.7,3.5c-0.7,0.9-1.5,1.6-2.7,1.9c-0.3,0.1-0.7,0.1-1,0.1c-0.2,0-0.3-0.1-0.5-0.1
				c-0.1,0-0.2,0-0.3-0.1c-0.3-0.2-0.7-0.1-0.9,0.2c-0.2,0.3-0.2,0.7,0.1,0.9c0.3,0.3,0.7,0.5,1.1,0.6c0.6,0.2,1.2,0.1,1.8-0.1
				c1.6-0.4,2.7-1.4,3.6-2.6c0.8-1.2,1.4-2.6,1.8-4s0.4-2.8,0.9-4c0.1-0.3,0.3-0.5,0.5-0.8c0.2-0.4,0.5-0.7,0.8-0.9
				c0.2-0.2,0.5-0.3,0.7-0.5c0.4-0.3,0.8-0.8,1.1-1.2c0.3-0.5,0.5-1.1,0.6-1.8c0.1-1.7-0.7-2.2-1.8-2.1c-0.1,0-0.2,0-0.3,0.1
				c-0.2,0.1-0.2,0.2-0.4,0.3c-0.1,0.1-0.3,0.1-0.4,0.2c-1.6,0.6-3.5,2-4,2.4c-0.2,0.1-1.1,1-1.5,1.4c-0.3,0.4-0.2,0.7-0.1,0.8
				c0.1,0,0.3,0.1,0.9-0.2C1817.2,32.2,1817.3,32,1817.2,31.8L1817.2,31.8z"/>
		</g>
		<g transform="matrix(-0.380229,-0.150828,-0.179843,0.363676,1714.03,272.825)">
			<path class="st3" d="M3309.9,774.3C3310,774.4,3310,774.4,3309.9,774.3c0.1,0.2,0,0.5-0.2,0.6c-0.6,0.4-1,0.2-1,0.1
				c-0.1-0.1-0.1-0.4,0.1-0.7c0.3-0.4,1.3-1.2,1.4-1.4c0.5-0.5,2.9-1.9,4.5-2.6c0.2-0.1,0.4-0.2,0.6-0.3c1.1-0.2,1.9,0.4,1.8,2.1
				c0,1-0.4,1.7-0.9,2.3c-0.2,0.3-0.4,0.5-0.7,0.7c-0.2,0.2-0.5,0.3-0.7,0.5c-0.3,0.2-0.6,0.6-0.8,0.9c-0.2,0.2-0.4,0.5-0.6,0.8
				c-0.6,1.2-0.5,2.7-0.8,4c-0.4,1.5-0.9,2.9-1.7,4c-0.8,1.3-2,2.3-3.6,2.7c-0.6,0.2-1.2,0.2-1.8,0.1c-0.4-0.1-0.8-0.3-1.1-0.6
				c-0.3-0.2-0.3-0.6-0.1-0.9c0.2-0.3,0.7-0.4,0.9-0.1c0.1,0.1,0.3,0.1,0.4,0.1c0.1,0,0.3,0.1,0.4,0.1c0.3,0,0.6,0,0.9-0.1
				c1.2-0.3,2-1,2.7-1.9c0.7-1,1.1-2.3,1.7-3.6c0.5-1.4,1.3-2.6,1.8-3.8c0.1-0.3,0.1-0.6,0.2-0.9c0.2-0.5,0.5-0.8,0.8-1.2
				c0.2-0.3,0.3-0.5,0.5-0.8c0.3-0.3,0.6-0.6,0.8-1c0.2-0.3,0.3-0.7,0.4-1.1c0.1-0.7-0.2-0.9-0.7-0.9c-0.1,0-0.2-0.1-0.4-0.1
				c-0.1,0-0.1,0-0.2,0c-1.5,0.4-3.5,1.9-3.9,2.3C3310.8,773.6,3310.3,774,3309.9,774.3z"/>
		</g>
		<g transform="matrix(0.4441,0,0,0.39775,0,0)">
			<path class="st3" d="M639,141.4c-0.3,0-0.6,0.1-0.9,0.2c-0.3,0.1-0.6,0.2-0.9,0.4c-0.5,0.3-0.9,0.6-1.3,1
				c-0.6,0.5-1.1,1.1-1.6,1.7c-1.3,1.4-2.5,3-3.7,4.7s-2.2,3.4-3.1,5.2c-0.8,1.8-1.6,3.7-2.1,5.6c-0.8,2.8-1.3,5.9-1.5,8.9
				c-0.6,7.6,0.2,15.6,1.6,22.3c0,0.2,0.2,0.4,0.4,0.3c0.2,0,0.3-0.3,0.3-0.5c-1-5.6-1.5-12-1.2-18.3c0.2-4.3,0.9-8.6,2.1-12.5
				c0.5-1.7,1.1-3.4,1.8-5c0.8-1.8,1.7-3.5,2.8-5.1s2.3-3.1,3.5-4.5c0.4-0.5,0.8-0.9,1.3-1.4c0.4-0.4,0.9-0.8,1.3-1.2
				c0.2-0.2,0.4-0.3,0.7-0.4c0.2-0.1,0.5-0.2,0.7-0.3c0.1-0.1,0.2,0,0.2-0.1c0.1-0.2,0.1,0,0.1-0.2c0-0.1,0.1-0.1,0.1-0.1
				c0-0.1,0.1-0.2,0.1-0.3c-0.1-0.1-0.1-0.3-0.2-0.3C639.4,141.5,639.2,141.4,639,141.4L639,141.4C639,141.5,639,141.5,639,141.4
				L639,141.4L639,141.4L639,141.4z M639.3,142.3L639.3,142.3C639.2,142.4,639.2,142.4,639.3,142.3z"/>
		</g>
		<g transform="matrix(0.4441,0,0,0.39775,0,0)">
			<path class="st3" d="M627.2,190.8c-0.2,0.1-0.2-0.3-0.3-0.5c-0.1-0.4-0.1-0.8,0-1c0.3-0.6,0.7-1.3,1.3-1.9c0.9-1,1.9-1.8,2.6-2.5
				c1.7-1.7,4.1-2.9,6.6-3.6c2.5-0.7,5.2-0.9,7.4-0.6c0.4,0.1,0.7-0.2,0.7-0.6c0-0.4-0.2-0.8-0.6-0.8c-2.3-0.3-5.2-0.1-7.9,0.7
				s-5.3,2.2-7.1,4c-0.7,0.7-1.7,1.6-2.6,2.6c-0.6,0.7-1.2,1.5-1.4,2.3c-0.2,0.5-0.2,1.5,0.2,2.2c0.3,0.6,0.8,1,1.4,0.6
				c0.2-0.1,0.3-0.3,0.2-0.5C627.5,190.9,627.3,190.8,627.2,190.8z"/>
		</g>
		<g transform="matrix(0.4441,0,0,0.39775,0,0)">
			<path class="st3" d="M687.7,141.5l-0.1-0.1c-0.2,0-0.4,0.1-0.4,0.3c-0.1,0.1,0.1,0.1,0,0.3c0,0.1,0.1,0,0.1,0.1s0.1,0.1,0.2,0.2
				c0,0,0.1,0,0.2,0.1c0.8,0.2,2.8,0.5,3,0.5c1.2,0.1,2.3,0.4,3.3,0.8c1,0.5,2,1.1,2.9,1.9c2.2,1.9,4,4.1,5.4,6.5
				c2.3,3.8,3.9,8,5.7,12.2c0.2,0.5,0.7,0.6,1.1,0.4s0.6-0.8,0.4-1.2c-1.8-4.3-3.5-8.7-5.8-12.5c-1.6-2.6-3.5-4.9-5.9-6.9
				c-1.1-0.9-2.2-1.5-3.3-2s-2.3-0.8-3.7-0.8c-0.2,0-2.2-0.2-2.9-0.2c-0.1,0-0.1,0-0.2,0C687.7,141.3,687.7,141.4,687.7,141.5
				C687.7,141.4,687.7,141.4,687.7,141.5z M687.8,141.5c0,0,0.1,0.1,0.1,0.2C687.8,141.6,687.9,141.6,687.8,141.5L687.8,141.5z
				 M687.7,141.5L687.7,141.5C687.7,141.5,687.8,141.5,687.7,141.5L687.7,141.5z"/>
		</g>
		<g transform="matrix(0.4441,0,0,0.39775,0,0)">
			<path class="st3" d="M686.8,143.4L686.8,143.4c0.1,0.2,0,0.5,0.1,0.9c0,0.8,0.1,1.7,0,1.9l-0.5,1.4c-0.7,1.5-1.7,2.6-2.8,3.6
				c-1.1,0.9-2.4,1.6-3.9,2.1c-2.8,0.9-5.5,0.8-8,0s-4.9-2.4-6.9-4.7c-1.1-1.1-2-2.1-2.7-3.3c-0.4-0.7-0.7-1.5-0.8-2.6
				c0-0.4-0.3-0.7-0.7-0.7s-0.6,0.4-0.6,0.8c0,1.3,0.3,2.4,0.7,3.4c0.7,1.4,1.7,2.5,2.9,3.8c2.3,2.5,4.9,4.2,7.6,5.1
				c2.8,0.9,5.8,0.9,8.9-0.1c1.7-0.5,3.1-1.3,4.4-2.4c1.3-1.1,2.3-2.5,3.1-4.3c0.1-0.2,0.2-0.5,0.3-0.8c0.1-0.4,0.2-0.7,0.2-1.1
				c0-0.3,0-1.3-0.2-2.2c-0.1-0.3-0.2-0.6-0.3-0.9c-0.3-0.7-0.7-0.9-0.9-0.8c-0.2,0.1-0.2,0.3-0.2,0.5
				C686.7,143.3,686.8,143.3,686.8,143.4z M687,143.4L687,143.4L687,143.4L687,143.4L687,143.4L687,143.4z"/>
		</g>
		<g transform="matrix(0.4441,0,0,0.39775,1.71086,1.71524)">
			<path class="st3" d="M696.8,171.6c0,0.4,0,0.9,0,1.3c0.1,1.6,0.4,3.3,0.5,5.2s0.2,3.8,0.2,5.8c0.1,4.8,0,9.7,0.1,13.7
				c0,2.1,0.1,4.2,0.2,6.3c0.3,5.8,0.7,11.7,1,17.5c0.1,2.5,0.3,5,0.3,7.5c0,0.4,0.3,0.7,0.7,0.7s0.6-0.3,0.6-0.7
				c0-2.1,0.1-4.2,0-6.3c-0.2-8.3-1.1-16.7-1.4-25c-0.1-4-0.1-8.9-0.2-13.7c-0.1-2-0.1-4-0.3-5.9c-0.1-1.6-0.3-3.2-0.5-4.6
				c0-0.2-0.1-0.4-0.1-0.6c-0.1-0.5-0.3-0.9-0.5-1.3c0-0.2-0.2-0.3-0.4-0.3C696.9,171.2,696.7,171.4,696.8,171.6z"/>
		</g>
		<g transform="matrix(0.456441,0,0,0.3253,-16.8467,157.146)">
			<path class="st3" d="M649.2-201.8c0.2-0.2,0.1-0.7,0-0.8c0,0-0.1,0-0.1-0.1c-0.1,0-0.1,0-0.2,0c-0.3-0.1-1-0.1-1.4-0.3
				c-0.2-0.1-0.3-0.2-0.5-0.2c-0.2-0.1-0.3,0.1-0.4,0.1c-0.1,0-0.1,0.1-0.1,0.1c-0.2,0.1-0.1,0.4-0.1,0.8c0,0.1,0.1,0.2,0.1,0.4
				c0.7,1.1,3.1,2.2,6,2.8c5.2,1.2,12.2,1.6,13.9,1.7c1.2,0.1,2.4,0.3,3.6,0.5c2.9,0.5,5.7,1.2,8.6,1.5c5.7,0.6,11.5,0.7,17.3,0.6
				c8.6-0.2,17.2-1,25.8-1.5c0.3,0,0.6-0.4,0.6-0.9s-0.3-0.9-0.6-0.8c-8.6,0.4-17.2,1.1-25.8,1.2c-5.7,0.1-11.4,0-17.1-0.6
				c-2.9-0.3-5.7-1-8.5-1.5c-1.2-0.2-2.5-0.4-3.7-0.5c-1.7-0.1-8.6-0.5-13.7-1.6C651.3-201.2,650.1-201.5,649.2-201.8z M647.3-202
				c-0.1,0.1-0.2,0.2-0.2,0.2l0,0c0-0.1,0.1,0,0.1-0.1C647.3-201.9,647.3-202,647.3-202z M647.5-202.9
				C647.5-202.9,647.4-202.9,647.5-202.9C647.4-202.9,647.4-202.9,647.5-202.9z"/>
		</g>
		<g transform="matrix(0.4441,0,0,0.39775,0,0)">
			<path class="st3" d="M644.5,145.6c0.1-0.1,0.1-0.3,0-0.4c-0.2-0.5-0.5-0.3-0.6-0.3s-0.2,0.2-0.2,0.6c0.1,0.6,0.6,2.8,0.6,3
				l1.1,5.9c0.5,3,0.7,6,0.8,8.9c0,1.2,0,2.4,0,3.6c0,1.8,0,3.6-0.1,5.4c0,0.3,0.2,0.5,0.4,0.6c0.3,0,0.5-0.2,0.5-0.5
				c0.2-1.8,0.4-3.7,0.4-5.5c0-1.2,0-2.4,0-3.7c-0.1-3-0.4-6.1-1-9.1l-1.3-6L644.5,145.6z"/>
		</g>
		<g transform="matrix(0.4441,0,0,0.434917,0,-74.6141)">
			<path class="st3" d="M629.2,345.9c0.1-0.1,0.2-0.3,0.1-0.4c0-0.3-0.2-0.4-0.2-0.5c-0.2-0.2-0.4-0.1-0.7,0.1
				c-0.1,0.1-0.2,0.3-0.3,0.6c-0.3,0.8-0.4,2.5-0.4,3.2c0,1.4-0.1,2.8-0.2,4.1c-0.1,1.4-0.2,2.7-0.3,4.1c-0.4,5.1-0.8,9.9-0.8,14.8
				c0,3.3,0.2,6.6,0.7,9.9c0.1,0.4,0.5,0.8,0.9,0.7c0.4-0.1,0.7-0.5,0.7-0.9c-0.4-3.3-0.6-6.5-0.6-9.7c0-4.8,0.2-9.7,0.6-14.7
				c0.1-1.4,0.2-2.8,0.2-4.2c0.1-1.4,0.1-2.8,0.1-4.2c0-0.6,0.1-1.9,0.2-2.7C629.1,346.2,629.2,346,629.2,345.9z M629.2,345.8
				L629.2,345.8C629.1,345.8,629.1,345.8,629.2,345.8z M628.6,345.8L628.6,345.8C628.6,345.8,628.5,345.7,628.6,345.8
				C628.5,345.7,628.6,345.8,628.6,345.8z"/>
		</g>
		<g transform="matrix(0.4441,0,0,0.39775,0,0)">
			<path class="st3" d="M665.4,127.8c0.1,0.3-0.2,0.4-0.2,0.7c0,0.2,0,0.4,0.1,0.6c0,0.3,0,0.7,0,1.1c-0.1,1.3-0.3,2.9-0.8,4.4
				c-0.6,1.8-1.5,3.4-2.6,4.3c-0.3,0.2-0.5,0.5-0.8,0.6c-0.6,0.1-0.9,0.8-0.8,1.4c0.1,0.6,0.7,1,1.3,0.9c0.6,0,1.2-0.2,1.7-0.6
				c1.6-1,2.7-3.4,3.4-5.8c0.5-1.8,0.8-3.8,0.7-5.3c0-0.5-0.1-1-0.2-1.4c-0.1-0.4-0.1-0.7-0.3-0.9c-0.4-0.4-0.6-0.5-1-0.6
				c-0.2-0.1-0.4-0.1-0.5,0.1C665.3,127.4,665.3,127.7,665.4,127.8z"/>
		</g>
		<g transform="matrix(0.4441,0,0,0.39775,0,0)">
			<path class="st3" d="M682.8,136.3c-0.1,0-0.2,0-0.3,0c-0.2,0.1-0.4,0.2-0.5,0.3c-0.2,0.2-0.2,0.5-0.2,0.7c0,0.4,0,0.7,0,1.1
				c0,0.6,0.1,1.2,0.2,1.7c0.3,1.8,0.9,3.5,2,4.4c0.8,0.7,1.9,1,3.2,0.8c0.6-0.1,1-0.7,0.9-1.3s-0.6-1.1-1.2-1
				c-0.9,0.1-1.5-0.2-1.9-0.7c-0.5-0.7-0.9-1.6-1.2-2.6l-0.4-2.4c0,0,0,0,0-0.1v0.1c0,0.1,0,0.4-0.1,0.3c-0.1,0,0-0.2,0-0.3
				c0.1-0.2,0.2-0.4,0.2-0.5s0.1-0.1,0.1-0.2c-0.1-0.3,0-0.5-0.2-0.5c-0.1,0-0.2-0.2-0.4,0C682.9,136.2,682.9,136.3,682.8,136.3z"/>
		</g>
		<g transform="matrix(0.4441,0,0,0.39775,0,0)">
			<path class="st3" d="M646.4,150.3c0.1,0.6,0.4,1.3,0.3,1.9c0,0.1-0.1,0.2-0.1,0.3c0,0.2,0,0.4,0,0.6c0.1,1.3,0.1,2.7,0.1,4.1
				c0,2.3-0.1,4.7-0.3,6.9c-0.5,7-2.6,18-2.7,27.1c-0.1,4.6,0.4,8.7,1.7,11.8c0.1,0.4,0.5,0.5,0.9,0.4c0.3-0.2,0.5-0.6,0.3-1
				c-1.1-2.9-1.4-6.8-1.3-11.1c0.2-9.1,2.1-20,2.6-27c0.2-2.7,0.3-5.7,0.1-8.5c-0.1-1.1-0.2-2.1-0.3-3.2c0-0.1,0-0.2,0-0.3
				s-0.1-0.1-0.2-0.2c0-0.1,0-0.2,0-0.3c-0.1-0.6-0.2-1.1-0.3-1.7c0-0.2-0.2-0.4-0.4-0.3C646.5,149.9,646.3,150.1,646.4,150.3z"/>
		</g>
		<g transform="matrix(0.4441,0,0,0.393996,0,7.98679)">
			<path class="st3" d="M658.1,130.7c-0.3,0.2-0.5,0.8-0.5,1.7c0,0.6,0.1,1.3,0.3,2.1c0.8,4.3,2.9,11.4,3.3,13.4
				c1.4,7,2.3,11.4,2.9,16.3c0.5,4.4,0.7,9.2,0.6,16.5c0,2.4-0.9,8-2.2,12.7c-1,3.3-2.1,6.2-3.5,6.8c-0.2,0.1-0.6,0.1-1,0.1
				c-0.7,0-1.5,0-1.9-0.1c-1.7-0.2-3.8-0.8-5.8-1.7s-3.9-2.1-5.1-3.4c-1.6-1.8-2.8-3.1-3.9-4.6c-1.1-1.4-2.1-3-3.3-5.1
				c-1-1.7-1.9-3.5-2.7-5.3c-1.3-2.7-2.5-5.5-3.6-8.2c-0.4-1-0.7-2.1-1-3.2c-0.2-0.5-0.4-1-0.7-1.5c-0.2-0.3-0.7-0.4-1-0.2
				c-0.3,0.3-0.4,0.7-0.2,1.1c0.2,0.3,0.4,0.7,0.5,1.1c0.3,1.1,0.5,2.3,0.9,3.4c1.2,2.8,2.4,5.6,3.7,8.3c0.9,1.8,1.8,3.7,2.8,5.4
				c1.3,2.2,2.3,3.8,3.5,5.2c1.1,1.5,2.4,2.9,4,4.7c1.3,1.5,3.4,2.8,5.6,3.8c2.2,1,4.4,1.6,6.3,1.8c0.5,0,1.5,0.1,2.4,0.1
				c0.5,0,0.9-0.1,1.2-0.2c1.7-0.8,3.3-4,4.4-7.9c1.4-4.9,2.3-10.7,2.4-13.2c0.2-7.4,0-12.3-0.5-16.8c-0.6-4.9-1.6-9.4-3-16.4
				c-0.4-1.7-2.2-7.3-3.2-11.6c-0.3-1.4-0.5-2.6-0.7-3.5c-0.1-0.4-0.2-0.7-0.2-0.9c0-0.1-0.1-0.2,0-0.2c0.1-0.2,0.1-0.4,0-0.6
				C658.5,130.5,658.2,130.5,658.1,130.7z"/>
		</g>
		<g transform="matrix(0.4441,0,0,0.39775,0,0)">
			<path class="st3" d="M711.9,153.3c0.1-0.1,0.1-0.3,0-0.5c-0.1-0.1-0.2-0.2-0.3-0.2s-0.4,0.1-0.4,0.4c-0.1,0.4-0.1,1.8-0.1,1.8
				v3.3c-0.1,1.4-0.3,2.9-0.5,4.3c-0.3,2.1-0.7,4.2-1,6.4c-0.7,4.1-1.3,8.1-1.6,12.1c-0.2,2.7-0.3,5.5-0.2,8.2s0.3,5.5,0.9,8.2
				c0.3,1.8,0.8,3.5,1.4,5.3c0.1,0.4,0.5,0.6,0.8,0.4c0.3-0.1,0.5-0.5,0.4-0.9c-0.5-1.7-0.8-3.5-1.1-5.2c-0.4-2.6-0.7-5.3-0.8-7.9
				c-0.1-2.7,0-5.3,0.1-8c0.2-4,0.7-8,1.2-12.1c0.3-2.2,0.6-4.3,0.9-6.4c0.2-1.4,0.3-2.9,0.4-4.3c0-0.5,0-1,0-1.4
				c0-0.7-0.1-1.4-0.2-2C711.9,154.7,711.9,153.6,711.9,153.3z"/>
		</g>
		<g transform="matrix(0.4441,0,0,0.39775,0,0)">
			<path class="st3" d="M721.3,150L721.3,150C721.3,150,721.3,150.1,721.3,150c-0.2,0.2-0.3,0.2-0.4,0.3c-0.2,0.2-0.1,0.5-0.2,0.7
				l1.3,14.8c1,8.9,4.4,17.5,6,26.4c0.4,2.2,0.6,4.4,0.7,6.6c0.1,2.8,0.1,5.9-0.8,8.6c-0.5,1.7-1.4,3.2-2.8,4.3
				c-0.4,0.3-0.5,0.9-0.2,1.3c0.3,0.4,0.8,0.5,1.1,0.2c1.7-1.4,2.8-3.2,3.4-5.3c0.8-2.9,0.8-6.3,0.6-9.3c-0.1-2.3-0.4-4.6-0.8-6.8
				c-1.5-8.8-4.7-17.4-5.5-26.3l-1.8-14.8v0.1c-0.2,0-0.1-0.3,0-0.5c0-0.1,0.1-0.3,0.1-0.4c0-0.2,0-0.4-0.2-0.5
				c-0.1-0.2-0.4-0.2-0.5,0C721.3,149.6,721.3,149.8,721.3,150z"/>
		</g>
		<g transform="matrix(0.4441,0,0,0.39775,0,0)">
			<path class="st3" d="M702.3,193.5l1.7,5.3c0.1,0.3,0.4,0.5,0.7,0.3c0.3-0.1,0.4-0.5,0.3-0.8c-0.2-0.6-0.6-2.6-1.2-3.9
				c-0.4-0.9-0.8-1.5-1.1-1.6c-0.2-0.1-0.4-0.1-0.5,0.1C702.1,193.2,702.1,193.4,702.3,193.5z"/>
		</g>
		<g transform="matrix(0.4441,0,0,0.39775,0,0)">
			<path class="st3" d="M705.4,199.9L705.4,199.9c0.2-0.1,0.2-0.4,0.1-0.5c-0.1-0.2-0.1-0.2-0.2-0.2c0-0.2,0.1-0.5,0.2-0.7
				c0.2-0.5,0.4-1,0.6-1.5c0.4-0.9,1-1.8,1.5-2.5c0.4-0.6,0.8-1.1,1.1-1.4c0.3-0.2,0.5-0.7,0.2-1.1c-0.2-0.4-0.6-0.5-1-0.3
				c-0.5,0.3-1.1,0.8-1.7,1.6c-0.6,0.8-1.2,1.9-1.6,3c-0.5,1.5-0.7,3-0.3,4c0.1,0.3,0.3,0.4,0.5,0.4c0.1,0,0.2,0,0.3-0.2
				C705.2,200.4,705.4,200,705.4,199.9z"/>
		</g>
		<g transform="matrix(0.4441,0,0,0.359431,0,78.3576)">
			<path class="st3" d="M705.9,2.8L705.9,2.8C705.9,2.9,706,2.9,705.9,2.8C706,2.9,705.9,2.9,705.9,2.8c0.3-0.1,0.3,1.6,0.4,1.7
				c0.2,0.6,0.4,1.2,0.7,1.8c0.4,0.9,0.8,1.8,1.2,2.6c1.3,2.6,3.1,5.5,5.3,7.7c1.5,1.5,3.2,2.6,5.1,3.1c1,0.3,2.2,0.2,3.3-0.1
				c0.9-0.2,1.8-0.6,2.7-1c0.6-0.3,1.1-0.7,1.6-1.1c0.3-0.2,0.4-0.7,0.3-1.1c-0.2-0.4-0.5-0.6-0.9-0.4c-0.5,0.2-1.1,0.4-1.6,0.7
				c-0.8,0.3-1.6,0.7-2.4,0.8c-0.9,0.2-1.8,0.3-2.6,0.1c-1.6-0.4-3.1-1.4-4.4-2.6c-2.1-2-3.8-4.8-5.1-7.2L707.2,4
				c0-0.1-0.3-1-0.6-1.4c-0.1-0.3-0.3-0.5-0.4-0.5c-0.2-0.1-0.4,0-0.5,0.2C705.7,2.5,705.8,2.7,705.9,2.8z"/>
		</g>
		<g transform="matrix(0.284083,0,0,0.325206,269.736,132.558)">
			<path class="st3" d="M137.4-232.5c-0.1,0-0.1,0.1-0.2,0.1c-0.2,0.1-0.1-0.1-0.4,0c-0.1,0-0.1,0.1-0.1,0.2
				c-0.3,0.4-0.7,0.9-0.9,1.6c-0.7,1.6-1,3.9-1.1,4.8c0,0.6,0,1.3,0.1,2.2c0.2,2.3,0.7,5.5,0.9,8.2c0.4,4.7,1.4,9.4,3.1,13.9
				c1.7,4.7,4.1,9.1,6.7,12.9c0.3,0.5,1.1,0.7,1.7,0.4c0.6-0.3,0.8-0.9,0.4-1.4c-2.4-3.7-4.5-8-6.2-12.5c-1.6-4.3-2.7-8.9-3.1-13.3
				c-0.3-2.7-0.8-5.9-1.1-8.2c-0.1-0.8-0.2-1.4-0.2-1.9c0-0.7,0.3-2.4,0.6-3.9c0.1-0.6,0.2-1.2,0.4-1.6c0-0.1,0.1-0.2,0.1-0.3
				s-0.2-0.1-0.1-0.2c0.2-0.2,0.3-0.5,0.1-0.7C138-232.6,137.6-232.7,137.4-232.5z"/>
		</g>
		<g transform="matrix(0.4441,0,0,0.342243,-4.30119,108.11)">
			<path class="st3" d="M685.5-117c0,0.1,0.1,0.3,0.1,0.4c0.2,1,0.2,2.6,0.2,4.2c0,2.5-0.1,5-0.1,5.4c-0.2,6.7-0.2,13.3-0.4,20
				c-0.1,3.5-0.3,7-0.6,10.6c-0.1,0.9-0.1,1.8-0.2,2.6c-0.1,0.4,0.2,0.8,0.5,0.9s0.6-0.2,0.7-0.6c0.2-1,0.3-2,0.4-3
				c0.3-2.3,0.4-4.7,0.5-7c0.4-7.8,0.3-15.6,0.6-23.3c0-0.6,0.2-5.9-0.1-8.9c-0.1-0.9-0.2-1.6-0.3-2s-0.4-0.6-0.5-0.8
				c-0.9-0.5-2.4-0.4-4,0c-2,0.5-4.2,1.3-5.9,2c-1,0.4-1.9,0.9-2.4,1.1c-0.2,0-0.3,0.3-0.3,0.5s0.2,0.4,0.4,0.4
				c0.6-0.1,1.5-0.4,2.6-0.7c1.7-0.6,3.9-1.4,5.9-1.8C683.6-117.2,684.7-117.3,685.5-117z"/>
		</g>
		<g transform="matrix(0.301701,0,0,0.342243,218.47,108.11)">
			<path class="st3" d="M254.8-107.1L254.8-107.1L254.8-107.1L254.8-107.1c-0.1,0-0.1,0-0.1,0l0,0
				C254.7-107.1,254.7-107.1,254.8-107.1c-0.1,0-0.1,0-0.1,0c-0.2,0-0.4,0.1-0.5,0.3c-0.1,0.2,0,0.5,0.3,0.6c0.2,0.1,0.7,0,1.4-0.3
				c0.7-0.3,2.2-1.3,2.9-1.4c0,0.1,0,0.3,0,0.4c0,0.7-0.1,1.8-0.1,3c-0.1,2.4-0.2,5.2-0.2,5.7c-0.1,5.5-0.2,10.8-0.5,16.1
				c-0.2,3.5-0.4,7.1-0.9,10.7c0,0.4,0.3,0.7,0.7,0.7c0.4,0,0.8-0.2,0.8-0.6c0.5-3.7,0.8-7.2,1-10.8c0.3-5.3,0.5-10.6,0.7-16.2
				c0-0.6,0.2-4.1,0.2-6.6c0-1.7-0.2-3.1-0.3-3.2c-0.3-0.4-1-0.7-2-0.3c-0.9,0.3-2.2,1.2-3.1,1.7C255-107.3,254.9-107.2,254.8-107.1
				z M258.8-108L258.8-108c0.1,0.1,0.3,0.3,0.3,0.2C259.1-108,259-108,258.8-108z"/>
		</g>
		<g transform="matrix(0.4441,0,0,0.267222,-4.30119,265.82)">
			<path class="st3" d="M685.1-683.5L685.1-683.5c0,0,0.4,0.1,0.9,0.1c1.7,0,5.1-0.3,7.2-0.2c0.5,0,1-0.1,1.3-0.1
				c0,0.1,0.1,0.4,0.1,0.5c0.1,1.1,0.2,2.8,0.2,4.6c0,1.7-0.1,3.5-0.2,4.5c0,0.1-0.1,0.3-0.1,0.4c-1.3,1-5,1.3-9,1.3
				c-5.3,0-11.3-0.5-13.5-1.3c0.1-0.4,0.2-1,0.3-1.5c0.3-1,0.4-1.7,0.5-2.1c0.2-0.9,0-0.6,0.2-1.4c0.2-0.8,0.3-1.6,0.4-2.3
				c0.1-0.4,0.1-0.7,0.3-0.8c0.1-0.1,0.2-0.1,0.4-0.2c0.6-0.1,1.4,0,2.6,0c0.3,0,0.5-0.4,0.5-0.9s-0.2-0.9-0.5-0.9
				c-1,0-1.8-0.2-2.3-0.1c-0.5,0.1-0.9,0.3-1.2,0.7c-0.2,0.2-0.3,0.5-0.4,0.9c-0.2,0.7-0.3,1.8-0.6,3c-0.2,0.8,0,0.5-0.2,1.4
				c-0.1,0.4-0.3,1-0.5,1.9c-0.3,1.1-0.7,2-0.7,2.4c-0.1,0.7,0.1,1.1,0.4,1.3c1.7,1,8.4,2,14.4,2c4.4,0,8.4-0.5,9.8-1.6
				c0.2-0.1,0.3-0.4,0.5-0.9c0.2-0.8,0.4-2.7,0.4-4.7c0-2.1,0-4.5-0.2-6c-0.1-1-0.3-1.7-0.5-2c-0.1-0.1-0.5-0.4-1.2-0.4
				c-1.6-0.1-5.1,0.2-7.3,0.5c-0.3,0-0.5,0.1-0.7,0.1c-0.5,0.1-0.9,0.3-1.1,0.4c-0.1,0.1-0.2,0.1-0.2,0.1c-0.2,0.2-0.2,0.3-0.3,0.4
				c0,0.2,0,0.3,0.1,0.5C684.7-683.5,684.9-683.4,685.1-683.5z M694.5-683.7L694.5-683.7c0,0.1,0.2,0.4,0.2,0.2
				C694.7-683.6,694.6-683.7,694.5-683.7z"/>
		</g>
		<g transform="matrix(0.4441,0,0,0.39775,0,0)">
			<path class="st0" d="M693.7,143.2c0.1-0.2,0.1-0.4,0-0.5s-0.2,0-0.6,0.2c-0.4,0.2,0.2-0.2-0.3-0.1c-0.1,0-0.1,0.1-0.1,0.1
				c-0.2,0.3-0.4,1-0.5,1.5s-0.2,0.9-0.3,1.4c-0.1,0.6-0.1,1.2-0.2,1.9c-0.1,1.2-0.1,2.5-0.1,3.8c0.1,1.9,0.3,3.8,0.4,5.6
				c0.4,3.5,1,6.7,1.9,9.9s2,6.3,3.3,9.4c0.6,1.5,0.9,2.1,1.3,2.9c0.2,0.3,0.4,0.7,0.7,1.1c0.2,0.2,0.4,0.3,0.6,0.5
				c0.3,0.3,0.7,0.4,1,0.1c0.3-0.3,0.4-0.8,0.1-1.1c-0.1-0.3-0.2-0.5-0.3-0.7c-0.3-0.6-0.6-0.9-0.8-1.4c-0.3-0.6-0.5-1.2-0.9-2.3
				c-1.3-3-2.3-6-3.2-9.1c-0.8-3.1-1.4-6.2-1.8-9.5c-0.2-1.7-0.4-3.6-0.4-5.4c0-1.2,0-2.4,0.1-3.5l0.1-3c0.1-0.4,0.2-0.9,0.3-1.3
				v-0.1C694.4,143.4,693.9,143.2,693.7,143.2z M693.7,143.3c-0.1,0.1-0.2,0.1-0.3,0.1C693.5,143.5,693.6,143.5,693.7,143.3z"/>
		</g>
		<g transform="matrix(0.4441,0,0,0.39775,0,0)">
			<path class="st0" d="M689.4,143.8C689.4,143.8,689.3,143.7,689.4,143.8c-0.1-0.1-0.2-0.1-0.2-0.1c0.1,0-0.1,0.1-0.1,0.2
				c-0.1,0.3-0.2,0.6-0.3,0.7c-0.3,1-0.6,2.1-1,3.1c-0.2,0.4-0.3,0.8-0.5,1.1c-1.2,2-2.6,3.7-4.2,5c-1.6,1.3-3.4,2.1-5.6,2.4
				c-2.2,0.3-3.9,0.4-5.5,0.1c-1.6-0.3-3.1-0.9-5.1-2.1c-0.3-0.2-1.3-1.3-2.4-2.4c-1-1.1-2-2.2-2.4-2.7c0,0-0.3-0.3-0.4-0.6v-0.1
				l0,0l0,0l0,0l0,0l0,0l0,0v0.1c0,0.1-0.1,0.1,0,0.2c0,0.1,0,0.1-0.1,0.2c0.1-0.3,0.1-0.5,0-0.8c-0.2-0.5-0.8-0.8-1.3-0.5
				c-0.3,0-0.3,0.3-0.5,0.5c-0.1,0,0,0.1-0.1,0.2c-0.1,0.1,0,0.3,0,0.6c0,0.5,0.6,1.5,0.7,1.7c0.4,0.6,1.8,2.2,3,3.5
				c1.1,1.1,2,2.1,2.3,2.3c2.2,1.4,4,2.2,5.8,2.5s3.7,0.2,6.2-0.1c2.6-0.3,4.8-1.4,6.7-2.8c1.9-1.5,3.4-3.4,4.8-5.6
				c0.4-0.6,0.7-1.3,0.9-2.1c0.3-1,0.5-2.1,0.7-3c0-0.3,0.2-1.2,0-1.7c-0.2-0.4-0.2-0.7-0.4-0.8c-0.1,0-0.1-0.1-0.2-0.1
				c-0.3,0-0.4-0.2-0.6,0c0,0.1-0.1,0-0.2,0.1c-0.1,0.1-0.2,0.2-0.2,0.4C689.4,143.3,689.4,143.6,689.4,143.8z M661.7,148.9
				c0,0.1-0.1,0.3-0.2,0.4C661.6,149.2,661.7,149.1,661.7,148.9L661.7,148.9z M690.4,143.6c0,0.1,0,0.1,0,0.2l0,0
				C690.5,143.7,690.4,143.6,690.4,143.6C690.5,143.6,690.4,143.6,690.4,143.6z M689.8,143.2C689.8,143.1,689.8,143.1,689.8,143.2
				L689.8,143.2z M690,143.1C690,143.1,689.9,143.1,690,143.1C689.9,143.1,690,143.1,690,143.1z"/>
		</g>
	</g>
	<g id="Gray-Short.svg2" transform="matrix(0.302528,0,0,0.270954,708.623,648.318)" class="st4">
		<g transform="matrix(1,0,0,1,-236.5,-283.5)" class="st5">
			<g id="head-mono-Gray-Short2">
				<path class="st0" d="M-1147.9-1954.1c0,0-4.7,20.6,9.3,14.6c0,0,7.8,20.2,14.4,18.2c0,0,5.2,4.7,9.4,5.1c0,0,20.7,21.2,38-11.6
					c6.9-13,2.6-41.6-0.4-52.2c-1.3-4.6-1.5-9.4-1.7-10.7c0,0,8.9-6.2,2.4-9.2c0,0,4.7-7.2,3.8-7.9c-0.9-0.6-31-15.3-45.9-12.1
					c-15,3.3-22.1,5.3-27,12.6c-4.9,7.3-5,3.3-5.9,10.4C-1152.4-1989.7-1154.5-1958.2-1147.9-1954.1z"/>
				<path id="_xD83D__xDD8D_-Ink6" class="st3" d="M-1097.9-1908.6c-6.3,0.7-13.7-0.9-17.9-6.6c-0.1-0.2-0.2-0.4-0.2-0.6
					s0.1-0.4,0.2-0.6s0.3-0.3,0.5-0.3s0.3,0,0.5,0.1l0.4,0.2c2.9,1.8,5.8,3.3,9.1,3.9c3.3,0.7,6.7,0.6,10-0.3
					c6-1.5,10.9-5.4,14.5-10.6c4-5.8,6.4-13.1,7-20.4c0.7-8.8-1-17.6-2.8-26.2c-1.9-9-3.9-18-6.3-26.8c-0.1-0.3-0.1-0.5-0.1-0.7
					c-0.7-0.3-1.4-0.2-2.2,0.1c-1.4,0.5-2.7,1.7-3.8,2.6c-0.4,0.3-0.8,0.7-1.1,0.9c-1.4,1.1-2.9,1.8-4.6,2c-1.8,0.1-3.5-0.5-5.1-1.3
					c-0.8-0.4-1.6-0.8-2.4-1.2c-2.3-1.2-4.6-2.3-7-3c-3.3-1-6.7-1.5-10.2-1.5c-6.1,0.1-12.3,1.8-16,7.6c-1.5,2.3-2.5,5-1.7,7.9
					c0.4,1.6,1.2,3,2.1,4.3l0.3,0.4c0.5,0.7,0.9,1.4,1,2.2c0.1,0.6,0,1.3-0.4,2.1c-0.3,0.5-0.6,0.9-0.9,1.3
					c-0.2,0.3-0.5,0.6-0.7,0.9c-0.4,0.7-0.8,1.4-1.1,2.1c-0.6,1.4-0.8,3-0.9,4.5c-0.1,1.9,0.2,3.7,0.4,5.6c0.2,1.3,0.3,2.6,0.4,3.9
					c0,0.2-0.1,0.4-0.1,0.5c-0.1,0.2-0.3,0.3-0.4,0.3s-0.1,0-0.2,0c0,0.1,0.1,0.3,0.1,0.4c-0.1-0.2-0.2-0.3-0.4-0.5l0,0
					c-0.1-0.1-0.2-0.2-0.3-0.4c-0.2-0.2-0.4-0.4-0.6-0.5c-1-0.9-2.3-1.4-3.5-1.4s-2.4,0.4-3.3,1.4c-1.8,1.9-2.3,5-2.4,7.6
					c0,2.7,0.5,5.9,2.6,7.6c0.8,0.7,1.9,1.1,2.9,1.1c0.9,0,1.7-0.3,2.5-0.7c0.2-0.1,0.5-0.2,0.7-0.3c0.3-0.1,0.5-0.1,0.8,0
					s0.5,0.3,0.6,0.5c0.2,0.2,0.3,0.5,0.3,0.8s0,0.6-0.1,0.9c0,0.1-0.1,0.1-0.1,0.2l0.5,0.8c1.8,3.2,3.6,6.4,5.9,9.2
					c1.4,1.6,2.8,3.1,4.4,4.4l0.2,0.2c0.1,0.1,0.3,0.2,0.4,0.4c0.5,0.4,1,1,1.5,1c0.2,0,0.3,0,0.4,0c0.3,0,0.5-0.1,0.8,0.1
					c0.2,0.1,0.4,0.3,0.6,0.6c0.1,0.2,0.2,0.5,0.2,0.8s-0.1,0.6-0.2,0.8c-0.3,0.5-0.6,0.8-0.9,1c-0.4,0.2-0.8,0.2-1.3,0.1
					c-1.1-0.2-2.3-1.3-3.1-1.9l-0.2-0.1c-1.7-1.5-3.4-3.1-4.8-4.9c-2.5-3.1-4.7-6.8-5.8-10.8c-0.8,0.6-1.8,0.9-2.8,0.9
					c-1.5,0.1-3.1-0.4-4.3-1c-2.6-1.4-4.2-4-4.9-6.9c-0.9-3.5-0.6-7.4,0.5-10.5c0-0.1,0.1-0.2,0.1-0.3c-3.3-9.4-4.4-19.9-4.1-29.9
					c0.1-4.7,0.4-9.6,1.4-14.2c0.4-2.1,1.2-4,2.5-5.6c0.7-0.9,1.6-1.6,2.4-2.4c0.8-0.6,1.5-1.2,2.1-2l0.3-0.4
					c0.1-0.1,0.1-0.2,0.2-0.2c1.1-1.4,2.2-2.7,3.5-3.8c1.5-1.3,3.2-2.3,5-3.1c3.8-1.8,7.9-2.9,12-3.7c8.8-1.8,17.8-1.9,26.5,0.6
					c4,1.2,8,2.8,11.9,4.4c0.4,0.1,0.7,0.3,1.1,0.4c3,1.2,6.1,2.5,9.1,3.7c1.4,0.6,2.8,1.2,4.2,1.7c0.3,0.1,0.6,0.4,0.8,0.7
					c0.2,0.3,0.2,0.7,0.1,1.1c-0.9,2.5-2,4.8-3.3,6.9c0.5,0.4,0.9,0.8,1.2,1.4c0.4,0.7,0.6,1.5,0.6,2.4c0.1,2.9-2.3,4.9-4.3,6.3
					c-0.2,0.1-0.4,0.2-0.5,0.2c1.9,8.1,3.7,16.3,5.3,24.5l0.1,0.6c1.6,8.6,2.6,17.4,1.1,26.1c-1.3,7.5-4.3,14.8-9,20.4
					C-1084.9-1912.8-1091.1-1909.4-1097.9-1908.6z M-1139.2-1958.2c-0.8-2.9-1.3-6.1-0.9-9c0.2-1.9,0.7-3.6,1.5-5.3
					c0.5-0.9,1-1.8,1.7-2.6l0.2-0.3c0.1-0.1,0.2-0.3,0.2-0.4s0-0.2-0.1-0.3c-0.1-0.3-0.3-0.5-0.5-0.8c-0.1-0.2-0.2-0.3-0.3-0.5
					c-1.8-2.7-3.1-6-2.7-9.4s2.4-6.5,4.5-8.9c4.6-5.2,11.8-6.4,18.1-6.1c3.7,0.2,7.3,0.9,10.8,2.1c1.7,0.6,3.4,1.4,5,2.2l0.4,0.2
					c0.2,0.1,0.4,0.2,0.6,0.3c1.3,0.7,2.6,1.4,4,1.8c2.7,0.7,4.5-0.8,6.5-2.4c0.7-0.5,1.3-1.1,2-1.6l0.1-0.1
					c1.3-0.8,2.8-1.4,4.3-1.4c1.3,0,2.5,0.5,3.5,1.6c0.2,0.2,0.3,0.5,0.4,0.7s0.2,0.4,0.3,0.6c0.4,1.5,0.7,3,1.1,4.6l0.3-0.2
					c0.9-0.6,1.8-1.4,2.2-2.4c0.2-0.4,0.1-1.1-0.1-1.6c-0.1-0.2-0.2-0.3-0.3-0.4c-0.1-0.1-0.2-0.1-0.3-0.1c-0.3,0-0.6,0-0.9-0.1
					s-0.5-0.4-0.7-0.6c-0.2-0.3-0.2-0.6-0.2-1c0-0.3,0.1-0.6,0.4-0.9c1.5-1.9,2.7-4,3.7-6.3l-6.3-2.6c-2.2-0.9-4.5-1.8-6.7-2.8
					l-1.2-0.5c-4.1-1.7-8.2-3.3-12.4-4.4c-8.4-2.1-17.2-1.6-25.6,0.4l-0.5,0.1c-3.5,0.9-7.1,1.9-10.3,3.7c-1.6,0.9-3.1,2-4.4,3.3
					c-0.6,0.6-1.1,1.3-1.6,1.9c-0.7,0.9-1.5,1.8-2.3,2.6l-0.8,0.7c-1.2,1.1-2.3,2.1-2.9,3.8c-0.7,1.7-1,3.7-1.3,5.5
					c-0.7,4.7-1,9.5-0.9,14.3c0,8,1.1,15.9,2.5,23.7c1.1-1.8,2.7-3.1,4.7-3.4c1.3-0.2,2.6,0.1,3.7,0.7
					C-1140.3-1959.3-1139.7-1958.8-1139.2-1958.2z M-1141.3-1948.7c-1.5-0.6-3-0.8-4.5-0.5c-0.2,0-0.3,0-0.4-0.1s-0.2-0.2-0.3-0.4
					c-0.1-0.2-0.1-0.4,0-0.5c0-0.1,0.1-0.3,0.3-0.4c1.7-0.9,3.5-1.3,5.4-1h0.2c0.9,0.2,2.3,0.5,3.3,1.1c0.8,0.5,1.3,1.2,1.5,2.1
					c0.1,0.5,0,1-0.3,1.3c-0.2,0.3-0.6,0.6-1.1,0.6c-0.8,0-1.3-0.4-1.9-0.9c-0.1-0.1-0.1-0.1-0.2-0.2
					C-1140-1948-1140.6-1948.4-1141.3-1948.7z"/>
			</g>
		</g>
	</g>
	<g id="Calm.svg1" transform="matrix(0.319302,0,0,0.285977,721.962,663.715)" class="st4">
		<g transform="matrix(1,0,0,1,-144.5,-146.5)" class="st5">
			<g id="face-Calm1">
				<path id="_xD83D__xDD8D_-Ink7" class="st3" d="M-1159.8-2001.8c-1.6,0.5-3.3,0.6-5,0c-1.5-0.5-3-1.6-4.1-3
					c-1-1.3-1.6-2.8-1.6-4.4c0-0.2,0.1-0.3,0.2-0.5c0.1-0.1,0.2-0.2,0.4-0.3c0.2,0,0.3,0,0.4,0c0.1,0.1,0.2,0.2,0.3,0.3
					c0.2,0.2,0.3,0.5,0.5,0.7c1.3,1.9,2.7,3.3,4.7,3.8c1.1,0.3,2.2,0.2,3.2-0.3c1.1-0.4,2.1-1.2,2.8-2.2c0.3-0.4,0.8-0.6,1.2-0.6
					c0.5,0,0.9,0.2,1.2,0.6c0.3,0.4,0.6,0.9,0.6,1.4s-0.1,0.9-0.5,1.4C-1156.6-2003.3-1158.2-2002.3-1159.8-2001.8z M-1159.9-2025.1
					c1.6,1.1,4.2,3.7,2.4,6.5c-2.1,2.4-5.1-0.4-6.6-1.6c-1.4-1-2.9,1.5-1.6,2.7c10.7,8.8,15-7.3,6.7-8.9
					C-1160-2026.6-1160.3-2025.4-1159.9-2025.1z M-1175.3-2030c-0.5-0.4-1.2-0.5-1.8-0.2c-0.5,0.3-1.5,1.2-2.1,2.4
					c-0.4,0.8-0.8,1.8-0.7,2.8c0,0.2-0.1,0.4-0.2,0.5s-0.2,0.2-0.4,0.2c-0.1,0-0.3,0-0.4,0c-0.2-0.1-0.4-0.3-0.4-0.4
					c-0.5-1.4-0.3-2.9,0.3-4.3c0.7-1.9,2-3.4,2.8-3.9c1.4-0.9,3.1-0.9,4.5,0c1.2,0.7,2,1.9,2.7,3.2c0.2,0.3,0.3,0.5,0.5,0.8
					c0.3,0.5,0.4,1,0.2,1.4c-0.1,0.5-0.5,0.9-0.9,1.1s-0.9,0.2-1.3,0s-0.7-0.5-0.9-1.1C-1173.9-2028.4-1174.5-2029.4-1175.3-2030z
					 M-1148.4-2027.9c-0.4,0.2-0.6,0.3-1,0.1c-0.2-0.1-0.4-0.2-0.6-0.4c-0.2-0.2-0.3-0.4-0.3-0.7c-0.1-0.6-0.4-1.3-0.9-1.6
					c-0.4-0.3-0.9-0.5-1.4-0.4c-0.6,0.1-1.1,0.5-1.5,1c-0.1,0.2-0.2,0.4-0.3,0.5c-0.2,0.3-0.4,0.7-0.6,0.9c-0.1,0.1-0.2,0.2-0.4,0.2
					c-0.1,0-0.1,0-0.2,0c-0.6-0.7-0.7-1.1-0.7-1.6s0.2-1,0.5-1.5c0.7-1.1,2-2.1,2.9-2.3c1.2-0.3,2.4,0.1,3.4,0.8c1,0.8,1.7,2,2,3.3
					c0.1,0.3,0,0.7-0.1,1C-1147.9-2028.3-1148.1-2028.1-1148.4-2027.9z M-1172.6-2042.1c-0.7,0.8-1.6,0.9-2.4,1
					c-0.5,0.1-0.9,0.1-1.2,0.2c-1,0.3-2.1,0.7-3,1.2c-1,0.6-2.1,1.3-2.8,2.2c-0.2,0.2-0.4,0.4-0.5,0.7c-0.2,0.2-0.3,0.4-0.5,0.6
					s-0.4,0.5-0.5,0.7s-0.1,0.2-0.2,0.3c0,0.1-0.1,0.2-0.1,0.3c-0.1,0.1-0.1,0.3-0.2,0.4c-0.1,0.2-0.2,0.3-0.2,0.3
					c-0.1,0-0.2,0.1-0.3,0.1c-0.1,0-0.2-0.1-0.2-0.1c-0.4-0.4-0.5-0.9-0.5-1.5c0-0.9,0.3-2,0.6-2.6c0.7-1.5,1.6-3,2.7-4.1
					c1.2-1.2,2.6-2.2,4.2-2.8c1-0.4,2.1-0.8,3.2-0.7c0.8,0,1.5,0.3,2.1,0.9c0.4,0.4,0.5,0.9,0.5,1.5
					C-1172-2043.1-1172.2-2042.5-1172.6-2042.1z M-1146.9-2034.9c0,0.1-0.1,0.1-0.2,0.2c-0.1,0-0.2,0-0.2,0c-0.1,0-0.2-0.1-0.2-0.1
					c-0.1-0.1-0.1-0.1-0.1-0.2c-0.5-2.4-1.4-4.1-3.4-5.2c-1-0.6-2.1-0.9-3.2-1.2c-0.3-0.1-0.6-0.1-1-0.2c-1-0.2-2.1-0.4-2.8-1.3
					c-0.4-0.6-0.6-1.3-0.5-1.9s0.4-1.2,1-1.5c1.5-0.8,3.3,0,4.8,0.7c0.1,0.1,0.2,0.1,0.3,0.2c1.4,0.7,2.8,1.6,3.9,2.9
					c0.9,1,1.7,2.5,2,4.1C-1146.3-2037.3-1146.3-2036-1146.9-2034.9z"/>
			</g>
		</g>
	</g>
	<g>
		<g transform="matrix(0.4441,0,0,0.39775,0,0)">
			<path class="st0" d="M729.1,70.4c0,0-1.2,11-6.5,13c0,0,7.3,1,7.7,8.7c0,0,2.9-10.4,7.1-10.8C737.4,81.4,730.9,80.7,729.1,70.4z"
				/>
		</g>
		<g transform="matrix(0.4441,0,0,0.39775,0,0)">
			<path class="st3" d="M728.5,67.4L728.5,67.4c0,0-0.1,0.6-0.3,1.4c-0.2,1.6-0.4,4.2-0.7,5.7c-0.3,1.8-1.1,3.7-2.2,5.3
				c-0.6,0.9-1.4,1.7-2.3,2.3c-0.6,0.4-1.2,0.8-1.8,1.1c-0.3,0.1-0.4,0.3-0.4,0.6c0.1,0.3,0.3,0.5,0.6,0.4c0.8-0.1,1.6-0.3,2.4-0.7
				c1.1-0.6,2-1.5,2.8-2.6c1.3-1.7,2.1-3.9,2.5-6c0.2-1.2,0.4-2.9,0.5-4.4c0-0.4,0.1-0.8,0.1-1.2c0-1,0-1.8,0-1.8
				c0-0.4-0.2-0.7-0.5-0.7C728.9,66.7,728.6,67,728.5,67.4L728.5,67.4z"/>
		</g>
		<g transform="matrix(0.4441,0,0,0.39775,0,0)">
			<path class="st3" d="M728.7,68.3c0,1.1,0.1,2.3,0.3,3.5c0.5,2.7,1.5,5.5,3.1,7.5c1.3,1.7,3.1,3,5.2,3c0.5,0,1-0.1,1.5-0.2
				c0.3,0,0.5-0.4,0.5-0.7c0-0.4-0.3-0.6-0.6-0.6c-0.4,0-0.8-0.1-1.2-0.1c-1.7-0.2-3.1-1.1-4.2-2.4c-1.5-1.8-2.4-4.3-3-6.8
				c-0.3-1.1-0.6-2.2-0.7-3.3c0-0.2-0.2-0.4-0.4-0.4C728.8,67.9,728.6,68.1,728.7,68.3z"/>
		</g>
		<g transform="matrix(0.489494,0,0,0.39775,-83.5141,-2.12627)">
			<path class="st3" d="M825.7,88.7c-0.1-0.1-0.2-0.2-0.4-0.1c-0.7,0.3-0.6,0.5,0.4,1c0.1,0.1,0.1,0.2,0.3,0.2
				c0.8,0.4,2.5,0.2,3.1,0.9c1.3,1.3,2.2,2.6,2.7,4.1c0.5,1.2,0.6,2.6,0.6,4.1c0,0.2,0,0.5,0,0.8c0,0.1,0.1,0.2,0.1,0.3
				c0,0.4,0.2,0.7,0.5,0.8c0.3,0.1,0.6-0.2,0.6-0.6c0.1-0.1,0.1-0.2,0.2-0.3c0.1-0.3,0.1-0.6,0.1-0.9c0.1-1.8-0.2-3.4-0.7-4.9
				c-0.6-1.7-1.7-3.2-3.2-4.7c-0.7-0.6-2.3-0.8-3.4-0.9c-0.2,0-0.3,0-0.4,0C825.9,88.5,825.9,88.6,825.7,88.7L825.7,88.7z"/>
		</g>
		<g transform="matrix(0.430125,0,0,0.424707,26.212,-43.996)">
			<path class="st3" d="M693.6,191.7C693.6,191.7,693.6,191.6,693.6,191.7c0.1-1.2,1.2-4.1,1.3-4.6c0.6-1.8,1.6-3.9,3-5.3
				c0.5-0.5,1.1-0.9,1.8-1.1c0.4-0.1,0.9-0.2,1.4-0.2c0.4,0,0.7-0.2,0.8-0.6c0-0.4-0.2-0.7-0.6-0.8c-0.9-0.2-1.7-0.1-2.5,0.1
				c-0.8,0.3-1.4,0.8-2,1.4c-1.5,1.6-2.4,4-2.9,6c-0.1,0.5-1.1,3.7-1,4.9c0,0.6,0.3,0.9,0.7,0.8c0.2,0,0.3-0.2,0.3-0.4
				C693.8,191.8,693.7,191.8,693.6,191.7z M693.6,191.7C693.6,191.8,693.6,191.8,693.6,191.7C693.7,191.8,693.7,191.7,693.6,191.7z"
				/>
		</g>
	</g>
	<g>
		<g transform="matrix(0.4441,0,0,0.39775,0,0)">
			<path class="st0" d="M623.9,121.9c0,0,0.1,4.9-3.9,6.5c0,0,3.8,2.2,4,5.5c0,0,1.4-5.8,4.1-5.6
				C628.1,128.3,623.9,125.7,623.9,121.9z"/>
		</g>
		<g transform="matrix(0.4441,0,0,0.39775,0,0)">
			<path class="st3" d="M623.6,119.1c-0.3,2.3-0.9,4.8-2.1,6.7c-0.8,1.2-1.8,2.1-3.2,2.5c-0.3,0.1-0.5,0.4-0.5,0.8
				c0.1,0.4,0.4,0.6,0.7,0.5c1.8-0.4,3.2-1.4,4.1-2.9c1.3-2.1,1.6-5,1.7-7.5c0-0.2-0.1-0.4-0.3-0.4
				C623.8,118.7,623.6,118.9,623.6,119.1z"/>
		</g>
		<g transform="matrix(0.4441,0,0,0.39775,0,0)">
			<path class="st3" d="M623.4,119.7c-0.6,2.2,0,4.6,1.3,6.4c0.5,0.7,1.1,1.4,1.8,1.9c1.1,0.8,2.4,1.2,3.6,1.1
				c0.3,0,0.6-0.3,0.6-0.7c0-0.4-0.3-0.6-0.6-0.6c-1,0-1.9-0.4-2.8-1c-0.6-0.4-1.1-0.9-1.6-1.5c-1.2-1.5-1.9-3.4-1.5-5.4
				c0.1-0.2-0.1-0.4-0.3-0.5C623.7,119.4,623.5,119.5,623.4,119.7z"/>
		</g>
		<g transform="matrix(0.368511,0,0,0.425193,100.184,-49.182)">
			<path class="st3" d="M472.8,235.9c-0.1,0.6,0.3,0.8,0.8,0.9c0.3,0.1,0.8,0,1.4,0c0.5,0,1,0,1.4,0.3c0.9,0.5,1.5,1.5,1.9,2.5
				s0.6,2.2,0.8,3.3c0.1,0.5,0.2,1,0.2,1.5c0,0.2,0.2,0.5,0.5,0.5s0.5-0.2,0.6-0.4c0.1-0.4,0.2-0.9,0.3-1.4c0.1-1-0.1-2.1-0.5-3.1
				c-0.5-1.7-1.6-3.2-2.9-3.9c-0.5-0.3-1-0.4-1.5-0.4c-0.6,0-1.1,0.1-1.6,0.2c-0.1,0-0.3,0.1-0.4,0.1s-0.2,0-0.2,0s0.1,0.1,0,0.1
				V236c0-0.2-0.2-0.4-0.4-0.4C473,235.6,472.8,235.7,472.8,235.9z"/>
		</g>
		<g transform="matrix(0.546254,0,0,0.39775,-140.521,0)">
			<path class="st3" d="M764.8,136.6c0-0.1,0.1-0.2,0.1-0.3c0-1.2,0.4-3.3,1.1-5c0.5-1.2,1.2-2,2.1-2.4c0.2-0.1,0.4-0.2,0.7-0.3
				c0.2,0,0.4-0.2,0.4-0.5c0-0.3-0.1-0.5-0.3-0.6c-0.4-0.2-0.8-0.2-1.2-0.1c-0.9,0.2-1.5,1.1-2.1,2.1c-1.1,2.1-1.5,5.1-1.4,6.7
				c0,0.3-0.1,0.5,0,0.7s0.2,0.3,0.4,0.4c0.2,0,0.3-0.1,0.4-0.4C764.9,136.9,764.9,136.7,764.8,136.6z M764.8,136.6
				c0,0.1,0,0.1,0,0.2C764.8,136.8,764.8,136.7,764.8,136.6z"/>
		</g>
	</g>
</g>
<g class="st4">
	<g transform="matrix(0.4441,0,0,0.39775,-345.369,-236.477)" class="st5">
		<g id="Gray-Short.svg" transform="matrix(0.681216,0,0,0.681216,1361.69,1133.76)">
			<g transform="matrix(1,0,0,1,-236.5,-283.5)">
				<g id="head-mono-Gray-Short">
					<path id="_xD83D__xDD8D_-Ink" class="st6" d="M-473.8-374.7c-6.3,0.7-13.7-0.9-17.9-6.6c-0.1-0.2-0.2-0.4-0.2-0.5
						c0-0.2,0.1-0.4,0.2-0.6s0.3-0.3,0.5-0.3s0.3,0,0.5,0.1l0.4,0.2c2.9,1.8,5.8,3.3,9.1,3.9c3.3,0.7,6.7,0.6,10-0.2
						c6-1.5,10.9-5.4,14.5-10.6c4-5.8,6.4-13,7-20.4c0.7-8.9-1-17.6-2.8-26.2c-1.9-9-3.9-18-6.3-26.8c-0.1-0.3-0.1-0.5-0.1-0.8
						c-0.7-0.3-1.5-0.2-2.2,0.1c-1.4,0.5-2.7,1.7-3.8,2.6c-0.4,0.3-0.8,0.7-1.1,0.9c-1.4,1.1-2.9,1.8-4.6,2
						c-1.8,0.1-3.5-0.5-5.1-1.3c-0.8-0.4-1.6-0.8-2.4-1.2c-2.3-1.1-4.5-2.3-7-3c-3.3-1-6.7-1.5-10.2-1.5c-6.1,0.1-12.3,1.8-16,7.6
						c-1.5,2.3-2.5,5-1.7,7.9c0.4,1.6,1.2,3,2.1,4.3l0.3,0.5c0.5,0.7,0.9,1.4,1,2.2c0.1,0.6,0,1.3-0.4,2.1c-0.3,0.5-0.6,0.9-0.9,1.3
						c-0.2,0.3-0.5,0.6-0.7,0.9c-0.4,0.6-0.8,1.4-1.1,2.1c-0.6,1.4-0.8,3-0.8,4.5c-0.1,1.9,0.2,3.7,0.4,5.6c0.2,1.3,0.3,2.6,0.4,3.9
						c0,0.2,0,0.4-0.1,0.5c-0.1,0.2-0.3,0.2-0.5,0.3c0,0-0.1,0-0.2,0c0,0.1,0,0.2,0.1,0.4c-0.1-0.2-0.2-0.3-0.4-0.5l0,0
						c-0.1-0.1-0.2-0.2-0.3-0.4c-0.2-0.2-0.4-0.4-0.6-0.5c-1-0.9-2.3-1.4-3.5-1.4s-2.4,0.4-3.3,1.4c-1.8,1.9-2.3,5-2.4,7.6
						c0,2.7,0.5,5.9,2.6,7.6c0.8,0.7,1.9,1.1,2.9,1.1c0.9,0,1.7-0.3,2.5-0.6c0.2-0.1,0.5-0.2,0.8-0.3c0.3-0.1,0.5-0.1,0.8,0
						c0.2,0.1,0.5,0.3,0.6,0.5c0.2,0.2,0.3,0.5,0.3,0.8s0,0.6-0.1,0.9c0,0.1-0.1,0.1-0.1,0.2l0.5,0.9c1.8,3.2,3.6,6.4,5.9,9.2
						c1.4,1.6,2.8,3.1,4.4,4.4l0.2,0.2c0.1,0.1,0.3,0.2,0.5,0.4c0.5,0.4,1,1,1.5,1c0.1,0,0.3,0,0.4,0c0.3,0,0.5-0.1,0.8,0
						c0.2,0.1,0.4,0.2,0.6,0.6c0.1,0.2,0.2,0.5,0.2,0.8s-0.1,0.6-0.2,0.8c-0.3,0.5-0.6,0.8-0.9,1c-0.4,0.2-0.8,0.2-1.3,0.1
						c-1.1-0.2-2.3-1.3-3.1-1.9l-0.1-0.1c-1.7-1.5-3.4-3.1-4.8-4.9c-2.5-3.1-4.7-6.8-5.8-10.8c-0.8,0.6-1.8,0.9-2.8,0.9
						c-1.5,0.1-3.1-0.4-4.3-1c-2.6-1.4-4.2-4-4.9-6.9c-0.8-3.5-0.6-7.4,0.5-10.5c0-0.1,0.1-0.2,0.1-0.3c-3.3-9.4-4.3-19.9-4.1-29.9
						c0.1-4.7,0.4-9.6,1.4-14.2c0.5-2.1,1.2-4,2.5-5.6c0.7-0.9,1.6-1.6,2.4-2.4c0.8-0.6,1.5-1.2,2.1-2l0.3-0.4
						c0.1-0.1,0.1-0.2,0.2-0.2c1.1-1.4,2.2-2.7,3.5-3.8c1.5-1.3,3.2-2.3,5-3.1c3.8-1.8,7.9-2.9,12-3.7c8.8-1.8,17.8-1.9,26.5,0.6
						c4,1.2,8,2.8,11.9,4.4c0.4,0.1,0.7,0.3,1.1,0.5c3,1.2,6.1,2.5,9.1,3.7c1.4,0.6,2.8,1.2,4.2,1.7c0.3,0.1,0.6,0.4,0.8,0.7
						c0.2,0.3,0.2,0.7,0.1,1.1c-0.9,2.5-2,4.8-3.3,6.9c0.5,0.4,0.9,0.8,1.1,1.4c0.4,0.7,0.6,1.5,0.6,2.4c0,2.9-2.3,4.9-4.3,6.3
						c-0.2,0.1-0.4,0.2-0.5,0.2c1.9,8.1,3.7,16.3,5.3,24.5l0.1,0.6c1.6,8.6,2.6,17.4,1.1,26.1c-1.3,7.5-4.3,14.8-9,20.4
						C-460.9-378.9-467.1-375.4-473.8-374.7z M-515.2-424.2c-0.8-2.9-1.3-6.1-0.9-9c0.2-1.9,0.7-3.6,1.5-5.3c0.5-0.9,1-1.8,1.7-2.6
						l0.2-0.3c0.1-0.1,0.2-0.3,0.2-0.4s0-0.2,0-0.3c-0.1-0.3-0.3-0.5-0.5-0.8c-0.1-0.2-0.2-0.3-0.3-0.5c-1.8-2.7-3.2-6-2.7-9.4
						c0.4-3.4,2.4-6.5,4.5-8.9c4.6-5.2,11.8-6.4,18.1-6.1c3.7,0.2,7.3,0.9,10.8,2.1c1.7,0.6,3.4,1.4,5,2.2l0.4,0.2
						c0.2,0.1,0.4,0.2,0.6,0.3c1.3,0.7,2.6,1.4,4,1.8c2.7,0.7,4.5-0.8,6.5-2.4c0.7-0.5,1.3-1.1,2-1.6l0.1-0.1
						c1.3-0.8,2.8-1.4,4.3-1.4c1.3,0,2.5,0.5,3.5,1.6c0.2,0.2,0.3,0.5,0.4,0.7s0.2,0.4,0.3,0.6c0.4,1.5,0.7,3,1.1,4.5l0.3-0.2
						c0.9-0.6,1.8-1.4,2.2-2.4c0.2-0.4,0.1-1.1-0.1-1.6c-0.1-0.2-0.2-0.3-0.3-0.4c-0.1-0.1-0.2-0.1-0.4-0.1c-0.3,0-0.6,0-0.9-0.1
						s-0.5-0.4-0.7-0.6c-0.2-0.3-0.2-0.6-0.2-1c0-0.3,0.1-0.6,0.4-0.9c1.5-1.9,2.7-4,3.7-6.3l-6.3-2.6c-2.2-0.9-4.5-1.9-6.7-2.8
						l-1.2-0.5c-4.1-1.7-8.2-3.3-12.4-4.4c-8.4-2.1-17.2-1.6-25.6,0.4l-0.5,0.1c-3.5,0.9-7.1,1.9-10.3,3.7c-1.6,0.9-3.1,2-4.4,3.3
						c-0.6,0.6-1.1,1.3-1.6,1.9c-0.7,0.9-1.5,1.8-2.3,2.6l-0.8,0.7c-1.2,1.1-2.3,2.1-2.9,3.8c-0.7,1.7-1,3.7-1.3,5.5
						c-0.7,4.7-1,9.5-0.9,14.3c0,8,1.1,15.9,2.5,23.7c1.1-1.8,2.7-3.1,4.7-3.4c1.3-0.2,2.6,0.1,3.7,0.7
						C-516.2-425.3-515.7-424.8-515.2-424.2z M-517.2-414.7c-1.5-0.6-3-0.8-4.5-0.5c-0.2,0-0.3,0-0.4-0.1c-0.1-0.1-0.2-0.2-0.3-0.4
						c-0.1-0.2-0.1-0.4,0-0.5c0-0.1,0.1-0.3,0.3-0.4c1.7-0.9,3.5-1.3,5.4-1h0.2c0.9,0.2,2.3,0.5,3.3,1.1c0.8,0.5,1.3,1.2,1.5,2.1
						c0.1,0.5,0,1-0.3,1.3c-0.2,0.4-0.6,0.6-1.1,0.6c-0.8,0-1.3-0.4-1.9-0.9c-0.1-0.1-0.2-0.1-0.2-0.2
						C-516-414-516.6-414.4-517.2-414.7z"/>
				</g>
			</g>
		</g>
		<g id="Eyes-Closed.svg" transform="matrix(0.734096,0,0,0.734096,1398.38,1156.31)">
			<g transform="matrix(1,0,0,1,-144.5,-146.5)">
				<g id="face-Eyes-Closed">
					<path id="_xD83D__xDD8D_-Ink1" class="st6" d="M-558.4-520.4h0.2c1.2-0.3,2.4-0.8,3.5,0.1c1.1,0.8,1.2,2.3,0.4,3.3
						c-0.9,1.1-2,1-3.2,1h-0.1c-1,0-2,0-3-0.1c-0.9-0.1-1.9-0.2-2.8-0.4l-0.5-0.1c-0.5-0.1-1.1-0.3-1.4-0.9c-0.5-1,3.2-1.9,3.6-2
						C-560.6-519.9-559.5-520.1-558.4-520.4z M-556.3-533c-0.6,0.7-1.4,1.2-2.2,1.4c-2.2,0.7-5,0.3-6.8-0.4
						c-0.4-0.2-0.7-0.5-0.9-0.9s-0.2-0.8-0.1-1.2c0-0.1,0.1-0.2,0.1-0.4c0.1-0.3,0.4-0.6,0.7-0.7c0.3-0.2,0.7-0.2,1-0.1h0.1
						c1.1,0.4,3,1.1,4.5,0.9c0.9-0.1,1.7-0.4,2.2-1.4c0.2-0.5,0.2-1,0-1.4c-0.3-0.7-0.9-1.3-1.4-1.7c-0.7-0.6-1.5-0.8-2.2-1
						c-0.3-0.1-0.6-0.2-0.9-0.3c-0.1,0-0.2-0.1-0.2-0.2s-0.1-0.2-0.1-0.3s0-0.2,0-0.3s0.1-0.2,0.2-0.2c1.5-0.8,3.5-0.3,5,0.9
						c0.7,0.6,1.4,1.4,1.7,2.2s0.5,1.7,0.4,2.6C-555.4-534.4-555.8-533.6-556.3-533z M-581.3-550c0.4-0.2,0.8,0.8,0.9,1l0.2,0.6
						c0.3,0.9,0.6,1.8,1.3,2.5c0.5,0.6,1.4,1,2,0.4s0.3-1.3,0.4-2.1c0.2-1.4,1.8-2.8,2.8-1.3c2.3,3.2-1.2,7.8-4.5,7
						c-1.7-0.4-3-1.9-3.5-3.6v-0.1C-582.2-546.8-582.5-549.4-581.3-550z M-551.9-547.7L-551.9-547.7c-1.1-2.8,2.8-4,3.1-1.5v0.2
						c0.3,2.8-0.3,6.5-3.4,6.7c-3.4,0.3-4.8-3.9-4.5-7c0-0.5,0.7-0.6,0.8-0.1v0.1c0.5,1.6,1.1,4.5,3,4.5
						C-551.4-544.8-551.5-546.7-551.9-547.7z M-549.4-555.7c2-0.1,1.9,3.3,0,3.4c-6.5,0.2-13,0.4-19.5,0.4h-1.2
						c-6.1,0-12.2,0.1-18.3-0.4c-0.5,0-0.4-0.9,0-0.8c6.4-1,12.8-1.3,19.3-1.7C-562.5-555.2-556-555.4-549.4-555.7z"/>
				</g>
			</g>
		</g>
	</g>
</g>
<g id="head_x2F_mono_x2F_Cornrows-2">
	<path id="Path" class="st0" d="M34.1,5.8l0.6,0.7C34.3,6.8,34,7,33.7,7.2l0,0c1.3-0.9,2.7-1.4,4.3-1.4c3,0,9.1,2.6,10.5,4.4
		c0.7,0.9,2,3.8,2.6,6.8c0.5,2.5,1.3,9.5,0.5,12.1c-1,3.4-4.3,6.5-7.8,6.5s-8.7-2.5-12.5-7.9c-0.2-0.2-2.2-0.5-3.6-1.5l0.4,4.1
		l0.3,2.4L28.4,33c-1,2.7-1.8,4.2-2.4,4.3c-0.6,0.1-1.8-0.9-3.7-3l-0.2-1c-0.6-2.5-0.9-3.9-0.9-4.1l0,0c0-0.4,0.2-2.9,0.2-3.5l0-9.8
		c2-6.7,3.9-10,5.7-10H34.1z"/>
	<path id="_xD83D__xDD8D_-Ink_1_" class="st3" d="M29.3,3.6c0.6-0.2,1.3-0.2,1.8,0.2c1.1,0,2.2,0.6,2.8,1.5c0,0,0,0,0,0l0.1,0.1
		c0.1,0.1,0.2,0.3,0.3,0.4c-0.5,0-0.9,0.2-1.1,0.6c-0.2,0.3,0.3,0.5,0.5,0.3l0,0c0.2-0.2,0.4-0.3,0.7-0.3c0.1,0,0.1,0,0.2-0.1
		c0,0.1,0,0.1,0,0.2C36,6,37.5,5.8,39,6c-0.1,0.1-0.1,0.2-0.2,0.3c0,0.1,0.1,0.3,0.2,0.3c0.1,0,0.3,0,0.3-0.2l0,0
		c0.1-0.2,0.2-0.3,0.3-0.4c0.7,0.1,1.4,0.2,2.1,0.4c0.8,0.2,1.6,0.5,2.4,0.8c-0.1,0.1-0.2,0.1-0.3,0.3c-0.2,0.3,0.3,0.6,0.5,0.3l0,0
		c0,0,0,0,0-0.1l0,0l0,0l0,0l0,0l0,0c0,0,0,0,0.1,0c0.1,0,0.1,0,0.2,0c0.1,0,0.2-0.1,0.2-0.2C45.2,7.8,45.6,8,46,8.2l0.1,0
		c1.2,0.6,2.3,1.4,2.9,2.6c0,0.1,0.1,0.2,0,0.2c0.1,0.2,0.3,0.3,0.4,0.5c0.4,0.5,0.7,1.1,0.9,1.7c0.5,1.2,0.9,2.4,1.2,3.7
		c0.3,1.2,0.5,2.5,0.7,3.7c0.2,1.4,0.4,2.8,0.5,4.2c0.1,2.5-0.4,5-1.8,7.1c-1.3,1.9-3.1,3.4-5.4,3.9c-2.3,0.5-4.7,0-6.5-1.5
		c-0.3-0.2-0.2-0.7,0-1c0.3-0.3,0.7-0.2,1,0c1.7,1.4,4.2,1.7,6.2,0.9c1.9-0.7,3.4-2.2,4.3-4c1.1-2.1,1.3-4.6,1.1-6.9
		c-0.1-1.3-0.3-2.6-0.5-3.9L51,18.8c-0.1-0.8-0.3-1.7-0.4-2.5l0-0.2c-0.2-1-0.5-2-0.9-3c-0.2-0.5-0.5-1-0.7-1.4
		c0-0.1-0.1-0.2-0.2-0.3c-0.1,0-0.2,0-0.2,0c-0.7-0.2-1.5-0.4-2.2-0.4c-0.3,0-0.7,0-1,0c-0.6,0-1.2,0-1.8,0.2
		c-0.1,0-0.1-0.1-0.2-0.1c0,0,0,0,0,0c-0.1,0-0.2-0.1-0.3-0.3c0,0,0,0,0,0c-0.1-0.1-0.1-0.1-0.2-0.2c-0.2,0-0.3-0.1-0.4-0.3
		c0,0-0.1-0.1-0.1-0.1c0,0-0.1,0-0.1,0c-0.1,0-0.3,0-0.4-0.1c-0.1-0.1-0.2-0.2-0.3-0.4c-0.2,0-0.4-0.1-0.6-0.2
		c-0.2-0.1-0.3-0.3-0.4-0.4c-1.5-0.7-3.1-1.1-4.8-1.2c-0.2,0-0.3,0.1-0.5,0.1c0,0-0.1,0-0.2,0.1c0.4,0,0.7,0,1.1,0
		c1.8,0.3,3.2,1.6,4.4,2.8c0.3-0.1,0.6,0.3,0.3,0.6l-2,1.9l0,0c0.1,0.2-0.2,0.4-0.4,0.4c-0.4-0.1-0.7-0.2-1.1-0.3
		c-0.4,0.2-0.8,0.1-1.2-0.1c0,0-0.1,0-0.1-0.1c0,0-0.1,0-0.1,0.1c-0.1,0.1-0.3,0.1-0.4,0.1c-0.1,0-0.3-0.1-0.4-0.2
		c-0.1-0.1-0.2-0.3-0.3-0.3l0,0c0.1,0-0.1,0.2-0.2,0.2c-0.1,0.1-0.3,0.1-0.4,0.1c-0.3,0-0.5-0.3-0.6-0.5l0,0l0,0l0,0c0,0,0,0,0,0
		c0,0.1-0.1,0.1-0.1,0.2c-0.1,0.1-0.3,0.2-0.4,0.1c-0.1,0-0.2-0.1-0.3-0.2l0,0c0,0-0.2-0.3-0.2-0.3l0,0l0,0c-0.1,0-0.2,0-0.3-0.1
		c-0.4-0.1-0.7-0.2-1.1-0.3c0,0.1-0.1,0.2-0.1,0.2c0.2,0.1,0.4,0.3,0.5,0.4c0.3,0.2,0.6,0.5,0.9,0.7l1.2,0.9l0,0l0.1,0l0,0
		c0.2,0,0.3,0.1,0.4,0.2l0,0c0,0.1,0.1,0.1,0.1,0.2c0.3,0,0.6,0.2,0.7,0.4c0.1,0,0.2,0,0.2,0c0.2,0,0.4,0.2,0.3,0.4l0,0l0,0
		c0.1,0.1,0.2,0.2,0.2,0.3c0,0.1,0.1,0.1,0.1,0.2c0.1,0.3-0.1,0.7-0.2,1l0,0c-0.1,0.2-0.1,0.4-0.2,0.6l-0.2,0.5
		c-0.4,1.4-0.9,2.8-0.5,4.3c0.1,0.3-0.3,0.4-0.5,0.2c-0.4-0.6-0.9-1.1-1.3-1.6l0,0l0,0c-0.3-0.1-0.5-0.3-0.6-0.5c-0.1,0-0.2,0-0.3,0
		c-0.1,0-0.3-0.1-0.3-0.2c-0.1-0.1-0.2-0.3-0.2-0.3c-0.1-0.1-0.4,0-0.5,0c-0.1,0-0.2-0.1-0.3-0.1c-0.2,0.3-0.3,0.6-0.3,0.9
		c0,0.1,0,0.2-0.1,0.3c0.2,0,0.4,0,0.6,0c0.7,0.1,1.2,0.6,1.5,1.2c0,0,0,0.1,0,0C31.9,22,31,22,30.3,22.2c-0.7,0.2-1.1,0.9-1.3,1.6
		c-0.2,0.8,0,1.7,0.5,2.3c0.2,0.3,0.5,0.6,0.8,0.7c0.4,0.1,0.8-0.1,1.3,0c0.3,0.1,0.4,0.4,0.4,0.7c0,0.1-0.1,0.2-0.1,0.3
		c0.2,0.3,0.3,0.6,0.5,0.9c0.3,0.5,0.6,0.8,1,1.2c0.4,0.4,0.8,0.8,1.2,1.2c0.4,0.4,0.9,0.6,1.3,0.9c0.3,0.2,0.4,0.5,0.3,0.9
		c-0.1,0.3-0.5,0.6-0.9,0.4c-0.6-0.3-1.2-0.7-1.7-1.2c-0.5-0.4-0.9-0.9-1.2-1.5c-0.3-0.5-0.5-1.1-0.7-1.7l0-0.1
		c-0.1-0.3-0.2-0.6-0.2-0.9c-0.3,0.2-0.8,0.2-1.2,0.2c-0.6-0.1-1.2-0.4-1.6-0.8c-0.2-0.2-0.4-0.4-0.5-0.7c0,0.2,0,0.3,0,0.4
		c0.3,0.4,0.5,0.9,0.4,1.4c0.3,0.3,0.4,0.7,0.2,1.1c0.3,0.3,0.3,0.8,0.2,1.3c0.4,0.4,0.4,1.1,0.1,1.5l0,0l0,0
		c0.3,0.5,0.2,1.1-0.1,1.6c0.3,0.5,0.2,1.1-0.4,1.3c-0.2,0.1-0.5,0-0.6-0.1c0.2,0.8,0.2,1.5,0,2.3c-0.1,0.3-0.4,0.5-0.7,0.5
		c-0.3,0-0.4-0.1-0.6-0.3c0,0.4,0,0.8-0.1,1.2c0,0.2-0.3,0.4-0.5,0.5c0.1,0.1,0.1,0.2,0,0.4c-0.3,0.6-1.2,0.4-1.2-0.2
		c-0.2-0.2-0.3-0.5-0.4-0.8c-0.1-0.4-0.1-0.9-0.2-1.3l0,0l0,0l0,0l0,0c0,0.2-0.2,0.4-0.3,0.5c0,0.4,0,0.8-0.3,1.1
		c-0.2,0.2-0.4,0.3-0.7,0.2c0,0,0,0,0,0c-0.5-0.1-0.8-0.6-0.7-1c-0.2-0.3-0.3-0.6-0.2-0.9c-0.4-0.3-0.4-0.9-0.3-1.4
		c-0.4-0.3-0.6-1-0.4-1.5c-0.4-0.5-0.4-1.2-0.2-1.7c-0.4-0.4-0.4-1,0-1.4c-0.2-0.5-0.4-1-0.1-1.4C21,30,20.9,29.8,21,29.5
		c0-0.4,0.3-0.6,0.6-0.8l0-0.1l0,0c0.1,0,0.1,0,0.2-0.1c0.1-0.1,0.1-0.1,0.2-0.2c0.1,0,0.1,0,0.2-0.1c0.1,0,0.3-0.1,0.4-0.1
		c0.3,0,0.3-0.5,0-0.5c0,0-0.1-0.1-0.2-0.1l-0.1,0c-0.1,0-0.3,0-0.4,0.1c-0.1,0-0.1,0.1-0.2,0.1c0,0.1-0.1,0.2-0.2,0.3
		c-0.1,0.1-0.3,0.1-0.4,0c-0.2-0.1-0.2-0.3-0.2-0.5c0-0.4-0.2-0.8-0.1-1.3c0-0.2,0.1-0.4,0.2-0.5c-0.2-0.3-0.3-0.8-0.1-1.1
		c-0.4-0.4-0.4-1-0.2-1.4c0,0,0,0,0,0c0-0.1,0.1-0.1,0.1-0.2c-0.2-0.3-0.2-0.8,0-1.1c-0.3-0.4-0.3-0.9,0-1.3c0,0,0-0.1,0-0.1
		c-0.1-0.3-0.1-0.7,0.1-1c-0.1-0.1-0.1-0.3-0.1-0.4c-0.1-0.4,0-0.8,0.1-1.1c0-0.1,0-0.1,0.1-0.2c0-0.3,0-0.5,0-0.8
		c-0.1-0.2-0.1-0.5-0.1-0.7l0-0.1c0-0.4,0-0.9,0.2-1.2c-0.1-0.3-0.1-0.8,0.2-1c-0.2-0.3-0.2-0.7,0-1c0-0.1,0.1-0.1,0.1-0.1
		c0-0.3,0-0.6,0.2-0.9c0.1-0.2,0.3-0.4,0.4-0.5c0,0,0-0.1,0-0.1c0-0.2,0-0.4,0.1-0.5c-0.1-0.2-0.2-0.4-0.1-0.7
		c0.1-0.3,0.3-0.5,0.5-0.6c0-0.3,0.1-0.5,0.1-0.8c-0.2-0.3,0-0.8,0.3-1c0-0.3,0-0.6,0.2-0.8c0.1-0.1,0.2-0.1,0.3-0.2
		c0-0.3,0-0.6,0.2-0.8c0.2-0.2,0.4-0.3,0.6-0.3c0.1-0.5,0.6-0.8,1-0.8c0.1-0.2,0.2-0.4,0.4-0.5c0.1,0,0.1,0,0.2,0
		c0.4-0.4,1-0.7,1.5-0.8c0.5-0.1,1-0.2,1.5,0l0,0l0,0C29,3.6,29.2,3.6,29.3,3.6z M25.4,36.3c-0.1,0-0.3,0.1-0.3,0.2
		c0,0.1,0,0.3,0.2,0.3c0.2,0.1,0.4,0.1,0.5,0.1c0.1,0,0.3-0.1,0.3-0.3c0-0.1-0.1-0.3-0.3-0.3C25.7,36.4,25.6,36.3,25.4,36.3z
		 M24.2,33.5c-0.2,0-0.4,0-0.5,0.2c-0.1,0.1-0.1,0.3,0,0.4c0.1,0.1,0.3,0.1,0.4,0l0,0c0,0,0,0,0,0c0,0,0,0,0,0l0,0c0,0,0,0,0,0l0,0
		l0,0l0,0c0,0,0.1,0,0.1,0c0.1,0,0.3-0.1,0.3-0.3C24.5,33.6,24.4,33.5,24.2,33.5z M28.1,31.8c0.3-0.2,0-0.6-0.3-0.5l0,0
		c-0.1,0.1-0.3,0.1-0.5,0.1c-0.3,0-0.3,0.5,0,0.5l0.1,0C27.6,32,27.9,31.9,28.1,31.8z M25.8,29.9c-0.2,0-0.5-0.1-0.7-0.1l0,0H25
		c-0.1,0-0.1,0-0.2,0.1c-0.1,0-0.1,0.1-0.2,0.1c-0.3,0.2,0.1,0.6,0.4,0.4c0,0,0,0,0,0l0,0h0.3c0,0,0.1,0,0.1,0c0.1,0,0.2,0,0.2,0
		C26,30.4,26.2,29.9,25.8,29.9z M25.6,24.8c-0.4-0.2-0.9-0.2-1.3,0.1c-0.3,0.2,0,0.6,0.3,0.5l0,0c0,0,0.1,0,0.1-0.1
		c0.2,0.1,0.4,0.1,0.6,0l0,0l0,0C25.6,25.4,25.9,24.9,25.6,24.8z M30.1,24c-0.4,0-0.4-0.7,0-0.7c0.9,0.1,1.7,0.5,2.3,1.2
		c0.3,0.3-0.2,0.8-0.5,0.5l0,0C31.5,24.4,30.8,24,30.1,24z M25.4,20.5c-0.1,0-0.2,0-0.3,0c-0.2,0-0.5,0.2-0.4,0.4
		c0.1,0.2,0.3,0.2,0.5,0.1c0.1,0,0.1,0,0.2,0c0.1,0,0.3,0,0.4,0.1c0.3,0.1,0.5-0.4,0.1-0.5l-0.1,0c0,0-0.1,0-0.2,0
		C25.6,20.6,25.5,20.6,25.4,20.5L25.4,20.5L25.4,20.5z M22.8,16.4L22.8,16.4c-0.5-0.1-1.2,0-1.3,0.6c0,0.3,0.4,0.3,0.5,0.1
		c0.3-0.1,0.7-0.1,1,0c0.1-0.1,0.1-0.4-0.1-0.4C22.9,16.5,22.8,16.4,22.8,16.4z M33,15.5c-0.1-0.1-0.3-0.1-0.4,0
		c-0.1,0.1-0.1,0.1-0.1,0.2l0,0.1c0,0,0,0,0,0c0,0,0,0,0,0l0,0c0,0,0,0,0,0c-0.1,0.1-0.1,0.3,0,0.4c0.1,0.1,0.3,0.1,0.4,0
		c0.1-0.1,0.1-0.1,0.1-0.2l0-0.1c0,0,0,0,0,0c0,0,0,0,0,0l0,0c0,0,0,0,0,0C33.1,15.7,33.1,15.6,33,15.5z M27.6,14.8
		c-0.4-0.3-0.8-0.3-1.2,0c-0.2,0.2,0.1,0.6,0.4,0.4l0,0c0,0,0,0,0,0c0,0,0.1,0.1,0.2,0.1c0,0,0,0,0.1,0l0,0l0,0l0,0l0,0
		c0,0,0.1,0,0,0c0,0,0,0,0,0l0,0c0.1,0.1,0.3,0.1,0.4,0C27.7,15.2,27.8,14.9,27.6,14.8z M31.2,13.9L31.2,13.9
		c0.3-0.1,0.2-0.6-0.1-0.5c-0.3,0.1-0.5,0.4-0.6,0.8c0,0.1,0,0.3,0.2,0.3c0.1,0,0.3,0,0.3-0.2c0-0.1,0-0.2,0.1-0.3l0,0
		C31.1,14,31.1,14,31.2,13.9C31.2,13.9,31.2,13.9,31.2,13.9z M25.7,11.2L25.7,11.2c-0.4-0.1-0.8-0.1-1,0.2c-0.2,0.3,0.3,0.6,0.4,0.3
		c0,0,0,0,0,0l0,0l0.1,0c0.1,0,0.2,0,0.3,0C25.9,11.8,26,11.3,25.7,11.2z M37.1,9.2C37.4,9,37,8.6,36.7,8.8
		c-0.2,0.2-0.4,0.4-0.5,0.6c-0.1,0.1,0,0.3,0.1,0.4c0.1,0.1,0.3,0,0.4-0.1C36.8,9.5,37,9.4,37.1,9.2z M34.1,8.6
		c-0.2,0.1-0.4,0.4-0.5,0.6c0,0.1,0.1,0.3,0.2,0.3c0.1,0,0.3,0,0.3-0.2l0,0c0-0.1,0.1-0.2,0.1-0.2c0-0.1,0.1-0.1,0.2-0.1
		c0.1,0,0.2-0.2,0.2-0.3C34.4,8.8,34.2,8.7,34.1,8.6z M26.9,7.4c-0.2-0.2-0.6-0.3-0.9-0.1c-0.1,0.1-0.2,0.2-0.1,0.4
		c0.1,0.1,0.2,0.2,0.4,0.1c0,0,0,0,0.1,0c0,0,0,0,0.1,0l0,0c0,0,0,0,0,0c0,0,0,0,0,0l0,0c0,0,0,0,0,0l0,0C26.8,8,27.2,7.6,26.9,7.4z
		"/>
</g>
<g id="face_x2F_Smile-Big">
	<path id="_xD83D__xDD8D_-Ink_2_" class="st3" d="M41.2,25.8c1.1-0.1,2.2,0.2,3.3,0.4c0.6,0.1,1.2,0.2,1.8,0.2c0.1,0,0.2,0,0.4,0
		c0-0.1,0.1-0.2,0.2-0.3c0.3-0.1,0.5-0.2,0.8-0.2c0.3,0,0.5,0,0.8,0.1c0.5,0.1,0.9,0.3,1.3,0.6c0.8,0.8,0.7,2,0.1,2.9
		c-1.3,1.8-3.6,1.8-5.6,1.8l-0.2,0c-1.8,0-4.4,0.2-5.2-1.8c-0.3-0.8-0.3-1.6,0.1-2.4C39.3,26.3,40.3,25.9,41.2,25.8z M46.8,28.7
		L46.8,28.7c-0.8,0-1.7,0.1-2.5,0.1c0,0.2,0.1,0.4,0.1,0.6c0,0.2,0,0.3,0.1,0.5c0,0.1,0.1,0.2,0,0.3l0,0l0,0c0,0,0.1,0.1,0.1,0.1
		c0,0,0,0,0,0c0.6,0,1.3,0,2-0.1l0,0l0,0c0-0.1,0-0.1,0.1-0.2c0-0.3,0-0.6,0.1-0.8C46.8,29.1,46.8,28.9,46.8,28.7z M43.7,28.8
		c-0.6,0-1.2,0-1.8,0l-0.3,0l0,0c0.1,0.3,0.1,0.6,0.2,0.9c0.1,0.3-0.2,0.5-0.5,0.5c0,0,0.1,0,0.1,0c0.8,0.1,1.6,0.1,2.3,0.1
		c0-0.2,0-0.5,0-0.7l0,0C43.7,29.3,43.7,29.1,43.7,28.8z M39.6,28.7c0,0.2,0.1,0.3,0.1,0.5c0.3,0.6,0.8,0.9,1.5,1
		c-0.1,0-0.2-0.1-0.2-0.3c-0.1-0.4-0.1-0.8-0.1-1.2C40.5,28.8,40,28.8,39.6,28.7z M49.1,28.6c-0.3,0.1-0.7,0-1,0.1
		c-0.3,0-0.6,0-0.8,0c0,0.2,0,0.4,0,0.6c0,0.2,0,0.5,0.1,0.8c0.6-0.2,1.1-0.5,1.5-1C48.9,28.9,49,28.8,49.1,28.6z M41.1,26.8
		c-0.5,0.1-1,0.4-1.3,0.8c-0.2,0.3-0.2,0.6-0.2,0.9c0.4-0.1,0.9-0.1,1.3-0.1c0-0.1,0-0.2,0-0.2l0-0.2C40.9,27.7,40.9,27.2,41.1,26.8
		z M43.7,26.8l-0.2,0c-0.6-0.1-1.3-0.1-1.9-0.1c-0.1,0-0.2,0-0.3,0c0.1,0.4,0.1,0.9,0.1,1.3c0,0.2,0,0.3,0.1,0.5l0.1,0l0,0
		c0.7,0,1.3-0.1,2-0.1c0-0.1,0-0.3,0-0.4l0-0.1C43.7,27.5,43.7,27.2,43.7,26.8z M46.9,26.8c-0.7,0.1-1.3,0.1-2,0.1
		c-0.3,0-0.5,0-0.8,0c0,0.1,0,0.3,0,0.4c0,0.3,0.1,0.5,0.1,0.8l0,0.2l0,0c0.8,0,1.7-0.1,2.5-0.1l0.1,0l0,0l0-0.5
		c0-0.3,0-0.6,0.1-0.9L46.9,26.8L46.9,26.8C46.9,26.8,46.9,26.8,46.9,26.8z M47.2,26.9c0,0.4,0.1,0.9,0.1,1.3l0.5,0
		c0.1,0,0.2,0,0.3,0c0.4,0,0.8-0.1,1.2,0c0-0.3-0.1-0.6-0.4-0.8C48.4,26.9,47.7,27.1,47.2,26.9z M45.3,23c0.8-0.5,2.8-0.9,3,0.5
		c0.1,0.7-0.4,1.2-1,1.5l0,0c-0.5,0.2-1.5,0.5-2,0c-0.4-0.4,0.1-1.1,0.6-0.8c0.3,0.2,0.8,0,1.1,0l0,0c0.3-0.1,0.7-0.4,0.6-0.7
		c-0.1-0.3-0.6-0.4-0.9-0.4c-0.4,0-0.9,0.1-1.3,0.1C45.3,23.2,45.2,23.1,45.3,23z M48.7,20.7c1.1-0.1,1.8,1.2,1.5,2.1
		c0,0.2-0.2,0.3-0.4,0.3l0,0c0,0,0,0-0.1,0c-0.2,0-0.3-0.2-0.3-0.4l0-0.1c0-0.5,0-1-0.6-1.1c-0.5-0.1-0.7,0.4-0.7,0.8
		c0,0.1-0.1,0.1-0.1,0.1c-0.3-0.2-0.4-0.6-0.3-1C47.8,21,48.2,20.7,48.7,20.7z M40.5,21c0.8-0.3,1.7,0.2,2.1,0.9
		c0.1,0,0.3,0.1,0.3,0.3c0,0.2-0.1,0.4-0.2,0.6c-0.3,0.3-0.7,0.1-0.8-0.2l0,0c-0.1-0.4-0.6-0.7-1-0.6c-0.5,0.2-0.5,0.7-0.9,1
		c0,0-0.1,0-0.1,0c-0.4-0.2-0.3-0.7-0.2-1.1C39.7,21.5,40,21.1,40.5,21z M39.4,18.5c0.6-0.7,2.3-1.3,2.8-0.1
		c0.1,0.2-0.1,0.5-0.3,0.6c-0.4,0.1-0.8-0.1-1.1-0.1c-0.3,0-0.7,0.1-0.9,0.3c-0.7,0.5-0.9,1.5-1.4,2.2c0,0-0.1,0-0.1,0
		C38.2,20.4,38.7,19.2,39.4,18.5z M47.9,17.9c0.4-0.2,0.9-0.1,1.4,0c0.4,0.1,0.8,0.4,1.1,0.7c0.1,0.2,0.3,0.3,0.4,0.5
		c0.1,0.1,0.1,0.3,0.2,0.4c0.3,0.2,0.5,0.6,0.2,1l0,0l0,0c-0.2,0.2-0.4,0.2-0.6,0.2c-0.5-0.1-0.6-0.5-0.7-1
		c-0.1-0.3-0.3-0.5-0.5-0.7c-0.6-0.4-1.5-0.6-2.2-0.4c0,0-0.1,0-0.1-0.1c0.1-0.2,0.2-0.3,0.4-0.4C47.5,18,47.7,17.9,47.9,17.9z"/>
</g>
</svg>
