<?xml version="1.0" encoding="utf-8"?>
<!-- Generator: Adobe Illustrator 24.2.0, SVG Export Plug-In . SVG Version: 6.00 Build 0)  -->
<svg version="1.1" id="图层_1" xmlns="http://www.w3.org/2000/svg" xmlns:xlink="http://www.w3.org/1999/xlink" x="0px" y="0px"
	 viewBox="0 0 85 85" style="enable-background:new 0 0 85 85;" xml:space="preserve">
<style type="text/css">
	.st0{fill-rule:evenodd;clip-rule:evenodd;fill:#FFFFFF;}
	.st1{fill-rule:evenodd;clip-rule:evenodd;}
	.st2{display:none;}
	.st3{display:inline;}
	.st4{fill-rule:evenodd;clip-rule:evenodd;fill:#040000;}
</style>
<g>
	<g transform="matrix(0.902982,0,0,0.902982,237.926,112.11)">
		<g>
			<g transform="matrix(0.4441,0,0,0.39775,0,0)">
				<path class="st0" d="M-430-132.7c0,0,30.6-7,32.8-11.9c0,0,2.5-23.1-10.5-40.3c-6.8-8.9-23.2-6.9-23.1-6.9
					c0,0,9.4-26.8-7.6-46.5c-6.9-8-33.9-0.2-57,1.8c-39.7,3.5-67.9,15.7-70.5,28.9c-4.3,22.1,2,40.3,3,40.9s35.7,20.6,35.7,20.6
					s45.5-24,45.3-22.8s36.8,19.5,36.8,19.5L-430-132.7z"/>
			</g>
			<g>
				<g transform="matrix(0.385241,-0.0025698,0.00330754,0.397739,287.351,13.9316)">
					<path class="st1" d="M-1393.9-212.9c-0.1,0-0.1-0.2-0.2-0.3c-0.3-0.6-0.6-1.5-0.8-2.8c-0.8-3.6-1.6-9.4-2-15.4
						c-0.6-8.1-0.6-16.3,0.6-18.9c2.5-5.5,6.9-9.5,12-12.7c8.1-5,18.2-7.6,25.8-9.4c4.2-1,8.4-1.7,12.7-2.3c10-1.5,20.1-2.4,30-4.2
						c3.2-0.6,6.3-1,9.4-1.3c7.5-0.7,14.9-0.8,22.4-1.6c8-0.9,14.9-1.9,20.8-1.9c4.9,0,9.1,0.8,12.6,3.1c4.6,3.1,8,8.7,10.6,18.6
						c1.1,4.2,1.5,7.5,1.5,10.7c-0.1,2.7-0.5,5.2-1.1,8c-0.5,2.4-1,5.1-1.6,8.2c-0.1,0.2,0.1,0.5,0.3,0.6c0.3,0.1,0.5-0.1,0.6-0.3
						c1.1-3,2.1-5.5,2.8-7.9c0.5-1.9,0.9-3.7,1.1-5.6c0.5-4.2,0.3-8.4-1.1-14.2c-2.7-10.7-6.5-16.9-11.4-20.2
						c-3.9-2.7-8.6-3.6-14.1-3.7c-6-0.1-13,1-21.1,1.9c-7.4,0.8-14.8,1-22.3,1.7c-3.2,0.3-6.4,0.7-9.6,1.3
						c-9.9,1.9-19.9,2.8-29.9,4.3c-4.3,0.6-8.6,1.4-12.9,2.4c-7.9,1.8-18.2,4.6-26.6,9.8c-5.5,3.4-10.2,7.9-12.8,13.9
						c-1.4,3.2-1,14.3,0.2,23.8c0.6,5,1.4,9.6,2.3,12.4c0.4,1.1,0.8,2,1.1,2.4c0.3,0.4,0.6,0.5,0.9,0.5s0.5-0.2,0.5-0.4
						C-1393.5-212.7-1393.7-212.9-1393.9-212.9z"/>
				</g>
				<g transform="matrix(0.4441,0,0,0.447689,0,-153.626)">
					<path class="st1" d="M-561.2,154.2c0.2,0.2,0.4,0.4,0.6,0.6c0.3,0.3,0.7,0.5,1,0.8c4.9,4,8.7,9.5,10.3,15.5
						c1.2,4.6,0.9,9.4-1.2,14.1c-0.8,1.8-1.8,3.6-3.2,5.3c-0.2,0.3-0.2,0.7,0.1,1c0.3,0.2,0.7,0.2,1-0.1c1.6-1.8,2.8-3.6,3.7-5.5
						c2.4-5,2.5-10.3,1.1-15.2c-1.7-6.2-5.9-11.9-11.1-15.9c-0.3-0.3-0.7-0.6-1.1-0.8c-0.3-0.2-0.5-0.3-0.8-0.4
						c-0.2-0.1-0.4-0.1-0.6,0.1C-561.4,153.8-561.4,154-561.2,154.2z"/>
				</g>
			</g>
			<g transform="matrix(0.335728,0,0,0.277677,794.877,340.329)">
				<path class="st1" d="M-2942.3-1499.2L-2942.3-1499.2L-2942.3-1499.2c0-0.1,0.1-0.2,0.1-0.2
					C-2942.2-1499.4-2942.2-1499.3-2942.3-1499.2L-2942.3-1499.2L-2942.3-1499.2L-2942.3-1499.2L-2942.3-1499.2
					C-2942.2-1499.1-2942.2-1499.2-2942.3-1499.2c0.1-0.1,0.2-0.1,0.3-0.1c0.5-0.2,1.4-0.3,2.5-0.4s2.4-0.1,3.9-0.1
					c2.6,0,5.8,0.1,9.1,0.8c3.4,0.6,6.9,1.8,10.2,3.6c6.9,3.7,11.7,11.1,15.1,19.9c3.9,10.2,5.9,22.3,6.7,33
					c0.1,1.5,0.2,2.9,0.2,4.3c0.1,1.5,0.2,2.9,0.3,4.3c0,0.9,0.6,1.6,1.3,1.6s1.3-0.7,1.3-1.6c0.1-1.4,0.1-2.9,0.1-4.4
					c0-1.4-0.1-2.9-0.2-4.4c-0.6-11.2-2.5-23.9-6.6-34.5c-3.7-9.7-9.3-17.8-17-21.7c-5.6-2.8-11.7-3.8-16.8-3.8
					c-1.5,0-2.8,0-4.1,0.2c-2.8,0.4-4.9,1.1-6.1,1.7c-1,0.5-1.3,1.1-1.2,1.5c0,0.3,0.3,0.6,0.6,0.6
					C-2942.5-1498.9-2942.4-1499-2942.3-1499.2z"/>
			</g>
			<g transform="matrix(0.363806,0,0,0.277738,660.791,334.744)">
				<path class="st1" d="M-2349.3-1479.7c-0.1,0.2-0.2,0.4-0.4,0.5c-0.4,0.3-0.9,0.4-1.4,0.7c-0.4,0.2-0.9,0.5-1.3,0.8
					c-1.6,1-3.3,2.4-4.8,4.6c-1.3,1.9-2.4,4.5-3,8c-0.2,1.1,0.4,2.1,1.2,2.3c0.8,0.2,1.6-0.5,1.8-1.5c0.4-2.8,1.2-4.9,2.1-6.5
					c1.2-2,2.6-3.4,3.8-4.5c0.4-0.4,0.9-0.8,1.2-1.2c0.5-0.6,0.7-1.1,1.1-1.6c0.2-0.3,0.4-0.5,0.6-0.8c0.2-0.3,0.1-0.7-0.1-0.9
					C-2348.8-1480-2349.1-1479.9-2349.3-1479.7z"/>
			</g>
			<g transform="matrix(0.250313,0,0,0.311394,1237.66,226.516)">
				<path class="st1" d="M-5727.6-959.9c0.4,0.7,1,1.3,1.5,1.9c0.9,1,1.7,1.8,2.8,2.5c1.2,0.8,2.6,1.4,4.1,2c2.9,1.2,6.1,2,8.4,4.1
					c1.9,1.7,3.7,3.8,5.5,6.3c2.2,3.1,4.4,6.7,6.3,10.6c2.6,5.2,4.9,11,6.7,16.9c1.2,3.9,2.3,7.8,3.1,11.6c0.1,0.7,0.8,1.1,1.7,1.1
					c0.8-0.1,1.4-0.7,1.3-1.3c-0.4-4-1.1-8-2.1-12.1c-1.6-6.1-3.9-12.1-6.6-17.5c-2-4.1-4.3-7.9-6.7-11c-2-2.7-4.2-4.9-6.4-6.6
					c-3.2-2.5-7.4-3.4-11.3-4.6c-1.5-0.5-3-0.9-4.3-1.7c-0.5-0.3-1.1-0.6-1.5-1.1c-0.4-0.4-0.7-0.9-1-1.4c-0.2-0.3-0.6-0.4-1-0.3
					C-5727.6-960.5-5727.7-960.2-5727.6-959.9z"/>
			</g>
			<g transform="matrix(0.360074,-0.0465556,0.0443076,0.274889,520.727,594.583)">
				<path class="st1" d="M-1611.1-2646c-0.3,1-1.3,1.5-2.6,2c-0.7,0.3-1.4,0.6-2.2,0.8c-4.8,1.5-11.4,2.1-13.9,2.7
					c-0.5,0.1-1.8,0.6-3.1,0.8c-0.5,0.1-1,0.2-1.4,0.2s-0.7,0.2-0.9,0.1c-0.4-0.5-1.1-0.5-1.5,0.1c-0.4,0.5-0.4,1.4,0,1.9
					c0.5,0.7,1.4,1.1,2.6,1.2c1.7,0,3.9-0.9,4.7-1.1c2.5-0.7,9.2-1.5,14-3.3c0.9-0.3,1.7-0.7,2.4-1.1c1.7-1.1,2.7-2.4,2.9-3.8
					c0.1-0.3-0.1-0.7-0.3-0.8C-1610.8-2646.5-1611-2646.3-1611.1-2646z"/>
			</g>
		</g>
		<g>
			<g>
				<g>
					<g>
						<g>
							<g id="body-mono-Sweater">
								<g id="_xD83C__xDFA8_-Background3" transform="matrix(0.976812,0,0,0.976812,-29.3417,13.9343)">
									<path class="st0" d="M-189.3-59.9c-3.3,0.9-6.3,2.1-9.7,2.4v-0.1c-0.7,0.2-0.6-0.5-0.7-1c-13.1,3.4-14.4-30.6-6.1-35.5
										c0.4-0.2,0.9-0.4,1.4-0.5c0.6-0.4,1.2-0.6,1.8-1c0-0.2,0-0.4,0.3-0.4c0.7-1.3,2.2-2.7,3.4-1c0.5-1.3,0.5-2.8,0.5-4.2h0.1
										c0-0.4,0.1-0.9,0.4-1.1c0.4-0.3,1.2-0.5,1.7-0.7c1-0.4,2.1-0.9,3.2-1c2.7-0.2,2.5,3.1,5,4.4c0.8-0.7,2.3-1,3.3-0.8
										c0.7,0.3,0.6,0.9,0.6,1.4c6.1-2.5,10.1,4.3,12.9,8.7c1,1.4,1.9,2.4,3.1,3.3c1.6,1.1,2.8,2.8,2.1,4.7
										c2.7,2.8,1.9,6.6,0.7,9.7c-0.3,0.5-0.5,1.9-1.1,2.1c-0.1,0.2-0.3,0.4-0.4,0.6l0.3,0.2c0.1,0.2,0.2,0.5,0.4,0.7
										c0.2,0.1,0.4,0.2,0.5,0.5c-0.2,0.4-0.6,0.1-0.9,0.1c0,0.2,0.1,0.7-0.2,0.7C-174.1-64.9-181.7-62.2-189.3-59.9"/>
								</g>
								<g id="_xD83D__xDD8D_-Ink26" transform="matrix(0.976812,0,0,0.976812,-29.3417,13.9343)">
									<path class="st1" d="M-198.7-101.1c0.8,0.6,0.6,3.3,0.4,4.3c3.5,0.3,7.1-0.2,10.1-1.9c-1.1-0.6-2.8-2.9-2.4-4l0.1,0.2
										c0.6,1.1,1.3,2.3,2.5,3c1.1-0.7,4.2-1.6,4.3,0.5c7.7-2.3,10.5,6.9,14.7,11.3c1.8,1.6,4.3,3,3.5,5.9c0.5,0.6,1,1.4,1.3,2.2
										c1.1,2.5,0.2,5.3-0.7,7.8c-0.3,0.7-0.5,1.8-1.1,2.3c-0.1,0.1-0.1,0.2-0.2,0.3c0.2,0.2,0.2,0.5,0.4,0.7h0.1
										c0.1,0.1,0.3,0.2,0.4,0.3v0.1l0,0l0,0l0,0l0,0c0.2,0.2,0.1,0.5-0.1,0.6c-0.6,0.6-1.6-0.3-1.6-1c-3.2,2.7-11.7,2.2-15.9,1.9
										c-0.8-0.1-1.6-0.2-2.4-0.3h-0.1c-0.9-0.2-2-0.5-2.9,0c-3.5,3-6.4,7.1-10.8,9.1c1.1,1.1-0.9,2-0.9,0.3
										c-12.8,2.2-13.3-26.6-8.3-33.7c1.5-2.6,3-2.6,5.3-4c0-0.2,0.1-0.5,0.4-0.5c0.6-1.1,2.2-2.5,3.4-1.4
										c0.2-0.9,0.3-1.8,0.3-2.7C-198.7-100.4-198.8-100.8-198.7-101.1z M-191.3-60c-0.8-0.3-0.1-1.4,0.6-1.3
										c0.2,0.2-0.4,0.1-0.2,0.6C-190.7-60.5-190.9-59.9-191.3-60z M-178.1-64.8c-0.7-0.7-0.5-1.2,0.5-0.8
										C-176.8-65.3-177.5-64.3-178.1-64.8z M-184.6-62.9c-0.8-0.2-1.4-1.7-0.1-1.3C-183.7-64.1-183.6-62.8-184.6-62.9z
										 M-202.6-95c-1.2,0.8-2.7,1.1-3.7,2.2c-2.4,2.8-3.1,6.5-3.4,10v0.1c-0.6,7.2-0.4,15.2,3.8,21.4c2,2.7,5.2,3.2,7.9,1.2
										c7-4.9,11.6-12.9,19.5-16.5c-0.2-1-0.7-1.9-1.3-2.6c-5,1.8-9.3,4.9-13.8,7.7c0.1,1.3-0.9,3.2-1.4,4.4
										c-0.5,1.3-2.2,2.1-3,0.6v0.1c-0.4,0.9-1.4,2.5-2.3,1.2c-0.3-0.8-0.1-1.6,0-2.4l0,0c-0.4,0.5-1.8,2.7-2.2,1.7
										c-0.3-1-0.3-2.1,0-3.1c0.3-0.9,0.8-1.9,1.5-2.7c0-0.3,0-0.5,0-0.8c-0.4-0.9-0.3-1.8-0.4-2.7c0-0.9-0.5-2.4-0.1-3.2
										c0.6,0.4,0.7,2.4,0.9,3.1c0.1,0.9,0.4,1.8,0.4,2.7c0.7-0.8,1.6-1.3,2.6-1.6c-0.5-1.9,2.4-2.1,3.7-2.3
										c1.7-1.3,9.7-3.5,11.5-2.5c0.6-0.3,1.2-0.5,1.9-0.8c0.6-0.7,2.8-1.2,3.4-0.3c0.9,0,1.8,0.2,2.7,0.5
										c-1-3.9-3.2-7.4-4.1-11.3c-0.1-0.2,0-0.5-0.1-0.7c0,0,0,0,0.1,0c0.7,1,1.2,2.2,1.7,3.3c0.9,2,2,3.8,2.8,5.8
										c0.6,1.7,0.9,3.6,2.1,5.1c0.2,0.2,0.1,0.6-0.1,0.8c-1.6,1.4-4,1.5-6,1c-3.3,2.3-6.5,4.8-9.3,7.7c0.7,0,1.4,0.2,2.1,0.3
										c0.9,0,1.9,0.1,2.8,0.1c4.5,0,9.4,0.3,13.7-1.3c1.3-0.6,1.7-1.4,2.2-2.7l0.1-0.2c0.8-2.3,1.9-4.7,1.4-7.2
										c-0.2-0.8-0.5-1.5-0.8-2.3c-0.1,0.3-0.3,0.5-0.4,0.8c-0.2,0.3-0.6,0.1-0.6-0.2c0-1,0.3-2,0.1-2.9c-0.3-0.9-1.1-1.5-1.8-2
										c-5.5-3.7-6.9-14.5-15.2-13.1c-1.2,8.1-13.6,8.7-18.7,4.1L-202.6-95z M-202.2-62.4c-0.3-1,1.7-0.2,1.7,0.4
										c0.1,0.8-0.8,0.7-1.2,0.3C-202-61.9-202.1-62.1-202.2-62.4z M-172-72.8c0.1-0.5,1.8,0.3,1.2,0.9c-0.4,0.4-0.7-0.1-1-0.4
										C-171.9-72.5-172-72.6-172-72.8z M-194.5-65.3c-1-0.2,0.6-1.5,1-0.7C-193.4-65.4-194.1-65.2-194.5-65.3z M-179.7-72.2
										c0.2-0.7,0.9,1.3,0.7,1.5c-0.1,0.2-0.3,0.3-0.4,0.1C-179.8-71-179.7-71.6-179.7-72.2z M-199.4-65.7L-199.4-65.7
										C-199.4-65.5-199.3-65.8-199.4-65.7L-199.4-65.7z M-191.8-73.2c-2.6-1.6-6.2-1.1-8.4,1c-0.3,0.2-0.6,0.6-0.9,1
										c0.1,0,0.2-0.1,0.2-0.2c-0.8,1.3-1.4,2.9-1.1,4.5c0.8-1,1.5-2,1.9-3.3c0.1-0.5,0.9-0.4,0.9,0.1c-0.1,1.4-0.4,2.9-0.3,4.3
										c0.9-1.2,1.3-2.6,1.4-4c0-0.6,0.9-0.7,1,0c0,0.8,0,1.6,0,2.5v0.2c0,0.3,0,0.5,0.4,0.5c1-0.2,1.7-2.9,2.1-3.8
										c0.2-0.4,0.2-1.3,0.8-1.4C-193.3-72.5-192.5-72.8-191.8-73.2z M-168.7-76.5c0.1-0.1,0.2-0.3,0.4-0.2l0,0
										c0.5,0,0.3,0.8-0.1,0.7c-0.2-0.1-0.3-0.1-0.5-0.1C-169.1-76.3-168.8-76.4-168.7-76.5z M-190.6-71.8
										c-0.1-0.7,1.5-0.2,1.2,0.4C-189.8-71-190.4-71.4-190.6-71.8z M-205.6-67.1c0.9-1.1,1.7,0.7-0.2,0.7
										C-206-66.6-205.7-66.9-205.6-67.1z M-176.8-80.1c0.9,0.6,1.4,1.5,1.9,2.4c0.1,0.2,0.2,0.4,0.3,0.6c0.4-0.1,0.9-0.2,1.3-0.4
										c-0.2-0.3-0.4-0.7-0.6-1.1C-174.8-79.3-175.7-79.9-176.8-80.1z M-177.7-77.1c0,0.1,0.1,0.2,0.1,0.3
										c0.6-0.1,1.2-0.1,1.8-0.2l-0.1-0.2c0,0,0-0.1-0.1-0.2C-176.5-77-177.2-76.9-177.7-77.1z M-176.7-78.9
										c-0.7-0.1-1.3-0.1-2,0.2c0.3,0.4,0.6,0.8,0.8,1.2c0.3,0,0.6-0.1,0.9-0.2c0.3-0.1,0.5-0.3,0.7-0.4
										C-176.4-78.3-176.5-78.6-176.7-78.9z M-182.6-76.8c0.4-0.3,1.1,0,0.7,0.5c-0.3,0.3-0.8,0.2-1.1,0
										C-183.2-76.4-182.7-76.8-182.6-76.8z M-191-75.9c0,0.6-1.2,0.7-1.7,1.2h0.1c0.6,0.1,1.3,0.4,1.5,0.9
										c0.6-0.5,1.2-0.9,1.8-1.4C-189.8-75.5-190.4-75.7-191-75.9z M-183.4-78.8c-3.3-0.2-6.6,0.9-9.7,2h0.1
										c1.5,0,3.3,0.1,4.3,1.2C-187-76.8-185.3-77.9-183.4-78.8z M-177.3-79.7c-0.7-0.7-1.7-0.8-2.6-0.4L-180-80
										c0.1,0,0.2,0,0.3,0.1c0.2,0.1,0.3,0.4,0.2,0.5c0.2,0.2,0.5,0.4,0.7,0.6C-178.5-79.4-177.9-79.6-177.3-79.7z M-169.2-82.2
										c-0.9,0.9-2.5-1.7-1-1.5l0.1,0.1C-169.6-83.3-168.8-82.8-169.2-82.2z M-194.2-76c-0.3,0.4-0.6,0.7-0.8,1.1
										c0.6,0,1.2,0,1.8,0.1c0.3-0.5,0.8-0.9,1.2-1.2C-192.7-76.1-193.5-76.1-194.2-76z M-207.9-71.7L-207.9-71.7
										c0-0.5,0.8-1.5,1.3-1.5h0.1l0,0c0.1,0.2,0.2,0.4,0.1,0.6c-0.1,0.5-0.2,1-0.6,1.3C-207.4-70.9-207.9-71.2-207.9-71.7z
										 M-195.4-75.7h-0.2c-0.7,0.2-1.7,0.4-1.8,1.2c0.6-0.2,1.2-0.3,1.8-0.4C-195.5-75.1-195.5-75.5-195.4-75.7z M-192.5-79.8
										c-0.2-0.2,0.3-0.1,0.4-0.1c0.2,0,0.3,0,0.5,0.1c0.2,0.2,0,0.5-0.2,0.5C-192.2-79.4-192.2-79.8-192.5-79.8z M-179.7-85
										L-179.7-85c0.2-0.1,1.2-0.6,1.2-0.4l0,0c-0.2,0.5-0.3,1.5-1,1.4C-180-84-180.1-84.7-179.7-85z M-186.6-82.9
										c0.1-0.4,0.7,0.3,0.9,0.4c0.3,0.3-0.1,0.7-0.4,0.5S-186.6-82.6-186.6-82.9z M-204-78.4c0.2-0.2,0.9-0.4,0.8,0.1
										c-0.2,0.6-0.9,0.6-1.4,0.4C-204.9-78.1-204.1-78.2-204-78.4z M-198.2-82.1c-0.1-0.3,0.2-0.6,0.5-0.5
										c0.5,0.1,1.1,0.7,1.1,1.2s-0.6,0.8-1,0.5C-197.8-81.3-198-81.7-198.2-82.1z M-174.7-88.6c0.5-0.3,0.9-0.8,1.5-0.9
										c0.2,0,0.3,0.2,0.2,0.4C-173-88.8-174.9-88.3-174.7-88.6z M-190.1-85.2c0.1-0.5,0.5-1,1-1.2c0.3-0.1,0.5,0.3,0.3,0.5l0,0
										C-188.9-85.8-190.1-85-190.1-85.2z M-183.4-88c-0.8,0.1-1.3-1.7-0.8-1.5c0.3,0.4,0.8,0.5,1.1,0.9
										C-182.9-88.3-183.1-88-183.4-88z M-206.2-81.4c0.3,0,1.7-1.6,1.6-0.7c-0.1,0.3-0.4,0.4-0.6,0.5l0,0
										C-205.4-81.5-206.4-81.1-206.2-81.4z M-195.3-86.5c-0.3,0.1-2.3-2.1-1.7-2.1h0.1c0.8,0.2,1.7,0.6,2.2,1.2
										C-194.4-87-194.8-86.4-195.3-86.5z M-188.2-89.8C-188.2-89.9-188.1-89.8-188.2-89.8c-0.1,0.2-0.2,0.5-0.3,0.8
										c-0.3,0.7-1.1-0.1-0.4-0.4C-188.7-89.6-188.4-89.7-188.2-89.8z M-203.2-88.6c0.6-0.4,1.1,0.4,0.7,0.8
										c-0.2,0.3-2.3,1.6-2.5,1.4C-204.8-86.9-203.7-88.2-203.2-88.6z M-180.3-95.5c1.6-0.6,1.6-1,0.8,0.8
										C-180-93.9-181-95-180.3-95.5z M-189.4-97.2c-0.6,0.2-1.2,0.4-1.7,0.6c0.1,0.2,0.2,0.5-0.1,0.5c0.1,0.8,0.3,1.6,0.4,2.4
										c0,0.2,0,0.4,0,0.6c1.1-0.3,2.3-0.7,3.3-1.3C-188.3-95.2-188.8-96.2-189.4-97.2z M-194.2-96.1c0,0.1,0,0.2,0,0.2
										c-0.2,1-0.4,2.1-0.7,3.1c1.3,0.1,2.6,0,3.8-0.3c-0.5-1-0.7-2.2-1.1-3.3C-192.8-96.2-193.6-96.1-194.2-96.1z M-186.9-98.5
										c-0.5,0.3-1.1,0.6-1.7,0.9c0,0.1,0,0.2-0.1,0.3c0.4,0.9,1,1.8,1.3,2.8c1.1-0.7,1.9-1.8,2.4-3l-0.2-0.1
										C-185.7-97.8-186.4-98.1-186.9-98.5z M-199.1-97.1c-0.8-0.2-1.8,0.3-2.2,1c-0.2,0.3-0.3,0.7-0.6,1L-202-95
										c0.3,0.3,0.8,0.6,1.1,0.8c1.8,0.8,3.7,1.3,5.7,1.5c-0.3-1.1-0.2-2.2-0.1-3.3c-0.4,0-0.8,0-1.3,0c0,0.3-0.1,0.5-0.2,0.8
										c-0.2,0.5-0.3,1.1-0.5,1.6s-1,0.2-0.9-0.3c0.2-0.7,0.6-1.5,1.1-2.1c-0.5-0.1-0.9-0.2-1.4-0.3c0,0,0,0,0,0.1
										c-0.1-0.2-0.3-0.1-0.4,0c-0.1,0-0.2,0.1-0.3,0.1c0,0,0,0,0-0.1c-0.3,0.6-0.4,1.4-1,1.9c-0.2,0.1-0.6,0-0.6-0.3
										c0-0.5,1.1-1.7,1.4-2.1c-0.1-0.1-0.1-0.2,0.1-0.2L-199.1-97.1C-199.1-97.1-199.1-97.1-199.1-97.1z M-207.2-90.2
										c0.3-0.1,0.6-0.3,0.9-0.2c0.5,0.3-0.4,0.8-0.9,0.4C-207.3-90.1-207.3-90.2-207.2-90.2z M-186.4-99.6
										c0.1,0.1,0.2,0.2,0.2,0.3c0.5,0.4,0.9,1,1.3,1.6v-0.1c0.5-1.3,0.7-2.4-1.2-1.9C-186.1-99.6-186.3-99.6-186.4-99.6z
										 M-203.5-92.7c-1.9-0.7,1.6-1,0.9-0.1C-202.9-92.6-203.2-92.6-203.5-92.7z"/>
								</g>
							</g>
						</g>
					</g>
				</g>
			</g>
			<g transform="matrix(0.4441,0,0,0.39775,0,0)">
				<path class="st1" d="M-504.6-224.5C-504.6-224.4-504.7-224.4-504.6-224.5c-0.1-0.1-0.2,0-0.2-0.1c0,0-0.2,0-0.1,0
					c0,0,0,0.1,0,0.2c0,0.3,0.1,0.8,0.1,0.9l0.6,4.6c0.4,2.4,0.6,4.7,0.9,7.1c0.2,1.6,0.3,3.1,0.4,4.8c0,0.4,0.3,0.7,0.6,0.7
					c0.3,0,0.6-0.3,0.6-0.7c0.1-2.1,0.2-4.1,0.1-6.1s-0.4-4-0.7-6.1c-0.1-0.8-0.2-1.5-0.4-2.3c-0.1-0.8-0.3-1.5-0.5-2.3
					c0-0.1-0.1-0.7-0.3-1c-0.1-0.3-0.3-0.5-0.4-0.6c-0.2,0-0.1-0.2-0.2-0.1c-0.2,0.1-0.3-0.2-0.4,0h-0.1c0,0.1-0.1,0-0.1,0.1
					s-0.1,0-0.1,0.1c0,0.2-0.2,0.2-0.1,0.4C-504.8-224.9-504.7-224.6-504.6-224.5z"/>
			</g>
		</g>
		<g>
			<g transform="matrix(0.4441,0,0,0.39775,0,0)">
				<path class="st0" d="M-559.7-106.2l31.3,7.8c0,0,20.7-1.8,24.1-6.6c0,0,5.9-12.5-11.4-44.2c-17.2-31.6-37.4-23.9-45.8-19.2
					c-8.3,4.7-9.1,9.9-8.8,12.1c0.4,2.2,3.6,4.4,4.5,5C-565.6-151.2-559.7-106.6-559.7-106.2z"/>
			</g>
			<g transform="matrix(0.409825,0,0,0.397661,182.927,0.295169)">
				<path class="st1" d="M-1051.2-170.9c0-0.2,0.2-0.2,0.3-0.3c0.8-0.2,2.1,0,2.7-0.1c1.3-0.4,2.9-0.6,4.6-0.8
					c2.2-0.2,4.6-0.2,7.1,0c4.2,0.4,8.4,1.3,11.1,2.9c4.5,2.6,8.9,6.6,13,11.4c3.6,4.3,7,9.3,9.9,14.6c4.7,8.6,8,18,9.4,26.7
					c0.4,2.4,0.7,4.8,0.7,7c0,0.6,0.5,1.1,1.1,1.1s1.1-0.5,1.1-1.1c0.1-2.4,0-4.9-0.4-7.4c-1.1-9-4.6-18.8-9.4-27.7
					c-3-5.5-6.4-10.7-10.2-15.1c-4.3-5-9.1-9.1-13.9-11.8c-3.1-1.7-7.6-2.7-12.2-2.9c-2.6-0.1-5.1-0.1-7.4,0.3
					c-1.8,0.3-3.5,0.8-4.8,1.4c-0.5,0.2-1.8,0.2-2.5,0.5c-0.6,0.3-1,0.7-0.9,1.4c0,0.2,0.2,0.4,0.5,0.4
					C-1051.3-170.4-1051.2-170.6-1051.2-170.9z"/>
			</g>
			<g transform="matrix(0.324689,0,0,0.421218,603.639,-74.176)">
				<path class="st1" d="M-2633.5,33.1c-0.2,0-0.3,0.1-0.4,0.3c0,0.1-0.1,0.2,0,0.6l0,0l0,0v0.1c0.1,0.6,0.3,1.9,0.4,2.3
					c0.4,1.4,0.8,2.9,1.1,4.4c0.5,2.2,0.8,4.4,1.1,6.7c0.9,5.7,1.4,11.4,2.2,17c0.6,3.8,1.4,7.5,2.5,11.3c0.1,0.5,0.7,0.8,1.3,0.7
					c0.6-0.1,1-0.6,0.9-1c-0.7-2.8-1.2-5.6-1.7-8.4c-1.1-6.5-1.8-13-2.9-19.7c-0.3-1.9-0.7-3.8-1.1-5.6c-0.5-1.9-1-3.8-1.7-5.6
					c-0.2-0.4-0.4-1.9-0.7-2.4c-0.1-0.1-0.1-0.2-0.2-0.3C-2632.6,32.9-2633.1,32.9-2633.5,33.1z"/>
			</g>
			<g transform="matrix(0.4441,0,0,0.39775,0,0)">
				<path class="st1" d="M-560.6-170c-0.2,0.2-0.3,0.5-0.5,0.7c-0.4,0.4-0.9,0.6-1.4,0.9c-0.4,0.3-0.9,0.7-1.3,1
					c-1.7,1.3-3.6,2.6-5,4.5c-1.5,1.9-2.5,4.4-2.6,7.9c0,0.8,0.6,1.4,1.2,1.4s1.2-0.6,1.2-1.4c0-2.7,0.7-4.7,1.8-6.3
					c1.2-1.8,2.9-3.1,4.3-4.5c0.4-0.4,0.9-0.8,1.3-1.3c0.4-0.5,0.7-1.1,1-1.6c0.2-0.3,0.4-0.5,0.6-0.7c0.1-0.2,0.1-0.5-0.1-0.6
					C-560.2-170.3-560.5-170.2-560.6-170z"/>
			</g>
			<g transform="matrix(0.4441,0,0,0.39775,0,0)">
				<path class="st1" d="M-569.2-154.3c0.4,0.6,0.8,1.1,1.2,1.6c1,1.2,2.1,2.1,3.5,2.9c1.6,0.9,3.4,1.6,5.3,2.3
					c2.6,0.9,5.2,1.9,7.2,3.6c2.2,1.9,4.4,4.4,6.4,7.4c2.7,3.8,5.2,8.4,7.4,13.3c1.7,3.9,3.2,8,4.5,12.1c1.3,4.2,2.4,8.5,3.1,12.7
					c0.1,0.5,0.5,0.9,1,0.8s0.8-0.6,0.7-1.1c-0.5-4.3-1.4-8.8-2.7-13.2c-1.2-4.3-2.8-8.5-4.5-12.5c-1.9-4.2-3.9-8.2-6.2-11.6
					c-2.7-4.1-5.6-7.5-8.5-9.9c-3-2.4-7-3.3-10.7-4.4c-1.5-0.5-3-1-4.3-1.8c-0.6-0.3-1.1-0.7-1.6-1.1c-0.5-0.5-0.9-1-1.2-1.6
					c-0.1-0.2-0.4-0.3-0.6-0.1C-569.3-154.8-569.3-154.5-569.2-154.3z"/>
			</g>
			<g transform="matrix(0.491546,-0.014556,0.0162522,0.440244,-299.888,-68.5194)">
				<path class="st1" d="M154,63.2c-0.3,1-1.3,1.6-2.5,2.2c-0.7,0.3-1.4,0.6-2.2,0.9c-4.8,1.5-11.6,2-14.1,2.6
					c-0.6,0.2-2.3,0.7-3.7,0.9c-0.5,0.1-0.9,0.1-1.3,0.1c-0.2,0-0.4,0-0.5-0.1c-0.3-0.3-0.8-0.4-1.1-0.1s-0.3,0.9-0.1,1.2
					c0.5,0.7,1.3,1,2.4,1c1.7,0,3.9-0.8,4.7-1c2.5-0.7,9.4-1.3,14.1-3c0.9-0.3,1.7-0.7,2.4-1.1c1.5-0.9,2.5-2,2.7-3.3
					c0.1-0.2-0.1-0.4-0.3-0.5C154.2,62.8,154,63,154,63.2z"/>
			</g>
		</g>
	</g>
	<g transform="matrix(1,0,0,1,1951.91,-9.72146)" class="st2">
		<g id="Gray-Short.svg11" transform="matrix(0.302528,0,0,0.270954,447.764,1104.82)" class="st3">
			<g transform="matrix(1,0,0,1,-236.5,-283.5)">
				<g id="head-mono-Gray-Short11">
					<path class="st0" d="M-7598.6-3670.2c0,0-4.7,20.6,9.3,14.6c0,0,7.8,20.2,14.4,18.2c0,0,5.2,4.7,9.4,5.1c0,0,20.7,21.2,38-11.6
						c6.9-13,2.6-41.6-0.4-52.2c-1.3-4.6-1.5-9.4-1.7-10.7c0,0,8.9-6.2,2.4-9.2c0,0,4.7-7.2,3.8-7.9c-0.9-0.6-31-15.3-45.9-12.1
						c-15,3.3-22.1,5.3-27,12.6s-5,3.3-5.9,10.4C-7603.1-3705.8-7605.2-3674.3-7598.6-3670.2z"/>
					<path id="_xD83D__xDD8D_-Ink27" class="st1" d="M-7548.6-3624.7c-6.3,0.7-13.7-0.9-17.9-6.6c-0.1-0.2-0.2-0.4-0.2-0.6
						c0-0.2,0.1-0.4,0.2-0.6c0.1-0.2,0.3-0.3,0.5-0.3s0.3,0,0.5,0.1l0.4,0.2c2.9,1.8,5.8,3.3,9.1,3.9c3.3,0.7,6.7,0.6,10-0.3
						c6-1.5,10.9-5.4,14.5-10.6c4-5.8,6.4-13.1,7-20.4c0.7-8.8-1-17.6-2.8-26.2c-1.9-9-3.9-18-6.3-26.8c-0.1-0.3-0.1-0.5-0.1-0.7
						c-0.7-0.3-1.4-0.2-2.2,0.1c-1.4,0.5-2.7,1.7-3.8,2.6c-0.4,0.3-0.8,0.7-1.1,0.9c-1.4,1.1-2.9,1.8-4.6,2
						c-1.8,0.1-3.5-0.5-5.1-1.3c-0.8-0.4-1.6-0.8-2.4-1.2c-2.3-1.2-4.6-2.3-7-3c-3.3-1-6.7-1.5-10.2-1.5c-6.1,0.1-12.3,1.8-16,7.6
						c-1.5,2.3-2.5,5-1.7,7.9c0.4,1.6,1.2,3,2.1,4.3l0.3,0.4c0.5,0.7,0.9,1.4,1,2.2c0.1,0.6,0,1.3-0.4,2.1c-0.3,0.5-0.6,0.9-0.9,1.3
						c-0.2,0.3-0.5,0.6-0.7,0.9c-0.4,0.7-0.8,1.4-1.1,2.1c-0.6,1.4-0.8,3-0.9,4.5c-0.1,1.9,0.2,3.7,0.4,5.6c0.2,1.3,0.3,2.6,0.4,3.9
						c0,0.2-0.1,0.4-0.1,0.5c-0.1,0.2-0.3,0.3-0.4,0.3s-0.1,0-0.2,0c0,0.1,0.1,0.3,0.1,0.4c-0.1-0.2-0.2-0.3-0.4-0.5l0,0
						c-0.1-0.1-0.2-0.2-0.3-0.4c-0.2-0.2-0.4-0.4-0.6-0.5c-1-0.9-2.3-1.4-3.5-1.4s-2.4,0.4-3.3,1.4c-1.8,1.9-2.3,5-2.4,7.6
						c0,2.7,0.5,5.9,2.6,7.6c0.8,0.7,1.9,1.1,2.9,1.1c0.9,0,1.7-0.3,2.5-0.7c0.2-0.1,0.5-0.2,0.7-0.3c0.3-0.1,0.5-0.1,0.8,0
						s0.5,0.3,0.6,0.5c0.2,0.2,0.3,0.5,0.3,0.8s0,0.6-0.1,0.9c0,0.1-0.1,0.1-0.1,0.2l0.5,0.8c1.8,3.2,3.6,6.4,5.9,9.2
						c1.4,1.6,2.8,3.1,4.4,4.4l0.2,0.2c0.1,0.1,0.3,0.2,0.4,0.4c0.5,0.4,1,1,1.5,1c0.2,0,0.3,0,0.4,0c0.3,0,0.5-0.1,0.8,0.1
						c0.2,0.1,0.4,0.3,0.6,0.6c0.1,0.2,0.2,0.5,0.2,0.8s-0.1,0.6-0.2,0.8c-0.3,0.5-0.6,0.8-0.9,1c-0.4,0.2-0.8,0.2-1.3,0.1
						c-1.1-0.2-2.3-1.3-3.1-1.9l-0.2-0.1c-1.7-1.5-3.4-3.1-4.8-4.9c-2.5-3.1-4.7-6.8-5.8-10.8c-0.8,0.6-1.8,0.9-2.8,0.9
						c-1.5,0.1-3.1-0.4-4.3-1c-2.6-1.4-4.2-4-4.9-6.9c-0.9-3.5-0.6-7.4,0.5-10.5c0-0.1,0.1-0.2,0.1-0.3c-3.3-9.4-4.4-19.9-4.1-29.9
						c0.1-4.7,0.4-9.6,1.4-14.2c0.4-2.1,1.2-4,2.5-5.6c0.7-0.9,1.6-1.6,2.4-2.4c0.8-0.6,1.5-1.2,2.1-2l0.3-0.4
						c0.1-0.1,0.1-0.2,0.2-0.2c1.1-1.4,2.2-2.7,3.5-3.8c1.5-1.3,3.2-2.3,5-3.1c3.8-1.8,7.9-2.9,12-3.7c8.8-1.8,17.8-1.9,26.5,0.6
						c4,1.2,8,2.8,11.9,4.4c0.4,0.1,0.7,0.3,1.1,0.4c3,1.2,6.1,2.5,9.1,3.7c1.4,0.6,2.8,1.2,4.2,1.7c0.3,0.1,0.6,0.4,0.8,0.7
						c0.2,0.3,0.2,0.7,0.1,1.1c-0.9,2.5-2,4.8-3.3,6.9c0.5,0.4,0.9,0.8,1.2,1.4c0.4,0.7,0.6,1.5,0.6,2.4c0.1,2.9-2.3,4.9-4.3,6.3
						c-0.2,0.1-0.4,0.2-0.5,0.2c1.9,8.1,3.7,16.3,5.3,24.5l0.1,0.6c1.6,8.6,2.6,17.4,1.1,26.1c-1.3,7.5-4.3,14.8-9,20.4
						C-7535.6-3628.9-7541.9-3625.5-7548.6-3624.7z M-7589.9-3674.3c-0.8-2.9-1.3-6.1-0.9-9c0.2-1.9,0.7-3.6,1.5-5.3
						c0.5-0.9,1-1.8,1.7-2.6l0.2-0.3c0.1-0.1,0.2-0.3,0.2-0.4c0-0.1,0-0.2-0.1-0.3c-0.1-0.3-0.3-0.5-0.5-0.8
						c-0.1-0.2-0.2-0.3-0.4-0.5c-1.8-2.7-3.1-6-2.7-9.4s2.4-6.5,4.5-8.9c4.6-5.2,11.8-6.4,18.1-6.1c3.7,0.2,7.3,0.9,10.8,2.1
						c1.7,0.6,3.4,1.4,5,2.2l0.4,0.2c0.2,0.1,0.4,0.2,0.6,0.3c1.3,0.7,2.6,1.4,4,1.8c2.7,0.7,4.5-0.8,6.5-2.4c0.7-0.5,1.3-1.1,2-1.6
						l0.1-0.1c1.3-0.8,2.8-1.4,4.3-1.4c1.3,0,2.5,0.5,3.5,1.6c0.2,0.2,0.3,0.5,0.4,0.7s0.2,0.4,0.3,0.6c0.4,1.5,0.7,3,1.1,4.6
						l0.3-0.2c0.9-0.6,1.8-1.4,2.2-2.4c0.2-0.4,0.1-1.1-0.1-1.6c-0.1-0.2-0.2-0.3-0.3-0.4c-0.1-0.1-0.2-0.1-0.3-0.1
						c-0.3,0-0.6,0-0.9-0.1s-0.5-0.4-0.7-0.6c-0.2-0.3-0.2-0.6-0.2-1c0-0.3,0.1-0.6,0.4-0.9c1.5-1.9,2.7-4,3.7-6.3l-6.3-2.6
						c-2.2-0.9-4.5-1.8-6.7-2.8l-1.2-0.5c-4.1-1.7-8.2-3.3-12.4-4.4c-8.4-2.1-17.2-1.6-25.6,0.4l-0.5,0.1c-3.5,0.9-7.1,1.9-10.3,3.7
						c-1.6,0.9-3.1,2-4.4,3.3c-0.6,0.6-1.1,1.3-1.6,1.9c-0.7,0.9-1.5,1.8-2.3,2.6l-0.8,0.7c-1.2,1.1-2.3,2.1-2.9,3.8
						c-0.7,1.7-1,3.7-1.3,5.5c-0.7,4.7-1,9.5-0.9,14.3c0,8,1.1,15.9,2.5,23.7c1.1-1.8,2.7-3.1,4.7-3.4c1.3-0.2,2.6,0.1,3.7,0.7
						C-7591-3675.4-7590.4-3674.9-7589.9-3674.3z M-7592-3664.8c-1.5-0.6-3-0.8-4.5-0.5c-0.2,0-0.3,0-0.4-0.1s-0.2-0.2-0.3-0.4
						c-0.1-0.2-0.1-0.4,0-0.5c0-0.1,0.1-0.3,0.3-0.4c1.7-0.9,3.5-1.3,5.4-1h0.2c0.9,0.2,2.3,0.5,3.3,1.1c0.8,0.5,1.3,1.2,1.5,2.1
						c0.1,0.5,0,1-0.3,1.3c-0.2,0.3-0.6,0.6-1.1,0.6c-0.8,0-1.3-0.4-1.9-0.9c-0.1-0.1-0.1-0.1-0.2-0.2
						C-7590.7-3664.1-7591.3-3664.5-7592-3664.8z"/>
				</g>
			</g>
		</g>
		<g id="Calm.svg10" transform="matrix(0.319302,0,0,0.285977,461.104,1120.22)" class="st3">
			<g transform="matrix(1,0,0,1,-144.5,-146.5)">
				<g id="face-Calm10">
					<path id="_xD83D__xDD8D_-Ink28" class="st1" d="M-7271.7-3627.7c-1.6,0.5-3.3,0.6-5,0c-1.5-0.5-3-1.6-4.1-3
						c-1-1.3-1.6-2.8-1.6-4.4c0-0.2,0.1-0.3,0.2-0.5c0.1-0.1,0.2-0.2,0.4-0.3c0.2,0,0.3,0,0.4,0c0.1,0.1,0.2,0.2,0.3,0.3
						c0.2,0.2,0.3,0.5,0.5,0.7c1.3,1.9,2.7,3.3,4.7,3.8c1.1,0.3,2.2,0.2,3.2-0.3c1.1-0.4,2.1-1.2,2.8-2.2c0.3-0.4,0.8-0.6,1.2-0.6
						c0.5,0,0.9,0.2,1.2,0.6c0.3,0.4,0.6,0.9,0.6,1.4s-0.1,0.9-0.5,1.4C-7268.5-3629.3-7270-3628.3-7271.7-3627.7z M-7271.7-3651
						c1.6,1.1,4.2,3.7,2.4,6.5c-2.1,2.4-5.1-0.4-6.6-1.6c-1.4-1-2.9,1.5-1.6,2.7c10.7,8.8,15-7.3,6.7-8.9
						C-7271.8-3652.5-7272.1-3651.4-7271.7-3651z M-7287.1-3656c-0.5-0.4-1.2-0.5-1.8-0.2c-0.5,0.3-1.5,1.2-2.1,2.4
						c-0.4,0.8-0.8,1.8-0.7,2.8c0,0.2-0.1,0.4-0.2,0.5s-0.2,0.2-0.4,0.2c-0.1,0-0.3,0-0.4,0c-0.2-0.1-0.4-0.3-0.4-0.4
						c-0.5-1.4-0.3-2.9,0.3-4.3c0.7-1.9,2-3.4,2.8-3.9c1.4-0.9,3.1-0.9,4.5,0c1.2,0.7,2,1.9,2.7,3.2c0.2,0.3,0.3,0.5,0.5,0.8
						c0.3,0.5,0.4,1,0.2,1.4c-0.1,0.5-0.5,0.9-0.9,1.1c-0.4,0.2-0.9,0.2-1.3,0s-0.7-0.5-0.9-1.1
						C-7285.7-3654.4-7286.3-3655.4-7287.1-3656z M-7260.2-3653.9c-0.4,0.2-0.6,0.3-1,0.1c-0.2-0.1-0.4-0.2-0.6-0.4
						s-0.3-0.4-0.3-0.7c-0.1-0.6-0.4-1.3-0.9-1.6c-0.4-0.3-0.9-0.5-1.4-0.4c-0.6,0.1-1.1,0.5-1.5,1c-0.1,0.2-0.2,0.4-0.3,0.5
						c-0.2,0.3-0.4,0.7-0.6,0.9c-0.1,0.1-0.2,0.2-0.4,0.2c-0.1,0-0.1,0-0.2,0c-0.6-0.7-0.7-1.1-0.7-1.6s0.2-1,0.5-1.5
						c0.7-1.1,2-2.1,2.9-2.3c1.2-0.3,2.4,0.1,3.4,0.8c1,0.8,1.7,2,2,3.3c0.1,0.3,0,0.7-0.1,1
						C-7259.8-3654.3-7260-3654-7260.2-3653.9z M-7284.4-3668.1c-0.7,0.8-1.6,0.9-2.4,1c-0.5,0.1-0.9,0.1-1.2,0.2
						c-1,0.3-2.1,0.7-3,1.2c-1,0.6-2.1,1.3-2.8,2.2c-0.2,0.2-0.4,0.4-0.5,0.7c-0.2,0.2-0.3,0.4-0.5,0.6c-0.2,0.2-0.4,0.5-0.5,0.7
						s-0.1,0.2-0.2,0.3c0,0.1-0.1,0.2-0.1,0.3c-0.1,0.1-0.1,0.3-0.2,0.4c-0.1,0.2-0.2,0.3-0.2,0.3c-0.1,0-0.2,0.1-0.3,0.1
						c-0.1,0-0.2-0.1-0.2-0.1c-0.4-0.4-0.5-0.9-0.5-1.5c0-0.9,0.3-2,0.6-2.6c0.7-1.5,1.6-3,2.7-4.1c1.2-1.2,2.6-2.2,4.2-2.8
						c1-0.4,2.1-0.8,3.2-0.7c0.8,0,1.5,0.3,2.1,0.9c0.4,0.4,0.5,0.9,0.5,1.5C-7283.9-3669.1-7284.1-3668.5-7284.4-3668.1z
						 M-7258.8-3660.9c0,0.1-0.1,0.1-0.2,0.2c-0.1,0-0.2,0-0.2,0c-0.1,0-0.2-0.1-0.2-0.1c-0.1-0.1-0.1-0.1-0.1-0.2
						c-0.5-2.4-1.4-4.1-3.4-5.2c-1-0.6-2.1-0.9-3.2-1.2c-0.3-0.1-0.6-0.1-1-0.2c-1-0.2-2.1-0.4-2.8-1.3c-0.4-0.6-0.6-1.3-0.5-1.9
						c0.1-0.6,0.4-1.2,1-1.5c1.5-0.8,3.3,0,4.8,0.7c0.1,0.1,0.2,0.1,0.3,0.2c1.4,0.7,2.8,1.6,3.9,2.9c0.9,1,1.7,2.5,2,4.1
						C-7258.1-3663.3-7258.2-3662-7258.8-3660.9z"/>
				</g>
			</g>
		</g>
	</g>
</g>
<g class="st2">
	<g transform="matrix(0.4441,0,0,0.39775,-345.369,-236.477)" class="st3">
		<g id="Gray-Short.svg" transform="matrix(0.681216,0,0,0.681216,1361.69,1133.76)">
			<g transform="matrix(1,0,0,1,-236.5,-283.5)">
				<g id="head-mono-Gray-Short">
					<path id="_xD83D__xDD8D_-Ink" class="st4" d="M-473.8-374.7c-6.3,0.7-13.7-0.9-17.9-6.6c-0.1-0.2-0.2-0.4-0.2-0.5
						c0-0.2,0.1-0.4,0.2-0.6s0.3-0.3,0.5-0.3s0.3,0,0.5,0.1l0.4,0.2c2.9,1.8,5.8,3.3,9.1,3.9c3.3,0.7,6.7,0.6,10-0.2
						c6-1.5,10.9-5.4,14.5-10.6c4-5.8,6.4-13,7-20.4c0.7-8.9-1-17.6-2.8-26.2c-1.9-9-3.9-18-6.3-26.8c-0.1-0.3-0.1-0.5-0.1-0.8
						c-0.7-0.3-1.5-0.2-2.2,0.1c-1.4,0.5-2.7,1.7-3.8,2.6c-0.4,0.3-0.8,0.7-1.1,0.9c-1.4,1.1-2.9,1.8-4.6,2
						c-1.8,0.1-3.5-0.5-5.1-1.3c-0.8-0.4-1.6-0.8-2.4-1.2c-2.3-1.1-4.5-2.3-7-3c-3.3-1-6.7-1.5-10.2-1.5c-6.1,0.1-12.3,1.8-16,7.6
						c-1.5,2.3-2.5,5-1.7,7.9c0.4,1.6,1.2,3,2.1,4.3l0.3,0.5c0.5,0.7,0.9,1.4,1,2.2c0.1,0.6,0,1.3-0.4,2.1c-0.3,0.5-0.6,0.9-0.9,1.3
						c-0.2,0.3-0.5,0.6-0.7,0.9c-0.4,0.6-0.8,1.4-1.1,2.1c-0.6,1.4-0.8,3-0.8,4.5c-0.1,1.9,0.2,3.7,0.4,5.6c0.2,1.3,0.3,2.6,0.4,3.9
						c0,0.2,0,0.4-0.1,0.5c-0.1,0.2-0.3,0.2-0.5,0.3c0,0-0.1,0-0.2,0c0,0.1,0,0.2,0.1,0.4c-0.1-0.2-0.2-0.3-0.4-0.5l0,0
						c-0.1-0.1-0.2-0.2-0.3-0.4c-0.2-0.2-0.4-0.4-0.6-0.5c-1-0.9-2.3-1.4-3.5-1.4s-2.4,0.4-3.3,1.4c-1.8,1.9-2.3,5-2.4,7.6
						c0,2.7,0.5,5.9,2.6,7.6c0.8,0.7,1.9,1.1,2.9,1.1c0.9,0,1.7-0.3,2.5-0.6c0.2-0.1,0.5-0.2,0.8-0.3c0.3-0.1,0.5-0.1,0.8,0
						c0.2,0.1,0.5,0.3,0.6,0.5c0.2,0.2,0.3,0.5,0.3,0.8s0,0.6-0.1,0.9c0,0.1-0.1,0.1-0.1,0.2l0.5,0.9c1.8,3.2,3.6,6.4,5.9,9.2
						c1.4,1.6,2.8,3.1,4.4,4.4l0.2,0.2c0.1,0.1,0.3,0.2,0.5,0.4c0.5,0.4,1,1,1.5,1c0.1,0,0.3,0,0.4,0c0.3,0,0.5-0.1,0.8,0
						c0.2,0.1,0.4,0.2,0.6,0.6c0.1,0.2,0.2,0.5,0.2,0.8s-0.1,0.6-0.2,0.8c-0.3,0.5-0.6,0.8-0.9,1c-0.4,0.2-0.8,0.2-1.3,0.1
						c-1.1-0.2-2.3-1.3-3.1-1.9l-0.1-0.1c-1.7-1.5-3.4-3.1-4.8-4.9c-2.5-3.1-4.7-6.8-5.8-10.8c-0.8,0.6-1.8,0.9-2.8,0.9
						c-1.5,0.1-3.1-0.4-4.3-1c-2.6-1.4-4.2-4-4.9-6.9c-0.8-3.5-0.6-7.4,0.5-10.5c0-0.1,0.1-0.2,0.1-0.3c-3.3-9.4-4.3-19.9-4.1-29.9
						c0.1-4.7,0.4-9.6,1.4-14.2c0.5-2.1,1.2-4,2.5-5.6c0.7-0.9,1.6-1.6,2.4-2.4c0.8-0.6,1.5-1.2,2.1-2l0.3-0.4
						c0.1-0.1,0.1-0.2,0.2-0.2c1.1-1.4,2.2-2.7,3.5-3.8c1.5-1.3,3.2-2.3,5-3.1c3.8-1.8,7.9-2.9,12-3.7c8.8-1.8,17.8-1.9,26.5,0.6
						c4,1.2,8,2.8,11.9,4.4c0.4,0.1,0.7,0.3,1.1,0.5c3,1.2,6.1,2.5,9.1,3.7c1.4,0.6,2.8,1.2,4.2,1.7c0.3,0.1,0.6,0.4,0.8,0.7
						c0.2,0.3,0.2,0.7,0.1,1.1c-0.9,2.5-2,4.8-3.3,6.9c0.5,0.4,0.9,0.8,1.1,1.4c0.4,0.7,0.6,1.5,0.6,2.4c0,2.9-2.3,4.9-4.3,6.3
						c-0.2,0.1-0.4,0.2-0.5,0.2c1.9,8.1,3.7,16.3,5.3,24.5l0.1,0.6c1.6,8.6,2.6,17.4,1.1,26.1c-1.3,7.5-4.3,14.8-9,20.4
						C-460.9-378.9-467.1-375.4-473.8-374.7z M-515.2-424.2c-0.8-2.9-1.3-6.1-0.9-9c0.2-1.9,0.7-3.6,1.5-5.3c0.5-0.9,1-1.8,1.7-2.6
						l0.2-0.3c0.1-0.1,0.2-0.3,0.2-0.4s0-0.2,0-0.3c-0.1-0.3-0.3-0.5-0.5-0.8c-0.1-0.2-0.2-0.3-0.3-0.5c-1.8-2.7-3.2-6-2.7-9.4
						c0.4-3.4,2.4-6.5,4.5-8.9c4.6-5.2,11.8-6.4,18.1-6.1c3.7,0.2,7.3,0.9,10.8,2.1c1.7,0.6,3.4,1.4,5,2.2l0.4,0.2
						c0.2,0.1,0.4,0.2,0.6,0.3c1.3,0.7,2.6,1.4,4,1.8c2.7,0.7,4.5-0.8,6.5-2.4c0.7-0.5,1.3-1.1,2-1.6l0.1-0.1
						c1.3-0.8,2.8-1.4,4.3-1.4c1.3,0,2.5,0.5,3.5,1.6c0.2,0.2,0.3,0.5,0.4,0.7s0.2,0.4,0.3,0.6c0.4,1.5,0.7,3,1.1,4.5l0.3-0.2
						c0.9-0.6,1.8-1.4,2.2-2.4c0.2-0.4,0.1-1.1-0.1-1.6c-0.1-0.2-0.2-0.3-0.3-0.4c-0.1-0.1-0.2-0.1-0.4-0.1c-0.3,0-0.6,0-0.9-0.1
						s-0.5-0.4-0.7-0.6c-0.2-0.3-0.2-0.6-0.2-1c0-0.3,0.1-0.6,0.4-0.9c1.5-1.9,2.7-4,3.7-6.3l-6.3-2.6c-2.2-0.9-4.5-1.9-6.7-2.8
						l-1.2-0.5c-4.1-1.7-8.2-3.3-12.4-4.4c-8.4-2.1-17.2-1.6-25.6,0.4l-0.5,0.1c-3.5,0.9-7.1,1.9-10.3,3.7c-1.6,0.9-3.1,2-4.4,3.3
						c-0.6,0.6-1.1,1.3-1.6,1.9c-0.7,0.9-1.5,1.8-2.3,2.6l-0.8,0.7c-1.2,1.1-2.3,2.1-2.9,3.8c-0.7,1.7-1,3.7-1.3,5.5
						c-0.7,4.7-1,9.5-0.9,14.3c0,8,1.1,15.9,2.5,23.7c1.1-1.8,2.7-3.1,4.7-3.4c1.3-0.2,2.6,0.1,3.7,0.7
						C-516.2-425.3-515.7-424.8-515.2-424.2z M-517.2-414.7c-1.5-0.6-3-0.8-4.5-0.5c-0.2,0-0.3,0-0.4-0.1c-0.1-0.1-0.2-0.2-0.3-0.4
						c-0.1-0.2-0.1-0.4,0-0.5c0-0.1,0.1-0.3,0.3-0.4c1.7-0.9,3.5-1.3,5.4-1h0.2c0.9,0.2,2.3,0.5,3.3,1.1c0.8,0.5,1.3,1.2,1.5,2.1
						c0.1,0.5,0,1-0.3,1.3c-0.2,0.4-0.6,0.6-1.1,0.6c-0.8,0-1.3-0.4-1.9-0.9c-0.1-0.1-0.2-0.1-0.2-0.2
						C-516-414-516.6-414.4-517.2-414.7z"/>
				</g>
			</g>
		</g>
		<g id="Eyes-Closed.svg" transform="matrix(0.734096,0,0,0.734096,1398.38,1156.31)">
			<g transform="matrix(1,0,0,1,-144.5,-146.5)">
				<g id="face-Eyes-Closed">
					<path id="_xD83D__xDD8D_-Ink1" class="st4" d="M-558.4-520.4h0.2c1.2-0.3,2.4-0.8,3.5,0.1c1.1,0.8,1.2,2.3,0.4,3.3
						c-0.9,1.1-2,1-3.2,1h-0.1c-1,0-2,0-3-0.1c-0.9-0.1-1.9-0.2-2.8-0.4l-0.5-0.1c-0.5-0.1-1.1-0.3-1.4-0.9c-0.5-1,3.2-1.9,3.6-2
						C-560.6-519.9-559.5-520.1-558.4-520.4z M-556.3-533c-0.6,0.7-1.4,1.2-2.2,1.4c-2.2,0.7-5,0.3-6.8-0.4
						c-0.4-0.2-0.7-0.5-0.9-0.9s-0.2-0.8-0.1-1.2c0-0.1,0.1-0.2,0.1-0.4c0.1-0.3,0.4-0.6,0.7-0.7c0.3-0.2,0.7-0.2,1-0.1h0.1
						c1.1,0.4,3,1.1,4.5,0.9c0.9-0.1,1.7-0.4,2.2-1.4c0.2-0.5,0.2-1,0-1.4c-0.3-0.7-0.9-1.3-1.4-1.7c-0.7-0.6-1.5-0.8-2.2-1
						c-0.3-0.1-0.6-0.2-0.9-0.3c-0.1,0-0.2-0.1-0.2-0.2s-0.1-0.2-0.1-0.3s0-0.2,0-0.3s0.1-0.2,0.2-0.2c1.5-0.8,3.5-0.3,5,0.9
						c0.7,0.6,1.4,1.4,1.7,2.2s0.5,1.7,0.4,2.6C-555.4-534.4-555.8-533.6-556.3-533z M-581.3-550c0.4-0.2,0.8,0.8,0.9,1l0.2,0.6
						c0.3,0.9,0.6,1.8,1.3,2.5c0.5,0.6,1.4,1,2,0.4s0.3-1.3,0.4-2.1c0.2-1.4,1.8-2.8,2.8-1.3c2.3,3.2-1.2,7.8-4.5,7
						c-1.7-0.4-3-1.9-3.5-3.6v-0.1C-582.2-546.8-582.5-549.4-581.3-550z M-551.9-547.7L-551.9-547.7c-1.1-2.8,2.8-4,3.1-1.5v0.2
						c0.3,2.8-0.3,6.5-3.4,6.7c-3.4,0.3-4.8-3.9-4.5-7c0-0.5,0.7-0.6,0.8-0.1v0.1c0.5,1.6,1.1,4.5,3,4.5
						C-551.4-544.8-551.5-546.7-551.9-547.7z M-549.4-555.7c2-0.1,1.9,3.3,0,3.4c-6.5,0.2-13,0.4-19.5,0.4h-1.2
						c-6.1,0-12.2,0.1-18.3-0.4c-0.5,0-0.4-0.9,0-0.8c6.4-1,12.8-1.3,19.3-1.7C-562.5-555.2-556-555.4-549.4-555.7z"/>
				</g>
			</g>
		</g>
	</g>
</g>
</svg>
