<?xml version="1.0" encoding="utf-8"?>
<!-- Generator: Adobe Illustrator 24.2.0, SVG Export Plug-In . SVG Version: 6.00 Build 0)  -->
<svg version="1.1" id="图层_1" xmlns="http://www.w3.org/2000/svg" xmlns:xlink="http://www.w3.org/1999/xlink" x="0px" y="0px"
	 viewBox="0 0 85 85" style="enable-background:new 0 0 85 85;" xml:space="preserve">
<style type="text/css">
	.st0{fill-rule:evenodd;clip-rule:evenodd;fill:#FFFFFF;}
	.st1{fill-rule:evenodd;clip-rule:evenodd;}
	.st2{clip-path:url(#SVGID_2_);}
	.st3{display:none;}
	.st4{display:inline;}
	.st5{fill-rule:evenodd;clip-rule:evenodd;fill:#040000;}
</style>
<g>
	<g>
		<g id="Device.svg" transform="matrix(0.274208,0,0,0.24559,939.159,1309.43)">
			<g transform="matrix(1,0,0,1,-409,-366.5)">
				<g>
					<g>
						<g>
							<g id="body-mono-Device">
								<path id="_xD83C__xDFA8_-Background1" class="st0" d="M-2813.1-4759.5c-0.7-2.1-0.5-4,0.1-6.1c-1-8.1-1.3-6.6-2.1-12.7
									c-0.6-4.7-1.3-12.1-5.1-12.4c-1.4-4-5.1-5.6-8-7.9c-3.3-2.3-6.5-4.9-9.9-6.9c-0.2-1.9-2.2-2.4-3.5-1
									c-3.5-2.4-7.6-2-11.3-3.5c-2.8-5.1-3-10.4-3.8-15.3c-0.3-2.1,0-4.2-1.3-6.1c-4.4-6.9-21.8-9.9-28.2-5.8
									c-3.4-2.4-3.5,1.9-4.1,4.6c-0.6,1.3-0.9,2.9-0.8,4.5c-3.7,8.6-12.2,12.5-19.8,15.7c-1-1-2.3-0.9-3.2,0
									c-6.6,1.6-13,4.4-18.5,8.8c-6.3,2-10.7,7.7-13.9,13.8c-0.4,0.6-0.4,1.3-0.3,1.9c-9.8,16-14.5,35.2-15.1,54.6
									c-6.3,4.2,3,42.2,5.2,50l0,0c1.4,2.8,3,10.7,6.5,10.1c2.4,3,6.3,2.4,9.5,2.7c-0.5,2.3-0.3,4.9,0.4,7.1
									c0.8,2.7,4.4,2.8,5-0.2c32.6,7.1,66,1.4,99,2.5c9.5,0.1,19.1,0.4,28.6,1.2c1.3,0.1,2.7-1.4,2.6-2.9c-2-24.3-4-56.2-6.2-80.2
									C-2811.9-4748.5-2813.2-4753.5-2813.1-4759.5z"/>
								<path id="_xD83D__xDD8D_-Ink10" class="st1" d="M-2889.6-4835.8c0.1-0.3,0.5-0.2,0.5,0.1c0.2,6.8-1.4,15.2-6.3,19.8
									c-2.5,2.4-5.8,3.4-8.9,4.7l-0.3,0.1l-5.4,2.2c-1.4,0.6-3,1.5-4.2,0.7c1,2.8,1.9,5.7,3.1,8.5c1.5,3.4,3.4,6.5,5.7,9.3
									c9.1,11.2,23.4,14.6,36.3,11.3c6.6-1.7,13.1-4.9,17.6-10.7c3.4-4.4,5.4-10.4,5.9-16.2c-0.1,0-0.3,0-0.4,0
									c-1.6-0.4-3.3-1.4-4.7-2.3l-0.1-0.1c-1.4-0.9-2.8-2-3.8-3.4c-0.7-1-1.3-3-2-6.1c-0.3-1.8-0.5-5.3-0.5-7
									c0-0.2,0.7-0.3,0.7-0.1c0.6,1.5,0.8,4.8,1.3,6.4l0.1,0.3c0.5,1.6,0.9,3.6,2,5c2,2.5,4.9,3.5,7.6,4.8
									c0.2-2.8,4.2-2.7,4.2,0.2c0,0.2,0,0.3,0,0.5c0.3,0.2,0.6,0.4,0.9,0.6l0.3,0.2c1.1,0.8,2.1,1.6,3.2,2.2
									c2.2,1.3,4.5,2.4,6.7,3.5c2.2,1.2,4.4,2.6,6.3,4.4c0.9,0.8,1.8,1.7,2.6,2.6l0.2,0.3c0.8,0.9,1.8,1.9,2.3,3
									c0.1,0.3-0.5,0.4-0.3,0.4c4.3,0.1,6.4,19.9,6.7,24.7c0.2,2.7-0.1,6,0.1,8.7c0.2,4,0.5,8,0.9,12c1.2,14.2,3.1,28.4,4.8,42.6
									c0.9,7.1,1.6,14.2,2.4,21.3c0.4,3.6,0.7,7.2,1,10.8c0.1,1.5,0.2,3,0.3,4.5l0.1,1.3c0.1,1.7,0.3,3.3-0.6,4.7
									c-0.4,0.7-1.4,1-1.9,0.3c-0.7-0.9-1-1.6-1-2.9c-0.1-0.9-0.1-1.9-0.1-2.8c-0.1-2-0.2-4.1-0.3-6.1c-0.2-4.1-0.5-8.1-0.8-12.2
									c-1.1-14.2-3.3-28.4-4.7-42.6c-0.7-7.2-1.2-14.3-1.5-21.5c-0.1-3.6-0.2-7.2-0.2-10.8c0-1.3,0.1-2.7,0.2-4
									c-2.1,5.4-4.4,10.8-6.7,16.1l-0.6,1.3c-1.5,3.3-3,6.7-4.8,9.9l-0.3,0.5c-0.7,1.3-1.7,3.3-3,3.7c-0.9,0.3-2,0.1-3,0.1
									c-0.9,0-1.9,0-2.8-0.1c-1,0-2.1-0.2-3.1-0.5c-0.2-0.1-0.3-0.1-0.5-0.2c-1,1.9-2.8,3.3-4.5,4.1c-1.4,0.7-2.9,1.1-4.4,1.5
									l-0.5,0.1c-1.6,0.4-3.4,0.7-4.3,2.4l-0.2,0.4c-0.7,1.3-1.3,2.4-2.4,3.3c-1.2,1-2.6,1.6-4,2.1s-2.9,0.9-4.4,1.3l-0.4,0.1
									c-1,0.3-1.9,0.5-2.9,0.8c-0.4,0.1-0.8,0.3-1.2,0.4c-0.5,0.2-0.8,0.5-1.2,0.8c-0.3,1.3-1.8,2-2.9,1.9c-0.6,0-1.2-0.3-1.7-0.6
									c-0.9,0.8-1.8,1.6-2.7,2.4c-1.3,1.1-2.5,2.2-3.8,3.2c-2.6,2.2-5.2,4.4-7.9,6.5c-4.7,3.8-9.6,7.4-14.5,10.9
									c-2,1.4-4.1,2.9-6.2,4.3l0.2,0.1l0.4,0.2c1,0.4,2.2,1.1,2.4,2.5c0.2,1.1-0.4,1.8-1.3,1.9c-1.1,0.2-2-0.7-2.7-1.6
									c-0.3-0.4-0.7-0.7-1-1.1c-0.1-0.2-0.2-0.3-0.3-0.5c-2.1,1.4-4.1,2.7-6.2,3.9l-0.5,0.3c-5.2,3-10.3,6.3-15.6,9.2
									c-1.4,0.8-3.1,1.6-4.8,2.1c0.5,2,0.5,4.2,0.5,6.2s-2.8,2-2.8,0v-1c0.1-1.6,0.1-3.3,0.5-4.8c-5.2,1-10.3-1.1-11.3-1.7
									c-1.1-0.7-2-1.8-2.8-2.8c-1.7-2.2-2.9-4.8-3.9-7.4c-2.3-5.6-3.9-11.7-5-17.7c-4.3-22.2-2.5-46,4.5-67.2
									c1.7-5.3,3.8-10.5,6.2-15.5l0.3-0.6c2.4-5,5-9.9,8.3-14.1c3.5-4.4,7.7-7.8,12.4-10.5c2.3-1.3,4.6-2.4,7-3.4
									c0.4-0.2,0.8-0.3,1.2-0.4c2.5-1.8,5.5-3.5,8.5-3.4c0.2,0,0.4,0.1,0.5,0.2c0.1,0,0.3,0.1,0.4,0.1c0.3,0.1,0.7,0.5,0.6,0.9
									v0.1c0,0.1,0,0.1,0,0.2c0.1,0,0.2,0,0.3,0.1c2.9-0.9,5.7-2.3,8.6-3.4l0.6-0.3c2.4-0.9,4.8-1.8,6.7-3.7
									c1.9-1.8,3.4-4.2,4.4-6.7C-2891.3-4829.1-2890.7-4832.5-2889.6-4835.8z M-2831.7-4670c0.6-0.5,1.3,0.1,1.5,0.7
									c0.7,1.9,0.4,4.9-0.6,6.6c-1,1.8-3.5,1.1-3.5-1.1C-2834.5-4666-2833.3-4668.7-2831.7-4670z M-2825.8-4723.4
									c0.1-0.3,0.4-0.2,0.5,0c0.5,2.3,0.5,4.7,0.6,7v0.3c0.2,2.6,0.3,5.1,0.4,7.7c0.2,5.1,0.4,10.1,0.7,15.2
									c0.1,2.5,0.3,5,0.4,7.5c0.5-0.3,1-0.5,1.5-0.8c0.8-0.3,1.5-0.4,2.3-0.4c1,0,1.7,1,1.6,2.1c-0.1,1.2-1.1,1.7-2,1.5
									c-1.1-0.2-2.1-0.5-3.2-0.6c0.1,1.9,0.2,3.9,0.4,5.8c0.2,2.6,0.4,5.1,0.6,7.7c0,0.2,0,0.5,0,0.7c0.6-0.4,1.3-0.6,2.1-0.8
									l0.2-0.1c1.1-0.4,2.3-0.9,3.4,0c0.7,0.6,0.8,1.5,0.3,2.2c-0.9,1.1-2.2,0.9-3.4,0.9h-0.6c-0.6,0-1.2-0.1-1.7-0.2
									c0.1,1.7,0.2,3.3,0,5c-0.1,0.9-1.1,1.1-1.4,0.2c-0.7-2.4-0.9-4.9-1.1-7.4c-0.2-2.3-0.4-4.7-0.6-7v-0.7
									c-0.4-5.1-0.7-10.2-0.9-15.4c-0.2-5.1-0.3-10.3-0.4-15.4c0-2.3,0-4.7,0.1-7v-0.7C-2826.2-4718.5-2826.3-4721-2825.8-4723.4z
									 M-2921.5-4669.6c0-0.3,0.3-0.7,0.6-0.7s0.7,0,1,0.1c0.4,0.1,0.8,0.4,1.2,0.5c0.6,0.3,1.3,0.4,2,0.7
									c1.2,0.4,1.9,1.9,1.4,3.2c-0.5,1.4-1.9,1.7-3,1.1c-0.9-0.5-1.6-1.2-2.2-2.1l-0.2-0.2c-0.3-0.4-0.6-0.8-0.7-1.2
									C-2921.6-4668.7-2921.6-4669.2-2921.5-4669.6z M-2862-4676.3c1.5-0.2,2.8,0.3,4.2,0.9h0.1c1.4,0.6,3.5,0.9,4.3,2.6
									c0.4,1,0.1,2.3-0.9,2.6c-1.7,0.5-3.1-0.9-4.5-1.8h-0.1c-1.3-0.9-2.7-1.6-3.5-3.1C-2862.7-4675.5-2862.5-4676.2-2862-4676.3z
									 M-2915.3-4811.7c-0.6,0.2-1.2,0.3-1.8,0.4c-2.3,1.4-4.6,2.8-7,4.1c-2.5,1.3-5.1,2.7-7.5,4.3c-4.9,3.2-8.9,7.4-12.2,12.5
									c-5.7,8.8-10,19-13.1,29.4c-0.8,2.7-1.5,5.3-2.1,8.1c1.1-1.1,2.4-1.8,3.9-2.4c0.6-0.3,1.4,0.2,1.7,0.8
									c0.1,0.3,0.2,0.5,0.2,0.8c0,0.7-0.4,1.5-1.1,1.6c-1.6,0.3-3.1,0.9-4.6,1.5c-0.2,0.1-0.4,0.1-0.6,0
									c-1.5,7.1-2.4,14.3-2.8,21.5c-0.3,6.1-0.1,12.3,0.5,18.4c0.5-0.2,0.9-0.5,1.4-0.6c0.7-0.2,1.3-0.4,2-0.6
									c1.9-0.7,2.7,2.8,0.8,3.3c-0.7,0.2-1.4,0.4-2.2,0.5c-0.6,0.1-1.2,0.1-1.8-0.1c0.5,3.8,1.1,7.6,1.9,11.4l0.2,0.8
									c1,4.8,2.2,9.6,4,14.1c0.9,2.2,2,4.3,3.4,6.2c0.7,0.9,1.4,1.7,2.3,2.4c0.7,0.6,3,1.9,5.8,1.9s3.5-0.3,4.9-0.8
									c2.8-1.1,5.4-2.8,8-4.3l0.3-0.2c1.1-0.7,2.3-1.3,3.4-2c-0.1-1.3,0.1-2.4,0.7-3.6c0.7-1.3,2.3-0.7,2.4,0.7v0.1
									c0,0.3,0.1,0.6,0.1,0.9c7.6-4.7,15.1-9.7,22.4-14.9c4.7-3.3,9.4-6.8,14-10.3c2.3-1.8,4.6-3.6,6.9-5.4c1.2-1,2.4-1.9,3.5-2.9
									c0.5-0.4,1-0.8,1.5-1.2c-0.1-0.2-0.2-0.3-0.3-0.5c-1.8-2.7-3-5.9-3.6-9.2c-0.4-2-0.5-4-0.6-6.1v-0.9c0-1.5,0-3,0.2-4.5
									c-0.3,0.2-0.7,0.4-1,0.6c-1.2,0.8-2.4,1.5-3.7,2.3c-2.4,1.5-4.9,3-7.4,4.5c-4.4,2.6-8.9,5.1-13.5,7.3l-2.2,1.1
									c-3.9,1.9-7.8,3.7-11.8,5.1c-2.3,0.8-4.6,1.4-6.9,2l0.9,1.2c0.6,0.8,0.6,2-0.2,2.7s-1.9,0.4-2.4-0.5l-1-1.7
									c-0.2-0.4-0.3-0.7-0.4-1c-1.1,0.2-2.1,0.5-3.2,0.7l-2,0.4c-2.9,0.6-5.7,1.9-8.3,3.4c-0.9,0.5-1.1-0.5-0.2-1.3
									c2.8-2.2,6-3.4,9.4-4.4l0.2-0.1c1.2-0.4,2.5-0.8,3.7-1.2c-0.1-0.5-0.2-1.1-0.2-1.7c0-1.4,0.1-2.8,0.2-4.2
									c0.1-2.9,0.3-5.8,0.5-8.7c0.1-1.1,0.2-2.2,0.3-3.4c-0.7-0.4-1.2-0.9-2-1.2h-0.1c-0.8-0.2-0.5-1.4,0.2-1.5
									c0.6-0.1,1.3,0,1.9,0.1c0.1,0,0.2,0,0.3,0.1c0.1-1,0.2-2.1,0.4-3.1c0.4-2.7,0.6-5.6,1.4-8.2c0.1-0.2,0.3-0.3,0.4-0.1
									c1.2,2.4,1.2,5.4,1.3,8.2v0.3c0.2,3,0.2,6,0.1,8.9c-0.1,3.1-0.1,6.1-0.3,9.2c0,1.2,0,2.5-0.2,3.7c6.8-2.5,13.6-5.5,20-9
									c4.5-2.5,9.1-5.1,13.5-7.7c2.2-1.3,4.5-2.7,6.7-4c0.8-0.5,1.6-0.9,2.3-1.4l1.2-0.7c1.1-0.7,2-1.3,3.3-1.4
									c0.4,0,0.7,0.2,1,0.5c0.7-0.5,1.5-0.9,2.3-0.9c1.3-1.9,2.5-3.8,3.8-5.7l1-1.4c1.7-2.4,3.5-4.8,5.6-6.6c1-0.8,2-1.4,3.1-1.9
									c-0.3-0.1-0.5-0.2-0.7-0.4c-1.1-1.1-1.2-3.1-1.4-4.6c-0.2-1.6-0.1-3,0.1-4.6c0.1-0.6,1-0.7,1.2-0.2c0.5,1.2,1,2.3,1.4,3.5
									l0.1,0.4c0.5,1.3,1.4,2.8,1.4,4.2c0,0.4-0.1,0.8-0.3,1c0.9-0.3,1.9-0.6,2.8-1c2.9-1,5.8-2,8.8-2.8c0.8-0.2,1.6-0.4,2.4-0.6
									c0.4-2.2,1-4.4,1.7-6.5c-0.7-0.4-1.1-1-1.7-1.6c-0.5-0.5-0.9-1.2-1.4-1.8c-0.4-0.6-0.2-1.6,0.6-1.6h0.2
									c0.8,0,1.6,0.1,2.3,0.5l0.3,0.1c0.4,0.2,0.7,0.4,1.1,0.7c0.4-1.1,0.9-2.3,1.4-3.4l0.6-1.5c1.6-3.8,3.2-7.7,5.1-11.2
									c0.9-1.6,2.1-2.5,3.7-2.7c1.7-0.2,3.5,0,5.3,0.1c2,0.1,4,0.2,6,0.3c-0.5-0.6-1-1.3-1.5-1.9c-0.9-1-1.8-1.9-2.7-2.7
									c-1.9-1.7-4-3-6.1-4.2c-2.2-1.2-4.4-2.2-6.4-3.7c-1.3-0.9-2.4-2.1-3.5-3.3c-0.7,7.9-4.1,15.3-9.2,20.8
									c-5.4,5.7-12.7,8.9-20,10.2c-7.4,1.4-15.1,0.9-22.1-2c-3.6-1.5-7.1-3.6-10.2-6.2c0,0.2-0.1,0.5-0.2,0.7
									c-0.1,0.3-0.2,0.5-0.4,0.8l-0.3,0.4c-0.2,0.3-0.3,0.6-0.5,0.8c-0.5,0.6-1.1,0.9-1.9,0.9c-1.4,0-2.4-1.5-2-3
									c0.2-0.9,0.7-1.5,1.5-1.9c0.2-0.1,0.5-0.2,0.7-0.3l0.2-0.1c0.3-0.1,0.5-0.2,0.8-0.2c-1.5-1.5-2.8-3-4.1-4.7
									c-3.8-5.3-7.6-12.8-6.3-19.9c0-0.1,0.1-0.2,0.2-0.2c0.1-0.5,0.3-1,0.6-1.3C-2914.8-4811.6-2915.1-4811.7-2915.3-4811.7z
									 M-2875.4-4689c0.8-0.5,1.5,0.7,0.9,1.3l-0.9,1c-0.9,1-1.7,1.9-2.4,3l-0.2,0.3c-1,1.5-2,3.2-3.7,3.8c-2,0.7-3.8-2-2.7-3.9
									c1-1.7,2.9-2.3,4.6-3C-2878.3-4687.1-2876.9-4688.1-2875.4-4689z M-2938.7-4696.8c0.4-0.7,1.6-0.3,1.3,0.6
									c-1,3-1.4,7.1-3.9,9.1c-0.8,0.6-2.1,0.3-2.7-0.4c-0.8-0.8-0.8-2-0.4-3.1c0.5-1.3,1.8-2.2,2.7-3.1l0.1-0.1
									C-2940.6-4694.8-2939.5-4695.6-2938.7-4696.8z M-2834-4693.4c0.8-0.4,2.9-1.1,3.5-0.2l0.1,0.1c0.2,0.3,0.2,0.7,0,1
									c-0.7,1.2-1.5,2.1-2.5,3l-0.1,0.1c-1.1,0.9-2.2,2-3.5,2.4c-1.9,0.6-3.2-2.1-1.9-3.6c1.1-1.2,2.7-1.9,4.1-2.6L-2834-4693.4z
									 M-2909.4-4710.5c-0.3-0.6,0.3-1.4,0.9-1c1.7,1.1,3.6,2,5.4,2.6c0.8,0.2,1.4,1.1,1.4,2v0.1c0,0.3-0.1,0.6-0.2,0.9
									c-0.6,0.9-1.6,1.3-2.6,0.8C-2906.7-4706.4-2908.2-4708.1-2909.4-4710.5z M-2860.9-4712.4c0-0.3,0.1-0.5,0.4-0.4
									c1.4,0.3,2.7,1.1,3.9,1.9c0.6,0.5,1.3,1,1.9,1.4c0.8,0.6,1.1,1.1,1.2,2.1c0.1,0.7-0.5,1.3-1,1.5c-1.5,0.5-3.2-1.2-4.1-2.3
									v-0.1C-2859.8-4709.4-2860.7-4710.8-2860.9-4712.4z M-2818.9-4714.3c-0.3-1,0.8-1.8,1.5-1.3c0.7,0.4,1.4,0.8,2.1,1.3
									c0.6,0.5,1.1,1,1.7,1.5l0.3,0.2c1,0.9,2.7,3.2,1.3,4.5s-3.3-0.4-4.2-1.5l-0.1-0.1c-0.5-0.7-1.2-1.5-1.6-2.3
									C-2818.4-4712.6-2818.6-4713.5-2818.9-4714.3z M-2832.7-4788.8c-1.8,0.4-2.5,2.8-3.2,4.4c-1.7,3.7-3.4,7.5-5,11.3
									c-0.5,1.2-1,2.3-1.5,3.5c0,0.1-0.1,0.2-0.1,0.3c-1,2.4-2,4.8-3.2,7.1c1.1-0.2,2.2-0.4,3.3-0.6c-0.1-1.2,0.7-2.7,1-3.7v-0.1
									c0.4-1.3,0.9-3.2,2-3.9c0.4-0.2,0.8,0.1,0.8,0.5c0.1,1.4-1.1,3-1.7,4.2c-0.4,0.7-0.7,1.4-1.1,2.2c-0.1,0.3-0.2,0.5-0.4,0.8
									c0.6-0.1,1.1-0.1,1.7-0.2h0.4c2.1-0.2,4.4-0.2,6.3,1c1.8,1.1,2.7,3.4,1.7,5.5c-1.2,2.6-3.9,3-6.3,3.2
									c-3,0.3-5.9,0.7-8.9,1.2s-5.9,1.7-8.9,2.4c-0.3,0.1-0.5-0.3-0.2-0.5c2.4-1.6,5.2-2.5,7.9-3.4l0.2-0.1
									c1.4-0.5,2.8-1.1,4.3-1.3c1.4-0.3,2.9-0.5,4.3-0.7h0.1c1.6-0.1,5.7-0.1,5.5-2.7c-0.1-1.8-2.7-2.1-3.8-2.1
									c-5.3-0.1-10.7,1.5-15.8,3.2l-1.1,0.4c-2.1,0.7-4.2,1.4-6.2,2.2c-2.3,0.9-4.1,2.4-5.8,4.3c-1.9,2.2-3.7,4.4-5.6,6.5
									c-1.2,1.3-2.5,2.6-3.7,3.9c-0.3,0.4-0.5,0.8-0.7,1.4c-0.3,1-0.2,1.9-0.1,2.9c0.3,2.5,0.3,5.1,0.6,7.6
									c0.3,2.3,0.7,4.7,1.6,6.9c0.3,0.9,0.8,1.7,1.3,2.4l0.4,0.6c0.2,0.3,0.4,0.5,0.6,0.8c0.3-0.4,0.8-0.7,1.3-0.6
									c1.1,0.1,2,0.1,3-0.2c0.8-0.2,1.7-0.5,2.5-0.7c1.6-0.5,3.3-0.9,4.9-1.4l0.3-0.1c1.2-0.4,2.4-0.9,3.4-1.8
									c1.2-1,1.5-2.5,2.4-3.7c1.8-2.7,5.8-2.6,8.5-3.4c2.3-0.6,4.5-1.6,6.1-3.5l0.1-0.1c-0.1-0.3,0-0.7,0.3-0.9h0.1
									c0.1-0.1,0.2-0.1,0.3-0.1c0.1-0.2,0.3-0.5,0.4-0.8c0.1-0.2,0.4-0.1,0.3,0.2c0,0.1,0,0.3-0.1,0.4c1.5-0.4,3.2-0.4,4.8-0.4h2
									c0.3,0,0.9,0,0.9,0l0,0c0.1-0.1-0.1,0,0-0.1s0.2-0.3,0.3-0.4c0.3-0.5,0.7-1.1,1-1.6c-3.4,1-6.9,1.6-10.3,2.1
									c-3.7,0.5-7.5,0.9-11.2,0.9c-1,0-1-1.7,0-1.8c4-0.2,7.9-0.4,11.8-1c2-0.3,4.1-0.7,6.1-1.1c0.8-0.2,1.6-0.3,2.3-0.5l0.6-0.1
									c0.4-0.1,1.4-0.2,1.9-0.6c0.1-0.2,0.2-0.4,0.3-0.6c0-0.7-1.6-0.6-1.9-0.6c-1,0-2,0-3,0c-2,0-4,0-6,0c-4,0-8-0.2-12,0
									c-1,0-1.5-1.7-0.5-2.2c4.2-2,9-2.5,13.5-3.1c2.4-0.3,4.8-0.7,7.1-1.4l0.6-0.2c1.5-0.4,3.1-0.9,4.3-1.9
									c-1.9-0.8-4.2-0.7-6.1-0.9h-0.1c-2.7-0.2-5.4-0.3-8.1-0.3c-5.5,0-11,0.2-16.5,0.5c-0.1,0-0.2-0.2,0-0.3
									c5.7-1.4,11.4-2,17.2-2.1c2.7,0,5.4,0,8.1,0.1l1,0.1c2.3,0.1,4.8,0.1,6.8,1.7c0.3,0.2,0.4,0.5,0.5,0.9
									c2.6-5.7,5-11.6,7.3-17.4c1.9-4.5-2.5-21.3-4.3-22C-2822.8-4789.5-2831.2-4789.1-2832.7-4788.8z M-2834.3-4726.6
									c0.4-0.3,1,0,1.1,0.5c0.1,0.4,0.2,0.9,0.2,1.3c0,0.5-0.2,1.1-0.2,1.6c-0.2,1.1-0.4,2.1-1,3.1c-0.3,0.6-1,1.1-1.6,1.1
									c-0.5,0-1-0.2-1.3-0.6c-0.4-0.5-0.7-1.3-0.5-2.1C-2837.1-4723.7-2835.9-4725.6-2834.3-4726.6z M-2920.2-4728.5
									c0.9-1.9,3.2-3.5,5.2-3.3c2.9,0.2,3.5,4.7,0.7,5.7c-1.7,0.6-4,0-5.5-1.1C-2920.3-4727.5-2920.5-4728-2920.2-4728.5z
									 M-2950.5-4734.8c-0.2-0.3,0.1-0.7,0.5-0.7c0.7,0.2,1.5,0.3,2.2,0.5s1.4,0.6,2.1,0.9c1.5,0.6,3.1,0.9,4.5,1.6
									c0.6,0.3,1,1.2,1,1.9v0.2c0,0.3-0.1,0.6-0.3,0.9c-0.5,0.8-1.4,1.3-2.2,1c-1.6-0.5-3.1-1.7-4.5-2.7l-0.2-0.2
									c-0.6-0.4-1.2-0.9-1.7-1.4C-2949.7-4733.4-2950.1-4734.2-2950.5-4734.8z M-2896.1-4741.6c-0.2-0.7,0.6-1.2,1.1-0.7
									c1,1,1.9,1.9,2.9,2.9l0.1,0.1c0.7,0.7,1.6,2.2,0.8,3.2c-1.1,1.2-2.7-0.6-3.3-1.6
									C-2895.3-4738.9-2895.7-4740.2-2896.1-4741.6z M-2823.4-4747.6c-1.4,1.7-3.6,2.4-5.5,3.1c-2.3,0.8-4.6,1.2-6.9,1.6
									c-2.3,0.4-4.5,0.7-6.7,1.1c1.7,0,3.4,0,5,0.1c1.9,0,3.9,0.1,5.8,0.1c1.4,0,3.1-0.2,4.4,0.4c0.2,0.1,0.5,0.3,0.7,0.4
									C-2825.5-4743.1-2824.4-4745.3-2823.4-4747.6z M-2910.3-4763.2c1.5-0.5,2.9-1.2,4.4-1c0.4,0,0.7,0.5,0.5,0.9
									c-0.7,1.5-1.9,2.3-3.1,3.2l-0.1,0.1c-1.3,1.1-2.7,2.1-4.1,2.9c-2.4,1.5-4.6-2.8-2.1-4.1
									C-2913.4-4761.9-2911.9-4762.7-2910.3-4763.2z M-2883.8-4767c2.3,0.2,4.5,0.3,6.8,0.4c2.6,0.1,1.7,4.6-0.4,3.7
									c-2.2-0.9-4.3-1.8-6.5-2.6C-2884.7-4765.8-2884.6-4767-2883.8-4767L-2883.8-4767z M-2941.6-4775c0.6,0,1.2,0.1,1.8,0.2
									l0.6,0.1c1.3,0.1,2.5,0.3,3.7,0.9c2.3,1.1,1,5.1-1.2,5c-1.7-0.1-3.1-0.9-4.5-1.8c-1.2-0.8-2-1.8-2.8-3.1
									c-0.3-0.4,0.1-0.9,0.5-0.9C-2942.9-4774.8-2942.2-4774.9-2941.6-4775z M-2828.5-4783.2c-0.4,2.6-1.3,5-2.7,7.2
									c-0.7,1.1-1.9,1.1-2.6,0c-1-1.6-0.4-3.4,0.4-4.9l0.2-0.4c0.3-0.7,0.8-1.6,1.4-2.3v-0.1
									C-2831.5-4786.5-2828.1-4785.9-2828.5-4783.2z M-2919.6-4799.9c0.6-0.6,1.6-0.4,1.8,0.5c0.3,1.3,0.4,2.7,0.2,4
									c-0.1,0.7-0.1,1.5-0.4,2.2c-0.3,0.7-0.8,1.3-1.3,1.8c-1,1.1-3,0.7-3.3-1v-0.2c-0.1-0.8-0.3-1.6-0.1-2.4
									c0.1-0.6,0.5-1.2,0.7-1.7l0.1-0.1C-2921.3-4798-2920.4-4799.1-2919.6-4799.9z M-2840.7-4797.2h0.2c1.6,0,4.4,0.5,4.4,2.6
									c0,0.5-0.3,1-0.8,1.2c-0.9,0.2-1.5-0.4-2.2-1c-0.5-0.5-1.2-0.9-1.8-1.2C-2841.6-4795.9-2841.5-4797.2-2840.7-4797.2z"/>
								<path class="st0" d="M-2846.9-4761.9c0,0,1.8-0.4,2-0.4s3-0.6,3.6-0.5c0.6,0,3-1.5,3-1.5l10.5,6.1l5.2,9.1l-0.7,1.5
									c0,0-1.9,2.7-2,2.8c-0.1,0.1-1.2,3.9-1.2,3.9s0.8,0.9,0.4,2c-0.4,1.1-2.6,2.2-2.6,2.2l-8.8,1.9l-0.2,0.6c0,0-0.6,1.7-0.8,2
									c-0.2,0.4,0,1,0,1l16.5,0.9l7.4-29.6l0.8-3.1c0,0-1-13.6-1.8-17s-3.8-8.8-5.5-10.8c-3-3.5-20.1-0.1-19.1,1.3l-10.5,13.2
									L-2846.9-4761.9z"/>
							</g>
						</g>
					</g>
				</g>
			</g>
		</g>
		<g>
			<g>
				<g>
					<defs>
						<path id="SVGID_1_" d="M45.6,50.2c0,0,3.1-0.8,4.9,0.1c0.2,0.1,0.3,1.1-0.3,1.4c-0.4,0.2-0.8,0.3-1.3,0.4
							c-0.6,0-1,0.2-1.4,0.2c-1.5,0-3.4,0.7-3.4,0.7s3.6-0.9,7.2-0.4c3.7,0.5,0.2,1.9-2,2c-2.1,0.2-1.8,0.3-1.8,0.3s1.2,0,2.2,0
							c0.6,0,1,0.1,1.4,0.1c0.6-0.1,1.5,0.7-0.1,1.3c-0.4,0.1-0.8,0.1-1.1,0.2c-0.8,0.1-1.2,0.2-1.2,0.2s-0.1,1.3-1.8,1.8
							s1.5,0.6,1.5,0.6s17.8,3.4,17.6,3.2c0-0.1,3.6-13.3,3.6-13.3l-20.7-5.2l-3.6,4L45.6,50.2z"/>
					</defs>
					<clipPath id="SVGID_2_">
						<use xlink:href="#SVGID_1_"  style="overflow:visible;"/>
					</clipPath>
					<g class="st2">
						<g transform="matrix(0.4441,0,0,0.39775,0,0)">
							<path class="st0" d="M104.8,117.9c0,0-3.3,25.6-3.4,25.7c0,0.1,1,1.6,6.9,2.9c5.9,1.3,36.7,7.7,36.7,7.7s3.3,0.9,4.3-5.7
								c1.1-6.6,3.3-19.7,3.3-19.7s1.5-4.2-6.7-5.6c-4-0.7-12.6-2.6-20.2-4.3c-0.4-0.1-0.2-3.1-0.6-3.1c-1.9-0.4-4.7-0.9-6.4-1.3
								c-0.5-0.1-0.6,2.7-1.1,2.6s-1-0.2-1.4-0.3c-1-0.2,1-2.7-2.9-3.3c-3.2-0.5-3.6,2-3.6,2S107,113.8,104.8,117.9z"/>
						</g>
						<g transform="matrix(0.982023,0.169062,-0.210759,0.982023,292.344,-148.625)">
							<g transform="matrix(0.4441,0,0,0.39775,0,0)">
								<path class="st1" d="M-450.7,585.3c-0.4,0.4-0.7,1.2-0.8,2.1c-0.2,1.6,0,3.7,0.1,4.8c0.2,4.2,0.2,8.4,0.5,12.6
									c0.1,1.1,0.1,2.2,0.3,3.4c0.2,1.7,0.4,3.4,0.7,5c0,0.3,0.3,0.6,0.6,0.5c0.3,0,0.5-0.3,0.4-0.6l-1.1-20.9
									c-0.1-0.9-0.3-2.5-0.3-4c0-0.4,0-0.7,0-1c0-0.5,0-1,0.2-1.3c0.1-0.2,0.1-0.4,0-0.6C-450.3,585.2-450.6,585.2-450.7,585.3z"
									/>
							</g>
							<g transform="matrix(0.4441,0,0,0.39775,0,0)">
								<path class="st1" d="M-405.1,585c0.1,0,0.2,0.1,0.2,0.1c0.2,0,0.3-0.1,0.4-0.2c0.1-0.1,0.1-0.3,0-0.5
									c-0.1-0.1-0.3-0.3-0.6-0.3c-0.4-0.1-1-0.1-1.1-0.1l-3.5-0.2c-2.1-0.1-4.2-0.4-6.3-0.5c-0.9-0.1-1.9-0.1-2.8-0.1
									c-1.4,0-2.8,0-4.1,0c-3.2,0-6.4-0.2-9.7-0.2l-2.9,0.2c-2.5,0-5.2-0.3-7.8-0.2c-1.8,0-3.5,0.2-5.2,0.6
									c-0.2,0-0.4,0.3-0.3,0.6s0.3,0.4,0.5,0.4c1.2-0.2,2.5-0.3,3.8-0.3c3,0,6.1,0.3,9,0.4l2.9-0.2c2.8,0.1,5.5,0.2,8.3,0.3
									c1.8,0,3.7,0.1,5.6,0.1c0.6,0,1.2,0,1.8,0c2.4,0.1,4.9,0.4,7.3,0.4h3.5c0.1,0,0.3,0,0.5-0.1C-405.4,585-405.2,585-405.1,585
									z"/>
							</g>
							<g transform="matrix(0.4441,0,0,0.39775,0,0)">
								<path class="st1" d="M-448.5,584.4L-448.5,584.4L-448.5,584.4c0.1,0.1,0.2,0.1,0.1,0c0.1,0,0.2-0.1,0.3-0.3
									c0.1-0.2,0-0.7-0.6-0.5c-0.2,0-0.6,0.2-0.8,0.3c-0.4,0.1-0.9,0.5-1.2,1c-0.2,0.4-0.3,0.8-0.3,1.1c-0.1,0.3,0.1,0.6,0.4,0.7
									c0.3,0.1,0.5-0.1,0.6-0.4c0.1-0.2,0.2-0.3,0.3-0.5c0.1-0.2,0.2-0.4,0.4-0.5c0.1-0.1,0.2-0.3,0.3-0.4
									C-448.9,584.8-448.6,584.5-448.5,584.4z M-448.3,584.4L-448.3,584.4c0-0.1-0.1-0.1-0.1,0l0,0
									C-448.4,584.4-448.4,584.4-448.3,584.4z M-448.7,584L-448.7,584L-448.7,584C-448.7,584.1-448.7,584-448.7,584z"/>
							</g>
							<g transform="matrix(0.4441,0,0,0.39775,0,0)">
								<path class="st1" d="M-401.1,588.3L-401.1,588.3L-401.1,588.3C-401.1,588.3-401.2,588.3-401.1,588.3
									c-0.1,0.1-0.2,0.1-0.1,0.2c0.1,0.2-0.2,0.1-0.2,0.2h-0.1c0,0,0-0.1,0.1-0.1C-401.2,588.6-401.1,588.4-401.1,588.3
									c0-0.3-0.2-0.5-0.4-0.5c-0.3-0.2-0.3,0-0.6,0.1c-0.2,0,0,0.2-0.2,0.5v5.8c0,4.2,0,8.5,0.3,12.7c0.1,1.1,0.1,2.2,0.2,3.3
									c0.1,0.7,0.2,1.5,0.4,2.2c0,0.3,0.2,0.5,0.5,0.5c0.2,0,0.4-0.2,0.4-0.5c0-0.6,0.1-1.2,0.1-1.8c0-1.1,0-2.2,0-3.3
									c-0.1-4.3-0.1-8.7-0.1-13c0-1,0-2,0-3C-400.7,590.3-400.9,589.3-401.1,588.3z"/>
							</g>
							<g transform="matrix(0.4441,0,0,0.39775,0,0)">
								<path class="st1" d="M-404,615.9c0.1,0.1,0.3,0.1,0.4,0c0.4-0.2,0.2-0.5,0.1-0.7c0-0.1-0.3-0.2-0.7-0.3
									c-0.3-0.1-0.8-0.2-1.3-0.2c-1.1-0.1-2.4-0.1-2.9-0.1c-1-0.1-2-0.2-3-0.2c-2.3,0-4.6,0.2-6.9,0.1c-2.6-0.1-5.2-0.3-7.8-0.4
									c-1.1,0-2.3-0.1-3.4,0c-2.9,0.1-5.8,0.2-8.7,0.2c-1.7,0-3.5-0.1-5.2-0.1c-1.2,0-2.3-0.1-3.5-0.1c-0.2,0-0.4,0.2-0.5,0.4
									c0,0.3,0.2,0.5,0.4,0.5c1.2,0.2,2.3,0.3,3.5,0.4c1.2,0.1,2.3,0.1,3.5,0.2c3.5,0.1,7,0,10.5,0c1.1,0,2.2,0,3.3,0.1
									c2.6,0.1,5.2,0.4,7.8,0.5c2.3,0,4.6-0.2,7-0.2c1,0,1.9,0,2.9,0.1c0.5,0,1.9,0.1,3.1,0c0.5,0,0.9-0.1,1.3-0.1L-404,615.9z"/>
							</g>
							<g transform="matrix(0.4441,0,0,0.39775,0,0)">
								<path class="st1" d="M-405.9,584.2c-0.1,0-0.1,0.1-0.1,0.2c-0.1,0,0,0.1,0,0.1c-0.1,0.1,0,0.1,0,0.2c0,0.1,0.1,0.1,0.1,0.1
									c0,0.2,0.2,0.1,0.3,0.2c0,0,0.1-0.1,0.2,0h0.2l-0.1,0.1l0.1,0.1l0.9,0.7c0.5,0.5,1,1.1,1.4,1.7c0.3,0.4,0.5,0.9,0.7,1.4
									c0.1,0.2,0.2,0.4,0.3,0.6c0,0.3,0.3,0.5,0.5,0.4c0.3,0,0.4-0.3,0.4-0.6s0-0.6,0-0.9c-0.1-0.5-0.2-0.9-0.4-1.3
									c-0.4-1-1.1-1.9-1.8-2.7c-0.2-0.2-0.4-0.3-0.7-0.5c-0.4-0.1-0.7-0.2-1-0.3c-0.1,0-0.3-0.1-0.4,0s-0.2,0.1-0.2,0.2
									C-405.8,584-405.9,584.2-405.9,584.2L-405.9,584.2z M-405.3,584.6L-405.3,584.6L-405.3,584.6L-405.3,584.6L-405.3,584.6
									L-405.3,584.6z M-405.3,584.4L-405.3,584.4L-405.3,584.4L-405.3,584.4L-405.3,584.4L-405.3,584.4z M-405.5,584.2
									L-405.5,584.2c-0.1,0-0.1-0.1-0.1-0.1C-405.5,584.1-405.5,584.1-405.5,584.2z M-405.7,584.1L-405.7,584.1L-405.7,584.1z"/>
							</g>
							<g transform="matrix(0.4441,0,0,0.39775,0,0)">
								<path class="st1" d="M-405.2,615.8c0.8,0,1.5,0,2.2-0.3c0.5-0.2,0.9-0.6,1.3-1.1c0.2-0.3,0.5-0.4,0.7-0.7
									c0.2-0.2,0.3-0.5,0.4-0.7c0-0.2,0.1-0.4,0.1-0.6c0-0.3-0.1-0.5,0-0.8c0.1-0.4-0.1-0.9-0.5-1s-0.8,0.1-0.9,0.5l-0.2,1.3
									l-0.7,0.8c-0.3,0.5-0.6,0.8-1,1c-0.5,0.3-0.9,0.6-1.4,0.8c-0.2,0-0.3,0.2-0.3,0.5C-405.6,615.7-405.4,615.9-405.2,615.8z"/>
							</g>
							<g transform="matrix(0.4441,0,0,0.39775,0,0)">
								<path class="st1" d="M-449.7,612.7c-0.1,0.7,0.3,1.3,1,1.8c0.3,0.2,0.6,0.3,0.9,0.4c0.5,0.1,1,0.2,1.4,0.2
									c0.3,0,0.6-0.2,0.6-0.6c0-0.3-0.2-0.7-0.5-0.7c-0.4-0.1-0.9-0.2-1.4-0.4c-0.3-0.1-0.6-0.2-0.8-0.3c-0.2-0.1-0.5-0.2-0.6-0.4
									c0-0.2-0.2-0.4-0.4-0.4C-449.6,612.3-449.7,612.5-449.7,612.7z"/>
							</g>
							<g transform="matrix(0.4441,0,0,0.309757,0,282.202)">
								<path class="st1" d="M-446.1-162L-446.1-162L-446.1-162L-446.1-162C-446.1-161.9-446.1-161.9-446.1-162L-446.1-162
									c0-0.1,0.2-0.2,0.2-0.3c0.1-0.3,0.2-0.6,0.4-0.8c0.1-0.2,0.3-0.3,0.6-0.5c0.5-0.4,1.4-0.3,2.2-0.2c0.8,0.2,1.7,0.5,2,1.1
									c0.1,0.1,0.2,0.3,0.2,0.5s0.1,0.4,0.1,0.6c0,0.5,0.3,0.9,0.6,1c0.4,0,0.6-0.4,0.6-0.9c0.1-0.5,0.1-1,0-1.4s-0.2-0.7-0.4-1.1
									c-0.5-1-1.8-1.7-3-2c-1.2-0.2-2.5,0.1-3.1,0.7c-0.4,0.4-0.6,0.7-0.8,1.1c-0.2,0.4-0.3,0.9-0.4,1.5c0,0.2-0.1,0.8,0.1,1.1
									c0.1,0.2,0.2,0.5,0.4,0.4c0.2,0.1,0.4-0.1,0.4-0.4C-446.1-161.7-446.1-161.9-446.1-162z M-446.3-162.1l0.1,0.1
									C-446.2-162.1-446.2-162.1-446.3-162.1z"/>
							</g>
							<g transform="matrix(0.4441,0,0,0.36987,-2.13927,91.2665)">
								<path class="st1" d="M-429,392.4c-0.9,1.3-1.3,3.1-1.4,4.9c-0.1,2,0.2,4,0.6,5.6c1,3.5,3.9,5.8,7.1,6.5
									c3.1,0.7,6.4-0.3,8.3-3c1.5-2,2.3-4.5,2.4-7c0.1-2.7-0.5-5.4-1.8-7.5c-0.2-0.3-0.5-0.7-0.8-0.9c-0.5-0.4-1-0.7-1.5-1.1
									c-2-1.7-4.7-2.4-7.2-2c-1.8,0.3-3.5,1.1-4.7,2.6C-428.4,391-428.8,391.6-429,392.4z M-428.5,394c-0.4,1-0.5,2.2-0.6,3.4
									c0,1.7,0.3,3.4,0.8,4.8c0.9,2.7,3.3,4.3,5.8,4.7c2.4,0.5,5.1-0.1,6.6-2.2c1.2-1.6,1.8-3.6,1.8-5.6c0.1-2.1-0.4-4.2-1.4-5.8
									c-0.1-0.2-0.3-0.3-0.4-0.4c-0.4-0.3-0.9-0.6-1.3-0.9c-1.6-1.3-3.7-1.8-5.7-1.6c-1.4,0.2-2.6,0.8-3.7,1.8
									c-0.4,0.4-0.9,0.8-1.2,1.4C-428,393.9-428.2,394.1-428.5,394z"/>
							</g>
							<g transform="matrix(0.4441,0,0,0.39775,0,0)">
								<path class="st1" d="M-402.3,595.1c0,0.1,0.1,0.1,0.2,0.1s0.3,0,0.3-0.1h0.1c0.2,0,0.3-0.2,0.3-0.4s-0.1-0.4-0.3-0.4l0,0
									l0,0l0,0h-0.6h-1.3l-3.8,0.1l-7.5-0.4c-1.1,0-2.3,0.1-3.4,0.1c-0.5,0-1,0-1.4-0.1c-0.1,0-0.3,0.1-0.3,0.3s0.1,0.3,0.2,0.3
									c0.5,0.1,1,0.1,1.5,0.1c1.1,0,2.3,0,3.4,0l7.5,0.4l3.9-0.1L-402.3,595.1z"/>
							</g>
							<g transform="matrix(0.4441,0,0,0.39775,0,0)">
								<path class="st1" d="M-402,606.6c0.1,0.1,0.2,0.1,0.3,0.1c0.2-0.1,0.3-0.2,0.3-0.3c0.1-0.1,0.1-0.5-0.3-0.6
									c-0.3-0.1-1.6-0.1-1.8-0.1c-0.9,0-1.8,0-2.6,0c-0.6,0-1.2,0-1.8,0.1c-0.6,0.1-1.3,0.1-1.9,0c-1.5-0.1-3-0.3-4.5-0.3l-6,0.2
									c-0.2,0-0.3,0.2-0.3,0.3c0,0.2,0.1,0.3,0.3,0.3l6-0.1c1.5,0,3,0.2,4.5,0.3c0.7,0,1.3,0,2,0c0.6-0.1,1.2-0.1,1.7-0.1
									c0.9,0,1.8,0,2.6,0.1C-403.4,606.5-402.4,606.5-402,606.6z"/>
							</g>
							<g transform="matrix(0.4441,0,0,0.39775,0,0)">
								<path class="st1" d="M-433.2,594.1c-0.2-0.2-0.4-0.3-0.7-0.3c-0.4-0.1-0.9,0-1.3-0.1l-3.9-0.3c-0.2,0-0.3,0.1-0.3,0.3
									s0.1,0.4,0.3,0.4l4,0.4c0.3,0,0.7,0,1,0c0.2,0,0.3,0.1,0.5,0.2c0.2,0.1,0.4,0.1,0.5,0C-433,594.5-433,594.2-433.2,594.1z"/>
							</g>
							<g transform="matrix(0.4441,0,0,0.39775,0,0)">
								<path class="st1" d="M-433.5,606.1L-433.5,606.1C-433.4,606.1-433.4,606.1-433.5,606.1L-433.5,606.1c0.4,0,0.4-0.2,0.4-0.3
									c0.1-0.2,0-0.5-0.4-0.5c0,0-0.1,0-0.3,0c-0.6,0-2.2,0.1-2.6,0c-0.2,0-0.4,0.1-0.4,0.3s0.1,0.4,0.3,0.5
									c0.5,0.1,2.1,0.1,2.8,0.1L-433.5,606.1z"/>
							</g>
							<g transform="matrix(0.4441,0,0,0.39775,0,0)">
								<path class="st1" d="M-409.5,586.7L-409.5,586.7v-0.2c-0.1-0.4-0.4-0.3-0.5-0.3c0,0-0.2,0.1-0.3,0.4c0,0.1,0,0.4,0,0.6v1.2
									l0.1,3.6c0,0.2,0.2,0.4,0.4,0.3c0.2,0,0.3-0.2,0.3-0.4v-3.6v-1.1V586.7z M-410.2,586.6c0,0.1,0,0.2,0.1,0.2
									C-410.2,586.8-410.2,586.7-410.2,586.6z"/>
							</g>
							<g transform="matrix(0.4441,0,0,0.39775,0,0)">
								<path class="st1" d="M-404.5,587c0.2,0.1,0.4-0.1,0.4-0.2c0-0.1,0-0.5-0.4-0.6c-0.2,0-0.6,0-0.6,0h-1h-3.7
									c-0.2,0-0.3,0.2-0.3,0.4s0.2,0.4,0.3,0.4h3.7h1.1C-405,587-404.6,587-404.5,587z"/>
							</g>
							<g transform="matrix(0.4441,0,0,0.39775,0,0)">
								<path class="st1" d="M-404.8,586.7v0.3l0.1,1.8v3.3c0,0.2,0.1,0.4,0.3,0.4c0.2,0,0.4-0.1,0.4-0.3c0.1-0.4,0.1-0.9,0.1-1.3
									c0-0.6,0-1.3,0-2l-0.2-1.9v-0.4c0-0.2-0.2-0.4-0.4-0.3S-404.8,586.5-404.8,586.7z"/>
							</g>
							<g transform="matrix(0.4441,0,0,0.39775,0,0)">
								<path class="st1" d="M-404.5,592.6L-404.5,592.6c0.4,0,0.5-0.2,0.4-0.4c0-0.2,0-0.3-0.3-0.4l0,0c-0.1,0-0.5,0-0.6,0h-1.1
									c-0.8,0-1.6-0.2-2.5-0.2c-0.4,0-0.7,0-1.1,0c-0.2,0-0.3,0.2-0.3,0.4s0.2,0.3,0.3,0.3l3.5,0.3h1.1L-404.5,592.6z"/>
							</g>
							<g transform="matrix(0.4441,0,0,0.39775,0,0)">
								<path class="st1" d="M-411.5,587.7L-411.5,587.7c0.2,0.1,0.5,0,0.5-0.2c0.1-0.2,0-0.4-0.2-0.5c-0.1,0-0.3-0.1-0.5-0.1
									l-1.3-0.1l-3.8-0.3c-0.2,0-0.3,0.1-0.4,0.3c0,0.2,0.1,0.4,0.3,0.4l3.9,0.3l1.3,0.1C-411.7,587.6-411.6,587.7-411.5,587.7z"
									/>
							</g>
							<g transform="matrix(0.4441,0,0,0.39775,0,0)">
								<path class="st1" d="M-411.3,589.7c1.9,0.6,2.4,0.3,1.8-0.1c0.7-0.1,0.4-0.4-1.8-0.7c0,0,0,0-0.1,0c-0.2,0-0.6-0.1-0.6-0.1
									l-1.4-0.1h-2.7l-1.1-0.1c-0.2,0-0.3,0.2-0.3,0.4s0.2,0.4,0.4,0.4l1,0.2l2.7,0.2h1.4C-411.9,589.7-411.4,589.7-411.3,589.7
									L-411.3,589.7z"/>
							</g>
							<g transform="matrix(0.4441,0,0,0.39775,0,0)">
								<path class="st1" d="M-411.6,587.6L-411.6,587.6L-411.6,587.6L-411.6,587.6L-411.6,587.6L-411.6,587.6
									C-411.8,587.5-411.7,587.5-411.6,587.6C-411.6,587.6-411.5,587.6-411.6,587.6c0,0.2-0.1,0.4-0.1,0.5v1
									c0,0.3,0.2,0.6,0.5,0.7c0.3,0,0.5-0.2,0.6-0.5v-1.1c0-0.1-0.1-0.4-0.1-0.6c0-0.1,0-0.1,0-0.1c-0.1-0.3-0.2-0.3-0.3-0.3
									c-0.1,0-0.3-0.1-0.4,0.1C-411.6,587.3-411.6,587.5-411.6,587.6z"/>
							</g>
							<g transform="matrix(0.4441,0,0,0.39775,0,0)">
								<path class="st1" d="M-417.4,587.1C-417.3,587.1-417.3,587.1-417.4,587.1c0,0.1,0,0.1,0.1,0.1L-417.4,587.1L-417.4,587.1
									L-417.4,587.1L-417.4,587.1L-417.4,587.1L-417.4,587.1L-417.4,587.1c0,0.1-0.1,0.2-0.1,0.2c-0.1,0.3-0.2,0.6-0.2,1
									c0,0.2,0.1,0.5,0.2,0.7c0.1,0.3,0.4,0.5,0.7,0.5c0.3-0.1,0.5-0.4,0.4-0.8l-0.2-1.2c0-0.1,0-0.4-0.1-0.5
									c-0.1-0.2-0.2-0.3-0.3-0.3c-0.2-0.1-0.4,0-0.5,0.2C-417.4,586.9-417.4,587-417.4,587.1z"/>
							</g>
							<g transform="matrix(0.4441,0,0,0.39775,0,0)">
								<path class="st1" d="M-447.4,586.4C-447.4,586.3-447.4,586.3-447.4,586.4c0.1-0.2,0-0.3-0.1-0.4c-0.2-0.3-0.4-0.2-0.5-0.1
									c-0.1,0-0.2,0.4-0.2,0.5v0.4v1.1l0.2,3.6c0,0.3,0.2,0.5,0.5,0.5c0.2,0,0.4-0.2,0.4-0.5c0-0.7,0-1.5,0-2.2
									c0-0.5-0.1-1-0.1-1.5l-0.1-1L-447.4,586.4L-447.4,586.4z M-447.9,586.5c0.1,0,0.1,0.1,0.2,0
									C-447.8,586.6-447.8,586.5-447.9,586.5z M-447.4,586.3L-447.4,586.3L-447.4,586.3c0,0.1,0,0.1-0.1,0.1l0,0L-447.4,586.3
									L-447.4,586.3L-447.4,586.3z"/>
							</g>
							<g transform="matrix(0.4441,0,0,0.39775,0,0)">
								<path class="st1" d="M-447.7,585.7c-0.1,0.2,0.2,0.7,0.2,0.7l0,0l0,0h-0.1h0.1l0.4,0.1c0.1,0,0.2,0.1,0.4,0.1
									c0.3,0,0.5,0,0.8,0h2.7c0,0,0.2,0,0.3,0l0,0v1c0,0.5,0,1,0.1,1.5c0.1,0.7,0.2,1.4,0.2,2.1c0,0.3,0.2,0.5,0.4,0.5
									c0.2,0,0.5-0.2,0.5-0.4c0.1-0.6,0.2-1.2,0.2-1.9c0-0.6-0.1-1.2-0.2-1.8l-0.1-0.9v-0.1v0.1l0,0c-0.2,0-0.1-0.6-0.1-0.7
									c0,0-0.2-0.2-0.5-0.3c-0.2-0.1-0.6-0.2-0.6-0.2c-0.5-0.1-0.9-0.2-1.4-0.2s-1,0-1.4,0l-0.9,0.1h-0.5h-0.1l0,0
									C-447.7,585.5-447.7,585.6-447.7,585.7z M-442.7,586.2L-442.7,586.2L-442.7,586.2z M-447.5,586.3L-447.5,586.3
									C-447.6,586.3-447.6,586.3-447.5,586.3L-447.5,586.3L-447.5,586.3L-447.5,586.3z"/>
							</g>
							<g transform="matrix(0.4441,0,0,0.39775,0,0)">
								<path class="st1" d="M-447.1,591.1L-447.1,591.1L-447.1,591.1L-447.1,591.1c-0.1,0-0.1,0-0.1,0l0,0c-0.1,0-0.2,0-0.3,0.1
									c-0.2,0.1-0.3,0.6,0.2,0.7c0.1,0,0.5,0.1,0.5,0.1h1.2c0.8,0,1.6,0.1,2.4,0c0.4,0,0.7,0,1.1-0.1c0.2,0,0.4-0.3,0.4-0.5
									c0-0.3-0.3-0.5-0.5-0.4c-0.3,0-0.6,0-1,0c-0.8,0-1.6-0.1-2.4-0.1l-1.3,0.2C-446.9,591-447,591.1-447.1,591.1z M-446.9,591.6
									L-446.9,591.6L-446.9,591.6L-446.9,591.6L-446.9,591.6L-446.9,591.6z M-447.2,591.1L-447.2,591.1
									C-447.1,591.1-447.1,591.1-447.2,591.1L-447.2,591.1L-447.2,591.1h0.1C-447.1,591-447.2,590.9-447.2,591.1z"/>
							</g>
							<g transform="matrix(0.4441,0,0,0.39775,0,0)">
								<path class="st1" d="M-417.2,599.5L-417.2,599.5c0-0.1,0-0.1,0.1-0.1C-417.1,599.5-417.1,599.5-417.2,599.5
									c0,0.1,0.1,0,0.1-0.1l0,0l0,0l0,0c0.2,0,0.6,0.2,0.9,0.2c0.4,0.1,1.5,0.2,2.1,0.6c0.3,0.2,0.5,0.4,0.4,0.8
									c0,0.1-0.1,0.1-0.3,0.2c-0.2,0.1-0.4,0.2-0.6,0.2c-0.3,0.1-0.7,0.2-1.1,0.2c-0.3,0-0.7,0.1-1.1,0.1c-0.6,0-1.2,0.1-1.6,0.1
									c-0.2,0-0.4,0.2-0.4,0.4s0.2,0.4,0.4,0.4c0.6,0.1,1.3,0.2,2,0.2s1.5-0.2,2.1-0.4c0.3-0.1,0.7-0.2,1-0.5
									c0.2-0.2,0.3-0.4,0.4-0.6c0.2-0.8,0-1.3-0.4-1.7c-0.7-0.7-2.3-0.9-2.9-0.9c-0.4,0-0.9-0.1-1.1-0.1c-0.4,0-0.4,0.3-0.5,0.4
									c0,0.2,0.1,0.4,0.3,0.4C-417.3,599.5-417.2,599.5-417.2,599.5z"/>
							</g>
							<g transform="matrix(0.4441,0,0,0.39775,0,0)">
								<path class="st1" d="M-437.9,583.2c0.1-0.3,0.3-0.8,0.3-0.8c0.1-0.2,0.1-0.5,0.2-0.8c0-0.1,0-0.2,0.1-0.2
									c0.9,0,1.8,0.1,2.7,0.1c0.6,0,1.2,0,1.8,0l1.1,0.1c0.1,0,0.3-0.2,0.4-0.3c0,0-0.1,0-0.1,0.1c0,0.2,0.1,0.5,0.2,0.8
									c0.1,0.5,0.3,0.9,0.4,1.2s0.4,0.5,0.7,0.3c0.3-0.1,0.4-0.5,0.3-0.8s-0.1-0.7-0.2-1.1c-0.1-0.2-0.1-0.4-0.2-0.5
									c-0.1-0.3-0.2-0.5-0.4-0.7c0,0,0-0.1-0.1-0.1s-0.1,0-0.2,0c-0.1-0.1-0.2-0.1-0.4-0.2c-0.2,0-0.4,0-0.6,0l-1.2-0.1l-4.5,0.1
									c-0.3,0-0.5,0.2-0.7,0.4c-0.2,0.3-0.2,0.9-0.3,1.2c0,0-0.2,0.7-0.3,0.9c0,0.1,0,0.1,0,0.1c-0.1,0.4,0.2,0.5,0.3,0.5
									c0.1,0,0.2,0,0.3-0.1C-438,583.5-437.9,583.3-437.9,583.2z M-431.2,581.4C-431.1,581.4-431.1,581.5-431.2,581.4
									C-431.1,581.4-431.1,581.4-431.2,581.4z"/>
							</g>
						</g>
					</g>
				</g>
			</g>
		</g>
		<g transform="matrix(0.4441,0,0,0.39775,0,0)">
			<path class="st1" d="M100.9,138.8c0,0.2,0.1,0.3,0.2,0.4c0.2,0.1,0.4,0,0.5-0.2c0.3-0.3,0.1-0.6-0.3-1c-0.4-0.3-1.1-0.1-1.4,0.2
				c-0.3,0.4-0.5,0.7-0.7,1.1c-0.2,0.6-0.3,1.1-0.2,1.6c0.2,0.6,0.6,1.2,1.5,1.4c0.3,0.1,0.6-0.1,0.7-0.5s-0.1-0.7-0.4-0.8
				c-0.4-0.1-0.6-0.3-0.5-0.6c0-0.4,0.2-0.9,0.6-1.3l-0.1,0.1c0-0.1,0.3-0.1,0.3,0v-0.1C100.9,138.9,100.9,138.9,100.9,138.8z"/>
		</g>
		<g transform="matrix(0.4441,0,0,0.39775,0,0)">
			<path class="st1" d="M100.4,143.8L100.4,143.8c0.3-0.1,0.4-0.3,0.3-0.5c0-0.1,0-0.5,0-0.6s-0.1-0.2-0.2-0.3s-0.3-0.1-0.4,0
				s-0.2,0.2-0.3,0.5c-0.1,0.4-0.2,1.1-0.2,1.3c-0.1,0.6-0.2,1.2-0.3,1.9c-0.2,1.4-0.4,2.9-0.6,4.3c-0.3,2.1-0.7,4.1-1.1,6.2
				c-0.4,2.1-0.8,4.1-1.3,6.2c-0.2,0.8-0.4,2-0.7,3.1c-0.2,0.6-0.5,1.2-0.8,1.6c-0.6,0.6-1.4,1.1-2.1,1.1c-0.7,0.1-1.3-0.3-1.8-1
				c-0.5-0.8-0.8-2.1-1-3.3c-0.2-2-0.2-4.1,0-5.6l0.4-3.3c0-0.4-0.2-0.7-0.5-0.8c-0.3,0-0.6,0.2-0.7,0.6l-0.5,3.2
				c-0.2,1.6-0.3,3.9,0,6c0.2,1.5,0.6,2.9,1.2,3.9c0.8,1.3,1.9,1.7,3,1.6c1-0.1,2-0.7,2.8-1.5c0.5-0.5,0.8-1.3,1.1-2.1
				c0.3-1.1,0.5-2.3,0.7-3.2c0.4-2.1,0.8-4.1,1.2-6.2c0.4-2.1,0.7-4.2,1-6.3c0.2-1.4,0.3-2.9,0.5-4.3c0.1-0.6,0.2-1.2,0.3-1.8
				C100.3,144.4,100.3,144.1,100.4,143.8z M100,143.2c0-0.1,0-0.2-0.1-0.2S99.9,143.1,100,143.2z"/>
		</g>
		<g transform="matrix(0.4441,0,0,0.39775,0,0)">
			<path class="st1" d="M90.2,134.8c-0.3-0.7,0.4-1.9,1.3-2.7c0.8-0.7,1.8-1.3,2.6-0.8c0.9,0.6,1.7,1.5,2.5,2.6
				c0.5,0.8,0.9,1.7,1.3,2.5c0.4,0.9,0.8,1.8,1,2.7c0.1,0.3,0.4,0.5,0.6,0.4c0.3-0.1,0.5-0.4,0.4-0.7c-0.1-0.8-0.4-1.7-0.7-2.5
				c-0.3-0.8-0.7-1.6-1.1-2.3c-0.9-1.6-2.1-2.9-3.5-3.7c-1.1-0.6-2.5,0-3.6,1.1c-1.1,1.2-1.8,2.8-1.4,3.8c0.1,0.2,0.3,0.3,0.5,0.2
				C90.2,135.2,90.3,135,90.2,134.8z"/>
		</g>
	</g>
	<g transform="matrix(1,0,0,1,234.464,376.521)" class="st3">
		<g class="st4">
			<g transform="matrix(0.4441,0,0,0.39775,122.255,342.337)">
				<g id="Gray-Short.svg4" transform="matrix(0.681216,0,0,0.681216,1361.69,1133.76)">
					<g transform="matrix(1,0,0,1,-236.5,-283.5)">
						<g id="head-mono-Gray-Short4">
							<path class="st0" d="M-2844.5-3945.9c0,0-4.7,20.6,9.3,14.6c0,0,7.8,20.2,14.4,18.2c0,0,5.2,4.7,9.5,5.1
								c0,0,20.7,21.2,38-11.6c6.9-13,2.6-41.6-0.4-52.2c-1.3-4.6-1.5-9.4-1.7-10.7c0,0,8.9-6.2,2.4-9.2c0,0,4.7-7.2,3.8-7.9
								c-0.9-0.6-31-15.3-45.9-12.1c-15,3.3-22.1,5.3-27,12.6s-5,3.3-5.9,10.4C-2849-3981.6-2851.1-3950.1-2844.5-3945.9z"/>
							<path id="_xD83D__xDD8D_-Ink11" class="st1" d="M-2794.5-3900.5c-6.3,0.7-13.7-0.9-17.9-6.6c-0.1-0.2-0.2-0.4-0.2-0.6
								c0-0.2,0.1-0.4,0.2-0.6c0.1-0.2,0.3-0.3,0.5-0.3s0.3,0,0.5,0.1l0.4,0.2c2.9,1.8,5.8,3.3,9.1,3.9c3.3,0.7,6.7,0.6,10-0.3
								c6-1.5,10.9-5.4,14.5-10.6c4-5.8,6.4-13.1,7-20.4c0.7-8.8-1-17.6-2.8-26.2c-1.9-9-3.9-18-6.3-26.8c-0.1-0.3-0.1-0.5-0.1-0.7
								c-0.7-0.3-1.4-0.2-2.2,0.1c-1.4,0.5-2.7,1.7-3.8,2.6c-0.4,0.3-0.8,0.7-1.1,0.9c-1.4,1.1-2.9,1.8-4.6,2
								c-1.8,0.1-3.5-0.5-5.1-1.3c-0.8-0.4-1.6-0.8-2.4-1.2c-2.3-1.2-4.6-2.3-7-3c-3.3-1-6.7-1.5-10.2-1.5c-6.1,0.1-12.3,1.8-16,7.6
								c-1.5,2.3-2.5,5-1.7,7.9c0.4,1.6,1.2,3,2.1,4.3l0.3,0.4c0.5,0.7,0.9,1.4,1,2.2c0.1,0.6,0,1.3-0.4,2.1
								c-0.3,0.5-0.6,0.9-0.9,1.3c-0.2,0.3-0.5,0.6-0.7,0.9c-0.4,0.7-0.8,1.4-1.1,2.1c-0.6,1.4-0.8,3-0.9,4.5
								c-0.1,1.9,0.2,3.7,0.4,5.6c0.2,1.3,0.3,2.6,0.4,3.9c0,0.2-0.1,0.4-0.1,0.5c-0.1,0.2-0.3,0.3-0.4,0.3c-0.1,0-0.1,0-0.2,0
								c0,0.1,0.1,0.3,0.1,0.4c-0.1-0.2-0.2-0.3-0.4-0.5l0,0c-0.1-0.1-0.2-0.2-0.3-0.4c-0.2-0.2-0.4-0.4-0.6-0.5
								c-1-0.9-2.3-1.4-3.5-1.4s-2.4,0.4-3.3,1.4c-1.8,1.9-2.3,5-2.4,7.6c0,2.7,0.5,5.9,2.6,7.6c0.8,0.7,1.9,1.1,2.9,1.1
								c0.9,0,1.7-0.3,2.5-0.7c0.2-0.1,0.5-0.2,0.7-0.3c0.3-0.1,0.5-0.1,0.8,0s0.5,0.3,0.6,0.5c0.2,0.2,0.3,0.5,0.3,0.8
								s0,0.6-0.1,0.9c0,0.1-0.1,0.1-0.1,0.2l0.5,0.8c1.8,3.2,3.6,6.4,5.9,9.2c1.4,1.6,2.8,3.1,4.4,4.4l0.2,0.2
								c0.1,0.1,0.3,0.2,0.4,0.4c0.5,0.4,1,1,1.5,1c0.2,0,0.3,0,0.4,0c0.3,0,0.5-0.1,0.8,0.1c0.2,0.1,0.4,0.3,0.6,0.6
								c0.1,0.2,0.2,0.5,0.2,0.8s-0.1,0.6-0.2,0.8c-0.3,0.5-0.6,0.8-0.9,1c-0.4,0.2-0.8,0.2-1.3,0.1c-1.1-0.2-2.3-1.3-3.1-1.9
								l-0.2-0.1c-1.7-1.5-3.4-3.1-4.8-4.9c-2.5-3.1-4.7-6.8-5.8-10.8c-0.8,0.6-1.8,0.9-2.8,0.9c-1.5,0.1-3.1-0.4-4.3-1
								c-2.6-1.4-4.2-4-4.9-6.9c-0.9-3.5-0.6-7.4,0.5-10.5c0-0.1,0.1-0.2,0.1-0.3c-3.3-9.4-4.4-19.9-4.1-29.9
								c0.1-4.7,0.4-9.6,1.4-14.2c0.4-2.1,1.2-4,2.5-5.6c0.7-0.9,1.6-1.6,2.4-2.4c0.8-0.6,1.5-1.2,2.1-2l0.3-0.4
								c0.1-0.1,0.1-0.2,0.2-0.2c1.1-1.4,2.2-2.7,3.5-3.8c1.5-1.3,3.2-2.3,5-3.1c3.8-1.8,7.9-2.9,12-3.7c8.8-1.8,17.8-1.9,26.5,0.6
								c4,1.2,8,2.8,11.9,4.4c0.4,0.1,0.7,0.3,1.1,0.4c3,1.2,6.1,2.5,9.1,3.7c1.4,0.6,2.8,1.2,4.2,1.7c0.3,0.1,0.6,0.4,0.8,0.7
								s0.2,0.7,0.1,1.1c-0.9,2.5-2,4.8-3.3,6.9c0.5,0.4,0.9,0.8,1.2,1.4c0.4,0.7,0.6,1.5,0.6,2.4c0.1,2.9-2.3,4.9-4.3,6.3
								c-0.2,0.1-0.4,0.2-0.5,0.2c1.9,8.1,3.7,16.3,5.3,24.5l0.1,0.6c1.6,8.6,2.6,17.4,1.1,26.1c-1.3,7.5-4.3,14.8-9,20.4
								C-2781.6-3904.7-2787.8-3901.3-2794.5-3900.5z M-2835.8-3950c-0.8-2.9-1.3-6.1-0.9-9c0.2-1.9,0.7-3.6,1.5-5.3
								c0.5-0.9,1-1.8,1.7-2.6l0.2-0.3c0.1-0.1,0.2-0.3,0.2-0.4c0-0.1,0-0.2-0.1-0.3c-0.1-0.3-0.3-0.5-0.5-0.8
								c-0.1-0.2-0.2-0.3-0.3-0.5c-1.8-2.7-3.1-6-2.7-9.4c0.4-3.4,2.4-6.5,4.5-8.9c4.6-5.2,11.8-6.4,18.1-6.1
								c3.7,0.2,7.3,0.9,10.8,2.1c1.7,0.6,3.4,1.4,5,2.2l0.4,0.2c0.2,0.1,0.4,0.2,0.6,0.3c1.3,0.7,2.6,1.4,3.9,1.8
								c2.7,0.7,4.5-0.8,6.5-2.4c0.7-0.5,1.3-1.1,2-1.6l0.1-0.1c1.3-0.8,2.8-1.4,4.3-1.4c1.3,0,2.5,0.5,3.5,1.6
								c0.2,0.2,0.3,0.5,0.4,0.7c0.1,0.2,0.2,0.4,0.3,0.6c0.4,1.5,0.7,3,1.1,4.6l0.3-0.2c0.9-0.6,1.8-1.4,2.2-2.4
								c0.2-0.4,0.1-1.1-0.1-1.6c-0.1-0.2-0.2-0.3-0.3-0.4c-0.1-0.1-0.2-0.1-0.3-0.1c-0.3,0-0.6,0-0.9-0.1c-0.3-0.1-0.5-0.4-0.7-0.6
								c-0.2-0.3-0.2-0.6-0.2-1c0-0.3,0.1-0.6,0.4-0.9c1.5-1.9,2.7-4,3.7-6.3l-6.3-2.6c-2.2-0.9-4.5-1.8-6.7-2.8l-1.2-0.5
								c-4.1-1.7-8.2-3.3-12.4-4.4c-8.4-2.1-17.2-1.6-25.6,0.4l-0.5,0.1c-3.5,0.9-7.1,1.9-10.3,3.7c-1.6,0.9-3.1,2-4.4,3.3
								c-0.6,0.6-1.1,1.3-1.6,1.9c-0.7,0.9-1.5,1.8-2.3,2.6l-0.8,0.7c-1.2,1.1-2.3,2.1-2.9,3.8c-0.7,1.7-1,3.7-1.3,5.5
								c-0.7,4.7-1,9.5-0.9,14.3c0,8,1.1,15.9,2.5,23.7c1.1-1.8,2.7-3.1,4.7-3.4c1.3-0.2,2.6,0.1,3.7,0.7
								C-2836.9-3951.1-2836.3-3950.6-2835.8-3950z M-2837.9-3940.5c-1.5-0.6-3-0.8-4.5-0.5c-0.2,0-0.3,0-0.4-0.1
								c-0.1-0.1-0.2-0.2-0.3-0.4s-0.1-0.4,0-0.5c0-0.1,0.1-0.3,0.3-0.4c1.7-0.9,3.5-1.3,5.4-1h0.2c0.9,0.2,2.3,0.5,3.3,1.1
								c0.8,0.5,1.3,1.2,1.5,2.1c0.1,0.5,0,1-0.3,1.3c-0.2,0.3-0.6,0.6-1.1,0.6c-0.8,0-1.3-0.4-1.9-0.9c-0.1-0.1-0.1-0.1-0.2-0.2
								C-2836.6-3939.8-2837.3-3940.2-2837.9-3940.5z"/>
						</g>
					</g>
				</g>
			</g>
			<g id="Smile-Teeth-Gap.svg3" transform="matrix(0.291546,0,0,0.261117,739.948,804.811)">
				<g transform="matrix(1,0,0,1,-144.5,-146.5)">
					<g id="face-Smile-Teeth-Gap3">
						<path id="_xD83D__xDD8D_-Ink12" class="st1" d="M-3044.1-4287.5c1.6,1.1,4.2,3.7,2.4,6.5c-2.1,2.4-5.1-0.4-6.6-1.6
							c-1.4-1-2.9,1.5-1.6,2.7c10.7,8.8,15-7.3,6.7-8.9C-3044.2-4288.9-3044.6-4287.8-3044.1-4287.5z M-3059-4308.7l0.4-0.1h0.2
							c1.2-0.2,2.7-0.4,3.5,0.7c0.5,0.6,0.6,1.7,0,2.3c-1.1,1-2.4,0.6-3.7,0.7c-1.1,0.1-2.2,0.3-3.2,0.6c-2.3,0.7-4.3,2.1-6.3,3.6
							c-0.3,0.2-0.5-0.2-0.4-0.5c1.2-2.5,3.4-4.6,5.6-5.9C-3061.6-4307.9-3060.3-4308.5-3059-4308.7z M-3048.2-4273.9
							c3.6,0.3,11.3-1.6,14.6,1.2c12.1,16.9-36,21.3-30.8,2.6C-3061.1-4276.1-3053.5-4273.7-3048.2-4273.9z M-3048.8-4263.6
							c-0.9-0.1-2,0.7-2.2,1.3c-0.3,0.6-0.2,1.9-0.2,2.1c1.5,0.2,3.1,0.2,4.7,0.1C-3046.9-4261.6-3046.9-4263.4-3048.8-4263.6z
							 M-3041.6-4261.1c-0.2-1.8-1.4-2.3-2.4-2s-1.6,1.5-1.5,2.7c0,0.1,0,0.1-0.1,0.2C-3044.2-4260.4-3042.9-4260.7-3041.6-4261.1z
							 M-3052.6-4263.3c-0.6-0.9-1.9-1.4-2.7-1.2c-1.4,0.3-1.6,2.3-1.6,2.7c1.3,0.5,2.7,0.9,4,1.2c0.3,0.1,0.5,0.1,0.8,0.2v-0.2
							C-3052.1-4261.2-3052.1-4262.4-3052.6-4263.3z M-3036.8-4263.5c-1.4-2.5-4.5-0.7-4.3,2c0.3-0.1,0.5-0.2,0.8-0.3
							C-3039.1-4262.2-3037.9-4262.7-3036.8-4263.5z M-3048.1-4272c-1.9-0.2-3.5-0.1-4.8,0.1v0.5c-0.1,1.6-0.3,3.2,0.4,3.9
							c0.6,0.5,2.7,0.5,4.1,0.1C-3048-4267.5-3047.6-4270.9-3048.1-4272z M-3045.1-4272.2c-0.3,1.6-0.5,3.5,0.2,4.1s2.8,0.5,3.3,0.1
							s0.5-2,0.3-3.8C-3042.4-4272-3044.3-4272.2-3045.1-4272.2z M-3053.7-4271.8h-0.6h-0.4c-0.9,0-1.9,0.1-2.8,0.3
							c-1.8,4.4,4.8,5.2,3.8-0.1V-4271.8z M-3040.5-4271.7v0.2c-0.1,1.2,0,2.9,0.6,3.3c0.9,0.6,2.6,0.5,3.5-2.5
							C-3036.7-4271.5-3039.9-4271.6-3040.5-4271.7z M-3058.2-4298c0.4,0,0.8,0.1,1.1,0.4s0.6,0.7,0.9,1.1c0.5,0.9,0.8,2.2,0.8,3.6
							s-0.3,2.7-0.8,3.6c-0.2,0.5-0.5,0.9-0.9,1.1c-0.3,0.3-0.7,0.4-1.1,0.4c-0.4,0-0.8-0.1-1.1-0.4s-0.6-0.7-0.9-1.1
							c-0.5-0.9-0.8-2.2-0.8-3.6s0.3-2.7,0.8-3.6c0.2-0.5,0.5-0.9,0.9-1.1C-3059-4297.9-3058.6-4298-3058.2-4298z M-3033.8-4298
							c0.4,0,0.8,0.1,1.1,0.4s0.6,0.7,0.9,1.1c0.5,0.9,0.8,2.2,0.8,3.6s-0.3,2.7-0.8,3.6c-0.2,0.5-0.5,0.9-0.9,1.1
							c-0.3,0.3-0.7,0.4-1.1,0.4c-0.4,0-0.8-0.1-1.1-0.4s-0.6-0.7-0.9-1.1c-0.5-0.9-0.8-2.2-0.8-3.6s0.3-2.7,0.8-3.6
							c0.2-0.5,0.5-0.9,0.9-1.1C-3034.5-4297.9-3034.1-4298-3033.8-4298z M-3037.1-4309.9l0.3,0.1h0.2c3.4,0.8,7.7,2.4,9.2,6.1
							c0.1,0.5,0,0.6-0.1,0.7l0,0c0,0.1-0.1,0.1-0.3,0.2c-0.1,0-0.1,0-0.2,0c-0.7-0.2-1.3-0.5-1.9-0.8l-0.6-0.3
							c-0.7-0.4-1.4-0.8-2.2-1c-1.6-0.6-3.3-1-5-1.2c-0.4,0-0.7-0.2-1-0.4c-0.3-0.2-0.5-0.5-0.6-1s-0.1-0.9,0.2-1.4
							c0.2-0.4,0.5-0.6,0.8-0.8C-3037.8-4309.9-3037.4-4310-3037.1-4309.9z"/>
					</g>
				</g>
			</g>
		</g>
	</g>
</g>
<g class="st3">
	<g transform="matrix(0.4441,0,0,0.39775,-345.369,-236.477)" class="st4">
		<g id="Gray-Short.svg" transform="matrix(0.681216,0,0,0.681216,1361.69,1133.76)">
			<g transform="matrix(1,0,0,1,-236.5,-283.5)">
				<g id="head-mono-Gray-Short">
					<path id="_xD83D__xDD8D_-Ink" class="st5" d="M-473.8-374.7c-6.3,0.7-13.7-0.9-17.9-6.6c-0.1-0.2-0.2-0.4-0.2-0.5
						c0-0.2,0.1-0.4,0.2-0.6s0.3-0.3,0.5-0.3s0.3,0,0.5,0.1l0.4,0.2c2.9,1.8,5.8,3.3,9.1,3.9c3.3,0.7,6.7,0.6,10-0.2
						c6-1.5,10.9-5.4,14.5-10.6c4-5.8,6.4-13,7-20.4c0.7-8.9-1-17.6-2.8-26.2c-1.9-9-3.9-18-6.3-26.8c-0.1-0.3-0.1-0.5-0.1-0.8
						c-0.7-0.3-1.5-0.2-2.2,0.1c-1.4,0.5-2.7,1.7-3.8,2.6c-0.4,0.3-0.8,0.7-1.1,0.9c-1.4,1.1-2.9,1.8-4.6,2
						c-1.8,0.1-3.5-0.5-5.1-1.3c-0.8-0.4-1.6-0.8-2.4-1.2c-2.3-1.1-4.5-2.3-7-3c-3.3-1-6.7-1.5-10.2-1.5c-6.1,0.1-12.3,1.8-16,7.6
						c-1.5,2.3-2.5,5-1.7,7.9c0.4,1.6,1.2,3,2.1,4.3l0.3,0.5c0.5,0.7,0.9,1.4,1,2.2c0.1,0.6,0,1.3-0.4,2.1c-0.3,0.5-0.6,0.9-0.9,1.3
						c-0.2,0.3-0.5,0.6-0.7,0.9c-0.4,0.6-0.8,1.4-1.1,2.1c-0.6,1.4-0.8,3-0.8,4.5c-0.1,1.9,0.2,3.7,0.4,5.6c0.2,1.3,0.3,2.6,0.4,3.9
						c0,0.2,0,0.4-0.1,0.5c-0.1,0.2-0.3,0.2-0.5,0.3c0,0-0.1,0-0.2,0c0,0.1,0,0.2,0.1,0.4c-0.1-0.2-0.2-0.3-0.4-0.5l0,0
						c-0.1-0.1-0.2-0.2-0.3-0.4c-0.2-0.2-0.4-0.4-0.6-0.5c-1-0.9-2.3-1.4-3.5-1.4s-2.4,0.4-3.3,1.4c-1.8,1.9-2.3,5-2.4,7.6
						c0,2.7,0.5,5.9,2.6,7.6c0.8,0.7,1.9,1.1,2.9,1.1c0.9,0,1.7-0.3,2.5-0.6c0.2-0.1,0.5-0.2,0.8-0.3c0.3-0.1,0.5-0.1,0.8,0
						c0.2,0.1,0.5,0.3,0.6,0.5c0.2,0.2,0.3,0.5,0.3,0.8s0,0.6-0.1,0.9c0,0.1-0.1,0.1-0.1,0.2l0.5,0.9c1.8,3.2,3.6,6.4,5.9,9.2
						c1.4,1.6,2.8,3.1,4.4,4.4l0.2,0.2c0.1,0.1,0.3,0.2,0.5,0.4c0.5,0.4,1,1,1.5,1c0.1,0,0.3,0,0.4,0c0.3,0,0.5-0.1,0.8,0
						c0.2,0.1,0.4,0.2,0.6,0.6c0.1,0.2,0.2,0.5,0.2,0.8s-0.1,0.6-0.2,0.8c-0.3,0.5-0.6,0.8-0.9,1c-0.4,0.2-0.8,0.2-1.3,0.1
						c-1.1-0.2-2.3-1.3-3.1-1.9l-0.1-0.1c-1.7-1.5-3.4-3.1-4.8-4.9c-2.5-3.1-4.7-6.8-5.8-10.8c-0.8,0.6-1.8,0.9-2.8,0.9
						c-1.5,0.1-3.1-0.4-4.3-1c-2.6-1.4-4.2-4-4.9-6.9c-0.8-3.5-0.6-7.4,0.5-10.5c0-0.1,0.1-0.2,0.1-0.3c-3.3-9.4-4.3-19.9-4.1-29.9
						c0.1-4.7,0.4-9.6,1.4-14.2c0.5-2.1,1.2-4,2.5-5.6c0.7-0.9,1.6-1.6,2.4-2.4c0.8-0.6,1.5-1.2,2.1-2l0.3-0.4
						c0.1-0.1,0.1-0.2,0.2-0.2c1.1-1.4,2.2-2.7,3.5-3.8c1.5-1.3,3.2-2.3,5-3.1c3.8-1.8,7.9-2.9,12-3.7c8.8-1.8,17.8-1.9,26.5,0.6
						c4,1.2,8,2.8,11.9,4.4c0.4,0.1,0.7,0.3,1.1,0.5c3,1.2,6.1,2.5,9.1,3.7c1.4,0.6,2.8,1.2,4.2,1.7c0.3,0.1,0.6,0.4,0.8,0.7
						c0.2,0.3,0.2,0.7,0.1,1.1c-0.9,2.5-2,4.8-3.3,6.9c0.5,0.4,0.9,0.8,1.1,1.4c0.4,0.7,0.6,1.5,0.6,2.4c0,2.9-2.3,4.9-4.3,6.3
						c-0.2,0.1-0.4,0.2-0.5,0.2c1.9,8.1,3.7,16.3,5.3,24.5l0.1,0.6c1.6,8.6,2.6,17.4,1.1,26.1c-1.3,7.5-4.3,14.8-9,20.4
						C-460.9-378.9-467.1-375.4-473.8-374.7z M-515.2-424.2c-0.8-2.9-1.3-6.1-0.9-9c0.2-1.9,0.7-3.6,1.5-5.3c0.5-0.9,1-1.8,1.7-2.6
						l0.2-0.3c0.1-0.1,0.2-0.3,0.2-0.4s0-0.2,0-0.3c-0.1-0.3-0.3-0.5-0.5-0.8c-0.1-0.2-0.2-0.3-0.3-0.5c-1.8-2.7-3.2-6-2.7-9.4
						c0.4-3.4,2.4-6.5,4.5-8.9c4.6-5.2,11.8-6.4,18.1-6.1c3.7,0.2,7.3,0.9,10.8,2.1c1.7,0.6,3.4,1.4,5,2.2l0.4,0.2
						c0.2,0.1,0.4,0.2,0.6,0.3c1.3,0.7,2.6,1.4,4,1.8c2.7,0.7,4.5-0.8,6.5-2.4c0.7-0.5,1.3-1.1,2-1.6l0.1-0.1
						c1.3-0.8,2.8-1.4,4.3-1.4c1.3,0,2.5,0.5,3.5,1.6c0.2,0.2,0.3,0.5,0.4,0.7s0.2,0.4,0.3,0.6c0.4,1.5,0.7,3,1.1,4.5l0.3-0.2
						c0.9-0.6,1.8-1.4,2.2-2.4c0.2-0.4,0.1-1.1-0.1-1.6c-0.1-0.2-0.2-0.3-0.3-0.4c-0.1-0.1-0.2-0.1-0.4-0.1c-0.3,0-0.6,0-0.9-0.1
						s-0.5-0.4-0.7-0.6c-0.2-0.3-0.2-0.6-0.2-1c0-0.3,0.1-0.6,0.4-0.9c1.5-1.9,2.7-4,3.7-6.3l-6.3-2.6c-2.2-0.9-4.5-1.9-6.7-2.8
						l-1.2-0.5c-4.1-1.7-8.2-3.3-12.4-4.4c-8.4-2.1-17.2-1.6-25.6,0.4l-0.5,0.1c-3.5,0.9-7.1,1.9-10.3,3.7c-1.6,0.9-3.1,2-4.4,3.3
						c-0.6,0.6-1.1,1.3-1.6,1.9c-0.7,0.9-1.5,1.8-2.3,2.6l-0.8,0.7c-1.2,1.1-2.3,2.1-2.9,3.8c-0.7,1.7-1,3.7-1.3,5.5
						c-0.7,4.7-1,9.5-0.9,14.3c0,8,1.1,15.9,2.5,23.7c1.1-1.8,2.7-3.1,4.7-3.4c1.3-0.2,2.6,0.1,3.7,0.7
						C-516.2-425.3-515.7-424.8-515.2-424.2z M-517.2-414.7c-1.5-0.6-3-0.8-4.5-0.5c-0.2,0-0.3,0-0.4-0.1c-0.1-0.1-0.2-0.2-0.3-0.4
						c-0.1-0.2-0.1-0.4,0-0.5c0-0.1,0.1-0.3,0.3-0.4c1.7-0.9,3.5-1.3,5.4-1h0.2c0.9,0.2,2.3,0.5,3.3,1.1c0.8,0.5,1.3,1.2,1.5,2.1
						c0.1,0.5,0,1-0.3,1.3c-0.2,0.4-0.6,0.6-1.1,0.6c-0.8,0-1.3-0.4-1.9-0.9c-0.1-0.1-0.2-0.1-0.2-0.2
						C-516-414-516.6-414.4-517.2-414.7z"/>
				</g>
			</g>
		</g>
		<g id="Eyes-Closed.svg" transform="matrix(0.734096,0,0,0.734096,1398.38,1156.31)">
			<g transform="matrix(1,0,0,1,-144.5,-146.5)">
				<g id="face-Eyes-Closed">
					<path id="_xD83D__xDD8D_-Ink1" class="st5" d="M-558.4-520.4h0.2c1.2-0.3,2.4-0.8,3.5,0.1c1.1,0.8,1.2,2.3,0.4,3.3
						c-0.9,1.1-2,1-3.2,1h-0.1c-1,0-2,0-3-0.1c-0.9-0.1-1.9-0.2-2.8-0.4l-0.5-0.1c-0.5-0.1-1.1-0.3-1.4-0.9c-0.5-1,3.2-1.9,3.6-2
						C-560.6-519.9-559.5-520.1-558.4-520.4z M-556.3-533c-0.6,0.7-1.4,1.2-2.2,1.4c-2.2,0.7-5,0.3-6.8-0.4
						c-0.4-0.2-0.7-0.5-0.9-0.9s-0.2-0.8-0.1-1.2c0-0.1,0.1-0.2,0.1-0.4c0.1-0.3,0.4-0.6,0.7-0.7c0.3-0.2,0.7-0.2,1-0.1h0.1
						c1.1,0.4,3,1.1,4.5,0.9c0.9-0.1,1.7-0.4,2.2-1.4c0.2-0.5,0.2-1,0-1.4c-0.3-0.7-0.9-1.3-1.4-1.7c-0.7-0.6-1.5-0.8-2.2-1
						c-0.3-0.1-0.6-0.2-0.9-0.3c-0.1,0-0.2-0.1-0.2-0.2s-0.1-0.2-0.1-0.3s0-0.2,0-0.3s0.1-0.2,0.2-0.2c1.5-0.8,3.5-0.3,5,0.9
						c0.7,0.6,1.4,1.4,1.7,2.2s0.5,1.7,0.4,2.6C-555.4-534.4-555.8-533.6-556.3-533z M-581.3-550c0.4-0.2,0.8,0.8,0.9,1l0.2,0.6
						c0.3,0.9,0.6,1.8,1.3,2.5c0.5,0.6,1.4,1,2,0.4s0.3-1.3,0.4-2.1c0.2-1.4,1.8-2.8,2.8-1.3c2.3,3.2-1.2,7.8-4.5,7
						c-1.7-0.4-3-1.9-3.5-3.6v-0.1C-582.2-546.8-582.5-549.4-581.3-550z M-551.9-547.7L-551.9-547.7c-1.1-2.8,2.8-4,3.1-1.5v0.2
						c0.3,2.8-0.3,6.5-3.4,6.7c-3.4,0.3-4.8-3.9-4.5-7c0-0.5,0.7-0.6,0.8-0.1v0.1c0.5,1.6,1.1,4.5,3,4.5
						C-551.4-544.8-551.5-546.7-551.9-547.7z M-549.4-555.7c2-0.1,1.9,3.3,0,3.4c-6.5,0.2-13,0.4-19.5,0.4h-1.2
						c-6.1,0-12.2,0.1-18.3-0.4c-0.5,0-0.4-0.9,0-0.8c6.4-1,12.8-1.3,19.3-1.7C-562.5-555.2-556-555.4-549.4-555.7z"/>
				</g>
			</g>
		</g>
	</g>
</g>
</svg>
