<?xml version="1.0" encoding="utf-8"?>
<!-- Generator: Adobe Illustrator 24.2.0, SVG Export Plug-In . SVG Version: 6.00 Build 0)  -->
<svg version="1.1" id="图层_1" xmlns="http://www.w3.org/2000/svg" xmlns:xlink="http://www.w3.org/1999/xlink" x="0px" y="0px"
	 viewBox="0 0 818 733" style="enable-background:new 0 0 818 733;" xml:space="preserve">
<style type="text/css">
	.st0{display:none;}
	.st1{display:inline;fill-rule:evenodd;clip-rule:evenodd;fill:#FFFFFF;}
	.st2{display:inline;fill-rule:evenodd;clip-rule:evenodd;}
	.st3{display:inline;}
	.st4{fill-rule:evenodd;clip-rule:evenodd;}
</style>
<desc>Created with Sketch.</desc>
<g id="body_x2F_mono_x2F_Tee-1" class="st0">
	<path id="_xD83C__xDFA8_-Background" class="st1" d="M774.3,553c-4-22.8-7.7-45.6-11.1-68.5c-1.6-10.9-3.1-21.7-4.5-32.6
		c-1-7.6-2.5-16.4,2.7-22c7.3-8,13.9-14.8,14.8-26.1c0.8-10.7-2.8-22.4-5-32.8c-4.8-21.8-10.7-43.4-17.2-64.7
		c-6.6-21.7-13.9-43.2-21.3-64.6c-6.9-20-13.5-40.3-22.5-59.5c-17.1-36.5-46-63.5-81.6-81.6c-8.9-4.5-27-20.5-36.3-24.1
		c-8.5-3.3-8.5,6.3-16.9,2.7c-6.7-2.9-13-6.8-16.7-13.2c-4.1-7-14.3-16.9-15.9-25.1c-3.3-17.4,0.3-32.1-12.1-45.2
		c-11-11.6-25.8-19.5-41.1-23.8c-33.6-9.4-78.5-2.8-98.8,28.4c-9.7,14.9-13.1,33-26.2,45.1c-11.4,10.6-8.9,17.9-23.7,23.4
		c-0.8,0.3-23.5-4.6-24.4-4.2c-16.2-3.5-31.6,6.2-46.5,11.9c-22.1,8.4-43.2,19.3-63,32.3c-39.9,26.2-74.1,60.1-102.3,98.6
		c-28.4,38.7-50.5,82.2-66.2,127.6c-3.8,11-7.2,22.2-10.3,33.5c-1.7,6.3-3.5,12.8-1.4,19.3c1.7,5.3,5.4,9.2,9.8,12.4
		c6,4.3,17.9,7.1,17.7,15.7c-0.2,6.6-2.4,13.5-3.5,20c-1.3,7.7-2.4,15.5-3.4,23.3c-4.8,35.3-8.6,70.9-10.3,106.5
		c-1.6,35.1-3,70.9-0.6,106c0.2,2.3,0.9,4.4,2,6.2c-1,0.4-1.1,2.3,0.2,2.6c0.9,0.2,1.8,0.4,2.7,0.6c1.9,1.4,4.2,2.3,6.9,2.4
		c1.8,0.1,3.7,0.1,5.5,0.2c19.3,4,38.6,7.8,58.2,10.7c23.8,3.5,47.6,6.4,71.5,8.7c49.1,4.8,97.9,3.2,147.1,0.6
		c49.1-2.6,98.2-3.2,147.4-1.9c49.2,1.3,98.4,3.4,147.6,4.3c55,1,109.9-0.5,164.8-4.9c7.5-0.6,12.2-6.6,10.7-14
		C792.3,642.4,782.2,598,774.3,553z"/>
	<path id="_xD83D__xDD8D_-Ink" class="st2" d="M301.2,63.6c5.1-0.2,10.3,0.6,15.3,1.1c0.4,0,0.6,0.7,0.1,0.8
		c-9.1,1.9-18.1,4.5-27,7.1l-3.8,1.1c-10.1,3-19.8,6-29.6,10c-19.4,7.9-37.8,18.6-54.8,30.8C136.2,161.8,89,233.3,59.1,307.3
		C51,327.4,44.2,348,38.6,369c-1.4,5.1-2.6,10.2-3.8,15.3c-0.4,1.5-1.9,5.4-1.1,6.9c0.7,1.4,3.7,2.2,5,2.9l4.6,2.4
		c8.9,4.6,23.7,12.1,25.2,12.9l2.3,1.1c37.9,18.6,78.4,34.3,121.1,35.4l0.3-3.6l0,0c1.9-20.1,4.4-40.4,9.8-59.9
		c0.3-1,1.6-0.7,1.8,0.2c3,23.1,2.1,46.4,1,69.6c-1.9,41.1-4.4,82.2-6.6,123.3c-1.1,20.6-2.5,41.1-3.8,61.7
		c-1.3,20.6-1.7,41.7-4.7,62.1c-0.7,4.6-6,7-10,6.5c-4.5-0.5-7.9-4.5-7.9-9c-0.1-11.9,1.4-23.9,2.3-35.8c0.8-11.3,1.6-22.5,2.5-33.8
		c3.2-41.1,6.8-82.2,10.2-123.3c1.2-14.6,2.5-29.2,3.8-43.7c-45.2-1.5-87.4-18.2-127.7-37.8c-0.6,13.2-2,26.5-3.4,39.6
		c-3.8,36.8-7.2,73.6-9.7,110.5c-1.3,18.6-2.2,37.3-3,56c-0.4,9.2-0.7,18.3-1,27.5c-0.1,3.1-0.2,6.1-0.2,9.2l-0.1,7
		c-0.1,4.4-0.6,8.6-4.3,11.8c-3.8,3.3-8.9,3.5-12.7,0c-5-4.6-4.1-10.9-4-17.2c0.1-5.2,0.3-10.5,0.4-15.7c0.3-10.5,0.8-21,1.3-31.5
		c1.9-36.6,5.7-73.1,10.6-109.5l1.9-14c3.6-26.1,7.5-52.8,15.6-77.9c-3.1-1.6-6.2-3.1-9.3-4.7c-5.5-2.8-11.2-5.4-16.6-8.5
		c-4.2-2.4-7.9-5.8-9.1-10.7c-1.3-5.5,0.7-11.5,2-16.9l0.1-0.5c1.3-5.4,2.7-10.8,4.2-16.2c6.1-21.7,13.5-43.1,22.3-63.8
		c17.5-41.6,40.2-81.2,67.8-116.9c24.9-32.2,54.3-61.4,88.7-83.3c16.8-10.7,34.8-19.5,53.8-25.7c8.9-2.9,18.5-5.4,27.8-6.5
		C291.2,64.1,296.2,63.8,301.2,63.6z M391.3-2.4c6-6.5,18.1,0.2,15.1,8.8c-6.8,20.2-17.7,38.7-34.7,51.9
		c-15.9,12.5-35,20.6-55.4,18.9c-0.2,0-0.3-0.1-0.4-0.1l1.8,2.4c13.9,18.7,28.5,37.2,46.1,52.5c35.9,31.2,84.8,48,132,36.1
		c37.1-9.4,69.8-38.8,79.5-76.2c-1.4,0.6-3,0.8-4.8,0.4c-7.7-1.7-15.3-9.8-20.3-15.6c-5.4-6.3-9.6-13.1-12.6-20.7
		c-5.6-14-7.4-32.1,0.3-45.7c0.9-1.7,3.1-0.7,3.3,0.9l0.3,2.6c1.5,12.7,3.3,25.1,9.3,36.7c2.9,5.7,6.5,11.2,10.7,16
		c2.3,2.5,4.8,5,7.5,7.1c2.6,2.1,5.8,3.6,8.1,6l0.4,0.5l0-0.1c0.6-5,4.1-7.3,7.6-7.1c3.3,0.1,7.3,1.6,8.8,2.3l0.1,0.1
		c23.4,11.2,44.9,25.8,65.1,42c41.9,33.5,73.2,77.3,88.4,129c7.5,25.3,11.7,51.4,16.3,77.4l2.8,15.9c4.2,24,8.9,48.4,18.4,70.7
		c2.5,5.8,0.6,11.2-5.5,13.5c-7.5,2.8-15.1,5.6-22.7,8.3c3.7,16,6,32.5,8.8,48.5c5.9,34.1,13.2,68,19.4,102
		c3.2,17.4,6.1,34.9,9.2,52.3c1.5,8.4,3.1,16.8,4.7,25.1c0.8,4.5,1.6,9.1,2.4,13.6l0.1,0.8c0.5,2.4,1,4.9,0.4,7.2
		c-0.7,2.7-2.9,4.6-4.8,6.6c-1.6,1.6-3.8,1.6-5.7,0.7l-0.6-0.3c-3.4-1.6-6.1-3.2-7.3-7.1c-0.8-2.4-1-5.2-1.5-7.7
		c-1-4.8-1.9-9.7-2.7-14.5c-1.7-9.7-3.4-19.4-5.1-29.1l-1.5-9.1c-5.3-31.3-10.3-62.8-12.8-94.5c-1.1-14-2.3-28.1-3.5-42.1l-0.9-10.5
		c-1.1-13.3-2.5-27-2.7-40.5l-4.5,1.6l0,0l-22.1,7.8l0,0c-5.5,1.9-12.5,5.9-18.4,5.2c-2.9-0.4-5.1-1.3-6.8-2.9
		c2,28.7,4.8,57.4,8.5,86c3.3,26,7,51.9,11.4,77.7c2.2,12.8,4.4,25.6,6.8,38.3c1.2,6.4,2.5,12.7,3.7,19.1c0.6,3.2,1.4,6.3,1.9,9.5
		c0.6,3.7-0.4,5.9-2.5,8.9c-1.7,2.5-5,3.7-7.8,2c-3.6-2.3-5.5-4.2-6.5-8.3c-1-3.7-1.6-7.7-2.3-11.4c-1.4-7-2.7-14-4-21
		c-2.7-14.7-5.2-29.4-7.4-44.1c-7.8-52-12.7-104.4-15.2-156.9c-1.2-25.9-1.6-51.8-1.4-77.7c0.1-13.3,0.5-26.6,1.5-39.9
		c1-13.4,2.9-26.6,4.7-39.9c0.1-0.5,0.7-0.5,0.8,0c0.8,14.9,2.1,29.8,2.8,44.7c0.6,14.3,0.9,28.5,1.4,42.8
		c0.6,18.7,1.5,37.5,2.7,56.2c2.1-2.3,5.3-3.7,8.6-3.1c4.7-1,9.7-3.4,14.1-4.9l16.7-5.6l0,0c8.8-2.9,17.6-5.9,26.4-8.7
		c-7.9-26.6-13.3-53.5-17.9-80.8l-2.1-12.3c-4.1-24.2-8.5-48.4-15.9-71.9c-7.8-24.6-19.4-47.6-34.8-68.3
		c-15.2-20.4-33.7-38.5-52.7-55.3c-16.3-14.4-33.7-27.4-50.3-41.5c0.2,0.9,0.2,2,0.1,3.1c-3.5,25.9-17,49.9-35.8,67.8
		c-37.8,36-93.6,43.4-142,26.6c-46.7-16.3-88.1-55-102.7-102.8c-0.2-0.8,0.8-1.1,1.3-0.5c0.8,1.1,1.6,2.2,2.4,3.3
		c-0.1-0.4,0.2-0.9,0.7-1.1c17-6.6,33.8-15.9,46.5-29.1c6.2-6.4,11.7-13.7,15.9-21.6c2.1-3.8,3.9-7.7,5.4-11.7l0.4-1
		C386.1,6.7,387.6,1.6,391.3-2.4z"/>
</g>
<g id="Gray-Short.svg1" transform="matrix(0.406145,0,0,1.04014,1045.73,854.837)" class="st0">
	<g transform="matrix(1,0,0,1,-236.5,-283.5)" class="st3">
		<g id="head-mono-Gray-Short1">
			<path id="_xD83D__xDD8D_-Ink2" class="st4" d="M-1039.4-522.8c-81.4,3.3-178.1-4.3-232.3-30.1c-1.6-0.8-2.3-1.6-2.4-2.5
				c0-0.9,0.8-1.8,2.2-2.6c1.5-0.7,3.6-1.3,5.9-1.4c2-0.1,4.3,0,6.7,0.5l5,1.1c37.1,8,75.5,14.8,117.5,17.7
				c43.2,3,87.3,2.7,130.1-1.1c78.1-6.9,141.2-24.7,187.7-48c51.9-26.1,83-59.2,91-92.2c9.6-40.1-12.7-80-35.8-118.8
				c-24.3-40.8-50.8-81.4-81.6-121.5c-0.9-1.2-1.2-2.3-0.9-3.4c-9.1-1.4-18.8-1-28.4,0.3c-17.6,2.3-35.1,7.5-49.7,11.9
				c-5.3,1.6-10.2,3-14.6,4.2c-18.1,4.8-37.9,8.3-60.1,8.9c-23,0.6-45.6-2.2-66.6-5.7c-10.6-1.8-21.1-3.6-31.5-5.5
				c-29.7-5.2-59-10.4-91-13.8c-42.9-4.5-87.2-6.7-131.7-6.6c-79.3,0.3-158.9,8.3-207.5,34.5c-19.7,10.6-32.5,22.8-22.5,35.9
				c5.4,7.1,15.7,13.6,27,19.5l3.8,2c6.2,3.3,11.5,6.5,13.1,10c1.4,2.9,0.3,6-5,9.3c-3.3,2.1-7.6,4-11.9,5.9
				c-3.1,1.4-6.2,2.7-8.8,4.2c-5.4,3-10.1,6.1-13.8,9.5c-7.3,6.5-10.4,13.5-11,20.6c-0.8,8.5,2.3,16.8,5.3,25.2
				c2.2,5.9,4.3,11.8,5.2,17.8c0.2,1-0.7,1.8-1.8,2.4c-1.4,0.7-3.5,1.1-5.8,1.3c-0.7,0-1.4,0-2.2,0c0.4,0.6,0.7,1.2,1,1.7
				c-1.5-0.7-3-1.5-4.7-2.2c-0.1,0-0.2,0-0.3-0.1c-1.7-0.4-3.1-0.9-4.1-1.6c-2.3-0.9-4.8-1.7-7.4-2.4c-13.5-3.9-29.3-6.3-45.2-6.4
				c-15.3-0.1-30.6,2-42.4,6.3c-23.4,8.5-30.3,22.5-30.5,34.4c-0.2,12.2,7,26.9,34.2,34.4c10.9,3,24.3,4.9,37.7,4.9
				c11.2,0,21.8-1.5,32.3-3c3.2-0.5,6.5-0.9,9.7-1.3c3.7-0.5,7-0.4,9.9-0.1c3.3,0.4,6,1.2,8.1,2.2c2.1,1,3.4,2.4,3.8,3.7
				c0.4,1.3-0.1,2.7-1.5,4c-0.4,0.3-0.7,0.6-1.1,0.9l6,3.8c23,14.7,46.3,29.1,76.9,41.8c17.6,7.3,36.2,14.1,56.7,20.1l2.9,0.9
				c1.8,0.5,3.7,1.1,5.8,1.8c6,1.9,13.1,4.5,19.8,4.6c2,0,3.7-0.1,5.3-0.1c3.8-0.2,7-0.3,10.1,0.2c2.5,0.4,5.1,1.2,7.8,2.7
				c1.8,1,2.7,2.4,2.7,3.7c0,1.3-0.9,2.7-2.6,3.7c-3.5,2.2-7.7,3.5-12.2,4.3c-5.1,0.9-10.7,1-16.5,0.6c-14.4-1-30.3-5.7-40.4-8.7
				l-2-0.6c-22.4-6.7-43.7-14.1-62.4-22.4c-31.8-14.1-60.4-30.7-75.1-48.8c-10.4,2.7-23.1,3.9-36.5,4.1c-19.5,0.3-40.1-1.7-55.3-4.5
				c-33.5-6.2-53.8-17.9-63.4-31.4c-11.1-15.7-7.5-33.7,6.5-47.8c0.4-0.4,0.8-0.8,1.3-1.2c-43.1-42.7-56.4-90.1-52.7-135.6
				c1.7-21.3,5.4-43.7,18.3-64.5c5.8-9.3,15.8-18.2,31.8-25.5c9.1-4.2,20.3-7.4,31.6-10.7c9.8-2.8,19.5-5.6,27.8-9.1l3.9-1.7
				c0.8-0.4,1.7-0.7,2.5-1.1c14.2-6.1,28.1-12.1,45.3-17.1c20-5.8,42.1-10.4,65.1-14.2c49.4-8.1,102.7-13,155.3-16.8
				c113.9-8.2,230.8-8.6,343.3,2.9c52.3,5.3,103.1,12.7,153.7,20c4.7,0.7,9.4,1.4,14.1,2c39.4,5.7,78.8,11.3,118.2,16.9
				c18.3,2.6,36.6,5.2,54.9,7.9c4,0.6,7.9,1.8,10.1,3.3c2.2,1.5,2.8,3.2,1.1,4.9c-11.2,11.1-25.4,21.5-42.7,31.3
				c6,1.6,11.1,3.7,15,6.2c4.9,3.1,7.8,6.8,8,10.8c0.7,13.2-30.1,22.1-55.6,28.6c-2.4,0.6-4.7,1-7,1.1
				c24.7,36.9,48.4,73.9,68.5,111.2l1.4,2.6c20.7,39,34.1,78.9,14.5,118.5c-16.9,34.1-56,66.9-117.2,92.3
				C-871.8-541.9-952.3-526.3-1039.4-522.8z M-1575.2-747.4c-10.7-13.2-16.3-27.6-12.2-41c2.6-8.4,9-16.5,19.6-23.9
				c6-4.2,13.4-8.2,21.4-11.9l2.8-1.2c1.4-0.6,2.8-1.2,3.2-2c0.3-0.4,0-0.9-0.7-1.4c-1.5-1.2-4.2-2.4-6.7-3.6
				c-1.6-0.7-3.2-1.5-4.5-2.2c-23.4-12.3-40.8-27-35.1-42.7c5.5-15.3,31.2-29.5,58.4-40.2c60.1-23.6,153.3-29.1,234.9-27.8
				c47.5,0.8,94.9,4,140.2,9.7c22.3,2.8,44.1,6.2,65.3,10.2l4.7,0.9c2.5,0.5,5.1,1,7.6,1.4c16.6,3.2,33.2,6.4,51.2,8.1
				c35.1,3.4,59-3.7,84-10.9c8.6-2.5,17.3-4.9,26.6-7.1l1.9-0.4c16.7-3.8,36.7-6.3,55.9-6.2c16.7,0.1,32.8,2.2,45.9,7.1
				c2.7,1,4.2,2.1,5,3.2c1.4,0.8,2.6,1.7,3.4,2.9c4.7,6.9,9.4,13.8,14,20.6l3.8-1c11.3-2.9,23.5-6.1,29.1-10.9
				c2.1-1.8,1.8-4.9-0.9-7.2c-0.9-0.8-2.2-1.5-3.9-1.9c-1.2-0.3-2.8-0.5-4.5-0.4c-4.2,0.2-8.2,0-11.5-0.6c-3.8-0.6-6.9-1.7-8.8-2.9
				c-2-1.3-2.9-2.8-2.4-4.3c0.4-1.3,1.9-2.7,4.8-4.1c19.2-8.7,35.4-18.2,47.8-28.6l-81.5-11.8c-29-4.2-58.1-8.4-87.2-12.6l-15.9-2.3
				c-52.8-7.6-106-15-160.9-19.8c-109.2-9.7-223.1-7.4-332,1.7l-6.6,0.6c-45.7,3.9-92,8.6-134,16.8c-20.6,4-40.2,8.9-57,15.1
				c-7.4,2.7-14.1,5.7-20.8,8.7c-9.4,4.2-18.8,8.3-30,11.9l-10.4,3.2c-15.4,4.9-29.4,9.6-38.1,17.1c-9.1,7.9-13.5,16.6-17,25.1
				c-9,21.4-12.5,43.1-12.1,64.7c0.6,36.3,14.7,71.9,32.6,107.4c14.3-8,34.5-14.2,60.3-15.5c16.8-0.9,33.5,0.4,48,3.3
				C-1589.3-752.4-1581.7-750.1-1575.2-747.4z M-1602.3-704.2c-18.9-2.9-38.7-3.8-58.6-2.4c-2.1,0.1-4.1,0-5.8-0.4
				c-1.7-0.4-3-1-3.8-1.7c-0.8-0.8-0.9-1.6-0.1-2.4c0.6-0.6,1.9-1.3,4.1-1.7c21.6-4,45.6-5.8,69.5-4.5l2.4,0.1
				c12.2,0.7,29.3,2.2,42.2,5.1c10.1,2.3,17.5,5.5,19.3,9.6c1,2.2-0.4,4.4-3.6,6c-3.1,1.6-7.8,2.6-13.9,2.6
				c-10.7-0.1-17.1-1.9-24.8-4.2c-0.9-0.3-1.9-0.6-2.9-0.9C-1585.6-701.1-1593.7-702.9-1602.3-704.2z"/>
		</g>
	</g>
</g>
<g id="Loving-Grin-2.svg" transform="matrix(0.386215,0,0,0.9891,1071.76,907.613)" class="st0">
	<g transform="matrix(1,0,0,1,-144.5,-146.5)" class="st3">
		<g id="face-Loving-Grin-2">
			<path id="_xD83D__xDD8D_-Ink3" class="st4" d="M-1197.5-913.2c24-0.3,48.2-1,72,0.3c39.7,2.3,79.8,13.3,79.7,30.4
				c-0.2,28.7-83,39.6-142.1,43.3l-6.6,0.4c-71.1,4.4-155.8,8.5-219.6-7.3c-30.1-7.4-49.1-19.9-40.3-34c8.4-13.4,37.4-23,69.9-27.2
				c38-4.9,77.2-2.4,115.9-0.4c2.8,0.1,5.6,0.3,8.4,0.4c9-1.1,17.8-2.6,26.8-3.7C-1221.4-912.3-1209.8-913.1-1197.5-913.2z
				 M-1206.2-876.5l-37.2,1.9c-13.9,0.7-27.9,1.4-41.8,2.1c1.8,7.4,2.1,14.9,1.5,22.5c25.1-0.2,50.4-1.5,75-3.1
				C-1207.1-860.9-1206.2-868.7-1206.2-876.5z M-1316.3-870.9c-33.8,1.4-67.7,2.7-101.7,3.8c7.6,5.8,27.3,9.4,42.3,11.5
				c17.2,2.4,34.9,3.8,52.9,4.5C-1319.7-857.6-1317.6-864.3-1316.3-870.9z M-1070.7-882c-25.6,1.6-51.9,2.4-77.5,3.6l-29.8,1.5
				c3.1,7.1,5.4,14.2,6.8,21.4l4.6-0.4c20.9-1.6,41.9-3.8,60.4-8l1.6-0.4C-1089.7-867.7-1070.2-874.6-1070.7-882z M-1313.5-893
				c-16.7,0.6-34.4,0.7-50.5,2.1c-23.6,2-51.9,7.1-56.4,17.4c-0.7,1.7-0.5,3.3,0.5,4.7c34.9-2.6,69.8-5,104.8-7.2
				C-1314.2-881.6-1313.8-887.3-1313.5-893z M-1222.9-896.3l-22.9,0.8c-16.9,0.6-33.8,0.8-50.7,1.3c4.1,5.2,7,10.4,9,15.6
				c13.9-0.8,27.8-1.7,41.7-2.5l39.6-2.3l-0.1-3.9c0-2.6-0.1-5.3-0.4-7.9l-1.6-0.1C-1213.2-895.5-1218.1-895.9-1222.9-896.3z
				 M-1081.9-890.2c-15.8-5.6-45.5-5.2-64.4-4.9c-14.2,0.2-28.6,0.7-42.9,0.7c2.7,3.3,5.2,6.7,7.3,10.2l30.5-1.7
				C-1128.5-887.2-1105.2-889-1081.9-890.2z M-1189.3-966.7c21.3,5.1,53.8,16.9,30.9,29.4c-27,11.1-65.9-1.6-85-7.4
				c-17.8-4.4-37.7,7-21.2,12.2c138.4,40,194.6-32.9,86.2-40.2C-1190.5-973.4-1194.9-968.2-1189.3-966.7z M-980.4-994.9
				c-7.3,18.6-82.2,44.6-92.4,44.6c-10.2,0-97.2-33-97.2-47.7c0-14.7,37.6-34.4,97.2-9.6C-1038.9-1024.2-973.2-1013.5-980.4-994.9z
				 M-1313.4-1011.4c17.6,10.1,10.9,22.6-7,31.7c-15.9,8.1-69.3,26.3-77.7,26.7c-10.3,0.6-57.5-20.3-68.4-23.8
				c-10.9-3.5-41.2-14.7-34-25.2c6.9-10,43.9-27,98-9.5C-1385.4-1028.1-1329.3-1020.5-1313.4-1011.4z M-1488.9-1043.8
				c27.7-12.1,86.3-24.9,118.6-8.5c8.2,4.2-0.6,11-12.6,12.1c-14.9,1.3-30,0.5-44.6,2.2c-13.4,1.5-26.3,4.6-37.8,7.6
				c-13.1,3.5-25.2,7.3-36.3,11.7c-6.6,2.6-14.9,8.8-25.1,9c-10.1,0.1,3.5-12.2,4.6-13.3C-1514.2-1030.7-1503-1037.7-1488.9-1043.8z
				 M-1154-1073.4c15.9-2.9,31.5-1.6,47.5,0.1l6.9,0.7c17.1,1.9,35.3,4.1,50,8.1l1.2,0.3c18.4,5.2,46.7,16.3,33.2,25.9
				c-0.9,0.6-2.8,0.7-4.3,0.4c-17.3-3-30.2-8.9-48.7-11.4l-3.4-0.5c-17.9-2.4-40-4.8-59.2-4.6c-13.5,1.7-31.8,0.3-35.3-6.1l-0.2-0.3
				l-0.3-0.7C-1168.6-1065.7-1165.6-1071.3-1154-1073.4z"/>
		</g>
	</g>
</g>
<g transform="matrix(0.257724,0,0,1,697.289,-101.89)">
	<g transform="matrix(2.31336,0,0,1.52689,-2954.48,0)">
		<path class="st4" d="M21.2,495.9l0.2-1.7c0.2-1.9,1.3-4.6,1.2-7.6c-0.1-5-2.3-10.2-2.1-10.7c2.9-10.3,3.3-20.5,2.3-30.6
			c-1.4-15.1-6.1-30.2-10.6-45.3C8.6,388-5.6,321.6,1,273.5c2.4-17.7,7.8-32.9,17.2-41.5c3-2.8,5.6-4.9,10.1-5.3
			c51.7-5.1,104.7-6.9,158.1-7.4c81.1-0.7,163.2,1.7,243,2c56.6,0.1,278.1-8,432.2,1.6c40.4,2.5,75.9,6.3,102.1,11.8
			c21.1,4.5,35.9,10.1,40,17.6c7.1,12.9,9.1,26.1,8.6,39.4c-1.1,31.7-16.2,64.1-14.7,95.3c1.7,32-1.9,63.6-0.7,95.5
			c0.1,3.6,0.8,7.1,1.2,10.7c-0.1,2.4,4.8,4.4,10.9,4.4c6.2,0,11.2-1.9,11.4-4.3c0.7-2.8,1.7-5.6,2.1-8.5c1.8-11.3,1.4-22.7,1.9-34
			c1-21.3,1.6-42.6,0.9-64c-1.1-31,14.5-63.3,15.8-94.9c0.6-14.1-1.7-28.2-9.2-41.9c-5.7-10.5-24.9-18.8-54.5-25.1
			c-28.6-6.1-67.3-10.3-111.4-13c-155.7-9.7-379.4-1.3-436.6-1.4c-80.1,0-162.6-2.5-244-1.3c-55.3,0.8-110,3.2-163.2,8.9
			c-9.6,1.1-18.6,4.6-24.7,10.8c-9.3,9.4-13.8,25.5-15.7,44.4c-4.8,48.6,8.2,115.6,11.9,127.7c4.5,15,9.1,29.8,10.7,44.8
			c1,9.8,0.8,19.7-1.8,29.6c-0.1,0.5,0.1,6.5,2.9,12.1c1.5,3,4.1,5.7,5.6,7.5c0.8,1,1.4,1.7,1.8,2.1c1.1,0.9,2.5,1.2,3,1.3
			c1.6,0.1,4.7,0.4,5.3-1C21.6,496.7,21.6,496.3,21.2,495.9z M18.1,494.9c-0.8-0.1-1.9-0.1-2.9,0.2
			C16.1,494.9,17.1,494.9,18.1,494.9z"/>
	</g>
	<g transform="matrix(2.31336,0,0,1.52689,-2954.48,0)">
		<path class="st4" d="M17.7,502c2.5,0.2,5.7,0.7,10,0.8c5.1,0.2,11.2-0.4,17.9-0.3c6.9,0.1,14.1,0.6,21.5,0.7
			c22.1,0.4,44,0.2,49.9,0.3c16.5,0.1,33,0.4,49.4,0.7c66.2,1.2,132.4,3.2,198.6,3.9c62.4,0.5,401.1,5.8,650.4,3.2
			c113.5-1.2,208.8-4,251.7-9.5c7.1-0.9,13-1.8,17.2-2.9c5.5-1.5,8.8-3.1,10.1-4.7c1.9-1.4,0.3-3.2-3.4-3.9
			c-3.7-0.7-8.2-0.1-10.1,1.3c-1.1,0.6-3.4,0.6-6,1.1c-3.6,0.7-8,1.5-13.6,2.1c-42.2,5.1-135.4,7.5-246.5,8.6
			c-249,2.3-587.2-2.5-649.5-3c-57.9-0.4-115.6-2-173.5-2.9c-24.9-0.4-49.9-0.7-74.8-0.7c-5.9,0-28-0.1-50.2,0.5
			c-7.4,0.2-14.6,0.8-21.4,0.9c-6.6,0.1-12.8-0.4-17.8-0.2c-4.2,0.1-7.4,0.6-9.9,0.8c-2.3,0-4.2,0.7-4.2,1.6
			C13.6,501.3,15.4,502,17.7,502z"/>
	</g>
	<g transform="matrix(2.31336,0,0,1.52689,-2954.48,0)">
		<path class="st4" d="M1008.3,488.7c-1.4-0.1-3-0.1-4.5,0.1c-4.8,0.6-7.5,2.5-6,4.4c0,1.7,1.3,2.9,3,4.2c0.8,0.6,2.2,1.1,3.4,1.5
			c12.6,4.6,36.9,3.8,53-1.6c15.1-5,23.8-13.7,7.2-23.9c-6.6-4.1-13.6-5.9-19.7-6.5c-7.2-0.7-14.2,0-20.2,1.9
			c-9.8,3.1-18,9.9-20.2,14.3c-0.2,0.4-0.4,0.7-0.4,1.1c0.4,2.3,1.3,3.4,2.4,3.8C1007.1,488.3,1007.8,488.5,1008.3,488.7z
			 M1011.7,489.3c1.6,0.4,2.8,1.1,3.4,1.8c0.9,0.5,2.6,0.5,3.6,0.8c1.1,0.4,2.2,0.7,3.6,0.8c8.2,0.9,19.3-1,25.2-4.4
			c4.6-2.7,5.2-6.4-1.4-10.6c-3.7-2.4-6-3.5-9.3-2.6c-7.6,2.1-12.8,7.2-16.7,10c-0.7,0.5-1.7,0.8-2.3,1.2c-0.7,0.4-1.8,0.6-1.8,0.6
			l-0.1-0.1c0.3,0.6-0.1,1.2-1.3,1.6c-0.4,0.5-1.6,0.4-2.1,0.6C1012.2,489.2,1011.9,489.3,1011.7,489.3z M1012.8,485.6
			c0.5,0.1,0.9,0.1,1.3,0.3C1013.9,485.7,1013.4,485.6,1012.8,485.6z M1010.2,485.6l-0.3,0c-0.2,0-0.4,0.1-0.6,0.2l0.3-0.1
			c0.1,0,0.3,0,0.4-0.1L1010.2,485.6z"/>
	</g>
	<g transform="matrix(2.31336,0,0,1.52689,-2954.48,0)">
		<path class="st4" d="M1090.2,471.2l0.4,0.1c2.1,0.4,4.6,0,5.5-0.9c0.9-0.8-0.1-1.8-2.2-2.2l-0.4,0c-2.1-0.4-4.6,0-5.5,0.9
			C1087,469.9,1088,470.9,1090.2,471.2z"/>
	</g>
	<g transform="matrix(2.31336,0,0,1.52689,-2954.48,0)">
		<path class="st4" d="M1038.1,452.5c-0.3-0.9-2.3-1.5-4.6-1.4c-0.8-0.2-1.1,0.2-1.7,0.2c-0.5,0-0.5,0.2-0.8,0.2
			c-2.1,0-0.5,0.8-1.6,1.6c-0.7,0.5,1.8,1.4,2.2,1.9c0.9,0.9,2.2,1.2,4.8,1.8c1.3,0.3,3.1,0.4,4.9,0.5c9.5,0.6,23.9-0.7,29.9-0.6
			l72.9,1.6c21.5,0.6,55.7,0.1,87.5,0.8c20,0.5,39.1,1.4,52.8,4c17.7,3.3,22.1,9.4,9.4,21.4c-2.2,2.1-4.2,4.4-7.2,6.9
			c-1.4,0.8-0.8,1.9,1.3,2.4c2.1,0.5,4.9,0.3,6.2-0.5c5-2.2,9.3-4.1,12.7-6.2c26.2-15.9,12-25.7-13-31.1c-15.4-3.3-37.4-5-60.6-5.7
			c-31.8-1-66.1-0.1-87.6-0.6c-14.8-0.3-29.6-0.6-44.5-0.7c-9.9-0.1-19.9-0.1-29.8,0c-4.9,0.1-15,0.9-23.9,1.4
			c-2.9,0.1-5.5,0.2-7.6,0.3c-1.4,0.1-1,0.8-2.1,0.8c0.2,0-0.5,0.3,0,0.3c0.6,0,0,0.4,0.3,0.5
			C1038.3,452.3,1038.1,452.4,1038.1,452.5z M1036.3,454.1c-0.1,0-0.2,0.1-0.3,0.1l-0.2,0c0.3,0,0.6,0,0.6-0.1l0.1-0.1L1036.3,454.1
			z M1038.1,452.7c0,0.3-0.1,0.5-0.3,0.7C1038.4,453.2,1038.9,453,1038.1,452.7L1038.1,452.7z"/>
	</g>
	<g transform="matrix(2.31336,0,0,1.52689,-2954.48,0)">
		<path class="st4" d="M1078.5,472.7c2.3,0.3,3.2,0.8,5.8,0.9c3.8,0.2,7.7-0.3,11.8-0.4c18-0.7,39.4-1.2,62-1.3
			c31.5-0.2,65.3-0.1,95.1-0.4c2,0,4,0,5.9-0.1c4.9-0.2,9.2-0.7,13.8-1.1c2.7,0,4.8-0.9,4.8-2c-0.1-1.1-2.3-1.9-5-1.9
			c-4.5-0.3-8.8-0.8-13.6-1c-38.1-1.5-84.2-1.4-123.7-0.8c-17.7,0.3-34.2,0.7-47.9,2.1c-2.1,0.2-4.2,0.3-5.9,0.7
			c-2.5,0.6-3.2,1.2-5.1,2c-2.2,0.2-3.6,1.1-3,2C1074,472.4,1076.3,472.9,1078.5,472.7z"/>
	</g>
	<g>
		<g transform="matrix(2.87515,0,0,1.87858,-3550.9,-1261.06)">
			<path class="st4" d="M587.2,929.8c-0.7,0.1-1.3,0.3-1.6,0c-0.1-0.1-1.6,0.1-1.1,0.1c0.3,0-0.3,0.3-0.2,0.4c0.4,0.8,1.1,1.8,1.1,2
				c0.9,1.9,1.4,4,0.8,6.1c-0.3,1.2-1,2.3-2.3,3.4c-1.1,0.9-2.7,1.5-4.6,2.1c-4.5,1.5-10.3,2.4-15.8,3.5c-7.1,1.4-13.7,3-17.9,5.4
				c-4.6,2.6-5.2,5.4-2.9,7.5c2.4,2.2,7.8,3.9,16.3,4.1l12.3-0.7c2.5-0.1,4.3-1,4-2c-0.3-1-2.5-1.7-5-1.6l-10.4-0.3
				c-2.9-0.1-4.9-0.6-5.6-1.3c-0.8-0.8,0.1-1.7,1.9-2.6c3.2-1.7,8.3-2.7,13.5-3.7c6.4-1.2,13.1-2.5,18.3-4.2c3.2-1,5.9-2.3,7.9-3.8
				c2.1-1.6,3.3-3.5,3.6-5.4c0.4-2.6-0.7-5.2-2.1-7.5c-0.2-0.2-1.2-2.2-3.6-3.1c-4-1.5-7-1.9-8.5-0.9c-1.7,0.3-2.4,1.2-1.5,1.9
				C584.4,929.5,585.8,929.8,587.2,929.8z"/>
		</g>
		<g transform="matrix(2.87515,0,0,1.87858,-3550.9,-1261.06)">
			<path class="st4" d="M550.7,961.3l-9.2,0.8c-4.1,0.7-7.4,1.7-10.1,3c-2.7,1.3-4.3,2.9-5.3,4.7c-2.5,4.9,1,9.1,7.9,12.2
				c6.6,3,16.7,5,28.3,5.6c14.7,0.7,31.2,0.5,47.2-0.8c16.2-1.3,31.7-3.7,44.2-7.2c7.3-2.1,16.7-8.1,18-13.1c1-3.8-1.9-7.4-11-8.6
				c-1.8-0.2-3.7-0.4-6-0.4c-3.5-0.2-6.7,0.7-7.4,2c-0.6,1.4,1.7,2.7,5.2,2.9c1.2,0.2,1.8,0.5,2.7,0.7c3.4,0.9,2.5,2.6,1.2,4.4
				c-2.1,3-7,6.1-11.3,7.3c-10.9,3-24.5,5-38.6,6.2c-14.3,1.2-29.2,1.5-42.5,0.9c-8-0.3-15.1-1.5-20-3.5c-4.8-2-7.4-4.6-6.2-7.8
				c0.4-1.1,1.3-2,2.7-2.9c1.4-0.9,3.2-1.7,5.6-2.3c1.5-0.4,5.4-0.9,7.7-1.5c1.5-0.4,2.6-0.8,3.1-1.2c1-0.7,0.4-1.5-1.3-1.9
				C553.9,960.4,551.7,960.6,550.7,961.3z"/>
		</g>
		<g transform="matrix(2.87515,0,0,1.87858,-3550.9,-1261.06)">
			<path class="st4" d="M597.6,929c-0.4-0.4-0.7-0.6-0.7-0.6c-1.3-0.6-3.4-0.7-5.1-0.3c-1.6,0.4-2.3,1.2-1.7,1.9l0.7,1.7l6.6,5.3
				c4.1,3,8.2,5.9,10,8.9c1.1,1.8,0.6,3.6-0.8,5.6c-0.6,0.8-0.7,1.7-1.7,2.6c-1.5,0.8-1,2,1.1,2.6c2.1,0.6,5.1,0.4,6.6-0.4
				c2.2-0.7,4-1.3,5.3-2.1c3.7-2.2,3.9-4.8,3.3-7c-1.1-4.3-7.6-8.3-14.1-12.4l-7.3-4.8l-2.1-1L597.6,929z M591.2,930
				c0,0.1,0,0.3,0.1,0.4c0,0.1,0.1,0.1,0.1,0.2C591,930.4,591,930.2,591.2,930z M592.1,929.1c-0.5,0.1-0.8,0.3-0.7,0.5
				C591.5,929.5,591.8,929.3,592.1,929.1z"/>
		</g>
		<g transform="matrix(2.87515,0,0,1.87858,-3550.9,-1261.06)">
			<path class="st4" d="M615,949.3c-1.6,0-3,0.4-3.3,1.1c-1.5,1.4,1.2,1.7,3.1,1.9c0.8,0.1,6.2-0.5,6.2-0.5s-0.4,0.1-0.5,0.1
				l8.8,0.9c2.2,0.4,3.4,1.5,4.8,2.6c1.7,1.4,2.8,3,3.3,4c0.8,1.5-1.9,2.9-5.1,4.1c-4,1.6-9.3,2.7-14.2,3.6
				c-1.4,0.2-2.7,0.5-3.8,0.7c-1.1,0.2-1.5,0.6-2.5,0.8c-2.4,0-4.4,0.8-4.4,1.7s2,1.7,4.4,1.7c1.4,0.3,2.6,0.5,4.4,0.6
				c2,0.1,4.1-0.1,6.2-0.3c7.1-0.7,14.6-2.5,20.1-4.6c7-2.7,10.6-6.1,8.7-9.4c-1.1-1.7-3.6-4.4-7.3-6.4c-3.1-1.7-6.9-3-11-3.5
				c-2.1-0.2-4.3-0.4-6.5-0.4c-2.2,0-4.3,0-6.4,0.2C618.8,948.3,616.2,949,615,949.3z"/>
		</g>
	</g>
</g>
<g transform="matrix(0.257724,0,0,1,767.389,-84.3091)">
	<g transform="matrix(2.31336,0,0,1.52689,-3226.47,-17.5812)">
		<path class="st4" d="M668.6,14c0,0.1,0,0.2-0.1,0.2c-0.8,0.6-1.6,0.1-2.7,0.9c-1.4,1-0.3,2.7,0.1,4.3c2.2,4.5,2.7,9.1,2.5,13.6
			c-0.2,4.6-1.3,9.2-3.1,13.8c-3.5,11.1-8.8,21.8-16.1,32.2c-5.1,7.3-11.8,14.4-18.6,21.7c-2.9,3.1-5.3,6.2-8.4,9.3
			c-2.1,1.7-0.4,3.7,3.9,4.6c4.3,0.8,9.5,0.2,11.7-1.5c3.9-2.4,7.8-4.6,11-7.1c7.7-5.8,13.2-11.8,18.2-17.9
			c10.7-12.9,17-26.3,21.1-40.2c1.2-5,1.9-10,1.1-15c-0.7-5.1-2.8-10.1-6.5-15c-1.2-1.1-1.3-2.3-2.5-3c-1.4-0.8-2.2-0.2-3.1-0.8
			c-0.5-0.3-0.1-0.6-0.2-0.8c-0.8-1.6-4.1-1.5-5.3-1.3c-0.6,0.1-2,0.2-2.9,1C668.3,13.2,668.3,13.6,668.6,14z M673,15.1
			c1.2,0,2.5-0.2,3.4-1C675.8,14.7,674.4,15,673,15.1z"/>
	</g>
	<g transform="matrix(2.31336,0,0,1.52689,-3226.47,-17.5812)">
		<path class="st4" d="M911.4,81.7c0.1,0,0-0.2,0-0.3L911.4,81.7L911.4,81.7c-1.5-0.2,1.3-1.1,2-1.7c0.8-0.8,2.1-1.5,1.8-2.2
			c-0.3-0.6,0.2-0.7-0.8-1.2c-2.2-0.9-0.2-0.6-2.7-1.3c-0.6-0.2-0.5-0.2-0.8-0.5c-0.7-0.5-0.6-1.1-1.4-1.7c-1.2-0.8-3.8-1-5.8-0.5
			c-2,0.5-2.6,1.5-1.4,2.2c-0.5,1.1-3.5-0.6-5.6,0.1c-0.7,0.2-1.5,0.5-2.1,0.8c-3.4,1.9-5.4,4.2-5.2,6.2c0.4,2.4,5.7,4.1,11.7,4
			C907,85.8,911.4,83.9,911.4,81.7z"/>
	</g>
	<g transform="matrix(2.31336,0,0,1.52689,-3226.47,-17.5812)">
		<path class="st4" d="M930.8,83c-0.3,1.3-4,2.3-7.6,3.4c-6.9,2.1-16,3.8-20.2,4.7c-9.9,2.3-21.1,3.8-32.6,5
			C852,98,832.7,99,815,100.4c-6.7,0.6-18.7,0.8-28.3,1.9c-6.3,0.7-11.7,1.7-15.2,3c-5.3,2-8.3,4.9-8.6,8.6
			c-0.5,7.5,10.8,18.9,8.7,24.1c-1.8,4.5-7.7,8.8-14.9,13c-11.5,6.6-26.6,12.7-39,17.7c-2.7,1-2.8,2.7-0.2,3.8
			c2.7,1.1,7,1.1,9.8,0.1c8.6-2.9,18.5-6.1,27.7-9.8c6-2.4,11.5-5,16.5-7.7c9.3-5,16.3-10.3,18.8-15.9c2.3-4.8-5.2-14.7-6.2-22.3
			c-0.3-2.2-0.8-4.3,2.2-5.3c2.1-0.7,5.8-0.9,9.7-1.2c8.6-0.7,18.2-1,23.8-1.4c18-1.6,37.7-2.8,56.2-5.1c13.3-1.6,25.9-3.7,37-6.6
			c5.1-1.5,16.7-4.7,23.3-8.2c3.9-2.1,6.4-4.2,6-6.1c0-1.2-2.5-2.2-5.7-2.2C933.4,80.8,930.8,81.8,930.8,83z"/>
	</g>
	<g transform="matrix(2.31336,0,0,1.52689,-3226.47,-17.5812)">
		<path class="st4" d="M944,80.7L944,80.7L944,80.7c0.1,0.1,0.3,0.2,0.4,0.2c0.2,0.1,0.4,0.3,0.5,0.4c0.1,0.4-0.4,0.6-0.3,1.1
			c0.3,1.2,1.7,2.7,3.1,4.1c1.8,1.9,4.3,3.5,5.6,4.3c2.3,1.2,14.2,4.9,23.7,8.6c2.8,1.1,7.4,2.7,8.8,3.7
			c-10.6,4.5-25.2,7.5-37.6,11.4c-3.6,1.1-7,2.3-10.1,3.6c-32.1,13.4-52.7,23.3-77.9,31.6c-19.6,6.4-42.6,11.3-75.7,16.9
			c-6.6,1.1-13.2,2.4-20.5,3.6c-3.8,0.5-5.8,2-4.6,3.5c1.2,1.5,5.3,2.3,9,1.8c6.4-0.5,12.4-1,18.1-1.6c28.8-3.3,49.8-7.8,67.8-12.5
			c35.9-9.3,58.6-20.9,99.2-37.6c10.9-4.6,25.5-7.9,37.6-12c3.5-1.2,6.8-2.4,9.7-3.8c5.1-2.3,5.7-5.4,0.5-8.6
			c-7.8-4.8-32.1-10.7-35.7-12.4c-1.1-0.5-2.7-1.8-4.7-3c-2-1.3-3.9-2.6-6-3.4c-0.8-0.3-1.7-0.3-2.3-0.6c-0.9-0.4-1-0.8-1.2-0.9
			c-1.2-0.9-3.2-0.9-3.5-0.9c-0.3,0-5.7,0.5-4.1,2.3C943.7,80.5,943.9,80.6,944,80.7z M985.8,103.2c-0.6,0.3-1.2,0.8-0.4,0.8
			C986.4,103.9,986.4,103.6,985.8,103.2z"/>
	</g>
	<g transform="matrix(2.31336,0,0,1.52689,-3226.47,-17.5812)">
		<path class="st4" d="M610.3,99.9c1.9-0.5,2.3-1.5,1-2.3c-1.4-0.7-4-0.9-5.8-0.4c-1.7-0.4-0.2,0-2.3-0.1c-0.4,0-0.5,0.2-0.9,0.2
			c-0.7,0.1-0.8,0.3-1.4,0.5c-0.8,0.2-1,0.5-1.6,0.9c-1.2,0.7-1.2,1.8-1.2,2.9c0,3.7,6.2,9.4,11.6,13c6.5,4.2,14.4,8,23.4,11.4
			c9,3.4,19,6.3,29.7,8.8c6.6,1.5,17.1,3.2,25.7,5.3c4,1,7.7,2,9,3.4c0.9,1,0.8,1.9,0.3,2.8c-2.1,4.2-8.3,8.3-7.1,12.6
			c0.5,1.9,1.9,3.7,3.9,5.3c5.4,4.6,17.3,8.1,18.4,13.7c1.5,7,1.8,11,0.9,14c-1.4,4.5-6.3,6.7-11.9,14c-1.4,1.9-2.6,4.1-4,6.7
			c-1.2,1.6,1.1,3.3,5.3,3.8c4.1,0.5,8.5-0.4,9.7-2c2.4-2.4,4.8-4.3,6.6-6c8.1-7.8,11.8-10.4,13.6-15.4c1.2-3.3,1.3-7.7-0.1-15.6
			c-0.3-1.9-1.5-3.7-3.1-5.3c-2.9-2.9-7.7-5.5-12-8c-3.1-1.9-6.1-3.7-6.7-6c-0.9-3.5,5.3-6.7,7-10.2c1.2-2.3,1.1-4.7-1.2-7.2
			c-2.2-2.4-6.7-4.5-12.8-6.3c-9.6-2.8-23.4-4.7-31.5-6.5c-9.7-2.1-18.8-4.6-27-7.4c-8.2-2.8-15.6-6-21.7-9.6
			c-3.6-2.1-7.5-5.2-9.6-7.8c-0.8-1.1-3.2-2.6-1.4-2.7c0.8,0-1.8-0.4-1.8-0.2C611.3,100.8,610.6,100.2,610.3,99.9z"/>
	</g>
	<g transform="matrix(2.31336,0,0,1.52689,-3226.47,-17.5812)">
		<path class="st4" d="M595.4,92.7c0.3,0.4,0.9,0.7,1.8,1c3.7,1.2,8.1,0.2,7.1-2.6c-0.4-1-2.1-2.2-3.6-2.8c-1.7-0.7-3.8-0.7-5.6-0.6
			c-2.8,0.1-5.6,0.7-8.4,1.6c-4.2,1.3-8,3.3-11,4.3c-13.2,4.5-38.4,8-52.4,13.6c-8.2,3.3-12.8,7.2-11.9,12
			c3.3,14.8,22.9,29.6,51.8,39.6c21.3,7.3,47.6,12.3,75.7,12.4c11.6,0,23.5-0.9,35.3-2.6c4.8-0.6,7.5-2.6,6-4.5
			c-1.5-1.9-6.6-2.9-11.4-2.3c-10,1-19.7,1.1-29.2,0.9c-23.1-0.5-44.6-4.2-62.5-10.1c-25.6-8.5-43.8-21.2-47.5-34
			c-1.2-3.7,4.3-6.5,11.6-9c13.6-4.6,32.9-8.2,43.4-12.2L595.4,92.7z"/>
	</g>
	<g transform="matrix(2.31336,0,0,1.52689,-3226.47,-17.5812)">
		<path class="st4" d="M510.7,125.8c-2,0.1-3.6,0.8-3.5,1.6c0,0.9,1.9,1.6,4.2,1.6l1.8-0.1c2.1-0.3,3.2-1.3,2.4-2.1
			C514.8,126,512.7,125.6,510.7,125.8z"/>
	</g>
	<g transform="matrix(2.31336,0,0,1.52689,-3226.47,-17.5812)">
		<path class="st4" d="M512.5,125.4c-0.4-0.7-2.1-1.3-4-1.3l-0.1,0c-1.4-0.2-2.8-0.1-4.1-0.5c-1.3-0.3-0.5-0.5-1.9-0.8
			c-0.3-0.1-0.8,0-1.2,0c-4.4,0-9,0.1-13.9,0.5c-4.2,0.4-8.3,1-12.6,1.7c-23.3,3.7-48.5,10.4-64,14c-30.2,7-77.5,22.3-112,39.1
			c-18.9,9.2-34.8,18.9-40.9,28.1c-1.3,2-3.3,4.1-2.4,6c0.6,1.2,1.7,1.7,3.2,2.7c-0.3,1.9,3.4,3.5,8.3,3.6c4.9,0.1,9-1.3,9.3-3.2
			c1.5-0.8,3.2-1,4.4-1.9c0.8-0.6,1.1-1.3,1.6-2c7.5-10.9,26.9-23.3,51.7-34.3c29.6-13.2,64.7-24.7,88.6-30.5
			c10.8-2.6,26.8-6.9,43.1-10.6c8.8-2,17.8-3.6,26-5.1c4.3-0.8,8.4-1.2,11.7-2.1c1.2-0.3,0.7-0.7,1.8-1c1-0.3,2-0.4,3.2-0.6
			c1.3-0.2,2.5-0.1,2.9-0.5C511.8,126.7,512.5,125.6,512.5,125.4z M512.6,125.5L512.6,125.5L512.6,125.5L512.6,125.5
			c0,0.1,0,0.3,0.1,0.4C512.6,125.7,512.6,125.6,512.6,125.5z M505.5,124.7l-0.2,0.1l0,0C505.3,124.7,505.4,124.7,505.5,124.7z
			 M508.4,124.2c-0.6-0.1-1.1,0-1.6,0.1C507.3,124.2,507.8,124.2,508.4,124.2z"/>
	</g>
	<g transform="matrix(2.31336,0,0,1.52689,-3226.47,-17.5812)">
		<path class="st4" d="M1022.2,113.3l-0.4,0.2l-0.2,0.1c0.2,0.1,0.6,0.3,1.2,0.4c2.3,0.3,5.8,0.7,9.7,1c9.6,0.9,21.5,1.8,23.7,2.1
			c12.2,1.3,24.5,2.7,36.6,4.2c12.1,1.5,24.2,3.1,36.1,4.7c43.8,6,78.1,11.8,107.5,19.9c29.1,8,53.1,18.4,76.2,34.1
			c42.6,28.1,85.7,67.4,120.4,107.8c34.6,40.2,60.9,81.6,68.3,114.5c3.8,18.9-4.6,42.4-33.1,58.9c-19,11-47.5,17.9-87.3,19
			c-14,0.4-29.3,0.4-46.4-0.7c-4.3-0.4-8.8,0.6-9.9,2.3c-1.1,1.7,1.5,3.4,5.9,3.9c19.9,2.6,38.1,4,54.7,3.8
			c32.6-0.3,58.4-5.5,78.7-12.7c48.8-17.4,64.3-49.9,58.8-75c-6.3-33.5-30.9-75.9-65.1-117c-34.4-41.3-78.4-81.3-121.5-110
			c-26.2-17-53-28.3-85.6-36.7c-31.6-8.2-68.5-13.6-115.3-19.2c-12.4-1.5-24.8-2.9-37.3-4.1c-12.5-1.3-25.1-2.5-37.7-3.6
			c-2.3-0.2-14.8-1.3-25.2-1.7c-4.6-0.2-8.7-0.3-11.4-0.1c-3.7,0.3-5.6,0.6-6.1,0.9c-1.2,0.9-3.5,1.2-2,1.8c0.3,0.1-0.1,0.3,0.3,0.4
			c0.6,0.2,0.3,0.6,1.5,0.7C1018.7,113.6,1020.7,113.7,1022.2,113.3z M1021.7,113.6c-0.2,0.1-0.3,0.1-0.2,0
			C1021.5,113.5,1021.6,113.5,1021.7,113.6z M1024.2,112.3c0.2,0.4,0.2,0.7-1.2,0.8l0.2-0.1C1023.7,112.8,1024.1,112.6,1024.2,112.3
			z M1023.9,111.1c0.1,0,0.1,0.1,0.2,0.1l0.1,0.1l0.1-0.1c0.1-0.1-0.2-0.1-0.5-0.2L1023.9,111.1z"/>
	</g>
	<g transform="matrix(2.31336,0,0,1.52689,-3226.47,-17.5812)">
		<path class="st4" d="M1019.2,343.6c-1.5,0.3-0.5-0.1-1.2,0.5c-0.4,0.3,0.3,0.6,0.5,0.9c1.2,1.8,6.1,3.8,13.8,5.6
			c19,4.6,56.5,8,66.6,9.7c38.1,6.1,75.8,12.1,112.9,18.6c22.3,3.9,44.1,8.1,66.3,12.1c14.7,2.7,29.7,5.1,44.5,7.9
			c3.6,0.8,8.2,0.3,10.2-1.2c2-1.4,0.7-3.2-3-4c-14.1-3.4-28.1-6.9-42.7-9.9c-14.6-3-29.8-5.6-44.8-8.2
			c-44.9-7.8-90.7-14.7-137.1-21.7c-7.7-1.1-31.1-3.4-50.6-6.1c-8.3-1.1-15.7-2.4-20.8-3.5c-1.9-0.4-3.5-0.7-4.6-1
			c-0.6-0.2-1.2,0.2-1.7,0c-0.2-0.9-2.3-1.6-4.5-1.5C1020.7,341.9,1019,342.7,1019.2,343.6z"/>
	</g>
	<g transform="matrix(2.31336,0,0,1.52689,-3226.47,-17.5812)">
		<path class="st4" d="M1303.1,382.1c1.6,0,1.7,0.6,3.2,0.6c2.9,0,5.9,0.5,9.8,1.1c10.2,1.8,23.1,5.3,36.2,9.6
			c30.6,10.2,62.2,24.2,68,27.5c2.9,1.7,8.8,2.1,13.1,1c4.3-1.1,5.4-3.4,2.4-5.1c-6.9-3.9-49.2-22.6-85.2-32.9
			c-12.5-3.6-24.4-6.3-33.9-7c-6.9-0.5-13.8-0.6-17,0.9c-1.5,0.7-2,0.9-2.2,1.9c-1.7,0.6-1.8,1.6-0.3,2.3
			C1298.7,382.6,1301.4,382.7,1303.1,382.1z"/>
	</g>
	<g transform="matrix(2.31336,0,0,1.52689,-3226.47,-17.5812)">
		<path class="st4" d="M1183.9,279.2c-0.6,0.2-1.3,0.5-1.9,0.9c-0.4,0.2-0.7,0.5-0.9,0.8c-1.4,2.3-0.6,6.3-0.7,7.5l-0.1,20.7
			c1.6,10.8,5,21.3,10.9,31.6c5.9,10.3,14.3,20.3,24.2,30.4c1.4,1.5,5.8,2.3,9.8,1.8c3.9-0.6,6-2.3,4.5-3.8
			c-8.8-9.9-15.5-19.8-20.8-29.9c-5.3-10-9.3-20.1-11-30.5l-2-20.2c-0.1-1.2,0.6-5.2-0.8-7.5c-0.2-0.4-0.6-0.6-1-0.8
			c-4.4-2.8-10.3-1.2-10.2-1.2C1183.9,279,1183.9,279.1,1183.9,279.2z"/>
	</g>
	<g transform="matrix(2.31336,0,0,1.52689,-3226.47,-17.5812)">
		<path class="st4" d="M1232.6,378.3c-0.1,0.5-0.3,0.5,1.9,0.6c0.5,0,1,0,1.5-0.1c8.9-1.2,31-4.9,36-5.7c11.3-1.7,22.4-2.9,33.6-3.8
			c17.2-1.4,34.5-2.2,52.9-2.5c1.9,0,3.5-0.6,3.5-1.3c0-0.7-1.5-1.4-3.4-1.4c-15.8-0.4-30.9-0.6-45.9,0c-15.2,0.6-30.1,1.9-45.4,3.9
			c-5.3,0.7-29.5,3.4-37.8,5.4c-0.8,0.2-1.7,0.3-1.9,0.6c-1,1.2,1,0.1,0.3,1c-0.6,0.8-2.5,1-2.5,1.3c-0.2,0.9-0.5,2,3.1,2.1
			C1229.9,378.9,1231.5,378.7,1232.6,378.3z M1233.2,376.2c0.5,0.3,0.7,0.6,0.7,0.9C1234.1,376.8,1233.9,376.5,1233.2,376.2z"/>
	</g>
	<g transform="matrix(2.31336,0,0,1.52689,-3226.47,-17.5812)">
		<path class="st4" d="M1024.2,431.7c-0.2-0.1-0.5-0.3-1-0.3c-0.2,0-0.5-0.5-0.6-0.3C1022.4,431.3,1023.1,431.5,1024.2,431.7
			c0.3,0.2,0.3,0.4,0.6,0.5c0.3,0.1,0.5,0.2,0.7,0.3c-0.8-0.1-1.7,0-2.5,0.1c0.4-0.1,0.8-0.3,0.8-0.3s-1.8-1-2.2-1.2
			c-0.7-0.3-1.3-0.3-1.6-0.3c-2.1-0.7-3.8,0.1-4.5,0.1c-3.1-0.1-2.9,1.2-4.5,1.9c-0.4,0.2-1.1,1.6,3.6,3.6c1.2,0.5,6.7,1.8,8.7,2.4
			l13.6,3.4c10.6,2.8,21.4,5.7,32.8,8.1c2.5,0.5,5,1.1,7.7,1.5c2.8,0.4,5.6,0.6,8.5,0.8c3.4,0.6,7.4-0.1,8.8-1.4
			c1.4-1.3-0.2-2.9-3.7-3.4c-2.2-0.6-4.1-1.2-6.4-1.8c-5.1-1.2-10.6-2.3-15.7-3.6c-7.6-1.9-14.9-3.9-22.1-5.9l-14.2-3.6
			C1031,432.4,1026.6,432.1,1024.2,431.7z"/>
	</g>
</g>
<g transform="matrix(0.257724,0,0,1,767.389,-84.3091)">
	<g transform="matrix(2.31336,0,0,1.38925,-2954.48,144.572)">
		<path class="st4" d="M1550.3,303.5c-1.4-0.8-3-0.9-4.5-1.2c-4.6-1-8.6,0-13.5,2.2c-3.7,1.7-5.8,5.3-7.3,9.9
			c-0.8,2.7-0.8,5.8-0.8,9.2c-0.1,27.9,16.3,77.7,18.6,88.2c0.5,2.3,5.3,4.1,10.8,3.9c5.4-0.2,9.5-2.3,9-4.6
			c-1.7-8.1-11.3-39.2-15.6-65.7c-2-12.2-2.1-23.5-1.1-31c0.1-1.2,0.1-2.2,0.3-3.2c0.3-1.3-0.8-3.3,1.1-3.1c1.5,0.1-2.1-1-2.1-1
			s0.3-0.6,1-0.5c2,0.5,4.6,0.2,5.7-0.7C1553,305.1,1552.3,304,1550.3,303.5z"/>
	</g>
	<g transform="matrix(2.31336,0,0,1.37729,-2954.48,155.574)">
		<path class="st4" d="M1563.5,287c-1.5-0.1-3.2,0.1-4.2,0.7c-0.9,0.5-1,1-1.2,1.3c-0.7,1,2.7,2.8,14.6,3.3c2.3,0.1,4.9,0.1,8,0
			c7.9-0.3,18.2-1.3,30.4-1.2c27.7,0.1,55.2,0.3,82.8,0.7c27.4,0.4,54.9,1,82.5,1.8c46.6,1.4,93.9,2.5,141.5,3.2
			c71,1.1,142.5,1.4,212.3,1.4c34.8,0,70.3-2.3,105.6-2.7c14.4-0.2,28.8,0,43,0.9c8.2,0.5,21.8,1.2,33.9,2.5
			c6.2,0.7,12.1,1.4,15.5,2.5c0.5,0.6,2.6,3.4,3.5,5.9c3.2,8.6,4.4,22.4,3.9,37.2c-0.3,11.3-1.8,23.2-3.6,34
			c-1.4,8.5-3.4,16.2-5.3,22.3c-1.1,3.8-2.3,6.9-3.3,9.1c-0.3,0.8,0.8,2.1-0.4,1.9c-0.5-0.1,0.5,0.5,0.7,0.4
			c-3.6,1.1-4.6,3.2-2.1,4.8c2.4,1.6,7.4,2,11,0.9c3.3-0.6,7-2.4,10.8-5.5c2.3-1.9,4.1-4.4,5.8-7.4c6.5-11.3,9.8-29.8,11.5-48.3
			c2.1-22.3,0.3-44.7-5.4-55.1c-2.3-4.2-6-7-9.3-8.3c-4.6-1.8-12-3.4-20.9-4.5c-14.3-1.9-32.6-2.8-42.8-3.4
			c-15.6-0.9-31.4-1.1-47.2-1c-35.1,0.4-70.4,2.8-105,2.8c-58,0-117.2-0.2-176.3-0.7c-59.1-0.5-118.2-1.4-176-2.9
			c-22.3-0.6-44.5-0.9-66.8-1.1c-33.3-0.3-66.5-0.3-100-0.2c-15.4,0.1-28.5,0.8-37.2,2.1c-1.8,0.3-3.3,0.6-4.7,0.9
			C1566.7,286,1564.1,286.5,1563.5,287z M1566.9,289c-0.1,0.2-0.3,0.5-0.5,0.7C1566.7,289.4,1566.8,289.2,1566.9,289z"/>
	</g>
	<g transform="matrix(2.31336,0,0,1.52689,-2959.89,-19.2907)">
		<path class="st4" d="M1565.9,484.8c2.8,0.3-2.4,0.4,1-0.2c1.2,0.8,3.8,1,5.7,0.6c2-0.5,2.7-1.5,1.5-2.2c2.7-0.8-1.6-0.8,0.8-0.4
			l0.3,0.1c1.6,0.2,1,1,0.6,1.1c-1.1,0.3,0.7,0.6-0.6,0.7c-1.4,0.1-1.4,1-3.2,1c-0.6,0-2.5,0.1-2.5,0.1s0.5,0.2,0.9,0.3
			c5.3,1.3,15.9,3.7,21.3,4.4c6.7,0.7,13.6,1.2,20.5,1.5c10.1,0.5,20.2,0.6,30.2,0.7c25.9,0.2,51.6,0.6,77.3,0.9
			c25.7,0.4,51.4,0.9,77.3,1.5c34.7,0.8,69.5,1,104.3,1.1c80.6,0.1,161.3-0.9,241.8,0.2c33.4,0.4,88.9,2.7,135,0.5
			c15.2-0.7,29.6-1.7,41.5-3.8c6.2-1.1,11.5-2.4,16.4-3.9c4.2-1,5.3-3.2,2.7-4.9c-2.7-1.6-8.3-2.1-12.4-1c-3.9,0.8-8.2,1.2-12.7,1.8
			c-16.1,2.1-35.6,3.5-56.3,3.8c-40.7,0.7-85.1-1.2-113.3-1.6c-92.2-1.1-184.8,0.8-277,0.5c-23-0.1-45.9-0.2-68.8-0.6
			c-26-0.5-51.8-0.8-77.6-1.1c-25.8-0.3-51.7-0.5-77.7-0.6c-9.5,0-19.3,0-28.9-0.3c-6.2-0.2-12.3-0.5-18.4-1
			c-4.2-0.4-11.5-2.3-16.7-3c-3.2-0.5-5.8-0.7-7.2-0.7c-1.4,0-2.5,0-3.3,0.1c-0.7,0.2-1.5,0.2-2,0.4c-0.3,0.1-1,0.2-1,0.3
			c-0.3,0.9-3.3,0.6-1.4,1.3c0.5,0.2-0.4,0.2,0,0.4c0.5,0.3-0.9,1.6,1.6,1.8L1565.9,484.8z"/>
	</g>
	<g transform="matrix(2.31336,0,0,1.52689,-2954.48,5.55112e-17)">
		<path class="st4" d="M1669.7,354.5c6.6-1,13.9-1.4,21.7-1.9c4.8-0.3,9.8-0.6,14.9-0.8c30.7-1.2,66.1-0.3,91.4-1.4
			c71.8-3.3,141.4-6.4,211-5.8c45.8,0.4,91.7,2.5,138.1,7.1c8.3,0.8,56-1.6,92.4,0.2c9.5,0.5,18.1,1.2,24.6,2.6
			c3.8,0.8,6.4,1.9,7.2,3.5c0.2,0.5,1.1,0.9,1.2,1.4c-0.8,2.3,3.3,4.5,9.3,4.8c5.9,0.3,11.4-1.3,12.2-3.6c1-0.8,1.5-1.6,1.8-2.4
			c2.7-7.6-14.4-12.6-36.9-14.8c-22.6-2.2-54.1-1.5-78-0.7c-14.1,0.4-25.1,1.1-28.6,0.8c-48.3-4.4-95.7-6.1-143.1-6.2
			c-70.4-0.1-140.6,3.3-213.2,7c-25.2,1.3-60.6,0.5-91.1,2.2c-5.5,0.3-10.9,0.6-16,1.2c-8.5,0.9-16.1,2.3-22.7,3.9
			c-2.1,0.4-2.9,1.4-1.9,2.2C1665.1,354.6,1667.6,354.9,1669.7,354.5z"/>
	</g>
	<g transform="matrix(2.31336,0,0,1.52689,-2954.48,5.55112e-17)">
		<path class="st4" d="M1637.7,357c0.3,0-0.3-0.4-0.1-0.3c0.8,0.1,0.3-0.8,0.8-0.5c0.6,0.2,2.7-0.8,1.8-0.6c-0.7,0.2-1-0.7-1.6-1.1
			c-4.9-3.4-9.7-9.9-12.1-16.3c-2-5.2-3.2-10.2,0.3-12.7c3.5-2.6,12.8-4.6,23-6.6c17.2-3.3,37.6-5.9,48.1-7.6
			c40.9-6.7,68.3-9.1,85.2-4.9c16,3.9,18.9,13.3,20.1,28.6c0.1,1.2,0.5,2.4,0.7,3.7c-0.2,1.6,2.9,2.9,6.9,3c4,0.1,7.4-1.1,7.6-2.7
			c0.5-1.3,1.2-2.6,1.4-3.9c3.9-18.6-7.8-29.7-27.1-34.6c-20.1-5.1-53.3-3.8-102.2,4c-12.6,2-38.7,5.1-57.7,9.3
			c-10.9,2.4-19.5,5.2-23.6,8.1c-7.4,5.4-3.4,19.8,5.8,29.4c3.4,3.6,7.5,6.5,11.3,8.1c2.2,0.9,4.1,1.9,6.3,1.9
			c3.6,0,4.4,0.5,6.2-0.5c0.7-0.4,1.2-0.2,2.1-0.6c0.5-0.3,1.6-0.3,2.1-0.7c1.8-0.6,1.9-1.6,0.4-2.3
			C1642.1,356.5,1639.5,356.4,1637.7,357z"/>
	</g>
	<g transform="matrix(2.31336,0,0,1.52689,-2954.48,5.55112e-17)">
		<path class="st4" d="M1831.5,336.9c-4.2,0.5-5.1,1.7-5.1,3.2c0,0.3,0.5,0.7,1.1,1.1c0.2,0.1,6.9,1.8,12.2-0.4l0.9-0.3
			c2.4-0.2,5.2-0.7,6.8-0.6l0.1,0c1.3,0.3,3.1,0.3,4.5,0c2.2-0.5,4.1-2.6-2.3-3.2c4.3-1.8,8.1-3.5,8.4-3.7l21.5-11.4
			c16.1-9,29.1-17.8,47.2-24.8c11.6-4.5,25.3-8.2,42.5-10.9c11.9-1.9,48.5-4.6,80-4.8c11.4-0.1,22.1,0.2,30.6,0.9
			c4.8,0.4,8.8,0.8,10.3,2c2.7,2,1.5,5.4,0.2,8.9c-2.3,6.5-7.1,13.7-8.2,17.7c-1.4,5.1-1.9,6.6-3.3,8.7c-0.7,1-1.8,2.1-2.5,3.9
			c-0.4,1.1-0.2,2.2-0.3,3.7c-1.5,1.7,0.8,3.6,5.2,4.1c4.4,0.6,9.1-0.3,10.6-2c1.9-0.9,3.5-1.5,4.8-2.3c2.5-1.6,3.5-2.9,4.5-3.9
			c2.8-2.8,3.2-4.5,5.2-11.2c1.4-4.7,7.9-13.4,9.4-20.6c0.9-4.6-0.3-8.6-4-11.3c-3-2.2-8.1-4-15.5-5.2c-8.4-1.3-20.2-1.9-33.5-1.8
			c-36.3,0.4-84.9,5.8-98.9,8.5c-18.1,3.5-31.8,8-44.1,13c-18,7.3-32.5,15.9-49.3,24.9l-22.1,10.9
			C1847.8,330.1,1837,334.6,1831.5,336.9z M1845.5,338.4l-0.1,0.1l0.1,0.1c0,0.1,0.1,0.1,0.1,0.1l0.1,0c0-0.1-0.1-0.1-0.1-0.2
			L1845.5,338.4z"/>
	</g>
	<g transform="matrix(2.31336,0,0,1.52689,-2954.48,5.55112e-17)">
		<path class="st4" d="M1962.7,220.9c-0.3,0.2-1,0.1-1.9,0.1c-2.1,0-4.8-0.2-8-0.6c-13.2-1.7-32.8-6.5-51.7-13.6
			c-17.6-6.6-34.7-15-44.4-24.9c-47.9-47.9-32.8-100.5-52.2-144.3c-3.3-7.5-7.4-14.8-13.5-21.7c-4.2-4.8-9.5-9.3-15.4-13.7
			c-1.2-1-4.3-1.4-6.9-0.9c-2.6,0.5-3.7,1.7-2.4,2.7c4.9,4.4,8.7,8.9,12.3,13.5c5.3,6.8,9.6,13.8,12.8,21.1
			c19.2,44.1,4.3,97.1,52.4,145.4c13.3,12.9,37.9,23.6,61.8,30.7c18.5,5.5,36.5,8.8,48,9.6c9.1,0.7,14.9-0.3,16.7-2
			c0.9-0.8,0-1.8-2.1-2.2C1966.1,219.7,1963.6,220.1,1962.7,220.9z"/>
	</g>
	<g transform="matrix(2.31336,0,0,1.52689,-2954.48,5.55112e-17)">
		<path class="st4" d="M1723.7-16.7c-10.5-9.6-28.3-18.2-51.4-25.4c-30.6-9.5-70.2-16.4-111.8-20.7c-72.6-7.5-151.8-6.8-204.4,2.3
			c-29.9,5.2-56.5,13.2-78.3,22.9c-21.5,9.6-38.4,20.9-50.1,32.4c-1.2,1.1,0.1,2.4,3,2.9c2.8,0.5,6.1-0.1,7.3-1.2
			c12.4-10.8,30-21.2,51.2-30.1c21-8.8,45.6-16.2,73.7-20.9c49.8-8.5,124.3-8.2,192.9-1.3c39.5,4,77,10.2,107.2,18.6
			c22.5,6.2,41.3,13.4,53.1,22c1,0.8,3.5,1.2,5.6,0.8C1723.8-14.9,1724.7-15.9,1723.7-16.7z"/>
	</g>
	<g transform="matrix(2.31336,0,0,1.52689,-2954.48,5.55112e-17)">
		<path class="st4" d="M1238.1,70.9l0.7,0.4c3.1,2.1,9.8,7.7,10.4,8.2c4.9,3.2,10.5,6,16.8,8.5c6.2,2.5,13.2,4.8,20.7,6.9
			c13.3,3.9,27.8,7.2,42.8,10.2c10,2,20.1,3.8,30.6,5.4c26.7,3.9,54.9,6.2,83,6.2c21.1-0.1,41.8-1.2,62-3.1
			c20-1.9,39.6-4.6,58.8-7.8c127.1-21.7,136.4-57.1,94.7-81.4c-36.3-21.1-113.4-34.3-188.3-22.8c-6.4,1-12.8,2.1-19,3.6
			c-8.6,2-16.8,4.5-24.9,7.4c-3,0.9-3.6,2.6-1.3,3.8c2.3,1.2,6.6,1.4,9.7,0.5c8.4-2.1,17-3.6,25.4-5.1c5.8-1,11.5-2,17.3-2.8
			c66-9.3,132.4,1.7,164.1,20c36.3,21,24.7,50.9-85.2,70c-18.1,3.2-36.7,5.8-55.6,7.8c-18.8,2-38.1,3.3-58,3.7
			c-26.4,0.7-53.3-0.8-79-3.8c-10.3-1.2-20.6-2.7-30.3-4.4c-14.9-2.7-28.8-6.1-41.7-9.8c-7.1-2.1-13.7-4.2-19.6-6.6
			c-5.8-2.4-11.1-5-15.5-7.9c-0.7-0.5-7.3-6-10.3-8.1c-1.9-1.3-4.6-1.7-5.1-1.7c-2.3,0-4.2,0.7-4.2,1.6
			C1236.7,70.1,1237.2,70.6,1238.1,70.9z"/>
	</g>
	<g transform="matrix(2.31336,0,0,1.52689,-2954.48,5.55112e-17)">
		<path class="st4" d="M1363.6,21.5c16.9-15.6,42.8-27.2,75.4-33.2c13.5-2.5,28.2-4,43.9-4.6c21.1-0.8,44,0.1,68.4,3.3
			c2.9,0.4,6-0.2,7-1.3c1-1.1-0.5-2.3-3.4-2.7c-26-3.8-50.6-5.3-73.3-4.5c-17.3,0.6-33.4,2.5-48.2,5.5
			c-34.3,6.9-61.1,19.5-77.6,36.4c-0.9,0.8,0.2,1.8,2.3,2.1C1360.3,22.7,1362.7,22.3,1363.6,21.5z"/>
	</g>
	<g transform="matrix(2.31336,0,0,1.52689,-2954.48,5.55112e-17)">
		<path class="st4" d="M1713.4,43.1c-0.3-0.4-1-0.7-1.9-0.9c-2-0.4-4.5-0.2-5.7,0.6c-0.6,0.3-0.8,1,0.1,1.9c0.5,0.5,2.1,1.5,4.8,2.6
			c7.1,3.1,21.7,7.5,22.7,8c8.6,3.6,15.6,7.2,21.5,11.2c5.9,4,10.6,8.2,14.5,12.8c4.2,4.7,6.4,9.4,7.5,14.2c1.7,7.5,1.1,15,3.2,22.6
			c4.9,20.7,14,42.6,36.6,61.8c7.7,6.5,16.8,12.7,28,18.4c11,5.5,24.1,10.5,39.1,14.9c1.4,0.4,3.3,0.3,4.4-0.2
			c1.1-0.5,0.8-1.3-0.5-1.7c-13.9-4.6-25.4-9.7-35.6-15.2c-10.4-5.6-19.3-11.5-26.7-17.8c-22.1-18.8-31.3-40.2-36.3-60.5
			c-1.9-8.9-0.5-17.7-2.6-26.4c-0.9-3.9-2.5-7.7-5.3-11.5c-4-5-9-9.6-15.3-13.8c-6.4-4.2-14.2-8.2-23.7-12c-1-0.4-12.9-4.4-21.7-7.1
			c-2.1-0.6-4-1.1-5.4-1.5C1714.4,43.4,1713.6,43.2,1713.4,43.1z"/>
	</g>
	<g transform="matrix(2.31336,0,0,1.52689,-2954.48,5.55112e-17)">
		<path class="st4" d="M2069.9,260.2l0.1,0c0.4-0.2-0.2-0.1-0.8,0C2069.5,260.2,2069.7,260.2,2069.9,260.2c-0.2,0.1-0.6,0-1,0l0.3,0
			l-0.4,0l-0.3,0c-2.5-0.5-6.6-2.8-6.9-3.1c-3.3-2.2-6.3-4.4-9.1-6.7c-2.8-2.3-5.5-4.6-8-7c-7.2-6.7-13.9-13.9-17.3-21.2
			c-3.3-7.1-3.4-14.4,1.5-21.4c6.1-8.8,16-16.2,28.5-22.3c13.5-6.7,30.2-11.9,49.2-15.7c26.1-5.2,56.4-7.6,88.1-8.3
			c13.1-0.3,26.4-0.5,39.9-0.1c1.9,0.1,3.6-0.4,3.9-1.2c0.3-0.7-1.1-1.4-3-1.5c-13.7-1.2-27.3-2-41-2.2c-34-0.5-66.8,2.4-95,7.8
			c-21.3,4.1-40.2,9.8-55.1,17.2c-13.6,6.8-23.6,15.1-29.5,24.9c-3.8,6.3-3.8,12.7-1.6,19.1c3.2,9.2,11.2,18.3,20.4,26.7
			c2.6,2.4,5.4,4.8,8.3,7.2c3,2.4,6.1,4.7,9.6,7c0.7,0.4,10.4,4.3,14,4.5c1.8,0.1,2.7,0.3,3.4,0.1c2-0.6,4.6-0.4,4-1.4
			c-0.2-0.3,1.1-0.9-0.5-1.4C2072.1,260.7,2071.1,260.4,2069.9,260.2z M2064.5,261.6l-0.3,0.1c-0.1,0.1,0.1,0.1,0.3,0.2l-0.1-0.2
			C2064.4,261.8,2064.4,261.7,2064.5,261.6L2064.5,261.6z M2068,260.2c-0.2,0-0.5,0-0.7,0.1c-0.5,0.1-0.9,0.2-1.3,0.3
			C2066.4,260.2,2066.9,260,2068,260.2z"/>
	</g>
	<g transform="matrix(2.31336,0,0,1.52689,-2954.48,5.55112e-17)">
		<path class="st4" d="M2277.5,169.5l-0.2-0.1C2277.3,169.4,2277.4,169.4,2277.5,169.5c1.6,1,2.8,2.1,3.8,3.3c1.8,1.9,3,3.9,3.9,5.8
			c2.7,4.9,2.9,10,1.8,15.1c-1.2,5.2-3.8,10.4-7.2,15.2c-6.7,9.4-24.5,18.6-46.9,23.8c-13.3,3.1-28.4,4.7-43.5,4.4
			c-9.6-0.2-19.4-0.9-29-2.8c-3.5-0.8-7.9-0.3-10,1c-2,1.4-0.8,3.1,2.7,3.9c11.4,2.9,23.3,4.5,35.3,4.8c18.6,0.5,37-1.9,53.1-5.9
			c25.7-6.2,46.1-16.8,53.7-27.7c3.6-5.2,6.6-10.7,7.8-16.3c1.3-5.7,0.8-11.4-2.2-16.9c-1.1-1.9-2.4-3.8-4.2-5.6
			c-1.9-1.9-4.2-3.8-7.3-5.4c-0.9-0.3-1.7-0.9-3.3-1.1c-2.3-0.3-7.2-0.4-7.2-0.4v0c-0.9-0.3-2.1-0.4-3.3-0.3
			c-1.9-0.1-2.5,0.5-3.1,0.6c-2,0.5-1.3,1.3,0.7,2.6c0.6,0.4,7.3,1.3,5.3,2C2278.1,169.7,2277.7,169.6,2277.5,169.5z M2279.1,167.3
			l0.1,0C2279.1,167.3,2279.1,167.3,2279.1,167.3L2279.1,167.3z M2280.2,165.4c0.3,0.1,0.4,0.3,0.3,0.5l0-0.1
			C2280.4,165.6,2280.3,165.5,2280.2,165.4z"/>
	</g>
	<g transform="matrix(2.31336,0,0,1.52689,-2954.48,5.55112e-17)">
		<path class="st4" d="M2156.7,180.6c-1.4-0.9-0.2-1.7,1.6-2.3c3.8-1.4,10.5-2.2,15.3-2.6c8.6-0.9,18.4-1,27.9-0.4
			c9,0.6,17.7,1.9,24.3,4.2c22.2,7.5,21.7,19.8,8.5,28.9c-8,5.4-20.7,9.5-36.5,11.1c-9.6,1-20.3,1.3-32.1-0.1
			c-2.9-0.4-6.3,0.1-7.4,1.3c-1.1,1.1,0.3,2.4,3.3,2.9c14,2.6,27.6,3.4,39.9,2.6c21-1.4,37.8-7.3,47.8-14.5
			c16.3-11.6,14.7-27.3-14.2-36.5c-8.8-2.8-20-4.5-31.7-5c-11.3-0.6-23-0.2-33.2,1c-6.2,0.8-14.7,2.4-19.2,4.4
			c-4.5,2-6.3,4.4-1.4,6.9c1.3,0.8,4,1,5.9,0.5C2157.5,182.4,2158,181.4,2156.7,180.6z"/>
	</g>
	<g transform="matrix(2.31336,0,0,1.52689,-2954.48,5.55112e-17)">
		<path class="st4" d="M2141.2,192.6c1,0.8,3.4,1.1,5.5,0.7c2.1-0.4,3-1.3,2.1-2.2c-1.4-2.6-8.2-3.1-16.8-2
			c-10,1.3-22.1,5.8-23.7,6.4c-12.7,4.9-22.4,10.7-23.3,16.7c-0.6,4.2,2.9,8.6,12.1,12.6c2.7,1.3,7.6,1.5,11,0.5
			c3.3-1.1,3.9-3,1.2-4.3c-6.9-3.5-7.7-7.1-5.4-10.5c2.5-3.7,8.4-7.3,16.2-10.5c1-0.4,7.8-3.1,14.3-5.1c2.1-0.6,4.9-2.3,5.8-1.6
			C2140.5,193.7,2141.5,192.9,2141.2,192.6z"/>
	</g>
	<g transform="matrix(2.31336,0,0,1.52689,-2954.48,5.55112e-17)">
		<path class="st4" d="M1975.4,234.7c6.3-0.5,13.4,2.9,20.9,6.7c3.8,1.9,7.2,4.1,10.7,6.2c6.7,3.9,12.8,7.5,14.3,9.4
			c0.5,0.9,2.7,1.4,5,1.2c2.3-0.2,3.7-1.1,3.2-2c-0.9-2.2-5-6.8-12-11.3c-3.5-2.3-7.9-4.4-12.3-6.4c-11-4.9-23.4-8.1-31.7-7.1
			c-2.3,0.2-3.6,1.1-3,2C1970.9,234.4,1973.2,235,1975.4,234.7z"/>
	</g>
	<g transform="matrix(2.31336,0,0,1.52689,-2954.48,5.55112e-17)">
		<path class="st4" d="M1285.2,1.3c-1.8,0.6-3.5,1.2-5,1.9c-3.5,1.7-5.9,3.5-8.4,5.3c-9.3,6.7-14.3,13.3-15.6,20.1
			c-1.7,8.9,3.3,18.2,15.9,29c1.3,1.1,4.7,1.6,7.6,1.1c2.9-0.5,4.2-1.8,2.9-3c-11.4-10-16-18.6-14.1-26.8c1.4-6.2,6.6-12,14.6-18.2
			c2.2-1.7,4.9-3.3,7.1-5.2c0.9-0.8,1.4-1.6,2.1-2.5c1.3-0.8,0.7-1.8-1.2-2.3C1289.1,0.3,1286.5,0.5,1285.2,1.3z"/>
	</g>
	<g transform="matrix(2.31336,0,0,1.52689,-2954.48,5.55112e-17)">
		<path class="st4" d="M1711.8,405.1c0.9-0.3,1.6-0.8,1.4-1.6c-0.1-0.3-0.5-0.8-0.7-1.3l0.1-0.2c0.1-0.2,0.3-0.6,0.3-0.6
			s-0.3,0.1-0.6,0.3c-0.1-0.3-0.2-0.6,0-0.9c0.3-0.8,1-1,1.6-1.5c1.4-1.1-1.3-1.3-1.3-1.7c0-0.6-1.6-0.3-2.1-0.6
			c-1.4-0.9-4.1-0.2-6.4-0.1c-1.6,0.2-3.1,0.7-4.4,1.4c-1.3,0.8-2.7,2.6-3.1,5c-0.9,5.5,1.2,15,1.3,16.4c0.8,10.1-3.7,16.5,0,19.7
			c2.9,2.5,9.3,4.2,25.2,4.1c6.2-0.1,13.9,0.4,21,0.2c3.6-0.1,7.7,0.1,10.1-0.8c0.6-0.2,0.5-0.2,0.8-0.6c3.8-0.6,5.7-2.2,4.2-3.7
			c-1.5-1.5-5.8-2.2-9.6-1.6c-0.6-0.1-0.2-0.3-0.9-0.3c-0.5,0-0.9,0.1-1.3,0.1c-7.8,0.7-17.8,0.2-25.3,0.4c-4.3,0.2-7.5,0.4-9.9,0.2
			c-1-0.1-1.8-0.1-2.1-0.3c-3.6-2.8,2.5-8.5,2.2-17.6C1712.3,418.3,1711.1,410.4,1711.8,405.1z M1709.9,402.5
			c-1.2-0.1-2.5-0.1-3.6,0.2l0.3,0C1707.6,402.5,1708.7,402.4,1709.9,402.5z M1704.6,402.5c-0.1-0.4-0.4-0.7-0.8-1
			c-0.9-0.6-3.5-0.2-2.9-0.6c0.2-0.1-0.8,0.1-0.5,0.1c0.5,0.1-0.1,0.3,0.2,0.4c0.8,0.1,0.3,0.5,0.8,0.5c1.4,0,1,0.6,2,0.6
			C1703.9,402.5,1704.3,402.5,1704.6,402.5z"/>
	</g>
	<g transform="matrix(2.31336,0,0,1.52689,-2954.48,5.55112e-17)">
		<path class="st4" d="M1797.1,401.4c-0.1,0-0.2,0.1-0.3,0.2c-0.3,0.3-0.8,0.5-1.1,0.9c-1.9,2.6-3.5,7.5-3.4,10.3
			c0.3,6.4-2.6,17.1,5.8,23.8c4.7,3.8,12.7,6.5,25.4,7.2c21.5,1.2,33.8-2,40.8-7c12.5-9,5.1-26.1,7.2-35.5c0.4-1.6-2.6-3-6.7-3.2
			c-4.1-0.2-7.7,1-8.1,2.6c-1.9,7.5,2.9,20.3-2.8,29.2c-3.2,5.1-10.8,8.6-28.2,7.6c-9.3-0.5-13.6-3-16-6.2c-4.5-5.9-3-13.7-3.8-18.7
			c-0.5-2.5,2.1-6.9,2-9.4c0-0.5-0.2-0.9-0.4-1.2c-0.7-1.2-1.2-1.9-1.8-2c-1.4-0.3-7.2-1.9-8.1,0.7
			C1797.2,400.8,1797.1,401.1,1797.1,401.4z"/>
	</g>
	<g transform="matrix(2.31336,0,0,1.52689,-2954.48,5.55112e-17)">
		<path class="st4" d="M1910.2,437.2c-0.8,0.6-0.7,1.3,0.4,1.8c1.5,1.1,2.9,1.6,3.7,1.9c3.5,1.3,5.8,0.2,8-0.5
			c1.1-0.4,2.3-1.3,2.7-3.3c0.4-1.6-1.3-4.2-0.8-6.6l2.9-18.6c1.2,0.7,2.5,1.5,3.8,2.2c1.5,0.8,24.1,14.3,38.8,21.7
			c4.8,2.4,9,4.2,11.3,4.9c2.4,0.7,4.5,1,5.7,1c0.5,0,8.3-0.4,8.7-3.3c0.1-1,0.2-3.6,0.2-3.7l0.1-8.6l5.7-25.2
			c0.3-1.3-2.1-2.5-5.5-2.6c-3.4-0.1-6.4,0.8-6.7,2.2c-1.8,6-4.5,11.7-6.4,17.6c-0.8,2.6-1.5,5.1-1.9,7.8l-0.5,5.1
			c-14.6-7.3-36.2-19.4-37.6-20.2c-3.2-1.7-6.5-3.5-9.4-5.3c-1.8-1.2-3.5-2.4-5-3.6l-1.3-1.9c-0.7-1.4-4-2.3-7.5-2.2
			c-3.5,0.1-6.3,1.3-6.4,2.7l-1.3,10l-3.7,19.7C1908.3,432.8,1908.6,435.4,1910.2,437.2z"/>
	</g>
	<g transform="matrix(2.31336,0,0,1.52689,-2954.48,5.55112e-17)">
		<path class="st4" d="M2096,400.7c-0.1-0.6,0.5-0.3-0.3-0.8c-0.8-0.6-2.5-0.7-4-1c-18.9-3.4-36.8,0.4-48.1,6.1
			c-16.6,8.3-19.4,22.6-3.8,31.3c7.2,3.9,21.1,6.2,35.1,6.3c11.1,0.1,23-0.9,29.4-3.8c1.9-0.9,3.2-1.8,4.1-3c1.8-1.1,0.9-2.6-2-3.3
			c-2.9-0.7-6.7-0.4-8.5,0.8c-1.2,0.4-2.8,0.5-4.2,0.8c-5.1,1.3-11.5,2.1-18.3,2c-8.4-0.1-17-1.4-21.1-3.7
			c-9.5-5.4-8.4-13.4-1.4-19.6c6.2-5.6,17.3-9.4,33.7-8.5c1.4,0.1,2.8,0.2,4.3,0.1c1.5-0.2,0.6-0.2,1.8-0.6c2.1,0.3,4.6-0.1,5.5-0.9
			C2099.1,402,2098.1,401.1,2096,400.7z"/>
	</g>
	<g transform="matrix(2.31336,0,0,1.52689,-2954.48,5.55112e-17)">
		<path class="st4" d="M2147.1,392.9c-1.9-0.6-5.2,1.4-8.2,7.6l-0.2,0.3c-0.6,0.8-2.9,3.8-3.1,5c-0.3,0.6-0.5,1.2-0.6,1.9
			c-0.3,2.4,0.5,4.7,0.6,7.1c0.5,4.9-2.8,11.9-2.6,18c0.1,2.8-0.3,5.8,2.9,7.8c0.5,0.3,1.1,0.5,1.9,0.7c1.4,1.4,5.4,2.1,9,1.5
			c3.6-0.5,5.3-2.1,4-3.5c0.1-0.3,0.6-0.4,0.5-0.7c-0.3-1.8-1.9-3.8-2.1-6c-0.6-6.2,1.5-13.3,0.5-18.2l-3.2-8.8
			c-0.3-0.5-0.8-1.2-0.6-2c0.1-0.7,0.5-1.3,0.8-1.8l0.1-0.1c0.1-0.2,0.1-0.2,0.2-0.3l0.3-0.7c0.6-1,0.9-2,1.2-2.9
			C2150.1,393.4,2149.2,392.1,2147.1,392.9z"/>
	</g>
	<g transform="matrix(2.31336,0,0,1.52689,-2954.48,5.55112e-17)">
		<path class="st4" d="M2149.8,419.6c0.2,0.1,0.5,0.2,0.1,0.2c-1.5,0-2,2.2-1.1,1.3c0.3-0.4,2.3,0.4,4.4,0.5
			c8.2,0.6,21.5,1.4,33.1,1c3.5-0.1,7.1-0.1,9.9-0.7c1.2-0.2,2-0.4,2.8-0.8c2.6-1.2,3.4-1.6,4.3-3c1.1-0.3,1.4-0.9,0.6-1.3
			s-2.3-0.5-3.4-0.2c-2.9-0.1-3.3-0.8-6.6-1c-1.1-0.1-2.1-0.2-3.3-0.1c-13,0.4-30.4-0.4-38.9,0c-3.4,0.2-6,0.3-6.9,0.8
			c-0.9,0.6-1.7,0.2-1.5,0.7c0.1,0.4-1,0.1-0.6,0.5c0.7,0.7-1.8,0.3-0.6,0.9c-0.9,0.8,0.1,1.8,2.3,2.1
			C2146.5,420.7,2148.8,420.4,2149.8,419.6z"/>
	</g>
	<g transform="matrix(2.31336,0,0,1.52689,-2954.48,5.55112e-17)">
		<path class="st4" d="M2213.7,400c1.7-0.4,2.6-1.1,2.1-1.9c-0.6-0.9-2.9-1.4-5.2-1.1c-2.3-0.7-1.2,0.2-6.2,1.2
			c-0.6,0.1-0.8,0.4-1.2,0.7c-3.7,2.5-2.2,10.3-2.4,11.2c-0.8,7.8-1.8,15.9-1,23.9c0.3,2.8-0.4,5.7,1.7,8.3c0.6,0.8,1.6,1.3,2.6,2
			c0.7,1.8,4.9,3,9.4,2.7c4.5-0.3,7.6-1.9,6.9-3.7c0.4-0.6,1.1-1.1,1.2-1.7c0.1-0.5-0.3-1.1-0.5-1.6c-2.9-9.8-2.9-20.1-2.9-29.8
			c0-0.5-0.2-3.5-0.5-6.4c-0.1-1.4,0-2.8-0.3-3.6c-0.1-0.2-1.4-0.2-1-0.3c0.5-0.1-1-0.2-0.9,0C2216.1,400.5,2214.7,400.1,2213.7,400
			z"/>
	</g>
	<g transform="matrix(2.31336,0,0,1.52689,-2954.48,5.55112e-17)">
		<path class="st4" d="M1560,450.1l0-0.1C1560,450,1559.9,450.1,1560,450.1L1560,450.1c0,0.2,0,0.4,0.3,0.4c1.2,0.1,0.7,0.4,0.3,0.8
			c-0.2-0.6-1.3-1.2-2.9-1.4c-2.2-0.3-4.5,0.2-5.2,1.1c-0.6,0.1,0,0.3-0.4,0.5c-1.4,0.7-0.1,1.2,3,2.4c0.9,0.4,3,0.5,5.5,0.7
			c13.5,1.1,48.5,1.6,56.5,1.7c13,0.2,26,0.6,38.9,1c30.4,1.1,60.7,2.5,91.2,3.3c75.7,2,152.8,3.6,229.8,3.9
			c77.2,0.4,154.3-0.5,230-3.6c31.1-1.2,63.5-0.8,95-1.8c9.7-0.3,19.5-0.6,28.9-1.5c4.1-0.4,8-1,11.9-1.6c2.4-0.2,3.9-1.2,3.3-2.1
			c-0.6-0.9-3-1.5-5.4-1.3c-5.3,0.3-10.6,0.4-16,0.7c-12.3,0.6-24.7,1.3-37.2,1.6c-27.3,0.7-55,0.7-81.7,1.9
			c-60.3,2.5-121.5,3.7-182.9,3.9c-92,0.2-184.4-1.7-275-4.3c-30.4-0.8-60.7-2.3-91-3.4c-13.1-0.5-26.2-0.9-39.4-1.1
			c-7.7-0.1-41.6-0.6-54.7-1.6C1561.7,450.2,1560.2,450.3,1560,450.1z"/>
	</g>
	<g transform="matrix(2.31336,0,0,1.52689,-2954.48,5.55112e-17)">
		<path class="st4" d="M1546.9,384.6c4.7-0.2,9.9-0.2,15.4-0.1c21.3,0.4,46.4,2.6,62.1,2.5c43-0.2,85.1-0.8,127.6-0.9
			c18,0,36.2,0,54.4,0.4c73.7,1.2,147.1,1.3,220.4,0.8c49.6-0.3,99.1-1,148.6-1.6c49.5-0.6,99.1-0.8,148.6-1.8
			c11-0.2,21.9-0.6,33-0.9c2.5,0,4.4-0.9,4.3-1.8c-0.1-1-2.2-1.7-4.7-1.7c-11,0-22.1,0-33.1,0.1c-49.5,0.6-98.9,2.1-148.4,2.8
			s-98.9,1.3-148.4,1.6c-73.2,0.4-146.4,0.2-219.8-1.2c-24.7-0.4-49-0.5-73.2-0.4c-36.3,0.2-72.5,0.8-109.4,1
			c-15.5,0.1-40.5-2-61.6-2.3c-10.8-0.2-20.7,0.2-28,1.3c-4.9,0.8-4,2-1.9,2.9c1.2,0.5,8.7,1.2,11.5,0.7
			C1545.9,385.7,1546.8,385.1,1546.9,384.6z M1539.3,383c-0.4-0.3-0.8-0.5-1.1-0.3C1538.1,382.8,1538.6,382.9,1539.3,383z"/>
	</g>
	<g transform="matrix(2.31336,0,0,1.52689,-2954.48,5.55112e-17)">
		<path class="st4" d="M1873.9,337c-0.6,0.5-0.5,1.1,0.4,1.6c-0.3,0.8,1.9,0.2,4.2,0.7c0.5,0.1,0.7-0.6,2.2-0.4
			c4.3,0.5-7.7,1.5,5.9,0.7c0.3,0,0.5-0.2,0.8-0.3c2-0.8,5-2.2,5.8-2.5c2.9-1.3,6.4-2.6,9.9-3.7c3.6-1.2,7.5-2.3,11.3-3.3
			c3-0.8,6-1.4,8.8-2c7.4-1.5,14.6-2.6,22.3-3.2c11.8-0.9,24.2-1.2,37.9-1.4c14.3-0.2,31.5-1.4,48.2-1.1c10.6,0.2,20.8,1,29.5,2.4
			c3.6,0.6,5.4,2.1,7.8,3.5c2.5,1.4,5.3,2.7,8.3,3.8c4.6,1.6,10.1,2.5,17.1,2.2c6.8-0.5,13-1.1,18.4-2.2c5.9-1.2,10.1-2.9,15.1-4.4
			c0.8-0.3,1.6-0.6,2.6-0.7c2.7-0.5,5.3-0.3,8.1-0.6c1.7-0.2,3.2-0.5,4.8-0.8c10.4-1.9,20.4-3.9,32.4-5c9.3-0.8,19.6-1,32.4,0.1
			c13.1,1,28,3.1,40.8,5.7c8.3,1.7,15.8,3.6,20.4,5.9c4,2,4.3,4.3,0.2,7c-1,0.6-1.9,1.3-2.9,2.1c-1.2,0.9-1.2,1.8-2.4,2.8
			c-3.7,1.2-4.1,3.4-0.9,4.9c3.2,1.4,8.8,1.6,12.5,0.4c3.6-0.4,6.1-0.8,9-1.4c3.1-0.7,5.2-1.7,7.1-2.7c14.4-6.9,10.3-14-1-19.6
			c-6.8-3.4-17.3-6.5-29.7-8.8c-15.4-2.9-33.7-4.7-49.4-5.5c-17.1-0.6-30.6,0.1-42.1,1.9c-5.3,0.8-10.1,1.7-14.7,2.8
			c-6.6,1.7-12.3,3.6-18.2,5.6c-1.3,0.4-2.6,0.8-3.8,1.3c-1.9,0.8-2.6,1.8-4.8,2.5c-0.8,0.3-1.9,0.4-2.9,0.5
			c-5.5,0.8-10.9,0.9-16.9,1.3c-5,0.3-10.1,0.7-15.8,0.7c-4,0.1-5.8-1.2-8.1-2.3c-2.8-1.4-5.6-2.9-8.9-4.1c-2.9-1-5.9-1.9-9.5-2.3
			c-7.8-1-16.5-1.3-25.6-1.7c-19.2-0.7-40.2-0.7-57-1.1c-18.3-0.5-34.5-1-50.2,0.2c-11.3,0.9-22.1,2.7-33.2,5.6
			c-4.4,1.3-8.8,2.8-12.9,4.4c-4.2,1.6-8.1,3.3-11.4,5.1c-0.5,0.3-2.4,1.3-3.7,2.3c-0.6,0.5-1.4,0.9-1.3,1.3
			c0.1,0.4,1.4,0.1,0.7,0.3C1864.8,337.1,1871.1,337.6,1873.9,337z M1876.1,336.2c-0.5,0-1.1-0.1-1,0.2v0l0.3-0.1
			C1875.6,336.3,1875.9,336.2,1876.1,336.2z M1879.5,336.2c-0.5-0.3-0.9-0.4-1.7-0.2h0C1878.3,336.1,1878.9,336.1,1879.5,336.2z
			 M1877.2,336.1c-0.3,0-0.5-0.1-0.7,0.1l-0.1,0C1876.7,336.1,1877,336.1,1877.2,336.1z"/>
	</g>
</g>
</svg>
